<?xml version="1.0" encoding="UTF-8" standalone="no"?>
<!DOCTYPE svg PUBLIC "-//W3C//DTD SVG 1.1//EN"
 "http://www.w3.org/Graphics/SVG/1.1/DTD/svg11.dtd">
<!-- Generated by graphviz version 2.43.0 (0)
 -->
<!-- Title: src/libs/vpatterndb/measurements_def.cpp Pages: 1 -->
<svg width="1044pt" height="203pt"
 viewBox="0.00 0.00 1044.32 203.00" xmlns="http://www.w3.org/2000/svg" xmlns:xlink="http://www.w3.org/1999/xlink">
<g id="graph0" class="graph" transform="scale(1 1) rotate(0) translate(4 199)">
<title>src/libs/vpatterndb/measurements_def.cpp</title>
<!-- Node1 -->
<g id="Node000001" class="node">
<title>Node1</title>
<g id="a_Node000001"><a xlink:title=" ">
<polygon fill="#999999" stroke="#666666" points="439.32,-195 305.32,-195 305.32,-165 439.32,-165 439.32,-195"/>
<text text-anchor="start" x="313.32" y="-183" font-family="Helvetica,sans-Serif" font-size="10.00">src/libs/vpatterndb</text>
<text text-anchor="middle" x="372.32" y="-172" font-family="Helvetica,sans-Serif" font-size="10.00">/measurements_def.cpp</text>
</a>
</g>
</g>
<!-- Node2 -->
<g id="Node000002" class="node">
<title>Node2</title>
<g id="a_Node000002"><a xlink:href="../../d0/d91/measurements__def_8h.html" target="_top" xlink:title=" ">
<polygon fill="white" stroke="#666666" points="431.82,-129 312.82,-129 312.82,-110 431.82,-110 431.82,-129"/>
<text text-anchor="middle" x="372.32" y="-117" font-family="Helvetica,sans-Serif" font-size="10.00">measurements_def.h</text>
</a>
</g>
</g>
<!-- Node1&#45;&gt;Node2 -->
<g id="edge1_Node000001_Node000002" class="edge">
<title>Node1&#45;&gt;Node2</title>
<g id="a_edge1_Node000001_Node000002"><a xlink:title=" ">
<path fill="none" stroke="#63b8ff" d="M372.32,-164.84C372.32,-157.21 372.32,-147.7 372.32,-139.45"/>
<polygon fill="#63b8ff" stroke="#63b8ff" points="375.82,-139.27 372.32,-129.27 368.82,-139.27 375.82,-139.27"/>
</a>
</g>
</g>
<!-- Node4 -->
<g id="Node000004" class="node">
<title>Node4</title>
<g id="a_Node000004"><a xlink:href="../../d0/de0/vtranslatemeasurements_8h.html" target="_top" xlink:title=" ">
<polygon fill="white" stroke="#666666" points="293.82,-129 144.82,-129 144.82,-110 293.82,-110 293.82,-129"/>
<text text-anchor="middle" x="219.32" y="-117" font-family="Helvetica,sans-Serif" font-size="10.00">vtranslatemeasurements.h</text>
</a>
</g>
</g>
<!-- Node1&#45;&gt;Node4 -->
<g id="edge3_Node000001_Node000004" class="edge">
<title>Node1&#45;&gt;Node4</title>
<g id="a_edge3_Node000001_Node000004"><a xlink:title=" ">
<path fill="none" stroke="#63b8ff" d="M335.67,-164.99C310.03,-155.18 276.1,-142.21 251.5,-132.81"/>
<polygon fill="#63b8ff" stroke="#63b8ff" points="252.5,-129.44 241.91,-129.14 250,-135.98 252.5,-129.44"/>
</a>
</g>
</g>
<!-- Node9 -->
<g id="Node000009" class="node">
<title>Node9</title>
<g id="a_Node000009"><a xlink:href="../../d4/da4/def_8h.html" target="_top" xlink:title=" ">
<polygon fill="white" stroke="#666666" points="634.32,-129 552.32,-129 552.32,-110 634.32,-110 634.32,-129"/>
<text text-anchor="middle" x="593.32" y="-117" font-family="Helvetica,sans-Serif" font-size="10.00">../vmisc/def.h</text>
</a>
</g>
</g>
<!-- Node1&#45;&gt;Node9 -->
<g id="edge9_Node000001_Node000009" class="edge">
<title>Node1&#45;&gt;Node9</title>
<g id="a_edge9_Node000001_Node000009"><a xlink:title=" ">
<path fill="none" stroke="#63b8ff" d="M425.25,-164.99C463.72,-154.8 515.11,-141.2 550.89,-131.73"/>
<polygon fill="#63b8ff" stroke="#63b8ff" points="552.23,-135 561,-129.05 550.44,-128.23 552.23,-135"/>
</a>
</g>
</g>
<!-- Node3 -->
<g id="Node000003" class="node">
<title>Node3</title>
<g id="a_Node000003"><a xlink:title=" ">
<polygon fill="#e0e0e0" stroke="#999999" points="407.32,-74 337.32,-74 337.32,-55 407.32,-55 407.32,-74"/>
<text text-anchor="middle" x="372.32" y="-62" font-family="Helvetica,sans-Serif" font-size="10.00">QStringList</text>
</a>
</g>
</g>
<!-- Node2&#45;&gt;Node3 -->
<g id="edge2_Node000002_Node000003" class="edge">
<title>Node2&#45;&gt;Node3</title>
<g id="a_edge2_Node000002_Node000003"><a xlink:title=" ">
<path fill="none" stroke="#63b8ff" d="M372.32,-109.75C372.32,-102.8 372.32,-92.85 372.32,-84.13"/>
<polygon fill="#63b8ff" stroke="#63b8ff" points="375.82,-84.09 372.32,-74.09 368.82,-84.09 375.82,-84.09"/>
</a>
</g>
</g>
<!-- Node5 -->
<g id="Node000005" class="node">
<title>Node5</title>
<g id="a_Node000005"><a xlink:title=" ">
<polygon fill="#e0e0e0" stroke="#999999" points="241.82,-74 196.82,-74 196.82,-55 241.82,-55 241.82,-74"/>
<text text-anchor="middle" x="219.32" y="-62" font-family="Helvetica,sans-Serif" font-size="10.00">QMap</text>
</a>
</g>
</g>
<!-- Node4&#45;&gt;Node5 -->
<g id="edge4_Node000004_Node000005" class="edge">
<title>Node4&#45;&gt;Node5</title>
<g id="a_edge4_Node000004_Node000005"><a xlink:title=" ">
<path fill="none" stroke="#63b8ff" d="M219.32,-109.75C219.32,-102.8 219.32,-92.85 219.32,-84.13"/>
<polygon fill="#63b8ff" stroke="#63b8ff" points="222.82,-84.09 219.32,-74.09 215.82,-84.09 222.82,-84.09"/>
</a>
</g>
</g>
<!-- Node6 -->
<g id="Node000006" class="node">
<title>Node6</title>
<g id="a_Node000006"><a xlink:title=" ">
<polygon fill="#e0e0e0" stroke="#999999" points="122.82,-19 69.82,-19 69.82,0 122.82,0 122.82,-19"/>
<text text-anchor="middle" x="96.32" y="-7" font-family="Helvetica,sans-Serif" font-size="10.00">QString</text>
</a>
</g>
</g>
<!-- Node4&#45;&gt;Node6 -->
<g id="edge5_Node000004_Node000006" class="edge">
<title>Node4&#45;&gt;Node6</title>
<g id="a_edge5_Node000004_Node000006"><a xlink:title=" ">
<path fill="none" stroke="#63b8ff" d="M144.7,-112.85C90.18,-106.98 22.83,-95.53 5.32,-74 -14.24,-49.96 26.71,-31.06 59.85,-20.33"/>
<polygon fill="#63b8ff" stroke="#63b8ff" points="61.28,-23.55 69.81,-17.27 59.22,-16.86 61.28,-23.55"/>
</a>
</g>
</g>
<!-- Node7 -->
<g id="Node000007" class="node">
<title>Node7</title>
<g id="a_Node000007"><a xlink:title=" ">
<polygon fill="#e0e0e0" stroke="#999999" points="318.82,-74 259.82,-74 259.82,-55 318.82,-55 318.82,-74"/>
<text text-anchor="middle" x="289.32" y="-62" font-family="Helvetica,sans-Serif" font-size="10.00">QtGlobal</text>
</a>
</g>
</g>
<!-- Node4&#45;&gt;Node7 -->
<g id="edge6_Node000004_Node000007" class="edge">
<title>Node4&#45;&gt;Node7</title>
<g id="a_edge6_Node000004_Node000007"><a xlink:title=" ">
<path fill="none" stroke="#63b8ff" d="M230.56,-109.98C241.11,-102 257.12,-89.88 269.76,-80.31"/>
<polygon fill="#63b8ff" stroke="#63b8ff" points="272.01,-83 277.87,-74.17 267.78,-77.42 272.01,-83"/>
</a>
</g>
</g>
<!-- Node8 -->
<g id="Node000008" class="node">
<title>Node8</title>
<g id="a_Node000008"><a xlink:href="../../da/da3/qmutranslation_8h.html" target="_top" xlink:title="The VTranslation class help store string for translation.">
<polygon fill="white" stroke="#666666" points="178.32,-74 14.32,-74 14.32,-55 178.32,-55 178.32,-74"/>
<text text-anchor="middle" x="96.32" y="-62" font-family="Helvetica,sans-Serif" font-size="10.00">../qmuparser/qmutranslation.h</text>
</a>
</g>
</g>
<!-- Node4&#45;&gt;Node8 -->
<g id="edge7_Node000004_Node000008" class="edge">
<title>Node4&#45;&gt;Node8</title>
<g id="a_edge7_Node000004_Node000008"><a xlink:title=" ">
<path fill="none" stroke="#63b8ff" d="M199.56,-109.98C179.59,-101.38 148.51,-87.99 125.67,-78.15"/>
<polygon fill="#63b8ff" stroke="#63b8ff" points="127.01,-74.91 116.44,-74.17 124.24,-81.34 127.01,-74.91"/>
</a>
</g>
</g>
<!-- Node8&#45;&gt;Node6 -->
<g id="edge8_Node000008_Node000006" class="edge">
<title>Node8&#45;&gt;Node6</title>
<g id="a_edge8_Node000008_Node000006"><a xlink:title=" ">
<path fill="none" stroke="#63b8ff" d="M96.32,-54.75C96.32,-47.8 96.32,-37.85 96.32,-29.13"/>
<polygon fill="#63b8ff" stroke="#63b8ff" points="99.82,-29.09 96.32,-19.09 92.82,-29.09 99.82,-29.09"/>
</a>
</g>
</g>
<!-- Node9&#45;&gt;Node3 -->
<g id="edge14_Node000009_Node000003" class="edge">
<title>Node9&#45;&gt;Node3</title>
<g id="a_edge14_Node000009_Node000003"><a xlink:title=" ">
<path fill="none" stroke="#63b8ff" d="M557.81,-109.98C519.6,-100.82 458.73,-86.22 417.22,-76.27"/>
<polygon fill="#63b8ff" stroke="#63b8ff" points="417.91,-72.84 407.37,-73.91 416.28,-79.64 417.91,-72.84"/>
</a>
</g>
</g>
<!-- Node9&#45;&gt;Node6 -->
<g id="edge13_Node000009_Node000006" class="edge">
<title>Node9&#45;&gt;Node6</title>
<g id="a_edge13_Node000009_Node000006"><a xlink:title=" ">
<path fill="none" stroke="#63b8ff" d="M580.16,-109.82C555.97,-94.03 505.12,-61.62 485.32,-55 361.15,-13.48 203.62,-9.25 133.22,-9.7"/>
<polygon fill="#63b8ff" stroke="#63b8ff" points="133.04,-6.2 123.08,-9.8 133.12,-13.2 133.04,-6.2"/>
</a>
</g>
</g>
<!-- Node9&#45;&gt;Node7 -->
<g id="edge16_Node000009_Node000007" class="edge">
<title>Node9&#45;&gt;Node7</title>
<g id="a_edge16_Node000009_Node000007"><a xlink:title=" ">
<path fill="none" stroke="#63b8ff" d="M551.9,-112.18C501.64,-104.37 414.1,-90.31 329.17,-74.08"/>
<polygon fill="#63b8ff" stroke="#63b8ff" points="329.58,-70.6 319.1,-72.15 328.26,-77.47 329.58,-70.6"/>
</a>
</g>
</g>
<!-- Node10 -->
<g id="Node000010" class="node">
<title>Node10</title>
<g id="a_Node000010"><a xlink:title=" ">
<polygon fill="#e0e0e0" stroke="#999999" points="653.32,-74 533.32,-74 533.32,-55 653.32,-55 653.32,-74"/>
<text text-anchor="middle" x="593.32" y="-62" font-family="Helvetica,sans-Serif" font-size="10.00">qcompilerdetection.h</text>
</a>
</g>
</g>
<!-- Node9&#45;&gt;Node10 -->
<g id="edge10_Node000009_Node000010" class="edge">
<title>Node9&#45;&gt;Node10</title>
<g id="a_edge10_Node000009_Node000010"><a xlink:title=" ">
<path fill="none" stroke="#63b8ff" d="M593.32,-109.75C593.32,-102.8 593.32,-92.85 593.32,-84.13"/>
<polygon fill="#63b8ff" stroke="#63b8ff" points="596.82,-84.09 593.32,-74.09 589.82,-84.09 596.82,-84.09"/>
</a>
</g>
</g>
<!-- Node11 -->
<g id="Node000011" class="node">
<title>Node11</title>
<g id="a_Node000011"><a xlink:title=" ">
<polygon fill="#e0e0e0" stroke="#999999" points="845.82,-74 772.82,-74 772.82,-55 845.82,-55 845.82,-74"/>
<text text-anchor="middle" x="809.32" y="-62" font-family="Helvetica,sans-Serif" font-size="10.00">QFileDialog</text>
</a>
</g>
</g>
<!-- Node9&#45;&gt;Node11 -->
<g id="edge11_Node000009_Node000011" class="edge">
<title>Node9&#45;&gt;Node11</title>
<g id="a_edge11_Node000009_Node000011"><a xlink:title=" ">
<path fill="none" stroke="#63b8ff" d="M628.02,-109.98C665.07,-100.89 723.91,-86.46 764.45,-76.51"/>
<polygon fill="#63b8ff" stroke="#63b8ff" points="765.46,-79.86 774.34,-74.08 763.8,-73.07 765.46,-79.86"/>
</a>
</g>
</g>
<!-- Node12 -->
<g id="Node000012" class="node">
<title>Node12</title>
<g id="a_Node000012"><a xlink:title=" ">
<polygon fill="#e0e0e0" stroke="#999999" points="914.32,-74 864.32,-74 864.32,-55 914.32,-55 914.32,-74"/>
<text text-anchor="middle" x="889.32" y="-62" font-family="Helvetica,sans-Serif" font-size="10.00">QLineF</text>
</a>
</g>
</g>
<!-- Node9&#45;&gt;Node12 -->
<g id="edge12_Node000009_Node000012" class="edge">
<title>Node9&#45;&gt;Node12</title>
<g id="a_edge12_Node000009_Node000012"><a xlink:title=" ">
<path fill="none" stroke="#63b8ff" d="M634.34,-112.53C684.11,-105.07 770.73,-91.37 854.22,-74.1"/>
<polygon fill="#63b8ff" stroke="#63b8ff" points="855.04,-77.5 864.12,-72.03 853.61,-70.65 855.04,-77.5"/>
</a>
</g>
</g>
<!-- Node13 -->
<g id="Node000013" class="node">
<title>Node13</title>
<g id="a_Node000013"><a xlink:title=" ">
<polygon fill="#e0e0e0" stroke="#999999" points="961.82,-74 932.82,-74 932.82,-55 961.82,-55 961.82,-74"/>
<text text-anchor="middle" x="947.32" y="-62" font-family="Helvetica,sans-Serif" font-size="10.00">Qt</text>
</a>
</g>
</g>
<!-- Node9&#45;&gt;Node13 -->
<g id="edge15_Node000009_Node000013" class="edge">
<title>Node9&#45;&gt;Node13</title>
<g id="a_edge15_Node000009_Node000013"><a xlink:title=" ">
<path fill="none" stroke="#63b8ff" d="M634.46,-115.69C695.56,-110.93 813.86,-99.43 922.89,-73.58"/>
<polygon fill="#63b8ff" stroke="#63b8ff" points="923.84,-76.95 932.74,-71.2 922.2,-70.15 923.84,-76.95"/>
</a>
</g>
</g>
<!-- Node14 -->
<g id="Node000014" class="node">
<title>Node14</title>
<g id="a_Node000014"><a xlink:title=" ">
<polygon fill="#e0e0e0" stroke="#999999" points="1036.32,-74 980.32,-74 980.32,-55 1036.32,-55 1036.32,-74"/>
<text text-anchor="middle" x="1008.32" y="-62" font-family="Helvetica,sans-Serif" font-size="10.00">QPrinter</text>
</a>
</g>
</g>
<!-- Node9&#45;&gt;Node14 -->
<g id="edge17_Node000009_Node000014" class="edge">
<title>Node9&#45;&gt;Node14</title>
<g id="a_edge17_Node000009_Node000014"><a xlink:title=" ">
<path fill="none" stroke="#63b8ff" d="M634.36,-115.14C702.22,-109.27 842.22,-95.79 970.13,-74.03"/>
<polygon fill="#63b8ff" stroke="#63b8ff" points="970.84,-77.46 980.1,-72.31 969.65,-70.56 970.84,-77.46"/>
</a>
</g>
</g>
<!-- Node15 -->
<g id="Node000015" class="node">
<title>Node15</title>
<g id="a_Node000015"><a xlink:title=" ">
<polygon fill="#e0e0e0" stroke="#999999" points="476.82,-74 425.82,-74 425.82,-55 476.82,-55 476.82,-74"/>
<text text-anchor="middle" x="451.32" y="-62" font-family="Helvetica,sans-Serif" font-size="10.00">csignal</text>
</a>
</g>
</g>
<!-- Node9&#45;&gt;Node15 -->
<g id="edge18_Node000009_Node000015" class="edge">
<title>Node9&#45;&gt;Node15</title>
<g id="a_edge18_Node000009_Node000015"><a xlink:title=" ">
<path fill="none" stroke="#63b8ff" d="M570.5,-109.98C547.14,-101.27 510.61,-87.63 484.15,-77.75"/>
<polygon fill="#63b8ff" stroke="#63b8ff" points="485.14,-74.39 474.55,-74.17 482.69,-80.95 485.14,-74.39"/>
</a>
</g>
</g>
<!-- Node16 -->
<g id="Node000016" class="node">
<title>Node16</title>
<g id="a_Node000016"><a xlink:href="../../d4/d82/debugbreak_8h.html" target="_top" xlink:title=" ">
<polygon fill="white" stroke="#666666" points="754.82,-74 671.82,-74 671.82,-55 754.82,-55 754.82,-74"/>
<text text-anchor="middle" x="713.32" y="-62" font-family="Helvetica,sans-Serif" font-size="10.00">debugbreak.h</text>
</a>
</g>
</g>
<!-- Node9&#45;&gt;Node16 -->
<g id="edge19_Node000009_Node000016" class="edge">
<title>Node9&#45;&gt;Node16</title>
<g id="a_edge19_Node000009_Node000016"><a xlink:title=" ">
<path fill="none" stroke="#63b8ff" d="M612.6,-109.98C631.99,-101.42 662.12,-88.11 684.38,-78.28"/>
<polygon fill="#63b8ff" stroke="#63b8ff" points="685.95,-81.41 693.69,-74.17 683.13,-75.01 685.95,-81.41"/>
</a>
</g>
</g>
<!-- Node17 -->
<g id="Node000017" class="node">
<title>Node17</title>
<g id="a_Node000017"><a xlink:title=" ">
<polygon fill="#e0e0e0" stroke="#999999" points="740.82,-19 685.82,-19 685.82,0 740.82,0 740.82,-19"/>
<text text-anchor="middle" x="713.32" y="-7" font-family="Helvetica,sans-Serif" font-size="10.00">signal.h</text>
</a>
</g>
</g>
<!-- Node16&#45;&gt;Node17 -->
<g id="edge20_Node000016_Node000017" class="edge">
<title>Node16&#45;&gt;Node17</title>
<g id="a_edge20_Node000016_Node000017"><a xlink:title=" ">
<path fill="none" stroke="#63b8ff" d="M713.32,-54.75C713.32,-47.8 713.32,-37.85 713.32,-29.13"/>
<polygon fill="#63b8ff" stroke="#63b8ff" points="716.82,-29.09 713.32,-19.09 709.82,-29.09 716.82,-29.09"/>
</a>
</g>
</g>
</g>
</svg>
