<?xml version="1.0" encoding="UTF-8" standalone="no"?>
<!DOCTYPE svg PUBLIC "-//W3C//DTD SVG 1.1//EN"
 "http://www.w3.org/Graphics/SVG/1.1/DTD/svg11.dtd">
<!-- Generated by graphviz version 2.43.0 (0)
 -->
<!-- Title: src/libs/vwidgets/vsimplepoint.h Pages: 1 -->
<svg width="1303pt" height="302pt"
 viewBox="0.00 0.00 1302.50 302.00" xmlns="http://www.w3.org/2000/svg" xmlns:xlink="http://www.w3.org/1999/xlink">
<g id="graph0" class="graph" transform="scale(1 1) rotate(0) translate(4 298)">
<title>src/libs/vwidgets/vsimplepoint.h</title>
<!-- Node1 -->
<g id="Node000001" class="node">
<title>Node1</title>
<g id="a_Node000001"><a xlink:title=" ">
<polygon fill="#999999" stroke="#666666" points="909,-294 735,-294 735,-275 909,-275 909,-294"/>
<text text-anchor="middle" x="822" y="-282" font-family="Helvetica,sans-Serif" font-size="10.00">src/libs/vwidgets/vsimplepoint.h</text>
</a>
</g>
</g>
<!-- Node2 -->
<g id="Node000002" class="node">
<title>Node2</title>
<g id="a_Node000002"><a xlink:title=" ">
<polygon fill="#e0e0e0" stroke="#999999" points="120,-74 0,-74 0,-55 120,-55 120,-74"/>
<text text-anchor="middle" x="60" y="-62" font-family="Helvetica,sans-Serif" font-size="10.00">qcompilerdetection.h</text>
</a>
</g>
</g>
<!-- Node1&#45;&gt;Node2 -->
<g id="edge1_Node000001_Node000002" class="edge">
<title>Node1&#45;&gt;Node2</title>
<g id="a_edge1_Node000001_Node000002"><a xlink:title=" ">
<path fill="none" stroke="#63b8ff" d="M735,-281.14C583.8,-276.43 278.76,-264.09 175,-239 114.82,-224.45 81.06,-235.71 47,-184 26.78,-153.3 40.88,-108.15 51.4,-83.39"/>
<polygon fill="#63b8ff" stroke="#63b8ff" points="54.66,-84.68 55.59,-74.12 48.28,-81.8 54.66,-84.68"/>
</a>
</g>
</g>
<!-- Node3 -->
<g id="Node000003" class="node">
<title>Node3</title>
<g id="a_Node000003"><a xlink:title=" ">
<polygon fill="#e0e0e0" stroke="#999999" points="304,-184 254,-184 254,-165 304,-165 304,-184"/>
<text text-anchor="middle" x="279" y="-172" font-family="Helvetica,sans-Serif" font-size="10.00">QColor</text>
</a>
</g>
</g>
<!-- Node1&#45;&gt;Node3 -->
<g id="edge2_Node000001_Node000003" class="edge">
<title>Node1&#45;&gt;Node3</title>
<g id="a_edge2_Node000001_Node000003"><a xlink:title=" ">
<path fill="none" stroke="#63b8ff" d="M766.9,-274.98C713.78,-266.56 631.19,-252.96 560,-239 452.76,-217.97 424.06,-210.3 314.06,-184.21"/>
<polygon fill="#63b8ff" stroke="#63b8ff" points="314.77,-180.79 304.23,-181.89 313.16,-187.6 314.77,-180.79"/>
</a>
</g>
</g>
<!-- Node4 -->
<g id="Node000004" class="node">
<title>Node4</title>
<g id="a_Node000004"><a xlink:title=" ">
<polygon fill="#e0e0e0" stroke="#999999" points="1144.5,-239 1055.5,-239 1055.5,-220 1144.5,-220 1144.5,-239"/>
<text text-anchor="middle" x="1100" y="-227" font-family="Helvetica,sans-Serif" font-size="10.00">QGraphicsItem</text>
</a>
</g>
</g>
<!-- Node1&#45;&gt;Node4 -->
<g id="edge3_Node000001_Node000004" class="edge">
<title>Node1&#45;&gt;Node4</title>
<g id="a_edge3_Node000001_Node000004"><a xlink:title=" ">
<path fill="none" stroke="#63b8ff" d="M866.67,-274.98C915.3,-265.71 993.11,-250.88 1045.35,-240.92"/>
<polygon fill="#63b8ff" stroke="#63b8ff" points="1046.28,-244.31 1055.45,-238.99 1044.97,-237.43 1046.28,-244.31"/>
</a>
</g>
</g>
<!-- Node5 -->
<g id="Node000005" class="node">
<title>Node5</title>
<g id="a_Node000005"><a xlink:title=" ">
<polygon fill="#e0e0e0" stroke="#999999" points="402,-184 322,-184 322,-165 402,-165 402,-184"/>
<text text-anchor="middle" x="362" y="-172" font-family="Helvetica,sans-Serif" font-size="10.00">QMetaObject</text>
</a>
</g>
</g>
<!-- Node1&#45;&gt;Node5 -->
<g id="edge4_Node000001_Node000005" class="edge">
<title>Node1&#45;&gt;Node5</title>
<g id="a_edge4_Node000001_Node000005"><a xlink:title=" ">
<path fill="none" stroke="#63b8ff" d="M785.52,-274.94C702.57,-255.46 499.91,-207.88 408.31,-186.37"/>
<polygon fill="#63b8ff" stroke="#63b8ff" points="409.02,-182.94 398.48,-184.07 407.42,-189.76 409.02,-182.94"/>
</a>
</g>
</g>
<!-- Node6 -->
<g id="Node000006" class="node">
<title>Node6</title>
<g id="a_Node000006"><a xlink:title=" ">
<polygon fill="#e0e0e0" stroke="#999999" points="961,-184 905,-184 905,-165 961,-165 961,-184"/>
<text text-anchor="middle" x="933" y="-172" font-family="Helvetica,sans-Serif" font-size="10.00">QObject</text>
</a>
</g>
</g>
<!-- Node1&#45;&gt;Node6 -->
<g id="edge5_Node000001_Node000006" class="edge">
<title>Node1&#45;&gt;Node6</title>
<g id="a_edge5_Node000001_Node000006"><a xlink:title=" ">
<path fill="none" stroke="#63b8ff" d="M831.08,-274.66C849.88,-256.38 893.24,-214.18 916.9,-191.17"/>
<polygon fill="#63b8ff" stroke="#63b8ff" points="919.37,-193.64 924.1,-184.16 914.49,-188.62 919.37,-193.64"/>
</a>
</g>
</g>
<!-- Node7 -->
<g id="Node000007" class="node">
<title>Node7</title>
<g id="a_Node000007"><a xlink:title=" ">
<polygon fill="#e0e0e0" stroke="#999999" points="1217.5,-239 1162.5,-239 1162.5,-220 1217.5,-220 1217.5,-239"/>
<text text-anchor="middle" x="1190" y="-227" font-family="Helvetica,sans-Serif" font-size="10.00">QPointF</text>
</a>
</g>
</g>
<!-- Node1&#45;&gt;Node7 -->
<g id="edge6_Node000001_Node000007" class="edge">
<title>Node1&#45;&gt;Node7</title>
<g id="a_edge6_Node000001_Node000007"><a xlink:title=" ">
<path fill="none" stroke="#63b8ff" d="M902.18,-275C967.27,-267.58 1061.59,-255.66 1152.25,-239.18"/>
<polygon fill="#63b8ff" stroke="#63b8ff" points="1152.95,-242.61 1162.15,-237.36 1151.68,-235.73 1152.95,-242.61"/>
</a>
</g>
</g>
<!-- Node8 -->
<g id="Node000008" class="node">
<title>Node8</title>
<g id="a_Node000008"><a xlink:title=" ">
<polygon fill="#e0e0e0" stroke="#999999" points="941.5,-74 888.5,-74 888.5,-55 941.5,-55 941.5,-74"/>
<text text-anchor="middle" x="915" y="-62" font-family="Helvetica,sans-Serif" font-size="10.00">QString</text>
</a>
</g>
</g>
<!-- Node1&#45;&gt;Node8 -->
<g id="edge7_Node000001_Node000008" class="edge">
<title>Node1&#45;&gt;Node8</title>
<g id="a_edge7_Node000001_Node000008"><a xlink:title=" ">
<path fill="none" stroke="#63b8ff" d="M885.49,-274.93C911.7,-268.66 940.83,-257.79 962,-239 982.08,-221.17 981.32,-210.24 987,-184 995.98,-142.54 958.48,-102.01 934.23,-80.77"/>
<polygon fill="#63b8ff" stroke="#63b8ff" points="936.21,-77.86 926.31,-74.1 931.7,-83.22 936.21,-77.86"/>
</a>
</g>
</g>
<!-- Node9 -->
<g id="Node000009" class="node">
<title>Node9</title>
<g id="a_Node000009"><a xlink:title=" ">
<polygon fill="#e0e0e0" stroke="#999999" points="1294.5,-239 1235.5,-239 1235.5,-220 1294.5,-220 1294.5,-239"/>
<text text-anchor="middle" x="1265" y="-227" font-family="Helvetica,sans-Serif" font-size="10.00">QVariant</text>
</a>
</g>
</g>
<!-- Node1&#45;&gt;Node9 -->
<g id="edge8_Node000001_Node000009" class="edge">
<title>Node1&#45;&gt;Node9</title>
<g id="a_edge8_Node000001_Node000009"><a xlink:title=" ">
<path fill="none" stroke="#63b8ff" d="M909.29,-276.72C989.24,-269.86 1111.01,-257.8 1225.22,-239.14"/>
<polygon fill="#63b8ff" stroke="#63b8ff" points="1225.9,-242.58 1235.19,-237.5 1224.75,-235.67 1225.9,-242.58"/>
</a>
</g>
</g>
<!-- Node10 -->
<g id="Node000010" class="node">
<title>Node10</title>
<g id="a_Node000010"><a xlink:title=" ">
<polygon fill="#e0e0e0" stroke="#999999" points="800.5,-74 741.5,-74 741.5,-55 800.5,-55 800.5,-74"/>
<text text-anchor="middle" x="771" y="-62" font-family="Helvetica,sans-Serif" font-size="10.00">QtGlobal</text>
</a>
</g>
</g>
<!-- Node1&#45;&gt;Node10 -->
<g id="edge9_Node000001_Node000010" class="edge">
<title>Node1&#45;&gt;Node10</title>
<g id="a_edge9_Node000001_Node000010"><a xlink:title=" ">
<path fill="none" stroke="#63b8ff" d="M851.76,-274.93C903.88,-258.33 1003.14,-218.62 970,-165 935.19,-108.67 857.77,-83.17 810.41,-72.46"/>
<polygon fill="#63b8ff" stroke="#63b8ff" points="811.01,-69.01 800.5,-70.34 809.55,-75.86 811.01,-69.01"/>
</a>
</g>
</g>
<!-- Node11 -->
<g id="Node000011" class="node">
<title>Node11</title>
<g id="a_Node000011"><a xlink:href="../../d4/da4/def_8h.html" target="_top" xlink:title=" ">
<polygon fill="white" stroke="#666666" points="500,-129 418,-129 418,-110 500,-110 500,-129"/>
<text text-anchor="middle" x="459" y="-117" font-family="Helvetica,sans-Serif" font-size="10.00">../vmisc/def.h</text>
</a>
</g>
</g>
<!-- Node1&#45;&gt;Node11 -->
<g id="edge10_Node000001_Node000011" class="edge">
<title>Node1&#45;&gt;Node11</title>
<g id="a_edge10_Node000001_Node000011"><a xlink:title=" ">
<path fill="none" stroke="#63b8ff" d="M734.82,-282.14C588.55,-277.75 303.92,-259.47 245,-184 239.8,-177.34 239.67,-171.55 245,-165 265.12,-140.27 351.03,-128.83 407.7,-123.89"/>
<polygon fill="#63b8ff" stroke="#63b8ff" points="408.24,-127.36 417.91,-123.04 407.66,-120.38 408.24,-127.36"/>
</a>
</g>
</g>
<!-- Node20 -->
<g id="Node000020" class="node">
<title>Node20</title>
<g id="a_Node000020"><a xlink:href="../../d6/d8e/vabstractsimple_8h.html" target="_top" xlink:title=" ">
<polygon fill="white" stroke="#666666" points="764,-239 660,-239 660,-220 764,-220 764,-239"/>
<text text-anchor="middle" x="712" y="-227" font-family="Helvetica,sans-Serif" font-size="10.00">vabstractsimple.h</text>
</a>
</g>
</g>
<!-- Node1&#45;&gt;Node20 -->
<g id="edge22_Node000001_Node000020" class="edge">
<title>Node1&#45;&gt;Node20</title>
<g id="a_edge22_Node000001_Node000020"><a xlink:title=" ">
<path fill="none" stroke="#63b8ff" d="M804.33,-274.98C786.71,-266.5 759.42,-253.35 739.07,-243.54"/>
<polygon fill="#63b8ff" stroke="#63b8ff" points="740.52,-240.36 729.99,-239.17 737.48,-246.66 740.52,-240.36"/>
</a>
</g>
</g>
<!-- Node25 -->
<g id="Node000025" class="node">
<title>Node25</title>
<g id="a_Node000025"><a xlink:href="../../da/df3/vscenepoint_8h.html" target="_top" xlink:title=" ">
<polygon fill="white" stroke="#666666" points="197.5,-184 56.5,-184 56.5,-165 197.5,-165 197.5,-184"/>
<text text-anchor="middle" x="127" y="-172" font-family="Helvetica,sans-Serif" font-size="10.00">../vwidgets/vscenepoint.h</text>
</a>
</g>
</g>
<!-- Node1&#45;&gt;Node25 -->
<g id="edge39_Node000001_Node000025" class="edge">
<title>Node1&#45;&gt;Node25</title>
<g id="a_edge39_Node000001_Node000025"><a xlink:title=" ">
<path fill="none" stroke="#63b8ff" d="M734.96,-283.13C589.9,-281.52 305.39,-273.86 212,-239 184.67,-228.8 158.62,-206.91 142.73,-191.71"/>
<polygon fill="#63b8ff" stroke="#63b8ff" points="144.96,-189 135.39,-184.46 140.05,-193.98 144.96,-189"/>
</a>
</g>
</g>
<!-- Node11&#45;&gt;Node2 -->
<g id="edge11_Node000011_Node000002" class="edge">
<title>Node11&#45;&gt;Node2</title>
<g id="a_edge11_Node000011_Node000002"><a xlink:title=" ">
<path fill="none" stroke="#63b8ff" d="M417.8,-113.03C349.85,-104 213.52,-85.89 130.16,-74.82"/>
<polygon fill="#63b8ff" stroke="#63b8ff" points="130.39,-71.32 120.01,-73.47 129.46,-78.26 130.39,-71.32"/>
</a>
</g>
</g>
<!-- Node11&#45;&gt;Node8 -->
<g id="edge14_Node000011_Node000008" class="edge">
<title>Node11&#45;&gt;Node8</title>
<g id="a_edge14_Node000011_Node000008"><a xlink:title=" ">
<path fill="none" stroke="#63b8ff" d="M500.27,-113.7C588.47,-103.45 794.11,-79.55 878.19,-69.78"/>
<polygon fill="#63b8ff" stroke="#63b8ff" points="878.76,-73.24 888.29,-68.6 877.95,-66.28 878.76,-73.24"/>
</a>
</g>
</g>
<!-- Node11&#45;&gt;Node10 -->
<g id="edge17_Node000011_Node000010" class="edge">
<title>Node11&#45;&gt;Node10</title>
<g id="a_edge17_Node000011_Node000010"><a xlink:title=" ">
<path fill="none" stroke="#63b8ff" d="M500.11,-111.52C560.36,-101.28 671.93,-82.33 731.35,-72.24"/>
<polygon fill="#63b8ff" stroke="#63b8ff" points="732.19,-75.64 741.46,-70.52 731.02,-68.74 732.19,-75.64"/>
</a>
</g>
</g>
<!-- Node12 -->
<g id="Node000012" class="node">
<title>Node12</title>
<g id="a_Node000012"><a xlink:title=" ">
<polygon fill="#e0e0e0" stroke="#999999" points="487.5,-74 414.5,-74 414.5,-55 487.5,-55 487.5,-74"/>
<text text-anchor="middle" x="451" y="-62" font-family="Helvetica,sans-Serif" font-size="10.00">QFileDialog</text>
</a>
</g>
</g>
<!-- Node11&#45;&gt;Node12 -->
<g id="edge12_Node000011_Node000012" class="edge">
<title>Node11&#45;&gt;Node12</title>
<g id="a_edge12_Node000011_Node000012"><a xlink:title=" ">
<path fill="none" stroke="#63b8ff" d="M457.68,-109.75C456.63,-102.8 455.13,-92.85 453.81,-84.13"/>
<polygon fill="#63b8ff" stroke="#63b8ff" points="457.25,-83.45 452.3,-74.09 450.33,-84.5 457.25,-83.45"/>
</a>
</g>
</g>
<!-- Node13 -->
<g id="Node000013" class="node">
<title>Node13</title>
<g id="a_Node000013"><a xlink:title=" ">
<polygon fill="#e0e0e0" stroke="#999999" points="556,-74 506,-74 506,-55 556,-55 556,-74"/>
<text text-anchor="middle" x="531" y="-62" font-family="Helvetica,sans-Serif" font-size="10.00">QLineF</text>
</a>
</g>
</g>
<!-- Node11&#45;&gt;Node13 -->
<g id="edge13_Node000011_Node000013" class="edge">
<title>Node11&#45;&gt;Node13</title>
<g id="a_edge13_Node000011_Node000013"><a xlink:title=" ">
<path fill="none" stroke="#63b8ff" d="M470.57,-109.98C481.42,-102 497.88,-89.88 510.88,-80.31"/>
<polygon fill="#63b8ff" stroke="#63b8ff" points="513.24,-82.92 519.22,-74.17 509.09,-77.28 513.24,-82.92"/>
</a>
</g>
</g>
<!-- Node14 -->
<g id="Node000014" class="node">
<title>Node14</title>
<g id="a_Node000014"><a xlink:title=" ">
<polygon fill="#e0e0e0" stroke="#999999" points="692,-74 622,-74 622,-55 692,-55 692,-74"/>
<text text-anchor="middle" x="657" y="-62" font-family="Helvetica,sans-Serif" font-size="10.00">QStringList</text>
</a>
</g>
</g>
<!-- Node11&#45;&gt;Node14 -->
<g id="edge15_Node000011_Node000014" class="edge">
<title>Node11&#45;&gt;Node14</title>
<g id="a_edge15_Node000011_Node000014"><a xlink:title=" ">
<path fill="none" stroke="#63b8ff" d="M490.81,-109.98C524.49,-100.97 577.8,-86.7 614.92,-76.76"/>
<polygon fill="#63b8ff" stroke="#63b8ff" points="616.18,-80.05 624.94,-74.08 614.37,-73.29 616.18,-80.05"/>
</a>
</g>
</g>
<!-- Node15 -->
<g id="Node000015" class="node">
<title>Node15</title>
<g id="a_Node000015"><a xlink:title=" ">
<polygon fill="#e0e0e0" stroke="#999999" points="603.5,-74 574.5,-74 574.5,-55 603.5,-55 603.5,-74"/>
<text text-anchor="middle" x="589" y="-62" font-family="Helvetica,sans-Serif" font-size="10.00">Qt</text>
</a>
</g>
</g>
<!-- Node11&#45;&gt;Node15 -->
<g id="edge16_Node000011_Node000015" class="edge">
<title>Node11&#45;&gt;Node15</title>
<g id="a_edge16_Node000011_Node000015"><a xlink:title=" ">
<path fill="none" stroke="#63b8ff" d="M479.89,-109.98C503.1,-100.52 540.53,-85.26 564.95,-75.31"/>
<polygon fill="#63b8ff" stroke="#63b8ff" points="566.29,-78.54 574.23,-71.52 563.65,-72.06 566.29,-78.54"/>
</a>
</g>
</g>
<!-- Node16 -->
<g id="Node000016" class="node">
<title>Node16</title>
<g id="a_Node000016"><a xlink:title=" ">
<polygon fill="#e0e0e0" stroke="#999999" points="226,-74 170,-74 170,-55 226,-55 226,-74"/>
<text text-anchor="middle" x="198" y="-62" font-family="Helvetica,sans-Serif" font-size="10.00">QPrinter</text>
</a>
</g>
</g>
<!-- Node11&#45;&gt;Node16 -->
<g id="edge18_Node000011_Node000016" class="edge">
<title>Node11&#45;&gt;Node16</title>
<g id="a_edge18_Node000011_Node000016"><a xlink:title=" ">
<path fill="none" stroke="#63b8ff" d="M417.64,-110.66C374.74,-102.45 305.46,-88.96 236.44,-74.26"/>
<polygon fill="#63b8ff" stroke="#63b8ff" points="236.77,-70.75 226.26,-72.08 235.31,-77.6 236.77,-70.75"/>
</a>
</g>
</g>
<!-- Node17 -->
<g id="Node000017" class="node">
<title>Node17</title>
<g id="a_Node000017"><a xlink:title=" ">
<polygon fill="#e0e0e0" stroke="#999999" points="295.5,-74 244.5,-74 244.5,-55 295.5,-55 295.5,-74"/>
<text text-anchor="middle" x="270" y="-62" font-family="Helvetica,sans-Serif" font-size="10.00">csignal</text>
</a>
</g>
</g>
<!-- Node11&#45;&gt;Node17 -->
<g id="edge19_Node000011_Node000017" class="edge">
<title>Node11&#45;&gt;Node17</title>
<g id="a_edge19_Node000011_Node000017"><a xlink:title=" ">
<path fill="none" stroke="#63b8ff" d="M428.63,-109.98C395.11,-100.58 341.19,-85.46 305.68,-75.51"/>
<polygon fill="#63b8ff" stroke="#63b8ff" points="306.31,-72.05 295.74,-72.72 304.42,-78.79 306.31,-72.05"/>
</a>
</g>
</g>
<!-- Node18 -->
<g id="Node000018" class="node">
<title>Node18</title>
<g id="a_Node000018"><a xlink:href="../../d4/d82/debugbreak_8h.html" target="_top" xlink:title=" ">
<polygon fill="white" stroke="#666666" points="396.5,-74 313.5,-74 313.5,-55 396.5,-55 396.5,-74"/>
<text text-anchor="middle" x="355" y="-62" font-family="Helvetica,sans-Serif" font-size="10.00">debugbreak.h</text>
</a>
</g>
</g>
<!-- Node11&#45;&gt;Node18 -->
<g id="edge20_Node000011_Node000018" class="edge">
<title>Node11&#45;&gt;Node18</title>
<g id="a_edge20_Node000011_Node000018"><a xlink:title=" ">
<path fill="none" stroke="#63b8ff" d="M442.29,-109.98C425.79,-101.57 400.3,-88.59 381.12,-78.81"/>
<polygon fill="#63b8ff" stroke="#63b8ff" points="382.51,-75.59 372.01,-74.17 379.33,-81.83 382.51,-75.59"/>
</a>
</g>
</g>
<!-- Node19 -->
<g id="Node000019" class="node">
<title>Node19</title>
<g id="a_Node000019"><a xlink:title=" ">
<polygon fill="#e0e0e0" stroke="#999999" points="382.5,-19 327.5,-19 327.5,0 382.5,0 382.5,-19"/>
<text text-anchor="middle" x="355" y="-7" font-family="Helvetica,sans-Serif" font-size="10.00">signal.h</text>
</a>
</g>
</g>
<!-- Node18&#45;&gt;Node19 -->
<g id="edge21_Node000018_Node000019" class="edge">
<title>Node18&#45;&gt;Node19</title>
<g id="a_edge21_Node000018_Node000019"><a xlink:title=" ">
<path fill="none" stroke="#63b8ff" d="M355,-54.75C355,-47.8 355,-37.85 355,-29.13"/>
<polygon fill="#63b8ff" stroke="#63b8ff" points="358.5,-29.09 355,-19.09 351.5,-29.09 358.5,-29.09"/>
</a>
</g>
</g>
<!-- Node20&#45;&gt;Node3 -->
<g id="edge23_Node000020_Node000003" class="edge">
<title>Node20&#45;&gt;Node3</title>
<g id="a_edge23_Node000020_Node000003"><a xlink:title=" ">
<path fill="none" stroke="#63b8ff" d="M659.71,-224.91C585.11,-219.3 443.72,-206.84 314.26,-184"/>
<polygon fill="#63b8ff" stroke="#63b8ff" points="314.63,-180.51 304.17,-182.19 313.4,-187.4 314.63,-180.51"/>
</a>
</g>
</g>
<!-- Node20&#45;&gt;Node5 -->
<g id="edge24_Node000020_Node000005" class="edge">
<title>Node20&#45;&gt;Node5</title>
<g id="a_edge24_Node000020_Node000005"><a xlink:title=" ">
<path fill="none" stroke="#63b8ff" d="M659.92,-221.12C600.05,-212.55 498.84,-197.82 412,-184 411.9,-183.98 411.8,-183.97 411.7,-183.95"/>
<polygon fill="#63b8ff" stroke="#63b8ff" points="412.54,-180.54 402.1,-182.39 411.41,-187.45 412.54,-180.54"/>
</a>
</g>
</g>
<!-- Node20&#45;&gt;Node6 -->
<g id="edge25_Node000020_Node000006" class="edge">
<title>Node20&#45;&gt;Node6</title>
<g id="a_edge25_Node000020_Node000006"><a xlink:title=" ">
<path fill="none" stroke="#63b8ff" d="M747.51,-219.98C787.89,-210.3 853.57,-194.55 894.97,-184.62"/>
<polygon fill="#63b8ff" stroke="#63b8ff" points="896.03,-187.96 904.94,-182.23 894.4,-181.16 896.03,-187.96"/>
</a>
</g>
</g>
<!-- Node20&#45;&gt;Node8 -->
<g id="edge27_Node000020_Node000008" class="edge">
<title>Node20&#45;&gt;Node8</title>
<g id="a_edge27_Node000020_Node000008"><a xlink:title=" ">
<path fill="none" stroke="#63b8ff" d="M756.8,-219.98C782.31,-213.41 813.71,-202.27 837,-184 871.91,-156.61 896.32,-109.07 907.71,-83.32"/>
<polygon fill="#63b8ff" stroke="#63b8ff" points="910.97,-84.6 911.68,-74.02 904.53,-81.85 910.97,-84.6"/>
</a>
</g>
</g>
<!-- Node20&#45;&gt;Node10 -->
<g id="edge29_Node000020_Node000010" class="edge">
<title>Node20&#45;&gt;Node10</title>
<g id="a_edge29_Node000020_Node000010"><a xlink:title=" ">
<path fill="none" stroke="#63b8ff" d="M764.08,-220.01C785.11,-213.75 807.36,-202.87 820,-184 842.38,-150.57 808.75,-105.3 787.03,-81.55"/>
<polygon fill="#63b8ff" stroke="#63b8ff" points="789.39,-78.94 779.96,-74.11 784.31,-83.77 789.39,-78.94"/>
</a>
</g>
</g>
<!-- Node20&#45;&gt;Node11 -->
<g id="edge38_Node000020_Node000011" class="edge">
<title>Node20&#45;&gt;Node11</title>
<g id="a_edge38_Node000020_Node000011"><a xlink:title=" ">
<path fill="none" stroke="#63b8ff" d="M697.19,-219.95C674.43,-207.02 629.23,-182.16 589,-165 558.84,-152.14 523.6,-140.26 497.42,-132.02"/>
<polygon fill="#63b8ff" stroke="#63b8ff" points="498.45,-128.67 487.86,-129.04 496.36,-135.35 498.45,-128.67"/>
</a>
</g>
</g>
<!-- Node20&#45;&gt;Node15 -->
<g id="edge28_Node000020_Node000015" class="edge">
<title>Node20&#45;&gt;Node15</title>
<g id="a_edge28_Node000020_Node000015"><a xlink:title=" ">
<path fill="none" stroke="#63b8ff" d="M701.59,-219.94C691.57,-211.42 676.32,-197.68 665,-184 637.45,-150.72 611.72,-106.91 598.42,-82.97"/>
<polygon fill="#63b8ff" stroke="#63b8ff" points="601.39,-81.11 593.52,-74.02 595.25,-84.47 601.39,-81.11"/>
</a>
</g>
</g>
<!-- Node21 -->
<g id="Node000021" class="node">
<title>Node21</title>
<g id="a_Node000021"><a xlink:title=" ">
<polygon fill="#e0e0e0" stroke="#999999" points="811,-184 769,-184 769,-165 811,-165 811,-184"/>
<text text-anchor="middle" x="790" y="-172" font-family="Helvetica,sans-Serif" font-size="10.00">QPen</text>
</a>
</g>
</g>
<!-- Node20&#45;&gt;Node21 -->
<g id="edge26_Node000020_Node000021" class="edge">
<title>Node20&#45;&gt;Node21</title>
<g id="a_edge26_Node000020_Node000021"><a xlink:title=" ">
<path fill="none" stroke="#63b8ff" d="M724.53,-219.98C736.4,-211.92 754.46,-199.65 768.61,-190.03"/>
<polygon fill="#63b8ff" stroke="#63b8ff" points="770.94,-192.69 777.24,-184.17 767,-186.9 770.94,-192.69"/>
</a>
</g>
</g>
<!-- Node22 -->
<g id="Node000022" class="node">
<title>Node22</title>
<g id="a_Node000022"><a xlink:href="../../d3/da5/ifcdef_8h.html" target="_top" xlink:title=" ">
<polygon fill="white" stroke="#666666" points="750.5,-184 673.5,-184 673.5,-165 750.5,-165 750.5,-184"/>
<text text-anchor="middle" x="712" y="-172" font-family="Helvetica,sans-Serif" font-size="10.00">../ifc/ifcdef.h</text>
</a>
</g>
</g>
<!-- Node20&#45;&gt;Node22 -->
<g id="edge30_Node000020_Node000022" class="edge">
<title>Node20&#45;&gt;Node22</title>
<g id="a_edge30_Node000020_Node000022"><a xlink:title=" ">
<path fill="none" stroke="#63b8ff" d="M712,-219.75C712,-212.8 712,-202.85 712,-194.13"/>
<polygon fill="#63b8ff" stroke="#63b8ff" points="715.5,-194.09 712,-184.09 708.5,-194.09 715.5,-194.09"/>
</a>
</g>
</g>
<!-- Node24 -->
<g id="Node000024" class="node">
<title>Node24</title>
<g id="a_Node000024"><a xlink:href="../../d5/d9d/vgeometrydef_8h.html" target="_top" xlink:title=" ">
<polygon fill="white" stroke="#666666" points="579.5,-184 420.5,-184 420.5,-165 579.5,-165 579.5,-184"/>
<text text-anchor="middle" x="500" y="-172" font-family="Helvetica,sans-Serif" font-size="10.00">../vgeometry/vgeometrydef.h</text>
</a>
</g>
</g>
<!-- Node20&#45;&gt;Node24 -->
<g id="edge37_Node000020_Node000024" class="edge">
<title>Node20&#45;&gt;Node24</title>
<g id="a_edge37_Node000020_Node000024"><a xlink:title=" ">
<path fill="none" stroke="#63b8ff" d="M677.94,-219.98C641.58,-210.89 583.83,-196.46 544.03,-186.51"/>
<polygon fill="#63b8ff" stroke="#63b8ff" points="544.88,-183.11 534.33,-184.08 543.18,-189.9 544.88,-183.11"/>
</a>
</g>
</g>
<!-- Node22&#45;&gt;Node8 -->
<g id="edge31_Node000022_Node000008" class="edge">
<title>Node22&#45;&gt;Node8</title>
<g id="a_edge31_Node000022_Node000008"><a xlink:title=" ">
<path fill="none" stroke="#63b8ff" d="M728.86,-164.9C746.24,-156.01 774.09,-141.68 798,-129 830.13,-111.97 866.95,-91.89 890.57,-78.94"/>
<polygon fill="#63b8ff" stroke="#63b8ff" points="892.45,-81.9 899.53,-74.02 889.08,-75.76 892.45,-81.9"/>
</a>
</g>
</g>
<!-- Node22&#45;&gt;Node10 -->
<g id="edge33_Node000022_Node000010" class="edge">
<title>Node22&#45;&gt;Node10</title>
<g id="a_edge33_Node000022_Node000010"><a xlink:title=" ">
<path fill="none" stroke="#63b8ff" d="M736.81,-164.95C752.84,-157.99 772.43,-146.42 782,-129 789.65,-115.07 785.43,-97.05 780.15,-83.77"/>
<polygon fill="#63b8ff" stroke="#63b8ff" points="783.19,-81.99 775.9,-74.3 776.8,-84.86 783.19,-81.99"/>
</a>
</g>
</g>
<!-- Node22&#45;&gt;Node11 -->
<g id="edge34_Node000022_Node000011" class="edge">
<title>Node22&#45;&gt;Node11</title>
<g id="a_edge34_Node000022_Node000011"><a xlink:title=" ">
<path fill="none" stroke="#63b8ff" d="M673.3,-165.39C629.49,-156.22 557.96,-141.23 509.72,-131.12"/>
<polygon fill="#63b8ff" stroke="#63b8ff" points="510.3,-127.67 499.79,-129.05 508.86,-134.52 510.3,-127.67"/>
</a>
</g>
</g>
<!-- Node22&#45;&gt;Node14 -->
<g id="edge32_Node000022_Node000014" class="edge">
<title>Node22&#45;&gt;Node14</title>
<g id="a_edge32_Node000022_Node000014"><a xlink:title=" ">
<path fill="none" stroke="#63b8ff" d="M689.88,-164.95C674.8,-157.82 655.99,-146.06 647,-129 639.61,-114.98 643.5,-96.97 648.42,-83.71"/>
<polygon fill="#63b8ff" stroke="#63b8ff" points="651.75,-84.84 652.4,-74.27 645.29,-82.13 651.75,-84.84"/>
</a>
</g>
</g>
<!-- Node23 -->
<g id="Node000023" class="node">
<title>Node23</title>
<g id="a_Node000023"><a xlink:href="../../d6/dcd/diagnostic_8h.html" target="_top" xlink:title=" ">
<polygon fill="white" stroke="#666666" points="772.5,-129 655.5,-129 655.5,-110 772.5,-110 772.5,-129"/>
<text text-anchor="middle" x="714" y="-117" font-family="Helvetica,sans-Serif" font-size="10.00">../vmisc/diagnostic.h</text>
</a>
</g>
</g>
<!-- Node22&#45;&gt;Node23 -->
<g id="edge35_Node000022_Node000023" class="edge">
<title>Node22&#45;&gt;Node23</title>
<g id="a_edge35_Node000022_Node000023"><a xlink:title=" ">
<path fill="none" stroke="#63b8ff" d="M712.33,-164.75C712.59,-157.8 712.97,-147.85 713.3,-139.13"/>
<polygon fill="#63b8ff" stroke="#63b8ff" points="716.8,-139.21 713.68,-129.09 709.8,-138.95 716.8,-139.21"/>
</a>
</g>
</g>
<!-- Node23&#45;&gt;Node10 -->
<g id="edge36_Node000023_Node000010" class="edge">
<title>Node23&#45;&gt;Node10</title>
<g id="a_edge36_Node000023_Node000010"><a xlink:title=" ">
<path fill="none" stroke="#63b8ff" d="M723.16,-109.98C731.5,-102.23 744.03,-90.58 754.18,-81.14"/>
<polygon fill="#63b8ff" stroke="#63b8ff" points="756.74,-83.54 761.68,-74.17 751.97,-78.42 756.74,-83.54"/>
</a>
</g>
</g>
<!-- Node25&#45;&gt;Node10 -->
<g id="edge40_Node000025_Node000010" class="edge">
<title>Node25&#45;&gt;Node10</title>
<g id="a_edge40_Node000025_Node000010"><a xlink:title=" ">
<path fill="none" stroke="#63b8ff" d="M197.78,-167.85C274.75,-161.11 401.21,-148.27 509,-129 588.74,-114.75 680.42,-90.74 731.44,-76.69"/>
<polygon fill="#63b8ff" stroke="#63b8ff" points="732.69,-79.97 741.39,-73.93 730.82,-73.23 732.69,-79.97"/>
</a>
</g>
</g>
<!-- Node25&#45;&gt;Node11 -->
<g id="edge42_Node000025_Node000011" class="edge">
<title>Node25&#45;&gt;Node11</title>
<g id="a_edge42_Node000025_Node000011"><a xlink:title=" ">
<path fill="none" stroke="#63b8ff" d="M180.34,-164.98C243.02,-154.98 346.28,-138.49 407.95,-128.65"/>
<polygon fill="#63b8ff" stroke="#63b8ff" points="408.53,-132.1 417.85,-127.07 407.42,-125.19 408.53,-132.1"/>
</a>
</g>
</g>
<!-- Node26 -->
<g id="Node000026" class="node">
<title>Node26</title>
<g id="a_Node000026"><a xlink:title=" ">
<polygon fill="#e0e0e0" stroke="#999999" points="188,-129 66,-129 66,-110 188,-110 188,-129"/>
<text text-anchor="middle" x="127" y="-117" font-family="Helvetica,sans-Serif" font-size="10.00">QGraphicsEllipseItem</text>
</a>
</g>
</g>
<!-- Node25&#45;&gt;Node26 -->
<g id="edge41_Node000025_Node000026" class="edge">
<title>Node25&#45;&gt;Node26</title>
<g id="a_edge41_Node000025_Node000026"><a xlink:title=" ">
<path fill="none" stroke="#63b8ff" d="M127,-164.75C127,-157.8 127,-147.85 127,-139.13"/>
<polygon fill="#63b8ff" stroke="#63b8ff" points="130.5,-139.09 127,-129.09 123.5,-139.09 130.5,-139.09"/>
</a>
</g>
</g>
</g>
</svg>
