<?xml version="1.0" encoding="UTF-8" standalone="no"?>
<!DOCTYPE svg PUBLIC "-//W3C//DTD SVG 1.1//EN"
 "http://www.w3.org/Graphics/SVG/1.1/DTD/svg11.dtd">
<!-- Generated by graphviz version 2.43.0 (0)
 -->
<!-- Title: SvgGenerator Pages: 1 -->
<svg width="156pt" height="288pt"
 viewBox="0.00 0.00 156.00 288.00" xmlns="http://www.w3.org/2000/svg" xmlns:xlink="http://www.w3.org/1999/xlink">
<g id="graph0" class="graph" transform="scale(1 1) rotate(0) translate(4 284)">
<title>SvgGenerator</title>
<!-- Node1 -->
<g id="Node000001" class="node">
<title>Node1</title>
<g id="a_Node000001"><a xlink:title=" ">
<polygon fill="#999999" stroke="transparent" points="148,-184 0,-184 0,0 148,0 148,-184"/>
<text text-anchor="start" x="40.5" y="-172" font-family="Helvetica,sans-Serif" font-size="10.00">SvgGenerator</text>
<text text-anchor="start" x="6.5" y="-157" font-family="Helvetica,sans-Serif" font-size="10.00">&#45;</text>
<text text-anchor="start" x="17" y="-157" font-family="Helvetica,sans-Serif" font-size="10.00">m_paper</text>
<text text-anchor="start" x="6.5" y="-142" font-family="Helvetica,sans-Serif" font-size="10.00">&#45;</text>
<text text-anchor="start" x="17" y="-142" font-family="Helvetica,sans-Serif" font-size="10.00">m_filepath</text>
<text text-anchor="start" x="6.5" y="-127" font-family="Helvetica,sans-Serif" font-size="10.00">&#45;</text>
<text text-anchor="start" x="17" y="-127" font-family="Helvetica,sans-Serif" font-size="10.00">m_description</text>
<text text-anchor="start" x="6.5" y="-112" font-family="Helvetica,sans-Serif" font-size="10.00">&#45;</text>
<text text-anchor="start" x="17" y="-112" font-family="Helvetica,sans-Serif" font-size="10.00">m_resolution</text>
<text text-anchor="start" x="4" y="-97" font-family="Helvetica,sans-Serif" font-size="10.00">+</text>
<text text-anchor="start" x="17" y="-97" font-family="Helvetica,sans-Serif" font-size="10.00">SvgGenerator()</text>
<text text-anchor="start" x="4" y="-82" font-family="Helvetica,sans-Serif" font-size="10.00">+</text>
<text text-anchor="start" x="17" y="-82" font-family="Helvetica,sans-Serif" font-size="10.00">addSvgFromScene()</text>
<text text-anchor="start" x="4" y="-67" font-family="Helvetica,sans-Serif" font-size="10.00">+</text>
<text text-anchor="start" x="17" y="-67" font-family="Helvetica,sans-Serif" font-size="10.00">generate()</text>
<text text-anchor="start" x="6.5" y="-52" font-family="Helvetica,sans-Serif" font-size="10.00">&#45;</text>
<text text-anchor="start" x="17" y="-52" font-family="Helvetica,sans-Serif" font-size="10.00">mergeSvgDoms()</text>
<text text-anchor="start" x="6.5" y="-37" font-family="Helvetica,sans-Serif" font-size="10.00">&#45;</text>
<text text-anchor="start" x="17" y="-37" font-family="Helvetica,sans-Serif" font-size="10.00">removeEmptyGroups()</text>
<text text-anchor="start" x="6.5" y="-22" font-family="Helvetica,sans-Serif" font-size="10.00">&#45;</text>
<text text-anchor="start" x="17" y="-22" font-family="Helvetica,sans-Serif" font-size="10.00">removeEmptyOriginPath()</text>
<text text-anchor="start" x="6.5" y="-7" font-family="Helvetica,sans-Serif" font-size="10.00">&#45;</text>
<text text-anchor="start" x="17" y="-7" font-family="Helvetica,sans-Serif" font-size="10.00">cleanSvg()</text>
<polygon fill="#666666" stroke="#666666" points="0,-167 0,-167 148,-167 148,-167 0,-167"/>
<polygon fill="#666666" stroke="#666666" points="0,-107 0,-107 15,-107 15,-107 0,-107"/>
<polygon fill="#666666" stroke="#666666" points="15,-107 15,-107 148,-107 148,-107 15,-107"/>
<polygon fill="none" stroke="#666666" points="0,0 0,-184 148,-184 148,0 0,0"/>
</a>
</g>
</g>
<!-- Node2 -->
<g id="Node000002" class="node">
<title>Node2</title>
<g id="a_Node000002"><a xlink:href="../../d1/d4a/classQList.html" target="_top" xlink:title=" ">
<polygon fill="white" stroke="transparent" points="143.5,-280 4.5,-280 4.5,-231 143.5,-231 143.5,-280"/>
<text text-anchor="start" x="10" y="-267.5" font-family="Helvetica,sans-Serif" font-size="10.00">QList&lt; QDomDocument &gt;</text>
<text text-anchor="start" x="72.5" y="-252.5" font-family="Helvetica,sans-Serif" font-size="10.00"> </text>
<text text-anchor="start" x="72.5" y="-237.5" font-family="Helvetica,sans-Serif" font-size="10.00"> </text>
<polygon fill="#666666" stroke="#666666" points="5,-262.5 5,-262.5 144,-262.5 144,-262.5 5,-262.5"/>
<polygon fill="#666666" stroke="#666666" points="5,-247.5 5,-247.5 144,-247.5 144,-247.5 5,-247.5"/>
<polygon fill="none" stroke="#666666" points="4.5,-231 4.5,-280 143.5,-280 143.5,-231 4.5,-231"/>
</a>
</g>
</g>
<!-- Node2&#45;&gt;Node1 -->
<g id="edge1_Node000001_Node000002" class="edge">
<title>Node2&#45;&gt;Node1</title>
<g id="a_edge1_Node000001_Node000002"><a xlink:title=" ">
<path fill="none" stroke="#63b8ff" d="M74,-230.67C74,-221.03 74,-209.18 74,-196.53"/>
<polygon fill="none" stroke="#63b8ff" points="74,-196.19 70,-190.19 74,-184.19 78,-190.19 74,-196.19"/>
</a>
</g>
<text text-anchor="middle" x="104.5" y="-205" font-family="Helvetica,sans-Serif" font-size="10.00" fill="grey"> &#45;m_domList</text>
</g>
</g>
</svg>
