<?xml version="1.0" encoding="UTF-8" standalone="no"?>
<!DOCTYPE svg PUBLIC "-//W3C//DTD SVG 1.1//EN"
 "http://www.w3.org/Graphics/SVG/1.1/DTD/svg11.dtd">
<!-- Generated by graphviz version 2.43.0 (0)
 -->
<!-- Title: src/libs/vpatterndb/vpiecepath.h Pages: 1 -->
<!--zoomable 313 -->

<svg id="main" version="1.1" xmlns="http://www.w3.org/2000/svg" xmlns:xlink="http://www.w3.org/1999/xlink" xml:space="preserve" onload="init(evt)">
<style type="text/css"><![CDATA[
.node, .edge {opacity: 0.7;}
.node.selected, .edge.selected {opacity: 1;}
.edge:hover path { stroke: red; }
.edge:hover polygon { stroke: red; fill: red; }
]]></style>

<defs>
  <circle id="rim" cx="0" cy="0" r="7"/>
  <circle id="rim2" cx="0" cy="0" r="3.5"/>
  <g id="zoomPlus">
    <use xlink:href="#rim" fill="#404040"><set attributeName="fill" to="#808080" begin="zoomplus.mouseover" end="zoomplus.mouseout"/></use>
    <path d="M-4,0h8M0,-4v8" fill="none" stroke="white" stroke-width="1.5" pointer-events="none"/>
  </g>
  <g id="zoomMin">
    <use xlink:href="#rim" fill="#404040"><set attributeName="fill" to="#808080" begin="zoomminus.mouseover" end="zoomminus.mouseout"/></use>
    <path d="M-4,0h8" fill="none" stroke="white" stroke-width="1.5" pointer-events="none"/>
  </g>
  <g id="arrowUp" transform="translate(30 24)">
    <use xlink:href="#rim"/>
    <path pointer-events="none" fill="none" stroke="white" stroke-width="1.5" d="M0,-3.0v7 M-2.5,-0.5L0,-3.0L2.5,-0.5"/>
  </g>
  <g id="arrowRight" transform="rotate(90) translate(36 -43)">
    <use xlink:href="#rim"/>
    <path pointer-events="none" fill="none" stroke="white" stroke-width="1.5" d="M0,-3.0v7 M-2.5,-0.5L0,-3.0L2.5,-0.5"/>
  </g>
  <g id="arrowDown" transform="rotate(180) translate(-30 -48)">
    <use xlink:href="#rim"/>
    <path pointer-events="none" fill="none" stroke="white" stroke-width="1.5" d="M0,-3.0v7 M-2.5,-0.5L0,-3.0L2.5,-0.5"/>
  </g>
  <g id="arrowLeft" transform="rotate(270) translate(-36 17)">
    <use xlink:href="#rim"/>
    <path pointer-events="none" fill="none" stroke="white" stroke-width="1.5" d="M0,-3.0v7 M-2.5,-0.5L0,-3.0L2.5,-0.5"/>
  </g>
  <g id="resetDef">
    <use xlink:href="#rim2" fill="#404040"><set attributeName="fill" to="#808080" begin="reset.mouseover" end="reset.mouseout"/></use>
  </g>
</defs>
<script type="application/ecmascript">
var viewWidth = 1357;
var viewHeight = 313;
var sectionId = 'dynsection-0';
</script>
<script type="application/ecmascript" xlink:href="../../svg.min.js"/>
<svg id="graph" class="graph">
<g id="viewport">
<title>src/libs/vpatterndb/vpiecepath.h</title>
<!-- Node1 -->
<g id="Node000001" class="node">
<title>Node1</title>
<g id="a_Node000001"><a xlink:title=" ">
<polygon fill="#999999" stroke="#666666" points="1221.5,-305 1114.5,-305 1114.5,-275 1221.5,-275 1221.5,-305"/>
<text text-anchor="start" x="1122.5" y="-293" font-family="Helvetica,sans-Serif" font-size="10.00">src/libs/vpatterndb</text>
<text text-anchor="middle" x="1168" y="-282" font-family="Helvetica,sans-Serif" font-size="10.00">/vpiecepath.h</text>
</a>
</g>
</g>
<!-- Node2 -->
<g id="Node000002" class="node">
<title>Node2</title>
<g id="a_Node000002"><a xlink:title=" ">
<polygon fill="#e0e0e0" stroke="#999999" points="965.5,-74 906.5,-74 906.5,-55 965.5,-55 965.5,-74"/>
<text text-anchor="middle" x="936" y="-62" font-family="Helvetica,sans-Serif" font-size="10.00">QtGlobal</text>
</a>
</g>
</g>
<!-- Node1&#45;&gt;Node2 -->
<g id="edge1_Node000001_Node000002" class="edge">
<title>Node1&#45;&gt;Node2</title>
<g id="a_edge1_Node000001_Node000002"><a xlink:title=" ">
<path fill="none" stroke="#63b8ff" d="M1199.42,-274.8C1261.84,-244.76 1390.83,-172.4 1335,-110 1311.31,-83.53 1072.34,-71 975.97,-66.99"/>
<polygon fill="#63b8ff" stroke="#63b8ff" points="975.88,-63.49 965.75,-66.58 975.6,-70.48 975.88,-63.49"/>
</a>
</g>
</g>
<!-- Node3 -->
<g id="Node000003" class="node">
<title>Node3</title>
<g id="a_Node000003"><a xlink:title=" ">
<polygon fill="#e0e0e0" stroke="#999999" points="1307,-129 1191,-129 1191,-110 1307,-110 1307,-129"/>
<text text-anchor="middle" x="1249" y="-117" font-family="Helvetica,sans-Serif" font-size="10.00">QSharedDataPointer</text>
</a>
</g>
</g>
<!-- Node1&#45;&gt;Node3 -->
<g id="edge2_Node000001_Node000003" class="edge">
<title>Node1&#45;&gt;Node3</title>
<g id="a_edge2_Node000001_Node000003"><a xlink:title=" ">
<path fill="none" stroke="#63b8ff" d="M1174.77,-274.92C1189.45,-244.39 1224.19,-172.1 1240.4,-138.39"/>
<polygon fill="#63b8ff" stroke="#63b8ff" points="1243.61,-139.78 1244.79,-129.25 1237.3,-136.75 1243.61,-139.78"/>
</a>
</g>
</g>
<!-- Node4 -->
<g id="Node000004" class="node">
<title>Node4</title>
<g id="a_Node000004"><a xlink:href="../../d4/da4/def_8h.html" target="_top" xlink:title=" ">
<polygon fill="white" stroke="#666666" points="431,-129 349,-129 349,-110 431,-110 431,-129"/>
<text text-anchor="middle" x="390" y="-117" font-family="Helvetica,sans-Serif" font-size="10.00">../vmisc/def.h</text>
</a>
</g>
</g>
<!-- Node1&#45;&gt;Node4 -->
<g id="edge3_Node000001_Node000004" class="edge">
<title>Node1&#45;&gt;Node4</title>
<g id="a_edge3_Node000001_Node000004"><a xlink:title=" ">
<path fill="none" stroke="#63b8ff" d="M1114.44,-286.16C1000.91,-278.91 728.79,-254.98 513,-184 475.51,-171.67 435.51,-149.03 411.64,-134.38"/>
<polygon fill="#63b8ff" stroke="#63b8ff" points="413.37,-131.34 403.04,-129.01 409.67,-137.28 413.37,-131.34"/>
</a>
</g>
</g>
<!-- Node15 -->
<g id="Node000015" class="node">
<title>Node15</title>
<g id="a_Node000015"><a xlink:href="../../d5/d82/vabstractcurve_8h.html" target="_top" xlink:title=" ">
<polygon fill="white" stroke="#666666" points="1065,-239 901,-239 901,-220 1065,-220 1065,-239"/>
<text text-anchor="middle" x="983" y="-227" font-family="Helvetica,sans-Serif" font-size="10.00">../vgeometry/vabstractcurve.h</text>
</a>
</g>
</g>
<!-- Node1&#45;&gt;Node15 -->
<g id="edge15_Node000001_Node000015" class="edge">
<title>Node1&#45;&gt;Node15</title>
<g id="a_edge15_Node000001_Node000015"><a xlink:title=" ">
<path fill="none" stroke="#63b8ff" d="M1123.69,-274.99C1091.9,-264.94 1049.58,-251.55 1019.68,-242.1"/>
<polygon fill="#63b8ff" stroke="#63b8ff" points="1020.64,-238.73 1010.05,-239.05 1018.53,-245.41 1020.64,-238.73"/>
</a>
</g>
</g>
<!-- Node4&#45;&gt;Node2 -->
<g id="edge10_Node000004_Node000002" class="edge">
<title>Node4&#45;&gt;Node2</title>
<g id="a_edge10_Node000004_Node000002"><a xlink:title=" ">
<path fill="none" stroke="#63b8ff" d="M431.04,-114.52C532.84,-104.63 795.97,-79.09 896.32,-69.35"/>
<polygon fill="#63b8ff" stroke="#63b8ff" points="896.73,-72.83 906.34,-68.38 896.05,-65.86 896.73,-72.83"/>
</a>
</g>
</g>
<!-- Node5 -->
<g id="Node000005" class="node">
<title>Node5</title>
<g id="a_Node000005"><a xlink:title=" ">
<polygon fill="#e0e0e0" stroke="#999999" points="572,-74 452,-74 452,-55 572,-55 572,-74"/>
<text text-anchor="middle" x="512" y="-62" font-family="Helvetica,sans-Serif" font-size="10.00">qcompilerdetection.h</text>
</a>
</g>
</g>
<!-- Node4&#45;&gt;Node5 -->
<g id="edge4_Node000004_Node000005" class="edge">
<title>Node4&#45;&gt;Node5</title>
<g id="a_edge4_Node000004_Node000005"><a xlink:title=" ">
<path fill="none" stroke="#63b8ff" d="M409.6,-109.98C429.32,-101.42 459.95,-88.11 482.58,-78.28"/>
<polygon fill="#63b8ff" stroke="#63b8ff" points="484.26,-81.37 492.04,-74.17 481.48,-74.94 484.26,-81.37"/>
</a>
</g>
</g>
<!-- Node6 -->
<g id="Node000006" class="node">
<title>Node6</title>
<g id="a_Node000006"><a xlink:title=" ">
<polygon fill="#e0e0e0" stroke="#999999" points="317.5,-74 244.5,-74 244.5,-55 317.5,-55 317.5,-74"/>
<text text-anchor="middle" x="281" y="-62" font-family="Helvetica,sans-Serif" font-size="10.00">QFileDialog</text>
</a>
</g>
</g>
<!-- Node4&#45;&gt;Node6 -->
<g id="edge5_Node000004_Node000006" class="edge">
<title>Node4&#45;&gt;Node6</title>
<g id="a_edge5_Node000004_Node000006"><a xlink:title=" ">
<path fill="none" stroke="#63b8ff" d="M372.49,-109.98C355.03,-101.5 327.99,-88.35 307.83,-78.54"/>
<polygon fill="#63b8ff" stroke="#63b8ff" points="309.36,-75.4 298.83,-74.17 306.29,-81.69 309.36,-75.4"/>
</a>
</g>
</g>
<!-- Node7 -->
<g id="Node000007" class="node">
<title>Node7</title>
<g id="a_Node000007"><a xlink:title=" ">
<polygon fill="#e0e0e0" stroke="#999999" points="386,-74 336,-74 336,-55 386,-55 386,-74"/>
<text text-anchor="middle" x="361" y="-62" font-family="Helvetica,sans-Serif" font-size="10.00">QLineF</text>
</a>
</g>
</g>
<!-- Node4&#45;&gt;Node7 -->
<g id="edge6_Node000004_Node000007" class="edge">
<title>Node4&#45;&gt;Node7</title>
<g id="a_edge6_Node000004_Node000007"><a xlink:title=" ">
<path fill="none" stroke="#63b8ff" d="M385.21,-109.75C381.24,-102.49 375.47,-91.95 370.57,-82.98"/>
<polygon fill="#63b8ff" stroke="#63b8ff" points="373.57,-81.18 365.7,-74.09 367.43,-84.54 373.57,-81.18"/>
</a>
</g>
</g>
<!-- Node8 -->
<g id="Node000008" class="node">
<title>Node8</title>
<g id="a_Node000008"><a xlink:title=" ">
<polygon fill="#e0e0e0" stroke="#999999" points="752.5,-74 699.5,-74 699.5,-55 752.5,-55 752.5,-74"/>
<text text-anchor="middle" x="726" y="-62" font-family="Helvetica,sans-Serif" font-size="10.00">QString</text>
</a>
</g>
</g>
<!-- Node4&#45;&gt;Node8 -->
<g id="edge7_Node000004_Node000008" class="edge">
<title>Node4&#45;&gt;Node8</title>
<g id="a_edge7_Node000004_Node000008"><a xlink:title=" ">
<path fill="none" stroke="#63b8ff" d="M431.2,-112C497.43,-101.55 626.53,-81.19 689.58,-71.24"/>
<polygon fill="#63b8ff" stroke="#63b8ff" points="690.14,-74.7 699.48,-69.68 689.05,-67.78 690.14,-74.7"/>
</a>
</g>
</g>
<!-- Node9 -->
<g id="Node000009" class="node">
<title>Node9</title>
<g id="a_Node000009"><a xlink:title=" ">
<polygon fill="#e0e0e0" stroke="#999999" points="660,-74 590,-74 590,-55 660,-55 660,-74"/>
<text text-anchor="middle" x="625" y="-62" font-family="Helvetica,sans-Serif" font-size="10.00">QStringList</text>
</a>
</g>
</g>
<!-- Node4&#45;&gt;Node9 -->
<g id="edge8_Node000004_Node000009" class="edge">
<title>Node4&#45;&gt;Node9</title>
<g id="a_edge8_Node000004_Node000009"><a xlink:title=" ">
<path fill="none" stroke="#63b8ff" d="M427.76,-109.98C469.16,-100.65 535.59,-85.67 579.75,-75.71"/>
<polygon fill="#63b8ff" stroke="#63b8ff" points="580.66,-79.09 589.64,-73.47 579.12,-72.26 580.66,-79.09"/>
</a>
</g>
</g>
<!-- Node10 -->
<g id="Node000010" class="node">
<title>Node10</title>
<g id="a_Node000010"><a xlink:title=" ">
<polygon fill="#e0e0e0" stroke="#999999" points="433.5,-74 404.5,-74 404.5,-55 433.5,-55 433.5,-74"/>
<text text-anchor="middle" x="419" y="-62" font-family="Helvetica,sans-Serif" font-size="10.00">Qt</text>
</a>
</g>
</g>
<!-- Node4&#45;&gt;Node10 -->
<g id="edge9_Node000004_Node000010" class="edge">
<title>Node4&#45;&gt;Node10</title>
<g id="a_edge9_Node000004_Node000010"><a xlink:title=" ">
<path fill="none" stroke="#63b8ff" d="M394.79,-109.75C398.76,-102.49 404.53,-91.95 409.43,-82.98"/>
<polygon fill="#63b8ff" stroke="#63b8ff" points="412.57,-84.54 414.3,-74.09 406.43,-81.18 412.57,-84.54"/>
</a>
</g>
</g>
<!-- Node11 -->
<g id="Node000011" class="node">
<title>Node11</title>
<g id="a_Node000011"><a xlink:title=" ">
<polygon fill="#e0e0e0" stroke="#999999" points="56,-74 0,-74 0,-55 56,-55 56,-74"/>
<text text-anchor="middle" x="28" y="-62" font-family="Helvetica,sans-Serif" font-size="10.00">QPrinter</text>
</a>
</g>
</g>
<!-- Node4&#45;&gt;Node11 -->
<g id="edge11_Node000004_Node000011" class="edge">
<title>Node4&#45;&gt;Node11</title>
<g id="a_edge11_Node000004_Node000011"><a xlink:title=" ">
<path fill="none" stroke="#63b8ff" d="M348.77,-114.06C288.75,-107.32 173.64,-93.42 66.26,-74.09"/>
<polygon fill="#63b8ff" stroke="#63b8ff" points="66.69,-70.61 56.23,-72.26 65.44,-77.49 66.69,-70.61"/>
</a>
</g>
</g>
<!-- Node12 -->
<g id="Node000012" class="node">
<title>Node12</title>
<g id="a_Node000012"><a xlink:title=" ">
<polygon fill="#e0e0e0" stroke="#999999" points="125.5,-74 74.5,-74 74.5,-55 125.5,-55 125.5,-74"/>
<text text-anchor="middle" x="100" y="-62" font-family="Helvetica,sans-Serif" font-size="10.00">csignal</text>
</a>
</g>
</g>
<!-- Node4&#45;&gt;Node12 -->
<g id="edge12_Node000004_Node000012" class="edge">
<title>Node4&#45;&gt;Node12</title>
<g id="a_edge12_Node000004_Node000012"><a xlink:title=" ">
<path fill="none" stroke="#63b8ff" d="M348.59,-112.25C299.8,-104.68 216.11,-91.04 135.4,-74.18"/>
<polygon fill="#63b8ff" stroke="#63b8ff" points="136.08,-70.74 125.57,-72.11 134.64,-77.59 136.08,-70.74"/>
</a>
</g>
</g>
<!-- Node13 -->
<g id="Node000013" class="node">
<title>Node13</title>
<g id="a_Node000013"><a xlink:href="../../d4/d82/debugbreak_8h.html" target="_top" xlink:title=" ">
<polygon fill="white" stroke="#666666" points="226.5,-74 143.5,-74 143.5,-55 226.5,-55 226.5,-74"/>
<text text-anchor="middle" x="185" y="-62" font-family="Helvetica,sans-Serif" font-size="10.00">debugbreak.h</text>
</a>
</g>
</g>
<!-- Node4&#45;&gt;Node13 -->
<g id="edge13_Node000004_Node000013" class="edge">
<title>Node4&#45;&gt;Node13</title>
<g id="a_edge13_Node000004_Node000013"><a xlink:title=" ">
<path fill="none" stroke="#63b8ff" d="M357.06,-109.98C322.05,-100.93 266.53,-86.58 228.07,-76.64"/>
<polygon fill="#63b8ff" stroke="#63b8ff" points="228.75,-73.2 218.19,-74.08 227,-79.97 228.75,-73.2"/>
</a>
</g>
</g>
<!-- Node14 -->
<g id="Node000014" class="node">
<title>Node14</title>
<g id="a_Node000014"><a xlink:title=" ">
<polygon fill="#e0e0e0" stroke="#999999" points="212.5,-19 157.5,-19 157.5,0 212.5,0 212.5,-19"/>
<text text-anchor="middle" x="185" y="-7" font-family="Helvetica,sans-Serif" font-size="10.00">signal.h</text>
</a>
</g>
</g>
<!-- Node13&#45;&gt;Node14 -->
<g id="edge14_Node000013_Node000014" class="edge">
<title>Node13&#45;&gt;Node14</title>
<g id="a_edge14_Node000013_Node000014"><a xlink:title=" ">
<path fill="none" stroke="#63b8ff" d="M185,-54.75C185,-47.8 185,-37.85 185,-29.13"/>
<polygon fill="#63b8ff" stroke="#63b8ff" points="188.5,-29.09 185,-19.09 181.5,-29.09 188.5,-29.09"/>
</a>
</g>
</g>
<!-- Node15&#45;&gt;Node2 -->
<g id="edge22_Node000015_Node000002" class="edge">
<title>Node15&#45;&gt;Node2</title>
<g id="a_edge22_Node000015_Node000002"><a xlink:title=" ">
<path fill="none" stroke="#63b8ff" d="M1065.02,-225.67C1186.19,-218.67 1391.05,-194.35 1316,-110 1293.63,-84.85 1068.47,-71.63 975.66,-67.21"/>
<polygon fill="#63b8ff" stroke="#63b8ff" points="975.7,-63.71 965.54,-66.74 975.37,-70.7 975.7,-63.71"/>
</a>
</g>
</g>
<!-- Node15&#45;&gt;Node3 -->
<g id="edge18_Node000015_Node000003" class="edge">
<title>Node15&#45;&gt;Node3</title>
<g id="a_edge18_Node000015_Node000003"><a xlink:title=" ">
<path fill="none" stroke="#63b8ff" d="M1016.23,-219.94C1045.59,-211.96 1089.31,-199.04 1126,-184 1161.73,-169.35 1201.06,-148.08 1225.4,-134.26"/>
<polygon fill="#63b8ff" stroke="#63b8ff" points="1227.32,-137.2 1234.25,-129.19 1223.84,-131.12 1227.32,-137.2"/>
</a>
</g>
</g>
<!-- Node15&#45;&gt;Node5 -->
<g id="edge16_Node000015_Node000005" class="edge">
<title>Node15&#45;&gt;Node5</title>
<g id="a_edge16_Node000015_Node000005"><a xlink:title=" ">
<path fill="none" stroke="#63b8ff" d="M900.77,-225.28C778.21,-219.77 558.97,-206.83 531,-184 501.91,-160.25 504.36,-111.2 508.36,-84.25"/>
<polygon fill="#63b8ff" stroke="#63b8ff" points="511.85,-84.64 510.09,-74.19 504.95,-83.46 511.85,-84.64"/>
</a>
</g>
</g>
<!-- Node15&#45;&gt;Node8 -->
<g id="edge19_Node000015_Node000008" class="edge">
<title>Node15&#45;&gt;Node8</title>
<g id="a_edge19_Node000015_Node000008"><a xlink:title=" ">
<path fill="none" stroke="#63b8ff" d="M900.96,-221.62C844.76,-215.23 776.78,-203.68 756,-184 728.48,-157.94 724.76,-110.58 725.02,-84.31"/>
<polygon fill="#63b8ff" stroke="#63b8ff" points="728.52,-84.28 725.34,-74.17 721.53,-84.06 728.52,-84.28"/>
</a>
</g>
</g>
<!-- Node16 -->
<g id="Node000016" class="node">
<title>Node16</title>
<g id="a_Node000016"><a xlink:title=" ">
<polygon fill="#e0e0e0" stroke="#999999" points="819.5,-184 764.5,-184 764.5,-165 819.5,-165 819.5,-184"/>
<text text-anchor="middle" x="792" y="-172" font-family="Helvetica,sans-Serif" font-size="10.00">QPointF</text>
</a>
</g>
</g>
<!-- Node15&#45;&gt;Node16 -->
<g id="edge17_Node000015_Node000016" class="edge">
<title>Node15&#45;&gt;Node16</title>
<g id="a_edge17_Node000015_Node000016"><a xlink:title=" ">
<path fill="none" stroke="#63b8ff" d="M952.31,-219.98C918.91,-210.72 865.49,-195.89 829.59,-185.93"/>
<polygon fill="#63b8ff" stroke="#63b8ff" points="830.08,-182.44 819.51,-183.13 828.21,-189.18 830.08,-182.44"/>
</a>
</g>
</g>
<!-- Node17 -->
<g id="Node000017" class="node">
<title>Node17</title>
<g id="a_Node000017"><a xlink:title=" ">
<polygon fill="#e0e0e0" stroke="#999999" points="911.5,-129 846.5,-129 846.5,-110 911.5,-110 911.5,-129"/>
<text text-anchor="middle" x="879" y="-117" font-family="Helvetica,sans-Serif" font-size="10.00">QTypeInfo</text>
</a>
</g>
</g>
<!-- Node15&#45;&gt;Node17 -->
<g id="edge20_Node000015_Node000017" class="edge">
<title>Node15&#45;&gt;Node17</title>
<g id="a_edge20_Node000015_Node000017"><a xlink:title=" ">
<path fill="none" stroke="#63b8ff" d="M979.34,-219.9C973.5,-206.91 961.08,-181.97 945,-165 933.37,-152.73 917.79,-142.03 904.69,-134.19"/>
<polygon fill="#63b8ff" stroke="#63b8ff" points="906.09,-130.96 895.67,-129.02 902.6,-137.03 906.09,-130.96"/>
</a>
</g>
</g>
<!-- Node18 -->
<g id="Node000018" class="node">
<title>Node18</title>
<g id="a_Node000018"><a xlink:title=" ">
<polygon fill="#e0e0e0" stroke="#999999" points="984.5,-129 929.5,-129 929.5,-110 984.5,-110 984.5,-129"/>
<text text-anchor="middle" x="957" y="-117" font-family="Helvetica,sans-Serif" font-size="10.00">QVector</text>
</a>
</g>
</g>
<!-- Node15&#45;&gt;Node18 -->
<g id="edge21_Node000015_Node000018" class="edge">
<title>Node15&#45;&gt;Node18</title>
<g id="a_edge21_Node000015_Node000018"><a xlink:title=" ">
<path fill="none" stroke="#63b8ff" d="M983.3,-219.71C983.5,-207.29 983.06,-184.02 978,-165 975.53,-155.71 971.18,-145.99 967.07,-138.02"/>
<polygon fill="#63b8ff" stroke="#63b8ff" points="970.02,-136.11 962.16,-129.01 963.87,-139.46 970.02,-136.11"/>
</a>
</g>
</g>
<!-- Node19 -->
<g id="Node000019" class="node">
<title>Node19</title>
<g id="a_Node000019"><a xlink:href="../../d3/da5/ifcdef_8h.html" target="_top" xlink:title=" ">
<polygon fill="white" stroke="#666666" points="617.5,-184 540.5,-184 540.5,-165 617.5,-165 617.5,-184"/>
<text text-anchor="middle" x="579" y="-172" font-family="Helvetica,sans-Serif" font-size="10.00">../ifc/ifcdef.h</text>
</a>
</g>
</g>
<!-- Node15&#45;&gt;Node19 -->
<g id="edge23_Node000015_Node000019" class="edge">
<title>Node15&#45;&gt;Node19</title>
<g id="a_edge23_Node000015_Node000019"><a xlink:title=" ">
<path fill="none" stroke="#63b8ff" d="M918.09,-219.98C837.09,-209.36 700.41,-191.43 627.78,-181.9"/>
<polygon fill="#63b8ff" stroke="#63b8ff" points="627.92,-178.39 617.55,-180.56 627.01,-185.33 627.92,-178.39"/>
</a>
</g>
</g>
<!-- Node21 -->
<g id="Node000021" class="node">
<title>Node21</title>
<g id="a_Node000021"><a xlink:href="../../db/db3/vmath_8h.html" target="_top" xlink:title=" ">
<polygon fill="white" stroke="#666666" points="936,-184 838,-184 838,-165 936,-165 936,-184"/>
<text text-anchor="middle" x="887" y="-172" font-family="Helvetica,sans-Serif" font-size="10.00">../vmisc/vmath.h</text>
</a>
</g>
</g>
<!-- Node15&#45;&gt;Node21 -->
<g id="edge30_Node000015_Node000021" class="edge">
<title>Node15&#45;&gt;Node21</title>
<g id="a_edge30_Node000015_Node000021"><a xlink:title=" ">
<path fill="none" stroke="#63b8ff" d="M967.58,-219.98C952.55,-211.69 929.46,-198.94 911.84,-189.22"/>
<polygon fill="#63b8ff" stroke="#63b8ff" points="913.15,-185.94 902.7,-184.17 909.77,-192.07 913.15,-185.94"/>
</a>
</g>
</g>
<!-- Node23 -->
<g id="Node000023" class="node">
<title>Node23</title>
<g id="a_Node000023"><a xlink:href="../../d5/d9d/vgeometrydef_8h.html" target="_top" xlink:title=" ">
<polygon fill="white" stroke="#666666" points="1173,-129 1079,-129 1079,-110 1173,-110 1173,-129"/>
<text text-anchor="middle" x="1126" y="-117" font-family="Helvetica,sans-Serif" font-size="10.00">vgeometrydef.h</text>
</a>
</g>
</g>
<!-- Node15&#45;&gt;Node23 -->
<g id="edge32_Node000015_Node000023" class="edge">
<title>Node15&#45;&gt;Node23</title>
<g id="a_edge32_Node000015_Node000023"><a xlink:title=" ">
<path fill="none" stroke="#63b8ff" d="M1039.21,-219.92C1062.98,-213.63 1089.22,-202.76 1107,-184 1118.49,-171.87 1123.06,-153.08 1124.86,-139.08"/>
<polygon fill="#63b8ff" stroke="#63b8ff" points="1128.35,-139.38 1125.79,-129.1 1121.38,-138.73 1128.35,-139.38"/>
</a>
</g>
</g>
<!-- Node24 -->
<g id="Node000024" class="node">
<title>Node24</title>
<g id="a_Node000024"><a xlink:href="../../d2/d07/vgobject_8h.html" target="_top" xlink:title=" ">
<polygon fill="white" stroke="#666666" points="1098,-184 1030,-184 1030,-165 1098,-165 1098,-184"/>
<text text-anchor="middle" x="1064" y="-172" font-family="Helvetica,sans-Serif" font-size="10.00">vgobject.h</text>
</a>
</g>
</g>
<!-- Node15&#45;&gt;Node24 -->
<g id="edge33_Node000015_Node000024" class="edge">
<title>Node15&#45;&gt;Node24</title>
<g id="a_edge33_Node000015_Node000024"><a xlink:title=" ">
<path fill="none" stroke="#63b8ff" d="M996.01,-219.98C1008.46,-211.84 1027.46,-199.41 1042.21,-189.76"/>
<polygon fill="#63b8ff" stroke="#63b8ff" points="1044.3,-192.57 1050.75,-184.17 1040.46,-186.72 1044.3,-192.57"/>
</a>
</g>
</g>
<!-- Node19&#45;&gt;Node2 -->
<g id="edge26_Node000019_Node000002" class="edge">
<title>Node19&#45;&gt;Node2</title>
<g id="a_edge26_Node000019_Node000002"><a xlink:title=" ">
<path fill="none" stroke="#63b8ff" d="M602.58,-164.96C638.03,-152.25 707.28,-127.93 767,-110 810.85,-96.84 861.72,-83.73 896.1,-75.19"/>
<polygon fill="#63b8ff" stroke="#63b8ff" points="897.35,-78.49 906.22,-72.69 895.67,-71.69 897.35,-78.49"/>
</a>
</g>
</g>
<!-- Node19&#45;&gt;Node4 -->
<g id="edge27_Node000019_Node000004" class="edge">
<title>Node19&#45;&gt;Node4</title>
<g id="a_edge27_Node000019_Node000004"><a xlink:title=" ">
<path fill="none" stroke="#63b8ff" d="M548.63,-164.98C516.63,-156.01 466.04,-141.82 430.62,-131.89"/>
<polygon fill="#63b8ff" stroke="#63b8ff" points="431.18,-128.41 420.6,-129.08 429.29,-135.15 431.18,-128.41"/>
</a>
</g>
</g>
<!-- Node19&#45;&gt;Node8 -->
<g id="edge24_Node000019_Node000008" class="edge">
<title>Node19&#45;&gt;Node8</title>
<g id="a_edge24_Node000019_Node000008"><a xlink:title=" ">
<path fill="none" stroke="#63b8ff" d="M570.63,-164.92C559,-151.95 540.8,-127.05 554,-110 562.36,-99.21 641.39,-82.06 689.37,-72.51"/>
<polygon fill="#63b8ff" stroke="#63b8ff" points="690.25,-75.91 699.39,-70.54 688.9,-69.04 690.25,-75.91"/>
</a>
</g>
</g>
<!-- Node19&#45;&gt;Node9 -->
<g id="edge25_Node000019_Node000009" class="edge">
<title>Node19&#45;&gt;Node9</title>
<g id="a_edge25_Node000019_Node000009"><a xlink:title=" ">
<path fill="none" stroke="#63b8ff" d="M560.56,-164.8C538.63,-153.23 506.69,-131.68 521,-110 528.67,-98.37 559.78,-85.96 586,-77.21"/>
<polygon fill="#63b8ff" stroke="#63b8ff" points="587.31,-80.47 595.74,-74.05 585.15,-73.81 587.31,-80.47"/>
</a>
</g>
</g>
<!-- Node20 -->
<g id="Node000020" class="node">
<title>Node20</title>
<g id="a_Node000020"><a xlink:href="../../d6/dcd/diagnostic_8h.html" target="_top" xlink:title=" ">
<polygon fill="white" stroke="#666666" points="680.5,-129 563.5,-129 563.5,-110 680.5,-110 680.5,-129"/>
<text text-anchor="middle" x="622" y="-117" font-family="Helvetica,sans-Serif" font-size="10.00">../vmisc/diagnostic.h</text>
</a>
</g>
</g>
<!-- Node19&#45;&gt;Node20 -->
<g id="edge28_Node000019_Node000020" class="edge">
<title>Node19&#45;&gt;Node20</title>
<g id="a_edge28_Node000019_Node000020"><a xlink:title=" ">
<path fill="none" stroke="#63b8ff" d="M586.1,-164.75C592.17,-157.26 601.09,-146.28 608.51,-137.13"/>
<polygon fill="#63b8ff" stroke="#63b8ff" points="611.45,-139.06 615.03,-129.09 606.01,-134.65 611.45,-139.06"/>
</a>
</g>
</g>
<!-- Node20&#45;&gt;Node2 -->
<g id="edge29_Node000020_Node000002" class="edge">
<title>Node20&#45;&gt;Node2</title>
<g id="a_edge29_Node000020_Node000002"><a xlink:title=" ">
<path fill="none" stroke="#63b8ff" d="M672.45,-109.98C734.79,-99.46 839.58,-81.78 896.43,-72.18"/>
<polygon fill="#63b8ff" stroke="#63b8ff" points="897.19,-75.6 906.46,-70.49 896.02,-68.7 897.19,-75.6"/>
</a>
</g>
</g>
<!-- Node22 -->
<g id="Node000022" class="node">
<title>Node22</title>
<g id="a_Node000022"><a xlink:title=" ">
<polygon fill="#e0e0e0" stroke="#999999" points="828.5,-129 775.5,-129 775.5,-110 828.5,-110 828.5,-129"/>
<text text-anchor="middle" x="802" y="-117" font-family="Helvetica,sans-Serif" font-size="10.00">QtMath</text>
</a>
</g>
</g>
<!-- Node21&#45;&gt;Node22 -->
<g id="edge31_Node000021_Node000022" class="edge">
<title>Node21&#45;&gt;Node22</title>
<g id="a_edge31_Node000021_Node000022"><a xlink:title=" ">
<path fill="none" stroke="#63b8ff" d="M873.34,-164.98C860.16,-156.77 839.97,-144.18 824.43,-134.49"/>
<polygon fill="#63b8ff" stroke="#63b8ff" points="826.24,-131.49 815.91,-129.17 822.54,-137.43 826.24,-131.49"/>
</a>
</g>
</g>
<!-- Node24&#45;&gt;Node2 -->
<g id="edge38_Node000024_Node000002" class="edge">
<title>Node24&#45;&gt;Node2</title>
<g id="a_edge38_Node000024_Node000002"><a xlink:title=" ">
<path fill="none" stroke="#63b8ff" d="M1060.78,-164.61C1055.53,-151.24 1044.01,-125.81 1027,-110 1011.68,-95.75 990.94,-85.14 973.14,-77.86"/>
<polygon fill="#63b8ff" stroke="#63b8ff" points="974.19,-74.51 963.6,-74.15 971.65,-81.03 974.19,-74.51"/>
</a>
</g>
</g>
<!-- Node24&#45;&gt;Node3 -->
<g id="edge34_Node000024_Node000003" class="edge">
<title>Node24&#45;&gt;Node3</title>
<g id="a_edge34_Node000024_Node000003"><a xlink:title=" ">
<path fill="none" stroke="#63b8ff" d="M1093.72,-164.98C1125.05,-156.01 1174.57,-141.82 1209.24,-131.89"/>
<polygon fill="#63b8ff" stroke="#63b8ff" points="1210.39,-135.2 1219.04,-129.08 1208.47,-128.47 1210.39,-135.2"/>
</a>
</g>
</g>
<!-- Node24&#45;&gt;Node8 -->
<g id="edge35_Node000024_Node000008" class="edge">
<title>Node24&#45;&gt;Node8</title>
<g id="a_edge35_Node000024_Node000008"><a xlink:title=" ">
<path fill="none" stroke="#63b8ff" d="M1057.32,-164.83C1045.98,-150.79 1021.47,-123.29 994,-110 917.58,-73.02 816.13,-66.05 762.63,-65.16"/>
<polygon fill="#63b8ff" stroke="#63b8ff" points="762.63,-61.66 752.59,-65.06 762.55,-68.66 762.63,-61.66"/>
</a>
</g>
</g>
<!-- Node24&#45;&gt;Node17 -->
<g id="edge36_Node000024_Node000017" class="edge">
<title>Node24&#45;&gt;Node17</title>
<g id="a_edge36_Node000024_Node000017"><a xlink:title=" ">
<path fill="none" stroke="#63b8ff" d="M1034.28,-164.98C1002.95,-156.01 953.43,-141.82 918.76,-131.89"/>
<polygon fill="#63b8ff" stroke="#63b8ff" points="919.53,-128.47 908.96,-129.08 917.61,-135.2 919.53,-128.47"/>
</a>
</g>
</g>
<!-- Node24&#45;&gt;Node18 -->
<g id="edge37_Node000024_Node000018" class="edge">
<title>Node24&#45;&gt;Node18</title>
<g id="a_edge37_Node000024_Node000018"><a xlink:title=" ">
<path fill="none" stroke="#63b8ff" d="M1046.81,-164.98C1029.75,-156.54 1003.37,-143.47 983.6,-133.68"/>
<polygon fill="#63b8ff" stroke="#63b8ff" points="985.02,-130.47 974.5,-129.17 981.91,-136.75 985.02,-130.47"/>
</a>
</g>
</g>
<!-- Node24&#45;&gt;Node23 -->
<g id="edge39_Node000024_Node000023" class="edge">
<title>Node24&#45;&gt;Node23</title>
<g id="a_edge39_Node000024_Node000023"><a xlink:title=" ">
<path fill="none" stroke="#63b8ff" d="M1073.96,-164.98C1083.13,-157.15 1096.94,-145.34 1108.03,-135.86"/>
<polygon fill="#63b8ff" stroke="#63b8ff" points="1110.53,-138.33 1115.86,-129.17 1105.98,-133.01 1110.53,-138.33"/>
</a>
</g>
</g>
</g>
</svg>

<g id="navigator" transform="translate(0 0)" fill="#404254">
  <rect fill="#f2f5e9" fill-opacity="0.5" stroke="#606060" stroke-width=".5" x="0" y="0" width="60" height="60"/>
  <use id="zoomplus" xlink:href="#zoomPlus" x="17" y="9" onmousedown="handleZoom(evt,'in')"/>
  <use id="zoomminus" xlink:href="#zoomMin" x="42" y="9" onmousedown="handleZoom(evt,'out')"/>
  <use id="reset" xlink:href="#resetDef" x="30" y="36" onmousedown="handleReset()"/>
   <use id="arrowup" xlink:href="#arrowUp" x="0" y="0" onmousedown="handlePan(0,-1)"/>
  <use id="arrowright" xlink:href="#arrowRight" x="0" y="0" onmousedown="handlePan(1,0)"/>
  <use id="arrowdown" xlink:href="#arrowDown" x="0" y="0" onmousedown="handlePan(0,1)"/>
  <use id="arrowleft" xlink:href="#arrowLeft" x="0" y="0" onmousedown="handlePan(-1,0)"/>
</g>
<svg viewBox="0 0 15 15" width="100%" height="30px" preserveAspectRatio="xMaxYMin meet">
 <g id="arrow_out" transform="scale(0.3 0.3)">
  <a xlink:href="vpiecepath_8h__incl_org.svg" target="_base">
   <rect id="button" ry="5" rx="5" y="6" x="6" height="38" width="38"
        fill="#f2f5e9" fill-opacity="0.5" stroke="#606060" stroke-width="1.0"/>
   <path id="arrow"
     d="M 11.500037,31.436501 C 11.940474,20.09759 22.043105,11.32322 32.158766,21.979434 L 37.068811,17.246167 C 37.068811,17.246167 37.088388,32 37.088388,32 L 22.160133,31.978069 C 22.160133,31.978069 26.997745,27.140456 26.997745,27.140456 C 18.528582,18.264221 13.291696,25.230495 11.500037,31.436501 z"
     style="fill:#404040;"/>
  </a>
 </g>
</svg>

<style type='text/css'>
<![CDATA[
[data-mouse-over-selected='false'] { opacity: 0.7; }
[data-mouse-over-selected='true']  { opacity: 1.0; }
]]>
</style>
<script type="application/ecmascript"><![CDATA[
document.addEventListener('DOMContentLoaded', (event) => {
  highlightEdges();
  highlightAdjacentNodes();
});
]]></script>
</svg>
