<?xml version="1.0" encoding="UTF-8" standalone="no"?>
<!DOCTYPE svg PUBLIC "-//W3C//DTD SVG 1.1//EN"
 "http://www.w3.org/Graphics/SVG/1.1/DTD/svg11.dtd">
<!-- Generated by graphviz version 2.43.0 (0)
 -->
<!-- Title: src/app/seamly2d/dialogs/abstractlayout_dialog.h Pages: 1 -->
<svg width="4019pt" height="307pt"
 viewBox="0.00 0.00 4018.50 307.00" xmlns="http://www.w3.org/2000/svg" xmlns:xlink="http://www.w3.org/1999/xlink">
<g id="graph0" class="graph" transform="scale(1 1) rotate(0) translate(4 303)">
<title>src/app/seamly2d/dialogs/abstractlayout_dialog.h</title>
<polygon fill="white" stroke="transparent" points="-4,4 -4,-303 4014.5,-303 4014.5,4 -4,4"/>
<!-- Node1 -->
<g id="node1" class="node">
<title>Node1</title>
<g id="a_node1"><a xlink:title=" ">
<polygon fill="#bfbfbf" stroke="black" points="2186.5,-268.5 2186.5,-298.5 2327.5,-298.5 2327.5,-268.5 2186.5,-268.5"/>
<text text-anchor="start" x="2194.5" y="-286.5" font-family="Helvetica,sans-Serif" font-size="10.00">src/app/seamly2d/dialogs</text>
<text text-anchor="middle" x="2257" y="-275.5" font-family="Helvetica,sans-Serif" font-size="10.00">/abstractlayout_dialog.h</text>
</a>
</g>
</g>
<!-- Node2 -->
<g id="node2" class="node">
<title>Node2</title>
<g id="a_node2"><a xlink:href="../../dd/db4/abstractlayout__dialog_8cpp.html" target="_top" xlink:title=" ">
<polygon fill="white" stroke="black" points="0,-0.5 0,-30.5 146,-30.5 146,-0.5 0,-0.5"/>
<text text-anchor="start" x="8" y="-18.5" font-family="Helvetica,sans-Serif" font-size="10.00">src/app/seamly2d/dialogs</text>
<text text-anchor="middle" x="73" y="-7.5" font-family="Helvetica,sans-Serif" font-size="10.00">/abstractlayout_dialog.cpp</text>
</a>
</g>
</g>
<!-- Node1&#45;&gt;Node2 -->
<g id="edge1" class="edge">
<title>Node1&#45;&gt;Node2</title>
<path fill="none" stroke="midnightblue" d="M2176.04,-278.22C1921.74,-263.92 1116.77,-212.09 460,-98 343.65,-77.79 208.94,-47.94 133.07,-30.54"/>
<polygon fill="midnightblue" stroke="midnightblue" points="2176.12,-281.73 2186.3,-278.79 2176.51,-274.74 2176.12,-281.73"/>
</g>
<!-- Node3 -->
<g id="node3" class="node">
<title>Node3</title>
<g id="a_node3"><a xlink:href="../../d1/d8e/export__layout__dialog_8h.html" target="_top" xlink:title=" ">
<polygon fill="white" stroke="black" points="2186.5,-201.5 2186.5,-231.5 2327.5,-231.5 2327.5,-201.5 2186.5,-201.5"/>
<text text-anchor="start" x="2194.5" y="-219.5" font-family="Helvetica,sans-Serif" font-size="10.00">src/app/seamly2d/dialogs</text>
<text text-anchor="middle" x="2257" y="-208.5" font-family="Helvetica,sans-Serif" font-size="10.00">/export_layout_dialog.h</text>
</a>
</g>
</g>
<!-- Node1&#45;&gt;Node3 -->
<g id="edge2" class="edge">
<title>Node1&#45;&gt;Node3</title>
<path fill="none" stroke="midnightblue" d="M2257,-258.11C2257,-249.15 2257,-239.32 2257,-231.58"/>
<polygon fill="midnightblue" stroke="midnightblue" points="2253.5,-258.4 2257,-268.4 2260.5,-258.4 2253.5,-258.4"/>
</g>
<!-- Node11 -->
<g id="node11" class="node">
<title>Node11</title>
<g id="a_node11"><a xlink:href="../../d3/dd8/layoutsettings__dialog_8h.html" target="_top" xlink:title=" ">
<polygon fill="white" stroke="black" points="2345.5,-201.5 2345.5,-231.5 2486.5,-231.5 2486.5,-201.5 2345.5,-201.5"/>
<text text-anchor="start" x="2353.5" y="-219.5" font-family="Helvetica,sans-Serif" font-size="10.00">src/app/seamly2d/dialogs</text>
<text text-anchor="middle" x="2416" y="-208.5" font-family="Helvetica,sans-Serif" font-size="10.00">/layoutsettings_dialog.h</text>
</a>
</g>
</g>
<!-- Node1&#45;&gt;Node11 -->
<g id="edge11" class="edge">
<title>Node1&#45;&gt;Node11</title>
<path fill="none" stroke="midnightblue" d="M2300.92,-264.54C2326.37,-254.14 2357.93,-241.24 2381.57,-231.58"/>
<polygon fill="midnightblue" stroke="midnightblue" points="2299.43,-261.37 2291.5,-268.4 2302.08,-267.85 2299.43,-261.37"/>
</g>
<!-- Node4 -->
<g id="node4" class="node">
<title>Node4</title>
<g id="a_node4"><a xlink:href="../../dd/d54/export__layout__dialog_8cpp.html" target="_top" xlink:title=" ">
<polygon fill="white" stroke="black" points="164.5,-0.5 164.5,-30.5 307.5,-30.5 307.5,-0.5 164.5,-0.5"/>
<text text-anchor="start" x="172.5" y="-18.5" font-family="Helvetica,sans-Serif" font-size="10.00">src/app/seamly2d/dialogs</text>
<text text-anchor="middle" x="236" y="-7.5" font-family="Helvetica,sans-Serif" font-size="10.00">/export_layout_dialog.cpp</text>
</a>
</g>
</g>
<!-- Node3&#45;&gt;Node4 -->
<g id="edge3" class="edge">
<title>Node3&#45;&gt;Node4</title>
<path fill="none" stroke="midnightblue" d="M2176.13,-213.3C1938.81,-206.05 1224.02,-178.6 637,-98 513.48,-81.04 370.86,-49.03 293.38,-30.58"/>
<polygon fill="midnightblue" stroke="midnightblue" points="2176.3,-216.8 2186.4,-213.61 2176.51,-209.81 2176.3,-216.8"/>
</g>
<!-- Node5 -->
<g id="node5" class="node">
<title>Node5</title>
<g id="a_node5"><a xlink:href="../../d1/d82/mainwindowsnogui_8h.html" target="_top" xlink:title=" ">
<polygon fill="white" stroke="black" points="2159.5,-140 2159.5,-159 2368.5,-159 2368.5,-140 2159.5,-140"/>
<text text-anchor="middle" x="2264" y="-147" font-family="Helvetica,sans-Serif" font-size="10.00">src/app/seamly2d/mainwindowsnogui.h</text>
</a>
</g>
</g>
<!-- Node3&#45;&gt;Node5 -->
<g id="edge4" class="edge">
<title>Node3&#45;&gt;Node5</title>
<path fill="none" stroke="midnightblue" d="M2259.61,-191.25C2260.82,-180.02 2262.18,-167.38 2263.06,-159.19"/>
<polygon fill="midnightblue" stroke="midnightblue" points="2256.11,-191.08 2258.52,-201.4 2263.07,-191.83 2256.11,-191.08"/>
</g>
<!-- Node10 -->
<g id="node10" class="node">
<title>Node10</title>
<g id="a_node10"><a xlink:href="../../d8/de8/mainwindowsnogui_8cpp.html" target="_top" xlink:title=" ">
<polygon fill="white" stroke="black" points="3626.5,-6 3626.5,-25 3847.5,-25 3847.5,-6 3626.5,-6"/>
<text text-anchor="middle" x="3737" y="-13" font-family="Helvetica,sans-Serif" font-size="10.00">src/app/seamly2d/mainwindowsnogui.cpp</text>
</a>
</g>
</g>
<!-- Node3&#45;&gt;Node10 -->
<g id="edge10" class="edge">
<title>Node3&#45;&gt;Node10</title>
<path fill="none" stroke="midnightblue" d="M2337.8,-200.76C2619.31,-157.01 3427.64,-55.2 3668.51,-25.05"/>
<polygon fill="midnightblue" stroke="midnightblue" points="2336.94,-197.35 2327.6,-202.36 2338.03,-204.27 2336.94,-197.35"/>
</g>
<!-- Node6 -->
<g id="node6" class="node">
<title>Node6</title>
<g id="a_node6"><a xlink:href="../../d9/d53/mainwindow_8h.html" target="_top" xlink:title=" ">
<polygon fill="white" stroke="black" points="646,-73 646,-92 822,-92 822,-73 646,-73"/>
<text text-anchor="middle" x="734" y="-80" font-family="Helvetica,sans-Serif" font-size="10.00">src/app/seamly2d/mainwindow.h</text>
</a>
</g>
</g>
<!-- Node5&#45;&gt;Node6 -->
<g id="edge5" class="edge">
<title>Node5&#45;&gt;Node6</title>
<path fill="none" stroke="midnightblue" d="M2195.1,-138.71C2180.25,-136.89 2164.62,-135.19 2150,-134 1648.91,-93.28 1045.42,-85.39 822.39,-83.87"/>
<polygon fill="midnightblue" stroke="midnightblue" points="2194.87,-142.21 2205.23,-139.99 2195.75,-135.27 2194.87,-142.21"/>
</g>
<!-- Node5&#45;&gt;Node10 -->
<g id="edge9" class="edge">
<title>Node5&#45;&gt;Node10</title>
<path fill="none" stroke="midnightblue" d="M2334.05,-138.58C2457.31,-121.46 2721.15,-86.37 2945,-67 3242.98,-41.22 3319.03,-56.95 3617,-31 3635.29,-29.41 3655.1,-27.21 3673.25,-25.01"/>
<polygon fill="midnightblue" stroke="midnightblue" points="2333.41,-135.13 2323.99,-139.98 2334.37,-142.07 2333.41,-135.13"/>
</g>
<!-- Node7 -->
<g id="node7" class="node">
<title>Node7</title>
<g id="a_node7"><a xlink:href="../../d3/dd8/vapplication_8cpp.html" target="_top" xlink:title=" ">
<polygon fill="white" stroke="black" points="325.5,-0.5 325.5,-30.5 452.5,-30.5 452.5,-0.5 325.5,-0.5"/>
<text text-anchor="start" x="333.5" y="-18.5" font-family="Helvetica,sans-Serif" font-size="10.00">src/app/seamly2d/core</text>
<text text-anchor="middle" x="389" y="-7.5" font-family="Helvetica,sans-Serif" font-size="10.00">/vapplication.cpp</text>
</a>
</g>
</g>
<!-- Node6&#45;&gt;Node7 -->
<g id="edge6" class="edge">
<title>Node6&#45;&gt;Node7</title>
<path fill="none" stroke="midnightblue" d="M676.66,-71.16C621.38,-61.14 535.4,-45.37 461,-31 458.25,-30.47 455.43,-29.92 452.59,-29.36"/>
<polygon fill="midnightblue" stroke="midnightblue" points="676.15,-74.63 686.61,-72.97 677.4,-67.74 676.15,-74.63"/>
</g>
<!-- Node8 -->
<g id="node8" class="node">
<title>Node8</title>
<g id="a_node8"><a xlink:href="../../dc/d14/app_2seamly2d_2main_8cpp.html" target="_top" xlink:title=" ">
<polygon fill="white" stroke="black" points="470.5,-6 470.5,-25 621.5,-25 621.5,-6 470.5,-6"/>
<text text-anchor="middle" x="546" y="-13" font-family="Helvetica,sans-Serif" font-size="10.00">src/app/seamly2d/main.cpp</text>
</a>
</g>
</g>
<!-- Node6&#45;&gt;Node8 -->
<g id="edge7" class="edge">
<title>Node6&#45;&gt;Node8</title>
<path fill="none" stroke="midnightblue" d="M699.11,-69.44C661.81,-56.54 603.63,-36.42 570.77,-25.06"/>
<polygon fill="midnightblue" stroke="midnightblue" points="698.44,-72.91 709.04,-72.87 700.73,-66.29 698.44,-72.91"/>
</g>
<!-- Node9 -->
<g id="node9" class="node">
<title>Node9</title>
<g id="a_node9"><a xlink:href="../../d8/dd9/mainwindow_8cpp.html" target="_top" xlink:title=" ">
<polygon fill="white" stroke="black" points="640,-6 640,-25 828,-25 828,-6 640,-6"/>
<text text-anchor="middle" x="734" y="-13" font-family="Helvetica,sans-Serif" font-size="10.00">src/app/seamly2d/mainwindow.cpp</text>
</a>
</g>
</g>
<!-- Node6&#45;&gt;Node9 -->
<g id="edge8" class="edge">
<title>Node6&#45;&gt;Node9</title>
<path fill="none" stroke="midnightblue" d="M734,-62.54C734,-50.17 734,-34.62 734,-25.13"/>
<polygon fill="midnightblue" stroke="midnightblue" points="730.5,-62.73 734,-72.73 737.5,-62.73 730.5,-62.73"/>
</g>
<!-- Node11&#45;&gt;Node10 -->
<g id="edge40" class="edge">
<title>Node11&#45;&gt;Node10</title>
<path fill="none" stroke="midnightblue" d="M2496.84,-210.76C2605.48,-203.79 2804.44,-188.96 2973,-165 3254.93,-124.92 3590.45,-50.19 3700.25,-25.02"/>
<polygon fill="midnightblue" stroke="midnightblue" points="2496.37,-207.28 2486.61,-211.4 2496.81,-214.26 2496.37,-207.28"/>
</g>
<!-- Node12 -->
<g id="node12" class="node">
<title>Node12</title>
<g id="a_node12"><a xlink:href="../../dd/d57/vcmdexport_8h.html" target="_top" xlink:title=" ">
<polygon fill="white" stroke="black" points="2014.5,-134.5 2014.5,-164.5 2141.5,-164.5 2141.5,-134.5 2014.5,-134.5"/>
<text text-anchor="start" x="2022.5" y="-152.5" font-family="Helvetica,sans-Serif" font-size="10.00">src/app/seamly2d/core</text>
<text text-anchor="middle" x="2078" y="-141.5" font-family="Helvetica,sans-Serif" font-size="10.00">/vcmdexport.h</text>
</a>
</g>
</g>
<!-- Node11&#45;&gt;Node12 -->
<g id="edge12" class="edge">
<title>Node11&#45;&gt;Node12</title>
<path fill="none" stroke="midnightblue" d="M2335.42,-200.44C2282.65,-190.52 2212.19,-177.17 2150,-165 2147.25,-164.46 2144.44,-163.91 2141.6,-163.35"/>
<polygon fill="midnightblue" stroke="midnightblue" points="2334.92,-203.91 2345.39,-202.32 2336.21,-197.03 2334.92,-203.91"/>
</g>
<!-- Node25 -->
<g id="node25" class="node">
<title>Node25</title>
<g id="a_node25"><a xlink:href="../../d0/dfa/layoutsettings__dialog_8cpp.html" target="_top" xlink:title=" ">
<polygon fill="white" stroke="black" points="3865.5,-0.5 3865.5,-30.5 4010.5,-30.5 4010.5,-0.5 3865.5,-0.5"/>
<text text-anchor="start" x="3873.5" y="-18.5" font-family="Helvetica,sans-Serif" font-size="10.00">src/app/seamly2d/dialogs</text>
<text text-anchor="middle" x="3938" y="-7.5" font-family="Helvetica,sans-Serif" font-size="10.00">/layoutsettings_dialog.cpp</text>
</a>
</g>
</g>
<!-- Node11&#45;&gt;Node25 -->
<g id="edge39" class="edge">
<title>Node11&#45;&gt;Node25</title>
<path fill="none" stroke="midnightblue" d="M2497.01,-211.78C2622.03,-205.49 2869.38,-190.84 3078,-165 3426.64,-121.81 3510.98,-91.73 3857,-31 3859.67,-30.53 3862.4,-30.05 3865.15,-29.57"/>
<polygon fill="midnightblue" stroke="midnightblue" points="2496.57,-208.3 2486.76,-212.29 2496.92,-215.29 2496.57,-208.3"/>
</g>
<!-- Node30 -->
<g id="node30" class="node">
<title>Node30</title>
<g id="a_node30"><a xlink:href="../../df/d9b/vcmdexport_8cpp.html" target="_top" xlink:title=" ">
<polygon fill="white" stroke="black" points="2253.5,-67.5 2253.5,-97.5 2380.5,-97.5 2380.5,-67.5 2253.5,-67.5"/>
<text text-anchor="start" x="2261.5" y="-85.5" font-family="Helvetica,sans-Serif" font-size="10.00">src/app/seamly2d/core</text>
<text text-anchor="middle" x="2317" y="-74.5" font-family="Helvetica,sans-Serif" font-size="10.00">/vcmdexport.cpp</text>
</a>
</g>
</g>
<!-- Node11&#45;&gt;Node30 -->
<g id="edge38" class="edge">
<title>Node11&#45;&gt;Node30</title>
<path fill="none" stroke="midnightblue" d="M2407.63,-191.45C2400.96,-174.37 2390.52,-151.46 2377,-134 2366,-119.79 2350.39,-106.81 2337.85,-97.56"/>
<polygon fill="midnightblue" stroke="midnightblue" points="2404.5,-193.08 2411.28,-201.23 2411.06,-190.63 2404.5,-193.08"/>
</g>
<!-- Node12&#45;&gt;Node6 -->
<g id="edge37" class="edge">
<title>Node12&#45;&gt;Node6</title>
<path fill="none" stroke="midnightblue" d="M2003.8,-144.91C1773.41,-133.77 1071,-99.8 822.37,-87.77"/>
<polygon fill="midnightblue" stroke="midnightblue" points="2003.92,-148.42 2014.08,-145.41 2004.26,-141.43 2003.92,-148.42"/>
</g>
<!-- Node13 -->
<g id="node13" class="node">
<title>Node13</title>
<g id="a_node13"><a xlink:href="../../d9/d02/vapplication_8h.html" target="_top" xlink:title=" ">
<polygon fill="white" stroke="black" points="2014.5,-67.5 2014.5,-97.5 2141.5,-97.5 2141.5,-67.5 2014.5,-67.5"/>
<text text-anchor="start" x="2022.5" y="-85.5" font-family="Helvetica,sans-Serif" font-size="10.00">src/app/seamly2d/core</text>
<text text-anchor="middle" x="2078" y="-74.5" font-family="Helvetica,sans-Serif" font-size="10.00">/vapplication.h</text>
</a>
</g>
</g>
<!-- Node12&#45;&gt;Node13 -->
<g id="edge13" class="edge">
<title>Node12&#45;&gt;Node13</title>
<path fill="none" stroke="midnightblue" d="M2078,-124.11C2078,-115.15 2078,-105.32 2078,-97.58"/>
<polygon fill="midnightblue" stroke="midnightblue" points="2074.5,-124.4 2078,-134.4 2081.5,-124.4 2074.5,-124.4"/>
</g>
<!-- Node12&#45;&gt;Node30 -->
<g id="edge36" class="edge">
<title>Node12&#45;&gt;Node30</title>
<path fill="none" stroke="midnightblue" d="M2139.22,-131.85C2178.19,-121.25 2228.1,-107.68 2265.12,-97.61"/>
<polygon fill="midnightblue" stroke="midnightblue" points="2138.3,-128.47 2129.57,-134.48 2140.13,-135.23 2138.3,-128.47"/>
</g>
<!-- Node13&#45;&gt;Node2 -->
<g id="edge15" class="edge">
<title>Node13&#45;&gt;Node2</title>
<path fill="none" stroke="midnightblue" d="M2004.17,-81.03C1697.56,-78.86 523.59,-68.22 155,-31 152.12,-30.71 149.2,-30.38 146.24,-30.01"/>
<polygon fill="midnightblue" stroke="midnightblue" points="2004.25,-84.53 2014.28,-81.1 2004.3,-77.53 2004.25,-84.53"/>
</g>
<!-- Node13&#45;&gt;Node4 -->
<g id="edge27" class="edge">
<title>Node13&#45;&gt;Node4</title>
<path fill="none" stroke="midnightblue" d="M2003.74,-80.86C1712.94,-78.14 651.05,-65.96 316,-31 313.33,-30.72 310.62,-30.4 307.88,-30.06"/>
<polygon fill="midnightblue" stroke="midnightblue" points="2004.14,-84.37 2014.17,-80.96 2004.2,-77.37 2004.14,-84.37"/>
</g>
<!-- Node13&#45;&gt;Node7 -->
<g id="edge14" class="edge">
<title>Node13&#45;&gt;Node7</title>
<path fill="none" stroke="midnightblue" d="M2003.94,-80.84C1728.84,-78.11 765.91,-66.21 461,-31 458.21,-30.68 455.37,-30.3 452.51,-29.89"/>
<polygon fill="midnightblue" stroke="midnightblue" points="2004.17,-84.34 2014.21,-80.94 2004.24,-77.34 2004.17,-84.34"/>
</g>
<!-- Node13&#45;&gt;Node8 -->
<g id="edge32" class="edge">
<title>Node13&#45;&gt;Node8</title>
<path fill="none" stroke="midnightblue" d="M2004.18,-80.23C1748.48,-75.64 901.54,-58.67 631,-31 617.3,-29.6 602.47,-27.33 589.09,-25"/>
<polygon fill="midnightblue" stroke="midnightblue" points="2004.4,-83.74 2014.47,-80.42 2004.53,-76.74 2004.4,-83.74"/>
</g>
<!-- Node13&#45;&gt;Node9 -->
<g id="edge35" class="edge">
<title>Node13&#45;&gt;Node9</title>
<path fill="none" stroke="midnightblue" d="M2004.24,-81.05C1811.8,-79.32 1278.73,-70.98 837,-31 820.81,-29.53 803.28,-27.31 787.34,-25.04"/>
<polygon fill="midnightblue" stroke="midnightblue" points="2004.21,-84.55 2014.24,-81.13 2004.27,-77.55 2004.21,-84.55"/>
</g>
<!-- Node13&#45;&gt;Node10 -->
<g id="edge33" class="edge">
<title>Node13&#45;&gt;Node10</title>
<path fill="none" stroke="midnightblue" d="M2151.76,-74.09C2180.51,-71.45 2213.77,-68.71 2244,-67 2853.45,-32.42 3008.2,-75.66 3617,-31 3636.15,-29.6 3656.94,-27.34 3675.75,-25.03"/>
<polygon fill="midnightblue" stroke="midnightblue" points="2151.42,-70.6 2141.78,-75.01 2152.07,-77.57 2151.42,-70.6"/>
</g>
<!-- Node14 -->
<g id="node14" class="node">
<title>Node14</title>
<g id="a_node14"><a xlink:href="../../d7/dfa/calculator__dialog_8cpp.html" target="_top" xlink:title=" ">
<polygon fill="white" stroke="black" points="846.5,-0.5 846.5,-30.5 987.5,-30.5 987.5,-0.5 846.5,-0.5"/>
<text text-anchor="start" x="854.5" y="-18.5" font-family="Helvetica,sans-Serif" font-size="10.00">src/app/seamly2d/dialogs</text>
<text text-anchor="middle" x="917" y="-7.5" font-family="Helvetica,sans-Serif" font-size="10.00">/calculator_dialog.cpp</text>
</a>
</g>
</g>
<!-- Node13&#45;&gt;Node14 -->
<g id="edge16" class="edge">
<title>Node13&#45;&gt;Node14</title>
<path fill="none" stroke="midnightblue" d="M2004.2,-81.48C1828.78,-80.68 1373.35,-74.24 996,-31 993.23,-30.68 990.41,-30.33 987.56,-29.94"/>
<polygon fill="midnightblue" stroke="midnightblue" points="2004.33,-84.98 2014.34,-81.52 2004.36,-77.98 2004.33,-84.98"/>
</g>
<!-- Node15 -->
<g id="node15" class="node">
<title>Node15</title>
<g id="a_node15"><a xlink:href="../../d2/d2d/preferencesconfigurationpage_8cpp.html" target="_top" xlink:title=" ">
<polygon fill="white" stroke="black" points="1005.5,-0.5 1005.5,-30.5 1252.5,-30.5 1252.5,-0.5 1005.5,-0.5"/>
<text text-anchor="start" x="1013.5" y="-18.5" font-family="Helvetica,sans-Serif" font-size="10.00">src/app/seamly2d/dialogs</text>
<text text-anchor="middle" x="1129" y="-7.5" font-family="Helvetica,sans-Serif" font-size="10.00">/configpages/preferencesconfigurationpage.cpp</text>
</a>
</g>
</g>
<!-- Node13&#45;&gt;Node15 -->
<g id="edge17" class="edge">
<title>Node13&#45;&gt;Node15</title>
<path fill="none" stroke="midnightblue" d="M2004.03,-78.08C1860.69,-71.21 1535.18,-54.33 1262,-31 1258.88,-30.73 1255.71,-30.45 1252.52,-30.16"/>
<polygon fill="midnightblue" stroke="midnightblue" points="2004.29,-81.6 2014.44,-78.58 2004.62,-74.61 2004.29,-81.6"/>
</g>
<!-- Node16 -->
<g id="node16" class="node">
<title>Node16</title>
<g id="a_node16"><a xlink:href="../../dc/d63/preferencespatternpage_8cpp.html" target="_top" xlink:title=" ">
<polygon fill="white" stroke="black" points="1271,-0.5 1271,-30.5 1489,-30.5 1489,-0.5 1271,-0.5"/>
<text text-anchor="start" x="1279" y="-18.5" font-family="Helvetica,sans-Serif" font-size="10.00">src/app/seamly2d/dialogs</text>
<text text-anchor="middle" x="1380" y="-7.5" font-family="Helvetica,sans-Serif" font-size="10.00">/configpages/preferencespatternpage.cpp</text>
</a>
</g>
</g>
<!-- Node13&#45;&gt;Node16 -->
<g id="edge18" class="edge">
<title>Node13&#45;&gt;Node16</title>
<path fill="none" stroke="midnightblue" d="M2004.41,-75.93C1894.2,-67.4 1679.8,-50.08 1498,-31 1495.13,-30.7 1492.21,-30.39 1489.28,-30.07"/>
<polygon fill="midnightblue" stroke="midnightblue" points="2004.18,-79.43 2014.42,-76.7 2004.72,-72.45 2004.18,-79.43"/>
</g>
<!-- Node17 -->
<g id="node17" class="node">
<title>Node17</title>
<g id="a_node17"><a xlink:href="../../d9/d70/preferencesgraphicsviewpage_8cpp.html" target="_top" xlink:title=" ">
<polygon fill="white" stroke="black" points="1507,-0.5 1507,-30.5 1755,-30.5 1755,-0.5 1507,-0.5"/>
<text text-anchor="start" x="1515" y="-18.5" font-family="Helvetica,sans-Serif" font-size="10.00">src/app/seamly2d/dialogs</text>
<text text-anchor="middle" x="1631" y="-7.5" font-family="Helvetica,sans-Serif" font-size="10.00">/configpages/preferencesgraphicsviewpage.cpp</text>
</a>
</g>
</g>
<!-- Node13&#45;&gt;Node17 -->
<g id="edge19" class="edge">
<title>Node13&#45;&gt;Node17</title>
<path fill="none" stroke="midnightblue" d="M2004.51,-70.81C1928.91,-59.82 1810.77,-42.64 1727.64,-30.55"/>
<polygon fill="midnightblue" stroke="midnightblue" points="2004.03,-74.28 2014.43,-72.26 2005.04,-67.35 2004.03,-74.28"/>
</g>
<!-- Node18 -->
<g id="node18" class="node">
<title>Node18</title>
<g id="a_node18"><a xlink:href="../../dd/dc2/decimalchart__dialog_8cpp.html" target="_top" xlink:title=" ">
<polygon fill="white" stroke="black" points="1773.5,-0.5 1773.5,-30.5 1914.5,-30.5 1914.5,-0.5 1773.5,-0.5"/>
<text text-anchor="start" x="1781.5" y="-18.5" font-family="Helvetica,sans-Serif" font-size="10.00">src/app/seamly2d/dialogs</text>
<text text-anchor="middle" x="1844" y="-7.5" font-family="Helvetica,sans-Serif" font-size="10.00">/decimalchart_dialog.cpp</text>
</a>
</g>
</g>
<!-- Node13&#45;&gt;Node18 -->
<g id="edge20" class="edge">
<title>Node13&#45;&gt;Node18</title>
<path fill="none" stroke="midnightblue" d="M2017.57,-64.71C1979.49,-54.14 1930.89,-40.63 1894.8,-30.61"/>
<polygon fill="midnightblue" stroke="midnightblue" points="2016.94,-68.17 2027.51,-67.48 2018.82,-61.43 2016.94,-68.17"/>
</g>
<!-- Node19 -->
<g id="node19" class="node">
<title>Node19</title>
<g id="a_node19"><a xlink:href="../../dc/d20/preferencespathpage_8cpp.html" target="_top" xlink:title=" ">
<polygon fill="white" stroke="black" points="1932.5,-0.5 1932.5,-30.5 2137.5,-30.5 2137.5,-0.5 1932.5,-0.5"/>
<text text-anchor="start" x="1940.5" y="-18.5" font-family="Helvetica,sans-Serif" font-size="10.00">src/app/seamly2d/dialogs</text>
<text text-anchor="middle" x="2035" y="-7.5" font-family="Helvetica,sans-Serif" font-size="10.00">/configpages/preferencespathpage.cpp</text>
</a>
</g>
</g>
<!-- Node13&#45;&gt;Node19 -->
<g id="edge21" class="edge">
<title>Node13&#45;&gt;Node19</title>
<path fill="none" stroke="midnightblue" d="M2063.03,-58.87C2056.8,-49.46 2049.77,-38.83 2044.31,-30.58"/>
<polygon fill="midnightblue" stroke="midnightblue" points="2060.23,-60.99 2068.67,-67.4 2066.07,-57.12 2060.23,-60.99"/>
</g>
<!-- Node20 -->
<g id="node20" class="node">
<title>Node20</title>
<g id="a_node20"><a xlink:href="../../d2/d00/vtooloptionspropertybrowser_8cpp.html" target="_top" xlink:title=" ">
<polygon fill="white" stroke="black" points="2156,-0.5 2156,-30.5 2336,-30.5 2336,-0.5 2156,-0.5"/>
<text text-anchor="start" x="2164" y="-18.5" font-family="Helvetica,sans-Serif" font-size="10.00">src/app/seamly2d/core</text>
<text text-anchor="middle" x="2246" y="-7.5" font-family="Helvetica,sans-Serif" font-size="10.00">/vtooloptionspropertybrowser.cpp</text>
</a>
</g>
</g>
<!-- Node13&#45;&gt;Node20 -->
<g id="edge22" class="edge">
<title>Node13&#45;&gt;Node20</title>
<path fill="none" stroke="midnightblue" d="M2124.05,-63.68C2151,-53.26 2184.54,-40.28 2209.62,-30.58"/>
<polygon fill="midnightblue" stroke="midnightblue" points="2122.52,-60.52 2114.45,-67.4 2125.04,-67.05 2122.52,-60.52"/>
</g>
<!-- Node21 -->
<g id="node21" class="node">
<title>Node21</title>
<g id="a_node21"><a xlink:href="../../dd/d64/dialogaboutapp_8cpp.html" target="_top" xlink:title=" ">
<polygon fill="white" stroke="black" points="2354.5,-0.5 2354.5,-30.5 2495.5,-30.5 2495.5,-0.5 2354.5,-0.5"/>
<text text-anchor="start" x="2362.5" y="-18.5" font-family="Helvetica,sans-Serif" font-size="10.00">src/app/seamly2d/dialogs</text>
<text text-anchor="middle" x="2425" y="-7.5" font-family="Helvetica,sans-Serif" font-size="10.00">/dialogaboutapp.cpp</text>
</a>
</g>
</g>
<!-- Node13&#45;&gt;Node21 -->
<g id="edge23" class="edge">
<title>Node13&#45;&gt;Node21</title>
<path fill="none" stroke="midnightblue" d="M2151.78,-67.68C2211.58,-56.48 2295.32,-40.79 2354.29,-29.74"/>
<polygon fill="midnightblue" stroke="midnightblue" points="2150.83,-64.3 2141.65,-69.58 2152.12,-71.18 2150.83,-64.3"/>
</g>
<!-- Node22 -->
<g id="node22" class="node">
<title>Node22</title>
<g id="a_node22"><a xlink:href="../../d6/d89/dialoglayoutprogress_8cpp.html" target="_top" xlink:title=" ">
<polygon fill="white" stroke="black" points="2513.5,-0.5 2513.5,-30.5 2656.5,-30.5 2656.5,-0.5 2513.5,-0.5"/>
<text text-anchor="start" x="2521.5" y="-18.5" font-family="Helvetica,sans-Serif" font-size="10.00">src/app/seamly2d/dialogs</text>
<text text-anchor="middle" x="2585" y="-7.5" font-family="Helvetica,sans-Serif" font-size="10.00">/dialoglayoutprogress.cpp</text>
</a>
</g>
</g>
<!-- Node13&#45;&gt;Node22 -->
<g id="edge24" class="edge">
<title>Node13&#45;&gt;Node22</title>
<path fill="none" stroke="midnightblue" d="M2151.75,-74.1C2236.83,-65.24 2380.83,-49.31 2504,-31 2507.11,-30.54 2510.28,-30.05 2513.48,-29.54"/>
<polygon fill="midnightblue" stroke="midnightblue" points="2151.25,-70.63 2141.67,-75.14 2151.98,-77.59 2151.25,-70.63"/>
</g>
<!-- Node23 -->
<g id="node23" class="node">
<title>Node23</title>
<g id="a_node23"><a xlink:href="../../d5/dc5/dialogpreferences_8cpp.html" target="_top" xlink:title=" ">
<polygon fill="white" stroke="black" points="2674.5,-0.5 2674.5,-30.5 2815.5,-30.5 2815.5,-0.5 2674.5,-0.5"/>
<text text-anchor="start" x="2682.5" y="-18.5" font-family="Helvetica,sans-Serif" font-size="10.00">src/app/seamly2d/dialogs</text>
<text text-anchor="middle" x="2745" y="-7.5" font-family="Helvetica,sans-Serif" font-size="10.00">/dialogpreferences.cpp</text>
</a>
</g>
</g>
<!-- Node13&#45;&gt;Node23 -->
<g id="edge25" class="edge">
<title>Node13&#45;&gt;Node23</title>
<path fill="none" stroke="midnightblue" d="M2151.82,-75.02C2180.59,-72.51 2213.84,-69.61 2244,-67 2431.1,-50.83 2478.85,-55.77 2665,-31 2668.08,-30.59 2671.22,-30.14 2674.39,-29.67"/>
<polygon fill="midnightblue" stroke="midnightblue" points="2151.5,-71.54 2141.85,-75.9 2152.12,-78.51 2151.5,-71.54"/>
</g>
<!-- Node24 -->
<g id="node24" class="node">
<title>Node24</title>
<g id="a_node24"><a xlink:href="../../d5/d18/dialogpatternproperties_8cpp.html" target="_top" xlink:title=" ">
<polygon fill="white" stroke="black" points="2833.5,-0.5 2833.5,-30.5 2988.5,-30.5 2988.5,-0.5 2833.5,-0.5"/>
<text text-anchor="start" x="2841.5" y="-18.5" font-family="Helvetica,sans-Serif" font-size="10.00">src/app/seamly2d/dialogs</text>
<text text-anchor="middle" x="2911" y="-7.5" font-family="Helvetica,sans-Serif" font-size="10.00">/dialogpatternproperties.cpp</text>
</a>
</g>
</g>
<!-- Node13&#45;&gt;Node24 -->
<g id="edge26" class="edge">
<title>Node13&#45;&gt;Node24</title>
<path fill="none" stroke="midnightblue" d="M2151.79,-74.65C2180.56,-72.09 2213.81,-69.26 2244,-67 2501.56,-47.76 2567.39,-60.27 2824,-31 2827.04,-30.65 2830.14,-30.27 2833.27,-29.86"/>
<polygon fill="midnightblue" stroke="midnightblue" points="2151.47,-71.17 2141.82,-75.55 2152.09,-78.14 2151.47,-71.17"/>
</g>
<!-- Node13&#45;&gt;Node25 -->
<g id="edge28" class="edge">
<title>Node13&#45;&gt;Node25</title>
<path fill="none" stroke="midnightblue" d="M2151.75,-74.03C2180.51,-71.38 2213.77,-68.66 2244,-67 2959.99,-27.78 3143.5,-102.39 3857,-31 3859.7,-30.73 3862.45,-30.42 3865.22,-30.08"/>
<polygon fill="midnightblue" stroke="midnightblue" points="2151.41,-70.54 2141.78,-74.96 2152.06,-77.51 2151.41,-70.54"/>
</g>
<!-- Node26 -->
<g id="node26" class="node">
<title>Node26</title>
<g id="a_node26"><a xlink:href="../../db/d5c/groups__widget_8cpp.html" target="_top" xlink:title=" ">
<polygon fill="white" stroke="black" points="3006.5,-0.5 3006.5,-30.5 3147.5,-30.5 3147.5,-0.5 3006.5,-0.5"/>
<text text-anchor="start" x="3014.5" y="-18.5" font-family="Helvetica,sans-Serif" font-size="10.00">src/app/seamly2d/dialogs</text>
<text text-anchor="middle" x="3077" y="-7.5" font-family="Helvetica,sans-Serif" font-size="10.00">/groups_widget.cpp</text>
</a>
</g>
</g>
<!-- Node13&#45;&gt;Node26 -->
<g id="edge29" class="edge">
<title>Node13&#45;&gt;Node26</title>
<path fill="none" stroke="midnightblue" d="M2151.78,-74.43C2180.54,-71.84 2213.79,-69.04 2244,-67 2578.29,-44.42 2664.11,-68.96 2997,-31 3000.09,-30.65 3003.23,-30.25 3006.4,-29.82"/>
<polygon fill="midnightblue" stroke="midnightblue" points="2151.45,-70.94 2141.81,-75.34 2152.08,-77.92 2151.45,-70.94"/>
</g>
<!-- Node27 -->
<g id="node27" class="node">
<title>Node27</title>
<g id="a_node27"><a xlink:href="../../d2/df4/show__info__dialog_8cpp.html" target="_top" xlink:title=" ">
<polygon fill="white" stroke="black" points="3165.5,-0.5 3165.5,-30.5 3306.5,-30.5 3306.5,-0.5 3165.5,-0.5"/>
<text text-anchor="start" x="3173.5" y="-18.5" font-family="Helvetica,sans-Serif" font-size="10.00">src/app/seamly2d/dialogs</text>
<text text-anchor="middle" x="3236" y="-7.5" font-family="Helvetica,sans-Serif" font-size="10.00">/show_info_dialog.cpp</text>
</a>
</g>
</g>
<!-- Node13&#45;&gt;Node27 -->
<g id="edge30" class="edge">
<title>Node13&#45;&gt;Node27</title>
<path fill="none" stroke="midnightblue" d="M2151.77,-74.3C2180.53,-71.69 2213.78,-68.91 2244,-67 2648.84,-41.34 2752.78,-75.28 3156,-31 3159.09,-30.66 3162.23,-30.27 3165.41,-29.85"/>
<polygon fill="midnightblue" stroke="midnightblue" points="2151.44,-70.81 2141.8,-75.21 2152.07,-77.78 2151.44,-70.81"/>
</g>
<!-- Node28 -->
<g id="node28" class="node">
<title>Node28</title>
<g id="a_node28"><a xlink:href="../../dd/d84/shortcuts__dialog_8cpp.html" target="_top" xlink:title=" ">
<polygon fill="white" stroke="black" points="3324.5,-0.5 3324.5,-30.5 3465.5,-30.5 3465.5,-0.5 3324.5,-0.5"/>
<text text-anchor="start" x="3332.5" y="-18.5" font-family="Helvetica,sans-Serif" font-size="10.00">src/app/seamly2d/dialogs</text>
<text text-anchor="middle" x="3395" y="-7.5" font-family="Helvetica,sans-Serif" font-size="10.00">/shortcuts_dialog.cpp</text>
</a>
</g>
</g>
<!-- Node13&#45;&gt;Node28 -->
<g id="edge31" class="edge">
<title>Node13&#45;&gt;Node28</title>
<path fill="none" stroke="midnightblue" d="M2151.76,-74.2C2180.52,-71.58 2213.78,-68.83 2244,-67 2719.4,-38.27 2841.43,-81.6 3315,-31 3318.09,-30.67 3321.24,-30.29 3324.41,-29.87"/>
<polygon fill="midnightblue" stroke="midnightblue" points="2151.43,-70.72 2141.79,-75.12 2152.07,-77.69 2151.43,-70.72"/>
</g>
<!-- Node29 -->
<g id="node29" class="node">
<title>Node29</title>
<g id="a_node29"><a xlink:href="../../d3/d49/vpattern_8cpp.html" target="_top" xlink:title=" ">
<polygon fill="white" stroke="black" points="3483.5,-0.5 3483.5,-30.5 3608.5,-30.5 3608.5,-0.5 3483.5,-0.5"/>
<text text-anchor="start" x="3491.5" y="-18.5" font-family="Helvetica,sans-Serif" font-size="10.00">src/app/seamly2d/xml</text>
<text text-anchor="middle" x="3546" y="-7.5" font-family="Helvetica,sans-Serif" font-size="10.00">/vpattern.cpp</text>
</a>
</g>
</g>
<!-- Node13&#45;&gt;Node29 -->
<g id="edge34" class="edge">
<title>Node13&#45;&gt;Node29</title>
<path fill="none" stroke="midnightblue" d="M2151.76,-74.14C2180.52,-71.51 2213.77,-68.76 2244,-67 2789.97,-35.19 2930.65,-93.21 3474,-31 3477.04,-30.65 3480.14,-30.24 3483.27,-29.78"/>
<polygon fill="midnightblue" stroke="midnightblue" points="2151.42,-70.65 2141.79,-75.06 2152.07,-77.62 2151.42,-70.65"/>
</g>
</g>
</svg>
