<?xml version="1.0" encoding="UTF-8" standalone="no"?>
<!DOCTYPE svg PUBLIC "-//W3C//DTD SVG 1.1//EN"
 "http://www.w3.org/Graphics/SVG/1.1/DTD/svg11.dtd">
<!-- Generated by graphviz version 2.43.0 (0)
 -->
<!-- Title: src/app/seamly2d/dialogs/abstractlayout_dialog.h Pages: 1 -->
<svg width="4020pt" height="302pt"
 viewBox="0.00 0.00 4019.50 302.00" xmlns="http://www.w3.org/2000/svg" xmlns:xlink="http://www.w3.org/1999/xlink">
<g id="graph0" class="graph" transform="scale(1 1) rotate(0) translate(4 298)">
<title>src/app/seamly2d/dialogs/abstractlayout_dialog.h</title>
<!-- Node1 -->
<g id="Node000001" class="node">
<title>Node1</title>
<g id="a_Node000001"><a xlink:title=" ">
<polygon fill="#999999" stroke="#666666" points="417.5,-294 276.5,-294 276.5,-264 417.5,-264 417.5,-294"/>
<text text-anchor="start" x="284.5" y="-282" font-family="Helvetica,sans-Serif" font-size="10.00">src/app/seamly2d/dialogs</text>
<text text-anchor="middle" x="347" y="-271" font-family="Helvetica,sans-Serif" font-size="10.00">/abstractlayout_dialog.h</text>
</a>
</g>
</g>
<!-- Node2 -->
<g id="Node000002" class="node">
<title>Node2</title>
<g id="a_Node000002"><a xlink:href="../../dd/db4/abstractlayout__dialog_8cpp.html" target="_top" xlink:title=" ">
<polygon fill="white" stroke="#666666" points="146,-30 0,-30 0,0 146,0 146,-30"/>
<text text-anchor="start" x="8" y="-18" font-family="Helvetica,sans-Serif" font-size="10.00">src/app/seamly2d/dialogs</text>
<text text-anchor="middle" x="73" y="-7" font-family="Helvetica,sans-Serif" font-size="10.00">/abstractlayout_dialog.cpp</text>
</a>
</g>
</g>
<!-- Node1&#45;&gt;Node2 -->
<g id="edge1_Node000001_Node000002" class="edge">
<title>Node1&#45;&gt;Node2</title>
<g id="a_edge1_Node000001_Node000002"><a xlink:title=" ">
<path fill="none" stroke="#63b8ff" d="M311.86,-258.85C297.36,-250.24 280.76,-239.45 267,-228 188.39,-162.57 111.28,-65.99 83.67,-30.1"/>
<polygon fill="#63b8ff" stroke="#63b8ff" points="310.16,-261.91 320.57,-263.91 313.68,-255.86 310.16,-261.91"/>
</a>
</g>
</g>
<!-- Node3 -->
<g id="Node000003" class="node">
<title>Node3</title>
<g id="a_Node000003"><a xlink:href="../../d1/d8e/export__layout__dialog_8h.html" target="_top" xlink:title=" ">
<polygon fill="white" stroke="#666666" points="417.5,-228 276.5,-228 276.5,-198 417.5,-198 417.5,-228"/>
<text text-anchor="start" x="284.5" y="-216" font-family="Helvetica,sans-Serif" font-size="10.00">src/app/seamly2d/dialogs</text>
<text text-anchor="middle" x="347" y="-205" font-family="Helvetica,sans-Serif" font-size="10.00">/export_layout_dialog.h</text>
</a>
</g>
</g>
<!-- Node1&#45;&gt;Node3 -->
<g id="edge2_Node000001_Node000003" class="edge">
<title>Node1&#45;&gt;Node3</title>
<g id="a_edge2_Node000001_Node000003"><a xlink:title=" ">
<path fill="none" stroke="#63b8ff" d="M347,-253.54C347,-244.96 347,-235.61 347,-228.16"/>
<polygon fill="#63b8ff" stroke="#63b8ff" points="343.5,-253.8 347,-263.8 350.5,-253.8 343.5,-253.8"/>
</a>
</g>
</g>
<!-- Node11 -->
<g id="Node000011" class="node">
<title>Node11</title>
<g id="a_Node000011"><a xlink:href="../../d3/dd8/layoutsettings__dialog_8h.html" target="_top" xlink:title=" ">
<polygon fill="white" stroke="#666666" points="1795.5,-228 1654.5,-228 1654.5,-198 1795.5,-198 1795.5,-228"/>
<text text-anchor="start" x="1662.5" y="-216" font-family="Helvetica,sans-Serif" font-size="10.00">src/app/seamly2d/dialogs</text>
<text text-anchor="middle" x="1725" y="-205" font-family="Helvetica,sans-Serif" font-size="10.00">/layoutsettings_dialog.h</text>
</a>
</g>
</g>
<!-- Node1&#45;&gt;Node11 -->
<g id="edge11_Node000001_Node000011" class="edge">
<title>Node1&#45;&gt;Node11</title>
<g id="a_edge11_Node000001_Node000011"><a xlink:title=" ">
<path fill="none" stroke="#63b8ff" d="M427.71,-274.25C675.15,-262.76 1420.53,-228.14 1654.16,-217.29"/>
<polygon fill="#63b8ff" stroke="#63b8ff" points="427.53,-270.76 417.71,-274.72 427.86,-277.75 427.53,-270.76"/>
</a>
</g>
</g>
<!-- Node4 -->
<g id="Node000004" class="node">
<title>Node4</title>
<g id="a_Node000004"><a xlink:href="../../dd/d54/export__layout__dialog_8cpp.html" target="_top" xlink:title=" ">
<polygon fill="white" stroke="#666666" points="546.5,-30 403.5,-30 403.5,0 546.5,0 546.5,-30"/>
<text text-anchor="start" x="411.5" y="-18" font-family="Helvetica,sans-Serif" font-size="10.00">src/app/seamly2d/dialogs</text>
<text text-anchor="middle" x="475" y="-7" font-family="Helvetica,sans-Serif" font-size="10.00">/export_layout_dialog.cpp</text>
</a>
</g>
</g>
<!-- Node3&#45;&gt;Node4 -->
<g id="edge3_Node000003_Node000004" class="edge">
<title>Node3&#45;&gt;Node4</title>
<g id="a_edge3_Node000003_Node000004"><a xlink:title=" ">
<path fill="none" stroke="#63b8ff" d="M349.4,-187.96C351.83,-171.44 356.62,-149.43 366,-132 389.18,-88.93 432.41,-49.96 456.89,-30.02"/>
<polygon fill="#63b8ff" stroke="#63b8ff" points="345.93,-187.56 348.13,-197.92 352.87,-188.45 345.93,-187.56"/>
</a>
</g>
</g>
<!-- Node5 -->
<g id="Node000005" class="node">
<title>Node5</title>
<g id="a_Node000005"><a xlink:href="../../d8/de8/mainwindowsnogui_8cpp.html" target="_top" xlink:title=" ">
<polygon fill="white" stroke="#666666" points="385.5,-24.5 164.5,-24.5 164.5,-5.5 385.5,-5.5 385.5,-24.5"/>
<text text-anchor="middle" x="275" y="-12.5" font-family="Helvetica,sans-Serif" font-size="10.00">src/app/seamly2d/mainwindowsnogui.cpp</text>
</a>
</g>
</g>
<!-- Node3&#45;&gt;Node5 -->
<g id="edge4_Node000003_Node000005" class="edge">
<title>Node3&#45;&gt;Node5</title>
<g id="a_edge4_Node000003_Node000005"><a xlink:title=" ">
<path fill="none" stroke="#63b8ff" d="M338.33,-188.39C322.29,-144.74 288.7,-53.3 278.21,-24.73"/>
<polygon fill="#63b8ff" stroke="#63b8ff" points="335.09,-189.72 341.82,-197.9 341.66,-187.31 335.09,-189.72"/>
</a>
</g>
</g>
<!-- Node6 -->
<g id="Node000006" class="node">
<title>Node6</title>
<g id="a_Node000006"><a xlink:href="../../d1/d82/mainwindowsnogui_8h.html" target="_top" xlink:title=" ">
<polygon fill="white" stroke="#666666" points="584.5,-156.5 375.5,-156.5 375.5,-137.5 584.5,-137.5 584.5,-156.5"/>
<text text-anchor="middle" x="480" y="-144.5" font-family="Helvetica,sans-Serif" font-size="10.00">src/app/seamly2d/mainwindowsnogui.h</text>
</a>
</g>
</g>
<!-- Node3&#45;&gt;Node6 -->
<g id="edge5_Node000003_Node000006" class="edge">
<title>Node3&#45;&gt;Node6</title>
<g id="a_edge5_Node000003_Node000006"><a xlink:title=" ">
<path fill="none" stroke="#63b8ff" d="M385.53,-193.46C410.86,-181.27 442.8,-165.9 462.3,-156.52"/>
<polygon fill="#63b8ff" stroke="#63b8ff" points="383.68,-190.46 376.19,-197.95 386.72,-196.77 383.68,-190.46"/>
</a>
</g>
</g>
<!-- Node6&#45;&gt;Node5 -->
<g id="edge10_Node000006_Node000005" class="edge">
<title>Node6&#45;&gt;Node5</title>
<g id="a_edge10_Node000006_Node000005"><a xlink:title=" ">
<path fill="none" stroke="#63b8ff" d="M458.04,-132.07C415.54,-105.12 323.16,-46.54 288.5,-24.56"/>
<polygon fill="#63b8ff" stroke="#63b8ff" points="456.23,-135.07 466.55,-137.47 459.98,-129.16 456.23,-135.07"/>
</a>
</g>
</g>
<!-- Node7 -->
<g id="Node000007" class="node">
<title>Node7</title>
<g id="a_Node000007"><a xlink:href="../../d9/d53/mainwindow_8h.html" target="_top" xlink:title=" ">
<polygon fill="white" stroke="#666666" points="873,-90.5 697,-90.5 697,-71.5 873,-71.5 873,-90.5"/>
<text text-anchor="middle" x="785" y="-78.5" font-family="Helvetica,sans-Serif" font-size="10.00">src/app/seamly2d/mainwindow.h</text>
</a>
</g>
</g>
<!-- Node6&#45;&gt;Node7 -->
<g id="edge6_Node000006_Node000007" class="edge">
<title>Node6&#45;&gt;Node7</title>
<g id="a_edge6_Node000006_Node000007"><a xlink:title=" ">
<path fill="none" stroke="#63b8ff" d="M530.82,-135.34C590.8,-122.75 689.31,-102.08 744.42,-90.51"/>
<polygon fill="#63b8ff" stroke="#63b8ff" points="529.89,-131.96 520.82,-137.44 531.32,-138.81 529.89,-131.96"/>
</a>
</g>
</g>
<!-- Node8 -->
<g id="Node000008" class="node">
<title>Node8</title>
<g id="a_Node000008"><a xlink:href="../../d3/dd8/vapplication_8cpp.html" target="_top" xlink:title=" ">
<polygon fill="white" stroke="#666666" points="691.5,-30 564.5,-30 564.5,0 691.5,0 691.5,-30"/>
<text text-anchor="start" x="572.5" y="-18" font-family="Helvetica,sans-Serif" font-size="10.00">src/app/seamly2d/core</text>
<text text-anchor="middle" x="628" y="-7" font-family="Helvetica,sans-Serif" font-size="10.00">/vapplication.cpp</text>
</a>
</g>
</g>
<!-- Node7&#45;&gt;Node8 -->
<g id="edge7_Node000007_Node000008" class="edge">
<title>Node7&#45;&gt;Node8</title>
<g id="a_edge7_Node000007_Node000008"><a xlink:title=" ">
<path fill="none" stroke="#63b8ff" d="M754.35,-67.5C728.01,-56.77 690.06,-41.3 662.63,-30.12"/>
<polygon fill="#63b8ff" stroke="#63b8ff" points="753.24,-70.83 763.83,-71.37 755.89,-64.35 753.24,-70.83"/>
</a>
</g>
</g>
<!-- Node9 -->
<g id="Node000009" class="node">
<title>Node9</title>
<g id="a_Node000009"><a xlink:href="../../dc/d14/app_2seamly2d_2main_8cpp.html" target="_top" xlink:title=" ">
<polygon fill="white" stroke="#666666" points="860.5,-24.5 709.5,-24.5 709.5,-5.5 860.5,-5.5 860.5,-24.5"/>
<text text-anchor="middle" x="785" y="-12.5" font-family="Helvetica,sans-Serif" font-size="10.00">src/app/seamly2d/main.cpp</text>
</a>
</g>
</g>
<!-- Node7&#45;&gt;Node9 -->
<g id="edge8_Node000007_Node000009" class="edge">
<title>Node7&#45;&gt;Node9</title>
<g id="a_edge8_Node000007_Node000009"><a xlink:title=" ">
<path fill="none" stroke="#63b8ff" d="M785,-61.08C785,-49.13 785,-34.22 785,-24.91"/>
<polygon fill="#63b8ff" stroke="#63b8ff" points="781.5,-61.37 785,-71.37 788.5,-61.37 781.5,-61.37"/>
</a>
</g>
</g>
<!-- Node10 -->
<g id="Node000010" class="node">
<title>Node10</title>
<g id="a_Node000010"><a xlink:href="../../d8/dd9/mainwindow_8cpp.html" target="_top" xlink:title=" ">
<polygon fill="white" stroke="#666666" points="1067,-24.5 879,-24.5 879,-5.5 1067,-5.5 1067,-24.5"/>
<text text-anchor="middle" x="973" y="-12.5" font-family="Helvetica,sans-Serif" font-size="10.00">src/app/seamly2d/mainwindow.cpp</text>
</a>
</g>
</g>
<!-- Node7&#45;&gt;Node10 -->
<g id="edge9_Node000007_Node000010" class="edge">
<title>Node7&#45;&gt;Node10</title>
<g id="a_edge9_Node000007_Node000010"><a xlink:title=" ">
<path fill="none" stroke="#63b8ff" d="M820.25,-68C857.37,-55.36 914.91,-35.78 947.75,-24.6"/>
<polygon fill="#63b8ff" stroke="#63b8ff" points="818.69,-64.83 810.35,-71.37 820.95,-71.46 818.69,-64.83"/>
</a>
</g>
</g>
<!-- Node11&#45;&gt;Node5 -->
<g id="edge40_Node000011_Node000005" class="edge">
<title>Node11&#45;&gt;Node5</title>
<g id="a_edge40_Node000011_Node000005"><a xlink:title=" ">
<path fill="none" stroke="#63b8ff" d="M1644.18,-205.18C1469.25,-189.92 1042.69,-150.1 688,-96 549.38,-74.86 386.38,-40.43 313.54,-24.54"/>
<polygon fill="#63b8ff" stroke="#63b8ff" points="1644.07,-208.68 1654.33,-206.06 1644.67,-201.71 1644.07,-208.68"/>
</a>
</g>
</g>
<!-- Node12 -->
<g id="Node000012" class="node">
<title>Node12</title>
<g id="a_Node000012"><a xlink:href="../../df/d9b/vcmdexport_8cpp.html" target="_top" xlink:title=" ">
<polygon fill="white" stroke="#666666" points="1933.5,-96 1806.5,-96 1806.5,-66 1933.5,-66 1933.5,-96"/>
<text text-anchor="start" x="1814.5" y="-84" font-family="Helvetica,sans-Serif" font-size="10.00">src/app/seamly2d/core</text>
<text text-anchor="middle" x="1870" y="-73" font-family="Helvetica,sans-Serif" font-size="10.00">/vcmdexport.cpp</text>
</a>
</g>
</g>
<!-- Node11&#45;&gt;Node12 -->
<g id="edge12_Node000011_Node000012" class="edge">
<title>Node11&#45;&gt;Node12</title>
<g id="a_edge12_Node000011_Node000012"><a xlink:title=" ">
<path fill="none" stroke="#63b8ff" d="M1756.66,-192.25C1769.65,-183.59 1784.53,-172.91 1797,-162 1820.91,-141.07 1845.06,-112.91 1858.72,-96.19"/>
<polygon fill="#63b8ff" stroke="#63b8ff" points="1754.47,-189.5 1748.02,-197.91 1758.3,-195.36 1754.47,-189.5"/>
</a>
</g>
</g>
<!-- Node13 -->
<g id="Node000013" class="node">
<title>Node13</title>
<g id="a_Node000013"><a xlink:href="../../dd/d57/vcmdexport_8h.html" target="_top" xlink:title=" ">
<polygon fill="white" stroke="#666666" points="1788.5,-162 1661.5,-162 1661.5,-132 1788.5,-132 1788.5,-162"/>
<text text-anchor="start" x="1669.5" y="-150" font-family="Helvetica,sans-Serif" font-size="10.00">src/app/seamly2d/core</text>
<text text-anchor="middle" x="1725" y="-139" font-family="Helvetica,sans-Serif" font-size="10.00">/vcmdexport.h</text>
</a>
</g>
</g>
<!-- Node11&#45;&gt;Node13 -->
<g id="edge13_Node000011_Node000013" class="edge">
<title>Node11&#45;&gt;Node13</title>
<g id="a_edge13_Node000011_Node000013"><a xlink:title=" ">
<path fill="none" stroke="#63b8ff" d="M1725,-187.54C1725,-178.96 1725,-169.61 1725,-162.16"/>
<polygon fill="#63b8ff" stroke="#63b8ff" points="1721.5,-187.8 1725,-197.8 1728.5,-187.8 1721.5,-187.8"/>
</a>
</g>
</g>
<!-- Node27 -->
<g id="Node000027" class="node">
<title>Node27</title>
<g id="a_Node000027"><a xlink:href="../../d0/dfa/layoutsettings__dialog_8cpp.html" target="_top" xlink:title=" ">
<polygon fill="white" stroke="#666666" points="4011.5,-30 3866.5,-30 3866.5,0 4011.5,0 4011.5,-30"/>
<text text-anchor="start" x="3874.5" y="-18" font-family="Helvetica,sans-Serif" font-size="10.00">src/app/seamly2d/dialogs</text>
<text text-anchor="middle" x="3939" y="-7" font-family="Helvetica,sans-Serif" font-size="10.00">/layoutsettings_dialog.cpp</text>
</a>
</g>
</g>
<!-- Node11&#45;&gt;Node27 -->
<g id="edge39_Node000011_Node000027" class="edge">
<title>Node11&#45;&gt;Node27</title>
<g id="a_edge39_Node000011_Node000027"><a xlink:title=" ">
<path fill="none" stroke="#63b8ff" d="M1805.79,-207.56C2088.64,-191.47 3060.32,-131.83 3857,-30 3860.01,-29.62 3863.07,-29.2 3866.17,-28.76"/>
<polygon fill="#63b8ff" stroke="#63b8ff" points="1805.41,-204.07 1795.62,-208.13 1805.8,-211.06 1805.41,-204.07"/>
</a>
</g>
</g>
<!-- Node13&#45;&gt;Node7 -->
<g id="edge38_Node000013_Node000007" class="edge">
<title>Node13&#45;&gt;Node7</title>
<g id="a_edge38_Node000013_Node000007"><a xlink:title=" ">
<path fill="none" stroke="#63b8ff" d="M1651.34,-140.98C1480.37,-129.34 1057.2,-100.53 873.01,-87.99"/>
<polygon fill="#63b8ff" stroke="#63b8ff" points="1651.28,-144.49 1661.5,-141.68 1651.76,-137.51 1651.28,-144.49"/>
</a>
</g>
</g>
<!-- Node13&#45;&gt;Node12 -->
<g id="edge37_Node000013_Node000012" class="edge">
<title>Node13&#45;&gt;Node12</title>
<g id="a_edge37_Node000013_Node000012"><a xlink:title=" ">
<path fill="none" stroke="#63b8ff" d="M1766.27,-127.78C1789.13,-117.69 1817.12,-105.34 1838.25,-96.01"/>
<polygon fill="#63b8ff" stroke="#63b8ff" points="1764.56,-124.71 1756.82,-131.95 1767.38,-131.12 1764.56,-124.71"/>
</a>
</g>
</g>
<!-- Node14 -->
<g id="Node000014" class="node">
<title>Node14</title>
<g id="a_Node000014"><a xlink:href="../../d9/d02/vapplication_8h.html" target="_top" xlink:title=" ">
<polygon fill="white" stroke="#666666" points="1788.5,-96 1661.5,-96 1661.5,-66 1788.5,-66 1788.5,-96"/>
<text text-anchor="start" x="1669.5" y="-84" font-family="Helvetica,sans-Serif" font-size="10.00">src/app/seamly2d/core</text>
<text text-anchor="middle" x="1725" y="-73" font-family="Helvetica,sans-Serif" font-size="10.00">/vapplication.h</text>
</a>
</g>
</g>
<!-- Node13&#45;&gt;Node14 -->
<g id="edge14_Node000013_Node000014" class="edge">
<title>Node13&#45;&gt;Node14</title>
<g id="a_edge14_Node000013_Node000014"><a xlink:title=" ">
<path fill="none" stroke="#63b8ff" d="M1725,-121.54C1725,-112.96 1725,-103.61 1725,-96.16"/>
<polygon fill="#63b8ff" stroke="#63b8ff" points="1721.5,-121.8 1725,-131.8 1728.5,-121.8 1721.5,-121.8"/>
</a>
</g>
</g>
<!-- Node14&#45;&gt;Node2 -->
<g id="edge17_Node000014_Node000002" class="edge">
<title>Node14&#45;&gt;Node2</title>
<g id="a_edge17_Node000014_Node000002"><a xlink:title=" ">
<path fill="none" stroke="#63b8ff" d="M1651.3,-79C1381.91,-75.12 450.85,-59.82 155,-30 152.13,-29.71 149.2,-29.38 146.25,-29.02"/>
<polygon fill="#63b8ff" stroke="#63b8ff" points="1651.32,-82.5 1661.36,-79.14 1651.42,-75.5 1651.32,-82.5"/>
</a>
</g>
</g>
<!-- Node14&#45;&gt;Node4 -->
<g id="edge28_Node000014_Node000004" class="edge">
<title>Node14&#45;&gt;Node4</title>
<g id="a_edge28_Node000014_Node000004"><a xlink:title=" ">
<path fill="none" stroke="#63b8ff" d="M1651.21,-80.18C1466.16,-79.92 967.62,-74.73 555,-30 552.34,-29.71 549.63,-29.39 546.9,-29.04"/>
<polygon fill="#63b8ff" stroke="#63b8ff" points="1651.36,-83.68 1661.37,-80.19 1651.37,-76.68 1651.36,-83.68"/>
</a>
</g>
</g>
<!-- Node14&#45;&gt;Node5 -->
<g id="edge35_Node000014_Node000005" class="edge">
<title>Node14&#45;&gt;Node5</title>
<g id="a_edge35_Node000014_Node000005"><a xlink:title=" ">
<path fill="none" stroke="#63b8ff" d="M1650.99,-79.28C1449.12,-76.88 872.14,-67.05 394,-30 376.27,-28.63 357.11,-26.61 339.45,-24.53"/>
<polygon fill="#63b8ff" stroke="#63b8ff" points="1651.13,-82.79 1661.17,-79.4 1651.21,-75.79 1651.13,-82.79"/>
</a>
</g>
</g>
<!-- Node14&#45;&gt;Node8 -->
<g id="edge15_Node000014_Node000008" class="edge">
<title>Node14&#45;&gt;Node8</title>
<g id="a_edge15_Node000014_Node000008"><a xlink:title=" ">
<path fill="none" stroke="#63b8ff" d="M1651.44,-80.02C1482.63,-79.27 1054.68,-72.91 700,-30 697.22,-29.66 694.38,-29.28 691.52,-28.86"/>
<polygon fill="#63b8ff" stroke="#63b8ff" points="1651.44,-83.52 1661.46,-80.06 1651.47,-76.52 1651.44,-83.52"/>
</a>
</g>
</g>
<!-- Node14&#45;&gt;Node9 -->
<g id="edge33_Node000014_Node000009" class="edge">
<title>Node14&#45;&gt;Node9</title>
<g id="a_edge33_Node000014_Node000009"><a xlink:title=" ">
<path fill="none" stroke="#63b8ff" d="M1650.9,-78.28C1502.36,-74.26 1157.73,-62.02 870,-30 857.37,-28.59 843.75,-26.58 831.2,-24.51"/>
<polygon fill="#63b8ff" stroke="#63b8ff" points="1651.17,-81.79 1661.26,-78.56 1651.35,-74.79 1651.17,-81.79"/>
</a>
</g>
</g>
<!-- Node14&#45;&gt;Node10 -->
<g id="edge34_Node000014_Node000010" class="edge">
<title>Node14&#45;&gt;Node10</title>
<g id="a_edge34_Node000014_Node000010"><a xlink:title=" ">
<path fill="none" stroke="#63b8ff" d="M1651.11,-75.71C1530.52,-68.4 1284.01,-52.13 1076,-30 1061.46,-28.45 1045.82,-26.48 1031.21,-24.51"/>
<polygon fill="#63b8ff" stroke="#63b8ff" points="1651.13,-79.22 1661.32,-76.33 1651.55,-72.23 1651.13,-79.22"/>
</a>
</g>
</g>
<!-- Node15 -->
<g id="Node000015" class="node">
<title>Node15</title>
<g id="a_Node000015"><a xlink:href="../../d2/d00/vtooloptionspropertybrowser_8cpp.html" target="_top" xlink:title=" ">
<polygon fill="white" stroke="#666666" points="2697,-30 2517,-30 2517,0 2697,0 2697,-30"/>
<text text-anchor="start" x="2525" y="-18" font-family="Helvetica,sans-Serif" font-size="10.00">src/app/seamly2d/core</text>
<text text-anchor="middle" x="2607" y="-7" font-family="Helvetica,sans-Serif" font-size="10.00">/vtooloptionspropertybrowser.cpp</text>
</a>
</g>
</g>
<!-- Node14&#45;&gt;Node15 -->
<g id="edge16_Node000014_Node000015" class="edge">
<title>Node14&#45;&gt;Node15</title>
<g id="a_edge16_Node000014_Node000015"><a xlink:title=" ">
<path fill="none" stroke="#63b8ff" d="M1798.82,-65.9C2112.42,-28.44 2195.84,-59.61 2507,-30 2510.23,-29.69 2513.51,-29.36 2516.83,-29"/>
<polygon fill="#63b8ff" stroke="#63b8ff" points="1798.03,-62.47 1788.53,-67.14 1798.87,-69.42 1798.03,-62.47"/>
</a>
</g>
</g>
<!-- Node16 -->
<g id="Node000016" class="node">
<title>Node16</title>
<g id="a_Node000016"><a xlink:href="../../d7/dfa/calculator__dialog_8cpp.html" target="_top" xlink:title=" ">
<polygon fill="white" stroke="#666666" points="2856.5,-30 2715.5,-30 2715.5,0 2856.5,0 2856.5,-30"/>
<text text-anchor="start" x="2723.5" y="-18" font-family="Helvetica,sans-Serif" font-size="10.00">src/app/seamly2d/dialogs</text>
<text text-anchor="middle" x="2786" y="-7" font-family="Helvetica,sans-Serif" font-size="10.00">/calculator_dialog.cpp</text>
</a>
</g>
</g>
<!-- Node14&#45;&gt;Node16 -->
<g id="edge18_Node000014_Node000016" class="edge">
<title>Node14&#45;&gt;Node16</title>
<g id="a_edge18_Node000014_Node000016"><a xlink:title=" ">
<path fill="none" stroke="#63b8ff" d="M1798.67,-65.93C2200.38,-20.16 2307.31,-72.59 2706,-30 2709.08,-29.67 2712.23,-29.29 2715.4,-28.88"/>
<polygon fill="#63b8ff" stroke="#63b8ff" points="1798.05,-62.48 1788.52,-67.1 1798.86,-69.44 1798.05,-62.48"/>
</a>
</g>
</g>
<!-- Node17 -->
<g id="Node000017" class="node">
<title>Node17</title>
<g id="a_Node000017"><a xlink:href="../../d2/d2d/preferencesconfigurationpage_8cpp.html" target="_top" xlink:title=" ">
<polygon fill="white" stroke="#666666" points="3121.5,-30 2874.5,-30 2874.5,0 3121.5,0 3121.5,-30"/>
<text text-anchor="start" x="2882.5" y="-18" font-family="Helvetica,sans-Serif" font-size="10.00">src/app/seamly2d/dialogs</text>
<text text-anchor="middle" x="2998" y="-7" font-family="Helvetica,sans-Serif" font-size="10.00">/configpages/preferencesconfigurationpage.cpp</text>
</a>
</g>
</g>
<!-- Node14&#45;&gt;Node17 -->
<g id="edge19_Node000014_Node000017" class="edge">
<title>Node14&#45;&gt;Node17</title>
<g id="a_edge19_Node000014_Node000017"><a xlink:title=" ">
<path fill="none" stroke="#63b8ff" d="M1798.67,-65.94C2270.66,-13.22 2394.56,-62.65 2865,-30 2868.13,-29.78 2871.29,-29.55 2874.49,-29.3"/>
<polygon fill="#63b8ff" stroke="#63b8ff" points="1798.06,-62.49 1788.52,-67.08 1798.85,-69.44 1798.06,-62.49"/>
</a>
</g>
</g>
<!-- Node18 -->
<g id="Node000018" class="node">
<title>Node18</title>
<g id="a_Node000018"><a xlink:href="../../d9/d70/preferencesgraphicsviewpage_8cpp.html" target="_top" xlink:title=" ">
<polygon fill="white" stroke="#666666" points="3388,-30 3140,-30 3140,0 3388,0 3388,-30"/>
<text text-anchor="start" x="3148" y="-18" font-family="Helvetica,sans-Serif" font-size="10.00">src/app/seamly2d/dialogs</text>
<text text-anchor="middle" x="3264" y="-7" font-family="Helvetica,sans-Serif" font-size="10.00">/configpages/preferencesgraphicsviewpage.cpp</text>
</a>
</g>
</g>
<!-- Node14&#45;&gt;Node18 -->
<g id="edge20_Node000014_Node000018" class="edge">
<title>Node14&#45;&gt;Node18</title>
<g id="a_edge20_Node000014_Node000018"><a xlink:title=" ">
<path fill="none" stroke="#63b8ff" d="M1798.55,-65.96C2388.28,-1.94 2542.51,-68.85 3131,-30 3133.9,-29.81 3136.83,-29.6 3139.78,-29.38"/>
<polygon fill="#63b8ff" stroke="#63b8ff" points="1798.08,-62.49 1788.52,-67.06 1798.84,-69.45 1798.08,-62.49"/>
</a>
</g>
</g>
<!-- Node19 -->
<g id="Node000019" class="node">
<title>Node19</title>
<g id="a_Node000019"><a xlink:href="../../dc/d20/preferencespathpage_8cpp.html" target="_top" xlink:title=" ">
<polygon fill="white" stroke="#666666" points="3611.5,-30 3406.5,-30 3406.5,0 3611.5,0 3611.5,-30"/>
<text text-anchor="start" x="3414.5" y="-18" font-family="Helvetica,sans-Serif" font-size="10.00">src/app/seamly2d/dialogs</text>
<text text-anchor="middle" x="3509" y="-7" font-family="Helvetica,sans-Serif" font-size="10.00">/configpages/preferencespathpage.cpp</text>
</a>
</g>
</g>
<!-- Node14&#45;&gt;Node19 -->
<g id="edge21_Node000014_Node000019" class="edge">
<title>Node14&#45;&gt;Node19</title>
<g id="a_edge21_Node000014_Node000019"><a xlink:title=" ">
<path fill="none" stroke="#63b8ff" d="M1798.7,-65.95C2505.96,9.28 2691,-81.93 3397,-30 3400.03,-29.78 3403.1,-29.53 3406.2,-29.26"/>
<polygon fill="#63b8ff" stroke="#63b8ff" points="1798.08,-62.5 1788.51,-67.04 1798.83,-69.46 1798.08,-62.5"/>
</a>
</g>
</g>
<!-- Node20 -->
<g id="Node000020" class="node">
<title>Node20</title>
<g id="a_Node000020"><a xlink:href="../../dc/d63/preferencespatternpage_8cpp.html" target="_top" xlink:title=" ">
<polygon fill="white" stroke="#666666" points="3848,-30 3630,-30 3630,0 3848,0 3848,-30"/>
<text text-anchor="start" x="3638" y="-18" font-family="Helvetica,sans-Serif" font-size="10.00">src/app/seamly2d/dialogs</text>
<text text-anchor="middle" x="3739" y="-7" font-family="Helvetica,sans-Serif" font-size="10.00">/configpages/preferencespatternpage.cpp</text>
</a>
</g>
</g>
<!-- Node14&#45;&gt;Node20 -->
<g id="edge22_Node000014_Node000020" class="edge">
<title>Node14&#45;&gt;Node20</title>
<g id="a_edge22_Node000014_Node000020"><a xlink:title=" ">
<path fill="none" stroke="#63b8ff" d="M1798.63,-65.96C2605.03,18.83 2815.46,-85.6 3621,-30 3623.88,-29.8 3626.8,-29.58 3629.74,-29.35"/>
<polygon fill="#63b8ff" stroke="#63b8ff" points="1798.09,-62.5 1788.51,-67.03 1798.83,-69.46 1798.09,-62.5"/>
</a>
</g>
</g>
<!-- Node21 -->
<g id="Node000021" class="node">
<title>Node21</title>
<g id="a_Node000021"><a xlink:href="../../dd/dc2/decimalchart__dialog_8cpp.html" target="_top" xlink:title=" ">
<polygon fill="white" stroke="#666666" points="1226.5,-30 1085.5,-30 1085.5,0 1226.5,0 1226.5,-30"/>
<text text-anchor="start" x="1093.5" y="-18" font-family="Helvetica,sans-Serif" font-size="10.00">src/app/seamly2d/dialogs</text>
<text text-anchor="middle" x="1156" y="-7" font-family="Helvetica,sans-Serif" font-size="10.00">/decimalchart_dialog.cpp</text>
</a>
</g>
</g>
<!-- Node14&#45;&gt;Node21 -->
<g id="edge23_Node000014_Node000021" class="edge">
<title>Node14&#45;&gt;Node21</title>
<g id="a_edge23_Node000014_Node000021"><a xlink:title=" ">
<path fill="none" stroke="#63b8ff" d="M1651.2,-74.18C1555.12,-66.2 1382.09,-50.51 1235,-30 1232.24,-29.62 1229.43,-29.21 1226.59,-28.78"/>
<polygon fill="#63b8ff" stroke="#63b8ff" points="1651.14,-77.68 1661.39,-75.02 1651.71,-70.71 1651.14,-77.68"/>
</a>
</g>
</g>
<!-- Node22 -->
<g id="Node000022" class="node">
<title>Node22</title>
<g id="a_Node000022"><a xlink:href="../../dd/d64/dialogaboutapp_8cpp.html" target="_top" xlink:title=" ">
<polygon fill="white" stroke="#666666" points="1385.5,-30 1244.5,-30 1244.5,0 1385.5,0 1385.5,-30"/>
<text text-anchor="start" x="1252.5" y="-18" font-family="Helvetica,sans-Serif" font-size="10.00">src/app/seamly2d/dialogs</text>
<text text-anchor="middle" x="1315" y="-7" font-family="Helvetica,sans-Serif" font-size="10.00">/dialogaboutapp.cpp</text>
</a>
</g>
</g>
<!-- Node14&#45;&gt;Node22 -->
<g id="edge24_Node000014_Node000022" class="edge">
<title>Node14&#45;&gt;Node22</title>
<g id="a_edge24_Node000014_Node000022"><a xlink:title=" ">
<path fill="none" stroke="#63b8ff" d="M1651.41,-69.43C1584.28,-59.66 1482.37,-44.5 1394,-30 1391.25,-29.55 1388.45,-29.08 1385.62,-28.61"/>
<polygon fill="#63b8ff" stroke="#63b8ff" points="1651.07,-72.92 1661.47,-70.89 1652.08,-65.99 1651.07,-72.92"/>
</a>
</g>
</g>
<!-- Node23 -->
<g id="Node000023" class="node">
<title>Node23</title>
<g id="a_Node000023"><a xlink:href="../../d6/d89/dialoglayoutprogress_8cpp.html" target="_top" xlink:title=" ">
<polygon fill="white" stroke="#666666" points="1546.5,-30 1403.5,-30 1403.5,0 1546.5,0 1546.5,-30"/>
<text text-anchor="start" x="1411.5" y="-18" font-family="Helvetica,sans-Serif" font-size="10.00">src/app/seamly2d/dialogs</text>
<text text-anchor="middle" x="1475" y="-7" font-family="Helvetica,sans-Serif" font-size="10.00">/dialoglayoutprogress.cpp</text>
</a>
</g>
</g>
<!-- Node14&#45;&gt;Node23 -->
<g id="edge25_Node000014_Node000023" class="edge">
<title>Node14&#45;&gt;Node23</title>
<g id="a_edge25_Node000014_Node000023"><a xlink:title=" ">
<path fill="none" stroke="#63b8ff" d="M1660.36,-63.45C1619.85,-53.08 1568.21,-39.86 1529.74,-30.01"/>
<polygon fill="#63b8ff" stroke="#63b8ff" points="1659.58,-66.87 1670.14,-65.95 1661.32,-60.08 1659.58,-66.87"/>
</a>
</g>
</g>
<!-- Node24 -->
<g id="Node000024" class="node">
<title>Node24</title>
<g id="a_Node000024"><a xlink:href="../../d5/d18/dialogpatternproperties_8cpp.html" target="_top" xlink:title=" ">
<polygon fill="white" stroke="#666666" points="1719.5,-30 1564.5,-30 1564.5,0 1719.5,0 1719.5,-30"/>
<text text-anchor="start" x="1572.5" y="-18" font-family="Helvetica,sans-Serif" font-size="10.00">src/app/seamly2d/dialogs</text>
<text text-anchor="middle" x="1642" y="-7" font-family="Helvetica,sans-Serif" font-size="10.00">/dialogpatternproperties.cpp</text>
</a>
</g>
</g>
<!-- Node14&#45;&gt;Node24 -->
<g id="edge26_Node000014_Node000024" class="edge">
<title>Node14&#45;&gt;Node24</title>
<g id="a_edge26_Node000014_Node000024"><a xlink:title=" ">
<path fill="none" stroke="#63b8ff" d="M1698.39,-59.48C1685.98,-49.91 1671.53,-38.77 1660.37,-30.16"/>
<polygon fill="#63b8ff" stroke="#63b8ff" points="1696.52,-62.46 1706.58,-65.8 1700.8,-56.92 1696.52,-62.46"/>
</a>
</g>
</g>
<!-- Node25 -->
<g id="Node000025" class="node">
<title>Node25</title>
<g id="a_Node000025"><a xlink:href="../../d5/dc5/dialogpreferences_8cpp.html" target="_top" xlink:title=" ">
<polygon fill="white" stroke="#666666" points="1878.5,-30 1737.5,-30 1737.5,0 1878.5,0 1878.5,-30"/>
<text text-anchor="start" x="1745.5" y="-18" font-family="Helvetica,sans-Serif" font-size="10.00">src/app/seamly2d/dialogs</text>
<text text-anchor="middle" x="1808" y="-7" font-family="Helvetica,sans-Serif" font-size="10.00">/dialogpreferences.cpp</text>
</a>
</g>
</g>
<!-- Node14&#45;&gt;Node25 -->
<g id="edge27_Node000014_Node000025" class="edge">
<title>Node14&#45;&gt;Node25</title>
<g id="a_edge27_Node000014_Node000025"><a xlink:title=" ">
<path fill="none" stroke="#63b8ff" d="M1751.61,-59.48C1764.02,-49.91 1778.47,-38.77 1789.63,-30.16"/>
<polygon fill="#63b8ff" stroke="#63b8ff" points="1749.2,-56.92 1743.42,-65.8 1753.48,-62.46 1749.2,-56.92"/>
</a>
</g>
</g>
<!-- Node26 -->
<g id="Node000026" class="node">
<title>Node26</title>
<g id="a_Node000026"><a xlink:href="../../db/d5c/groups__widget_8cpp.html" target="_top" xlink:title=" ">
<polygon fill="white" stroke="#666666" points="2037.5,-30 1896.5,-30 1896.5,0 2037.5,0 2037.5,-30"/>
<text text-anchor="start" x="1904.5" y="-18" font-family="Helvetica,sans-Serif" font-size="10.00">src/app/seamly2d/dialogs</text>
<text text-anchor="middle" x="1967" y="-7" font-family="Helvetica,sans-Serif" font-size="10.00">/groups_widget.cpp</text>
</a>
</g>
</g>
<!-- Node14&#45;&gt;Node26 -->
<g id="edge29_Node000014_Node000026" class="edge">
<title>Node14&#45;&gt;Node26</title>
<g id="a_edge29_Node000014_Node000026"><a xlink:title=" ">
<path fill="none" stroke="#63b8ff" d="M1787.82,-63.39C1827,-53.03 1876.85,-39.84 1914.02,-30.01"/>
<polygon fill="#63b8ff" stroke="#63b8ff" points="1786.88,-60.01 1778.11,-65.95 1788.67,-66.78 1786.88,-60.01"/>
</a>
</g>
</g>
<!-- Node14&#45;&gt;Node27 -->
<g id="edge30_Node000014_Node000027" class="edge">
<title>Node14&#45;&gt;Node27</title>
<g id="a_edge30_Node000014_Node000027"><a xlink:title=" ">
<path fill="none" stroke="#63b8ff" d="M1798.58,-65.97C2709.42,28.69 2948.63,-114.99 3857,-30 3860.02,-29.72 3863.1,-29.39 3866.2,-29.02"/>
<polygon fill="#63b8ff" stroke="#63b8ff" points="1798.09,-62.51 1788.51,-67.03 1798.82,-69.47 1798.09,-62.51"/>
</a>
</g>
</g>
<!-- Node28 -->
<g id="Node000028" class="node">
<title>Node28</title>
<g id="a_Node000028"><a xlink:href="../../dd/d84/shortcuts__dialog_8cpp.html" target="_top" xlink:title=" ">
<polygon fill="white" stroke="#666666" points="2196.5,-30 2055.5,-30 2055.5,0 2196.5,0 2196.5,-30"/>
<text text-anchor="start" x="2063.5" y="-18" font-family="Helvetica,sans-Serif" font-size="10.00">src/app/seamly2d/dialogs</text>
<text text-anchor="middle" x="2126" y="-7" font-family="Helvetica,sans-Serif" font-size="10.00">/shortcuts_dialog.cpp</text>
</a>
</g>
</g>
<!-- Node14&#45;&gt;Node28 -->
<g id="edge31_Node000014_Node000028" class="edge">
<title>Node14&#45;&gt;Node28</title>
<g id="a_edge31_Node000014_Node000028"><a xlink:title=" ">
<path fill="none" stroke="#63b8ff" d="M1798.44,-65.8C1908.92,-47.33 1938.71,-47.14 2046,-30 2049.06,-29.51 2052.19,-29 2055.35,-28.48"/>
<polygon fill="#63b8ff" stroke="#63b8ff" points="1797.85,-62.35 1788.57,-67.47 1799.02,-69.26 1797.85,-62.35"/>
</a>
</g>
</g>
<!-- Node29 -->
<g id="Node000029" class="node">
<title>Node29</title>
<g id="a_Node000029"><a xlink:href="../../d2/df4/show__info__dialog_8cpp.html" target="_top" xlink:title=" ">
<polygon fill="white" stroke="#666666" points="2355.5,-30 2214.5,-30 2214.5,0 2355.5,0 2355.5,-30"/>
<text text-anchor="start" x="2222.5" y="-18" font-family="Helvetica,sans-Serif" font-size="10.00">src/app/seamly2d/dialogs</text>
<text text-anchor="middle" x="2285" y="-7" font-family="Helvetica,sans-Serif" font-size="10.00">/show_info_dialog.cpp</text>
</a>
</g>
</g>
<!-- Node14&#45;&gt;Node29 -->
<g id="edge32_Node000014_Node000029" class="edge">
<title>Node14&#45;&gt;Node29</title>
<g id="a_edge32_Node000014_Node000029"><a xlink:title=" ">
<path fill="none" stroke="#63b8ff" d="M1798.63,-65.86C1979.01,-41.05 2027.77,-53.28 2205,-30 2208.08,-29.6 2211.21,-29.16 2214.38,-28.69"/>
<polygon fill="#63b8ff" stroke="#63b8ff" points="1797.96,-62.42 1788.54,-67.27 1798.93,-69.36 1797.96,-62.42"/>
</a>
</g>
</g>
<!-- Node30 -->
<g id="Node000030" class="node">
<title>Node30</title>
<g id="a_Node000030"><a xlink:href="../../d3/d49/vpattern_8cpp.html" target="_top" xlink:title=" ">
<polygon fill="white" stroke="#666666" points="2498.5,-30 2373.5,-30 2373.5,0 2498.5,0 2498.5,-30"/>
<text text-anchor="start" x="2381.5" y="-18" font-family="Helvetica,sans-Serif" font-size="10.00">src/app/seamly2d/xml</text>
<text text-anchor="middle" x="2436" y="-7" font-family="Helvetica,sans-Serif" font-size="10.00">/vpattern.cpp</text>
</a>
</g>
</g>
<!-- Node14&#45;&gt;Node30 -->
<g id="edge36_Node000014_Node000030" class="edge">
<title>Node14&#45;&gt;Node30</title>
<g id="a_edge36_Node000014_Node000030"><a xlink:title=" ">
<path fill="none" stroke="#63b8ff" d="M1798.67,-65.9C2049.23,-34.57 2116.85,-61.74 2364,-30 2367.03,-29.61 2370.13,-29.17 2373.25,-28.69"/>
<polygon fill="#63b8ff" stroke="#63b8ff" points="1798.01,-62.46 1788.53,-67.19 1798.89,-69.4 1798.01,-62.46"/>
</a>
</g>
</g>
</g>
</svg>
