<?xml version="1.0" encoding="UTF-8" standalone="no"?>
<!DOCTYPE svg PUBLIC "-//W3C//DTD SVG 1.1//EN"
 "http://www.w3.org/Graphics/SVG/1.1/DTD/svg11.dtd">
<!-- Generated by graphviz version 2.43.0 (0)
 -->
<!-- Title: VAbstractApplication Pages: 1 -->
<svg width="446pt" height="1022pt"
 viewBox="0.00 0.00 445.50 1022.00" xmlns="http://www.w3.org/2000/svg" xmlns:xlink="http://www.w3.org/1999/xlink">
<g id="graph0" class="graph" transform="scale(1 1) rotate(0) translate(4 1018)">
<title>VAbstractApplication</title>
<!-- Node1 -->
<g id="Node000001" class="node">
<title>Node1</title>
<g id="a_Node000001"><a xlink:title=" ">
<polygon fill="#999999" stroke="transparent" points="310,-929 171,-929 171,-475 310,-475 310,-929"/>
<text text-anchor="start" x="190" y="-917" font-family="Helvetica,sans-Serif" font-size="10.00">VAbstractApplication</text>
<text text-anchor="start" x="175.5" y="-902" font-family="Helvetica,sans-Serif" font-size="10.00">#</text>
<text text-anchor="start" x="188.5" y="-902" font-family="Helvetica,sans-Serif" font-size="10.00">undoStack</text>
<text text-anchor="start" x="175.5" y="-887" font-family="Helvetica,sans-Serif" font-size="10.00">#</text>
<text text-anchor="start" x="188.5" y="-887" font-family="Helvetica,sans-Serif" font-size="10.00">mainWindow</text>
<text text-anchor="start" x="175.5" y="-872" font-family="Helvetica,sans-Serif" font-size="10.00">#</text>
<text text-anchor="start" x="188.5" y="-872" font-family="Helvetica,sans-Serif" font-size="10.00">settings</text>
<text text-anchor="start" x="175.5" y="-857" font-family="Helvetica,sans-Serif" font-size="10.00">#</text>
<text text-anchor="start" x="188.5" y="-857" font-family="Helvetica,sans-Serif" font-size="10.00">qtTranslator</text>
<text text-anchor="start" x="175.5" y="-842" font-family="Helvetica,sans-Serif" font-size="10.00">#</text>
<text text-anchor="start" x="188.5" y="-842" font-family="Helvetica,sans-Serif" font-size="10.00">qtxmlTranslator</text>
<text text-anchor="start" x="175.5" y="-827" font-family="Helvetica,sans-Serif" font-size="10.00">#</text>
<text text-anchor="start" x="188.5" y="-827" font-family="Helvetica,sans-Serif" font-size="10.00">qtBaseTranslator</text>
<text text-anchor="start" x="175.5" y="-812" font-family="Helvetica,sans-Serif" font-size="10.00">#</text>
<text text-anchor="start" x="188.5" y="-812" font-family="Helvetica,sans-Serif" font-size="10.00">appTranslator</text>
<text text-anchor="start" x="175.5" y="-797" font-family="Helvetica,sans-Serif" font-size="10.00">#</text>
<text text-anchor="start" x="188.5" y="-797" font-family="Helvetica,sans-Serif" font-size="10.00">pmsTranslator</text>
<text text-anchor="start" x="178" y="-782" font-family="Helvetica,sans-Serif" font-size="10.00">&#45;</text>
<text text-anchor="start" x="188.5" y="-782" font-family="Helvetica,sans-Serif" font-size="10.00">_patternUnit</text>
<text text-anchor="start" x="178" y="-767" font-family="Helvetica,sans-Serif" font-size="10.00">&#45;</text>
<text text-anchor="start" x="188.5" y="-767" font-family="Helvetica,sans-Serif" font-size="10.00">_patternType</text>
<text text-anchor="start" x="178" y="-752" font-family="Helvetica,sans-Serif" font-size="10.00">&#45;</text>
<text text-anchor="start" x="188.5" y="-752" font-family="Helvetica,sans-Serif" font-size="10.00">patternFilePath</text>
<text text-anchor="start" x="178" y="-737" font-family="Helvetica,sans-Serif" font-size="10.00">&#45;</text>
<text text-anchor="start" x="188.5" y="-737" font-family="Helvetica,sans-Serif" font-size="10.00">currentScene</text>
<text text-anchor="start" x="178" y="-722" font-family="Helvetica,sans-Serif" font-size="10.00">&#45;</text>
<text text-anchor="start" x="188.5" y="-722" font-family="Helvetica,sans-Serif" font-size="10.00">sceneView</text>
<text text-anchor="start" x="178" y="-707" font-family="Helvetica,sans-Serif" font-size="10.00">&#45;</text>
<text text-anchor="start" x="188.5" y="-707" font-family="Helvetica,sans-Serif" font-size="10.00">doc</text>
<text text-anchor="start" x="178" y="-692" font-family="Helvetica,sans-Serif" font-size="10.00">&#45;</text>
<text text-anchor="start" x="188.5" y="-692" font-family="Helvetica,sans-Serif" font-size="10.00">data</text>
<text text-anchor="start" x="178" y="-677" font-family="Helvetica,sans-Serif" font-size="10.00">&#45;</text>
<text text-anchor="start" x="188.5" y="-677" font-family="Helvetica,sans-Serif" font-size="10.00">openingPattern</text>
<text text-anchor="start" x="175.5" y="-662" font-family="Helvetica,sans-Serif" font-size="10.00">+</text>
<text text-anchor="start" x="188.5" y="-662" font-family="Helvetica,sans-Serif" font-size="10.00">VAbstractApplication()</text>
<text text-anchor="start" x="175.5" y="-647" font-family="Helvetica,sans-Serif" font-size="10.00">+</text>
<text text-anchor="start" x="188.5" y="-647" font-family="Helvetica,sans-Serif" font-size="10.00">~VAbstractApplication()</text>
<text text-anchor="start" x="175.5" y="-632" font-family="Helvetica,sans-Serif" font-size="10.00">+</text>
<text text-anchor="start" x="188.5" y="-632" font-family="Helvetica,sans-Serif" font-size="10.00">TrVars()</text>
<text text-anchor="start" x="175.5" y="-617" font-family="Helvetica,sans-Serif" font-size="10.00">+</text>
<text text-anchor="start" x="188.5" y="-617" font-family="Helvetica,sans-Serif" font-size="10.00">translationsPath()</text>
<text text-anchor="start" x="175.5" y="-602" font-family="Helvetica,sans-Serif" font-size="10.00">+</text>
<text text-anchor="start" x="188.5" y="-602" font-family="Helvetica,sans-Serif" font-size="10.00">loadTranslations()</text>
<text text-anchor="start" x="175.5" y="-587" font-family="Helvetica,sans-Serif" font-size="10.00">+</text>
<text text-anchor="start" x="188.5" y="-587" font-family="Helvetica,sans-Serif" font-size="10.00">patternUnit()</text>
<text text-anchor="start" x="175.5" y="-572" font-family="Helvetica,sans-Serif" font-size="10.00">+</text>
<text text-anchor="start" x="188.5" y="-572" font-family="Helvetica,sans-Serif" font-size="10.00">patternUnitP()</text>
<text text-anchor="start" x="175.5" y="-557" font-family="Helvetica,sans-Serif" font-size="10.00">+</text>
<text text-anchor="start" x="188.5" y="-557" font-family="Helvetica,sans-Serif" font-size="10.00">setPatternUnit()</text>
<text text-anchor="start" x="175.5" y="-542" font-family="Helvetica,sans-Serif" font-size="10.00">+</text>
<text text-anchor="start" x="188.5" y="-542" font-family="Helvetica,sans-Serif" font-size="10.00">patternType()</text>
<text text-anchor="start" x="175.5" y="-527" font-family="Helvetica,sans-Serif" font-size="10.00">+</text>
<text text-anchor="start" x="188.5" y="-527" font-family="Helvetica,sans-Serif" font-size="10.00">setPatternType()</text>
<text text-anchor="start" x="188.5" y="-512" font-family="Helvetica,sans-Serif" font-size="10.00">and 21 more...</text>
<text text-anchor="start" x="175.5" y="-497" font-family="Helvetica,sans-Serif" font-size="10.00">#</text>
<text text-anchor="start" x="188.5" y="-497" font-family="Helvetica,sans-Serif" font-size="10.00">InitTrVars()</text>
<text text-anchor="start" x="178" y="-482" font-family="Helvetica,sans-Serif" font-size="10.00">&#45;</text>
<text text-anchor="start" x="188.5" y="-482" font-family="Helvetica,sans-Serif" font-size="10.00">ClearTranslation()</text>
<polygon fill="#666666" stroke="#666666" points="171.5,-912 171.5,-912 310.5,-912 310.5,-912 171.5,-912"/>
<polygon fill="#666666" stroke="#666666" points="171.5,-672 171.5,-672 186.5,-672 186.5,-672 171.5,-672"/>
<polygon fill="#666666" stroke="#666666" points="186.5,-672 186.5,-672 310.5,-672 310.5,-672 186.5,-672"/>
<polygon fill="none" stroke="#666666" points="171,-475 171,-929 310,-929 310,-475 171,-475"/>
</a>
</g>
</g>
<!-- Node3 -->
<g id="Node000003" class="node">
<title>Node3</title>
<g id="a_Node000003"><a xlink:href="../../da/d04/classMApplication.html" target="_top" xlink:title=" ">
<polygon fill="white" stroke="transparent" points="163,-386.5 0,-386.5 0,-52.5 163,-52.5 163,-386.5"/>
<text text-anchor="start" x="50" y="-374.5" font-family="Helvetica,sans-Serif" font-size="10.00">MApplication</text>
<text text-anchor="start" x="7" y="-359.5" font-family="Helvetica,sans-Serif" font-size="10.00">&#45;</text>
<text text-anchor="start" x="17.5" y="-359.5" font-family="Helvetica,sans-Serif" font-size="10.00">mainWindows</text>
<text text-anchor="start" x="7" y="-344.5" font-family="Helvetica,sans-Serif" font-size="10.00">&#45;</text>
<text text-anchor="start" x="17.5" y="-344.5" font-family="Helvetica,sans-Serif" font-size="10.00">localServer</text>
<text text-anchor="start" x="7" y="-329.5" font-family="Helvetica,sans-Serif" font-size="10.00">&#45;</text>
<text text-anchor="start" x="17.5" y="-329.5" font-family="Helvetica,sans-Serif" font-size="10.00">trVars</text>
<text text-anchor="start" x="7" y="-314.5" font-family="Helvetica,sans-Serif" font-size="10.00">&#45;</text>
<text text-anchor="start" x="17.5" y="-314.5" font-family="Helvetica,sans-Serif" font-size="10.00">dataBase</text>
<text text-anchor="start" x="7" y="-299.5" font-family="Helvetica,sans-Serif" font-size="10.00">&#45;</text>
<text text-anchor="start" x="17.5" y="-299.5" font-family="Helvetica,sans-Serif" font-size="10.00">testMode</text>
<text text-anchor="start" x="4.5" y="-284.5" font-family="Helvetica,sans-Serif" font-size="10.00">+</text>
<text text-anchor="start" x="17.5" y="-284.5" font-family="Helvetica,sans-Serif" font-size="10.00">MApplication()</text>
<text text-anchor="start" x="4.5" y="-269.5" font-family="Helvetica,sans-Serif" font-size="10.00">+</text>
<text text-anchor="start" x="17.5" y="-269.5" font-family="Helvetica,sans-Serif" font-size="10.00">~MApplication()</text>
<text text-anchor="start" x="4.5" y="-254.5" font-family="Helvetica,sans-Serif" font-size="10.00">+</text>
<text text-anchor="start" x="17.5" y="-254.5" font-family="Helvetica,sans-Serif" font-size="10.00">notify()</text>
<text text-anchor="start" x="4.5" y="-239.5" font-family="Helvetica,sans-Serif" font-size="10.00">+</text>
<text text-anchor="start" x="17.5" y="-239.5" font-family="Helvetica,sans-Serif" font-size="10.00">IsTestMode()</text>
<text text-anchor="start" x="4.5" y="-224.5" font-family="Helvetica,sans-Serif" font-size="10.00">+</text>
<text text-anchor="start" x="17.5" y="-224.5" font-family="Helvetica,sans-Serif" font-size="10.00">IsAppInGUIMode()</text>
<text text-anchor="start" x="4.5" y="-209.5" font-family="Helvetica,sans-Serif" font-size="10.00">+</text>
<text text-anchor="start" x="17.5" y="-209.5" font-family="Helvetica,sans-Serif" font-size="10.00">MainWindow()</text>
<text text-anchor="start" x="4.5" y="-194.5" font-family="Helvetica,sans-Serif" font-size="10.00">+</text>
<text text-anchor="start" x="17.5" y="-194.5" font-family="Helvetica,sans-Serif" font-size="10.00">MainWindows()</text>
<text text-anchor="start" x="4.5" y="-179.5" font-family="Helvetica,sans-Serif" font-size="10.00">+</text>
<text text-anchor="start" x="17.5" y="-179.5" font-family="Helvetica,sans-Serif" font-size="10.00">NewMainWindow()</text>
<text text-anchor="start" x="4.5" y="-164.5" font-family="Helvetica,sans-Serif" font-size="10.00">+</text>
<text text-anchor="start" x="17.5" y="-164.5" font-family="Helvetica,sans-Serif" font-size="10.00">InitOptions()</text>
<text text-anchor="start" x="4.5" y="-149.5" font-family="Helvetica,sans-Serif" font-size="10.00">+</text>
<text text-anchor="start" x="17.5" y="-149.5" font-family="Helvetica,sans-Serif" font-size="10.00">TrVars()</text>
<text text-anchor="start" x="17.5" y="-134.5" font-family="Helvetica,sans-Serif" font-size="10.00">and 6 more...</text>
<text text-anchor="start" x="4.5" y="-119.5" font-family="Helvetica,sans-Serif" font-size="10.00">+</text>
<text text-anchor="start" x="17.5" y="-119.5" font-family="Helvetica,sans-Serif" font-size="10.00">processCommandLine()</text>
<text text-anchor="start" x="4.5" y="-104.5" font-family="Helvetica,sans-Serif" font-size="10.00">#</text>
<text text-anchor="start" x="17.5" y="-104.5" font-family="Helvetica,sans-Serif" font-size="10.00">InitTrVars()</text>
<text text-anchor="start" x="4.5" y="-89.5" font-family="Helvetica,sans-Serif" font-size="10.00">#</text>
<text text-anchor="start" x="17.5" y="-89.5" font-family="Helvetica,sans-Serif" font-size="10.00">event()</text>
<text text-anchor="start" x="7" y="-74.5" font-family="Helvetica,sans-Serif" font-size="10.00">&#45;</text>
<text text-anchor="start" x="17.5" y="-74.5" font-family="Helvetica,sans-Serif" font-size="10.00">Clean()</text>
<text text-anchor="start" x="7" y="-59.5" font-family="Helvetica,sans-Serif" font-size="10.00">&#45;</text>
<text text-anchor="start" x="17.5" y="-59.5" font-family="Helvetica,sans-Serif" font-size="10.00">NewLocalSocketConnection()</text>
<polygon fill="#666666" stroke="#666666" points="0.5,-369.5 0.5,-369.5 163.5,-369.5 163.5,-369.5 0.5,-369.5"/>
<polygon fill="#666666" stroke="#666666" points="0.5,-294.5 0.5,-294.5 15.5,-294.5 15.5,-294.5 0.5,-294.5"/>
<polygon fill="#666666" stroke="#666666" points="15.5,-294.5 15.5,-294.5 163.5,-294.5 163.5,-294.5 15.5,-294.5"/>
<polygon fill="none" stroke="#666666" points="0,-52.5 0,-386.5 163,-386.5 163,-52.5 0,-52.5"/>
</a>
</g>
</g>
<!-- Node1&#45;&gt;Node3 -->
<g id="edge2_Node000001_Node000003" class="edge">
<title>Node1&#45;&gt;Node3</title>
<g id="a_edge2_Node000001_Node000003"><a xlink:title=" ">
<path fill="none" stroke="#63b8ff" d="M167.74,-481.12C157.25,-449.42 146.6,-417.24 136.53,-386.81"/>
<polygon fill="none" stroke="#63b8ff" points="164.53,-482.55 170.99,-490.94 171.17,-480.35 164.53,-482.55"/>
</a>
</g>
</g>
<!-- Node4 -->
<g id="Node000004" class="node">
<title>Node4</title>
<g id="a_Node000004"><a xlink:href="../../d2/df0/classTestVApplication.html" target="_top" xlink:title=" ">
<polygon fill="white" stroke="transparent" points="299.5,-281.5 181.5,-281.5 181.5,-157.5 299.5,-157.5 299.5,-281.5"/>
<text text-anchor="start" x="200" y="-269.5" font-family="Helvetica,sans-Serif" font-size="10.00">TestVApplication</text>
<text text-anchor="start" x="238.5" y="-254.5" font-family="Helvetica,sans-Serif" font-size="10.00"> </text>
<text text-anchor="start" x="185.5" y="-239.5" font-family="Helvetica,sans-Serif" font-size="10.00">+</text>
<text text-anchor="start" x="198.5" y="-239.5" font-family="Helvetica,sans-Serif" font-size="10.00">TestVApplication()</text>
<text text-anchor="start" x="185.5" y="-224.5" font-family="Helvetica,sans-Serif" font-size="10.00">+</text>
<text text-anchor="start" x="198.5" y="-224.5" font-family="Helvetica,sans-Serif" font-size="10.00">~TestVApplication()</text>
<text text-anchor="start" x="185.5" y="-209.5" font-family="Helvetica,sans-Serif" font-size="10.00">+</text>
<text text-anchor="start" x="198.5" y="-209.5" font-family="Helvetica,sans-Serif" font-size="10.00">TrVars()</text>
<text text-anchor="start" x="185.5" y="-194.5" font-family="Helvetica,sans-Serif" font-size="10.00">+</text>
<text text-anchor="start" x="198.5" y="-194.5" font-family="Helvetica,sans-Serif" font-size="10.00">OpenSettings()</text>
<text text-anchor="start" x="185.5" y="-179.5" font-family="Helvetica,sans-Serif" font-size="10.00">+</text>
<text text-anchor="start" x="198.5" y="-179.5" font-family="Helvetica,sans-Serif" font-size="10.00">IsAppInGUIMode()</text>
<text text-anchor="start" x="185.5" y="-164.5" font-family="Helvetica,sans-Serif" font-size="10.00">+</text>
<text text-anchor="start" x="198.5" y="-164.5" font-family="Helvetica,sans-Serif" font-size="10.00">InitTrVars()</text>
<polygon fill="#666666" stroke="#666666" points="181.5,-264.5 181.5,-264.5 299.5,-264.5 299.5,-264.5 181.5,-264.5"/>
<polygon fill="#666666" stroke="#666666" points="181.5,-249.5 181.5,-249.5 299.5,-249.5 299.5,-249.5 181.5,-249.5"/>
<polygon fill="none" stroke="#666666" points="181.5,-157.5 181.5,-281.5 299.5,-281.5 299.5,-157.5 181.5,-157.5"/>
</a>
</g>
</g>
<!-- Node1&#45;&gt;Node4 -->
<g id="edge3_Node000001_Node000004" class="edge">
<title>Node1&#45;&gt;Node4</title>
<g id="a_edge3_Node000001_Node000004"><a xlink:title=" ">
<path fill="none" stroke="#63b8ff" d="M240.5,-464.82C240.5,-396.98 240.5,-328.71 240.5,-281.65"/>
<polygon fill="none" stroke="#63b8ff" points="237,-464.82 240.5,-474.82 244,-464.82 237,-464.82"/>
</a>
</g>
</g>
<!-- Node5 -->
<g id="Node000005" class="node">
<title>Node5</title>
<g id="a_Node000005"><a xlink:href="../../d1/d58/classVApplication.html" target="_top" xlink:title="The VApplication class reimplamentation QApplication class.">
<polygon fill="white" stroke="transparent" points="437.5,-439 317.5,-439 317.5,0 437.5,0 437.5,-439"/>
<text text-anchor="start" x="347" y="-426.5" font-family="Helvetica,sans-Serif" font-size="10.00">VApplication</text>
<text text-anchor="start" x="324" y="-411.5" font-family="Helvetica,sans-Serif" font-size="10.00">&#45;</text>
<text text-anchor="start" x="334.5" y="-411.5" font-family="Helvetica,sans-Serif" font-size="10.00">trVars</text>
<text text-anchor="start" x="324" y="-396.5" font-family="Helvetica,sans-Serif" font-size="10.00">&#45;</text>
<text text-anchor="start" x="334.5" y="-396.5" font-family="Helvetica,sans-Serif" font-size="10.00">autoSaveTimer</text>
<text text-anchor="start" x="324" y="-381.5" font-family="Helvetica,sans-Serif" font-size="10.00">&#45;</text>
<text text-anchor="start" x="334.5" y="-381.5" font-family="Helvetica,sans-Serif" font-size="10.00">lockLog</text>
<text text-anchor="start" x="324" y="-366.5" font-family="Helvetica,sans-Serif" font-size="10.00">&#45;</text>
<text text-anchor="start" x="334.5" y="-366.5" font-family="Helvetica,sans-Serif" font-size="10.00">out</text>
<text text-anchor="start" x="321.5" y="-351.5" font-family="Helvetica,sans-Serif" font-size="10.00">+</text>
<text text-anchor="start" x="334.5" y="-351.5" font-family="Helvetica,sans-Serif" font-size="10.00">VApplication()</text>
<text text-anchor="start" x="321.5" y="-336.5" font-family="Helvetica,sans-Serif" font-size="10.00">+</text>
<text text-anchor="start" x="334.5" y="-336.5" font-family="Helvetica,sans-Serif" font-size="10.00">~VApplication()</text>
<text text-anchor="start" x="321.5" y="-321.5" font-family="Helvetica,sans-Serif" font-size="10.00">+</text>
<text text-anchor="start" x="334.5" y="-321.5" font-family="Helvetica,sans-Serif" font-size="10.00">notify()</text>
<text text-anchor="start" x="321.5" y="-306.5" font-family="Helvetica,sans-Serif" font-size="10.00">+</text>
<text text-anchor="start" x="334.5" y="-306.5" font-family="Helvetica,sans-Serif" font-size="10.00">InitOptions()</text>
<text text-anchor="start" x="321.5" y="-291.5" font-family="Helvetica,sans-Serif" font-size="10.00">+</text>
<text text-anchor="start" x="334.5" y="-291.5" font-family="Helvetica,sans-Serif" font-size="10.00">SeamlyMeFilePath()</text>
<text text-anchor="start" x="321.5" y="-276.5" font-family="Helvetica,sans-Serif" font-size="10.00">+</text>
<text text-anchor="start" x="334.5" y="-276.5" font-family="Helvetica,sans-Serif" font-size="10.00">getAutoSaveTimer()</text>
<text text-anchor="start" x="321.5" y="-261.5" font-family="Helvetica,sans-Serif" font-size="10.00">+</text>
<text text-anchor="start" x="334.5" y="-261.5" font-family="Helvetica,sans-Serif" font-size="10.00">setAutoSaveTimer()</text>
<text text-anchor="start" x="321.5" y="-246.5" font-family="Helvetica,sans-Serif" font-size="10.00">+</text>
<text text-anchor="start" x="334.5" y="-246.5" font-family="Helvetica,sans-Serif" font-size="10.00">StartLogging()</text>
<text text-anchor="start" x="321.5" y="-231.5" font-family="Helvetica,sans-Serif" font-size="10.00">+</text>
<text text-anchor="start" x="334.5" y="-231.5" font-family="Helvetica,sans-Serif" font-size="10.00">LogFile()</text>
<text text-anchor="start" x="321.5" y="-216.5" font-family="Helvetica,sans-Serif" font-size="10.00">+</text>
<text text-anchor="start" x="334.5" y="-216.5" font-family="Helvetica,sans-Serif" font-size="10.00">TrVars()</text>
<text text-anchor="start" x="321.5" y="-201.5" font-family="Helvetica,sans-Serif" font-size="10.00">+</text>
<text text-anchor="start" x="334.5" y="-201.5" font-family="Helvetica,sans-Serif" font-size="10.00">IsAppInGUIMode()</text>
<text text-anchor="start" x="321.5" y="-186.5" font-family="Helvetica,sans-Serif" font-size="10.00">+</text>
<text text-anchor="start" x="334.5" y="-186.5" font-family="Helvetica,sans-Serif" font-size="10.00">OpenSettings()</text>
<text text-anchor="start" x="321.5" y="-171.5" font-family="Helvetica,sans-Serif" font-size="10.00">+</text>
<text text-anchor="start" x="334.5" y="-171.5" font-family="Helvetica,sans-Serif" font-size="10.00">Seamly2DSettings()</text>
<text text-anchor="start" x="321.5" y="-156.5" font-family="Helvetica,sans-Serif" font-size="10.00">+</text>
<text text-anchor="start" x="334.5" y="-156.5" font-family="Helvetica,sans-Serif" font-size="10.00">CommandLine()</text>
<text text-anchor="start" x="321.5" y="-141.5" font-family="Helvetica,sans-Serif" font-size="10.00">+</text>
<text text-anchor="start" x="334.5" y="-141.5" font-family="Helvetica,sans-Serif" font-size="10.00">NewSeamly2D()</text>
<text text-anchor="start" x="321.5" y="-126.5" font-family="Helvetica,sans-Serif" font-size="10.00">+</text>
<text text-anchor="start" x="334.5" y="-126.5" font-family="Helvetica,sans-Serif" font-size="10.00">LabelLanguages()</text>
<text text-anchor="start" x="321.5" y="-111.5" font-family="Helvetica,sans-Serif" font-size="10.00">+</text>
<text text-anchor="start" x="334.5" y="-111.5" font-family="Helvetica,sans-Serif" font-size="10.00">IsGUIMode()</text>
<text text-anchor="start" x="321.5" y="-96.5" font-family="Helvetica,sans-Serif" font-size="10.00">#</text>
<text text-anchor="start" x="334.5" y="-96.5" font-family="Helvetica,sans-Serif" font-size="10.00">InitTrVars()</text>
<text text-anchor="start" x="321.5" y="-81.5" font-family="Helvetica,sans-Serif" font-size="10.00">#</text>
<text text-anchor="start" x="334.5" y="-81.5" font-family="Helvetica,sans-Serif" font-size="10.00">event()</text>
<text text-anchor="start" x="324" y="-66.5" font-family="Helvetica,sans-Serif" font-size="10.00">&#45;</text>
<text text-anchor="start" x="334.5" y="-66.5" font-family="Helvetica,sans-Serif" font-size="10.00">LogDirPath()</text>
<text text-anchor="start" x="324" y="-51.5" font-family="Helvetica,sans-Serif" font-size="10.00">&#45;</text>
<text text-anchor="start" x="334.5" y="-51.5" font-family="Helvetica,sans-Serif" font-size="10.00">LogPath()</text>
<text text-anchor="start" x="324" y="-36.5" font-family="Helvetica,sans-Serif" font-size="10.00">&#45;</text>
<text text-anchor="start" x="334.5" y="-36.5" font-family="Helvetica,sans-Serif" font-size="10.00">CreateLogDir()</text>
<text text-anchor="start" x="324" y="-21.5" font-family="Helvetica,sans-Serif" font-size="10.00">&#45;</text>
<text text-anchor="start" x="334.5" y="-21.5" font-family="Helvetica,sans-Serif" font-size="10.00">BeginLogging()</text>
<text text-anchor="start" x="324" y="-6.5" font-family="Helvetica,sans-Serif" font-size="10.00">&#45;</text>
<text text-anchor="start" x="334.5" y="-6.5" font-family="Helvetica,sans-Serif" font-size="10.00">ClearOldLogs()</text>
<polygon fill="#666666" stroke="#666666" points="317.5,-421.5 317.5,-421.5 437.5,-421.5 437.5,-421.5 317.5,-421.5"/>
<polygon fill="#666666" stroke="#666666" points="317.5,-361.5 317.5,-361.5 332.5,-361.5 332.5,-361.5 317.5,-361.5"/>
<polygon fill="#666666" stroke="#666666" points="332.5,-361.5 332.5,-361.5 437.5,-361.5 437.5,-361.5 332.5,-361.5"/>
<polygon fill="none" stroke="#666666" points="317.5,0 317.5,-439 437.5,-439 437.5,0 317.5,0"/>
</a>
</g>
</g>
<!-- Node1&#45;&gt;Node5 -->
<g id="edge4_Node000001_Node000005" class="edge">
<title>Node1&#45;&gt;Node5</title>
<g id="a_edge4_Node000001_Node000005"><a xlink:title=" ">
<path fill="none" stroke="#63b8ff" d="M307.82,-464.89C311.05,-453.57 314.27,-442.25 317.48,-431.01"/>
<polygon fill="none" stroke="#63b8ff" points="304.36,-464.24 304.99,-474.82 311.1,-466.16 304.36,-464.24"/>
</a>
</g>
</g>
<!-- Node2 -->
<g id="Node000002" class="node">
<title>Node2</title>
<g id="a_Node000002"><a xlink:title=" ">
<polygon fill="white" stroke="transparent" points="277,-1014 204,-1014 204,-965 277,-965 277,-1014"/>
<text text-anchor="start" x="209.5" y="-1001.5" font-family="Helvetica,sans-Serif" font-size="10.00">QApplication</text>
<text text-anchor="start" x="239" y="-986.5" font-family="Helvetica,sans-Serif" font-size="10.00"> </text>
<text text-anchor="start" x="239" y="-971.5" font-family="Helvetica,sans-Serif" font-size="10.00"> </text>
<polygon fill="#666666" stroke="#666666" points="204.5,-996.5 204.5,-996.5 277.5,-996.5 277.5,-996.5 204.5,-996.5"/>
<polygon fill="#666666" stroke="#666666" points="204.5,-981.5 204.5,-981.5 277.5,-981.5 277.5,-981.5 204.5,-981.5"/>
<polygon fill="none" stroke="#666666" points="204,-965 204,-1014 277,-1014 277,-965 204,-965"/>
</a>
</g>
</g>
<!-- Node2&#45;&gt;Node1 -->
<g id="edge1_Node000001_Node000002" class="edge">
<title>Node2&#45;&gt;Node1</title>
<g id="a_edge1_Node000001_Node000002"><a xlink:title=" ">
<path fill="none" stroke="#63b8ff" d="M240.5,-954.65C240.5,-947.08 240.5,-938.51 240.5,-929.2"/>
<polygon fill="none" stroke="#63b8ff" points="237,-954.65 240.5,-964.65 244,-954.65 237,-954.65"/>
</a>
</g>
</g>
</g>
</svg>
