<?xml version="1.0" encoding="UTF-8" standalone="no"?>
<!DOCTYPE svg PUBLIC "-//W3C//DTD SVG 1.1//EN"
 "http://www.w3.org/Graphics/SVG/1.1/DTD/svg11.dtd">
<!-- Generated by graphviz version 2.43.0 (0)
 -->
<!-- Title: src/libs/ifc/ifcdef.cpp Pages: 1 -->
<svg width="1507pt" height="247pt"
 viewBox="0.00 0.00 1507.00 247.00" xmlns="http://www.w3.org/2000/svg" xmlns:xlink="http://www.w3.org/1999/xlink">
<g id="graph0" class="graph" transform="scale(1 1) rotate(0) translate(4 243)">
<title>src/libs/ifc/ifcdef.cpp</title>
<!-- Node1 -->
<g id="Node000001" class="node">
<title>Node1</title>
<g id="a_Node000001"><a xlink:title=" ">
<polygon fill="#999999" stroke="#666666" points="1064.5,-239 948.5,-239 948.5,-220 1064.5,-220 1064.5,-239"/>
<text text-anchor="middle" x="1006.5" y="-227" font-family="Helvetica,sans-Serif" font-size="10.00">src/libs/ifc/ifcdef.cpp</text>
</a>
</g>
</g>
<!-- Node2 -->
<g id="Node000002" class="node">
<title>Node2</title>
<g id="a_Node000002"><a xlink:href="../../d3/da5/ifcdef_8h.html" target="_top" xlink:title=" ">
<polygon fill="white" stroke="#666666" points="700,-184 647,-184 647,-165 700,-165 700,-184"/>
<text text-anchor="middle" x="673.5" y="-172" font-family="Helvetica,sans-Serif" font-size="10.00">ifcdef.h</text>
</a>
</g>
</g>
<!-- Node1&#45;&gt;Node2 -->
<g id="edge1_Node000001_Node000002" class="edge">
<title>Node1&#45;&gt;Node2</title>
<g id="a_edge1_Node000001_Node000002"><a xlink:title=" ">
<path fill="none" stroke="#63b8ff" d="M953,-219.98C884.84,-209.14 768.84,-190.67 710.02,-181.31"/>
<polygon fill="#63b8ff" stroke="#63b8ff" points="710.49,-177.84 700.07,-179.73 709.39,-184.76 710.49,-177.84"/>
</a>
</g>
</g>
<!-- Node15 -->
<g id="Node000015" class="node">
<title>Node15</title>
<g id="a_Node000015"><a xlink:href="../../d6/dcd/diagnostic_8h.html" target="_top" xlink:title=" ">
<polygon fill="white" stroke="#666666" points="838,-129 721,-129 721,-110 838,-110 838,-129"/>
<text text-anchor="middle" x="779.5" y="-117" font-family="Helvetica,sans-Serif" font-size="10.00">../vmisc/diagnostic.h</text>
</a>
</g>
</g>
<!-- Node1&#45;&gt;Node15 -->
<g id="edge28_Node000001_Node000015" class="edge">
<title>Node1&#45;&gt;Node15</title>
<g id="a_edge28_Node000001_Node000015"><a xlink:title=" ">
<path fill="none" stroke="#63b8ff" d="M948.47,-225.69C886.56,-221.33 794.42,-210.48 772.5,-184 762.13,-171.47 765.94,-152.46 771.08,-138.51"/>
<polygon fill="#63b8ff" stroke="#63b8ff" points="774.42,-139.59 775.06,-129.01 767.97,-136.88 774.42,-139.59"/>
</a>
</g>
</g>
<!-- Node16 -->
<g id="Node000016" class="node">
<title>Node16</title>
<g id="a_Node000016"><a xlink:title=" ">
<polygon fill="#e0e0e0" stroke="#999999" points="833.5,-184 781.5,-184 781.5,-165 833.5,-165 833.5,-184"/>
<text text-anchor="middle" x="807.5" y="-172" font-family="Helvetica,sans-Serif" font-size="10.00">QBrush</text>
</a>
</g>
</g>
<!-- Node1&#45;&gt;Node16 -->
<g id="edge19_Node000001_Node000016" class="edge">
<title>Node1&#45;&gt;Node16</title>
<g id="a_edge19_Node000001_Node000016"><a xlink:title=" ">
<path fill="none" stroke="#63b8ff" d="M974.53,-219.98C938.78,-210.46 881,-195.08 843.64,-185.12"/>
<polygon fill="#63b8ff" stroke="#63b8ff" points="844.24,-181.66 833.68,-182.47 842.44,-188.43 844.24,-181.66"/>
</a>
</g>
</g>
<!-- Node17 -->
<g id="Node000017" class="node">
<title>Node17</title>
<g id="a_Node000017"><a xlink:title=" ">
<polygon fill="#e0e0e0" stroke="#999999" points="895.5,-184 851.5,-184 851.5,-165 895.5,-165 895.5,-184"/>
<text text-anchor="middle" x="873.5" y="-172" font-family="Helvetica,sans-Serif" font-size="10.00">QIcon</text>
</a>
</g>
</g>
<!-- Node1&#45;&gt;Node17 -->
<g id="edge20_Node000001_Node000017" class="edge">
<title>Node1&#45;&gt;Node17</title>
<g id="a_edge20_Node000001_Node000017"><a xlink:title=" ">
<path fill="none" stroke="#63b8ff" d="M985.13,-219.98C963.35,-211.3 929.34,-197.75 904.58,-187.88"/>
<polygon fill="#63b8ff" stroke="#63b8ff" points="905.84,-184.62 895.26,-184.17 903.25,-191.12 905.84,-184.62"/>
</a>
</g>
</g>
<!-- Node18 -->
<g id="Node000018" class="node">
<title>Node18</title>
<g id="a_Node000018"><a xlink:title=" ">
<polygon fill="#e0e0e0" stroke="#999999" points="959,-184 914,-184 914,-165 959,-165 959,-184"/>
<text text-anchor="middle" x="936.5" y="-172" font-family="Helvetica,sans-Serif" font-size="10.00">QMap</text>
</a>
</g>
</g>
<!-- Node1&#45;&gt;Node18 -->
<g id="edge21_Node000001_Node000018" class="edge">
<title>Node1&#45;&gt;Node18</title>
<g id="a_edge21_Node000001_Node000018"><a xlink:title=" ">
<path fill="none" stroke="#63b8ff" d="M995.25,-219.98C984.7,-212 968.7,-199.88 956.06,-190.31"/>
<polygon fill="#63b8ff" stroke="#63b8ff" points="958.04,-187.42 947.95,-184.17 953.81,-193 958.04,-187.42"/>
</a>
</g>
</g>
<!-- Node19 -->
<g id="Node000019" class="node">
<title>Node19</title>
<g id="a_Node000019"><a xlink:title=" ">
<polygon fill="#e0e0e0" stroke="#999999" points="1035.5,-184 977.5,-184 977.5,-165 1035.5,-165 1035.5,-184"/>
<text text-anchor="middle" x="1006.5" y="-172" font-family="Helvetica,sans-Serif" font-size="10.00">QPainter</text>
</a>
</g>
</g>
<!-- Node1&#45;&gt;Node19 -->
<g id="edge22_Node000001_Node000019" class="edge">
<title>Node1&#45;&gt;Node19</title>
<g id="a_edge22_Node000001_Node000019"><a xlink:title=" ">
<path fill="none" stroke="#63b8ff" d="M1006.5,-219.75C1006.5,-212.8 1006.5,-202.85 1006.5,-194.13"/>
<polygon fill="#63b8ff" stroke="#63b8ff" points="1010,-194.09 1006.5,-184.09 1003,-194.09 1010,-194.09"/>
</a>
</g>
</g>
<!-- Node20 -->
<g id="Node000020" class="node">
<title>Node20</title>
<g id="a_Node000020"><a xlink:title=" ">
<polygon fill="#e0e0e0" stroke="#999999" points="1095.5,-184 1053.5,-184 1053.5,-165 1095.5,-165 1095.5,-184"/>
<text text-anchor="middle" x="1074.5" y="-172" font-family="Helvetica,sans-Serif" font-size="10.00">QPen</text>
</a>
</g>
</g>
<!-- Node1&#45;&gt;Node20 -->
<g id="edge23_Node000001_Node000020" class="edge">
<title>Node1&#45;&gt;Node20</title>
<g id="a_edge23_Node000001_Node000020"><a xlink:title=" ">
<path fill="none" stroke="#63b8ff" d="M1017.43,-219.98C1027.58,-212.07 1042.92,-200.11 1055.15,-190.58"/>
<polygon fill="#63b8ff" stroke="#63b8ff" points="1057.64,-193.08 1063.38,-184.17 1053.34,-187.56 1057.64,-193.08"/>
</a>
</g>
</g>
<!-- Node21 -->
<g id="Node000021" class="node">
<title>Node21</title>
<g id="a_Node000021"><a xlink:title=" ">
<polygon fill="#e0e0e0" stroke="#999999" points="1175,-184 1114,-184 1114,-165 1175,-165 1175,-184"/>
<text text-anchor="middle" x="1144.5" y="-172" font-family="Helvetica,sans-Serif" font-size="10.00">QPixmap</text>
</a>
</g>
</g>
<!-- Node1&#45;&gt;Node21 -->
<g id="edge24_Node000001_Node000021" class="edge">
<title>Node1&#45;&gt;Node21</title>
<g id="a_edge24_Node000001_Node000021"><a xlink:title=" ">
<path fill="none" stroke="#63b8ff" d="M1028.67,-219.98C1051.27,-211.3 1086.56,-197.75 1112.25,-187.88"/>
<polygon fill="#63b8ff" stroke="#63b8ff" points="1113.84,-191.02 1121.92,-184.17 1111.33,-184.49 1113.84,-191.02"/>
</a>
</g>
</g>
<!-- Node22 -->
<g id="Node000022" class="node">
<title>Node22</title>
<g id="a_Node000022"><a xlink:title=" ">
<polygon fill="#e0e0e0" stroke="#999999" points="1297.5,-184 1193.5,-184 1193.5,-165 1297.5,-165 1297.5,-184"/>
<text text-anchor="middle" x="1245.5" y="-172" font-family="Helvetica,sans-Serif" font-size="10.00">QStaticStringData</text>
</a>
</g>
</g>
<!-- Node1&#45;&gt;Node22 -->
<g id="edge25_Node000001_Node000022" class="edge">
<title>Node1&#45;&gt;Node22</title>
<g id="a_edge25_Node000001_Node000022"><a xlink:title=" ">
<path fill="none" stroke="#63b8ff" d="M1044.9,-219.98C1086.24,-210.82 1152.1,-196.21 1196.99,-186.26"/>
<polygon fill="#63b8ff" stroke="#63b8ff" points="1197.79,-189.66 1206.8,-184.08 1196.28,-182.83 1197.79,-189.66"/>
</a>
</g>
</g>
<!-- Node23 -->
<g id="Node000023" class="node">
<title>Node23</title>
<g id="a_Node000023"><a xlink:title=" ">
<polygon fill="#e0e0e0" stroke="#999999" points="1391.5,-184 1315.5,-184 1315.5,-165 1391.5,-165 1391.5,-184"/>
<text text-anchor="middle" x="1353.5" y="-172" font-family="Helvetica,sans-Serif" font-size="10.00">QStringData</text>
</a>
</g>
</g>
<!-- Node1&#45;&gt;Node23 -->
<g id="edge26_Node000001_Node000023" class="edge">
<title>Node1&#45;&gt;Node23</title>
<g id="a_edge26_Node000001_Node000023"><a xlink:title=" ">
<path fill="none" stroke="#63b8ff" d="M1064.66,-220.43C1122.97,-212.21 1215.6,-198.82 1305.23,-184.17"/>
<polygon fill="#63b8ff" stroke="#63b8ff" points="1306,-187.59 1315.3,-182.51 1304.86,-180.68 1306,-187.59"/>
</a>
</g>
</g>
<!-- Node24 -->
<g id="Node000024" class="node">
<title>Node24</title>
<g id="a_Node000024"><a xlink:title=" ">
<polygon fill="#e0e0e0" stroke="#999999" points="1499,-184 1410,-184 1410,-165 1499,-165 1499,-184"/>
<text text-anchor="middle" x="1454.5" y="-172" font-family="Helvetica,sans-Serif" font-size="10.00">QStringDataPtr</text>
</a>
</g>
</g>
<!-- Node1&#45;&gt;Node24 -->
<g id="edge27_Node000001_Node000024" class="edge">
<title>Node1&#45;&gt;Node24</title>
<g id="a_edge27_Node000001_Node000024"><a xlink:title=" ">
<path fill="none" stroke="#63b8ff" d="M1064.68,-222.73C1139.61,-215.12 1274.13,-200.86 1399.56,-184.07"/>
<polygon fill="#63b8ff" stroke="#63b8ff" points="1400.29,-187.5 1409.73,-182.7 1399.36,-180.57 1400.29,-187.5"/>
</a>
</g>
</g>
<!-- Node3 -->
<g id="Node000003" class="node">
<title>Node3</title>
<g id="a_Node000003"><a xlink:title=" ">
<polygon fill="#e0e0e0" stroke="#999999" points="53,-74 0,-74 0,-55 53,-55 53,-74"/>
<text text-anchor="middle" x="26.5" y="-62" font-family="Helvetica,sans-Serif" font-size="10.00">QString</text>
</a>
</g>
</g>
<!-- Node2&#45;&gt;Node3 -->
<g id="edge2_Node000002_Node000003" class="edge">
<title>Node2&#45;&gt;Node3</title>
<g id="a_edge2_Node000002_Node000003"><a xlink:title=" ">
<path fill="none" stroke="#63b8ff" d="M646.8,-170.04C562.42,-158.91 293.93,-122.1 63.13,-74.24"/>
<polygon fill="#63b8ff" stroke="#63b8ff" points="63.72,-70.79 53.21,-72.17 62.29,-77.64 63.72,-70.79"/>
</a>
</g>
</g>
<!-- Node4 -->
<g id="Node000004" class="node">
<title>Node4</title>
<g id="a_Node000004"><a xlink:title=" ">
<polygon fill="#e0e0e0" stroke="#999999" points="731.5,-74 661.5,-74 661.5,-55 731.5,-55 731.5,-74"/>
<text text-anchor="middle" x="696.5" y="-62" font-family="Helvetica,sans-Serif" font-size="10.00">QStringList</text>
</a>
</g>
</g>
<!-- Node2&#45;&gt;Node4 -->
<g id="edge3_Node000002_Node000004" class="edge">
<title>Node2&#45;&gt;Node4</title>
<g id="a_edge3_Node000002_Node000004"><a xlink:title=" ">
<path fill="none" stroke="#63b8ff" d="M673.35,-164.74C673.33,-152.37 673.98,-129.16 678.5,-110 680.63,-100.98 684.3,-91.39 687.78,-83.44"/>
<polygon fill="#63b8ff" stroke="#63b8ff" points="691.08,-84.65 692.1,-74.1 684.72,-81.71 691.08,-84.65"/>
</a>
</g>
</g>
<!-- Node5 -->
<g id="Node000005" class="node">
<title>Node5</title>
<g id="a_Node000005"><a xlink:title=" ">
<polygon fill="#e0e0e0" stroke="#999999" points="809,-74 750,-74 750,-55 809,-55 809,-74"/>
<text text-anchor="middle" x="779.5" y="-62" font-family="Helvetica,sans-Serif" font-size="10.00">QtGlobal</text>
</a>
</g>
</g>
<!-- Node2&#45;&gt;Node5 -->
<g id="edge4_Node000002_Node000005" class="edge">
<title>Node2&#45;&gt;Node5</title>
<g id="a_edge4_Node000002_Node000005"><a xlink:title=" ">
<path fill="none" stroke="#63b8ff" d="M677.29,-164.9C683.33,-151.89 696.15,-126.94 712.5,-110 724.48,-97.59 740.49,-86.8 753.86,-78.95"/>
<polygon fill="#63b8ff" stroke="#63b8ff" points="755.63,-81.97 762.61,-74 752.18,-75.88 755.63,-81.97"/>
</a>
</g>
</g>
<!-- Node6 -->
<g id="Node000006" class="node">
<title>Node6</title>
<g id="a_Node000006"><a xlink:href="../../d4/da4/def_8h.html" target="_top" xlink:title=" ">
<polygon fill="white" stroke="#666666" points="464.5,-129 382.5,-129 382.5,-110 464.5,-110 464.5,-129"/>
<text text-anchor="middle" x="423.5" y="-117" font-family="Helvetica,sans-Serif" font-size="10.00">../vmisc/def.h</text>
</a>
</g>
</g>
<!-- Node2&#45;&gt;Node6 -->
<g id="edge5_Node000002_Node000006" class="edge">
<title>Node2&#45;&gt;Node6</title>
<g id="a_edge5_Node000002_Node000006"><a xlink:title=" ">
<path fill="none" stroke="#63b8ff" d="M646.75,-167.83C605.53,-159.09 525.83,-142.19 473.65,-131.13"/>
<polygon fill="#63b8ff" stroke="#63b8ff" points="474.11,-127.65 463.61,-129 472.66,-134.5 474.11,-127.65"/>
</a>
</g>
</g>
<!-- Node2&#45;&gt;Node15 -->
<g id="edge17_Node000002_Node000015" class="edge">
<title>Node2&#45;&gt;Node15</title>
<g id="a_edge17_Node000002_Node000015"><a xlink:title=" ">
<path fill="none" stroke="#63b8ff" d="M690.53,-164.98C707.43,-156.54 733.56,-143.47 753.14,-133.68"/>
<polygon fill="#63b8ff" stroke="#63b8ff" points="754.78,-136.77 762.16,-129.17 751.65,-130.51 754.78,-136.77"/>
</a>
</g>
</g>
<!-- Node6&#45;&gt;Node3 -->
<g id="edge9_Node000006_Node000003" class="edge">
<title>Node6&#45;&gt;Node3</title>
<g id="a_edge9_Node000006_Node000003"><a xlink:title=" ">
<path fill="none" stroke="#63b8ff" d="M382.28,-115C316.69,-109.09 184.39,-95.79 63.36,-74.16"/>
<polygon fill="#63b8ff" stroke="#63b8ff" points="63.65,-70.66 53.18,-72.32 62.4,-77.54 63.65,-70.66"/>
</a>
</g>
</g>
<!-- Node6&#45;&gt;Node4 -->
<g id="edge10_Node000006_Node000004" class="edge">
<title>Node6&#45;&gt;Node4</title>
<g id="a_edge10_Node000006_Node000004"><a xlink:title=" ">
<path fill="none" stroke="#63b8ff" d="M464.67,-110.51C514.8,-100.78 599.2,-84.39 651.15,-74.3"/>
<polygon fill="#63b8ff" stroke="#63b8ff" points="651.94,-77.72 661.09,-72.37 650.61,-70.84 651.94,-77.72"/>
</a>
</g>
</g>
<!-- Node6&#45;&gt;Node5 -->
<g id="edge12_Node000006_Node000005" class="edge">
<title>Node6&#45;&gt;Node5</title>
<g id="a_edge12_Node000006_Node000005"><a xlink:title=" ">
<path fill="none" stroke="#63b8ff" d="M464.69,-113.72C523.42,-106.69 634.79,-92.54 739.61,-74.03"/>
<polygon fill="#63b8ff" stroke="#63b8ff" points="740.5,-77.43 749.74,-72.23 739.28,-70.54 740.5,-77.43"/>
</a>
</g>
</g>
<!-- Node7 -->
<g id="Node000007" class="node">
<title>Node7</title>
<g id="a_Node000007"><a xlink:title=" ">
<polygon fill="#e0e0e0" stroke="#999999" points="483.5,-74 363.5,-74 363.5,-55 483.5,-55 483.5,-74"/>
<text text-anchor="middle" x="423.5" y="-62" font-family="Helvetica,sans-Serif" font-size="10.00">qcompilerdetection.h</text>
</a>
</g>
</g>
<!-- Node6&#45;&gt;Node7 -->
<g id="edge6_Node000006_Node000007" class="edge">
<title>Node6&#45;&gt;Node7</title>
<g id="a_edge6_Node000006_Node000007"><a xlink:title=" ">
<path fill="none" stroke="#63b8ff" d="M423.5,-109.75C423.5,-102.8 423.5,-92.85 423.5,-84.13"/>
<polygon fill="#63b8ff" stroke="#63b8ff" points="427,-84.09 423.5,-74.09 420,-84.09 427,-84.09"/>
</a>
</g>
</g>
<!-- Node8 -->
<g id="Node000008" class="node">
<title>Node8</title>
<g id="a_Node000008"><a xlink:title=" ">
<polygon fill="#e0e0e0" stroke="#999999" points="575,-74 502,-74 502,-55 575,-55 575,-74"/>
<text text-anchor="middle" x="538.5" y="-62" font-family="Helvetica,sans-Serif" font-size="10.00">QFileDialog</text>
</a>
</g>
</g>
<!-- Node6&#45;&gt;Node8 -->
<g id="edge7_Node000006_Node000008" class="edge">
<title>Node6&#45;&gt;Node8</title>
<g id="a_edge7_Node000006_Node000008"><a xlink:title=" ">
<path fill="none" stroke="#63b8ff" d="M441.98,-109.98C460.48,-101.46 489.18,-88.23 510.48,-78.41"/>
<polygon fill="#63b8ff" stroke="#63b8ff" points="512.07,-81.53 519.69,-74.17 509.14,-75.18 512.07,-81.53"/>
</a>
</g>
</g>
<!-- Node9 -->
<g id="Node000009" class="node">
<title>Node9</title>
<g id="a_Node000009"><a xlink:title=" ">
<polygon fill="#e0e0e0" stroke="#999999" points="643.5,-74 593.5,-74 593.5,-55 643.5,-55 643.5,-74"/>
<text text-anchor="middle" x="618.5" y="-62" font-family="Helvetica,sans-Serif" font-size="10.00">QLineF</text>
</a>
</g>
</g>
<!-- Node6&#45;&gt;Node9 -->
<g id="edge8_Node000006_Node000009" class="edge">
<title>Node6&#45;&gt;Node9</title>
<g id="a_edge8_Node000006_Node000009"><a xlink:title=" ">
<path fill="none" stroke="#63b8ff" d="M454.83,-109.98C490.06,-100.41 547.11,-84.9 583.7,-74.96"/>
<polygon fill="#63b8ff" stroke="#63b8ff" points="584.71,-78.31 593.45,-72.31 582.88,-71.55 584.71,-78.31"/>
</a>
</g>
</g>
<!-- Node10 -->
<g id="Node000010" class="node">
<title>Node10</title>
<g id="a_Node000010"><a xlink:title=" ">
<polygon fill="#e0e0e0" stroke="#999999" points="100,-74 71,-74 71,-55 100,-55 100,-74"/>
<text text-anchor="middle" x="85.5" y="-62" font-family="Helvetica,sans-Serif" font-size="10.00">Qt</text>
</a>
</g>
</g>
<!-- Node6&#45;&gt;Node10 -->
<g id="edge11_Node000006_Node000010" class="edge">
<title>Node6&#45;&gt;Node10</title>
<g id="a_edge11_Node000006_Node000010"><a xlink:title=" ">
<path fill="none" stroke="#63b8ff" d="M382.36,-115.31C323.78,-110.19 212.96,-98.38 110.02,-73.62"/>
<polygon fill="#63b8ff" stroke="#63b8ff" points="110.63,-70.17 100.08,-71.19 108.96,-76.97 110.63,-70.17"/>
</a>
</g>
</g>
<!-- Node11 -->
<g id="Node000011" class="node">
<title>Node11</title>
<g id="a_Node000011"><a xlink:title=" ">
<polygon fill="#e0e0e0" stroke="#999999" points="174.5,-74 118.5,-74 118.5,-55 174.5,-55 174.5,-74"/>
<text text-anchor="middle" x="146.5" y="-62" font-family="Helvetica,sans-Serif" font-size="10.00">QPrinter</text>
</a>
</g>
</g>
<!-- Node6&#45;&gt;Node11 -->
<g id="edge13_Node000006_Node000011" class="edge">
<title>Node6&#45;&gt;Node11</title>
<g id="a_edge13_Node000006_Node000011"><a xlink:title=" ">
<path fill="none" stroke="#63b8ff" d="M382.39,-111.31C334.7,-102.86 253.76,-88.19 184.5,-74 184.4,-73.98 184.3,-73.96 184.2,-73.94"/>
<polygon fill="#63b8ff" stroke="#63b8ff" points="185.21,-70.57 174.7,-71.93 183.76,-77.42 185.21,-70.57"/>
</a>
</g>
</g>
<!-- Node12 -->
<g id="Node000012" class="node">
<title>Node12</title>
<g id="a_Node000012"><a xlink:title=" ">
<polygon fill="#e0e0e0" stroke="#999999" points="244,-74 193,-74 193,-55 244,-55 244,-74"/>
<text text-anchor="middle" x="218.5" y="-62" font-family="Helvetica,sans-Serif" font-size="10.00">csignal</text>
</a>
</g>
</g>
<!-- Node6&#45;&gt;Node12 -->
<g id="edge14_Node000006_Node000012" class="edge">
<title>Node6&#45;&gt;Node12</title>
<g id="a_edge14_Node000006_Node000012"><a xlink:title=" ">
<path fill="none" stroke="#63b8ff" d="M390.56,-109.98C353.16,-100.31 292.36,-84.6 253.95,-74.66"/>
<polygon fill="#63b8ff" stroke="#63b8ff" points="254.77,-71.26 244.22,-72.15 253.02,-78.04 254.77,-71.26"/>
</a>
</g>
</g>
<!-- Node13 -->
<g id="Node000013" class="node">
<title>Node13</title>
<g id="a_Node000013"><a xlink:href="../../d4/d82/debugbreak_8h.html" target="_top" xlink:title=" ">
<polygon fill="white" stroke="#666666" points="345,-74 262,-74 262,-55 345,-55 345,-74"/>
<text text-anchor="middle" x="303.5" y="-62" font-family="Helvetica,sans-Serif" font-size="10.00">debugbreak.h</text>
</a>
</g>
</g>
<!-- Node6&#45;&gt;Node13 -->
<g id="edge15_Node000006_Node000013" class="edge">
<title>Node6&#45;&gt;Node13</title>
<g id="a_edge15_Node000006_Node000013"><a xlink:title=" ">
<path fill="none" stroke="#63b8ff" d="M404.22,-109.98C384.83,-101.42 354.69,-88.11 332.43,-78.28"/>
<polygon fill="#63b8ff" stroke="#63b8ff" points="333.69,-75.01 323.13,-74.17 330.86,-81.41 333.69,-75.01"/>
</a>
</g>
</g>
<!-- Node14 -->
<g id="Node000014" class="node">
<title>Node14</title>
<g id="a_Node000014"><a xlink:title=" ">
<polygon fill="#e0e0e0" stroke="#999999" points="331,-19 276,-19 276,0 331,0 331,-19"/>
<text text-anchor="middle" x="303.5" y="-7" font-family="Helvetica,sans-Serif" font-size="10.00">signal.h</text>
</a>
</g>
</g>
<!-- Node13&#45;&gt;Node14 -->
<g id="edge16_Node000013_Node000014" class="edge">
<title>Node13&#45;&gt;Node14</title>
<g id="a_edge16_Node000013_Node000014"><a xlink:title=" ">
<path fill="none" stroke="#63b8ff" d="M303.5,-54.75C303.5,-47.8 303.5,-37.85 303.5,-29.13"/>
<polygon fill="#63b8ff" stroke="#63b8ff" points="307,-29.09 303.5,-19.09 300,-29.09 307,-29.09"/>
</a>
</g>
</g>
<!-- Node15&#45;&gt;Node5 -->
<g id="edge18_Node000015_Node000005" class="edge">
<title>Node15&#45;&gt;Node5</title>
<g id="a_edge18_Node000015_Node000005"><a xlink:title=" ">
<path fill="none" stroke="#63b8ff" d="M779.5,-109.75C779.5,-102.8 779.5,-92.85 779.5,-84.13"/>
<polygon fill="#63b8ff" stroke="#63b8ff" points="783,-84.09 779.5,-74.09 776,-84.09 783,-84.09"/>
</a>
</g>
</g>
</g>
</svg>
