<?xml version="1.0" encoding="UTF-8" standalone="no"?>
<!DOCTYPE svg PUBLIC "-//W3C//DTD SVG 1.1//EN"
 "http://www.w3.org/Graphics/SVG/1.1/DTD/svg11.dtd">
<!-- Generated by graphviz version 2.43.0 (0)
 -->
<!-- Title: src/libs/vwidgets/export_format_combobox.h Pages: 1 -->
<!--zoomable 203 -->

<svg id="main" version="1.1" xmlns="http://www.w3.org/2000/svg" xmlns:xlink="http://www.w3.org/1999/xlink" xml:space="preserve" onload="init(evt)">
<style type="text/css"><![CDATA[
.node, .edge {opacity: 0.7;}
.node.selected, .edge.selected {opacity: 1;}
.edge:hover path { stroke: red; }
.edge:hover polygon { stroke: red; fill: red; }
]]></style>

<defs>
  <circle id="rim" cx="0" cy="0" r="7"/>
  <circle id="rim2" cx="0" cy="0" r="3.5"/>
  <g id="zoomPlus">
    <use xlink:href="#rim" fill="#404040"><set attributeName="fill" to="#808080" begin="zoomplus.mouseover" end="zoomplus.mouseout"/></use>
    <path d="M-4,0h8M0,-4v8" fill="none" stroke="white" stroke-width="1.5" pointer-events="none"/>
  </g>
  <g id="zoomMin">
    <use xlink:href="#rim" fill="#404040"><set attributeName="fill" to="#808080" begin="zoomminus.mouseover" end="zoomminus.mouseout"/></use>
    <path d="M-4,0h8" fill="none" stroke="white" stroke-width="1.5" pointer-events="none"/>
  </g>
  <g id="arrowUp" transform="translate(30 24)">
    <use xlink:href="#rim"/>
    <path pointer-events="none" fill="none" stroke="white" stroke-width="1.5" d="M0,-3.0v7 M-2.5,-0.5L0,-3.0L2.5,-0.5"/>
  </g>
  <g id="arrowRight" transform="rotate(90) translate(36 -43)">
    <use xlink:href="#rim"/>
    <path pointer-events="none" fill="none" stroke="white" stroke-width="1.5" d="M0,-3.0v7 M-2.5,-0.5L0,-3.0L2.5,-0.5"/>
  </g>
  <g id="arrowDown" transform="rotate(180) translate(-30 -48)">
    <use xlink:href="#rim"/>
    <path pointer-events="none" fill="none" stroke="white" stroke-width="1.5" d="M0,-3.0v7 M-2.5,-0.5L0,-3.0L2.5,-0.5"/>
  </g>
  <g id="arrowLeft" transform="rotate(270) translate(-36 17)">
    <use xlink:href="#rim"/>
    <path pointer-events="none" fill="none" stroke="white" stroke-width="1.5" d="M0,-3.0v7 M-2.5,-0.5L0,-3.0L2.5,-0.5"/>
  </g>
  <g id="resetDef">
    <use xlink:href="#rim2" fill="#404040"><set attributeName="fill" to="#808080" begin="reset.mouseover" end="reset.mouseout"/></use>
  </g>
</defs>
<script type="application/ecmascript">
var viewWidth = 2420;
var viewHeight = 203;
var sectionId = 'dynsection-0';
</script>
<script type="application/ecmascript" xlink:href="../../svg.min.js"/>
<svg id="graph" class="graph">
<g id="viewport">
<title>src/libs/vwidgets/export_format_combobox.h</title>
<!-- Node1 -->
<g id="Node000001" class="node">
<title>Node1</title>
<g id="a_Node000001"><a xlink:title=" ">
<polygon fill="#999999" stroke="#666666" points="404,-195 271,-195 271,-165 404,-165 404,-195"/>
<text text-anchor="start" x="279" y="-183" font-family="Helvetica,sans-Serif" font-size="10.00">src/libs/vwidgets/export</text>
<text text-anchor="middle" x="337.5" y="-172" font-family="Helvetica,sans-Serif" font-size="10.00">_format_combobox.h</text>
</a>
</g>
</g>
<!-- Node2 -->
<g id="Node000002" class="node">
<title>Node2</title>
<g id="a_Node000002"><a xlink:title=" ">
<polygon fill="#e0e0e0" stroke="#999999" points="246,-129 169,-129 169,-110 246,-110 246,-129"/>
<text text-anchor="middle" x="207.5" y="-117" font-family="Helvetica,sans-Serif" font-size="10.00">QComboBox</text>
</a>
</g>
</g>
<!-- Node1&#45;&gt;Node2 -->
<g id="edge1_Node000001_Node000002" class="edge">
<title>Node1&#45;&gt;Node2</title>
<g id="a_edge1_Node000001_Node000002"><a xlink:title=" ">
<path fill="none" stroke="#63b8ff" d="M306.36,-164.99C284.96,-155.36 256.77,-142.67 235.97,-133.31"/>
<polygon fill="#63b8ff" stroke="#63b8ff" points="237.25,-130.05 226.7,-129.14 234.38,-136.43 237.25,-130.05"/>
</a>
</g>
</g>
<!-- Node3 -->
<g id="Node000003" class="node">
<title>Node3</title>
<g id="a_Node000003"><a xlink:title=" ">
<polygon fill="#e0e0e0" stroke="#999999" points="323,-129 264,-129 264,-110 323,-110 323,-129"/>
<text text-anchor="middle" x="293.5" y="-117" font-family="Helvetica,sans-Serif" font-size="10.00">QWidget</text>
</a>
</g>
</g>
<!-- Node1&#45;&gt;Node3 -->
<g id="edge2_Node000001_Node000003" class="edge">
<title>Node1&#45;&gt;Node3</title>
<g id="a_edge2_Node000001_Node000003"><a xlink:title=" ">
<path fill="none" stroke="#63b8ff" d="M326.85,-164.84C320.66,-156.61 312.81,-146.18 306.29,-137.51"/>
<polygon fill="#63b8ff" stroke="#63b8ff" points="308.9,-135.15 300.09,-129.27 303.31,-139.36 308.9,-135.15"/>
</a>
</g>
</g>
<!-- Node4 -->
<g id="Node000004" class="node">
<title>Node4</title>
<g id="a_Node000004"><a xlink:href="../../d4/da4/def_8h.html" target="_top" xlink:title=" ">
<polygon fill="white" stroke="#666666" points="423.5,-129 341.5,-129 341.5,-110 423.5,-110 423.5,-129"/>
<text text-anchor="middle" x="382.5" y="-117" font-family="Helvetica,sans-Serif" font-size="10.00">../vmisc/def.h</text>
</a>
</g>
</g>
<!-- Node1&#45;&gt;Node4 -->
<g id="edge3_Node000001_Node000004" class="edge">
<title>Node1&#45;&gt;Node4</title>
<g id="a_edge3_Node000001_Node000004"><a xlink:title=" ">
<path fill="none" stroke="#63b8ff" d="M348.39,-164.84C354.79,-156.52 362.92,-145.96 369.63,-137.23"/>
<polygon fill="#63b8ff" stroke="#63b8ff" points="372.43,-139.33 375.76,-129.27 366.89,-135.06 372.43,-139.33"/>
</a>
</g>
</g>
<!-- Node16 -->
<g id="Node000016" class="node">
<title>Node16</title>
<g id="a_Node000016"><a xlink:href="../../d0/d89/vabstractpattern_8h.html" target="_top" xlink:title=" ">
<polygon fill="white" stroke="#666666" points="1172.5,-129 1020.5,-129 1020.5,-110 1172.5,-110 1172.5,-129"/>
<text text-anchor="middle" x="1096.5" y="-117" font-family="Helvetica,sans-Serif" font-size="10.00">../ifc/xml/vabstractpattern.h</text>
</a>
</g>
</g>
<!-- Node1&#45;&gt;Node16 -->
<g id="edge15_Node000001_Node000016" class="edge">
<title>Node1&#45;&gt;Node16</title>
<g id="a_edge15_Node000001_Node000016"><a xlink:title=" ">
<path fill="none" stroke="#63b8ff" d="M404.19,-173.86C541.83,-163.25 857.26,-138.94 1010.2,-127.15"/>
<polygon fill="#63b8ff" stroke="#63b8ff" points="1010.78,-130.62 1020.48,-126.36 1010.24,-123.64 1010.78,-130.62"/>
</a>
</g>
</g>
<!-- Node5 -->
<g id="Node000005" class="node">
<title>Node5</title>
<g id="a_Node000005"><a xlink:title=" ">
<polygon fill="#e0e0e0" stroke="#999999" points="647.5,-74 527.5,-74 527.5,-55 647.5,-55 647.5,-74"/>
<text text-anchor="middle" x="587.5" y="-62" font-family="Helvetica,sans-Serif" font-size="10.00">qcompilerdetection.h</text>
</a>
</g>
</g>
<!-- Node4&#45;&gt;Node5 -->
<g id="edge4_Node000004_Node000005" class="edge">
<title>Node4&#45;&gt;Node5</title>
<g id="a_edge4_Node000004_Node000005"><a xlink:title=" ">
<path fill="none" stroke="#63b8ff" d="M415.44,-109.98C450.45,-100.93 505.97,-86.58 544.43,-76.64"/>
<polygon fill="#63b8ff" stroke="#63b8ff" points="545.5,-79.97 554.31,-74.08 543.75,-73.2 545.5,-79.97"/>
</a>
</g>
</g>
<!-- Node6 -->
<g id="Node000006" class="node">
<title>Node6</title>
<g id="a_Node000006"><a xlink:title=" ">
<polygon fill="#e0e0e0" stroke="#999999" points="243,-74 170,-74 170,-55 243,-55 243,-74"/>
<text text-anchor="middle" x="206.5" y="-62" font-family="Helvetica,sans-Serif" font-size="10.00">QFileDialog</text>
</a>
</g>
</g>
<!-- Node4&#45;&gt;Node6 -->
<g id="edge5_Node000004_Node000006" class="edge">
<title>Node4&#45;&gt;Node6</title>
<g id="a_edge5_Node000004_Node000006"><a xlink:title=" ">
<path fill="none" stroke="#63b8ff" d="M354.22,-109.98C324.55,-101.05 277.71,-86.94 244.75,-77.02"/>
<polygon fill="#63b8ff" stroke="#63b8ff" points="245.58,-73.61 235,-74.08 243.57,-80.32 245.58,-73.61"/>
</a>
</g>
</g>
<!-- Node7 -->
<g id="Node000007" class="node">
<title>Node7</title>
<g id="a_Node000007"><a xlink:title=" ">
<polygon fill="#e0e0e0" stroke="#999999" points="311.5,-74 261.5,-74 261.5,-55 311.5,-55 311.5,-74"/>
<text text-anchor="middle" x="286.5" y="-62" font-family="Helvetica,sans-Serif" font-size="10.00">QLineF</text>
</a>
</g>
</g>
<!-- Node4&#45;&gt;Node7 -->
<g id="edge6_Node000004_Node000007" class="edge">
<title>Node4&#45;&gt;Node7</title>
<g id="a_edge6_Node000004_Node000007"><a xlink:title=" ">
<path fill="none" stroke="#63b8ff" d="M367.08,-109.98C352.05,-101.69 328.96,-88.94 311.34,-79.22"/>
<polygon fill="#63b8ff" stroke="#63b8ff" points="312.65,-75.94 302.2,-74.17 309.27,-82.07 312.65,-75.94"/>
</a>
</g>
</g>
<!-- Node8 -->
<g id="Node000008" class="node">
<title>Node8</title>
<g id="a_Node000008"><a xlink:title=" ">
<polygon fill="#e0e0e0" stroke="#999999" points="813,-19 760,-19 760,0 813,0 813,-19"/>
<text text-anchor="middle" x="786.5" y="-7" font-family="Helvetica,sans-Serif" font-size="10.00">QString</text>
</a>
</g>
</g>
<!-- Node4&#45;&gt;Node8 -->
<g id="edge7_Node000004_Node000008" class="edge">
<title>Node4&#45;&gt;Node8</title>
<g id="a_edge7_Node000004_Node000008"><a xlink:title=" ">
<path fill="none" stroke="#63b8ff" d="M374.04,-109.64C362.33,-96.31 344.14,-70.93 358.5,-55 384.5,-26.16 650.61,-14.81 749.64,-11.57"/>
<polygon fill="#63b8ff" stroke="#63b8ff" points="749.89,-15.06 759.78,-11.24 749.67,-8.06 749.89,-15.06"/>
</a>
</g>
</g>
<!-- Node9 -->
<g id="Node000009" class="node">
<title>Node9</title>
<g id="a_Node000009"><a xlink:title=" ">
<polygon fill="#e0e0e0" stroke="#999999" points="735.5,-74 665.5,-74 665.5,-55 735.5,-55 735.5,-74"/>
<text text-anchor="middle" x="700.5" y="-62" font-family="Helvetica,sans-Serif" font-size="10.00">QStringList</text>
</a>
</g>
</g>
<!-- Node4&#45;&gt;Node9 -->
<g id="edge8_Node000004_Node000009" class="edge">
<title>Node4&#45;&gt;Node9</title>
<g id="a_edge8_Node000004_Node000009"><a xlink:title=" ">
<path fill="none" stroke="#63b8ff" d="M423.88,-112.17C475.64,-104.17 567.25,-89.73 655.54,-74.13"/>
<polygon fill="#63b8ff" stroke="#63b8ff" points="656.22,-77.56 665.45,-72.37 655,-70.67 656.22,-77.56"/>
</a>
</g>
</g>
<!-- Node10 -->
<g id="Node000010" class="node">
<title>Node10</title>
<g id="a_Node000010"><a xlink:title=" ">
<polygon fill="#e0e0e0" stroke="#999999" points="397,-74 368,-74 368,-55 397,-55 397,-74"/>
<text text-anchor="middle" x="382.5" y="-62" font-family="Helvetica,sans-Serif" font-size="10.00">Qt</text>
</a>
</g>
</g>
<!-- Node4&#45;&gt;Node10 -->
<g id="edge9_Node000004_Node000010" class="edge">
<title>Node4&#45;&gt;Node10</title>
<g id="a_edge9_Node000004_Node000010"><a xlink:title=" ">
<path fill="none" stroke="#63b8ff" d="M382.5,-109.75C382.5,-102.8 382.5,-92.85 382.5,-84.13"/>
<polygon fill="#63b8ff" stroke="#63b8ff" points="386,-84.09 382.5,-74.09 379,-84.09 386,-84.09"/>
</a>
</g>
</g>
<!-- Node11 -->
<g id="Node000011" class="node">
<title>Node11</title>
<g id="a_Node000011"><a xlink:title=" ">
<polygon fill="#e0e0e0" stroke="#999999" points="914,-19 855,-19 855,0 914,0 914,-19"/>
<text text-anchor="middle" x="884.5" y="-7" font-family="Helvetica,sans-Serif" font-size="10.00">QtGlobal</text>
</a>
</g>
</g>
<!-- Node4&#45;&gt;Node11 -->
<g id="edge10_Node000004_Node000011" class="edge">
<title>Node4&#45;&gt;Node11</title>
<g id="a_edge10_Node000004_Node000011"><a xlink:title=" ">
<path fill="none" stroke="#63b8ff" d="M402.12,-109.85C421.98,-101.03 453.51,-86.87 480.5,-74 497.54,-65.87 500.41,-60.41 518.5,-55 648.84,-16 687.54,-36.24 822.5,-19 829.76,-18.07 837.49,-17.04 844.95,-16.03"/>
<polygon fill="#63b8ff" stroke="#63b8ff" points="845.44,-19.5 854.87,-14.67 844.49,-12.56 845.44,-19.5"/>
</a>
</g>
</g>
<!-- Node12 -->
<g id="Node000012" class="node">
<title>Node12</title>
<g id="a_Node000012"><a xlink:title=" ">
<polygon fill="#e0e0e0" stroke="#999999" points="471.5,-74 415.5,-74 415.5,-55 471.5,-55 471.5,-74"/>
<text text-anchor="middle" x="443.5" y="-62" font-family="Helvetica,sans-Serif" font-size="10.00">QPrinter</text>
</a>
</g>
</g>
<!-- Node4&#45;&gt;Node12 -->
<g id="edge11_Node000004_Node000012" class="edge">
<title>Node4&#45;&gt;Node12</title>
<g id="a_edge11_Node000004_Node000012"><a xlink:title=" ">
<path fill="none" stroke="#63b8ff" d="M392.3,-109.98C401.32,-102.15 414.91,-90.34 425.82,-80.86"/>
<polygon fill="#63b8ff" stroke="#63b8ff" points="428.27,-83.37 433.52,-74.17 423.68,-78.09 428.27,-83.37"/>
</a>
</g>
</g>
<!-- Node13 -->
<g id="Node000013" class="node">
<title>Node13</title>
<g id="a_Node000013"><a xlink:title=" ">
<polygon fill="#e0e0e0" stroke="#999999" points="51,-74 0,-74 0,-55 51,-55 51,-74"/>
<text text-anchor="middle" x="25.5" y="-62" font-family="Helvetica,sans-Serif" font-size="10.00">csignal</text>
</a>
</g>
</g>
<!-- Node4&#45;&gt;Node13 -->
<g id="edge12_Node000004_Node000013" class="edge">
<title>Node4&#45;&gt;Node13</title>
<g id="a_edge12_Node000004_Node000013"><a xlink:title=" ">
<path fill="none" stroke="#63b8ff" d="M341.32,-111.52C338,-110.99 334.7,-110.48 331.5,-110 214.08,-92.45 181.02,-96.58 61,-74.1"/>
<polygon fill="#63b8ff" stroke="#63b8ff" points="61.53,-70.64 51.05,-72.22 60.22,-77.52 61.53,-70.64"/>
</a>
</g>
</g>
<!-- Node14 -->
<g id="Node000014" class="node">
<title>Node14</title>
<g id="a_Node000014"><a xlink:href="../../d4/d82/debugbreak_8h.html" target="_top" xlink:title=" ">
<polygon fill="white" stroke="#666666" points="152,-74 69,-74 69,-55 152,-55 152,-74"/>
<text text-anchor="middle" x="110.5" y="-62" font-family="Helvetica,sans-Serif" font-size="10.00">debugbreak.h</text>
</a>
</g>
</g>
<!-- Node4&#45;&gt;Node14 -->
<g id="edge13_Node000004_Node000014" class="edge">
<title>Node4&#45;&gt;Node14</title>
<g id="a_edge13_Node000004_Node000014"><a xlink:title=" ">
<path fill="none" stroke="#63b8ff" d="M341.48,-110.51C293.62,-101.18 214.41,-85.75 162.33,-75.6"/>
<polygon fill="#63b8ff" stroke="#63b8ff" points="162.78,-72.12 152.3,-73.64 161.44,-78.99 162.78,-72.12"/>
</a>
</g>
</g>
<!-- Node15 -->
<g id="Node000015" class="node">
<title>Node15</title>
<g id="a_Node000015"><a xlink:title=" ">
<polygon fill="#e0e0e0" stroke="#999999" points="138,-19 83,-19 83,0 138,0 138,-19"/>
<text text-anchor="middle" x="110.5" y="-7" font-family="Helvetica,sans-Serif" font-size="10.00">signal.h</text>
</a>
</g>
</g>
<!-- Node14&#45;&gt;Node15 -->
<g id="edge14_Node000014_Node000015" class="edge">
<title>Node14&#45;&gt;Node15</title>
<g id="a_edge14_Node000014_Node000015"><a xlink:title=" ">
<path fill="none" stroke="#63b8ff" d="M110.5,-54.75C110.5,-47.8 110.5,-37.85 110.5,-29.13"/>
<polygon fill="#63b8ff" stroke="#63b8ff" points="114,-29.09 110.5,-19.09 107,-29.09 114,-29.09"/>
</a>
</g>
</g>
<!-- Node16&#45;&gt;Node5 -->
<g id="edge16_Node000016_Node000005" class="edge">
<title>Node16&#45;&gt;Node5</title>
<g id="a_edge16_Node000016_Node000005"><a xlink:title=" ">
<path fill="none" stroke="#63b8ff" d="M1020.14,-111.29C934.48,-103.08 791.13,-89 657.7,-74.11"/>
<polygon fill="#63b8ff" stroke="#63b8ff" points="658.03,-70.63 647.7,-72.99 657.25,-77.59 658.03,-70.63"/>
</a>
</g>
</g>
<!-- Node16&#45;&gt;Node8 -->
<g id="edge22_Node000016_Node000008" class="edge">
<title>Node16&#45;&gt;Node8</title>
<g id="a_edge22_Node000016_Node000008"><a xlink:title=" ">
<path fill="none" stroke="#63b8ff" d="M1020.2,-118.65C937.58,-117 813.54,-108.61 783.5,-74 772.89,-61.78 775.42,-42.73 779.52,-28.68"/>
<polygon fill="#63b8ff" stroke="#63b8ff" points="782.87,-29.7 782.76,-19.1 776.24,-27.45 782.87,-29.7"/>
</a>
</g>
</g>
<!-- Node16&#45;&gt;Node9 -->
<g id="edge23_Node000016_Node000009" class="edge">
<title>Node16&#45;&gt;Node9</title>
<g id="a_edge23_Node000016_Node000009"><a xlink:title=" ">
<path fill="none" stroke="#63b8ff" d="M1022.58,-109.98C952.24,-101.65 843.49,-88.17 749.5,-74 748.23,-73.81 746.94,-73.61 745.63,-73.41"/>
<polygon fill="#63b8ff" stroke="#63b8ff" points="745.96,-69.91 735.53,-71.77 744.85,-76.82 745.96,-69.91"/>
</a>
</g>
</g>
<!-- Node16&#45;&gt;Node11 -->
<g id="edge25_Node000016_Node000011" class="edge">
<title>Node16&#45;&gt;Node11</title>
<g id="a_edge25_Node000016_Node000011"><a xlink:title=" ">
<path fill="none" stroke="#63b8ff" d="M1090.99,-109.69C1081.94,-95.94 1062.6,-69.47 1039.5,-55 1004.06,-32.81 957.22,-21.37 924.35,-15.68"/>
<polygon fill="#63b8ff" stroke="#63b8ff" points="924.63,-12.18 914.19,-14.03 923.5,-19.09 924.63,-12.18"/>
</a>
</g>
</g>
<!-- Node17 -->
<g id="Node000017" class="node">
<title>Node17</title>
<g id="a_Node000017"><a xlink:title=" ">
<polygon fill="#e0e0e0" stroke="#999999" points="1129,-19 1080,-19 1080,0 1129,0 1129,-19"/>
<text text-anchor="middle" x="1104.5" y="-7" font-family="Helvetica,sans-Serif" font-size="10.00">QHash</text>
</a>
</g>
</g>
<!-- Node16&#45;&gt;Node17 -->
<g id="edge17_Node000016_Node000017" class="edge">
<title>Node16&#45;&gt;Node17</title>
<g id="a_edge17_Node000016_Node000017"><a xlink:title=" ">
<path fill="none" stroke="#63b8ff" d="M1172.72,-115.14C1280.07,-109.62 1465.08,-96.89 1485.5,-74 1535.65,-17.79 1237.58,-31.44 1139.22,-18.64"/>
<polygon fill="#63b8ff" stroke="#63b8ff" points="1139.71,-15.17 1129.3,-17.13 1138.66,-22.09 1139.71,-15.17"/>
</a>
</g>
</g>
<!-- Node18 -->
<g id="Node000018" class="node">
<title>Node18</title>
<g id="a_Node000018"><a xlink:title=" ">
<polygon fill="#e0e0e0" stroke="#999999" points="1170,-74 1125,-74 1125,-55 1170,-55 1170,-74"/>
<text text-anchor="middle" x="1147.5" y="-62" font-family="Helvetica,sans-Serif" font-size="10.00">QMap</text>
</a>
</g>
</g>
<!-- Node16&#45;&gt;Node18 -->
<g id="edge18_Node000016_Node000018" class="edge">
<title>Node16&#45;&gt;Node18</title>
<g id="a_edge18_Node000016_Node000018"><a xlink:title=" ">
<path fill="none" stroke="#63b8ff" d="M1104.92,-109.75C1112.27,-102.11 1123.13,-90.82 1132.04,-81.56"/>
<polygon fill="#63b8ff" stroke="#63b8ff" points="1134.82,-83.72 1139.24,-74.09 1129.78,-78.87 1134.82,-83.72"/>
</a>
</g>
</g>
<!-- Node19 -->
<g id="Node000019" class="node">
<title>Node19</title>
<g id="a_Node000019"><a xlink:title=" ">
<polygon fill="#e0e0e0" stroke="#999999" points="1268.5,-74 1188.5,-74 1188.5,-55 1268.5,-55 1268.5,-74"/>
<text text-anchor="middle" x="1228.5" y="-62" font-family="Helvetica,sans-Serif" font-size="10.00">QMetaObject</text>
</a>
</g>
</g>
<!-- Node16&#45;&gt;Node19 -->
<g id="edge19_Node000016_Node000019" class="edge">
<title>Node16&#45;&gt;Node19</title>
<g id="a_edge19_Node000016_Node000019"><a xlink:title=" ">
<path fill="none" stroke="#63b8ff" d="M1117.71,-109.98C1139.23,-101.34 1172.78,-87.87 1197.33,-78.02"/>
<polygon fill="#63b8ff" stroke="#63b8ff" points="1198.93,-81.14 1206.91,-74.17 1196.32,-74.65 1198.93,-81.14"/>
</a>
</g>
</g>
<!-- Node20 -->
<g id="Node000020" class="node">
<title>Node20</title>
<g id="a_Node000020"><a xlink:title=" ">
<polygon fill="#e0e0e0" stroke="#999999" points="1342.5,-74 1286.5,-74 1286.5,-55 1342.5,-55 1342.5,-74"/>
<text text-anchor="middle" x="1314.5" y="-62" font-family="Helvetica,sans-Serif" font-size="10.00">QObject</text>
</a>
</g>
</g>
<!-- Node16&#45;&gt;Node20 -->
<g id="edge20_Node000016_Node000020" class="edge">
<title>Node16&#45;&gt;Node20</title>
<g id="a_edge20_Node000016_Node000020"><a xlink:title=" ">
<path fill="none" stroke="#63b8ff" d="M1131.53,-109.98C1171.25,-100.33 1235.79,-84.64 1276.64,-74.7"/>
<polygon fill="#63b8ff" stroke="#63b8ff" points="1277.6,-78.07 1286.49,-72.31 1275.95,-71.27 1277.6,-78.07"/>
</a>
</g>
</g>
<!-- Node21 -->
<g id="Node000021" class="node">
<title>Node21</title>
<g id="a_Node000021"><a xlink:title=" ">
<polygon fill="#e0e0e0" stroke="#999999" points="1402.5,-74 1360.5,-74 1360.5,-55 1402.5,-55 1402.5,-74"/>
<text text-anchor="middle" x="1381.5" y="-62" font-family="Helvetica,sans-Serif" font-size="10.00">QPair</text>
</a>
</g>
</g>
<!-- Node16&#45;&gt;Node21 -->
<g id="edge21_Node000016_Node000021" class="edge">
<title>Node16&#45;&gt;Node21</title>
<g id="a_edge21_Node000016_Node000021"><a xlink:title=" ">
<path fill="none" stroke="#63b8ff" d="M1155.59,-109.96C1205.16,-102.4 1278,-90.35 1350.1,-74.13"/>
<polygon fill="#63b8ff" stroke="#63b8ff" points="1351.29,-77.44 1360.26,-71.81 1349.74,-70.62 1351.29,-77.44"/>
</a>
</g>
</g>
<!-- Node22 -->
<g id="Node000022" class="node">
<title>Node22</title>
<g id="a_Node000022"><a xlink:title=" ">
<polygon fill="#e0e0e0" stroke="#999999" points="1476,-74 1421,-74 1421,-55 1476,-55 1476,-74"/>
<text text-anchor="middle" x="1448.5" y="-62" font-family="Helvetica,sans-Serif" font-size="10.00">QVector</text>
</a>
</g>
</g>
<!-- Node16&#45;&gt;Node22 -->
<g id="edge24_Node000016_Node000022" class="edge">
<title>Node16&#45;&gt;Node22</title>
<g id="a_edge24_Node000016_Node000022"><a xlink:title=" ">
<path fill="none" stroke="#63b8ff" d="M1169.67,-109.96C1231.38,-102.35 1322.24,-90.18 1410.73,-74"/>
<polygon fill="#63b8ff" stroke="#63b8ff" points="1411.48,-77.42 1420.67,-72.16 1410.2,-70.54 1411.48,-77.42"/>
</a>
</g>
</g>
<!-- Node23 -->
<g id="Node000023" class="node">
<title>Node23</title>
<g id="a_Node000023"><a xlink:href="../../d8/da5/vdomdocument_8h.html" target="_top" xlink:title=" ">
<polygon fill="white" stroke="#666666" points="1634.5,-74 1532.5,-74 1532.5,-55 1634.5,-55 1634.5,-74"/>
<text text-anchor="middle" x="1583.5" y="-62" font-family="Helvetica,sans-Serif" font-size="10.00">vdomdocument.h</text>
</a>
</g>
</g>
<!-- Node16&#45;&gt;Node23 -->
<g id="edge26_Node000016_Node000023" class="edge">
<title>Node16&#45;&gt;Node23</title>
<g id="a_edge26_Node000016_Node000023"><a xlink:title=" ">
<path fill="none" stroke="#63b8ff" d="M1172.8,-111.03C1257.37,-102.62 1397.78,-88.26 1518.5,-74 1519.77,-73.85 1521.06,-73.7 1522.35,-73.54"/>
<polygon fill="#63b8ff" stroke="#63b8ff" points="1522.92,-77 1532.42,-72.3 1522.07,-70.05 1522.92,-77"/>
</a>
</g>
</g>
<!-- Node34 -->
<g id="Node000034" class="node">
<title>Node34</title>
<g id="a_Node000034"><a xlink:title=" ">
<polygon fill="#e0e0e0" stroke="#999999" points="1061.5,-19 979.5,-19 979.5,0 1061.5,0 1061.5,-19"/>
<text text-anchor="middle" x="1020.5" y="-7" font-family="Helvetica,sans-Serif" font-size="10.00">../vmisc/def.h</text>
</a>
</g>
</g>
<!-- Node16&#45;&gt;Node34 -->
<g id="edge47_Node000016_Node000034" class="edge">
<title>Node16&#45;&gt;Node34</title>
<g id="a_edge47_Node000016_Node000034"><a xlink:title=" ">
<path fill="none" stroke="#63b8ff" d="M1094.63,-109.62C1091.6,-96.7 1084.69,-72.36 1072.5,-55 1064.39,-43.45 1052.62,-33.04 1042.32,-25.2"/>
<polygon fill="#63b8ff" stroke="#63b8ff" points="1044.28,-22.3 1034.13,-19.25 1040.16,-27.96 1044.28,-22.3"/>
</a>
</g>
</g>
<!-- Node37 -->
<g id="Node000037" class="node">
<title>Node37</title>
<g id="a_Node000037"><a xlink:href="../../d9/d47/vtoolrecord_8h.html" target="_top" xlink:title=" ">
<polygon fill="white" stroke="#666666" points="873,-74 792,-74 792,-55 873,-55 873,-74"/>
<text text-anchor="middle" x="832.5" y="-62" font-family="Helvetica,sans-Serif" font-size="10.00">vtoolrecord.h</text>
</a>
</g>
</g>
<!-- Node16&#45;&gt;Node37 -->
<g id="edge43_Node000016_Node000037" class="edge">
<title>Node16&#45;&gt;Node37</title>
<g id="a_edge43_Node000016_Node000037"><a xlink:title=" ">
<path fill="none" stroke="#63b8ff" d="M1054.08,-109.98C1007.45,-100.62 932.57,-85.59 882.95,-75.63"/>
<polygon fill="#63b8ff" stroke="#63b8ff" points="883.57,-72.18 873.08,-73.65 882.19,-79.05 883.57,-72.18"/>
</a>
</g>
</g>
<!-- Node38 -->
<g id="Node000038" class="node">
<title>Node38</title>
<g id="a_Node000038"><a xlink:title=" ">
<polygon fill="#e0e0e0" stroke="#999999" points="1030,-74 891,-74 891,-55 1030,-55 1030,-74"/>
<text text-anchor="middle" x="960.5" y="-62" font-family="Helvetica,sans-Serif" font-size="10.00">../vwidgets/pen_toolbar.h</text>
</a>
</g>
</g>
<!-- Node16&#45;&gt;Node38 -->
<g id="edge48_Node000016_Node000038" class="edge">
<title>Node16&#45;&gt;Node38</title>
<g id="a_edge48_Node000016_Node000038"><a xlink:title=" ">
<path fill="none" stroke="#63b8ff" d="M1074.65,-109.98C1052.38,-101.3 1017.6,-87.75 992.28,-77.88"/>
<polygon fill="#63b8ff" stroke="#63b8ff" points="993.34,-74.54 982.75,-74.17 990.79,-81.06 993.34,-74.54"/>
</a>
</g>
</g>
<!-- Node23&#45;&gt;Node8 -->
<g id="edge34_Node000023_Node000008" class="edge">
<title>Node23&#45;&gt;Node8</title>
<g id="a_edge34_Node000023_Node000008"><a xlink:title=" ">
<path fill="none" stroke="#63b8ff" d="M1532.41,-58.77C1517.31,-57.46 1500.75,-56.09 1485.5,-55 1201.77,-34.71 1129.57,-46.97 846.5,-19 838.86,-18.24 830.69,-17.23 822.93,-16.16"/>
<polygon fill="#63b8ff" stroke="#63b8ff" points="823.42,-12.7 813.02,-14.75 822.43,-19.63 823.42,-12.7"/>
</a>
</g>
</g>
<!-- Node23&#45;&gt;Node11 -->
<g id="edge37_Node000023_Node000011" class="edge">
<title>Node23&#45;&gt;Node11</title>
<g id="a_edge37_Node000023_Node000011"><a xlink:title=" ">
<path fill="none" stroke="#63b8ff" d="M1532.4,-58.9C1517.3,-57.59 1500.74,-56.19 1485.5,-55 1256.75,-37.09 1199.14,-38.29 970.5,-19 955.46,-17.73 938.96,-16.15 924.48,-14.69"/>
<polygon fill="#63b8ff" stroke="#63b8ff" points="924.63,-11.19 914.33,-13.66 923.93,-18.15 924.63,-11.19"/>
</a>
</g>
</g>
<!-- Node23&#45;&gt;Node17 -->
<g id="edge31_Node000023_Node000017" class="edge">
<title>Node23&#45;&gt;Node17</title>
<g id="a_edge31_Node000023_Node000017"><a xlink:title=" ">
<path fill="none" stroke="#63b8ff" d="M1532.43,-56.65C1527.72,-56.07 1523.02,-55.51 1518.5,-55 1353.13,-36.36 1307.44,-47.22 1139.23,-18.85"/>
<polygon fill="#63b8ff" stroke="#63b8ff" points="1139.74,-15.39 1129.29,-17.16 1138.56,-22.29 1139.74,-15.39"/>
</a>
</g>
</g>
<!-- Node24 -->
<g id="Node000024" class="node">
<title>Node24</title>
<g id="a_Node000024"><a xlink:title=" ">
<polygon fill="#e0e0e0" stroke="#999999" points="1997,-19 1896,-19 1896,0 1997,0 1997,-19"/>
<text text-anchor="middle" x="1946.5" y="-7" font-family="Helvetica,sans-Serif" font-size="10.00">QCoreApplication</text>
</a>
</g>
</g>
<!-- Node23&#45;&gt;Node24 -->
<g id="edge27_Node000023_Node000024" class="edge">
<title>Node23&#45;&gt;Node24</title>
<g id="a_edge27_Node000023_Node000024"><a xlink:title=" ">
<path fill="none" stroke="#63b8ff" d="M1634.74,-56.02C1700.77,-46.38 1815.42,-29.64 1885.77,-19.37"/>
<polygon fill="#63b8ff" stroke="#63b8ff" points="1886.42,-22.81 1895.81,-17.9 1885.41,-15.88 1886.42,-22.81"/>
</a>
</g>
</g>
<!-- Node25 -->
<g id="Node000025" class="node">
<title>Node25</title>
<g id="a_Node000025"><a xlink:title=" ">
<polygon fill="#e0e0e0" stroke="#999999" points="2113.5,-19 2015.5,-19 2015.5,0 2113.5,0 2113.5,-19"/>
<text text-anchor="middle" x="2064.5" y="-7" font-family="Helvetica,sans-Serif" font-size="10.00">QDomDocument</text>
</a>
</g>
</g>
<!-- Node23&#45;&gt;Node25 -->
<g id="edge28_Node000023_Node000025" class="edge">
<title>Node23&#45;&gt;Node25</title>
<g id="a_edge28_Node000023_Node000025"><a xlink:title=" ">
<path fill="none" stroke="#63b8ff" d="M1634.69,-58.79C1712.45,-51.49 1865.23,-36.57 2005.4,-19.09"/>
<polygon fill="#63b8ff" stroke="#63b8ff" points="2005.98,-22.55 2015.47,-17.83 2005.11,-15.6 2005.98,-22.55"/>
</a>
</g>
</g>
<!-- Node26 -->
<g id="Node000026" class="node">
<title>Node26</title>
<g id="a_Node000026"><a xlink:title=" ">
<polygon fill="#e0e0e0" stroke="#999999" points="2219.5,-19 2131.5,-19 2131.5,0 2219.5,0 2219.5,-19"/>
<text text-anchor="middle" x="2175.5" y="-7" font-family="Helvetica,sans-Serif" font-size="10.00">QDomElement</text>
</a>
</g>
</g>
<!-- Node23&#45;&gt;Node26 -->
<g id="edge29_Node000023_Node000026" class="edge">
<title>Node23&#45;&gt;Node26</title>
<g id="a_edge29_Node000023_Node000026"><a xlink:title=" ">
<path fill="none" stroke="#63b8ff" d="M1634.54,-60.59C1728.65,-54.95 1936.09,-41.19 2121.1,-19.08"/>
<polygon fill="#63b8ff" stroke="#63b8ff" points="2121.78,-22.52 2131.29,-17.85 2120.94,-15.57 2121.78,-22.52"/>
</a>
</g>
</g>
<!-- Node27 -->
<g id="Node000027" class="node">
<title>Node27</title>
<g id="a_Node000027"><a xlink:title=" ">
<polygon fill="#e0e0e0" stroke="#999999" points="2311,-19 2238,-19 2238,0 2311,0 2311,-19"/>
<text text-anchor="middle" x="2274.5" y="-7" font-family="Helvetica,sans-Serif" font-size="10.00">QDomNode</text>
</a>
</g>
</g>
<!-- Node23&#45;&gt;Node27 -->
<g id="edge30_Node000023_Node000027" class="edge">
<title>Node23&#45;&gt;Node27</title>
<g id="a_edge30_Node000023_Node000027"><a xlink:title=" ">
<path fill="none" stroke="#63b8ff" d="M1634.7,-61.95C1742.49,-58.25 2000.85,-47.15 2227.8,-18.92"/>
<polygon fill="#63b8ff" stroke="#63b8ff" points="2228.42,-22.37 2237.9,-17.65 2227.54,-15.43 2228.42,-22.37"/>
</a>
</g>
</g>
<!-- Node28 -->
<g id="Node000028" class="node">
<title>Node28</title>
<g id="a_Node000028"><a xlink:title=" ">
<polygon fill="#e0e0e0" stroke="#999999" points="2412,-19 2329,-19 2329,0 2412,0 2412,-19"/>
<text text-anchor="middle" x="2370.5" y="-7" font-family="Helvetica,sans-Serif" font-size="10.00">QLatin1String</text>
</a>
</g>
</g>
<!-- Node23&#45;&gt;Node28 -->
<g id="edge32_Node000023_Node000028" class="edge">
<title>Node23&#45;&gt;Node28</title>
<g id="a_edge32_Node000023_Node000028"><a xlink:title=" ">
<path fill="none" stroke="#63b8ff" d="M1634.6,-62.32C1753.12,-59.16 2056.07,-48.74 2318.7,-19.09"/>
<polygon fill="#63b8ff" stroke="#63b8ff" points="2319.27,-22.55 2328.81,-17.93 2318.47,-15.59 2319.27,-22.55"/>
</a>
</g>
</g>
<!-- Node29 -->
<g id="Node000029" class="node">
<title>Node29</title>
<g id="a_Node000029"><a xlink:title=" ">
<polygon fill="#e0e0e0" stroke="#999999" points="1251.5,-19 1147.5,-19 1147.5,0 1251.5,0 1251.5,-19"/>
<text text-anchor="middle" x="1199.5" y="-7" font-family="Helvetica,sans-Serif" font-size="10.00">QStaticStringData</text>
</a>
</g>
</g>
<!-- Node23&#45;&gt;Node29 -->
<g id="edge33_Node000023_Node000029" class="edge">
<title>Node23&#45;&gt;Node29</title>
<g id="a_edge33_Node000023_Node000029"><a xlink:title=" ">
<path fill="none" stroke="#63b8ff" d="M1532.31,-56.47C1470.67,-48 1363.7,-33.29 1261.89,-19.19"/>
<polygon fill="#63b8ff" stroke="#63b8ff" points="1262.13,-15.69 1251.74,-17.79 1261.17,-22.62 1262.13,-15.69"/>
</a>
</g>
</g>
<!-- Node30 -->
<g id="Node000030" class="node">
<title>Node30</title>
<g id="a_Node000030"><a xlink:title=" ">
<polygon fill="#e0e0e0" stroke="#999999" points="1345.5,-19 1269.5,-19 1269.5,0 1345.5,0 1345.5,-19"/>
<text text-anchor="middle" x="1307.5" y="-7" font-family="Helvetica,sans-Serif" font-size="10.00">QStringData</text>
</a>
</g>
</g>
<!-- Node23&#45;&gt;Node30 -->
<g id="edge35_Node000023_Node000030" class="edge">
<title>Node23&#45;&gt;Node30</title>
<g id="a_edge35_Node000023_Node000030"><a xlink:title=" ">
<path fill="none" stroke="#63b8ff" d="M1539.16,-54.98C1488.87,-45.33 1407.17,-29.64 1355.44,-19.71"/>
<polygon fill="#63b8ff" stroke="#63b8ff" points="1356,-16.25 1345.51,-17.8 1354.68,-23.12 1356,-16.25"/>
</a>
</g>
</g>
<!-- Node31 -->
<g id="Node000031" class="node">
<title>Node31</title>
<g id="a_Node000031"><a xlink:title=" ">
<polygon fill="#e0e0e0" stroke="#999999" points="1453,-19 1364,-19 1364,0 1453,0 1453,-19"/>
<text text-anchor="middle" x="1408.5" y="-7" font-family="Helvetica,sans-Serif" font-size="10.00">QStringDataPtr</text>
</a>
</g>
</g>
<!-- Node23&#45;&gt;Node31 -->
<g id="edge36_Node000023_Node000031" class="edge">
<title>Node23&#45;&gt;Node31</title>
<g id="a_edge36_Node000023_Node000031"><a xlink:title=" ">
<path fill="none" stroke="#63b8ff" d="M1555.38,-54.98C1525.88,-46.05 1479.31,-31.94 1446.53,-22.02"/>
<polygon fill="#63b8ff" stroke="#63b8ff" points="1447.42,-18.63 1436.84,-19.08 1445.39,-25.33 1447.42,-18.63"/>
</a>
</g>
</g>
<!-- Node32 -->
<g id="Node000032" class="node">
<title>Node32</title>
<g id="a_Node000032"><a xlink:title=" ">
<polygon fill="#e0e0e0" stroke="#999999" points="1526.5,-19 1470.5,-19 1470.5,0 1526.5,0 1526.5,-19"/>
<text text-anchor="middle" x="1498.5" y="-7" font-family="Helvetica,sans-Serif" font-size="10.00">QLocale</text>
</a>
</g>
</g>
<!-- Node23&#45;&gt;Node32 -->
<g id="edge38_Node000023_Node000032" class="edge">
<title>Node23&#45;&gt;Node32</title>
<g id="a_edge38_Node000023_Node000032"><a xlink:title=" ">
<path fill="none" stroke="#63b8ff" d="M1569.84,-54.98C1556.66,-46.77 1536.47,-34.18 1520.93,-24.49"/>
<polygon fill="#63b8ff" stroke="#63b8ff" points="1522.74,-21.49 1512.41,-19.17 1519.04,-27.43 1522.74,-21.49"/>
</a>
</g>
</g>
<!-- Node33 -->
<g id="Node000033" class="node">
<title>Node33</title>
<g id="a_Node000033"><a xlink:title=" ">
<polygon fill="#e0e0e0" stroke="#999999" points="1622,-19 1545,-19 1545,0 1622,0 1622,-19"/>
<text text-anchor="middle" x="1583.5" y="-7" font-family="Helvetica,sans-Serif" font-size="10.00">../ifc/ifcdef.h</text>
</a>
</g>
</g>
<!-- Node23&#45;&gt;Node33 -->
<g id="edge39_Node000023_Node000033" class="edge">
<title>Node23&#45;&gt;Node33</title>
<g id="a_edge39_Node000023_Node000033"><a xlink:title=" ">
<path fill="none" stroke="#63b8ff" d="M1583.5,-54.75C1583.5,-47.8 1583.5,-37.85 1583.5,-29.13"/>
<polygon fill="#63b8ff" stroke="#63b8ff" points="1587,-29.09 1583.5,-19.09 1580,-29.09 1587,-29.09"/>
</a>
</g>
</g>
<!-- Node23&#45;&gt;Node34 -->
<g id="edge40_Node000023_Node000034" class="edge">
<title>Node23&#45;&gt;Node34</title>
<g id="a_edge40_Node000023_Node000034"><a xlink:title=" ">
<path fill="none" stroke="#63b8ff" d="M1532.23,-59.05C1414.16,-48.8 1129.36,-24.08 1071.66,-18.65"/>
<polygon fill="#63b8ff" stroke="#63b8ff" points="1071.95,-15.16 1061.66,-17.64 1071.26,-22.12 1071.95,-15.16"/>
</a>
</g>
</g>
<!-- Node35 -->
<g id="Node000035" class="node">
<title>Node35</title>
<g id="a_Node000035"><a xlink:title=" ">
<polygon fill="#e0e0e0" stroke="#999999" points="1757,-19 1640,-19 1640,0 1757,0 1757,-19"/>
<text text-anchor="middle" x="1698.5" y="-7" font-family="Helvetica,sans-Serif" font-size="10.00">../vmisc/diagnostic.h</text>
</a>
</g>
</g>
<!-- Node23&#45;&gt;Node35 -->
<g id="edge41_Node000023_Node000035" class="edge">
<title>Node23&#45;&gt;Node35</title>
<g id="a_edge41_Node000023_Node000035"><a xlink:title=" ">
<path fill="none" stroke="#63b8ff" d="M1601.98,-54.98C1620.48,-46.46 1649.18,-33.23 1670.48,-23.41"/>
<polygon fill="#63b8ff" stroke="#63b8ff" points="1672.07,-26.53 1679.69,-19.17 1669.14,-20.18 1672.07,-26.53"/>
</a>
</g>
</g>
<!-- Node36 -->
<g id="Node000036" class="node">
<title>Node36</title>
<g id="a_Node000036"><a xlink:title=" ">
<polygon fill="#e0e0e0" stroke="#999999" points="1878,-19 1775,-19 1775,0 1878,0 1878,-19"/>
<text text-anchor="middle" x="1826.5" y="-7" font-family="Helvetica,sans-Serif" font-size="10.00">../vmisc/logging.h</text>
</a>
</g>
</g>
<!-- Node23&#45;&gt;Node36 -->
<g id="edge42_Node000023_Node000036" class="edge">
<title>Node23&#45;&gt;Node36</title>
<g id="a_edge42_Node000023_Node000036"><a xlink:title=" ">
<path fill="none" stroke="#63b8ff" d="M1622.54,-54.98C1664.58,-45.82 1731.54,-31.21 1777.18,-21.26"/>
<polygon fill="#63b8ff" stroke="#63b8ff" points="1778.13,-24.63 1787.15,-19.08 1776.64,-17.79 1778.13,-24.63"/>
</a>
</g>
</g>
<!-- Node37&#45;&gt;Node8 -->
<g id="edge44_Node000037_Node000008" class="edge">
<title>Node37&#45;&gt;Node8</title>
<g id="a_edge44_Node000037_Node000008"><a xlink:title=" ">
<path fill="none" stroke="#63b8ff" d="M824.9,-54.75C818.34,-47.18 808.68,-36.05 800.69,-26.84"/>
<polygon fill="#63b8ff" stroke="#63b8ff" points="803.15,-24.35 793.95,-19.09 797.87,-28.94 803.15,-24.35"/>
</a>
</g>
</g>
<!-- Node37&#45;&gt;Node11 -->
<g id="edge45_Node000037_Node000011" class="edge">
<title>Node37&#45;&gt;Node11</title>
<g id="a_edge45_Node000037_Node000011"><a xlink:title=" ">
<path fill="none" stroke="#63b8ff" d="M841.09,-54.75C848.66,-47.03 859.88,-35.6 869.01,-26.28"/>
<polygon fill="#63b8ff" stroke="#63b8ff" points="871.57,-28.68 876.07,-19.09 866.57,-23.78 871.57,-28.68"/>
</a>
</g>
</g>
<!-- Node37&#45;&gt;Node34 -->
<g id="edge46_Node000037_Node000034" class="edge">
<title>Node37&#45;&gt;Node34</title>
<g id="a_edge46_Node000037_Node000034"><a xlink:title=" ">
<path fill="none" stroke="#63b8ff" d="M862.71,-54.98C894.54,-46.01 944.86,-31.82 980.1,-21.89"/>
<polygon fill="#63b8ff" stroke="#63b8ff" points="981.38,-25.16 990.06,-19.08 979.48,-18.43 981.38,-25.16"/>
</a>
</g>
</g>
</g>
</svg>

<g id="navigator" transform="translate(0 0)" fill="#404254">
  <rect fill="#f2f5e9" fill-opacity="0.5" stroke="#606060" stroke-width=".5" x="0" y="0" width="60" height="60"/>
  <use id="zoomplus" xlink:href="#zoomPlus" x="17" y="9" onmousedown="handleZoom(evt,'in')"/>
  <use id="zoomminus" xlink:href="#zoomMin" x="42" y="9" onmousedown="handleZoom(evt,'out')"/>
  <use id="reset" xlink:href="#resetDef" x="30" y="36" onmousedown="handleReset()"/>
   <use id="arrowup" xlink:href="#arrowUp" x="0" y="0" onmousedown="handlePan(0,-1)"/>
  <use id="arrowright" xlink:href="#arrowRight" x="0" y="0" onmousedown="handlePan(1,0)"/>
  <use id="arrowdown" xlink:href="#arrowDown" x="0" y="0" onmousedown="handlePan(0,1)"/>
  <use id="arrowleft" xlink:href="#arrowLeft" x="0" y="0" onmousedown="handlePan(-1,0)"/>
</g>
<svg viewBox="0 0 15 15" width="100%" height="30px" preserveAspectRatio="xMaxYMin meet">
 <g id="arrow_out" transform="scale(0.3 0.3)">
  <a xlink:href="export__format__combobox_8h__incl_org.svg" target="_base">
   <rect id="button" ry="5" rx="5" y="6" x="6" height="38" width="38"
        fill="#f2f5e9" fill-opacity="0.5" stroke="#606060" stroke-width="1.0"/>
   <path id="arrow"
     d="M 11.500037,31.436501 C 11.940474,20.09759 22.043105,11.32322 32.158766,21.979434 L 37.068811,17.246167 C 37.068811,17.246167 37.088388,32 37.088388,32 L 22.160133,31.978069 C 22.160133,31.978069 26.997745,27.140456 26.997745,27.140456 C 18.528582,18.264221 13.291696,25.230495 11.500037,31.436501 z"
     style="fill:#404040;"/>
  </a>
 </g>
</svg>

<style type='text/css'>
<![CDATA[
[data-mouse-over-selected='false'] { opacity: 0.7; }
[data-mouse-over-selected='true']  { opacity: 1.0; }
]]>
</style>
<script type="application/ecmascript"><![CDATA[
document.addEventListener('DOMContentLoaded', (event) => {
  highlightEdges();
  highlightAdjacentNodes();
});
]]></script>
</svg>
