<?xml version="1.0" encoding="UTF-8" standalone="no"?>
<!DOCTYPE svg PUBLIC "-//W3C//DTD SVG 1.1//EN"
 "http://www.w3.org/Graphics/SVG/1.1/DTD/svg11.dtd">
<!-- Generated by graphviz version 2.43.0 (0)
 -->
<!-- Title: VInternalVariable Pages: 1 -->
<svg width="788pt" height="842pt"
 viewBox="0.00 0.00 788.00 842.00" xmlns="http://www.w3.org/2000/svg" xmlns:xlink="http://www.w3.org/1999/xlink">
<g id="graph0" class="graph" transform="scale(1 1) rotate(0) translate(4 838)">
<title>VInternalVariable</title>
<!-- Node1 -->
<g id="Node000001" class="node">
<title>Node1</title>
<g id="a_Node000001"><a xlink:title=" ">
<polygon fill="#999999" stroke="transparent" points="503.5,-834 382.5,-834 382.5,-590 503.5,-590 503.5,-834"/>
<text text-anchor="start" x="401" y="-822" font-family="Helvetica,sans-Serif" font-size="10.00">VInternalVariable</text>
<text text-anchor="start" x="389.5" y="-807" font-family="Helvetica,sans-Serif" font-size="10.00">&#45;</text>
<text text-anchor="start" x="400" y="-807" font-family="Helvetica,sans-Serif" font-size="10.00">d</text>
<text text-anchor="start" x="387" y="-792" font-family="Helvetica,sans-Serif" font-size="10.00">+</text>
<text text-anchor="start" x="400" y="-792" font-family="Helvetica,sans-Serif" font-size="10.00">VInternalVariable()</text>
<text text-anchor="start" x="387" y="-777" font-family="Helvetica,sans-Serif" font-size="10.00">+</text>
<text text-anchor="start" x="400" y="-777" font-family="Helvetica,sans-Serif" font-size="10.00">VInternalVariable()</text>
<text text-anchor="start" x="387" y="-762" font-family="Helvetica,sans-Serif" font-size="10.00">+</text>
<text text-anchor="start" x="400" y="-762" font-family="Helvetica,sans-Serif" font-size="10.00">~VInternalVariable()</text>
<text text-anchor="start" x="387" y="-747" font-family="Helvetica,sans-Serif" font-size="10.00">+</text>
<text text-anchor="start" x="400" y="-747" font-family="Helvetica,sans-Serif" font-size="10.00">operator=()</text>
<text text-anchor="start" x="387" y="-732" font-family="Helvetica,sans-Serif" font-size="10.00">+</text>
<text text-anchor="start" x="400" y="-732" font-family="Helvetica,sans-Serif" font-size="10.00">Swap()</text>
<text text-anchor="start" x="387" y="-717" font-family="Helvetica,sans-Serif" font-size="10.00">+</text>
<text text-anchor="start" x="400" y="-717" font-family="Helvetica,sans-Serif" font-size="10.00">GetValue()</text>
<text text-anchor="start" x="387" y="-702" font-family="Helvetica,sans-Serif" font-size="10.00">+</text>
<text text-anchor="start" x="400" y="-702" font-family="Helvetica,sans-Serif" font-size="10.00">GetValue()</text>
<text text-anchor="start" x="387" y="-687" font-family="Helvetica,sans-Serif" font-size="10.00">+</text>
<text text-anchor="start" x="400" y="-687" font-family="Helvetica,sans-Serif" font-size="10.00">GetName()</text>
<text text-anchor="start" x="387" y="-672" font-family="Helvetica,sans-Serif" font-size="10.00">+</text>
<text text-anchor="start" x="400" y="-672" font-family="Helvetica,sans-Serif" font-size="10.00">SetName()</text>
<text text-anchor="start" x="387" y="-657" font-family="Helvetica,sans-Serif" font-size="10.00">+</text>
<text text-anchor="start" x="400" y="-657" font-family="Helvetica,sans-Serif" font-size="10.00">GetType()</text>
<text text-anchor="start" x="387" y="-642" font-family="Helvetica,sans-Serif" font-size="10.00">+</text>
<text text-anchor="start" x="400" y="-642" font-family="Helvetica,sans-Serif" font-size="10.00">SetType()</text>
<text text-anchor="start" x="387" y="-627" font-family="Helvetica,sans-Serif" font-size="10.00">+</text>
<text text-anchor="start" x="400" y="-627" font-family="Helvetica,sans-Serif" font-size="10.00">Filter()</text>
<text text-anchor="start" x="387" y="-612" font-family="Helvetica,sans-Serif" font-size="10.00">+</text>
<text text-anchor="start" x="400" y="-612" font-family="Helvetica,sans-Serif" font-size="10.00">isNotUsed()</text>
<text text-anchor="start" x="387" y="-597" font-family="Helvetica,sans-Serif" font-size="10.00">#</text>
<text text-anchor="start" x="400" y="-597" font-family="Helvetica,sans-Serif" font-size="10.00">SetValue()</text>
<polygon fill="#666666" stroke="#666666" points="383,-817 383,-817 504,-817 504,-817 383,-817"/>
<polygon fill="#666666" stroke="#666666" points="383,-802 383,-802 398,-802 398,-802 383,-802"/>
<polygon fill="#666666" stroke="#666666" points="398,-802 398,-802 504,-802 504,-802 398,-802"/>
<polygon fill="none" stroke="#666666" points="382.5,-590 382.5,-834 503.5,-834 503.5,-590 382.5,-590"/>
</a>
</g>
</g>
<!-- Node2 -->
<g id="Node000002" class="node">
<title>Node2</title>
<g id="a_Node000002"><a xlink:href="../../d3/d5a/classVCurveVariable.html" target="_top" xlink:title=" ">
<polygon fill="white" stroke="transparent" points="320,-554 208,-554 208,-355 320,-355 320,-554"/>
<text text-anchor="start" x="226" y="-541.5" font-family="Helvetica,sans-Serif" font-size="10.00">VCurveVariable</text>
<text text-anchor="start" x="214.5" y="-526.5" font-family="Helvetica,sans-Serif" font-size="10.00">&#45;</text>
<text text-anchor="start" x="225" y="-526.5" font-family="Helvetica,sans-Serif" font-size="10.00">d</text>
<text text-anchor="start" x="212" y="-511.5" font-family="Helvetica,sans-Serif" font-size="10.00">+</text>
<text text-anchor="start" x="225" y="-511.5" font-family="Helvetica,sans-Serif" font-size="10.00">VCurveVariable()</text>
<text text-anchor="start" x="212" y="-496.5" font-family="Helvetica,sans-Serif" font-size="10.00">+</text>
<text text-anchor="start" x="225" y="-496.5" font-family="Helvetica,sans-Serif" font-size="10.00">VCurveVariable()</text>
<text text-anchor="start" x="212" y="-481.5" font-family="Helvetica,sans-Serif" font-size="10.00">+</text>
<text text-anchor="start" x="225" y="-481.5" font-family="Helvetica,sans-Serif" font-size="10.00">VCurveVariable()</text>
<text text-anchor="start" x="212" y="-466.5" font-family="Helvetica,sans-Serif" font-size="10.00">+</text>
<text text-anchor="start" x="225" y="-466.5" font-family="Helvetica,sans-Serif" font-size="10.00">~VCurveVariable()</text>
<text text-anchor="start" x="212" y="-451.5" font-family="Helvetica,sans-Serif" font-size="10.00">+</text>
<text text-anchor="start" x="225" y="-451.5" font-family="Helvetica,sans-Serif" font-size="10.00">operator=()</text>
<text text-anchor="start" x="212" y="-436.5" font-family="Helvetica,sans-Serif" font-size="10.00">+</text>
<text text-anchor="start" x="225" y="-436.5" font-family="Helvetica,sans-Serif" font-size="10.00">Swap()</text>
<text text-anchor="start" x="212" y="-421.5" font-family="Helvetica,sans-Serif" font-size="10.00">+</text>
<text text-anchor="start" x="225" y="-421.5" font-family="Helvetica,sans-Serif" font-size="10.00">Filter()</text>
<text text-anchor="start" x="212" y="-406.5" font-family="Helvetica,sans-Serif" font-size="10.00">+</text>
<text text-anchor="start" x="225" y="-406.5" font-family="Helvetica,sans-Serif" font-size="10.00">GetId()</text>
<text text-anchor="start" x="212" y="-391.5" font-family="Helvetica,sans-Serif" font-size="10.00">+</text>
<text text-anchor="start" x="225" y="-391.5" font-family="Helvetica,sans-Serif" font-size="10.00">SetId()</text>
<text text-anchor="start" x="212" y="-376.5" font-family="Helvetica,sans-Serif" font-size="10.00">+</text>
<text text-anchor="start" x="225" y="-376.5" font-family="Helvetica,sans-Serif" font-size="10.00">GetParentId()</text>
<text text-anchor="start" x="212" y="-361.5" font-family="Helvetica,sans-Serif" font-size="10.00">+</text>
<text text-anchor="start" x="225" y="-361.5" font-family="Helvetica,sans-Serif" font-size="10.00">SetParentId()</text>
<polygon fill="#666666" stroke="#666666" points="208,-536.5 208,-536.5 320,-536.5 320,-536.5 208,-536.5"/>
<polygon fill="#666666" stroke="#666666" points="208,-521.5 208,-521.5 223,-521.5 223,-521.5 208,-521.5"/>
<polygon fill="#666666" stroke="#666666" points="223,-521.5 223,-521.5 320,-521.5 320,-521.5 223,-521.5"/>
<polygon fill="none" stroke="#666666" points="208,-355 208,-554 320,-554 320,-355 208,-355"/>
</a>
</g>
</g>
<!-- Node1&#45;&gt;Node2 -->
<g id="edge1_Node000001_Node000002" class="edge">
<title>Node1&#45;&gt;Node2</title>
<g id="a_edge1_Node000001_Node000002"><a xlink:title=" ">
<path fill="none" stroke="#63b8ff" d="M376.28,-620.57C360.58,-598.89 344.05,-575.73 329,-554 326.08,-549.79 323.12,-545.46 320.14,-541.08"/>
<polygon fill="none" stroke="#63b8ff" points="373.54,-622.75 382.25,-628.79 379.21,-618.64 373.54,-622.75"/>
</a>
</g>
</g>
<!-- Node7 -->
<g id="Node000007" class="node">
<title>Node7</title>
<g id="a_Node000007"><a xlink:href="../../d6/d57/classVLengthLine.html" target="_top" xlink:title=" ">
<polygon fill="white" stroke="transparent" points="435.5,-546.5 338.5,-546.5 338.5,-362.5 435.5,-362.5 435.5,-546.5"/>
<text text-anchor="start" x="357" y="-534.5" font-family="Helvetica,sans-Serif" font-size="10.00">VLengthLine</text>
<text text-anchor="start" x="345.5" y="-519.5" font-family="Helvetica,sans-Serif" font-size="10.00">&#45;</text>
<text text-anchor="start" x="356" y="-519.5" font-family="Helvetica,sans-Serif" font-size="10.00">d</text>
<text text-anchor="start" x="343" y="-504.5" font-family="Helvetica,sans-Serif" font-size="10.00">+</text>
<text text-anchor="start" x="356" y="-504.5" font-family="Helvetica,sans-Serif" font-size="10.00">VLengthLine()</text>
<text text-anchor="start" x="343" y="-489.5" font-family="Helvetica,sans-Serif" font-size="10.00">+</text>
<text text-anchor="start" x="356" y="-489.5" font-family="Helvetica,sans-Serif" font-size="10.00">VLengthLine()</text>
<text text-anchor="start" x="343" y="-474.5" font-family="Helvetica,sans-Serif" font-size="10.00">+</text>
<text text-anchor="start" x="356" y="-474.5" font-family="Helvetica,sans-Serif" font-size="10.00">VLengthLine()</text>
<text text-anchor="start" x="343" y="-459.5" font-family="Helvetica,sans-Serif" font-size="10.00">+</text>
<text text-anchor="start" x="356" y="-459.5" font-family="Helvetica,sans-Serif" font-size="10.00">~VLengthLine()</text>
<text text-anchor="start" x="343" y="-444.5" font-family="Helvetica,sans-Serif" font-size="10.00">+</text>
<text text-anchor="start" x="356" y="-444.5" font-family="Helvetica,sans-Serif" font-size="10.00">operator=()</text>
<text text-anchor="start" x="343" y="-429.5" font-family="Helvetica,sans-Serif" font-size="10.00">+</text>
<text text-anchor="start" x="356" y="-429.5" font-family="Helvetica,sans-Serif" font-size="10.00">Swap()</text>
<text text-anchor="start" x="343" y="-414.5" font-family="Helvetica,sans-Serif" font-size="10.00">+</text>
<text text-anchor="start" x="356" y="-414.5" font-family="Helvetica,sans-Serif" font-size="10.00">Filter()</text>
<text text-anchor="start" x="343" y="-399.5" font-family="Helvetica,sans-Serif" font-size="10.00">+</text>
<text text-anchor="start" x="356" y="-399.5" font-family="Helvetica,sans-Serif" font-size="10.00">SetValue()</text>
<text text-anchor="start" x="343" y="-384.5" font-family="Helvetica,sans-Serif" font-size="10.00">+</text>
<text text-anchor="start" x="356" y="-384.5" font-family="Helvetica,sans-Serif" font-size="10.00">GetP1Id()</text>
<text text-anchor="start" x="343" y="-369.5" font-family="Helvetica,sans-Serif" font-size="10.00">+</text>
<text text-anchor="start" x="356" y="-369.5" font-family="Helvetica,sans-Serif" font-size="10.00">GetP2Id()</text>
<polygon fill="#666666" stroke="#666666" points="339,-529.5 339,-529.5 436,-529.5 436,-529.5 339,-529.5"/>
<polygon fill="#666666" stroke="#666666" points="339,-514.5 339,-514.5 354,-514.5 354,-514.5 339,-514.5"/>
<polygon fill="#666666" stroke="#666666" points="354,-514.5 354,-514.5 436,-514.5 436,-514.5 354,-514.5"/>
<polygon fill="none" stroke="#666666" points="338.5,-362.5 338.5,-546.5 435.5,-546.5 435.5,-362.5 338.5,-362.5"/>
</a>
</g>
</g>
<!-- Node1&#45;&gt;Node7 -->
<g id="edge6_Node000001_Node000007" class="edge">
<title>Node1&#45;&gt;Node7</title>
<g id="a_edge6_Node000001_Node000007"><a xlink:title=" ">
<path fill="none" stroke="#63b8ff" d="M414.3,-580.07C411.83,-568.78 409.36,-557.53 406.98,-546.67"/>
<polygon fill="none" stroke="#63b8ff" points="410.92,-580.97 416.48,-589.98 417.75,-579.47 410.92,-580.97"/>
</a>
</g>
</g>
<!-- Node8 -->
<g id="Node000008" class="node">
<title>Node8</title>
<g id="a_Node000008"><a xlink:href="../../d1/d88/classVLineAngle.html" target="_top" xlink:title=" ">
<polygon fill="white" stroke="transparent" points="546,-546.5 454,-546.5 454,-362.5 546,-362.5 546,-546.5"/>
<text text-anchor="start" x="472.5" y="-534.5" font-family="Helvetica,sans-Serif" font-size="10.00">VLineAngle</text>
<text text-anchor="start" x="460.5" y="-519.5" font-family="Helvetica,sans-Serif" font-size="10.00">&#45;</text>
<text text-anchor="start" x="471" y="-519.5" font-family="Helvetica,sans-Serif" font-size="10.00">d</text>
<text text-anchor="start" x="458" y="-504.5" font-family="Helvetica,sans-Serif" font-size="10.00">+</text>
<text text-anchor="start" x="471" y="-504.5" font-family="Helvetica,sans-Serif" font-size="10.00">VLineAngle()</text>
<text text-anchor="start" x="458" y="-489.5" font-family="Helvetica,sans-Serif" font-size="10.00">+</text>
<text text-anchor="start" x="471" y="-489.5" font-family="Helvetica,sans-Serif" font-size="10.00">VLineAngle()</text>
<text text-anchor="start" x="458" y="-474.5" font-family="Helvetica,sans-Serif" font-size="10.00">+</text>
<text text-anchor="start" x="471" y="-474.5" font-family="Helvetica,sans-Serif" font-size="10.00">VLineAngle()</text>
<text text-anchor="start" x="458" y="-459.5" font-family="Helvetica,sans-Serif" font-size="10.00">+</text>
<text text-anchor="start" x="471" y="-459.5" font-family="Helvetica,sans-Serif" font-size="10.00">~VLineAngle()</text>
<text text-anchor="start" x="458" y="-444.5" font-family="Helvetica,sans-Serif" font-size="10.00">+</text>
<text text-anchor="start" x="471" y="-444.5" font-family="Helvetica,sans-Serif" font-size="10.00">operator=()</text>
<text text-anchor="start" x="458" y="-429.5" font-family="Helvetica,sans-Serif" font-size="10.00">+</text>
<text text-anchor="start" x="471" y="-429.5" font-family="Helvetica,sans-Serif" font-size="10.00">Swap()</text>
<text text-anchor="start" x="458" y="-414.5" font-family="Helvetica,sans-Serif" font-size="10.00">+</text>
<text text-anchor="start" x="471" y="-414.5" font-family="Helvetica,sans-Serif" font-size="10.00">Filter()</text>
<text text-anchor="start" x="458" y="-399.5" font-family="Helvetica,sans-Serif" font-size="10.00">+</text>
<text text-anchor="start" x="471" y="-399.5" font-family="Helvetica,sans-Serif" font-size="10.00">SetValue()</text>
<text text-anchor="start" x="458" y="-384.5" font-family="Helvetica,sans-Serif" font-size="10.00">+</text>
<text text-anchor="start" x="471" y="-384.5" font-family="Helvetica,sans-Serif" font-size="10.00">GetP1Id()</text>
<text text-anchor="start" x="458" y="-369.5" font-family="Helvetica,sans-Serif" font-size="10.00">+</text>
<text text-anchor="start" x="471" y="-369.5" font-family="Helvetica,sans-Serif" font-size="10.00">GetP2Id()</text>
<polygon fill="#666666" stroke="#666666" points="454,-529.5 454,-529.5 546,-529.5 546,-529.5 454,-529.5"/>
<polygon fill="#666666" stroke="#666666" points="454,-514.5 454,-514.5 469,-514.5 469,-514.5 454,-514.5"/>
<polygon fill="#666666" stroke="#666666" points="469,-514.5 469,-514.5 546,-514.5 546,-514.5 469,-514.5"/>
<polygon fill="none" stroke="#666666" points="454,-362.5 454,-546.5 546,-546.5 546,-362.5 454,-362.5"/>
</a>
</g>
</g>
<!-- Node1&#45;&gt;Node8 -->
<g id="edge7_Node000001_Node000008" class="edge">
<title>Node1&#45;&gt;Node8</title>
<g id="a_edge7_Node000001_Node000008"><a xlink:title=" ">
<path fill="none" stroke="#63b8ff" d="M472.21,-580.07C474.73,-568.78 477.24,-557.53 479.66,-546.67"/>
<polygon fill="none" stroke="#63b8ff" points="468.76,-579.46 470,-589.98 475.59,-580.99 468.76,-579.46"/>
</a>
</g>
</g>
<!-- Node9 -->
<g id="Node000009" class="node">
<title>Node9</title>
<g id="a_Node000009"><a xlink:href="../../da/d49/classVVariable.html" target="_top" xlink:title=" ">
<polygon fill="white" stroke="transparent" points="666,-531.5 564,-531.5 564,-377.5 666,-377.5 666,-531.5"/>
<text text-anchor="start" x="591.5" y="-519.5" font-family="Helvetica,sans-Serif" font-size="10.00">VVariable</text>
<text text-anchor="start" x="570.5" y="-504.5" font-family="Helvetica,sans-Serif" font-size="10.00">&#45;</text>
<text text-anchor="start" x="581" y="-504.5" font-family="Helvetica,sans-Serif" font-size="10.00">d</text>
<text text-anchor="start" x="568" y="-489.5" font-family="Helvetica,sans-Serif" font-size="10.00">+</text>
<text text-anchor="start" x="581" y="-489.5" font-family="Helvetica,sans-Serif" font-size="10.00">VVariable()</text>
<text text-anchor="start" x="568" y="-474.5" font-family="Helvetica,sans-Serif" font-size="10.00">+</text>
<text text-anchor="start" x="581" y="-474.5" font-family="Helvetica,sans-Serif" font-size="10.00">VVariable()</text>
<text text-anchor="start" x="568" y="-459.5" font-family="Helvetica,sans-Serif" font-size="10.00">+</text>
<text text-anchor="start" x="581" y="-459.5" font-family="Helvetica,sans-Serif" font-size="10.00">VVariable()</text>
<text text-anchor="start" x="568" y="-444.5" font-family="Helvetica,sans-Serif" font-size="10.00">+</text>
<text text-anchor="start" x="581" y="-444.5" font-family="Helvetica,sans-Serif" font-size="10.00">~VVariable()</text>
<text text-anchor="start" x="568" y="-429.5" font-family="Helvetica,sans-Serif" font-size="10.00">+</text>
<text text-anchor="start" x="581" y="-429.5" font-family="Helvetica,sans-Serif" font-size="10.00">operator=()</text>
<text text-anchor="start" x="568" y="-414.5" font-family="Helvetica,sans-Serif" font-size="10.00">+</text>
<text text-anchor="start" x="581" y="-414.5" font-family="Helvetica,sans-Serif" font-size="10.00">Swap()</text>
<text text-anchor="start" x="568" y="-399.5" font-family="Helvetica,sans-Serif" font-size="10.00">+</text>
<text text-anchor="start" x="581" y="-399.5" font-family="Helvetica,sans-Serif" font-size="10.00">GetDescription()</text>
<text text-anchor="start" x="568" y="-384.5" font-family="Helvetica,sans-Serif" font-size="10.00">+</text>
<text text-anchor="start" x="581" y="-384.5" font-family="Helvetica,sans-Serif" font-size="10.00">SetDescription()</text>
<polygon fill="#666666" stroke="#666666" points="564,-514.5 564,-514.5 666,-514.5 666,-514.5 564,-514.5"/>
<polygon fill="#666666" stroke="#666666" points="564,-499.5 564,-499.5 579,-499.5 579,-499.5 564,-499.5"/>
<polygon fill="#666666" stroke="#666666" points="579,-499.5 579,-499.5 666,-499.5 666,-499.5 579,-499.5"/>
<polygon fill="none" stroke="#666666" points="564,-377.5 564,-531.5 666,-531.5 666,-377.5 564,-377.5"/>
</a>
</g>
</g>
<!-- Node1&#45;&gt;Node9 -->
<g id="edge8_Node000001_Node000009" class="edge">
<title>Node1&#45;&gt;Node9</title>
<g id="a_edge8_Node000001_Node000009"><a xlink:title=" ">
<path fill="none" stroke="#63b8ff" d="M509.52,-620.11C524.77,-598.64 540.69,-575.68 555,-554 559.74,-546.81 564.59,-539.26 569.36,-531.67"/>
<polygon fill="none" stroke="#63b8ff" points="506.67,-618.09 503.72,-628.27 512.37,-622.15 506.67,-618.09"/>
</a>
</g>
</g>
<!-- Node3 -->
<g id="Node000003" class="node">
<title>Node3</title>
<g id="a_Node000003"><a xlink:href="../../d1/dd4/classVArcRadius.html" target="_top" xlink:title=" ">
<polygon fill="white" stroke="transparent" points="92,-221.5 0,-221.5 0,-97.5 92,-97.5 92,-221.5"/>
<text text-anchor="start" x="18.5" y="-209.5" font-family="Helvetica,sans-Serif" font-size="10.00">VArcRadius</text>
<text text-anchor="start" x="44" y="-194.5" font-family="Helvetica,sans-Serif" font-size="10.00"> </text>
<text text-anchor="start" x="4" y="-179.5" font-family="Helvetica,sans-Serif" font-size="10.00">+</text>
<text text-anchor="start" x="17" y="-179.5" font-family="Helvetica,sans-Serif" font-size="10.00">VArcRadius()</text>
<text text-anchor="start" x="4" y="-164.5" font-family="Helvetica,sans-Serif" font-size="10.00">+</text>
<text text-anchor="start" x="17" y="-164.5" font-family="Helvetica,sans-Serif" font-size="10.00">VArcRadius()</text>
<text text-anchor="start" x="4" y="-149.5" font-family="Helvetica,sans-Serif" font-size="10.00">+</text>
<text text-anchor="start" x="17" y="-149.5" font-family="Helvetica,sans-Serif" font-size="10.00">VArcRadius()</text>
<text text-anchor="start" x="4" y="-134.5" font-family="Helvetica,sans-Serif" font-size="10.00">+</text>
<text text-anchor="start" x="17" y="-134.5" font-family="Helvetica,sans-Serif" font-size="10.00">VArcRadius()</text>
<text text-anchor="start" x="4" y="-119.5" font-family="Helvetica,sans-Serif" font-size="10.00">+</text>
<text text-anchor="start" x="17" y="-119.5" font-family="Helvetica,sans-Serif" font-size="10.00">operator=()</text>
<text text-anchor="start" x="4" y="-104.5" font-family="Helvetica,sans-Serif" font-size="10.00">+</text>
<text text-anchor="start" x="17" y="-104.5" font-family="Helvetica,sans-Serif" font-size="10.00">~VArcRadius()</text>
<polygon fill="#666666" stroke="#666666" points="0,-204.5 0,-204.5 92,-204.5 92,-204.5 0,-204.5"/>
<polygon fill="#666666" stroke="#666666" points="0,-189.5 0,-189.5 92,-189.5 92,-189.5 0,-189.5"/>
<polygon fill="none" stroke="#666666" points="0,-97.5 0,-221.5 92,-221.5 92,-97.5 0,-97.5"/>
</a>
</g>
</g>
<!-- Node2&#45;&gt;Node3 -->
<g id="edge2_Node000002_Node000003" class="edge">
<title>Node2&#45;&gt;Node3</title>
<g id="a_edge2_Node000002_Node000003"><a xlink:title=" ">
<path fill="none" stroke="#63b8ff" d="M199.39,-412.89C166.02,-389.07 126.97,-356.35 101,-319 80.8,-289.94 67.39,-252.76 58.87,-221.72"/>
<polygon fill="none" stroke="#63b8ff" points="197.54,-415.87 207.74,-418.75 201.56,-410.14 197.54,-415.87"/>
</a>
</g>
</g>
<!-- Node4 -->
<g id="Node000004" class="node">
<title>Node4</title>
<g id="a_Node000004"><a xlink:href="../../d1/ddd/classVCurveAngle.html" target="_top" xlink:title=" ">
<polygon fill="white" stroke="transparent" points="210,-221.5 110,-221.5 110,-97.5 210,-97.5 210,-221.5"/>
<text text-anchor="start" x="128" y="-209.5" font-family="Helvetica,sans-Serif" font-size="10.00">VCurveAngle</text>
<text text-anchor="start" x="158" y="-194.5" font-family="Helvetica,sans-Serif" font-size="10.00"> </text>
<text text-anchor="start" x="114" y="-179.5" font-family="Helvetica,sans-Serif" font-size="10.00">+</text>
<text text-anchor="start" x="127" y="-179.5" font-family="Helvetica,sans-Serif" font-size="10.00">VCurveAngle()</text>
<text text-anchor="start" x="114" y="-164.5" font-family="Helvetica,sans-Serif" font-size="10.00">+</text>
<text text-anchor="start" x="127" y="-164.5" font-family="Helvetica,sans-Serif" font-size="10.00">VCurveAngle()</text>
<text text-anchor="start" x="114" y="-149.5" font-family="Helvetica,sans-Serif" font-size="10.00">+</text>
<text text-anchor="start" x="127" y="-149.5" font-family="Helvetica,sans-Serif" font-size="10.00">VCurveAngle()</text>
<text text-anchor="start" x="114" y="-134.5" font-family="Helvetica,sans-Serif" font-size="10.00">+</text>
<text text-anchor="start" x="127" y="-134.5" font-family="Helvetica,sans-Serif" font-size="10.00">VCurveAngle()</text>
<text text-anchor="start" x="114" y="-119.5" font-family="Helvetica,sans-Serif" font-size="10.00">+</text>
<text text-anchor="start" x="127" y="-119.5" font-family="Helvetica,sans-Serif" font-size="10.00">operator=()</text>
<text text-anchor="start" x="114" y="-104.5" font-family="Helvetica,sans-Serif" font-size="10.00">+</text>
<text text-anchor="start" x="127" y="-104.5" font-family="Helvetica,sans-Serif" font-size="10.00">~VCurveAngle()</text>
<polygon fill="#666666" stroke="#666666" points="110,-204.5 110,-204.5 210,-204.5 210,-204.5 110,-204.5"/>
<polygon fill="#666666" stroke="#666666" points="110,-189.5 110,-189.5 210,-189.5 210,-189.5 110,-189.5"/>
<polygon fill="none" stroke="#666666" points="110,-97.5 110,-221.5 210,-221.5 210,-97.5 110,-97.5"/>
</a>
</g>
</g>
<!-- Node2&#45;&gt;Node4 -->
<g id="edge3_Node000002_Node000004" class="edge">
<title>Node2&#45;&gt;Node4</title>
<g id="a_edge3_Node000002_Node000004"><a xlink:title=" ">
<path fill="none" stroke="#63b8ff" d="M225.51,-345.07C210.74,-303.45 194.4,-257.43 181.74,-221.75"/>
<polygon fill="none" stroke="#63b8ff" points="222.29,-346.46 228.94,-354.71 228.89,-344.12 222.29,-346.46"/>
</a>
</g>
</g>
<!-- Node5 -->
<g id="Node000005" class="node">
<title>Node5</title>
<g id="a_Node000005"><a xlink:href="../../de/d77/classVCurveCLength.html" target="_top" xlink:title=" ">
<polygon fill="white" stroke="transparent" points="340,-221.5 228,-221.5 228,-97.5 340,-97.5 340,-221.5"/>
<text text-anchor="start" x="246" y="-209.5" font-family="Helvetica,sans-Serif" font-size="10.00">VCurveCLength</text>
<text text-anchor="start" x="282" y="-194.5" font-family="Helvetica,sans-Serif" font-size="10.00"> </text>
<text text-anchor="start" x="232" y="-179.5" font-family="Helvetica,sans-Serif" font-size="10.00">+</text>
<text text-anchor="start" x="245" y="-179.5" font-family="Helvetica,sans-Serif" font-size="10.00">VCurveCLength()</text>
<text text-anchor="start" x="232" y="-164.5" font-family="Helvetica,sans-Serif" font-size="10.00">+</text>
<text text-anchor="start" x="245" y="-164.5" font-family="Helvetica,sans-Serif" font-size="10.00">VCurveCLength()</text>
<text text-anchor="start" x="232" y="-149.5" font-family="Helvetica,sans-Serif" font-size="10.00">+</text>
<text text-anchor="start" x="245" y="-149.5" font-family="Helvetica,sans-Serif" font-size="10.00">VCurveCLength()</text>
<text text-anchor="start" x="232" y="-134.5" font-family="Helvetica,sans-Serif" font-size="10.00">+</text>
<text text-anchor="start" x="245" y="-134.5" font-family="Helvetica,sans-Serif" font-size="10.00">VCurveCLength()</text>
<text text-anchor="start" x="232" y="-119.5" font-family="Helvetica,sans-Serif" font-size="10.00">+</text>
<text text-anchor="start" x="245" y="-119.5" font-family="Helvetica,sans-Serif" font-size="10.00">operator=()</text>
<text text-anchor="start" x="232" y="-104.5" font-family="Helvetica,sans-Serif" font-size="10.00">+</text>
<text text-anchor="start" x="245" y="-104.5" font-family="Helvetica,sans-Serif" font-size="10.00">~VCurveCLength()</text>
<polygon fill="#666666" stroke="#666666" points="228,-204.5 228,-204.5 340,-204.5 340,-204.5 228,-204.5"/>
<polygon fill="#666666" stroke="#666666" points="228,-189.5 228,-189.5 340,-189.5 340,-189.5 228,-189.5"/>
<polygon fill="none" stroke="#666666" points="228,-97.5 228,-221.5 340,-221.5 340,-97.5 228,-97.5"/>
</a>
</g>
</g>
<!-- Node2&#45;&gt;Node5 -->
<g id="edge4_Node000002_Node000005" class="edge">
<title>Node2&#45;&gt;Node5</title>
<g id="a_edge4_Node000002_Node000005"><a xlink:title=" ">
<path fill="none" stroke="#63b8ff" d="M271.44,-344.55C274.27,-303.07 277.39,-257.28 279.82,-221.75"/>
<polygon fill="none" stroke="#63b8ff" points="267.93,-344.5 270.74,-354.71 274.92,-344.97 267.93,-344.5"/>
</a>
</g>
</g>
<!-- Node6 -->
<g id="Node000006" class="node">
<title>Node6</title>
<g id="a_Node000006"><a xlink:href="../../d8/d38/classVCurveLength.html" target="_top" xlink:title=" ">
<polygon fill="white" stroke="transparent" points="464,-221.5 358,-221.5 358,-97.5 464,-97.5 464,-221.5"/>
<text text-anchor="start" x="376.5" y="-209.5" font-family="Helvetica,sans-Serif" font-size="10.00">VCurveLength</text>
<text text-anchor="start" x="409" y="-194.5" font-family="Helvetica,sans-Serif" font-size="10.00"> </text>
<text text-anchor="start" x="362" y="-179.5" font-family="Helvetica,sans-Serif" font-size="10.00">+</text>
<text text-anchor="start" x="375" y="-179.5" font-family="Helvetica,sans-Serif" font-size="10.00">VCurveLength()</text>
<text text-anchor="start" x="362" y="-164.5" font-family="Helvetica,sans-Serif" font-size="10.00">+</text>
<text text-anchor="start" x="375" y="-164.5" font-family="Helvetica,sans-Serif" font-size="10.00">VCurveLength()</text>
<text text-anchor="start" x="362" y="-149.5" font-family="Helvetica,sans-Serif" font-size="10.00">+</text>
<text text-anchor="start" x="375" y="-149.5" font-family="Helvetica,sans-Serif" font-size="10.00">VCurveLength()</text>
<text text-anchor="start" x="362" y="-134.5" font-family="Helvetica,sans-Serif" font-size="10.00">+</text>
<text text-anchor="start" x="375" y="-134.5" font-family="Helvetica,sans-Serif" font-size="10.00">VCurveLength()</text>
<text text-anchor="start" x="362" y="-119.5" font-family="Helvetica,sans-Serif" font-size="10.00">+</text>
<text text-anchor="start" x="375" y="-119.5" font-family="Helvetica,sans-Serif" font-size="10.00">operator=()</text>
<text text-anchor="start" x="362" y="-104.5" font-family="Helvetica,sans-Serif" font-size="10.00">+</text>
<text text-anchor="start" x="375" y="-104.5" font-family="Helvetica,sans-Serif" font-size="10.00">~VCurveLength()</text>
<polygon fill="#666666" stroke="#666666" points="358,-204.5 358,-204.5 464,-204.5 464,-204.5 358,-204.5"/>
<polygon fill="#666666" stroke="#666666" points="358,-189.5 358,-189.5 464,-189.5 464,-189.5 358,-189.5"/>
<polygon fill="none" stroke="#666666" points="358,-97.5 358,-221.5 464,-221.5 464,-97.5 358,-97.5"/>
</a>
</g>
</g>
<!-- Node2&#45;&gt;Node6 -->
<g id="edge5_Node000002_Node000006" class="edge">
<title>Node2&#45;&gt;Node6</title>
<g id="a_edge5_Node000002_Node000006"><a xlink:title=" ">
<path fill="none" stroke="#63b8ff" d="M325.49,-358.95C335.73,-342.55 344.49,-327.92 349,-319 364.8,-287.75 379.26,-251.47 390.23,-221.51"/>
<polygon fill="none" stroke="#63b8ff" points="322.37,-357.33 320.02,-367.66 328.3,-361.05 322.37,-357.33"/>
</a>
</g>
</g>
<!-- Node10 -->
<g id="Node000010" class="node">
<title>Node10</title>
<g id="a_Node000010"><a xlink:href="../../d5/d38/classMeasurementVariable.html" target="_top" xlink:title="The MeasurementVariable class keep data row of multisize table.">
<polygon fill="white" stroke="transparent" points="667.5,-319 522.5,-319 522.5,0 667.5,0 667.5,-319"/>
<text text-anchor="start" x="541.5" y="-306.5" font-family="Helvetica,sans-Serif" font-size="10.00">MeasurementVariable</text>
<text text-anchor="start" x="529.5" y="-291.5" font-family="Helvetica,sans-Serif" font-size="10.00">&#45;</text>
<text text-anchor="start" x="540" y="-291.5" font-family="Helvetica,sans-Serif" font-size="10.00">d</text>
<text text-anchor="start" x="527" y="-276.5" font-family="Helvetica,sans-Serif" font-size="10.00">+</text>
<text text-anchor="start" x="540" y="-276.5" font-family="Helvetica,sans-Serif" font-size="10.00">MeasurementVariable()</text>
<text text-anchor="start" x="527" y="-261.5" font-family="Helvetica,sans-Serif" font-size="10.00">+</text>
<text text-anchor="start" x="540" y="-261.5" font-family="Helvetica,sans-Serif" font-size="10.00">MeasurementVariable()</text>
<text text-anchor="start" x="527" y="-246.5" font-family="Helvetica,sans-Serif" font-size="10.00">+</text>
<text text-anchor="start" x="540" y="-246.5" font-family="Helvetica,sans-Serif" font-size="10.00">MeasurementVariable()</text>
<text text-anchor="start" x="527" y="-231.5" font-family="Helvetica,sans-Serif" font-size="10.00">+</text>
<text text-anchor="start" x="540" y="-231.5" font-family="Helvetica,sans-Serif" font-size="10.00">~MeasurementVariable()</text>
<text text-anchor="start" x="527" y="-216.5" font-family="Helvetica,sans-Serif" font-size="10.00">+</text>
<text text-anchor="start" x="540" y="-216.5" font-family="Helvetica,sans-Serif" font-size="10.00">operator=()</text>
<text text-anchor="start" x="527" y="-201.5" font-family="Helvetica,sans-Serif" font-size="10.00">+</text>
<text text-anchor="start" x="540" y="-201.5" font-family="Helvetica,sans-Serif" font-size="10.00">Swap()</text>
<text text-anchor="start" x="527" y="-186.5" font-family="Helvetica,sans-Serif" font-size="10.00">+</text>
<text text-anchor="start" x="540" y="-186.5" font-family="Helvetica,sans-Serif" font-size="10.00">getGuiText()</text>
<text text-anchor="start" x="527" y="-171.5" font-family="Helvetica,sans-Serif" font-size="10.00">+</text>
<text text-anchor="start" x="540" y="-171.5" font-family="Helvetica,sans-Serif" font-size="10.00">TagName()</text>
<text text-anchor="start" x="527" y="-156.5" font-family="Helvetica,sans-Serif" font-size="10.00">+</text>
<text text-anchor="start" x="540" y="-156.5" font-family="Helvetica,sans-Serif" font-size="10.00">setTagName()</text>
<text text-anchor="start" x="527" y="-141.5" font-family="Helvetica,sans-Serif" font-size="10.00">+</text>
<text text-anchor="start" x="540" y="-141.5" font-family="Helvetica,sans-Serif" font-size="10.00">GetFormula()</text>
<text text-anchor="start" x="540" y="-126.5" font-family="Helvetica,sans-Serif" font-size="10.00">and 16 more...</text>
<text text-anchor="start" x="527" y="-111.5" font-family="Helvetica,sans-Serif" font-size="10.00">+</text>
<text text-anchor="start" x="540" y="-111.5" font-family="Helvetica,sans-Serif" font-size="10.00">ListHeights()</text>
<text text-anchor="start" x="527" y="-96.5" font-family="Helvetica,sans-Serif" font-size="10.00">+</text>
<text text-anchor="start" x="540" y="-96.5" font-family="Helvetica,sans-Serif" font-size="10.00">ListSizes()</text>
<text text-anchor="start" x="527" y="-81.5" font-family="Helvetica,sans-Serif" font-size="10.00">+</text>
<text text-anchor="start" x="540" y="-81.5" font-family="Helvetica,sans-Serif" font-size="10.00">WholeListHeights()</text>
<text text-anchor="start" x="527" y="-66.5" font-family="Helvetica,sans-Serif" font-size="10.00">+</text>
<text text-anchor="start" x="540" y="-66.5" font-family="Helvetica,sans-Serif" font-size="10.00">WholeListSizes()</text>
<text text-anchor="start" x="527" y="-51.5" font-family="Helvetica,sans-Serif" font-size="10.00">+</text>
<text text-anchor="start" x="540" y="-51.5" font-family="Helvetica,sans-Serif" font-size="10.00">IsGradationSizeValid()</text>
<text text-anchor="start" x="527" y="-36.5" font-family="Helvetica,sans-Serif" font-size="10.00">+</text>
<text text-anchor="start" x="540" y="-36.5" font-family="Helvetica,sans-Serif" font-size="10.00">IsGradationHeightValid()</text>
<text text-anchor="start" x="529.5" y="-21.5" font-family="Helvetica,sans-Serif" font-size="10.00">&#45;</text>
<text text-anchor="start" x="540" y="-21.5" font-family="Helvetica,sans-Serif" font-size="10.00">CalcValue()</text>
<text text-anchor="start" x="529.5" y="-6.5" font-family="Helvetica,sans-Serif" font-size="10.00">&#45;</text>
<text text-anchor="start" x="540" y="-6.5" font-family="Helvetica,sans-Serif" font-size="10.00">ListValue()</text>
<polygon fill="#666666" stroke="#666666" points="523,-301.5 523,-301.5 668,-301.5 668,-301.5 523,-301.5"/>
<polygon fill="#666666" stroke="#666666" points="523,-286.5 523,-286.5 538,-286.5 538,-286.5 523,-286.5"/>
<polygon fill="#666666" stroke="#666666" points="538,-286.5 538,-286.5 668,-286.5 668,-286.5 538,-286.5"/>
<polygon fill="none" stroke="#666666" points="522.5,0 522.5,-319 667.5,-319 667.5,0 522.5,0"/>
</a>
</g>
</g>
<!-- Node9&#45;&gt;Node10 -->
<g id="edge9_Node000009_Node000010" class="edge">
<title>Node9&#45;&gt;Node10</title>
<g id="a_edge9_Node000009_Node000010"><a xlink:title=" ">
<path fill="none" stroke="#63b8ff" d="M609.09,-366.94C608.05,-351.74 606.95,-335.51 605.82,-319.06"/>
<polygon fill="none" stroke="#63b8ff" points="605.62,-367.54 609.8,-377.28 612.61,-367.07 605.62,-367.54"/>
</a>
</g>
</g>
<!-- Node11 -->
<g id="Node000011" class="node">
<title>Node11</title>
<g id="a_Node000011"><a xlink:href="../../dd/d0c/classVIncrement.html" target="_top" xlink:title="The VIncrement class keep data row of increment table.">
<polygon fill="white" stroke="transparent" points="780,-251.5 686,-251.5 686,-67.5 780,-67.5 780,-251.5"/>
<text text-anchor="start" x="704.5" y="-239.5" font-family="Helvetica,sans-Serif" font-size="10.00">VIncrement</text>
<text text-anchor="start" x="692.5" y="-224.5" font-family="Helvetica,sans-Serif" font-size="10.00">&#45;</text>
<text text-anchor="start" x="703" y="-224.5" font-family="Helvetica,sans-Serif" font-size="10.00">d</text>
<text text-anchor="start" x="690" y="-209.5" font-family="Helvetica,sans-Serif" font-size="10.00">+</text>
<text text-anchor="start" x="703" y="-209.5" font-family="Helvetica,sans-Serif" font-size="10.00">VIncrement()</text>
<text text-anchor="start" x="690" y="-194.5" font-family="Helvetica,sans-Serif" font-size="10.00">+</text>
<text text-anchor="start" x="703" y="-194.5" font-family="Helvetica,sans-Serif" font-size="10.00">VIncrement()</text>
<text text-anchor="start" x="690" y="-179.5" font-family="Helvetica,sans-Serif" font-size="10.00">+</text>
<text text-anchor="start" x="703" y="-179.5" font-family="Helvetica,sans-Serif" font-size="10.00">VIncrement()</text>
<text text-anchor="start" x="690" y="-164.5" font-family="Helvetica,sans-Serif" font-size="10.00">+</text>
<text text-anchor="start" x="703" y="-164.5" font-family="Helvetica,sans-Serif" font-size="10.00">~VIncrement()</text>
<text text-anchor="start" x="690" y="-149.5" font-family="Helvetica,sans-Serif" font-size="10.00">+</text>
<text text-anchor="start" x="703" y="-149.5" font-family="Helvetica,sans-Serif" font-size="10.00">operator=()</text>
<text text-anchor="start" x="690" y="-134.5" font-family="Helvetica,sans-Serif" font-size="10.00">+</text>
<text text-anchor="start" x="703" y="-134.5" font-family="Helvetica,sans-Serif" font-size="10.00">Swap()</text>
<text text-anchor="start" x="690" y="-119.5" font-family="Helvetica,sans-Serif" font-size="10.00">+</text>
<text text-anchor="start" x="703" y="-119.5" font-family="Helvetica,sans-Serif" font-size="10.00">getIndex()</text>
<text text-anchor="start" x="690" y="-104.5" font-family="Helvetica,sans-Serif" font-size="10.00">+</text>
<text text-anchor="start" x="703" y="-104.5" font-family="Helvetica,sans-Serif" font-size="10.00">GetFormula()</text>
<text text-anchor="start" x="690" y="-89.5" font-family="Helvetica,sans-Serif" font-size="10.00">+</text>
<text text-anchor="start" x="703" y="-89.5" font-family="Helvetica,sans-Serif" font-size="10.00">IsFormulaOk()</text>
<text text-anchor="start" x="690" y="-74.5" font-family="Helvetica,sans-Serif" font-size="10.00">+</text>
<text text-anchor="start" x="703" y="-74.5" font-family="Helvetica,sans-Serif" font-size="10.00">GetData()</text>
<polygon fill="#666666" stroke="#666666" points="686,-234.5 686,-234.5 780,-234.5 780,-234.5 686,-234.5"/>
<polygon fill="#666666" stroke="#666666" points="686,-219.5 686,-219.5 701,-219.5 701,-219.5 686,-219.5"/>
<polygon fill="#666666" stroke="#666666" points="701,-219.5 701,-219.5 780,-219.5 780,-219.5 701,-219.5"/>
<polygon fill="none" stroke="#666666" points="686,-67.5 686,-251.5 780,-251.5 780,-67.5 686,-67.5"/>
</a>
</g>
</g>
<!-- Node9&#45;&gt;Node11 -->
<g id="edge10_Node000009_Node000011" class="edge">
<title>Node9&#45;&gt;Node11</title>
<g id="a_edge10_Node000009_Node000011"><a xlink:title=" ">
<path fill="none" stroke="#63b8ff" d="M655.92,-367.82C663.21,-351.72 670.53,-334.93 677,-319 685.79,-297.37 694.55,-273.78 702.45,-251.57"/>
<polygon fill="none" stroke="#63b8ff" points="652.61,-366.67 651.65,-377.22 658.98,-369.57 652.61,-366.67"/>
</a>
</g>
</g>
</g>
</svg>
