<?xml version="1.0" encoding="UTF-8" standalone="no"?>
<!DOCTYPE svg PUBLIC "-//W3C//DTD SVG 1.1//EN"
 "http://www.w3.org/Graphics/SVG/1.1/DTD/svg11.dtd">
<!-- Generated by graphviz version 2.43.0 (0)
 -->
<!-- Title: src/libs/vgeometry/vabstractcubicbezier.cpp Pages: 1 -->
<!--zoomable 423 -->

<svg id="main" version="1.1" xmlns="http://www.w3.org/2000/svg" xmlns:xlink="http://www.w3.org/1999/xlink" xml:space="preserve" onload="init(evt)">
<style type="text/css"><![CDATA[
.node, .edge {opacity: 0.7;}
.node.selected, .edge.selected {opacity: 1;}
.edge:hover path { stroke: red; }
.edge:hover polygon { stroke: red; fill: red; }
]]></style>

<defs>
  <circle id="rim" cx="0" cy="0" r="7"/>
  <circle id="rim2" cx="0" cy="0" r="3.5"/>
  <g id="zoomPlus">
    <use xlink:href="#rim" fill="#404040"><set attributeName="fill" to="#808080" begin="zoomplus.mouseover" end="zoomplus.mouseout"/></use>
    <path d="M-4,0h8M0,-4v8" fill="none" stroke="white" stroke-width="1.5" pointer-events="none"/>
  </g>
  <g id="zoomMin">
    <use xlink:href="#rim" fill="#404040"><set attributeName="fill" to="#808080" begin="zoomminus.mouseover" end="zoomminus.mouseout"/></use>
    <path d="M-4,0h8" fill="none" stroke="white" stroke-width="1.5" pointer-events="none"/>
  </g>
  <g id="arrowUp" transform="translate(30 24)">
    <use xlink:href="#rim"/>
    <path pointer-events="none" fill="none" stroke="white" stroke-width="1.5" d="M0,-3.0v7 M-2.5,-0.5L0,-3.0L2.5,-0.5"/>
  </g>
  <g id="arrowRight" transform="rotate(90) translate(36 -43)">
    <use xlink:href="#rim"/>
    <path pointer-events="none" fill="none" stroke="white" stroke-width="1.5" d="M0,-3.0v7 M-2.5,-0.5L0,-3.0L2.5,-0.5"/>
  </g>
  <g id="arrowDown" transform="rotate(180) translate(-30 -48)">
    <use xlink:href="#rim"/>
    <path pointer-events="none" fill="none" stroke="white" stroke-width="1.5" d="M0,-3.0v7 M-2.5,-0.5L0,-3.0L2.5,-0.5"/>
  </g>
  <g id="arrowLeft" transform="rotate(270) translate(-36 17)">
    <use xlink:href="#rim"/>
    <path pointer-events="none" fill="none" stroke="white" stroke-width="1.5" d="M0,-3.0v7 M-2.5,-0.5L0,-3.0L2.5,-0.5"/>
  </g>
  <g id="resetDef">
    <use xlink:href="#rim2" fill="#404040"><set attributeName="fill" to="#808080" begin="reset.mouseover" end="reset.mouseout"/></use>
  </g>
</defs>
<script type="application/ecmascript">
var viewWidth = 1681;
var viewHeight = 423;
var sectionId = 'dynsection-0';
</script>
<script type="application/ecmascript" xlink:href="../../svg.min.js"/>
<svg id="graph" class="graph">
<g id="viewport">
<title>src/libs/vgeometry/vabstractcubicbezier.cpp</title>
<!-- Node1 -->
<g id="Node000001" class="node">
<title>Node1</title>
<g id="a_Node000001"><a xlink:title=" ">
<polygon fill="#999999" stroke="#666666" points="1359,-415 1219,-415 1219,-385 1359,-385 1359,-415"/>
<text text-anchor="start" x="1227" y="-403" font-family="Helvetica,sans-Serif" font-size="10.00">src/libs/vgeometry</text>
<text text-anchor="middle" x="1289" y="-392" font-family="Helvetica,sans-Serif" font-size="10.00">/vabstractcubicbezier.cpp</text>
</a>
</g>
</g>
<!-- Node2 -->
<g id="Node000002" class="node">
<title>Node2</title>
<g id="a_Node000002"><a xlink:href="../../d6/d7c/vabstractcubicbezier_8h.html" target="_top" xlink:title=" ">
<polygon fill="white" stroke="#666666" points="1046,-349 920,-349 920,-330 1046,-330 1046,-349"/>
<text text-anchor="middle" x="983" y="-337" font-family="Helvetica,sans-Serif" font-size="10.00">vabstractcubicbezier.h</text>
</a>
</g>
</g>
<!-- Node1&#45;&gt;Node2 -->
<g id="edge1_Node000001_Node000002" class="edge">
<title>Node1&#45;&gt;Node2</title>
<g id="a_edge1_Node000001_Node000002"><a xlink:title=" ">
<path fill="none" stroke="#63b8ff" d="M1218.8,-385.58C1163.83,-375.07 1088.45,-360.66 1037.85,-350.99"/>
<polygon fill="#63b8ff" stroke="#63b8ff" points="1038.24,-347.5 1027.77,-349.06 1036.93,-354.37 1038.24,-347.5"/>
</a>
</g>
</g>
<!-- Node10 -->
<g id="Node000010" class="node">
<title>Node10</title>
<g id="a_Node000010"><a xlink:href="../../d4/da4/def_8h.html" target="_top" xlink:title=" ">
<polygon fill="white" stroke="#666666" points="451,-129 369,-129 369,-110 451,-110 451,-129"/>
<text text-anchor="middle" x="410" y="-117" font-family="Helvetica,sans-Serif" font-size="10.00">../vmisc/def.h</text>
</a>
</g>
</g>
<!-- Node1&#45;&gt;Node10 -->
<g id="edge51_Node000001_Node000010" class="edge">
<title>Node1&#45;&gt;Node10</title>
<g id="a_edge51_Node000001_Node000010"><a xlink:title=" ">
<path fill="none" stroke="#63b8ff" d="M1218.7,-397.07C1013.55,-390.5 430,-364.85 430,-285.5 430,-285.5 430,-285.5 430,-228.5 430,-196.51 421.41,-160.07 415.49,-138.75"/>
<polygon fill="#63b8ff" stroke="#63b8ff" points="418.84,-137.71 412.7,-129.08 412.11,-139.66 418.84,-137.71"/>
</a>
</g>
</g>
<!-- Node12 -->
<g id="Node000012" class="node">
<title>Node12</title>
<g id="a_Node000012"><a xlink:title=" ">
<polygon fill="#e0e0e0" stroke="#999999" points="50,-74 0,-74 0,-55 50,-55 50,-74"/>
<text text-anchor="middle" x="25" y="-62" font-family="Helvetica,sans-Serif" font-size="10.00">QLineF</text>
</a>
</g>
</g>
<!-- Node1&#45;&gt;Node12 -->
<g id="edge47_Node000001_Node000012" class="edge">
<title>Node1&#45;&gt;Node12</title>
<g id="a_edge47_Node000001_Node000012"><a xlink:title=" ">
<path fill="none" stroke="#63b8ff" d="M1218.98,-399.19C975.85,-398.94 183,-390.09 183,-285.5 183,-285.5 183,-285.5 183,-173.5 183,-142.56 99.37,-99.47 53.79,-78.29"/>
<polygon fill="#63b8ff" stroke="#63b8ff" points="55.24,-75.1 44.69,-74.12 52.32,-81.47 55.24,-75.1"/>
</a>
</g>
</g>
<!-- Node23 -->
<g id="Node000023" class="node">
<title>Node23</title>
<g id="a_Node000023"><a xlink:href="../../db/db3/vmath_8h.html" target="_top" xlink:title=" ">
<polygon fill="white" stroke="#666666" points="1127,-184 1029,-184 1029,-165 1127,-165 1127,-184"/>
<text text-anchor="middle" x="1078" y="-172" font-family="Helvetica,sans-Serif" font-size="10.00">../vmisc/vmath.h</text>
</a>
</g>
</g>
<!-- Node1&#45;&gt;Node23 -->
<g id="edge52_Node000001_Node000023" class="edge">
<title>Node1&#45;&gt;Node23</title>
<g id="a_edge52_Node000001_Node000023"><a xlink:title=" ">
<path fill="none" stroke="#63b8ff" d="M1275.48,-384.68C1237.96,-344.94 1132.71,-233.46 1093.22,-191.63"/>
<polygon fill="#63b8ff" stroke="#63b8ff" points="1095.65,-189.1 1086.24,-184.23 1090.56,-193.91 1095.65,-189.1"/>
</a>
</g>
</g>
<!-- Node27 -->
<g id="Node000027" class="node">
<title>Node27</title>
<g id="a_Node000027"><a xlink:title=" ">
<polygon fill="#e0e0e0" stroke="#999999" points="1379.5,-349 1278.5,-349 1278.5,-330 1379.5,-330 1379.5,-349"/>
<text text-anchor="middle" x="1329" y="-337" font-family="Helvetica,sans-Serif" font-size="10.00">QMessageLogger</text>
</a>
</g>
</g>
<!-- Node1&#45;&gt;Node27 -->
<g id="edge48_Node000001_Node000027" class="edge">
<title>Node1&#45;&gt;Node27</title>
<g id="a_edge48_Node000001_Node000027"><a xlink:title=" ">
<path fill="none" stroke="#63b8ff" d="M1298.68,-384.84C1304.25,-376.69 1311.29,-366.4 1317.18,-357.78"/>
<polygon fill="#63b8ff" stroke="#63b8ff" points="1320.25,-359.5 1323.01,-349.27 1314.47,-355.55 1320.25,-359.5"/>
</a>
</g>
</g>
<!-- Node28 -->
<g id="Node000028" class="node">
<title>Node28</title>
<g id="a_Node000028"><a xlink:title=" ">
<polygon fill="#e0e0e0" stroke="#999999" points="1446.5,-349 1397.5,-349 1397.5,-330 1446.5,-330 1446.5,-349"/>
<text text-anchor="middle" x="1422" y="-337" font-family="Helvetica,sans-Serif" font-size="10.00">QPoint</text>
</a>
</g>
</g>
<!-- Node1&#45;&gt;Node28 -->
<g id="edge49_Node000001_Node000028" class="edge">
<title>Node1&#45;&gt;Node28</title>
<g id="a_edge49_Node000001_Node000028"><a xlink:title=" ">
<path fill="none" stroke="#63b8ff" d="M1320.86,-384.99C1342.85,-375.31 1371.85,-362.56 1393.16,-353.18"/>
<polygon fill="#63b8ff" stroke="#63b8ff" points="1394.61,-356.37 1402.36,-349.14 1391.8,-349.96 1394.61,-356.37"/>
</a>
</g>
</g>
<!-- Node29 -->
<g id="Node000029" class="node">
<title>Node29</title>
<g id="a_Node000029"><a xlink:title=" ">
<polygon fill="#e0e0e0" stroke="#999999" points="1523.5,-349 1464.5,-349 1464.5,-330 1523.5,-330 1523.5,-349"/>
<text text-anchor="middle" x="1494" y="-337" font-family="Helvetica,sans-Serif" font-size="10.00">QtDebug</text>
</a>
</g>
</g>
<!-- Node1&#45;&gt;Node29 -->
<g id="edge50_Node000001_Node000029" class="edge">
<title>Node1&#45;&gt;Node29</title>
<g id="a_edge50_Node000001_Node000029"><a xlink:title=" ">
<path fill="none" stroke="#63b8ff" d="M1338.1,-384.99C1373.74,-374.82 1421.33,-361.24 1454.52,-351.77"/>
<polygon fill="#63b8ff" stroke="#63b8ff" points="1455.67,-355.08 1464.32,-348.97 1453.75,-348.35 1455.67,-355.08"/>
</a>
</g>
</g>
<!-- Node30 -->
<g id="Node000030" class="node">
<title>Node30</title>
<g id="a_Node000030"><a xlink:href="../../d1/d48/vpointf_8h.html" target="_top" xlink:title=" ">
<polygon fill="white" stroke="#666666" points="1512.5,-239 1387.5,-239 1387.5,-220 1512.5,-220 1512.5,-239"/>
<text text-anchor="middle" x="1450" y="-227" font-family="Helvetica,sans-Serif" font-size="10.00">../vgeometry/vpointf.h</text>
</a>
</g>
</g>
<!-- Node1&#45;&gt;Node30 -->
<g id="edge53_Node000001_Node000030" class="edge">
<title>Node1&#45;&gt;Node30</title>
<g id="a_edge53_Node000001_Node000030"><a xlink:title=" ">
<path fill="none" stroke="#63b8ff" d="M1359.1,-394.29C1423.24,-388.35 1511.37,-375.51 1533,-349 1562.3,-313.09 1506.25,-267.39 1472.66,-244.66"/>
<polygon fill="#63b8ff" stroke="#63b8ff" points="1474.54,-241.71 1464.27,-239.14 1470.7,-247.56 1474.54,-241.71"/>
</a>
</g>
</g>
<!-- Node3 -->
<g id="Node000003" class="node">
<title>Node3</title>
<g id="a_Node000003"><a xlink:title=" ">
<polygon fill="#e0e0e0" stroke="#999999" points="659,-74 539,-74 539,-55 659,-55 659,-74"/>
<text text-anchor="middle" x="599" y="-62" font-family="Helvetica,sans-Serif" font-size="10.00">qcompilerdetection.h</text>
</a>
</g>
</g>
<!-- Node2&#45;&gt;Node3 -->
<g id="edge2_Node000002_Node000003" class="edge">
<title>Node2&#45;&gt;Node3</title>
<g id="a_edge2_Node000002_Node000003"><a xlink:title=" ">
<path fill="none" stroke="#63b8ff" d="M919.71,-339.24C855.07,-337.79 753.11,-329.29 673,-294 613.35,-267.72 595.51,-246.19 576,-184 566.12,-152.52 560.6,-141.63 570,-110 572.98,-99.98 579,-90.11 584.79,-82.22"/>
<polygon fill="#63b8ff" stroke="#63b8ff" points="587.63,-84.28 591.06,-74.25 582.13,-79.95 587.63,-84.28"/>
</a>
</g>
</g>
<!-- Node4 -->
<g id="Node000004" class="node">
<title>Node4</title>
<g id="a_Node000004"><a xlink:title=" ">
<polygon fill="#e0e0e0" stroke="#999999" points="1010.5,-184 955.5,-184 955.5,-165 1010.5,-165 1010.5,-184"/>
<text text-anchor="middle" x="983" y="-172" font-family="Helvetica,sans-Serif" font-size="10.00">QPointF</text>
</a>
</g>
</g>
<!-- Node2&#45;&gt;Node4 -->
<g id="edge3_Node000002_Node000004" class="edge">
<title>Node2&#45;&gt;Node4</title>
<g id="a_edge3_Node000002_Node000004"><a xlink:title=" ">
<path fill="none" stroke="#63b8ff" d="M983,-329.74C983,-304.31 983,-230.08 983,-194.69"/>
<polygon fill="#63b8ff" stroke="#63b8ff" points="986.5,-194.31 983,-184.31 979.5,-194.31 986.5,-194.31"/>
</a>
</g>
</g>
<!-- Node5 -->
<g id="Node000005" class="node">
<title>Node5</title>
<g id="a_Node000005"><a xlink:title=" ">
<polygon fill="#e0e0e0" stroke="#999999" points="1240.5,-74 1187.5,-74 1187.5,-55 1240.5,-55 1240.5,-74"/>
<text text-anchor="middle" x="1214" y="-62" font-family="Helvetica,sans-Serif" font-size="10.00">QString</text>
</a>
</g>
</g>
<!-- Node2&#45;&gt;Node5 -->
<g id="edge4_Node000002_Node000005" class="edge">
<title>Node2&#45;&gt;Node5</title>
<g id="a_edge4_Node000002_Node000005"><a xlink:title=" ">
<path fill="none" stroke="#63b8ff" d="M1046.06,-335.22C1216.4,-325.52 1673,-293.63 1673,-230.5 1673,-230.5 1673,-230.5 1673,-173.5 1673,-86.95 1359.83,-69.69 1250.85,-66.31"/>
<polygon fill="#63b8ff" stroke="#63b8ff" points="1250.76,-62.81 1240.66,-66.02 1250.56,-69.8 1250.76,-62.81"/>
</a>
</g>
</g>
<!-- Node6 -->
<g id="Node000006" class="node">
<title>Node6</title>
<g id="a_Node000006"><a xlink:title=" ">
<polygon fill="#e0e0e0" stroke="#999999" points="1186.5,-129 1131.5,-129 1131.5,-110 1186.5,-110 1186.5,-129"/>
<text text-anchor="middle" x="1159" y="-117" font-family="Helvetica,sans-Serif" font-size="10.00">QVector</text>
</a>
</g>
</g>
<!-- Node2&#45;&gt;Node6 -->
<g id="edge5_Node000002_Node000006" class="edge">
<title>Node2&#45;&gt;Node6</title>
<g id="a_edge5_Node000002_Node000006"><a xlink:title=" ">
<path fill="none" stroke="#63b8ff" d="M1004.81,-329.98C1023.38,-322.16 1050.28,-309.45 1071,-294 1097.97,-273.89 1103.82,-266.63 1123,-239 1138.53,-216.63 1141.99,-210.03 1150,-184 1154.46,-169.5 1156.73,-152.44 1157.86,-139.66"/>
<polygon fill="#63b8ff" stroke="#63b8ff" points="1161.38,-139.55 1158.63,-129.32 1154.4,-139.03 1161.38,-139.55"/>
</a>
</g>
</g>
<!-- Node7 -->
<g id="Node000007" class="node">
<title>Node7</title>
<g id="a_Node000007"><a xlink:title=" ">
<polygon fill="#e0e0e0" stroke="#999999" points="736.5,-74 677.5,-74 677.5,-55 736.5,-55 736.5,-74"/>
<text text-anchor="middle" x="707" y="-62" font-family="Helvetica,sans-Serif" font-size="10.00">QtGlobal</text>
</a>
</g>
</g>
<!-- Node2&#45;&gt;Node7 -->
<g id="edge6_Node000002_Node000007" class="edge">
<title>Node2&#45;&gt;Node7</title>
<g id="a_edge6_Node000002_Node000007"><a xlink:title=" ">
<path fill="none" stroke="#63b8ff" d="M919.9,-337.42C824.26,-331.81 647.15,-304.77 585,-184 560.63,-136.65 631.16,-97.2 674.96,-78.02"/>
<polygon fill="#63b8ff" stroke="#63b8ff" points="676.55,-81.15 684.39,-74.02 673.81,-74.7 676.55,-81.15"/>
</a>
</g>
</g>
<!-- Node8 -->
<g id="Node000008" class="node">
<title>Node8</title>
<g id="a_Node000008"><a xlink:href="../../d3/da5/ifcdef_8h.html" target="_top" xlink:title=" ">
<polygon fill="white" stroke="#666666" points="670.5,-184 593.5,-184 593.5,-165 670.5,-165 670.5,-184"/>
<text text-anchor="middle" x="632" y="-172" font-family="Helvetica,sans-Serif" font-size="10.00">../ifc/ifcdef.h</text>
</a>
</g>
</g>
<!-- Node2&#45;&gt;Node8 -->
<g id="edge7_Node000002_Node000008" class="edge">
<title>Node2&#45;&gt;Node8</title>
<g id="a_edge7_Node000002_Node000008"><a xlink:title=" ">
<path fill="none" stroke="#63b8ff" d="M919.87,-330.44C854.99,-319.4 753.98,-294.22 685,-239 668.42,-225.73 653.31,-206.6 643.51,-192.81"/>
<polygon fill="#63b8ff" stroke="#63b8ff" points="646.17,-190.51 637.61,-184.26 640.4,-194.48 646.17,-190.51"/>
</a>
</g>
</g>
<!-- Node19 -->
<g id="Node000019" class="node">
<title>Node19</title>
<g id="a_Node000019"><a xlink:href="../../d8/d94/vabstractbezier_8h.html" target="_top" xlink:title=" ">
<polygon fill="white" stroke="#666666" points="901.5,-294 800.5,-294 800.5,-275 901.5,-275 901.5,-294"/>
<text text-anchor="middle" x="851" y="-282" font-family="Helvetica,sans-Serif" font-size="10.00">vabstractbezier.h</text>
</a>
</g>
</g>
<!-- Node2&#45;&gt;Node19 -->
<g id="edge25_Node000002_Node000019" class="edge">
<title>Node2&#45;&gt;Node19</title>
<g id="a_edge25_Node000002_Node000019"><a xlink:title=" ">
<path fill="none" stroke="#63b8ff" d="M961.79,-329.98C940.27,-321.34 906.72,-307.87 882.17,-298.02"/>
<polygon fill="#63b8ff" stroke="#63b8ff" points="883.18,-294.65 872.59,-294.17 880.57,-301.14 883.18,-294.65"/>
</a>
</g>
</g>
<!-- Node25 -->
<g id="Node000025" class="node">
<title>Node25</title>
<g id="a_Node000025"><a xlink:href="../../d5/d9d/vgeometrydef_8h.html" target="_top" xlink:title=" ">
<polygon fill="white" stroke="#666666" points="1113,-129 1019,-129 1019,-110 1113,-110 1113,-129"/>
<text text-anchor="middle" x="1066" y="-117" font-family="Helvetica,sans-Serif" font-size="10.00">vgeometrydef.h</text>
</a>
</g>
</g>
<!-- Node2&#45;&gt;Node25 -->
<g id="edge46_Node000002_Node000025" class="edge">
<title>Node2&#45;&gt;Node25</title>
<g id="a_edge46_Node000002_Node000025"><a xlink:title=" ">
<path fill="none" stroke="#63b8ff" d="M997.15,-329.89C1029.28,-309.4 1107.13,-254.17 1136,-184 1145.07,-161.96 1121.31,-144.49 1099.06,-133.5"/>
<polygon fill="#63b8ff" stroke="#63b8ff" points="1100.26,-130.2 1089.71,-129.19 1097.33,-136.55 1100.26,-130.2"/>
</a>
</g>
</g>
<!-- Node8&#45;&gt;Node5 -->
<g id="edge8_Node000008_Node000005" class="edge">
<title>Node8&#45;&gt;Node5</title>
<g id="a_edge8_Node000008_Node000005"><a xlink:title=" ">
<path fill="none" stroke="#63b8ff" d="M670.91,-168.69C717.18,-162.36 796.41,-149.55 862,-129 881.94,-122.75 884.92,-115.76 905,-110 1000.88,-82.48 1118.61,-71.53 1177.21,-67.55"/>
<polygon fill="#63b8ff" stroke="#63b8ff" points="1177.7,-71.02 1187.45,-66.88 1177.24,-64.04 1177.7,-71.02"/>
</a>
</g>
</g>
<!-- Node8&#45;&gt;Node7 -->
<g id="edge10_Node000008_Node000007" class="edge">
<title>Node8&#45;&gt;Node7</title>
<g id="a_edge10_Node000008_Node000007"><a xlink:title=" ">
<path fill="none" stroke="#63b8ff" d="M633.7,-164.62C636.5,-151.7 642.99,-127.36 655,-110 663.03,-98.4 674.8,-87.98 685.11,-80.15"/>
<polygon fill="#63b8ff" stroke="#63b8ff" points="687.27,-82.91 693.31,-74.21 683.16,-77.24 687.27,-82.91"/>
</a>
</g>
</g>
<!-- Node9 -->
<g id="Node000009" class="node">
<title>Node9</title>
<g id="a_Node000009"><a xlink:title=" ">
<polygon fill="#e0e0e0" stroke="#999999" points="521,-74 451,-74 451,-55 521,-55 521,-74"/>
<text text-anchor="middle" x="486" y="-62" font-family="Helvetica,sans-Serif" font-size="10.00">QStringList</text>
</a>
</g>
</g>
<!-- Node8&#45;&gt;Node9 -->
<g id="edge9_Node000008_Node000009" class="edge">
<title>Node8&#45;&gt;Node9</title>
<g id="a_edge9_Node000008_Node000009"><a xlink:title=" ">
<path fill="none" stroke="#63b8ff" d="M620.3,-164.84C595.42,-146.44 537.01,-103.23 506.06,-80.34"/>
<polygon fill="#63b8ff" stroke="#63b8ff" points="507.88,-77.33 497.76,-74.2 503.71,-82.96 507.88,-77.33"/>
</a>
</g>
</g>
<!-- Node8&#45;&gt;Node10 -->
<g id="edge11_Node000008_Node000010" class="edge">
<title>Node8&#45;&gt;Node10</title>
<g id="a_edge11_Node000008_Node000010"><a xlink:title=" ">
<path fill="none" stroke="#63b8ff" d="M596.33,-164.98C558.17,-155.87 497.53,-141.4 455.85,-131.45"/>
<polygon fill="#63b8ff" stroke="#63b8ff" points="456.49,-128 445.95,-129.08 454.86,-134.81 456.49,-128"/>
</a>
</g>
</g>
<!-- Node18 -->
<g id="Node000018" class="node">
<title>Node18</title>
<g id="a_Node000018"><a xlink:href="../../d6/dcd/diagnostic_8h.html" target="_top" xlink:title=" ">
<polygon fill="white" stroke="#666666" points="852.5,-129 735.5,-129 735.5,-110 852.5,-110 852.5,-129"/>
<text text-anchor="middle" x="794" y="-117" font-family="Helvetica,sans-Serif" font-size="10.00">../vmisc/diagnostic.h</text>
</a>
</g>
</g>
<!-- Node8&#45;&gt;Node18 -->
<g id="edge23_Node000008_Node000018" class="edge">
<title>Node8&#45;&gt;Node18</title>
<g id="a_edge23_Node000008_Node000018"><a xlink:title=" ">
<path fill="none" stroke="#63b8ff" d="M658.03,-164.98C685.11,-156.13 727.71,-142.19 758.01,-132.28"/>
<polygon fill="#63b8ff" stroke="#63b8ff" points="759.35,-135.52 767.77,-129.08 757.18,-128.87 759.35,-135.52"/>
</a>
</g>
</g>
<!-- Node10&#45;&gt;Node3 -->
<g id="edge12_Node000010_Node000003" class="edge">
<title>Node10&#45;&gt;Node3</title>
<g id="a_edge12_Node000010_Node000003"><a xlink:title=" ">
<path fill="none" stroke="#63b8ff" d="M440.37,-109.98C472.37,-101.01 522.96,-86.82 558.38,-76.89"/>
<polygon fill="#63b8ff" stroke="#63b8ff" points="559.71,-80.15 568.4,-74.08 557.82,-73.41 559.71,-80.15"/>
</a>
</g>
</g>
<!-- Node10&#45;&gt;Node5 -->
<g id="edge15_Node000010_Node000005" class="edge">
<title>Node10&#45;&gt;Node5</title>
<g id="a_edge15_Node000010_Node000005"><a xlink:title=" ">
<path fill="none" stroke="#63b8ff" d="M451.25,-115.78C590.86,-106.58 1044.25,-76.69 1177.1,-67.93"/>
<polygon fill="#63b8ff" stroke="#63b8ff" points="1177.43,-71.42 1187.17,-67.27 1176.97,-64.43 1177.43,-71.42"/>
</a>
</g>
</g>
<!-- Node10&#45;&gt;Node7 -->
<g id="edge18_Node000010_Node000007" class="edge">
<title>Node10&#45;&gt;Node7</title>
<g id="a_edge18_Node000010_Node000007"><a xlink:title=" ">
<path fill="none" stroke="#63b8ff" d="M451.21,-111.96C500.23,-104.06 584.78,-90.04 667.18,-74.09"/>
<polygon fill="#63b8ff" stroke="#63b8ff" points="668.07,-77.48 677.22,-72.13 666.73,-70.61 668.07,-77.48"/>
</a>
</g>
</g>
<!-- Node10&#45;&gt;Node9 -->
<g id="edge16_Node000010_Node000009" class="edge">
<title>Node10&#45;&gt;Node9</title>
<g id="a_edge16_Node000010_Node000009"><a xlink:title=" ">
<path fill="none" stroke="#63b8ff" d="M422.21,-109.98C433.78,-101.92 451.38,-89.65 465.16,-80.03"/>
<polygon fill="#63b8ff" stroke="#63b8ff" points="467.37,-82.76 473.57,-74.17 463.36,-77.02 467.37,-82.76"/>
</a>
</g>
</g>
<!-- Node11 -->
<g id="Node000011" class="node">
<title>Node11</title>
<g id="a_Node000011"><a xlink:title=" ">
<polygon fill="#e0e0e0" stroke="#999999" points="385.5,-74 312.5,-74 312.5,-55 385.5,-55 385.5,-74"/>
<text text-anchor="middle" x="349" y="-62" font-family="Helvetica,sans-Serif" font-size="10.00">QFileDialog</text>
</a>
</g>
</g>
<!-- Node10&#45;&gt;Node11 -->
<g id="edge13_Node000010_Node000011" class="edge">
<title>Node10&#45;&gt;Node11</title>
<g id="a_edge13_Node000010_Node000011"><a xlink:title=" ">
<path fill="none" stroke="#63b8ff" d="M400.2,-109.98C391.18,-102.15 377.59,-90.34 366.68,-80.86"/>
<polygon fill="#63b8ff" stroke="#63b8ff" points="368.82,-78.09 358.98,-74.17 364.23,-83.37 368.82,-78.09"/>
</a>
</g>
</g>
<!-- Node10&#45;&gt;Node12 -->
<g id="edge14_Node000010_Node000012" class="edge">
<title>Node10&#45;&gt;Node12</title>
<g id="a_edge14_Node000010_Node000012"><a xlink:title=" ">
<path fill="none" stroke="#63b8ff" d="M368.95,-114.89C304.97,-108.92 177.45,-95.63 60.05,-73.99"/>
<polygon fill="#63b8ff" stroke="#63b8ff" points="60.65,-70.54 50.18,-72.15 59.36,-77.43 60.65,-70.54"/>
</a>
</g>
</g>
<!-- Node13 -->
<g id="Node000013" class="node">
<title>Node13</title>
<g id="a_Node000013"><a xlink:title=" ">
<polygon fill="#e0e0e0" stroke="#999999" points="432.5,-74 403.5,-74 403.5,-55 432.5,-55 432.5,-74"/>
<text text-anchor="middle" x="418" y="-62" font-family="Helvetica,sans-Serif" font-size="10.00">Qt</text>
</a>
</g>
</g>
<!-- Node10&#45;&gt;Node13 -->
<g id="edge17_Node000010_Node000013" class="edge">
<title>Node10&#45;&gt;Node13</title>
<g id="a_edge17_Node000010_Node000013"><a xlink:title=" ">
<path fill="none" stroke="#63b8ff" d="M411.32,-109.75C412.37,-102.8 413.87,-92.85 415.19,-84.13"/>
<polygon fill="#63b8ff" stroke="#63b8ff" points="418.67,-84.5 416.7,-74.09 411.75,-83.45 418.67,-84.5"/>
</a>
</g>
</g>
<!-- Node14 -->
<g id="Node000014" class="node">
<title>Node14</title>
<g id="a_Node000014"><a xlink:title=" ">
<polygon fill="#e0e0e0" stroke="#999999" points="124,-74 68,-74 68,-55 124,-55 124,-74"/>
<text text-anchor="middle" x="96" y="-62" font-family="Helvetica,sans-Serif" font-size="10.00">QPrinter</text>
</a>
</g>
</g>
<!-- Node10&#45;&gt;Node14 -->
<g id="edge19_Node000010_Node000014" class="edge">
<title>Node10&#45;&gt;Node14</title>
<g id="a_edge19_Node000010_Node000014"><a xlink:title=" ">
<path fill="none" stroke="#63b8ff" d="M368.55,-112.72C316.22,-105.23 223.21,-91.27 134.23,-74.13"/>
<polygon fill="#63b8ff" stroke="#63b8ff" points="134.72,-70.66 124.24,-72.19 133.39,-77.53 134.72,-70.66"/>
</a>
</g>
</g>
<!-- Node15 -->
<g id="Node000015" class="node">
<title>Node15</title>
<g id="a_Node000015"><a xlink:title=" ">
<polygon fill="#e0e0e0" stroke="#999999" points="193.5,-74 142.5,-74 142.5,-55 193.5,-55 193.5,-74"/>
<text text-anchor="middle" x="168" y="-62" font-family="Helvetica,sans-Serif" font-size="10.00">csignal</text>
</a>
</g>
</g>
<!-- Node10&#45;&gt;Node15 -->
<g id="edge20_Node000010_Node000015" class="edge">
<title>Node10&#45;&gt;Node15</title>
<g id="a_edge20_Node000010_Node000015"><a xlink:title=" ">
<path fill="none" stroke="#63b8ff" d="M368.86,-110.13C328.97,-101.92 266.49,-88.81 203.68,-74.33"/>
<polygon fill="#63b8ff" stroke="#63b8ff" points="204.13,-70.85 193.6,-72 202.55,-77.66 204.13,-70.85"/>
</a>
</g>
</g>
<!-- Node16 -->
<g id="Node000016" class="node">
<title>Node16</title>
<g id="a_Node000016"><a xlink:href="../../d4/d82/debugbreak_8h.html" target="_top" xlink:title=" ">
<polygon fill="white" stroke="#666666" points="294.5,-74 211.5,-74 211.5,-55 294.5,-55 294.5,-74"/>
<text text-anchor="middle" x="253" y="-62" font-family="Helvetica,sans-Serif" font-size="10.00">debugbreak.h</text>
</a>
</g>
</g>
<!-- Node10&#45;&gt;Node16 -->
<g id="edge21_Node000010_Node000016" class="edge">
<title>Node10&#45;&gt;Node16</title>
<g id="a_edge21_Node000010_Node000016"><a xlink:title=" ">
<path fill="none" stroke="#63b8ff" d="M384.78,-109.98C358.64,-101.16 317.6,-87.31 288.27,-77.41"/>
<polygon fill="#63b8ff" stroke="#63b8ff" points="289.02,-73.96 278.42,-74.08 286.78,-80.6 289.02,-73.96"/>
</a>
</g>
</g>
<!-- Node17 -->
<g id="Node000017" class="node">
<title>Node17</title>
<g id="a_Node000017"><a xlink:title=" ">
<polygon fill="#e0e0e0" stroke="#999999" points="280.5,-19 225.5,-19 225.5,0 280.5,0 280.5,-19"/>
<text text-anchor="middle" x="253" y="-7" font-family="Helvetica,sans-Serif" font-size="10.00">signal.h</text>
</a>
</g>
</g>
<!-- Node16&#45;&gt;Node17 -->
<g id="edge22_Node000016_Node000017" class="edge">
<title>Node16&#45;&gt;Node17</title>
<g id="a_edge22_Node000016_Node000017"><a xlink:title=" ">
<path fill="none" stroke="#63b8ff" d="M253,-54.75C253,-47.8 253,-37.85 253,-29.13"/>
<polygon fill="#63b8ff" stroke="#63b8ff" points="256.5,-29.09 253,-19.09 249.5,-29.09 256.5,-29.09"/>
</a>
</g>
</g>
<!-- Node18&#45;&gt;Node7 -->
<g id="edge24_Node000018_Node000007" class="edge">
<title>Node18&#45;&gt;Node7</title>
<g id="a_edge24_Node000018_Node000007"><a xlink:title=" ">
<path fill="none" stroke="#63b8ff" d="M780.02,-109.98C766.53,-101.77 745.87,-89.18 729.96,-79.49"/>
<polygon fill="#63b8ff" stroke="#63b8ff" points="731.59,-76.38 721.23,-74.17 727.95,-82.36 731.59,-76.38"/>
</a>
</g>
</g>
<!-- Node19&#45;&gt;Node7 -->
<g id="edge26_Node000019_Node000007" class="edge">
<title>Node19&#45;&gt;Node7</title>
<g id="a_edge26_Node000019_Node000007"><a xlink:title=" ">
<path fill="none" stroke="#63b8ff" d="M837.94,-274.85C815.2,-259.2 768.09,-224.05 740,-184 724.36,-161.71 720.4,-155.21 713,-129 708.9,-114.48 707.46,-97.42 707.02,-84.64"/>
<polygon fill="#63b8ff" stroke="#63b8ff" points="710.51,-84.25 706.84,-74.31 703.51,-84.37 710.51,-84.25"/>
</a>
</g>
</g>
<!-- Node20 -->
<g id="Node000020" class="node">
<title>Node20</title>
<g id="a_Node000020"><a xlink:href="../../d5/d82/vabstractcurve_8h.html" target="_top" xlink:title=" ">
<polygon fill="white" stroke="#666666" points="900,-239 802,-239 802,-220 900,-220 900,-239"/>
<text text-anchor="middle" x="851" y="-227" font-family="Helvetica,sans-Serif" font-size="10.00">vabstractcurve.h</text>
</a>
</g>
</g>
<!-- Node19&#45;&gt;Node20 -->
<g id="edge27_Node000019_Node000020" class="edge">
<title>Node19&#45;&gt;Node20</title>
<g id="a_edge27_Node000019_Node000020"><a xlink:title=" ">
<path fill="none" stroke="#63b8ff" d="M851,-274.75C851,-267.8 851,-257.85 851,-249.13"/>
<polygon fill="#63b8ff" stroke="#63b8ff" points="854.5,-249.09 851,-239.09 847.5,-249.09 854.5,-249.09"/>
</a>
</g>
</g>
<!-- Node20&#45;&gt;Node3 -->
<g id="edge28_Node000020_Node000003" class="edge">
<title>Node20&#45;&gt;Node3</title>
<g id="a_edge28_Node000020_Node000003"><a xlink:title=" ">
<path fill="none" stroke="#63b8ff" d="M801.79,-227.57C732.67,-225.1 612.23,-216.16 585,-184 561,-155.65 577.49,-108.88 589.52,-83.4"/>
<polygon fill="#63b8ff" stroke="#63b8ff" points="592.78,-84.7 594.12,-74.19 586.52,-81.57 592.78,-84.7"/>
</a>
</g>
</g>
<!-- Node20&#45;&gt;Node4 -->
<g id="edge29_Node000020_Node000004" class="edge">
<title>Node20&#45;&gt;Node4</title>
<g id="a_edge29_Node000020_Node000004"><a xlink:title=" ">
<path fill="none" stroke="#63b8ff" d="M872.21,-219.98C893.73,-211.34 927.28,-197.87 951.83,-188.02"/>
<polygon fill="#63b8ff" stroke="#63b8ff" points="953.43,-191.14 961.41,-184.17 950.82,-184.65 953.43,-191.14"/>
</a>
</g>
</g>
<!-- Node20&#45;&gt;Node5 -->
<g id="edge31_Node000020_Node000005" class="edge">
<title>Node20&#45;&gt;Node5</title>
<g id="a_edge31_Node000020_Node000005"><a xlink:title=" ">
<path fill="none" stroke="#63b8ff" d="M842.94,-219.79C832.2,-207.08 815.78,-183.01 827,-165 828.83,-162.06 935.7,-111.05 939,-110 1021.73,-83.64 1123.67,-72.37 1177.19,-67.98"/>
<polygon fill="#63b8ff" stroke="#63b8ff" points="1177.54,-71.47 1187.23,-67.2 1176.99,-64.49 1177.54,-71.47"/>
</a>
</g>
</g>
<!-- Node20&#45;&gt;Node6 -->
<g id="edge33_Node000020_Node000006" class="edge">
<title>Node20&#45;&gt;Node6</title>
<g id="a_edge33_Node000020_Node000006"><a xlink:title=" ">
<path fill="none" stroke="#63b8ff" d="M851.57,-219.93C852.99,-206.03 857.91,-178.73 875,-165 916.12,-131.94 1053.16,-138.45 1121.25,-128.77"/>
<polygon fill="#63b8ff" stroke="#63b8ff" points="1121.87,-132.22 1131.17,-127.15 1120.74,-125.31 1121.87,-132.22"/>
</a>
</g>
</g>
<!-- Node20&#45;&gt;Node7 -->
<g id="edge34_Node000020_Node000007" class="edge">
<title>Node20&#45;&gt;Node7</title>
<g id="a_edge34_Node000020_Node000007"><a xlink:title=" ">
<path fill="none" stroke="#63b8ff" d="M824.65,-219.95C805.36,-212.69 779.44,-200.77 761,-184 731.14,-156.83 716.66,-109.91 710.64,-84.01"/>
<polygon fill="#63b8ff" stroke="#63b8ff" points="714.01,-83.07 708.49,-74.02 707.17,-84.53 714.01,-83.07"/>
</a>
</g>
</g>
<!-- Node20&#45;&gt;Node8 -->
<g id="edge35_Node000020_Node000008" class="edge">
<title>Node20&#45;&gt;Node8</title>
<g id="a_edge35_Node000020_Node000008"><a xlink:title=" ">
<path fill="none" stroke="#63b8ff" d="M815.81,-219.98C778.17,-210.87 718.34,-196.4 677.23,-186.45"/>
<polygon fill="#63b8ff" stroke="#63b8ff" points="678,-183.03 667.46,-184.08 676.36,-189.84 678,-183.03"/>
</a>
</g>
</g>
<!-- Node21 -->
<g id="Node000021" class="node">
<title>Node21</title>
<g id="a_Node000021"><a xlink:title=" ">
<polygon fill="#e0e0e0" stroke="#999999" points="1321,-129 1205,-129 1205,-110 1321,-110 1321,-129"/>
<text text-anchor="middle" x="1263" y="-117" font-family="Helvetica,sans-Serif" font-size="10.00">QSharedDataPointer</text>
</a>
</g>
</g>
<!-- Node20&#45;&gt;Node21 -->
<g id="edge30_Node000020_Node000021" class="edge">
<title>Node20&#45;&gt;Node21</title>
<g id="a_edge30_Node000020_Node000021"><a xlink:title=" ">
<path fill="none" stroke="#63b8ff" d="M856.62,-219.72C866.24,-205.51 887.34,-177.77 913,-165 913.2,-164.9 1092.84,-142.09 1194.65,-129.17"/>
<polygon fill="#63b8ff" stroke="#63b8ff" points="1195.37,-132.61 1204.85,-127.88 1194.49,-125.66 1195.37,-132.61"/>
</a>
</g>
</g>
<!-- Node22 -->
<g id="Node000022" class="node">
<title>Node22</title>
<g id="a_Node000022"><a xlink:title=" ">
<polygon fill="#e0e0e0" stroke="#999999" points="1404.5,-129 1339.5,-129 1339.5,-110 1404.5,-110 1404.5,-129"/>
<text text-anchor="middle" x="1372" y="-117" font-family="Helvetica,sans-Serif" font-size="10.00">QTypeInfo</text>
</a>
</g>
</g>
<!-- Node20&#45;&gt;Node22 -->
<g id="edge32_Node000020_Node000022" class="edge">
<title>Node20&#45;&gt;Node22</title>
<g id="a_edge32_Node000020_Node000022"><a xlink:title=" ">
<path fill="none" stroke="#63b8ff" d="M862.61,-219.77C883.95,-203.91 928.91,-171.38 947,-165 1105.17,-109.22 1158.82,-152.28 1329,-128.95"/>
<polygon fill="#63b8ff" stroke="#63b8ff" points="1329.64,-132.39 1339.04,-127.51 1328.65,-125.46 1329.64,-132.39"/>
</a>
</g>
</g>
<!-- Node20&#45;&gt;Node23 -->
<g id="edge36_Node000020_Node000023" class="edge">
<title>Node20&#45;&gt;Node23</title>
<g id="a_edge36_Node000020_Node000023"><a xlink:title=" ">
<path fill="none" stroke="#63b8ff" d="M887.47,-219.98C926.57,-210.86 988.77,-196.33 1031.39,-186.38"/>
<polygon fill="#63b8ff" stroke="#63b8ff" points="1032.3,-189.76 1041.24,-184.08 1030.71,-182.95 1032.3,-189.76"/>
</a>
</g>
</g>
<!-- Node20&#45;&gt;Node25 -->
<g id="edge38_Node000020_Node000025" class="edge">
<title>Node20&#45;&gt;Node25</title>
<g id="a_edge38_Node000020_Node000025"><a xlink:title=" ">
<path fill="none" stroke="#63b8ff" d="M844.89,-219.62C836.52,-206.26 823.93,-180.85 837,-165 842.51,-158.31 943.08,-140.67 1009.09,-129.71"/>
<polygon fill="#63b8ff" stroke="#63b8ff" points="1009.67,-133.16 1018.97,-128.08 1008.53,-126.26 1009.67,-133.16"/>
</a>
</g>
</g>
<!-- Node26 -->
<g id="Node000026" class="node">
<title>Node26</title>
<g id="a_Node000026"><a xlink:href="../../d2/d07/vgobject_8h.html" target="_top" xlink:title=" ">
<polygon fill="white" stroke="#666666" points="1365,-184 1297,-184 1297,-165 1365,-165 1365,-184"/>
<text text-anchor="middle" x="1331" y="-172" font-family="Helvetica,sans-Serif" font-size="10.00">vgobject.h</text>
</a>
</g>
</g>
<!-- Node20&#45;&gt;Node26 -->
<g id="edge39_Node000020_Node000026" class="edge">
<title>Node20&#45;&gt;Node26</title>
<g id="a_edge39_Node000020_Node000026"><a xlink:title=" ">
<path fill="none" stroke="#63b8ff" d="M900.11,-223.08C993.89,-212.72 1197.07,-190.29 1286.84,-180.38"/>
<polygon fill="#63b8ff" stroke="#63b8ff" points="1287.4,-183.84 1296.95,-179.26 1286.63,-176.88 1287.4,-183.84"/>
</a>
</g>
</g>
<!-- Node24 -->
<g id="Node000024" class="node">
<title>Node24</title>
<g id="a_Node000024"><a xlink:title=" ">
<polygon fill="#e0e0e0" stroke="#999999" points="1000.5,-129 947.5,-129 947.5,-110 1000.5,-110 1000.5,-129"/>
<text text-anchor="middle" x="974" y="-117" font-family="Helvetica,sans-Serif" font-size="10.00">QtMath</text>
</a>
</g>
</g>
<!-- Node23&#45;&gt;Node24 -->
<g id="edge37_Node000023_Node000024" class="edge">
<title>Node23&#45;&gt;Node24</title>
<g id="a_edge37_Node000023_Node000024"><a xlink:title=" ">
<path fill="none" stroke="#63b8ff" d="M1061.29,-164.98C1044.79,-156.57 1019.3,-143.59 1000.12,-133.81"/>
<polygon fill="#63b8ff" stroke="#63b8ff" points="1001.51,-130.59 991.01,-129.17 998.33,-136.83 1001.51,-130.59"/>
</a>
</g>
</g>
<!-- Node26&#45;&gt;Node5 -->
<g id="edge41_Node000026_Node000005" class="edge">
<title>Node26&#45;&gt;Node5</title>
<g id="a_edge41_Node000026_Node000005"><a xlink:title=" ">
<path fill="none" stroke="#63b8ff" d="M1365.08,-167.97C1407.9,-159.58 1472.83,-141.23 1447,-110 1422.55,-80.44 1310.27,-70.33 1250.96,-67.03"/>
<polygon fill="#63b8ff" stroke="#63b8ff" points="1251.05,-63.53 1240.88,-66.5 1250.68,-70.52 1251.05,-63.53"/>
</a>
</g>
</g>
<!-- Node26&#45;&gt;Node6 -->
<g id="edge43_Node000026_Node000006" class="edge">
<title>Node26&#45;&gt;Node6</title>
<g id="a_edge43_Node000026_Node000006"><a xlink:title=" ">
<path fill="none" stroke="#63b8ff" d="M1303.37,-164.98C1274.4,-156.06 1228.72,-141.98 1196.51,-132.06"/>
<polygon fill="#63b8ff" stroke="#63b8ff" points="1197.15,-128.59 1186.57,-128.99 1195.09,-135.28 1197.15,-128.59"/>
</a>
</g>
</g>
<!-- Node26&#45;&gt;Node7 -->
<g id="edge44_Node000026_Node000007" class="edge">
<title>Node26&#45;&gt;Node7</title>
<g id="a_edge44_Node000026_Node000007"><a xlink:title=" ">
<path fill="none" stroke="#63b8ff" d="M1358.57,-164.92C1390.29,-153.71 1435.42,-132.81 1414,-110 1391.03,-85.54 893.19,-70.44 747.01,-66.52"/>
<polygon fill="#63b8ff" stroke="#63b8ff" points="746.8,-63.01 736.71,-66.25 746.62,-70.01 746.8,-63.01"/>
</a>
</g>
</g>
<!-- Node26&#45;&gt;Node21 -->
<g id="edge40_Node000026_Node000021" class="edge">
<title>Node26&#45;&gt;Node21</title>
<g id="a_edge40_Node000026_Node000021"><a xlink:title=" ">
<path fill="none" stroke="#63b8ff" d="M1320.07,-164.98C1309.92,-157.07 1294.58,-145.11 1282.35,-135.58"/>
<polygon fill="#63b8ff" stroke="#63b8ff" points="1284.16,-132.56 1274.12,-129.17 1279.86,-138.08 1284.16,-132.56"/>
</a>
</g>
</g>
<!-- Node26&#45;&gt;Node22 -->
<g id="edge42_Node000026_Node000022" class="edge">
<title>Node26&#45;&gt;Node22</title>
<g id="a_edge42_Node000026_Node000022"><a xlink:title=" ">
<path fill="none" stroke="#63b8ff" d="M1337.77,-164.75C1343.56,-157.26 1352.06,-146.28 1359.14,-137.13"/>
<polygon fill="#63b8ff" stroke="#63b8ff" points="1362.01,-139.14 1365.36,-129.09 1356.47,-134.86 1362.01,-139.14"/>
</a>
</g>
</g>
<!-- Node26&#45;&gt;Node25 -->
<g id="edge45_Node000026_Node000025" class="edge">
<title>Node26&#45;&gt;Node25</title>
<g id="a_edge45_Node000026_Node000025"><a xlink:title=" ">
<path fill="none" stroke="#63b8ff" d="M1296.9,-166.68C1251.72,-157.64 1171.58,-141.62 1118.62,-131.02"/>
<polygon fill="#63b8ff" stroke="#63b8ff" points="1119.23,-127.58 1108.73,-129.05 1117.85,-134.44 1119.23,-127.58"/>
</a>
</g>
</g>
<!-- Node30&#45;&gt;Node3 -->
<g id="edge54_Node000030_Node000003" class="edge">
<title>Node30&#45;&gt;Node3</title>
<g id="a_edge54_Node000030_Node000003"><a xlink:title=" ">
<path fill="none" stroke="#63b8ff" d="M1450.41,-219.82C1450.96,-197.37 1448.93,-137.23 1414,-110 1350.68,-60.64 788.38,-79.7 669.4,-73.76"/>
<polygon fill="#63b8ff" stroke="#63b8ff" points="669.51,-70.26 659.3,-73.1 669.05,-77.24 669.51,-70.26"/>
</a>
</g>
</g>
<!-- Node30&#45;&gt;Node5 -->
<g id="edge57_Node000030_Node000005" class="edge">
<title>Node30&#45;&gt;Node5</title>
<g id="a_edge57_Node000030_Node000005"><a xlink:title=" ">
<path fill="none" stroke="#63b8ff" d="M1512.56,-227.51C1567.05,-223.67 1634.66,-210.04 1616,-165 1602.77,-133.06 1592.03,-125.24 1561,-110 1506.98,-83.47 1328.64,-71.35 1250.84,-67.23"/>
<polygon fill="#63b8ff" stroke="#63b8ff" points="1250.72,-63.71 1240.55,-66.7 1250.36,-70.71 1250.72,-63.71"/>
</a>
</g>
</g>
<!-- Node30&#45;&gt;Node7 -->
<g id="edge59_Node000030_Node000007" class="edge">
<title>Node30&#45;&gt;Node7</title>
<g id="a_edge59_Node000030_Node000007"><a xlink:title=" ">
<path fill="none" stroke="#63b8ff" d="M1458.9,-219.92C1466.87,-211.59 1478.04,-198.16 1483,-184 1493.89,-152.95 1507.59,-133.92 1485,-110 1459.43,-82.93 902.28,-69.5 746.91,-66.28"/>
<polygon fill="#63b8ff" stroke="#63b8ff" points="746.92,-62.78 736.85,-66.07 746.77,-69.78 746.92,-62.78"/>
</a>
</g>
</g>
<!-- Node30&#45;&gt;Node18 -->
<g id="edge60_Node000030_Node000018" class="edge">
<title>Node30&#45;&gt;Node18</title>
<g id="a_edge60_Node000030_Node000018"><a xlink:title=" ">
<path fill="none" stroke="#63b8ff" d="M1401.47,-219.93C1354.05,-211.41 1279.89,-197.66 1216,-184 1180.26,-176.36 1171.95,-171.59 1136,-165 1042.03,-147.78 932.34,-134.74 863.03,-127.35"/>
<polygon fill="#63b8ff" stroke="#63b8ff" points="863,-123.83 852.68,-126.26 862.26,-130.79 863,-123.83"/>
</a>
</g>
</g>
<!-- Node30&#45;&gt;Node21 -->
<g id="edge56_Node000030_Node000021" class="edge">
<title>Node30&#45;&gt;Node21</title>
<g id="a_edge56_Node000030_Node000021"><a xlink:title=" ">
<path fill="none" stroke="#63b8ff" d="M1441.35,-219.67C1427.94,-206.38 1400.86,-181.05 1374,-165 1350.97,-151.24 1322.91,-140.03 1300.77,-132.31"/>
<polygon fill="#63b8ff" stroke="#63b8ff" points="1301.64,-128.91 1291.05,-129.01 1299.39,-135.54 1301.64,-128.91"/>
</a>
</g>
</g>
<!-- Node30&#45;&gt;Node22 -->
<g id="edge58_Node000030_Node000022" class="edge">
<title>Node30&#45;&gt;Node22</title>
<g id="a_edge58_Node000030_Node000022"><a xlink:title=" ">
<path fill="none" stroke="#63b8ff" d="M1444.35,-219.74C1436.31,-207.36 1420.98,-184.14 1407,-165 1400.12,-155.57 1392.09,-145.32 1385.46,-137.03"/>
<polygon fill="#63b8ff" stroke="#63b8ff" points="1388.16,-134.81 1379.16,-129.22 1382.71,-139.2 1388.16,-134.81"/>
</a>
</g>
</g>
<!-- Node30&#45;&gt;Node25 -->
<g id="edge61_Node000030_Node000025" class="edge">
<title>Node30&#45;&gt;Node25</title>
<g id="a_edge61_Node000030_Node000025"><a xlink:title=" ">
<path fill="none" stroke="#63b8ff" d="M1418.61,-219.98C1385.96,-211.1 1333.36,-196.72 1288,-184 1223.9,-166.03 1149.55,-144.65 1105.21,-131.85"/>
<polygon fill="#63b8ff" stroke="#63b8ff" points="1106,-128.43 1095.42,-129.02 1104.05,-135.16 1106,-128.43"/>
</a>
</g>
</g>
<!-- Node30&#45;&gt;Node26 -->
<g id="edge62_Node000030_Node000026" class="edge">
<title>Node30&#45;&gt;Node26</title>
<g id="a_edge62_Node000030_Node000026"><a xlink:title=" ">
<path fill="none" stroke="#63b8ff" d="M1430.88,-219.98C1411.65,-211.42 1381.77,-198.11 1359.69,-188.28"/>
<polygon fill="#63b8ff" stroke="#63b8ff" points="1361.03,-185.04 1350.47,-184.17 1358.18,-191.44 1361.03,-185.04"/>
</a>
</g>
</g>
<!-- Node31 -->
<g id="Node000031" class="node">
<title>Node31</title>
<g id="a_Node000031"><a xlink:title=" ">
<polygon fill="#e0e0e0" stroke="#999999" points="1606.5,-184 1535.5,-184 1535.5,-165 1606.5,-165 1606.5,-184"/>
<text text-anchor="middle" x="1571" y="-172" font-family="Helvetica,sans-Serif" font-size="10.00">QMetaType</text>
</a>
</g>
</g>
<!-- Node30&#45;&gt;Node31 -->
<g id="edge55_Node000030_Node000031" class="edge">
<title>Node30&#45;&gt;Node31</title>
<g id="a_edge55_Node000030_Node000031"><a xlink:title=" ">
<path fill="none" stroke="#63b8ff" d="M1469.44,-219.98C1488.99,-211.42 1519.38,-198.11 1541.82,-188.28"/>
<polygon fill="#63b8ff" stroke="#63b8ff" points="1543.45,-191.39 1551.21,-184.17 1540.64,-184.98 1543.45,-191.39"/>
</a>
</g>
</g>
</g>
</svg>

<g id="navigator" transform="translate(0 0)" fill="#404254">
  <rect fill="#f2f5e9" fill-opacity="0.5" stroke="#606060" stroke-width=".5" x="0" y="0" width="60" height="60"/>
  <use id="zoomplus" xlink:href="#zoomPlus" x="17" y="9" onmousedown="handleZoom(evt,'in')"/>
  <use id="zoomminus" xlink:href="#zoomMin" x="42" y="9" onmousedown="handleZoom(evt,'out')"/>
  <use id="reset" xlink:href="#resetDef" x="30" y="36" onmousedown="handleReset()"/>
   <use id="arrowup" xlink:href="#arrowUp" x="0" y="0" onmousedown="handlePan(0,-1)"/>
  <use id="arrowright" xlink:href="#arrowRight" x="0" y="0" onmousedown="handlePan(1,0)"/>
  <use id="arrowdown" xlink:href="#arrowDown" x="0" y="0" onmousedown="handlePan(0,1)"/>
  <use id="arrowleft" xlink:href="#arrowLeft" x="0" y="0" onmousedown="handlePan(-1,0)"/>
</g>
<svg viewBox="0 0 15 15" width="100%" height="30px" preserveAspectRatio="xMaxYMin meet">
 <g id="arrow_out" transform="scale(0.3 0.3)">
  <a xlink:href="vabstractcubicbezier_8cpp__incl_org.svg" target="_base">
   <rect id="button" ry="5" rx="5" y="6" x="6" height="38" width="38"
        fill="#f2f5e9" fill-opacity="0.5" stroke="#606060" stroke-width="1.0"/>
   <path id="arrow"
     d="M 11.500037,31.436501 C 11.940474,20.09759 22.043105,11.32322 32.158766,21.979434 L 37.068811,17.246167 C 37.068811,17.246167 37.088388,32 37.088388,32 L 22.160133,31.978069 C 22.160133,31.978069 26.997745,27.140456 26.997745,27.140456 C 18.528582,18.264221 13.291696,25.230495 11.500037,31.436501 z"
     style="fill:#404040;"/>
  </a>
 </g>
</svg>

<style type='text/css'>
<![CDATA[
[data-mouse-over-selected='false'] { opacity: 0.7; }
[data-mouse-over-selected='true']  { opacity: 1.0; }
]]>
</style>
<script type="application/ecmascript"><![CDATA[
document.addEventListener('DOMContentLoaded', (event) => {
  highlightEdges();
  highlightAdjacentNodes();
});
]]></script>
</svg>
