<?xml version="1.0" encoding="UTF-8" standalone="no"?>
<!DOCTYPE svg PUBLIC "-//W3C//DTD SVG 1.1//EN"
 "http://www.w3.org/Graphics/SVG/1.1/DTD/svg11.dtd">
<!-- Generated by graphviz version 2.43.0 (0)
 -->
<!-- Title: src/libs/vwidgets/color_combobox.cpp Pages: 1 -->
<svg width="2101pt" height="269pt"
 viewBox="0.00 0.00 2101.00 269.00" xmlns="http://www.w3.org/2000/svg" xmlns:xlink="http://www.w3.org/1999/xlink">
<g id="graph0" class="graph" transform="scale(1 1) rotate(0) translate(4 265)">
<title>src/libs/vwidgets/color_combobox.cpp</title>
<!-- Node1 -->
<g id="Node000001" class="node">
<title>Node1</title>
<g id="a_Node000001"><a xlink:title=" ">
<polygon fill="#999999" stroke="#666666" points="1472,-261 1347,-261 1347,-231 1472,-231 1472,-261"/>
<text text-anchor="start" x="1355" y="-249" font-family="Helvetica,sans-Serif" font-size="10.00">src/libs/vwidgets/color</text>
<text text-anchor="middle" x="1409.5" y="-238" font-family="Helvetica,sans-Serif" font-size="10.00">_combobox.cpp</text>
</a>
</g>
</g>
<!-- Node2 -->
<g id="Node000002" class="node">
<title>Node2</title>
<g id="a_Node000002"><a xlink:title=" ">
<polygon fill="#e0e0e0" stroke="#999999" points="705.5,-195 655.5,-195 655.5,-176 705.5,-176 705.5,-195"/>
<text text-anchor="middle" x="680.5" y="-183" font-family="Helvetica,sans-Serif" font-size="10.00">QColor</text>
</a>
</g>
</g>
<!-- Node1&#45;&gt;Node2 -->
<g id="edge1_Node000001_Node000002" class="edge">
<title>Node1&#45;&gt;Node2</title>
<g id="a_edge1_Node000001_Node000002"><a xlink:title=" ">
<path fill="none" stroke="#63b8ff" d="M1346.86,-243.44C1225.31,-239.76 949.22,-228.18 719.5,-195 718.23,-194.82 716.93,-194.61 715.63,-194.4"/>
<polygon fill="#63b8ff" stroke="#63b8ff" points="716.05,-190.92 705.58,-192.52 714.76,-197.8 716.05,-190.92"/>
</a>
</g>
</g>
<!-- Node3 -->
<g id="Node000003" class="node">
<title>Node3</title>
<g id="a_Node000003"><a xlink:title=" ">
<polygon fill="#e0e0e0" stroke="#999999" points="61,-134.5 0,-134.5 0,-115.5 61,-115.5 61,-134.5"/>
<text text-anchor="middle" x="30.5" y="-122.5" font-family="Helvetica,sans-Serif" font-size="10.00">QPixmap</text>
</a>
</g>
</g>
<!-- Node1&#45;&gt;Node3 -->
<g id="edge2_Node000001_Node000003" class="edge">
<title>Node1&#45;&gt;Node3</title>
<g id="a_edge2_Node000001_Node000003"><a xlink:title=" ">
<path fill="none" stroke="#63b8ff" d="M1346.82,-243.8C1204.03,-240.51 858.34,-229.15 747.5,-195 731.33,-190.02 730.72,-180.82 714.5,-176 439.3,-94.15 350.88,-197.1 69.5,-140 66.49,-139.39 63.41,-138.6 60.35,-137.69"/>
<polygon fill="#63b8ff" stroke="#63b8ff" points="61.42,-134.36 50.83,-134.55 59.23,-141.01 61.42,-134.36"/>
</a>
</g>
</g>
<!-- Node4 -->
<g id="Node000004" class="node">
<title>Node4</title>
<g id="a_Node000004"><a xlink:title=" ">
<polygon fill="#e0e0e0" stroke="#999999" points="124,-134.5 79,-134.5 79,-115.5 124,-115.5 124,-134.5"/>
<text text-anchor="middle" x="101.5" y="-122.5" font-family="Helvetica,sans-Serif" font-size="10.00">QMap</text>
</a>
</g>
</g>
<!-- Node1&#45;&gt;Node4 -->
<g id="edge3_Node000001_Node000004" class="edge">
<title>Node1&#45;&gt;Node4</title>
<g id="a_edge3_Node000001_Node000004"><a xlink:title=" ">
<path fill="none" stroke="#63b8ff" d="M1346.96,-242.68C1211.27,-237.21 893.67,-221.89 789.5,-195 769.66,-189.88 767.39,-180.9 747.5,-176 481.65,-110.48 398.37,-205.44 132.5,-140 130.77,-139.57 129.01,-139.05 127.26,-138.46"/>
<polygon fill="#63b8ff" stroke="#63b8ff" points="128.09,-135.03 117.51,-134.57 125.5,-141.53 128.09,-135.03"/>
</a>
</g>
</g>
<!-- Node5 -->
<g id="Node000005" class="node">
<title>Node5</title>
<g id="a_Node000005"><a xlink:title=" ">
<polygon fill="#e0e0e0" stroke="#999999" points="2093,-195 1982,-195 1982,-176 2093,-176 2093,-195"/>
<text text-anchor="middle" x="2037.5" y="-183" font-family="Helvetica,sans-Serif" font-size="10.00">QAbstractItemView</text>
</a>
</g>
</g>
<!-- Node1&#45;&gt;Node5 -->
<g id="edge4_Node000001_Node000005" class="edge">
<title>Node1&#45;&gt;Node5</title>
<g id="a_edge4_Node000001_Node000005"><a xlink:title=" ">
<path fill="none" stroke="#63b8ff" d="M1472.18,-240.34C1574.55,-232.53 1784.23,-215.72 1971.63,-195.17"/>
<polygon fill="#63b8ff" stroke="#63b8ff" points="1972.11,-198.64 1981.67,-194.06 1971.35,-191.68 1972.11,-198.64"/>
</a>
</g>
</g>
<!-- Node6 -->
<g id="Node000006" class="node">
<title>Node6</title>
<g id="a_Node000006"><a xlink:title=" ">
<polygon fill="#e0e0e0" stroke="#999999" points="1758,-134.5 1681,-134.5 1681,-115.5 1758,-115.5 1758,-134.5"/>
<text text-anchor="middle" x="1719.5" y="-122.5" font-family="Helvetica,sans-Serif" font-size="10.00">QComboBox</text>
</a>
</g>
</g>
<!-- Node1&#45;&gt;Node6 -->
<g id="edge5_Node000001_Node000006" class="edge">
<title>Node1&#45;&gt;Node6</title>
<g id="a_edge5_Node000001_Node000006"><a xlink:title=" ">
<path fill="none" stroke="#63b8ff" d="M1445.97,-231C1507.25,-207.48 1629.83,-160.42 1687.77,-138.18"/>
<polygon fill="#63b8ff" stroke="#63b8ff" points="1689.07,-141.43 1697.15,-134.58 1686.56,-134.9 1689.07,-141.43"/>
</a>
</g>
</g>
<!-- Node7 -->
<g id="Node000007" class="node">
<title>Node7</title>
<g id="a_Node000007"><a xlink:href="../../d1/de6/vabstracttool_8h.html" target="_top" xlink:title=" ">
<polygon fill="white" stroke="#666666" points="958,-195 799,-195 799,-176 958,-176 958,-195"/>
<text text-anchor="middle" x="878.5" y="-183" font-family="Helvetica,sans-Serif" font-size="10.00">../vtools/tools/vabstracttool.h</text>
</a>
</g>
</g>
<!-- Node1&#45;&gt;Node7 -->
<g id="edge6_Node000001_Node000007" class="edge">
<title>Node1&#45;&gt;Node7</title>
<g id="a_edge6_Node000001_Node000007"><a xlink:title=" ">
<path fill="none" stroke="#63b8ff" d="M1346.76,-238.09C1252.25,-227.68 1073.02,-207.93 965.8,-196.12"/>
<polygon fill="#63b8ff" stroke="#63b8ff" points="965.98,-192.62 955.66,-195 965.22,-199.57 965.98,-192.62"/>
</a>
</g>
</g>
<!-- Node23 -->
<g id="Node000023" class="node">
<title>Node23</title>
<g id="a_Node000023"><a xlink:href="../../d5/d77/logging_8h.html" target="_top" xlink:title=" ">
<polygon fill="white" stroke="#666666" points="1964,-195 1861,-195 1861,-176 1964,-176 1964,-195"/>
<text text-anchor="middle" x="1912.5" y="-183" font-family="Helvetica,sans-Serif" font-size="10.00">../vmisc/logging.h</text>
</a>
</g>
</g>
<!-- Node1&#45;&gt;Node23 -->
<g id="edge29_Node000001_Node000023" class="edge">
<title>Node1&#45;&gt;Node23</title>
<g id="a_edge29_Node000001_Node000023"><a xlink:title=" ">
<path fill="none" stroke="#63b8ff" d="M1472.19,-237.71C1569.13,-226.44 1754.26,-204.9 1850.67,-193.69"/>
<polygon fill="#63b8ff" stroke="#63b8ff" points="1851.32,-197.14 1860.85,-192.51 1850.51,-190.19 1851.32,-197.14"/>
</a>
</g>
</g>
<!-- Node25 -->
<g id="Node000025" class="node">
<title>Node25</title>
<g id="a_Node000025"><a xlink:href="../../d3/da5/ifcdef_8h.html" target="_top" xlink:title=" ">
<polygon fill="white" stroke="#666666" points="1448,-195 1371,-195 1371,-176 1448,-176 1448,-195"/>
<text text-anchor="middle" x="1409.5" y="-183" font-family="Helvetica,sans-Serif" font-size="10.00">../ifc/ifcdef.h</text>
</a>
</g>
</g>
<!-- Node1&#45;&gt;Node25 -->
<g id="edge32_Node000001_Node000025" class="edge">
<title>Node1&#45;&gt;Node25</title>
<g id="a_edge32_Node000001_Node000025"><a xlink:title=" ">
<path fill="none" stroke="#63b8ff" d="M1409.5,-230.84C1409.5,-223.21 1409.5,-213.7 1409.5,-205.45"/>
<polygon fill="#63b8ff" stroke="#63b8ff" points="1413,-205.27 1409.5,-195.27 1406,-205.27 1413,-205.27"/>
</a>
</g>
</g>
<!-- Node34 -->
<g id="Node000034" class="node">
<title>Node34</title>
<g id="a_Node000034"><a xlink:href="../../df/dce/color__combobox_8h.html" target="_top" xlink:title=" ">
<polygon fill="white" stroke="#666666" points="1772.5,-195 1666.5,-195 1666.5,-176 1772.5,-176 1772.5,-195"/>
<text text-anchor="middle" x="1719.5" y="-183" font-family="Helvetica,sans-Serif" font-size="10.00">color_combobox.h</text>
</a>
</g>
</g>
<!-- Node1&#45;&gt;Node34 -->
<g id="edge50_Node000001_Node000034" class="edge">
<title>Node1&#45;&gt;Node34</title>
<g id="a_edge50_Node000001_Node000034"><a xlink:title=" ">
<path fill="none" stroke="#63b8ff" d="M1472.23,-233.16C1528.58,-222.53 1610.5,-207.07 1664.38,-196.9"/>
<polygon fill="#63b8ff" stroke="#63b8ff" points="1665.25,-200.3 1674.43,-195.01 1663.95,-193.42 1665.25,-200.3"/>
</a>
</g>
</g>
<!-- Node7&#45;&gt;Node3 -->
<g id="edge15_Node000007_Node000003" class="edge">
<title>Node7&#45;&gt;Node3</title>
<g id="a_edge15_Node000007_Node000003"><a xlink:title=" ">
<path fill="none" stroke="#63b8ff" d="M798.84,-179.18C781.9,-178.09 764.11,-176.98 747.5,-176 446.27,-158.23 365.31,-199.61 69.5,-140 66.49,-139.39 63.41,-138.6 60.35,-137.7"/>
<polygon fill="#63b8ff" stroke="#63b8ff" points="61.42,-134.37 50.83,-134.56 59.22,-141.02 61.42,-134.37"/>
</a>
</g>
</g>
<!-- Node7&#45;&gt;Node4 -->
<g id="edge8_Node000007_Node000004" class="edge">
<title>Node7&#45;&gt;Node4</title>
<g id="a_edge8_Node000007_Node000004"><a xlink:title=" ">
<path fill="none" stroke="#63b8ff" d="M798.87,-177.03C794.35,-176.67 789.87,-176.32 785.5,-176 640.56,-165.38 273.68,-174.49 132.5,-140 130.76,-139.58 129.01,-139.06 127.26,-138.47"/>
<polygon fill="#63b8ff" stroke="#63b8ff" points="128.09,-135.04 117.51,-134.58 125.5,-141.54 128.09,-135.04"/>
</a>
</g>
</g>
<!-- Node8 -->
<g id="Node000008" class="node">
<title>Node8</title>
<g id="a_Node000008"><a xlink:title=" ">
<polygon fill="#e0e0e0" stroke="#999999" points="1080.5,-74 960.5,-74 960.5,-55 1080.5,-55 1080.5,-74"/>
<text text-anchor="middle" x="1020.5" y="-62" font-family="Helvetica,sans-Serif" font-size="10.00">qcompilerdetection.h</text>
</a>
</g>
</g>
<!-- Node7&#45;&gt;Node8 -->
<g id="edge7_Node000007_Node000008" class="edge">
<title>Node7&#45;&gt;Node8</title>
<g id="a_edge7_Node000007_Node000008"><a xlink:title=" ">
<path fill="none" stroke="#63b8ff" d="M888.49,-175.97C904.78,-162.07 938.08,-133.74 966.5,-110 978.15,-100.27 991.3,-89.43 1001.71,-80.88"/>
<polygon fill="#63b8ff" stroke="#63b8ff" points="1004.19,-83.37 1009.71,-74.32 999.76,-77.96 1004.19,-83.37"/>
</a>
</g>
</g>
<!-- Node9 -->
<g id="Node000009" class="node">
<title>Node9</title>
<g id="a_Node000009"><a xlink:title=" ">
<polygon fill="#e0e0e0" stroke="#999999" points="586.5,-74 506.5,-74 506.5,-55 586.5,-55 586.5,-74"/>
<text text-anchor="middle" x="546.5" y="-62" font-family="Helvetica,sans-Serif" font-size="10.00">QMetaObject</text>
</a>
</g>
</g>
<!-- Node7&#45;&gt;Node9 -->
<g id="edge9_Node000007_Node000009" class="edge">
<title>Node7&#45;&gt;Node9</title>
<g id="a_edge9_Node000007_Node000009"><a xlink:title=" ">
<path fill="none" stroke="#63b8ff" d="M857.7,-175.9C839.29,-167.85 812.07,-154.85 790.5,-140 774.17,-128.76 775.15,-119.03 757.5,-110 743.31,-102.74 654.65,-85.45 596.86,-74.69"/>
<polygon fill="#63b8ff" stroke="#63b8ff" points="597.28,-71.2 586.81,-72.82 596,-78.09 597.28,-71.2"/>
</a>
</g>
</g>
<!-- Node10 -->
<g id="Node000010" class="node">
<title>Node10</title>
<g id="a_Node000010"><a xlink:title=" ">
<polygon fill="#e0e0e0" stroke="#999999" points="660.5,-74 604.5,-74 604.5,-55 660.5,-55 660.5,-74"/>
<text text-anchor="middle" x="632.5" y="-62" font-family="Helvetica,sans-Serif" font-size="10.00">QObject</text>
</a>
</g>
</g>
<!-- Node7&#45;&gt;Node10 -->
<g id="edge10_Node000007_Node000010" class="edge">
<title>Node7&#45;&gt;Node10</title>
<g id="a_edge10_Node000007_Node000010"><a xlink:title=" ">
<path fill="none" stroke="#63b8ff" d="M870.67,-175.76C856.29,-160.24 824.08,-127.85 790.5,-110 779.81,-104.32 713.73,-86.58 670.48,-75.29"/>
<polygon fill="#63b8ff" stroke="#63b8ff" points="671.12,-71.84 660.56,-72.71 669.36,-78.62 671.12,-71.84"/>
</a>
</g>
</g>
<!-- Node11 -->
<g id="Node000011" class="node">
<title>Node11</title>
<g id="a_Node000011"><a xlink:title=" ">
<polygon fill="#e0e0e0" stroke="#999999" points="1152,-74 1099,-74 1099,-55 1152,-55 1152,-74"/>
<text text-anchor="middle" x="1125.5" y="-62" font-family="Helvetica,sans-Serif" font-size="10.00">QString</text>
</a>
</g>
</g>
<!-- Node7&#45;&gt;Node11 -->
<g id="edge11_Node000007_Node000011" class="edge">
<title>Node7&#45;&gt;Node11</title>
<g id="a_edge11_Node000007_Node000011"><a xlink:title=" ">
<path fill="none" stroke="#63b8ff" d="M897.11,-175.98C914.86,-167.59 942.15,-154.03 964.5,-140 983.32,-128.19 984.98,-120.61 1004.5,-110 1031.46,-95.34 1064.25,-83.62 1088.89,-75.89"/>
<polygon fill="#63b8ff" stroke="#63b8ff" points="1090.04,-79.2 1098.58,-72.93 1087.99,-72.51 1090.04,-79.2"/>
</a>
</g>
</g>
<!-- Node12 -->
<g id="Node000012" class="node">
<title>Node12</title>
<g id="a_Node000012"><a xlink:title=" ">
<polygon fill="#e0e0e0" stroke="#999999" points="1287.5,-74 1217.5,-74 1217.5,-55 1287.5,-55 1287.5,-74"/>
<text text-anchor="middle" x="1252.5" y="-62" font-family="Helvetica,sans-Serif" font-size="10.00">QStringList</text>
</a>
</g>
</g>
<!-- Node7&#45;&gt;Node12 -->
<g id="edge12_Node000007_Node000012" class="edge">
<title>Node7&#45;&gt;Node12</title>
<g id="a_edge12_Node000007_Node000012"><a xlink:title=" ">
<path fill="none" stroke="#63b8ff" d="M958.21,-181.54C1042.19,-177.07 1167.69,-166.14 1207.5,-140 1227.58,-126.81 1240.08,-101.27 1246.66,-83.8"/>
<polygon fill="#63b8ff" stroke="#63b8ff" points="1250.04,-84.75 1250.02,-74.16 1243.43,-82.45 1250.04,-84.75"/>
</a>
</g>
</g>
<!-- Node13 -->
<g id="Node000013" class="node">
<title>Node13</title>
<g id="a_Node000013"><a xlink:title=" ">
<polygon fill="#e0e0e0" stroke="#999999" points="1199,-74 1170,-74 1170,-55 1199,-55 1199,-74"/>
<text text-anchor="middle" x="1184.5" y="-62" font-family="Helvetica,sans-Serif" font-size="10.00">Qt</text>
</a>
</g>
</g>
<!-- Node7&#45;&gt;Node13 -->
<g id="edge13_Node000007_Node000013" class="edge">
<title>Node7&#45;&gt;Node13</title>
<g id="a_edge13_Node000007_Node000013"><a xlink:title=" ">
<path fill="none" stroke="#63b8ff" d="M909.19,-175.92C934.11,-168.31 969.73,-155.92 998.5,-140 1017.63,-129.41 1018.01,-119.91 1037.5,-110 1085.6,-85.55 1104.31,-90.83 1160.14,-73.89"/>
<polygon fill="#63b8ff" stroke="#63b8ff" points="1161.33,-77.18 1169.82,-70.84 1159.23,-70.51 1161.33,-77.18"/>
</a>
</g>
</g>
<!-- Node14 -->
<g id="Node000014" class="node">
<title>Node14</title>
<g id="a_Node000014"><a xlink:title=" ">
<polygon fill="#e0e0e0" stroke="#999999" points="1769,-74 1710,-74 1710,-55 1769,-55 1769,-74"/>
<text text-anchor="middle" x="1739.5" y="-62" font-family="Helvetica,sans-Serif" font-size="10.00">QtGlobal</text>
</a>
</g>
</g>
<!-- Node7&#45;&gt;Node14 -->
<g id="edge14_Node000007_Node000014" class="edge">
<title>Node7&#45;&gt;Node14</title>
<g id="a_edge14_Node000007_Node000014"><a xlink:title=" ">
<path fill="none" stroke="#63b8ff" d="M958.22,-184.1C1095.48,-182.48 1370.33,-174.83 1459.5,-140 1479.54,-132.17 1477.87,-118.8 1497.5,-110 1578.64,-73.62 1609.13,-90.77 1699.8,-74.2"/>
<polygon fill="#63b8ff" stroke="#63b8ff" points="1700.49,-77.63 1709.66,-72.31 1699.18,-70.76 1700.49,-77.63"/>
</a>
</g>
</g>
<!-- Node15 -->
<g id="Node000015" class="node">
<title>Node15</title>
<g id="a_Node000015"><a xlink:title=" ">
<polygon fill="#e0e0e0" stroke="#999999" points="1198.5,-134.5 1046.5,-134.5 1046.5,-115.5 1198.5,-115.5 1198.5,-134.5"/>
<text text-anchor="middle" x="1122.5" y="-122.5" font-family="Helvetica,sans-Serif" font-size="10.00">../ifc/xml/vabstractpattern.h</text>
</a>
</g>
</g>
<!-- Node7&#45;&gt;Node15 -->
<g id="edge16_Node000007_Node000015" class="edge">
<title>Node7&#45;&gt;Node15</title>
<g id="a_edge16_Node000007_Node000015"><a xlink:title=" ">
<path fill="none" stroke="#63b8ff" d="M913.98,-175.99C957.08,-165.66 1029.86,-148.21 1077.03,-136.9"/>
<polygon fill="#63b8ff" stroke="#63b8ff" points="1078.07,-140.25 1086.98,-134.52 1076.44,-133.44 1078.07,-140.25"/>
</a>
</g>
</g>
<!-- Node16 -->
<g id="Node000016" class="node">
<title>Node16</title>
<g id="a_Node000016"><a xlink:title=" ">
<polygon fill="#e0e0e0" stroke="#999999" points="263,-140 142,-140 142,-110 263,-110 263,-140"/>
<text text-anchor="start" x="150" y="-128" font-family="Helvetica,sans-Serif" font-size="10.00">../vtools/visualization</text>
<text text-anchor="middle" x="202.5" y="-117" font-family="Helvetica,sans-Serif" font-size="10.00">/visualization.h</text>
</a>
</g>
</g>
<!-- Node7&#45;&gt;Node16 -->
<g id="edge17_Node000007_Node000016" class="edge">
<title>Node7&#45;&gt;Node16</title>
<g id="a_edge17_Node000007_Node000016"><a xlink:title=" ">
<path fill="none" stroke="#63b8ff" d="M798.86,-177.11C794.34,-176.72 789.86,-176.35 785.5,-176 560.58,-157.85 500.18,-170.45 273.24,-140.12"/>
<polygon fill="#63b8ff" stroke="#63b8ff" points="273.38,-136.61 263.01,-138.74 272.45,-143.55 273.38,-136.61"/>
</a>
</g>
</g>
<!-- Node17 -->
<g id="Node000017" class="node">
<title>Node17</title>
<g id="a_Node000017"><a xlink:title=" ">
<polygon fill="#e0e0e0" stroke="#999999" points="448,-134.5 281,-134.5 281,-115.5 448,-115.5 448,-134.5"/>
<text text-anchor="middle" x="364.5" y="-122.5" font-family="Helvetica,sans-Serif" font-size="10.00">../vmisc/vabstractapplication.h</text>
</a>
</g>
</g>
<!-- Node7&#45;&gt;Node17 -->
<g id="edge18_Node000007_Node000017" class="edge">
<title>Node7&#45;&gt;Node17</title>
<g id="a_edge18_Node000007_Node000017"><a xlink:title=" ">
<path fill="none" stroke="#63b8ff" d="M798.84,-177.14C714.09,-169.05 576.15,-155.19 457.5,-140 448.12,-138.8 438.23,-137.43 428.54,-136.02"/>
<polygon fill="#63b8ff" stroke="#63b8ff" points="428.94,-132.54 418.54,-134.55 427.92,-139.47 428.94,-132.54"/>
</a>
</g>
</g>
<!-- Node18 -->
<g id="Node000018" class="node">
<title>Node18</title>
<g id="a_Node000018"><a xlink:title=" ">
<polygon fill="#e0e0e0" stroke="#999999" points="548.5,-134.5 466.5,-134.5 466.5,-115.5 548.5,-115.5 548.5,-134.5"/>
<text text-anchor="middle" x="507.5" y="-122.5" font-family="Helvetica,sans-Serif" font-size="10.00">../vmisc/def.h</text>
</a>
</g>
</g>
<!-- Node7&#45;&gt;Node18 -->
<g id="edge19_Node000007_Node000018" class="edge">
<title>Node7&#45;&gt;Node18</title>
<g id="a_edge19_Node000007_Node000018"><a xlink:title=" ">
<path fill="none" stroke="#63b8ff" d="M798.84,-176.49C733.57,-169.2 639.02,-156.98 557.5,-140 553.54,-139.18 549.44,-138.21 545.36,-137.18"/>
<polygon fill="#63b8ff" stroke="#63b8ff" points="545.93,-133.71 535.37,-134.52 544.13,-140.47 545.93,-133.71"/>
</a>
</g>
</g>
<!-- Node19 -->
<g id="Node000019" class="node">
<title>Node19</title>
<g id="a_Node000019"><a xlink:title=" ">
<polygon fill="#e0e0e0" stroke="#999999" points="748.5,-134.5 566.5,-134.5 566.5,-115.5 748.5,-115.5 748.5,-134.5"/>
<text text-anchor="middle" x="657.5" y="-122.5" font-family="Helvetica,sans-Serif" font-size="10.00">../vwidgets/vmaingraphicsscene.h</text>
</a>
</g>
</g>
<!-- Node7&#45;&gt;Node19 -->
<g id="edge20_Node000007_Node000019" class="edge">
<title>Node7&#45;&gt;Node19</title>
<g id="a_edge20_Node000007_Node000019"><a xlink:title=" ">
<path fill="none" stroke="#63b8ff" d="M846.36,-175.99C807.57,-165.73 742.24,-148.43 699.49,-137.12"/>
<polygon fill="#63b8ff" stroke="#63b8ff" points="700.24,-133.69 689.67,-134.52 698.45,-140.46 700.24,-133.69"/>
</a>
</g>
</g>
<!-- Node20 -->
<g id="Node000020" class="node">
<title>Node20</title>
<g id="a_Node000020"><a xlink:href="../../d8/ddf/vdatatool_8h.html" target="_top" xlink:title=" ">
<polygon fill="white" stroke="#666666" points="914.5,-134.5 842.5,-134.5 842.5,-115.5 914.5,-115.5 914.5,-134.5"/>
<text text-anchor="middle" x="878.5" y="-122.5" font-family="Helvetica,sans-Serif" font-size="10.00">vdatatool.h</text>
</a>
</g>
</g>
<!-- Node7&#45;&gt;Node20 -->
<g id="edge21_Node000007_Node000020" class="edge">
<title>Node7&#45;&gt;Node20</title>
<g id="a_edge21_Node000007_Node000020"><a xlink:title=" ">
<path fill="none" stroke="#63b8ff" d="M878.5,-175.87C878.5,-167.75 878.5,-155.31 878.5,-144.89"/>
<polygon fill="#63b8ff" stroke="#63b8ff" points="882,-144.67 878.5,-134.67 875,-144.67 882,-144.67"/>
</a>
</g>
</g>
<!-- Node20&#45;&gt;Node8 -->
<g id="edge22_Node000020_Node000008" class="edge">
<title>Node20&#45;&gt;Node8</title>
<g id="a_edge22_Node000020_Node000008"><a xlink:title=" ">
<path fill="none" stroke="#63b8ff" d="M899.15,-115.49C923.13,-105.62 962.89,-89.23 990.33,-77.93"/>
<polygon fill="#63b8ff" stroke="#63b8ff" points="991.91,-81.06 999.83,-74.02 989.25,-74.59 991.91,-81.06"/>
</a>
</g>
</g>
<!-- Node20&#45;&gt;Node9 -->
<g id="edge23_Node000020_Node000009" class="edge">
<title>Node20&#45;&gt;Node9</title>
<g id="a_edge23_Node000020_Node000009"><a xlink:title=" ">
<path fill="none" stroke="#63b8ff" d="M842.34,-117.63C782.87,-107.15 664.31,-86.26 596.73,-74.35"/>
<polygon fill="#63b8ff" stroke="#63b8ff" points="597.19,-70.88 586.74,-72.59 595.98,-77.77 597.19,-70.88"/>
</a>
</g>
</g>
<!-- Node20&#45;&gt;Node10 -->
<g id="edge24_Node000020_Node000010" class="edge">
<title>Node20&#45;&gt;Node10</title>
<g id="a_edge24_Node000020_Node000010"><a xlink:title=" ">
<path fill="none" stroke="#63b8ff" d="M848.95,-115.46C842.25,-113.6 835.14,-111.68 828.5,-110 761.28,-92.99 741.79,-90.32 670.68,-74.25"/>
<polygon fill="#63b8ff" stroke="#63b8ff" points="671.31,-70.81 660.78,-72.01 669.76,-77.63 671.31,-70.81"/>
</a>
</g>
</g>
<!-- Node20&#45;&gt;Node11 -->
<g id="edge25_Node000020_Node000011" class="edge">
<title>Node20&#45;&gt;Node11</title>
<g id="a_edge25_Node000020_Node000011"><a xlink:title=" ">
<path fill="none" stroke="#63b8ff" d="M914.42,-115.49C961.04,-104.45 1041.96,-85.29 1088.91,-74.17"/>
<polygon fill="#63b8ff" stroke="#63b8ff" points="1089.74,-77.57 1098.67,-71.85 1088.13,-70.75 1089.74,-77.57"/>
</a>
</g>
</g>
<!-- Node20&#45;&gt;Node14 -->
<g id="edge26_Node000020_Node000014" class="edge">
<title>Node20&#45;&gt;Node14</title>
<g id="a_edge26_Node000020_Node000014"><a xlink:title=" ">
<path fill="none" stroke="#63b8ff" d="M914.78,-120.46C946.99,-117.39 995.35,-113 1037.5,-110 1328.99,-89.27 1406.99,-113.83 1699.66,-74.03"/>
<polygon fill="#63b8ff" stroke="#63b8ff" points="1700.28,-77.48 1709.71,-72.65 1699.33,-70.55 1700.28,-77.48"/>
</a>
</g>
</g>
<!-- Node21 -->
<g id="Node000021" class="node">
<title>Node21</title>
<g id="a_Node000021"><a xlink:title=" ">
<polygon fill="#e0e0e0" stroke="#999999" points="942,-74 839,-74 839,-55 942,-55 942,-74"/>
<text text-anchor="middle" x="890.5" y="-62" font-family="Helvetica,sans-Serif" font-size="10.00">../vmisc/logging.h</text>
</a>
</g>
</g>
<!-- Node20&#45;&gt;Node21 -->
<g id="edge27_Node000020_Node000021" class="edge">
<title>Node20&#45;&gt;Node21</title>
<g id="a_edge27_Node000020_Node000021"><a xlink:title=" ">
<path fill="none" stroke="#63b8ff" d="M880.27,-115.37C881.95,-107.16 884.54,-94.54 886.69,-84.05"/>
<polygon fill="#63b8ff" stroke="#63b8ff" points="890.14,-84.67 888.72,-74.17 883.28,-83.26 890.14,-84.67"/>
</a>
</g>
</g>
<!-- Node22 -->
<g id="Node000022" class="node">
<title>Node22</title>
<g id="a_Node000022"><a xlink:title=" ">
<polygon fill="#e0e0e0" stroke="#999999" points="820.5,-74 678.5,-74 678.5,-55 820.5,-55 820.5,-74"/>
<text text-anchor="middle" x="749.5" y="-62" font-family="Helvetica,sans-Serif" font-size="10.00">../vpatterndb/vcontainer.h</text>
</a>
</g>
</g>
<!-- Node20&#45;&gt;Node22 -->
<g id="edge28_Node000020_Node000022" class="edge">
<title>Node20&#45;&gt;Node22</title>
<g id="a_edge28_Node000020_Node000022"><a xlink:title=" ">
<path fill="none" stroke="#63b8ff" d="M859.74,-115.49C838.15,-105.7 802.47,-89.52 777.57,-78.23"/>
<polygon fill="#63b8ff" stroke="#63b8ff" points="778.83,-74.96 768.28,-74.02 775.94,-81.33 778.83,-74.96"/>
</a>
</g>
</g>
<!-- Node23&#45;&gt;Node14 -->
<g id="edge30_Node000023_Node000014" class="edge">
<title>Node23&#45;&gt;Node14</title>
<g id="a_edge30_Node000023_Node000014"><a xlink:title=" ">
<path fill="none" stroke="#63b8ff" d="M1960.37,-175.93C2009.7,-165.07 2075.59,-143.61 2046.5,-110 2012.38,-70.57 1854.22,-65.33 1779.2,-65.12"/>
<polygon fill="#63b8ff" stroke="#63b8ff" points="1779.19,-61.62 1769.19,-65.12 1779.19,-68.62 1779.19,-61.62"/>
</a>
</g>
</g>
<!-- Node24 -->
<g id="Node000024" class="node">
<title>Node24</title>
<g id="a_Node000024"><a xlink:title=" ">
<polygon fill="#e0e0e0" stroke="#999999" points="2037,-134.5 1930,-134.5 1930,-115.5 2037,-115.5 2037,-134.5"/>
<text text-anchor="middle" x="1983.5" y="-122.5" font-family="Helvetica,sans-Serif" font-size="10.00">QLoggingCategory</text>
</a>
</g>
</g>
<!-- Node23&#45;&gt;Node24 -->
<g id="edge31_Node000023_Node000024" class="edge">
<title>Node23&#45;&gt;Node24</title>
<g id="a_edge31_Node000023_Node000024"><a xlink:title=" ">
<path fill="none" stroke="#63b8ff" d="M1922.98,-175.87C1933.99,-166.8 1951.54,-152.34 1964.91,-141.32"/>
<polygon fill="#63b8ff" stroke="#63b8ff" points="1967.49,-143.73 1972.98,-134.67 1963.04,-138.33 1967.49,-143.73"/>
</a>
</g>
</g>
<!-- Node25&#45;&gt;Node11 -->
<g id="edge33_Node000025_Node000011" class="edge">
<title>Node25&#45;&gt;Node11</title>
<g id="a_edge33_Node000025_Node000011"><a xlink:title=" ">
<path fill="none" stroke="#63b8ff" d="M1389.08,-175.94C1339.66,-155.24 1213.47,-102.36 1155.47,-78.06"/>
<polygon fill="#63b8ff" stroke="#63b8ff" points="1156.7,-74.78 1146.12,-74.14 1153.99,-81.23 1156.7,-74.78"/>
</a>
</g>
</g>
<!-- Node25&#45;&gt;Node12 -->
<g id="edge34_Node000025_Node000012" class="edge">
<title>Node25&#45;&gt;Node12</title>
<g id="a_edge34_Node000025_Node000012"><a xlink:title=" ">
<path fill="none" stroke="#63b8ff" d="M1398.21,-175.94C1371.75,-155.88 1305.45,-105.64 1272.19,-80.42"/>
<polygon fill="#63b8ff" stroke="#63b8ff" points="1274.2,-77.55 1264.11,-74.3 1269.97,-83.13 1274.2,-77.55"/>
</a>
</g>
</g>
<!-- Node25&#45;&gt;Node14 -->
<g id="edge35_Node000025_Node000014" class="edge">
<title>Node25&#45;&gt;Node14</title>
<g id="a_edge35_Node000025_Node000014"><a xlink:title=" ">
<path fill="none" stroke="#63b8ff" d="M1448.15,-182.01C1493.91,-177.89 1571.59,-167.22 1632.5,-140 1652.79,-130.93 1654.35,-122.82 1672.5,-110 1687.33,-99.53 1704.37,-88.22 1717.56,-79.62"/>
<polygon fill="#63b8ff" stroke="#63b8ff" points="1719.52,-82.52 1726,-74.14 1715.71,-76.65 1719.52,-82.52"/>
</a>
</g>
</g>
<!-- Node26 -->
<g id="Node000026" class="node">
<title>Node26</title>
<g id="a_Node000026"><a xlink:href="../../d4/da4/def_8h.html" target="_top" xlink:title=" ">
<polygon fill="white" stroke="#666666" points="1450.5,-134.5 1368.5,-134.5 1368.5,-115.5 1450.5,-115.5 1450.5,-134.5"/>
<text text-anchor="middle" x="1409.5" y="-122.5" font-family="Helvetica,sans-Serif" font-size="10.00">../vmisc/def.h</text>
</a>
</g>
</g>
<!-- Node25&#45;&gt;Node26 -->
<g id="edge36_Node000025_Node000026" class="edge">
<title>Node25&#45;&gt;Node26</title>
<g id="a_edge36_Node000025_Node000026"><a xlink:title=" ">
<path fill="none" stroke="#63b8ff" d="M1409.5,-175.87C1409.5,-167.75 1409.5,-155.31 1409.5,-144.89"/>
<polygon fill="#63b8ff" stroke="#63b8ff" points="1413,-144.67 1409.5,-134.67 1406,-144.67 1413,-144.67"/>
</a>
</g>
</g>
<!-- Node33 -->
<g id="Node000033" class="node">
<title>Node33</title>
<g id="a_Node000033"><a xlink:href="../../d6/dcd/diagnostic_8h.html" target="_top" xlink:title=" ">
<polygon fill="white" stroke="#666666" points="1624,-134.5 1507,-134.5 1507,-115.5 1624,-115.5 1624,-134.5"/>
<text text-anchor="middle" x="1565.5" y="-122.5" font-family="Helvetica,sans-Serif" font-size="10.00">../vmisc/diagnostic.h</text>
</a>
</g>
</g>
<!-- Node25&#45;&gt;Node33 -->
<g id="edge48_Node000025_Node000033" class="edge">
<title>Node25&#45;&gt;Node33</title>
<g id="a_edge48_Node000025_Node000033"><a xlink:title=" ">
<path fill="none" stroke="#63b8ff" d="M1432.18,-175.99C1458.76,-166.03 1502.98,-149.45 1533.14,-138.13"/>
<polygon fill="#63b8ff" stroke="#63b8ff" points="1534.65,-141.31 1542.79,-134.52 1532.2,-134.75 1534.65,-141.31"/>
</a>
</g>
</g>
<!-- Node26&#45;&gt;Node8 -->
<g id="edge37_Node000026_Node000008" class="edge">
<title>Node26&#45;&gt;Node8</title>
<g id="a_edge37_Node000026_Node000008"><a xlink:title=" ">
<path fill="none" stroke="#63b8ff" d="M1368.24,-117.79C1301.2,-107.71 1168.03,-87.69 1087.34,-75.55"/>
<polygon fill="#63b8ff" stroke="#63b8ff" points="1087.7,-72.07 1077.29,-74.04 1086.66,-78.99 1087.7,-72.07"/>
</a>
</g>
</g>
<!-- Node26&#45;&gt;Node11 -->
<g id="edge40_Node000026_Node000011" class="edge">
<title>Node26&#45;&gt;Node11</title>
<g id="a_edge40_Node000026_Node000011"><a xlink:title=" ">
<path fill="none" stroke="#63b8ff" d="M1377.3,-115.43C1369.84,-113.54 1361.91,-111.63 1354.5,-110 1271.95,-91.85 1247.97,-92.3 1162.14,-74.26"/>
<polygon fill="#63b8ff" stroke="#63b8ff" points="1162.73,-70.8 1152.22,-72.15 1161.27,-77.65 1162.73,-70.8"/>
</a>
</g>
</g>
<!-- Node26&#45;&gt;Node12 -->
<g id="edge41_Node000026_Node000012" class="edge">
<title>Node26&#45;&gt;Node12</title>
<g id="a_edge41_Node000026_Node000012"><a xlink:title=" ">
<path fill="none" stroke="#63b8ff" d="M1386.67,-115.49C1359.93,-105.53 1315.42,-88.95 1285.06,-77.63"/>
<polygon fill="#63b8ff" stroke="#63b8ff" points="1285.95,-74.23 1275.36,-74.02 1283.51,-80.79 1285.95,-74.23"/>
</a>
</g>
</g>
<!-- Node26&#45;&gt;Node13 -->
<g id="edge42_Node000026_Node000013" class="edge">
<title>Node26&#45;&gt;Node13</title>
<g id="a_edge42_Node000026_Node000013"><a xlink:title=" ">
<path fill="none" stroke="#63b8ff" d="M1376.06,-115.45C1368.95,-113.64 1361.48,-111.75 1354.5,-110 1292.71,-94.52 1274.23,-93.27 1209.11,-73.93"/>
<polygon fill="#63b8ff" stroke="#63b8ff" points="1209.73,-70.47 1199.15,-70.95 1207.72,-77.17 1209.73,-70.47"/>
</a>
</g>
</g>
<!-- Node26&#45;&gt;Node14 -->
<g id="edge43_Node000026_Node000014" class="edge">
<title>Node26&#45;&gt;Node14</title>
<g id="a_edge43_Node000026_Node000014"><a xlink:title=" ">
<path fill="none" stroke="#63b8ff" d="M1440.79,-115.47C1448.51,-113.52 1456.77,-111.57 1464.5,-110 1565.76,-89.47 1595.03,-93.37 1699.65,-74.24"/>
<polygon fill="#63b8ff" stroke="#63b8ff" points="1700.48,-77.64 1709.67,-72.38 1699.2,-70.76 1700.48,-77.64"/>
</a>
</g>
</g>
<!-- Node27 -->
<g id="Node000027" class="node">
<title>Node27</title>
<g id="a_Node000027"><a xlink:title=" ">
<polygon fill="#e0e0e0" stroke="#999999" points="1480,-74 1407,-74 1407,-55 1480,-55 1480,-74"/>
<text text-anchor="middle" x="1443.5" y="-62" font-family="Helvetica,sans-Serif" font-size="10.00">QFileDialog</text>
</a>
</g>
</g>
<!-- Node26&#45;&gt;Node27 -->
<g id="edge38_Node000026_Node000027" class="edge">
<title>Node26&#45;&gt;Node27</title>
<g id="a_edge38_Node000026_Node000027"><a xlink:title=" ">
<path fill="none" stroke="#63b8ff" d="M1414.52,-115.37C1419.44,-106.9 1427.09,-93.74 1433.29,-83.07"/>
<polygon fill="#63b8ff" stroke="#63b8ff" points="1436.46,-84.57 1438.46,-74.17 1430.41,-81.05 1436.46,-84.57"/>
</a>
</g>
</g>
<!-- Node28 -->
<g id="Node000028" class="node">
<title>Node28</title>
<g id="a_Node000028"><a xlink:title=" ">
<polygon fill="#e0e0e0" stroke="#999999" points="1548.5,-74 1498.5,-74 1498.5,-55 1548.5,-55 1548.5,-74"/>
<text text-anchor="middle" x="1523.5" y="-62" font-family="Helvetica,sans-Serif" font-size="10.00">QLineF</text>
</a>
</g>
</g>
<!-- Node26&#45;&gt;Node28 -->
<g id="edge39_Node000026_Node000028" class="edge">
<title>Node26&#45;&gt;Node28</title>
<g id="a_edge39_Node000026_Node000028"><a xlink:title=" ">
<path fill="none" stroke="#63b8ff" d="M1426.32,-115.37C1445.1,-105.73 1475.7,-90.03 1497.55,-78.81"/>
<polygon fill="#63b8ff" stroke="#63b8ff" points="1499.31,-81.85 1506.61,-74.17 1496.11,-75.62 1499.31,-81.85"/>
</a>
</g>
</g>
<!-- Node29 -->
<g id="Node000029" class="node">
<title>Node29</title>
<g id="a_Node000029"><a xlink:title=" ">
<polygon fill="#e0e0e0" stroke="#999999" points="1622.5,-74 1566.5,-74 1566.5,-55 1622.5,-55 1622.5,-74"/>
<text text-anchor="middle" x="1594.5" y="-62" font-family="Helvetica,sans-Serif" font-size="10.00">QPrinter</text>
</a>
</g>
</g>
<!-- Node26&#45;&gt;Node29 -->
<g id="edge44_Node000026_Node000029" class="edge">
<title>Node26&#45;&gt;Node29</title>
<g id="a_edge44_Node000026_Node000029"><a xlink:title=" ">
<path fill="none" stroke="#63b8ff" d="M1436.4,-115.49C1468.46,-105.36 1522.18,-88.37 1557.98,-77.05"/>
<polygon fill="#63b8ff" stroke="#63b8ff" points="1559.09,-80.37 1567.57,-74.02 1556.98,-73.69 1559.09,-80.37"/>
</a>
</g>
</g>
<!-- Node30 -->
<g id="Node000030" class="node">
<title>Node30</title>
<g id="a_Node000030"><a xlink:title=" ">
<polygon fill="#e0e0e0" stroke="#999999" points="1692,-74 1641,-74 1641,-55 1692,-55 1692,-74"/>
<text text-anchor="middle" x="1666.5" y="-62" font-family="Helvetica,sans-Serif" font-size="10.00">csignal</text>
</a>
</g>
</g>
<!-- Node26&#45;&gt;Node30 -->
<g id="edge45_Node000026_Node000030" class="edge">
<title>Node26&#45;&gt;Node30</title>
<g id="a_edge45_Node000026_Node000030"><a xlink:title=" ">
<path fill="none" stroke="#63b8ff" d="M1442.32,-115.44C1449.61,-113.59 1457.31,-111.69 1464.5,-110 1535.38,-93.34 1555.83,-91.12 1630.96,-74.07"/>
<polygon fill="#63b8ff" stroke="#63b8ff" points="1631.93,-77.44 1640.9,-71.8 1630.38,-70.61 1631.93,-77.44"/>
</a>
</g>
</g>
<!-- Node31 -->
<g id="Node000031" class="node">
<title>Node31</title>
<g id="a_Node000031"><a xlink:href="../../d4/d82/debugbreak_8h.html" target="_top" xlink:title=" ">
<polygon fill="white" stroke="#666666" points="1389,-74 1306,-74 1306,-55 1389,-55 1389,-74"/>
<text text-anchor="middle" x="1347.5" y="-62" font-family="Helvetica,sans-Serif" font-size="10.00">debugbreak.h</text>
</a>
</g>
</g>
<!-- Node26&#45;&gt;Node31 -->
<g id="edge46_Node000026_Node000031" class="edge">
<title>Node26&#45;&gt;Node31</title>
<g id="a_edge46_Node000026_Node000031"><a xlink:title=" ">
<path fill="none" stroke="#63b8ff" d="M1400.35,-115.37C1390.83,-106.38 1375.7,-92.11 1364.07,-81.14"/>
<polygon fill="#63b8ff" stroke="#63b8ff" points="1366.36,-78.48 1356.69,-74.17 1361.56,-83.58 1366.36,-78.48"/>
</a>
</g>
</g>
<!-- Node32 -->
<g id="Node000032" class="node">
<title>Node32</title>
<g id="a_Node000032"><a xlink:title=" ">
<polygon fill="#e0e0e0" stroke="#999999" points="1375,-19 1320,-19 1320,0 1375,0 1375,-19"/>
<text text-anchor="middle" x="1347.5" y="-7" font-family="Helvetica,sans-Serif" font-size="10.00">signal.h</text>
</a>
</g>
</g>
<!-- Node31&#45;&gt;Node32 -->
<g id="edge47_Node000031_Node000032" class="edge">
<title>Node31&#45;&gt;Node32</title>
<g id="a_edge47_Node000031_Node000032"><a xlink:title=" ">
<path fill="none" stroke="#63b8ff" d="M1347.5,-54.75C1347.5,-47.8 1347.5,-37.85 1347.5,-29.13"/>
<polygon fill="#63b8ff" stroke="#63b8ff" points="1351,-29.09 1347.5,-19.09 1344,-29.09 1351,-29.09"/>
</a>
</g>
</g>
<!-- Node33&#45;&gt;Node14 -->
<g id="edge49_Node000033_Node000014" class="edge">
<title>Node33&#45;&gt;Node14</title>
<g id="a_edge49_Node000033_Node000014"><a xlink:title=" ">
<path fill="none" stroke="#63b8ff" d="M1590.8,-115.49C1620.7,-105.44 1670.62,-88.66 1704.28,-77.34"/>
<polygon fill="#63b8ff" stroke="#63b8ff" points="1705.81,-80.52 1714.17,-74.02 1703.57,-73.89 1705.81,-80.52"/>
</a>
</g>
</g>
<!-- Node34&#45;&gt;Node6 -->
<g id="edge51_Node000034_Node000006" class="edge">
<title>Node34&#45;&gt;Node6</title>
<g id="a_edge51_Node000034_Node000006"><a xlink:title=" ">
<path fill="none" stroke="#63b8ff" d="M1719.5,-175.87C1719.5,-167.75 1719.5,-155.31 1719.5,-144.89"/>
<polygon fill="#63b8ff" stroke="#63b8ff" points="1723,-144.67 1719.5,-134.67 1716,-144.67 1723,-144.67"/>
</a>
</g>
</g>
<!-- Node34&#45;&gt;Node11 -->
<g id="edge52_Node000034_Node000011" class="edge">
<title>Node34&#45;&gt;Node11</title>
<g id="a_edge52_Node000034_Node000011"><a xlink:title=" ">
<path fill="none" stroke="#63b8ff" d="M1666.3,-181.99C1595.38,-177.72 1466.41,-166.74 1359.5,-140 1323.47,-130.99 1316.73,-121.77 1281.5,-110 1241.01,-96.47 1193.77,-83.36 1161.97,-74.92"/>
<polygon fill="#63b8ff" stroke="#63b8ff" points="1162.78,-71.51 1152.22,-72.34 1161,-78.28 1162.78,-71.51"/>
</a>
</g>
</g>
<!-- Node35 -->
<g id="Node000035" class="node">
<title>Node35</title>
<g id="a_Node000035"><a xlink:title=" ">
<polygon fill="#e0e0e0" stroke="#999999" points="1912,-134.5 1853,-134.5 1853,-115.5 1912,-115.5 1912,-134.5"/>
<text text-anchor="middle" x="1882.5" y="-122.5" font-family="Helvetica,sans-Serif" font-size="10.00">QWidget</text>
</a>
</g>
</g>
<!-- Node34&#45;&gt;Node35 -->
<g id="edge53_Node000034_Node000035" class="edge">
<title>Node34&#45;&gt;Node35</title>
<g id="a_edge53_Node000034_Node000035"><a xlink:title=" ">
<path fill="none" stroke="#63b8ff" d="M1743.2,-175.99C1771.09,-165.99 1817.57,-149.3 1849.1,-137.99"/>
<polygon fill="#63b8ff" stroke="#63b8ff" points="1850.54,-141.19 1858.77,-134.52 1848.18,-134.6 1850.54,-141.19"/>
</a>
</g>
</g>
<!-- Node36 -->
<g id="Node000036" class="node">
<title>Node36</title>
<g id="a_Node000036"><a xlink:title=" ">
<polygon fill="#e0e0e0" stroke="#999999" points="1834.5,-134.5 1776.5,-134.5 1776.5,-115.5 1834.5,-115.5 1834.5,-134.5"/>
<text text-anchor="middle" x="1805.5" y="-122.5" font-family="Helvetica,sans-Serif" font-size="10.00">memory</text>
</a>
</g>
</g>
<!-- Node34&#45;&gt;Node36 -->
<g id="edge54_Node000034_Node000036" class="edge">
<title>Node34&#45;&gt;Node36</title>
<g id="a_edge54_Node000034_Node000036"><a xlink:title=" ">
<path fill="none" stroke="#63b8ff" d="M1732.19,-175.87C1745.91,-166.54 1768,-151.51 1784.35,-140.38"/>
<polygon fill="#63b8ff" stroke="#63b8ff" points="1786.46,-143.19 1792.76,-134.67 1782.52,-137.4 1786.46,-143.19"/>
</a>
</g>
</g>
</g>
</svg>
