<?xml version="1.0" encoding="UTF-8" standalone="no"?>
<!DOCTYPE svg PUBLIC "-//W3C//DTD SVG 1.1//EN"
 "http://www.w3.org/Graphics/SVG/1.1/DTD/svg11.dtd">
<!-- Generated by graphviz version 2.43.0 (0)
 -->
<!-- Title: VSeamlyMeSettings Pages: 1 -->
<!--zoomable 658 -->

<svg id="main" version="1.1" xmlns="http://www.w3.org/2000/svg" xmlns:xlink="http://www.w3.org/1999/xlink" xml:space="preserve" onload="init(evt)">
<style type="text/css"><![CDATA[
.node, .edge {opacity: 0.7;}
.node.selected, .edge.selected {opacity: 1;}
.edge:hover path { stroke: red; }
.edge:hover polygon { stroke: red; fill: red; }
]]></style>

<defs>
  <circle id="rim" cx="0" cy="0" r="7"/>
  <circle id="rim2" cx="0" cy="0" r="3.5"/>
  <g id="zoomPlus">
    <use xlink:href="#rim" fill="#404040"><set attributeName="fill" to="#808080" begin="zoomplus.mouseover" end="zoomplus.mouseout"/></use>
    <path d="M-4,0h8M0,-4v8" fill="none" stroke="white" stroke-width="1.5" pointer-events="none"/>
  </g>
  <g id="zoomMin">
    <use xlink:href="#rim" fill="#404040"><set attributeName="fill" to="#808080" begin="zoomminus.mouseover" end="zoomminus.mouseout"/></use>
    <path d="M-4,0h8" fill="none" stroke="white" stroke-width="1.5" pointer-events="none"/>
  </g>
  <g id="arrowUp" transform="translate(30 24)">
    <use xlink:href="#rim"/>
    <path pointer-events="none" fill="none" stroke="white" stroke-width="1.5" d="M0,-3.0v7 M-2.5,-0.5L0,-3.0L2.5,-0.5"/>
  </g>
  <g id="arrowRight" transform="rotate(90) translate(36 -43)">
    <use xlink:href="#rim"/>
    <path pointer-events="none" fill="none" stroke="white" stroke-width="1.5" d="M0,-3.0v7 M-2.5,-0.5L0,-3.0L2.5,-0.5"/>
  </g>
  <g id="arrowDown" transform="rotate(180) translate(-30 -48)">
    <use xlink:href="#rim"/>
    <path pointer-events="none" fill="none" stroke="white" stroke-width="1.5" d="M0,-3.0v7 M-2.5,-0.5L0,-3.0L2.5,-0.5"/>
  </g>
  <g id="arrowLeft" transform="rotate(270) translate(-36 17)">
    <use xlink:href="#rim"/>
    <path pointer-events="none" fill="none" stroke="white" stroke-width="1.5" d="M0,-3.0v7 M-2.5,-0.5L0,-3.0L2.5,-0.5"/>
  </g>
  <g id="resetDef">
    <use xlink:href="#rim2" fill="#404040"><set attributeName="fill" to="#808080" begin="reset.mouseover" end="reset.mouseout"/></use>
  </g>
</defs>
<script type="application/ecmascript">
var viewWidth = 181;
var viewHeight = 658;
var sectionId = 'dynsection-1';
</script>
<script type="application/ecmascript" xlink:href="../../svg.min.js"/>
<svg id="graph" class="graph">
<g id="viewport">
<title>VSeamlyMeSettings</title>
<!-- Node1 -->
<g id="Node000001" class="node">
<title>Node1</title>
<g id="a_Node000001"><a xlink:title=" ">
<polygon fill="#999999" stroke="transparent" points="157,-139 16,-139 16,0 157,0 157,-139"/>
<text text-anchor="start" x="37.5" y="-126.5" font-family="Helvetica,sans-Serif" font-size="10.00">VSeamlyMeSettings</text>
<text text-anchor="start" x="85" y="-111.5" font-family="Helvetica,sans-Serif" font-size="10.00"> </text>
<text text-anchor="start" x="20.5" y="-96.5" font-family="Helvetica,sans-Serif" font-size="10.00">+</text>
<text text-anchor="start" x="33.5" y="-96.5" font-family="Helvetica,sans-Serif" font-size="10.00">VSeamlyMeSettings()</text>
<text text-anchor="start" x="20.5" y="-81.5" font-family="Helvetica,sans-Serif" font-size="10.00">+</text>
<text text-anchor="start" x="33.5" y="-81.5" font-family="Helvetica,sans-Serif" font-size="10.00">getDataBaseGeometry()</text>
<text text-anchor="start" x="20.5" y="-66.5" font-family="Helvetica,sans-Serif" font-size="10.00">+</text>
<text text-anchor="start" x="33.5" y="-66.5" font-family="Helvetica,sans-Serif" font-size="10.00">setDataBaseGeometry()</text>
<text text-anchor="start" x="20.5" y="-51.5" font-family="Helvetica,sans-Serif" font-size="10.00">+</text>
<text text-anchor="start" x="33.5" y="-51.5" font-family="Helvetica,sans-Serif" font-size="10.00">SetDefHeight()</text>
<text text-anchor="start" x="20.5" y="-36.5" font-family="Helvetica,sans-Serif" font-size="10.00">+</text>
<text text-anchor="start" x="33.5" y="-36.5" font-family="Helvetica,sans-Serif" font-size="10.00">GetDefHeight()</text>
<text text-anchor="start" x="20.5" y="-21.5" font-family="Helvetica,sans-Serif" font-size="10.00">+</text>
<text text-anchor="start" x="33.5" y="-21.5" font-family="Helvetica,sans-Serif" font-size="10.00">SetDefSize()</text>
<text text-anchor="start" x="20.5" y="-6.5" font-family="Helvetica,sans-Serif" font-size="10.00">+</text>
<text text-anchor="start" x="33.5" y="-6.5" font-family="Helvetica,sans-Serif" font-size="10.00">GetDefSize()</text>
<polygon fill="#666666" stroke="#666666" points="16.5,-121.5 16.5,-121.5 157.5,-121.5 157.5,-121.5 16.5,-121.5"/>
<polygon fill="#666666" stroke="#666666" points="16.5,-106.5 16.5,-106.5 157.5,-106.5 157.5,-106.5 16.5,-106.5"/>
<polygon fill="none" stroke="#666666" points="16,0 16,-139 157,-139 157,0 16,0"/>
</a>
</g>
</g>
<!-- Node2 -->
<g id="Node000002" class="node">
<title>Node2</title>
<g id="a_Node000002"><a xlink:href="../../de/d0f/classVCommonSettings.html" target="_top" xlink:title=" ">
<polygon fill="white" stroke="transparent" points="173,-565 0,-565 0,-175 173,-175 173,-565"/>
<text text-anchor="start" x="41.5" y="-553" font-family="Helvetica,sans-Serif" font-size="10.00">VCommonSettings</text>
<text text-anchor="start" x="4.5" y="-538" font-family="Helvetica,sans-Serif" font-size="10.00">+</text>
<text text-anchor="start" x="17.5" y="-538" font-family="Helvetica,sans-Serif" font-size="10.00">unixStandardSharePath</text>
<text text-anchor="start" x="4.5" y="-523" font-family="Helvetica,sans-Serif" font-size="10.00">+</text>
<text text-anchor="start" x="17.5" y="-523" font-family="Helvetica,sans-Serif" font-size="10.00">VCommonSettings()</text>
<text text-anchor="start" x="4.5" y="-508" font-family="Helvetica,sans-Serif" font-size="10.00">+</text>
<text text-anchor="start" x="17.5" y="-508" font-family="Helvetica,sans-Serif" font-size="10.00">getIndividualSizePath()</text>
<text text-anchor="start" x="4.5" y="-493" font-family="Helvetica,sans-Serif" font-size="10.00">+</text>
<text text-anchor="start" x="17.5" y="-493" font-family="Helvetica,sans-Serif" font-size="10.00">setIndividualSizePath()</text>
<text text-anchor="start" x="4.5" y="-478" font-family="Helvetica,sans-Serif" font-size="10.00">+</text>
<text text-anchor="start" x="17.5" y="-478" font-family="Helvetica,sans-Serif" font-size="10.00">getMultisizePath()</text>
<text text-anchor="start" x="4.5" y="-463" font-family="Helvetica,sans-Serif" font-size="10.00">+</text>
<text text-anchor="start" x="17.5" y="-463" font-family="Helvetica,sans-Serif" font-size="10.00">setMultisizePath()</text>
<text text-anchor="start" x="4.5" y="-448" font-family="Helvetica,sans-Serif" font-size="10.00">+</text>
<text text-anchor="start" x="17.5" y="-448" font-family="Helvetica,sans-Serif" font-size="10.00">getBodyScansPath()</text>
<text text-anchor="start" x="4.5" y="-433" font-family="Helvetica,sans-Serif" font-size="10.00">+</text>
<text text-anchor="start" x="17.5" y="-433" font-family="Helvetica,sans-Serif" font-size="10.00">setBodyScansPath()</text>
<text text-anchor="start" x="4.5" y="-418" font-family="Helvetica,sans-Serif" font-size="10.00">+</text>
<text text-anchor="start" x="17.5" y="-418" font-family="Helvetica,sans-Serif" font-size="10.00">getTemplatePath()</text>
<text text-anchor="start" x="4.5" y="-403" font-family="Helvetica,sans-Serif" font-size="10.00">+</text>
<text text-anchor="start" x="17.5" y="-403" font-family="Helvetica,sans-Serif" font-size="10.00">setTemplatePath()</text>
<text text-anchor="start" x="4.5" y="-388" font-family="Helvetica,sans-Serif" font-size="10.00">+</text>
<text text-anchor="start" x="17.5" y="-388" font-family="Helvetica,sans-Serif" font-size="10.00">getLabelTemplatePath()</text>
<text text-anchor="start" x="17.5" y="-373" font-family="Helvetica,sans-Serif" font-size="10.00">and 261 more...</text>
<text text-anchor="start" x="4.5" y="-358" font-family="Helvetica,sans-Serif" font-size="10.00">+</text>
<text text-anchor="start" x="17.5" y="-358" font-family="Helvetica,sans-Serif" font-size="10.00">SharePath()</text>
<text text-anchor="start" x="4.5" y="-343" font-family="Helvetica,sans-Serif" font-size="10.00">+</text>
<text text-anchor="start" x="17.5" y="-343" font-family="Helvetica,sans-Serif" font-size="10.00">MultisizeTablesPath()</text>
<text text-anchor="start" x="4.5" y="-328" font-family="Helvetica,sans-Serif" font-size="10.00">+</text>
<text text-anchor="start" x="17.5" y="-328" font-family="Helvetica,sans-Serif" font-size="10.00">StandardTemplatesPath()</text>
<text text-anchor="start" x="4.5" y="-313" font-family="Helvetica,sans-Serif" font-size="10.00">+</text>
<text text-anchor="start" x="17.5" y="-313" font-family="Helvetica,sans-Serif" font-size="10.00">PrepareStandardTemplates()</text>
<text text-anchor="start" x="4.5" y="-298" font-family="Helvetica,sans-Serif" font-size="10.00">+</text>
<text text-anchor="start" x="17.5" y="-298" font-family="Helvetica,sans-Serif" font-size="10.00">prepareMultisizeTables()</text>
<text text-anchor="start" x="4.5" y="-283" font-family="Helvetica,sans-Serif" font-size="10.00">+</text>
<text text-anchor="start" x="17.5" y="-283" font-family="Helvetica,sans-Serif" font-size="10.00">getDefaultIndividualSize</text>
<text text-anchor="start" x="17.5" y="-272" font-family="Helvetica,sans-Serif" font-size="10.00">Path()</text>
<text text-anchor="start" x="4.5" y="-257" font-family="Helvetica,sans-Serif" font-size="10.00">+</text>
<text text-anchor="start" x="17.5" y="-257" font-family="Helvetica,sans-Serif" font-size="10.00">getDefaultMultisizePath()</text>
<text text-anchor="start" x="4.5" y="-242" font-family="Helvetica,sans-Serif" font-size="10.00">+</text>
<text text-anchor="start" x="17.5" y="-242" font-family="Helvetica,sans-Serif" font-size="10.00">getDefaultBodyScansPath()</text>
<text text-anchor="start" x="4.5" y="-227" font-family="Helvetica,sans-Serif" font-size="10.00">+</text>
<text text-anchor="start" x="17.5" y="-227" font-family="Helvetica,sans-Serif" font-size="10.00">getDefaultTemplatePath()</text>
<text text-anchor="start" x="4.5" y="-212" font-family="Helvetica,sans-Serif" font-size="10.00">+</text>
<text text-anchor="start" x="17.5" y="-212" font-family="Helvetica,sans-Serif" font-size="10.00">getDefaultLabelTemplatePath()</text>
<text text-anchor="start" x="4.5" y="-197" font-family="Helvetica,sans-Serif" font-size="10.00">+</text>
<text text-anchor="start" x="17.5" y="-197" font-family="Helvetica,sans-Serif" font-size="10.00">PredefinedDateFormats()</text>
<text text-anchor="start" x="4.5" y="-182" font-family="Helvetica,sans-Serif" font-size="10.00">+</text>
<text text-anchor="start" x="17.5" y="-182" font-family="Helvetica,sans-Serif" font-size="10.00">PredefinedTimeFormats()</text>
<polygon fill="#666666" stroke="#666666" points="0.5,-548 0.5,-548 173.5,-548 173.5,-548 0.5,-548"/>
<polygon fill="#666666" stroke="#666666" points="0.5,-533 0.5,-533 15.5,-533 15.5,-533 0.5,-533"/>
<polygon fill="#666666" stroke="#666666" points="15.5,-533 15.5,-533 173.5,-533 173.5,-533 15.5,-533"/>
<polygon fill="none" stroke="#666666" points="0,-175 0,-565 173,-565 173,-175 0,-175"/>
</a>
</g>
</g>
<!-- Node2&#45;&gt;Node1 -->
<g id="edge1_Node000001_Node000002" class="edge">
<title>Node2&#45;&gt;Node1</title>
<g id="a_edge1_Node000001_Node000002"><a xlink:title=" ">
<path fill="none" stroke="#63b8ff" d="M86.5,-164.78C86.5,-155.92 86.5,-147.37 86.5,-139.26"/>
<polygon fill="none" stroke="#63b8ff" points="83,-164.9 86.5,-174.9 90,-164.9 83,-164.9"/>
</a>
</g>
</g>
<!-- Node3 -->
<g id="Node000003" class="node">
<title>Node3</title>
<g id="a_Node000003"><a xlink:title=" ">
<polygon fill="white" stroke="transparent" points="115.5,-650 57.5,-650 57.5,-601 115.5,-601 115.5,-650"/>
<text text-anchor="start" x="62.5" y="-637.5" font-family="Helvetica,sans-Serif" font-size="10.00">QSettings</text>
<text text-anchor="start" x="84.5" y="-622.5" font-family="Helvetica,sans-Serif" font-size="10.00"> </text>
<text text-anchor="start" x="84.5" y="-607.5" font-family="Helvetica,sans-Serif" font-size="10.00"> </text>
<polygon fill="#666666" stroke="#666666" points="57.5,-632.5 57.5,-632.5 115.5,-632.5 115.5,-632.5 57.5,-632.5"/>
<polygon fill="#666666" stroke="#666666" points="57.5,-617.5 57.5,-617.5 115.5,-617.5 115.5,-617.5 57.5,-617.5"/>
<polygon fill="none" stroke="#666666" points="57.5,-601 57.5,-650 115.5,-650 115.5,-601 57.5,-601"/>
</a>
</g>
</g>
<!-- Node3&#45;&gt;Node2 -->
<g id="edge2_Node000002_Node000003" class="edge">
<title>Node3&#45;&gt;Node2</title>
<g id="a_edge2_Node000002_Node000003"><a xlink:title=" ">
<path fill="none" stroke="#63b8ff" d="M86.5,-590.57C86.5,-582.95 86.5,-574.34 86.5,-565.04"/>
<polygon fill="none" stroke="#63b8ff" points="83,-590.65 86.5,-600.65 90,-590.65 83,-590.65"/>
</a>
</g>
</g>
</g>
</svg>

<g id="navigator" transform="translate(0 0)" fill="#404254">
  <rect fill="#f2f5e9" fill-opacity="0.5" stroke="#606060" stroke-width=".5" x="0" y="0" width="60" height="60"/>
  <use id="zoomplus" xlink:href="#zoomPlus" x="17" y="9" onmousedown="handleZoom(evt,'in')"/>
  <use id="zoomminus" xlink:href="#zoomMin" x="42" y="9" onmousedown="handleZoom(evt,'out')"/>
  <use id="reset" xlink:href="#resetDef" x="30" y="36" onmousedown="handleReset()"/>
   <use id="arrowup" xlink:href="#arrowUp" x="0" y="0" onmousedown="handlePan(0,-1)"/>
  <use id="arrowright" xlink:href="#arrowRight" x="0" y="0" onmousedown="handlePan(1,0)"/>
  <use id="arrowdown" xlink:href="#arrowDown" x="0" y="0" onmousedown="handlePan(0,1)"/>
  <use id="arrowleft" xlink:href="#arrowLeft" x="0" y="0" onmousedown="handlePan(-1,0)"/>
</g>
<svg viewBox="0 0 15 15" width="100%" height="30px" preserveAspectRatio="xMaxYMin meet">
 <g id="arrow_out" transform="scale(0.3 0.3)">
  <a xlink:href="classVSeamlyMeSettings__coll__graph_org.svg" target="_base">
   <rect id="button" ry="5" rx="5" y="6" x="6" height="38" width="38"
        fill="#f2f5e9" fill-opacity="0.5" stroke="#606060" stroke-width="1.0"/>
   <path id="arrow"
     d="M 11.500037,31.436501 C 11.940474,20.09759 22.043105,11.32322 32.158766,21.979434 L 37.068811,17.246167 C 37.068811,17.246167 37.088388,32 37.088388,32 L 22.160133,31.978069 C 22.160133,31.978069 26.997745,27.140456 26.997745,27.140456 C 18.528582,18.264221 13.291696,25.230495 11.500037,31.436501 z"
     style="fill:#404040;"/>
  </a>
 </g>
</svg>

<style type='text/css'>
<![CDATA[
[data-mouse-over-selected='false'] { opacity: 0.7; }
[data-mouse-over-selected='true']  { opacity: 1.0; }
]]>
</style>
<script type="application/ecmascript"><![CDATA[
document.addEventListener('DOMContentLoaded', (event) => {
  highlightEdges();
  highlightAdjacentNodes();
});
]]></script>
</svg>
