<?xml version="1.0" encoding="UTF-8" standalone="no"?>
<!DOCTYPE svg PUBLIC "-//W3C//DTD SVG 1.1//EN"
 "http://www.w3.org/Graphics/SVG/1.1/DTD/svg11.dtd">
<!-- Generated by graphviz version 2.43.0 (0)
 -->
<!-- Title: src/libs/ifc/exception/vexceptionbadid.cpp Pages: 1 -->
<svg width="817pt" height="368pt"
 viewBox="0.00 0.00 816.50 368.00" xmlns="http://www.w3.org/2000/svg" xmlns:xlink="http://www.w3.org/1999/xlink">
<g id="graph0" class="graph" transform="scale(1 1) rotate(0) translate(4 364)">
<title>src/libs/ifc/exception/vexceptionbadid.cpp</title>
<!-- Node1 -->
<g id="Node000001" class="node">
<title>Node1</title>
<g id="a_Node000001"><a xlink:title=" ">
<polygon fill="#999999" stroke="#666666" points="489,-360 368,-360 368,-330 489,-330 489,-360"/>
<text text-anchor="start" x="376" y="-348" font-family="Helvetica,sans-Serif" font-size="10.00">src/libs/ifc/exception</text>
<text text-anchor="middle" x="428.5" y="-337" font-family="Helvetica,sans-Serif" font-size="10.00">/vexceptionbadid.cpp</text>
</a>
</g>
</g>
<!-- Node2 -->
<g id="Node000002" class="node">
<title>Node2</title>
<g id="a_Node000002"><a xlink:href="../../d4/d13/vexceptionbadid_8h.html" target="_top" xlink:title=" ">
<polygon fill="white" stroke="#666666" points="441,-294 334,-294 334,-275 441,-275 441,-294"/>
<text text-anchor="middle" x="387.5" y="-282" font-family="Helvetica,sans-Serif" font-size="10.00">vexceptionbadid.h</text>
</a>
</g>
</g>
<!-- Node1&#45;&gt;Node2 -->
<g id="edge1_Node000001_Node000002" class="edge">
<title>Node1&#45;&gt;Node2</title>
<g id="a_edge1_Node000001_Node000002"><a xlink:title=" ">
<path fill="none" stroke="#63b8ff" d="M418.58,-329.84C412.81,-321.61 405.5,-311.18 399.42,-302.51"/>
<polygon fill="#63b8ff" stroke="#63b8ff" points="402.25,-300.45 393.64,-294.27 396.52,-304.46 402.25,-300.45"/>
</a>
</g>
</g>
<!-- Node17 -->
<g id="Node000017" class="node">
<title>Node17</title>
<g id="a_Node000017"><a xlink:href="../../d1/d44/vexception_8h.html" target="_top" xlink:title=" ">
<polygon fill="white" stroke="#666666" points="541.5,-239 461.5,-239 461.5,-220 541.5,-220 541.5,-239"/>
<text text-anchor="middle" x="501.5" y="-227" font-family="Helvetica,sans-Serif" font-size="10.00">vexception.h</text>
</a>
</g>
</g>
<!-- Node1&#45;&gt;Node17 -->
<g id="edge29_Node000001_Node000017" class="edge">
<title>Node1&#45;&gt;Node17</title>
<g id="a_edge29_Node000001_Node000017"><a xlink:title=" ">
<path fill="none" stroke="#63b8ff" d="M437.75,-329.63C451.17,-308.75 476.04,-270.09 490.42,-247.72"/>
<polygon fill="#63b8ff" stroke="#63b8ff" points="493.42,-249.53 495.89,-239.23 487.53,-245.75 493.42,-249.53"/>
</a>
</g>
</g>
<!-- Node3 -->
<g id="Node000003" class="node">
<title>Node3</title>
<g id="a_Node000003"><a xlink:title=" ">
<polygon fill="#e0e0e0" stroke="#999999" points="808.5,-74 688.5,-74 688.5,-55 808.5,-55 808.5,-74"/>
<text text-anchor="middle" x="748.5" y="-62" font-family="Helvetica,sans-Serif" font-size="10.00">qcompilerdetection.h</text>
</a>
</g>
</g>
<!-- Node2&#45;&gt;Node3 -->
<g id="edge2_Node000002_Node000003" class="edge">
<title>Node2&#45;&gt;Node3</title>
<g id="a_edge2_Node000002_Node000003"><a xlink:title=" ">
<path fill="none" stroke="#63b8ff" d="M393.05,-274.98C412.04,-246.54 477.65,-154.23 556.5,-110 578.72,-97.54 640.05,-84.52 687.48,-75.8"/>
<polygon fill="#63b8ff" stroke="#63b8ff" points="688.15,-79.24 697.37,-74.01 686.9,-72.35 688.15,-79.24"/>
</a>
</g>
</g>
<!-- Node4 -->
<g id="Node000004" class="node">
<title>Node4</title>
<g id="a_Node000004"><a xlink:title=" ">
<polygon fill="#e0e0e0" stroke="#999999" points="53,-74 0,-74 0,-55 53,-55 53,-74"/>
<text text-anchor="middle" x="26.5" y="-62" font-family="Helvetica,sans-Serif" font-size="10.00">QString</text>
</a>
</g>
</g>
<!-- Node2&#45;&gt;Node4 -->
<g id="edge3_Node000002_Node000004" class="edge">
<title>Node2&#45;&gt;Node4</title>
<g id="a_edge3_Node000002_Node000004"><a xlink:title=" ">
<path fill="none" stroke="#63b8ff" d="M350.68,-274.94C284.77,-257.89 145.77,-213.81 62.5,-129 49.62,-115.89 39.78,-97.25 33.67,-83.56"/>
<polygon fill="#63b8ff" stroke="#63b8ff" points="36.85,-82.08 29.73,-74.22 30.4,-84.8 36.85,-82.08"/>
</a>
</g>
</g>
<!-- Node5 -->
<g id="Node000005" class="node">
<title>Node5</title>
<g id="a_Node000005"><a xlink:title=" ">
<polygon fill="#e0e0e0" stroke="#999999" points="130,-74 71,-74 71,-55 130,-55 130,-74"/>
<text text-anchor="middle" x="100.5" y="-62" font-family="Helvetica,sans-Serif" font-size="10.00">QtGlobal</text>
</a>
</g>
</g>
<!-- Node2&#45;&gt;Node5 -->
<g id="edge4_Node000002_Node000005" class="edge">
<title>Node2&#45;&gt;Node5</title>
<g id="a_edge4_Node000002_Node000005"><a xlink:title=" ">
<path fill="none" stroke="#63b8ff" d="M364.72,-274.98C316.08,-255.79 200.88,-204.84 131.5,-129 119.61,-116 111.3,-97.6 106.3,-83.95"/>
<polygon fill="#63b8ff" stroke="#63b8ff" points="109.53,-82.56 103,-74.22 102.9,-84.82 109.53,-82.56"/>
</a>
</g>
</g>
<!-- Node6 -->
<g id="Node000006" class="node">
<title>Node6</title>
<g id="a_Node000006"><a xlink:href="../../d3/da5/ifcdef_8h.html" target="_top" xlink:title=" ">
<polygon fill="white" stroke="#666666" points="376.5,-184 314.5,-184 314.5,-165 376.5,-165 376.5,-184"/>
<text text-anchor="middle" x="345.5" y="-172" font-family="Helvetica,sans-Serif" font-size="10.00">../ifcdef.h</text>
</a>
</g>
</g>
<!-- Node2&#45;&gt;Node6 -->
<g id="edge5_Node000002_Node000006" class="edge">
<title>Node2&#45;&gt;Node6</title>
<g id="a_edge5_Node000002_Node000006"><a xlink:title=" ">
<path fill="none" stroke="#63b8ff" d="M384.06,-274.66C377.2,-257.01 361.67,-217.09 352.55,-193.64"/>
<polygon fill="#63b8ff" stroke="#63b8ff" points="355.75,-192.21 348.87,-184.16 349.23,-194.75 355.75,-192.21"/>
</a>
</g>
</g>
<!-- Node2&#45;&gt;Node17 -->
<g id="edge23_Node000002_Node000017" class="edge">
<title>Node2&#45;&gt;Node17</title>
<g id="a_edge23_Node000002_Node000017"><a xlink:title=" ">
<path fill="none" stroke="#63b8ff" d="M405.82,-274.98C424.16,-266.46 452.61,-253.23 473.73,-243.41"/>
<polygon fill="#63b8ff" stroke="#63b8ff" points="475.26,-246.56 482.85,-239.17 472.31,-240.21 475.26,-246.56"/>
</a>
</g>
</g>
<!-- Node6&#45;&gt;Node4 -->
<g id="edge6_Node000006_Node000004" class="edge">
<title>Node6&#45;&gt;Node4</title>
<g id="a_edge6_Node000006_Node000004"><a xlink:title=" ">
<path fill="none" stroke="#63b8ff" d="M314.44,-170.38C271.94,-165.37 193.84,-153.5 131.5,-129 99.55,-116.44 66.22,-94.53 45.9,-80.02"/>
<polygon fill="#63b8ff" stroke="#63b8ff" points="47.93,-77.17 37.79,-74.12 43.81,-82.83 47.93,-77.17"/>
</a>
</g>
</g>
<!-- Node6&#45;&gt;Node5 -->
<g id="edge8_Node000006_Node000005" class="edge">
<title>Node6&#45;&gt;Node5</title>
<g id="a_edge8_Node000006_Node000005"><a xlink:title=" ">
<path fill="none" stroke="#63b8ff" d="M314.36,-171.44C275.89,-167.71 209.53,-157.39 160.5,-129 140.5,-117.42 123.05,-97.13 112.2,-82.6"/>
<polygon fill="#63b8ff" stroke="#63b8ff" points="115.01,-80.51 106.34,-74.42 109.32,-84.59 115.01,-80.51"/>
</a>
</g>
</g>
<!-- Node7 -->
<g id="Node000007" class="node">
<title>Node7</title>
<g id="a_Node000007"><a xlink:title=" ">
<polygon fill="#e0e0e0" stroke="#999999" points="670.5,-74 600.5,-74 600.5,-55 670.5,-55 670.5,-74"/>
<text text-anchor="middle" x="635.5" y="-62" font-family="Helvetica,sans-Serif" font-size="10.00">QStringList</text>
</a>
</g>
</g>
<!-- Node6&#45;&gt;Node7 -->
<g id="edge7_Node000006_Node000007" class="edge">
<title>Node6&#45;&gt;Node7</title>
<g id="a_edge7_Node000006_Node000007"><a xlink:title=" ">
<path fill="none" stroke="#63b8ff" d="M355.34,-164.89C371.54,-151.17 405.34,-124.44 438.5,-110 452.32,-103.98 536.42,-85.98 590.18,-74.8"/>
<polygon fill="#63b8ff" stroke="#63b8ff" points="591.09,-78.19 600.17,-72.73 589.66,-71.33 591.09,-78.19"/>
</a>
</g>
</g>
<!-- Node8 -->
<g id="Node000008" class="node">
<title>Node8</title>
<g id="a_Node000008"><a xlink:href="../../d4/da4/def_8h.html" target="_top" xlink:title=" ">
<polygon fill="white" stroke="#666666" points="386.5,-129 304.5,-129 304.5,-110 386.5,-110 386.5,-129"/>
<text text-anchor="middle" x="345.5" y="-117" font-family="Helvetica,sans-Serif" font-size="10.00">../vmisc/def.h</text>
</a>
</g>
</g>
<!-- Node6&#45;&gt;Node8 -->
<g id="edge9_Node000006_Node000008" class="edge">
<title>Node6&#45;&gt;Node8</title>
<g id="a_edge9_Node000006_Node000008"><a xlink:title=" ">
<path fill="none" stroke="#63b8ff" d="M345.5,-164.75C345.5,-157.8 345.5,-147.85 345.5,-139.13"/>
<polygon fill="#63b8ff" stroke="#63b8ff" points="349,-139.09 345.5,-129.09 342,-139.09 349,-139.09"/>
</a>
</g>
</g>
<!-- Node16 -->
<g id="Node000016" class="node">
<title>Node16</title>
<g id="a_Node000016"><a xlink:href="../../d6/dcd/diagnostic_8h.html" target="_top" xlink:title=" ">
<polygon fill="white" stroke="#666666" points="286,-129 169,-129 169,-110 286,-110 286,-129"/>
<text text-anchor="middle" x="227.5" y="-117" font-family="Helvetica,sans-Serif" font-size="10.00">../vmisc/diagnostic.h</text>
</a>
</g>
</g>
<!-- Node6&#45;&gt;Node16 -->
<g id="edge21_Node000006_Node000016" class="edge">
<title>Node6&#45;&gt;Node16</title>
<g id="a_edge21_Node000006_Node000016"><a xlink:title=" ">
<path fill="none" stroke="#63b8ff" d="M326.54,-164.98C307.47,-156.42 277.84,-143.11 255.95,-133.28"/>
<polygon fill="#63b8ff" stroke="#63b8ff" points="257.36,-130.07 246.8,-129.17 254.49,-136.46 257.36,-130.07"/>
</a>
</g>
</g>
<!-- Node8&#45;&gt;Node3 -->
<g id="edge10_Node000008_Node000003" class="edge">
<title>Node8&#45;&gt;Node3</title>
<g id="a_edge10_Node000008_Node000003"><a xlink:title=" ">
<path fill="none" stroke="#63b8ff" d="M386.73,-113.08C455.46,-104.04 594.17,-85.8 678.45,-74.71"/>
<polygon fill="#63b8ff" stroke="#63b8ff" points="678.99,-78.17 688.45,-73.4 678.08,-71.23 678.99,-78.17"/>
</a>
</g>
</g>
<!-- Node8&#45;&gt;Node4 -->
<g id="edge13_Node000008_Node000004" class="edge">
<title>Node8&#45;&gt;Node4</title>
<g id="a_edge13_Node000008_Node000004"><a xlink:title=" ">
<path fill="none" stroke="#63b8ff" d="M304.31,-111.44C301.33,-110.95 298.37,-110.46 295.5,-110 194.77,-93.69 166.42,-94.38 63.1,-74.19"/>
<polygon fill="#63b8ff" stroke="#63b8ff" points="63.69,-70.74 53.2,-72.23 62.33,-77.6 63.69,-70.74"/>
</a>
</g>
</g>
<!-- Node8&#45;&gt;Node5 -->
<g id="edge16_Node000008_Node000005" class="edge">
<title>Node8&#45;&gt;Node5</title>
<g id="a_edge16_Node000008_Node000005"><a xlink:title=" ">
<path fill="none" stroke="#63b8ff" d="M306,-109.99C266.56,-101.49 203.92,-87.97 140.14,-74.14"/>
<polygon fill="#63b8ff" stroke="#63b8ff" points="140.82,-70.7 130.31,-72 139.34,-77.54 140.82,-70.7"/>
</a>
</g>
</g>
<!-- Node8&#45;&gt;Node7 -->
<g id="edge14_Node000008_Node000007" class="edge">
<title>Node8&#45;&gt;Node7</title>
<g id="a_edge14_Node000008_Node000007"><a xlink:title=" ">
<path fill="none" stroke="#63b8ff" d="M386.88,-111.17C433.78,-102.83 512.8,-88.67 590.48,-74.17"/>
<polygon fill="#63b8ff" stroke="#63b8ff" points="591.26,-77.59 600.44,-72.31 589.97,-70.71 591.26,-77.59"/>
</a>
</g>
</g>
<!-- Node9 -->
<g id="Node000009" class="node">
<title>Node9</title>
<g id="a_Node000009"><a xlink:title=" ">
<polygon fill="#e0e0e0" stroke="#999999" points="466,-74 393,-74 393,-55 466,-55 466,-74"/>
<text text-anchor="middle" x="429.5" y="-62" font-family="Helvetica,sans-Serif" font-size="10.00">QFileDialog</text>
</a>
</g>
</g>
<!-- Node8&#45;&gt;Node9 -->
<g id="edge11_Node000008_Node000009" class="edge">
<title>Node8&#45;&gt;Node9</title>
<g id="a_edge11_Node000008_Node000009"><a xlink:title=" ">
<path fill="none" stroke="#63b8ff" d="M359,-109.98C371.9,-101.84 391.6,-89.41 406.9,-79.76"/>
<polygon fill="#63b8ff" stroke="#63b8ff" points="409.17,-82.47 415.76,-74.17 405.43,-76.55 409.17,-82.47"/>
</a>
</g>
</g>
<!-- Node10 -->
<g id="Node000010" class="node">
<title>Node10</title>
<g id="a_Node000010"><a xlink:title=" ">
<polygon fill="#e0e0e0" stroke="#999999" points="534.5,-74 484.5,-74 484.5,-55 534.5,-55 534.5,-74"/>
<text text-anchor="middle" x="509.5" y="-62" font-family="Helvetica,sans-Serif" font-size="10.00">QLineF</text>
</a>
</g>
</g>
<!-- Node8&#45;&gt;Node10 -->
<g id="edge12_Node000008_Node000010" class="edge">
<title>Node8&#45;&gt;Node10</title>
<g id="a_edge12_Node000008_Node000010"><a xlink:title=" ">
<path fill="none" stroke="#63b8ff" d="M371.85,-109.98C399.67,-100.99 443.67,-86.77 474.42,-76.84"/>
<polygon fill="#63b8ff" stroke="#63b8ff" points="475.85,-80.05 484.29,-73.65 473.7,-73.39 475.85,-80.05"/>
</a>
</g>
</g>
<!-- Node11 -->
<g id="Node000011" class="node">
<title>Node11</title>
<g id="a_Node000011"><a xlink:title=" ">
<polygon fill="#e0e0e0" stroke="#999999" points="582,-74 553,-74 553,-55 582,-55 582,-74"/>
<text text-anchor="middle" x="567.5" y="-62" font-family="Helvetica,sans-Serif" font-size="10.00">Qt</text>
</a>
</g>
</g>
<!-- Node8&#45;&gt;Node11 -->
<g id="edge15_Node000008_Node000011" class="edge">
<title>Node8&#45;&gt;Node11</title>
<g id="a_edge15_Node000008_Node000011"><a xlink:title=" ">
<path fill="none" stroke="#63b8ff" d="M386.82,-110.71C425,-103.18 483.44,-90.81 542.93,-73.87"/>
<polygon fill="#63b8ff" stroke="#63b8ff" points="544.23,-77.13 552.87,-70.99 542.29,-70.41 544.23,-77.13"/>
</a>
</g>
</g>
<!-- Node12 -->
<g id="Node000012" class="node">
<title>Node12</title>
<g id="a_Node000012"><a xlink:title=" ">
<polygon fill="#e0e0e0" stroke="#999999" points="204.5,-74 148.5,-74 148.5,-55 204.5,-55 204.5,-74"/>
<text text-anchor="middle" x="176.5" y="-62" font-family="Helvetica,sans-Serif" font-size="10.00">QPrinter</text>
</a>
</g>
</g>
<!-- Node8&#45;&gt;Node12 -->
<g id="edge17_Node000008_Node000012" class="edge">
<title>Node8&#45;&gt;Node12</title>
<g id="a_edge17_Node000008_Node000012"><a xlink:title=" ">
<path fill="none" stroke="#63b8ff" d="M318.35,-109.98C289.97,-101.09 245.27,-87.07 213.64,-77.15"/>
<polygon fill="#63b8ff" stroke="#63b8ff" points="214.45,-73.73 203.87,-74.08 212.36,-80.41 214.45,-73.73"/>
</a>
</g>
</g>
<!-- Node13 -->
<g id="Node000013" class="node">
<title>Node13</title>
<g id="a_Node000013"><a xlink:title=" ">
<polygon fill="#e0e0e0" stroke="#999999" points="274,-74 223,-74 223,-55 274,-55 274,-74"/>
<text text-anchor="middle" x="248.5" y="-62" font-family="Helvetica,sans-Serif" font-size="10.00">csignal</text>
</a>
</g>
</g>
<!-- Node8&#45;&gt;Node13 -->
<g id="edge18_Node000008_Node000013" class="edge">
<title>Node8&#45;&gt;Node13</title>
<g id="a_edge18_Node000008_Node000013"><a xlink:title=" ">
<path fill="none" stroke="#63b8ff" d="M329.92,-109.98C314.73,-101.69 291.4,-88.94 273.6,-79.22"/>
<polygon fill="#63b8ff" stroke="#63b8ff" points="274.82,-75.89 264.37,-74.17 271.47,-82.04 274.82,-75.89"/>
</a>
</g>
</g>
<!-- Node14 -->
<g id="Node000014" class="node">
<title>Node14</title>
<g id="a_Node000014"><a xlink:href="../../d4/d82/debugbreak_8h.html" target="_top" xlink:title=" ">
<polygon fill="white" stroke="#666666" points="375,-74 292,-74 292,-55 375,-55 375,-74"/>
<text text-anchor="middle" x="333.5" y="-62" font-family="Helvetica,sans-Serif" font-size="10.00">debugbreak.h</text>
</a>
</g>
</g>
<!-- Node8&#45;&gt;Node14 -->
<g id="edge19_Node000008_Node000014" class="edge">
<title>Node8&#45;&gt;Node14</title>
<g id="a_edge19_Node000008_Node000014"><a xlink:title=" ">
<path fill="none" stroke="#63b8ff" d="M343.52,-109.75C341.93,-102.72 339.64,-92.62 337.65,-83.84"/>
<polygon fill="#63b8ff" stroke="#63b8ff" points="341.07,-83.07 335.44,-74.09 334.24,-84.62 341.07,-83.07"/>
</a>
</g>
</g>
<!-- Node15 -->
<g id="Node000015" class="node">
<title>Node15</title>
<g id="a_Node000015"><a xlink:title=" ">
<polygon fill="#e0e0e0" stroke="#999999" points="361,-19 306,-19 306,0 361,0 361,-19"/>
<text text-anchor="middle" x="333.5" y="-7" font-family="Helvetica,sans-Serif" font-size="10.00">signal.h</text>
</a>
</g>
</g>
<!-- Node14&#45;&gt;Node15 -->
<g id="edge20_Node000014_Node000015" class="edge">
<title>Node14&#45;&gt;Node15</title>
<g id="a_edge20_Node000014_Node000015"><a xlink:title=" ">
<path fill="none" stroke="#63b8ff" d="M333.5,-54.75C333.5,-47.8 333.5,-37.85 333.5,-29.13"/>
<polygon fill="#63b8ff" stroke="#63b8ff" points="337,-29.09 333.5,-19.09 330,-29.09 337,-29.09"/>
</a>
</g>
</g>
<!-- Node16&#45;&gt;Node5 -->
<g id="edge22_Node000016_Node000005" class="edge">
<title>Node16&#45;&gt;Node5</title>
<g id="a_edge22_Node000016_Node000005"><a xlink:title=" ">
<path fill="none" stroke="#63b8ff" d="M207.1,-109.98C186.48,-101.38 154.39,-87.99 130.81,-78.15"/>
<polygon fill="#63b8ff" stroke="#63b8ff" points="131.85,-74.79 121.28,-74.17 129.16,-81.25 131.85,-74.79"/>
</a>
</g>
</g>
<!-- Node17&#45;&gt;Node3 -->
<g id="edge24_Node000017_Node000003" class="edge">
<title>Node17&#45;&gt;Node3</title>
<g id="a_edge24_Node000017_Node000003"><a xlink:title=" ">
<path fill="none" stroke="#63b8ff" d="M501.37,-219.6C501.66,-206.2 504.08,-180.75 517.5,-165 560.72,-114.25 634.54,-88.64 687.09,-76.24"/>
<polygon fill="#63b8ff" stroke="#63b8ff" points="688,-79.63 696.98,-74 686.45,-72.8 688,-79.63"/>
</a>
</g>
</g>
<!-- Node17&#45;&gt;Node4 -->
<g id="edge27_Node000017_Node000004" class="edge">
<title>Node17&#45;&gt;Node4</title>
<g id="a_edge27_Node000017_Node000004"><a xlink:title=" ">
<path fill="none" stroke="#63b8ff" d="M461.31,-225.96C384.73,-219.63 214.53,-198.25 91.5,-129 70.55,-117.21 51.51,-96.96 39.53,-82.49"/>
<polygon fill="#63b8ff" stroke="#63b8ff" points="42.01,-79.99 33.03,-74.36 36.54,-84.36 42.01,-79.99"/>
</a>
</g>
</g>
<!-- Node17&#45;&gt;Node6 -->
<g id="edge28_Node000017_Node000006" class="edge">
<title>Node17&#45;&gt;Node6</title>
<g id="a_edge28_Node000017_Node000006"><a xlink:title=" ">
<path fill="none" stroke="#63b8ff" d="M476.44,-219.98C450.47,-211.16 409.69,-197.31 380.54,-187.41"/>
<polygon fill="#63b8ff" stroke="#63b8ff" points="381.35,-183.99 370.76,-184.08 379.1,-190.61 381.35,-183.99"/>
</a>
</g>
</g>
<!-- Node18 -->
<g id="Node000018" class="node">
<title>Node18</title>
<g id="a_Node000018"><a xlink:title=" ">
<polygon fill="#e0e0e0" stroke="#999999" points="627,-184 526,-184 526,-165 627,-165 627,-184"/>
<text text-anchor="middle" x="576.5" y="-172" font-family="Helvetica,sans-Serif" font-size="10.00">QCoreApplication</text>
</a>
</g>
</g>
<!-- Node17&#45;&gt;Node18 -->
<g id="edge25_Node000017_Node000018" class="edge">
<title>Node17&#45;&gt;Node18</title>
<g id="a_edge25_Node000017_Node000018"><a xlink:title=" ">
<path fill="none" stroke="#63b8ff" d="M513.55,-219.98C524.96,-211.92 542.33,-199.65 555.93,-190.03"/>
<polygon fill="#63b8ff" stroke="#63b8ff" points="558.08,-192.8 564.23,-184.17 554.04,-187.08 558.08,-192.8"/>
</a>
</g>
</g>
<!-- Node19 -->
<g id="Node000019" class="node">
<title>Node19</title>
<g id="a_Node000019"><a xlink:title=" ">
<polygon fill="#e0e0e0" stroke="#999999" points="717.5,-184 645.5,-184 645.5,-165 717.5,-165 717.5,-184"/>
<text text-anchor="middle" x="681.5" y="-172" font-family="Helvetica,sans-Serif" font-size="10.00">QException</text>
</a>
</g>
</g>
<!-- Node17&#45;&gt;Node19 -->
<g id="edge26_Node000017_Node000019" class="edge">
<title>Node17&#45;&gt;Node19</title>
<g id="a_edge26_Node000017_Node000019"><a xlink:title=" ">
<path fill="none" stroke="#63b8ff" d="M530.42,-219.98C560.77,-211.05 608.67,-196.94 642.38,-187.02"/>
<polygon fill="#63b8ff" stroke="#63b8ff" points="643.75,-190.26 652.35,-184.08 641.77,-183.55 643.75,-190.26"/>
</a>
</g>
</g>
</g>
</svg>
