<?xml version="1.0" encoding="UTF-8" standalone="no"?>
<!DOCTYPE svg PUBLIC "-//W3C//DTD SVG 1.1//EN"
 "http://www.w3.org/Graphics/SVG/1.1/DTD/svg11.dtd">
<!-- Generated by graphviz version 2.43.0 (0)
 -->
<!-- Title: src/libs/vdxf/vdxfengine.h Pages: 1 -->
<svg width="997pt" height="192pt"
 viewBox="0.00 0.00 996.50 192.00" xmlns="http://www.w3.org/2000/svg" xmlns:xlink="http://www.w3.org/1999/xlink">
<g id="graph0" class="graph" transform="scale(1 1) rotate(0) translate(4 188)">
<title>src/libs/vdxf/vdxfengine.h</title>
<!-- Node1 -->
<g id="Node000001" class="node">
<title>Node1</title>
<g id="a_Node000001"><a xlink:title=" ">
<polygon fill="#999999" stroke="#666666" points="574.5,-184 431.5,-184 431.5,-165 574.5,-165 574.5,-184"/>
<text text-anchor="middle" x="503" y="-172" font-family="Helvetica,sans-Serif" font-size="10.00">src/libs/vdxf/vdxfengine.h</text>
</a>
</g>
</g>
<!-- Node2 -->
<g id="Node000002" class="node">
<title>Node2</title>
<g id="a_Node000002"><a xlink:title=" ">
<polygon fill="#e0e0e0" stroke="#999999" points="120,-74 0,-74 0,-55 120,-55 120,-74"/>
<text text-anchor="middle" x="60" y="-62" font-family="Helvetica,sans-Serif" font-size="10.00">qcompilerdetection.h</text>
</a>
</g>
</g>
<!-- Node1&#45;&gt;Node2 -->
<g id="edge1_Node000001_Node000002" class="edge">
<title>Node1&#45;&gt;Node2</title>
<g id="a_edge1_Node000001_Node000002"><a xlink:title=" ">
<path fill="none" stroke="#63b8ff" d="M431.22,-168.34C369.71,-162.63 279.23,-151.13 203,-129 159.83,-116.47 112.72,-93.6 84.8,-79"/>
<polygon fill="#63b8ff" stroke="#63b8ff" points="86.24,-75.8 75.76,-74.21 82.96,-81.99 86.24,-75.8"/>
</a>
</g>
</g>
<!-- Node3 -->
<g id="Node000003" class="node">
<title>Node3</title>
<g id="a_Node000003"><a xlink:title=" ">
<polygon fill="#e0e0e0" stroke="#999999" points="488,-129 432,-129 432,-110 488,-110 488,-129"/>
<text text-anchor="middle" x="460" y="-117" font-family="Helvetica,sans-Serif" font-size="10.00">QMatrix</text>
</a>
</g>
</g>
<!-- Node1&#45;&gt;Node3 -->
<g id="edge2_Node000001_Node000003" class="edge">
<title>Node1&#45;&gt;Node3</title>
<g id="a_edge2_Node000001_Node000003"><a xlink:title=" ">
<path fill="none" stroke="#63b8ff" d="M495.9,-164.75C489.83,-157.26 480.91,-146.28 473.49,-137.13"/>
<polygon fill="#63b8ff" stroke="#63b8ff" points="475.99,-134.65 466.97,-129.09 470.55,-139.06 475.99,-134.65"/>
</a>
</g>
</g>
<!-- Node4 -->
<g id="Node000004" class="node">
<title>Node4</title>
<g id="a_Node000004"><a xlink:title=" ">
<polygon fill="#e0e0e0" stroke="#999999" points="587.5,-129 506.5,-129 506.5,-110 587.5,-110 587.5,-129"/>
<text text-anchor="middle" x="547" y="-117" font-family="Helvetica,sans-Serif" font-size="10.00">QPaintEngine</text>
</a>
</g>
</g>
<!-- Node1&#45;&gt;Node4 -->
<g id="edge3_Node000001_Node000004" class="edge">
<title>Node1&#45;&gt;Node4</title>
<g id="a_edge3_Node000001_Node000004"><a xlink:title=" ">
<path fill="none" stroke="#63b8ff" d="M510.27,-164.75C516.54,-157.18 525.79,-146.05 533.43,-136.84"/>
<polygon fill="#63b8ff" stroke="#63b8ff" points="536.17,-139.02 539.87,-129.09 530.79,-134.55 536.17,-139.02"/>
</a>
</g>
</g>
<!-- Node5 -->
<g id="Node000005" class="node">
<title>Node5</title>
<g id="a_Node000005"><a xlink:title=" ">
<polygon fill="#e0e0e0" stroke="#999999" points="660.5,-129 605.5,-129 605.5,-110 660.5,-110 660.5,-129"/>
<text text-anchor="middle" x="633" y="-117" font-family="Helvetica,sans-Serif" font-size="10.00">QPointF</text>
</a>
</g>
</g>
<!-- Node1&#45;&gt;Node5 -->
<g id="edge4_Node000001_Node000005" class="edge">
<title>Node1&#45;&gt;Node5</title>
<g id="a_edge4_Node000001_Node000005"><a xlink:title=" ">
<path fill="none" stroke="#63b8ff" d="M523.89,-164.98C545.08,-156.34 578.13,-142.87 602.3,-133.02"/>
<polygon fill="#63b8ff" stroke="#63b8ff" points="603.79,-136.19 611.73,-129.17 601.15,-129.7 603.79,-136.19"/>
</a>
</g>
</g>
<!-- Node6 -->
<g id="Node000006" class="node">
<title>Node6</title>
<g id="a_Node000006"><a xlink:title=" ">
<polygon fill="#e0e0e0" stroke="#999999" points="731,-129 679,-129 679,-110 731,-110 731,-129"/>
<text text-anchor="middle" x="705" y="-117" font-family="Helvetica,sans-Serif" font-size="10.00">QRectF</text>
</a>
</g>
</g>
<!-- Node1&#45;&gt;Node6 -->
<g id="edge5_Node000001_Node000006" class="edge">
<title>Node1&#45;&gt;Node6</title>
<g id="a_edge5_Node000001_Node000006"><a xlink:title=" ">
<path fill="none" stroke="#63b8ff" d="M535.45,-164.98C571.85,-155.44 630.72,-139.99 668.64,-130.04"/>
<polygon fill="#63b8ff" stroke="#63b8ff" points="669.95,-133.31 678.74,-127.39 668.18,-126.54 669.95,-133.31"/>
</a>
</g>
</g>
<!-- Node7 -->
<g id="Node000007" class="node">
<title>Node7</title>
<g id="a_Node000007"><a xlink:title=" ">
<polygon fill="#e0e0e0" stroke="#999999" points="793,-129 749,-129 749,-110 793,-110 793,-129"/>
<text text-anchor="middle" x="771" y="-117" font-family="Helvetica,sans-Serif" font-size="10.00">QSize</text>
</a>
</g>
</g>
<!-- Node1&#45;&gt;Node7 -->
<g id="edge6_Node000001_Node000007" class="edge">
<title>Node1&#45;&gt;Node7</title>
<g id="a_edge6_Node000001_Node000007"><a xlink:title=" ">
<path fill="none" stroke="#63b8ff" d="M555.04,-164.99C600.97,-157.2 669.93,-144.81 738.58,-129.18"/>
<polygon fill="#63b8ff" stroke="#63b8ff" points="739.74,-132.5 748.7,-126.85 738.17,-125.68 739.74,-132.5"/>
</a>
</g>
</g>
<!-- Node8 -->
<g id="Node000008" class="node">
<title>Node8</title>
<g id="a_Node000008"><a xlink:title=" ">
<polygon fill="#e0e0e0" stroke="#999999" points="191.5,-74 138.5,-74 138.5,-55 191.5,-55 191.5,-74"/>
<text text-anchor="middle" x="165" y="-62" font-family="Helvetica,sans-Serif" font-size="10.00">QString</text>
</a>
</g>
</g>
<!-- Node1&#45;&gt;Node8 -->
<g id="edge7_Node000001_Node000008" class="edge">
<title>Node1&#45;&gt;Node8</title>
<g id="a_edge7_Node000001_Node000008"><a xlink:title=" ">
<path fill="none" stroke="#63b8ff" d="M431.41,-172.52C375.44,-169.25 296.99,-158.99 235,-129 212.03,-117.89 191.14,-96.85 178.28,-82.04"/>
<polygon fill="#63b8ff" stroke="#63b8ff" points="180.78,-79.58 171.68,-74.17 175.42,-84.08 180.78,-79.58"/>
</a>
</g>
</g>
<!-- Node9 -->
<g id="Node000009" class="node">
<title>Node9</title>
<g id="a_Node000009"><a xlink:title=" ">
<polygon fill="#e0e0e0" stroke="#999999" points="268.5,-74 209.5,-74 209.5,-55 268.5,-55 268.5,-74"/>
<text text-anchor="middle" x="239" y="-62" font-family="Helvetica,sans-Serif" font-size="10.00">QtGlobal</text>
</a>
</g>
</g>
<!-- Node1&#45;&gt;Node9 -->
<g id="edge8_Node000001_Node000009" class="edge">
<title>Node1&#45;&gt;Node9</title>
<g id="a_edge8_Node000001_Node000009"><a xlink:title=" ">
<path fill="none" stroke="#63b8ff" d="M431.36,-170.06C365.31,-165.33 273.87,-154.3 249,-129 237.64,-117.44 235.95,-98.57 236.61,-84.4"/>
<polygon fill="#63b8ff" stroke="#63b8ff" points="240.12,-84.54 237.51,-74.27 233.14,-83.92 240.12,-84.54"/>
</a>
</g>
</g>
<!-- Node10 -->
<g id="Node000010" class="node">
<title>Node10</title>
<g id="a_Node000010"><a xlink:title=" ">
<polygon fill="#e0e0e0" stroke="#999999" points="855,-129 811,-129 811,-110 855,-110 855,-129"/>
<text text-anchor="middle" x="833" y="-117" font-family="Helvetica,sans-Serif" font-size="10.00">string</text>
</a>
</g>
</g>
<!-- Node1&#45;&gt;Node10 -->
<g id="edge9_Node000001_Node000010" class="edge">
<title>Node1&#45;&gt;Node10</title>
<g id="a_edge9_Node000001_Node000010"><a xlink:title=" ">
<path fill="none" stroke="#63b8ff" d="M574.72,-165.28C633.24,-158.01 718.2,-146.18 800.91,-129.01"/>
<polygon fill="#63b8ff" stroke="#63b8ff" points="801.66,-132.43 810.73,-126.95 800.22,-125.58 801.66,-132.43"/>
</a>
</g>
</g>
<!-- Node11 -->
<g id="Node000011" class="node">
<title>Node11</title>
<g id="a_Node000011"><a xlink:href="../../d4/da4/def_8h.html" target="_top" xlink:title=" ">
<polygon fill="white" stroke="#666666" points="414,-129 332,-129 332,-110 414,-110 414,-129"/>
<text text-anchor="middle" x="373" y="-117" font-family="Helvetica,sans-Serif" font-size="10.00">../vmisc/def.h</text>
</a>
</g>
</g>
<!-- Node1&#45;&gt;Node11 -->
<g id="edge10_Node000001_Node000011" class="edge">
<title>Node1&#45;&gt;Node11</title>
<g id="a_edge10_Node000001_Node000011"><a xlink:title=" ">
<path fill="none" stroke="#63b8ff" d="M482.11,-164.98C460.92,-156.34 427.87,-142.87 403.7,-133.02"/>
<polygon fill="#63b8ff" stroke="#63b8ff" points="404.85,-129.7 394.27,-129.17 402.21,-136.19 404.85,-129.7"/>
</a>
</g>
</g>
<!-- Node20 -->
<g id="Node000020" class="node">
<title>Node20</title>
<g id="a_Node000020"><a xlink:href="../../d7/de8/dxfdef_8h.html" target="_top" xlink:title=" ">
<polygon fill="white" stroke="#666666" points="314,-129 258,-129 258,-110 314,-110 314,-129"/>
<text text-anchor="middle" x="286" y="-117" font-family="Helvetica,sans-Serif" font-size="10.00">dxfdef.h</text>
</a>
</g>
</g>
<!-- Node1&#45;&gt;Node20 -->
<g id="edge22_Node000001_Node000020" class="edge">
<title>Node1&#45;&gt;Node20</title>
<g id="a_edge22_Node000001_Node000020"><a xlink:title=" ">
<path fill="none" stroke="#63b8ff" d="M468.14,-164.98C428.71,-155.35 364.71,-139.72 324.02,-129.79"/>
<polygon fill="#63b8ff" stroke="#63b8ff" points="324.76,-126.36 314.21,-127.39 323.09,-133.16 324.76,-126.36"/>
</a>
</g>
</g>
<!-- Node21 -->
<g id="Node000021" class="node">
<title>Node21</title>
<g id="a_Node000021"><a xlink:title=" ">
<polygon fill="#e0e0e0" stroke="#999999" points="988.5,-129 873.5,-129 873.5,-110 988.5,-110 988.5,-129"/>
<text text-anchor="middle" x="931" y="-117" font-family="Helvetica,sans-Serif" font-size="10.00">libdxfrw/drw_base.h</text>
</a>
</g>
</g>
<!-- Node1&#45;&gt;Node21 -->
<g id="edge24_Node000001_Node000021" class="edge">
<title>Node1&#45;&gt;Node21</title>
<g id="a_edge24_Node000001_Node000021"><a xlink:title=" ">
<path fill="none" stroke="#63b8ff" d="M572.89,-164.96C643.42,-156.32 755.75,-142.52 863.21,-129.09"/>
<polygon fill="#63b8ff" stroke="#63b8ff" points="863.77,-132.55 873.26,-127.84 862.9,-125.61 863.77,-132.55"/>
</a>
</g>
</g>
<!-- Node11&#45;&gt;Node2 -->
<g id="edge11_Node000011_Node000002" class="edge">
<title>Node11&#45;&gt;Node2</title>
<g id="a_edge11_Node000011_Node000002"><a xlink:title=" ">
<path fill="none" stroke="#63b8ff" d="M331.8,-111.49C328.82,-110.99 325.86,-110.49 323,-110 253.51,-98.22 173.7,-84.71 120.39,-75.7"/>
<polygon fill="#63b8ff" stroke="#63b8ff" points="120.86,-72.23 110.42,-74.02 119.7,-79.14 120.86,-72.23"/>
</a>
</g>
</g>
<!-- Node11&#45;&gt;Node8 -->
<g id="edge14_Node000011_Node000008" class="edge">
<title>Node11&#45;&gt;Node8</title>
<g id="a_edge14_Node000011_Node000008"><a xlink:title=" ">
<path fill="none" stroke="#63b8ff" d="M339.58,-109.98C301.84,-100.37 240.62,-84.77 201.62,-74.83"/>
<polygon fill="#63b8ff" stroke="#63b8ff" points="202.28,-71.39 191.72,-72.31 200.55,-78.17 202.28,-71.39"/>
</a>
</g>
</g>
<!-- Node11&#45;&gt;Node9 -->
<g id="edge17_Node000011_Node000009" class="edge">
<title>Node11&#45;&gt;Node9</title>
<g id="a_edge17_Node000011_Node000009"><a xlink:title=" ">
<path fill="none" stroke="#63b8ff" d="M351.47,-109.98C329.53,-101.3 295.26,-87.75 270.31,-77.88"/>
<polygon fill="#63b8ff" stroke="#63b8ff" points="271.51,-74.59 260.92,-74.17 268.93,-81.1 271.51,-74.59"/>
</a>
</g>
</g>
<!-- Node12 -->
<g id="Node000012" class="node">
<title>Node12</title>
<g id="a_Node000012"><a xlink:title=" ">
<polygon fill="#e0e0e0" stroke="#999999" points="740.5,-74 667.5,-74 667.5,-55 740.5,-55 740.5,-74"/>
<text text-anchor="middle" x="704" y="-62" font-family="Helvetica,sans-Serif" font-size="10.00">QFileDialog</text>
</a>
</g>
</g>
<!-- Node11&#45;&gt;Node12 -->
<g id="edge12_Node000011_Node000012" class="edge">
<title>Node11&#45;&gt;Node12</title>
<g id="a_edge12_Node000011_Node000012"><a xlink:title=" ">
<path fill="none" stroke="#63b8ff" d="M414.19,-111.44C417.17,-110.95 420.13,-110.46 423,-110 524.58,-93.62 552.72,-91.94 657.17,-74.27"/>
<polygon fill="#63b8ff" stroke="#63b8ff" points="657.91,-77.69 667.18,-72.56 656.74,-70.79 657.91,-77.69"/>
</a>
</g>
</g>
<!-- Node13 -->
<g id="Node000013" class="node">
<title>Node13</title>
<g id="a_Node000013"><a xlink:title=" ">
<polygon fill="#e0e0e0" stroke="#999999" points="809,-74 759,-74 759,-55 809,-55 809,-74"/>
<text text-anchor="middle" x="784" y="-62" font-family="Helvetica,sans-Serif" font-size="10.00">QLineF</text>
</a>
</g>
</g>
<!-- Node11&#45;&gt;Node13 -->
<g id="edge13_Node000011_Node000013" class="edge">
<title>Node11&#45;&gt;Node13</title>
<g id="a_edge13_Node000011_Node000013"><a xlink:title=" ">
<path fill="none" stroke="#63b8ff" d="M414.17,-111.3C417.16,-110.84 420.12,-110.4 423,-110 564.55,-90.19 604.31,-99.35 748.71,-74"/>
<polygon fill="#63b8ff" stroke="#63b8ff" points="749.6,-77.4 758.83,-72.2 748.37,-70.5 749.6,-77.4"/>
</a>
</g>
</g>
<!-- Node14 -->
<g id="Node000014" class="node">
<title>Node14</title>
<g id="a_Node000014"><a xlink:title=" ">
<polygon fill="#e0e0e0" stroke="#999999" points="357,-74 287,-74 287,-55 357,-55 357,-74"/>
<text text-anchor="middle" x="322" y="-62" font-family="Helvetica,sans-Serif" font-size="10.00">QStringList</text>
</a>
</g>
</g>
<!-- Node11&#45;&gt;Node14 -->
<g id="edge15_Node000011_Node000014" class="edge">
<title>Node11&#45;&gt;Node14</title>
<g id="a_edge15_Node000011_Node000014"><a xlink:title=" ">
<path fill="none" stroke="#63b8ff" d="M364.58,-109.75C357.23,-102.11 346.37,-90.82 337.46,-81.56"/>
<polygon fill="#63b8ff" stroke="#63b8ff" points="339.72,-78.87 330.26,-74.09 334.68,-83.72 339.72,-78.87"/>
</a>
</g>
</g>
<!-- Node15 -->
<g id="Node000015" class="node">
<title>Node15</title>
<g id="a_Node000015"><a xlink:title=" ">
<polygon fill="#e0e0e0" stroke="#999999" points="404.5,-74 375.5,-74 375.5,-55 404.5,-55 404.5,-74"/>
<text text-anchor="middle" x="390" y="-62" font-family="Helvetica,sans-Serif" font-size="10.00">Qt</text>
</a>
</g>
</g>
<!-- Node11&#45;&gt;Node15 -->
<g id="edge16_Node000011_Node000015" class="edge">
<title>Node11&#45;&gt;Node15</title>
<g id="a_edge16_Node000011_Node000015"><a xlink:title=" ">
<path fill="none" stroke="#63b8ff" d="M375.81,-109.75C378.06,-102.72 381.3,-92.62 384.12,-83.84"/>
<polygon fill="#63b8ff" stroke="#63b8ff" points="387.52,-84.68 387.25,-74.09 380.86,-82.54 387.52,-84.68"/>
</a>
</g>
</g>
<!-- Node16 -->
<g id="Node000016" class="node">
<title>Node16</title>
<g id="a_Node000016"><a xlink:title=" ">
<polygon fill="#e0e0e0" stroke="#999999" points="479,-74 423,-74 423,-55 479,-55 479,-74"/>
<text text-anchor="middle" x="451" y="-62" font-family="Helvetica,sans-Serif" font-size="10.00">QPrinter</text>
</a>
</g>
</g>
<!-- Node11&#45;&gt;Node16 -->
<g id="edge18_Node000011_Node000016" class="edge">
<title>Node11&#45;&gt;Node16</title>
<g id="a_edge18_Node000011_Node000016"><a xlink:title=" ">
<path fill="none" stroke="#63b8ff" d="M385.53,-109.98C397.4,-101.92 415.46,-89.65 429.61,-80.03"/>
<polygon fill="#63b8ff" stroke="#63b8ff" points="431.94,-82.69 438.24,-74.17 428,-76.9 431.94,-82.69"/>
</a>
</g>
</g>
<!-- Node17 -->
<g id="Node000017" class="node">
<title>Node17</title>
<g id="a_Node000017"><a xlink:title=" ">
<polygon fill="#e0e0e0" stroke="#999999" points="548.5,-74 497.5,-74 497.5,-55 548.5,-55 548.5,-74"/>
<text text-anchor="middle" x="523" y="-62" font-family="Helvetica,sans-Serif" font-size="10.00">csignal</text>
</a>
</g>
</g>
<!-- Node11&#45;&gt;Node17 -->
<g id="edge19_Node000011_Node000017" class="edge">
<title>Node11&#45;&gt;Node17</title>
<g id="a_edge19_Node000011_Node000017"><a xlink:title=" ">
<path fill="none" stroke="#63b8ff" d="M397.1,-109.98C421.88,-101.23 460.7,-87.51 488.69,-77.62"/>
<polygon fill="#63b8ff" stroke="#63b8ff" points="490.2,-80.8 498.46,-74.17 487.87,-74.2 490.2,-80.8"/>
</a>
</g>
</g>
<!-- Node18 -->
<g id="Node000018" class="node">
<title>Node18</title>
<g id="a_Node000018"><a xlink:href="../../d4/d82/debugbreak_8h.html" target="_top" xlink:title=" ">
<polygon fill="white" stroke="#666666" points="649.5,-74 566.5,-74 566.5,-55 649.5,-55 649.5,-74"/>
<text text-anchor="middle" x="608" y="-62" font-family="Helvetica,sans-Serif" font-size="10.00">debugbreak.h</text>
</a>
</g>
</g>
<!-- Node11&#45;&gt;Node18 -->
<g id="edge20_Node000011_Node000018" class="edge">
<title>Node11&#45;&gt;Node18</title>
<g id="a_edge20_Node000011_Node000018"><a xlink:title=" ">
<path fill="none" stroke="#63b8ff" d="M410.76,-109.98C451.32,-100.84 515.89,-86.27 560.03,-76.32"/>
<polygon fill="#63b8ff" stroke="#63b8ff" points="560.96,-79.7 569.95,-74.08 559.42,-72.87 560.96,-79.7"/>
</a>
</g>
</g>
<!-- Node19 -->
<g id="Node000019" class="node">
<title>Node19</title>
<g id="a_Node000019"><a xlink:title=" ">
<polygon fill="#e0e0e0" stroke="#999999" points="635.5,-19 580.5,-19 580.5,0 635.5,0 635.5,-19"/>
<text text-anchor="middle" x="608" y="-7" font-family="Helvetica,sans-Serif" font-size="10.00">signal.h</text>
</a>
</g>
</g>
<!-- Node18&#45;&gt;Node19 -->
<g id="edge21_Node000018_Node000019" class="edge">
<title>Node18&#45;&gt;Node19</title>
<g id="a_edge21_Node000018_Node000019"><a xlink:title=" ">
<path fill="none" stroke="#63b8ff" d="M608,-54.75C608,-47.8 608,-37.85 608,-29.13"/>
<polygon fill="#63b8ff" stroke="#63b8ff" points="611.5,-29.09 608,-19.09 604.5,-29.09 611.5,-29.09"/>
</a>
</g>
</g>
<!-- Node20&#45;&gt;Node9 -->
<g id="edge23_Node000020_Node000009" class="edge">
<title>Node20&#45;&gt;Node9</title>
<g id="a_edge23_Node000020_Node000009"><a xlink:title=" ">
<path fill="none" stroke="#63b8ff" d="M278.24,-109.75C271.53,-102.18 261.66,-91.05 253.49,-81.84"/>
<polygon fill="#63b8ff" stroke="#63b8ff" points="255.87,-79.25 246.62,-74.09 250.63,-83.89 255.87,-79.25"/>
</a>
</g>
</g>
</g>
</svg>
