<?xml version="1.0" encoding="UTF-8" standalone="no"?>
<!DOCTYPE svg PUBLIC "-//W3C//DTD SVG 1.1//EN"
 "http://www.w3.org/Graphics/SVG/1.1/DTD/svg11.dtd">
<!-- Generated by graphviz version 2.43.0 (0)
 -->
<!-- Title: src/libs/vgeometry/vabstractcubicbezierpath.h Pages: 1 -->
<svg width="1268pt" height="368pt"
 viewBox="0.00 0.00 1267.50 368.00" xmlns="http://www.w3.org/2000/svg" xmlns:xlink="http://www.w3.org/1999/xlink">
<g id="graph0" class="graph" transform="scale(1 1) rotate(0) translate(4 364)">
<title>src/libs/vgeometry/vabstractcubicbezierpath.h</title>
<!-- Node1 -->
<g id="Node000001" class="node">
<title>Node1</title>
<g id="a_Node000001"><a xlink:title=" ">
<polygon fill="#999999" stroke="#666666" points="1073,-360 921,-360 921,-330 1073,-330 1073,-360"/>
<text text-anchor="start" x="929" y="-348" font-family="Helvetica,sans-Serif" font-size="10.00">src/libs/vgeometry</text>
<text text-anchor="middle" x="997" y="-337" font-family="Helvetica,sans-Serif" font-size="10.00">/vabstractcubicbezierpath.h</text>
</a>
</g>
</g>
<!-- Node2 -->
<g id="Node000002" class="node">
<title>Node2</title>
<g id="a_Node000002"><a xlink:title=" ">
<polygon fill="#e0e0e0" stroke="#999999" points="1152,-74 1032,-74 1032,-55 1152,-55 1152,-74"/>
<text text-anchor="middle" x="1092" y="-62" font-family="Helvetica,sans-Serif" font-size="10.00">qcompilerdetection.h</text>
</a>
</g>
</g>
<!-- Node1&#45;&gt;Node2 -->
<g id="edge1_Node000001_Node000002" class="edge">
<title>Node1&#45;&gt;Node2</title>
<g id="a_edge1_Node000001_Node000002"><a xlink:title=" ">
<path fill="none" stroke="#63b8ff" d="M1036.19,-329.85C1075.42,-312.86 1130,-280.28 1130,-230.5 1130,-230.5 1130,-230.5 1130,-173.5 1130,-140.02 1113.55,-103.84 1102.3,-83.01"/>
<polygon fill="#63b8ff" stroke="#63b8ff" points="1105.24,-81.1 1097.28,-74.1 1099.13,-84.53 1105.24,-81.1"/>
</a>
</g>
</g>
<!-- Node3 -->
<g id="Node000003" class="node">
<title>Node3</title>
<g id="a_Node000003"><a xlink:title=" ">
<polygon fill="#e0e0e0" stroke="#999999" points="1259.5,-294 1158.5,-294 1158.5,-275 1259.5,-275 1259.5,-294"/>
<text text-anchor="middle" x="1209" y="-282" font-family="Helvetica,sans-Serif" font-size="10.00">QCoreApplication</text>
</a>
</g>
</g>
<!-- Node1&#45;&gt;Node3 -->
<g id="edge2_Node000001_Node000003" class="edge">
<title>Node1&#45;&gt;Node3</title>
<g id="a_edge2_Node000001_Node000003"><a xlink:title=" ">
<path fill="none" stroke="#63b8ff" d="M1047.78,-329.99C1084.68,-319.8 1133.98,-306.2 1168.3,-296.73"/>
<polygon fill="#63b8ff" stroke="#63b8ff" points="1169.29,-300.09 1178,-294.05 1167.43,-293.34 1169.29,-300.09"/>
</a>
</g>
</g>
<!-- Node4 -->
<g id="Node000004" class="node">
<title>Node4</title>
<g id="a_Node000004"><a xlink:title=" ">
<polygon fill="#e0e0e0" stroke="#999999" points="987.5,-184 932.5,-184 932.5,-165 987.5,-165 987.5,-184"/>
<text text-anchor="middle" x="960" y="-172" font-family="Helvetica,sans-Serif" font-size="10.00">QPointF</text>
</a>
</g>
</g>
<!-- Node1&#45;&gt;Node4 -->
<g id="edge3_Node000001_Node000004" class="edge">
<title>Node1&#45;&gt;Node4</title>
<g id="a_edge3_Node000001_Node000004"><a xlink:title=" ">
<path fill="none" stroke="#63b8ff" d="M993.91,-329.92C987.26,-299.65 971.6,-228.35 964.12,-194.27"/>
<polygon fill="#63b8ff" stroke="#63b8ff" points="967.49,-193.27 961.92,-184.25 960.65,-194.77 967.49,-193.27"/>
</a>
</g>
</g>
<!-- Node5 -->
<g id="Node000005" class="node">
<title>Node5</title>
<g id="a_Node000005"><a xlink:title=" ">
<polygon fill="#e0e0e0" stroke="#999999" points="827.5,-74 774.5,-74 774.5,-55 827.5,-55 827.5,-74"/>
<text text-anchor="middle" x="801" y="-62" font-family="Helvetica,sans-Serif" font-size="10.00">QString</text>
</a>
</g>
</g>
<!-- Node1&#45;&gt;Node5 -->
<g id="edge4_Node000001_Node000005" class="edge">
<title>Node1&#45;&gt;Node5</title>
<g id="a_edge4_Node000001_Node000005"><a xlink:title=" ">
<path fill="none" stroke="#63b8ff" d="M1009.65,-329.74C1026.44,-309.29 1054,-269.75 1054,-230.5 1054,-230.5 1054,-230.5 1054,-173.5 1054,-144.04 1056.87,-129.73 1035,-110 1006.53,-84.31 896.5,-72.49 838.03,-67.92"/>
<polygon fill="#63b8ff" stroke="#63b8ff" points="837.97,-64.41 827.74,-67.15 837.45,-71.39 837.97,-64.41"/>
</a>
</g>
</g>
<!-- Node6 -->
<g id="Node000006" class="node">
<title>Node6</title>
<g id="a_Node000006"><a xlink:title=" ">
<polygon fill="#e0e0e0" stroke="#999999" points="619.5,-129 564.5,-129 564.5,-110 619.5,-110 619.5,-129"/>
<text text-anchor="middle" x="592" y="-117" font-family="Helvetica,sans-Serif" font-size="10.00">QVector</text>
</a>
</g>
</g>
<!-- Node1&#45;&gt;Node6 -->
<g id="edge5_Node000001_Node000006" class="edge">
<title>Node1&#45;&gt;Node6</title>
<g id="a_edge5_Node000001_Node000006"><a xlink:title=" ">
<path fill="none" stroke="#63b8ff" d="M920.89,-339.32C839.94,-333.08 718.37,-319.69 680,-294 625.32,-257.38 602.9,-176 595.31,-139.2"/>
<polygon fill="#63b8ff" stroke="#63b8ff" points="598.73,-138.48 593.41,-129.32 591.86,-139.8 598.73,-138.48"/>
</a>
</g>
</g>
<!-- Node7 -->
<g id="Node000007" class="node">
<title>Node7</title>
<g id="a_Node000007"><a xlink:title=" ">
<polygon fill="#e0e0e0" stroke="#999999" points="215.5,-74 156.5,-74 156.5,-55 215.5,-55 215.5,-74"/>
<text text-anchor="middle" x="186" y="-62" font-family="Helvetica,sans-Serif" font-size="10.00">QtGlobal</text>
</a>
</g>
</g>
<!-- Node1&#45;&gt;Node7 -->
<g id="edge6_Node000001_Node000007" class="edge">
<title>Node1&#45;&gt;Node7</title>
<g id="a_edge6_Node000001_Node000007"><a xlink:title=" ">
<path fill="none" stroke="#63b8ff" d="M920.83,-343.3C687.77,-340.18 0,-323.1 0,-230.5 0,-230.5 0,-230.5 0,-173.5 0,-106.5 91.38,-80.36 146.04,-70.72"/>
<polygon fill="#63b8ff" stroke="#63b8ff" points="146.82,-74.14 156.12,-69.06 145.68,-67.24 146.82,-74.14"/>
</a>
</g>
</g>
<!-- Node8 -->
<g id="Node000008" class="node">
<title>Node8</title>
<g id="a_Node000008"><a xlink:href="../../d8/d94/vabstractbezier_8h.html" target="_top" xlink:title=" ">
<polygon fill="white" stroke="#666666" points="789.5,-294 688.5,-294 688.5,-275 789.5,-275 789.5,-294"/>
<text text-anchor="middle" x="739" y="-282" font-family="Helvetica,sans-Serif" font-size="10.00">vabstractbezier.h</text>
</a>
</g>
</g>
<!-- Node1&#45;&gt;Node8 -->
<g id="edge7_Node000001_Node000008" class="edge">
<title>Node1&#45;&gt;Node8</title>
<g id="a_edge7_Node000001_Node000008"><a xlink:title=" ">
<path fill="none" stroke="#63b8ff" d="M935.2,-329.99C889.62,-319.65 828.5,-305.79 786.66,-296.31"/>
<polygon fill="#63b8ff" stroke="#63b8ff" points="787.25,-292.85 776.72,-294.05 785.7,-299.68 787.25,-292.85"/>
</a>
</g>
</g>
<!-- Node25 -->
<g id="Node000025" class="node">
<title>Node25</title>
<g id="a_Node000025"><a xlink:href="../../d5/d9d/vgeometrydef_8h.html" target="_top" xlink:title=" ">
<polygon fill="white" stroke="#666666" points="1026,-129 932,-129 932,-110 1026,-110 1026,-129"/>
<text text-anchor="middle" x="979" y="-117" font-family="Helvetica,sans-Serif" font-size="10.00">vgeometrydef.h</text>
</a>
</g>
</g>
<!-- Node1&#45;&gt;Node25 -->
<g id="edge45_Node000001_Node000025" class="edge">
<title>Node1&#45;&gt;Node25</title>
<g id="a_edge45_Node000001_Node000025"><a xlink:title=" ">
<path fill="none" stroke="#63b8ff" d="M998.81,-329.9C1002.33,-299.45 1008.75,-225.4 997,-165 995.21,-155.8 991.52,-146.09 987.94,-138.1"/>
<polygon fill="#63b8ff" stroke="#63b8ff" points="991.09,-136.57 983.62,-129.06 984.77,-139.59 991.09,-136.57"/>
</a>
</g>
</g>
<!-- Node8&#45;&gt;Node7 -->
<g id="edge8_Node000008_Node000007" class="edge">
<title>Node8&#45;&gt;Node7</title>
<g id="a_edge8_Node000008_Node000007"><a xlink:title=" ">
<path fill="none" stroke="#63b8ff" d="M688.3,-284.23C544.49,-285.09 139.08,-278.92 57,-184 35.49,-159.12 37.91,-136.78 57,-110 77.11,-81.79 116.35,-71.29 146.29,-67.47"/>
<polygon fill="#63b8ff" stroke="#63b8ff" points="146.88,-70.92 156.45,-66.38 146.14,-63.96 146.88,-70.92"/>
</a>
</g>
</g>
<!-- Node9 -->
<g id="Node000009" class="node">
<title>Node9</title>
<g id="a_Node000009"><a xlink:href="../../d5/d82/vabstractcurve_8h.html" target="_top" xlink:title=" ">
<polygon fill="white" stroke="#666666" points="788,-239 690,-239 690,-220 788,-220 788,-239"/>
<text text-anchor="middle" x="739" y="-227" font-family="Helvetica,sans-Serif" font-size="10.00">vabstractcurve.h</text>
</a>
</g>
</g>
<!-- Node8&#45;&gt;Node9 -->
<g id="edge9_Node000008_Node000009" class="edge">
<title>Node8&#45;&gt;Node9</title>
<g id="a_edge9_Node000008_Node000009"><a xlink:title=" ">
<path fill="none" stroke="#63b8ff" d="M739,-274.75C739,-267.8 739,-257.85 739,-249.13"/>
<polygon fill="#63b8ff" stroke="#63b8ff" points="742.5,-249.09 739,-239.09 735.5,-249.09 742.5,-249.09"/>
</a>
</g>
</g>
<!-- Node9&#45;&gt;Node2 -->
<g id="edge10_Node000009_Node000002" class="edge">
<title>Node9&#45;&gt;Node2</title>
<g id="a_edge10_Node000009_Node000002"><a xlink:title=" ">
<path fill="none" stroke="#63b8ff" d="M766.99,-219.97C794.8,-211.37 838.59,-197.47 876,-184 897.59,-176.23 902.41,-172.77 924,-165 972.8,-147.45 991.52,-157.27 1035,-129 1053.75,-116.81 1070.2,-96.92 1080.55,-82.65"/>
<polygon fill="#63b8ff" stroke="#63b8ff" points="1083.58,-84.42 1086.43,-74.22 1077.84,-80.42 1083.58,-84.42"/>
</a>
</g>
</g>
<!-- Node9&#45;&gt;Node4 -->
<g id="edge11_Node000009_Node000004" class="edge">
<title>Node9&#45;&gt;Node4</title>
<g id="a_edge11_Node000009_Node000004"><a xlink:title=" ">
<path fill="none" stroke="#63b8ff" d="M774.51,-219.98C815,-210.27 880.93,-194.46 922.31,-184.54"/>
<polygon fill="#63b8ff" stroke="#63b8ff" points="923.37,-187.88 932.28,-182.15 921.74,-181.08 923.37,-187.88"/>
</a>
</g>
</g>
<!-- Node9&#45;&gt;Node5 -->
<g id="edge13_Node000009_Node000005" class="edge">
<title>Node9&#45;&gt;Node5</title>
<g id="a_edge13_Node000009_Node000005"><a xlink:title=" ">
<path fill="none" stroke="#63b8ff" d="M753.2,-219.88C788.46,-198.35 877.68,-142.91 885,-129 897.98,-104.32 865.68,-86.51 837.44,-76.14"/>
<polygon fill="#63b8ff" stroke="#63b8ff" points="838.3,-72.74 827.71,-72.79 836.02,-79.35 838.3,-72.74"/>
</a>
</g>
</g>
<!-- Node9&#45;&gt;Node6 -->
<g id="edge15_Node000009_Node000006" class="edge">
<title>Node9&#45;&gt;Node6</title>
<g id="a_edge15_Node000009_Node000006"><a xlink:title=" ">
<path fill="none" stroke="#63b8ff" d="M706.03,-219.99C683.88,-213.03 655.01,-201.47 634,-184 618.95,-171.49 607.26,-152.21 600.08,-138.17"/>
<polygon fill="#63b8ff" stroke="#63b8ff" points="603.17,-136.53 595.66,-129.05 596.87,-139.58 603.17,-136.53"/>
</a>
</g>
</g>
<!-- Node9&#45;&gt;Node7 -->
<g id="edge16_Node000009_Node000007" class="edge">
<title>Node9&#45;&gt;Node7</title>
<g id="a_edge16_Node000009_Node000007"><a xlink:title=" ">
<path fill="none" stroke="#63b8ff" d="M689.91,-226.3C615.57,-222.21 470.33,-211.22 350,-184 276.66,-167.41 235.59,-188.8 190,-129 180.48,-116.51 180.3,-98.3 182.02,-84.59"/>
<polygon fill="#63b8ff" stroke="#63b8ff" points="185.54,-84.79 183.75,-74.34 178.64,-83.62 185.54,-84.79"/>
</a>
</g>
</g>
<!-- Node10 -->
<g id="Node000010" class="node">
<title>Node10</title>
<g id="a_Node000010"><a xlink:title=" ">
<polygon fill="#e0e0e0" stroke="#999999" points="792,-129 676,-129 676,-110 792,-110 792,-129"/>
<text text-anchor="middle" x="734" y="-117" font-family="Helvetica,sans-Serif" font-size="10.00">QSharedDataPointer</text>
</a>
</g>
</g>
<!-- Node9&#45;&gt;Node10 -->
<g id="edge12_Node000009_Node000010" class="edge">
<title>Node9&#45;&gt;Node10</title>
<g id="a_edge12_Node000009_Node000010"><a xlink:title=" ">
<path fill="none" stroke="#63b8ff" d="M738.59,-219.66C737.78,-202.17 735.96,-162.8 734.87,-139.27"/>
<polygon fill="#63b8ff" stroke="#63b8ff" points="738.36,-138.99 734.4,-129.16 731.37,-139.31 738.36,-138.99"/>
</a>
</g>
</g>
<!-- Node11 -->
<g id="Node000011" class="node">
<title>Node11</title>
<g id="a_Node000011"><a xlink:title=" ">
<polygon fill="#e0e0e0" stroke="#999999" points="875.5,-129 810.5,-129 810.5,-110 875.5,-110 875.5,-129"/>
<text text-anchor="middle" x="843" y="-117" font-family="Helvetica,sans-Serif" font-size="10.00">QTypeInfo</text>
</a>
</g>
</g>
<!-- Node9&#45;&gt;Node11 -->
<g id="edge14_Node000009_Node000011" class="edge">
<title>Node9&#45;&gt;Node11</title>
<g id="a_edge14_Node000009_Node000011"><a xlink:title=" ">
<path fill="none" stroke="#63b8ff" d="M747.51,-219.66C765.04,-201.46 805.4,-159.55 827.62,-136.47"/>
<polygon fill="#63b8ff" stroke="#63b8ff" points="830.25,-138.79 834.66,-129.16 825.2,-133.93 830.25,-138.79"/>
</a>
</g>
</g>
<!-- Node12 -->
<g id="Node000012" class="node">
<title>Node12</title>
<g id="a_Node000012"><a xlink:href="../../d3/da5/ifcdef_8h.html" target="_top" xlink:title=" ">
<polygon fill="white" stroke="#666666" points="436.5,-184 359.5,-184 359.5,-165 436.5,-165 436.5,-184"/>
<text text-anchor="middle" x="398" y="-172" font-family="Helvetica,sans-Serif" font-size="10.00">../ifc/ifcdef.h</text>
</a>
</g>
</g>
<!-- Node9&#45;&gt;Node12 -->
<g id="edge17_Node000009_Node000012" class="edge">
<title>Node9&#45;&gt;Node12</title>
<g id="a_edge17_Node000009_Node000012"><a xlink:title=" ">
<path fill="none" stroke="#63b8ff" d="M689.78,-220.85C624.83,-210.75 511.19,-193.09 446.56,-183.05"/>
<polygon fill="#63b8ff" stroke="#63b8ff" points="447.05,-179.58 436.63,-181.5 445.97,-186.5 447.05,-179.58"/>
</a>
</g>
</g>
<!-- Node23 -->
<g id="Node000023" class="node">
<title>Node23</title>
<g id="a_Node000023"><a xlink:href="../../db/db3/vmath_8h.html" target="_top" xlink:title=" ">
<polygon fill="white" stroke="#666666" points="164,-184 66,-184 66,-165 164,-165 164,-184"/>
<text text-anchor="middle" x="115" y="-172" font-family="Helvetica,sans-Serif" font-size="10.00">../vmisc/vmath.h</text>
</a>
</g>
</g>
<!-- Node9&#45;&gt;Node23 -->
<g id="edge35_Node000009_Node000023" class="edge">
<title>Node9&#45;&gt;Node23</title>
<g id="a_edge35_Node000009_Node000023"><a xlink:title=" ">
<path fill="none" stroke="#63b8ff" d="M689.76,-225.51C592.04,-219.37 366.71,-204.2 178,-184 176.73,-183.86 175.46,-183.72 174.17,-183.58"/>
<polygon fill="#63b8ff" stroke="#63b8ff" points="174.49,-180.09 164.15,-182.4 173.67,-187.05 174.49,-180.09"/>
</a>
</g>
</g>
<!-- Node9&#45;&gt;Node25 -->
<g id="edge37_Node000009_Node000025" class="edge">
<title>Node9&#45;&gt;Node25</title>
<g id="a_edge37_Node000009_Node000025"><a xlink:title=" ">
<path fill="none" stroke="#63b8ff" d="M759.2,-219.96C780.02,-211.11 813.38,-196.81 842,-184 880.15,-166.92 923.91,-146.49 951.5,-133.5"/>
<polygon fill="#63b8ff" stroke="#63b8ff" points="953.34,-136.5 960.9,-129.07 950.36,-130.17 953.34,-136.5"/>
</a>
</g>
</g>
<!-- Node26 -->
<g id="Node000026" class="node">
<title>Node26</title>
<g id="a_Node000026"><a xlink:href="../../d2/d07/vgobject_8h.html" target="_top" xlink:title=" ">
<polygon fill="white" stroke="#666666" points="711,-184 643,-184 643,-165 711,-165 711,-184"/>
<text text-anchor="middle" x="677" y="-172" font-family="Helvetica,sans-Serif" font-size="10.00">vgobject.h</text>
</a>
</g>
</g>
<!-- Node9&#45;&gt;Node26 -->
<g id="edge38_Node000009_Node000026" class="edge">
<title>Node9&#45;&gt;Node26</title>
<g id="a_edge38_Node000009_Node000026"><a xlink:title=" ">
<path fill="none" stroke="#63b8ff" d="M729.04,-219.98C719.87,-212.15 706.06,-200.34 694.97,-190.86"/>
<polygon fill="#63b8ff" stroke="#63b8ff" points="697.02,-188.01 687.14,-184.17 692.47,-193.33 697.02,-188.01"/>
</a>
</g>
</g>
<!-- Node12&#45;&gt;Node5 -->
<g id="edge18_Node000012_Node000005" class="edge">
<title>Node12&#45;&gt;Node5</title>
<g id="a_edge18_Node000012_Node000005"><a xlink:title=" ">
<path fill="none" stroke="#63b8ff" d="M423.38,-164.89C447.69,-156.43 485.25,-142.83 517,-129 534.31,-121.46 537.05,-115.87 555,-110 642.41,-81.39 670.94,-92.43 764.42,-74.18"/>
<polygon fill="#63b8ff" stroke="#63b8ff" points="765.18,-77.59 774.29,-72.19 763.8,-70.73 765.18,-77.59"/>
</a>
</g>
</g>
<!-- Node12&#45;&gt;Node7 -->
<g id="edge20_Node000012_Node000007" class="edge">
<title>Node12&#45;&gt;Node7</title>
<g id="a_edge20_Node000012_Node000007"><a xlink:title=" ">
<path fill="none" stroke="#63b8ff" d="M359.28,-169.19C309.55,-162.9 227.01,-149.64 205,-129 192.81,-117.57 188.34,-98.68 186.75,-84.47"/>
<polygon fill="#63b8ff" stroke="#63b8ff" points="190.22,-84.02 186,-74.31 183.24,-84.54 190.22,-84.02"/>
</a>
</g>
</g>
<!-- Node13 -->
<g id="Node000013" class="node">
<title>Node13</title>
<g id="a_Node000013"><a xlink:title=" ">
<polygon fill="#e0e0e0" stroke="#999999" points="305,-74 235,-74 235,-55 305,-55 305,-74"/>
<text text-anchor="middle" x="270" y="-62" font-family="Helvetica,sans-Serif" font-size="10.00">QStringList</text>
</a>
</g>
</g>
<!-- Node12&#45;&gt;Node13 -->
<g id="edge19_Node000012_Node000013" class="edge">
<title>Node12&#45;&gt;Node13</title>
<g id="a_edge19_Node000012_Node000013"><a xlink:title=" ">
<path fill="none" stroke="#63b8ff" d="M391.14,-164.6C380.9,-151.65 360.58,-127.28 340,-110 326.11,-98.34 308.95,-87.38 295.09,-79.26"/>
<polygon fill="#63b8ff" stroke="#63b8ff" points="296.52,-76.05 286.11,-74.11 293.05,-82.12 296.52,-76.05"/>
</a>
</g>
</g>
<!-- Node14 -->
<g id="Node000014" class="node">
<title>Node14</title>
<g id="a_Node000014"><a xlink:href="../../d4/da4/def_8h.html" target="_top" xlink:title=" ">
<polygon fill="white" stroke="#666666" points="508,-129 426,-129 426,-110 508,-110 508,-129"/>
<text text-anchor="middle" x="467" y="-117" font-family="Helvetica,sans-Serif" font-size="10.00">../vmisc/def.h</text>
</a>
</g>
</g>
<!-- Node12&#45;&gt;Node14 -->
<g id="edge21_Node000012_Node000014" class="edge">
<title>Node12&#45;&gt;Node14</title>
<g id="a_edge21_Node000012_Node000014"><a xlink:title=" ">
<path fill="none" stroke="#63b8ff" d="M409.09,-164.98C419.49,-157 435.26,-144.88 447.72,-135.31"/>
<polygon fill="#63b8ff" stroke="#63b8ff" points="449.91,-138.04 455.71,-129.17 445.65,-132.49 449.91,-138.04"/>
</a>
</g>
</g>
<!-- Node22 -->
<g id="Node000022" class="node">
<title>Node22</title>
<g id="a_Node000022"><a xlink:href="../../d6/dcd/diagnostic_8h.html" target="_top" xlink:title=" ">
<polygon fill="white" stroke="#666666" points="331.5,-129 214.5,-129 214.5,-110 331.5,-110 331.5,-129"/>
<text text-anchor="middle" x="273" y="-117" font-family="Helvetica,sans-Serif" font-size="10.00">../vmisc/diagnostic.h</text>
</a>
</g>
</g>
<!-- Node12&#45;&gt;Node22 -->
<g id="edge33_Node000012_Node000022" class="edge">
<title>Node12&#45;&gt;Node22</title>
<g id="a_edge33_Node000012_Node000022"><a xlink:title=" ">
<path fill="none" stroke="#63b8ff" d="M377.92,-164.98C357.63,-156.38 326.04,-142.99 302.83,-133.15"/>
<polygon fill="#63b8ff" stroke="#63b8ff" points="304.02,-129.85 293.45,-129.17 301.29,-136.3 304.02,-129.85"/>
</a>
</g>
</g>
<!-- Node14&#45;&gt;Node2 -->
<g id="edge22_Node000014_Node000002" class="edge">
<title>Node14&#45;&gt;Node2</title>
<g id="a_edge22_Node000014_Node000002"><a xlink:title=" ">
<path fill="none" stroke="#63b8ff" d="M508.18,-114.41C522.94,-112.97 539.71,-111.37 555,-110 722.32,-94.99 919.15,-79.14 1021.75,-71.02"/>
<polygon fill="#63b8ff" stroke="#63b8ff" points="1022.29,-74.48 1031.98,-70.21 1021.73,-67.51 1022.29,-74.48"/>
</a>
</g>
</g>
<!-- Node14&#45;&gt;Node5 -->
<g id="edge25_Node000014_Node000005" class="edge">
<title>Node14&#45;&gt;Node5</title>
<g id="a_edge25_Node000014_Node000005"><a xlink:title=" ">
<path fill="none" stroke="#63b8ff" d="M508.14,-112.11C512.81,-111.39 517.51,-110.68 522,-110 627.21,-94.11 656.69,-94.89 764.34,-74.19"/>
<polygon fill="#63b8ff" stroke="#63b8ff" points="765.15,-77.59 774.3,-72.25 763.82,-70.72 765.15,-77.59"/>
</a>
</g>
</g>
<!-- Node14&#45;&gt;Node7 -->
<g id="edge28_Node000014_Node000007" class="edge">
<title>Node14&#45;&gt;Node7</title>
<g id="a_edge28_Node000014_Node000007"><a xlink:title=" ">
<path fill="none" stroke="#63b8ff" d="M426,-111.27C377.99,-102.73 296.11,-87.92 226,-74 225.9,-73.98 225.79,-73.96 225.69,-73.94"/>
<polygon fill="#63b8ff" stroke="#63b8ff" points="226.19,-70.47 215.69,-71.9 224.79,-77.33 226.19,-70.47"/>
</a>
</g>
</g>
<!-- Node14&#45;&gt;Node13 -->
<g id="edge26_Node000014_Node000013" class="edge">
<title>Node14&#45;&gt;Node13</title>
<g id="a_edge26_Node000014_Node000013"><a xlink:title=" ">
<path fill="none" stroke="#63b8ff" d="M435.35,-109.98C401.84,-100.97 348.8,-86.7 311.86,-76.76"/>
<polygon fill="#63b8ff" stroke="#63b8ff" points="312.47,-73.3 301.9,-74.08 310.65,-80.06 312.47,-73.3"/>
</a>
</g>
</g>
<!-- Node15 -->
<g id="Node000015" class="node">
<title>Node15</title>
<g id="a_Node000015"><a xlink:title=" ">
<polygon fill="#e0e0e0" stroke="#999999" points="756.5,-74 683.5,-74 683.5,-55 756.5,-55 756.5,-74"/>
<text text-anchor="middle" x="720" y="-62" font-family="Helvetica,sans-Serif" font-size="10.00">QFileDialog</text>
</a>
</g>
</g>
<!-- Node14&#45;&gt;Node15 -->
<g id="edge23_Node000014_Node000015" class="edge">
<title>Node14&#45;&gt;Node15</title>
<g id="a_edge23_Node000014_Node000015"><a xlink:title=" ">
<path fill="none" stroke="#63b8ff" d="M507.65,-109.98C552.81,-100.53 625.6,-85.28 673.12,-75.32"/>
<polygon fill="#63b8ff" stroke="#63b8ff" points="674.08,-78.69 683.15,-73.22 672.65,-71.84 674.08,-78.69"/>
</a>
</g>
</g>
<!-- Node16 -->
<g id="Node000016" class="node">
<title>Node16</title>
<g id="a_Node000016"><a xlink:title=" ">
<polygon fill="#e0e0e0" stroke="#999999" points="373,-74 323,-74 323,-55 373,-55 373,-74"/>
<text text-anchor="middle" x="348" y="-62" font-family="Helvetica,sans-Serif" font-size="10.00">QLineF</text>
</a>
</g>
</g>
<!-- Node14&#45;&gt;Node16 -->
<g id="edge24_Node000014_Node000016" class="edge">
<title>Node14&#45;&gt;Node16</title>
<g id="a_edge24_Node000014_Node000016"><a xlink:title=" ">
<path fill="none" stroke="#63b8ff" d="M447.88,-109.98C428.65,-101.42 398.77,-88.11 376.69,-78.28"/>
<polygon fill="#63b8ff" stroke="#63b8ff" points="378.03,-75.04 367.47,-74.17 375.18,-81.44 378.03,-75.04"/>
</a>
</g>
</g>
<!-- Node17 -->
<g id="Node000017" class="node">
<title>Node17</title>
<g id="a_Node000017"><a xlink:title=" ">
<polygon fill="#e0e0e0" stroke="#999999" points="420.5,-74 391.5,-74 391.5,-55 420.5,-55 420.5,-74"/>
<text text-anchor="middle" x="406" y="-62" font-family="Helvetica,sans-Serif" font-size="10.00">Qt</text>
</a>
</g>
</g>
<!-- Node14&#45;&gt;Node17 -->
<g id="edge27_Node000014_Node000017" class="edge">
<title>Node14&#45;&gt;Node17</title>
<g id="a_edge27_Node000014_Node000017"><a xlink:title=" ">
<path fill="none" stroke="#63b8ff" d="M457.2,-109.98C448.18,-102.15 434.59,-90.34 423.68,-80.86"/>
<polygon fill="#63b8ff" stroke="#63b8ff" points="425.82,-78.09 415.98,-74.17 421.23,-83.37 425.82,-78.09"/>
</a>
</g>
</g>
<!-- Node18 -->
<g id="Node000018" class="node">
<title>Node18</title>
<g id="a_Node000018"><a xlink:title=" ">
<polygon fill="#e0e0e0" stroke="#999999" points="495,-74 439,-74 439,-55 495,-55 495,-74"/>
<text text-anchor="middle" x="467" y="-62" font-family="Helvetica,sans-Serif" font-size="10.00">QPrinter</text>
</a>
</g>
</g>
<!-- Node14&#45;&gt;Node18 -->
<g id="edge29_Node000014_Node000018" class="edge">
<title>Node14&#45;&gt;Node18</title>
<g id="a_edge29_Node000014_Node000018"><a xlink:title=" ">
<path fill="none" stroke="#63b8ff" d="M467,-109.75C467,-102.8 467,-92.85 467,-84.13"/>
<polygon fill="#63b8ff" stroke="#63b8ff" points="470.5,-84.09 467,-74.09 463.5,-84.09 470.5,-84.09"/>
</a>
</g>
</g>
<!-- Node19 -->
<g id="Node000019" class="node">
<title>Node19</title>
<g id="a_Node000019"><a xlink:title=" ">
<polygon fill="#e0e0e0" stroke="#999999" points="564.5,-74 513.5,-74 513.5,-55 564.5,-55 564.5,-74"/>
<text text-anchor="middle" x="539" y="-62" font-family="Helvetica,sans-Serif" font-size="10.00">csignal</text>
</a>
</g>
</g>
<!-- Node14&#45;&gt;Node19 -->
<g id="edge30_Node000014_Node000019" class="edge">
<title>Node14&#45;&gt;Node19</title>
<g id="a_edge30_Node000014_Node000019"><a xlink:title=" ">
<path fill="none" stroke="#63b8ff" d="M478.57,-109.98C489.42,-102 505.88,-89.88 518.88,-80.31"/>
<polygon fill="#63b8ff" stroke="#63b8ff" points="521.24,-82.92 527.22,-74.17 517.09,-77.28 521.24,-82.92"/>
</a>
</g>
</g>
<!-- Node20 -->
<g id="Node000020" class="node">
<title>Node20</title>
<g id="a_Node000020"><a xlink:href="../../d4/d82/debugbreak_8h.html" target="_top" xlink:title=" ">
<polygon fill="white" stroke="#666666" points="665.5,-74 582.5,-74 582.5,-55 665.5,-55 665.5,-74"/>
<text text-anchor="middle" x="624" y="-62" font-family="Helvetica,sans-Serif" font-size="10.00">debugbreak.h</text>
</a>
</g>
</g>
<!-- Node14&#45;&gt;Node20 -->
<g id="edge31_Node000014_Node000020" class="edge">
<title>Node14&#45;&gt;Node20</title>
<g id="a_edge31_Node000014_Node000020"><a xlink:title=" ">
<path fill="none" stroke="#63b8ff" d="M492.22,-109.98C518.36,-101.16 559.4,-87.31 588.73,-77.41"/>
<polygon fill="#63b8ff" stroke="#63b8ff" points="590.22,-80.6 598.58,-74.08 587.98,-73.96 590.22,-80.6"/>
</a>
</g>
</g>
<!-- Node21 -->
<g id="Node000021" class="node">
<title>Node21</title>
<g id="a_Node000021"><a xlink:title=" ">
<polygon fill="#e0e0e0" stroke="#999999" points="651.5,-19 596.5,-19 596.5,0 651.5,0 651.5,-19"/>
<text text-anchor="middle" x="624" y="-7" font-family="Helvetica,sans-Serif" font-size="10.00">signal.h</text>
</a>
</g>
</g>
<!-- Node20&#45;&gt;Node21 -->
<g id="edge32_Node000020_Node000021" class="edge">
<title>Node20&#45;&gt;Node21</title>
<g id="a_edge32_Node000020_Node000021"><a xlink:title=" ">
<path fill="none" stroke="#63b8ff" d="M624,-54.75C624,-47.8 624,-37.85 624,-29.13"/>
<polygon fill="#63b8ff" stroke="#63b8ff" points="627.5,-29.09 624,-19.09 620.5,-29.09 627.5,-29.09"/>
</a>
</g>
</g>
<!-- Node22&#45;&gt;Node7 -->
<g id="edge34_Node000022_Node000007" class="edge">
<title>Node22&#45;&gt;Node7</title>
<g id="a_edge34_Node000022_Node000007"><a xlink:title=" ">
<path fill="none" stroke="#63b8ff" d="M259.02,-109.98C245.53,-101.77 224.87,-89.18 208.96,-79.49"/>
<polygon fill="#63b8ff" stroke="#63b8ff" points="210.59,-76.38 200.23,-74.17 206.95,-82.36 210.59,-76.38"/>
</a>
</g>
</g>
<!-- Node24 -->
<g id="Node000024" class="node">
<title>Node24</title>
<g id="a_Node000024"><a xlink:title=" ">
<polygon fill="#e0e0e0" stroke="#999999" points="119.5,-129 66.5,-129 66.5,-110 119.5,-110 119.5,-129"/>
<text text-anchor="middle" x="93" y="-117" font-family="Helvetica,sans-Serif" font-size="10.00">QtMath</text>
</a>
</g>
</g>
<!-- Node23&#45;&gt;Node24 -->
<g id="edge36_Node000023_Node000024" class="edge">
<title>Node23&#45;&gt;Node24</title>
<g id="a_edge36_Node000023_Node000024"><a xlink:title=" ">
<path fill="none" stroke="#63b8ff" d="M111.37,-164.75C108.42,-157.65 104.17,-147.4 100.49,-138.56"/>
<polygon fill="#63b8ff" stroke="#63b8ff" points="103.63,-136.98 96.57,-129.09 97.17,-139.67 103.63,-136.98"/>
</a>
</g>
</g>
<!-- Node26&#45;&gt;Node5 -->
<g id="edge40_Node000026_Node000005" class="edge">
<title>Node26&#45;&gt;Node5</title>
<g id="a_edge40_Node000026_Node000005"><a xlink:title=" ">
<path fill="none" stroke="#63b8ff" d="M672,-164.78C665.18,-151.62 655.11,-126.47 667,-110 672.93,-101.79 727.03,-85.64 764.64,-75.22"/>
<polygon fill="#63b8ff" stroke="#63b8ff" points="765.57,-78.59 774.29,-72.57 763.72,-71.84 765.57,-78.59"/>
</a>
</g>
</g>
<!-- Node26&#45;&gt;Node6 -->
<g id="edge42_Node000026_Node000006" class="edge">
<title>Node26&#45;&gt;Node6</title>
<g id="a_edge42_Node000026_Node000006"><a xlink:title=" ">
<path fill="none" stroke="#63b8ff" d="M663.34,-164.98C650.16,-156.77 629.97,-144.18 614.43,-134.49"/>
<polygon fill="#63b8ff" stroke="#63b8ff" points="616.24,-131.49 605.91,-129.17 612.54,-137.43 616.24,-131.49"/>
</a>
</g>
</g>
<!-- Node26&#45;&gt;Node7 -->
<g id="edge43_Node000026_Node000007" class="edge">
<title>Node26&#45;&gt;Node7</title>
<g id="a_edge43_Node000026_Node000007"><a xlink:title=" ">
<path fill="none" stroke="#63b8ff" d="M642.72,-168.74C592.78,-161.55 497.24,-146.85 417,-129 380.5,-120.88 281.31,-92.84 225.51,-76.87"/>
<polygon fill="#63b8ff" stroke="#63b8ff" points="226.19,-73.42 215.62,-74.03 224.26,-80.15 226.19,-73.42"/>
</a>
</g>
</g>
<!-- Node26&#45;&gt;Node10 -->
<g id="edge39_Node000026_Node000010" class="edge">
<title>Node26&#45;&gt;Node10</title>
<g id="a_edge39_Node000026_Node000010"><a xlink:title=" ">
<path fill="none" stroke="#63b8ff" d="M686.16,-164.98C694.5,-157.23 707.03,-145.58 717.18,-136.14"/>
<polygon fill="#63b8ff" stroke="#63b8ff" points="719.74,-138.54 724.68,-129.17 714.97,-133.42 719.74,-138.54"/>
</a>
</g>
</g>
<!-- Node26&#45;&gt;Node11 -->
<g id="edge41_Node000026_Node000011" class="edge">
<title>Node26&#45;&gt;Node11</title>
<g id="a_edge41_Node000026_Node000011"><a xlink:title=" ">
<path fill="none" stroke="#63b8ff" d="M703.67,-164.98C731.54,-156.09 775.45,-142.07 806.52,-132.15"/>
<polygon fill="#63b8ff" stroke="#63b8ff" points="807.66,-135.46 816.12,-129.08 805.53,-128.79 807.66,-135.46"/>
</a>
</g>
</g>
<!-- Node26&#45;&gt;Node25 -->
<g id="edge44_Node000026_Node000025" class="edge">
<title>Node26&#45;&gt;Node25</title>
<g id="a_edge44_Node000026_Node000025"><a xlink:title=" ">
<path fill="none" stroke="#63b8ff" d="M711.06,-167.52C762.27,-158.53 859.74,-141.43 921.93,-130.51"/>
<polygon fill="#63b8ff" stroke="#63b8ff" points="922.73,-133.93 931.98,-128.75 921.52,-127.03 922.73,-133.93"/>
</a>
</g>
</g>
</g>
</svg>
