<?xml version="1.0" encoding="UTF-8" standalone="no"?>
<!DOCTYPE svg PUBLIC "-//W3C//DTD SVG 1.1//EN"
 "http://www.w3.org/Graphics/SVG/1.1/DTD/svg11.dtd">
<!-- Generated by graphviz version 2.43.0 (0)
 -->
<!-- Title: VLabelTemplateConverter Pages: 1 -->
<!--zoomable 1467 -->

<svg id="main" version="1.1" xmlns="http://www.w3.org/2000/svg" xmlns:xlink="http://www.w3.org/1999/xlink" xml:space="preserve" onload="init(evt)">
<style type="text/css"><![CDATA[
.node, .edge {opacity: 0.7;}
.node.selected, .edge.selected {opacity: 1;}
.edge:hover path { stroke: red; }
.edge:hover polygon { stroke: red; fill: red; }
]]></style>

<defs>
  <circle id="rim" cx="0" cy="0" r="7"/>
  <circle id="rim2" cx="0" cy="0" r="3.5"/>
  <g id="zoomPlus">
    <use xlink:href="#rim" fill="#404040"><set attributeName="fill" to="#808080" begin="zoomplus.mouseover" end="zoomplus.mouseout"/></use>
    <path d="M-4,0h8M0,-4v8" fill="none" stroke="white" stroke-width="1.5" pointer-events="none"/>
  </g>
  <g id="zoomMin">
    <use xlink:href="#rim" fill="#404040"><set attributeName="fill" to="#808080" begin="zoomminus.mouseover" end="zoomminus.mouseout"/></use>
    <path d="M-4,0h8" fill="none" stroke="white" stroke-width="1.5" pointer-events="none"/>
  </g>
  <g id="arrowUp" transform="translate(30 24)">
    <use xlink:href="#rim"/>
    <path pointer-events="none" fill="none" stroke="white" stroke-width="1.5" d="M0,-3.0v7 M-2.5,-0.5L0,-3.0L2.5,-0.5"/>
  </g>
  <g id="arrowRight" transform="rotate(90) translate(36 -43)">
    <use xlink:href="#rim"/>
    <path pointer-events="none" fill="none" stroke="white" stroke-width="1.5" d="M0,-3.0v7 M-2.5,-0.5L0,-3.0L2.5,-0.5"/>
  </g>
  <g id="arrowDown" transform="rotate(180) translate(-30 -48)">
    <use xlink:href="#rim"/>
    <path pointer-events="none" fill="none" stroke="white" stroke-width="1.5" d="M0,-3.0v7 M-2.5,-0.5L0,-3.0L2.5,-0.5"/>
  </g>
  <g id="arrowLeft" transform="rotate(270) translate(-36 17)">
    <use xlink:href="#rim"/>
    <path pointer-events="none" fill="none" stroke="white" stroke-width="1.5" d="M0,-3.0v7 M-2.5,-0.5L0,-3.0L2.5,-0.5"/>
  </g>
  <g id="resetDef">
    <use xlink:href="#rim2" fill="#404040"><set attributeName="fill" to="#808080" begin="reset.mouseover" end="reset.mouseout"/></use>
  </g>
</defs>
<script type="application/ecmascript">
var viewWidth = 195;
var viewHeight = 1467;
var sectionId = 'dynsection-0';
</script>
<script type="application/ecmascript" xlink:href="../../svg.min.js"/>
<svg id="graph" class="graph">
<g id="viewport">
<title>VLabelTemplateConverter</title>
<!-- Node1 -->
<g id="Node000001" class="node">
<title>Node1</title>
<g id="a_Node000001"><a xlink:title=" ">
<polygon fill="#999999" stroke="transparent" points="187,-244 0,-244 0,0 187,0 187,-244"/>
<text text-anchor="start" x="30.5" y="-232" font-family="Helvetica,sans-Serif" font-size="10.00">VLabelTemplateConverter</text>
<text text-anchor="start" x="4.5" y="-217" font-family="Helvetica,sans-Serif" font-size="10.00">+</text>
<text text-anchor="start" x="17.5" y="-217" font-family="Helvetica,sans-Serif" font-size="10.00">LabelTemplateMaxVerStr</text>
<text text-anchor="start" x="4.5" y="-202" font-family="Helvetica,sans-Serif" font-size="10.00">+</text>
<text text-anchor="start" x="17.5" y="-202" font-family="Helvetica,sans-Serif" font-size="10.00">CurrentSchema</text>
<text text-anchor="start" x="4.5" y="-187" font-family="Helvetica,sans-Serif" font-size="10.00">+</text>
<text text-anchor="start" x="17.5" y="-187" font-family="Helvetica,sans-Serif" font-size="10.00">LabelTemplateMinVer</text>
<text text-anchor="start" x="4.5" y="-172" font-family="Helvetica,sans-Serif" font-size="10.00">+</text>
<text text-anchor="start" x="17.5" y="-172" font-family="Helvetica,sans-Serif" font-size="10.00">LabelTemplateMaxVer</text>
<text text-anchor="start" x="7" y="-157" font-family="Helvetica,sans-Serif" font-size="10.00">&#45;</text>
<text text-anchor="start" x="17.5" y="-157" font-family="Helvetica,sans-Serif" font-size="10.00">LabelTemplateMinVerStr</text>
<text text-anchor="start" x="4.5" y="-142" font-family="Helvetica,sans-Serif" font-size="10.00">+</text>
<text text-anchor="start" x="17.5" y="-142" font-family="Helvetica,sans-Serif" font-size="10.00">VLabelTemplateConverter()</text>
<text text-anchor="start" x="4.5" y="-127" font-family="Helvetica,sans-Serif" font-size="10.00">+</text>
<text text-anchor="start" x="17.5" y="-127" font-family="Helvetica,sans-Serif" font-size="10.00">~VLabelTemplateConverter()</text>
<text text-anchor="start" x="4.5" y="-112" font-family="Helvetica,sans-Serif" font-size="10.00">#</text>
<text text-anchor="start" x="17.5" y="-112" font-family="Helvetica,sans-Serif" font-size="10.00">minVer()</text>
<text text-anchor="start" x="4.5" y="-97" font-family="Helvetica,sans-Serif" font-size="10.00">#</text>
<text text-anchor="start" x="17.5" y="-97" font-family="Helvetica,sans-Serif" font-size="10.00">maxVer()</text>
<text text-anchor="start" x="4.5" y="-82" font-family="Helvetica,sans-Serif" font-size="10.00">#</text>
<text text-anchor="start" x="17.5" y="-82" font-family="Helvetica,sans-Serif" font-size="10.00">minVerStr()</text>
<text text-anchor="start" x="4.5" y="-67" font-family="Helvetica,sans-Serif" font-size="10.00">#</text>
<text text-anchor="start" x="17.5" y="-67" font-family="Helvetica,sans-Serif" font-size="10.00">maxVerStr()</text>
<text text-anchor="start" x="4.5" y="-52" font-family="Helvetica,sans-Serif" font-size="10.00">#</text>
<text text-anchor="start" x="17.5" y="-52" font-family="Helvetica,sans-Serif" font-size="10.00">getSchema()</text>
<text text-anchor="start" x="4.5" y="-37" font-family="Helvetica,sans-Serif" font-size="10.00">#</text>
<text text-anchor="start" x="17.5" y="-37" font-family="Helvetica,sans-Serif" font-size="10.00">applyPatches()</text>
<text text-anchor="start" x="4.5" y="-22" font-family="Helvetica,sans-Serif" font-size="10.00">#</text>
<text text-anchor="start" x="17.5" y="-22" font-family="Helvetica,sans-Serif" font-size="10.00">downgradeToCurrentMaxVersion()</text>
<text text-anchor="start" x="4.5" y="-7" font-family="Helvetica,sans-Serif" font-size="10.00">#</text>
<text text-anchor="start" x="17.5" y="-7" font-family="Helvetica,sans-Serif" font-size="10.00">isReadOnly()</text>
<polygon fill="#666666" stroke="#666666" points="0.5,-227 0.5,-227 187.5,-227 187.5,-227 0.5,-227"/>
<polygon fill="#666666" stroke="#666666" points="0.5,-152 0.5,-152 15.5,-152 15.5,-152 0.5,-152"/>
<polygon fill="#666666" stroke="#666666" points="15.5,-152 15.5,-152 187.5,-152 187.5,-152 15.5,-152"/>
<polygon fill="none" stroke="#666666" points="0,0 0,-244 187,-244 187,0 0,0"/>
</a>
</g>
</g>
<!-- Node2 -->
<g id="Node000002" class="node">
<title>Node2</title>
<g id="a_Node000002"><a xlink:href="../../dc/d68/classVAbstractConverter.html" target="_top" xlink:title=" ">
<polygon fill="white" stroke="transparent" points="187,-719 0,-719 0,-280 187,-280 187,-719"/>
<text text-anchor="start" x="46.5" y="-706.5" font-family="Helvetica,sans-Serif" font-size="10.00">VAbstractConverter</text>
<text text-anchor="start" x="4.5" y="-691.5" font-family="Helvetica,sans-Serif" font-size="10.00">#</text>
<text text-anchor="start" x="17.5" y="-691.5" font-family="Helvetica,sans-Serif" font-size="10.00">m_ver</text>
<text text-anchor="start" x="4.5" y="-676.5" font-family="Helvetica,sans-Serif" font-size="10.00">#</text>
<text text-anchor="start" x="17.5" y="-676.5" font-family="Helvetica,sans-Serif" font-size="10.00">m_convertedFileName</text>
<text text-anchor="start" x="7" y="-661.5" font-family="Helvetica,sans-Serif" font-size="10.00">&#45;</text>
<text text-anchor="start" x="17.5" y="-661.5" font-family="Helvetica,sans-Serif" font-size="10.00">m_tmpFile</text>
<text text-anchor="start" x="4.5" y="-646.5" font-family="Helvetica,sans-Serif" font-size="10.00">+</text>
<text text-anchor="start" x="17.5" y="-646.5" font-family="Helvetica,sans-Serif" font-size="10.00">VAbstractConverter()</text>
<text text-anchor="start" x="4.5" y="-631.5" font-family="Helvetica,sans-Serif" font-size="10.00">+</text>
<text text-anchor="start" x="17.5" y="-631.5" font-family="Helvetica,sans-Serif" font-size="10.00">~VAbstractConverter()</text>
<text text-anchor="start" x="4.5" y="-616.5" font-family="Helvetica,sans-Serif" font-size="10.00">+</text>
<text text-anchor="start" x="17.5" y="-616.5" font-family="Helvetica,sans-Serif" font-size="10.00">Convert()</text>
<text text-anchor="start" x="4.5" y="-601.5" font-family="Helvetica,sans-Serif" font-size="10.00">+</text>
<text text-anchor="start" x="17.5" y="-601.5" font-family="Helvetica,sans-Serif" font-size="10.00">GetCurrentFormatVarsion()</text>
<text text-anchor="start" x="4.5" y="-586.5" font-family="Helvetica,sans-Serif" font-size="10.00">+</text>
<text text-anchor="start" x="17.5" y="-586.5" font-family="Helvetica,sans-Serif" font-size="10.00">GetVersionStr()</text>
<text text-anchor="start" x="4.5" y="-571.5" font-family="Helvetica,sans-Serif" font-size="10.00">+</text>
<text text-anchor="start" x="17.5" y="-571.5" font-family="Helvetica,sans-Serif" font-size="10.00">GetVersion()</text>
<text text-anchor="start" x="4.5" y="-556.5" font-family="Helvetica,sans-Serif" font-size="10.00">#</text>
<text text-anchor="start" x="17.5" y="-556.5" font-family="Helvetica,sans-Serif" font-size="10.00">ValidateInputFile()</text>
<text text-anchor="start" x="4.5" y="-541.5" font-family="Helvetica,sans-Serif" font-size="10.00">#</text>
<text text-anchor="start" x="17.5" y="-541.5" font-family="Helvetica,sans-Serif" font-size="10.00">InvalidVersion()</text>
<text text-anchor="start" x="4.5" y="-526.5" font-family="Helvetica,sans-Serif" font-size="10.00">#</text>
<text text-anchor="start" x="17.5" y="-526.5" font-family="Helvetica,sans-Serif" font-size="10.00">Save()</text>
<text text-anchor="start" x="4.5" y="-511.5" font-family="Helvetica,sans-Serif" font-size="10.00">#</text>
<text text-anchor="start" x="17.5" y="-511.5" font-family="Helvetica,sans-Serif" font-size="10.00">setVersion()</text>
<text text-anchor="start" x="4.5" y="-496.5" font-family="Helvetica,sans-Serif" font-size="10.00">#</text>
<text text-anchor="start" x="17.5" y="-496.5" font-family="Helvetica,sans-Serif" font-size="10.00">minVer()</text>
<text text-anchor="start" x="4.5" y="-481.5" font-family="Helvetica,sans-Serif" font-size="10.00">#</text>
<text text-anchor="start" x="17.5" y="-481.5" font-family="Helvetica,sans-Serif" font-size="10.00">maxVer()</text>
<text text-anchor="start" x="4.5" y="-466.5" font-family="Helvetica,sans-Serif" font-size="10.00">#</text>
<text text-anchor="start" x="17.5" y="-466.5" font-family="Helvetica,sans-Serif" font-size="10.00">minVerStr()</text>
<text text-anchor="start" x="4.5" y="-451.5" font-family="Helvetica,sans-Serif" font-size="10.00">#</text>
<text text-anchor="start" x="17.5" y="-451.5" font-family="Helvetica,sans-Serif" font-size="10.00">maxVerStr()</text>
<text text-anchor="start" x="4.5" y="-436.5" font-family="Helvetica,sans-Serif" font-size="10.00">#</text>
<text text-anchor="start" x="17.5" y="-436.5" font-family="Helvetica,sans-Serif" font-size="10.00">getSchema()</text>
<text text-anchor="start" x="4.5" y="-421.5" font-family="Helvetica,sans-Serif" font-size="10.00">#</text>
<text text-anchor="start" x="17.5" y="-421.5" font-family="Helvetica,sans-Serif" font-size="10.00">applyPatches()</text>
<text text-anchor="start" x="4.5" y="-406.5" font-family="Helvetica,sans-Serif" font-size="10.00">#</text>
<text text-anchor="start" x="17.5" y="-406.5" font-family="Helvetica,sans-Serif" font-size="10.00">downgradeToCurrentMaxVersion()</text>
<text text-anchor="start" x="4.5" y="-391.5" font-family="Helvetica,sans-Serif" font-size="10.00">#</text>
<text text-anchor="start" x="17.5" y="-391.5" font-family="Helvetica,sans-Serif" font-size="10.00">isReadOnly()</text>
<text text-anchor="start" x="4.5" y="-376.5" font-family="Helvetica,sans-Serif" font-size="10.00">#</text>
<text text-anchor="start" x="17.5" y="-376.5" font-family="Helvetica,sans-Serif" font-size="10.00">Replace()</text>
<text text-anchor="start" x="4.5" y="-361.5" font-family="Helvetica,sans-Serif" font-size="10.00">#</text>
<text text-anchor="start" x="17.5" y="-361.5" font-family="Helvetica,sans-Serif" font-size="10.00">CorrectionsPositions()</text>
<text text-anchor="start" x="4.5" y="-346.5" font-family="Helvetica,sans-Serif" font-size="10.00">#</text>
<text text-anchor="start" x="17.5" y="-346.5" font-family="Helvetica,sans-Serif" font-size="10.00">BiasTokens()</text>
<text text-anchor="start" x="7" y="-331.5" font-family="Helvetica,sans-Serif" font-size="10.00">&#45;</text>
<text text-anchor="start" x="17.5" y="-331.5" font-family="Helvetica,sans-Serif" font-size="10.00">ReserveFile()</text>
<text text-anchor="start" x="7" y="-316.5" font-family="Helvetica,sans-Serif" font-size="10.00">&#45;</text>
<text text-anchor="start" x="17.5" y="-316.5" font-family="Helvetica,sans-Serif" font-size="10.00">ValidateVersion()</text>
<text text-anchor="start" x="7" y="-301.5" font-family="Helvetica,sans-Serif" font-size="10.00">&#45;</text>
<text text-anchor="start" x="17.5" y="-301.5" font-family="Helvetica,sans-Serif" font-size="10.00">removeVersionNumber()</text>
<text text-anchor="start" x="7" y="-286.5" font-family="Helvetica,sans-Serif" font-size="10.00">&#45;</text>
<text text-anchor="start" x="17.5" y="-286.5" font-family="Helvetica,sans-Serif" font-size="10.00">removeBakExtension()</text>
<polygon fill="#666666" stroke="#666666" points="0.5,-701.5 0.5,-701.5 187.5,-701.5 187.5,-701.5 0.5,-701.5"/>
<polygon fill="#666666" stroke="#666666" points="0.5,-656.5 0.5,-656.5 15.5,-656.5 15.5,-656.5 0.5,-656.5"/>
<polygon fill="#666666" stroke="#666666" points="15.5,-656.5 15.5,-656.5 187.5,-656.5 187.5,-656.5 15.5,-656.5"/>
<polygon fill="none" stroke="#666666" points="0,-280 0,-719 187,-719 187,-280 0,-280"/>
</a>
</g>
</g>
<!-- Node2&#45;&gt;Node1 -->
<g id="edge1_Node000001_Node000002" class="edge">
<title>Node2&#45;&gt;Node1</title>
<g id="a_edge1_Node000001_Node000002"><a xlink:title=" ">
<path fill="none" stroke="#63b8ff" d="M93.5,-269.65C93.5,-261.05 93.5,-252.56 93.5,-244.28"/>
<polygon fill="none" stroke="#63b8ff" points="90,-269.8 93.5,-279.8 97,-269.8 90,-269.8"/>
</a>
</g>
</g>
<!-- Node3 -->
<g id="Node000003" class="node">
<title>Node3</title>
<g id="a_Node000003"><a xlink:href="../../d6/deb/classVDomDocument.html" target="_top" xlink:title="The VDomDocument class represents a Seamly2D document (.val file).">
<polygon fill="white" stroke="transparent" points="169,-1374 18,-1374 18,-755 169,-755 169,-1374"/>
<text text-anchor="start" x="53.5" y="-1361.5" font-family="Helvetica,sans-Serif" font-size="10.00">VDomDocument</text>
<text text-anchor="start" x="22.5" y="-1346.5" font-family="Helvetica,sans-Serif" font-size="10.00">+</text>
<text text-anchor="start" x="35.5" y="-1346.5" font-family="Helvetica,sans-Serif" font-size="10.00">AttrId</text>
<text text-anchor="start" x="22.5" y="-1331.5" font-family="Helvetica,sans-Serif" font-size="10.00">+</text>
<text text-anchor="start" x="35.5" y="-1331.5" font-family="Helvetica,sans-Serif" font-size="10.00">AttrText</text>
<text text-anchor="start" x="22.5" y="-1316.5" font-family="Helvetica,sans-Serif" font-size="10.00">+</text>
<text text-anchor="start" x="35.5" y="-1316.5" font-family="Helvetica,sans-Serif" font-size="10.00">AttrBold</text>
<text text-anchor="start" x="22.5" y="-1301.5" font-family="Helvetica,sans-Serif" font-size="10.00">+</text>
<text text-anchor="start" x="35.5" y="-1301.5" font-family="Helvetica,sans-Serif" font-size="10.00">AttrItalic</text>
<text text-anchor="start" x="22.5" y="-1286.5" font-family="Helvetica,sans-Serif" font-size="10.00">+</text>
<text text-anchor="start" x="35.5" y="-1286.5" font-family="Helvetica,sans-Serif" font-size="10.00">AttrAlignment</text>
<text text-anchor="start" x="22.5" y="-1271.5" font-family="Helvetica,sans-Serif" font-size="10.00">+</text>
<text text-anchor="start" x="35.5" y="-1271.5" font-family="Helvetica,sans-Serif" font-size="10.00">AttrFSIncrement</text>
<text text-anchor="start" x="22.5" y="-1256.5" font-family="Helvetica,sans-Serif" font-size="10.00">+</text>
<text text-anchor="start" x="35.5" y="-1256.5" font-family="Helvetica,sans-Serif" font-size="10.00">TagVersion</text>
<text text-anchor="start" x="22.5" y="-1241.5" font-family="Helvetica,sans-Serif" font-size="10.00">+</text>
<text text-anchor="start" x="35.5" y="-1241.5" font-family="Helvetica,sans-Serif" font-size="10.00">TagUnit</text>
<text text-anchor="start" x="22.5" y="-1226.5" font-family="Helvetica,sans-Serif" font-size="10.00">+</text>
<text text-anchor="start" x="35.5" y="-1226.5" font-family="Helvetica,sans-Serif" font-size="10.00">TagLine</text>
<text text-anchor="start" x="25" y="-1211.5" font-family="Helvetica,sans-Serif" font-size="10.00">&#45;</text>
<text text-anchor="start" x="35.5" y="-1211.5" font-family="Helvetica,sans-Serif" font-size="10.00">map</text>
<text text-anchor="start" x="22.5" y="-1196.5" font-family="Helvetica,sans-Serif" font-size="10.00">+</text>
<text text-anchor="start" x="35.5" y="-1196.5" font-family="Helvetica,sans-Serif" font-size="10.00">VDomDocument()</text>
<text text-anchor="start" x="22.5" y="-1181.5" font-family="Helvetica,sans-Serif" font-size="10.00">+</text>
<text text-anchor="start" x="35.5" y="-1181.5" font-family="Helvetica,sans-Serif" font-size="10.00">~VDomDocument()</text>
<text text-anchor="start" x="22.5" y="-1166.5" font-family="Helvetica,sans-Serif" font-size="10.00">+</text>
<text text-anchor="start" x="35.5" y="-1166.5" font-family="Helvetica,sans-Serif" font-size="10.00">elementById()</text>
<text text-anchor="start" x="22.5" y="-1151.5" font-family="Helvetica,sans-Serif" font-size="10.00">+</text>
<text text-anchor="start" x="35.5" y="-1151.5" font-family="Helvetica,sans-Serif" font-size="10.00">SetAttribute()</text>
<text text-anchor="start" x="22.5" y="-1136.5" font-family="Helvetica,sans-Serif" font-size="10.00">+</text>
<text text-anchor="start" x="35.5" y="-1136.5" font-family="Helvetica,sans-Serif" font-size="10.00">measurementUnits()</text>
<text text-anchor="start" x="22.5" y="-1121.5" font-family="Helvetica,sans-Serif" font-size="10.00">+</text>
<text text-anchor="start" x="35.5" y="-1121.5" font-family="Helvetica,sans-Serif" font-size="10.00">setXMLContent()</text>
<text text-anchor="start" x="22.5" y="-1106.5" font-family="Helvetica,sans-Serif" font-size="10.00">+</text>
<text text-anchor="start" x="35.5" y="-1106.5" font-family="Helvetica,sans-Serif" font-size="10.00">SaveDocument()</text>
<text text-anchor="start" x="22.5" y="-1091.5" font-family="Helvetica,sans-Serif" font-size="10.00">+</text>
<text text-anchor="start" x="35.5" y="-1091.5" font-family="Helvetica,sans-Serif" font-size="10.00">Major()</text>
<text text-anchor="start" x="22.5" y="-1076.5" font-family="Helvetica,sans-Serif" font-size="10.00">+</text>
<text text-anchor="start" x="35.5" y="-1076.5" font-family="Helvetica,sans-Serif" font-size="10.00">Minor()</text>
<text text-anchor="start" x="22.5" y="-1061.5" font-family="Helvetica,sans-Serif" font-size="10.00">+</text>
<text text-anchor="start" x="35.5" y="-1061.5" font-family="Helvetica,sans-Serif" font-size="10.00">Patch()</text>
<text text-anchor="start" x="35.5" y="-1046.5" font-family="Helvetica,sans-Serif" font-size="10.00">and 8 more...</text>
<text text-anchor="start" x="22.5" y="-1031.5" font-family="Helvetica,sans-Serif" font-size="10.00">+</text>
<text text-anchor="start" x="35.5" y="-1031.5" font-family="Helvetica,sans-Serif" font-size="10.00">GetParametrUInt()</text>
<text text-anchor="start" x="22.5" y="-1016.5" font-family="Helvetica,sans-Serif" font-size="10.00">+</text>
<text text-anchor="start" x="35.5" y="-1016.5" font-family="Helvetica,sans-Serif" font-size="10.00">getParameterBool()</text>
<text text-anchor="start" x="22.5" y="-1001.5" font-family="Helvetica,sans-Serif" font-size="10.00">+</text>
<text text-anchor="start" x="35.5" y="-1001.5" font-family="Helvetica,sans-Serif" font-size="10.00">GetParametrUsage()</text>
<text text-anchor="start" x="22.5" y="-986.5" font-family="Helvetica,sans-Serif" font-size="10.00">+</text>
<text text-anchor="start" x="35.5" y="-986.5" font-family="Helvetica,sans-Serif" font-size="10.00">SetParametrUsage()</text>
<text text-anchor="start" x="22.5" y="-971.5" font-family="Helvetica,sans-Serif" font-size="10.00">+</text>
<text text-anchor="start" x="35.5" y="-971.5" font-family="Helvetica,sans-Serif" font-size="10.00">GetParametrString()</text>
<text text-anchor="start" x="22.5" y="-956.5" font-family="Helvetica,sans-Serif" font-size="10.00">+</text>
<text text-anchor="start" x="35.5" y="-956.5" font-family="Helvetica,sans-Serif" font-size="10.00">GetParametrEmptyString()</text>
<text text-anchor="start" x="22.5" y="-941.5" font-family="Helvetica,sans-Serif" font-size="10.00">+</text>
<text text-anchor="start" x="35.5" y="-941.5" font-family="Helvetica,sans-Serif" font-size="10.00">GetParametrDouble()</text>
<text text-anchor="start" x="22.5" y="-926.5" font-family="Helvetica,sans-Serif" font-size="10.00">+</text>
<text text-anchor="start" x="35.5" y="-926.5" font-family="Helvetica,sans-Serif" font-size="10.00">getParameterId()</text>
<text text-anchor="start" x="22.5" y="-911.5" font-family="Helvetica,sans-Serif" font-size="10.00">+</text>
<text text-anchor="start" x="35.5" y="-911.5" font-family="Helvetica,sans-Serif" font-size="10.00">ValidateXML()</text>
<text text-anchor="start" x="22.5" y="-896.5" font-family="Helvetica,sans-Serif" font-size="10.00">+</text>
<text text-anchor="start" x="35.5" y="-896.5" font-family="Helvetica,sans-Serif" font-size="10.00">UnitsHelpString()</text>
<text text-anchor="start" x="22.5" y="-881.5" font-family="Helvetica,sans-Serif" font-size="10.00">+</text>
<text text-anchor="start" x="35.5" y="-881.5" font-family="Helvetica,sans-Serif" font-size="10.00">RemoveAllChildren()</text>
<text text-anchor="start" x="22.5" y="-866.5" font-family="Helvetica,sans-Serif" font-size="10.00">+</text>
<text text-anchor="start" x="35.5" y="-866.5" font-family="Helvetica,sans-Serif" font-size="10.00">SafeCopy()</text>
<text text-anchor="start" x="22.5" y="-851.5" font-family="Helvetica,sans-Serif" font-size="10.00">#</text>
<text text-anchor="start" x="35.5" y="-851.5" font-family="Helvetica,sans-Serif" font-size="10.00">setTagText()</text>
<text text-anchor="start" x="22.5" y="-836.5" font-family="Helvetica,sans-Serif" font-size="10.00">#</text>
<text text-anchor="start" x="35.5" y="-836.5" font-family="Helvetica,sans-Serif" font-size="10.00">setTagText()</text>
<text text-anchor="start" x="22.5" y="-821.5" font-family="Helvetica,sans-Serif" font-size="10.00">#</text>
<text text-anchor="start" x="35.5" y="-821.5" font-family="Helvetica,sans-Serif" font-size="10.00">UniqueTagText()</text>
<text text-anchor="start" x="22.5" y="-806.5" font-family="Helvetica,sans-Serif" font-size="10.00">#</text>
<text text-anchor="start" x="35.5" y="-806.5" font-family="Helvetica,sans-Serif" font-size="10.00">TestUniqueId()</text>
<text text-anchor="start" x="22.5" y="-791.5" font-family="Helvetica,sans-Serif" font-size="10.00">#</text>
<text text-anchor="start" x="35.5" y="-791.5" font-family="Helvetica,sans-Serif" font-size="10.00">CollectId()</text>
<text text-anchor="start" x="25" y="-776.5" font-family="Helvetica,sans-Serif" font-size="10.00">&#45;</text>
<text text-anchor="start" x="35.5" y="-776.5" font-family="Helvetica,sans-Serif" font-size="10.00">find()</text>
<text text-anchor="start" x="25" y="-761.5" font-family="Helvetica,sans-Serif" font-size="10.00">&#45;</text>
<text text-anchor="start" x="35.5" y="-761.5" font-family="Helvetica,sans-Serif" font-size="10.00">SaveCanonicalXML()</text>
<polygon fill="#666666" stroke="#666666" points="18.5,-1356.5 18.5,-1356.5 169.5,-1356.5 169.5,-1356.5 18.5,-1356.5"/>
<polygon fill="#666666" stroke="#666666" points="18.5,-1206.5 18.5,-1206.5 33.5,-1206.5 33.5,-1206.5 18.5,-1206.5"/>
<polygon fill="#666666" stroke="#666666" points="33.5,-1206.5 33.5,-1206.5 169.5,-1206.5 169.5,-1206.5 33.5,-1206.5"/>
<polygon fill="none" stroke="#666666" points="18,-755 18,-1374 169,-1374 169,-755 18,-755"/>
</a>
</g>
</g>
<!-- Node3&#45;&gt;Node2 -->
<g id="edge2_Node000002_Node000003" class="edge">
<title>Node3&#45;&gt;Node2</title>
<g id="a_edge2_Node000002_Node000003"><a xlink:title=" ">
<path fill="none" stroke="#63b8ff" d="M93.5,-744.79C93.5,-736.26 93.5,-727.78 93.5,-719.38"/>
<polygon fill="none" stroke="#63b8ff" points="90,-744.82 93.5,-754.82 97,-744.82 90,-744.82"/>
</a>
</g>
</g>
<!-- Node4 -->
<g id="Node000004" class="node">
<title>Node4</title>
<g id="a_Node000004"><a xlink:title=" ">
<polygon fill="white" stroke="transparent" points="139.5,-1459 47.5,-1459 47.5,-1410 139.5,-1410 139.5,-1459"/>
<text text-anchor="start" x="52.5" y="-1446.5" font-family="Helvetica,sans-Serif" font-size="10.00">QDomDocument</text>
<text text-anchor="start" x="91.5" y="-1431.5" font-family="Helvetica,sans-Serif" font-size="10.00"> </text>
<text text-anchor="start" x="91.5" y="-1416.5" font-family="Helvetica,sans-Serif" font-size="10.00"> </text>
<polygon fill="#666666" stroke="#666666" points="47.5,-1441.5 47.5,-1441.5 139.5,-1441.5 139.5,-1441.5 47.5,-1441.5"/>
<polygon fill="#666666" stroke="#666666" points="47.5,-1426.5 47.5,-1426.5 139.5,-1426.5 139.5,-1426.5 47.5,-1426.5"/>
<polygon fill="none" stroke="#666666" points="47.5,-1410 47.5,-1459 139.5,-1459 139.5,-1410 47.5,-1410"/>
</a>
</g>
</g>
<!-- Node4&#45;&gt;Node3 -->
<g id="edge3_Node000003_Node000004" class="edge">
<title>Node4&#45;&gt;Node3</title>
<g id="a_edge3_Node000003_Node000004"><a xlink:title=" ">
<path fill="none" stroke="#63b8ff" d="M93.5,-1399.68C93.5,-1392.16 93.5,-1383.61 93.5,-1374.24"/>
<polygon fill="none" stroke="#63b8ff" points="90,-1399.92 93.5,-1409.92 97,-1399.92 90,-1399.92"/>
</a>
</g>
</g>
</g>
</svg>

<g id="navigator" transform="translate(0 0)" fill="#404254">
  <rect fill="#f2f5e9" fill-opacity="0.5" stroke="#606060" stroke-width=".5" x="0" y="0" width="60" height="60"/>
  <use id="zoomplus" xlink:href="#zoomPlus" x="17" y="9" onmousedown="handleZoom(evt,'in')"/>
  <use id="zoomminus" xlink:href="#zoomMin" x="42" y="9" onmousedown="handleZoom(evt,'out')"/>
  <use id="reset" xlink:href="#resetDef" x="30" y="36" onmousedown="handleReset()"/>
   <use id="arrowup" xlink:href="#arrowUp" x="0" y="0" onmousedown="handlePan(0,-1)"/>
  <use id="arrowright" xlink:href="#arrowRight" x="0" y="0" onmousedown="handlePan(1,0)"/>
  <use id="arrowdown" xlink:href="#arrowDown" x="0" y="0" onmousedown="handlePan(0,1)"/>
  <use id="arrowleft" xlink:href="#arrowLeft" x="0" y="0" onmousedown="handlePan(-1,0)"/>
</g>
<svg viewBox="0 0 15 15" width="100%" height="30px" preserveAspectRatio="xMaxYMin meet">
 <g id="arrow_out" transform="scale(0.3 0.3)">
  <a xlink:href="classVLabelTemplateConverter__inherit__graph_org.svg" target="_base">
   <rect id="button" ry="5" rx="5" y="6" x="6" height="38" width="38"
        fill="#f2f5e9" fill-opacity="0.5" stroke="#606060" stroke-width="1.0"/>
   <path id="arrow"
     d="M 11.500037,31.436501 C 11.940474,20.09759 22.043105,11.32322 32.158766,21.979434 L 37.068811,17.246167 C 37.068811,17.246167 37.088388,32 37.088388,32 L 22.160133,31.978069 C 22.160133,31.978069 26.997745,27.140456 26.997745,27.140456 C 18.528582,18.264221 13.291696,25.230495 11.500037,31.436501 z"
     style="fill:#404040;"/>
  </a>
 </g>
</svg>

<style type='text/css'>
<![CDATA[
[data-mouse-over-selected='false'] { opacity: 0.7; }
[data-mouse-over-selected='true']  { opacity: 1.0; }
]]>
</style>
<script type="application/ecmascript"><![CDATA[
document.addEventListener('DOMContentLoaded', (event) => {
  highlightEdges();
  highlightAdjacentNodes();
});
]]></script>
</svg>
