<?xml version="1.0" encoding="UTF-8" standalone="no"?>
<!DOCTYPE svg PUBLIC "-//W3C//DTD SVG 1.1//EN"
 "http://www.w3.org/Graphics/SVG/1.1/DTD/svg11.dtd">
<!-- Generated by graphviz version 2.43.0 (0)
 -->
<!-- Title: src/app/seamlyme/dialogs/new_measurements_dialog.cpp Pages: 1 -->
<svg width="886pt" height="214pt"
 viewBox="0.00 0.00 886.00 214.00" xmlns="http://www.w3.org/2000/svg" xmlns:xlink="http://www.w3.org/1999/xlink">
<g id="graph0" class="graph" transform="scale(1 1) rotate(0) translate(4 210)">
<title>src/app/seamlyme/dialogs/new_measurements_dialog.cpp</title>
<!-- Node1 -->
<g id="Node000001" class="node">
<title>Node1</title>
<g id="a_Node000001"><a xlink:title=" ">
<polygon fill="#999999" stroke="#666666" points="597,-206 423,-206 423,-176 597,-176 597,-206"/>
<text text-anchor="start" x="431" y="-194" font-family="Helvetica,sans-Serif" font-size="10.00">src/app/seamlyme/dialogs</text>
<text text-anchor="middle" x="510" y="-183" font-family="Helvetica,sans-Serif" font-size="10.00">/new_measurements_dialog.cpp</text>
</a>
</g>
</g>
<!-- Node2 -->
<g id="Node000002" class="node">
<title>Node2</title>
<g id="a_Node000002"><a xlink:href="../../d6/d9d/new__measurements__dialog_8h.html" target="_top" xlink:title=" ">
<polygon fill="white" stroke="#666666" points="160,-134.5 0,-134.5 0,-115.5 160,-115.5 160,-134.5"/>
<text text-anchor="middle" x="80" y="-122.5" font-family="Helvetica,sans-Serif" font-size="10.00">new_measurements_dialog.h</text>
</a>
</g>
</g>
<!-- Node1&#45;&gt;Node2 -->
<g id="edge1_Node000001_Node000002" class="edge">
<title>Node1&#45;&gt;Node2</title>
<g id="a_edge1_Node000001_Node000002"><a xlink:title=" ">
<path fill="none" stroke="#63b8ff" d="M422.98,-177.05C341.65,-164.94 221.91,-147.12 147.55,-136.05"/>
<polygon fill="#63b8ff" stroke="#63b8ff" points="147.78,-132.55 137.37,-134.54 146.75,-139.47 147.78,-132.55"/>
</a>
</g>
</g>
<!-- Node5 -->
<g id="Node000005" class="node">
<title>Node5</title>
<g id="a_Node000005"><a xlink:title=" ">
<polygon fill="#e0e0e0" stroke="#999999" points="622,-140 492,-140 492,-110 622,-110 622,-140"/>
<text text-anchor="start" x="500" y="-128" font-family="Helvetica,sans-Serif" font-size="10.00">ui_new_measurements</text>
<text text-anchor="middle" x="557" y="-117" font-family="Helvetica,sans-Serif" font-size="10.00">_dialog.h</text>
</a>
</g>
</g>
<!-- Node1&#45;&gt;Node5 -->
<g id="edge4_Node000001_Node000005" class="edge">
<title>Node1&#45;&gt;Node5</title>
<g id="a_edge4_Node000001_Node000005"><a xlink:title=" ">
<path fill="none" stroke="#63b8ff" d="M520.43,-175.8C526.33,-167.76 533.85,-157.53 540.53,-148.43"/>
<polygon fill="#63b8ff" stroke="#63b8ff" points="543.5,-150.3 546.6,-140.16 537.86,-146.15 543.5,-150.3"/>
</a>
</g>
</g>
<!-- Node6 -->
<g id="Node000006" class="node">
<title>Node6</title>
<g id="a_Node000006"><a xlink:title=" ">
<polygon fill="#e0e0e0" stroke="#999999" points="782,-140 640,-140 640,-110 782,-110 782,-140"/>
<text text-anchor="start" x="648" y="-128" font-family="Helvetica,sans-Serif" font-size="10.00">../vpatterndb/variables</text>
<text text-anchor="middle" x="711" y="-117" font-family="Helvetica,sans-Serif" font-size="10.00">/measurement_variable.h</text>
</a>
</g>
</g>
<!-- Node1&#45;&gt;Node6 -->
<g id="edge5_Node000001_Node000006" class="edge">
<title>Node1&#45;&gt;Node6</title>
<g id="a_edge5_Node000001_Node000006"><a xlink:title=" ">
<path fill="none" stroke="#63b8ff" d="M554.11,-175.95C584.48,-166.28 625.01,-153.38 657.27,-143.11"/>
<polygon fill="#63b8ff" stroke="#63b8ff" points="658.53,-146.38 666.99,-140.01 656.4,-139.71 658.53,-146.38"/>
</a>
</g>
</g>
<!-- Node7 -->
<g id="Node000007" class="node">
<title>Node7</title>
<g id="a_Node000007"><a xlink:title=" ">
<polygon fill="#e0e0e0" stroke="#999999" points="835,-74 671,-74 671,-55 835,-55 835,-74"/>
<text text-anchor="middle" x="753" y="-62" font-family="Helvetica,sans-Serif" font-size="10.00">../vmisc/vseamlymesettings.h</text>
</a>
</g>
</g>
<!-- Node1&#45;&gt;Node7 -->
<g id="edge6_Node000001_Node000007" class="edge">
<title>Node1&#45;&gt;Node7</title>
<g id="a_edge6_Node000001_Node000007"><a xlink:title=" ">
<path fill="none" stroke="#63b8ff" d="M497.68,-175.72C484.28,-158.39 466.78,-129.11 483,-110 494.65,-96.27 587.21,-83.19 660.75,-74.81"/>
<polygon fill="#63b8ff" stroke="#63b8ff" points="661.45,-78.26 670.99,-73.66 660.67,-71.3 661.45,-78.26"/>
</a>
</g>
</g>
<!-- Node8 -->
<g id="Node000008" class="node">
<title>Node8</title>
<g id="a_Node000008"><a xlink:href="../../df/da4/mapplication_8h.html" target="_top" xlink:title=" ">
<polygon fill="white" stroke="#666666" points="436,-134.5 338,-134.5 338,-115.5 436,-115.5 436,-134.5"/>
<text text-anchor="middle" x="387" y="-122.5" font-family="Helvetica,sans-Serif" font-size="10.00">../mapplication.h</text>
</a>
</g>
</g>
<!-- Node1&#45;&gt;Node8 -->
<g id="edge7_Node000001_Node000008" class="edge">
<title>Node1&#45;&gt;Node8</title>
<g id="a_edge7_Node000001_Node000008"><a xlink:title=" ">
<path fill="none" stroke="#63b8ff" d="M483.01,-175.95C462.01,-165.03 433.07,-149.97 412.47,-139.25"/>
<polygon fill="#63b8ff" stroke="#63b8ff" points="413.86,-136.03 403.37,-134.52 410.62,-142.24 413.86,-136.03"/>
</a>
</g>
</g>
<!-- Node12 -->
<g id="Node000012" class="node">
<title>Node12</title>
<g id="a_Node000012"><a xlink:title=" ">
<polygon fill="#e0e0e0" stroke="#999999" points="878,-134.5 800,-134.5 800,-115.5 878,-115.5 878,-134.5"/>
<text text-anchor="middle" x="839" y="-122.5" font-family="Helvetica,sans-Serif" font-size="10.00">QShowEvent</text>
</a>
</g>
</g>
<!-- Node1&#45;&gt;Node12 -->
<g id="edge14_Node000001_Node000012" class="edge">
<title>Node1&#45;&gt;Node12</title>
<g id="a_edge14_Node000001_Node000012"><a xlink:title=" ">
<path fill="none" stroke="#63b8ff" d="M597.21,-176.97C652.94,-168.03 726.59,-155.08 791,-140 794.59,-139.16 798.31,-138.21 802.02,-137.22"/>
<polygon fill="#63b8ff" stroke="#63b8ff" points="803.03,-140.57 811.72,-134.51 801.15,-133.83 803.03,-140.57"/>
</a>
</g>
</g>
<!-- Node3 -->
<g id="Node000003" class="node">
<title>Node3</title>
<g id="a_Node000003"><a xlink:title=" ">
<polygon fill="#e0e0e0" stroke="#999999" points="140,-19 84,-19 84,0 140,0 140,-19"/>
<text text-anchor="middle" x="112" y="-7" font-family="Helvetica,sans-Serif" font-size="10.00">QDialog</text>
</a>
</g>
</g>
<!-- Node2&#45;&gt;Node3 -->
<g id="edge2_Node000002_Node000003" class="edge">
<title>Node2&#45;&gt;Node3</title>
<g id="a_edge2_Node000002_Node000003"><a xlink:title=" ">
<path fill="none" stroke="#63b8ff" d="M65.8,-115.42C46.63,-102.7 16.38,-77.88 30,-55 39.69,-38.71 57.66,-28.01 74.31,-21.2"/>
<polygon fill="#63b8ff" stroke="#63b8ff" points="75.75,-24.4 83.89,-17.63 73.3,-17.84 75.75,-24.4"/>
</a>
</g>
</g>
<!-- Node4 -->
<g id="Node000004" class="node">
<title>Node4</title>
<g id="a_Node000004"><a xlink:title=" ">
<polygon fill="#e0e0e0" stroke="#999999" points="121,-74 39,-74 39,-55 121,-55 121,-74"/>
<text text-anchor="middle" x="80" y="-62" font-family="Helvetica,sans-Serif" font-size="10.00">../vmisc/def.h</text>
</a>
</g>
</g>
<!-- Node2&#45;&gt;Node4 -->
<g id="edge3_Node000002_Node000004" class="edge">
<title>Node2&#45;&gt;Node4</title>
<g id="a_edge3_Node000002_Node000004"><a xlink:title=" ">
<path fill="none" stroke="#63b8ff" d="M80,-115.37C80,-107.25 80,-94.81 80,-84.39"/>
<polygon fill="#63b8ff" stroke="#63b8ff" points="83.5,-84.17 80,-74.17 76.5,-84.17 83.5,-84.17"/>
</a>
</g>
</g>
<!-- Node8&#45;&gt;Node4 -->
<g id="edge9_Node000008_Node000004" class="edge">
<title>Node8&#45;&gt;Node4</title>
<g id="a_edge9_Node000008_Node000004"><a xlink:title=" ">
<path fill="none" stroke="#63b8ff" d="M342.36,-115.49C286.24,-104.8 190.12,-86.48 131.11,-75.24"/>
<polygon fill="#63b8ff" stroke="#63b8ff" points="131.73,-71.79 121.25,-73.36 130.42,-78.67 131.73,-71.79"/>
</a>
</g>
</g>
<!-- Node8&#45;&gt;Node7 -->
<g id="edge10_Node000008_Node000007" class="edge">
<title>Node8&#45;&gt;Node7</title>
<g id="a_edge10_Node000008_Node000007"><a xlink:title=" ">
<path fill="none" stroke="#63b8ff" d="M423.22,-115.48C431.96,-113.55 441.3,-111.6 450,-110 526.15,-95.97 613.73,-83.5 675.08,-75.35"/>
<polygon fill="#63b8ff" stroke="#63b8ff" points="675.62,-78.81 685.08,-74.04 674.7,-71.87 675.62,-78.81"/>
</a>
</g>
</g>
<!-- Node9 -->
<g id="Node000009" class="node">
<title>Node9</title>
<g id="a_Node000009"><a xlink:title=" ">
<polygon fill="#e0e0e0" stroke="#999999" points="467.5,-74 306.5,-74 306.5,-55 467.5,-55 467.5,-74"/>
<text text-anchor="middle" x="387" y="-62" font-family="Helvetica,sans-Serif" font-size="10.00">../vpatterndb/vtranslatevars.h</text>
</a>
</g>
</g>
<!-- Node8&#45;&gt;Node9 -->
<g id="edge8_Node000008_Node000009" class="edge">
<title>Node8&#45;&gt;Node9</title>
<g id="a_edge8_Node000008_Node000009"><a xlink:title=" ">
<path fill="none" stroke="#63b8ff" d="M387,-115.37C387,-107.25 387,-94.81 387,-84.39"/>
<polygon fill="#63b8ff" stroke="#63b8ff" points="390.5,-84.17 387,-74.17 383.5,-84.17 390.5,-84.17"/>
</a>
</g>
</g>
<!-- Node10 -->
<g id="Node000010" class="node">
<title>Node10</title>
<g id="a_Node000010"><a xlink:title=" ">
<polygon fill="#e0e0e0" stroke="#999999" points="652.5,-74 485.5,-74 485.5,-55 652.5,-55 652.5,-74"/>
<text text-anchor="middle" x="569" y="-62" font-family="Helvetica,sans-Serif" font-size="10.00">../vmisc/vabstractapplication.h</text>
</a>
</g>
</g>
<!-- Node8&#45;&gt;Node10 -->
<g id="edge11_Node000008_Node000010" class="edge">
<title>Node8&#45;&gt;Node10</title>
<g id="a_edge11_Node000008_Node000010"><a xlink:title=" ">
<path fill="none" stroke="#63b8ff" d="M413.46,-115.49C444.87,-105.4 497.4,-88.51 532.62,-77.19"/>
<polygon fill="#63b8ff" stroke="#63b8ff" points="534.05,-80.41 542.5,-74.02 531.91,-73.74 534.05,-80.41"/>
</a>
</g>
</g>
<!-- Node11 -->
<g id="Node000011" class="node">
<title>Node11</title>
<g id="a_Node000011"><a xlink:href="../../d0/d0b/dialogmdatabase_8h.html" target="_top" xlink:title=" ">
<polygon fill="white" stroke="#666666" points="288.5,-74 139.5,-74 139.5,-55 288.5,-55 288.5,-74"/>
<text text-anchor="middle" x="214" y="-62" font-family="Helvetica,sans-Serif" font-size="10.00">dialogs/dialogmdatabase.h</text>
</a>
</g>
</g>
<!-- Node8&#45;&gt;Node11 -->
<g id="edge12_Node000008_Node000011" class="edge">
<title>Node8&#45;&gt;Node11</title>
<g id="a_edge12_Node000008_Node000011"><a xlink:title=" ">
<path fill="none" stroke="#63b8ff" d="M361.84,-115.49C332.12,-105.44 282.48,-88.66 249.01,-77.34"/>
<polygon fill="#63b8ff" stroke="#63b8ff" points="249.78,-73.9 239.19,-74.02 247.54,-80.54 249.78,-73.9"/>
</a>
</g>
</g>
<!-- Node11&#45;&gt;Node3 -->
<g id="edge13_Node000011_Node000003" class="edge">
<title>Node11&#45;&gt;Node3</title>
<g id="a_edge13_Node000011_Node000003"><a xlink:title=" ">
<path fill="none" stroke="#63b8ff" d="M197.61,-54.98C181.43,-46.57 156.43,-33.59 137.62,-23.81"/>
<polygon fill="#63b8ff" stroke="#63b8ff" points="139.17,-20.68 128.69,-19.17 135.95,-26.89 139.17,-20.68"/>
</a>
</g>
</g>
</g>
</svg>
