<?xml version="1.0" encoding="UTF-8" standalone="no"?>
<!DOCTYPE svg PUBLIC "-//W3C//DTD SVG 1.1//EN"
 "http://www.w3.org/Graphics/SVG/1.1/DTD/svg11.dtd">
<!-- Generated by graphviz version 2.43.0 (0)
 -->
<!-- Title: src/libs/vmisc/vsettings.h Pages: 1 -->
<svg width="7559pt" height="225pt"
 viewBox="0.00 0.00 7558.50 225.00" xmlns="http://www.w3.org/2000/svg" xmlns:xlink="http://www.w3.org/1999/xlink">
<g id="graph0" class="graph" transform="scale(1 1) rotate(0) translate(4 221)">
<title>src/libs/vmisc/vsettings.h</title>
<!-- Node1 -->
<g id="Node000001" class="node">
<title>Node1</title>
<g id="a_Node000001"><a xlink:title=" ">
<polygon fill="#999999" stroke="#666666" points="5880.5,-217 5740.5,-217 5740.5,-198 5880.5,-198 5880.5,-217"/>
<text text-anchor="middle" x="5810.5" y="-205" font-family="Helvetica,sans-Serif" font-size="10.00">src/libs/vmisc/vsettings.h</text>
</a>
</g>
</g>
<!-- Node2 -->
<g id="Node000002" class="node">
<title>Node2</title>
<g id="a_Node000002"><a xlink:href="../../d9/d02/vapplication_8h.html" target="_top" xlink:title=" ">
<polygon fill="white" stroke="#666666" points="2279,-162 2152,-162 2152,-132 2279,-132 2279,-162"/>
<text text-anchor="start" x="2160" y="-150" font-family="Helvetica,sans-Serif" font-size="10.00">src/app/seamly2d/core</text>
<text text-anchor="middle" x="2215.5" y="-139" font-family="Helvetica,sans-Serif" font-size="10.00">/vapplication.h</text>
</a>
</g>
</g>
<!-- Node1&#45;&gt;Node2 -->
<g id="edge1_Node000001_Node000002" class="edge">
<title>Node1&#45;&gt;Node2</title>
<g id="a_edge1_Node000001_Node000002"><a xlink:title=" ">
<path fill="none" stroke="#63b8ff" d="M5730.24,-205.19C5245.5,-197.31 2714.72,-156.12 2279.31,-149.04"/>
<polygon fill="#63b8ff" stroke="#63b8ff" points="5730.24,-208.69 5740.3,-205.36 5730.36,-201.7 5730.24,-208.69"/>
</a>
</g>
</g>
<!-- Node25 -->
<g id="Node000025" class="node">
<title>Node25</title>
<g id="a_Node000025"><a xlink:href="../../d5/d74/vabstractapplication_8h.html" target="_top" xlink:title=" ">
<polygon fill="#fff0f0" stroke="red" points="5846,-156.5 5651,-156.5 5651,-137.5 5846,-137.5 5846,-156.5"/>
<text text-anchor="middle" x="5748.5" y="-144.5" font-family="Helvetica,sans-Serif" font-size="10.00">src/libs/vmisc/vabstractapplication.h</text>
</a>
</g>
</g>
<!-- Node1&#45;&gt;Node25 -->
<g id="edge24_Node000001_Node000025" class="edge">
<title>Node1&#45;&gt;Node25</title>
<g id="a_edge24_Node000001_Node000025"><a xlink:title=" ">
<path fill="none" stroke="#63b8ff" d="M5793.98,-190.91C5782.35,-179.94 5767.22,-165.67 5757.69,-156.67"/>
<polygon fill="#63b8ff" stroke="#63b8ff" points="5791.68,-193.55 5801.35,-197.87 5796.48,-188.46 5791.68,-193.55"/>
</a>
</g>
</g>
<!-- Node61 -->
<g id="Node000061" class="node">
<title>Node61</title>
<g id="a_Node000061"><a xlink:href="../../d2/d31/vmaingraphicsview_8cpp.html" target="_top" xlink:title=" ">
<polygon fill="white" stroke="#666666" points="7550.5,-90.5 7334.5,-90.5 7334.5,-71.5 7550.5,-71.5 7550.5,-90.5"/>
<text text-anchor="middle" x="7442.5" y="-78.5" font-family="Helvetica,sans-Serif" font-size="10.00">src/libs/vwidgets/vmaingraphicsview.cpp</text>
</a>
</g>
</g>
<!-- Node1&#45;&gt;Node61 -->
<g id="edge51_Node000001_Node000061" class="edge">
<title>Node1&#45;&gt;Node61</title>
<g id="a_edge51_Node000001_Node000061"><a xlink:title=" ">
<path fill="none" stroke="#63b8ff" d="M5826.44,-190.9C5847.96,-170.01 5884.55,-135.19 5892.5,-132 6040.23,-72.77 7165.75,-107.39 7324.5,-96 7342.5,-94.71 7361.99,-92.66 7379.83,-90.53"/>
<polygon fill="#63b8ff" stroke="#63b8ff" points="5823.99,-188.39 5819.27,-197.88 5828.88,-193.41 5823.99,-188.39"/>
</a>
</g>
</g>
<!-- Node66 -->
<g id="Node000066" class="node">
<title>Node66</title>
<g id="a_Node000066"><a xlink:href="../../db/d28/vsettings_8cpp.html" target="_top" xlink:title=" ">
<polygon fill="white" stroke="#666666" points="6053.5,-156.5 5901.5,-156.5 5901.5,-137.5 6053.5,-137.5 6053.5,-156.5"/>
<text text-anchor="middle" x="5977.5" y="-144.5" font-family="Helvetica,sans-Serif" font-size="10.00">src/libs/vmisc/vsettings.cpp</text>
</a>
</g>
</g>
<!-- Node1&#45;&gt;Node66 -->
<g id="edge50_Node000001_Node000066" class="edge">
<title>Node1&#45;&gt;Node66</title>
<g id="a_edge50_Node000001_Node000066"><a xlink:title=" ">
<path fill="none" stroke="#63b8ff" d="M5844.27,-194.67C5876.56,-183.36 5924.48,-166.57 5953.19,-156.52"/>
<polygon fill="#63b8ff" stroke="#63b8ff" points="5843.06,-191.38 5834.78,-197.99 5845.38,-197.99 5843.06,-191.38"/>
</a>
</g>
</g>
<!-- Node3 -->
<g id="Node000003" class="node">
<title>Node3</title>
<g id="a_Node000003"><a xlink:href="../../d3/dd8/vapplication_8cpp.html" target="_top" xlink:title=" ">
<polygon fill="white" stroke="#666666" points="127,-96 0,-96 0,-66 127,-66 127,-96"/>
<text text-anchor="start" x="8" y="-84" font-family="Helvetica,sans-Serif" font-size="10.00">src/app/seamly2d/core</text>
<text text-anchor="middle" x="63.5" y="-73" font-family="Helvetica,sans-Serif" font-size="10.00">/vapplication.cpp</text>
</a>
</g>
</g>
<!-- Node2&#45;&gt;Node3 -->
<g id="edge2_Node000002_Node000003" class="edge">
<title>Node2&#45;&gt;Node3</title>
<g id="a_edge2_Node000002_Node000003"><a xlink:title=" ">
<path fill="none" stroke="#63b8ff" d="M2141.86,-145.86C1820.27,-145.01 537.24,-138.95 136.5,-96 133.42,-95.67 130.28,-95.28 127.11,-94.84"/>
<polygon fill="#63b8ff" stroke="#63b8ff" points="2141.99,-149.36 2152,-145.89 2142,-142.36 2141.99,-149.36"/>
</a>
</g>
</g>
<!-- Node4 -->
<g id="Node000004" class="node">
<title>Node4</title>
<g id="a_Node000004"><a xlink:href="../../d2/d00/vtooloptionspropertybrowser_8cpp.html" target="_top" xlink:title=" ">
<polygon fill="white" stroke="#666666" points="325.5,-96 145.5,-96 145.5,-66 325.5,-66 325.5,-96"/>
<text text-anchor="start" x="153.5" y="-84" font-family="Helvetica,sans-Serif" font-size="10.00">src/app/seamly2d/core</text>
<text text-anchor="middle" x="235.5" y="-73" font-family="Helvetica,sans-Serif" font-size="10.00">/vtooloptionspropertybrowser.cpp</text>
</a>
</g>
</g>
<!-- Node2&#45;&gt;Node4 -->
<g id="edge3_Node000002_Node000004" class="edge">
<title>Node2&#45;&gt;Node4</title>
<g id="a_edge3_Node000002_Node000004"><a xlink:title=" ">
<path fill="none" stroke="#63b8ff" d="M2141.35,-145.16C1838.56,-141.55 694.83,-126.17 334.5,-96 331.56,-95.75 328.57,-95.48 325.56,-95.18"/>
<polygon fill="#63b8ff" stroke="#63b8ff" points="2141.73,-148.66 2151.77,-145.28 2141.81,-141.66 2141.73,-148.66"/>
</a>
</g>
</g>
<!-- Node5 -->
<g id="Node000005" class="node">
<title>Node5</title>
<g id="a_Node000005"><a xlink:href="../../dd/db4/abstractlayout__dialog_8cpp.html" target="_top" xlink:title=" ">
<polygon fill="white" stroke="#666666" points="489.5,-96 343.5,-96 343.5,-66 489.5,-66 489.5,-96"/>
<text text-anchor="start" x="351.5" y="-84" font-family="Helvetica,sans-Serif" font-size="10.00">src/app/seamly2d/dialogs</text>
<text text-anchor="middle" x="416.5" y="-73" font-family="Helvetica,sans-Serif" font-size="10.00">/abstractlayout_dialog.cpp</text>
</a>
</g>
</g>
<!-- Node2&#45;&gt;Node5 -->
<g id="edge4_Node000002_Node000005" class="edge">
<title>Node2&#45;&gt;Node5</title>
<g id="a_edge4_Node000002_Node000005"><a xlink:title=" ">
<path fill="none" stroke="#63b8ff" d="M2141.71,-145.23C1856.33,-142.03 824.61,-128.43 498.5,-96 495.63,-95.71 492.7,-95.39 489.75,-95.03"/>
<polygon fill="#63b8ff" stroke="#63b8ff" points="2141.91,-148.73 2151.95,-145.34 2141.99,-141.73 2141.91,-148.73"/>
</a>
</g>
</g>
<!-- Node6 -->
<g id="Node000006" class="node">
<title>Node6</title>
<g id="a_Node000006"><a xlink:href="../../d7/dfa/calculator__dialog_8cpp.html" target="_top" xlink:title=" ">
<polygon fill="white" stroke="#666666" points="649,-96 508,-96 508,-66 649,-66 649,-96"/>
<text text-anchor="start" x="516" y="-84" font-family="Helvetica,sans-Serif" font-size="10.00">src/app/seamly2d/dialogs</text>
<text text-anchor="middle" x="578.5" y="-73" font-family="Helvetica,sans-Serif" font-size="10.00">/calculator_dialog.cpp</text>
</a>
</g>
</g>
<!-- Node2&#45;&gt;Node6 -->
<g id="edge5_Node000002_Node000006" class="edge">
<title>Node2&#45;&gt;Node6</title>
<g id="a_edge5_Node000002_Node000006"><a xlink:title=" ">
<path fill="none" stroke="#63b8ff" d="M2141.91,-145.04C1873.95,-141.32 950.83,-126.54 657.5,-96 654.73,-95.71 651.91,-95.38 649.06,-95.02"/>
<polygon fill="#63b8ff" stroke="#63b8ff" points="2141.87,-148.54 2151.91,-145.18 2141.96,-141.54 2141.87,-148.54"/>
</a>
</g>
</g>
<!-- Node7 -->
<g id="Node000007" class="node">
<title>Node7</title>
<g id="a_Node000007"><a xlink:href="../../d2/d2d/preferencesconfigurationpage_8cpp.html" target="_top" xlink:title=" ">
<polygon fill="white" stroke="#666666" points="914,-96 667,-96 667,-66 914,-66 914,-96"/>
<text text-anchor="start" x="675" y="-84" font-family="Helvetica,sans-Serif" font-size="10.00">src/app/seamly2d/dialogs</text>
<text text-anchor="middle" x="790.5" y="-73" font-family="Helvetica,sans-Serif" font-size="10.00">/configpages/preferencesconfigurationpage.cpp</text>
</a>
</g>
</g>
<!-- Node2&#45;&gt;Node7 -->
<g id="edge6_Node000002_Node000007" class="edge">
<title>Node2&#45;&gt;Node7</title>
<g id="a_edge6_Node000002_Node000007"><a xlink:title=" ">
<path fill="none" stroke="#63b8ff" d="M2141.63,-144.85C1943.92,-141.41 1386.24,-129.27 923.5,-96 920.37,-95.78 917.21,-95.54 914.01,-95.28"/>
<polygon fill="#63b8ff" stroke="#63b8ff" points="2141.84,-148.36 2151.9,-145.03 2141.96,-141.36 2141.84,-148.36"/>
</a>
</g>
</g>
<!-- Node8 -->
<g id="Node000008" class="node">
<title>Node8</title>
<g id="a_Node000008"><a xlink:href="../../d9/d70/preferencesgraphicsviewpage_8cpp.html" target="_top" xlink:title=" ">
<polygon fill="white" stroke="#666666" points="1180.5,-96 932.5,-96 932.5,-66 1180.5,-66 1180.5,-96"/>
<text text-anchor="start" x="940.5" y="-84" font-family="Helvetica,sans-Serif" font-size="10.00">src/app/seamly2d/dialogs</text>
<text text-anchor="middle" x="1056.5" y="-73" font-family="Helvetica,sans-Serif" font-size="10.00">/configpages/preferencesgraphicsviewpage.cpp</text>
</a>
</g>
</g>
<!-- Node2&#45;&gt;Node8 -->
<g id="edge7_Node000002_Node000008" class="edge">
<title>Node2&#45;&gt;Node8</title>
<g id="a_edge7_Node000002_Node000008"><a xlink:title=" ">
<path fill="none" stroke="#63b8ff" d="M2141.77,-143.83C1973.04,-138.55 1545.84,-123.42 1189.5,-96 1186.61,-95.78 1183.68,-95.54 1180.73,-95.3"/>
<polygon fill="#63b8ff" stroke="#63b8ff" points="2141.68,-147.33 2151.79,-144.14 2141.9,-140.33 2141.68,-147.33"/>
</a>
</g>
</g>
<!-- Node9 -->
<g id="Node000009" class="node">
<title>Node9</title>
<g id="a_Node000009"><a xlink:href="../../dc/d20/preferencespathpage_8cpp.html" target="_top" xlink:title=" ">
<polygon fill="white" stroke="#666666" points="1404,-96 1199,-96 1199,-66 1404,-66 1404,-96"/>
<text text-anchor="start" x="1207" y="-84" font-family="Helvetica,sans-Serif" font-size="10.00">src/app/seamly2d/dialogs</text>
<text text-anchor="middle" x="1301.5" y="-73" font-family="Helvetica,sans-Serif" font-size="10.00">/configpages/preferencespathpage.cpp</text>
</a>
</g>
</g>
<!-- Node2&#45;&gt;Node9 -->
<g id="edge8_Node000002_Node000009" class="edge">
<title>Node2&#45;&gt;Node9</title>
<g id="a_edge8_Node000002_Node000009"><a xlink:title=" ">
<path fill="none" stroke="#63b8ff" d="M2141.69,-142.93C2000.21,-136.71 1681.13,-121.05 1413.5,-96 1410.38,-95.71 1407.21,-95.4 1404.01,-95.07"/>
<polygon fill="#63b8ff" stroke="#63b8ff" points="2141.83,-146.44 2151.98,-143.38 2142.14,-139.45 2141.83,-146.44"/>
</a>
</g>
</g>
<!-- Node10 -->
<g id="Node000010" class="node">
<title>Node10</title>
<g id="a_Node000010"><a xlink:href="../../dc/d63/preferencespatternpage_8cpp.html" target="_top" xlink:title=" ">
<polygon fill="white" stroke="#666666" points="1640.5,-96 1422.5,-96 1422.5,-66 1640.5,-66 1640.5,-96"/>
<text text-anchor="start" x="1430.5" y="-84" font-family="Helvetica,sans-Serif" font-size="10.00">src/app/seamly2d/dialogs</text>
<text text-anchor="middle" x="1531.5" y="-73" font-family="Helvetica,sans-Serif" font-size="10.00">/configpages/preferencespatternpage.cpp</text>
</a>
</g>
</g>
<!-- Node2&#45;&gt;Node10 -->
<g id="edge9_Node000002_Node000010" class="edge">
<title>Node2&#45;&gt;Node10</title>
<g id="a_edge9_Node000002_Node000010"><a xlink:title=" ">
<path fill="none" stroke="#63b8ff" d="M2141.63,-140.19C2033.5,-131.51 1825.83,-114.24 1649.5,-96 1646.63,-95.7 1643.72,-95.4 1640.78,-95.08"/>
<polygon fill="#63b8ff" stroke="#63b8ff" points="2141.53,-143.69 2151.78,-141 2142.09,-136.71 2141.53,-143.69"/>
</a>
</g>
</g>
<!-- Node11 -->
<g id="Node000011" class="node">
<title>Node11</title>
<g id="a_Node000011"><a xlink:href="../../dd/dc2/decimalchart__dialog_8cpp.html" target="_top" xlink:title=" ">
<polygon fill="white" stroke="#666666" points="1800,-96 1659,-96 1659,-66 1800,-66 1800,-96"/>
<text text-anchor="start" x="1667" y="-84" font-family="Helvetica,sans-Serif" font-size="10.00">src/app/seamly2d/dialogs</text>
<text text-anchor="middle" x="1729.5" y="-73" font-family="Helvetica,sans-Serif" font-size="10.00">/decimalchart_dialog.cpp</text>
</a>
</g>
</g>
<!-- Node2&#45;&gt;Node11 -->
<g id="edge10_Node000002_Node000011" class="edge">
<title>Node2&#45;&gt;Node11</title>
<g id="a_edge10_Node000002_Node000011"><a xlink:title=" ">
<path fill="none" stroke="#63b8ff" d="M2141.73,-138.13C2060.07,-129.14 1924.63,-113.41 1808.5,-96 1805.74,-95.59 1802.94,-95.15 1800.1,-94.7"/>
<polygon fill="#63b8ff" stroke="#63b8ff" points="2141.59,-141.64 2151.91,-139.25 2142.35,-134.68 2141.59,-141.64"/>
</a>
</g>
</g>
<!-- Node12 -->
<g id="Node000012" class="node">
<title>Node12</title>
<g id="a_Node000012"><a xlink:href="../../dd/d64/dialogaboutapp_8cpp.html" target="_top" xlink:title=" ">
<polygon fill="white" stroke="#666666" points="1959,-96 1818,-96 1818,-66 1959,-66 1959,-96"/>
<text text-anchor="start" x="1826" y="-84" font-family="Helvetica,sans-Serif" font-size="10.00">src/app/seamly2d/dialogs</text>
<text text-anchor="middle" x="1888.5" y="-73" font-family="Helvetica,sans-Serif" font-size="10.00">/dialogaboutapp.cpp</text>
</a>
</g>
</g>
<!-- Node2&#45;&gt;Node12 -->
<g id="edge11_Node000002_Node000012" class="edge">
<title>Node2&#45;&gt;Node12</title>
<g id="a_edge11_Node000002_Node000012"><a xlink:title=" ">
<path fill="none" stroke="#63b8ff" d="M2141.71,-131.56C2087.1,-120.87 2013.14,-106.39 1959.26,-95.85"/>
<polygon fill="#63b8ff" stroke="#63b8ff" points="2141.19,-135.02 2151.67,-133.51 2142.53,-128.15 2141.19,-135.02"/>
</a>
</g>
</g>
<!-- Node13 -->
<g id="Node000013" class="node">
<title>Node13</title>
<g id="a_Node000013"><a xlink:href="../../d6/d89/dialoglayoutprogress_8cpp.html" target="_top" xlink:title=" ">
<polygon fill="white" stroke="#666666" points="2120,-96 1977,-96 1977,-66 2120,-66 2120,-96"/>
<text text-anchor="start" x="1985" y="-84" font-family="Helvetica,sans-Serif" font-size="10.00">src/app/seamly2d/dialogs</text>
<text text-anchor="middle" x="2048.5" y="-73" font-family="Helvetica,sans-Serif" font-size="10.00">/dialoglayoutprogress.cpp</text>
</a>
</g>
</g>
<!-- Node2&#45;&gt;Node13 -->
<g id="edge12_Node000002_Node000013" class="edge">
<title>Node2&#45;&gt;Node13</title>
<g id="a_edge12_Node000002_Node000013"><a xlink:title=" ">
<path fill="none" stroke="#63b8ff" d="M2169.37,-128.32C2142.79,-118.14 2109.84,-105.51 2085.06,-96.01"/>
<polygon fill="#63b8ff" stroke="#63b8ff" points="2168.26,-131.64 2178.85,-131.95 2170.77,-125.11 2168.26,-131.64"/>
</a>
</g>
</g>
<!-- Node14 -->
<g id="Node000014" class="node">
<title>Node14</title>
<g id="a_Node000014"><a xlink:href="../../d5/d18/dialogpatternproperties_8cpp.html" target="_top" xlink:title=" ">
<polygon fill="white" stroke="#666666" points="2293,-96 2138,-96 2138,-66 2293,-66 2293,-96"/>
<text text-anchor="start" x="2146" y="-84" font-family="Helvetica,sans-Serif" font-size="10.00">src/app/seamly2d/dialogs</text>
<text text-anchor="middle" x="2215.5" y="-73" font-family="Helvetica,sans-Serif" font-size="10.00">/dialogpatternproperties.cpp</text>
</a>
</g>
</g>
<!-- Node2&#45;&gt;Node14 -->
<g id="edge13_Node000002_Node000014" class="edge">
<title>Node2&#45;&gt;Node14</title>
<g id="a_edge13_Node000002_Node000014"><a xlink:title=" ">
<path fill="none" stroke="#63b8ff" d="M2215.5,-121.54C2215.5,-112.96 2215.5,-103.61 2215.5,-96.16"/>
<polygon fill="#63b8ff" stroke="#63b8ff" points="2212,-121.8 2215.5,-131.8 2219,-121.8 2212,-121.8"/>
</a>
</g>
</g>
<!-- Node15 -->
<g id="Node000015" class="node">
<title>Node15</title>
<g id="a_Node000015"><a xlink:href="../../d5/dc5/dialogpreferences_8cpp.html" target="_top" xlink:title=" ">
<polygon fill="white" stroke="#666666" points="2452,-96 2311,-96 2311,-66 2452,-66 2452,-96"/>
<text text-anchor="start" x="2319" y="-84" font-family="Helvetica,sans-Serif" font-size="10.00">src/app/seamly2d/dialogs</text>
<text text-anchor="middle" x="2381.5" y="-73" font-family="Helvetica,sans-Serif" font-size="10.00">/dialogpreferences.cpp</text>
</a>
</g>
</g>
<!-- Node2&#45;&gt;Node15 -->
<g id="edge14_Node000002_Node000015" class="edge">
<title>Node2&#45;&gt;Node15</title>
<g id="a_edge14_Node000002_Node000015"><a xlink:title=" ">
<path fill="none" stroke="#63b8ff" d="M2261.35,-128.32C2287.77,-118.14 2320.52,-105.51 2345.16,-96.01"/>
<polygon fill="#63b8ff" stroke="#63b8ff" points="2260,-125.09 2251.93,-131.95 2262.52,-131.62 2260,-125.09"/>
</a>
</g>
</g>
<!-- Node16 -->
<g id="Node000016" class="node">
<title>Node16</title>
<g id="a_Node000016"><a xlink:href="../../dd/d54/export__layout__dialog_8cpp.html" target="_top" xlink:title=" ">
<polygon fill="white" stroke="#666666" points="2613,-96 2470,-96 2470,-66 2613,-66 2613,-96"/>
<text text-anchor="start" x="2478" y="-84" font-family="Helvetica,sans-Serif" font-size="10.00">src/app/seamly2d/dialogs</text>
<text text-anchor="middle" x="2541.5" y="-73" font-family="Helvetica,sans-Serif" font-size="10.00">/export_layout_dialog.cpp</text>
</a>
</g>
</g>
<!-- Node2&#45;&gt;Node16 -->
<g id="edge15_Node000002_Node000016" class="edge">
<title>Node2&#45;&gt;Node16</title>
<g id="a_edge15_Node000002_Node000016"><a xlink:title=" ">
<path fill="none" stroke="#63b8ff" d="M2289.01,-131.57C2343.17,-120.94 2416.44,-106.55 2470.1,-96.02"/>
<polygon fill="#63b8ff" stroke="#63b8ff" points="2288.27,-128.15 2279.13,-133.51 2289.62,-135.02 2288.27,-128.15"/>
</a>
</g>
</g>
<!-- Node17 -->
<g id="Node000017" class="node">
<title>Node17</title>
<g id="a_Node000017"><a xlink:href="../../db/d5c/groups__widget_8cpp.html" target="_top" xlink:title=" ">
<polygon fill="white" stroke="#666666" points="2772,-96 2631,-96 2631,-66 2772,-66 2772,-96"/>
<text text-anchor="start" x="2639" y="-84" font-family="Helvetica,sans-Serif" font-size="10.00">src/app/seamly2d/dialogs</text>
<text text-anchor="middle" x="2701.5" y="-73" font-family="Helvetica,sans-Serif" font-size="10.00">/groups_widget.cpp</text>
</a>
</g>
</g>
<!-- Node2&#45;&gt;Node17 -->
<g id="edge16_Node000002_Node000017" class="edge">
<title>Node2&#45;&gt;Node17</title>
<g id="a_edge16_Node000002_Node000017"><a xlink:title=" ">
<path fill="none" stroke="#63b8ff" d="M2289.43,-138.03C2370.92,-128.99 2505.81,-113.24 2621.5,-96 2624.57,-95.54 2627.7,-95.06 2630.86,-94.56"/>
<polygon fill="#63b8ff" stroke="#63b8ff" points="2288.83,-134.58 2279.28,-139.16 2289.6,-141.54 2288.83,-134.58"/>
</a>
</g>
</g>
<!-- Node18 -->
<g id="Node000018" class="node">
<title>Node18</title>
<g id="a_Node000018"><a xlink:href="../../d0/dfa/layoutsettings__dialog_8cpp.html" target="_top" xlink:title=" ">
<polygon fill="white" stroke="#666666" points="2935,-96 2790,-96 2790,-66 2935,-66 2935,-96"/>
<text text-anchor="start" x="2798" y="-84" font-family="Helvetica,sans-Serif" font-size="10.00">src/app/seamly2d/dialogs</text>
<text text-anchor="middle" x="2862.5" y="-73" font-family="Helvetica,sans-Serif" font-size="10.00">/layoutsettings_dialog.cpp</text>
</a>
</g>
</g>
<!-- Node2&#45;&gt;Node18 -->
<g id="edge17_Node000002_Node000018" class="edge">
<title>Node2&#45;&gt;Node18</title>
<g id="a_edge17_Node000002_Node000018"><a xlink:title=" ">
<path fill="none" stroke="#63b8ff" d="M2289.38,-141.37C2397.48,-134.17 2605,-118.71 2780.5,-96 2783.51,-95.61 2786.57,-95.19 2789.67,-94.75"/>
<polygon fill="#63b8ff" stroke="#63b8ff" points="2288.98,-137.89 2279.23,-142.05 2289.44,-144.88 2288.98,-137.89"/>
</a>
</g>
</g>
<!-- Node19 -->
<g id="Node000019" class="node">
<title>Node19</title>
<g id="a_Node000019"><a xlink:href="../../dd/d84/shortcuts__dialog_8cpp.html" target="_top" xlink:title=" ">
<polygon fill="white" stroke="#666666" points="3094,-96 2953,-96 2953,-66 3094,-66 3094,-96"/>
<text text-anchor="start" x="2961" y="-84" font-family="Helvetica,sans-Serif" font-size="10.00">src/app/seamly2d/dialogs</text>
<text text-anchor="middle" x="3023.5" y="-73" font-family="Helvetica,sans-Serif" font-size="10.00">/shortcuts_dialog.cpp</text>
</a>
</g>
</g>
<!-- Node2&#45;&gt;Node19 -->
<g id="edge18_Node000002_Node000019" class="edge">
<title>Node2&#45;&gt;Node19</title>
<g id="a_edge18_Node000002_Node000019"><a xlink:title=" ">
<path fill="none" stroke="#63b8ff" d="M2289.37,-143.48C2421.17,-138.42 2705.34,-124.94 2943.5,-96 2946.58,-95.63 2949.72,-95.21 2952.89,-94.77"/>
<polygon fill="#63b8ff" stroke="#63b8ff" points="2288.87,-140 2279.01,-143.88 2289.13,-146.99 2288.87,-140"/>
</a>
</g>
</g>
<!-- Node20 -->
<g id="Node000020" class="node">
<title>Node20</title>
<g id="a_Node000020"><a xlink:href="../../d2/df4/show__info__dialog_8cpp.html" target="_top" xlink:title=" ">
<polygon fill="white" stroke="#666666" points="3253,-96 3112,-96 3112,-66 3253,-66 3253,-96"/>
<text text-anchor="start" x="3120" y="-84" font-family="Helvetica,sans-Serif" font-size="10.00">src/app/seamly2d/dialogs</text>
<text text-anchor="middle" x="3182.5" y="-73" font-family="Helvetica,sans-Serif" font-size="10.00">/show_info_dialog.cpp</text>
</a>
</g>
</g>
<!-- Node2&#45;&gt;Node20 -->
<g id="edge19_Node000002_Node000020" class="edge">
<title>Node2&#45;&gt;Node20</title>
<g id="a_edge19_Node000002_Node000020"><a xlink:title=" ">
<path fill="none" stroke="#63b8ff" d="M2289.35,-144.75C2441.8,-141.54 2802.19,-130.62 3102.5,-96 3105.58,-95.64 3108.72,-95.25 3111.89,-94.82"/>
<polygon fill="#63b8ff" stroke="#63b8ff" points="2289.1,-141.26 2279.18,-144.96 2289.25,-148.26 2289.1,-141.26"/>
</a>
</g>
</g>
<!-- Node21 -->
<g id="Node000021" class="node">
<title>Node21</title>
<g id="a_Node000021"><a xlink:href="../../dc/d14/app_2seamly2d_2main_8cpp.html" target="_top" xlink:title=" ">
<polygon fill="white" stroke="#666666" points="3422,-90.5 3271,-90.5 3271,-71.5 3422,-71.5 3422,-90.5"/>
<text text-anchor="middle" x="3346.5" y="-78.5" font-family="Helvetica,sans-Serif" font-size="10.00">src/app/seamly2d/main.cpp</text>
</a>
</g>
</g>
<!-- Node2&#45;&gt;Node21 -->
<g id="edge20_Node000002_Node000021" class="edge">
<title>Node2&#45;&gt;Node21</title>
<g id="a_edge20_Node000002_Node000021"><a xlink:title=" ">
<path fill="none" stroke="#63b8ff" d="M2289.23,-145.4C2460.45,-143.36 2898.07,-134.49 3261.5,-96 3274.29,-94.65 3288.08,-92.62 3300.75,-90.53"/>
<polygon fill="#63b8ff" stroke="#63b8ff" points="2289.03,-141.9 2279.07,-145.51 2289.11,-148.9 2289.03,-141.9"/>
</a>
</g>
</g>
<!-- Node22 -->
<g id="Node000022" class="node">
<title>Node22</title>
<g id="a_Node000022"><a xlink:href="../../d8/dd9/mainwindow_8cpp.html" target="_top" xlink:title=" ">
<polygon fill="white" stroke="#666666" points="3628.5,-90.5 3440.5,-90.5 3440.5,-71.5 3628.5,-71.5 3628.5,-90.5"/>
<text text-anchor="middle" x="3534.5" y="-78.5" font-family="Helvetica,sans-Serif" font-size="10.00">src/app/seamly2d/mainwindow.cpp</text>
</a>
</g>
</g>
<!-- Node2&#45;&gt;Node22 -->
<g id="edge21_Node000002_Node000022" class="edge">
<title>Node2&#45;&gt;Node22</title>
<g id="a_edge21_Node000002_Node000022"><a xlink:title=" ">
<path fill="none" stroke="#63b8ff" d="M2289.34,-145.34C2479.09,-143.14 2999.15,-133.83 3430.5,-96 3446.11,-94.63 3462.97,-92.6 3478.47,-90.51"/>
<polygon fill="#63b8ff" stroke="#63b8ff" points="2289.16,-141.84 2279.2,-145.46 2289.24,-148.84 2289.16,-141.84"/>
</a>
</g>
</g>
<!-- Node23 -->
<g id="Node000023" class="node">
<title>Node23</title>
<g id="a_Node000023"><a xlink:href="../../d8/de8/mainwindowsnogui_8cpp.html" target="_top" xlink:title=" ">
<polygon fill="white" stroke="#666666" points="3868,-90.5 3647,-90.5 3647,-71.5 3868,-71.5 3868,-90.5"/>
<text text-anchor="middle" x="3757.5" y="-78.5" font-family="Helvetica,sans-Serif" font-size="10.00">src/app/seamly2d/mainwindowsnogui.cpp</text>
</a>
</g>
</g>
<!-- Node2&#45;&gt;Node23 -->
<g id="edge22_Node000002_Node000023" class="edge">
<title>Node2&#45;&gt;Node23</title>
<g id="a_edge22_Node000002_Node000023"><a xlink:title=" ">
<path fill="none" stroke="#63b8ff" d="M2289.03,-145.51C2499.49,-143.67 3122.2,-135.05 3637.5,-96 3655.49,-94.64 3674.93,-92.61 3692.82,-90.52"/>
<polygon fill="#63b8ff" stroke="#63b8ff" points="2289,-142.01 2279.03,-145.6 2289.06,-149.01 2289,-142.01"/>
</a>
</g>
</g>
<!-- Node24 -->
<g id="Node000024" class="node">
<title>Node24</title>
<g id="a_Node000024"><a xlink:href="../../d3/d49/vpattern_8cpp.html" target="_top" xlink:title=" ">
<polygon fill="white" stroke="#666666" points="4011,-96 3886,-96 3886,-66 4011,-66 4011,-96"/>
<text text-anchor="start" x="3894" y="-84" font-family="Helvetica,sans-Serif" font-size="10.00">src/app/seamly2d/xml</text>
<text text-anchor="middle" x="3948.5" y="-73" font-family="Helvetica,sans-Serif" font-size="10.00">/vpattern.cpp</text>
</a>
</g>
</g>
<!-- Node2&#45;&gt;Node24 -->
<g id="edge23_Node000002_Node000024" class="edge">
<title>Node2&#45;&gt;Node24</title>
<g id="a_edge23_Node000002_Node000024"><a xlink:title=" ">
<path fill="none" stroke="#63b8ff" d="M2289.25,-145.37C2568.67,-142.73 3562.3,-131.04 3876.5,-96 3879.54,-95.66 3882.64,-95.26 3885.76,-94.82"/>
<polygon fill="#63b8ff" stroke="#63b8ff" points="2289.19,-141.87 2279.22,-145.46 2289.25,-148.87 2289.19,-141.87"/>
</a>
</g>
</g>
<!-- Node26 -->
<g id="Node000026" class="node">
<title>Node26</title>
<g id="a_Node000026"><a xlink:href="../../d4/d90/fvupdater_8cpp.html" target="_top" xlink:title=" ">
<polygon fill="white" stroke="#666666" points="4182,-90.5 4029,-90.5 4029,-71.5 4182,-71.5 4182,-90.5"/>
<text text-anchor="middle" x="4105.5" y="-78.5" font-family="Helvetica,sans-Serif" font-size="10.00">src/libs/fervor/fvupdater.cpp</text>
</a>
</g>
</g>
<!-- Node25&#45;&gt;Node26 -->
<g id="edge25_Node000025_Node000026" class="edge">
<title>Node25&#45;&gt;Node26</title>
<g id="a_edge25_Node000025_Node000026"><a xlink:title=" ">
<path fill="none" stroke="#63b8ff" d="M5640.6,-144.38C5335.86,-139.52 4472.54,-123.63 4190.5,-96 4177.4,-94.72 4163.26,-92.66 4150.35,-90.52"/>
<polygon fill="#63b8ff" stroke="#63b8ff" points="5640.71,-147.88 5650.77,-144.54 5640.82,-140.88 5640.71,-147.88"/>
</a>
</g>
</g>
<!-- Node27 -->
<g id="Node000027" class="node">
<title>Node27</title>
<g id="a_Node000027"><a xlink:href="../../d9/dc8/dxiface_8cpp.html" target="_top" xlink:title=" ">
<polygon fill="white" stroke="#666666" points="4335,-90.5 4200,-90.5 4200,-71.5 4335,-71.5 4335,-90.5"/>
<text text-anchor="middle" x="4267.5" y="-78.5" font-family="Helvetica,sans-Serif" font-size="10.00">src/libs/vdxf/dxiface.cpp</text>
</a>
</g>
</g>
<!-- Node25&#45;&gt;Node27 -->
<g id="edge26_Node000025_Node000027" class="edge">
<title>Node25&#45;&gt;Node27</title>
<g id="a_edge26_Node000025_Node000027"><a xlink:title=" ">
<path fill="none" stroke="#63b8ff" d="M5640.64,-144.21C5356.92,-139.17 4594.41,-123.42 4343.5,-96 4331.76,-94.72 4319.12,-92.66 4307.57,-90.52"/>
<polygon fill="#63b8ff" stroke="#63b8ff" points="5640.88,-147.71 5650.94,-144.39 5641,-140.72 5640.88,-147.71"/>
</a>
</g>
</g>
<!-- Node28 -->
<g id="Node000028" class="node">
<title>Node28</title>
<g id="a_Node000028"><a xlink:href="../../da/d75/vabstractarc__p_8h.html" target="_top" xlink:title=" ">
<polygon fill="#fff0f0" stroke="red" points="4460,-96 4353,-96 4353,-66 4460,-66 4460,-96"/>
<text text-anchor="start" x="4361" y="-84" font-family="Helvetica,sans-Serif" font-size="10.00">src/libs/vgeometry</text>
<text text-anchor="middle" x="4406.5" y="-73" font-family="Helvetica,sans-Serif" font-size="10.00">/vabstractarc_p.h</text>
</a>
</g>
</g>
<!-- Node25&#45;&gt;Node28 -->
<g id="edge27_Node000025_Node000028" class="edge">
<title>Node25&#45;&gt;Node28</title>
<g id="a_edge27_Node000025_Node000028"><a xlink:title=" ">
<path fill="none" stroke="#63b8ff" d="M5640.81,-144.33C5375.16,-139.8 4693.82,-125.59 4468.5,-96 4465.76,-95.64 4462.97,-95.22 4460.16,-94.75"/>
<polygon fill="#63b8ff" stroke="#63b8ff" points="5640.79,-147.83 5650.85,-144.5 5640.91,-140.83 5640.79,-147.83"/>
</a>
</g>
</g>
<!-- Node30 -->
<g id="Node000030" class="node">
<title>Node30</title>
<g id="a_Node000030"><a xlink:href="../../dc/da3/varc__p_8h.html" target="_top" xlink:title=" ">
<polygon fill="#fff0f0" stroke="red" points="4585,-96 4478,-96 4478,-66 4585,-66 4585,-96"/>
<text text-anchor="start" x="4486" y="-84" font-family="Helvetica,sans-Serif" font-size="10.00">src/libs/vgeometry</text>
<text text-anchor="middle" x="4531.5" y="-73" font-family="Helvetica,sans-Serif" font-size="10.00">/varc_p.h</text>
</a>
</g>
</g>
<!-- Node25&#45;&gt;Node30 -->
<g id="edge28_Node000025_Node000030" class="edge">
<title>Node25&#45;&gt;Node30</title>
<g id="a_edge28_Node000025_Node000030"><a xlink:title=" ">
<path fill="none" stroke="#63b8ff" d="M5640.84,-143.8C5394.16,-138.36 4793.89,-122.74 4593.5,-96 4590.77,-95.64 4587.97,-95.21 4585.16,-94.73"/>
<polygon fill="#63b8ff" stroke="#63b8ff" points="5640.82,-147.3 5650.9,-144.02 5640.97,-140.3 5640.82,-147.3"/>
</a>
</g>
</g>
<!-- Node32 -->
<g id="Node000032" class="node">
<title>Node32</title>
<g id="a_Node000032"><a xlink:href="../../d5/d8e/vcubicbezier__p_8h.html" target="_top" xlink:title=" ">
<polygon fill="#fff0f0" stroke="red" points="4710,-96 4603,-96 4603,-66 4710,-66 4710,-96"/>
<text text-anchor="start" x="4611" y="-84" font-family="Helvetica,sans-Serif" font-size="10.00">src/libs/vgeometry</text>
<text text-anchor="middle" x="4656.5" y="-73" font-family="Helvetica,sans-Serif" font-size="10.00">/vcubicbezier_p.h</text>
</a>
</g>
</g>
<!-- Node25&#45;&gt;Node32 -->
<g id="edge29_Node000025_Node000032" class="edge">
<title>Node25&#45;&gt;Node32</title>
<g id="a_edge29_Node000025_Node000032"><a xlink:title=" ">
<path fill="none" stroke="#63b8ff" d="M5640.89,-146.19C5453.8,-145.3 5056.76,-138.06 4724.5,-96 4719.84,-95.41 4715.02,-94.67 4710.19,-93.85"/>
<polygon fill="#63b8ff" stroke="#63b8ff" points="5640.98,-149.69 5651,-146.23 5641.01,-142.69 5640.98,-149.69"/>
</a>
</g>
</g>
<!-- Node34 -->
<g id="Node000034" class="node">
<title>Node34</title>
<g id="a_Node000034"><a xlink:href="../../d6/dfb/vellipticalarc_8cpp.html" target="_top" xlink:title=" ">
<polygon fill="white" stroke="#666666" points="4833,-30 4726,-30 4726,0 4833,0 4833,-30"/>
<text text-anchor="start" x="4734" y="-18" font-family="Helvetica,sans-Serif" font-size="10.00">src/libs/vgeometry</text>
<text text-anchor="middle" x="4779.5" y="-7" font-family="Helvetica,sans-Serif" font-size="10.00">/vellipticalarc.cpp</text>
</a>
</g>
</g>
<!-- Node25&#45;&gt;Node34 -->
<g id="edge30_Node000025_Node000034" class="edge">
<title>Node25&#45;&gt;Node34</title>
<g id="a_edge30_Node000025_Node000034"><a xlink:title=" ">
<path fill="none" stroke="#63b8ff" d="M5640.47,-144.5C5389.8,-140.49 4787.54,-127.59 4757.5,-96 4740.33,-77.94 4756.41,-47.76 4768.65,-30.08"/>
<polygon fill="#63b8ff" stroke="#63b8ff" points="5640.64,-148 5650.69,-144.66 5640.75,-141 5640.64,-148"/>
</a>
</g>
</g>
<!-- Node35 -->
<g id="Node000035" class="node">
<title>Node35</title>
<g id="a_Node000035"><a xlink:href="../../df/dde/vellipticalarc__p_8h.html" target="_top" xlink:title=" ">
<polygon fill="white" stroke="#666666" points="4874,-96 4767,-96 4767,-66 4874,-66 4874,-96"/>
<text text-anchor="start" x="4775" y="-84" font-family="Helvetica,sans-Serif" font-size="10.00">src/libs/vgeometry</text>
<text text-anchor="middle" x="4820.5" y="-73" font-family="Helvetica,sans-Serif" font-size="10.00">/vellipticalarc_p.h</text>
</a>
</g>
</g>
<!-- Node25&#45;&gt;Node35 -->
<g id="edge31_Node000025_Node000035" class="edge">
<title>Node25&#45;&gt;Node35</title>
<g id="a_edge31_Node000025_Node000035"><a xlink:title=" ">
<path fill="none" stroke="#63b8ff" d="M5640.79,-145.45C5476.47,-143.35 5153.64,-134.18 4882.5,-96 4879.77,-95.62 4876.98,-95.17 4874.17,-94.69"/>
<polygon fill="#63b8ff" stroke="#63b8ff" points="5640.86,-148.96 5650.91,-145.58 5640.95,-141.96 5640.86,-148.96"/>
</a>
</g>
</g>
<!-- Node36 -->
<g id="Node000036" class="node">
<title>Node36</title>
<g id="a_Node000036"><a xlink:href="../../d1/d76/vspline__p_8h.html" target="_top" xlink:title=" ">
<polygon fill="#fff0f0" stroke="red" points="4999,-96 4892,-96 4892,-66 4999,-66 4999,-96"/>
<text text-anchor="start" x="4900" y="-84" font-family="Helvetica,sans-Serif" font-size="10.00">src/libs/vgeometry</text>
<text text-anchor="middle" x="4945.5" y="-73" font-family="Helvetica,sans-Serif" font-size="10.00">/vspline_p.h</text>
</a>
</g>
</g>
<!-- Node25&#45;&gt;Node36 -->
<g id="edge33_Node000025_Node000036" class="edge">
<title>Node25&#45;&gt;Node36</title>
<g id="a_edge33_Node000025_Node000036"><a xlink:title=" ">
<path fill="none" stroke="#63b8ff" d="M5640.54,-143.81C5495.96,-139.72 5231.75,-128.16 5008.5,-96 5005.39,-95.55 5002.22,-95.04 4999.01,-94.47"/>
<polygon fill="#63b8ff" stroke="#63b8ff" points="5640.65,-147.32 5650.74,-144.09 5640.84,-140.32 5640.65,-147.32"/>
</a>
</g>
</g>
<!-- Node38 -->
<g id="Node000038" class="node">
<title>Node38</title>
<g id="a_Node000038"><a xlink:href="../../d9/d15/vabstractpiece_8cpp.html" target="_top" xlink:title=" ">
<polygon fill="white" stroke="#666666" points="5203.5,-90.5 5017.5,-90.5 5017.5,-71.5 5203.5,-71.5 5203.5,-90.5"/>
<text text-anchor="middle" x="5110.5" y="-78.5" font-family="Helvetica,sans-Serif" font-size="10.00">src/libs/vlayout/vabstractpiece.cpp</text>
</a>
</g>
</g>
<!-- Node25&#45;&gt;Node38 -->
<g id="edge34_Node000025_Node000038" class="edge">
<title>Node25&#45;&gt;Node38</title>
<g id="a_edge34_Node000025_Node000038"><a xlink:title=" ">
<path fill="none" stroke="#63b8ff" d="M5640.89,-137.41C5532.37,-128.41 5360.1,-113.21 5211.5,-96 5197.61,-94.39 5182.67,-92.44 5168.66,-90.52"/>
<polygon fill="#63b8ff" stroke="#63b8ff" points="5640.61,-140.9 5650.86,-138.23 5641.19,-133.92 5640.61,-140.9"/>
</a>
</g>
</g>
<!-- Node39 -->
<g id="Node000039" class="node">
<title>Node39</title>
<g id="a_Node000039"><a xlink:href="../../dd/d70/vlayoutpiece_8cpp.html" target="_top" xlink:title=" ">
<polygon fill="white" stroke="#666666" points="5398,-90.5 5221,-90.5 5221,-71.5 5398,-71.5 5398,-90.5"/>
<text text-anchor="middle" x="5309.5" y="-78.5" font-family="Helvetica,sans-Serif" font-size="10.00">src/libs/vlayout/vlayoutpiece.cpp</text>
</a>
</g>
</g>
<!-- Node25&#45;&gt;Node39 -->
<g id="edge35_Node000025_Node000039" class="edge">
<title>Node25&#45;&gt;Node39</title>
<g id="a_edge35_Node000025_Node000039"><a xlink:title=" ">
<path fill="none" stroke="#63b8ff" d="M5679.84,-135.99C5594.02,-123.48 5448.62,-102.28 5367.9,-90.51"/>
<polygon fill="#63b8ff" stroke="#63b8ff" points="5679.35,-139.46 5689.75,-137.44 5680.36,-132.53 5679.35,-139.46"/>
</a>
</g>
</g>
<!-- Node40 -->
<g id="Node000040" class="node">
<title>Node40</title>
<g id="a_Node000040"><a xlink:href="../../d8/d70/vtextmanager_8cpp.html" target="_top" xlink:title=" ">
<polygon fill="white" stroke="#666666" points="5598.5,-90.5 5416.5,-90.5 5416.5,-71.5 5598.5,-71.5 5598.5,-90.5"/>
<text text-anchor="middle" x="5507.5" y="-78.5" font-family="Helvetica,sans-Serif" font-size="10.00">src/libs/vlayout/vtextmanager.cpp</text>
</a>
</g>
</g>
<!-- Node25&#45;&gt;Node40 -->
<g id="edge36_Node000025_Node000040" class="edge">
<title>Node25&#45;&gt;Node40</title>
<g id="a_edge36_Node000025_Node000040"><a xlink:title=" ">
<path fill="none" stroke="#63b8ff" d="M5706.33,-134.8C5658.89,-122.2 5582.87,-102.01 5539.87,-90.6"/>
<polygon fill="#63b8ff" stroke="#63b8ff" points="5705.43,-138.18 5716,-137.37 5707.23,-131.42 5705.43,-138.18"/>
</a>
</g>
</g>
<!-- Node41 -->
<g id="Node000041" class="node">
<title>Node41</title>
<g id="a_Node000041"><a xlink:href="../../d6/d0b/def_8cpp.html" target="_top" xlink:title=" ">
<polygon fill="white" stroke="#666666" points="5738.5,-90.5 5616.5,-90.5 5616.5,-71.5 5738.5,-71.5 5738.5,-90.5"/>
<text text-anchor="middle" x="5677.5" y="-78.5" font-family="Helvetica,sans-Serif" font-size="10.00">src/libs/vmisc/def.cpp</text>
</a>
</g>
</g>
<!-- Node25&#45;&gt;Node41 -->
<g id="edge37_Node000025_Node000041" class="edge">
<title>Node25&#45;&gt;Node41</title>
<g id="a_edge37_Node000025_Node000041"><a xlink:title=" ">
<path fill="none" stroke="#63b8ff" d="M5731.12,-130.33C5717.37,-117.94 5698.67,-101.09 5687.38,-90.91"/>
<polygon fill="#63b8ff" stroke="#63b8ff" points="5729.15,-133.27 5738.92,-137.37 5733.84,-128.07 5729.15,-133.27"/>
</a>
</g>
</g>
<!-- Node42 -->
<g id="Node000042" class="node">
<title>Node42</title>
<g id="a_Node000042"><a xlink:href="../../db/d65/dialogexporttocsv_8cpp.html" target="_top" xlink:title=" ">
<polygon fill="white" stroke="#666666" points="5884,-96 5757,-96 5757,-66 5884,-66 5884,-96"/>
<text text-anchor="start" x="5765" y="-84" font-family="Helvetica,sans-Serif" font-size="10.00">src/libs/vmisc/dialogs</text>
<text text-anchor="middle" x="5820.5" y="-73" font-family="Helvetica,sans-Serif" font-size="10.00">/dialogexporttocsv.cpp</text>
</a>
</g>
</g>
<!-- Node25&#45;&gt;Node42 -->
<g id="edge38_Node000025_Node000042" class="edge">
<title>Node25&#45;&gt;Node42</title>
<g id="a_edge38_Node000025_Node000042"><a xlink:title=" ">
<path fill="none" stroke="#63b8ff" d="M5765.7,-130.71C5777.52,-120.21 5793.09,-106.36 5804.62,-96.12"/>
<polygon fill="#63b8ff" stroke="#63b8ff" points="5763.36,-128.11 5758.21,-137.37 5768.01,-133.34 5763.36,-128.11"/>
</a>
</g>
</g>
<!-- Node43 -->
<g id="Node000043" class="node">
<title>Node43</title>
<g id="a_Node000043"><a xlink:href="../../d0/df6/vabstractapplication_8cpp.html" target="_top" xlink:title=" ">
<polygon fill="white" stroke="#666666" points="6108.5,-90.5 5902.5,-90.5 5902.5,-71.5 6108.5,-71.5 6108.5,-90.5"/>
<text text-anchor="middle" x="6005.5" y="-78.5" font-family="Helvetica,sans-Serif" font-size="10.00">src/libs/vmisc/vabstractapplication.cpp</text>
</a>
</g>
</g>
<!-- Node25&#45;&gt;Node43 -->
<g id="edge39_Node000025_Node000043" class="edge">
<title>Node25&#45;&gt;Node43</title>
<g id="a_edge39_Node000025_Node000043"><a xlink:title=" ">
<path fill="none" stroke="#63b8ff" d="M5792.9,-134.94C5843.57,-122.32 5925.35,-101.96 5971.31,-90.51"/>
<polygon fill="#63b8ff" stroke="#63b8ff" points="5791.75,-131.62 5782.89,-137.44 5793.44,-138.41 5791.75,-131.62"/>
</a>
</g>
</g>
<!-- Node44 -->
<g id="Node000044" class="node">
<title>Node44</title>
<g id="a_Node000044"><a xlink:href="../../d4/d4f/pmsystems_8cpp.html" target="_top" xlink:title=" ">
<polygon fill="white" stroke="#666666" points="6234,-96 6127,-96 6127,-66 6234,-66 6234,-96"/>
<text text-anchor="start" x="6135" y="-84" font-family="Helvetica,sans-Serif" font-size="10.00">src/libs/vpatterndb</text>
<text text-anchor="middle" x="6180.5" y="-73" font-family="Helvetica,sans-Serif" font-size="10.00">/pmsystems.cpp</text>
</a>
</g>
</g>
<!-- Node25&#45;&gt;Node44 -->
<g id="edge40_Node000025_Node000044" class="edge">
<title>Node25&#45;&gt;Node44</title>
<g id="a_edge40_Node000025_Node000044"><a xlink:title=" ">
<path fill="none" stroke="#63b8ff" d="M5826.55,-136.21C5917.81,-124.62 6063.29,-105.68 6117.5,-96 6120.59,-95.45 6123.75,-94.85 6126.95,-94.22"/>
<polygon fill="#63b8ff" stroke="#63b8ff" points="5826,-132.75 5816.52,-137.48 5826.88,-139.69 5826,-132.75"/>
</a>
</g>
</g>
<!-- Node45 -->
<g id="Node000045" class="node">
<title>Node45</title>
<g id="a_Node000045"><a xlink:href="../../d6/d46/vcontainer_8cpp.html" target="_top" xlink:title=" ">
<polygon fill="white" stroke="#666666" points="6359,-96 6252,-96 6252,-66 6359,-66 6359,-96"/>
<text text-anchor="start" x="6260" y="-84" font-family="Helvetica,sans-Serif" font-size="10.00">src/libs/vpatterndb</text>
<text text-anchor="middle" x="6305.5" y="-73" font-family="Helvetica,sans-Serif" font-size="10.00">/vcontainer.cpp</text>
</a>
</g>
</g>
<!-- Node25&#45;&gt;Node45 -->
<g id="edge41_Node000025_Node000045" class="edge">
<title>Node25&#45;&gt;Node45</title>
<g id="a_edge41_Node000025_Node000045"><a xlink:title=" ">
<path fill="none" stroke="#63b8ff" d="M5823.37,-136.23C5835.44,-134.75 5847.81,-133.29 5859.5,-132 6029.45,-113.3 6073.61,-122.6 6242.5,-96 6245.6,-95.51 6248.77,-94.96 6251.97,-94.37"/>
<polygon fill="#63b8ff" stroke="#63b8ff" points="5822.81,-132.77 5813.32,-137.47 5823.67,-139.72 5822.81,-132.77"/>
</a>
</g>
</g>
<!-- Node46 -->
<g id="Node000046" class="node">
<title>Node46</title>
<g id="a_Node000046"><a xlink:href="../../db/d11/vformula_8cpp.html" target="_top" xlink:title=" ">
<polygon fill="white" stroke="#666666" points="6484,-96 6377,-96 6377,-66 6484,-66 6484,-96"/>
<text text-anchor="start" x="6385" y="-84" font-family="Helvetica,sans-Serif" font-size="10.00">src/libs/vpatterndb</text>
<text text-anchor="middle" x="6430.5" y="-73" font-family="Helvetica,sans-Serif" font-size="10.00">/vformula.cpp</text>
</a>
</g>
</g>
<!-- Node25&#45;&gt;Node46 -->
<g id="edge42_Node000025_Node000046" class="edge">
<title>Node25&#45;&gt;Node46</title>
<g id="a_edge42_Node000025_Node000046"><a xlink:title=" ">
<path fill="none" stroke="#63b8ff" d="M5821.33,-136.24C5834.04,-134.7 5847.15,-133.22 5859.5,-132 6084.76,-109.83 6143.52,-128.64 6367.5,-96 6370.6,-95.55 6373.78,-95.03 6376.98,-94.46"/>
<polygon fill="#63b8ff" stroke="#63b8ff" points="5820.74,-132.78 5811.24,-137.48 5821.6,-139.73 5820.74,-132.78"/>
</a>
</g>
</g>
<!-- Node47 -->
<g id="Node000047" class="node">
<title>Node47</title>
<g id="a_Node000047"><a xlink:href="../../df/d7a/vpiece_8cpp.html" target="_top" xlink:title=" ">
<polygon fill="white" stroke="#666666" points="6609,-96 6502,-96 6502,-66 6609,-66 6609,-96"/>
<text text-anchor="start" x="6510" y="-84" font-family="Helvetica,sans-Serif" font-size="10.00">src/libs/vpatterndb</text>
<text text-anchor="middle" x="6555.5" y="-73" font-family="Helvetica,sans-Serif" font-size="10.00">/vpiece.cpp</text>
</a>
</g>
</g>
<!-- Node25&#45;&gt;Node47 -->
<g id="edge43_Node000025_Node000047" class="edge">
<title>Node25&#45;&gt;Node47</title>
<g id="a_edge43_Node000025_Node000047"><a xlink:title=" ">
<path fill="none" stroke="#63b8ff" d="M5820.38,-136.2C5833.38,-134.64 5846.83,-133.16 5859.5,-132 6140.12,-106.35 6213.38,-134.69 6492.5,-96 6495.61,-95.57 6498.79,-95.07 6501.99,-94.51"/>
<polygon fill="#63b8ff" stroke="#63b8ff" points="5819.56,-132.78 5810.07,-137.47 5820.42,-139.72 5819.56,-132.78"/>
</a>
</g>
</g>
<!-- Node48 -->
<g id="Node000048" class="node">
<title>Node48</title>
<g id="a_Node000048"><a xlink:href="../../df/dba/vpiecenode__p_8h.html" target="_top" xlink:title=" ">
<polygon fill="#fff0f0" stroke="red" points="6734,-96 6627,-96 6627,-66 6734,-66 6734,-96"/>
<text text-anchor="start" x="6635" y="-84" font-family="Helvetica,sans-Serif" font-size="10.00">src/libs/vpatterndb</text>
<text text-anchor="middle" x="6680.5" y="-73" font-family="Helvetica,sans-Serif" font-size="10.00">/vpiecenode_p.h</text>
</a>
</g>
</g>
<!-- Node25&#45;&gt;Node48 -->
<g id="edge44_Node000025_Node000048" class="edge">
<title>Node25&#45;&gt;Node48</title>
<g id="a_edge44_Node000025_Node000048"><a xlink:title=" ">
<path fill="none" stroke="#63b8ff" d="M5819.27,-136.24C5832.61,-134.63 5846.47,-133.13 5859.5,-132 6195.51,-102.88 6283.21,-140.75 6617.5,-96 6620.61,-95.58 6623.79,-95.09 6627,-94.54"/>
<polygon fill="#63b8ff" stroke="#63b8ff" points="5818.68,-132.78 5809.19,-137.48 5819.54,-139.73 5818.68,-132.78"/>
</a>
</g>
</g>
<!-- Node50 -->
<g id="Node000050" class="node">
<title>Node50</title>
<g id="a_Node000050"><a xlink:href="../../de/d3e/vtranslatevars_8cpp.html" target="_top" xlink:title=" ">
<polygon fill="white" stroke="#666666" points="6862.5,-96 6752.5,-96 6752.5,-66 6862.5,-66 6862.5,-96"/>
<text text-anchor="start" x="6760.5" y="-84" font-family="Helvetica,sans-Serif" font-size="10.00">src/libs/vpatterndb</text>
<text text-anchor="middle" x="6807.5" y="-73" font-family="Helvetica,sans-Serif" font-size="10.00">/vtranslatevars.cpp</text>
</a>
</g>
</g>
<!-- Node25&#45;&gt;Node50 -->
<g id="edge45_Node000025_Node000050" class="edge">
<title>Node25&#45;&gt;Node50</title>
<g id="a_edge45_Node000025_Node000050"><a xlink:title=" ">
<path fill="none" stroke="#63b8ff" d="M5818.79,-136.22C5832.28,-134.6 5846.31,-133.1 5859.5,-132 6250.91,-99.4 6352.87,-145.53 6742.5,-96 6745.71,-95.59 6748.99,-95.11 6752.29,-94.56"/>
<polygon fill="#63b8ff" stroke="#63b8ff" points="5818.1,-132.78 5808.6,-137.48 5818.96,-139.73 5818.1,-132.78"/>
</a>
</g>
</g>
<!-- Node51 -->
<g id="Node000051" class="node">
<title>Node51</title>
<g id="a_Node000051"><a xlink:href="../../df/d40/export__format__combobox_8cpp.html" target="_top" xlink:title=" ">
<polygon fill="white" stroke="#666666" points="7014,-96 6881,-96 6881,-66 7014,-66 7014,-96"/>
<text text-anchor="start" x="6889" y="-84" font-family="Helvetica,sans-Serif" font-size="10.00">src/libs/vwidgets/export</text>
<text text-anchor="middle" x="6947.5" y="-73" font-family="Helvetica,sans-Serif" font-size="10.00">_format_combobox.cpp</text>
</a>
</g>
</g>
<!-- Node25&#45;&gt;Node51 -->
<g id="edge46_Node000025_Node000051" class="edge">
<title>Node25&#45;&gt;Node51</title>
<g id="a_edge46_Node000025_Node000051"><a xlink:title=" ">
<path fill="none" stroke="#63b8ff" d="M5818.31,-136.22C5831.95,-134.59 5846.15,-133.08 5859.5,-132 6308.1,-95.8 6424.1,-144.9 6871.5,-96 6874.57,-95.66 6877.7,-95.28 6880.85,-94.85"/>
<polygon fill="#63b8ff" stroke="#63b8ff" points="5817.52,-132.79 5808.02,-137.49 5818.37,-139.74 5817.52,-132.79"/>
</a>
</g>
</g>
<!-- Node52 -->
<g id="Node000052" class="node">
<title>Node52</title>
<g id="a_Node000052"><a xlink:href="../../d3/d4f/mouse__coordinates_8cpp.html" target="_top" xlink:title=" ">
<polygon fill="white" stroke="#666666" points="7166.5,-96 7032.5,-96 7032.5,-66 7166.5,-66 7166.5,-96"/>
<text text-anchor="start" x="7040.5" y="-84" font-family="Helvetica,sans-Serif" font-size="10.00">src/libs/vwidgets/mouse</text>
<text text-anchor="middle" x="7099.5" y="-73" font-family="Helvetica,sans-Serif" font-size="10.00">_coordinates.cpp</text>
</a>
</g>
</g>
<!-- Node25&#45;&gt;Node52 -->
<g id="edge47_Node000025_Node000052" class="edge">
<title>Node25&#45;&gt;Node52</title>
<g id="a_edge47_Node000025_Node000052"><a xlink:title=" ">
<path fill="none" stroke="#63b8ff" d="M5817.67,-136.25C5831.5,-134.59 5845.94,-133.06 5859.5,-132 6375.06,-91.6 6508.23,-150.4 7022.5,-96 7025.74,-95.66 7029.05,-95.26 7032.39,-94.81"/>
<polygon fill="#63b8ff" stroke="#63b8ff" points="5817.22,-132.78 5807.73,-137.48 5818.08,-139.73 5817.22,-132.78"/>
</a>
</g>
</g>
<!-- Node53 -->
<g id="Node000053" class="node">
<title>Node53</title>
<g id="a_Node000053"><a xlink:href="../../d2/d28/page__format__combobox_8cpp.html" target="_top" xlink:title=" ">
<polygon fill="white" stroke="#666666" points="7316,-96 7185,-96 7185,-66 7316,-66 7316,-96"/>
<text text-anchor="start" x="7193" y="-84" font-family="Helvetica,sans-Serif" font-size="10.00">src/libs/vwidgets/page</text>
<text text-anchor="middle" x="7250.5" y="-73" font-family="Helvetica,sans-Serif" font-size="10.00">_format_combobox.cpp</text>
</a>
</g>
</g>
<!-- Node25&#45;&gt;Node53 -->
<g id="edge48_Node000025_Node000053" class="edge">
<title>Node25&#45;&gt;Node53</title>
<g id="a_edge48_Node000025_Node000053"><a xlink:title=" ">
<path fill="none" stroke="#63b8ff" d="M5817.43,-136.24C5831.33,-134.57 5845.86,-133.04 5859.5,-132 6442.9,-87.34 6593.67,-157.87 7175.5,-96 7178.53,-95.68 7181.62,-95.3 7184.74,-94.88"/>
<polygon fill="#63b8ff" stroke="#63b8ff" points="5816.93,-132.78 5807.44,-137.47 5817.79,-139.72 5816.93,-132.78"/>
</a>
</g>
</g>
<!-- Node25&#45;&gt;Node61 -->
<g id="edge49_Node000025_Node000061" class="edge">
<title>Node25&#45;&gt;Node61</title>
<g id="a_edge49_Node000025_Node000061"><a xlink:title=" ">
<path fill="none" stroke="#63b8ff" d="M5817.19,-136.24C5831.16,-134.56 5845.78,-133.03 5859.5,-132 6508.98,-83.19 6674.85,-142.42 7324.5,-96 7342.61,-94.71 7362.21,-92.65 7380.14,-90.5"/>
<polygon fill="#63b8ff" stroke="#63b8ff" points="5816.64,-132.78 5807.15,-137.48 5817.5,-139.73 5816.64,-132.78"/>
</a>
</g>
</g>
<!-- Node35&#45;&gt;Node34 -->
<g id="edge32_Node000035_Node000034" class="edge">
<title>Node35&#45;&gt;Node34</title>
<g id="a_edge32_Node000035_Node000034"><a xlink:title=" ">
<path fill="none" stroke="#63b8ff" d="M4805.92,-57.24C4800.14,-48.21 4793.66,-38.11 4788.57,-30.16"/>
<polygon fill="#63b8ff" stroke="#63b8ff" points="4803.06,-59.26 4811.4,-65.8 4808.95,-55.49 4803.06,-59.26"/>
</a>
</g>
</g>
</g>
</svg>
