<?xml version="1.0" encoding="UTF-8" standalone="no"?>
<!DOCTYPE svg PUBLIC "-//W3C//DTD SVG 1.1//EN"
 "http://www.w3.org/Graphics/SVG/1.1/DTD/svg11.dtd">
<!-- Generated by graphviz version 2.43.0 (0)
 -->
<!-- Title: src/libs/vgeometry/vabstractcubicbezier.h Pages: 1 -->
<svg width="1460pt" height="368pt"
 viewBox="0.00 0.00 1459.50 368.00" xmlns="http://www.w3.org/2000/svg" xmlns:xlink="http://www.w3.org/1999/xlink">
<g id="graph0" class="graph" transform="scale(1 1) rotate(0) translate(4 364)">
<title>src/libs/vgeometry/vabstractcubicbezier.h</title>
<!-- Node1 -->
<g id="Node000001" class="node">
<title>Node1</title>
<g id="a_Node000001"><a xlink:title=" ">
<polygon fill="#999999" stroke="#666666" points="954.5,-360 825.5,-360 825.5,-330 954.5,-330 954.5,-360"/>
<text text-anchor="start" x="833.5" y="-348" font-family="Helvetica,sans-Serif" font-size="10.00">src/libs/vgeometry</text>
<text text-anchor="middle" x="890" y="-337" font-family="Helvetica,sans-Serif" font-size="10.00">/vabstractcubicbezier.h</text>
</a>
</g>
</g>
<!-- Node2 -->
<g id="Node000002" class="node">
<title>Node2</title>
<g id="a_Node000002"><a xlink:title=" ">
<polygon fill="#e0e0e0" stroke="#999999" points="120,-74 0,-74 0,-55 120,-55 120,-74"/>
<text text-anchor="middle" x="60" y="-62" font-family="Helvetica,sans-Serif" font-size="10.00">qcompilerdetection.h</text>
</a>
</g>
</g>
<!-- Node1&#45;&gt;Node2 -->
<g id="edge1_Node000001_Node000002" class="edge">
<title>Node1&#45;&gt;Node2</title>
<g id="a_edge1_Node000001_Node000002"><a xlink:title=" ">
<path fill="none" stroke="#63b8ff" d="M825.34,-341.34C638.65,-332.81 112,-302.38 112,-230.5 112,-230.5 112,-230.5 112,-173.5 112,-138.15 89.11,-102.16 73.7,-81.95"/>
<polygon fill="#63b8ff" stroke="#63b8ff" points="76.4,-79.73 67.45,-74.06 70.92,-84.07 76.4,-79.73"/>
</a>
</g>
</g>
<!-- Node3 -->
<g id="Node000003" class="node">
<title>Node3</title>
<g id="a_Node000003"><a xlink:title=" ">
<polygon fill="#e0e0e0" stroke="#999999" points="1255.5,-184 1200.5,-184 1200.5,-165 1255.5,-165 1255.5,-184"/>
<text text-anchor="middle" x="1228" y="-172" font-family="Helvetica,sans-Serif" font-size="10.00">QPointF</text>
</a>
</g>
</g>
<!-- Node1&#45;&gt;Node3 -->
<g id="edge2_Node000001_Node000003" class="edge">
<title>Node1&#45;&gt;Node3</title>
<g id="a_edge2_Node000001_Node000003"><a xlink:title=" ">
<path fill="none" stroke="#63b8ff" d="M918.24,-329.92C982.54,-297.86 1139.16,-219.79 1201.63,-188.64"/>
<polygon fill="#63b8ff" stroke="#63b8ff" points="1203.44,-191.66 1210.82,-184.06 1200.31,-185.39 1203.44,-191.66"/>
</a>
</g>
</g>
<!-- Node4 -->
<g id="Node000004" class="node">
<title>Node4</title>
<g id="a_Node000004"><a xlink:title=" ">
<polygon fill="#e0e0e0" stroke="#999999" points="732.5,-74 679.5,-74 679.5,-55 732.5,-55 732.5,-74"/>
<text text-anchor="middle" x="706" y="-62" font-family="Helvetica,sans-Serif" font-size="10.00">QString</text>
</a>
</g>
</g>
<!-- Node1&#45;&gt;Node4 -->
<g id="edge3_Node000001_Node000004" class="edge">
<title>Node1&#45;&gt;Node4</title>
<g id="a_edge3_Node000001_Node000004"><a xlink:title=" ">
<path fill="none" stroke="#63b8ff" d="M825.19,-339.45C709.87,-329.57 481,-301.06 481,-230.5 481,-230.5 481,-230.5 481,-173.5 481,-137.02 502.25,-129.63 533,-110 538.83,-106.28 620.47,-86.15 669.49,-74.28"/>
<polygon fill="#63b8ff" stroke="#63b8ff" points="670.51,-77.63 679.41,-71.88 668.87,-70.83 670.51,-77.63"/>
</a>
</g>
</g>
<!-- Node5 -->
<g id="Node000005" class="node">
<title>Node5</title>
<g id="a_Node000005"><a xlink:title=" ">
<polygon fill="#e0e0e0" stroke="#999999" points="1218.5,-129 1163.5,-129 1163.5,-110 1218.5,-110 1218.5,-129"/>
<text text-anchor="middle" x="1191" y="-117" font-family="Helvetica,sans-Serif" font-size="10.00">QVector</text>
</a>
</g>
</g>
<!-- Node1&#45;&gt;Node5 -->
<g id="edge4_Node000001_Node000005" class="edge">
<title>Node1&#45;&gt;Node5</title>
<g id="a_edge4_Node000001_Node000005"><a xlink:title=" ">
<path fill="none" stroke="#63b8ff" d="M954.6,-337.94C1042.57,-325.8 1196.89,-289.78 1265,-184 1278.73,-162.67 1251.03,-144.55 1225.7,-133.2"/>
<polygon fill="#63b8ff" stroke="#63b8ff" points="1226.77,-129.85 1216.2,-129.18 1224.05,-136.3 1226.77,-129.85"/>
</a>
</g>
</g>
<!-- Node6 -->
<g id="Node000006" class="node">
<title>Node6</title>
<g id="a_Node000006"><a xlink:title=" ">
<polygon fill="#e0e0e0" stroke="#999999" points="809.5,-74 750.5,-74 750.5,-55 809.5,-55 809.5,-74"/>
<text text-anchor="middle" x="780" y="-62" font-family="Helvetica,sans-Serif" font-size="10.00">QtGlobal</text>
</a>
</g>
</g>
<!-- Node1&#45;&gt;Node6 -->
<g id="edge5_Node000001_Node000006" class="edge">
<title>Node1&#45;&gt;Node6</title>
<g id="a_edge5_Node000001_Node000006"><a xlink:title=" ">
<path fill="none" stroke="#63b8ff" d="M836.61,-329.95C790.42,-314.18 731,-283.58 731,-230.5 731,-230.5 731,-230.5 731,-173.5 731,-138.68 752.38,-102.74 766.9,-82.35"/>
<polygon fill="#63b8ff" stroke="#63b8ff" points="769.84,-84.25 772.98,-74.13 764.21,-80.09 769.84,-84.25"/>
</a>
</g>
</g>
<!-- Node7 -->
<g id="Node000007" class="node">
<title>Node7</title>
<g id="a_Node000007"><a xlink:href="../../d3/da5/ifcdef_8h.html" target="_top" xlink:title=" ">
<polygon fill="white" stroke="#666666" points="595.5,-184 518.5,-184 518.5,-165 595.5,-165 595.5,-184"/>
<text text-anchor="middle" x="557" y="-172" font-family="Helvetica,sans-Serif" font-size="10.00">../ifc/ifcdef.h</text>
</a>
</g>
</g>
<!-- Node1&#45;&gt;Node7 -->
<g id="edge6_Node000001_Node000007" class="edge">
<title>Node1&#45;&gt;Node7</title>
<g id="a_edge6_Node000001_Node000007"><a xlink:title=" ">
<path fill="none" stroke="#63b8ff" d="M825.11,-331.05C791.75,-322.96 751.05,-310.84 717,-294 659.72,-265.66 601.73,-216.45 573.92,-191.3"/>
<polygon fill="#63b8ff" stroke="#63b8ff" points="576.04,-188.49 566.3,-184.31 571.31,-193.65 576.04,-188.49"/>
</a>
</g>
</g>
<!-- Node18 -->
<g id="Node000018" class="node">
<title>Node18</title>
<g id="a_Node000018"><a xlink:href="../../d8/d94/vabstractbezier_8h.html" target="_top" xlink:title=" ">
<polygon fill="white" stroke="#666666" points="1451.5,-294 1350.5,-294 1350.5,-275 1451.5,-275 1451.5,-294"/>
<text text-anchor="middle" x="1401" y="-282" font-family="Helvetica,sans-Serif" font-size="10.00">vabstractbezier.h</text>
</a>
</g>
</g>
<!-- Node1&#45;&gt;Node18 -->
<g id="edge24_Node000001_Node000018" class="edge">
<title>Node1&#45;&gt;Node18</title>
<g id="a_edge24_Node000001_Node000018"><a xlink:title=" ">
<path fill="none" stroke="#63b8ff" d="M954.67,-337.13C1041.47,-327.82 1200.45,-310.46 1336,-294 1337.3,-293.84 1338.62,-293.68 1339.95,-293.52"/>
<polygon fill="#63b8ff" stroke="#63b8ff" points="1340.78,-296.94 1350.27,-292.23 1339.91,-289.99 1340.78,-296.94"/>
</a>
</g>
</g>
<!-- Node24 -->
<g id="Node000024" class="node">
<title>Node24</title>
<g id="a_Node000024"><a xlink:href="../../d5/d9d/vgeometrydef_8h.html" target="_top" xlink:title=" ">
<polygon fill="white" stroke="#666666" points="1369,-129 1275,-129 1275,-110 1369,-110 1369,-129"/>
<text text-anchor="middle" x="1322" y="-117" font-family="Helvetica,sans-Serif" font-size="10.00">vgeometrydef.h</text>
</a>
</g>
</g>
<!-- Node1&#45;&gt;Node24 -->
<g id="edge45_Node000001_Node000024" class="edge">
<title>Node1&#45;&gt;Node24</title>
<g id="a_edge45_Node000001_Node000024"><a xlink:title=" ">
<path fill="none" stroke="#63b8ff" d="M954.58,-338.7C1009.24,-332.6 1088.86,-319.87 1154,-294 1196.17,-277.25 1206.97,-270.11 1240,-239 1262,-218.28 1262.77,-208.83 1280,-184 1290.69,-168.6 1302.43,-150.77 1310.77,-137.93"/>
<polygon fill="#63b8ff" stroke="#63b8ff" points="1313.92,-139.51 1316.41,-129.21 1308.04,-135.7 1313.92,-139.51"/>
</a>
</g>
</g>
<!-- Node7&#45;&gt;Node4 -->
<g id="edge7_Node000007_Node000004" class="edge">
<title>Node7&#45;&gt;Node4</title>
<g id="a_edge7_Node000007_Node000004"><a xlink:title=" ">
<path fill="none" stroke="#63b8ff" d="M551.04,-164.74C542.87,-151.54 530.53,-126.33 543,-110 546.92,-104.87 622.56,-85.74 669.41,-74.3"/>
<polygon fill="#63b8ff" stroke="#63b8ff" points="670.32,-77.68 679.21,-71.92 668.67,-70.88 670.32,-77.68"/>
</a>
</g>
</g>
<!-- Node7&#45;&gt;Node6 -->
<g id="edge9_Node000007_Node000006" class="edge">
<title>Node7&#45;&gt;Node6</title>
<g id="a_edge9_Node000007_Node000006"><a xlink:title=" ">
<path fill="none" stroke="#63b8ff" d="M557.13,-164.66C557.84,-150.87 561.3,-124.34 577,-110 630.03,-61.55 665.55,-87.69 739.88,-74.26"/>
<polygon fill="#63b8ff" stroke="#63b8ff" points="741.02,-77.6 750.13,-72.2 739.64,-70.73 741.02,-77.6"/>
</a>
</g>
</g>
<!-- Node8 -->
<g id="Node000008" class="node">
<title>Node8</title>
<g id="a_Node000008"><a xlink:title=" ">
<polygon fill="#e0e0e0" stroke="#999999" points="661,-74 591,-74 591,-55 661,-55 661,-74"/>
<text text-anchor="middle" x="626" y="-62" font-family="Helvetica,sans-Serif" font-size="10.00">QStringList</text>
</a>
</g>
</g>
<!-- Node7&#45;&gt;Node8 -->
<g id="edge8_Node000007_Node000008" class="edge">
<title>Node7&#45;&gt;Node8</title>
<g id="a_edge8_Node000007_Node000008"><a xlink:title=" ">
<path fill="none" stroke="#63b8ff" d="M540.74,-164.8C520.61,-152.87 490.65,-130.57 505,-110 514.13,-96.91 550.62,-84.6 581.16,-76.26"/>
<polygon fill="#63b8ff" stroke="#63b8ff" points="582.06,-79.64 590.83,-73.7 580.27,-72.88 582.06,-79.64"/>
</a>
</g>
</g>
<!-- Node9 -->
<g id="Node000009" class="node">
<title>Node9</title>
<g id="a_Node000009"><a xlink:href="../../d4/da4/def_8h.html" target="_top" xlink:title=" ">
<polygon fill="white" stroke="#666666" points="415,-129 333,-129 333,-110 415,-110 415,-129"/>
<text text-anchor="middle" x="374" y="-117" font-family="Helvetica,sans-Serif" font-size="10.00">../vmisc/def.h</text>
</a>
</g>
</g>
<!-- Node7&#45;&gt;Node9 -->
<g id="edge10_Node000007_Node000009" class="edge">
<title>Node7&#45;&gt;Node9</title>
<g id="a_edge10_Node000007_Node000009"><a xlink:title=" ">
<path fill="none" stroke="#63b8ff" d="M527.6,-164.98C496.61,-156.01 447.62,-141.82 413.33,-131.89"/>
<polygon fill="#63b8ff" stroke="#63b8ff" points="414.21,-128.5 403.63,-129.08 412.26,-135.23 414.21,-128.5"/>
</a>
</g>
</g>
<!-- Node17 -->
<g id="Node000017" class="node">
<title>Node17</title>
<g id="a_Node000017"><a xlink:href="../../d6/dcd/diagnostic_8h.html" target="_top" xlink:title=" ">
<polygon fill="white" stroke="#666666" points="702.5,-129 585.5,-129 585.5,-110 702.5,-110 702.5,-129"/>
<text text-anchor="middle" x="644" y="-117" font-family="Helvetica,sans-Serif" font-size="10.00">../vmisc/diagnostic.h</text>
</a>
</g>
</g>
<!-- Node7&#45;&gt;Node17 -->
<g id="edge22_Node000007_Node000017" class="edge">
<title>Node7&#45;&gt;Node17</title>
<g id="a_edge22_Node000007_Node000017"><a xlink:title=" ">
<path fill="none" stroke="#63b8ff" d="M570.98,-164.98C584.47,-156.77 605.13,-144.18 621.04,-134.49"/>
<polygon fill="#63b8ff" stroke="#63b8ff" points="623.05,-137.36 629.77,-129.17 619.41,-131.38 623.05,-137.36"/>
</a>
</g>
</g>
<!-- Node9&#45;&gt;Node2 -->
<g id="edge11_Node000009_Node000002" class="edge">
<title>Node9&#45;&gt;Node2</title>
<g id="a_edge11_Node000009_Node000002"><a xlink:title=" ">
<path fill="none" stroke="#63b8ff" d="M332.95,-111.57C278.78,-102.43 183,-86.26 120.52,-75.71"/>
<polygon fill="#63b8ff" stroke="#63b8ff" points="120.85,-72.22 110.41,-74.01 119.68,-79.12 120.85,-72.22"/>
</a>
</g>
</g>
<!-- Node9&#45;&gt;Node4 -->
<g id="edge14_Node000009_Node000004" class="edge">
<title>Node9&#45;&gt;Node4</title>
<g id="a_edge14_Node000009_Node000004"><a xlink:title=" ">
<path fill="none" stroke="#63b8ff" d="M415.36,-113.38C470.85,-106.27 572.64,-92.38 669.37,-73.97"/>
<polygon fill="#63b8ff" stroke="#63b8ff" points="670.16,-77.38 679.32,-72.06 668.84,-70.51 670.16,-77.38"/>
</a>
</g>
</g>
<!-- Node9&#45;&gt;Node6 -->
<g id="edge17_Node000009_Node000006" class="edge">
<title>Node9&#45;&gt;Node6</title>
<g id="a_edge17_Node000009_Node000006"><a xlink:title=" ">
<path fill="none" stroke="#63b8ff" d="M415.04,-114.89C481.42,-108.75 616.66,-95.02 740.18,-74.17"/>
<polygon fill="#63b8ff" stroke="#63b8ff" points="740.92,-77.6 750.19,-72.46 739.74,-70.7 740.92,-77.6"/>
</a>
</g>
</g>
<!-- Node9&#45;&gt;Node8 -->
<g id="edge15_Node000009_Node000008" class="edge">
<title>Node9&#45;&gt;Node8</title>
<g id="a_edge15_Node000009_Node000008"><a xlink:title=" ">
<path fill="none" stroke="#63b8ff" d="M414.49,-109.98C459.98,-100.42 533.64,-84.92 580.93,-74.98"/>
<polygon fill="#63b8ff" stroke="#63b8ff" points="581.83,-78.37 590.9,-72.88 580.39,-71.52 581.83,-78.37"/>
</a>
</g>
</g>
<!-- Node10 -->
<g id="Node000010" class="node">
<title>Node10</title>
<g id="a_Node000010"><a xlink:title=" ">
<polygon fill="#e0e0e0" stroke="#999999" points="211.5,-74 138.5,-74 138.5,-55 211.5,-55 211.5,-74"/>
<text text-anchor="middle" x="175" y="-62" font-family="Helvetica,sans-Serif" font-size="10.00">QFileDialog</text>
</a>
</g>
</g>
<!-- Node9&#45;&gt;Node10 -->
<g id="edge12_Node000009_Node000010" class="edge">
<title>Node9&#45;&gt;Node10</title>
<g id="a_edge12_Node000009_Node000010"><a xlink:title=" ">
<path fill="none" stroke="#63b8ff" d="M342.03,-109.98C308.18,-100.97 254.6,-86.7 217.29,-76.76"/>
<polygon fill="#63b8ff" stroke="#63b8ff" points="217.79,-73.27 207.22,-74.08 215.99,-80.04 217.79,-73.27"/>
</a>
</g>
</g>
<!-- Node11 -->
<g id="Node000011" class="node">
<title>Node11</title>
<g id="a_Node000011"><a xlink:title=" ">
<polygon fill="#e0e0e0" stroke="#999999" points="280,-74 230,-74 230,-55 280,-55 280,-74"/>
<text text-anchor="middle" x="255" y="-62" font-family="Helvetica,sans-Serif" font-size="10.00">QLineF</text>
</a>
</g>
</g>
<!-- Node9&#45;&gt;Node11 -->
<g id="edge13_Node000009_Node000011" class="edge">
<title>Node9&#45;&gt;Node11</title>
<g id="a_edge13_Node000009_Node000011"><a xlink:title=" ">
<path fill="none" stroke="#63b8ff" d="M354.88,-109.98C335.65,-101.42 305.77,-88.11 283.69,-78.28"/>
<polygon fill="#63b8ff" stroke="#63b8ff" points="285.03,-75.04 274.47,-74.17 282.18,-81.44 285.03,-75.04"/>
</a>
</g>
</g>
<!-- Node12 -->
<g id="Node000012" class="node">
<title>Node12</title>
<g id="a_Node000012"><a xlink:title=" ">
<polygon fill="#e0e0e0" stroke="#999999" points="327.5,-74 298.5,-74 298.5,-55 327.5,-55 327.5,-74"/>
<text text-anchor="middle" x="313" y="-62" font-family="Helvetica,sans-Serif" font-size="10.00">Qt</text>
</a>
</g>
</g>
<!-- Node9&#45;&gt;Node12 -->
<g id="edge16_Node000009_Node000012" class="edge">
<title>Node9&#45;&gt;Node12</title>
<g id="a_edge16_Node000009_Node000012"><a xlink:title=" ">
<path fill="none" stroke="#63b8ff" d="M364.2,-109.98C355.18,-102.15 341.59,-90.34 330.68,-80.86"/>
<polygon fill="#63b8ff" stroke="#63b8ff" points="332.82,-78.09 322.98,-74.17 328.23,-83.37 332.82,-78.09"/>
</a>
</g>
</g>
<!-- Node13 -->
<g id="Node000013" class="node">
<title>Node13</title>
<g id="a_Node000013"><a xlink:title=" ">
<polygon fill="#e0e0e0" stroke="#999999" points="402,-74 346,-74 346,-55 402,-55 402,-74"/>
<text text-anchor="middle" x="374" y="-62" font-family="Helvetica,sans-Serif" font-size="10.00">QPrinter</text>
</a>
</g>
</g>
<!-- Node9&#45;&gt;Node13 -->
<g id="edge18_Node000009_Node000013" class="edge">
<title>Node9&#45;&gt;Node13</title>
<g id="a_edge18_Node000009_Node000013"><a xlink:title=" ">
<path fill="none" stroke="#63b8ff" d="M374,-109.75C374,-102.8 374,-92.85 374,-84.13"/>
<polygon fill="#63b8ff" stroke="#63b8ff" points="377.5,-84.09 374,-74.09 370.5,-84.09 377.5,-84.09"/>
</a>
</g>
</g>
<!-- Node14 -->
<g id="Node000014" class="node">
<title>Node14</title>
<g id="a_Node000014"><a xlink:title=" ">
<polygon fill="#e0e0e0" stroke="#999999" points="471.5,-74 420.5,-74 420.5,-55 471.5,-55 471.5,-74"/>
<text text-anchor="middle" x="446" y="-62" font-family="Helvetica,sans-Serif" font-size="10.00">csignal</text>
</a>
</g>
</g>
<!-- Node9&#45;&gt;Node14 -->
<g id="edge19_Node000009_Node000014" class="edge">
<title>Node9&#45;&gt;Node14</title>
<g id="a_edge19_Node000009_Node000014"><a xlink:title=" ">
<path fill="none" stroke="#63b8ff" d="M385.57,-109.98C396.42,-102 412.88,-89.88 425.88,-80.31"/>
<polygon fill="#63b8ff" stroke="#63b8ff" points="428.24,-82.92 434.22,-74.17 424.09,-77.28 428.24,-82.92"/>
</a>
</g>
</g>
<!-- Node15 -->
<g id="Node000015" class="node">
<title>Node15</title>
<g id="a_Node000015"><a xlink:href="../../d4/d82/debugbreak_8h.html" target="_top" xlink:title=" ">
<polygon fill="white" stroke="#666666" points="572.5,-74 489.5,-74 489.5,-55 572.5,-55 572.5,-74"/>
<text text-anchor="middle" x="531" y="-62" font-family="Helvetica,sans-Serif" font-size="10.00">debugbreak.h</text>
</a>
</g>
</g>
<!-- Node9&#45;&gt;Node15 -->
<g id="edge20_Node000009_Node000015" class="edge">
<title>Node9&#45;&gt;Node15</title>
<g id="a_edge20_Node000009_Node000015"><a xlink:title=" ">
<path fill="none" stroke="#63b8ff" d="M399.22,-109.98C425.36,-101.16 466.4,-87.31 495.73,-77.41"/>
<polygon fill="#63b8ff" stroke="#63b8ff" points="497.22,-80.6 505.58,-74.08 494.98,-73.96 497.22,-80.6"/>
</a>
</g>
</g>
<!-- Node16 -->
<g id="Node000016" class="node">
<title>Node16</title>
<g id="a_Node000016"><a xlink:title=" ">
<polygon fill="#e0e0e0" stroke="#999999" points="558.5,-19 503.5,-19 503.5,0 558.5,0 558.5,-19"/>
<text text-anchor="middle" x="531" y="-7" font-family="Helvetica,sans-Serif" font-size="10.00">signal.h</text>
</a>
</g>
</g>
<!-- Node15&#45;&gt;Node16 -->
<g id="edge21_Node000015_Node000016" class="edge">
<title>Node15&#45;&gt;Node16</title>
<g id="a_edge21_Node000015_Node000016"><a xlink:title=" ">
<path fill="none" stroke="#63b8ff" d="M531,-54.75C531,-47.8 531,-37.85 531,-29.13"/>
<polygon fill="#63b8ff" stroke="#63b8ff" points="534.5,-29.09 531,-19.09 527.5,-29.09 534.5,-29.09"/>
</a>
</g>
</g>
<!-- Node17&#45;&gt;Node6 -->
<g id="edge23_Node000017_Node000006" class="edge">
<title>Node17&#45;&gt;Node6</title>
<g id="a_edge23_Node000017_Node000006"><a xlink:title=" ">
<path fill="none" stroke="#63b8ff" d="M665.85,-109.98C688.12,-101.3 722.9,-87.75 748.22,-77.88"/>
<polygon fill="#63b8ff" stroke="#63b8ff" points="749.71,-81.06 757.75,-74.17 747.16,-74.54 749.71,-81.06"/>
</a>
</g>
</g>
<!-- Node18&#45;&gt;Node6 -->
<g id="edge25_Node000018_Node000006" class="edge">
<title>Node18&#45;&gt;Node6</title>
<g id="a_edge25_Node000018_Node000006"><a xlink:title=" ">
<path fill="none" stroke="#63b8ff" d="M1403.16,-274.63C1409.59,-245.89 1425.28,-154.64 1378,-110 1337.5,-71.77 946.89,-66.36 819.76,-65.61"/>
<polygon fill="#63b8ff" stroke="#63b8ff" points="819.7,-62.11 809.68,-65.56 819.66,-69.11 819.7,-62.11"/>
</a>
</g>
</g>
<!-- Node19 -->
<g id="Node000019" class="node">
<title>Node19</title>
<g id="a_Node000019"><a xlink:href="../../d5/d82/vabstractcurve_8h.html" target="_top" xlink:title=" ">
<polygon fill="white" stroke="#666666" points="1052,-239 954,-239 954,-220 1052,-220 1052,-239"/>
<text text-anchor="middle" x="1003" y="-227" font-family="Helvetica,sans-Serif" font-size="10.00">vabstractcurve.h</text>
</a>
</g>
</g>
<!-- Node18&#45;&gt;Node19 -->
<g id="edge26_Node000018_Node000019" class="edge">
<title>Node18&#45;&gt;Node19</title>
<g id="a_edge26_Node000018_Node000019"><a xlink:title=" ">
<path fill="none" stroke="#63b8ff" d="M1350.19,-276.73C1276.58,-266.93 1140.58,-248.82 1062.43,-238.41"/>
<polygon fill="#63b8ff" stroke="#63b8ff" points="1062.63,-234.91 1052.26,-237.06 1061.71,-241.85 1062.63,-234.91"/>
</a>
</g>
</g>
<!-- Node19&#45;&gt;Node2 -->
<g id="edge27_Node000019_Node000002" class="edge">
<title>Node19&#45;&gt;Node2</title>
<g id="a_edge27_Node000019_Node000002"><a xlink:title=" ">
<path fill="none" stroke="#63b8ff" d="M953.66,-226.78C864.49,-223.07 670.82,-212.23 510,-184 353.45,-156.52 171.73,-101.29 96,-77.19"/>
<polygon fill="#63b8ff" stroke="#63b8ff" points="96.62,-73.71 86.03,-74 94.49,-80.38 96.62,-73.71"/>
</a>
</g>
</g>
<!-- Node19&#45;&gt;Node3 -->
<g id="edge28_Node000019_Node000003" class="edge">
<title>Node19&#45;&gt;Node3</title>
<g id="a_edge28_Node000019_Node000003"><a xlink:title=" ">
<path fill="none" stroke="#63b8ff" d="M1039.15,-219.98C1080.69,-210.2 1148.54,-194.22 1190.6,-184.31"/>
<polygon fill="#63b8ff" stroke="#63b8ff" points="1191.52,-187.69 1200.45,-181.99 1189.91,-180.88 1191.52,-187.69"/>
</a>
</g>
</g>
<!-- Node19&#45;&gt;Node4 -->
<g id="edge30_Node000019_Node000004" class="edge">
<title>Node19&#45;&gt;Node4</title>
<g id="a_edge30_Node000019_Node000004"><a xlink:title=" ">
<path fill="none" stroke="#63b8ff" d="M953.72,-228.1C908.12,-225.56 840.15,-216.04 791,-184 752.43,-158.85 725.76,-109.63 713.55,-83.23"/>
<polygon fill="#63b8ff" stroke="#63b8ff" points="716.72,-81.75 709.46,-74.04 710.33,-84.6 716.72,-81.75"/>
</a>
</g>
</g>
<!-- Node19&#45;&gt;Node5 -->
<g id="edge32_Node000019_Node000005" class="edge">
<title>Node19&#45;&gt;Node5</title>
<g id="a_edge32_Node000019_Node000005"><a xlink:title=" ">
<path fill="none" stroke="#63b8ff" d="M1018.07,-219.84C1050.6,-201.16 1127.64,-156.9 1166.98,-134.3"/>
<polygon fill="#63b8ff" stroke="#63b8ff" points="1169.19,-137.06 1176.12,-129.05 1165.71,-130.99 1169.19,-137.06"/>
</a>
</g>
</g>
<!-- Node19&#45;&gt;Node6 -->
<g id="edge33_Node000019_Node000006" class="edge">
<title>Node19&#45;&gt;Node6</title>
<g id="a_edge33_Node000019_Node000006"><a xlink:title=" ">
<path fill="none" stroke="#63b8ff" d="M1025.16,-220C1047.15,-211.41 1081.73,-197.52 1111,-184 1127.78,-176.25 1131.34,-173.02 1148,-165 1183.13,-148.09 1206.83,-161.74 1228,-129 1232.59,-121.91 1233.67,-116.26 1228,-110 1200.83,-80 924.33,-69.41 819.77,-66.47"/>
<polygon fill="#63b8ff" stroke="#63b8ff" points="819.71,-62.96 809.62,-66.19 819.52,-69.96 819.71,-62.96"/>
</a>
</g>
</g>
<!-- Node19&#45;&gt;Node7 -->
<g id="edge34_Node000019_Node000007" class="edge">
<title>Node19&#45;&gt;Node7</title>
<g id="a_edge34_Node000019_Node000007"><a xlink:title=" ">
<path fill="none" stroke="#63b8ff" d="M953.99,-222.68C868.1,-212.47 691.38,-191.47 605.7,-181.29"/>
<polygon fill="#63b8ff" stroke="#63b8ff" points="606.06,-177.81 595.72,-180.1 605.23,-184.76 606.06,-177.81"/>
</a>
</g>
</g>
<!-- Node20 -->
<g id="Node000020" class="node">
<title>Node20</title>
<g id="a_Node000020"><a xlink:title=" ">
<polygon fill="#e0e0e0" stroke="#999999" points="985,-129 869,-129 869,-110 985,-110 985,-129"/>
<text text-anchor="middle" x="927" y="-117" font-family="Helvetica,sans-Serif" font-size="10.00">QSharedDataPointer</text>
</a>
</g>
</g>
<!-- Node19&#45;&gt;Node20 -->
<g id="edge29_Node000019_Node000020" class="edge">
<title>Node19&#45;&gt;Node20</title>
<g id="a_edge29_Node000019_Node000020"><a xlink:title=" ">
<path fill="none" stroke="#63b8ff" d="M996.78,-219.66C984.14,-201.69 955.25,-160.64 938.88,-137.38"/>
<polygon fill="#63b8ff" stroke="#63b8ff" points="941.71,-135.32 933.09,-129.16 935.99,-139.35 941.71,-135.32"/>
</a>
</g>
</g>
<!-- Node21 -->
<g id="Node000021" class="node">
<title>Node21</title>
<g id="a_Node000021"><a xlink:title=" ">
<polygon fill="#e0e0e0" stroke="#999999" points="1068.5,-129 1003.5,-129 1003.5,-110 1068.5,-110 1068.5,-129"/>
<text text-anchor="middle" x="1036" y="-117" font-family="Helvetica,sans-Serif" font-size="10.00">QTypeInfo</text>
</a>
</g>
</g>
<!-- Node19&#45;&gt;Node21 -->
<g id="edge31_Node000019_Node000021" class="edge">
<title>Node19&#45;&gt;Node21</title>
<g id="a_edge31_Node000019_Node000021"><a xlink:title=" ">
<path fill="none" stroke="#63b8ff" d="M998.4,-219.96C992.31,-207.46 983.22,-183.64 991,-165 995.86,-153.36 1005.42,-143.2 1014.48,-135.55"/>
<polygon fill="#63b8ff" stroke="#63b8ff" points="1016.8,-138.17 1022.51,-129.25 1012.48,-132.67 1016.8,-138.17"/>
</a>
</g>
</g>
<!-- Node22 -->
<g id="Node000022" class="node">
<title>Node22</title>
<g id="a_Node000022"><a xlink:href="../../db/db3/vmath_8h.html" target="_top" xlink:title=" ">
<polygon fill="white" stroke="#666666" points="898,-184 800,-184 800,-165 898,-165 898,-184"/>
<text text-anchor="middle" x="849" y="-172" font-family="Helvetica,sans-Serif" font-size="10.00">../vmisc/vmath.h</text>
</a>
</g>
</g>
<!-- Node19&#45;&gt;Node22 -->
<g id="edge35_Node000019_Node000022" class="edge">
<title>Node19&#45;&gt;Node22</title>
<g id="a_edge35_Node000019_Node000022"><a xlink:title=" ">
<path fill="none" stroke="#63b8ff" d="M978.26,-219.98C952.63,-211.16 912.37,-197.31 883.59,-187.41"/>
<polygon fill="#63b8ff" stroke="#63b8ff" points="884.53,-184.03 873.94,-184.08 882.25,-190.65 884.53,-184.03"/>
</a>
</g>
</g>
<!-- Node19&#45;&gt;Node24 -->
<g id="edge37_Node000019_Node000024" class="edge">
<title>Node19&#45;&gt;Node24</title>
<g id="a_edge37_Node000019_Node000024"><a xlink:title=" ">
<path fill="none" stroke="#63b8ff" d="M1034.44,-219.93C1064.04,-211.61 1109.45,-198.19 1148,-184 1167.99,-176.64 1172.13,-172.68 1192,-165 1223.27,-152.92 1259.39,-140.69 1285.61,-132.12"/>
<polygon fill="#63b8ff" stroke="#63b8ff" points="1286.71,-135.44 1295.14,-129.02 1284.55,-128.78 1286.71,-135.44"/>
</a>
</g>
</g>
<!-- Node25 -->
<g id="Node000025" class="node">
<title>Node25</title>
<g id="a_Node000025"><a xlink:href="../../d2/d07/vgobject_8h.html" target="_top" xlink:title=" ">
<polygon fill="white" stroke="#666666" points="1068,-184 1000,-184 1000,-165 1068,-165 1068,-184"/>
<text text-anchor="middle" x="1034" y="-172" font-family="Helvetica,sans-Serif" font-size="10.00">vgobject.h</text>
</a>
</g>
</g>
<!-- Node19&#45;&gt;Node25 -->
<g id="edge38_Node000019_Node000025" class="edge">
<title>Node19&#45;&gt;Node25</title>
<g id="a_edge38_Node000019_Node000025"><a xlink:title=" ">
<path fill="none" stroke="#63b8ff" d="M1008.12,-219.75C1012.36,-212.49 1018.53,-201.95 1023.78,-192.98"/>
<polygon fill="#63b8ff" stroke="#63b8ff" points="1026.95,-194.49 1028.98,-184.09 1020.91,-190.95 1026.95,-194.49"/>
</a>
</g>
</g>
<!-- Node23 -->
<g id="Node000023" class="node">
<title>Node23</title>
<g id="a_Node000023"><a xlink:title=" ">
<polygon fill="#e0e0e0" stroke="#999999" points="850.5,-129 797.5,-129 797.5,-110 850.5,-110 850.5,-129"/>
<text text-anchor="middle" x="824" y="-117" font-family="Helvetica,sans-Serif" font-size="10.00">QtMath</text>
</a>
</g>
</g>
<!-- Node22&#45;&gt;Node23 -->
<g id="edge36_Node000022_Node000023" class="edge">
<title>Node22&#45;&gt;Node23</title>
<g id="a_edge36_Node000022_Node000023"><a xlink:title=" ">
<path fill="none" stroke="#63b8ff" d="M844.87,-164.75C841.49,-157.57 836.58,-147.18 832.38,-138.27"/>
<polygon fill="#63b8ff" stroke="#63b8ff" points="835.48,-136.64 828.05,-129.09 829.15,-139.63 835.48,-136.64"/>
</a>
</g>
</g>
<!-- Node25&#45;&gt;Node4 -->
<g id="edge40_Node000025_Node000004" class="edge">
<title>Node25&#45;&gt;Node4</title>
<g id="a_edge40_Node000025_Node000004"><a xlink:title=" ">
<path fill="none" stroke="#63b8ff" d="M1047.29,-164.99C1065.51,-152.32 1094.23,-128.06 1078,-110 1029.72,-56.27 831.92,-84.3 742.73,-73.64"/>
<polygon fill="#63b8ff" stroke="#63b8ff" points="743.06,-70.15 732.66,-72.19 742.06,-77.08 743.06,-70.15"/>
</a>
</g>
</g>
<!-- Node25&#45;&gt;Node5 -->
<g id="edge42_Node000025_Node000005" class="edge">
<title>Node25&#45;&gt;Node5</title>
<g id="a_edge42_Node000025_Node000005"><a xlink:title=" ">
<path fill="none" stroke="#63b8ff" d="M1059.22,-164.98C1085.36,-156.16 1126.4,-142.31 1155.73,-132.41"/>
<polygon fill="#63b8ff" stroke="#63b8ff" points="1157.22,-135.6 1165.58,-129.08 1154.98,-128.96 1157.22,-135.6"/>
</a>
</g>
</g>
<!-- Node25&#45;&gt;Node6 -->
<g id="edge43_Node000025_Node000006" class="edge">
<title>Node25&#45;&gt;Node6</title>
<g id="a_edge43_Node000025_Node000006"><a xlink:title=" ">
<path fill="none" stroke="#63b8ff" d="M1059.26,-164.92C1088.63,-153.63 1130.73,-132.56 1111,-110 1073.56,-67.19 899.1,-63.86 819.63,-64.64"/>
<polygon fill="#63b8ff" stroke="#63b8ff" points="819.47,-61.14 809.52,-64.77 819.56,-68.14 819.47,-61.14"/>
</a>
</g>
</g>
<!-- Node25&#45;&gt;Node20 -->
<g id="edge39_Node000025_Node000020" class="edge">
<title>Node25&#45;&gt;Node20</title>
<g id="a_edge39_Node000025_Node000020"><a xlink:title=" ">
<path fill="none" stroke="#63b8ff" d="M1016.81,-164.98C999.75,-156.54 973.37,-143.47 953.6,-133.68"/>
<polygon fill="#63b8ff" stroke="#63b8ff" points="955.02,-130.47 944.5,-129.17 951.91,-136.75 955.02,-130.47"/>
</a>
</g>
</g>
<!-- Node25&#45;&gt;Node21 -->
<g id="edge41_Node000025_Node000021" class="edge">
<title>Node25&#45;&gt;Node21</title>
<g id="a_edge41_Node000025_Node000021"><a xlink:title=" ">
<path fill="none" stroke="#63b8ff" d="M1034.33,-164.75C1034.59,-157.8 1034.97,-147.85 1035.3,-139.13"/>
<polygon fill="#63b8ff" stroke="#63b8ff" points="1038.8,-139.21 1035.68,-129.09 1031.8,-138.95 1038.8,-139.21"/>
</a>
</g>
</g>
<!-- Node25&#45;&gt;Node24 -->
<g id="edge44_Node000025_Node000024" class="edge">
<title>Node25&#45;&gt;Node24</title>
<g id="a_edge44_Node000025_Node000024"><a xlink:title=" ">
<path fill="none" stroke="#63b8ff" d="M1068.17,-167.21C1116.97,-158.23 1207.22,-141.62 1265.91,-130.82"/>
<polygon fill="#63b8ff" stroke="#63b8ff" points="1266.56,-134.26 1275.76,-129.01 1265.3,-127.38 1266.56,-134.26"/>
</a>
</g>
</g>
</g>
</svg>
