<?xml version="1.0" encoding="UTF-8" standalone="no"?>
<!DOCTYPE svg PUBLIC "-//W3C//DTD SVG 1.1//EN"
 "http://www.w3.org/Graphics/SVG/1.1/DTD/svg11.dtd">
<!-- Generated by graphviz version 2.43.0 (0)
 -->
<!-- Title: src/app/seamly2d/core/vapplication.cpp Pages: 1 -->
<svg width="4205pt" height="313pt"
 viewBox="0.00 0.00 4205.00 313.00" xmlns="http://www.w3.org/2000/svg" xmlns:xlink="http://www.w3.org/1999/xlink">
<g id="graph0" class="graph" transform="scale(1 1) rotate(0) translate(4 309)">
<title>src/app/seamly2d/core/vapplication.cpp</title>
<!-- Node1 -->
<g id="Node000001" class="node">
<title>Node1</title>
<g id="a_Node000001"><a xlink:title=" ">
<polygon fill="#999999" stroke="#666666" points="3148.5,-305 3021.5,-305 3021.5,-275 3148.5,-275 3148.5,-305"/>
<text text-anchor="start" x="3029.5" y="-293" font-family="Helvetica,sans-Serif" font-size="10.00">src/app/seamly2d/core</text>
<text text-anchor="middle" x="3085" y="-282" font-family="Helvetica,sans-Serif" font-size="10.00">/vapplication.cpp</text>
</a>
</g>
</g>
<!-- Node2 -->
<g id="Node000002" class="node">
<title>Node2</title>
<g id="a_Node000002"><a xlink:href="../../d9/d02/vapplication_8h.html" target="_top" xlink:title=" ">
<polygon fill="white" stroke="#666666" points="1056,-239 970,-239 970,-220 1056,-220 1056,-239"/>
<text text-anchor="middle" x="1013" y="-227" font-family="Helvetica,sans-Serif" font-size="10.00">vapplication.h</text>
</a>
</g>
</g>
<!-- Node1&#45;&gt;Node2 -->
<g id="edge1_Node000001_Node000002" class="edge">
<title>Node1&#45;&gt;Node2</title>
<g id="a_edge1_Node000001_Node000002"><a xlink:title=" ">
<path fill="none" stroke="#63b8ff" d="M3021.29,-287.2C2709.99,-278.41 1352.4,-240.08 1066.12,-232"/>
<polygon fill="#63b8ff" stroke="#63b8ff" points="1066.1,-228.5 1056,-231.71 1065.9,-235.5 1066.1,-228.5"/>
</a>
</g>
</g>
<!-- Node9 -->
<g id="Node000009" class="node">
<title>Node9</title>
<g id="a_Node000009"><a xlink:title=" ">
<polygon fill="#e0e0e0" stroke="#999999" points="1431,-184 1255,-184 1255,-165 1431,-165 1431,-184"/>
<text text-anchor="middle" x="1343" y="-172" font-family="Helvetica,sans-Serif" font-size="10.00">../vwidgets/vmaingraphicsview.h</text>
</a>
</g>
</g>
<!-- Node1&#45;&gt;Node9 -->
<g id="edge49_Node000001_Node000009" class="edge">
<title>Node1&#45;&gt;Node9</title>
<g id="a_edge49_Node000001_Node000009"><a xlink:title=" ">
<path fill="none" stroke="#63b8ff" d="M3021.37,-288.38C2743.53,-285.5 1643.84,-272.09 1493,-239 1446.34,-228.77 1395.96,-204.39 1367.07,-188.99"/>
<polygon fill="#63b8ff" stroke="#63b8ff" points="1368.6,-185.84 1358.14,-184.15 1365.26,-191.99 1368.6,-185.84"/>
</a>
</g>
</g>
<!-- Node23 -->
<g id="Node000023" class="node">
<title>Node23</title>
<g id="a_Node000023"><a xlink:title=" ">
<polygon fill="#e0e0e0" stroke="#999999" points="1508.5,-74 1479.5,-74 1479.5,-55 1508.5,-55 1508.5,-74"/>
<text text-anchor="middle" x="1494" y="-62" font-family="Helvetica,sans-Serif" font-size="10.00">Qt</text>
</a>
</g>
</g>
<!-- Node1&#45;&gt;Node23 -->
<g id="edge50_Node000001_Node000023" class="edge">
<title>Node1&#45;&gt;Node23</title>
<g id="a_edge50_Node000001_Node000023"><a xlink:title=" ">
<path fill="none" stroke="#63b8ff" d="M3021.23,-289.16C2735.52,-289.59 1584.62,-288.27 1527,-239 1481.79,-200.34 1486.15,-120.63 1490.91,-84.3"/>
<polygon fill="#63b8ff" stroke="#63b8ff" points="1494.42,-84.53 1492.41,-74.13 1487.49,-83.51 1494.42,-84.53"/>
</a>
</g>
</g>
<!-- Node47 -->
<g id="Node000047" class="node">
<title>Node47</title>
<g id="a_Node000047"><a xlink:href="../../d9/d53/mainwindow_8h.html" target="_top" xlink:title=" ">
<polygon fill="white" stroke="#666666" points="402,-239 306,-239 306,-220 402,-220 402,-239"/>
<text text-anchor="middle" x="354" y="-227" font-family="Helvetica,sans-Serif" font-size="10.00">../mainwindow.h</text>
</a>
</g>
</g>
<!-- Node1&#45;&gt;Node47 -->
<g id="edge33_Node000001_Node000047" class="edge">
<title>Node1&#45;&gt;Node47</title>
<g id="a_edge33_Node000001_Node000047"><a xlink:title=" ">
<path fill="none" stroke="#63b8ff" d="M3021.18,-287.63C2649.53,-279.67 768.49,-239.38 412.27,-231.75"/>
<polygon fill="#63b8ff" stroke="#63b8ff" points="412.25,-228.25 402.17,-231.53 412.1,-235.25 412.25,-228.25"/>
</a>
</g>
</g>
<!-- Node64 -->
<g id="Node000064" class="node">
<title>Node64</title>
<g id="a_Node000064"><a xlink:href="../../d1/d9f/seamly2d_2version_8h.html" target="_top" xlink:title=" ">
<polygon fill="white" stroke="#666666" points="1606.5,-239 1535.5,-239 1535.5,-220 1606.5,-220 1606.5,-239"/>
<text text-anchor="middle" x="1571" y="-227" font-family="Helvetica,sans-Serif" font-size="10.00">../version.h</text>
</a>
</g>
</g>
<!-- Node1&#45;&gt;Node64 -->
<g id="edge39_Node000001_Node000064" class="edge">
<title>Node1&#45;&gt;Node64</title>
<g id="a_edge39_Node000001_Node000064"><a xlink:title=" ">
<path fill="none" stroke="#63b8ff" d="M3021.32,-288.13C2779.22,-284.61 1915.1,-270.2 1617.15,-238.89"/>
<polygon fill="#63b8ff" stroke="#63b8ff" points="1617.11,-235.37 1606.79,-237.77 1616.35,-242.33 1617.11,-235.37"/>
</a>
</g>
</g>
<!-- Node66 -->
<g id="Node000066" class="node">
<title>Node66</title>
<g id="a_Node000066"><a xlink:title=" ">
<polygon fill="#e0e0e0" stroke="#999999" points="1831.5,-239 1624.5,-239 1624.5,-220 1831.5,-220 1831.5,-239"/>
<text text-anchor="middle" x="1728" y="-227" font-family="Helvetica,sans-Serif" font-size="10.00">../ifc/exception/vexceptionobjecterror.h</text>
</a>
</g>
</g>
<!-- Node1&#45;&gt;Node66 -->
<g id="edge41_Node000001_Node000066" class="edge">
<title>Node1&#45;&gt;Node66</title>
<g id="a_edge41_Node000001_Node000066"><a xlink:title=" ">
<path fill="none" stroke="#63b8ff" d="M3021.2,-287.22C2839.05,-281.98 2300.77,-265.31 1841.89,-239.03"/>
<polygon fill="#63b8ff" stroke="#63b8ff" points="1841.93,-235.53 1831.75,-238.45 1841.53,-242.51 1841.93,-235.53"/>
</a>
</g>
</g>
<!-- Node67 -->
<g id="Node000067" class="node">
<title>Node67</title>
<g id="a_Node000067"><a xlink:title=" ">
<polygon fill="#e0e0e0" stroke="#999999" points="2032,-239 1850,-239 1850,-220 2032,-220 2032,-239"/>
<text text-anchor="middle" x="1941" y="-227" font-family="Helvetica,sans-Serif" font-size="10.00">../ifc/exception/vexceptionbadid.h</text>
</a>
</g>
</g>
<!-- Node1&#45;&gt;Node67 -->
<g id="edge42_Node000001_Node000067" class="edge">
<title>Node1&#45;&gt;Node67</title>
<g id="a_edge42_Node000001_Node000067"><a xlink:title=" ">
<path fill="none" stroke="#63b8ff" d="M3021.4,-286.77C2859.79,-280.94 2419.99,-263.96 2042.05,-239.04"/>
<polygon fill="#63b8ff" stroke="#63b8ff" points="2042.22,-235.55 2032.01,-238.38 2041.75,-242.53 2042.22,-235.55"/>
</a>
</g>
</g>
<!-- Node68 -->
<g id="Node000068" class="node">
<title>Node68</title>
<g id="a_Node000068"><a xlink:title=" ">
<polygon fill="#e0e0e0" stroke="#999999" points="2280,-239 2050,-239 2050,-220 2280,-220 2280,-239"/>
<text text-anchor="middle" x="2165" y="-227" font-family="Helvetica,sans-Serif" font-size="10.00">../ifc/exception/vexceptionconversionerror.h</text>
</a>
</g>
</g>
<!-- Node1&#45;&gt;Node68 -->
<g id="edge43_Node000001_Node000068" class="edge">
<title>Node1&#45;&gt;Node68</title>
<g id="a_edge43_Node000001_Node000068"><a xlink:title=" ">
<path fill="none" stroke="#63b8ff" d="M3021.28,-285.12C2887.9,-276.98 2569.27,-257.38 2290.49,-239.09"/>
<polygon fill="#63b8ff" stroke="#63b8ff" points="2290.38,-235.58 2280.18,-238.42 2289.93,-242.57 2290.38,-235.58"/>
</a>
</g>
</g>
<!-- Node69 -->
<g id="Node000069" class="node">
<title>Node69</title>
<g id="a_Node000069"><a xlink:title=" ">
<polygon fill="#e0e0e0" stroke="#999999" points="2534,-239 2298,-239 2298,-220 2534,-220 2534,-239"/>
<text text-anchor="middle" x="2416" y="-227" font-family="Helvetica,sans-Serif" font-size="10.00">../ifc/exception/vexceptionemptyparameter.h</text>
</a>
</g>
</g>
<!-- Node1&#45;&gt;Node69 -->
<g id="edge44_Node000001_Node000069" class="edge">
<title>Node1&#45;&gt;Node69</title>
<g id="a_edge44_Node000001_Node000069"><a xlink:title=" ">
<path fill="none" stroke="#63b8ff" d="M3021.46,-283.44C2906.91,-273.43 2664.62,-252.24 2523.74,-239.92"/>
<polygon fill="#63b8ff" stroke="#63b8ff" points="2523.62,-236.4 2513.36,-239.01 2523.01,-243.37 2523.62,-236.4"/>
</a>
</g>
</g>
<!-- Node70 -->
<g id="Node000070" class="node">
<title>Node70</title>
<g id="a_Node000070"><a xlink:title=" ">
<polygon fill="#e0e0e0" stroke="#999999" points="2746,-239 2552,-239 2552,-220 2746,-220 2746,-239"/>
<text text-anchor="middle" x="2649" y="-227" font-family="Helvetica,sans-Serif" font-size="10.00">../ifc/exception/vexceptionwrongid.h</text>
</a>
</g>
</g>
<!-- Node1&#45;&gt;Node70 -->
<g id="edge45_Node000001_Node000070" class="edge">
<title>Node1&#45;&gt;Node70</title>
<g id="a_edge45_Node000001_Node000070"><a xlink:title=" ">
<path fill="none" stroke="#63b8ff" d="M3021.13,-280.43C2941.7,-269.77 2806.35,-251.61 2722.63,-240.38"/>
<polygon fill="#63b8ff" stroke="#63b8ff" points="2723.06,-236.91 2712.68,-239.04 2722.13,-243.84 2723.06,-236.91"/>
</a>
</g>
</g>
<!-- Node71 -->
<g id="Node000071" class="node">
<title>Node71</title>
<g id="a_Node000071"><a xlink:title=" ">
<polygon fill="#e0e0e0" stroke="#999999" points="2867.5,-239 2764.5,-239 2764.5,-220 2867.5,-220 2867.5,-239"/>
<text text-anchor="middle" x="2816" y="-227" font-family="Helvetica,sans-Serif" font-size="10.00">../vmisc/logging.h</text>
</a>
</g>
</g>
<!-- Node1&#45;&gt;Node71 -->
<g id="edge46_Node000001_Node000071" class="edge">
<title>Node1&#45;&gt;Node71</title>
<g id="a_edge46_Node000001_Node000071"><a xlink:title=" ">
<path fill="none" stroke="#63b8ff" d="M3021.25,-275.14C2973.4,-264.73 2908.84,-250.69 2864.99,-241.15"/>
<polygon fill="#63b8ff" stroke="#63b8ff" points="2865.66,-237.72 2855.14,-239.01 2864.17,-244.56 2865.66,-237.72"/>
</a>
</g>
</g>
<!-- Node72 -->
<g id="Node000072" class="node">
<title>Node72</title>
<g id="a_Node000072"><a xlink:title=" ">
<polygon fill="#e0e0e0" stroke="#999999" points="2984,-239 2886,-239 2886,-220 2984,-220 2984,-239"/>
<text text-anchor="middle" x="2935" y="-227" font-family="Helvetica,sans-Serif" font-size="10.00">../vmisc/vmath.h</text>
</a>
</g>
</g>
<!-- Node1&#45;&gt;Node72 -->
<g id="edge47_Node000001_Node000072" class="edge">
<title>Node1&#45;&gt;Node72</title>
<g id="a_edge47_Node000001_Node000072"><a xlink:title=" ">
<path fill="none" stroke="#63b8ff" d="M3049.07,-274.99C3023.93,-265.18 2990.67,-252.21 2966.55,-242.81"/>
<polygon fill="#63b8ff" stroke="#63b8ff" points="2967.74,-239.51 2957.15,-239.14 2965.2,-246.03 2967.74,-239.51"/>
</a>
</g>
</g>
<!-- Node73 -->
<g id="Node000073" class="node">
<title>Node73</title>
<g id="a_Node000073"><a xlink:title=" ">
<polygon fill="#e0e0e0" stroke="#999999" points="3167.5,-239 3002.5,-239 3002.5,-220 3167.5,-220 3167.5,-239"/>
<text text-anchor="middle" x="3085" y="-227" font-family="Helvetica,sans-Serif" font-size="10.00">../qmuparser/qmuparsererror.h</text>
</a>
</g>
</g>
<!-- Node1&#45;&gt;Node73 -->
<g id="edge48_Node000001_Node000073" class="edge">
<title>Node1&#45;&gt;Node73</title>
<g id="a_edge48_Node000001_Node000073"><a xlink:title=" ">
<path fill="none" stroke="#63b8ff" d="M3085,-274.84C3085,-267.21 3085,-257.7 3085,-249.45"/>
<polygon fill="#63b8ff" stroke="#63b8ff" points="3088.5,-249.27 3085,-239.27 3081.5,-249.27 3088.5,-249.27"/>
</a>
</g>
</g>
<!-- Node74 -->
<g id="Node000074" class="node">
<title>Node74</title>
<g id="a_Node000074"><a xlink:title=" ">
<polygon fill="#e0e0e0" stroke="#999999" points="3244.5,-239 3185.5,-239 3185.5,-220 3244.5,-220 3244.5,-239"/>
<text text-anchor="middle" x="3215" y="-227" font-family="Helvetica,sans-Serif" font-size="10.00">QtDebug</text>
</a>
</g>
</g>
<!-- Node1&#45;&gt;Node74 -->
<g id="edge51_Node000001_Node000074" class="edge">
<title>Node1&#45;&gt;Node74</title>
<g id="a_edge51_Node000001_Node000074"><a xlink:title=" ">
<path fill="none" stroke="#63b8ff" d="M3116.14,-274.99C3137.54,-265.36 3165.73,-252.67 3186.53,-243.31"/>
<polygon fill="#63b8ff" stroke="#63b8ff" points="3188.12,-246.43 3195.8,-239.14 3185.25,-240.05 3188.12,-246.43"/>
</a>
</g>
</g>
<!-- Node75 -->
<g id="Node000075" class="node">
<title>Node75</title>
<g id="a_Node000075"><a xlink:title=" ">
<polygon fill="#e0e0e0" stroke="#999999" points="3301,-239 3263,-239 3263,-220 3301,-220 3301,-239"/>
<text text-anchor="middle" x="3282" y="-227" font-family="Helvetica,sans-Serif" font-size="10.00">QDir</text>
</a>
</g>
</g>
<!-- Node1&#45;&gt;Node75 -->
<g id="edge52_Node000001_Node000075" class="edge">
<title>Node1&#45;&gt;Node75</title>
<g id="a_edge52_Node000001_Node000075"><a xlink:title=" ">
<path fill="none" stroke="#63b8ff" d="M3132.74,-274.97C3164.36,-265.66 3206.99,-253.06 3252.89,-239.32"/>
<polygon fill="#63b8ff" stroke="#63b8ff" points="3254.15,-242.59 3262.73,-236.37 3252.14,-235.89 3254.15,-242.59"/>
</a>
</g>
</g>
<!-- Node76 -->
<g id="Node000076" class="node">
<title>Node76</title>
<g id="a_Node000076"><a xlink:title=" ">
<polygon fill="#e0e0e0" stroke="#999999" points="3381,-239 3319,-239 3319,-220 3381,-220 3381,-239"/>
<text text-anchor="middle" x="3350" y="-227" font-family="Helvetica,sans-Serif" font-size="10.00">QProcess</text>
</a>
</g>
</g>
<!-- Node1&#45;&gt;Node76 -->
<g id="edge53_Node000001_Node000076" class="edge">
<title>Node1&#45;&gt;Node76</title>
<g id="a_edge53_Node000001_Node000076"><a xlink:title=" ">
<path fill="none" stroke="#63b8ff" d="M3148.47,-274.99C3198.23,-264 3266,-249.04 3308.88,-239.58"/>
<polygon fill="#63b8ff" stroke="#63b8ff" points="3309.68,-242.98 3318.69,-237.41 3308.17,-236.15 3309.68,-242.98"/>
</a>
</g>
</g>
<!-- Node77 -->
<g id="Node000077" class="node">
<title>Node77</title>
<g id="a_Node000077"><a xlink:title=" ">
<polygon fill="#e0e0e0" stroke="#999999" points="3492.5,-239 3399.5,-239 3399.5,-220 3492.5,-220 3492.5,-239"/>
<text text-anchor="middle" x="3446" y="-227" font-family="Helvetica,sans-Serif" font-size="10.00">QTemporaryFile</text>
</a>
</g>
</g>
<!-- Node1&#45;&gt;Node77 -->
<g id="edge54_Node000001_Node000077" class="edge">
<title>Node1&#45;&gt;Node77</title>
<g id="a_edge54_Node000001_Node000077"><a xlink:title=" ">
<path fill="none" stroke="#63b8ff" d="M3148.71,-278.68C3216.82,-267.64 3323.82,-250.3 3389.16,-239.71"/>
<polygon fill="#63b8ff" stroke="#63b8ff" points="3389.97,-243.13 3399.28,-238.07 3388.85,-236.22 3389.97,-243.13"/>
</a>
</g>
</g>
<!-- Node78 -->
<g id="Node000078" class="node">
<title>Node78</title>
<g id="a_Node000078"><a xlink:title=" ">
<polygon fill="#e0e0e0" stroke="#999999" points="3587.5,-239 3510.5,-239 3510.5,-220 3587.5,-220 3587.5,-239"/>
<text text-anchor="middle" x="3549" y="-227" font-family="Helvetica,sans-Serif" font-size="10.00">QUndoStack</text>
</a>
</g>
</g>
<!-- Node1&#45;&gt;Node78 -->
<g id="edge55_Node000001_Node000078" class="edge">
<title>Node1&#45;&gt;Node78</title>
<g id="a_edge55_Node000001_Node000078"><a xlink:title=" ">
<path fill="none" stroke="#63b8ff" d="M3148.74,-282.55C3228.6,-274.2 3369.86,-258.56 3500.14,-239.21"/>
<polygon fill="#63b8ff" stroke="#63b8ff" points="3500.93,-242.63 3510.3,-237.69 3499.89,-235.71 3500.93,-242.63"/>
</a>
</g>
</g>
<!-- Node79 -->
<g id="Node000079" class="node">
<title>Node79</title>
<g id="a_Node000079"><a xlink:title=" ">
<polygon fill="#e0e0e0" stroke="#999999" points="3646.5,-239 3605.5,-239 3605.5,-220 3646.5,-220 3646.5,-239"/>
<text text-anchor="middle" x="3626" y="-227" font-family="Helvetica,sans-Serif" font-size="10.00">QFile</text>
</a>
</g>
</g>
<!-- Node1&#45;&gt;Node79 -->
<g id="edge56_Node000001_Node000079" class="edge">
<title>Node1&#45;&gt;Node79</title>
<g id="a_edge56_Node000001_Node000079"><a xlink:title=" ">
<path fill="none" stroke="#63b8ff" d="M3148.61,-286.63C3244.06,-282.22 3429.97,-270.37 3595.35,-239"/>
<polygon fill="#63b8ff" stroke="#63b8ff" points="3596.05,-242.43 3605.21,-237.1 3594.72,-235.56 3596.05,-242.43"/>
</a>
</g>
</g>
<!-- Node80 -->
<g id="Node000080" class="node">
<title>Node80</title>
<g id="a_Node000080"><a xlink:title=" ">
<polygon fill="#e0e0e0" stroke="#999999" points="3759,-239 3665,-239 3665,-220 3759,-220 3759,-239"/>
<text text-anchor="middle" x="3712" y="-227" font-family="Helvetica,sans-Serif" font-size="10.00">QStandardPaths</text>
</a>
</g>
</g>
<!-- Node1&#45;&gt;Node80 -->
<g id="edge57_Node000001_Node000080" class="edge">
<title>Node1&#45;&gt;Node80</title>
<g id="a_edge57_Node000001_Node000080"><a xlink:title=" ">
<path fill="none" stroke="#63b8ff" d="M3148.51,-284.76C3252.21,-277.54 3464.58,-261.55 3654.79,-239.07"/>
<polygon fill="#63b8ff" stroke="#63b8ff" points="3655.46,-242.52 3664.98,-237.86 3654.63,-235.56 3655.46,-242.52"/>
</a>
</g>
</g>
<!-- Node81 -->
<g id="Node000081" class="node">
<title>Node81</title>
<g id="a_Node000081"><a xlink:title=" ">
<polygon fill="#e0e0e0" stroke="#999999" points="3863,-239 3777,-239 3777,-220 3863,-220 3863,-239"/>
<text text-anchor="middle" x="3820" y="-227" font-family="Helvetica,sans-Serif" font-size="10.00">QMessageBox</text>
</a>
</g>
</g>
<!-- Node1&#45;&gt;Node81 -->
<g id="edge58_Node000001_Node000081" class="edge">
<title>Node1&#45;&gt;Node81</title>
<g id="a_edge58_Node000001_Node000081"><a xlink:title=" ">
<path fill="none" stroke="#63b8ff" d="M3148.74,-286.23C3268.04,-280.63 3533.35,-266.22 3766.87,-239.03"/>
<polygon fill="#63b8ff" stroke="#63b8ff" points="3767.39,-242.49 3776.91,-237.85 3766.57,-235.54 3767.39,-242.49"/>
</a>
</g>
</g>
<!-- Node82 -->
<g id="Node000082" class="node">
<title>Node82</title>
<g id="a_Node000082"><a xlink:title=" ">
<polygon fill="#e0e0e0" stroke="#999999" points="3939,-239 3881,-239 3881,-220 3939,-220 3939,-239"/>
<text text-anchor="middle" x="3910" y="-227" font-family="Helvetica,sans-Serif" font-size="10.00">QThread</text>
</a>
</g>
</g>
<!-- Node1&#45;&gt;Node82 -->
<g id="edge59_Node000001_Node000082" class="edge">
<title>Node1&#45;&gt;Node82</title>
<g id="a_edge59_Node000001_Node000082"><a xlink:title=" ">
<path fill="none" stroke="#63b8ff" d="M3148.59,-288.33C3281.24,-286.2 3597.16,-277.32 3870.51,-238.98"/>
<polygon fill="#63b8ff" stroke="#63b8ff" points="3871.22,-242.42 3880.63,-237.55 3870.23,-235.49 3871.22,-242.42"/>
</a>
</g>
</g>
<!-- Node83 -->
<g id="Node000083" class="node">
<title>Node83</title>
<g id="a_Node000083"><a xlink:title=" ">
<polygon fill="#e0e0e0" stroke="#999999" points="4029,-239 3957,-239 3957,-220 4029,-220 4029,-239"/>
<text text-anchor="middle" x="3993" y="-227" font-family="Helvetica,sans-Serif" font-size="10.00">QDateTime</text>
</a>
</g>
</g>
<!-- Node1&#45;&gt;Node83 -->
<g id="edge60_Node000001_Node000083" class="edge">
<title>Node1&#45;&gt;Node83</title>
<g id="a_edge60_Node000001_Node000083"><a xlink:title=" ">
<path fill="none" stroke="#63b8ff" d="M3148.59,-288.12C3290.22,-285.54 3642.43,-275.79 3946.38,-239.03"/>
<polygon fill="#63b8ff" stroke="#63b8ff" points="3947.21,-242.46 3956.71,-237.77 3946.36,-235.51 3947.21,-242.46"/>
</a>
</g>
</g>
<!-- Node84 -->
<g id="Node000084" class="node">
<title>Node84</title>
<g id="a_Node000084"><a xlink:title=" ">
<polygon fill="#e0e0e0" stroke="#999999" points="4134.5,-239 4047.5,-239 4047.5,-220 4134.5,-220 4134.5,-239"/>
<text text-anchor="middle" x="4091" y="-227" font-family="Helvetica,sans-Serif" font-size="10.00">QtXmlPatterns</text>
</a>
</g>
</g>
<!-- Node1&#45;&gt;Node84 -->
<g id="edge61_Node000001_Node000084" class="edge">
<title>Node1&#45;&gt;Node84</title>
<g id="a_edge61_Node000001_Node000084"><a xlink:title=" ">
<path fill="none" stroke="#63b8ff" d="M3148.76,-288C3300.76,-285.11 3696.54,-274.61 4037.31,-238.94"/>
<polygon fill="#63b8ff" stroke="#63b8ff" points="4037.8,-242.4 4047.38,-237.87 4037.06,-235.44 4037.8,-242.4"/>
</a>
</g>
</g>
<!-- Node85 -->
<g id="Node000085" class="node">
<title>Node85</title>
<g id="a_Node000085"><a xlink:title=" ">
<polygon fill="#e0e0e0" stroke="#999999" points="4197,-239 4153,-239 4153,-220 4197,-220 4197,-239"/>
<text text-anchor="middle" x="4175" y="-227" font-family="Helvetica,sans-Serif" font-size="10.00">QIcon</text>
</a>
</g>
</g>
<!-- Node1&#45;&gt;Node85 -->
<g id="edge62_Node000001_Node000085" class="edge">
<title>Node1&#45;&gt;Node85</title>
<g id="a_edge62_Node000001_Node000085"><a xlink:title=" ">
<path fill="none" stroke="#63b8ff" d="M3148.56,-287.84C3343.36,-283.98 3931.16,-270.16 4142.69,-238.78"/>
<polygon fill="#63b8ff" stroke="#63b8ff" points="4143.43,-242.21 4152.78,-237.22 4142.36,-235.29 4143.43,-242.21"/>
</a>
</g>
</g>
<!-- Node3 -->
<g id="Node000003" class="node">
<title>Node3</title>
<g id="a_Node000003"><a xlink:title=" ">
<polygon fill="#e0e0e0" stroke="#999999" points="790.5,-184 623.5,-184 623.5,-165 790.5,-165 790.5,-184"/>
<text text-anchor="middle" x="707" y="-172" font-family="Helvetica,sans-Serif" font-size="10.00">../vmisc/vabstractapplication.h</text>
</a>
</g>
</g>
<!-- Node2&#45;&gt;Node3 -->
<g id="edge2_Node000002_Node000003" class="edge">
<title>Node2&#45;&gt;Node3</title>
<g id="a_edge2_Node000002_Node000003"><a xlink:title=" ">
<path fill="none" stroke="#63b8ff" d="M969.81,-221.02C916.62,-211.81 826.03,-196.12 766.34,-185.78"/>
<polygon fill="#63b8ff" stroke="#63b8ff" points="766.75,-182.3 756.3,-184.04 765.56,-189.19 766.75,-182.3"/>
</a>
</g>
</g>
<!-- Node4 -->
<g id="Node000004" class="node">
<title>Node4</title>
<g id="a_Node000004"><a xlink:href="../../d7/d5b/options_8h.html" target="_top" xlink:title=" ">
<polygon fill="white" stroke="#666666" points="879.5,-184 808.5,-184 808.5,-165 879.5,-165 879.5,-184"/>
<text text-anchor="middle" x="844" y="-172" font-family="Helvetica,sans-Serif" font-size="10.00">../options.h</text>
</a>
</g>
</g>
<!-- Node2&#45;&gt;Node4 -->
<g id="edge3_Node000002_Node000004" class="edge">
<title>Node2&#45;&gt;Node4</title>
<g id="a_edge3_Node000002_Node000004"><a xlink:title=" ">
<path fill="none" stroke="#63b8ff" d="M985.85,-219.98C957.47,-211.09 912.77,-197.07 881.14,-187.15"/>
<polygon fill="#63b8ff" stroke="#63b8ff" points="881.95,-183.73 871.37,-184.08 879.86,-190.41 881.95,-183.73"/>
</a>
</g>
</g>
<!-- Node2&#45;&gt;Node9 -->
<g id="edge8_Node000002_Node000009" class="edge">
<title>Node2&#45;&gt;Node9</title>
<g id="a_edge8_Node000002_Node000009"><a xlink:title=" ">
<path fill="none" stroke="#63b8ff" d="M1056.14,-221.57C1113.19,-212.41 1214.15,-196.19 1279.8,-185.65"/>
<polygon fill="#63b8ff" stroke="#63b8ff" points="1280.71,-189.05 1290.03,-184.01 1279.6,-182.14 1280.71,-189.05"/>
</a>
</g>
</g>
<!-- Node10 -->
<g id="Node000010" class="node">
<title>Node10</title>
<g id="a_Node000010"><a xlink:title=" ">
<polygon fill="#e0e0e0" stroke="#999999" points="1093.5,-184 932.5,-184 932.5,-165 1093.5,-165 1093.5,-184"/>
<text text-anchor="middle" x="1013" y="-172" font-family="Helvetica,sans-Serif" font-size="10.00">../vpatterndb/vtranslatevars.h</text>
</a>
</g>
</g>
<!-- Node2&#45;&gt;Node10 -->
<g id="edge9_Node000002_Node000010" class="edge">
<title>Node2&#45;&gt;Node10</title>
<g id="a_edge9_Node000002_Node000010"><a xlink:title=" ">
<path fill="none" stroke="#63b8ff" d="M1013,-219.75C1013,-212.8 1013,-202.85 1013,-194.13"/>
<polygon fill="#63b8ff" stroke="#63b8ff" points="1016.5,-194.09 1013,-184.09 1009.5,-194.09 1016.5,-194.09"/>
</a>
</g>
</g>
<!-- Node11 -->
<g id="Node000011" class="node">
<title>Node11</title>
<g id="a_Node000011"><a xlink:href="../../dd/db2/vsettings_8h.html" target="_top" xlink:title=" ">
<polygon fill="white" stroke="#666666" points="1188.5,-184 1117.5,-184 1117.5,-165 1188.5,-165 1188.5,-184"/>
<text text-anchor="middle" x="1153" y="-172" font-family="Helvetica,sans-Serif" font-size="10.00">vsettings.h</text>
</a>
</g>
</g>
<!-- Node2&#45;&gt;Node11 -->
<g id="edge10_Node000002_Node000011" class="edge">
<title>Node2&#45;&gt;Node11</title>
<g id="a_edge10_Node000002_Node000011"><a xlink:title=" ">
<path fill="none" stroke="#63b8ff" d="M1035.49,-219.98C1058.52,-211.27 1094.54,-197.63 1120.63,-187.75"/>
<polygon fill="#63b8ff" stroke="#63b8ff" points="1121.98,-190.98 1130.1,-184.17 1119.51,-184.44 1121.98,-190.98"/>
</a>
</g>
</g>
<!-- Node35 -->
<g id="Node000035" class="node">
<title>Node35</title>
<g id="a_Node000035"><a xlink:href="../../dd/d57/vcmdexport_8h.html" target="_top" xlink:title=" ">
<polygon fill="#fff0f0" stroke="red" points="549,-184 465,-184 465,-165 549,-165 549,-184"/>
<text text-anchor="middle" x="507" y="-172" font-family="Helvetica,sans-Serif" font-size="10.00">vcmdexport.h</text>
</a>
</g>
</g>
<!-- Node2&#45;&gt;Node35 -->
<g id="edge30_Node000002_Node000035" class="edge">
<title>Node2&#45;&gt;Node35</title>
<g id="a_edge30_Node000002_Node000035"><a xlink:title=" ">
<path fill="none" stroke="#63b8ff" d="M969.86,-223.98C877.3,-214.29 659.93,-191.52 559.53,-181"/>
<polygon fill="#63b8ff" stroke="#63b8ff" points="559.63,-177.49 549.32,-179.93 558.9,-184.46 559.63,-177.49"/>
</a>
</g>
</g>
<!-- Node5 -->
<g id="Node000005" class="node">
<title>Node5</title>
<g id="a_Node000005"><a xlink:title=" ">
<polygon fill="#e0e0e0" stroke="#999999" points="614.5,-129 537.5,-129 537.5,-110 614.5,-110 614.5,-129"/>
<text text-anchor="middle" x="576" y="-117" font-family="Helvetica,sans-Serif" font-size="10.00">../ifc/ifcdef.h</text>
</a>
</g>
</g>
<!-- Node4&#45;&gt;Node5 -->
<g id="edge4_Node000004_Node000005" class="edge">
<title>Node4&#45;&gt;Node5</title>
<g id="a_edge4_Node000004_Node000005"><a xlink:title=" ">
<path fill="none" stroke="#63b8ff" d="M808.41,-166.46C761.19,-157.12 677.64,-140.6 624.63,-130.12"/>
<polygon fill="#63b8ff" stroke="#63b8ff" points="625.27,-126.68 614.78,-128.17 623.91,-133.54 625.27,-126.68"/>
</a>
</g>
</g>
<!-- Node6 -->
<g id="Node000006" class="node">
<title>Node6</title>
<g id="a_Node000006"><a xlink:title=" ">
<polygon fill="#e0e0e0" stroke="#999999" points="791.5,-129 632.5,-129 632.5,-110 791.5,-110 791.5,-129"/>
<text text-anchor="middle" x="712" y="-117" font-family="Helvetica,sans-Serif" font-size="10.00">../vgeometry/vgeometrydef.h</text>
</a>
</g>
</g>
<!-- Node4&#45;&gt;Node6 -->
<g id="edge5_Node000004_Node000006" class="edge">
<title>Node4&#45;&gt;Node6</title>
<g id="a_edge5_Node000004_Node000006"><a xlink:title=" ">
<path fill="none" stroke="#63b8ff" d="M822.79,-164.98C801.27,-156.34 767.72,-142.87 743.17,-133.02"/>
<polygon fill="#63b8ff" stroke="#63b8ff" points="744.18,-129.65 733.59,-129.17 741.57,-136.14 744.18,-129.65"/>
</a>
</g>
</g>
<!-- Node7 -->
<g id="Node000007" class="node">
<title>Node7</title>
<g id="a_Node000007"><a xlink:title=" ">
<polygon fill="#e0e0e0" stroke="#999999" points="936.5,-129 809.5,-129 809.5,-110 936.5,-110 936.5,-129"/>
<text text-anchor="middle" x="873" y="-117" font-family="Helvetica,sans-Serif" font-size="10.00">../qmuparser/qmudef.h</text>
</a>
</g>
</g>
<!-- Node4&#45;&gt;Node7 -->
<g id="edge6_Node000004_Node000007" class="edge">
<title>Node4&#45;&gt;Node7</title>
<g id="a_edge6_Node000004_Node000007"><a xlink:title=" ">
<path fill="none" stroke="#63b8ff" d="M848.79,-164.75C852.76,-157.49 858.53,-146.95 863.43,-137.98"/>
<polygon fill="#63b8ff" stroke="#63b8ff" points="866.57,-139.54 868.3,-129.09 860.43,-136.18 866.57,-139.54"/>
</a>
</g>
</g>
<!-- Node8 -->
<g id="Node000008" class="node">
<title>Node8</title>
<g id="a_Node000008"><a xlink:title=" ">
<polygon fill="#e0e0e0" stroke="#999999" points="519,-129 437,-129 437,-110 519,-110 519,-129"/>
<text text-anchor="middle" x="478" y="-117" font-family="Helvetica,sans-Serif" font-size="10.00">../vmisc/def.h</text>
</a>
</g>
</g>
<!-- Node4&#45;&gt;Node8 -->
<g id="edge7_Node000004_Node000008" class="edge">
<title>Node4&#45;&gt;Node8</title>
<g id="a_edge7_Node000004_Node000008"><a xlink:title=" ">
<path fill="none" stroke="#63b8ff" d="M808.17,-166.55C805.07,-166 801.98,-165.48 799,-165 682.2,-146.23 649.83,-147.12 529.18,-129.13"/>
<polygon fill="#63b8ff" stroke="#63b8ff" points="529.59,-125.65 519.18,-127.62 528.55,-132.57 529.59,-125.65"/>
</a>
</g>
</g>
<!-- Node12 -->
<g id="Node000012" class="node">
<title>Node12</title>
<g id="a_Node000012"><a xlink:title=" ">
<polygon fill="#e0e0e0" stroke="#999999" points="1338,-74 1258,-74 1258,-55 1338,-55 1338,-74"/>
<text text-anchor="middle" x="1298" y="-62" font-family="Helvetica,sans-Serif" font-size="10.00">QMetaObject</text>
</a>
</g>
</g>
<!-- Node11&#45;&gt;Node12 -->
<g id="edge11_Node000011_Node000012" class="edge">
<title>Node11&#45;&gt;Node12</title>
<g id="a_edge11_Node000011_Node000012"><a xlink:title=" ">
<path fill="none" stroke="#63b8ff" d="M1169.95,-164.93C1185.8,-156.61 1209.82,-143.18 1229,-129 1248.69,-114.43 1269.08,-95.05 1282.53,-81.55"/>
<polygon fill="#63b8ff" stroke="#63b8ff" points="1285.08,-83.95 1289.6,-74.36 1280.09,-79.04 1285.08,-83.95"/>
</a>
</g>
</g>
<!-- Node13 -->
<g id="Node000013" class="node">
<title>Node13</title>
<g id="a_Node000013"><a xlink:title=" ">
<polygon fill="#e0e0e0" stroke="#999999" points="998,-74 942,-74 942,-55 998,-55 998,-74"/>
<text text-anchor="middle" x="970" y="-62" font-family="Helvetica,sans-Serif" font-size="10.00">QObject</text>
</a>
</g>
</g>
<!-- Node11&#45;&gt;Node13 -->
<g id="edge12_Node000011_Node000013" class="edge">
<title>Node11&#45;&gt;Node13</title>
<g id="a_edge12_Node000011_Node000013"><a xlink:title=" ">
<path fill="none" stroke="#63b8ff" d="M1138.33,-164.84C1106.67,-146.16 1031.67,-101.9 993.38,-79.3"/>
<polygon fill="#63b8ff" stroke="#63b8ff" points="994.87,-76.12 984.48,-74.05 991.32,-82.14 994.87,-76.12"/>
</a>
</g>
</g>
<!-- Node14 -->
<g id="Node000014" class="node">
<title>Node14</title>
<g id="a_Node000014"><a xlink:title=" ">
<polygon fill="#e0e0e0" stroke="#999999" points="1202,-74 1138,-74 1138,-55 1202,-55 1202,-74"/>
<text text-anchor="middle" x="1170" y="-62" font-family="Helvetica,sans-Serif" font-size="10.00">QSettings</text>
</a>
</g>
</g>
<!-- Node11&#45;&gt;Node14 -->
<g id="edge13_Node000011_Node000014" class="edge">
<title>Node11&#45;&gt;Node14</title>
<g id="a_edge13_Node000011_Node000014"><a xlink:title=" ">
<path fill="none" stroke="#63b8ff" d="M1135.88,-164.95C1115.49,-153.53 1085.64,-132.17 1098,-110 1106.04,-95.58 1120.9,-85.24 1135.04,-78.18"/>
<polygon fill="#63b8ff" stroke="#63b8ff" points="1136.51,-81.36 1144.15,-74.01 1133.6,-74.99 1136.51,-81.36"/>
</a>
</g>
</g>
<!-- Node15 -->
<g id="Node000015" class="node">
<title>Node15</title>
<g id="a_Node000015"><a xlink:title=" ">
<polygon fill="#e0e0e0" stroke="#999999" points="1409.5,-74 1356.5,-74 1356.5,-55 1409.5,-55 1409.5,-74"/>
<text text-anchor="middle" x="1383" y="-62" font-family="Helvetica,sans-Serif" font-size="10.00">QString</text>
</a>
</g>
</g>
<!-- Node11&#45;&gt;Node15 -->
<g id="edge14_Node000011_Node000015" class="edge">
<title>Node11&#45;&gt;Node15</title>
<g id="a_edge14_Node000011_Node000015"><a xlink:title=" ">
<path fill="none" stroke="#63b8ff" d="M1173.45,-164.93C1194.14,-156.17 1226.98,-142.05 1255,-129 1290.69,-112.37 1331.33,-91.95 1357.06,-78.84"/>
<polygon fill="#63b8ff" stroke="#63b8ff" points="1358.84,-81.86 1366.15,-74.19 1355.65,-75.62 1358.84,-81.86"/>
</a>
</g>
</g>
<!-- Node16 -->
<g id="Node000016" class="node">
<title>Node16</title>
<g id="a_Node000016"><a xlink:title=" ">
<polygon fill="#e0e0e0" stroke="#999999" points="1178.5,-19 1119.5,-19 1119.5,0 1178.5,0 1178.5,-19"/>
<text text-anchor="middle" x="1149" y="-7" font-family="Helvetica,sans-Serif" font-size="10.00">QtGlobal</text>
</a>
</g>
</g>
<!-- Node11&#45;&gt;Node16 -->
<g id="edge15_Node000011_Node000016" class="edge">
<title>Node11&#45;&gt;Node16</title>
<g id="a_edge15_Node000011_Node000016"><a xlink:title=" ">
<path fill="none" stroke="#63b8ff" d="M1124.34,-164.88C1069.81,-147.82 954.62,-108.44 933,-74 928.51,-66.85 927.67,-61.55 933,-55 954.8,-28.25 1053.02,-17.11 1109.21,-12.85"/>
<polygon fill="#63b8ff" stroke="#63b8ff" points="1109.46,-16.35 1119.18,-12.14 1108.96,-9.36 1109.46,-16.35"/>
</a>
</g>
</g>
<!-- Node17 -->
<g id="Node000017" class="node">
<title>Node17</title>
<g id="a_Node000017"><a xlink:title=" ">
<polygon fill="#e0e0e0" stroke="#999999" points="1378.5,-129 1315.5,-129 1315.5,-110 1378.5,-110 1378.5,-129"/>
<text text-anchor="middle" x="1347" y="-117" font-family="Helvetica,sans-Serif" font-size="10.00">QMargins</text>
</a>
</g>
</g>
<!-- Node11&#45;&gt;Node17 -->
<g id="edge16_Node000011_Node000017" class="edge">
<title>Node11&#45;&gt;Node17</title>
<g id="a_edge16_Node000011_Node000017"><a xlink:title=" ">
<path fill="none" stroke="#63b8ff" d="M1184.17,-164.98C1217.16,-155.97 1269.4,-141.7 1305.77,-131.76"/>
<polygon fill="#63b8ff" stroke="#63b8ff" points="1306.86,-135.09 1315.59,-129.08 1305.02,-128.34 1306.86,-135.09"/>
</a>
</g>
</g>
<!-- Node18 -->
<g id="Node000018" class="node">
<title>Node18</title>
<g id="a_Node000018"><a xlink:href="../../d4/da4/def_8h.html" target="_top" xlink:title=" ">
<polygon fill="#fff0f0" stroke="red" points="1479,-129 1397,-129 1397,-110 1479,-110 1479,-129"/>
<text text-anchor="middle" x="1438" y="-117" font-family="Helvetica,sans-Serif" font-size="10.00">../vmisc/def.h</text>
</a>
</g>
</g>
<!-- Node11&#45;&gt;Node18 -->
<g id="edge17_Node000011_Node000018" class="edge">
<title>Node11&#45;&gt;Node18</title>
<g id="a_edge17_Node000011_Node000018"><a xlink:title=" ">
<path fill="none" stroke="#63b8ff" d="M1188.52,-166.89C1238.49,-157.6 1329.83,-140.62 1387.04,-129.98"/>
<polygon fill="#63b8ff" stroke="#63b8ff" points="1387.76,-133.4 1396.95,-128.13 1386.48,-126.52 1387.76,-133.4"/>
</a>
</g>
</g>
<!-- Node28 -->
<g id="Node000028" class="node">
<title>Node28</title>
<g id="a_Node000028"><a xlink:href="../../de/dec/vbank_8h.html" target="_top" xlink:title=" ">
<polygon fill="#fff0f0" stroke="red" points="1120,-74 1016,-74 1016,-55 1120,-55 1120,-74"/>
<text text-anchor="middle" x="1068" y="-62" font-family="Helvetica,sans-Serif" font-size="10.00">../vlayout/vbank.h</text>
</a>
</g>
</g>
<!-- Node11&#45;&gt;Node28 -->
<g id="edge21_Node000011_Node000028" class="edge">
<title>Node11&#45;&gt;Node28</title>
<g id="a_edge21_Node000011_Node000028"><a xlink:title=" ">
<path fill="none" stroke="#63b8ff" d="M1136.41,-164.98C1122.81,-157.23 1103.91,-144.64 1092,-129 1081.85,-115.67 1075.57,-97.56 1071.99,-84.09"/>
<polygon fill="#63b8ff" stroke="#63b8ff" points="1075.33,-82.99 1069.6,-74.07 1068.52,-84.61 1075.33,-82.99"/>
</a>
</g>
</g>
<!-- Node32 -->
<g id="Node000032" class="node">
<title>Node32</title>
<g id="a_Node000032"><a xlink:href="../../d4/d5c/vcommonsettings_8h.html" target="_top" xlink:title=" ">
<polygon fill="#fff0f0" stroke="red" points="1220.5,-129 1107.5,-129 1107.5,-110 1220.5,-110 1220.5,-129"/>
<text text-anchor="middle" x="1164" y="-117" font-family="Helvetica,sans-Serif" font-size="10.00">vcommonsettings.h</text>
</a>
</g>
</g>
<!-- Node11&#45;&gt;Node32 -->
<g id="edge23_Node000011_Node000032" class="edge">
<title>Node11&#45;&gt;Node32</title>
<g id="a_edge23_Node000011_Node000032"><a xlink:title=" ">
<path fill="none" stroke="#63b8ff" d="M1154.82,-164.75C1156.26,-157.8 1158.32,-147.85 1160.13,-139.13"/>
<polygon fill="#63b8ff" stroke="#63b8ff" points="1163.61,-139.59 1162.22,-129.09 1156.76,-138.17 1163.61,-139.59"/>
</a>
</g>
</g>
<!-- Node18&#45;&gt;Node15 -->
<g id="edge18_Node000018_Node000015" class="edge">
<title>Node18&#45;&gt;Node15</title>
<g id="a_edge18_Node000018_Node000015"><a xlink:title=" ">
<path fill="none" stroke="#63b8ff" d="M1428.92,-109.75C1420.91,-102.03 1409.04,-90.6 1399.38,-81.28"/>
<polygon fill="#63b8ff" stroke="#63b8ff" points="1401.54,-78.51 1391.91,-74.09 1396.69,-83.55 1401.54,-78.51"/>
</a>
</g>
</g>
<!-- Node18&#45;&gt;Node16 -->
<g id="edge20_Node000018_Node000016" class="edge">
<title>Node18&#45;&gt;Node16</title>
<g id="a_edge20_Node000018_Node000016"><a xlink:title=" ">
<path fill="none" stroke="#63b8ff" d="M1437.96,-109.56C1437.37,-95.65 1434.06,-68.94 1418,-55 1384.41,-25.84 1255.15,-15.51 1188.8,-12.08"/>
<polygon fill="#63b8ff" stroke="#63b8ff" points="1188.88,-8.58 1178.72,-11.59 1188.53,-15.57 1188.88,-8.58"/>
</a>
</g>
</g>
<!-- Node18&#45;&gt;Node23 -->
<g id="edge19_Node000018_Node000023" class="edge">
<title>Node18&#45;&gt;Node23</title>
<g id="a_edge19_Node000018_Node000023"><a xlink:title=" ">
<path fill="none" stroke="#63b8ff" d="M1447,-109.98C1455.19,-102.23 1467.51,-90.58 1477.47,-81.14"/>
<polygon fill="#63b8ff" stroke="#63b8ff" points="1479.98,-83.59 1484.84,-74.17 1475.17,-78.5 1479.98,-83.59"/>
</a>
</g>
</g>
<!-- Node28&#45;&gt;Node16 -->
<g id="edge22_Node000028_Node000016" class="edge">
<title>Node28&#45;&gt;Node16</title>
<g id="a_edge22_Node000028_Node000016"><a xlink:title=" ">
<path fill="none" stroke="#63b8ff" d="M1081.01,-54.98C1093.46,-46.84 1112.46,-34.41 1127.21,-24.76"/>
<polygon fill="#63b8ff" stroke="#63b8ff" points="1129.3,-27.57 1135.75,-19.17 1125.46,-21.72 1129.3,-27.57"/>
</a>
</g>
</g>
<!-- Node32&#45;&gt;Node12 -->
<g id="edge24_Node000032_Node000012" class="edge">
<title>Node32&#45;&gt;Node12</title>
<g id="a_edge24_Node000032_Node000012"><a xlink:title=" ">
<path fill="none" stroke="#63b8ff" d="M1185.53,-109.98C1207.47,-101.3 1241.74,-87.75 1266.69,-77.88"/>
<polygon fill="#63b8ff" stroke="#63b8ff" points="1268.07,-81.1 1276.08,-74.17 1265.49,-74.59 1268.07,-81.1"/>
</a>
</g>
</g>
<!-- Node32&#45;&gt;Node13 -->
<g id="edge25_Node000032_Node000013" class="edge">
<title>Node32&#45;&gt;Node13</title>
<g id="a_edge25_Node000032_Node000013"><a xlink:title=" ">
<path fill="none" stroke="#63b8ff" d="M1132.83,-109.98C1098.86,-100.7 1044.49,-85.85 1008.03,-75.89"/>
<polygon fill="#63b8ff" stroke="#63b8ff" points="1008.82,-72.48 998.25,-73.22 1006.98,-79.23 1008.82,-72.48"/>
</a>
</g>
</g>
<!-- Node32&#45;&gt;Node14 -->
<g id="edge26_Node000032_Node000014" class="edge">
<title>Node32&#45;&gt;Node14</title>
<g id="a_edge26_Node000032_Node000014"><a xlink:title=" ">
<path fill="none" stroke="#63b8ff" d="M1164.99,-109.75C1165.78,-102.8 1166.9,-92.85 1167.89,-84.13"/>
<polygon fill="#63b8ff" stroke="#63b8ff" points="1171.38,-84.42 1169.03,-74.09 1164.42,-83.63 1171.38,-84.42"/>
</a>
</g>
</g>
<!-- Node32&#45;&gt;Node15 -->
<g id="edge27_Node000032_Node000015" class="edge">
<title>Node32&#45;&gt;Node15</title>
<g id="a_edge27_Node000032_Node000015"><a xlink:title=" ">
<path fill="none" stroke="#63b8ff" d="M1199.19,-109.98C1239.54,-100.22 1305.38,-84.29 1346.34,-74.37"/>
<polygon fill="#63b8ff" stroke="#63b8ff" points="1347.29,-77.74 1356.18,-71.99 1345.64,-70.94 1347.29,-77.74"/>
</a>
</g>
</g>
<!-- Node32&#45;&gt;Node16 -->
<g id="edge28_Node000032_Node000016" class="edge">
<title>Node32&#45;&gt;Node16</title>
<g id="a_edge28_Node000032_Node000016"><a xlink:title=" ">
<path fill="none" stroke="#63b8ff" d="M1178.43,-109.86C1195.97,-98.19 1221.96,-76.35 1211,-55 1204.04,-41.44 1190.81,-31.07 1178.35,-23.78"/>
<polygon fill="#63b8ff" stroke="#63b8ff" points="1179.98,-20.68 1169.52,-19 1176.65,-26.84 1179.98,-20.68"/>
</a>
</g>
</g>
<!-- Node32&#45;&gt;Node28 -->
<g id="edge29_Node000032_Node000028" class="edge">
<title>Node32&#45;&gt;Node28</title>
<g id="a_edge29_Node000032_Node000028"><a xlink:title=" ">
<path fill="none" stroke="#63b8ff" d="M1148.58,-109.98C1133.55,-101.69 1110.46,-88.94 1092.84,-79.22"/>
<polygon fill="#63b8ff" stroke="#63b8ff" points="1094.15,-75.94 1083.7,-74.17 1090.77,-82.07 1094.15,-75.94"/>
</a>
</g>
</g>
<!-- Node35&#45;&gt;Node8 -->
<g id="edge32_Node000035_Node000008" class="edge">
<title>Node35&#45;&gt;Node8</title>
<g id="a_edge32_Node000035_Node000008"><a xlink:title=" ">
<path fill="none" stroke="#63b8ff" d="M502.21,-164.75C498.24,-157.49 492.47,-146.95 487.57,-137.98"/>
<polygon fill="#63b8ff" stroke="#63b8ff" points="490.57,-136.18 482.7,-129.09 484.43,-139.54 490.57,-136.18"/>
</a>
</g>
</g>
<!-- Node36 -->
<g id="Node000036" class="node">
<title>Node36</title>
<g id="a_Node000036"><a xlink:title=" ">
<polygon fill="#e0e0e0" stroke="#999999" points="419,-129 361,-129 361,-110 419,-110 419,-129"/>
<text text-anchor="middle" x="390" y="-117" font-family="Helvetica,sans-Serif" font-size="10.00">memory</text>
</a>
</g>
</g>
<!-- Node35&#45;&gt;Node36 -->
<g id="edge31_Node000035_Node000036" class="edge">
<title>Node35&#45;&gt;Node36</title>
<g id="a_edge31_Node000035_Node000036"><a xlink:title=" ">
<path fill="none" stroke="#63b8ff" d="M488.2,-164.98C469.38,-156.46 440.18,-143.23 418.5,-133.41"/>
<polygon fill="#63b8ff" stroke="#63b8ff" points="419.69,-130.11 409.14,-129.17 416.8,-136.48 419.69,-130.11"/>
</a>
</g>
</g>
<!-- Node47&#45;&gt;Node35 -->
<g id="edge35_Node000047_Node000035" class="edge">
<title>Node47&#45;&gt;Node35</title>
<g id="a_edge35_Node000047_Node000035"><a xlink:title=" ">
<path fill="none" stroke="#63b8ff" d="M378.58,-219.98C404.05,-211.16 444.04,-197.31 472.63,-187.41"/>
<polygon fill="#63b8ff" stroke="#63b8ff" points="473.92,-190.66 482.23,-184.08 471.63,-184.05 473.92,-190.66"/>
</a>
</g>
</g>
<!-- Node48 -->
<g id="Node000048" class="node">
<title>Node48</title>
<g id="a_Node000048"><a xlink:href="../../d1/d82/mainwindowsnogui_8h.html" target="_top" xlink:title=" ">
<polygon fill="#fff0f0" stroke="red" points="120,-184 0,-184 0,-165 120,-165 120,-184"/>
<text text-anchor="middle" x="60" y="-172" font-family="Helvetica,sans-Serif" font-size="10.00">mainwindowsnogui.h</text>
</a>
</g>
</g>
<!-- Node47&#45;&gt;Node48 -->
<g id="edge34_Node000047_Node000048" class="edge">
<title>Node47&#45;&gt;Node48</title>
<g id="a_edge34_Node000047_Node000048"><a xlink:title=" ">
<path fill="none" stroke="#63b8ff" d="M306.76,-219.98C255.27,-210.7 172.84,-195.84 117.59,-185.88"/>
<polygon fill="#63b8ff" stroke="#63b8ff" points="118.07,-182.41 107.61,-184.08 116.83,-189.3 118.07,-182.41"/>
</a>
</g>
</g>
<!-- Node61 -->
<g id="Node000061" class="node">
<title>Node61</title>
<g id="a_Node000061"><a xlink:title=" ">
<polygon fill="#e0e0e0" stroke="#999999" points="259.5,-184 138.5,-184 138.5,-165 259.5,-165 259.5,-184"/>
<text text-anchor="middle" x="199" y="-172" font-family="Helvetica,sans-Serif" font-size="10.00">../vmisc/vlockguard.h</text>
</a>
</g>
</g>
<!-- Node47&#45;&gt;Node61 -->
<g id="edge36_Node000047_Node000061" class="edge">
<title>Node47&#45;&gt;Node61</title>
<g id="a_edge36_Node000047_Node000061"><a xlink:title=" ">
<path fill="none" stroke="#63b8ff" d="M329.1,-219.98C303.3,-211.16 262.78,-197.31 233.82,-187.41"/>
<polygon fill="#63b8ff" stroke="#63b8ff" points="234.69,-184.01 224.1,-184.08 232.43,-190.63 234.69,-184.01"/>
</a>
</g>
</g>
<!-- Node62 -->
<g id="Node000062" class="node">
<title>Node62</title>
<g id="a_Node000062"><a xlink:title=" ">
<polygon fill="#e0e0e0" stroke="#999999" points="336.5,-184 277.5,-184 277.5,-165 336.5,-165 336.5,-184"/>
<text text-anchor="middle" x="307" y="-172" font-family="Helvetica,sans-Serif" font-size="10.00">QPointer</text>
</a>
</g>
</g>
<!-- Node47&#45;&gt;Node62 -->
<g id="edge37_Node000047_Node000062" class="edge">
<title>Node47&#45;&gt;Node62</title>
<g id="a_edge37_Node000047_Node000062"><a xlink:title=" ">
<path fill="none" stroke="#63b8ff" d="M346.24,-219.75C339.53,-212.18 329.66,-201.05 321.49,-191.84"/>
<polygon fill="#63b8ff" stroke="#63b8ff" points="323.87,-189.25 314.62,-184.09 318.63,-193.89 323.87,-189.25"/>
</a>
</g>
</g>
<!-- Node63 -->
<g id="Node000063" class="node">
<title>Node63</title>
<g id="a_Node000063"><a xlink:title=" ">
<polygon fill="#e0e0e0" stroke="#999999" points="447,-184 355,-184 355,-165 447,-165 447,-184"/>
<text text-anchor="middle" x="401" y="-172" font-family="Helvetica,sans-Serif" font-size="10.00">QSharedPointer</text>
</a>
</g>
</g>
<!-- Node47&#45;&gt;Node63 -->
<g id="edge38_Node000047_Node000063" class="edge">
<title>Node47&#45;&gt;Node63</title>
<g id="a_edge38_Node000047_Node000063"><a xlink:title=" ">
<path fill="none" stroke="#63b8ff" d="M361.76,-219.75C368.47,-212.18 378.34,-201.05 386.51,-191.84"/>
<polygon fill="#63b8ff" stroke="#63b8ff" points="389.37,-193.89 393.38,-184.09 384.13,-189.25 389.37,-193.89"/>
</a>
</g>
</g>
<!-- Node65 -->
<g id="Node000065" class="node">
<title>Node65</title>
<g id="a_Node000065"><a xlink:href="../../dc/d73/projectversion_8h.html" target="_top" xlink:title=" ">
<polygon fill="white" stroke="#666666" points="1701,-184 1535,-184 1535,-165 1701,-165 1701,-184"/>
<text text-anchor="middle" x="1618" y="-172" font-family="Helvetica,sans-Serif" font-size="10.00">../../libs/vmisc/projectversion.h</text>
</a>
</g>
</g>
<!-- Node64&#45;&gt;Node65 -->
<g id="edge40_Node000064_Node000065" class="edge">
<title>Node64&#45;&gt;Node65</title>
<g id="a_edge40_Node000064_Node000065"><a xlink:title=" ">
<path fill="none" stroke="#63b8ff" d="M1578.76,-219.75C1585.47,-212.18 1595.34,-201.05 1603.51,-191.84"/>
<polygon fill="#63b8ff" stroke="#63b8ff" points="1606.37,-193.89 1610.38,-184.09 1601.13,-189.25 1606.37,-193.89"/>
</a>
</g>
</g>
</g>
</svg>
