<?xml version="1.0" encoding="UTF-8" standalone="no"?>
<!DOCTYPE svg PUBLIC "-//W3C//DTD SVG 1.1//EN"
 "http://www.w3.org/Graphics/SVG/1.1/DTD/svg11.dtd">
<!-- Generated by graphviz version 2.43.0 (0)
 -->
<!-- Title: src/app/seamly2d/core/vcmdexport.h Pages: 1 -->
<svg width="4019pt" height="170pt"
 viewBox="0.00 0.00 4019.00 170.00" xmlns="http://www.w3.org/2000/svg" xmlns:xlink="http://www.w3.org/1999/xlink">
<g id="graph0" class="graph" transform="scale(1 1) rotate(0) translate(4 166)">
<title>src/app/seamly2d/core/vcmdexport.h</title>
<!-- Node1 -->
<g id="Node000001" class="node">
<title>Node1</title>
<g id="a_Node000001"><a xlink:title=" ">
<polygon fill="#999999" stroke="#666666" points="1790,-162 1663,-162 1663,-132 1790,-132 1790,-162"/>
<text text-anchor="start" x="1671" y="-150" font-family="Helvetica,sans-Serif" font-size="10.00">src/app/seamly2d/core</text>
<text text-anchor="middle" x="1726.5" y="-139" font-family="Helvetica,sans-Serif" font-size="10.00">/vcmdexport.h</text>
</a>
</g>
</g>
<!-- Node2 -->
<g id="Node000002" class="node">
<title>Node2</title>
<g id="a_Node000002"><a xlink:href="../../d9/d02/vapplication_8h.html" target="_top" xlink:title=" ">
<polygon fill="white" stroke="#666666" points="1790,-96 1663,-96 1663,-66 1790,-66 1790,-96"/>
<text text-anchor="start" x="1671" y="-84" font-family="Helvetica,sans-Serif" font-size="10.00">src/app/seamly2d/core</text>
<text text-anchor="middle" x="1726.5" y="-73" font-family="Helvetica,sans-Serif" font-size="10.00">/vapplication.h</text>
</a>
</g>
</g>
<!-- Node1&#45;&gt;Node2 -->
<g id="edge1_Node000001_Node000002" class="edge">
<title>Node1&#45;&gt;Node2</title>
<g id="a_edge1_Node000001_Node000002"><a xlink:title=" ">
<path fill="none" stroke="#63b8ff" d="M1726.5,-121.54C1726.5,-112.96 1726.5,-103.61 1726.5,-96.16"/>
<polygon fill="#63b8ff" stroke="#63b8ff" points="1723,-121.8 1726.5,-131.8 1730,-121.8 1723,-121.8"/>
</a>
</g>
</g>
<!-- Node25 -->
<g id="Node000025" class="node">
<title>Node25</title>
<g id="a_Node000025"><a xlink:href="../../df/d9b/vcmdexport_8cpp.html" target="_top" xlink:title=" ">
<polygon fill="white" stroke="#666666" points="1935,-96 1808,-96 1808,-66 1935,-66 1935,-96"/>
<text text-anchor="start" x="1816" y="-84" font-family="Helvetica,sans-Serif" font-size="10.00">src/app/seamly2d/core</text>
<text text-anchor="middle" x="1871.5" y="-73" font-family="Helvetica,sans-Serif" font-size="10.00">/vcmdexport.cpp</text>
</a>
</g>
</g>
<!-- Node1&#45;&gt;Node25 -->
<g id="edge24_Node000001_Node000025" class="edge">
<title>Node1&#45;&gt;Node25</title>
<g id="a_edge24_Node000001_Node000025"><a xlink:title=" ">
<path fill="none" stroke="#63b8ff" d="M1767.77,-127.78C1790.63,-117.69 1818.62,-105.34 1839.75,-96.01"/>
<polygon fill="#63b8ff" stroke="#63b8ff" points="1766.06,-124.71 1758.32,-131.95 1768.88,-131.12 1766.06,-124.71"/>
</a>
</g>
</g>
<!-- Node26 -->
<g id="Node000026" class="node">
<title>Node26</title>
<g id="a_Node000026"><a xlink:href="../../d9/d53/mainwindow_8h.html" target="_top" xlink:title=" ">
<polygon fill="white" stroke="#666666" points="402.5,-90.5 226.5,-90.5 226.5,-71.5 402.5,-71.5 402.5,-90.5"/>
<text text-anchor="middle" x="314.5" y="-78.5" font-family="Helvetica,sans-Serif" font-size="10.00">src/app/seamly2d/mainwindow.h</text>
</a>
</g>
</g>
<!-- Node1&#45;&gt;Node26 -->
<g id="edge25_Node000001_Node000026" class="edge">
<title>Node1&#45;&gt;Node26</title>
<g id="a_edge25_Node000001_Node000026"><a xlink:title=" ">
<path fill="none" stroke="#63b8ff" d="M1652.29,-142.64C1412.84,-131.78 661.3,-97.72 402.84,-86"/>
<polygon fill="#63b8ff" stroke="#63b8ff" points="1652.48,-146.15 1662.62,-143.1 1652.79,-139.16 1652.48,-146.15"/>
</a>
</g>
</g>
<!-- Node3 -->
<g id="Node000003" class="node">
<title>Node3</title>
<g id="a_Node000003"><a xlink:href="../../d3/dd8/vapplication_8cpp.html" target="_top" xlink:title=" ">
<polygon fill="white" stroke="#666666" points="127,-30 0,-30 0,0 127,0 127,-30"/>
<text text-anchor="start" x="8" y="-18" font-family="Helvetica,sans-Serif" font-size="10.00">src/app/seamly2d/core</text>
<text text-anchor="middle" x="63.5" y="-7" font-family="Helvetica,sans-Serif" font-size="10.00">/vapplication.cpp</text>
</a>
</g>
</g>
<!-- Node2&#45;&gt;Node3 -->
<g id="edge2_Node000002_Node000003" class="edge">
<title>Node2&#45;&gt;Node3</title>
<g id="a_edge2_Node000002_Node000003"><a xlink:title=" ">
<path fill="none" stroke="#63b8ff" d="M1652.72,-79.26C1380.85,-76.27 435.28,-63.64 135.5,-30 132.72,-29.69 129.88,-29.33 127.02,-28.92"/>
<polygon fill="#63b8ff" stroke="#63b8ff" points="1652.83,-82.76 1662.87,-79.37 1652.91,-75.76 1652.83,-82.76"/>
</a>
</g>
</g>
<!-- Node4 -->
<g id="Node000004" class="node">
<title>Node4</title>
<g id="a_Node000004"><a xlink:href="../../d2/d00/vtooloptionspropertybrowser_8cpp.html" target="_top" xlink:title=" ">
<polygon fill="white" stroke="#666666" points="2377.5,-30 2197.5,-30 2197.5,0 2377.5,0 2377.5,-30"/>
<text text-anchor="start" x="2205.5" y="-18" font-family="Helvetica,sans-Serif" font-size="10.00">src/app/seamly2d/core</text>
<text text-anchor="middle" x="2287.5" y="-7" font-family="Helvetica,sans-Serif" font-size="10.00">/vtooloptionspropertybrowser.cpp</text>
</a>
</g>
</g>
<!-- Node2&#45;&gt;Node4 -->
<g id="edge3_Node000002_Node000004" class="edge">
<title>Node2&#45;&gt;Node4</title>
<g id="a_edge3_Node000002_Node000004"><a xlink:title=" ">
<path fill="none" stroke="#63b8ff" d="M1800.09,-66.02C1973.11,-41.93 2019.25,-49.79 2188.5,-30 2191.43,-29.66 2194.41,-29.3 2197.42,-28.93"/>
<polygon fill="#63b8ff" stroke="#63b8ff" points="1799.55,-62.56 1790.14,-67.42 1800.53,-69.49 1799.55,-62.56"/>
</a>
</g>
</g>
<!-- Node5 -->
<g id="Node000005" class="node">
<title>Node5</title>
<g id="a_Node000005"><a xlink:href="../../dd/db4/abstractlayout__dialog_8cpp.html" target="_top" xlink:title=" ">
<polygon fill="white" stroke="#666666" points="2541.5,-30 2395.5,-30 2395.5,0 2541.5,0 2541.5,-30"/>
<text text-anchor="start" x="2403.5" y="-18" font-family="Helvetica,sans-Serif" font-size="10.00">src/app/seamly2d/dialogs</text>
<text text-anchor="middle" x="2468.5" y="-7" font-family="Helvetica,sans-Serif" font-size="10.00">/abstractlayout_dialog.cpp</text>
</a>
</g>
</g>
<!-- Node2&#45;&gt;Node5 -->
<g id="edge4_Node000002_Node000005" class="edge">
<title>Node2&#45;&gt;Node5</title>
<g id="a_edge4_Node000002_Node000005"><a xlink:title=" ">
<path fill="none" stroke="#63b8ff" d="M1800.26,-66.04C2060.59,-33.99 2130.15,-59.66 2386.5,-30 2389.37,-29.67 2392.29,-29.3 2395.24,-28.91"/>
<polygon fill="#63b8ff" stroke="#63b8ff" points="1799.61,-62.59 1790.12,-67.3 1800.48,-69.53 1799.61,-62.59"/>
</a>
</g>
</g>
<!-- Node6 -->
<g id="Node000006" class="node">
<title>Node6</title>
<g id="a_Node000006"><a xlink:href="../../d7/dfa/calculator__dialog_8cpp.html" target="_top" xlink:title=" ">
<polygon fill="white" stroke="#666666" points="2701,-30 2560,-30 2560,0 2701,0 2701,-30"/>
<text text-anchor="start" x="2568" y="-18" font-family="Helvetica,sans-Serif" font-size="10.00">src/app/seamly2d/dialogs</text>
<text text-anchor="middle" x="2630.5" y="-7" font-family="Helvetica,sans-Serif" font-size="10.00">/calculator_dialog.cpp</text>
</a>
</g>
</g>
<!-- Node2&#45;&gt;Node6 -->
<g id="edge5_Node000002_Node000006" class="edge">
<title>Node2&#45;&gt;Node6</title>
<g id="a_edge5_Node000002_Node000006"><a xlink:title=" ">
<path fill="none" stroke="#63b8ff" d="M1800.53,-66.02C2133.12,-27.25 2221.79,-66.5 2550.5,-30 2553.58,-29.66 2556.73,-29.27 2559.9,-28.85"/>
<polygon fill="#63b8ff" stroke="#63b8ff" points="1799.64,-62.6 1790.12,-67.25 1800.46,-69.55 1799.64,-62.6"/>
</a>
</g>
</g>
<!-- Node7 -->
<g id="Node000007" class="node">
<title>Node7</title>
<g id="a_Node000007"><a xlink:href="../../d2/d2d/preferencesconfigurationpage_8cpp.html" target="_top" xlink:title=" ">
<polygon fill="white" stroke="#666666" points="2966,-30 2719,-30 2719,0 2966,0 2966,-30"/>
<text text-anchor="start" x="2727" y="-18" font-family="Helvetica,sans-Serif" font-size="10.00">src/app/seamly2d/dialogs</text>
<text text-anchor="middle" x="2842.5" y="-7" font-family="Helvetica,sans-Serif" font-size="10.00">/configpages/preferencesconfigurationpage.cpp</text>
</a>
</g>
</g>
<!-- Node2&#45;&gt;Node7 -->
<g id="edge6_Node000002_Node000007" class="edge">
<title>Node2&#45;&gt;Node7</title>
<g id="a_edge6_Node000002_Node000007"><a xlink:title=" ">
<path fill="none" stroke="#63b8ff" d="M1800.31,-66.05C2203.8,-20.36 2309.72,-59.14 2710.5,-30 2713.26,-29.8 2716.05,-29.59 2718.86,-29.36"/>
<polygon fill="#63b8ff" stroke="#63b8ff" points="1799.65,-62.6 1790.11,-67.22 1800.45,-69.56 1799.65,-62.6"/>
</a>
</g>
</g>
<!-- Node8 -->
<g id="Node000008" class="node">
<title>Node8</title>
<g id="a_Node000008"><a xlink:href="../../d9/d70/preferencesgraphicsviewpage_8cpp.html" target="_top" xlink:title=" ">
<polygon fill="white" stroke="#666666" points="3232.5,-30 2984.5,-30 2984.5,0 3232.5,0 3232.5,-30"/>
<text text-anchor="start" x="2992.5" y="-18" font-family="Helvetica,sans-Serif" font-size="10.00">src/app/seamly2d/dialogs</text>
<text text-anchor="middle" x="3108.5" y="-7" font-family="Helvetica,sans-Serif" font-size="10.00">/configpages/preferencesgraphicsviewpage.cpp</text>
</a>
</g>
</g>
<!-- Node2&#45;&gt;Node8 -->
<g id="edge7_Node000002_Node000008" class="edge">
<title>Node2&#45;&gt;Node8</title>
<g id="a_edge7_Node000002_Node000008"><a xlink:title=" ">
<path fill="none" stroke="#63b8ff" d="M1800.14,-66.08C2320.97,-9.29 2457.1,-65.17 2975.5,-30 2978.4,-29.8 2981.33,-29.59 2984.28,-29.37"/>
<polygon fill="#63b8ff" stroke="#63b8ff" points="1799.67,-62.61 1790.11,-67.18 1800.43,-69.57 1799.67,-62.61"/>
</a>
</g>
</g>
<!-- Node9 -->
<g id="Node000009" class="node">
<title>Node9</title>
<g id="a_Node000009"><a xlink:href="../../dc/d20/preferencespathpage_8cpp.html" target="_top" xlink:title=" ">
<polygon fill="white" stroke="#666666" points="3456,-30 3251,-30 3251,0 3456,0 3456,-30"/>
<text text-anchor="start" x="3259" y="-18" font-family="Helvetica,sans-Serif" font-size="10.00">src/app/seamly2d/dialogs</text>
<text text-anchor="middle" x="3353.5" y="-7" font-family="Helvetica,sans-Serif" font-size="10.00">/configpages/preferencespathpage.cpp</text>
</a>
</g>
</g>
<!-- Node2&#45;&gt;Node9 -->
<g id="edge8_Node000002_Node000009" class="edge">
<title>Node2&#45;&gt;Node9</title>
<g id="a_edge8_Node000002_Node000009"><a xlink:title=" ">
<path fill="none" stroke="#63b8ff" d="M1800.49,-66.05C2438.7,1.75 2605.63,-77.56 3241.5,-30 3244.53,-29.77 3247.6,-29.52 3250.7,-29.25"/>
<polygon fill="#63b8ff" stroke="#63b8ff" points="1799.68,-62.62 1790.11,-67.16 1800.42,-69.58 1799.68,-62.62"/>
</a>
</g>
</g>
<!-- Node10 -->
<g id="Node000010" class="node">
<title>Node10</title>
<g id="a_Node000010"><a xlink:href="../../dc/d63/preferencespatternpage_8cpp.html" target="_top" xlink:title=" ">
<polygon fill="white" stroke="#666666" points="3692.5,-30 3474.5,-30 3474.5,0 3692.5,0 3692.5,-30"/>
<text text-anchor="start" x="3482.5" y="-18" font-family="Helvetica,sans-Serif" font-size="10.00">src/app/seamly2d/dialogs</text>
<text text-anchor="middle" x="3583.5" y="-7" font-family="Helvetica,sans-Serif" font-size="10.00">/configpages/preferencespatternpage.cpp</text>
</a>
</g>
</g>
<!-- Node2&#45;&gt;Node10 -->
<g id="edge9_Node000002_Node000010" class="edge">
<title>Node2&#45;&gt;Node10</title>
<g id="a_edge9_Node000002_Node000010"><a xlink:title=" ">
<path fill="none" stroke="#63b8ff" d="M1800.18,-66.09C2537.73,11.18 2730.03,-81.46 3465.5,-30 3468.38,-29.8 3471.3,-29.58 3474.24,-29.34"/>
<polygon fill="#63b8ff" stroke="#63b8ff" points="1799.68,-62.62 1790.11,-67.15 1800.42,-69.58 1799.68,-62.62"/>
</a>
</g>
</g>
<!-- Node11 -->
<g id="Node000011" class="node">
<title>Node11</title>
<g id="a_Node000011"><a xlink:href="../../dd/dc2/decimalchart__dialog_8cpp.html" target="_top" xlink:title=" ">
<polygon fill="white" stroke="#666666" points="3852,-30 3711,-30 3711,0 3852,0 3852,-30"/>
<text text-anchor="start" x="3719" y="-18" font-family="Helvetica,sans-Serif" font-size="10.00">src/app/seamly2d/dialogs</text>
<text text-anchor="middle" x="3781.5" y="-7" font-family="Helvetica,sans-Serif" font-size="10.00">/decimalchart_dialog.cpp</text>
</a>
</g>
</g>
<!-- Node2&#45;&gt;Node11 -->
<g id="edge10_Node000002_Node000011" class="edge">
<title>Node2&#45;&gt;Node11</title>
<g id="a_edge10_Node000002_Node000011"><a xlink:title=" ">
<path fill="none" stroke="#63b8ff" d="M1800.35,-66.07C2642.18,20.87 2863.31,-110.79 3701.5,-30 3704.59,-29.7 3707.74,-29.35 3710.91,-28.96"/>
<polygon fill="#63b8ff" stroke="#63b8ff" points="1799.69,-62.62 1790.11,-67.14 1800.41,-69.59 1799.69,-62.62"/>
</a>
</g>
</g>
<!-- Node12 -->
<g id="Node000012" class="node">
<title>Node12</title>
<g id="a_Node000012"><a xlink:href="../../dd/d64/dialogaboutapp_8cpp.html" target="_top" xlink:title=" ">
<polygon fill="white" stroke="#666666" points="4011,-30 3870,-30 3870,0 4011,0 4011,-30"/>
<text text-anchor="start" x="3878" y="-18" font-family="Helvetica,sans-Serif" font-size="10.00">src/app/seamly2d/dialogs</text>
<text text-anchor="middle" x="3940.5" y="-7" font-family="Helvetica,sans-Serif" font-size="10.00">/dialogaboutapp.cpp</text>
</a>
</g>
</g>
<!-- Node2&#45;&gt;Node12 -->
<g id="edge11_Node000002_Node000012" class="edge">
<title>Node2&#45;&gt;Node12</title>
<g id="a_edge11_Node000002_Node000012"><a xlink:title=" ">
<path fill="none" stroke="#63b8ff" d="M1800.2,-66.09C2712.93,27.6 2952.51,-117.92 3861.5,-30 3864.27,-29.73 3867.09,-29.42 3869.94,-29.07"/>
<polygon fill="#63b8ff" stroke="#63b8ff" points="1799.69,-62.62 1790.11,-67.13 1800.41,-69.59 1799.69,-62.62"/>
</a>
</g>
</g>
<!-- Node13 -->
<g id="Node000013" class="node">
<title>Node13</title>
<g id="a_Node000013"><a xlink:href="../../d6/d89/dialoglayoutprogress_8cpp.html" target="_top" xlink:title=" ">
<polygon fill="white" stroke="#666666" points="664,-30 521,-30 521,0 664,0 664,-30"/>
<text text-anchor="start" x="529" y="-18" font-family="Helvetica,sans-Serif" font-size="10.00">src/app/seamly2d/dialogs</text>
<text text-anchor="middle" x="592.5" y="-7" font-family="Helvetica,sans-Serif" font-size="10.00">/dialoglayoutprogress.cpp</text>
</a>
</g>
</g>
<!-- Node2&#45;&gt;Node13 -->
<g id="edge12_Node000002_Node000013" class="edge">
<title>Node2&#45;&gt;Node13</title>
<g id="a_edge12_Node000002_Node000013"><a xlink:title=" ">
<path fill="none" stroke="#63b8ff" d="M1652.57,-79.63C1480.39,-78.08 1039.43,-70.16 673.5,-30 670.52,-29.67 667.49,-29.31 664.42,-28.91"/>
<polygon fill="#63b8ff" stroke="#63b8ff" points="1652.75,-83.13 1662.78,-79.72 1652.81,-76.13 1652.75,-83.13"/>
</a>
</g>
</g>
<!-- Node14 -->
<g id="Node000014" class="node">
<title>Node14</title>
<g id="a_Node000014"><a xlink:href="../../d5/d18/dialogpatternproperties_8cpp.html" target="_top" xlink:title=" ">
<polygon fill="white" stroke="#666666" points="837,-30 682,-30 682,0 837,0 837,-30"/>
<text text-anchor="start" x="690" y="-18" font-family="Helvetica,sans-Serif" font-size="10.00">src/app/seamly2d/dialogs</text>
<text text-anchor="middle" x="759.5" y="-7" font-family="Helvetica,sans-Serif" font-size="10.00">/dialogpatternproperties.cpp</text>
</a>
</g>
</g>
<!-- Node2&#45;&gt;Node14 -->
<g id="edge13_Node000002_Node000014" class="edge">
<title>Node2&#45;&gt;Node14</title>
<g id="a_edge13_Node000002_Node000014"><a xlink:title=" ">
<path fill="none" stroke="#63b8ff" d="M1652.7,-78.37C1501.21,-74.45 1144.3,-62.33 846.5,-30 843.46,-29.67 840.36,-29.31 837.23,-28.91"/>
<polygon fill="#63b8ff" stroke="#63b8ff" points="1652.73,-81.87 1662.82,-78.63 1652.91,-74.87 1652.73,-81.87"/>
</a>
</g>
</g>
<!-- Node15 -->
<g id="Node000015" class="node">
<title>Node15</title>
<g id="a_Node000015"><a xlink:href="../../d5/dc5/dialogpreferences_8cpp.html" target="_top" xlink:title=" ">
<polygon fill="white" stroke="#666666" points="996,-30 855,-30 855,0 996,0 996,-30"/>
<text text-anchor="start" x="863" y="-18" font-family="Helvetica,sans-Serif" font-size="10.00">src/app/seamly2d/dialogs</text>
<text text-anchor="middle" x="925.5" y="-7" font-family="Helvetica,sans-Serif" font-size="10.00">/dialogpreferences.cpp</text>
</a>
</g>
</g>
<!-- Node2&#45;&gt;Node15 -->
<g id="edge14_Node000002_Node000015" class="edge">
<title>Node2&#45;&gt;Node15</title>
<g id="a_edge14_Node000002_Node000015"><a xlink:title=" ">
<path fill="none" stroke="#63b8ff" d="M1652.33,-77.4C1521.37,-72.25 1240.76,-58.66 1005.5,-30 1002.42,-29.62 999.28,-29.21 996.11,-28.77"/>
<polygon fill="#63b8ff" stroke="#63b8ff" points="1652.5,-80.91 1662.63,-77.8 1652.78,-73.92 1652.5,-80.91"/>
</a>
</g>
</g>
<!-- Node16 -->
<g id="Node000016" class="node">
<title>Node16</title>
<g id="a_Node000016"><a xlink:href="../../dd/d54/export__layout__dialog_8cpp.html" target="_top" xlink:title=" ">
<polygon fill="white" stroke="#666666" points="1157,-30 1014,-30 1014,0 1157,0 1157,-30"/>
<text text-anchor="start" x="1022" y="-18" font-family="Helvetica,sans-Serif" font-size="10.00">src/app/seamly2d/dialogs</text>
<text text-anchor="middle" x="1085.5" y="-7" font-family="Helvetica,sans-Serif" font-size="10.00">/export_layout_dialog.cpp</text>
</a>
</g>
</g>
<!-- Node2&#45;&gt;Node16 -->
<g id="edge15_Node000002_Node000016" class="edge">
<title>Node2&#45;&gt;Node16</title>
<g id="a_edge15_Node000002_Node000016"><a xlink:title=" ">
<path fill="none" stroke="#63b8ff" d="M1652.84,-75.36C1545.56,-68.16 1340.19,-52.73 1166.5,-30 1163.39,-29.59 1160.21,-29.15 1157.01,-28.69"/>
<polygon fill="#63b8ff" stroke="#63b8ff" points="1652.7,-78.86 1662.91,-76.03 1653.16,-71.87 1652.7,-78.86"/>
</a>
</g>
</g>
<!-- Node17 -->
<g id="Node000017" class="node">
<title>Node17</title>
<g id="a_Node000017"><a xlink:href="../../db/d5c/groups__widget_8cpp.html" target="_top" xlink:title=" ">
<polygon fill="white" stroke="#666666" points="1316,-30 1175,-30 1175,0 1316,0 1316,-30"/>
<text text-anchor="start" x="1183" y="-18" font-family="Helvetica,sans-Serif" font-size="10.00">src/app/seamly2d/dialogs</text>
<text text-anchor="middle" x="1245.5" y="-7" font-family="Helvetica,sans-Serif" font-size="10.00">/groups_widget.cpp</text>
</a>
</g>
</g>
<!-- Node2&#45;&gt;Node17 -->
<g id="edge16_Node000002_Node000017" class="edge">
<title>Node2&#45;&gt;Node17</title>
<g id="a_edge16_Node000002_Node000017"><a xlink:title=" ">
<path fill="none" stroke="#63b8ff" d="M1652.78,-71.91C1572.22,-62.81 1439.45,-47.06 1325.5,-30 1322.43,-29.54 1319.3,-29.06 1316.14,-28.56"/>
<polygon fill="#63b8ff" stroke="#63b8ff" points="1652.49,-75.4 1662.82,-73.04 1653.27,-68.44 1652.49,-75.4"/>
</a>
</g>
</g>
<!-- Node18 -->
<g id="Node000018" class="node">
<title>Node18</title>
<g id="a_Node000018"><a xlink:href="../../d0/dfa/layoutsettings__dialog_8cpp.html" target="_top" xlink:title=" ">
<polygon fill="white" stroke="#666666" points="1479,-30 1334,-30 1334,0 1479,0 1479,-30"/>
<text text-anchor="start" x="1342" y="-18" font-family="Helvetica,sans-Serif" font-size="10.00">src/app/seamly2d/dialogs</text>
<text text-anchor="middle" x="1406.5" y="-7" font-family="Helvetica,sans-Serif" font-size="10.00">/layoutsettings_dialog.cpp</text>
</a>
</g>
</g>
<!-- Node2&#45;&gt;Node18 -->
<g id="edge17_Node000002_Node000018" class="edge">
<title>Node2&#45;&gt;Node18</title>
<g id="a_edge17_Node000002_Node000018"><a xlink:title=" ">
<path fill="none" stroke="#63b8ff" d="M1652.88,-65.28C1599.89,-54.68 1528.84,-40.47 1476.65,-30.03"/>
<polygon fill="#63b8ff" stroke="#63b8ff" points="1652.4,-68.75 1662.9,-67.28 1653.78,-61.89 1652.4,-68.75"/>
</a>
</g>
</g>
<!-- Node19 -->
<g id="Node000019" class="node">
<title>Node19</title>
<g id="a_Node000019"><a xlink:href="../../dd/d84/shortcuts__dialog_8cpp.html" target="_top" xlink:title=" ">
<polygon fill="white" stroke="#666666" points="1638,-30 1497,-30 1497,0 1638,0 1638,-30"/>
<text text-anchor="start" x="1505" y="-18" font-family="Helvetica,sans-Serif" font-size="10.00">src/app/seamly2d/dialogs</text>
<text text-anchor="middle" x="1567.5" y="-7" font-family="Helvetica,sans-Serif" font-size="10.00">/shortcuts_dialog.cpp</text>
</a>
</g>
</g>
<!-- Node2&#45;&gt;Node19 -->
<g id="edge18_Node000002_Node000019" class="edge">
<title>Node2&#45;&gt;Node19</title>
<g id="a_edge18_Node000002_Node000019"><a xlink:title=" ">
<path fill="none" stroke="#63b8ff" d="M1682.25,-62.19C1657,-52.02 1625.8,-39.47 1602.31,-30.01"/>
<polygon fill="#63b8ff" stroke="#63b8ff" points="1681.02,-65.47 1691.61,-65.95 1683.64,-58.97 1681.02,-65.47"/>
</a>
</g>
</g>
<!-- Node20 -->
<g id="Node000020" class="node">
<title>Node20</title>
<g id="a_Node000020"><a xlink:href="../../d2/df4/show__info__dialog_8cpp.html" target="_top" xlink:title=" ">
<polygon fill="white" stroke="#666666" points="1797,-30 1656,-30 1656,0 1797,0 1797,-30"/>
<text text-anchor="start" x="1664" y="-18" font-family="Helvetica,sans-Serif" font-size="10.00">src/app/seamly2d/dialogs</text>
<text text-anchor="middle" x="1726.5" y="-7" font-family="Helvetica,sans-Serif" font-size="10.00">/show_info_dialog.cpp</text>
</a>
</g>
</g>
<!-- Node2&#45;&gt;Node20 -->
<g id="edge19_Node000002_Node000020" class="edge">
<title>Node2&#45;&gt;Node20</title>
<g id="a_edge19_Node000002_Node000020"><a xlink:title=" ">
<path fill="none" stroke="#63b8ff" d="M1726.5,-55.54C1726.5,-46.96 1726.5,-37.61 1726.5,-30.16"/>
<polygon fill="#63b8ff" stroke="#63b8ff" points="1723,-55.8 1726.5,-65.8 1730,-55.8 1723,-55.8"/>
</a>
</g>
</g>
<!-- Node21 -->
<g id="Node000021" class="node">
<title>Node21</title>
<g id="a_Node000021"><a xlink:href="../../dc/d14/app_2seamly2d_2main_8cpp.html" target="_top" xlink:title=" ">
<polygon fill="white" stroke="#666666" points="296,-24.5 145,-24.5 145,-5.5 296,-5.5 296,-24.5"/>
<text text-anchor="middle" x="220.5" y="-12.5" font-family="Helvetica,sans-Serif" font-size="10.00">src/app/seamly2d/main.cpp</text>
</a>
</g>
</g>
<!-- Node2&#45;&gt;Node21 -->
<g id="edge20_Node000002_Node000021" class="edge">
<title>Node2&#45;&gt;Node21</title>
<g id="a_edge20_Node000002_Node000021"><a xlink:title=" ">
<path fill="none" stroke="#63b8ff" d="M1652.72,-78.65C1400.08,-73.85 570.8,-56.41 305.5,-30 292.55,-28.71 278.59,-26.68 265.79,-24.56"/>
<polygon fill="#63b8ff" stroke="#63b8ff" points="1652.82,-82.16 1662.89,-78.85 1652.95,-75.16 1652.82,-82.16"/>
</a>
</g>
</g>
<!-- Node22 -->
<g id="Node000022" class="node">
<title>Node22</title>
<g id="a_Node000022"><a xlink:href="../../d8/dd9/mainwindow_8cpp.html" target="_top" xlink:title=" ">
<polygon fill="white" stroke="#666666" points="502.5,-24.5 314.5,-24.5 314.5,-5.5 502.5,-5.5 502.5,-24.5"/>
<text text-anchor="middle" x="408.5" y="-12.5" font-family="Helvetica,sans-Serif" font-size="10.00">src/app/seamly2d/mainwindow.cpp</text>
</a>
</g>
</g>
<!-- Node2&#45;&gt;Node22 -->
<g id="edge21_Node000002_Node000022" class="edge">
<title>Node2&#45;&gt;Node22</title>
<g id="a_edge21_Node000002_Node000022"><a xlink:title=" ">
<path fill="none" stroke="#63b8ff" d="M1652.72,-79.34C1463.13,-77.13 943.49,-67.8 512.5,-30 496.89,-28.63 480.03,-26.6 464.53,-24.51"/>
<polygon fill="#63b8ff" stroke="#63b8ff" points="1652.81,-82.84 1662.85,-79.45 1652.89,-75.84 1652.81,-82.84"/>
</a>
</g>
</g>
<!-- Node23 -->
<g id="Node000023" class="node">
<title>Node23</title>
<g id="a_Node000023"><a xlink:href="../../d8/de8/mainwindowsnogui_8cpp.html" target="_top" xlink:title=" ">
<polygon fill="white" stroke="#666666" points="2036,-24.5 1815,-24.5 1815,-5.5 2036,-5.5 2036,-24.5"/>
<text text-anchor="middle" x="1925.5" y="-12.5" font-family="Helvetica,sans-Serif" font-size="10.00">src/app/seamly2d/mainwindowsnogui.cpp</text>
</a>
</g>
</g>
<!-- Node2&#45;&gt;Node23 -->
<g id="edge22_Node000002_Node000023" class="edge">
<title>Node2&#45;&gt;Node23</title>
<g id="a_edge22_Node000002_Node000023"><a xlink:title=" ">
<path fill="none" stroke="#63b8ff" d="M1779.69,-62.89C1818.23,-50.5 1868.69,-34.27 1899.02,-24.52"/>
<polygon fill="#63b8ff" stroke="#63b8ff" points="1778.62,-59.56 1770.17,-65.95 1780.76,-66.23 1778.62,-59.56"/>
</a>
</g>
</g>
<!-- Node24 -->
<g id="Node000024" class="node">
<title>Node24</title>
<g id="a_Node000024"><a xlink:href="../../d3/d49/vpattern_8cpp.html" target="_top" xlink:title=" ">
<polygon fill="white" stroke="#666666" points="2179,-30 2054,-30 2054,0 2179,0 2179,-30"/>
<text text-anchor="start" x="2062" y="-18" font-family="Helvetica,sans-Serif" font-size="10.00">src/app/seamly2d/xml</text>
<text text-anchor="middle" x="2116.5" y="-7" font-family="Helvetica,sans-Serif" font-size="10.00">/vpattern.cpp</text>
</a>
</g>
</g>
<!-- Node2&#45;&gt;Node24 -->
<g id="edge23_Node000002_Node000024" class="edge">
<title>Node2&#45;&gt;Node24</title>
<g id="a_edge23_Node000002_Node000024"><a xlink:title=" ">
<path fill="none" stroke="#63b8ff" d="M1800.34,-65.91C1910.17,-47.64 1939.79,-48.15 2045.5,-30 2048.22,-29.53 2051,-29.04 2053.81,-28.54"/>
<polygon fill="#63b8ff" stroke="#63b8ff" points="1799.45,-62.51 1790.17,-67.62 1800.61,-69.41 1799.45,-62.51"/>
</a>
</g>
</g>
<!-- Node26&#45;&gt;Node3 -->
<g id="edge26_Node000026_Node000003" class="edge">
<title>Node26&#45;&gt;Node3</title>
<g id="a_edge26_Node000026_Node000003"><a xlink:title=" ">
<path fill="none" stroke="#63b8ff" d="M271.19,-68.96C228.9,-58.17 164.4,-41.73 118.5,-30.02"/>
<polygon fill="#63b8ff" stroke="#63b8ff" points="270.35,-72.36 280.91,-71.44 272.08,-65.57 270.35,-72.36"/>
</a>
</g>
</g>
<!-- Node26&#45;&gt;Node21 -->
<g id="edge27_Node000026_Node000021" class="edge">
<title>Node26&#45;&gt;Node21</title>
<g id="a_edge27_Node000026_Node000021"><a xlink:title=" ">
<path fill="none" stroke="#63b8ff" d="M293.47,-65.68C275,-53.11 248.74,-35.23 233.28,-24.7"/>
<polygon fill="#63b8ff" stroke="#63b8ff" points="291.59,-68.63 301.82,-71.37 295.53,-62.85 291.59,-68.63"/>
</a>
</g>
</g>
<!-- Node26&#45;&gt;Node22 -->
<g id="edge28_Node000026_Node000022" class="edge">
<title>Node26&#45;&gt;Node22</title>
<g id="a_edge28_Node000026_Node000022"><a xlink:title=" ">
<path fill="none" stroke="#63b8ff" d="M335.53,-65.68C354,-53.11 380.26,-35.23 395.72,-24.7"/>
<polygon fill="#63b8ff" stroke="#63b8ff" points="333.47,-62.85 327.18,-71.37 337.41,-68.63 333.47,-62.85"/>
</a>
</g>
</g>
</g>
</svg>
