<?xml version="1.0" encoding="UTF-8" standalone="no"?>
<!DOCTYPE svg PUBLIC "-//W3C//DTD SVG 1.1//EN"
 "http://www.w3.org/Graphics/SVG/1.1/DTD/svg11.dtd">
<!-- Generated by graphviz version 2.43.0 (0)
 -->
<!-- Title: src/app/seamly2d/dialogs/shortcuts_dialog.cpp Pages: 1 -->
<svg width="2959pt" height="324pt"
 viewBox="0.00 0.00 2958.50 324.00" xmlns="http://www.w3.org/2000/svg" xmlns:xlink="http://www.w3.org/1999/xlink">
<g id="graph0" class="graph" transform="scale(1 1) rotate(0) translate(4 320)">
<title>src/app/seamly2d/dialogs/shortcuts_dialog.cpp</title>
<!-- Node1 -->
<g id="Node000001" class="node">
<title>Node1</title>
<g id="a_Node000001"><a xlink:title=" ">
<polygon fill="#999999" stroke="#666666" points="887.5,-316 746.5,-316 746.5,-286 887.5,-286 887.5,-316"/>
<text text-anchor="start" x="754.5" y="-304" font-family="Helvetica,sans-Serif" font-size="10.00">src/app/seamly2d/dialogs</text>
<text text-anchor="middle" x="817" y="-293" font-family="Helvetica,sans-Serif" font-size="10.00">/shortcuts_dialog.cpp</text>
</a>
</g>
</g>
<!-- Node2 -->
<g id="Node000002" class="node">
<title>Node2</title>
<g id="a_Node000002"><a xlink:href="../../d9/d49/shortcuts__dialog_8h.html" target="_top" xlink:title=" ">
<polygon fill="white" stroke="#666666" points="106,-250 0,-250 0,-231 106,-231 106,-250"/>
<text text-anchor="middle" x="53" y="-238" font-family="Helvetica,sans-Serif" font-size="10.00">shortcuts_dialog.h</text>
</a>
</g>
</g>
<!-- Node1&#45;&gt;Node2 -->
<g id="edge1_Node000001_Node000002" class="edge">
<title>Node1&#45;&gt;Node2</title>
<g id="a_edge1_Node000001_Node000002"><a xlink:title=" ">
<path fill="none" stroke="#63b8ff" d="M746.37,-296.49C621.46,-289.96 353.18,-274.43 116.26,-250.06"/>
<polygon fill="#63b8ff" stroke="#63b8ff" points="116.38,-246.56 106.07,-249.01 115.66,-253.52 116.38,-246.56"/>
</a>
</g>
</g>
<!-- Node4 -->
<g id="Node000004" class="node">
<title>Node4</title>
<g id="a_Node000004"><a xlink:title=" ">
<polygon fill="#e0e0e0" stroke="#999999" points="244,-250 124,-250 124,-231 244,-231 244,-250"/>
<text text-anchor="middle" x="184" y="-238" font-family="Helvetica,sans-Serif" font-size="10.00">ui_shortcuts_dialog.h</text>
</a>
</g>
</g>
<!-- Node1&#45;&gt;Node4 -->
<g id="edge3_Node000001_Node000004" class="edge">
<title>Node1&#45;&gt;Node4</title>
<g id="a_edge3_Node000001_Node000004"><a xlink:title=" ">
<path fill="none" stroke="#63b8ff" d="M746.14,-294.5C641.12,-286.17 437.7,-269.38 254.3,-250.1"/>
<polygon fill="#63b8ff" stroke="#63b8ff" points="254.51,-246.61 244.2,-249.04 253.77,-253.57 254.51,-246.61"/>
</a>
</g>
</g>
<!-- Node5 -->
<g id="Node000005" class="node">
<title>Node5</title>
<g id="a_Node000005"><a xlink:title=" ">
<polygon fill="#e0e0e0" stroke="#999999" points="341.5,-250 262.5,-250 262.5,-231 341.5,-231 341.5,-250"/>
<text text-anchor="middle" x="302" y="-238" font-family="Helvetica,sans-Serif" font-size="10.00">QApplication</text>
</a>
</g>
</g>
<!-- Node1&#45;&gt;Node5 -->
<g id="edge4_Node000001_Node000005" class="edge">
<title>Node1&#45;&gt;Node5</title>
<g id="a_edge4_Node000001_Node000005"><a xlink:title=" ">
<path fill="none" stroke="#63b8ff" d="M746.4,-293.96C656.84,-285.96 497.43,-270.59 351.55,-250.14"/>
<polygon fill="#63b8ff" stroke="#63b8ff" points="351.91,-246.65 341.52,-248.72 350.93,-253.58 351.91,-246.65"/>
</a>
</g>
</g>
<!-- Node6 -->
<g id="Node000006" class="node">
<title>Node6</title>
<g id="a_Node000006"><a xlink:title=" ">
<polygon fill="#e0e0e0" stroke="#999999" points="430.5,-250 359.5,-250 359.5,-231 430.5,-231 430.5,-250"/>
<text text-anchor="middle" x="395" y="-238" font-family="Helvetica,sans-Serif" font-size="10.00">QClipboard</text>
</a>
</g>
</g>
<!-- Node1&#45;&gt;Node6 -->
<g id="edge5_Node000001_Node000006" class="edge">
<title>Node1&#45;&gt;Node6</title>
<g id="a_edge5_Node000001_Node000006"><a xlink:title=" ">
<path fill="none" stroke="#63b8ff" d="M746.27,-291.24C671.36,-281.78 549.69,-265.93 445,-250 443.7,-249.8 442.39,-249.6 441.06,-249.39"/>
<polygon fill="#63b8ff" stroke="#63b8ff" points="441.18,-245.87 430.75,-247.73 440.07,-252.78 441.18,-245.87"/>
</a>
</g>
</g>
<!-- Node7 -->
<g id="Node000007" class="node">
<title>Node7</title>
<g id="a_Node000007"><a xlink:title=" ">
<polygon fill="#e0e0e0" stroke="#999999" points="604.5,-74 531.5,-74 531.5,-55 604.5,-55 604.5,-74"/>
<text text-anchor="middle" x="568" y="-62" font-family="Helvetica,sans-Serif" font-size="10.00">QFileDialog</text>
</a>
</g>
</g>
<!-- Node1&#45;&gt;Node7 -->
<g id="edge6_Node000001_Node000007" class="edge">
<title>Node1&#45;&gt;Node7</title>
<g id="a_edge6_Node000001_Node000007"><a xlink:title=" ">
<path fill="none" stroke="#63b8ff" d="M746.5,-299.98C657.52,-298.27 511.97,-289.35 478,-250 431.66,-196.33 511.71,-114.65 549.68,-80.91"/>
<polygon fill="#63b8ff" stroke="#63b8ff" points="552.25,-83.31 557.5,-74.11 547.66,-78.03 552.25,-83.31"/>
</a>
</g>
</g>
<!-- Node8 -->
<g id="Node000008" class="node">
<title>Node8</title>
<g id="a_Node000008"><a xlink:title=" ">
<polygon fill="#e0e0e0" stroke="#999999" points="532.5,-250 487.5,-250 487.5,-231 532.5,-231 532.5,-250"/>
<text text-anchor="middle" x="510" y="-238" font-family="Helvetica,sans-Serif" font-size="10.00">QFont</text>
</a>
</g>
</g>
<!-- Node1&#45;&gt;Node8 -->
<g id="edge7_Node000001_Node000008" class="edge">
<title>Node1&#45;&gt;Node8</title>
<g id="a_edge7_Node000001_Node000008"><a xlink:title=" ">
<path fill="none" stroke="#63b8ff" d="M746.32,-288.96C692.76,-280.19 617.16,-266.95 542.66,-250.23"/>
<polygon fill="#63b8ff" stroke="#63b8ff" points="543.16,-246.75 532.63,-247.95 541.61,-253.58 543.16,-246.75"/>
</a>
</g>
</g>
<!-- Node9 -->
<g id="Node000009" class="node">
<title>Node9</title>
<g id="a_Node000009"><a xlink:title=" ">
<polygon fill="#e0e0e0" stroke="#999999" points="645.5,-250 550.5,-250 550.5,-231 645.5,-231 645.5,-250"/>
<text text-anchor="middle" x="598" y="-238" font-family="Helvetica,sans-Serif" font-size="10.00">QGuiApplication</text>
</a>
</g>
</g>
<!-- Node1&#45;&gt;Node9 -->
<g id="edge8_Node000001_Node000009" class="edge">
<title>Node1&#45;&gt;Node9</title>
<g id="a_edge8_Node000001_Node000009"><a xlink:title=" ">
<path fill="none" stroke="#63b8ff" d="M764.54,-285.99C726.42,-275.8 675.5,-262.2 640.04,-252.73"/>
<polygon fill="#63b8ff" stroke="#63b8ff" points="640.59,-249.25 630.02,-250.05 638.78,-256.02 640.59,-249.25"/>
</a>
</g>
</g>
<!-- Node10 -->
<g id="Node000010" class="node">
<title>Node10</title>
<g id="a_Node000010"><a xlink:title=" ">
<polygon fill="#e0e0e0" stroke="#999999" points="758.5,-250 663.5,-250 663.5,-231 758.5,-231 758.5,-250"/>
<text text-anchor="middle" x="711" y="-238" font-family="Helvetica,sans-Serif" font-size="10.00">QTextDocument</text>
</a>
</g>
</g>
<!-- Node1&#45;&gt;Node10 -->
<g id="edge9_Node000001_Node000010" class="edge">
<title>Node1&#45;&gt;Node10</title>
<g id="a_edge9_Node000001_Node000010"><a xlink:title=" ">
<path fill="none" stroke="#63b8ff" d="M791.61,-285.99C774.71,-276.66 752.62,-264.47 735.84,-255.21"/>
<polygon fill="#63b8ff" stroke="#63b8ff" points="737.1,-251.91 726.65,-250.14 733.72,-258.04 737.1,-251.91"/>
</a>
</g>
</g>
<!-- Node11 -->
<g id="Node000011" class="node">
<title>Node11</title>
<g id="a_Node000011"><a xlink:title=" ">
<polygon fill="#e0e0e0" stroke="#999999" points="857,-250 777,-250 777,-231 857,-231 857,-250"/>
<text text-anchor="middle" x="817" y="-238" font-family="Helvetica,sans-Serif" font-size="10.00">QPageLayout</text>
</a>
</g>
</g>
<!-- Node1&#45;&gt;Node11 -->
<g id="edge10_Node000001_Node000011" class="edge">
<title>Node1&#45;&gt;Node11</title>
<g id="a_edge10_Node000001_Node000011"><a xlink:title=" ">
<path fill="none" stroke="#63b8ff" d="M817,-285.84C817,-278.21 817,-268.7 817,-260.45"/>
<polygon fill="#63b8ff" stroke="#63b8ff" points="820.5,-260.27 817,-250.27 813.5,-260.27 820.5,-260.27"/>
</a>
</g>
</g>
<!-- Node12 -->
<g id="Node000012" class="node">
<title>Node12</title>
<g id="a_Node000012"><a xlink:title=" ">
<polygon fill="#e0e0e0" stroke="#999999" points="788,-74 732,-74 732,-55 788,-55 788,-74"/>
<text text-anchor="middle" x="760" y="-62" font-family="Helvetica,sans-Serif" font-size="10.00">QPrinter</text>
</a>
</g>
</g>
<!-- Node1&#45;&gt;Node12 -->
<g id="edge11_Node000001_Node000012" class="edge">
<title>Node1&#45;&gt;Node12</title>
<g id="a_edge11_Node000001_Node000012"><a xlink:title=" ">
<path fill="none" stroke="#63b8ff" d="M837.09,-285.8C847.87,-276.9 860.12,-264.4 866,-250 869.19,-242.18 868.37,-239.1 866,-231 848.1,-169.87 799.94,-109.88 775.17,-81.88"/>
<polygon fill="#63b8ff" stroke="#63b8ff" points="777.59,-79.34 768.29,-74.25 772.39,-84.03 777.59,-79.34"/>
</a>
</g>
</g>
<!-- Node13 -->
<g id="Node000013" class="node">
<title>Node13</title>
<g id="a_Node000013"><a xlink:title=" ">
<polygon fill="#e0e0e0" stroke="#999999" points="1030.5,-250 913.5,-250 913.5,-231 1030.5,-231 1030.5,-250"/>
<text text-anchor="middle" x="972" y="-238" font-family="Helvetica,sans-Serif" font-size="10.00">QPrintPreviewDialog</text>
</a>
</g>
</g>
<!-- Node1&#45;&gt;Node13 -->
<g id="edge12_Node000001_Node000013" class="edge">
<title>Node1&#45;&gt;Node13</title>
<g id="a_edge12_Node000001_Node000013"><a xlink:title=" ">
<path fill="none" stroke="#63b8ff" d="M854.13,-285.99C880.22,-276.14 914.78,-263.1 939.73,-253.68"/>
<polygon fill="#63b8ff" stroke="#63b8ff" points="940.99,-256.94 949.11,-250.14 938.52,-250.4 940.99,-256.94"/>
</a>
</g>
</g>
<!-- Node14 -->
<g id="Node000014" class="node">
<title>Node14</title>
<g id="a_Node000014"><a xlink:title=" ">
<polygon fill="#e0e0e0" stroke="#999999" points="1127,-250 1049,-250 1049,-231 1127,-231 1127,-250"/>
<text text-anchor="middle" x="1088" y="-238" font-family="Helvetica,sans-Serif" font-size="10.00">QPrintDialog</text>
</a>
</g>
</g>
<!-- Node1&#45;&gt;Node14 -->
<g id="edge13_Node000001_Node000014" class="edge">
<title>Node1&#45;&gt;Node14</title>
<g id="a_edge13_Node000001_Node000014"><a xlink:title=" ">
<path fill="none" stroke="#63b8ff" d="M881.91,-285.99C930.14,-275.58 994.93,-261.59 1038.89,-252.1"/>
<polygon fill="#63b8ff" stroke="#63b8ff" points="1039.73,-255.5 1048.77,-249.97 1038.26,-248.66 1039.73,-255.5"/>
</a>
</g>
</g>
<!-- Node15 -->
<g id="Node000015" class="node">
<title>Node15</title>
<g id="a_Node000015"><a xlink:title=" ">
<polygon fill="#e0e0e0" stroke="#999999" points="1202.5,-250 1145.5,-250 1145.5,-231 1202.5,-231 1202.5,-250"/>
<text text-anchor="middle" x="1174" y="-238" font-family="Helvetica,sans-Serif" font-size="10.00">QScreen</text>
</a>
</g>
</g>
<!-- Node1&#45;&gt;Node15 -->
<g id="edge14_Node000001_Node000015" class="edge">
<title>Node1&#45;&gt;Node15</title>
<g id="a_edge14_Node000001_Node000015"><a xlink:title=" ">
<path fill="none" stroke="#63b8ff" d="M887.55,-290.28C950.06,-281.36 1044.02,-267.21 1135.43,-250"/>
<polygon fill="#63b8ff" stroke="#63b8ff" points="1136.23,-253.41 1145.41,-248.1 1134.93,-246.53 1136.23,-253.41"/>
</a>
</g>
</g>
<!-- Node16 -->
<g id="Node000016" class="node">
<title>Node16</title>
<g id="a_Node000016"><a xlink:title=" ">
<polygon fill="#e0e0e0" stroke="#999999" points="1299,-250 1221,-250 1221,-231 1299,-231 1299,-250"/>
<text text-anchor="middle" x="1260" y="-238" font-family="Helvetica,sans-Serif" font-size="10.00">QShowEvent</text>
</a>
</g>
</g>
<!-- Node1&#45;&gt;Node16 -->
<g id="edge15_Node000001_Node000016" class="edge">
<title>Node1&#45;&gt;Node16</title>
<g id="a_edge15_Node000001_Node000016"><a xlink:title=" ">
<path fill="none" stroke="#63b8ff" d="M887.59,-292.02C966.54,-282.87 1098.15,-266.94 1211,-250 1211.1,-249.98 1211.2,-249.97 1211.3,-249.95"/>
<polygon fill="#63b8ff" stroke="#63b8ff" points="1211.64,-253.44 1220.98,-248.43 1210.55,-246.53 1211.64,-253.44"/>
</a>
</g>
</g>
<!-- Node17 -->
<g id="Node000017" class="node">
<title>Node17</title>
<g id="a_Node000017"><a xlink:title=" ">
<polygon fill="#e0e0e0" stroke="#999999" points="1321.5,-74 1268.5,-74 1268.5,-55 1321.5,-55 1321.5,-74"/>
<text text-anchor="middle" x="1295" y="-62" font-family="Helvetica,sans-Serif" font-size="10.00">QString</text>
</a>
</g>
</g>
<!-- Node1&#45;&gt;Node17 -->
<g id="edge16_Node000001_Node000017" class="edge">
<title>Node1&#45;&gt;Node17</title>
<g id="a_edge16_Node000001_Node000017"><a xlink:title=" ">
<path fill="none" stroke="#63b8ff" d="M887.54,-297.95C1016.66,-293.45 1280.36,-280.6 1308,-250 1350.12,-203.37 1320.25,-120.23 1303.84,-83.63"/>
<polygon fill="#63b8ff" stroke="#63b8ff" points="1306.86,-81.82 1299.45,-74.24 1300.51,-84.78 1306.86,-81.82"/>
</a>
</g>
</g>
<!-- Node18 -->
<g id="Node000018" class="node">
<title>Node18</title>
<g id="a_Node000018"><a xlink:title=" ">
<polygon fill="#e0e0e0" stroke="#999999" points="1423,-250 1355,-250 1355,-231 1423,-231 1423,-250"/>
<text text-anchor="middle" x="1389" y="-238" font-family="Helvetica,sans-Serif" font-size="10.00">QtWidgets</text>
</a>
</g>
</g>
<!-- Node1&#45;&gt;Node18 -->
<g id="edge17_Node000001_Node000018" class="edge">
<title>Node1&#45;&gt;Node18</title>
<g id="a_edge17_Node000001_Node000018"><a xlink:title=" ">
<path fill="none" stroke="#63b8ff" d="M887.55,-295.07C988.38,-287.62 1179.37,-271.99 1341,-250 1342.27,-249.83 1343.56,-249.64 1344.87,-249.45"/>
<polygon fill="#63b8ff" stroke="#63b8ff" points="1345.63,-252.88 1354.96,-247.87 1344.54,-245.96 1345.63,-252.88"/>
</a>
</g>
</g>
<!-- Node19 -->
<g id="Node000019" class="node">
<title>Node19</title>
<g id="a_Node000019"><a xlink:href="../../d9/d02/vapplication_8h.html" target="_top" xlink:title=" ">
<polygon fill="white" stroke="#666666" points="2445.5,-250 2326.5,-250 2326.5,-231 2445.5,-231 2445.5,-250"/>
<text text-anchor="middle" x="2386" y="-238" font-family="Helvetica,sans-Serif" font-size="10.00">../core/vapplication.h</text>
</a>
</g>
</g>
<!-- Node1&#45;&gt;Node19 -->
<g id="edge18_Node000001_Node000019" class="edge">
<title>Node1&#45;&gt;Node19</title>
<g id="a_edge18_Node000001_Node000019"><a xlink:title=" ">
<path fill="none" stroke="#63b8ff" d="M887.72,-297.36C1148.75,-287.63 2056.31,-253.79 2316.05,-244.11"/>
<polygon fill="#63b8ff" stroke="#63b8ff" points="2316.25,-247.6 2326.11,-243.73 2315.99,-240.61 2316.25,-247.6"/>
</a>
</g>
</g>
<!-- Node3 -->
<g id="Node000003" class="node">
<title>Node3</title>
<g id="a_Node000003"><a xlink:title=" ">
<polygon fill="#e0e0e0" stroke="#999999" points="81,-195 25,-195 25,-176 81,-176 81,-195"/>
<text text-anchor="middle" x="53" y="-183" font-family="Helvetica,sans-Serif" font-size="10.00">QDialog</text>
</a>
</g>
</g>
<!-- Node2&#45;&gt;Node3 -->
<g id="edge2_Node000002_Node000003" class="edge">
<title>Node2&#45;&gt;Node3</title>
<g id="a_edge2_Node000002_Node000003"><a xlink:title=" ">
<path fill="none" stroke="#63b8ff" d="M53,-230.75C53,-223.8 53,-213.85 53,-205.13"/>
<polygon fill="#63b8ff" stroke="#63b8ff" points="56.5,-205.09 53,-195.09 49.5,-205.09 56.5,-205.09"/>
</a>
</g>
</g>
<!-- Node20 -->
<g id="Node000020" class="node">
<title>Node20</title>
<g id="a_Node000020"><a xlink:title=" ">
<polygon fill="#e0e0e0" stroke="#999999" points="2469.5,-195 2302.5,-195 2302.5,-176 2469.5,-176 2469.5,-195"/>
<text text-anchor="middle" x="2386" y="-183" font-family="Helvetica,sans-Serif" font-size="10.00">../vmisc/vabstractapplication.h</text>
</a>
</g>
</g>
<!-- Node19&#45;&gt;Node20 -->
<g id="edge19_Node000019_Node000020" class="edge">
<title>Node19&#45;&gt;Node20</title>
<g id="a_edge19_Node000019_Node000020"><a xlink:title=" ">
<path fill="none" stroke="#63b8ff" d="M2386,-230.75C2386,-223.8 2386,-213.85 2386,-205.13"/>
<polygon fill="#63b8ff" stroke="#63b8ff" points="2389.5,-205.09 2386,-195.09 2382.5,-205.09 2389.5,-205.09"/>
</a>
</g>
</g>
<!-- Node21 -->
<g id="Node000021" class="node">
<title>Node21</title>
<g id="a_Node000021"><a xlink:href="../../d7/d5b/options_8h.html" target="_top" xlink:title=" ">
<polygon fill="white" stroke="#666666" points="2781.5,-134.5 2710.5,-134.5 2710.5,-115.5 2781.5,-115.5 2781.5,-134.5"/>
<text text-anchor="middle" x="2746" y="-122.5" font-family="Helvetica,sans-Serif" font-size="10.00">../options.h</text>
</a>
</g>
</g>
<!-- Node19&#45;&gt;Node21 -->
<g id="edge20_Node000019_Node000021" class="edge">
<title>Node19&#45;&gt;Node21</title>
<g id="a_edge20_Node000019_Node000021"><a xlink:title=" ">
<path fill="none" stroke="#63b8ff" d="M2404.25,-230.95C2423.05,-222.1 2453.18,-207.8 2479,-195 2495.56,-186.79 2498.53,-182.05 2516,-176 2595.15,-148.6 2619.78,-160.47 2701,-140 2704,-139.24 2707.09,-138.41 2710.19,-137.53"/>
<polygon fill="#63b8ff" stroke="#63b8ff" points="2711.37,-140.83 2719.96,-134.63 2709.38,-134.12 2711.37,-140.83"/>
</a>
</g>
</g>
<!-- Node26 -->
<g id="Node000026" class="node">
<title>Node26</title>
<g id="a_Node000026"><a xlink:title=" ">
<polygon fill="#e0e0e0" stroke="#999999" points="2701,-195 2525,-195 2525,-176 2701,-176 2701,-195"/>
<text text-anchor="middle" x="2613" y="-183" font-family="Helvetica,sans-Serif" font-size="10.00">../vwidgets/vmaingraphicsview.h</text>
</a>
</g>
</g>
<!-- Node19&#45;&gt;Node26 -->
<g id="edge25_Node000019_Node000026" class="edge">
<title>Node19&#45;&gt;Node26</title>
<g id="a_edge25_Node000019_Node000026"><a xlink:title=" ">
<path fill="none" stroke="#63b8ff" d="M2422.47,-230.98C2461.57,-221.86 2523.77,-207.33 2566.39,-197.38"/>
<polygon fill="#63b8ff" stroke="#63b8ff" points="2567.3,-200.76 2576.24,-195.08 2565.71,-193.95 2567.3,-200.76"/>
</a>
</g>
</g>
<!-- Node27 -->
<g id="Node000027" class="node">
<title>Node27</title>
<g id="a_Node000027"><a xlink:title=" ">
<polygon fill="#e0e0e0" stroke="#999999" points="2880.5,-195 2719.5,-195 2719.5,-176 2880.5,-176 2880.5,-195"/>
<text text-anchor="middle" x="2800" y="-183" font-family="Helvetica,sans-Serif" font-size="10.00">../vpatterndb/vtranslatevars.h</text>
</a>
</g>
</g>
<!-- Node19&#45;&gt;Node27 -->
<g id="edge26_Node000019_Node000027" class="edge">
<title>Node19&#45;&gt;Node27</title>
<g id="a_edge26_Node000019_Node000027"><a xlink:title=" ">
<path fill="none" stroke="#63b8ff" d="M2445.76,-231.85C2518.98,-222.48 2643.18,-206.58 2723.36,-196.31"/>
<polygon fill="#63b8ff" stroke="#63b8ff" points="2723.93,-199.77 2733.4,-195.03 2723.04,-192.82 2723.93,-199.77"/>
</a>
</g>
</g>
<!-- Node28 -->
<g id="Node000028" class="node">
<title>Node28</title>
<g id="a_Node000028"><a xlink:href="../../dd/db2/vsettings_8h.html" target="_top" xlink:title=" ">
<polygon fill="white" stroke="#666666" points="1688.5,-195 1617.5,-195 1617.5,-176 1688.5,-176 1688.5,-195"/>
<text text-anchor="middle" x="1653" y="-183" font-family="Helvetica,sans-Serif" font-size="10.00">vsettings.h</text>
</a>
</g>
</g>
<!-- Node19&#45;&gt;Node28 -->
<g id="edge27_Node000019_Node000028" class="edge">
<title>Node19&#45;&gt;Node28</title>
<g id="a_edge27_Node000019_Node000028"><a xlink:title=" ">
<path fill="none" stroke="#63b8ff" d="M2326.33,-235.19C2183.88,-224.89 1826.4,-199.04 1698.99,-189.83"/>
<polygon fill="#63b8ff" stroke="#63b8ff" points="1699.03,-186.32 1688.8,-189.09 1698.52,-193.3 1699.03,-186.32"/>
</a>
</g>
</g>
<!-- Node49 -->
<g id="Node000049" class="node">
<title>Node49</title>
<g id="a_Node000049"><a xlink:href="../../dd/d57/vcmdexport_8h.html" target="_top" xlink:title=" ">
<polygon fill="white" stroke="#666666" points="2285,-195 2201,-195 2201,-176 2285,-176 2285,-195"/>
<text text-anchor="middle" x="2243" y="-183" font-family="Helvetica,sans-Serif" font-size="10.00">vcmdexport.h</text>
</a>
</g>
</g>
<!-- Node19&#45;&gt;Node49 -->
<g id="edge55_Node000019_Node000049" class="edge">
<title>Node19&#45;&gt;Node49</title>
<g id="a_edge55_Node000019_Node000049"><a xlink:title=" ">
<path fill="none" stroke="#63b8ff" d="M2363.02,-230.98C2339.5,-222.27 2302.71,-208.63 2276.06,-198.75"/>
<polygon fill="#63b8ff" stroke="#63b8ff" points="2276.99,-195.36 2266.39,-195.17 2274.55,-201.93 2276.99,-195.36"/>
</a>
</g>
</g>
<!-- Node22 -->
<g id="Node000022" class="node">
<title>Node22</title>
<g id="a_Node000022"><a xlink:title=" ">
<polygon fill="#e0e0e0" stroke="#999999" points="2557.5,-74 2480.5,-74 2480.5,-55 2557.5,-55 2557.5,-74"/>
<text text-anchor="middle" x="2519" y="-62" font-family="Helvetica,sans-Serif" font-size="10.00">../ifc/ifcdef.h</text>
</a>
</g>
</g>
<!-- Node21&#45;&gt;Node22 -->
<g id="edge21_Node000021_Node000022" class="edge">
<title>Node21&#45;&gt;Node22</title>
<g id="a_edge21_Node000021_Node000022"><a xlink:title=" ">
<path fill="none" stroke="#63b8ff" d="M2719.43,-115.44C2713.39,-113.57 2706.99,-111.66 2701,-110 2655.73,-97.44 2603.62,-84.89 2566.79,-76.33"/>
<polygon fill="#63b8ff" stroke="#63b8ff" points="2567.35,-72.87 2556.82,-74.03 2565.78,-79.69 2567.35,-72.87"/>
</a>
</g>
</g>
<!-- Node23 -->
<g id="Node000023" class="node">
<title>Node23</title>
<g id="a_Node000023"><a xlink:title=" ">
<polygon fill="#e0e0e0" stroke="#999999" points="2950.5,-74 2791.5,-74 2791.5,-55 2950.5,-55 2950.5,-74"/>
<text text-anchor="middle" x="2871" y="-62" font-family="Helvetica,sans-Serif" font-size="10.00">../vgeometry/vgeometrydef.h</text>
</a>
</g>
</g>
<!-- Node21&#45;&gt;Node23 -->
<g id="edge22_Node000021_Node000023" class="edge">
<title>Node21&#45;&gt;Node23</title>
<g id="a_edge22_Node000021_Node000023"><a xlink:title=" ">
<path fill="none" stroke="#63b8ff" d="M2764.18,-115.49C2785.01,-105.75 2819.37,-89.66 2843.48,-78.38"/>
<polygon fill="#63b8ff" stroke="#63b8ff" points="2845.23,-81.43 2852.8,-74.02 2842.26,-75.09 2845.23,-81.43"/>
</a>
</g>
</g>
<!-- Node24 -->
<g id="Node000024" class="node">
<title>Node24</title>
<g id="a_Node000024"><a xlink:title=" ">
<polygon fill="#e0e0e0" stroke="#999999" points="2773.5,-74 2646.5,-74 2646.5,-55 2773.5,-55 2773.5,-74"/>
<text text-anchor="middle" x="2710" y="-62" font-family="Helvetica,sans-Serif" font-size="10.00">../qmuparser/qmudef.h</text>
</a>
</g>
</g>
<!-- Node21&#45;&gt;Node24 -->
<g id="edge23_Node000021_Node000024" class="edge">
<title>Node21&#45;&gt;Node24</title>
<g id="a_edge23_Node000021_Node000024"><a xlink:title=" ">
<path fill="none" stroke="#63b8ff" d="M2740.69,-115.37C2735.42,-106.81 2727.21,-93.47 2720.61,-82.74"/>
<polygon fill="#63b8ff" stroke="#63b8ff" points="2723.56,-80.85 2715.33,-74.17 2717.59,-84.52 2723.56,-80.85"/>
</a>
</g>
</g>
<!-- Node25 -->
<g id="Node000025" class="node">
<title>Node25</title>
<g id="a_Node000025"><a xlink:title=" ">
<polygon fill="#e0e0e0" stroke="#999999" points="2426,-74 2344,-74 2344,-55 2426,-55 2426,-74"/>
<text text-anchor="middle" x="2385" y="-62" font-family="Helvetica,sans-Serif" font-size="10.00">../vmisc/def.h</text>
</a>
</g>
</g>
<!-- Node21&#45;&gt;Node25 -->
<g id="edge24_Node000021_Node000025" class="edge">
<title>Node21&#45;&gt;Node25</title>
<g id="a_edge24_Node000021_Node000025"><a xlink:title=" ">
<path fill="none" stroke="#63b8ff" d="M2720.97,-115.43C2714.52,-113.43 2707.55,-111.47 2701,-110 2651.76,-98.95 2512.57,-81.09 2436.39,-71.71"/>
<polygon fill="#63b8ff" stroke="#63b8ff" points="2436.43,-68.19 2426.07,-70.44 2435.57,-75.14 2436.43,-68.19"/>
</a>
</g>
</g>
<!-- Node28&#45;&gt;Node17 -->
<g id="edge31_Node000028_Node000017" class="edge">
<title>Node28&#45;&gt;Node17</title>
<g id="a_edge31_Node000028_Node000017"><a xlink:title=" ">
<path fill="none" stroke="#63b8ff" d="M1617.2,-178.44C1578,-171.3 1513.6,-158.08 1460,-140 1408.99,-122.79 1352.38,-95.26 1320.49,-78.92"/>
<polygon fill="#63b8ff" stroke="#63b8ff" points="1321.91,-75.72 1311.42,-74.24 1318.7,-81.94 1321.91,-75.72"/>
</a>
</g>
</g>
<!-- Node29 -->
<g id="Node000029" class="node">
<title>Node29</title>
<g id="a_Node000029"><a xlink:title=" ">
<polygon fill="#e0e0e0" stroke="#999999" points="1824,-74 1744,-74 1744,-55 1824,-55 1824,-74"/>
<text text-anchor="middle" x="1784" y="-62" font-family="Helvetica,sans-Serif" font-size="10.00">QMetaObject</text>
</a>
</g>
</g>
<!-- Node28&#45;&gt;Node29 -->
<g id="edge28_Node000028_Node000029" class="edge">
<title>Node28&#45;&gt;Node29</title>
<g id="a_edge28_Node000028_Node000029"><a xlink:title=" ">
<path fill="none" stroke="#63b8ff" d="M1662.42,-175.94C1684.31,-156.06 1738.88,-106.49 1766.86,-81.07"/>
<polygon fill="#63b8ff" stroke="#63b8ff" points="1769.26,-83.62 1774.31,-74.3 1764.56,-78.43 1769.26,-83.62"/>
</a>
</g>
</g>
<!-- Node30 -->
<g id="Node000030" class="node">
<title>Node30</title>
<g id="a_Node000030"><a xlink:title=" ">
<polygon fill="#e0e0e0" stroke="#999999" points="1484,-74 1428,-74 1428,-55 1484,-55 1484,-74"/>
<text text-anchor="middle" x="1456" y="-62" font-family="Helvetica,sans-Serif" font-size="10.00">QObject</text>
</a>
</g>
</g>
<!-- Node28&#45;&gt;Node30 -->
<g id="edge29_Node000028_Node000030" class="edge">
<title>Node28&#45;&gt;Node30</title>
<g id="a_edge29_Node000028_Node000030"><a xlink:title=" ">
<path fill="none" stroke="#63b8ff" d="M1617.37,-184.78C1578.92,-183.15 1518.23,-174.69 1481,-140 1465.59,-125.64 1459.68,-101.51 1457.41,-84.61"/>
<polygon fill="#63b8ff" stroke="#63b8ff" points="1460.85,-83.87 1456.35,-74.28 1453.89,-84.58 1460.85,-83.87"/>
</a>
</g>
</g>
<!-- Node31 -->
<g id="Node000031" class="node">
<title>Node31</title>
<g id="a_Node000031"><a xlink:title=" ">
<polygon fill="#e0e0e0" stroke="#999999" points="1604,-74 1540,-74 1540,-55 1604,-55 1604,-74"/>
<text text-anchor="middle" x="1572" y="-62" font-family="Helvetica,sans-Serif" font-size="10.00">QSettings</text>
</a>
</g>
</g>
<!-- Node28&#45;&gt;Node31 -->
<g id="edge30_Node000028_Node000031" class="edge">
<title>Node28&#45;&gt;Node31</title>
<g id="a_edge30_Node000028_Node000031"><a xlink:title=" ">
<path fill="none" stroke="#63b8ff" d="M1649.05,-175.86C1642.34,-161.57 1627.9,-132.39 1612,-110 1604.87,-99.96 1595.77,-89.68 1588.05,-81.54"/>
<polygon fill="#63b8ff" stroke="#63b8ff" points="1590.4,-78.93 1580.92,-74.19 1585.37,-83.8 1590.4,-78.93"/>
</a>
</g>
</g>
<!-- Node32 -->
<g id="Node000032" class="node">
<title>Node32</title>
<g id="a_Node000032"><a xlink:title=" ">
<polygon fill="#e0e0e0" stroke="#999999" points="1622.5,-19 1563.5,-19 1563.5,0 1622.5,0 1622.5,-19"/>
<text text-anchor="middle" x="1593" y="-7" font-family="Helvetica,sans-Serif" font-size="10.00">QtGlobal</text>
</a>
</g>
</g>
<!-- Node28&#45;&gt;Node32 -->
<g id="edge32_Node000028_Node000032" class="edge">
<title>Node28&#45;&gt;Node32</title>
<g id="a_edge32_Node000028_Node000032"><a xlink:title=" ">
<path fill="none" stroke="#63b8ff" d="M1686.47,-175.92C1750.77,-157.87 1881.12,-112.87 1833,-55 1808.03,-24.97 1694.58,-15.11 1633.02,-11.95"/>
<polygon fill="#63b8ff" stroke="#63b8ff" points="1633.04,-8.45 1622.89,-11.46 1632.71,-15.44 1633.04,-8.45"/>
</a>
</g>
</g>
<!-- Node33 -->
<g id="Node000033" class="node">
<title>Node33</title>
<g id="a_Node000033"><a xlink:title=" ">
<polygon fill="#e0e0e0" stroke="#999999" points="2135.5,-74 2072.5,-74 2072.5,-55 2135.5,-55 2135.5,-74"/>
<text text-anchor="middle" x="2104" y="-62" font-family="Helvetica,sans-Serif" font-size="10.00">QMargins</text>
</a>
</g>
</g>
<!-- Node28&#45;&gt;Node33 -->
<g id="edge33_Node000028_Node000033" class="edge">
<title>Node28&#45;&gt;Node33</title>
<g id="a_edge33_Node000028_Node000033"><a xlink:title=" ">
<path fill="none" stroke="#63b8ff" d="M1688.77,-179.62C1726.04,-173.64 1785.51,-161.54 1833,-140 1854.22,-130.38 1854.55,-119.1 1876,-110 1937.62,-83.88 2015.16,-72.92 2062.09,-68.45"/>
<polygon fill="#63b8ff" stroke="#63b8ff" points="2062.54,-71.92 2072.19,-67.54 2061.91,-64.95 2062.54,-71.92"/>
</a>
</g>
</g>
<!-- Node34 -->
<g id="Node000034" class="node">
<title>Node34</title>
<g id="a_Node000034"><a xlink:href="../../d4/da4/def_8h.html" target="_top" xlink:title=" ">
<polygon fill="white" stroke="#666666" points="1026,-134.5 944,-134.5 944,-115.5 1026,-115.5 1026,-134.5"/>
<text text-anchor="middle" x="985" y="-122.5" font-family="Helvetica,sans-Serif" font-size="10.00">../vmisc/def.h</text>
</a>
</g>
</g>
<!-- Node28&#45;&gt;Node34 -->
<g id="edge34_Node000028_Node000034" class="edge">
<title>Node28&#45;&gt;Node34</title>
<g id="a_edge34_Node000028_Node000034"><a xlink:title=" ">
<path fill="none" stroke="#63b8ff" d="M1617.09,-181.35C1505.74,-171.6 1166.05,-141.86 1036.2,-130.48"/>
<polygon fill="#63b8ff" stroke="#63b8ff" points="1036.39,-126.99 1026.13,-129.6 1035.78,-133.96 1036.39,-126.99"/>
</a>
</g>
</g>
<!-- Node42 -->
<g id="Node000042" class="node">
<title>Node42</title>
<g id="a_Node000042"><a xlink:href="../../de/dec/vbank_8h.html" target="_top" xlink:title=" ">
<polygon fill="#fff0f0" stroke="red" points="1726,-74 1622,-74 1622,-55 1726,-55 1726,-74"/>
<text text-anchor="middle" x="1674" y="-62" font-family="Helvetica,sans-Serif" font-size="10.00">../vlayout/vbank.h</text>
</a>
</g>
</g>
<!-- Node28&#45;&gt;Node42 -->
<g id="edge45_Node000028_Node000042" class="edge">
<title>Node28&#45;&gt;Node42</title>
<g id="a_edge45_Node000028_Node000042"><a xlink:title=" ">
<path fill="none" stroke="#63b8ff" d="M1654.51,-175.94C1657.87,-156.91 1666.03,-110.69 1670.65,-84.47"/>
<polygon fill="#63b8ff" stroke="#63b8ff" points="1674.16,-84.76 1672.45,-74.3 1667.26,-83.54 1674.16,-84.76"/>
</a>
</g>
</g>
<!-- Node46 -->
<g id="Node000046" class="node">
<title>Node46</title>
<g id="a_Node000046"><a xlink:href="../../d4/d5c/vcommonsettings_8h.html" target="_top" xlink:title=" ">
<polygon fill="#fff0f0" stroke="red" points="1603.5,-134.5 1490.5,-134.5 1490.5,-115.5 1603.5,-115.5 1603.5,-134.5"/>
<text text-anchor="middle" x="1547" y="-122.5" font-family="Helvetica,sans-Serif" font-size="10.00">vcommonsettings.h</text>
</a>
</g>
</g>
<!-- Node28&#45;&gt;Node46 -->
<g id="edge47_Node000028_Node000046" class="edge">
<title>Node28&#45;&gt;Node46</title>
<g id="a_edge47_Node000028_Node000046"><a xlink:title=" ">
<path fill="none" stroke="#63b8ff" d="M1637.36,-175.87C1620.06,-166.32 1591.95,-150.81 1571.67,-139.62"/>
<polygon fill="#63b8ff" stroke="#63b8ff" points="1573.15,-136.43 1562.7,-134.67 1569.77,-142.56 1573.15,-136.43"/>
</a>
</g>
</g>
<!-- Node34&#45;&gt;Node7 -->
<g id="edge36_Node000034_Node000007" class="edge">
<title>Node34&#45;&gt;Node7</title>
<g id="a_edge36_Node000034_Node000007"><a xlink:title=" ">
<path fill="none" stroke="#63b8ff" d="M943.88,-118.23C865.84,-107.28 696.78,-83.57 614.66,-72.05"/>
<polygon fill="#63b8ff" stroke="#63b8ff" points="615,-68.56 604.61,-70.64 614.03,-75.49 615,-68.56"/>
</a>
</g>
</g>
<!-- Node34&#45;&gt;Node12 -->
<g id="edge42_Node000034_Node000012" class="edge">
<title>Node34&#45;&gt;Node12</title>
<g id="a_edge42_Node000034_Node000012"><a xlink:title=" ">
<path fill="none" stroke="#63b8ff" d="M952.28,-115.49C911.32,-104.84 841.29,-86.64 798,-75.38"/>
<polygon fill="#63b8ff" stroke="#63b8ff" points="798.69,-71.94 788.13,-72.81 796.93,-78.72 798.69,-71.94"/>
</a>
</g>
</g>
<!-- Node34&#45;&gt;Node17 -->
<g id="edge38_Node000034_Node000017" class="edge">
<title>Node34&#45;&gt;Node17</title>
<g id="a_edge38_Node000034_Node000017"><a xlink:title=" ">
<path fill="none" stroke="#63b8ff" d="M1026.44,-117.12C1078.27,-108.36 1169.95,-92.38 1258.37,-74.04"/>
<polygon fill="#63b8ff" stroke="#63b8ff" points="1259.22,-77.44 1268.3,-71.97 1257.79,-70.58 1259.22,-77.44"/>
</a>
</g>
</g>
<!-- Node34&#45;&gt;Node32 -->
<g id="edge41_Node000034_Node000032" class="edge">
<title>Node34&#45;&gt;Node32</title>
<g id="a_edge41_Node000034_Node000032"><a xlink:title=" ">
<path fill="none" stroke="#63b8ff" d="M943.7,-115.86C903.92,-107.08 847.92,-91.93 835,-74 830.06,-67.15 829.21,-61.14 835,-55 859.84,-28.66 1400.45,-14.75 1553.15,-11.34"/>
<polygon fill="#63b8ff" stroke="#63b8ff" points="1553.55,-14.83 1563.47,-11.11 1553.39,-7.83 1553.55,-14.83"/>
</a>
</g>
</g>
<!-- Node35 -->
<g id="Node000035" class="node">
<title>Node35</title>
<g id="a_Node000035"><a xlink:title=" ">
<polygon fill="#e0e0e0" stroke="#999999" points="1250,-74 1130,-74 1130,-55 1250,-55 1250,-74"/>
<text text-anchor="middle" x="1190" y="-62" font-family="Helvetica,sans-Serif" font-size="10.00">qcompilerdetection.h</text>
</a>
</g>
</g>
<!-- Node34&#45;&gt;Node35 -->
<g id="edge35_Node000034_Node000035" class="edge">
<title>Node34&#45;&gt;Node35</title>
<g id="a_edge35_Node000034_Node000035"><a xlink:title=" ">
<path fill="none" stroke="#63b8ff" d="M1014.81,-115.49C1050.56,-105.29 1110.63,-88.15 1150.29,-76.83"/>
<polygon fill="#63b8ff" stroke="#63b8ff" points="1151.5,-80.13 1160.16,-74.02 1149.58,-73.4 1151.5,-80.13"/>
</a>
</g>
</g>
<!-- Node36 -->
<g id="Node000036" class="node">
<title>Node36</title>
<g id="a_Node000036"><a xlink:title=" ">
<polygon fill="#e0e0e0" stroke="#999999" points="894,-74 844,-74 844,-55 894,-55 894,-74"/>
<text text-anchor="middle" x="869" y="-62" font-family="Helvetica,sans-Serif" font-size="10.00">QLineF</text>
</a>
</g>
</g>
<!-- Node34&#45;&gt;Node36 -->
<g id="edge37_Node000034_Node000036" class="edge">
<title>Node34&#45;&gt;Node36</title>
<g id="a_edge37_Node000034_Node000036"><a xlink:title=" ">
<path fill="none" stroke="#63b8ff" d="M967.88,-115.37C948.78,-105.73 917.63,-90.03 895.4,-78.81"/>
<polygon fill="#63b8ff" stroke="#63b8ff" points="896.69,-75.55 886.19,-74.17 893.54,-81.8 896.69,-75.55"/>
</a>
</g>
</g>
<!-- Node37 -->
<g id="Node000037" class="node">
<title>Node37</title>
<g id="a_Node000037"><a xlink:title=" ">
<polygon fill="#e0e0e0" stroke="#999999" points="1410,-74 1340,-74 1340,-55 1410,-55 1410,-74"/>
<text text-anchor="middle" x="1375" y="-62" font-family="Helvetica,sans-Serif" font-size="10.00">QStringList</text>
</a>
</g>
</g>
<!-- Node34&#45;&gt;Node37 -->
<g id="edge39_Node000034_Node000037" class="edge">
<title>Node34&#45;&gt;Node37</title>
<g id="a_edge39_Node000034_Node000037"><a xlink:title=" ">
<path fill="none" stroke="#63b8ff" d="M1026.25,-118.6C1089.21,-110.24 1213.32,-93.25 1329.51,-74.01"/>
<polygon fill="#63b8ff" stroke="#63b8ff" points="1330.36,-77.42 1339.65,-72.32 1329.21,-70.51 1330.36,-77.42"/>
</a>
</g>
</g>
<!-- Node38 -->
<g id="Node000038" class="node">
<title>Node38</title>
<g id="a_Node000038"><a xlink:title=" ">
<polygon fill="#e0e0e0" stroke="#999999" points="941.5,-74 912.5,-74 912.5,-55 941.5,-55 941.5,-74"/>
<text text-anchor="middle" x="927" y="-62" font-family="Helvetica,sans-Serif" font-size="10.00">Qt</text>
</a>
</g>
</g>
<!-- Node34&#45;&gt;Node38 -->
<g id="edge40_Node000034_Node000038" class="edge">
<title>Node34&#45;&gt;Node38</title>
<g id="a_edge40_Node000034_Node000038"><a xlink:title=" ">
<path fill="none" stroke="#63b8ff" d="M976.44,-115.37C967.62,-106.47 953.66,-92.39 942.82,-81.45"/>
<polygon fill="#63b8ff" stroke="#63b8ff" points="945.12,-78.8 935.59,-74.17 940.15,-83.73 945.12,-78.8"/>
</a>
</g>
</g>
<!-- Node39 -->
<g id="Node000039" class="node">
<title>Node39</title>
<g id="a_Node000039"><a xlink:title=" ">
<polygon fill="#e0e0e0" stroke="#999999" points="1010.5,-74 959.5,-74 959.5,-55 1010.5,-55 1010.5,-74"/>
<text text-anchor="middle" x="985" y="-62" font-family="Helvetica,sans-Serif" font-size="10.00">csignal</text>
</a>
</g>
</g>
<!-- Node34&#45;&gt;Node39 -->
<g id="edge43_Node000034_Node000039" class="edge">
<title>Node34&#45;&gt;Node39</title>
<g id="a_edge43_Node000034_Node000039"><a xlink:title=" ">
<path fill="none" stroke="#63b8ff" d="M985,-115.37C985,-107.25 985,-94.81 985,-84.39"/>
<polygon fill="#63b8ff" stroke="#63b8ff" points="988.5,-84.17 985,-74.17 981.5,-84.17 988.5,-84.17"/>
</a>
</g>
</g>
<!-- Node40 -->
<g id="Node000040" class="node">
<title>Node40</title>
<g id="a_Node000040"><a xlink:href="../../d4/d82/debugbreak_8h.html" target="_top" xlink:title=" ">
<polygon fill="#fff0f0" stroke="red" points="1111.5,-74 1028.5,-74 1028.5,-55 1111.5,-55 1111.5,-74"/>
<text text-anchor="middle" x="1070" y="-62" font-family="Helvetica,sans-Serif" font-size="10.00">debugbreak.h</text>
</a>
</g>
</g>
<!-- Node34&#45;&gt;Node40 -->
<g id="edge44_Node000034_Node000040" class="edge">
<title>Node34&#45;&gt;Node40</title>
<g id="a_edge44_Node000034_Node000040"><a xlink:title=" ">
<path fill="none" stroke="#63b8ff" d="M997.54,-115.37C1011.1,-106.04 1032.94,-91.01 1049.1,-79.88"/>
<polygon fill="#63b8ff" stroke="#63b8ff" points="1051.15,-82.72 1057.41,-74.17 1047.18,-76.95 1051.15,-82.72"/>
</a>
</g>
</g>
<!-- Node42&#45;&gt;Node32 -->
<g id="edge46_Node000042_Node000032" class="edge">
<title>Node42&#45;&gt;Node32</title>
<g id="a_edge46_Node000042_Node000032"><a xlink:title=" ">
<path fill="none" stroke="#63b8ff" d="M1660.99,-54.98C1648.54,-46.84 1629.54,-34.41 1614.79,-24.76"/>
<polygon fill="#63b8ff" stroke="#63b8ff" points="1616.54,-21.72 1606.25,-19.17 1612.7,-27.57 1616.54,-21.72"/>
</a>
</g>
</g>
<!-- Node46&#45;&gt;Node17 -->
<g id="edge51_Node000046_Node000017" class="edge">
<title>Node46&#45;&gt;Node17</title>
<g id="a_edge51_Node000046_Node000017"><a xlink:title=" ">
<path fill="none" stroke="#63b8ff" d="M1509.91,-115.47C1468.89,-106.02 1400.57,-90.24 1331.87,-74.2"/>
<polygon fill="#63b8ff" stroke="#63b8ff" points="1332.27,-70.69 1321.73,-71.83 1330.67,-77.51 1332.27,-70.69"/>
</a>
</g>
</g>
<!-- Node46&#45;&gt;Node29 -->
<g id="edge48_Node000046_Node000029" class="edge">
<title>Node46&#45;&gt;Node29</title>
<g id="a_edge48_Node000046_Node000029"><a xlink:title=" ">
<path fill="none" stroke="#63b8ff" d="M1581.46,-115.49C1623.24,-105.18 1693.72,-87.78 1739.54,-76.47"/>
<polygon fill="#63b8ff" stroke="#63b8ff" points="1740.63,-79.81 1749.5,-74.02 1738.95,-73.02 1740.63,-79.81"/>
</a>
</g>
</g>
<!-- Node46&#45;&gt;Node30 -->
<g id="edge49_Node000046_Node000030" class="edge">
<title>Node46&#45;&gt;Node30</title>
<g id="a_edge49_Node000046_Node000030"><a xlink:title=" ">
<path fill="none" stroke="#63b8ff" d="M1533.57,-115.37C1518.92,-105.95 1495.24,-90.73 1477.9,-79.58"/>
<polygon fill="#63b8ff" stroke="#63b8ff" points="1479.79,-76.63 1469.48,-74.17 1476,-82.52 1479.79,-76.63"/>
</a>
</g>
</g>
<!-- Node46&#45;&gt;Node31 -->
<g id="edge50_Node000046_Node000031" class="edge">
<title>Node46&#45;&gt;Node31</title>
<g id="a_edge50_Node000046_Node000031"><a xlink:title=" ">
<path fill="none" stroke="#63b8ff" d="M1550.69,-115.37C1554.27,-106.99 1559.82,-94.01 1564.35,-83.39"/>
<polygon fill="#63b8ff" stroke="#63b8ff" points="1567.58,-84.74 1568.3,-74.17 1561.15,-81.99 1567.58,-84.74"/>
</a>
</g>
</g>
<!-- Node46&#45;&gt;Node32 -->
<g id="edge53_Node000046_Node000032" class="edge">
<title>Node46&#45;&gt;Node32</title>
<g id="a_edge53_Node000046_Node000032"><a xlink:title=" ">
<path fill="none" stroke="#63b8ff" d="M1541.46,-115.47C1533.45,-101.97 1520.67,-75.13 1531,-55 1537.96,-41.44 1551.19,-31.07 1563.65,-23.78"/>
<polygon fill="#63b8ff" stroke="#63b8ff" points="1565.35,-26.84 1572.48,-19 1562.02,-20.68 1565.35,-26.84"/>
</a>
</g>
</g>
<!-- Node46&#45;&gt;Node37 -->
<g id="edge52_Node000046_Node000037" class="edge">
<title>Node46&#45;&gt;Node37</title>
<g id="a_edge52_Node000046_Node000037"><a xlink:title=" ">
<path fill="none" stroke="#63b8ff" d="M1521.99,-115.49C1492.44,-105.44 1443.09,-88.66 1409.81,-77.34"/>
<polygon fill="#63b8ff" stroke="#63b8ff" points="1410.63,-73.92 1400.04,-74.02 1408.38,-80.55 1410.63,-73.92"/>
</a>
</g>
</g>
<!-- Node46&#45;&gt;Node42 -->
<g id="edge54_Node000046_Node000042" class="edge">
<title>Node46&#45;&gt;Node42</title>
<g id="a_edge54_Node000046_Node000042"><a xlink:title=" ">
<path fill="none" stroke="#63b8ff" d="M1565.47,-115.49C1586.72,-105.7 1621.85,-89.52 1646.37,-78.23"/>
<polygon fill="#63b8ff" stroke="#63b8ff" points="1647.89,-81.38 1655.51,-74.02 1644.96,-75.02 1647.89,-81.38"/>
</a>
</g>
</g>
<!-- Node49&#45;&gt;Node25 -->
<g id="edge65_Node000049_Node000025" class="edge">
<title>Node49&#45;&gt;Node25</title>
<g id="a_edge65_Node000049_Node000025"><a xlink:title=" ">
<path fill="none" stroke="#63b8ff" d="M2220.22,-175.89C2204.97,-168.79 2186.08,-157.08 2177,-140 2170.74,-128.23 2168.62,-120.37 2177,-110 2196.31,-86.13 2278.29,-74.49 2333.38,-69.27"/>
<polygon fill="#63b8ff" stroke="#63b8ff" points="2334.03,-72.72 2343.67,-68.34 2333.4,-65.75 2334.03,-72.72"/>
</a>
</g>
</g>
<!-- Node50 -->
<g id="Node000050" class="node">
<title>Node50</title>
<g id="a_Node000050"><a xlink:title=" ">
<polygon fill="#e0e0e0" stroke="#999999" points="2528,-134.5 2470,-134.5 2470,-115.5 2528,-115.5 2528,-134.5"/>
<text text-anchor="middle" x="2499" y="-122.5" font-family="Helvetica,sans-Serif" font-size="10.00">memory</text>
</a>
</g>
</g>
<!-- Node49&#45;&gt;Node50 -->
<g id="edge56_Node000049_Node000050" class="edge">
<title>Node49&#45;&gt;Node50</title>
<g id="a_edge56_Node000049_Node000050"><a xlink:title=" ">
<path fill="none" stroke="#63b8ff" d="M2285.36,-176.65C2339.07,-166.55 2428.58,-149.22 2461,-140 2463.28,-139.35 2465.62,-138.63 2467.97,-137.87"/>
<polygon fill="#63b8ff" stroke="#63b8ff" points="2469.18,-141.15 2477.48,-134.57 2466.89,-134.54 2469.18,-141.15"/>
</a>
</g>
</g>
<!-- Node51 -->
<g id="Node000051" class="node">
<title>Node51</title>
<g id="a_Node000051"><a xlink:title=" ">
<polygon fill="#e0e0e0" stroke="#999999" points="2593.5,-134.5 2546.5,-134.5 2546.5,-115.5 2593.5,-115.5 2593.5,-134.5"/>
<text text-anchor="middle" x="2570" y="-122.5" font-family="Helvetica,sans-Serif" font-size="10.00">vector</text>
</a>
</g>
</g>
<!-- Node49&#45;&gt;Node51 -->
<g id="edge57_Node000049_Node000051" class="edge">
<title>Node49&#45;&gt;Node51</title>
<g id="a_edge57_Node000049_Node000051"><a xlink:title=" ">
<path fill="none" stroke="#63b8ff" d="M2285.01,-177.44C2288.05,-176.94 2291.07,-176.46 2294,-176 2401.85,-159.02 2431.9,-169.56 2537,-140 2538.89,-139.47 2540.81,-138.86 2542.73,-138.19"/>
<polygon fill="#63b8ff" stroke="#63b8ff" points="2544.08,-141.42 2552.14,-134.55 2541.55,-134.89 2544.08,-141.42"/>
</a>
</g>
</g>
<!-- Node52 -->
<g id="Node000052" class="node">
<title>Node52</title>
<g id="a_Node000052"><a xlink:title=" ">
<polygon fill="#e0e0e0" stroke="#999999" points="2692,-134.5 2612,-134.5 2612,-115.5 2692,-115.5 2692,-134.5"/>
<text text-anchor="middle" x="2652" y="-122.5" font-family="Helvetica,sans-Serif" font-size="10.00">QTextStream</text>
</a>
</g>
</g>
<!-- Node49&#45;&gt;Node52 -->
<g id="edge58_Node000049_Node000052" class="edge">
<title>Node49&#45;&gt;Node52</title>
<g id="a_edge58_Node000049_Node000052"><a xlink:title=" ">
<path fill="none" stroke="#63b8ff" d="M2285.28,-177.29C2288.23,-176.84 2291.16,-176.4 2294,-176 2430.9,-156.63 2467.42,-167.08 2603,-140 2606.94,-139.21 2611.02,-138.27 2615.07,-137.24"/>
<polygon fill="#63b8ff" stroke="#63b8ff" points="2616.23,-140.55 2624.98,-134.57 2614.41,-133.79 2616.23,-140.55"/>
</a>
</g>
</g>
<!-- Node53 -->
<g id="Node000053" class="node">
<title>Node53</title>
<g id="a_Node000053"><a xlink:title=" ">
<polygon fill="#e0e0e0" stroke="#999999" points="1986.5,-134.5 1885.5,-134.5 1885.5,-115.5 1986.5,-115.5 1986.5,-134.5"/>
<text text-anchor="middle" x="1936" y="-122.5" font-family="Helvetica,sans-Serif" font-size="10.00">QCoreApplication</text>
</a>
</g>
</g>
<!-- Node49&#45;&gt;Node53 -->
<g id="edge59_Node000049_Node000053" class="edge">
<title>Node49&#45;&gt;Node53</title>
<g id="a_edge59_Node000049_Node000053"><a xlink:title=" ">
<path fill="none" stroke="#63b8ff" d="M2200.74,-177.65C2151.27,-169.46 2066.95,-154.98 1995,-140 1990.29,-139.02 1985.38,-137.94 1980.49,-136.83"/>
<polygon fill="#63b8ff" stroke="#63b8ff" points="1981.09,-133.38 1970.56,-134.54 1979.51,-140.2 1981.09,-133.38"/>
</a>
</g>
</g>
<!-- Node54 -->
<g id="Node000054" class="node">
<title>Node54</title>
<g id="a_Node000054"><a xlink:title=" ">
<polygon fill="#e0e0e0" stroke="#999999" points="2129.5,-134.5 2004.5,-134.5 2004.5,-115.5 2129.5,-115.5 2129.5,-134.5"/>
<text text-anchor="middle" x="2067" y="-122.5" font-family="Helvetica,sans-Serif" font-size="10.00">QCommandLineParser</text>
</a>
</g>
</g>
<!-- Node49&#45;&gt;Node54 -->
<g id="edge60_Node000049_Node000054" class="edge">
<title>Node49&#45;&gt;Node54</title>
<g id="a_edge60_Node000049_Node000054"><a xlink:title=" ">
<path fill="none" stroke="#63b8ff" d="M2217.41,-175.99C2187.04,-165.9 2136.24,-149.01 2102.18,-137.69"/>
<polygon fill="#63b8ff" stroke="#63b8ff" points="2103.22,-134.35 2092.62,-134.52 2101.01,-140.99 2103.22,-134.35"/>
</a>
</g>
</g>
<!-- Node55 -->
<g id="Node000055" class="node">
<title>Node55</title>
<g id="a_Node000055"><a xlink:href="../../d3/dd8/layoutsettings__dialog_8h.html" target="_top" xlink:title=" ">
<polygon fill="#fff0f0" stroke="red" points="2452,-140 2318,-140 2318,-110 2452,-110 2452,-140"/>
<text text-anchor="start" x="2326" y="-128" font-family="Helvetica,sans-Serif" font-size="10.00">../dialogs/layoutsettings</text>
<text text-anchor="middle" x="2385" y="-117" font-family="Helvetica,sans-Serif" font-size="10.00">_dialog.h</text>
</a>
</g>
</g>
<!-- Node49&#45;&gt;Node55 -->
<g id="edge61_Node000049_Node000055" class="edge">
<title>Node49&#45;&gt;Node55</title>
<g id="a_edge61_Node000049_Node000055"><a xlink:title=" ">
<path fill="none" stroke="#63b8ff" d="M2263.65,-175.99C2283.99,-167.61 2315.71,-154.55 2341.61,-143.87"/>
<polygon fill="#63b8ff" stroke="#63b8ff" points="2342.95,-147.11 2350.86,-140.06 2340.28,-140.64 2342.95,-147.11"/>
</a>
</g>
</g>
<!-- Node59 -->
<g id="Node000059" class="node">
<title>Node59</title>
<g id="a_Node000059"><a xlink:title=" ">
<polygon fill="#e0e0e0" stroke="#999999" points="2299.5,-134.5 2186.5,-134.5 2186.5,-115.5 2299.5,-115.5 2299.5,-134.5"/>
<text text-anchor="middle" x="2243" y="-122.5" font-family="Helvetica,sans-Serif" font-size="10.00">../vmisc/vsysexits.h</text>
</a>
</g>
</g>
<!-- Node49&#45;&gt;Node59 -->
<g id="edge66_Node000049_Node000059" class="edge">
<title>Node49&#45;&gt;Node59</title>
<g id="a_edge66_Node000049_Node000059"><a xlink:title=" ">
<path fill="none" stroke="#63b8ff" d="M2243,-175.87C2243,-167.75 2243,-155.31 2243,-144.89"/>
<polygon fill="#63b8ff" stroke="#63b8ff" points="2246.5,-144.67 2243,-134.67 2239.5,-144.67 2246.5,-144.67"/>
</a>
</g>
</g>
<!-- Node55&#45;&gt;Node22 -->
<g id="edge63_Node000055_Node000022" class="edge">
<title>Node55&#45;&gt;Node22</title>
<g id="a_edge63_Node000055_Node000022"><a xlink:title=" ">
<path fill="none" stroke="#63b8ff" d="M2417.1,-109.99C2439.25,-100.31 2468.48,-87.56 2489.95,-78.18"/>
<polygon fill="#63b8ff" stroke="#63b8ff" points="2491.45,-81.35 2499.21,-74.14 2488.65,-74.93 2491.45,-81.35"/>
</a>
</g>
</g>
<!-- Node55&#45;&gt;Node25 -->
<g id="edge62_Node000055_Node000025" class="edge">
<title>Node55&#45;&gt;Node25</title>
<g id="a_edge62_Node000055_Node000025"><a xlink:title=" ">
<path fill="none" stroke="#63b8ff" d="M2385,-109.84C2385,-102.21 2385,-92.7 2385,-84.45"/>
<polygon fill="#63b8ff" stroke="#63b8ff" points="2388.5,-84.27 2385,-74.27 2381.5,-84.27 2388.5,-84.27"/>
</a>
</g>
</g>
<!-- Node55&#45;&gt;Node33 -->
<g id="edge64_Node000055_Node000033" class="edge">
<title>Node55&#45;&gt;Node33</title>
<g id="a_edge64_Node000055_Node000033"><a xlink:title=" ">
<path fill="none" stroke="#63b8ff" d="M2317.69,-109.99C2264.22,-98.86 2191.12,-83.64 2145.77,-74.2"/>
<polygon fill="#63b8ff" stroke="#63b8ff" points="2146.2,-70.71 2135.7,-72.1 2144.77,-77.56 2146.2,-70.71"/>
</a>
</g>
</g>
</g>
</svg>
