<?xml version="1.0" encoding="UTF-8" standalone="no"?>
<!DOCTYPE svg PUBLIC "-//W3C//DTD SVG 1.1//EN"
 "http://www.w3.org/Graphics/SVG/1.1/DTD/svg11.dtd">
<!-- Generated by graphviz version 2.43.0 (0)
 -->
<!-- Title: src/app/seamly2d/dialogs/configpages/preferencesgraphicsviewpage.cpp Pages: 1 -->
<svg width="2320pt" height="324pt"
 viewBox="0.00 0.00 2319.50 324.00" xmlns="http://www.w3.org/2000/svg" xmlns:xlink="http://www.w3.org/1999/xlink">
<g id="graph0" class="graph" transform="scale(1 1) rotate(0) translate(4 320)">
<title>src/app/seamly2d/dialogs/configpages/preferencesgraphicsviewpage.cpp</title>
<!-- Node1 -->
<g id="Node000001" class="node">
<title>Node1</title>
<g id="a_Node000001"><a xlink:title=" ">
<polygon fill="#999999" stroke="#666666" points="1668,-316 1420,-316 1420,-286 1668,-286 1668,-316"/>
<text text-anchor="start" x="1428" y="-304" font-family="Helvetica,sans-Serif" font-size="10.00">src/app/seamly2d/dialogs</text>
<text text-anchor="middle" x="1544" y="-293" font-family="Helvetica,sans-Serif" font-size="10.00">/configpages/preferencesgraphicsviewpage.cpp</text>
</a>
</g>
</g>
<!-- Node2 -->
<g id="Node000002" class="node">
<title>Node2</title>
<g id="a_Node000002"><a xlink:href="../../d8/d78/preferencesgraphicsviewpage_8h.html" target="_top" xlink:title=" ">
<polygon fill="white" stroke="#666666" points="494,-250 322,-250 322,-231 494,-231 494,-250"/>
<text text-anchor="middle" x="408" y="-238" font-family="Helvetica,sans-Serif" font-size="10.00">preferencesgraphicsviewpage.h</text>
</a>
</g>
</g>
<!-- Node1&#45;&gt;Node2 -->
<g id="edge1_Node000001_Node000002" class="edge">
<title>Node1&#45;&gt;Node2</title>
<g id="a_edge1_Node000001_Node000002"><a xlink:title=" ">
<path fill="none" stroke="#63b8ff" d="M1419.96,-295.09C1226.99,-287.21 843.27,-270.49 518,-250 513.52,-249.72 508.95,-249.42 504.32,-249.1"/>
<polygon fill="#63b8ff" stroke="#63b8ff" points="504.37,-245.6 494.15,-248.39 503.89,-252.58 504.37,-245.6"/>
</a>
</g>
</g>
<!-- Node4 -->
<g id="Node000004" class="node">
<title>Node4</title>
<g id="a_Node000004"><a xlink:title=" ">
<polygon fill="#e0e0e0" stroke="#999999" points="713,-250 527,-250 527,-231 713,-231 713,-250"/>
<text text-anchor="middle" x="620" y="-238" font-family="Helvetica,sans-Serif" font-size="10.00">ui_preferencesgraphicsviewpage.h</text>
</a>
</g>
</g>
<!-- Node1&#45;&gt;Node4 -->
<g id="edge3_Node000001_Node000004" class="edge">
<title>Node1&#45;&gt;Node4</title>
<g id="a_edge3_Node000001_Node000004"><a xlink:title=" ">
<path fill="none" stroke="#63b8ff" d="M1419.73,-293.1C1259.54,-284.04 972.41,-267.26 727,-250 725.72,-249.91 724.43,-249.82 723.13,-249.73"/>
<polygon fill="#63b8ff" stroke="#63b8ff" points="723.3,-246.23 713.07,-249 722.79,-253.21 723.3,-246.23"/>
</a>
</g>
</g>
<!-- Node5 -->
<g id="Node000005" class="node">
<title>Node5</title>
<g id="a_Node000005"><a xlink:href="../../d9/d02/vapplication_8h.html" target="_top" xlink:title=" ">
<polygon fill="white" stroke="#666666" points="1005,-250 877,-250 877,-231 1005,-231 1005,-250"/>
<text text-anchor="middle" x="941" y="-238" font-family="Helvetica,sans-Serif" font-size="10.00">../../core/vapplication.h</text>
</a>
</g>
</g>
<!-- Node1&#45;&gt;Node5 -->
<g id="edge4_Node000001_Node000005" class="edge">
<title>Node1&#45;&gt;Node5</title>
<g id="a_edge4_Node000001_Node000005"><a xlink:title=" ">
<path fill="none" stroke="#63b8ff" d="M1419.84,-288.66C1313.43,-278.82 1156.08,-264 1019,-250 1017.88,-249.89 1016.76,-249.77 1015.62,-249.65"/>
<polygon fill="#63b8ff" stroke="#63b8ff" points="1015.57,-246.13 1005.27,-248.57 1014.85,-253.09 1015.57,-246.13"/>
</a>
</g>
</g>
<!-- Node12 -->
<g id="Node000012" class="node">
<title>Node12</title>
<g id="a_Node000012"><a xlink:title=" ">
<polygon fill="#e0e0e0" stroke="#999999" points="1449,-195 1273,-195 1273,-176 1449,-176 1449,-195"/>
<text text-anchor="middle" x="1361" y="-183" font-family="Helvetica,sans-Serif" font-size="10.00">../vwidgets/vmaingraphicsview.h</text>
</a>
</g>
</g>
<!-- Node1&#45;&gt;Node12 -->
<g id="edge55_Node000001_Node000012" class="edge">
<title>Node1&#45;&gt;Node12</title>
<g id="a_edge55_Node000001_Node000012"><a xlink:title=" ">
<path fill="none" stroke="#63b8ff" d="M1419.97,-295.9C1282.33,-290.05 1076.28,-276.88 1052,-250 1046.34,-243.73 1046.47,-237.38 1052,-231 1059.31,-222.56 1185.41,-206.53 1274.23,-196.19"/>
<polygon fill="#63b8ff" stroke="#63b8ff" points="1274.79,-199.65 1284.32,-195.02 1273.99,-192.69 1274.79,-199.65"/>
</a>
</g>
</g>
<!-- Node26 -->
<g id="Node000026" class="node">
<title>Node26</title>
<g id="a_Node000026"><a xlink:title=" ">
<polygon fill="#e0e0e0" stroke="#999999" points="1120.5,-74 1091.5,-74 1091.5,-55 1120.5,-55 1120.5,-74"/>
<text text-anchor="middle" x="1106" y="-62" font-family="Helvetica,sans-Serif" font-size="10.00">Qt</text>
</a>
</g>
</g>
<!-- Node1&#45;&gt;Node26 -->
<g id="edge56_Node000001_Node000026" class="edge">
<title>Node1&#45;&gt;Node26</title>
<g id="a_edge56_Node000001_Node000026"><a xlink:title=" ">
<path fill="none" stroke="#63b8ff" d="M1419.95,-296.74C1253.84,-291.35 968.4,-278.25 868,-250 816.53,-235.52 788.86,-240.64 761,-195 741.68,-163.35 776.44,-125.02 799,-110 902.23,-41.29 956.62,-101.05 1081.18,-73.88"/>
<polygon fill="#63b8ff" stroke="#63b8ff" points="1082.12,-77.26 1091.06,-71.58 1080.53,-70.44 1082.12,-77.26"/>
</a>
</g>
</g>
<!-- Node50 -->
<g id="Node000050" class="node">
<title>Node50</title>
<g id="a_Node000050"><a xlink:title=" ">
<polygon fill="#e0e0e0" stroke="#999999" points="1209,-250 1061,-250 1061,-231 1209,-231 1209,-250"/>
<text text-anchor="middle" x="1135" y="-238" font-family="Helvetica,sans-Serif" font-size="10.00">../vpatterndb/pmsystems.h</text>
</a>
</g>
</g>
<!-- Node1&#45;&gt;Node50 -->
<g id="edge52_Node000001_Node000050" class="edge">
<title>Node1&#45;&gt;Node50</title>
<g id="a_edge52_Node000001_Node000050"><a xlink:title=" ">
<path fill="none" stroke="#63b8ff" d="M1446.03,-285.99C1371.52,-275.33 1270.82,-260.93 1204.45,-251.43"/>
<polygon fill="#63b8ff" stroke="#63b8ff" points="1204.9,-247.96 1194.5,-250.01 1203.91,-254.89 1204.9,-247.96"/>
</a>
</g>
</g>
<!-- Node51 -->
<g id="Node000051" class="node">
<title>Node51</title>
<g id="a_Node000051"><a xlink:title=" ">
<polygon fill="#e0e0e0" stroke="#999999" points="1330.5,-250 1227.5,-250 1227.5,-231 1330.5,-231 1330.5,-250"/>
<text text-anchor="middle" x="1279" y="-238" font-family="Helvetica,sans-Serif" font-size="10.00">../vmisc/logging.h</text>
</a>
</g>
</g>
<!-- Node1&#45;&gt;Node51 -->
<g id="edge53_Node000001_Node000051" class="edge">
<title>Node1&#45;&gt;Node51</title>
<g id="a_edge53_Node000001_Node000051"><a xlink:title=" ">
<path fill="none" stroke="#63b8ff" d="M1480.53,-285.99C1433.6,-275.63 1370.66,-261.73 1327.68,-252.25"/>
<polygon fill="#63b8ff" stroke="#63b8ff" points="1328.27,-248.79 1317.75,-250.05 1326.76,-255.63 1328.27,-248.79"/>
</a>
</g>
</g>
<!-- Node52 -->
<g id="Node000052" class="node">
<title>Node52</title>
<g id="a_Node000052"><a xlink:title=" ">
<polygon fill="#e0e0e0" stroke="#999999" points="1507.5,-250 1348.5,-250 1348.5,-231 1507.5,-231 1507.5,-250"/>
<text text-anchor="middle" x="1428" y="-238" font-family="Helvetica,sans-Serif" font-size="10.00">../vtools/tools/vabstracttool.h</text>
</a>
</g>
</g>
<!-- Node1&#45;&gt;Node52 -->
<g id="edge54_Node000001_Node000052" class="edge">
<title>Node1&#45;&gt;Node52</title>
<g id="a_edge54_Node000001_Node000052"><a xlink:title=" ">
<path fill="none" stroke="#63b8ff" d="M1516.22,-285.99C1497.38,-276.49 1472.65,-264.02 1454.16,-254.69"/>
<polygon fill="#63b8ff" stroke="#63b8ff" points="1455.64,-251.52 1445.13,-250.14 1452.48,-257.77 1455.64,-251.52"/>
</a>
</g>
</g>
<!-- Node53 -->
<g id="Node000053" class="node">
<title>Node53</title>
<g id="a_Node000053"><a xlink:title=" ">
<polygon fill="#e0e0e0" stroke="#999999" points="1563,-250 1525,-250 1525,-231 1563,-231 1563,-250"/>
<text text-anchor="middle" x="1544" y="-238" font-family="Helvetica,sans-Serif" font-size="10.00">QDir</text>
</a>
</g>
</g>
<!-- Node1&#45;&gt;Node53 -->
<g id="edge57_Node000001_Node000053" class="edge">
<title>Node1&#45;&gt;Node53</title>
<g id="a_edge57_Node000001_Node000053"><a xlink:title=" ">
<path fill="none" stroke="#63b8ff" d="M1544,-285.84C1544,-278.21 1544,-268.7 1544,-260.45"/>
<polygon fill="#63b8ff" stroke="#63b8ff" points="1547.5,-260.27 1544,-250.27 1540.5,-260.27 1547.5,-260.27"/>
</a>
</g>
</g>
<!-- Node54 -->
<g id="Node000054" class="node">
<title>Node54</title>
<g id="a_Node000054"><a xlink:title=" ">
<polygon fill="#e0e0e0" stroke="#999999" points="1655,-250 1581,-250 1581,-231 1655,-231 1655,-250"/>
<text text-anchor="middle" x="1618" y="-238" font-family="Helvetica,sans-Serif" font-size="10.00">QDirIterator</text>
</a>
</g>
</g>
<!-- Node1&#45;&gt;Node54 -->
<g id="edge58_Node000001_Node000054" class="edge">
<title>Node1&#45;&gt;Node54</title>
<g id="a_edge58_Node000001_Node000054"><a xlink:title=" ">
<path fill="none" stroke="#63b8ff" d="M1561.91,-285.84C1573.09,-277 1587.48,-265.63 1598.88,-256.62"/>
<polygon fill="#63b8ff" stroke="#63b8ff" points="1601.24,-259.21 1606.91,-250.27 1596.9,-253.72 1601.24,-259.21"/>
</a>
</g>
</g>
<!-- Node55 -->
<g id="Node000055" class="node">
<title>Node55</title>
<g id="a_Node000055"><a xlink:title=" ">
<polygon fill="#e0e0e0" stroke="#999999" points="1759,-250 1673,-250 1673,-231 1759,-231 1759,-250"/>
<text text-anchor="middle" x="1716" y="-238" font-family="Helvetica,sans-Serif" font-size="10.00">QMessageBox</text>
</a>
</g>
</g>
<!-- Node1&#45;&gt;Node55 -->
<g id="edge59_Node000001_Node000055" class="edge">
<title>Node1&#45;&gt;Node55</title>
<g id="a_edge59_Node000001_Node000055"><a xlink:title=" ">
<path fill="none" stroke="#63b8ff" d="M1585.2,-285.99C1614.5,-276.02 1653.42,-262.78 1681.17,-253.35"/>
<polygon fill="#63b8ff" stroke="#63b8ff" points="1682.51,-256.59 1690.85,-250.05 1680.26,-249.96 1682.51,-256.59"/>
</a>
</g>
</g>
<!-- Node56 -->
<g id="Node000056" class="node">
<title>Node56</title>
<g id="a_Node000056"><a xlink:title=" ">
<polygon fill="#e0e0e0" stroke="#999999" points="1830.5,-250 1777.5,-250 1777.5,-231 1830.5,-231 1830.5,-250"/>
<text text-anchor="middle" x="1804" y="-238" font-family="Helvetica,sans-Serif" font-size="10.00">QTimer</text>
</a>
</g>
</g>
<!-- Node1&#45;&gt;Node56 -->
<g id="edge60_Node000001_Node000056" class="edge">
<title>Node1&#45;&gt;Node56</title>
<g id="a_edge60_Node000001_Node000056"><a xlink:title=" ">
<path fill="none" stroke="#63b8ff" d="M1607.77,-285.98C1650.25,-276.59 1707.59,-263.83 1767.28,-250.14"/>
<polygon fill="#63b8ff" stroke="#63b8ff" points="1768.31,-253.5 1777.27,-247.85 1766.74,-246.68 1768.31,-253.5"/>
</a>
</g>
</g>
<!-- Node57 -->
<g id="Node000057" class="node">
<title>Node57</title>
<g id="a_Node000057"><a xlink:title=" ">
<polygon fill="#e0e0e0" stroke="#999999" points="1907.5,-250 1848.5,-250 1848.5,-231 1907.5,-231 1907.5,-250"/>
<text text-anchor="middle" x="1878" y="-238" font-family="Helvetica,sans-Serif" font-size="10.00">QtDebug</text>
</a>
</g>
</g>
<!-- Node1&#45;&gt;Node57 -->
<g id="edge61_Node000001_Node000057" class="edge">
<title>Node1&#45;&gt;Node57</title>
<g id="a_edge61_Node000001_Node000057"><a xlink:title=" ">
<path fill="none" stroke="#63b8ff" d="M1634.58,-285.97C1690.77,-276.97 1764.67,-264.59 1838.25,-250.27"/>
<polygon fill="#63b8ff" stroke="#63b8ff" points="1839.02,-253.69 1848.16,-248.33 1837.67,-246.82 1839.02,-253.69"/>
</a>
</g>
</g>
<!-- Node58 -->
<g id="Node000058" class="node">
<title>Node58</title>
<g id="a_Node000058"><a xlink:title=" ">
<polygon fill="#e0e0e0" stroke="#999999" points="2024,-250 1926,-250 1926,-231 2024,-231 2024,-250"/>
<text text-anchor="middle" x="1975" y="-238" font-family="Helvetica,sans-Serif" font-size="10.00">QDoubleSpinBox</text>
</a>
</g>
</g>
<!-- Node1&#45;&gt;Node58 -->
<g id="edge62_Node000001_Node000058" class="edge">
<title>Node1&#45;&gt;Node58</title>
<g id="a_edge62_Node000001_Node000058"><a xlink:title=" ">
<path fill="none" stroke="#63b8ff" d="M1651.37,-285.96C1723.38,-276.46 1820.63,-263.47 1915.86,-250.15"/>
<polygon fill="#63b8ff" stroke="#63b8ff" points="1916.54,-253.58 1925.96,-248.73 1915.57,-246.65 1916.54,-253.58"/>
</a>
</g>
</g>
<!-- Node59 -->
<g id="Node000059" class="node">
<title>Node59</title>
<g id="a_Node000059"><a xlink:title=" ">
<polygon fill="#e0e0e0" stroke="#999999" points="2115.5,-250 2042.5,-250 2042.5,-231 2115.5,-231 2115.5,-250"/>
<text text-anchor="middle" x="2079" y="-238" font-family="Helvetica,sans-Serif" font-size="10.00">QCheckBox</text>
</a>
</g>
</g>
<!-- Node1&#45;&gt;Node59 -->
<g id="edge63_Node000001_Node000059" class="edge">
<title>Node1&#45;&gt;Node59</title>
<g id="a_edge63_Node000001_Node000059"><a xlink:title=" ">
<path fill="none" stroke="#63b8ff" d="M1668.19,-290.09C1764.72,-281.74 1902.16,-268.41 2032.24,-249.99"/>
<polygon fill="#63b8ff" stroke="#63b8ff" points="2032.98,-253.42 2042.39,-248.54 2031.99,-246.49 2032.98,-253.42"/>
</a>
</g>
</g>
<!-- Node60 -->
<g id="Node000060" class="node">
<title>Node60</title>
<g id="a_Node000060"><a xlink:title=" ">
<polygon fill="#e0e0e0" stroke="#999999" points="2232,-250 2134,-250 2134,-231 2232,-231 2232,-250"/>
<text text-anchor="middle" x="2183" y="-238" font-family="Helvetica,sans-Serif" font-size="10.00">QFontComboBox</text>
</a>
</g>
</g>
<!-- Node1&#45;&gt;Node60 -->
<g id="edge64_Node000001_Node000060" class="edge">
<title>Node1&#45;&gt;Node60</title>
<g id="a_edge64_Node000001_Node000060"><a xlink:title=" ">
<path fill="none" stroke="#63b8ff" d="M1668.04,-291.48C1783.4,-283.06 1960.31,-268.87 2123.73,-250.08"/>
<polygon fill="#63b8ff" stroke="#63b8ff" points="2124.45,-253.52 2133.98,-248.89 2123.64,-246.57 2124.45,-253.52"/>
</a>
</g>
</g>
<!-- Node61 -->
<g id="Node000061" class="node">
<title>Node61</title>
<g id="a_Node000061"><a xlink:title=" ">
<polygon fill="#e0e0e0" stroke="#999999" points="2311.5,-250 2250.5,-250 2250.5,-231 2311.5,-231 2311.5,-250"/>
<text text-anchor="middle" x="2281" y="-238" font-family="Helvetica,sans-Serif" font-size="10.00">QPixmap</text>
</a>
</g>
</g>
<!-- Node1&#45;&gt;Node61 -->
<g id="edge65_Node000001_Node000061" class="edge">
<title>Node1&#45;&gt;Node61</title>
<g id="a_edge65_Node000001_Node000061"><a xlink:title=" ">
<path fill="none" stroke="#63b8ff" d="M1668.25,-296.25C1805.83,-290.92 2034.24,-278.59 2239.98,-249.93"/>
<polygon fill="#63b8ff" stroke="#63b8ff" points="2240.65,-253.37 2250.07,-248.51 2239.68,-246.44 2240.65,-253.37"/>
</a>
</g>
</g>
<!-- Node3 -->
<g id="Node000003" class="node">
<title>Node3</title>
<g id="a_Node000003"><a xlink:title=" ">
<polygon fill="#e0e0e0" stroke="#999999" points="387.5,-195 328.5,-195 328.5,-176 387.5,-176 387.5,-195"/>
<text text-anchor="middle" x="358" y="-183" font-family="Helvetica,sans-Serif" font-size="10.00">QWidget</text>
</a>
</g>
</g>
<!-- Node2&#45;&gt;Node3 -->
<g id="edge2_Node000002_Node000003" class="edge">
<title>Node2&#45;&gt;Node3</title>
<g id="a_edge2_Node000002_Node000003"><a xlink:title=" ">
<path fill="none" stroke="#63b8ff" d="M399.74,-230.75C392.54,-223.11 381.89,-211.82 373.15,-202.56"/>
<polygon fill="#63b8ff" stroke="#63b8ff" points="375.51,-199.96 366.1,-195.09 370.42,-204.76 375.51,-199.96"/>
</a>
</g>
</g>
<!-- Node6 -->
<g id="Node000006" class="node">
<title>Node6</title>
<g id="a_Node000006"><a xlink:title=" ">
<polygon fill="#e0e0e0" stroke="#999999" points="1115.5,-195 948.5,-195 948.5,-176 1115.5,-176 1115.5,-195"/>
<text text-anchor="middle" x="1032" y="-183" font-family="Helvetica,sans-Serif" font-size="10.00">../vmisc/vabstractapplication.h</text>
</a>
</g>
</g>
<!-- Node5&#45;&gt;Node6 -->
<g id="edge5_Node000005_Node000006" class="edge">
<title>Node5&#45;&gt;Node6</title>
<g id="a_edge5_Node000005_Node000006"><a xlink:title=" ">
<path fill="none" stroke="#63b8ff" d="M955.62,-230.98C969.86,-222.69 991.75,-209.94 1008.45,-200.22"/>
<polygon fill="#63b8ff" stroke="#63b8ff" points="1010.23,-203.23 1017.11,-195.17 1006.71,-197.18 1010.23,-203.23"/>
</a>
</g>
</g>
<!-- Node7 -->
<g id="Node000007" class="node">
<title>Node7</title>
<g id="a_Node000007"><a xlink:href="../../d7/d5b/options_8h.html" target="_top" xlink:title=" ">
<polygon fill="white" stroke="#666666" points="1702.5,-134.5 1631.5,-134.5 1631.5,-115.5 1702.5,-115.5 1702.5,-134.5"/>
<text text-anchor="middle" x="1667" y="-122.5" font-family="Helvetica,sans-Serif" font-size="10.00">../options.h</text>
</a>
</g>
</g>
<!-- Node5&#45;&gt;Node7 -->
<g id="edge6_Node000005_Node000007" class="edge">
<title>Node5&#45;&gt;Node7</title>
<g id="a_edge6_Node000005_Node000007"><a xlink:title=" ">
<path fill="none" stroke="#63b8ff" d="M1005.31,-231.8C1076.37,-222.88 1186.05,-207.77 1226,-195 1243.99,-189.25 1245.88,-181.31 1264,-176 1408.12,-133.75 1451.64,-163.39 1600,-140 1606.86,-138.92 1614.08,-137.6 1621.14,-136.21"/>
<polygon fill="#63b8ff" stroke="#63b8ff" points="1622.2,-139.57 1631.31,-134.14 1620.81,-132.71 1622.2,-139.57"/>
</a>
</g>
</g>
<!-- Node5&#45;&gt;Node12 -->
<g id="edge11_Node000005_Node000012" class="edge">
<title>Node5&#45;&gt;Node12</title>
<g id="a_edge11_Node000005_Node000012"><a xlink:title=" ">
<path fill="none" stroke="#63b8ff" d="M1005.25,-231.39C1080.06,-221.95 1203.58,-206.37 1283.61,-196.27"/>
<polygon fill="#63b8ff" stroke="#63b8ff" points="1284.15,-199.73 1293.63,-195 1283.27,-192.78 1284.15,-199.73"/>
</a>
</g>
</g>
<!-- Node13 -->
<g id="Node000013" class="node">
<title>Node13</title>
<g id="a_Node000013"><a xlink:title=" ">
<polygon fill="#e0e0e0" stroke="#999999" points="930.5,-195 769.5,-195 769.5,-176 930.5,-176 930.5,-195"/>
<text text-anchor="middle" x="850" y="-183" font-family="Helvetica,sans-Serif" font-size="10.00">../vpatterndb/vtranslatevars.h</text>
</a>
</g>
</g>
<!-- Node5&#45;&gt;Node13 -->
<g id="edge12_Node000005_Node000013" class="edge">
<title>Node5&#45;&gt;Node13</title>
<g id="a_edge12_Node000005_Node000013"><a xlink:title=" ">
<path fill="none" stroke="#63b8ff" d="M926.38,-230.98C912.14,-222.69 890.25,-209.94 873.55,-200.22"/>
<polygon fill="#63b8ff" stroke="#63b8ff" points="875.29,-197.18 864.89,-195.17 871.77,-203.23 875.29,-197.18"/>
</a>
</g>
</g>
<!-- Node14 -->
<g id="Node000014" class="node">
<title>Node14</title>
<g id="a_Node000014"><a xlink:href="../../dd/db2/vsettings_8h.html" target="_top" xlink:title=" ">
<polygon fill="white" stroke="#666666" points="476.5,-195 405.5,-195 405.5,-176 476.5,-176 476.5,-195"/>
<text text-anchor="middle" x="441" y="-183" font-family="Helvetica,sans-Serif" font-size="10.00">vsettings.h</text>
</a>
</g>
</g>
<!-- Node5&#45;&gt;Node14 -->
<g id="edge13_Node000005_Node000014" class="edge">
<title>Node5&#45;&gt;Node14</title>
<g id="a_edge13_Node000005_Node000014"><a xlink:title=" ">
<path fill="none" stroke="#63b8ff" d="M876.91,-232.71C774.51,-221.85 576.43,-200.86 486.9,-191.37"/>
<polygon fill="#63b8ff" stroke="#63b8ff" points="487.11,-187.87 476.79,-190.29 486.37,-194.83 487.11,-187.87"/>
</a>
</g>
</g>
<!-- Node38 -->
<g id="Node000038" class="node">
<title>Node38</title>
<g id="a_Node000038"><a xlink:href="../../dd/d57/vcmdexport_8h.html" target="_top" xlink:title=" ">
<polygon fill="white" stroke="#666666" points="1217,-195 1133,-195 1133,-176 1217,-176 1217,-195"/>
<text text-anchor="middle" x="1175" y="-183" font-family="Helvetica,sans-Serif" font-size="10.00">vcmdexport.h</text>
</a>
</g>
</g>
<!-- Node5&#45;&gt;Node38 -->
<g id="edge40_Node000005_Node000038" class="edge">
<title>Node5&#45;&gt;Node38</title>
<g id="a_edge40_Node000005_Node000038"><a xlink:title=" ">
<path fill="none" stroke="#63b8ff" d="M978.6,-230.98C1018.99,-221.84 1083.28,-207.27 1127.23,-197.32"/>
<polygon fill="#63b8ff" stroke="#63b8ff" points="1128.13,-200.7 1137.11,-195.08 1126.58,-193.88 1128.13,-200.7"/>
</a>
</g>
</g>
<!-- Node8 -->
<g id="Node000008" class="node">
<title>Node8</title>
<g id="a_Node000008"><a xlink:title=" ">
<polygon fill="#e0e0e0" stroke="#999999" points="1644.5,-74 1567.5,-74 1567.5,-55 1644.5,-55 1644.5,-74"/>
<text text-anchor="middle" x="1606" y="-62" font-family="Helvetica,sans-Serif" font-size="10.00">../ifc/ifcdef.h</text>
</a>
</g>
</g>
<!-- Node7&#45;&gt;Node8 -->
<g id="edge7_Node000007_Node000008" class="edge">
<title>Node7&#45;&gt;Node8</title>
<g id="a_edge7_Node000007_Node000008"><a xlink:title=" ">
<path fill="none" stroke="#63b8ff" d="M1658,-115.37C1648.63,-106.38 1633.75,-92.11 1622.3,-81.14"/>
<polygon fill="#63b8ff" stroke="#63b8ff" points="1624.68,-78.56 1615.04,-74.17 1619.83,-83.62 1624.68,-78.56"/>
</a>
</g>
</g>
<!-- Node9 -->
<g id="Node000009" class="node">
<title>Node9</title>
<g id="a_Node000009"><a xlink:title=" ">
<polygon fill="#e0e0e0" stroke="#999999" points="1966.5,-74 1807.5,-74 1807.5,-55 1966.5,-55 1966.5,-74"/>
<text text-anchor="middle" x="1887" y="-62" font-family="Helvetica,sans-Serif" font-size="10.00">../vgeometry/vgeometrydef.h</text>
</a>
</g>
</g>
<!-- Node7&#45;&gt;Node9 -->
<g id="edge8_Node000007_Node000009" class="edge">
<title>Node7&#45;&gt;Node9</title>
<g id="a_edge8_Node000007_Node000009"><a xlink:title=" ">
<path fill="none" stroke="#63b8ff" d="M1698.99,-115.49C1737.6,-105.23 1802.64,-87.93 1845.2,-76.62"/>
<polygon fill="#63b8ff" stroke="#63b8ff" points="1846.21,-79.97 1854.97,-74.02 1844.41,-73.2 1846.21,-79.97"/>
</a>
</g>
</g>
<!-- Node10 -->
<g id="Node000010" class="node">
<title>Node10</title>
<g id="a_Node000010"><a xlink:title=" ">
<polygon fill="#e0e0e0" stroke="#999999" points="1789.5,-74 1662.5,-74 1662.5,-55 1789.5,-55 1789.5,-74"/>
<text text-anchor="middle" x="1726" y="-62" font-family="Helvetica,sans-Serif" font-size="10.00">../qmuparser/qmudef.h</text>
</a>
</g>
</g>
<!-- Node7&#45;&gt;Node10 -->
<g id="edge9_Node000007_Node000010" class="edge">
<title>Node7&#45;&gt;Node10</title>
<g id="a_edge9_Node000007_Node000010"><a xlink:title=" ">
<path fill="none" stroke="#63b8ff" d="M1675.71,-115.37C1684.68,-106.47 1698.88,-92.39 1709.91,-81.45"/>
<polygon fill="#63b8ff" stroke="#63b8ff" points="1712.62,-83.69 1717.26,-74.17 1707.69,-78.72 1712.62,-83.69"/>
</a>
</g>
</g>
<!-- Node11 -->
<g id="Node000011" class="node">
<title>Node11</title>
<g id="a_Node000011"><a xlink:title=" ">
<polygon fill="#e0e0e0" stroke="#999999" points="1549,-74 1467,-74 1467,-55 1549,-55 1549,-74"/>
<text text-anchor="middle" x="1508" y="-62" font-family="Helvetica,sans-Serif" font-size="10.00">../vmisc/def.h</text>
</a>
</g>
</g>
<!-- Node7&#45;&gt;Node11 -->
<g id="edge10_Node000007_Node000011" class="edge">
<title>Node7&#45;&gt;Node11</title>
<g id="a_edge10_Node000007_Node000011"><a xlink:title=" ">
<path fill="none" stroke="#63b8ff" d="M1643.88,-115.49C1616.68,-105.49 1571.33,-88.8 1540.58,-77.49"/>
<polygon fill="#63b8ff" stroke="#63b8ff" points="1541.74,-74.18 1531.15,-74.02 1539.32,-80.75 1541.74,-74.18"/>
</a>
</g>
</g>
<!-- Node15 -->
<g id="Node000015" class="node">
<title>Node15</title>
<g id="a_Node000015"><a xlink:title=" ">
<polygon fill="#e0e0e0" stroke="#999999" points="80,-74 0,-74 0,-55 80,-55 80,-74"/>
<text text-anchor="middle" x="40" y="-62" font-family="Helvetica,sans-Serif" font-size="10.00">QMetaObject</text>
</a>
</g>
</g>
<!-- Node14&#45;&gt;Node15 -->
<g id="edge14_Node000014_Node000015" class="edge">
<title>Node14&#45;&gt;Node15</title>
<g id="a_edge14_Node000014_Node000015"><a xlink:title=" ">
<path fill="none" stroke="#63b8ff" d="M405.16,-177.62C402.06,-177.06 398.98,-176.51 396,-176 293.16,-158.31 262.11,-175.53 164,-140 123.8,-125.44 82.23,-97.3 58.89,-80.08"/>
<polygon fill="#63b8ff" stroke="#63b8ff" points="60.97,-77.27 50.87,-74.06 56.77,-82.86 60.97,-77.27"/>
</a>
</g>
</g>
<!-- Node16 -->
<g id="Node000016" class="node">
<title>Node16</title>
<g id="a_Node000016"><a xlink:title=" ">
<polygon fill="#e0e0e0" stroke="#999999" points="154,-74 98,-74 98,-55 154,-55 154,-74"/>
<text text-anchor="middle" x="126" y="-62" font-family="Helvetica,sans-Serif" font-size="10.00">QObject</text>
</a>
</g>
</g>
<!-- Node14&#45;&gt;Node16 -->
<g id="edge15_Node000014_Node000016" class="edge">
<title>Node14&#45;&gt;Node16</title>
<g id="a_edge15_Node000014_Node000016"><a xlink:title=" ">
<path fill="none" stroke="#63b8ff" d="M405.46,-177.75C340.73,-165.43 210.11,-140.55 209,-140 180.64,-125.93 154.65,-99.44 139.57,-82.14"/>
<polygon fill="#63b8ff" stroke="#63b8ff" points="141.85,-79.42 132.72,-74.04 136.51,-83.94 141.85,-79.42"/>
</a>
</g>
</g>
<!-- Node17 -->
<g id="Node000017" class="node">
<title>Node17</title>
<g id="a_Node000017"><a xlink:title=" ">
<polygon fill="#e0e0e0" stroke="#999999" points="236,-74 172,-74 172,-55 236,-55 236,-74"/>
<text text-anchor="middle" x="204" y="-62" font-family="Helvetica,sans-Serif" font-size="10.00">QSettings</text>
</a>
</g>
</g>
<!-- Node14&#45;&gt;Node17 -->
<g id="edge16_Node000014_Node000017" class="edge">
<title>Node14&#45;&gt;Node17</title>
<g id="a_edge16_Node000014_Node000017"><a xlink:title=" ">
<path fill="none" stroke="#63b8ff" d="M405.12,-177.36C346.01,-165.53 234.3,-142.87 231,-140 214.89,-125.99 208.39,-101.59 205.77,-84.54"/>
<polygon fill="#63b8ff" stroke="#63b8ff" points="209.19,-83.64 204.5,-74.13 202.24,-84.48 209.19,-83.64"/>
</a>
</g>
</g>
<!-- Node18 -->
<g id="Node000018" class="node">
<title>Node18</title>
<g id="a_Node000018"><a xlink:title=" ">
<polygon fill="#e0e0e0" stroke="#999999" points="467.5,-74 414.5,-74 414.5,-55 467.5,-55 467.5,-74"/>
<text text-anchor="middle" x="441" y="-62" font-family="Helvetica,sans-Serif" font-size="10.00">QString</text>
</a>
</g>
</g>
<!-- Node14&#45;&gt;Node18 -->
<g id="edge17_Node000014_Node000018" class="edge">
<title>Node14&#45;&gt;Node18</title>
<g id="a_edge17_Node000014_Node000018"><a xlink:title=" ">
<path fill="none" stroke="#63b8ff" d="M441,-175.94C441,-156.91 441,-110.69 441,-84.47"/>
<polygon fill="#63b8ff" stroke="#63b8ff" points="444.5,-84.3 441,-74.3 437.5,-84.3 444.5,-84.3"/>
</a>
</g>
</g>
<!-- Node19 -->
<g id="Node000019" class="node">
<title>Node19</title>
<g id="a_Node000019"><a xlink:title=" ">
<polygon fill="#e0e0e0" stroke="#999999" points="449.5,-19 390.5,-19 390.5,0 449.5,0 449.5,-19"/>
<text text-anchor="middle" x="420" y="-7" font-family="Helvetica,sans-Serif" font-size="10.00">QtGlobal</text>
</a>
</g>
</g>
<!-- Node14&#45;&gt;Node19 -->
<g id="edge18_Node000014_Node000019" class="edge">
<title>Node14&#45;&gt;Node19</title>
<g id="a_edge18_Node000014_Node000019"><a xlink:title=" ">
<path fill="none" stroke="#63b8ff" d="M447.3,-175.94C462.16,-154.62 496.65,-97.79 476,-55 469.78,-42.12 457.82,-31.82 446.54,-24.38"/>
<polygon fill="#63b8ff" stroke="#63b8ff" points="448.13,-21.25 437.77,-19.04 444.49,-27.23 448.13,-21.25"/>
</a>
</g>
</g>
<!-- Node20 -->
<g id="Node000020" class="node">
<title>Node20</title>
<g id="a_Node000020"><a xlink:title=" ">
<polygon fill="#e0e0e0" stroke="#999999" points="1342.5,-74 1279.5,-74 1279.5,-55 1342.5,-55 1342.5,-74"/>
<text text-anchor="middle" x="1311" y="-62" font-family="Helvetica,sans-Serif" font-size="10.00">QMargins</text>
</a>
</g>
</g>
<!-- Node14&#45;&gt;Node20 -->
<g id="edge19_Node000014_Node000020" class="edge">
<title>Node14&#45;&gt;Node20</title>
<g id="a_edge19_Node000014_Node000020"><a xlink:title=" ">
<path fill="none" stroke="#63b8ff" d="M476.56,-181.34C530.39,-176 635.46,-163.42 722,-140 757.45,-130.41 763.23,-118.34 799,-110 888.15,-89.21 1163.35,-73.16 1269.05,-67.61"/>
<polygon fill="#63b8ff" stroke="#63b8ff" points="1269.53,-71.09 1279.33,-67.07 1269.16,-64.09 1269.53,-71.09"/>
</a>
</g>
</g>
<!-- Node21 -->
<g id="Node000021" class="node">
<title>Node21</title>
<g id="a_Node000021"><a xlink:href="../../d4/da4/def_8h.html" target="_top" xlink:title=" ">
<polygon fill="#fff0f0" stroke="red" points="713,-134.5 631,-134.5 631,-115.5 713,-115.5 713,-134.5"/>
<text text-anchor="middle" x="672" y="-122.5" font-family="Helvetica,sans-Serif" font-size="10.00">../vmisc/def.h</text>
</a>
</g>
</g>
<!-- Node14&#45;&gt;Node21 -->
<g id="edge20_Node000014_Node000021" class="edge">
<title>Node14&#45;&gt;Node21</title>
<g id="a_edge20_Node000014_Node000021"><a xlink:title=" ">
<path fill="none" stroke="#63b8ff" d="M474.59,-175.99C515.31,-165.68 584,-148.28 628.67,-136.97"/>
<polygon fill="#63b8ff" stroke="#63b8ff" points="629.54,-140.36 638.37,-134.52 627.82,-133.58 629.54,-140.36"/>
</a>
</g>
</g>
<!-- Node31 -->
<g id="Node000031" class="node">
<title>Node31</title>
<g id="a_Node000031"><a xlink:href="../../de/dec/vbank_8h.html" target="_top" xlink:title=" ">
<polygon fill="#fff0f0" stroke="red" points="396,-74 292,-74 292,-55 396,-55 396,-74"/>
<text text-anchor="middle" x="344" y="-62" font-family="Helvetica,sans-Serif" font-size="10.00">../vlayout/vbank.h</text>
</a>
</g>
</g>
<!-- Node14&#45;&gt;Node31 -->
<g id="edge30_Node000014_Node000031" class="edge">
<title>Node14&#45;&gt;Node31</title>
<g id="a_edge30_Node000014_Node000031"><a xlink:title=" ">
<path fill="none" stroke="#63b8ff" d="M434.02,-175.94C418.02,-156.31 378.45,-107.76 357.5,-82.07"/>
<polygon fill="#63b8ff" stroke="#63b8ff" points="360.21,-79.84 351.17,-74.3 354.78,-84.26 360.21,-79.84"/>
</a>
</g>
</g>
<!-- Node35 -->
<g id="Node000035" class="node">
<title>Node35</title>
<g id="a_Node000035"><a xlink:href="../../d4/d5c/vcommonsettings_8h.html" target="_top" xlink:title=" ">
<polygon fill="#fff0f0" stroke="red" points="353.5,-134.5 240.5,-134.5 240.5,-115.5 353.5,-115.5 353.5,-134.5"/>
<text text-anchor="middle" x="297" y="-122.5" font-family="Helvetica,sans-Serif" font-size="10.00">vcommonsettings.h</text>
</a>
</g>
</g>
<!-- Node14&#45;&gt;Node35 -->
<g id="edge32_Node000014_Node000035" class="edge">
<title>Node14&#45;&gt;Node35</title>
<g id="a_edge32_Node000014_Node000035"><a xlink:title=" ">
<path fill="none" stroke="#63b8ff" d="M420.06,-175.99C395.64,-166.07 355.07,-149.59 327.23,-138.28"/>
<polygon fill="#63b8ff" stroke="#63b8ff" points="328.55,-135.04 317.96,-134.52 325.91,-141.52 328.55,-135.04"/>
</a>
</g>
</g>
<!-- Node21&#45;&gt;Node18 -->
<g id="edge24_Node000021_Node000018" class="edge">
<title>Node21&#45;&gt;Node18</title>
<g id="a_edge24_Node000021_Node000018"><a xlink:title=" ">
<path fill="none" stroke="#63b8ff" d="M638.41,-115.49C595.57,-104.65 521.77,-85.95 477.55,-74.76"/>
<polygon fill="#63b8ff" stroke="#63b8ff" points="478.34,-71.35 467.79,-72.28 476.63,-78.13 478.34,-71.35"/>
</a>
</g>
</g>
<!-- Node21&#45;&gt;Node19 -->
<g id="edge27_Node000021_Node000019" class="edge">
<title>Node21&#45;&gt;Node19</title>
<g id="a_edge27_Node000021_Node000019"><a xlink:title=" ">
<path fill="none" stroke="#63b8ff" d="M702.19,-115.46C742.11,-103.87 808.25,-83.52 815,-74 819.89,-67.11 820.63,-61.3 815,-55 791.59,-28.81 555.53,-16.13 459.91,-12.04"/>
<polygon fill="#63b8ff" stroke="#63b8ff" points="459.9,-8.53 449.76,-11.61 459.61,-15.53 459.9,-8.53"/>
</a>
</g>
</g>
<!-- Node22 -->
<g id="Node000022" class="node">
<title>Node22</title>
<g id="a_Node000022"><a xlink:title=" ">
<polygon fill="#e0e0e0" stroke="#999999" points="982,-74 862,-74 862,-55 982,-55 982,-74"/>
<text text-anchor="middle" x="922" y="-62" font-family="Helvetica,sans-Serif" font-size="10.00">qcompilerdetection.h</text>
</a>
</g>
</g>
<!-- Node21&#45;&gt;Node22 -->
<g id="edge21_Node000021_Node000022" class="edge">
<title>Node21&#45;&gt;Node22</title>
<g id="a_edge21_Node000021_Node000022"><a xlink:title=" ">
<path fill="none" stroke="#63b8ff" d="M705.12,-115.43C712.33,-113.6 719.91,-111.71 727,-110 776.68,-98.01 833.7,-85.1 873.19,-76.29"/>
<polygon fill="#63b8ff" stroke="#63b8ff" points="874.09,-79.67 883.09,-74.08 872.56,-72.84 874.09,-79.67"/>
</a>
</g>
</g>
<!-- Node23 -->
<g id="Node000023" class="node">
<title>Node23</title>
<g id="a_Node000023"><a xlink:title=" ">
<polygon fill="#e0e0e0" stroke="#999999" points="1073.5,-74 1000.5,-74 1000.5,-55 1073.5,-55 1073.5,-74"/>
<text text-anchor="middle" x="1037" y="-62" font-family="Helvetica,sans-Serif" font-size="10.00">QFileDialog</text>
</a>
</g>
</g>
<!-- Node21&#45;&gt;Node23 -->
<g id="edge22_Node000021_Node000023" class="edge">
<title>Node21&#45;&gt;Node23</title>
<g id="a_edge22_Node000021_Node000023"><a xlink:title=" ">
<path fill="none" stroke="#63b8ff" d="M702.98,-115.46C710.78,-113.49 719.17,-111.53 727,-110 840.06,-87.98 872.33,-92.49 990.22,-74.04"/>
<polygon fill="#63b8ff" stroke="#63b8ff" points="991.04,-77.45 1000.37,-72.43 989.94,-70.54 991.04,-77.45"/>
</a>
</g>
</g>
<!-- Node24 -->
<g id="Node000024" class="node">
<title>Node24</title>
<g id="a_Node000024"><a xlink:title=" ">
<polygon fill="#e0e0e0" stroke="#999999" points="662,-74 612,-74 612,-55 662,-55 662,-74"/>
<text text-anchor="middle" x="637" y="-62" font-family="Helvetica,sans-Serif" font-size="10.00">QLineF</text>
</a>
</g>
</g>
<!-- Node21&#45;&gt;Node24 -->
<g id="edge23_Node000021_Node000024" class="edge">
<title>Node21&#45;&gt;Node24</title>
<g id="a_edge23_Node000021_Node000024"><a xlink:title=" ">
<path fill="none" stroke="#63b8ff" d="M666.84,-115.37C661.77,-106.9 653.9,-93.74 647.51,-83.07"/>
<polygon fill="#63b8ff" stroke="#63b8ff" points="650.32,-80.95 642.19,-74.17 644.32,-84.55 650.32,-80.95"/>
</a>
</g>
</g>
<!-- Node25 -->
<g id="Node000025" class="node">
<title>Node25</title>
<g id="a_Node000025"><a xlink:title=" ">
<polygon fill="#e0e0e0" stroke="#999999" points="594,-74 524,-74 524,-55 594,-55 594,-74"/>
<text text-anchor="middle" x="559" y="-62" font-family="Helvetica,sans-Serif" font-size="10.00">QStringList</text>
</a>
</g>
</g>
<!-- Node21&#45;&gt;Node25 -->
<g id="edge25_Node000021_Node000025" class="edge">
<title>Node21&#45;&gt;Node25</title>
<g id="a_edge25_Node000021_Node000025"><a xlink:title=" ">
<path fill="none" stroke="#63b8ff" d="M655.33,-115.37C636.72,-105.73 606.38,-90.03 584.72,-78.81"/>
<polygon fill="#63b8ff" stroke="#63b8ff" points="586.23,-75.66 575.74,-74.17 583.01,-81.87 586.23,-75.66"/>
</a>
</g>
</g>
<!-- Node21&#45;&gt;Node26 -->
<g id="edge26_Node000021_Node000026" class="edge">
<title>Node21&#45;&gt;Node26</title>
<g id="a_edge26_Node000021_Node000026"><a xlink:title=" ">
<path fill="none" stroke="#63b8ff" d="M702.08,-115.48C710.13,-113.44 718.85,-111.44 727,-110 880.39,-82.88 926.19,-108.74 1081.19,-73.9"/>
<polygon fill="#63b8ff" stroke="#63b8ff" points="1082.11,-77.28 1091.07,-71.64 1080.54,-70.46 1082.11,-77.28"/>
</a>
</g>
</g>
<!-- Node27 -->
<g id="Node000027" class="node">
<title>Node27</title>
<g id="a_Node000027"><a xlink:title=" ">
<polygon fill="#e0e0e0" stroke="#999999" points="736,-74 680,-74 680,-55 736,-55 736,-74"/>
<text text-anchor="middle" x="708" y="-62" font-family="Helvetica,sans-Serif" font-size="10.00">QPrinter</text>
</a>
</g>
</g>
<!-- Node21&#45;&gt;Node27 -->
<g id="edge28_Node000021_Node000027" class="edge">
<title>Node21&#45;&gt;Node27</title>
<g id="a_edge28_Node000021_Node000027"><a xlink:title=" ">
<path fill="none" stroke="#63b8ff" d="M677.31,-115.37C682.58,-106.81 690.79,-93.47 697.39,-82.74"/>
<polygon fill="#63b8ff" stroke="#63b8ff" points="700.41,-84.52 702.67,-74.17 694.44,-80.85 700.41,-84.52"/>
</a>
</g>
</g>
<!-- Node28 -->
<g id="Node000028" class="node">
<title>Node28</title>
<g id="a_Node000028"><a xlink:title=" ">
<polygon fill="#e0e0e0" stroke="#999999" points="805.5,-74 754.5,-74 754.5,-55 805.5,-55 805.5,-74"/>
<text text-anchor="middle" x="780" y="-62" font-family="Helvetica,sans-Serif" font-size="10.00">csignal</text>
</a>
</g>
</g>
<!-- Node21&#45;&gt;Node28 -->
<g id="edge29_Node000021_Node000028" class="edge">
<title>Node21&#45;&gt;Node28</title>
<g id="a_edge29_Node000021_Node000028"><a xlink:title=" ">
<path fill="none" stroke="#63b8ff" d="M687.94,-115.37C705.64,-105.78 734.46,-90.17 755.14,-78.97"/>
<polygon fill="#63b8ff" stroke="#63b8ff" points="756.87,-82.01 764,-74.17 753.54,-75.85 756.87,-82.01"/>
</a>
</g>
</g>
<!-- Node31&#45;&gt;Node19 -->
<g id="edge31_Node000031_Node000019" class="edge">
<title>Node31&#45;&gt;Node19</title>
<g id="a_edge31_Node000031_Node000019"><a xlink:title=" ">
<path fill="none" stroke="#63b8ff" d="M356.21,-54.98C367.78,-46.92 385.38,-34.65 399.16,-25.03"/>
<polygon fill="#63b8ff" stroke="#63b8ff" points="401.37,-27.76 407.57,-19.17 397.36,-22.02 401.37,-27.76"/>
</a>
</g>
</g>
<!-- Node35&#45;&gt;Node15 -->
<g id="edge33_Node000035_Node000015" class="edge">
<title>Node35&#45;&gt;Node15</title>
<g id="a_edge33_Node000035_Node000015"><a xlink:title=" ">
<path fill="none" stroke="#63b8ff" d="M259.63,-115.49C214.05,-105.12 136.94,-87.57 87.27,-76.26"/>
<polygon fill="#63b8ff" stroke="#63b8ff" points="87.94,-72.82 77.42,-74.02 86.39,-79.65 87.94,-72.82"/>
</a>
</g>
</g>
<!-- Node35&#45;&gt;Node16 -->
<g id="edge34_Node000035_Node000016" class="edge">
<title>Node35&#45;&gt;Node16</title>
<g id="a_edge34_Node000035_Node000016"><a xlink:title=" ">
<path fill="none" stroke="#63b8ff" d="M272.14,-115.49C242.75,-105.44 193.69,-88.66 160.61,-77.34"/>
<polygon fill="#63b8ff" stroke="#63b8ff" points="161.49,-73.94 150.89,-74.02 159.22,-80.57 161.49,-73.94"/>
</a>
</g>
</g>
<!-- Node35&#45;&gt;Node17 -->
<g id="edge35_Node000035_Node000017" class="edge">
<title>Node35&#45;&gt;Node17</title>
<g id="a_edge35_Node000035_Node000017"><a xlink:title=" ">
<path fill="none" stroke="#63b8ff" d="M283.28,-115.37C268.3,-105.95 244.11,-90.73 226.38,-79.58"/>
<polygon fill="#63b8ff" stroke="#63b8ff" points="228.11,-76.53 217.78,-74.17 224.38,-82.45 228.11,-76.53"/>
</a>
</g>
</g>
<!-- Node35&#45;&gt;Node18 -->
<g id="edge36_Node000035_Node000018" class="edge">
<title>Node35&#45;&gt;Node18</title>
<g id="a_edge36_Node000035_Node000018"><a xlink:title=" ">
<path fill="none" stroke="#63b8ff" d="M317.94,-115.49C342.36,-105.57 382.93,-89.09 410.77,-77.78"/>
<polygon fill="#63b8ff" stroke="#63b8ff" points="412.09,-81.02 420.04,-74.02 409.45,-74.54 412.09,-81.02"/>
</a>
</g>
</g>
<!-- Node35&#45;&gt;Node19 -->
<g id="edge38_Node000035_Node000019" class="edge">
<title>Node35&#45;&gt;Node19</title>
<g id="a_edge38_Node000035_Node000019"><a xlink:title=" ">
<path fill="none" stroke="#63b8ff" d="M291.43,-115.47C283.08,-101.48 269.64,-73.39 283,-55 304.99,-24.74 348.06,-14.65 380.06,-11.49"/>
<polygon fill="#63b8ff" stroke="#63b8ff" points="380.76,-14.94 390.45,-10.66 380.2,-7.97 380.76,-14.94"/>
</a>
</g>
</g>
<!-- Node35&#45;&gt;Node25 -->
<g id="edge37_Node000035_Node000025" class="edge">
<title>Node35&#45;&gt;Node25</title>
<g id="a_edge37_Node000035_Node000025"><a xlink:title=" ">
<path fill="none" stroke="#63b8ff" d="M335.1,-115.49C382.5,-104.91 463.33,-86.86 513.81,-75.59"/>
<polygon fill="#63b8ff" stroke="#63b8ff" points="514.8,-78.96 523.79,-73.36 513.27,-72.12 514.8,-78.96"/>
</a>
</g>
</g>
<!-- Node35&#45;&gt;Node31 -->
<g id="edge39_Node000035_Node000031" class="edge">
<title>Node35&#45;&gt;Node31</title>
<g id="a_edge39_Node000035_Node000031"><a xlink:title=" ">
<path fill="none" stroke="#63b8ff" d="M303.94,-115.37C310.95,-106.64 321.96,-92.93 330.67,-82.09"/>
<polygon fill="#63b8ff" stroke="#63b8ff" points="333.5,-84.16 337.04,-74.17 328.04,-79.77 333.5,-84.16"/>
</a>
</g>
</g>
<!-- Node38&#45;&gt;Node11 -->
<g id="edge50_Node000038_Node000011" class="edge">
<title>Node38&#45;&gt;Node11</title>
<g id="a_edge50_Node000038_Node000011"><a xlink:title=" ">
<path fill="none" stroke="#63b8ff" d="M1217.17,-177.87C1221.83,-177.21 1226.51,-176.57 1231,-176 1270.11,-171.04 1557.57,-169.26 1584,-140 1592.94,-130.11 1590.63,-121.57 1584,-110 1575.64,-95.42 1560.45,-85.16 1545.83,-78.19"/>
<polygon fill="#63b8ff" stroke="#63b8ff" points="1546.95,-74.86 1536.39,-74.08 1544.16,-81.28 1546.95,-74.86"/>
</a>
</g>
</g>
<!-- Node39 -->
<g id="Node000039" class="node">
<title>Node39</title>
<g id="a_Node000039"><a xlink:title=" ">
<polygon fill="#e0e0e0" stroke="#999999" points="1423,-134.5 1365,-134.5 1365,-115.5 1423,-115.5 1423,-134.5"/>
<text text-anchor="middle" x="1394" y="-122.5" font-family="Helvetica,sans-Serif" font-size="10.00">memory</text>
</a>
</g>
</g>
<!-- Node38&#45;&gt;Node39 -->
<g id="edge41_Node000038_Node000039" class="edge">
<title>Node38&#45;&gt;Node39</title>
<g id="a_edge41_Node000038_Node000039"><a xlink:title=" ">
<path fill="none" stroke="#63b8ff" d="M1215.25,-175.96C1252.17,-167.81 1308.19,-154.63 1356,-140 1358.13,-139.35 1360.32,-138.64 1362.51,-137.91"/>
<polygon fill="#63b8ff" stroke="#63b8ff" points="1363.76,-141.18 1372.04,-134.56 1361.44,-134.57 1363.76,-141.18"/>
</a>
</g>
</g>
<!-- Node40 -->
<g id="Node000040" class="node">
<title>Node40</title>
<g id="a_Node000040"><a xlink:title=" ">
<polygon fill="#e0e0e0" stroke="#999999" points="854.5,-134.5 807.5,-134.5 807.5,-115.5 854.5,-115.5 854.5,-134.5"/>
<text text-anchor="middle" x="831" y="-122.5" font-family="Helvetica,sans-Serif" font-size="10.00">vector</text>
</a>
</g>
</g>
<!-- Node38&#45;&gt;Node40 -->
<g id="edge42_Node000038_Node000040" class="edge">
<title>Node38&#45;&gt;Node40</title>
<g id="a_edge42_Node000038_Node000040"><a xlink:title=" ">
<path fill="none" stroke="#63b8ff" d="M1132.73,-177.22C1130.12,-176.8 1127.52,-176.39 1125,-176 1009.26,-158.19 976.88,-171.14 864,-140 862.11,-139.48 860.19,-138.87 858.26,-138.21"/>
<polygon fill="#63b8ff" stroke="#63b8ff" points="859.44,-134.92 848.85,-134.58 856.92,-141.45 859.44,-134.92"/>
</a>
</g>
</g>
<!-- Node41 -->
<g id="Node000041" class="node">
<title>Node41</title>
<g id="a_Node000041"><a xlink:title=" ">
<polygon fill="#e0e0e0" stroke="#999999" points="953,-134.5 873,-134.5 873,-115.5 953,-115.5 953,-134.5"/>
<text text-anchor="middle" x="913" y="-122.5" font-family="Helvetica,sans-Serif" font-size="10.00">QTextStream</text>
</a>
</g>
</g>
<!-- Node38&#45;&gt;Node41 -->
<g id="edge43_Node000038_Node000041" class="edge">
<title>Node38&#45;&gt;Node41</title>
<g id="a_edge43_Node000038_Node000041"><a xlink:title=" ">
<path fill="none" stroke="#63b8ff" d="M1132.98,-176.53C1090.08,-168.19 1021.63,-154.35 963,-140 959.42,-139.12 955.7,-138.17 951.99,-137.19"/>
<polygon fill="#63b8ff" stroke="#63b8ff" points="952.83,-133.79 942.26,-134.54 950.99,-140.54 952.83,-133.79"/>
</a>
</g>
</g>
<!-- Node42 -->
<g id="Node000042" class="node">
<title>Node42</title>
<g id="a_Node000042"><a xlink:title=" ">
<polygon fill="#e0e0e0" stroke="#999999" points="1072.5,-134.5 971.5,-134.5 971.5,-115.5 1072.5,-115.5 1072.5,-134.5"/>
<text text-anchor="middle" x="1022" y="-122.5" font-family="Helvetica,sans-Serif" font-size="10.00">QCoreApplication</text>
</a>
</g>
</g>
<!-- Node38&#45;&gt;Node42 -->
<g id="edge44_Node000038_Node000042" class="edge">
<title>Node38&#45;&gt;Node42</title>
<g id="a_edge44_Node000038_Node000042"><a xlink:title=" ">
<path fill="none" stroke="#63b8ff" d="M1152.75,-175.99C1126.69,-166.03 1083.32,-149.45 1053.73,-138.13"/>
<polygon fill="#63b8ff" stroke="#63b8ff" points="1054.86,-134.82 1044.27,-134.52 1052.36,-141.36 1054.86,-134.82"/>
</a>
</g>
</g>
<!-- Node43 -->
<g id="Node000043" class="node">
<title>Node43</title>
<g id="a_Node000043"><a xlink:title=" ">
<polygon fill="#e0e0e0" stroke="#999999" points="1215.5,-134.5 1090.5,-134.5 1090.5,-115.5 1215.5,-115.5 1215.5,-134.5"/>
<text text-anchor="middle" x="1153" y="-122.5" font-family="Helvetica,sans-Serif" font-size="10.00">QCommandLineParser</text>
</a>
</g>
</g>
<!-- Node38&#45;&gt;Node43 -->
<g id="edge45_Node000038_Node000043" class="edge">
<title>Node38&#45;&gt;Node43</title>
<g id="a_edge45_Node000038_Node000043"><a xlink:title=" ">
<path fill="none" stroke="#63b8ff" d="M1171.75,-175.87C1168.63,-167.57 1163.82,-154.78 1159.85,-144.22"/>
<polygon fill="#63b8ff" stroke="#63b8ff" points="1163.06,-142.8 1156.26,-134.67 1156.5,-145.26 1163.06,-142.8"/>
</a>
</g>
</g>
<!-- Node44 -->
<g id="Node000044" class="node">
<title>Node44</title>
<g id="a_Node000044"><a xlink:href="../../d3/dd8/layoutsettings__dialog_8h.html" target="_top" xlink:title=" ">
<polygon fill="#fff0f0" stroke="red" points="1575,-140 1441,-140 1441,-110 1575,-110 1575,-140"/>
<text text-anchor="start" x="1449" y="-128" font-family="Helvetica,sans-Serif" font-size="10.00">../dialogs/layoutsettings</text>
<text text-anchor="middle" x="1508" y="-117" font-family="Helvetica,sans-Serif" font-size="10.00">_dialog.h</text>
</a>
</g>
</g>
<!-- Node38&#45;&gt;Node44 -->
<g id="edge46_Node000038_Node000044" class="edge">
<title>Node38&#45;&gt;Node44</title>
<g id="a_edge46_Node000038_Node000044"><a xlink:title=" ">
<path fill="none" stroke="#63b8ff" d="M1217.32,-177.32C1266.28,-168.97 1349.61,-154.67 1430.96,-140.17"/>
<polygon fill="#63b8ff" stroke="#63b8ff" points="1431.64,-143.61 1440.87,-138.41 1430.41,-136.72 1431.64,-143.61"/>
</a>
</g>
</g>
<!-- Node49 -->
<g id="Node000049" class="node">
<title>Node49</title>
<g id="a_Node000049"><a xlink:title=" ">
<polygon fill="#e0e0e0" stroke="#999999" points="1346.5,-134.5 1233.5,-134.5 1233.5,-115.5 1346.5,-115.5 1346.5,-134.5"/>
<text text-anchor="middle" x="1290" y="-122.5" font-family="Helvetica,sans-Serif" font-size="10.00">../vmisc/vsysexits.h</text>
</a>
</g>
</g>
<!-- Node38&#45;&gt;Node49 -->
<g id="edge51_Node000038_Node000049" class="edge">
<title>Node38&#45;&gt;Node49</title>
<g id="a_edge51_Node000038_Node000049"><a xlink:title=" ">
<path fill="none" stroke="#63b8ff" d="M1191.97,-175.87C1210.91,-166.23 1241.79,-150.53 1263.83,-139.31"/>
<polygon fill="#63b8ff" stroke="#63b8ff" points="1265.64,-142.32 1272.96,-134.67 1262.46,-136.08 1265.64,-142.32"/>
</a>
</g>
</g>
<!-- Node44&#45;&gt;Node8 -->
<g id="edge48_Node000044_Node000008" class="edge">
<title>Node44&#45;&gt;Node8</title>
<g id="a_edge48_Node000044_Node000008"><a xlink:title=" ">
<path fill="none" stroke="#63b8ff" d="M1531.72,-109.84C1547.2,-100.6 1567.32,-88.59 1582.71,-79.4"/>
<polygon fill="#63b8ff" stroke="#63b8ff" points="1584.81,-82.23 1591.6,-74.09 1581.22,-76.21 1584.81,-82.23"/>
</a>
</g>
</g>
<!-- Node44&#45;&gt;Node11 -->
<g id="edge47_Node000044_Node000011" class="edge">
<title>Node44&#45;&gt;Node11</title>
<g id="a_edge47_Node000044_Node000011"><a xlink:title=" ">
<path fill="none" stroke="#63b8ff" d="M1508,-109.84C1508,-102.21 1508,-92.7 1508,-84.45"/>
<polygon fill="#63b8ff" stroke="#63b8ff" points="1511.5,-84.27 1508,-74.27 1504.5,-84.27 1511.5,-84.27"/>
</a>
</g>
</g>
<!-- Node44&#45;&gt;Node20 -->
<g id="edge49_Node000044_Node000020" class="edge">
<title>Node44&#45;&gt;Node20</title>
<g id="a_edge49_Node000044_Node000020"><a xlink:title=" ">
<path fill="none" stroke="#63b8ff" d="M1460.81,-109.99C1426.82,-99.89 1381.5,-86.44 1349.64,-76.98"/>
<polygon fill="#63b8ff" stroke="#63b8ff" points="1350.39,-73.55 1339.8,-74.05 1348.39,-80.26 1350.39,-73.55"/>
</a>
</g>
</g>
</g>
</svg>
