<?xml version="1.0" encoding="UTF-8" standalone="no"?>
<!DOCTYPE svg PUBLIC "-//W3C//DTD SVG 1.1//EN"
 "http://www.w3.org/Graphics/SVG/1.1/DTD/svg11.dtd">
<!-- Generated by graphviz version 2.43.0 (0)
 -->
<!-- Title: VLayoutPaperData Pages: 1 -->
<svg width="353pt" height="468pt"
 viewBox="0.00 0.00 353.00 468.00" xmlns="http://www.w3.org/2000/svg" xmlns:xlink="http://www.w3.org/1999/xlink">
<g id="graph0" class="graph" transform="scale(1 1) rotate(0) translate(4 464)">
<title>VLayoutPaperData</title>
<!-- Node1 -->
<g id="Node000001" class="node">
<title>Node1</title>
<g id="a_Node000001"><a xlink:title=" ">
<polygon fill="#999999" stroke="transparent" points="228.5,-199 94.5,-199 94.5,0 228.5,0 228.5,-199"/>
<text text-anchor="start" x="116" y="-186.5" font-family="Helvetica,sans-Serif" font-size="10.00">VLayoutPaperData</text>
<text text-anchor="start" x="98.5" y="-171.5" font-family="Helvetica,sans-Serif" font-size="10.00">+</text>
<text text-anchor="start" x="111.5" y="-171.5" font-family="Helvetica,sans-Serif" font-size="10.00">paperIndex</text>
<text text-anchor="start" x="98.5" y="-156.5" font-family="Helvetica,sans-Serif" font-size="10.00">+</text>
<text text-anchor="start" x="111.5" y="-156.5" font-family="Helvetica,sans-Serif" font-size="10.00">layoutWidth</text>
<text text-anchor="start" x="98.5" y="-141.5" font-family="Helvetica,sans-Serif" font-size="10.00">+</text>
<text text-anchor="start" x="111.5" y="-141.5" font-family="Helvetica,sans-Serif" font-size="10.00">globalRotate</text>
<text text-anchor="start" x="98.5" y="-126.5" font-family="Helvetica,sans-Serif" font-size="10.00">+</text>
<text text-anchor="start" x="111.5" y="-126.5" font-family="Helvetica,sans-Serif" font-size="10.00">localRotate</text>
<text text-anchor="start" x="98.5" y="-111.5" font-family="Helvetica,sans-Serif" font-size="10.00">+</text>
<text text-anchor="start" x="111.5" y="-111.5" font-family="Helvetica,sans-Serif" font-size="10.00">globalRotationIncrease</text>
<text text-anchor="start" x="98.5" y="-96.5" font-family="Helvetica,sans-Serif" font-size="10.00">+</text>
<text text-anchor="start" x="111.5" y="-96.5" font-family="Helvetica,sans-Serif" font-size="10.00">localRotationIncrease</text>
<text text-anchor="start" x="98.5" y="-81.5" font-family="Helvetica,sans-Serif" font-size="10.00">+</text>
<text text-anchor="start" x="111.5" y="-81.5" font-family="Helvetica,sans-Serif" font-size="10.00">saveLength</text>
<text text-anchor="start" x="98.5" y="-66.5" font-family="Helvetica,sans-Serif" font-size="10.00">+</text>
<text text-anchor="start" x="111.5" y="-66.5" font-family="Helvetica,sans-Serif" font-size="10.00">VLayoutPaperData()</text>
<text text-anchor="start" x="98.5" y="-51.5" font-family="Helvetica,sans-Serif" font-size="10.00">+</text>
<text text-anchor="start" x="111.5" y="-51.5" font-family="Helvetica,sans-Serif" font-size="10.00">VLayoutPaperData()</text>
<text text-anchor="start" x="98.5" y="-36.5" font-family="Helvetica,sans-Serif" font-size="10.00">+</text>
<text text-anchor="start" x="111.5" y="-36.5" font-family="Helvetica,sans-Serif" font-size="10.00">VLayoutPaperData()</text>
<text text-anchor="start" x="98.5" y="-21.5" font-family="Helvetica,sans-Serif" font-size="10.00">+</text>
<text text-anchor="start" x="111.5" y="-21.5" font-family="Helvetica,sans-Serif" font-size="10.00">~VLayoutPaperData()</text>
<text text-anchor="start" x="101" y="-6.5" font-family="Helvetica,sans-Serif" font-size="10.00">&#45;</text>
<text text-anchor="start" x="111.5" y="-6.5" font-family="Helvetica,sans-Serif" font-size="10.00">operator=()</text>
<polygon fill="#666666" stroke="#666666" points="94.5,-181.5 94.5,-181.5 228.5,-181.5 228.5,-181.5 94.5,-181.5"/>
<polygon fill="#666666" stroke="#666666" points="94.5,-76.5 94.5,-76.5 109.5,-76.5 109.5,-76.5 94.5,-76.5"/>
<polygon fill="#666666" stroke="#666666" points="109.5,-76.5 109.5,-76.5 228.5,-76.5 228.5,-76.5 109.5,-76.5"/>
<polygon fill="none" stroke="#666666" points="94.5,0 94.5,-199 228.5,-199 228.5,0 94.5,0"/>
</a>
</g>
</g>
<!-- Node2 -->
<g id="Node000002" class="node">
<title>Node2</title>
<g id="a_Node000002"><a xlink:title=" ">
<polygon fill="white" stroke="transparent" points="75,-377.5 0,-377.5 0,-328.5 75,-328.5 75,-377.5"/>
<text text-anchor="start" x="5.5" y="-365" font-family="Helvetica,sans-Serif" font-size="10.00">QSharedData</text>
<text text-anchor="start" x="36" y="-350" font-family="Helvetica,sans-Serif" font-size="10.00"> </text>
<text text-anchor="start" x="36" y="-335" font-family="Helvetica,sans-Serif" font-size="10.00"> </text>
<polygon fill="#666666" stroke="#666666" points="0.5,-360 0.5,-360 75.5,-360 75.5,-360 0.5,-360"/>
<polygon fill="#666666" stroke="#666666" points="0.5,-345 0.5,-345 75.5,-345 75.5,-345 0.5,-345"/>
<polygon fill="none" stroke="#666666" points="0,-328.5 0,-377.5 75,-377.5 75,-328.5 0,-328.5"/>
</a>
</g>
</g>
<!-- Node2&#45;&gt;Node1 -->
<g id="edge1_Node000001_Node000002" class="edge">
<title>Node2&#45;&gt;Node1</title>
<g id="a_edge1_Node000001_Node000002"><a xlink:title=" ">
<path fill="none" stroke="#63b8ff" d="M51.11,-318.71C59.92,-297.67 71.88,-270.01 83.5,-246 90.87,-230.78 98.98,-214.85 107.11,-199.34"/>
<polygon fill="none" stroke="#63b8ff" points="47.79,-317.59 47.18,-328.17 54.25,-320.28 47.79,-317.59"/>
</a>
</g>
</g>
<!-- Node3 -->
<g id="Node000003" class="node">
<title>Node3</title>
<g id="a_Node000003"><a xlink:href="../../d5/dc2/classQVector.html" target="_top" xlink:title=" ">
<polygon fill="white" stroke="transparent" points="230,-377.5 93,-377.5 93,-328.5 230,-328.5 230,-377.5"/>
<text text-anchor="start" x="98.5" y="-365" font-family="Helvetica,sans-Serif" font-size="10.00">QVector&lt; VLayoutPiece &gt;</text>
<text text-anchor="start" x="160" y="-350" font-family="Helvetica,sans-Serif" font-size="10.00"> </text>
<text text-anchor="start" x="160" y="-335" font-family="Helvetica,sans-Serif" font-size="10.00"> </text>
<polygon fill="#666666" stroke="#666666" points="93.5,-360 93.5,-360 230.5,-360 230.5,-360 93.5,-360"/>
<polygon fill="#666666" stroke="#666666" points="93.5,-345 93.5,-345 230.5,-345 230.5,-345 93.5,-345"/>
<polygon fill="none" stroke="#666666" points="93,-328.5 93,-377.5 230,-377.5 230,-328.5 93,-328.5"/>
</a>
</g>
</g>
<!-- Node3&#45;&gt;Node1 -->
<g id="edge2_Node000001_Node000003" class="edge">
<title>Node3&#45;&gt;Node1</title>
<g id="a_edge2_Node000001_Node000003"><a xlink:title=" ">
<path fill="none" stroke="#63b8ff" d="M161.5,-328.34C161.5,-301.29 161.5,-255.09 161.5,-211.33"/>
<polygon fill="none" stroke="#63b8ff" points="161.5,-211.07 157.5,-205.07 161.5,-199.07 165.5,-205.07 161.5,-211.07"/>
</a>
</g>
<text text-anchor="middle" x="183" y="-220" font-family="Helvetica,sans-Serif" font-size="10.00" fill="grey"> +pieces</text>
</g>
<!-- Node4 -->
<g id="Node000004" class="node">
<title>Node4</title>
<g id="a_Node000004"><a xlink:href="../../de/dad/classVContour.html" target="_top" xlink:title=" ">
<polygon fill="white" stroke="transparent" points="345,-460 248,-460 248,-246 345,-246 345,-460"/>
<text text-anchor="start" x="274" y="-448" font-family="Helvetica,sans-Serif" font-size="10.00">VContour</text>
<text text-anchor="start" x="255" y="-433" font-family="Helvetica,sans-Serif" font-size="10.00">&#45;</text>
<text text-anchor="start" x="265.5" y="-433" font-family="Helvetica,sans-Serif" font-size="10.00">d</text>
<text text-anchor="start" x="252.5" y="-418" font-family="Helvetica,sans-Serif" font-size="10.00">+</text>
<text text-anchor="start" x="265.5" y="-418" font-family="Helvetica,sans-Serif" font-size="10.00">VContour()</text>
<text text-anchor="start" x="252.5" y="-403" font-family="Helvetica,sans-Serif" font-size="10.00">+</text>
<text text-anchor="start" x="265.5" y="-403" font-family="Helvetica,sans-Serif" font-size="10.00">VContour()</text>
<text text-anchor="start" x="252.5" y="-388" font-family="Helvetica,sans-Serif" font-size="10.00">+</text>
<text text-anchor="start" x="265.5" y="-388" font-family="Helvetica,sans-Serif" font-size="10.00">VContour()</text>
<text text-anchor="start" x="252.5" y="-373" font-family="Helvetica,sans-Serif" font-size="10.00">+</text>
<text text-anchor="start" x="265.5" y="-373" font-family="Helvetica,sans-Serif" font-size="10.00">~VContour()</text>
<text text-anchor="start" x="252.5" y="-358" font-family="Helvetica,sans-Serif" font-size="10.00">+</text>
<text text-anchor="start" x="265.5" y="-358" font-family="Helvetica,sans-Serif" font-size="10.00">operator=()</text>
<text text-anchor="start" x="252.5" y="-343" font-family="Helvetica,sans-Serif" font-size="10.00">+</text>
<text text-anchor="start" x="265.5" y="-343" font-family="Helvetica,sans-Serif" font-size="10.00">Swap()</text>
<text text-anchor="start" x="252.5" y="-328" font-family="Helvetica,sans-Serif" font-size="10.00">+</text>
<text text-anchor="start" x="265.5" y="-328" font-family="Helvetica,sans-Serif" font-size="10.00">SetContour()</text>
<text text-anchor="start" x="252.5" y="-313" font-family="Helvetica,sans-Serif" font-size="10.00">+</text>
<text text-anchor="start" x="265.5" y="-313" font-family="Helvetica,sans-Serif" font-size="10.00">GetContour()</text>
<text text-anchor="start" x="252.5" y="-298" font-family="Helvetica,sans-Serif" font-size="10.00">+</text>
<text text-anchor="start" x="265.5" y="-298" font-family="Helvetica,sans-Serif" font-size="10.00">GetShift()</text>
<text text-anchor="start" x="252.5" y="-283" font-family="Helvetica,sans-Serif" font-size="10.00">+</text>
<text text-anchor="start" x="265.5" y="-283" font-family="Helvetica,sans-Serif" font-size="10.00">SetShift()</text>
<text text-anchor="start" x="265.5" y="-268" font-family="Helvetica,sans-Serif" font-size="10.00">and 14 more...</text>
<text text-anchor="start" x="255" y="-253" font-family="Helvetica,sans-Serif" font-size="10.00">&#45;</text>
<text text-anchor="start" x="265.5" y="-253" font-family="Helvetica,sans-Serif" font-size="10.00">AppendWhole()</text>
<polygon fill="#666666" stroke="#666666" points="248.5,-443 248.5,-443 345.5,-443 345.5,-443 248.5,-443"/>
<polygon fill="#666666" stroke="#666666" points="248.5,-428 248.5,-428 263.5,-428 263.5,-428 248.5,-428"/>
<polygon fill="#666666" stroke="#666666" points="263.5,-428 263.5,-428 345.5,-428 345.5,-428 263.5,-428"/>
<polygon fill="none" stroke="#666666" points="248,-246 248,-460 345,-460 345,-246 248,-246"/>
</a>
</g>
</g>
<!-- Node4&#45;&gt;Node1 -->
<g id="edge3_Node000001_Node000004" class="edge">
<title>Node4&#45;&gt;Node1</title>
<g id="a_edge3_Node000001_Node000004"><a xlink:title=" ">
<path fill="none" stroke="#63b8ff" d="M247.95,-261.56C238.94,-244.76 229.43,-227.06 220.15,-209.77"/>
<polygon fill="none" stroke="#63b8ff" points="220.09,-209.65 213.73,-206.25 214.41,-199.08 220.78,-202.47 220.09,-209.65"/>
</a>
</g>
<text text-anchor="middle" x="268.5" y="-220" font-family="Helvetica,sans-Serif" font-size="10.00" fill="grey"> +globalContour</text>
</g>
</g>
</svg>
