<?xml version="1.0" encoding="UTF-8" standalone="no"?>
<!DOCTYPE svg PUBLIC "-//W3C//DTD SVG 1.1//EN"
 "http://www.w3.org/Graphics/SVG/1.1/DTD/svg11.dtd">
<!-- Generated by graphviz version 2.43.0 (0)
 -->
<!-- Title: VLayoutPaperData Pages: 1 -->
<!--zoomable 468 -->

<svg id="main" version="1.1" xmlns="http://www.w3.org/2000/svg" xmlns:xlink="http://www.w3.org/1999/xlink" xml:space="preserve" onload="init(evt)">
<style type="text/css"><![CDATA[
.node, .edge {opacity: 0.7;}
.node.selected, .edge.selected {opacity: 1;}
.edge:hover path { stroke: red; }
.edge:hover polygon { stroke: red; fill: red; }
]]></style>

<defs>
  <circle id="rim" cx="0" cy="0" r="7"/>
  <circle id="rim2" cx="0" cy="0" r="3.5"/>
  <g id="zoomPlus">
    <use xlink:href="#rim" fill="#404040"><set attributeName="fill" to="#808080" begin="zoomplus.mouseover" end="zoomplus.mouseout"/></use>
    <path d="M-4,0h8M0,-4v8" fill="none" stroke="white" stroke-width="1.5" pointer-events="none"/>
  </g>
  <g id="zoomMin">
    <use xlink:href="#rim" fill="#404040"><set attributeName="fill" to="#808080" begin="zoomminus.mouseover" end="zoomminus.mouseout"/></use>
    <path d="M-4,0h8" fill="none" stroke="white" stroke-width="1.5" pointer-events="none"/>
  </g>
  <g id="arrowUp" transform="translate(30 24)">
    <use xlink:href="#rim"/>
    <path pointer-events="none" fill="none" stroke="white" stroke-width="1.5" d="M0,-3.0v7 M-2.5,-0.5L0,-3.0L2.5,-0.5"/>
  </g>
  <g id="arrowRight" transform="rotate(90) translate(36 -43)">
    <use xlink:href="#rim"/>
    <path pointer-events="none" fill="none" stroke="white" stroke-width="1.5" d="M0,-3.0v7 M-2.5,-0.5L0,-3.0L2.5,-0.5"/>
  </g>
  <g id="arrowDown" transform="rotate(180) translate(-30 -48)">
    <use xlink:href="#rim"/>
    <path pointer-events="none" fill="none" stroke="white" stroke-width="1.5" d="M0,-3.0v7 M-2.5,-0.5L0,-3.0L2.5,-0.5"/>
  </g>
  <g id="arrowLeft" transform="rotate(270) translate(-36 17)">
    <use xlink:href="#rim"/>
    <path pointer-events="none" fill="none" stroke="white" stroke-width="1.5" d="M0,-3.0v7 M-2.5,-0.5L0,-3.0L2.5,-0.5"/>
  </g>
  <g id="resetDef">
    <use xlink:href="#rim2" fill="#404040"><set attributeName="fill" to="#808080" begin="reset.mouseover" end="reset.mouseout"/></use>
  </g>
</defs>
<script type="application/ecmascript">
var viewWidth = 353;
var viewHeight = 468;
var sectionId = 'dynsection-1';
</script>
<script type="application/ecmascript" xlink:href="../../svg.min.js"/>
<svg id="graph" class="graph">
<g id="viewport">
<title>VLayoutPaperData</title>
<!-- Node1 -->
<g id="Node000001" class="node">
<title>Node1</title>
<g id="a_Node000001"><a xlink:title=" ">
<polygon fill="#999999" stroke="transparent" points="228.5,-199 94.5,-199 94.5,0 228.5,0 228.5,-199"/>
<text text-anchor="start" x="116" y="-186.5" font-family="Helvetica,sans-Serif" font-size="10.00">VLayoutPaperData</text>
<text text-anchor="start" x="98.5" y="-171.5" font-family="Helvetica,sans-Serif" font-size="10.00">+</text>
<text text-anchor="start" x="111.5" y="-171.5" font-family="Helvetica,sans-Serif" font-size="10.00">paperIndex</text>
<text text-anchor="start" x="98.5" y="-156.5" font-family="Helvetica,sans-Serif" font-size="10.00">+</text>
<text text-anchor="start" x="111.5" y="-156.5" font-family="Helvetica,sans-Serif" font-size="10.00">layoutWidth</text>
<text text-anchor="start" x="98.5" y="-141.5" font-family="Helvetica,sans-Serif" font-size="10.00">+</text>
<text text-anchor="start" x="111.5" y="-141.5" font-family="Helvetica,sans-Serif" font-size="10.00">globalRotate</text>
<text text-anchor="start" x="98.5" y="-126.5" font-family="Helvetica,sans-Serif" font-size="10.00">+</text>
<text text-anchor="start" x="111.5" y="-126.5" font-family="Helvetica,sans-Serif" font-size="10.00">localRotate</text>
<text text-anchor="start" x="98.5" y="-111.5" font-family="Helvetica,sans-Serif" font-size="10.00">+</text>
<text text-anchor="start" x="111.5" y="-111.5" font-family="Helvetica,sans-Serif" font-size="10.00">globalRotationIncrease</text>
<text text-anchor="start" x="98.5" y="-96.5" font-family="Helvetica,sans-Serif" font-size="10.00">+</text>
<text text-anchor="start" x="111.5" y="-96.5" font-family="Helvetica,sans-Serif" font-size="10.00">localRotationIncrease</text>
<text text-anchor="start" x="98.5" y="-81.5" font-family="Helvetica,sans-Serif" font-size="10.00">+</text>
<text text-anchor="start" x="111.5" y="-81.5" font-family="Helvetica,sans-Serif" font-size="10.00">saveLength</text>
<text text-anchor="start" x="98.5" y="-66.5" font-family="Helvetica,sans-Serif" font-size="10.00">+</text>
<text text-anchor="start" x="111.5" y="-66.5" font-family="Helvetica,sans-Serif" font-size="10.00">VLayoutPaperData()</text>
<text text-anchor="start" x="98.5" y="-51.5" font-family="Helvetica,sans-Serif" font-size="10.00">+</text>
<text text-anchor="start" x="111.5" y="-51.5" font-family="Helvetica,sans-Serif" font-size="10.00">VLayoutPaperData()</text>
<text text-anchor="start" x="98.5" y="-36.5" font-family="Helvetica,sans-Serif" font-size="10.00">+</text>
<text text-anchor="start" x="111.5" y="-36.5" font-family="Helvetica,sans-Serif" font-size="10.00">VLayoutPaperData()</text>
<text text-anchor="start" x="98.5" y="-21.5" font-family="Helvetica,sans-Serif" font-size="10.00">+</text>
<text text-anchor="start" x="111.5" y="-21.5" font-family="Helvetica,sans-Serif" font-size="10.00">~VLayoutPaperData()</text>
<text text-anchor="start" x="101" y="-6.5" font-family="Helvetica,sans-Serif" font-size="10.00">&#45;</text>
<text text-anchor="start" x="111.5" y="-6.5" font-family="Helvetica,sans-Serif" font-size="10.00">operator=()</text>
<polygon fill="#666666" stroke="#666666" points="94.5,-181.5 94.5,-181.5 228.5,-181.5 228.5,-181.5 94.5,-181.5"/>
<polygon fill="#666666" stroke="#666666" points="94.5,-76.5 94.5,-76.5 109.5,-76.5 109.5,-76.5 94.5,-76.5"/>
<polygon fill="#666666" stroke="#666666" points="109.5,-76.5 109.5,-76.5 228.5,-76.5 228.5,-76.5 109.5,-76.5"/>
<polygon fill="none" stroke="#666666" points="94.5,0 94.5,-199 228.5,-199 228.5,0 94.5,0"/>
</a>
</g>
</g>
<!-- Node2 -->
<g id="Node000002" class="node">
<title>Node2</title>
<g id="a_Node000002"><a xlink:title=" ">
<polygon fill="white" stroke="transparent" points="75,-377.5 0,-377.5 0,-328.5 75,-328.5 75,-377.5"/>
<text text-anchor="start" x="5.5" y="-365" font-family="Helvetica,sans-Serif" font-size="10.00">QSharedData</text>
<text text-anchor="start" x="36" y="-350" font-family="Helvetica,sans-Serif" font-size="10.00"> </text>
<text text-anchor="start" x="36" y="-335" font-family="Helvetica,sans-Serif" font-size="10.00"> </text>
<polygon fill="#666666" stroke="#666666" points="0.5,-360 0.5,-360 75.5,-360 75.5,-360 0.5,-360"/>
<polygon fill="#666666" stroke="#666666" points="0.5,-345 0.5,-345 75.5,-345 75.5,-345 0.5,-345"/>
<polygon fill="none" stroke="#666666" points="0,-328.5 0,-377.5 75,-377.5 75,-328.5 0,-328.5"/>
</a>
</g>
</g>
<!-- Node2&#45;&gt;Node1 -->
<g id="edge1_Node000001_Node000002" class="edge">
<title>Node2&#45;&gt;Node1</title>
<g id="a_edge1_Node000001_Node000002"><a xlink:title=" ">
<path fill="none" stroke="#63b8ff" d="M51.11,-318.71C59.92,-297.67 71.88,-270.01 83.5,-246 90.87,-230.78 98.98,-214.85 107.11,-199.34"/>
<polygon fill="none" stroke="#63b8ff" points="47.79,-317.59 47.18,-328.17 54.25,-320.28 47.79,-317.59"/>
</a>
</g>
</g>
<!-- Node3 -->
<g id="Node000003" class="node">
<title>Node3</title>
<g id="a_Node000003"><a xlink:href="../../d5/dc2/classQVector.html" target="_top" xlink:title=" ">
<polygon fill="white" stroke="transparent" points="230,-377.5 93,-377.5 93,-328.5 230,-328.5 230,-377.5"/>
<text text-anchor="start" x="98.5" y="-365" font-family="Helvetica,sans-Serif" font-size="10.00">QVector&lt; VLayoutPiece &gt;</text>
<text text-anchor="start" x="160" y="-350" font-family="Helvetica,sans-Serif" font-size="10.00"> </text>
<text text-anchor="start" x="160" y="-335" font-family="Helvetica,sans-Serif" font-size="10.00"> </text>
<polygon fill="#666666" stroke="#666666" points="93.5,-360 93.5,-360 230.5,-360 230.5,-360 93.5,-360"/>
<polygon fill="#666666" stroke="#666666" points="93.5,-345 93.5,-345 230.5,-345 230.5,-345 93.5,-345"/>
<polygon fill="none" stroke="#666666" points="93,-328.5 93,-377.5 230,-377.5 230,-328.5 93,-328.5"/>
</a>
</g>
</g>
<!-- Node3&#45;&gt;Node1 -->
<g id="edge2_Node000001_Node000003" class="edge">
<title>Node3&#45;&gt;Node1</title>
<g id="a_edge2_Node000001_Node000003"><a xlink:title=" ">
<path fill="none" stroke="#63b8ff" d="M161.5,-328.34C161.5,-301.29 161.5,-255.09 161.5,-211.33"/>
<polygon fill="none" stroke="#63b8ff" points="161.5,-211.07 157.5,-205.07 161.5,-199.07 165.5,-205.07 161.5,-211.07"/>
</a>
</g>
<text text-anchor="middle" x="183" y="-220" font-family="Helvetica,sans-Serif" font-size="10.00" fill="grey"> +pieces</text>
</g>
<!-- Node4 -->
<g id="Node000004" class="node">
<title>Node4</title>
<g id="a_Node000004"><a xlink:href="../../de/dad/classVContour.html" target="_top" xlink:title=" ">
<polygon fill="white" stroke="transparent" points="345,-460 248,-460 248,-246 345,-246 345,-460"/>
<text text-anchor="start" x="274" y="-448" font-family="Helvetica,sans-Serif" font-size="10.00">VContour</text>
<text text-anchor="start" x="255" y="-433" font-family="Helvetica,sans-Serif" font-size="10.00">&#45;</text>
<text text-anchor="start" x="265.5" y="-433" font-family="Helvetica,sans-Serif" font-size="10.00">d</text>
<text text-anchor="start" x="252.5" y="-418" font-family="Helvetica,sans-Serif" font-size="10.00">+</text>
<text text-anchor="start" x="265.5" y="-418" font-family="Helvetica,sans-Serif" font-size="10.00">VContour()</text>
<text text-anchor="start" x="252.5" y="-403" font-family="Helvetica,sans-Serif" font-size="10.00">+</text>
<text text-anchor="start" x="265.5" y="-403" font-family="Helvetica,sans-Serif" font-size="10.00">VContour()</text>
<text text-anchor="start" x="252.5" y="-388" font-family="Helvetica,sans-Serif" font-size="10.00">+</text>
<text text-anchor="start" x="265.5" y="-388" font-family="Helvetica,sans-Serif" font-size="10.00">VContour()</text>
<text text-anchor="start" x="252.5" y="-373" font-family="Helvetica,sans-Serif" font-size="10.00">+</text>
<text text-anchor="start" x="265.5" y="-373" font-family="Helvetica,sans-Serif" font-size="10.00">~VContour()</text>
<text text-anchor="start" x="252.5" y="-358" font-family="Helvetica,sans-Serif" font-size="10.00">+</text>
<text text-anchor="start" x="265.5" y="-358" font-family="Helvetica,sans-Serif" font-size="10.00">operator=()</text>
<text text-anchor="start" x="252.5" y="-343" font-family="Helvetica,sans-Serif" font-size="10.00">+</text>
<text text-anchor="start" x="265.5" y="-343" font-family="Helvetica,sans-Serif" font-size="10.00">Swap()</text>
<text text-anchor="start" x="252.5" y="-328" font-family="Helvetica,sans-Serif" font-size="10.00">+</text>
<text text-anchor="start" x="265.5" y="-328" font-family="Helvetica,sans-Serif" font-size="10.00">SetContour()</text>
<text text-anchor="start" x="252.5" y="-313" font-family="Helvetica,sans-Serif" font-size="10.00">+</text>
<text text-anchor="start" x="265.5" y="-313" font-family="Helvetica,sans-Serif" font-size="10.00">GetContour()</text>
<text text-anchor="start" x="252.5" y="-298" font-family="Helvetica,sans-Serif" font-size="10.00">+</text>
<text text-anchor="start" x="265.5" y="-298" font-family="Helvetica,sans-Serif" font-size="10.00">GetShift()</text>
<text text-anchor="start" x="252.5" y="-283" font-family="Helvetica,sans-Serif" font-size="10.00">+</text>
<text text-anchor="start" x="265.5" y="-283" font-family="Helvetica,sans-Serif" font-size="10.00">SetShift()</text>
<text text-anchor="start" x="265.5" y="-268" font-family="Helvetica,sans-Serif" font-size="10.00">and 14 more...</text>
<text text-anchor="start" x="255" y="-253" font-family="Helvetica,sans-Serif" font-size="10.00">&#45;</text>
<text text-anchor="start" x="265.5" y="-253" font-family="Helvetica,sans-Serif" font-size="10.00">AppendWhole()</text>
<polygon fill="#666666" stroke="#666666" points="248.5,-443 248.5,-443 345.5,-443 345.5,-443 248.5,-443"/>
<polygon fill="#666666" stroke="#666666" points="248.5,-428 248.5,-428 263.5,-428 263.5,-428 248.5,-428"/>
<polygon fill="#666666" stroke="#666666" points="263.5,-428 263.5,-428 345.5,-428 345.5,-428 263.5,-428"/>
<polygon fill="none" stroke="#666666" points="248,-246 248,-460 345,-460 345,-246 248,-246"/>
</a>
</g>
</g>
<!-- Node4&#45;&gt;Node1 -->
<g id="edge3_Node000001_Node000004" class="edge">
<title>Node4&#45;&gt;Node1</title>
<g id="a_edge3_Node000001_Node000004"><a xlink:title=" ">
<path fill="none" stroke="#63b8ff" d="M247.95,-261.56C238.94,-244.76 229.43,-227.06 220.15,-209.77"/>
<polygon fill="none" stroke="#63b8ff" points="220.09,-209.65 213.73,-206.25 214.41,-199.08 220.78,-202.47 220.09,-209.65"/>
</a>
</g>
<text text-anchor="middle" x="268.5" y="-220" font-family="Helvetica,sans-Serif" font-size="10.00" fill="grey"> +globalContour</text>
</g>
</g>
</svg>

<g id="navigator" transform="translate(0 0)" fill="#404254">
  <rect fill="#f2f5e9" fill-opacity="0.5" stroke="#606060" stroke-width=".5" x="0" y="0" width="60" height="60"/>
  <use id="zoomplus" xlink:href="#zoomPlus" x="17" y="9" onmousedown="handleZoom(evt,'in')"/>
  <use id="zoomminus" xlink:href="#zoomMin" x="42" y="9" onmousedown="handleZoom(evt,'out')"/>
  <use id="reset" xlink:href="#resetDef" x="30" y="36" onmousedown="handleReset()"/>
   <use id="arrowup" xlink:href="#arrowUp" x="0" y="0" onmousedown="handlePan(0,-1)"/>
  <use id="arrowright" xlink:href="#arrowRight" x="0" y="0" onmousedown="handlePan(1,0)"/>
  <use id="arrowdown" xlink:href="#arrowDown" x="0" y="0" onmousedown="handlePan(0,1)"/>
  <use id="arrowleft" xlink:href="#arrowLeft" x="0" y="0" onmousedown="handlePan(-1,0)"/>
</g>
<svg viewBox="0 0 15 15" width="100%" height="30px" preserveAspectRatio="xMaxYMin meet">
 <g id="arrow_out" transform="scale(0.3 0.3)">
  <a xlink:href="classVLayoutPaperData__coll__graph_org.svg" target="_base">
   <rect id="button" ry="5" rx="5" y="6" x="6" height="38" width="38"
        fill="#f2f5e9" fill-opacity="0.5" stroke="#606060" stroke-width="1.0"/>
   <path id="arrow"
     d="M 11.500037,31.436501 C 11.940474,20.09759 22.043105,11.32322 32.158766,21.979434 L 37.068811,17.246167 C 37.068811,17.246167 37.088388,32 37.088388,32 L 22.160133,31.978069 C 22.160133,31.978069 26.997745,27.140456 26.997745,27.140456 C 18.528582,18.264221 13.291696,25.230495 11.500037,31.436501 z"
     style="fill:#404040;"/>
  </a>
 </g>
</svg>

<style type='text/css'>
<![CDATA[
[data-mouse-over-selected='false'] { opacity: 0.7; }
[data-mouse-over-selected='true']  { opacity: 1.0; }
]]>
</style>
<script type="application/ecmascript"><![CDATA[
document.addEventListener('DOMContentLoaded', (event) => {
  highlightEdges();
  highlightAdjacentNodes();
});
]]></script>
</svg>
