<?xml version="1.0" encoding="UTF-8" standalone="no"?>
<!DOCTYPE svg PUBLIC "-//W3C//DTD SVG 1.1//EN"
 "http://www.w3.org/Graphics/SVG/1.1/DTD/svg11.dtd">
<!-- Generated by graphviz version 2.43.0 (0)
 -->
<!-- Title: IndividualSizeConverter Pages: 1 -->
<svg width="298pt" height="1879pt"
 viewBox="0.00 0.00 297.50 1879.00" xmlns="http://www.w3.org/2000/svg" xmlns:xlink="http://www.w3.org/1999/xlink">
<g id="graph0" class="graph" transform="scale(1 1) rotate(0) translate(4 1875)">
<title>IndividualSizeConverter</title>
<!-- Node1 -->
<g id="Node000001" class="node">
<title>Node1</title>
<g id="a_Node000001"><a xlink:title=" ">
<polygon fill="#999999" stroke="transparent" points="216.5,-490 29.5,-490 29.5,0 216.5,0 216.5,-490"/>
<text text-anchor="start" x="65" y="-478" font-family="Helvetica,sans-Serif" font-size="10.00">IndividualSizeConverter</text>
<text text-anchor="start" x="34" y="-463" font-family="Helvetica,sans-Serif" font-size="10.00">+</text>
<text text-anchor="start" x="47" y="-463" font-family="Helvetica,sans-Serif" font-size="10.00">MeasurementMaxVerStr</text>
<text text-anchor="start" x="34" y="-448" font-family="Helvetica,sans-Serif" font-size="10.00">+</text>
<text text-anchor="start" x="47" y="-448" font-family="Helvetica,sans-Serif" font-size="10.00">CurrentSchema</text>
<text text-anchor="start" x="34" y="-433" font-family="Helvetica,sans-Serif" font-size="10.00">+</text>
<text text-anchor="start" x="47" y="-433" font-family="Helvetica,sans-Serif" font-size="10.00">MeasurementMinVer</text>
<text text-anchor="start" x="34" y="-418" font-family="Helvetica,sans-Serif" font-size="10.00">+</text>
<text text-anchor="start" x="47" y="-418" font-family="Helvetica,sans-Serif" font-size="10.00">MeasurementMaxVer</text>
<text text-anchor="start" x="36.5" y="-403" font-family="Helvetica,sans-Serif" font-size="10.00">&#45;</text>
<text text-anchor="start" x="47" y="-403" font-family="Helvetica,sans-Serif" font-size="10.00">MeasurementMinVerStr</text>
<text text-anchor="start" x="34" y="-388" font-family="Helvetica,sans-Serif" font-size="10.00">+</text>
<text text-anchor="start" x="47" y="-388" font-family="Helvetica,sans-Serif" font-size="10.00">IndividualSizeConverter()</text>
<text text-anchor="start" x="34" y="-373" font-family="Helvetica,sans-Serif" font-size="10.00">+</text>
<text text-anchor="start" x="47" y="-373" font-family="Helvetica,sans-Serif" font-size="10.00">~IndividualSizeConverter()</text>
<text text-anchor="start" x="34" y="-358" font-family="Helvetica,sans-Serif" font-size="10.00">#</text>
<text text-anchor="start" x="47" y="-358" font-family="Helvetica,sans-Serif" font-size="10.00">minVer()</text>
<text text-anchor="start" x="34" y="-343" font-family="Helvetica,sans-Serif" font-size="10.00">#</text>
<text text-anchor="start" x="47" y="-343" font-family="Helvetica,sans-Serif" font-size="10.00">maxVer()</text>
<text text-anchor="start" x="34" y="-328" font-family="Helvetica,sans-Serif" font-size="10.00">#</text>
<text text-anchor="start" x="47" y="-328" font-family="Helvetica,sans-Serif" font-size="10.00">minVerStr()</text>
<text text-anchor="start" x="34" y="-313" font-family="Helvetica,sans-Serif" font-size="10.00">#</text>
<text text-anchor="start" x="47" y="-313" font-family="Helvetica,sans-Serif" font-size="10.00">maxVerStr()</text>
<text text-anchor="start" x="34" y="-298" font-family="Helvetica,sans-Serif" font-size="10.00">#</text>
<text text-anchor="start" x="47" y="-298" font-family="Helvetica,sans-Serif" font-size="10.00">getSchema()</text>
<text text-anchor="start" x="34" y="-283" font-family="Helvetica,sans-Serif" font-size="10.00">#</text>
<text text-anchor="start" x="47" y="-283" font-family="Helvetica,sans-Serif" font-size="10.00">applyPatches()</text>
<text text-anchor="start" x="34" y="-268" font-family="Helvetica,sans-Serif" font-size="10.00">#</text>
<text text-anchor="start" x="47" y="-268" font-family="Helvetica,sans-Serif" font-size="10.00">downgradeToCurrentMaxVersion()</text>
<text text-anchor="start" x="34" y="-253" font-family="Helvetica,sans-Serif" font-size="10.00">#</text>
<text text-anchor="start" x="47" y="-253" font-family="Helvetica,sans-Serif" font-size="10.00">isReadOnly()</text>
<text text-anchor="start" x="36.5" y="-238" font-family="Helvetica,sans-Serif" font-size="10.00">&#45;</text>
<text text-anchor="start" x="47" y="-238" font-family="Helvetica,sans-Serif" font-size="10.00">addNewTagsForVer0_3_0()</text>
<text text-anchor="start" x="36.5" y="-223" font-family="Helvetica,sans-Serif" font-size="10.00">&#45;</text>
<text text-anchor="start" x="47" y="-223" font-family="Helvetica,sans-Serif" font-size="10.00">convertUnitsToVer0</text>
<text text-anchor="start" x="47" y="-212" font-family="Helvetica,sans-Serif" font-size="10.00">_2_0()</text>
<text text-anchor="start" x="36.5" y="-197" font-family="Helvetica,sans-Serif" font-size="10.00">&#45;</text>
<text text-anchor="start" x="47" y="-197" font-family="Helvetica,sans-Serif" font-size="10.00">convertMeasurementsToV0</text>
<text text-anchor="start" x="47" y="-186" font-family="Helvetica,sans-Serif" font-size="10.00">_3_0()</text>
<text text-anchor="start" x="36.5" y="-171" font-family="Helvetica,sans-Serif" font-size="10.00">&#45;</text>
<text text-anchor="start" x="47" y="-171" font-family="Helvetica,sans-Serif" font-size="10.00">addMeasurementsVer0</text>
<text text-anchor="start" x="47" y="-160" font-family="Helvetica,sans-Serif" font-size="10.00">_3_0()</text>
<text text-anchor="start" x="36.5" y="-145" font-family="Helvetica,sans-Serif" font-size="10.00">&#45;</text>
<text text-anchor="start" x="47" y="-145" font-family="Helvetica,sans-Serif" font-size="10.00">convertGenderToVer0</text>
<text text-anchor="start" x="47" y="-134" font-family="Helvetica,sans-Serif" font-size="10.00">_3_1()</text>
<text text-anchor="start" x="36.5" y="-119" font-family="Helvetica,sans-Serif" font-size="10.00">&#45;</text>
<text text-anchor="start" x="47" y="-119" font-family="Helvetica,sans-Serif" font-size="10.00">convertPmSystemToVer0</text>
<text text-anchor="start" x="47" y="-108" font-family="Helvetica,sans-Serif" font-size="10.00">_3_2()</text>
<text text-anchor="start" x="36.5" y="-93" font-family="Helvetica,sans-Serif" font-size="10.00">&#45;</text>
<text text-anchor="start" x="47" y="-93" font-family="Helvetica,sans-Serif" font-size="10.00">convertMeasurementsToV0</text>
<text text-anchor="start" x="47" y="-82" font-family="Helvetica,sans-Serif" font-size="10.00">_3_3()</text>
<text text-anchor="start" x="36.5" y="-67" font-family="Helvetica,sans-Serif" font-size="10.00">&#45;</text>
<text text-anchor="start" x="47" y="-67" font-family="Helvetica,sans-Serif" font-size="10.00">convertToVer0_3_0()</text>
<text text-anchor="start" x="36.5" y="-52" font-family="Helvetica,sans-Serif" font-size="10.00">&#45;</text>
<text text-anchor="start" x="47" y="-52" font-family="Helvetica,sans-Serif" font-size="10.00">convertToVer0_3_1()</text>
<text text-anchor="start" x="36.5" y="-37" font-family="Helvetica,sans-Serif" font-size="10.00">&#45;</text>
<text text-anchor="start" x="47" y="-37" font-family="Helvetica,sans-Serif" font-size="10.00">convertToVer0_3_2()</text>
<text text-anchor="start" x="36.5" y="-22" font-family="Helvetica,sans-Serif" font-size="10.00">&#45;</text>
<text text-anchor="start" x="47" y="-22" font-family="Helvetica,sans-Serif" font-size="10.00">convertToVer0_3_3()</text>
<text text-anchor="start" x="36.5" y="-7" font-family="Helvetica,sans-Serif" font-size="10.00">&#45;</text>
<text text-anchor="start" x="47" y="-7" font-family="Helvetica,sans-Serif" font-size="10.00">convertToVer0_3_4()</text>
<polygon fill="#666666" stroke="#666666" points="30,-473 30,-473 217,-473 217,-473 30,-473"/>
<polygon fill="#666666" stroke="#666666" points="30,-398 30,-398 45,-398 45,-398 30,-398"/>
<polygon fill="#666666" stroke="#666666" points="45,-398 45,-398 217,-398 217,-398 45,-398"/>
<polygon fill="none" stroke="#666666" points="29.5,0 29.5,-490 216.5,-490 216.5,0 29.5,0"/>
</a>
</g>
</g>
<!-- Node2 -->
<g id="Node000002" class="node">
<title>Node2</title>
<g id="a_Node000002"><a xlink:href="../../d8/d6b/classAbstractMConverter.html" target="_top" xlink:title=" ">
<polygon fill="white" stroke="transparent" points="192.5,-658 53.5,-658 53.5,-527 192.5,-527 192.5,-658"/>
<text text-anchor="start" x="74.5" y="-645.5" font-family="Helvetica,sans-Serif" font-size="10.00">AbstractMConverter</text>
<text text-anchor="start" x="121.5" y="-630.5" font-family="Helvetica,sans-Serif" font-size="10.00"> </text>
<text text-anchor="start" x="58" y="-615.5" font-family="Helvetica,sans-Serif" font-size="10.00">+</text>
<text text-anchor="start" x="71" y="-615.5" font-family="Helvetica,sans-Serif" font-size="10.00">AbstractMConverter()</text>
<text text-anchor="start" x="58" y="-600.5" font-family="Helvetica,sans-Serif" font-size="10.00">+</text>
<text text-anchor="start" x="71" y="-600.5" font-family="Helvetica,sans-Serif" font-size="10.00">~AbstractMConverter()</text>
<text text-anchor="start" x="58" y="-585.5" font-family="Helvetica,sans-Serif" font-size="10.00">#</text>
<text text-anchor="start" x="71" y="-585.5" font-family="Helvetica,sans-Serif" font-size="10.00">AddRootComment()</text>
<text text-anchor="start" x="58" y="-570.5" font-family="Helvetica,sans-Serif" font-size="10.00">#</text>
<text text-anchor="start" x="71" y="-570.5" font-family="Helvetica,sans-Serif" font-size="10.00">OldNamesToNewNames</text>
<text text-anchor="start" x="71" y="-559.5" font-family="Helvetica,sans-Serif" font-size="10.00">_InV0_3_0()</text>
<text text-anchor="start" x="58" y="-544.5" font-family="Helvetica,sans-Serif" font-size="10.00">#</text>
<text text-anchor="start" x="71" y="-544.5" font-family="Helvetica,sans-Serif" font-size="10.00">OldNamesToNewNames</text>
<text text-anchor="start" x="71" y="-533.5" font-family="Helvetica,sans-Serif" font-size="10.00">_InV0_3_3()</text>
<polygon fill="#666666" stroke="#666666" points="54,-640.5 54,-640.5 193,-640.5 193,-640.5 54,-640.5"/>
<polygon fill="#666666" stroke="#666666" points="54,-625.5 54,-625.5 193,-625.5 193,-625.5 54,-625.5"/>
<polygon fill="none" stroke="#666666" points="53.5,-527 53.5,-658 192.5,-658 192.5,-527 53.5,-527"/>
</a>
</g>
</g>
<!-- Node2&#45;&gt;Node1 -->
<g id="edge1_Node000001_Node000002" class="edge">
<title>Node2&#45;&gt;Node1</title>
<g id="a_edge1_Node000001_Node000002"><a xlink:title=" ">
<path fill="none" stroke="#63b8ff" d="M123,-516.84C123,-508.39 123,-499.46 123,-490.2"/>
<polygon fill="none" stroke="#63b8ff" points="119.5,-516.92 123,-526.92 126.5,-516.92 119.5,-516.92"/>
</a>
</g>
</g>
<!-- Node3 -->
<g id="Node000003" class="node">
<title>Node3</title>
<g id="a_Node000003"><a xlink:href="../../dc/d68/classVAbstractConverter.html" target="_top" xlink:title=" ">
<polygon fill="white" stroke="transparent" points="216.5,-1134 29.5,-1134 29.5,-695 216.5,-695 216.5,-1134"/>
<text text-anchor="start" x="76" y="-1121.5" font-family="Helvetica,sans-Serif" font-size="10.00">VAbstractConverter</text>
<text text-anchor="start" x="34" y="-1106.5" font-family="Helvetica,sans-Serif" font-size="10.00">#</text>
<text text-anchor="start" x="47" y="-1106.5" font-family="Helvetica,sans-Serif" font-size="10.00">m_ver</text>
<text text-anchor="start" x="34" y="-1091.5" font-family="Helvetica,sans-Serif" font-size="10.00">#</text>
<text text-anchor="start" x="47" y="-1091.5" font-family="Helvetica,sans-Serif" font-size="10.00">m_convertedFileName</text>
<text text-anchor="start" x="36.5" y="-1076.5" font-family="Helvetica,sans-Serif" font-size="10.00">&#45;</text>
<text text-anchor="start" x="47" y="-1076.5" font-family="Helvetica,sans-Serif" font-size="10.00">m_tmpFile</text>
<text text-anchor="start" x="34" y="-1061.5" font-family="Helvetica,sans-Serif" font-size="10.00">+</text>
<text text-anchor="start" x="47" y="-1061.5" font-family="Helvetica,sans-Serif" font-size="10.00">VAbstractConverter()</text>
<text text-anchor="start" x="34" y="-1046.5" font-family="Helvetica,sans-Serif" font-size="10.00">+</text>
<text text-anchor="start" x="47" y="-1046.5" font-family="Helvetica,sans-Serif" font-size="10.00">~VAbstractConverter()</text>
<text text-anchor="start" x="34" y="-1031.5" font-family="Helvetica,sans-Serif" font-size="10.00">+</text>
<text text-anchor="start" x="47" y="-1031.5" font-family="Helvetica,sans-Serif" font-size="10.00">Convert()</text>
<text text-anchor="start" x="34" y="-1016.5" font-family="Helvetica,sans-Serif" font-size="10.00">+</text>
<text text-anchor="start" x="47" y="-1016.5" font-family="Helvetica,sans-Serif" font-size="10.00">GetCurrentFormatVarsion()</text>
<text text-anchor="start" x="34" y="-1001.5" font-family="Helvetica,sans-Serif" font-size="10.00">+</text>
<text text-anchor="start" x="47" y="-1001.5" font-family="Helvetica,sans-Serif" font-size="10.00">GetVersionStr()</text>
<text text-anchor="start" x="34" y="-986.5" font-family="Helvetica,sans-Serif" font-size="10.00">+</text>
<text text-anchor="start" x="47" y="-986.5" font-family="Helvetica,sans-Serif" font-size="10.00">GetVersion()</text>
<text text-anchor="start" x="34" y="-971.5" font-family="Helvetica,sans-Serif" font-size="10.00">#</text>
<text text-anchor="start" x="47" y="-971.5" font-family="Helvetica,sans-Serif" font-size="10.00">ValidateInputFile()</text>
<text text-anchor="start" x="34" y="-956.5" font-family="Helvetica,sans-Serif" font-size="10.00">#</text>
<text text-anchor="start" x="47" y="-956.5" font-family="Helvetica,sans-Serif" font-size="10.00">InvalidVersion()</text>
<text text-anchor="start" x="34" y="-941.5" font-family="Helvetica,sans-Serif" font-size="10.00">#</text>
<text text-anchor="start" x="47" y="-941.5" font-family="Helvetica,sans-Serif" font-size="10.00">Save()</text>
<text text-anchor="start" x="34" y="-926.5" font-family="Helvetica,sans-Serif" font-size="10.00">#</text>
<text text-anchor="start" x="47" y="-926.5" font-family="Helvetica,sans-Serif" font-size="10.00">setVersion()</text>
<text text-anchor="start" x="34" y="-911.5" font-family="Helvetica,sans-Serif" font-size="10.00">#</text>
<text text-anchor="start" x="47" y="-911.5" font-family="Helvetica,sans-Serif" font-size="10.00">minVer()</text>
<text text-anchor="start" x="34" y="-896.5" font-family="Helvetica,sans-Serif" font-size="10.00">#</text>
<text text-anchor="start" x="47" y="-896.5" font-family="Helvetica,sans-Serif" font-size="10.00">maxVer()</text>
<text text-anchor="start" x="34" y="-881.5" font-family="Helvetica,sans-Serif" font-size="10.00">#</text>
<text text-anchor="start" x="47" y="-881.5" font-family="Helvetica,sans-Serif" font-size="10.00">minVerStr()</text>
<text text-anchor="start" x="34" y="-866.5" font-family="Helvetica,sans-Serif" font-size="10.00">#</text>
<text text-anchor="start" x="47" y="-866.5" font-family="Helvetica,sans-Serif" font-size="10.00">maxVerStr()</text>
<text text-anchor="start" x="34" y="-851.5" font-family="Helvetica,sans-Serif" font-size="10.00">#</text>
<text text-anchor="start" x="47" y="-851.5" font-family="Helvetica,sans-Serif" font-size="10.00">getSchema()</text>
<text text-anchor="start" x="34" y="-836.5" font-family="Helvetica,sans-Serif" font-size="10.00">#</text>
<text text-anchor="start" x="47" y="-836.5" font-family="Helvetica,sans-Serif" font-size="10.00">applyPatches()</text>
<text text-anchor="start" x="34" y="-821.5" font-family="Helvetica,sans-Serif" font-size="10.00">#</text>
<text text-anchor="start" x="47" y="-821.5" font-family="Helvetica,sans-Serif" font-size="10.00">downgradeToCurrentMaxVersion()</text>
<text text-anchor="start" x="34" y="-806.5" font-family="Helvetica,sans-Serif" font-size="10.00">#</text>
<text text-anchor="start" x="47" y="-806.5" font-family="Helvetica,sans-Serif" font-size="10.00">isReadOnly()</text>
<text text-anchor="start" x="34" y="-791.5" font-family="Helvetica,sans-Serif" font-size="10.00">#</text>
<text text-anchor="start" x="47" y="-791.5" font-family="Helvetica,sans-Serif" font-size="10.00">Replace()</text>
<text text-anchor="start" x="34" y="-776.5" font-family="Helvetica,sans-Serif" font-size="10.00">#</text>
<text text-anchor="start" x="47" y="-776.5" font-family="Helvetica,sans-Serif" font-size="10.00">CorrectionsPositions()</text>
<text text-anchor="start" x="34" y="-761.5" font-family="Helvetica,sans-Serif" font-size="10.00">#</text>
<text text-anchor="start" x="47" y="-761.5" font-family="Helvetica,sans-Serif" font-size="10.00">BiasTokens()</text>
<text text-anchor="start" x="36.5" y="-746.5" font-family="Helvetica,sans-Serif" font-size="10.00">&#45;</text>
<text text-anchor="start" x="47" y="-746.5" font-family="Helvetica,sans-Serif" font-size="10.00">ReserveFile()</text>
<text text-anchor="start" x="36.5" y="-731.5" font-family="Helvetica,sans-Serif" font-size="10.00">&#45;</text>
<text text-anchor="start" x="47" y="-731.5" font-family="Helvetica,sans-Serif" font-size="10.00">ValidateVersion()</text>
<text text-anchor="start" x="36.5" y="-716.5" font-family="Helvetica,sans-Serif" font-size="10.00">&#45;</text>
<text text-anchor="start" x="47" y="-716.5" font-family="Helvetica,sans-Serif" font-size="10.00">removeVersionNumber()</text>
<text text-anchor="start" x="36.5" y="-701.5" font-family="Helvetica,sans-Serif" font-size="10.00">&#45;</text>
<text text-anchor="start" x="47" y="-701.5" font-family="Helvetica,sans-Serif" font-size="10.00">removeBakExtension()</text>
<polygon fill="#666666" stroke="#666666" points="30,-1116.5 30,-1116.5 217,-1116.5 217,-1116.5 30,-1116.5"/>
<polygon fill="#666666" stroke="#666666" points="30,-1071.5 30,-1071.5 45,-1071.5 45,-1071.5 30,-1071.5"/>
<polygon fill="#666666" stroke="#666666" points="45,-1071.5 45,-1071.5 217,-1071.5 217,-1071.5 45,-1071.5"/>
<polygon fill="none" stroke="#666666" points="29.5,-695 29.5,-1134 216.5,-1134 216.5,-695 29.5,-695"/>
</a>
</g>
</g>
<!-- Node3&#45;&gt;Node2 -->
<g id="edge2_Node000002_Node000003" class="edge">
<title>Node3&#45;&gt;Node2</title>
<g id="a_edge2_Node000002_Node000003"><a xlink:title=" ">
<path fill="none" stroke="#63b8ff" d="M123,-684.55C123,-675.29 123,-666.4 123,-658.06"/>
<polygon fill="none" stroke="#63b8ff" points="119.5,-684.75 123,-694.75 126.5,-684.75 119.5,-684.75"/>
</a>
</g>
</g>
<!-- Node4 -->
<g id="Node000004" class="node">
<title>Node4</title>
<g id="a_Node000004"><a xlink:href="../../d6/deb/classVDomDocument.html" target="_top" xlink:title="The VDomDocument class represents a Seamly2D document (.val file).">
<polygon fill="white" stroke="transparent" points="198.5,-1775 47.5,-1775 47.5,-1171 198.5,-1171 198.5,-1775"/>
<text text-anchor="start" x="83" y="-1763" font-family="Helvetica,sans-Serif" font-size="10.00">VDomDocument</text>
<text text-anchor="start" x="52" y="-1748" font-family="Helvetica,sans-Serif" font-size="10.00">+</text>
<text text-anchor="start" x="65" y="-1748" font-family="Helvetica,sans-Serif" font-size="10.00">AttrId</text>
<text text-anchor="start" x="52" y="-1733" font-family="Helvetica,sans-Serif" font-size="10.00">+</text>
<text text-anchor="start" x="65" y="-1733" font-family="Helvetica,sans-Serif" font-size="10.00">AttrText</text>
<text text-anchor="start" x="52" y="-1718" font-family="Helvetica,sans-Serif" font-size="10.00">+</text>
<text text-anchor="start" x="65" y="-1718" font-family="Helvetica,sans-Serif" font-size="10.00">AttrBold</text>
<text text-anchor="start" x="52" y="-1703" font-family="Helvetica,sans-Serif" font-size="10.00">+</text>
<text text-anchor="start" x="65" y="-1703" font-family="Helvetica,sans-Serif" font-size="10.00">AttrItalic</text>
<text text-anchor="start" x="52" y="-1688" font-family="Helvetica,sans-Serif" font-size="10.00">+</text>
<text text-anchor="start" x="65" y="-1688" font-family="Helvetica,sans-Serif" font-size="10.00">AttrAlignment</text>
<text text-anchor="start" x="52" y="-1673" font-family="Helvetica,sans-Serif" font-size="10.00">+</text>
<text text-anchor="start" x="65" y="-1673" font-family="Helvetica,sans-Serif" font-size="10.00">AttrFSIncrement</text>
<text text-anchor="start" x="52" y="-1658" font-family="Helvetica,sans-Serif" font-size="10.00">+</text>
<text text-anchor="start" x="65" y="-1658" font-family="Helvetica,sans-Serif" font-size="10.00">TagVersion</text>
<text text-anchor="start" x="52" y="-1643" font-family="Helvetica,sans-Serif" font-size="10.00">+</text>
<text text-anchor="start" x="65" y="-1643" font-family="Helvetica,sans-Serif" font-size="10.00">TagUnit</text>
<text text-anchor="start" x="52" y="-1628" font-family="Helvetica,sans-Serif" font-size="10.00">+</text>
<text text-anchor="start" x="65" y="-1628" font-family="Helvetica,sans-Serif" font-size="10.00">TagLine</text>
<text text-anchor="start" x="52" y="-1613" font-family="Helvetica,sans-Serif" font-size="10.00">+</text>
<text text-anchor="start" x="65" y="-1613" font-family="Helvetica,sans-Serif" font-size="10.00">VDomDocument()</text>
<text text-anchor="start" x="52" y="-1598" font-family="Helvetica,sans-Serif" font-size="10.00">+</text>
<text text-anchor="start" x="65" y="-1598" font-family="Helvetica,sans-Serif" font-size="10.00">~VDomDocument()</text>
<text text-anchor="start" x="52" y="-1583" font-family="Helvetica,sans-Serif" font-size="10.00">+</text>
<text text-anchor="start" x="65" y="-1583" font-family="Helvetica,sans-Serif" font-size="10.00">elementById()</text>
<text text-anchor="start" x="52" y="-1568" font-family="Helvetica,sans-Serif" font-size="10.00">+</text>
<text text-anchor="start" x="65" y="-1568" font-family="Helvetica,sans-Serif" font-size="10.00">SetAttribute()</text>
<text text-anchor="start" x="52" y="-1553" font-family="Helvetica,sans-Serif" font-size="10.00">+</text>
<text text-anchor="start" x="65" y="-1553" font-family="Helvetica,sans-Serif" font-size="10.00">measurementUnits()</text>
<text text-anchor="start" x="52" y="-1538" font-family="Helvetica,sans-Serif" font-size="10.00">+</text>
<text text-anchor="start" x="65" y="-1538" font-family="Helvetica,sans-Serif" font-size="10.00">setXMLContent()</text>
<text text-anchor="start" x="52" y="-1523" font-family="Helvetica,sans-Serif" font-size="10.00">+</text>
<text text-anchor="start" x="65" y="-1523" font-family="Helvetica,sans-Serif" font-size="10.00">SaveDocument()</text>
<text text-anchor="start" x="52" y="-1508" font-family="Helvetica,sans-Serif" font-size="10.00">+</text>
<text text-anchor="start" x="65" y="-1508" font-family="Helvetica,sans-Serif" font-size="10.00">Major()</text>
<text text-anchor="start" x="52" y="-1493" font-family="Helvetica,sans-Serif" font-size="10.00">+</text>
<text text-anchor="start" x="65" y="-1493" font-family="Helvetica,sans-Serif" font-size="10.00">Minor()</text>
<text text-anchor="start" x="52" y="-1478" font-family="Helvetica,sans-Serif" font-size="10.00">+</text>
<text text-anchor="start" x="65" y="-1478" font-family="Helvetica,sans-Serif" font-size="10.00">Patch()</text>
<text text-anchor="start" x="65" y="-1463" font-family="Helvetica,sans-Serif" font-size="10.00">and 8 more...</text>
<text text-anchor="start" x="52" y="-1448" font-family="Helvetica,sans-Serif" font-size="10.00">+</text>
<text text-anchor="start" x="65" y="-1448" font-family="Helvetica,sans-Serif" font-size="10.00">GetParametrUInt()</text>
<text text-anchor="start" x="52" y="-1433" font-family="Helvetica,sans-Serif" font-size="10.00">+</text>
<text text-anchor="start" x="65" y="-1433" font-family="Helvetica,sans-Serif" font-size="10.00">getParameterBool()</text>
<text text-anchor="start" x="52" y="-1418" font-family="Helvetica,sans-Serif" font-size="10.00">+</text>
<text text-anchor="start" x="65" y="-1418" font-family="Helvetica,sans-Serif" font-size="10.00">GetParametrUsage()</text>
<text text-anchor="start" x="52" y="-1403" font-family="Helvetica,sans-Serif" font-size="10.00">+</text>
<text text-anchor="start" x="65" y="-1403" font-family="Helvetica,sans-Serif" font-size="10.00">SetParametrUsage()</text>
<text text-anchor="start" x="52" y="-1388" font-family="Helvetica,sans-Serif" font-size="10.00">+</text>
<text text-anchor="start" x="65" y="-1388" font-family="Helvetica,sans-Serif" font-size="10.00">GetParametrString()</text>
<text text-anchor="start" x="52" y="-1373" font-family="Helvetica,sans-Serif" font-size="10.00">+</text>
<text text-anchor="start" x="65" y="-1373" font-family="Helvetica,sans-Serif" font-size="10.00">GetParametrEmptyString()</text>
<text text-anchor="start" x="52" y="-1358" font-family="Helvetica,sans-Serif" font-size="10.00">+</text>
<text text-anchor="start" x="65" y="-1358" font-family="Helvetica,sans-Serif" font-size="10.00">GetParametrDouble()</text>
<text text-anchor="start" x="52" y="-1343" font-family="Helvetica,sans-Serif" font-size="10.00">+</text>
<text text-anchor="start" x="65" y="-1343" font-family="Helvetica,sans-Serif" font-size="10.00">getParameterId()</text>
<text text-anchor="start" x="52" y="-1328" font-family="Helvetica,sans-Serif" font-size="10.00">+</text>
<text text-anchor="start" x="65" y="-1328" font-family="Helvetica,sans-Serif" font-size="10.00">ValidateXML()</text>
<text text-anchor="start" x="52" y="-1313" font-family="Helvetica,sans-Serif" font-size="10.00">+</text>
<text text-anchor="start" x="65" y="-1313" font-family="Helvetica,sans-Serif" font-size="10.00">UnitsHelpString()</text>
<text text-anchor="start" x="52" y="-1298" font-family="Helvetica,sans-Serif" font-size="10.00">+</text>
<text text-anchor="start" x="65" y="-1298" font-family="Helvetica,sans-Serif" font-size="10.00">RemoveAllChildren()</text>
<text text-anchor="start" x="52" y="-1283" font-family="Helvetica,sans-Serif" font-size="10.00">+</text>
<text text-anchor="start" x="65" y="-1283" font-family="Helvetica,sans-Serif" font-size="10.00">SafeCopy()</text>
<text text-anchor="start" x="52" y="-1268" font-family="Helvetica,sans-Serif" font-size="10.00">#</text>
<text text-anchor="start" x="65" y="-1268" font-family="Helvetica,sans-Serif" font-size="10.00">setTagText()</text>
<text text-anchor="start" x="52" y="-1253" font-family="Helvetica,sans-Serif" font-size="10.00">#</text>
<text text-anchor="start" x="65" y="-1253" font-family="Helvetica,sans-Serif" font-size="10.00">setTagText()</text>
<text text-anchor="start" x="52" y="-1238" font-family="Helvetica,sans-Serif" font-size="10.00">#</text>
<text text-anchor="start" x="65" y="-1238" font-family="Helvetica,sans-Serif" font-size="10.00">UniqueTagText()</text>
<text text-anchor="start" x="52" y="-1223" font-family="Helvetica,sans-Serif" font-size="10.00">#</text>
<text text-anchor="start" x="65" y="-1223" font-family="Helvetica,sans-Serif" font-size="10.00">TestUniqueId()</text>
<text text-anchor="start" x="52" y="-1208" font-family="Helvetica,sans-Serif" font-size="10.00">#</text>
<text text-anchor="start" x="65" y="-1208" font-family="Helvetica,sans-Serif" font-size="10.00">CollectId()</text>
<text text-anchor="start" x="54.5" y="-1193" font-family="Helvetica,sans-Serif" font-size="10.00">&#45;</text>
<text text-anchor="start" x="65" y="-1193" font-family="Helvetica,sans-Serif" font-size="10.00">find()</text>
<text text-anchor="start" x="54.5" y="-1178" font-family="Helvetica,sans-Serif" font-size="10.00">&#45;</text>
<text text-anchor="start" x="65" y="-1178" font-family="Helvetica,sans-Serif" font-size="10.00">SaveCanonicalXML()</text>
<polygon fill="#666666" stroke="#666666" points="48,-1758 48,-1758 199,-1758 199,-1758 48,-1758"/>
<polygon fill="#666666" stroke="#666666" points="48,-1623 48,-1623 63,-1623 63,-1623 48,-1623"/>
<polygon fill="#666666" stroke="#666666" points="63,-1623 63,-1623 199,-1623 199,-1623 63,-1623"/>
<polygon fill="none" stroke="#666666" points="47.5,-1171 47.5,-1775 198.5,-1775 198.5,-1171 47.5,-1171"/>
</a>
</g>
</g>
<!-- Node4&#45;&gt;Node3 -->
<g id="edge3_Node000003_Node000004" class="edge">
<title>Node4&#45;&gt;Node3</title>
<g id="a_edge3_Node000003_Node000004"><a xlink:title=" ">
<path fill="none" stroke="#63b8ff" d="M123,-1160.88C123,-1151.98 123,-1143.12 123,-1134.35"/>
<polygon fill="none" stroke="#63b8ff" points="119.5,-1160.95 123,-1170.95 126.5,-1160.95 119.5,-1160.95"/>
</a>
</g>
</g>
<!-- Node5 -->
<g id="Node000005" class="node">
<title>Node5</title>
<g id="a_Node000005"><a xlink:title=" ">
<polygon fill="white" stroke="transparent" points="92,-1871 0,-1871 0,-1822 92,-1822 92,-1871"/>
<text text-anchor="start" x="5" y="-1858.5" font-family="Helvetica,sans-Serif" font-size="10.00">QDomDocument</text>
<text text-anchor="start" x="44" y="-1843.5" font-family="Helvetica,sans-Serif" font-size="10.00"> </text>
<text text-anchor="start" x="44" y="-1828.5" font-family="Helvetica,sans-Serif" font-size="10.00"> </text>
<polygon fill="#666666" stroke="#666666" points="0,-1853.5 0,-1853.5 92,-1853.5 92,-1853.5 0,-1853.5"/>
<polygon fill="#666666" stroke="#666666" points="0,-1838.5 0,-1838.5 92,-1838.5 92,-1838.5 0,-1838.5"/>
<polygon fill="none" stroke="#666666" points="0,-1822 0,-1871 92,-1871 92,-1822 0,-1822"/>
</a>
</g>
</g>
<!-- Node5&#45;&gt;Node4 -->
<g id="edge4_Node000004_Node000005" class="edge">
<title>Node5&#45;&gt;Node4</title>
<g id="a_edge4_Node000004_Node000005"><a xlink:title=" ">
<path fill="none" stroke="#63b8ff" d="M52.97,-1811.89C55.12,-1801.49 57.69,-1789.08 60.56,-1775.25"/>
<polygon fill="none" stroke="#63b8ff" points="49.48,-1811.48 50.88,-1821.98 56.33,-1812.9 49.48,-1811.48"/>
</a>
</g>
</g>
<!-- Node6 -->
<g id="Node000006" class="node">
<title>Node6</title>
<g id="a_Node000006"><a xlink:href="../../da/da1/classQHash.html" target="_top" xlink:title=" ">
<polygon fill="white" stroke="transparent" points="289.5,-1871 110.5,-1871 110.5,-1822 289.5,-1822 289.5,-1871"/>
<text text-anchor="start" x="116" y="-1858.5" font-family="Helvetica,sans-Serif" font-size="10.00">QHash&lt; quint32, QDomElement &gt;</text>
<text text-anchor="start" x="198.5" y="-1843.5" font-family="Helvetica,sans-Serif" font-size="10.00"> </text>
<text text-anchor="start" x="198.5" y="-1828.5" font-family="Helvetica,sans-Serif" font-size="10.00"> </text>
<polygon fill="#666666" stroke="#666666" points="111,-1853.5 111,-1853.5 290,-1853.5 290,-1853.5 111,-1853.5"/>
<polygon fill="#666666" stroke="#666666" points="111,-1838.5 111,-1838.5 290,-1838.5 290,-1838.5 111,-1838.5"/>
<polygon fill="none" stroke="#666666" points="110.5,-1822 110.5,-1871 289.5,-1871 289.5,-1822 110.5,-1822"/>
</a>
</g>
</g>
<!-- Node6&#45;&gt;Node4 -->
<g id="edge5_Node000004_Node000006" class="edge">
<title>Node6&#45;&gt;Node4</title>
<g id="a_edge5_Node000004_Node000006"><a xlink:title=" ">
<path fill="none" stroke="#63b8ff" d="M195.12,-1821.98C193.17,-1812.57 190.72,-1800.71 187.89,-1787.09"/>
<polygon fill="none" stroke="#63b8ff" points="187.88,-1787 182.74,-1781.94 185.44,-1775.25 190.57,-1780.32 187.88,-1787"/>
</a>
</g>
<text text-anchor="middle" x="204.5" y="-1796" font-family="Helvetica,sans-Serif" font-size="10.00" fill="grey"> &#45;map</text>
</g>
</g>
</svg>
