<?xml version="1.0" encoding="UTF-8" standalone="no"?>
<!DOCTYPE svg PUBLIC "-//W3C//DTD SVG 1.1//EN"
 "http://www.w3.org/Graphics/SVG/1.1/DTD/svg11.dtd">
<!-- Generated by graphviz version 2.43.0 (0)
 -->
<!-- Title: src/libs/vlayout/vabstractpiece.h Pages: 1 -->
<svg width="1227pt" height="192pt"
 viewBox="0.00 0.00 1227.00 192.00" xmlns="http://www.w3.org/2000/svg" xmlns:xlink="http://www.w3.org/1999/xlink">
<g id="graph0" class="graph" transform="scale(1 1) rotate(0) translate(4 188)">
<title>src/libs/vlayout/vabstractpiece.h</title>
<!-- Node1 -->
<g id="Node000001" class="node">
<title>Node1</title>
<g id="a_Node000001"><a xlink:title=" ">
<polygon fill="#999999" stroke="#666666" points="498,-184 323,-184 323,-165 498,-165 498,-184"/>
<text text-anchor="middle" x="410.5" y="-172" font-family="Helvetica,sans-Serif" font-size="10.00">src/libs/vlayout/vabstractpiece.h</text>
</a>
</g>
</g>
<!-- Node2 -->
<g id="Node000002" class="node">
<title>Node2</title>
<g id="a_Node000002"><a xlink:title=" ">
<polygon fill="#e0e0e0" stroke="#999999" points="65,-74 6,-74 6,-55 65,-55 65,-74"/>
<text text-anchor="middle" x="35.5" y="-62" font-family="Helvetica,sans-Serif" font-size="10.00">QtGlobal</text>
</a>
</g>
</g>
<!-- Node1&#45;&gt;Node2 -->
<g id="edge1_Node000001_Node000002" class="edge">
<title>Node1&#45;&gt;Node2</title>
<g id="a_edge1_Node000001_Node000002"><a xlink:title=" ">
<path fill="none" stroke="#63b8ff" d="M372.71,-165C336.14,-156.57 279.25,-142.94 230.5,-129 173.62,-112.73 108.43,-90.83 69.68,-77.46"/>
<polygon fill="#63b8ff" stroke="#63b8ff" points="70.55,-74.06 59.95,-74.09 68.25,-80.67 70.55,-74.06"/>
</a>
</g>
</g>
<!-- Node3 -->
<g id="Node000003" class="node">
<title>Node3</title>
<g id="a_Node000003"><a xlink:title=" ">
<polygon fill="#e0e0e0" stroke="#999999" points="468.5,-74 352.5,-74 352.5,-55 468.5,-55 468.5,-74"/>
<text text-anchor="middle" x="410.5" y="-62" font-family="Helvetica,sans-Serif" font-size="10.00">QSharedDataPointer</text>
</a>
</g>
</g>
<!-- Node1&#45;&gt;Node3 -->
<g id="edge2_Node000001_Node000003" class="edge">
<title>Node1&#45;&gt;Node3</title>
<g id="a_edge2_Node000001_Node000003"><a xlink:title=" ">
<path fill="none" stroke="#63b8ff" d="M410.5,-164.66C410.5,-147.17 410.5,-107.8 410.5,-84.27"/>
<polygon fill="#63b8ff" stroke="#63b8ff" points="414,-84.16 410.5,-74.16 407,-84.16 414,-84.16"/>
</a>
</g>
</g>
<!-- Node4 -->
<g id="Node000004" class="node">
<title>Node4</title>
<g id="a_Node000004"><a xlink:title=" ">
<polygon fill="#e0e0e0" stroke="#999999" points="773,-129 718,-129 718,-110 773,-110 773,-129"/>
<text text-anchor="middle" x="745.5" y="-117" font-family="Helvetica,sans-Serif" font-size="10.00">QPointF</text>
</a>
</g>
</g>
<!-- Node1&#45;&gt;Node4 -->
<g id="edge3_Node000001_Node000004" class="edge">
<title>Node1&#45;&gt;Node4</title>
<g id="a_edge3_Node000001_Node000004"><a xlink:title=" ">
<path fill="none" stroke="#63b8ff" d="M477.62,-164.99C535.88,-157.26 622.69,-144.91 707.59,-129.04"/>
<polygon fill="#63b8ff" stroke="#63b8ff" points="708.49,-132.43 717.67,-127.14 707.19,-125.55 708.49,-132.43"/>
</a>
</g>
</g>
<!-- Node5 -->
<g id="Node000005" class="node">
<title>Node5</title>
<g id="a_Node000005"><a xlink:title=" ">
<polygon fill="#e0e0e0" stroke="#999999" points="847.5,-129 791.5,-129 791.5,-110 847.5,-110 847.5,-129"/>
<text text-anchor="middle" x="819.5" y="-117" font-family="Helvetica,sans-Serif" font-size="10.00">QDebug</text>
</a>
</g>
</g>
<!-- Node1&#45;&gt;Node5 -->
<g id="edge4_Node000001_Node000005" class="edge">
<title>Node1&#45;&gt;Node5</title>
<g id="a_edge4_Node000001_Node000005"><a xlink:title=" ">
<path fill="none" stroke="#63b8ff" d="M498.07,-165.69C571.34,-158.54 678.77,-146.63 781.37,-129.03"/>
<polygon fill="#63b8ff" stroke="#63b8ff" points="782.03,-132.47 791.28,-127.31 780.83,-125.57 782.03,-132.47"/>
</a>
</g>
</g>
<!-- Node6 -->
<g id="Node000006" class="node">
<title>Node6</title>
<g id="a_Node000006"><a xlink:href="../../d6/dcd/diagnostic_8h.html" target="_top" xlink:title=" ">
<polygon fill="white" stroke="#666666" points="117,-129 0,-129 0,-110 117,-110 117,-129"/>
<text text-anchor="middle" x="58.5" y="-117" font-family="Helvetica,sans-Serif" font-size="10.00">../vmisc/diagnostic.h</text>
</a>
</g>
</g>
<!-- Node1&#45;&gt;Node6 -->
<g id="edge5_Node000001_Node000006" class="edge">
<title>Node1&#45;&gt;Node6</title>
<g id="a_edge5_Node000001_Node000006"><a xlink:title=" ">
<path fill="none" stroke="#63b8ff" d="M353.95,-164.98C291.56,-155.59 191.26,-140.49 125.11,-130.53"/>
<polygon fill="#63b8ff" stroke="#63b8ff" points="125.62,-127.07 115.21,-129.04 124.57,-133.99 125.62,-127.07"/>
</a>
</g>
</g>
<!-- Node7 -->
<g id="Node000007" class="node">
<title>Node7</title>
<g id="a_Node000007"><a xlink:href="../../d4/da4/def_8h.html" target="_top" xlink:title=" ">
<polygon fill="white" stroke="#666666" points="699.5,-129 617.5,-129 617.5,-110 699.5,-110 699.5,-129"/>
<text text-anchor="middle" x="658.5" y="-117" font-family="Helvetica,sans-Serif" font-size="10.00">../vmisc/def.h</text>
</a>
</g>
</g>
<!-- Node1&#45;&gt;Node7 -->
<g id="edge7_Node000001_Node000007" class="edge">
<title>Node1&#45;&gt;Node7</title>
<g id="a_edge7_Node000001_Node000007"><a xlink:title=" ">
<path fill="none" stroke="#63b8ff" d="M450.35,-164.98C493.33,-155.8 561.87,-141.15 608.46,-131.19"/>
<polygon fill="#63b8ff" stroke="#63b8ff" points="609.29,-134.59 618.34,-129.08 607.83,-127.75 609.29,-134.59"/>
</a>
</g>
</g>
<!-- Node18 -->
<g id="Node000018" class="node">
<title>Node18</title>
<g id="a_Node000018"><a xlink:href="../../d2/d07/vgobject_8h.html" target="_top" xlink:title=" ">
<polygon fill="white" stroke="#666666" points="373,-129 240,-129 240,-110 373,-110 373,-129"/>
<text text-anchor="middle" x="306.5" y="-117" font-family="Helvetica,sans-Serif" font-size="10.00">../vgeometry/vgobject.h</text>
</a>
</g>
</g>
<!-- Node1&#45;&gt;Node18 -->
<g id="edge19_Node000001_Node000018" class="edge">
<title>Node1&#45;&gt;Node18</title>
<g id="a_edge19_Node000001_Node000018"><a xlink:title=" ">
<path fill="none" stroke="#63b8ff" d="M393.79,-164.98C377.29,-156.57 351.8,-143.59 332.62,-133.81"/>
<polygon fill="#63b8ff" stroke="#63b8ff" points="334.01,-130.59 323.51,-129.17 330.83,-136.83 334.01,-130.59"/>
</a>
</g>
</g>
<!-- Node6&#45;&gt;Node2 -->
<g id="edge6_Node000006_Node000002" class="edge">
<title>Node6&#45;&gt;Node2</title>
<g id="a_edge6_Node000006_Node000002"><a xlink:title=" ">
<path fill="none" stroke="#63b8ff" d="M54.7,-109.75C51.59,-102.57 47.08,-92.18 43.21,-83.27"/>
<polygon fill="#63b8ff" stroke="#63b8ff" points="46.42,-81.87 39.23,-74.09 40,-84.66 46.42,-81.87"/>
</a>
</g>
</g>
<!-- Node7&#45;&gt;Node2 -->
<g id="edge14_Node000007_Node000002" class="edge">
<title>Node7&#45;&gt;Node2</title>
<g id="a_edge14_Node000007_Node000002"><a xlink:title=" ">
<path fill="none" stroke="#63b8ff" d="M617.22,-117.32C522.91,-114.2 284.34,-103.92 75.17,-73.87"/>
<polygon fill="#63b8ff" stroke="#63b8ff" points="75.63,-70.4 65.23,-72.42 74.62,-77.33 75.63,-70.4"/>
</a>
</g>
</g>
<!-- Node8 -->
<g id="Node000008" class="node">
<title>Node8</title>
<g id="a_Node000008"><a xlink:title=" ">
<polygon fill="#e0e0e0" stroke="#999999" points="923.5,-74 803.5,-74 803.5,-55 923.5,-55 923.5,-74"/>
<text text-anchor="middle" x="863.5" y="-62" font-family="Helvetica,sans-Serif" font-size="10.00">qcompilerdetection.h</text>
</a>
</g>
</g>
<!-- Node7&#45;&gt;Node8 -->
<g id="edge8_Node000007_Node000008" class="edge">
<title>Node7&#45;&gt;Node8</title>
<g id="a_edge8_Node000007_Node000008"><a xlink:title=" ">
<path fill="none" stroke="#63b8ff" d="M691.44,-109.98C726.45,-100.93 781.97,-86.58 820.43,-76.64"/>
<polygon fill="#63b8ff" stroke="#63b8ff" points="821.5,-79.97 830.31,-74.08 819.75,-73.2 821.5,-79.97"/>
</a>
</g>
</g>
<!-- Node9 -->
<g id="Node000009" class="node">
<title>Node9</title>
<g id="a_Node000009"><a xlink:title=" ">
<polygon fill="#e0e0e0" stroke="#999999" points="1015,-74 942,-74 942,-55 1015,-55 1015,-74"/>
<text text-anchor="middle" x="978.5" y="-62" font-family="Helvetica,sans-Serif" font-size="10.00">QFileDialog</text>
</a>
</g>
</g>
<!-- Node7&#45;&gt;Node9 -->
<g id="edge9_Node000007_Node000009" class="edge">
<title>Node7&#45;&gt;Node9</title>
<g id="a_edge9_Node000007_Node000009"><a xlink:title=" ">
<path fill="none" stroke="#63b8ff" d="M699.69,-111.62C703.01,-111.07 706.31,-110.52 709.5,-110 805.47,-94.26 831.94,-91.3 931.94,-74.06"/>
<polygon fill="#63b8ff" stroke="#63b8ff" points="932.6,-77.5 941.86,-72.35 931.41,-70.6 932.6,-77.5"/>
</a>
</g>
</g>
<!-- Node10 -->
<g id="Node000010" class="node">
<title>Node10</title>
<g id="a_Node000010"><a xlink:title=" ">
<polygon fill="#e0e0e0" stroke="#999999" points="1083.5,-74 1033.5,-74 1033.5,-55 1083.5,-55 1083.5,-74"/>
<text text-anchor="middle" x="1058.5" y="-62" font-family="Helvetica,sans-Serif" font-size="10.00">QLineF</text>
</a>
</g>
</g>
<!-- Node7&#45;&gt;Node10 -->
<g id="edge10_Node000007_Node000010" class="edge">
<title>Node7&#45;&gt;Node10</title>
<g id="a_edge10_Node000007_Node000010"><a xlink:title=" ">
<path fill="none" stroke="#63b8ff" d="M699.67,-111.45C702.99,-110.94 706.3,-110.45 709.5,-110 845.77,-90.87 884.07,-98.75 1023.14,-74.02"/>
<polygon fill="#63b8ff" stroke="#63b8ff" points="1024.11,-77.4 1033.33,-72.18 1022.87,-70.51 1024.11,-77.4"/>
</a>
</g>
</g>
<!-- Node11 -->
<g id="Node000011" class="node">
<title>Node11</title>
<g id="a_Node000011"><a xlink:title=" ">
<polygon fill="#e0e0e0" stroke="#999999" points="540,-74 487,-74 487,-55 540,-55 540,-74"/>
<text text-anchor="middle" x="513.5" y="-62" font-family="Helvetica,sans-Serif" font-size="10.00">QString</text>
</a>
</g>
</g>
<!-- Node7&#45;&gt;Node11 -->
<g id="edge11_Node000007_Node000011" class="edge">
<title>Node7&#45;&gt;Node11</title>
<g id="a_edge11_Node000007_Node000011"><a xlink:title=" ">
<path fill="none" stroke="#63b8ff" d="M635.2,-109.98C611.25,-101.23 573.72,-87.51 546.67,-77.62"/>
<polygon fill="#63b8ff" stroke="#63b8ff" points="547.81,-74.32 537.22,-74.17 545.41,-80.89 547.81,-74.32"/>
</a>
</g>
</g>
<!-- Node12 -->
<g id="Node000012" class="node">
<title>Node12</title>
<g id="a_Node000012"><a xlink:title=" ">
<polygon fill="#e0e0e0" stroke="#999999" points="1171.5,-74 1101.5,-74 1101.5,-55 1171.5,-55 1171.5,-74"/>
<text text-anchor="middle" x="1136.5" y="-62" font-family="Helvetica,sans-Serif" font-size="10.00">QStringList</text>
</a>
</g>
</g>
<!-- Node7&#45;&gt;Node12 -->
<g id="edge12_Node000007_Node000012" class="edge">
<title>Node7&#45;&gt;Node12</title>
<g id="a_edge12_Node000007_Node000012"><a xlink:title=" ">
<path fill="none" stroke="#63b8ff" d="M699.66,-111.38C702.98,-110.88 706.3,-110.42 709.5,-110 875.81,-88.35 921.53,-97.86 1091.45,-74.01"/>
<polygon fill="#63b8ff" stroke="#63b8ff" points="1092.08,-77.45 1101.49,-72.58 1091.09,-70.52 1092.08,-77.45"/>
</a>
</g>
</g>
<!-- Node13 -->
<g id="Node000013" class="node">
<title>Node13</title>
<g id="a_Node000013"><a xlink:title=" ">
<polygon fill="#e0e0e0" stroke="#999999" points="1219,-74 1190,-74 1190,-55 1219,-55 1219,-74"/>
<text text-anchor="middle" x="1204.5" y="-62" font-family="Helvetica,sans-Serif" font-size="10.00">Qt</text>
</a>
</g>
</g>
<!-- Node7&#45;&gt;Node13 -->
<g id="edge13_Node000007_Node000013" class="edge">
<title>Node7&#45;&gt;Node13</title>
<g id="a_edge13_Node000007_Node000013"><a xlink:title=" ">
<path fill="none" stroke="#63b8ff" d="M699.65,-111.32C702.98,-110.84 706.29,-110.39 709.5,-110 914.66,-85.11 973.27,-116.41 1180,-73.44"/>
<polygon fill="#63b8ff" stroke="#63b8ff" points="1180.89,-76.83 1189.95,-71.34 1179.45,-69.98 1180.89,-76.83"/>
</a>
</g>
</g>
<!-- Node14 -->
<g id="Node000014" class="node">
<title>Node14</title>
<g id="a_Node000014"><a xlink:title=" ">
<polygon fill="#e0e0e0" stroke="#999999" points="614.5,-74 558.5,-74 558.5,-55 614.5,-55 614.5,-74"/>
<text text-anchor="middle" x="586.5" y="-62" font-family="Helvetica,sans-Serif" font-size="10.00">QPrinter</text>
</a>
</g>
</g>
<!-- Node7&#45;&gt;Node14 -->
<g id="edge15_Node000007_Node000014" class="edge">
<title>Node7&#45;&gt;Node14</title>
<g id="a_edge15_Node000007_Node000014"><a xlink:title=" ">
<path fill="none" stroke="#63b8ff" d="M646.93,-109.98C636.08,-102 619.62,-89.88 606.62,-80.31"/>
<polygon fill="#63b8ff" stroke="#63b8ff" points="608.41,-77.28 598.28,-74.17 604.26,-82.92 608.41,-77.28"/>
</a>
</g>
</g>
<!-- Node15 -->
<g id="Node000015" class="node">
<title>Node15</title>
<g id="a_Node000015"><a xlink:title=" ">
<polygon fill="#e0e0e0" stroke="#999999" points="684,-74 633,-74 633,-55 684,-55 684,-74"/>
<text text-anchor="middle" x="658.5" y="-62" font-family="Helvetica,sans-Serif" font-size="10.00">csignal</text>
</a>
</g>
</g>
<!-- Node7&#45;&gt;Node15 -->
<g id="edge16_Node000007_Node000015" class="edge">
<title>Node7&#45;&gt;Node15</title>
<g id="a_edge16_Node000007_Node000015"><a xlink:title=" ">
<path fill="none" stroke="#63b8ff" d="M658.5,-109.75C658.5,-102.8 658.5,-92.85 658.5,-84.13"/>
<polygon fill="#63b8ff" stroke="#63b8ff" points="662,-84.09 658.5,-74.09 655,-84.09 662,-84.09"/>
</a>
</g>
</g>
<!-- Node16 -->
<g id="Node000016" class="node">
<title>Node16</title>
<g id="a_Node000016"><a xlink:href="../../d4/d82/debugbreak_8h.html" target="_top" xlink:title=" ">
<polygon fill="white" stroke="#666666" points="785,-74 702,-74 702,-55 785,-55 785,-74"/>
<text text-anchor="middle" x="743.5" y="-62" font-family="Helvetica,sans-Serif" font-size="10.00">debugbreak.h</text>
</a>
</g>
</g>
<!-- Node7&#45;&gt;Node16 -->
<g id="edge17_Node000007_Node000016" class="edge">
<title>Node7&#45;&gt;Node16</title>
<g id="a_edge17_Node000007_Node000016"><a xlink:title=" ">
<path fill="none" stroke="#63b8ff" d="M672.16,-109.98C685.34,-101.77 705.53,-89.18 721.07,-79.49"/>
<polygon fill="#63b8ff" stroke="#63b8ff" points="722.96,-82.43 729.59,-74.17 719.26,-76.49 722.96,-82.43"/>
</a>
</g>
</g>
<!-- Node17 -->
<g id="Node000017" class="node">
<title>Node17</title>
<g id="a_Node000017"><a xlink:title=" ">
<polygon fill="#e0e0e0" stroke="#999999" points="771,-19 716,-19 716,0 771,0 771,-19"/>
<text text-anchor="middle" x="743.5" y="-7" font-family="Helvetica,sans-Serif" font-size="10.00">signal.h</text>
</a>
</g>
</g>
<!-- Node16&#45;&gt;Node17 -->
<g id="edge18_Node000016_Node000017" class="edge">
<title>Node16&#45;&gt;Node17</title>
<g id="a_edge18_Node000016_Node000017"><a xlink:title=" ">
<path fill="none" stroke="#63b8ff" d="M743.5,-54.75C743.5,-47.8 743.5,-37.85 743.5,-29.13"/>
<polygon fill="#63b8ff" stroke="#63b8ff" points="747,-29.09 743.5,-19.09 740,-29.09 747,-29.09"/>
</a>
</g>
</g>
<!-- Node18&#45;&gt;Node2 -->
<g id="edge24_Node000018_Node000002" class="edge">
<title>Node18&#45;&gt;Node2</title>
<g id="a_edge24_Node000018_Node000002"><a xlink:title=" ">
<path fill="none" stroke="#63b8ff" d="M260.21,-109.98C215.44,-101.65 145.43,-88.42 75.2,-74.1"/>
<polygon fill="#63b8ff" stroke="#63b8ff" points="75.79,-70.65 65.29,-72.07 74.39,-77.51 75.79,-70.65"/>
</a>
</g>
</g>
<!-- Node18&#45;&gt;Node3 -->
<g id="edge20_Node000018_Node000003" class="edge">
<title>Node18&#45;&gt;Node3</title>
<g id="a_edge20_Node000018_Node000003"><a xlink:title=" ">
<path fill="none" stroke="#63b8ff" d="M323.21,-109.98C339.71,-101.57 365.2,-88.59 384.38,-78.81"/>
<polygon fill="#63b8ff" stroke="#63b8ff" points="386.17,-81.83 393.49,-74.17 382.99,-75.59 386.17,-81.83"/>
</a>
</g>
</g>
<!-- Node18&#45;&gt;Node11 -->
<g id="edge21_Node000018_Node000011" class="edge">
<title>Node18&#45;&gt;Node11</title>
<g id="a_edge21_Node000018_Node000011"><a xlink:title=" ">
<path fill="none" stroke="#63b8ff" d="M339.76,-109.98C377.32,-100.37 438.24,-84.77 477.06,-74.83"/>
<polygon fill="#63b8ff" stroke="#63b8ff" points="478.09,-78.18 486.91,-72.31 476.35,-71.4 478.09,-78.18"/>
</a>
</g>
</g>
<!-- Node19 -->
<g id="Node000019" class="node">
<title>Node19</title>
<g id="a_Node000019"><a xlink:title=" ">
<polygon fill="#e0e0e0" stroke="#999999" points="261,-74 196,-74 196,-55 261,-55 261,-74"/>
<text text-anchor="middle" x="228.5" y="-62" font-family="Helvetica,sans-Serif" font-size="10.00">QTypeInfo</text>
</a>
</g>
</g>
<!-- Node18&#45;&gt;Node19 -->
<g id="edge22_Node000018_Node000019" class="edge">
<title>Node18&#45;&gt;Node19</title>
<g id="a_edge22_Node000018_Node000019"><a xlink:title=" ">
<path fill="none" stroke="#63b8ff" d="M293.97,-109.98C282.1,-101.92 264.04,-89.65 249.89,-80.03"/>
<polygon fill="#63b8ff" stroke="#63b8ff" points="251.5,-76.9 241.26,-74.17 247.56,-82.69 251.5,-76.9"/>
</a>
</g>
</g>
<!-- Node20 -->
<g id="Node000020" class="node">
<title>Node20</title>
<g id="a_Node000020"><a xlink:title=" ">
<polygon fill="#e0e0e0" stroke="#999999" points="334,-74 279,-74 279,-55 334,-55 334,-74"/>
<text text-anchor="middle" x="306.5" y="-62" font-family="Helvetica,sans-Serif" font-size="10.00">QVector</text>
</a>
</g>
</g>
<!-- Node18&#45;&gt;Node20 -->
<g id="edge23_Node000018_Node000020" class="edge">
<title>Node18&#45;&gt;Node20</title>
<g id="a_edge23_Node000018_Node000020"><a xlink:title=" ">
<path fill="none" stroke="#63b8ff" d="M306.5,-109.75C306.5,-102.8 306.5,-92.85 306.5,-84.13"/>
<polygon fill="#63b8ff" stroke="#63b8ff" points="310,-84.09 306.5,-74.09 303,-84.09 310,-84.09"/>
</a>
</g>
</g>
<!-- Node21 -->
<g id="Node000021" class="node">
<title>Node21</title>
<g id="a_Node000021"><a xlink:href="../../d5/d9d/vgeometrydef_8h.html" target="_top" xlink:title=" ">
<polygon fill="white" stroke="#666666" points="177.5,-74 83.5,-74 83.5,-55 177.5,-55 177.5,-74"/>
<text text-anchor="middle" x="130.5" y="-62" font-family="Helvetica,sans-Serif" font-size="10.00">vgeometrydef.h</text>
</a>
</g>
</g>
<!-- Node18&#45;&gt;Node21 -->
<g id="edge25_Node000018_Node000021" class="edge">
<title>Node18&#45;&gt;Node21</title>
<g id="a_edge25_Node000018_Node000021"><a xlink:title=" ">
<path fill="none" stroke="#63b8ff" d="M278.22,-109.98C248.55,-101.05 201.71,-86.94 168.75,-77.02"/>
<polygon fill="#63b8ff" stroke="#63b8ff" points="169.58,-73.61 159,-74.08 167.57,-80.32 169.58,-73.61"/>
</a>
</g>
</g>
</g>
</svg>
