<?xml version="1.0" encoding="UTF-8" standalone="no"?>
<!DOCTYPE svg PUBLIC "-//W3C//DTD SVG 1.1//EN"
 "http://www.w3.org/Graphics/SVG/1.1/DTD/svg11.dtd">
<!-- Generated by graphviz version 2.43.0 (0)
 -->
<!-- Title: VTextGraphicsItem Pages: 1 -->
<svg width="306pt" height="860pt"
 viewBox="0.00 0.00 305.50 860.00" xmlns="http://www.w3.org/2000/svg" xmlns:xlink="http://www.w3.org/1999/xlink">
<g id="graph0" class="graph" transform="scale(1 1) rotate(0) translate(4 856)">
<title>VTextGraphicsItem</title>
<!-- Node1 -->
<g id="Node000001" class="node">
<title>Node1</title>
<g id="a_Node000001"><a xlink:title="The VTextGraphicsItem class. This class implements text graphics item, which can be dragged around,...">
<polygon fill="#999999" stroke="transparent" points="186.5,-439 56.5,-439 56.5,0 186.5,0 186.5,-439"/>
<text text-anchor="start" x="75" y="-426.5" font-family="Helvetica,sans-Serif" font-size="10.00">VTextGraphicsItem</text>
<text text-anchor="start" x="63" y="-411.5" font-family="Helvetica,sans-Serif" font-size="10.00">&#45;</text>
<text text-anchor="start" x="73.5" y="-411.5" font-family="Helvetica,sans-Serif" font-size="10.00">m_startPos</text>
<text text-anchor="start" x="63" y="-396.5" font-family="Helvetica,sans-Serif" font-size="10.00">&#45;</text>
<text text-anchor="start" x="73.5" y="-396.5" font-family="Helvetica,sans-Serif" font-size="10.00">m_start</text>
<text text-anchor="start" x="63" y="-381.5" font-family="Helvetica,sans-Serif" font-size="10.00">&#45;</text>
<text text-anchor="start" x="73.5" y="-381.5" font-family="Helvetica,sans-Serif" font-size="10.00">m_startSize</text>
<text text-anchor="start" x="63" y="-366.5" font-family="Helvetica,sans-Serif" font-size="10.00">&#45;</text>
<text text-anchor="start" x="73.5" y="-366.5" font-family="Helvetica,sans-Serif" font-size="10.00">m_rotation</text>
<text text-anchor="start" x="63" y="-351.5" font-family="Helvetica,sans-Serif" font-size="10.00">&#45;</text>
<text text-anchor="start" x="73.5" y="-351.5" font-family="Helvetica,sans-Serif" font-size="10.00">m_angle</text>
<text text-anchor="start" x="63" y="-336.5" font-family="Helvetica,sans-Serif" font-size="10.00">&#45;</text>
<text text-anchor="start" x="73.5" y="-336.5" font-family="Helvetica,sans-Serif" font-size="10.00">m_rectResize</text>
<text text-anchor="start" x="60.5" y="-321.5" font-family="Helvetica,sans-Serif" font-size="10.00">+</text>
<text text-anchor="start" x="73.5" y="-321.5" font-family="Helvetica,sans-Serif" font-size="10.00">VTextGraphicsItem()</text>
<text text-anchor="start" x="60.5" y="-306.5" font-family="Helvetica,sans-Serif" font-size="10.00">+</text>
<text text-anchor="start" x="73.5" y="-306.5" font-family="Helvetica,sans-Serif" font-size="10.00">~VTextGraphicsItem()</text>
<text text-anchor="start" x="60.5" y="-291.5" font-family="Helvetica,sans-Serif" font-size="10.00">+</text>
<text text-anchor="start" x="73.5" y="-291.5" font-family="Helvetica,sans-Serif" font-size="10.00">paint()</text>
<text text-anchor="start" x="60.5" y="-276.5" font-family="Helvetica,sans-Serif" font-size="10.00">+</text>
<text text-anchor="start" x="73.5" y="-276.5" font-family="Helvetica,sans-Serif" font-size="10.00">updateItem()</text>
<text text-anchor="start" x="60.5" y="-261.5" font-family="Helvetica,sans-Serif" font-size="10.00">+</text>
<text text-anchor="start" x="73.5" y="-261.5" font-family="Helvetica,sans-Serif" font-size="10.00">type()</text>
<text text-anchor="start" x="60.5" y="-246.5" font-family="Helvetica,sans-Serif" font-size="10.00">+</text>
<text text-anchor="start" x="73.5" y="-246.5" font-family="Helvetica,sans-Serif" font-size="10.00">setFont()</text>
<text text-anchor="start" x="60.5" y="-231.5" font-family="Helvetica,sans-Serif" font-size="10.00">+</text>
<text text-anchor="start" x="73.5" y="-231.5" font-family="Helvetica,sans-Serif" font-size="10.00">getFontSize()</text>
<text text-anchor="start" x="60.5" y="-216.5" font-family="Helvetica,sans-Serif" font-size="10.00">+</text>
<text text-anchor="start" x="73.5" y="-216.5" font-family="Helvetica,sans-Serif" font-size="10.00">setSize()</text>
<text text-anchor="start" x="60.5" y="-201.5" font-family="Helvetica,sans-Serif" font-size="10.00">+</text>
<text text-anchor="start" x="73.5" y="-201.5" font-family="Helvetica,sans-Serif" font-size="10.00">isContained()</text>
<text text-anchor="start" x="60.5" y="-186.5" font-family="Helvetica,sans-Serif" font-size="10.00">+</text>
<text text-anchor="start" x="73.5" y="-186.5" font-family="Helvetica,sans-Serif" font-size="10.00">updateData()</text>
<text text-anchor="start" x="60.5" y="-171.5" font-family="Helvetica,sans-Serif" font-size="10.00">+</text>
<text text-anchor="start" x="73.5" y="-171.5" font-family="Helvetica,sans-Serif" font-size="10.00">updateData()</text>
<text text-anchor="start" x="60.5" y="-156.5" font-family="Helvetica,sans-Serif" font-size="10.00">+</text>
<text text-anchor="start" x="73.5" y="-156.5" font-family="Helvetica,sans-Serif" font-size="10.00">getTextLines()</text>
<text text-anchor="start" x="60.5" y="-141.5" font-family="Helvetica,sans-Serif" font-size="10.00">#</text>
<text text-anchor="start" x="73.5" y="-141.5" font-family="Helvetica,sans-Serif" font-size="10.00">mousePressEvent()</text>
<text text-anchor="start" x="60.5" y="-126.5" font-family="Helvetica,sans-Serif" font-size="10.00">#</text>
<text text-anchor="start" x="73.5" y="-126.5" font-family="Helvetica,sans-Serif" font-size="10.00">mouseMoveEvent()</text>
<text text-anchor="start" x="60.5" y="-111.5" font-family="Helvetica,sans-Serif" font-size="10.00">#</text>
<text text-anchor="start" x="73.5" y="-111.5" font-family="Helvetica,sans-Serif" font-size="10.00">mouseReleaseEvent()</text>
<text text-anchor="start" x="60.5" y="-96.5" font-family="Helvetica,sans-Serif" font-size="10.00">#</text>
<text text-anchor="start" x="73.5" y="-96.5" font-family="Helvetica,sans-Serif" font-size="10.00">hoverMoveEvent()</text>
<text text-anchor="start" x="60.5" y="-81.5" font-family="Helvetica,sans-Serif" font-size="10.00">#</text>
<text text-anchor="start" x="73.5" y="-81.5" font-family="Helvetica,sans-Serif" font-size="10.00">hoverLeaveEvent()</text>
<text text-anchor="start" x="60.5" y="-66.5" font-family="Helvetica,sans-Serif" font-size="10.00">#</text>
<text text-anchor="start" x="73.5" y="-66.5" font-family="Helvetica,sans-Serif" font-size="10.00">UpdateBox()</text>
<text text-anchor="start" x="60.5" y="-51.5" font-family="Helvetica,sans-Serif" font-size="10.00">#</text>
<text text-anchor="start" x="73.5" y="-51.5" font-family="Helvetica,sans-Serif" font-size="10.00">correctLabel()</text>
<text text-anchor="start" x="63" y="-36.5" font-family="Helvetica,sans-Serif" font-size="10.00">&#45;</text>
<text text-anchor="start" x="73.5" y="-36.5" font-family="Helvetica,sans-Serif" font-size="10.00">allUserModifications()</text>
<text text-anchor="start" x="63" y="-21.5" font-family="Helvetica,sans-Serif" font-size="10.00">&#45;</text>
<text text-anchor="start" x="73.5" y="-21.5" font-family="Helvetica,sans-Serif" font-size="10.00">userRotateAndMove()</text>
<text text-anchor="start" x="63" y="-6.5" font-family="Helvetica,sans-Serif" font-size="10.00">&#45;</text>
<text text-anchor="start" x="73.5" y="-6.5" font-family="Helvetica,sans-Serif" font-size="10.00">userMoveAndResize()</text>
<polygon fill="#666666" stroke="#666666" points="56.5,-421.5 56.5,-421.5 186.5,-421.5 186.5,-421.5 56.5,-421.5"/>
<polygon fill="#666666" stroke="#666666" points="56.5,-331.5 56.5,-331.5 71.5,-331.5 71.5,-331.5 56.5,-331.5"/>
<polygon fill="#666666" stroke="#666666" points="71.5,-331.5 71.5,-331.5 186.5,-331.5 186.5,-331.5 71.5,-331.5"/>
<polygon fill="none" stroke="#666666" points="56.5,0 56.5,-439 186.5,-439 186.5,0 56.5,0"/>
</a>
</g>
</g>
<!-- Node2 -->
<g id="Node000002" class="node">
<title>Node2</title>
<g id="a_Node000002"><a xlink:href="../../da/d7d/classVPieceItem.html" target="_top" xlink:title=" ">
<polygon fill="white" stroke="transparent" points="107,-745 0,-745 0,-486 107,-486 107,-745"/>
<text text-anchor="start" x="26" y="-732.5" font-family="Helvetica,sans-Serif" font-size="10.00">VPieceItem</text>
<text text-anchor="start" x="4.5" y="-717.5" font-family="Helvetica,sans-Serif" font-size="10.00">#</text>
<text text-anchor="start" x="17.5" y="-717.5" font-family="Helvetica,sans-Serif" font-size="10.00">m_boundingRect</text>
<text text-anchor="start" x="4.5" y="-702.5" font-family="Helvetica,sans-Serif" font-size="10.00">#</text>
<text text-anchor="start" x="17.5" y="-702.5" font-family="Helvetica,sans-Serif" font-size="10.00">m_mode</text>
<text text-anchor="start" x="4.5" y="-687.5" font-family="Helvetica,sans-Serif" font-size="10.00">#</text>
<text text-anchor="start" x="17.5" y="-687.5" font-family="Helvetica,sans-Serif" font-size="10.00">m_isReleased</text>
<text text-anchor="start" x="4.5" y="-672.5" font-family="Helvetica,sans-Serif" font-size="10.00">#</text>
<text text-anchor="start" x="17.5" y="-672.5" font-family="Helvetica,sans-Serif" font-size="10.00">m_rotationCenter</text>
<text text-anchor="start" x="4.5" y="-657.5" font-family="Helvetica,sans-Serif" font-size="10.00">#</text>
<text text-anchor="start" x="17.5" y="-657.5" font-family="Helvetica,sans-Serif" font-size="10.00">m_moveType</text>
<text text-anchor="start" x="4.5" y="-642.5" font-family="Helvetica,sans-Serif" font-size="10.00">#</text>
<text text-anchor="start" x="17.5" y="-642.5" font-family="Helvetica,sans-Serif" font-size="10.00">m_inactiveZ</text>
<text text-anchor="start" x="4.5" y="-627.5" font-family="Helvetica,sans-Serif" font-size="10.00">+</text>
<text text-anchor="start" x="17.5" y="-627.5" font-family="Helvetica,sans-Serif" font-size="10.00">VPieceItem()</text>
<text text-anchor="start" x="4.5" y="-612.5" font-family="Helvetica,sans-Serif" font-size="10.00">+</text>
<text text-anchor="start" x="17.5" y="-612.5" font-family="Helvetica,sans-Serif" font-size="10.00">~VPieceItem()</text>
<text text-anchor="start" x="4.5" y="-597.5" font-family="Helvetica,sans-Serif" font-size="10.00">+</text>
<text text-anchor="start" x="17.5" y="-597.5" font-family="Helvetica,sans-Serif" font-size="10.00">boundingRect()</text>
<text text-anchor="start" x="4.5" y="-582.5" font-family="Helvetica,sans-Serif" font-size="10.00">+</text>
<text text-anchor="start" x="17.5" y="-582.5" font-family="Helvetica,sans-Serif" font-size="10.00">updateItem()</text>
<text text-anchor="start" x="4.5" y="-567.5" font-family="Helvetica,sans-Serif" font-size="10.00">+</text>
<text text-anchor="start" x="17.5" y="-567.5" font-family="Helvetica,sans-Serif" font-size="10.00">reset()</text>
<text text-anchor="start" x="4.5" y="-552.5" font-family="Helvetica,sans-Serif" font-size="10.00">+</text>
<text text-anchor="start" x="17.5" y="-552.5" font-family="Helvetica,sans-Serif" font-size="10.00">isIdle()</text>
<text text-anchor="start" x="4.5" y="-537.5" font-family="Helvetica,sans-Serif" font-size="10.00">+</text>
<text text-anchor="start" x="17.5" y="-537.5" font-family="Helvetica,sans-Serif" font-size="10.00">getMoveType()</text>
<text text-anchor="start" x="4.5" y="-522.5" font-family="Helvetica,sans-Serif" font-size="10.00">+</text>
<text text-anchor="start" x="17.5" y="-522.5" font-family="Helvetica,sans-Serif" font-size="10.00">setMoveType()</text>
<text text-anchor="start" x="4.5" y="-507.5" font-family="Helvetica,sans-Serif" font-size="10.00">+</text>
<text text-anchor="start" x="17.5" y="-507.5" font-family="Helvetica,sans-Serif" font-size="10.00">type()</text>
<text text-anchor="start" x="4.5" y="-492.5" font-family="Helvetica,sans-Serif" font-size="10.00">#</text>
<text text-anchor="start" x="17.5" y="-492.5" font-family="Helvetica,sans-Serif" font-size="10.00">GetAngle()</text>
<polygon fill="#666666" stroke="#666666" points="0.5,-727.5 0.5,-727.5 107.5,-727.5 107.5,-727.5 0.5,-727.5"/>
<polygon fill="#666666" stroke="#666666" points="0.5,-637.5 0.5,-637.5 15.5,-637.5 15.5,-637.5 0.5,-637.5"/>
<polygon fill="#666666" stroke="#666666" points="15.5,-637.5 15.5,-637.5 107.5,-637.5 107.5,-637.5 15.5,-637.5"/>
<polygon fill="none" stroke="#666666" points="0,-486 0,-745 107,-745 107,-486 0,-486"/>
</a>
</g>
</g>
<!-- Node2&#45;&gt;Node1 -->
<g id="edge1_Node000001_Node000002" class="edge">
<title>Node2&#45;&gt;Node1</title>
<g id="a_edge1_Node000001_Node000002"><a xlink:title=" ">
<path fill="none" stroke="#63b8ff" d="M77.44,-475.81C79.5,-463.87 81.61,-451.61 83.75,-439.24"/>
<polygon fill="none" stroke="#63b8ff" points="73.97,-475.31 75.72,-485.76 80.87,-476.5 73.97,-475.31"/>
</a>
</g>
</g>
<!-- Node3 -->
<g id="Node000003" class="node">
<title>Node3</title>
<g id="a_Node000003"><a xlink:title=" ">
<polygon fill="white" stroke="transparent" points="99.5,-852 7.5,-852 7.5,-803 99.5,-803 99.5,-852"/>
<text text-anchor="start" x="12.5" y="-839.5" font-family="Helvetica,sans-Serif" font-size="10.00">QGraphicsObject</text>
<text text-anchor="start" x="51.5" y="-824.5" font-family="Helvetica,sans-Serif" font-size="10.00"> </text>
<text text-anchor="start" x="51.5" y="-809.5" font-family="Helvetica,sans-Serif" font-size="10.00"> </text>
<polygon fill="#666666" stroke="#666666" points="7.5,-834.5 7.5,-834.5 99.5,-834.5 99.5,-834.5 7.5,-834.5"/>
<polygon fill="#666666" stroke="#666666" points="7.5,-819.5 7.5,-819.5 99.5,-819.5 99.5,-819.5 7.5,-819.5"/>
<polygon fill="none" stroke="#666666" points="7.5,-803 7.5,-852 99.5,-852 99.5,-803 7.5,-803"/>
</a>
</g>
</g>
<!-- Node3&#45;&gt;Node2 -->
<g id="edge2_Node000002_Node000003" class="edge">
<title>Node3&#45;&gt;Node2</title>
<g id="a_edge2_Node000002_Node000003"><a xlink:title=" ">
<path fill="none" stroke="#63b8ff" d="M53.5,-792.67C53.5,-779.17 53.5,-762.72 53.5,-745.34"/>
<polygon fill="none" stroke="#63b8ff" points="50,-792.82 53.5,-802.82 57,-792.82 50,-792.82"/>
</a>
</g>
</g>
<!-- Node4 -->
<g id="Node000004" class="node">
<title>Node4</title>
<g id="a_Node000004"><a xlink:href="../../d7/db1/classVTextManager.html" target="_top" xlink:title="The VTextManager class this class is used to determine whether a collection of text lines can fit int...">
<polygon fill="white" stroke="transparent" points="258,-737.5 125,-737.5 125,-493.5 258,-493.5 258,-737.5"/>
<text text-anchor="start" x="157" y="-725.5" font-family="Helvetica,sans-Serif" font-size="10.00">VTextManager</text>
<text text-anchor="start" x="132" y="-710.5" font-family="Helvetica,sans-Serif" font-size="10.00">&#45;</text>
<text text-anchor="start" x="142.5" y="-710.5" font-family="Helvetica,sans-Serif" font-size="10.00">m_font</text>
<text text-anchor="start" x="129.5" y="-695.5" font-family="Helvetica,sans-Serif" font-size="10.00">+</text>
<text text-anchor="start" x="142.5" y="-695.5" font-family="Helvetica,sans-Serif" font-size="10.00">VTextManager()</text>
<text text-anchor="start" x="129.5" y="-680.5" font-family="Helvetica,sans-Serif" font-size="10.00">+</text>
<text text-anchor="start" x="142.5" y="-680.5" font-family="Helvetica,sans-Serif" font-size="10.00">~VTextManager()</text>
<text text-anchor="start" x="129.5" y="-665.5" font-family="Helvetica,sans-Serif" font-size="10.00">+</text>
<text text-anchor="start" x="142.5" y="-665.5" font-family="Helvetica,sans-Serif" font-size="10.00">VTextManager()</text>
<text text-anchor="start" x="129.5" y="-650.5" font-family="Helvetica,sans-Serif" font-size="10.00">+</text>
<text text-anchor="start" x="142.5" y="-650.5" font-family="Helvetica,sans-Serif" font-size="10.00">operator=()</text>
<text text-anchor="start" x="129.5" y="-635.5" font-family="Helvetica,sans-Serif" font-size="10.00">+</text>
<text text-anchor="start" x="142.5" y="-635.5" font-family="Helvetica,sans-Serif" font-size="10.00">GetSpacing()</text>
<text text-anchor="start" x="129.5" y="-620.5" font-family="Helvetica,sans-Serif" font-size="10.00">+</text>
<text text-anchor="start" x="142.5" y="-620.5" font-family="Helvetica,sans-Serif" font-size="10.00">setFont()</text>
<text text-anchor="start" x="129.5" y="-605.5" font-family="Helvetica,sans-Serif" font-size="10.00">+</text>
<text text-anchor="start" x="142.5" y="-605.5" font-family="Helvetica,sans-Serif" font-size="10.00">GetFont()</text>
<text text-anchor="start" x="129.5" y="-590.5" font-family="Helvetica,sans-Serif" font-size="10.00">+</text>
<text text-anchor="start" x="142.5" y="-590.5" font-family="Helvetica,sans-Serif" font-size="10.00">SetFontSize()</text>
<text text-anchor="start" x="129.5" y="-575.5" font-family="Helvetica,sans-Serif" font-size="10.00">+</text>
<text text-anchor="start" x="142.5" y="-575.5" font-family="Helvetica,sans-Serif" font-size="10.00">FitFontSize()</text>
<text text-anchor="start" x="129.5" y="-560.5" font-family="Helvetica,sans-Serif" font-size="10.00">+</text>
<text text-anchor="start" x="142.5" y="-560.5" font-family="Helvetica,sans-Serif" font-size="10.00">GetAllSourceLines()</text>
<text text-anchor="start" x="129.5" y="-545.5" font-family="Helvetica,sans-Serif" font-size="10.00">+</text>
<text text-anchor="start" x="142.5" y="-545.5" font-family="Helvetica,sans-Serif" font-size="10.00">GetSourceLinesCount()</text>
<text text-anchor="start" x="129.5" y="-530.5" font-family="Helvetica,sans-Serif" font-size="10.00">+</text>
<text text-anchor="start" x="142.5" y="-530.5" font-family="Helvetica,sans-Serif" font-size="10.00">GetSourceLine()</text>
<text text-anchor="start" x="129.5" y="-515.5" font-family="Helvetica,sans-Serif" font-size="10.00">+</text>
<text text-anchor="start" x="142.5" y="-515.5" font-family="Helvetica,sans-Serif" font-size="10.00">Update()</text>
<text text-anchor="start" x="129.5" y="-500.5" font-family="Helvetica,sans-Serif" font-size="10.00">+</text>
<text text-anchor="start" x="142.5" y="-500.5" font-family="Helvetica,sans-Serif" font-size="10.00">Update()</text>
<polygon fill="#666666" stroke="#666666" points="125.5,-720.5 125.5,-720.5 258.5,-720.5 258.5,-720.5 125.5,-720.5"/>
<polygon fill="#666666" stroke="#666666" points="125.5,-705.5 125.5,-705.5 140.5,-705.5 140.5,-705.5 125.5,-705.5"/>
<polygon fill="#666666" stroke="#666666" points="140.5,-705.5 140.5,-705.5 258.5,-705.5 258.5,-705.5 140.5,-705.5"/>
<polygon fill="none" stroke="#666666" points="125,-493.5 125,-737.5 258,-737.5 258,-493.5 125,-493.5"/>
</a>
</g>
</g>
<!-- Node4&#45;&gt;Node1 -->
<g id="edge3_Node000001_Node000004" class="edge">
<title>Node4&#45;&gt;Node1</title>
<g id="a_edge3_Node000001_Node000004"><a xlink:title=" ">
<path fill="none" stroke="#63b8ff" d="M169.97,-493.34C167.57,-479.82 165.07,-465.75 162.53,-451.42"/>
<polygon fill="none" stroke="#63b8ff" points="162.48,-451.15 157.49,-445.94 160.38,-439.34 165.37,-444.54 162.48,-451.15"/>
</a>
</g>
<text text-anchor="middle" x="210" y="-460" font-family="Helvetica,sans-Serif" font-size="10.00" fill="grey"> &#45;m_textMananger</text>
</g>
<!-- Node5 -->
<g id="Node000005" class="node">
<title>Node5</title>
<g id="a_Node000005"><a xlink:href="../../d1/d4a/classQList.html" target="_top" xlink:title=" ">
<polygon fill="white" stroke="transparent" points="240.5,-852 142.5,-852 142.5,-803 240.5,-803 240.5,-852"/>
<text text-anchor="start" x="147.5" y="-839.5" font-family="Helvetica,sans-Serif" font-size="10.00">QList&lt; TextLine &gt;</text>
<text text-anchor="start" x="189.5" y="-824.5" font-family="Helvetica,sans-Serif" font-size="10.00"> </text>
<text text-anchor="start" x="189.5" y="-809.5" font-family="Helvetica,sans-Serif" font-size="10.00"> </text>
<polygon fill="#666666" stroke="#666666" points="142.5,-834.5 142.5,-834.5 240.5,-834.5 240.5,-834.5 142.5,-834.5"/>
<polygon fill="#666666" stroke="#666666" points="142.5,-819.5 142.5,-819.5 240.5,-819.5 240.5,-819.5 142.5,-819.5"/>
<polygon fill="none" stroke="#666666" points="142.5,-803 142.5,-852 240.5,-852 240.5,-803 142.5,-803"/>
</a>
</g>
</g>
<!-- Node5&#45;&gt;Node4 -->
<g id="edge4_Node000004_Node000005" class="edge">
<title>Node5&#45;&gt;Node4</title>
<g id="a_edge4_Node000004_Node000005"><a xlink:title=" ">
<path fill="none" stroke="#63b8ff" d="M191.5,-802.82C191.5,-788.92 191.5,-770.12 191.5,-749.8"/>
<polygon fill="none" stroke="#63b8ff" points="191.5,-749.68 187.5,-743.68 191.5,-737.68 195.5,-743.68 191.5,-749.68"/>
</a>
</g>
<text text-anchor="middle" x="244.5" y="-777" font-family="Helvetica,sans-Serif" font-size="10.00" fill="grey"> &#45;m_liLines</text>
<text text-anchor="middle" x="244.5" y="-766" font-family="Helvetica,sans-Serif" font-size="10.00" fill="grey">&#45;m_patternLabelLines</text>
</g>
</g>
</svg>
