<?xml version="1.0" encoding="UTF-8" standalone="no"?>
<!DOCTYPE svg PUBLIC "-//W3C//DTD SVG 1.1//EN"
 "http://www.w3.org/Graphics/SVG/1.1/DTD/svg11.dtd">
<!-- Generated by graphviz version 2.43.0 (0)
 -->
<!-- Title: src/app/seamly2d/core/vapplication.h Pages: 1 -->
<svg width="4019pt" height="104pt"
 viewBox="0.00 0.00 4019.00 104.00" xmlns="http://www.w3.org/2000/svg" xmlns:xlink="http://www.w3.org/1999/xlink">
<g id="graph0" class="graph" transform="scale(1 1) rotate(0) translate(4 100)">
<title>src/app/seamly2d/core/vapplication.h</title>
<!-- Node1 -->
<g id="Node000001" class="node">
<title>Node1</title>
<g id="a_Node000001"><a xlink:title=" ">
<polygon fill="#999999" stroke="#666666" points="2195,-96 2068,-96 2068,-66 2195,-66 2195,-96"/>
<text text-anchor="start" x="2076" y="-84" font-family="Helvetica,sans-Serif" font-size="10.00">src/app/seamly2d/core</text>
<text text-anchor="middle" x="2131.5" y="-73" font-family="Helvetica,sans-Serif" font-size="10.00">/vapplication.h</text>
</a>
</g>
</g>
<!-- Node2 -->
<g id="Node000002" class="node">
<title>Node2</title>
<g id="a_Node000002"><a xlink:href="../../d3/dd8/vapplication_8cpp.html" target="_top" xlink:title=" ">
<polygon fill="white" stroke="#666666" points="127,-30 0,-30 0,0 127,0 127,-30"/>
<text text-anchor="start" x="8" y="-18" font-family="Helvetica,sans-Serif" font-size="10.00">src/app/seamly2d/core</text>
<text text-anchor="middle" x="63.5" y="-7" font-family="Helvetica,sans-Serif" font-size="10.00">/vapplication.cpp</text>
</a>
</g>
</g>
<!-- Node1&#45;&gt;Node2 -->
<g id="edge1_Node000001_Node000002" class="edge">
<title>Node1&#45;&gt;Node2</title>
<g id="a_edge1_Node000001_Node000002"><a xlink:title=" ">
<path fill="none" stroke="#63b8ff" d="M2057.53,-79.77C1743.54,-78.57 519.68,-71.26 136.5,-30 133.42,-29.67 130.28,-29.28 127.11,-28.84"/>
<polygon fill="#63b8ff" stroke="#63b8ff" points="2057.86,-83.28 2067.87,-79.81 2057.88,-76.28 2057.86,-83.28"/>
</a>
</g>
</g>
<!-- Node3 -->
<g id="Node000003" class="node">
<title>Node3</title>
<g id="a_Node000003"><a xlink:href="../../d2/d00/vtooloptionspropertybrowser_8cpp.html" target="_top" xlink:title=" ">
<polygon fill="white" stroke="#666666" points="325.5,-30 145.5,-30 145.5,0 325.5,0 325.5,-30"/>
<text text-anchor="start" x="153.5" y="-18" font-family="Helvetica,sans-Serif" font-size="10.00">src/app/seamly2d/core</text>
<text text-anchor="middle" x="235.5" y="-7" font-family="Helvetica,sans-Serif" font-size="10.00">/vtooloptionspropertybrowser.cpp</text>
</a>
</g>
</g>
<!-- Node1&#45;&gt;Node3 -->
<g id="edge2_Node000001_Node000003" class="edge">
<title>Node1&#45;&gt;Node3</title>
<g id="a_edge2_Node000001_Node000003"><a xlink:title=" ">
<path fill="none" stroke="#63b8ff" d="M2057.73,-79.06C1764.08,-75.14 677.58,-58.94 334.5,-30 331.56,-29.75 328.57,-29.48 325.56,-29.17"/>
<polygon fill="#63b8ff" stroke="#63b8ff" points="2057.79,-82.56 2067.84,-79.19 2057.89,-75.56 2057.79,-82.56"/>
</a>
</g>
</g>
<!-- Node4 -->
<g id="Node000004" class="node">
<title>Node4</title>
<g id="a_Node000004"><a xlink:href="../../dd/db4/abstractlayout__dialog_8cpp.html" target="_top" xlink:title=" ">
<polygon fill="white" stroke="#666666" points="489.5,-30 343.5,-30 343.5,0 489.5,0 489.5,-30"/>
<text text-anchor="start" x="351.5" y="-18" font-family="Helvetica,sans-Serif" font-size="10.00">src/app/seamly2d/dialogs</text>
<text text-anchor="middle" x="416.5" y="-7" font-family="Helvetica,sans-Serif" font-size="10.00">/abstractlayout_dialog.cpp</text>
</a>
</g>
</g>
<!-- Node1&#45;&gt;Node4 -->
<g id="edge3_Node000001_Node000004" class="edge">
<title>Node1&#45;&gt;Node4</title>
<g id="a_edge3_Node000001_Node000004"><a xlink:title=" ">
<path fill="none" stroke="#63b8ff" d="M2057.68,-79.1C1781.23,-75.52 807.27,-60.94 498.5,-30 495.63,-29.71 492.7,-29.38 489.75,-29.02"/>
<polygon fill="#63b8ff" stroke="#63b8ff" points="2057.95,-82.6 2067.99,-79.23 2058.04,-75.6 2057.95,-82.6"/>
</a>
</g>
</g>
<!-- Node5 -->
<g id="Node000005" class="node">
<title>Node5</title>
<g id="a_Node000005"><a xlink:href="../../d7/dfa/calculator__dialog_8cpp.html" target="_top" xlink:title=" ">
<polygon fill="white" stroke="#666666" points="649,-30 508,-30 508,0 649,0 649,-30"/>
<text text-anchor="start" x="516" y="-18" font-family="Helvetica,sans-Serif" font-size="10.00">src/app/seamly2d/dialogs</text>
<text text-anchor="middle" x="578.5" y="-7" font-family="Helvetica,sans-Serif" font-size="10.00">/calculator_dialog.cpp</text>
</a>
</g>
</g>
<!-- Node1&#45;&gt;Node5 -->
<g id="edge4_Node000001_Node000005" class="edge">
<title>Node1&#45;&gt;Node5</title>
<g id="a_edge4_Node000001_Node000005"><a xlink:title=" ">
<path fill="none" stroke="#63b8ff" d="M2057.57,-78.88C1798.62,-74.73 933.45,-58.98 657.5,-30 654.73,-29.71 651.91,-29.38 649.07,-29.02"/>
<polygon fill="#63b8ff" stroke="#63b8ff" points="2057.56,-82.38 2067.62,-79.04 2057.67,-75.38 2057.56,-82.38"/>
</a>
</g>
</g>
<!-- Node6 -->
<g id="Node000006" class="node">
<title>Node6</title>
<g id="a_Node000006"><a xlink:href="../../d2/d2d/preferencesconfigurationpage_8cpp.html" target="_top" xlink:title=" ">
<polygon fill="white" stroke="#666666" points="914,-30 667,-30 667,0 914,0 914,-30"/>
<text text-anchor="start" x="675" y="-18" font-family="Helvetica,sans-Serif" font-size="10.00">src/app/seamly2d/dialogs</text>
<text text-anchor="middle" x="790.5" y="-7" font-family="Helvetica,sans-Serif" font-size="10.00">/configpages/preferencesconfigurationpage.cpp</text>
</a>
</g>
</g>
<!-- Node1&#45;&gt;Node6 -->
<g id="edge5_Node000001_Node000006" class="edge">
<title>Node1&#45;&gt;Node6</title>
<g id="a_edge5_Node000001_Node000006"><a xlink:title=" ">
<path fill="none" stroke="#63b8ff" d="M2057.81,-78.58C1869.01,-74.59 1352.6,-61.43 923.5,-30 920.37,-29.77 917.21,-29.53 914.01,-29.27"/>
<polygon fill="#63b8ff" stroke="#63b8ff" points="2057.82,-82.08 2067.9,-78.79 2057.97,-75.08 2057.82,-82.08"/>
</a>
</g>
</g>
<!-- Node7 -->
<g id="Node000007" class="node">
<title>Node7</title>
<g id="a_Node000007"><a xlink:href="../../d9/d70/preferencesgraphicsviewpage_8cpp.html" target="_top" xlink:title=" ">
<polygon fill="white" stroke="#666666" points="1180.5,-30 932.5,-30 932.5,0 1180.5,0 1180.5,-30"/>
<text text-anchor="start" x="940.5" y="-18" font-family="Helvetica,sans-Serif" font-size="10.00">src/app/seamly2d/dialogs</text>
<text text-anchor="middle" x="1056.5" y="-7" font-family="Helvetica,sans-Serif" font-size="10.00">/configpages/preferencesgraphicsviewpage.cpp</text>
</a>
</g>
</g>
<!-- Node1&#45;&gt;Node7 -->
<g id="edge6_Node000001_Node000007" class="edge">
<title>Node1&#45;&gt;Node7</title>
<g id="a_edge6_Node000001_Node000007"><a xlink:title=" ">
<path fill="none" stroke="#63b8ff" d="M2057.61,-77.38C1898.64,-71.46 1512.4,-55.55 1189.5,-30 1186.61,-29.77 1183.68,-29.53 1180.73,-29.28"/>
<polygon fill="#63b8ff" stroke="#63b8ff" points="2057.62,-80.89 2067.74,-77.76 2057.88,-73.89 2057.62,-80.89"/>
</a>
</g>
</g>
<!-- Node8 -->
<g id="Node000008" class="node">
<title>Node8</title>
<g id="a_Node000008"><a xlink:href="../../dc/d20/preferencespathpage_8cpp.html" target="_top" xlink:title=" ">
<polygon fill="white" stroke="#666666" points="1404,-30 1199,-30 1199,0 1404,0 1404,-30"/>
<text text-anchor="start" x="1207" y="-18" font-family="Helvetica,sans-Serif" font-size="10.00">src/app/seamly2d/dialogs</text>
<text text-anchor="middle" x="1301.5" y="-7" font-family="Helvetica,sans-Serif" font-size="10.00">/configpages/preferencespathpage.cpp</text>
</a>
</g>
</g>
<!-- Node1&#45;&gt;Node8 -->
<g id="edge7_Node000001_Node000008" class="edge">
<title>Node1&#45;&gt;Node8</title>
<g id="a_edge7_Node000001_Node000008"><a xlink:title=" ">
<path fill="none" stroke="#63b8ff" d="M2057.26,-76.18C1926.83,-69.16 1648.11,-52.81 1413.5,-30 1410.38,-29.7 1407.21,-29.38 1404.01,-29.04"/>
<polygon fill="#63b8ff" stroke="#63b8ff" points="2057.35,-79.69 2067.53,-76.73 2057.73,-72.7 2057.35,-79.69"/>
</a>
</g>
</g>
<!-- Node9 -->
<g id="Node000009" class="node">
<title>Node9</title>
<g id="a_Node000009"><a xlink:href="../../dc/d63/preferencespatternpage_8cpp.html" target="_top" xlink:title=" ">
<polygon fill="white" stroke="#666666" points="1640.5,-30 1422.5,-30 1422.5,0 1640.5,0 1640.5,-30"/>
<text text-anchor="start" x="1430.5" y="-18" font-family="Helvetica,sans-Serif" font-size="10.00">src/app/seamly2d/dialogs</text>
<text text-anchor="middle" x="1531.5" y="-7" font-family="Helvetica,sans-Serif" font-size="10.00">/configpages/preferencespatternpage.cpp</text>
</a>
</g>
</g>
<!-- Node1&#45;&gt;Node9 -->
<g id="edge8_Node000001_Node000009" class="edge">
<title>Node1&#45;&gt;Node9</title>
<g id="a_edge8_Node000001_Node000009"><a xlink:title=" ">
<path fill="none" stroke="#63b8ff" d="M2057.89,-72.7C1963.32,-63.25 1794.11,-46.08 1649.5,-30 1646.63,-29.68 1643.72,-29.35 1640.78,-29.02"/>
<polygon fill="#63b8ff" stroke="#63b8ff" points="2057.62,-76.19 2067.92,-73.71 2058.32,-69.23 2057.62,-76.19"/>
</a>
</g>
</g>
<!-- Node10 -->
<g id="Node000010" class="node">
<title>Node10</title>
<g id="a_Node000010"><a xlink:href="../../dd/dc2/decimalchart__dialog_8cpp.html" target="_top" xlink:title=" ">
<polygon fill="white" stroke="#666666" points="1800,-30 1659,-30 1659,0 1800,0 1800,-30"/>
<text text-anchor="start" x="1667" y="-18" font-family="Helvetica,sans-Serif" font-size="10.00">src/app/seamly2d/dialogs</text>
<text text-anchor="middle" x="1729.5" y="-7" font-family="Helvetica,sans-Serif" font-size="10.00">/decimalchart_dialog.cpp</text>
</a>
</g>
</g>
<!-- Node1&#45;&gt;Node10 -->
<g id="edge9_Node000001_Node000010" class="edge">
<title>Node1&#45;&gt;Node10</title>
<g id="a_edge9_Node000001_Node000010"><a xlink:title=" ">
<path fill="none" stroke="#63b8ff" d="M2057.47,-69.01C1991.95,-59.17 1893.78,-44.16 1808.5,-30 1805.75,-29.54 1802.95,-29.07 1800.12,-28.59"/>
<polygon fill="#63b8ff" stroke="#63b8ff" points="2057.29,-72.52 2067.7,-70.54 2058.33,-65.6 2057.29,-72.52"/>
</a>
</g>
</g>
<!-- Node11 -->
<g id="Node000011" class="node">
<title>Node11</title>
<g id="a_Node000011"><a xlink:href="../../dd/d64/dialogaboutapp_8cpp.html" target="_top" xlink:title=" ">
<polygon fill="white" stroke="#666666" points="1959,-30 1818,-30 1818,0 1959,0 1959,-30"/>
<text text-anchor="start" x="1826" y="-18" font-family="Helvetica,sans-Serif" font-size="10.00">src/app/seamly2d/dialogs</text>
<text text-anchor="middle" x="1888.5" y="-7" font-family="Helvetica,sans-Serif" font-size="10.00">/dialogaboutapp.cpp</text>
</a>
</g>
</g>
<!-- Node1&#45;&gt;Node11 -->
<g id="edge10_Node000001_Node000011" class="edge">
<title>Node1&#45;&gt;Node11</title>
<g id="a_edge10_Node000001_Node000011"><a xlink:title=" ">
<path fill="none" stroke="#63b8ff" d="M2068.42,-63.39C2029.08,-53.03 1979.03,-39.84 1941.7,-30.01"/>
<polygon fill="#63b8ff" stroke="#63b8ff" points="2067.61,-66.79 2078.17,-65.95 2069.39,-60.02 2067.61,-66.79"/>
</a>
</g>
</g>
<!-- Node12 -->
<g id="Node000012" class="node">
<title>Node12</title>
<g id="a_Node000012"><a xlink:href="../../d6/d89/dialoglayoutprogress_8cpp.html" target="_top" xlink:title=" ">
<polygon fill="white" stroke="#666666" points="2120,-30 1977,-30 1977,0 2120,0 2120,-30"/>
<text text-anchor="start" x="1985" y="-18" font-family="Helvetica,sans-Serif" font-size="10.00">src/app/seamly2d/dialogs</text>
<text text-anchor="middle" x="2048.5" y="-7" font-family="Helvetica,sans-Serif" font-size="10.00">/dialoglayoutprogress.cpp</text>
</a>
</g>
</g>
<!-- Node1&#45;&gt;Node12 -->
<g id="edge11_Node000001_Node000012" class="edge">
<title>Node1&#45;&gt;Node12</title>
<g id="a_edge11_Node000001_Node000012"><a xlink:title=" ">
<path fill="none" stroke="#63b8ff" d="M2104.89,-59.48C2092.48,-49.91 2078.03,-38.77 2066.87,-30.16"/>
<polygon fill="#63b8ff" stroke="#63b8ff" points="2103.02,-62.46 2113.08,-65.8 2107.3,-56.92 2103.02,-62.46"/>
</a>
</g>
</g>
<!-- Node13 -->
<g id="Node000013" class="node">
<title>Node13</title>
<g id="a_Node000013"><a xlink:href="../../d5/d18/dialogpatternproperties_8cpp.html" target="_top" xlink:title=" ">
<polygon fill="white" stroke="#666666" points="2293,-30 2138,-30 2138,0 2293,0 2293,-30"/>
<text text-anchor="start" x="2146" y="-18" font-family="Helvetica,sans-Serif" font-size="10.00">src/app/seamly2d/dialogs</text>
<text text-anchor="middle" x="2215.5" y="-7" font-family="Helvetica,sans-Serif" font-size="10.00">/dialogpatternproperties.cpp</text>
</a>
</g>
</g>
<!-- Node1&#45;&gt;Node13 -->
<g id="edge12_Node000001_Node000013" class="edge">
<title>Node1&#45;&gt;Node13</title>
<g id="a_edge12_Node000001_Node000013"><a xlink:title=" ">
<path fill="none" stroke="#63b8ff" d="M2158.44,-59.48C2170.99,-49.91 2185.61,-38.77 2196.91,-30.16"/>
<polygon fill="#63b8ff" stroke="#63b8ff" points="2155.98,-56.95 2150.14,-65.8 2160.22,-62.52 2155.98,-56.95"/>
</a>
</g>
</g>
<!-- Node14 -->
<g id="Node000014" class="node">
<title>Node14</title>
<g id="a_Node000014"><a xlink:href="../../d5/dc5/dialogpreferences_8cpp.html" target="_top" xlink:title=" ">
<polygon fill="white" stroke="#666666" points="2452,-30 2311,-30 2311,0 2452,0 2452,-30"/>
<text text-anchor="start" x="2319" y="-18" font-family="Helvetica,sans-Serif" font-size="10.00">src/app/seamly2d/dialogs</text>
<text text-anchor="middle" x="2381.5" y="-7" font-family="Helvetica,sans-Serif" font-size="10.00">/dialogpreferences.cpp</text>
</a>
</g>
</g>
<!-- Node1&#45;&gt;Node14 -->
<g id="edge13_Node000001_Node000014" class="edge">
<title>Node1&#45;&gt;Node14</title>
<g id="a_edge13_Node000001_Node000014"><a xlink:title=" ">
<path fill="none" stroke="#63b8ff" d="M2196.14,-63.45C2236.65,-53.08 2288.29,-39.86 2326.76,-30.01"/>
<polygon fill="#63b8ff" stroke="#63b8ff" points="2195.18,-60.08 2186.36,-65.95 2196.92,-66.87 2195.18,-60.08"/>
</a>
</g>
</g>
<!-- Node15 -->
<g id="Node000015" class="node">
<title>Node15</title>
<g id="a_Node000015"><a xlink:href="../../dd/d54/export__layout__dialog_8cpp.html" target="_top" xlink:title=" ">
<polygon fill="white" stroke="#666666" points="2613,-30 2470,-30 2470,0 2613,0 2613,-30"/>
<text text-anchor="start" x="2478" y="-18" font-family="Helvetica,sans-Serif" font-size="10.00">src/app/seamly2d/dialogs</text>
<text text-anchor="middle" x="2541.5" y="-7" font-family="Helvetica,sans-Serif" font-size="10.00">/export_layout_dialog.cpp</text>
</a>
</g>
</g>
<!-- Node1&#45;&gt;Node15 -->
<g id="edge14_Node000001_Node000015" class="edge">
<title>Node1&#45;&gt;Node15</title>
<g id="a_edge14_Node000001_Node000015"><a xlink:title=" ">
<path fill="none" stroke="#63b8ff" d="M2205.17,-69.33C2272.09,-59.52 2373.51,-44.36 2461.5,-30 2464.28,-29.55 2467.12,-29.08 2469.98,-28.6"/>
<polygon fill="#63b8ff" stroke="#63b8ff" points="2204.53,-65.89 2195.14,-70.8 2205.54,-72.81 2204.53,-65.89"/>
</a>
</g>
</g>
<!-- Node16 -->
<g id="Node000016" class="node">
<title>Node16</title>
<g id="a_Node000016"><a xlink:href="../../db/d5c/groups__widget_8cpp.html" target="_top" xlink:title=" ">
<polygon fill="white" stroke="#666666" points="2772,-30 2631,-30 2631,0 2772,0 2772,-30"/>
<text text-anchor="start" x="2639" y="-18" font-family="Helvetica,sans-Serif" font-size="10.00">src/app/seamly2d/dialogs</text>
<text text-anchor="middle" x="2701.5" y="-7" font-family="Helvetica,sans-Serif" font-size="10.00">/groups_widget.cpp</text>
</a>
</g>
</g>
<!-- Node1&#45;&gt;Node16 -->
<g id="edge15_Node000001_Node000016" class="edge">
<title>Node1&#45;&gt;Node16</title>
<g id="a_edge15_Node000001_Node000016"><a xlink:title=" ">
<path fill="none" stroke="#63b8ff" d="M2205.45,-74.18C2301.73,-66.22 2475.11,-50.54 2622.5,-30 2625.26,-29.62 2628.07,-29.21 2630.91,-28.78"/>
<polygon fill="#63b8ff" stroke="#63b8ff" points="2204.92,-70.72 2195.24,-75.02 2205.49,-77.69 2204.92,-70.72"/>
</a>
</g>
</g>
<!-- Node17 -->
<g id="Node000017" class="node">
<title>Node17</title>
<g id="a_Node000017"><a xlink:href="../../d0/dfa/layoutsettings__dialog_8cpp.html" target="_top" xlink:title=" ">
<polygon fill="white" stroke="#666666" points="2935,-30 2790,-30 2790,0 2935,0 2935,-30"/>
<text text-anchor="start" x="2798" y="-18" font-family="Helvetica,sans-Serif" font-size="10.00">src/app/seamly2d/dialogs</text>
<text text-anchor="middle" x="2862.5" y="-7" font-family="Helvetica,sans-Serif" font-size="10.00">/layoutsettings_dialog.cpp</text>
</a>
</g>
</g>
<!-- Node1&#45;&gt;Node17 -->
<g id="edge16_Node000001_Node000017" class="edge">
<title>Node1&#45;&gt;Node17</title>
<g id="a_edge16_Node000001_Node000017"><a xlink:title=" ">
<path fill="none" stroke="#63b8ff" d="M2205.61,-76.58C2326.52,-70.49 2573.6,-55.9 2781.5,-30 2784.19,-29.66 2786.93,-29.3 2789.69,-28.92"/>
<polygon fill="#63b8ff" stroke="#63b8ff" points="2205.17,-73.1 2195.36,-77.09 2205.52,-80.09 2205.17,-73.1"/>
</a>
</g>
</g>
<!-- Node18 -->
<g id="Node000018" class="node">
<title>Node18</title>
<g id="a_Node000018"><a xlink:href="../../dd/d84/shortcuts__dialog_8cpp.html" target="_top" xlink:title=" ">
<polygon fill="white" stroke="#666666" points="3094,-30 2953,-30 2953,0 3094,0 3094,-30"/>
<text text-anchor="start" x="2961" y="-18" font-family="Helvetica,sans-Serif" font-size="10.00">src/app/seamly2d/dialogs</text>
<text text-anchor="middle" x="3023.5" y="-7" font-family="Helvetica,sans-Serif" font-size="10.00">/shortcuts_dialog.cpp</text>
</a>
</g>
</g>
<!-- Node1&#45;&gt;Node18 -->
<g id="edge17_Node000001_Node000018" class="edge">
<title>Node1&#45;&gt;Node18</title>
<g id="a_edge17_Node000001_Node000018"><a xlink:title=" ">
<path fill="none" stroke="#63b8ff" d="M2205.64,-78.27C2348.87,-74.29 2673.42,-62.25 2944.5,-30 2947.27,-29.67 2950.08,-29.31 2952.92,-28.92"/>
<polygon fill="#63b8ff" stroke="#63b8ff" points="2205.13,-74.78 2195.23,-78.55 2205.32,-81.78 2205.13,-74.78"/>
</a>
</g>
</g>
<!-- Node19 -->
<g id="Node000019" class="node">
<title>Node19</title>
<g id="a_Node000019"><a xlink:href="../../d2/df4/show__info__dialog_8cpp.html" target="_top" xlink:title=" ">
<polygon fill="white" stroke="#666666" points="3253,-30 3112,-30 3112,0 3253,0 3253,-30"/>
<text text-anchor="start" x="3120" y="-18" font-family="Helvetica,sans-Serif" font-size="10.00">src/app/seamly2d/dialogs</text>
<text text-anchor="middle" x="3182.5" y="-7" font-family="Helvetica,sans-Serif" font-size="10.00">/show_info_dialog.cpp</text>
</a>
</g>
</g>
<!-- Node1&#45;&gt;Node19 -->
<g id="edge18_Node000001_Node000019" class="edge">
<title>Node1&#45;&gt;Node19</title>
<g id="a_edge18_Node000001_Node000019"><a xlink:title=" ">
<path fill="none" stroke="#63b8ff" d="M2205.5,-79.32C2368.34,-77.13 2769.8,-68 3103.5,-30 3106.27,-29.68 3109.09,-29.33 3111.93,-28.95"/>
<polygon fill="#63b8ff" stroke="#63b8ff" points="2205.08,-75.82 2195.12,-79.45 2205.17,-82.82 2205.08,-75.82"/>
</a>
</g>
</g>
<!-- Node20 -->
<g id="Node000020" class="node">
<title>Node20</title>
<g id="a_Node000020"><a xlink:href="../../dc/d14/app_2seamly2d_2main_8cpp.html" target="_top" xlink:title=" ">
<polygon fill="white" stroke="#666666" points="3422,-24.5 3271,-24.5 3271,-5.5 3422,-5.5 3422,-24.5"/>
<text text-anchor="middle" x="3346.5" y="-12.5" font-family="Helvetica,sans-Serif" font-size="10.00">src/app/seamly2d/main.cpp</text>
</a>
</g>
</g>
<!-- Node1&#45;&gt;Node20 -->
<g id="edge19_Node000001_Node000020" class="edge">
<title>Node1&#45;&gt;Node20</title>
<g id="a_edge19_Node000001_Node000020"><a xlink:title=" ">
<path fill="none" stroke="#63b8ff" d="M2205.35,-79.82C2386.17,-78.71 2865.34,-71.72 3262.5,-30 3275.15,-28.67 3288.77,-26.66 3301.3,-24.56"/>
<polygon fill="#63b8ff" stroke="#63b8ff" points="2205.14,-76.32 2195.16,-79.88 2205.18,-83.32 2205.14,-76.32"/>
</a>
</g>
</g>
<!-- Node21 -->
<g id="Node000021" class="node">
<title>Node21</title>
<g id="a_Node000021"><a xlink:href="../../d8/dd9/mainwindow_8cpp.html" target="_top" xlink:title=" ">
<polygon fill="white" stroke="#666666" points="3628.5,-24.5 3440.5,-24.5 3440.5,-5.5 3628.5,-5.5 3628.5,-24.5"/>
<text text-anchor="middle" x="3534.5" y="-12.5" font-family="Helvetica,sans-Serif" font-size="10.00">src/app/seamly2d/mainwindow.cpp</text>
</a>
</g>
</g>
<!-- Node1&#45;&gt;Node21 -->
<g id="edge20_Node000001_Node000021" class="edge">
<title>Node1&#45;&gt;Node21</title>
<g id="a_edge20_Node000001_Node000021"><a xlink:title=" ">
<path fill="none" stroke="#63b8ff" d="M2205.24,-79.66C2403.75,-78.19 2965.95,-70.5 3431.5,-30 3447.05,-28.65 3463.85,-26.61 3479.28,-24.51"/>
<polygon fill="#63b8ff" stroke="#63b8ff" points="2205.19,-76.16 2195.21,-79.73 2205.24,-83.16 2205.19,-76.16"/>
</a>
</g>
</g>
<!-- Node22 -->
<g id="Node000022" class="node">
<title>Node22</title>
<g id="a_Node000022"><a xlink:href="../../d8/de8/mainwindowsnogui_8cpp.html" target="_top" xlink:title=" ">
<polygon fill="white" stroke="#666666" points="3868,-24.5 3647,-24.5 3647,-5.5 3868,-5.5 3868,-24.5"/>
<text text-anchor="middle" x="3757.5" y="-12.5" font-family="Helvetica,sans-Serif" font-size="10.00">src/app/seamly2d/mainwindowsnogui.cpp</text>
</a>
</g>
</g>
<!-- Node1&#45;&gt;Node22 -->
<g id="edge21_Node000001_Node000022" class="edge">
<title>Node1&#45;&gt;Node22</title>
<g id="a_edge21_Node000001_Node000022"><a xlink:title=" ">
<path fill="none" stroke="#63b8ff" d="M2205.17,-79.72C2423.85,-78.41 3088.27,-71.08 3637.5,-30 3655.59,-28.65 3675.16,-26.61 3693.14,-24.51"/>
<polygon fill="#63b8ff" stroke="#63b8ff" points="2205.07,-76.22 2195.09,-79.77 2205.11,-83.22 2205.07,-76.22"/>
</a>
</g>
</g>
<!-- Node23 -->
<g id="Node000023" class="node">
<title>Node23</title>
<g id="a_Node000023"><a xlink:href="../../d3/d49/vpattern_8cpp.html" target="_top" xlink:title=" ">
<polygon fill="white" stroke="#666666" points="4011,-30 3886,-30 3886,0 4011,0 4011,-30"/>
<text text-anchor="start" x="3894" y="-18" font-family="Helvetica,sans-Serif" font-size="10.00">src/app/seamly2d/xml</text>
<text text-anchor="middle" x="3948.5" y="-7" font-family="Helvetica,sans-Serif" font-size="10.00">/vpattern.cpp</text>
</a>
</g>
</g>
<!-- Node1&#45;&gt;Node23 -->
<g id="edge22_Node000001_Node000023" class="edge">
<title>Node1&#45;&gt;Node23</title>
<g id="a_edge22_Node000001_Node000023"><a xlink:title=" ">
<path fill="none" stroke="#63b8ff" d="M2205.58,-79.52C2494.51,-77.38 3545.96,-67.17 3877.5,-30 3880.25,-29.69 3883.05,-29.33 3885.87,-28.94"/>
<polygon fill="#63b8ff" stroke="#63b8ff" points="2205.2,-76.02 2195.23,-79.59 2205.25,-83.02 2205.2,-76.02"/>
</a>
</g>
</g>
</g>
</svg>
