<?xml version="1.0" encoding="UTF-8" standalone="no"?>
<!DOCTYPE svg PUBLIC "-//W3C//DTD SVG 1.1//EN"
 "http://www.w3.org/Graphics/SVG/1.1/DTD/svg11.dtd">
<!-- Generated by graphviz version 2.43.0 (0)
 -->
<!-- Title: src/app/seamly2d/core/vapplication.h Pages: 1 -->
<svg width="4020pt" height="106pt"
 viewBox="0.00 0.00 4019.50 106.00" xmlns="http://www.w3.org/2000/svg" xmlns:xlink="http://www.w3.org/1999/xlink">
<g id="graph0" class="graph" transform="scale(1 1) rotate(0) translate(4 102)">
<title>src/app/seamly2d/core/vapplication.h</title>
<polygon fill="white" stroke="transparent" points="-4,4 -4,-102 4015.5,-102 4015.5,4 -4,4"/>
<!-- Node1 -->
<g id="node1" class="node">
<title>Node1</title>
<g id="a_node1"><a xlink:title=" ">
<polygon fill="#bfbfbf" stroke="black" points="1969,-67.5 1969,-97.5 2096,-97.5 2096,-67.5 1969,-67.5"/>
<text text-anchor="start" x="1977" y="-85.5" font-family="Helvetica,sans-Serif" font-size="10.00">src/app/seamly2d/core</text>
<text text-anchor="middle" x="2032.5" y="-74.5" font-family="Helvetica,sans-Serif" font-size="10.00">/vapplication.h</text>
</a>
</g>
</g>
<!-- Node2 -->
<g id="node2" class="node">
<title>Node2</title>
<g id="a_node2"><a xlink:href="../../d3/dd8/vapplication_8cpp.html" target="_top" xlink:title=" ">
<polygon fill="white" stroke="black" points="0,-0.5 0,-30.5 127,-30.5 127,-0.5 0,-0.5"/>
<text text-anchor="start" x="8" y="-18.5" font-family="Helvetica,sans-Serif" font-size="10.00">src/app/seamly2d/core</text>
<text text-anchor="middle" x="63.5" y="-7.5" font-family="Helvetica,sans-Serif" font-size="10.00">/vapplication.cpp</text>
</a>
</g>
</g>
<!-- Node1&#45;&gt;Node2 -->
<g id="edge1" class="edge">
<title>Node1&#45;&gt;Node2</title>
<path fill="none" stroke="midnightblue" d="M1958.67,-81.21C1654.71,-79.74 499.1,-71.54 136.5,-31 133.42,-30.66 130.27,-30.25 127.1,-29.79"/>
<polygon fill="midnightblue" stroke="midnightblue" points="1958.68,-84.71 1968.69,-81.25 1958.71,-77.71 1958.68,-84.71"/>
</g>
<!-- Node3 -->
<g id="node3" class="node">
<title>Node3</title>
<g id="a_node3"><a xlink:href="../../dd/db4/abstractlayout__dialog_8cpp.html" target="_top" xlink:title=" ">
<polygon fill="white" stroke="black" points="145.5,-0.5 145.5,-30.5 291.5,-30.5 291.5,-0.5 145.5,-0.5"/>
<text text-anchor="start" x="153.5" y="-18.5" font-family="Helvetica,sans-Serif" font-size="10.00">src/app/seamly2d/dialogs</text>
<text text-anchor="middle" x="218.5" y="-7.5" font-family="Helvetica,sans-Serif" font-size="10.00">/abstractlayout_dialog.cpp</text>
</a>
</g>
</g>
<!-- Node1&#45;&gt;Node3 -->
<g id="edge2" class="edge">
<title>Node1&#45;&gt;Node3</title>
<path fill="none" stroke="midnightblue" d="M1958.55,-80.78C1671.33,-77.77 629.54,-64.71 300.5,-31 297.62,-30.71 294.7,-30.37 291.74,-30"/>
<polygon fill="midnightblue" stroke="midnightblue" points="1958.81,-84.28 1968.85,-80.89 1958.88,-77.28 1958.81,-84.28"/>
</g>
<!-- Node4 -->
<g id="node4" class="node">
<title>Node4</title>
<g id="a_node4"><a xlink:href="../../d7/dfa/calculator__dialog_8cpp.html" target="_top" xlink:title=" ">
<polygon fill="white" stroke="black" points="310,-0.5 310,-30.5 451,-30.5 451,-0.5 310,-0.5"/>
<text text-anchor="start" x="318" y="-18.5" font-family="Helvetica,sans-Serif" font-size="10.00">src/app/seamly2d/dialogs</text>
<text text-anchor="middle" x="380.5" y="-7.5" font-family="Helvetica,sans-Serif" font-size="10.00">/calculator_dialog.cpp</text>
</a>
</g>
</g>
<!-- Node1&#45;&gt;Node4 -->
<g id="edge3" class="edge">
<title>Node1&#45;&gt;Node4</title>
<path fill="none" stroke="midnightblue" d="M1958.65,-80.59C1688.69,-77.06 755.72,-62.76 459.5,-31 456.73,-30.7 453.91,-30.36 451.06,-29.99"/>
<polygon fill="midnightblue" stroke="midnightblue" points="1958.69,-84.1 1968.73,-80.73 1958.78,-77.1 1958.69,-84.1"/>
</g>
<!-- Node5 -->
<g id="node5" class="node">
<title>Node5</title>
<g id="a_node5"><a xlink:href="../../d2/d2d/preferencesconfigurationpage_8cpp.html" target="_top" xlink:title=" ">
<polygon fill="white" stroke="black" points="469,-0.5 469,-30.5 716,-30.5 716,-0.5 469,-0.5"/>
<text text-anchor="start" x="477" y="-18.5" font-family="Helvetica,sans-Serif" font-size="10.00">src/app/seamly2d/dialogs</text>
<text text-anchor="middle" x="592.5" y="-7.5" font-family="Helvetica,sans-Serif" font-size="10.00">/configpages/preferencesconfigurationpage.cpp</text>
</a>
</g>
</g>
<!-- Node1&#45;&gt;Node5 -->
<g id="edge4" class="edge">
<title>Node1&#45;&gt;Node5</title>
<path fill="none" stroke="midnightblue" d="M1958.72,-80.48C1759.43,-77.33 1193.68,-65.78 724.5,-31 721.74,-30.8 718.95,-30.58 716.14,-30.35"/>
<polygon fill="midnightblue" stroke="midnightblue" points="1958.73,-83.98 1968.78,-80.64 1958.83,-76.98 1958.73,-83.98"/>
</g>
<!-- Node6 -->
<g id="node6" class="node">
<title>Node6</title>
<g id="a_node6"><a xlink:href="../../dc/d20/preferencespathpage_8cpp.html" target="_top" xlink:title=" ">
<polygon fill="white" stroke="black" points="734,-0.5 734,-30.5 939,-30.5 939,-0.5 734,-0.5"/>
<text text-anchor="start" x="742" y="-18.5" font-family="Helvetica,sans-Serif" font-size="10.00">src/app/seamly2d/dialogs</text>
<text text-anchor="middle" x="836.5" y="-7.5" font-family="Helvetica,sans-Serif" font-size="10.00">/configpages/preferencespathpage.cpp</text>
</a>
</g>
</g>
<!-- Node1&#45;&gt;Node6 -->
<g id="edge5" class="edge">
<title>Node1&#45;&gt;Node6</title>
<path fill="none" stroke="midnightblue" d="M1958.62,-80.18C1783.01,-76.6 1326.89,-64.55 947.5,-31 944.79,-30.76 942.04,-30.5 939.27,-30.23"/>
<polygon fill="midnightblue" stroke="midnightblue" points="1958.71,-83.69 1968.78,-80.39 1958.85,-76.69 1958.71,-83.69"/>
</g>
<!-- Node7 -->
<g id="node7" class="node">
<title>Node7</title>
<g id="a_node7"><a xlink:href="../../dd/dc2/decimalchart__dialog_8cpp.html" target="_top" xlink:title=" ">
<polygon fill="white" stroke="black" points="957,-0.5 957,-30.5 1098,-30.5 1098,-0.5 957,-0.5"/>
<text text-anchor="start" x="965" y="-18.5" font-family="Helvetica,sans-Serif" font-size="10.00">src/app/seamly2d/dialogs</text>
<text text-anchor="middle" x="1027.5" y="-7.5" font-family="Helvetica,sans-Serif" font-size="10.00">/decimalchart_dialog.cpp</text>
</a>
</g>
</g>
<!-- Node1&#45;&gt;Node7 -->
<g id="edge6" class="edge">
<title>Node1&#45;&gt;Node7</title>
<path fill="none" stroke="midnightblue" d="M1958.89,-80.6C1801.9,-77.98 1422.83,-68.04 1107.5,-31 1104.42,-30.64 1101.27,-30.23 1098.1,-29.79"/>
<polygon fill="midnightblue" stroke="midnightblue" points="1958.85,-84.1 1968.9,-80.76 1958.96,-77.1 1958.85,-84.1"/>
</g>
<!-- Node8 -->
<g id="node8" class="node">
<title>Node8</title>
<g id="a_node8"><a xlink:href="../../dc/d63/preferencespatternpage_8cpp.html" target="_top" xlink:title=" ">
<polygon fill="white" stroke="black" points="1116.5,-0.5 1116.5,-30.5 1334.5,-30.5 1334.5,-0.5 1116.5,-0.5"/>
<text text-anchor="start" x="1124.5" y="-18.5" font-family="Helvetica,sans-Serif" font-size="10.00">src/app/seamly2d/dialogs</text>
<text text-anchor="middle" x="1225.5" y="-7.5" font-family="Helvetica,sans-Serif" font-size="10.00">/configpages/preferencespatternpage.cpp</text>
</a>
</g>
</g>
<!-- Node1&#45;&gt;Node8 -->
<g id="edge7" class="edge">
<title>Node1&#45;&gt;Node8</title>
<path fill="none" stroke="midnightblue" d="M1958.45,-77.27C1832.14,-69.78 1567,-52.91 1343.5,-31 1340.62,-30.72 1337.71,-30.42 1334.77,-30.12"/>
<polygon fill="midnightblue" stroke="midnightblue" points="1958.58,-80.78 1968.77,-77.88 1958.99,-73.79 1958.58,-80.78"/>
</g>
<!-- Node9 -->
<g id="node9" class="node">
<title>Node9</title>
<g id="a_node9"><a xlink:href="../../dd/d64/dialogaboutapp_8cpp.html" target="_top" xlink:title=" ">
<polygon fill="white" stroke="black" points="1353,-0.5 1353,-30.5 1494,-30.5 1494,-0.5 1353,-0.5"/>
<text text-anchor="start" x="1361" y="-18.5" font-family="Helvetica,sans-Serif" font-size="10.00">src/app/seamly2d/dialogs</text>
<text text-anchor="middle" x="1423.5" y="-7.5" font-family="Helvetica,sans-Serif" font-size="10.00">/dialogaboutapp.cpp</text>
</a>
</g>
</g>
<!-- Node1&#45;&gt;Node9 -->
<g id="edge8" class="edge">
<title>Node1&#45;&gt;Node9</title>
<path fill="none" stroke="midnightblue" d="M1958.54,-76.41C1856.06,-68.92 1665.19,-53.33 1503.5,-31 1500.42,-30.58 1497.29,-30.12 1494.12,-29.63"/>
<polygon fill="midnightblue" stroke="midnightblue" points="1958.56,-79.92 1968.78,-77.16 1959.06,-72.94 1958.56,-79.92"/>
</g>
<!-- Node10 -->
<g id="node10" class="node">
<title>Node10</title>
<g id="a_node10"><a xlink:href="../../d2/d00/vtooloptionspropertybrowser_8cpp.html" target="_top" xlink:title=" ">
<polygon fill="white" stroke="black" points="1512.5,-0.5 1512.5,-30.5 1692.5,-30.5 1692.5,-0.5 1512.5,-0.5"/>
<text text-anchor="start" x="1520.5" y="-18.5" font-family="Helvetica,sans-Serif" font-size="10.00">src/app/seamly2d/core</text>
<text text-anchor="middle" x="1602.5" y="-7.5" font-family="Helvetica,sans-Serif" font-size="10.00">/vtooloptionspropertybrowser.cpp</text>
</a>
</g>
</g>
<!-- Node1&#45;&gt;Node10 -->
<g id="edge9" class="edge">
<title>Node1&#45;&gt;Node10</title>
<path fill="none" stroke="midnightblue" d="M1958.46,-70.31C1884.75,-59.17 1771.52,-42.05 1692.63,-30.12"/>
<polygon fill="midnightblue" stroke="midnightblue" points="1958.18,-73.8 1968.59,-71.84 1959.22,-66.88 1958.18,-73.8"/>
</g>
<!-- Node11 -->
<g id="node11" class="node">
<title>Node11</title>
<g id="a_node11"><a xlink:href="../../d6/d89/dialoglayoutprogress_8cpp.html" target="_top" xlink:title=" ">
<polygon fill="white" stroke="black" points="1711,-0.5 1711,-30.5 1854,-30.5 1854,-0.5 1711,-0.5"/>
<text text-anchor="start" x="1719" y="-18.5" font-family="Helvetica,sans-Serif" font-size="10.00">src/app/seamly2d/dialogs</text>
<text text-anchor="middle" x="1782.5" y="-7.5" font-family="Helvetica,sans-Serif" font-size="10.00">/dialoglayoutprogress.cpp</text>
</a>
</g>
</g>
<!-- Node1&#45;&gt;Node11 -->
<g id="edge10" class="edge">
<title>Node1&#45;&gt;Node11</title>
<path fill="none" stroke="midnightblue" d="M1968.72,-64.92C1927.92,-54.31 1875.57,-40.7 1836.77,-30.61"/>
<polygon fill="midnightblue" stroke="midnightblue" points="1968,-68.35 1978.56,-67.48 1969.76,-61.57 1968,-68.35"/>
</g>
<!-- Node12 -->
<g id="node12" class="node">
<title>Node12</title>
<g id="a_node12"><a xlink:href="../../d5/d18/dialogpatternproperties_8cpp.html" target="_top" xlink:title=" ">
<polygon fill="white" stroke="black" points="1872,-0.5 1872,-30.5 2027,-30.5 2027,-0.5 1872,-0.5"/>
<text text-anchor="start" x="1880" y="-18.5" font-family="Helvetica,sans-Serif" font-size="10.00">src/app/seamly2d/dialogs</text>
<text text-anchor="middle" x="1949.5" y="-7.5" font-family="Helvetica,sans-Serif" font-size="10.00">/dialogpatternproperties.cpp</text>
</a>
</g>
</g>
<!-- Node1&#45;&gt;Node12 -->
<g id="edge11" class="edge">
<title>Node1&#45;&gt;Node12</title>
<path fill="none" stroke="midnightblue" d="M2006.54,-61.17C1993.85,-51.23 1978.89,-39.51 1967.47,-30.58"/>
<polygon fill="midnightblue" stroke="midnightblue" points="2004.46,-63.99 2014.49,-67.4 2008.78,-58.47 2004.46,-63.99"/>
</g>
<!-- Node13 -->
<g id="node13" class="node">
<title>Node13</title>
<g id="a_node13"><a xlink:href="../../d5/dc5/dialogpreferences_8cpp.html" target="_top" xlink:title=" ">
<polygon fill="white" stroke="black" points="2045,-0.5 2045,-30.5 2186,-30.5 2186,-0.5 2045,-0.5"/>
<text text-anchor="start" x="2053" y="-18.5" font-family="Helvetica,sans-Serif" font-size="10.00">src/app/seamly2d/dialogs</text>
<text text-anchor="middle" x="2115.5" y="-7.5" font-family="Helvetica,sans-Serif" font-size="10.00">/dialogpreferences.cpp</text>
</a>
</g>
</g>
<!-- Node1&#45;&gt;Node13 -->
<g id="edge12" class="edge">
<title>Node1&#45;&gt;Node13</title>
<path fill="none" stroke="midnightblue" d="M2058.46,-61.17C2071.15,-51.23 2086.11,-39.51 2097.53,-30.58"/>
<polygon fill="midnightblue" stroke="midnightblue" points="2056.22,-58.47 2050.51,-67.4 2060.54,-63.99 2056.22,-58.47"/>
</g>
<!-- Node14 -->
<g id="node14" class="node">
<title>Node14</title>
<g id="a_node14"><a xlink:href="../../d9/d70/preferencesgraphicsviewpage_8cpp.html" target="_top" xlink:title=" ">
<polygon fill="white" stroke="black" points="2204.5,-0.5 2204.5,-30.5 2452.5,-30.5 2452.5,-0.5 2204.5,-0.5"/>
<text text-anchor="start" x="2212.5" y="-18.5" font-family="Helvetica,sans-Serif" font-size="10.00">src/app/seamly2d/dialogs</text>
<text text-anchor="middle" x="2328.5" y="-7.5" font-family="Helvetica,sans-Serif" font-size="10.00">/configpages/preferencesgraphicsviewpage.cpp</text>
</a>
</g>
</g>
<!-- Node1&#45;&gt;Node14 -->
<g id="edge13" class="edge">
<title>Node1&#45;&gt;Node14</title>
<path fill="none" stroke="midnightblue" d="M2106.2,-65.32C2154.85,-54.63 2217.96,-40.77 2264.5,-30.55"/>
<polygon fill="midnightblue" stroke="midnightblue" points="2105.38,-61.91 2096.36,-67.48 2106.88,-68.75 2105.38,-61.91"/>
</g>
<!-- Node15 -->
<g id="node15" class="node">
<title>Node15</title>
<g id="a_node15"><a xlink:href="../../dd/d54/export__layout__dialog_8cpp.html" target="_top" xlink:title=" ">
<polygon fill="white" stroke="black" points="2471,-0.5 2471,-30.5 2614,-30.5 2614,-0.5 2471,-0.5"/>
<text text-anchor="start" x="2479" y="-18.5" font-family="Helvetica,sans-Serif" font-size="10.00">src/app/seamly2d/dialogs</text>
<text text-anchor="middle" x="2542.5" y="-7.5" font-family="Helvetica,sans-Serif" font-size="10.00">/export_layout_dialog.cpp</text>
</a>
</g>
</g>
<!-- Node1&#45;&gt;Node15 -->
<g id="edge14" class="edge">
<title>Node1&#45;&gt;Node15</title>
<path fill="none" stroke="midnightblue" d="M2106.4,-74.16C2192.03,-65.34 2337.29,-49.41 2461.5,-31 2464.61,-30.54 2467.78,-30.05 2470.98,-29.54"/>
<polygon fill="midnightblue" stroke="midnightblue" points="2105.85,-70.7 2096.26,-75.2 2106.56,-77.66 2105.85,-70.7"/>
</g>
<!-- Node16 -->
<g id="node16" class="node">
<title>Node16</title>
<g id="a_node16"><a xlink:href="../../db/d5c/groups__widget_8cpp.html" target="_top" xlink:title=" ">
<polygon fill="white" stroke="black" points="2632,-0.5 2632,-30.5 2773,-30.5 2773,-0.5 2632,-0.5"/>
<text text-anchor="start" x="2640" y="-18.5" font-family="Helvetica,sans-Serif" font-size="10.00">src/app/seamly2d/dialogs</text>
<text text-anchor="middle" x="2702.5" y="-7.5" font-family="Helvetica,sans-Serif" font-size="10.00">/groups_widget.cpp</text>
</a>
</g>
</g>
<!-- Node1&#45;&gt;Node16 -->
<g id="edge15" class="edge">
<title>Node1&#45;&gt;Node16</title>
<path fill="none" stroke="midnightblue" d="M2106.31,-77.48C2218.41,-70.86 2438.17,-55.87 2623.5,-31 2626.26,-30.63 2629.08,-30.23 2631.92,-29.8"/>
<polygon fill="midnightblue" stroke="midnightblue" points="2105.91,-74 2096.13,-78.08 2106.31,-80.99 2105.91,-74"/>
</g>
<!-- Node17 -->
<g id="node17" class="node">
<title>Node17</title>
<g id="a_node17"><a xlink:href="../../d0/dfa/layoutsettings__dialog_8cpp.html" target="_top" xlink:title=" ">
<polygon fill="white" stroke="black" points="2791,-0.5 2791,-30.5 2936,-30.5 2936,-0.5 2791,-0.5"/>
<text text-anchor="start" x="2799" y="-18.5" font-family="Helvetica,sans-Serif" font-size="10.00">src/app/seamly2d/dialogs</text>
<text text-anchor="middle" x="2863.5" y="-7.5" font-family="Helvetica,sans-Serif" font-size="10.00">/layoutsettings_dialog.cpp</text>
</a>
</g>
</g>
<!-- Node1&#45;&gt;Node17 -->
<g id="edge16" class="edge">
<title>Node1&#45;&gt;Node17</title>
<path fill="none" stroke="midnightblue" d="M2106.65,-79.21C2241.56,-74.44 2536.01,-61.27 2782.5,-31 2785.19,-30.67 2787.93,-30.31 2790.7,-29.92"/>
<polygon fill="midnightblue" stroke="midnightblue" points="2106.31,-75.72 2096.43,-79.56 2106.55,-82.71 2106.31,-75.72"/>
</g>
<!-- Node18 -->
<g id="node18" class="node">
<title>Node18</title>
<g id="a_node18"><a xlink:href="../../dd/d84/shortcuts__dialog_8cpp.html" target="_top" xlink:title=" ">
<polygon fill="white" stroke="black" points="2954,-0.5 2954,-30.5 3095,-30.5 3095,-0.5 2954,-0.5"/>
<text text-anchor="start" x="2962" y="-18.5" font-family="Helvetica,sans-Serif" font-size="10.00">src/app/seamly2d/dialogs</text>
<text text-anchor="middle" x="3024.5" y="-7.5" font-family="Helvetica,sans-Serif" font-size="10.00">/shortcuts_dialog.cpp</text>
</a>
</g>
</g>
<!-- Node1&#45;&gt;Node18 -->
<g id="edge17" class="edge">
<title>Node1&#45;&gt;Node18</title>
<path fill="none" stroke="midnightblue" d="M2106.5,-80.57C2262.26,-77.92 2635.19,-67.91 2945.5,-31 2948.27,-30.67 2951.09,-30.3 2953.93,-29.91"/>
<polygon fill="midnightblue" stroke="midnightblue" points="2106.05,-77.08 2096.11,-80.74 2106.16,-84.08 2106.05,-77.08"/>
</g>
<!-- Node19 -->
<g id="node19" class="node">
<title>Node19</title>
<g id="a_node19"><a xlink:href="../../d2/df4/show__info__dialog_8cpp.html" target="_top" xlink:title=" ">
<polygon fill="white" stroke="black" points="3113,-0.5 3113,-30.5 3254,-30.5 3254,-0.5 3113,-0.5"/>
<text text-anchor="start" x="3121" y="-18.5" font-family="Helvetica,sans-Serif" font-size="10.00">src/app/seamly2d/dialogs</text>
<text text-anchor="middle" x="3183.5" y="-7.5" font-family="Helvetica,sans-Serif" font-size="10.00">/show_info_dialog.cpp</text>
</a>
</g>
</g>
<!-- Node1&#45;&gt;Node19 -->
<g id="edge18" class="edge">
<title>Node1&#45;&gt;Node19</title>
<path fill="none" stroke="midnightblue" d="M2106.26,-81.43C2280.51,-80.53 2731.09,-73.87 3104.5,-31 3107.27,-30.68 3110.09,-30.33 3112.94,-29.94"/>
<polygon fill="midnightblue" stroke="midnightblue" points="2106.16,-77.93 2096.17,-81.48 2106.19,-84.93 2106.16,-77.93"/>
</g>
<!-- Node20 -->
<g id="node20" class="node">
<title>Node20</title>
<g id="a_node20"><a xlink:href="../../dc/d14/app_2seamly2d_2main_8cpp.html" target="_top" xlink:title=" ">
<polygon fill="white" stroke="black" points="3272,-6 3272,-25 3423,-25 3423,-6 3272,-6"/>
<text text-anchor="middle" x="3347.5" y="-13" font-family="Helvetica,sans-Serif" font-size="10.00">src/app/seamly2d/main.cpp</text>
</a>
</g>
</g>
<!-- Node1&#45;&gt;Node20 -->
<g id="edge19" class="edge">
<title>Node1&#45;&gt;Node20</title>
<path fill="none" stroke="midnightblue" d="M2106.37,-81.81C2297.98,-81.88 2826.48,-77.48 3263.5,-31 3276.89,-29.58 3291.38,-27.33 3304.49,-25.03"/>
<polygon fill="midnightblue" stroke="midnightblue" points="2106.14,-78.31 2096.14,-81.8 2106.13,-85.31 2106.14,-78.31"/>
</g>
<!-- Node21 -->
<g id="node21" class="node">
<title>Node21</title>
<g id="a_node21"><a xlink:href="../../d8/de8/mainwindowsnogui_8cpp.html" target="_top" xlink:title=" ">
<polygon fill="white" stroke="black" points="3441,-6 3441,-25 3662,-25 3662,-6 3441,-6"/>
<text text-anchor="middle" x="3551.5" y="-13" font-family="Helvetica,sans-Serif" font-size="10.00">src/app/seamly2d/mainwindowsnogui.cpp</text>
</a>
</g>
</g>
<!-- Node1&#45;&gt;Node21 -->
<g id="edge20" class="edge">
<title>Node1&#45;&gt;Node21</title>
<path fill="none" stroke="midnightblue" d="M2106.32,-81.05C2314.91,-79.3 2926.42,-70.89 3432.5,-31 3451.17,-29.53 3471.42,-27.3 3489.84,-25.03"/>
<polygon fill="midnightblue" stroke="midnightblue" points="2106.07,-77.55 2096.1,-81.13 2106.13,-84.55 2106.07,-77.55"/>
</g>
<!-- Node22 -->
<g id="node22" class="node">
<title>Node22</title>
<g id="a_node22"><a xlink:href="../../d3/d49/vpattern_8cpp.html" target="_top" xlink:title=" ">
<polygon fill="white" stroke="black" points="3680,-0.5 3680,-30.5 3805,-30.5 3805,-0.5 3680,-0.5"/>
<text text-anchor="start" x="3688" y="-18.5" font-family="Helvetica,sans-Serif" font-size="10.00">src/app/seamly2d/xml</text>
<text text-anchor="middle" x="3742.5" y="-7.5" font-family="Helvetica,sans-Serif" font-size="10.00">/vpattern.cpp</text>
</a>
</g>
</g>
<!-- Node1&#45;&gt;Node22 -->
<g id="edge21" class="edge">
<title>Node1&#45;&gt;Node22</title>
<path fill="none" stroke="midnightblue" d="M2106.63,-80.9C2384.22,-78.38 3362.14,-67.09 3671.5,-31 3674.25,-30.68 3677.05,-30.31 3679.87,-29.89"/>
<polygon fill="midnightblue" stroke="midnightblue" points="2106.24,-77.4 2096.27,-80.99 2106.3,-84.4 2106.24,-77.4"/>
</g>
<!-- Node23 -->
<g id="node23" class="node">
<title>Node23</title>
<g id="a_node23"><a xlink:href="../../d8/dd9/mainwindow_8cpp.html" target="_top" xlink:title=" ">
<polygon fill="white" stroke="black" points="3823.5,-6 3823.5,-25 4011.5,-25 4011.5,-6 3823.5,-6"/>
<text text-anchor="middle" x="3917.5" y="-13" font-family="Helvetica,sans-Serif" font-size="10.00">src/app/seamly2d/mainwindow.cpp</text>
</a>
</g>
</g>
<!-- Node1&#45;&gt;Node23 -->
<g id="edge22" class="edge">
<title>Node1&#45;&gt;Node23</title>
<path fill="none" stroke="midnightblue" d="M2106.14,-80.51C2398.06,-76.42 3474.47,-59.66 3814.5,-31 3831.05,-29.6 3849.01,-27.34 3865.23,-25.01"/>
<polygon fill="midnightblue" stroke="midnightblue" points="2106.04,-77.01 2096.09,-80.65 2106.14,-84.01 2106.04,-77.01"/>
</g>
</g>
</svg>
