<?xml version="1.0" encoding="UTF-8" standalone="no"?>
<!DOCTYPE svg PUBLIC "-//W3C//DTD SVG 1.1//EN"
 "http://www.w3.org/Graphics/SVG/1.1/DTD/svg11.dtd">
<!-- Generated by graphviz version 2.43.0 (0)
 -->
<!-- Title: src/app/seamly2d/core/vapplication.h Pages: 1 -->
<svg width="4017pt" height="106pt"
 viewBox="0.00 0.00 4017.00 106.00" xmlns="http://www.w3.org/2000/svg" xmlns:xlink="http://www.w3.org/1999/xlink">
<g id="graph0" class="graph" transform="scale(1 1) rotate(0) translate(4 102)">
<title>src/app/seamly2d/core/vapplication.h</title>
<polygon fill="white" stroke="transparent" points="-4,4 -4,-102 4013,-102 4013,4 -4,4"/>
<!-- Node1 -->
<g id="node1" class="node">
<title>Node1</title>
<g id="a_node1"><a xlink:title=" ">
<polygon fill="#bfbfbf" stroke="black" points="2063.5,-67.5 2063.5,-97.5 2190.5,-97.5 2190.5,-67.5 2063.5,-67.5"/>
<text text-anchor="start" x="2071.5" y="-85.5" font-family="Helvetica,sans-Serif" font-size="10.00">src/app/seamly2d/core</text>
<text text-anchor="middle" x="2127" y="-74.5" font-family="Helvetica,sans-Serif" font-size="10.00">/vapplication.h</text>
</a>
</g>
</g>
<!-- Node2 -->
<g id="node2" class="node">
<title>Node2</title>
<g id="a_node2"><a xlink:href="../../dd/db4/abstractlayout__dialog_8cpp.html" target="_top" xlink:title=" ">
<polygon fill="white" stroke="black" points="0,-0.5 0,-30.5 146,-30.5 146,-0.5 0,-0.5"/>
<text text-anchor="start" x="8" y="-18.5" font-family="Helvetica,sans-Serif" font-size="10.00">src/app/seamly2d/dialogs</text>
<text text-anchor="middle" x="73" y="-7.5" font-family="Helvetica,sans-Serif" font-size="10.00">/abstractlayout_dialog.cpp</text>
</a>
</g>
</g>
<!-- Node1&#45;&gt;Node2 -->
<g id="edge1" class="edge">
<title>Node1&#45;&gt;Node2</title>
<path fill="none" stroke="midnightblue" d="M2052.86,-81.08C1740.89,-79.11 533.62,-69.11 155,-31 152.12,-30.71 149.2,-30.38 146.24,-30.01"/>
<polygon fill="midnightblue" stroke="midnightblue" points="2053.11,-84.59 2063.14,-81.15 2053.16,-77.59 2053.11,-84.59"/>
</g>
<!-- Node3 -->
<g id="node3" class="node">
<title>Node3</title>
<g id="a_node3"><a xlink:href="../../d7/dfa/calculator__dialog_8cpp.html" target="_top" xlink:title=" ">
<polygon fill="white" stroke="black" points="164.5,-0.5 164.5,-30.5 305.5,-30.5 305.5,-0.5 164.5,-0.5"/>
<text text-anchor="start" x="172.5" y="-18.5" font-family="Helvetica,sans-Serif" font-size="10.00">src/app/seamly2d/dialogs</text>
<text text-anchor="middle" x="235" y="-7.5" font-family="Helvetica,sans-Serif" font-size="10.00">/calculator_dialog.cpp</text>
</a>
</g>
</g>
<!-- Node1&#45;&gt;Node3 -->
<g id="edge2" class="edge">
<title>Node1&#45;&gt;Node3</title>
<path fill="none" stroke="midnightblue" d="M2053.03,-80.96C1757.35,-78.55 659.66,-67.32 314,-31 311.23,-30.71 308.4,-30.37 305.56,-30.01"/>
<polygon fill="midnightblue" stroke="midnightblue" points="2053.18,-84.46 2063.21,-81.04 2053.24,-77.46 2053.18,-84.46"/>
</g>
<!-- Node4 -->
<g id="node4" class="node">
<title>Node4</title>
<g id="a_node4"><a xlink:href="../../d3/dd8/vapplication_8cpp.html" target="_top" xlink:title=" ">
<polygon fill="white" stroke="black" points="323.5,-0.5 323.5,-30.5 450.5,-30.5 450.5,-0.5 323.5,-0.5"/>
<text text-anchor="start" x="331.5" y="-18.5" font-family="Helvetica,sans-Serif" font-size="10.00">src/app/seamly2d/core</text>
<text text-anchor="middle" x="387" y="-7.5" font-family="Helvetica,sans-Serif" font-size="10.00">/vapplication.cpp</text>
</a>
</g>
</g>
<!-- Node1&#45;&gt;Node4 -->
<g id="edge3" class="edge">
<title>Node1&#45;&gt;Node4</title>
<path fill="none" stroke="midnightblue" d="M2053.41,-80.92C1773.43,-78.46 774.58,-67.29 459,-31 456.21,-30.68 453.37,-30.31 450.51,-29.89"/>
<polygon fill="midnightblue" stroke="midnightblue" points="2053.42,-84.42 2063.45,-81.01 2053.49,-77.42 2053.42,-84.42"/>
</g>
<!-- Node5 -->
<g id="node5" class="node">
<title>Node5</title>
<g id="a_node5"><a xlink:href="../../d2/d2d/preferencesconfigurationpage_8cpp.html" target="_top" xlink:title=" ">
<polygon fill="white" stroke="black" points="468.5,-0.5 468.5,-30.5 715.5,-30.5 715.5,-0.5 468.5,-0.5"/>
<text text-anchor="start" x="476.5" y="-18.5" font-family="Helvetica,sans-Serif" font-size="10.00">src/app/seamly2d/dialogs</text>
<text text-anchor="middle" x="592" y="-7.5" font-family="Helvetica,sans-Serif" font-size="10.00">/configpages/preferencesconfigurationpage.cpp</text>
</a>
</g>
</g>
<!-- Node1&#45;&gt;Node5 -->
<g id="edge4" class="edge">
<title>Node1&#45;&gt;Node5</title>
<path fill="none" stroke="midnightblue" d="M2053.1,-80.73C1844.28,-78.13 1232.05,-67.72 725,-31 721.87,-30.77 718.71,-30.53 715.51,-30.27"/>
<polygon fill="midnightblue" stroke="midnightblue" points="2053.29,-84.23 2063.33,-80.85 2053.37,-77.23 2053.29,-84.23"/>
</g>
<!-- Node6 -->
<g id="node6" class="node">
<title>Node6</title>
<g id="a_node6"><a xlink:href="../../d2/d00/vtooloptionspropertybrowser_8cpp.html" target="_top" xlink:title=" ">
<polygon fill="white" stroke="black" points="734,-0.5 734,-30.5 914,-30.5 914,-0.5 734,-0.5"/>
<text text-anchor="start" x="742" y="-18.5" font-family="Helvetica,sans-Serif" font-size="10.00">src/app/seamly2d/core</text>
<text text-anchor="middle" x="824" y="-7.5" font-family="Helvetica,sans-Serif" font-size="10.00">/vtooloptionspropertybrowser.cpp</text>
</a>
</g>
</g>
<!-- Node1&#45;&gt;Node6 -->
<g id="edge5" class="edge">
<title>Node1&#45;&gt;Node6</title>
<path fill="none" stroke="midnightblue" d="M2053.13,-81.06C1864.48,-79.36 1349.7,-71.09 923,-31 920.06,-30.72 917.07,-30.42 914.06,-30.09"/>
<polygon fill="midnightblue" stroke="midnightblue" points="2053.18,-84.56 2063.21,-81.15 2053.24,-77.56 2053.18,-84.56"/>
</g>
<!-- Node7 -->
<g id="node7" class="node">
<title>Node7</title>
<g id="a_node7"><a xlink:href="../../dc/d20/preferencespathpage_8cpp.html" target="_top" xlink:title=" ">
<polygon fill="white" stroke="black" points="932.5,-0.5 932.5,-30.5 1137.5,-30.5 1137.5,-0.5 932.5,-0.5"/>
<text text-anchor="start" x="940.5" y="-18.5" font-family="Helvetica,sans-Serif" font-size="10.00">src/app/seamly2d/dialogs</text>
<text text-anchor="middle" x="1035" y="-7.5" font-family="Helvetica,sans-Serif" font-size="10.00">/configpages/preferencespathpage.cpp</text>
</a>
</g>
</g>
<!-- Node1&#45;&gt;Node7 -->
<g id="edge6" class="edge">
<title>Node1&#45;&gt;Node7</title>
<path fill="none" stroke="midnightblue" d="M2053.04,-79.67C1889.31,-75.2 1483.99,-61.73 1146,-31 1143.29,-30.75 1140.55,-30.49 1137.78,-30.21"/>
<polygon fill="midnightblue" stroke="midnightblue" points="2053.38,-83.18 2063.47,-79.96 2053.57,-76.19 2053.38,-83.18"/>
</g>
<!-- Node8 -->
<g id="node8" class="node">
<title>Node8</title>
<g id="a_node8"><a xlink:href="../../d9/d70/preferencesgraphicsviewpage_8cpp.html" target="_top" xlink:title=" ">
<polygon fill="white" stroke="black" points="1155,-0.5 1155,-30.5 1403,-30.5 1403,-0.5 1155,-0.5"/>
<text text-anchor="start" x="1163" y="-18.5" font-family="Helvetica,sans-Serif" font-size="10.00">src/app/seamly2d/dialogs</text>
<text text-anchor="middle" x="1279" y="-7.5" font-family="Helvetica,sans-Serif" font-size="10.00">/configpages/preferencesgraphicsviewpage.cpp</text>
</a>
</g>
</g>
<!-- Node1&#45;&gt;Node8 -->
<g id="edge7" class="edge">
<title>Node1&#45;&gt;Node8</title>
<path fill="none" stroke="midnightblue" d="M2053.11,-77.21C1923.28,-69.47 1645.81,-51.99 1412,-31 1409.11,-30.74 1406.18,-30.47 1403.23,-30.19"/>
<polygon fill="midnightblue" stroke="midnightblue" points="2053.14,-80.72 2063.33,-77.82 2053.55,-73.73 2053.14,-80.72"/>
</g>
<!-- Node9 -->
<g id="node9" class="node">
<title>Node9</title>
<g id="a_node9"><a xlink:href="../../dc/d63/preferencespatternpage_8cpp.html" target="_top" xlink:title=" ">
<polygon fill="white" stroke="black" points="1421,-0.5 1421,-30.5 1639,-30.5 1639,-0.5 1421,-0.5"/>
<text text-anchor="start" x="1429" y="-18.5" font-family="Helvetica,sans-Serif" font-size="10.00">src/app/seamly2d/dialogs</text>
<text text-anchor="middle" x="1530" y="-7.5" font-family="Helvetica,sans-Serif" font-size="10.00">/configpages/preferencespatternpage.cpp</text>
</a>
</g>
</g>
<!-- Node1&#45;&gt;Node9 -->
<g id="edge8" class="edge">
<title>Node1&#45;&gt;Node9</title>
<path fill="none" stroke="midnightblue" d="M2053.44,-74.14C1959.38,-64.64 1791.49,-47.38 1648,-31 1645.13,-30.67 1642.22,-30.34 1639.28,-30"/>
<polygon fill="midnightblue" stroke="midnightblue" points="2053.13,-77.63 2063.43,-75.15 2053.83,-70.66 2053.13,-77.63"/>
</g>
<!-- Node10 -->
<g id="node10" class="node">
<title>Node10</title>
<g id="a_node10"><a xlink:href="../../dd/dc2/decimalchart__dialog_8cpp.html" target="_top" xlink:title=" ">
<polygon fill="white" stroke="black" points="1657.5,-0.5 1657.5,-30.5 1798.5,-30.5 1798.5,-0.5 1657.5,-0.5"/>
<text text-anchor="start" x="1665.5" y="-18.5" font-family="Helvetica,sans-Serif" font-size="10.00">src/app/seamly2d/dialogs</text>
<text text-anchor="middle" x="1728" y="-7.5" font-family="Helvetica,sans-Serif" font-size="10.00">/decimalchart_dialog.cpp</text>
</a>
</g>
</g>
<!-- Node1&#45;&gt;Node10 -->
<g id="edge9" class="edge">
<title>Node1&#45;&gt;Node10</title>
<path fill="none" stroke="midnightblue" d="M2053.34,-70.41C1988.43,-60.51 1891.33,-45.39 1807,-31 1804.25,-30.53 1801.45,-30.05 1798.62,-29.55"/>
<polygon fill="midnightblue" stroke="midnightblue" points="2053.06,-73.91 2063.48,-71.95 2054.12,-66.99 2053.06,-73.91"/>
</g>
<!-- Node11 -->
<g id="node11" class="node">
<title>Node11</title>
<g id="a_node11"><a xlink:href="../../dd/d64/dialogaboutapp_8cpp.html" target="_top" xlink:title=" ">
<polygon fill="white" stroke="black" points="1816.5,-0.5 1816.5,-30.5 1957.5,-30.5 1957.5,-0.5 1816.5,-0.5"/>
<text text-anchor="start" x="1824.5" y="-18.5" font-family="Helvetica,sans-Serif" font-size="10.00">src/app/seamly2d/dialogs</text>
<text text-anchor="middle" x="1887" y="-7.5" font-family="Helvetica,sans-Serif" font-size="10.00">/dialogaboutapp.cpp</text>
</a>
</g>
</g>
<!-- Node1&#45;&gt;Node11 -->
<g id="edge10" class="edge">
<title>Node1&#45;&gt;Node11</title>
<path fill="none" stroke="midnightblue" d="M2065.52,-64.85C2026.39,-54.25 1976.27,-40.68 1939.1,-30.61"/>
<polygon fill="midnightblue" stroke="midnightblue" points="2064.65,-68.24 2075.22,-67.48 2066.48,-61.48 2064.65,-68.24"/>
</g>
<!-- Node12 -->
<g id="node12" class="node">
<title>Node12</title>
<g id="a_node12"><a xlink:href="../../d6/d89/dialoglayoutprogress_8cpp.html" target="_top" xlink:title=" ">
<polygon fill="white" stroke="black" points="1975.5,-0.5 1975.5,-30.5 2118.5,-30.5 2118.5,-0.5 1975.5,-0.5"/>
<text text-anchor="start" x="1983.5" y="-18.5" font-family="Helvetica,sans-Serif" font-size="10.00">src/app/seamly2d/dialogs</text>
<text text-anchor="middle" x="2047" y="-7.5" font-family="Helvetica,sans-Serif" font-size="10.00">/dialoglayoutprogress.cpp</text>
</a>
</g>
</g>
<!-- Node1&#45;&gt;Node12 -->
<g id="edge11" class="edge">
<title>Node1&#45;&gt;Node12</title>
<path fill="none" stroke="midnightblue" d="M2101.63,-60.88C2089.47,-51.01 2075.22,-39.43 2064.32,-30.58"/>
<polygon fill="midnightblue" stroke="midnightblue" points="2099.67,-63.81 2109.64,-67.4 2104.09,-58.37 2099.67,-63.81"/>
</g>
<!-- Node13 -->
<g id="node13" class="node">
<title>Node13</title>
<g id="a_node13"><a xlink:href="../../d5/dc5/dialogpreferences_8cpp.html" target="_top" xlink:title=" ">
<polygon fill="white" stroke="black" points="2136.5,-0.5 2136.5,-30.5 2277.5,-30.5 2277.5,-0.5 2136.5,-0.5"/>
<text text-anchor="start" x="2144.5" y="-18.5" font-family="Helvetica,sans-Serif" font-size="10.00">src/app/seamly2d/dialogs</text>
<text text-anchor="middle" x="2207" y="-7.5" font-family="Helvetica,sans-Serif" font-size="10.00">/dialogpreferences.cpp</text>
</a>
</g>
</g>
<!-- Node1&#45;&gt;Node13 -->
<g id="edge12" class="edge">
<title>Node1&#45;&gt;Node13</title>
<path fill="none" stroke="midnightblue" d="M2152.37,-60.88C2164.53,-51.01 2178.78,-39.43 2189.68,-30.58"/>
<polygon fill="midnightblue" stroke="midnightblue" points="2149.91,-58.37 2144.36,-67.4 2154.33,-63.81 2149.91,-58.37"/>
</g>
<!-- Node14 -->
<g id="node14" class="node">
<title>Node14</title>
<g id="a_node14"><a xlink:href="../../d5/d18/dialogpatternproperties_8cpp.html" target="_top" xlink:title=" ">
<polygon fill="white" stroke="black" points="2295.5,-0.5 2295.5,-30.5 2450.5,-30.5 2450.5,-0.5 2295.5,-0.5"/>
<text text-anchor="start" x="2303.5" y="-18.5" font-family="Helvetica,sans-Serif" font-size="10.00">src/app/seamly2d/dialogs</text>
<text text-anchor="middle" x="2373" y="-7.5" font-family="Helvetica,sans-Serif" font-size="10.00">/dialogpatternproperties.cpp</text>
</a>
</g>
</g>
<!-- Node1&#45;&gt;Node14 -->
<g id="edge13" class="edge">
<title>Node1&#45;&gt;Node14</title>
<path fill="none" stroke="midnightblue" d="M2189.76,-64.92C2229.9,-54.31 2281.42,-40.7 2319.6,-30.61"/>
<polygon fill="midnightblue" stroke="midnightblue" points="2188.85,-61.54 2180.08,-67.48 2190.64,-68.31 2188.85,-61.54"/>
</g>
<!-- Node15 -->
<g id="node15" class="node">
<title>Node15</title>
<g id="a_node15"><a xlink:href="../../dd/d54/export__layout__dialog_8cpp.html" target="_top" xlink:title=" ">
<polygon fill="white" stroke="black" points="2468.5,-0.5 2468.5,-30.5 2611.5,-30.5 2611.5,-0.5 2468.5,-0.5"/>
<text text-anchor="start" x="2476.5" y="-18.5" font-family="Helvetica,sans-Serif" font-size="10.00">src/app/seamly2d/dialogs</text>
<text text-anchor="middle" x="2540" y="-7.5" font-family="Helvetica,sans-Serif" font-size="10.00">/export_layout_dialog.cpp</text>
</a>
</g>
</g>
<!-- Node1&#45;&gt;Node15 -->
<g id="edge14" class="edge">
<title>Node1&#45;&gt;Node15</title>
<path fill="none" stroke="midnightblue" d="M2200.73,-70.94C2268.27,-61.12 2370.98,-45.81 2460,-31 2462.78,-30.54 2465.62,-30.06 2468.49,-29.57"/>
<polygon fill="midnightblue" stroke="midnightblue" points="2200.01,-67.51 2190.61,-72.41 2201.01,-74.44 2200.01,-67.51"/>
</g>
<!-- Node16 -->
<g id="node16" class="node">
<title>Node16</title>
<g id="a_node16"><a xlink:href="../../db/d5c/groups__widget_8cpp.html" target="_top" xlink:title=" ">
<polygon fill="white" stroke="black" points="2629.5,-0.5 2629.5,-30.5 2770.5,-30.5 2770.5,-0.5 2629.5,-0.5"/>
<text text-anchor="start" x="2637.5" y="-18.5" font-family="Helvetica,sans-Serif" font-size="10.00">src/app/seamly2d/dialogs</text>
<text text-anchor="middle" x="2700" y="-7.5" font-family="Helvetica,sans-Serif" font-size="10.00">/groups_widget.cpp</text>
</a>
</g>
</g>
<!-- Node1&#45;&gt;Node16 -->
<g id="edge15" class="edge">
<title>Node1&#45;&gt;Node16</title>
<path fill="none" stroke="midnightblue" d="M2200.73,-75.81C2297.47,-67.92 2472.42,-52.2 2621,-31 2623.76,-30.61 2626.57,-30.19 2629.41,-29.74"/>
<polygon fill="midnightblue" stroke="midnightblue" points="2200.44,-72.32 2190.75,-76.62 2201,-79.3 2200.44,-72.32"/>
</g>
<!-- Node17 -->
<g id="node17" class="node">
<title>Node17</title>
<g id="a_node17"><a xlink:href="../../d0/dfa/layoutsettings__dialog_8cpp.html" target="_top" xlink:title=" ">
<polygon fill="white" stroke="black" points="2788.5,-0.5 2788.5,-30.5 2933.5,-30.5 2933.5,-0.5 2788.5,-0.5"/>
<text text-anchor="start" x="2796.5" y="-18.5" font-family="Helvetica,sans-Serif" font-size="10.00">src/app/seamly2d/dialogs</text>
<text text-anchor="middle" x="2861" y="-7.5" font-family="Helvetica,sans-Serif" font-size="10.00">/layoutsettings_dialog.cpp</text>
</a>
</g>
</g>
<!-- Node1&#45;&gt;Node17 -->
<g id="edge16" class="edge">
<title>Node1&#45;&gt;Node17</title>
<path fill="none" stroke="midnightblue" d="M2200.99,-78.19C2322.31,-72.22 2570.95,-57.73 2780,-31 2782.69,-30.66 2785.43,-30.28 2788.2,-29.89"/>
<polygon fill="midnightblue" stroke="midnightblue" points="2200.53,-74.71 2190.71,-78.69 2200.87,-81.7 2200.53,-74.71"/>
</g>
<!-- Node18 -->
<g id="node18" class="node">
<title>Node18</title>
<g id="a_node18"><a xlink:href="../../dc/d14/app_2seamly2d_2main_8cpp.html" target="_top" xlink:title=" ">
<polygon fill="white" stroke="black" points="2951.5,-6 2951.5,-25 3102.5,-25 3102.5,-6 2951.5,-6"/>
<text text-anchor="middle" x="3027" y="-13" font-family="Helvetica,sans-Serif" font-size="10.00">src/app/seamly2d/main.cpp</text>
</a>
</g>
</g>
<!-- Node1&#45;&gt;Node18 -->
<g id="edge17" class="edge">
<title>Node1&#45;&gt;Node18</title>
<path fill="none" stroke="midnightblue" d="M2200.7,-79.63C2344.08,-75.4 2670.41,-62.87 2943,-31 2956.08,-29.47 2970.22,-27.25 2983.1,-25.01"/>
<polygon fill="midnightblue" stroke="midnightblue" points="2200.59,-76.13 2190.69,-79.92 2200.79,-83.13 2200.59,-76.13"/>
</g>
<!-- Node19 -->
<g id="node19" class="node">
<title>Node19</title>
<g id="a_node19"><a xlink:href="../../d2/df4/show__info__dialog_8cpp.html" target="_top" xlink:title=" ">
<polygon fill="white" stroke="black" points="3120.5,-0.5 3120.5,-30.5 3261.5,-30.5 3261.5,-0.5 3120.5,-0.5"/>
<text text-anchor="start" x="3128.5" y="-18.5" font-family="Helvetica,sans-Serif" font-size="10.00">src/app/seamly2d/dialogs</text>
<text text-anchor="middle" x="3191" y="-7.5" font-family="Helvetica,sans-Serif" font-size="10.00">/show_info_dialog.cpp</text>
</a>
</g>
</g>
<!-- Node1&#45;&gt;Node19 -->
<g id="edge18" class="edge">
<title>Node1&#45;&gt;Node19</title>
<path fill="none" stroke="midnightblue" d="M2201.1,-80.99C2365.56,-79.15 2773.34,-70.59 3112,-31 3114.77,-30.68 3117.59,-30.31 3120.43,-29.92"/>
<polygon fill="midnightblue" stroke="midnightblue" points="2200.58,-77.5 2190.62,-81.1 2200.66,-84.5 2200.58,-77.5"/>
</g>
<!-- Node20 -->
<g id="node20" class="node">
<title>Node20</title>
<g id="a_node20"><a xlink:href="../../dd/d84/shortcuts__dialog_8cpp.html" target="_top" xlink:title=" ">
<polygon fill="white" stroke="black" points="3279.5,-0.5 3279.5,-30.5 3420.5,-30.5 3420.5,-0.5 3279.5,-0.5"/>
<text text-anchor="start" x="3287.5" y="-18.5" font-family="Helvetica,sans-Serif" font-size="10.00">src/app/seamly2d/dialogs</text>
<text text-anchor="middle" x="3350" y="-7.5" font-family="Helvetica,sans-Serif" font-size="10.00">/shortcuts_dialog.cpp</text>
</a>
</g>
</g>
<!-- Node1&#45;&gt;Node20 -->
<g id="edge19" class="edge">
<title>Node1&#45;&gt;Node20</title>
<path fill="none" stroke="midnightblue" d="M2200.81,-81.75C2383.09,-81.59 2868.95,-76.55 3271,-31 3273.77,-30.69 3276.59,-30.33 3279.44,-29.95"/>
<polygon fill="midnightblue" stroke="midnightblue" points="2200.8,-78.25 2190.8,-81.75 2200.8,-85.25 2200.8,-78.25"/>
</g>
<!-- Node21 -->
<g id="node21" class="node">
<title>Node21</title>
<g id="a_node21"><a xlink:href="../../d8/de8/mainwindowsnogui_8cpp.html" target="_top" xlink:title=" ">
<polygon fill="white" stroke="black" points="3438.5,-6 3438.5,-25 3659.5,-25 3659.5,-6 3438.5,-6"/>
<text text-anchor="middle" x="3549" y="-13" font-family="Helvetica,sans-Serif" font-size="10.00">src/app/seamly2d/mainwindowsnogui.cpp</text>
</a>
</g>
</g>
<!-- Node1&#45;&gt;Node21 -->
<g id="edge20" class="edge">
<title>Node1&#45;&gt;Node21</title>
<path fill="none" stroke="midnightblue" d="M2200.88,-80.77C2399.78,-78.34 2963.1,-68.43 3430,-31 3448.57,-29.51 3468.7,-27.29 3487.03,-25.03"/>
<polygon fill="midnightblue" stroke="midnightblue" points="2200.79,-77.27 2190.84,-80.89 2200.88,-84.27 2200.79,-77.27"/>
</g>
<!-- Node22 -->
<g id="node22" class="node">
<title>Node22</title>
<g id="a_node22"><a xlink:href="../../d3/d49/vpattern_8cpp.html" target="_top" xlink:title=" ">
<polygon fill="white" stroke="black" points="3677.5,-0.5 3677.5,-30.5 3802.5,-30.5 3802.5,-0.5 3677.5,-0.5"/>
<text text-anchor="start" x="3685.5" y="-18.5" font-family="Helvetica,sans-Serif" font-size="10.00">src/app/seamly2d/xml</text>
<text text-anchor="middle" x="3740" y="-7.5" font-family="Helvetica,sans-Serif" font-size="10.00">/vpattern.cpp</text>
</a>
</g>
</g>
<!-- Node1&#45;&gt;Node22 -->
<g id="edge21" class="edge">
<title>Node1&#45;&gt;Node22</title>
<path fill="none" stroke="midnightblue" d="M2201.17,-80.73C2468.14,-77.7 3379.58,-65.05 3669,-31 3671.75,-30.68 3674.55,-30.3 3677.37,-29.89"/>
<polygon fill="midnightblue" stroke="midnightblue" points="2200.77,-77.23 2190.81,-80.85 2200.85,-84.23 2200.77,-77.23"/>
</g>
<!-- Node23 -->
<g id="node23" class="node">
<title>Node23</title>
<g id="a_node23"><a xlink:href="../../d8/dd9/mainwindow_8cpp.html" target="_top" xlink:title=" ">
<polygon fill="white" stroke="black" points="3821,-6 3821,-25 4009,-25 4009,-6 3821,-6"/>
<text text-anchor="middle" x="3915" y="-13" font-family="Helvetica,sans-Serif" font-size="10.00">src/app/seamly2d/mainwindow.cpp</text>
</a>
</g>
</g>
<!-- Node1&#45;&gt;Node23 -->
<g id="edge22" class="edge">
<title>Node1&#45;&gt;Node23</title>
<path fill="none" stroke="midnightblue" d="M2200.81,-80.37C2482.77,-75.88 3492.08,-58.23 3812,-31 3828.46,-29.6 3846.32,-27.35 3862.46,-25.03"/>
<polygon fill="midnightblue" stroke="midnightblue" points="2200.63,-76.87 2190.69,-80.53 2200.74,-83.87 2200.63,-76.87"/>
</g>
</g>
</svg>
