<?xml version="1.0" encoding="UTF-8" standalone="no"?>
<!DOCTYPE svg PUBLIC "-//W3C//DTD SVG 1.1//EN"
 "http://www.w3.org/Graphics/SVG/1.1/DTD/svg11.dtd">
<!-- Generated by graphviz version 2.43.0 (0)
 -->
<!-- Title: src/app/seamly2d/options.h Pages: 1 -->
<!--zoomable 218 -->
<svg id="main" version="1.1" xmlns="http://www.w3.org/2000/svg" xmlns:xlink="http://www.w3.org/1999/xlink" xml:space="preserve" onload="init(evt)">
<style type="text/css"><![CDATA[
.edge:hover path { stroke: red; }
.edge:hover polygon { stroke: red; fill: red; }
]]></style>
<script type="text/javascript"><![CDATA[
var edges = document.getElementsByTagName('g');
if (edges && edges.length) {
  for (var i=0;i<edges.length;i++) {
    if (edges[i].id.substr(0,4)=='edge') {
      edges[i].setAttribute('class','edge');
    }
  }
}
]]></script>
        <defs>
                <circle id="rim" cx="0" cy="0" r="7"/>
                <circle id="rim2" cx="0" cy="0" r="3.5"/>
                <g id="zoomPlus">
                        <use xlink:href="#rim" fill="#404040">
                                <set attributeName="fill" to="#808080" begin="zoomplus.mouseover" end="zoomplus.mouseout"/>
                        </use>
                        <path d="M-4,0h8M0,-4v8" fill="none" stroke="white" stroke-width="1.5" pointer-events="none"/>
                </g>
                <g id="zoomMin">
                        <use xlink:href="#rim" fill="#404040">
                                <set attributeName="fill" to="#808080" begin="zoomminus.mouseover" end="zoomminus.mouseout"/>
                        </use>
                        <path d="M-4,0h8" fill="none" stroke="white" stroke-width="1.5" pointer-events="none"/>
                </g>
                <g id="dirArrow">
                        <path fill="none" stroke="white" stroke-width="1.5" d="M0,-3.0v7 M-2.5,-0.5L0,-3.0L2.5,-0.5"/>
                </g>
               <g id="resetDef">
                       <use xlink:href="#rim2" fill="#404040">
                               <set attributeName="fill" to="#808080" begin="reset.mouseover" end="reset.mouseout"/>
                       </use>
               </g>
        </defs>

<script type="text/javascript">
var viewWidth = 4034;
var viewHeight = 218;
var sectionId = 'dynsection-1';
</script>
<script xlink:href="../../svgpan.js"/>
<svg id="graph" class="graph">
<g id="viewport">
<title>src/app/seamly2d/options.h</title>
<polygon fill="white" stroke="transparent" points="-4,4 -4,-214 4029.5,-214 4029.5,4 -4,4"/>
<!-- Node1 -->
<g id="node1" class="node">
<title>Node1</title>
<g id="a_node1"><a xlink:title=" ">
<polygon fill="#bfbfbf" stroke="black" points="2565,-190.5 2565,-209.5 2716,-209.5 2716,-190.5 2565,-190.5"/>
<text text-anchor="middle" x="2640.5" y="-197.5" font-family="Helvetica,sans-Serif" font-size="10.00">src/app/seamly2d/options.h</text>
</a>
</g>
</g>
<!-- Node2 -->
<g id="node2" class="node">
<title>Node2</title>
<g id="a_node2"><a xlink:href="../../d9/d02/vapplication_8h.html" target="_top" xlink:title=" ">
<polygon fill="white" stroke="black" points="1781,-123.5 1781,-153.5 1908,-153.5 1908,-123.5 1781,-123.5"/>
<text text-anchor="start" x="1789" y="-141.5" font-family="Helvetica,sans-Serif" font-size="10.00">src/app/seamly2d/core</text>
<text text-anchor="middle" x="1844.5" y="-130.5" font-family="Helvetica,sans-Serif" font-size="10.00">/vapplication.h</text>
</a>
</g>
</g>
<!-- Node1&#45;&gt;Node2 -->
<g id="edge1" class="edge">
<title>Node1&#45;&gt;Node2</title>
<path fill="none" stroke="midnightblue" d="M2554.56,-192.58C2393.62,-180.55 2050.2,-154.88 1908.09,-144.25"/>
<polygon fill="midnightblue" stroke="midnightblue" points="2554.66,-196.09 2564.9,-193.35 2555.19,-189.11 2554.66,-196.09"/>
</g>
<!-- Node5 -->
<g id="node5" class="node">
<title>Node5</title>
<g id="a_node5"><a xlink:href="../../d7/dfa/calculator__dialog_8cpp.html" target="_top" xlink:title=" ">
<polygon fill="white" stroke="black" points="0,-56.5 0,-86.5 141,-86.5 141,-56.5 0,-56.5"/>
<text text-anchor="start" x="8" y="-74.5" font-family="Helvetica,sans-Serif" font-size="10.00">src/app/seamly2d/dialogs</text>
<text text-anchor="middle" x="70.5" y="-63.5" font-family="Helvetica,sans-Serif" font-size="10.00">/calculator_dialog.cpp</text>
</a>
</g>
</g>
<!-- Node1&#45;&gt;Node5 -->
<g id="edge24" class="edge">
<title>Node1&#45;&gt;Node5</title>
<path fill="none" stroke="midnightblue" d="M2554.68,-198.09C2230.01,-194.48 1076.78,-180.08 710.5,-154 460.03,-136.16 397.78,-124.57 149.5,-87 146.74,-86.58 143.93,-86.14 141.1,-85.68"/>
<polygon fill="midnightblue" stroke="midnightblue" points="2554.93,-201.59 2564.96,-198.2 2555,-194.59 2554.93,-201.59"/>
</g>
<!-- Node8 -->
<g id="node8" class="node">
<title>Node8</title>
<g id="a_node8"><a xlink:href="../../dc/d20/preferencespathpage_8cpp.html" target="_top" xlink:title=" ">
<polygon fill="white" stroke="black" points="159,-56.5 159,-86.5 364,-86.5 364,-56.5 159,-56.5"/>
<text text-anchor="start" x="167" y="-74.5" font-family="Helvetica,sans-Serif" font-size="10.00">src/app/seamly2d/dialogs</text>
<text text-anchor="middle" x="261.5" y="-63.5" font-family="Helvetica,sans-Serif" font-size="10.00">/configpages/preferencespathpage.cpp</text>
</a>
</g>
</g>
<!-- Node1&#45;&gt;Node8 -->
<g id="edge25" class="edge">
<title>Node1&#45;&gt;Node8</title>
<path fill="none" stroke="midnightblue" d="M2554.44,-198.18C2323.97,-195.59 1673.59,-185.81 1133.5,-154 794.56,-134.04 710.02,-123.89 372.5,-87 369.8,-86.7 367.05,-86.4 364.29,-86.08"/>
<polygon fill="midnightblue" stroke="midnightblue" points="2554.73,-201.68 2564.77,-198.29 2554.81,-194.68 2554.73,-201.68"/>
</g>
<!-- Node12 -->
<g id="node12" class="node">
<title>Node12</title>
<g id="a_node12"><a xlink:href="../../dd/d64/dialogaboutapp_8cpp.html" target="_top" xlink:title=" ">
<polygon fill="white" stroke="black" points="382,-56.5 382,-86.5 523,-86.5 523,-56.5 382,-56.5"/>
<text text-anchor="start" x="390" y="-74.5" font-family="Helvetica,sans-Serif" font-size="10.00">src/app/seamly2d/dialogs</text>
<text text-anchor="middle" x="452.5" y="-63.5" font-family="Helvetica,sans-Serif" font-size="10.00">/dialogaboutapp.cpp</text>
</a>
</g>
</g>
<!-- Node1&#45;&gt;Node12 -->
<g id="edge26" class="edge">
<title>Node1&#45;&gt;Node12</title>
<path fill="none" stroke="midnightblue" d="M2554.95,-194.67C2399.12,-186.76 2058.61,-169.37 1771.5,-154 1502.14,-139.58 828.03,-112.58 559.5,-87 547.74,-85.88 535.29,-84.43 523.2,-82.89"/>
<polygon fill="midnightblue" stroke="midnightblue" points="2554.78,-198.16 2564.94,-195.18 2555.13,-191.17 2554.78,-198.16"/>
</g>
<!-- Node15 -->
<g id="node15" class="node">
<title>Node15</title>
<g id="a_node15"><a xlink:href="../../dd/d54/export__layout__dialog_8cpp.html" target="_top" xlink:title=" ">
<polygon fill="white" stroke="black" points="3366,-56.5 3366,-86.5 3509,-86.5 3509,-56.5 3366,-56.5"/>
<text text-anchor="start" x="3374" y="-74.5" font-family="Helvetica,sans-Serif" font-size="10.00">src/app/seamly2d/dialogs</text>
<text text-anchor="middle" x="3437.5" y="-63.5" font-family="Helvetica,sans-Serif" font-size="10.00">/export_layout_dialog.cpp</text>
</a>
</g>
</g>
<!-- Node1&#45;&gt;Node15 -->
<g id="edge31" class="edge">
<title>Node1&#45;&gt;Node15</title>
<path fill="none" stroke="midnightblue" d="M2708.19,-188.99C2835.5,-170.03 3119.21,-127.2 3357.5,-87 3360.28,-86.53 3363.12,-86.05 3365.99,-85.55"/>
<polygon fill="midnightblue" stroke="midnightblue" points="2707.58,-185.54 2698.2,-190.47 2708.61,-192.46 2707.58,-185.54"/>
</g>
<!-- Node16 -->
<g id="node16" class="node">
<title>Node16</title>
<g id="a_node16"><a xlink:href="../../d6/d89/dialoglayoutprogress_8cpp.html" target="_top" xlink:title=" ">
<polygon fill="white" stroke="black" points="3527,-56.5 3527,-86.5 3670,-86.5 3670,-56.5 3527,-56.5"/>
<text text-anchor="start" x="3535" y="-74.5" font-family="Helvetica,sans-Serif" font-size="10.00">src/app/seamly2d/dialogs</text>
<text text-anchor="middle" x="3598.5" y="-63.5" font-family="Helvetica,sans-Serif" font-size="10.00">/dialoglayoutprogress.cpp</text>
</a>
</g>
</g>
<!-- Node1&#45;&gt;Node16 -->
<g id="edge32" class="edge">
<title>Node1&#45;&gt;Node16</title>
<path fill="none" stroke="midnightblue" d="M2726.46,-190.36C2809.29,-181.84 2938.09,-168.08 3049.5,-154 3258.4,-127.59 3310.65,-120.67 3518.5,-87 3521.29,-86.55 3524.13,-86.08 3526.99,-85.6"/>
<polygon fill="midnightblue" stroke="midnightblue" points="2725.93,-186.89 2716.34,-191.4 2726.65,-193.86 2725.93,-186.89"/>
</g>
<!-- Node24 -->
<g id="node24" class="node">
<title>Node24</title>
<g id="a_node24"><a xlink:href="../../d8/dd9/mainwindow_8cpp.html" target="_top" xlink:title=" ">
<polygon fill="white" stroke="black" points="3837.5,-0.5 3837.5,-19.5 4025.5,-19.5 4025.5,-0.5 3837.5,-0.5"/>
<text text-anchor="middle" x="3931.5" y="-7.5" font-family="Helvetica,sans-Serif" font-size="10.00">src/app/seamly2d/mainwindow.cpp</text>
</a>
</g>
</g>
<!-- Node1&#45;&gt;Node24 -->
<g id="edge33" class="edge">
<title>Node1&#45;&gt;Node24</title>
<path fill="none" stroke="midnightblue" d="M2726.31,-199.66C2964.87,-200.87 3632.56,-199.94 3846.5,-154 3923.88,-137.38 3967.3,-152.66 4011.5,-87 4019.19,-75.57 4018.46,-67.89 4011.5,-56 4000.8,-37.71 3979.63,-26.27 3961.75,-19.51"/>
<polygon fill="midnightblue" stroke="midnightblue" points="2726.31,-196.16 2716.29,-199.6 2726.28,-203.16 2726.31,-196.16"/>
</g>
<!-- Node25 -->
<g id="node25" class="node">
<title>Node25</title>
<g id="a_node25"><a xlink:href="../../d5/d4e/dialogpatternproperties_8h.html" target="_top" xlink:title=" ">
<polygon fill="white" stroke="black" points="3694,-123.5 3694,-153.5 3837,-153.5 3837,-123.5 3694,-123.5"/>
<text text-anchor="start" x="3702" y="-141.5" font-family="Helvetica,sans-Serif" font-size="10.00">src/app/seamly2d/dialogs</text>
<text text-anchor="middle" x="3765.5" y="-130.5" font-family="Helvetica,sans-Serif" font-size="10.00">/dialogpatternproperties.h</text>
</a>
</g>
</g>
<!-- Node1&#45;&gt;Node25 -->
<g id="edge27" class="edge">
<title>Node1&#45;&gt;Node25</title>
<path fill="none" stroke="midnightblue" d="M2726.31,-194.46C2940.52,-183.13 3495.75,-153.77 3693.92,-143.29"/>
<polygon fill="midnightblue" stroke="midnightblue" points="2725.86,-190.98 2716.06,-195 2726.23,-197.97 2725.86,-190.98"/>
</g>
<!-- Node3 -->
<g id="node3" class="node">
<title>Node3</title>
<g id="a_node3"><a xlink:href="../../dd/db4/abstractlayout__dialog_8cpp.html" target="_top" xlink:title=" ">
<polygon fill="white" stroke="black" points="1771.5,-56.5 1771.5,-86.5 1917.5,-86.5 1917.5,-56.5 1771.5,-56.5"/>
<text text-anchor="start" x="1779.5" y="-74.5" font-family="Helvetica,sans-Serif" font-size="10.00">src/app/seamly2d/dialogs</text>
<text text-anchor="middle" x="1844.5" y="-63.5" font-family="Helvetica,sans-Serif" font-size="10.00">/abstractlayout_dialog.cpp</text>
</a>
</g>
</g>
<!-- Node2&#45;&gt;Node3 -->
<g id="edge2" class="edge">
<title>Node2&#45;&gt;Node3</title>
<path fill="none" stroke="midnightblue" d="M1844.5,-113.11C1844.5,-104.15 1844.5,-94.32 1844.5,-86.58"/>
<polygon fill="midnightblue" stroke="midnightblue" points="1841,-113.4 1844.5,-123.4 1848,-113.4 1841,-113.4"/>
</g>
<!-- Node4 -->
<g id="node4" class="node">
<title>Node4</title>
<g id="a_node4"><a xlink:href="../../d3/dd8/vapplication_8cpp.html" target="_top" xlink:title=" ">
<polygon fill="white" stroke="black" points="1936,-56.5 1936,-86.5 2063,-86.5 2063,-56.5 1936,-56.5"/>
<text text-anchor="start" x="1944" y="-74.5" font-family="Helvetica,sans-Serif" font-size="10.00">src/app/seamly2d/core</text>
<text text-anchor="middle" x="1999.5" y="-63.5" font-family="Helvetica,sans-Serif" font-size="10.00">/vapplication.cpp</text>
</a>
</g>
</g>
<!-- Node2&#45;&gt;Node4 -->
<g id="edge3" class="edge">
<title>Node2&#45;&gt;Node4</title>
<path fill="none" stroke="midnightblue" d="M1887.65,-119.41C1912.39,-109.03 1943,-96.2 1965.93,-86.58"/>
<polygon fill="midnightblue" stroke="midnightblue" points="1886,-116.3 1878.13,-123.4 1888.71,-122.76 1886,-116.3"/>
</g>
<!-- Node2&#45;&gt;Node5 -->
<g id="edge4" class="edge">
<title>Node2&#45;&gt;Node5</title>
<path fill="none" stroke="midnightblue" d="M1770.69,-136.79C1487.58,-133.85 470.86,-121.08 149.5,-87 146.73,-86.71 143.9,-86.37 141.06,-86"/>
<polygon fill="midnightblue" stroke="midnightblue" points="1770.81,-140.29 1780.85,-136.9 1770.89,-133.29 1770.81,-140.29"/>
</g>
<!-- Node6 -->
<g id="node6" class="node">
<title>Node6</title>
<g id="a_node6"><a xlink:href="../../d2/d2d/preferencesconfigurationpage_8cpp.html" target="_top" xlink:title=" ">
<polygon fill="white" stroke="black" points="2081,-56.5 2081,-86.5 2328,-86.5 2328,-56.5 2081,-56.5"/>
<text text-anchor="start" x="2089" y="-74.5" font-family="Helvetica,sans-Serif" font-size="10.00">src/app/seamly2d/dialogs</text>
<text text-anchor="middle" x="2204.5" y="-63.5" font-family="Helvetica,sans-Serif" font-size="10.00">/configpages/preferencesconfigurationpage.cpp</text>
</a>
</g>
</g>
<!-- Node2&#45;&gt;Node6 -->
<g id="edge5" class="edge">
<title>Node2&#45;&gt;Node6</title>
<path fill="none" stroke="midnightblue" d="M1917.94,-124.24C1978.76,-113.26 2064.94,-97.7 2126.88,-86.51"/>
<polygon fill="midnightblue" stroke="midnightblue" points="1917.25,-120.81 1908.03,-126.03 1918.49,-127.7 1917.25,-120.81"/>
</g>
<!-- Node7 -->
<g id="node7" class="node">
<title>Node7</title>
<g id="a_node7"><a xlink:href="../../d9/d70/preferencesgraphicsviewpage_8cpp.html" target="_top" xlink:title=" ">
<polygon fill="white" stroke="black" points="2346.5,-56.5 2346.5,-86.5 2594.5,-86.5 2594.5,-56.5 2346.5,-56.5"/>
<text text-anchor="start" x="2354.5" y="-74.5" font-family="Helvetica,sans-Serif" font-size="10.00">src/app/seamly2d/dialogs</text>
<text text-anchor="middle" x="2470.5" y="-63.5" font-family="Helvetica,sans-Serif" font-size="10.00">/configpages/preferencesgraphicsviewpage.cpp</text>
</a>
</g>
</g>
<!-- Node2&#45;&gt;Node7 -->
<g id="edge6" class="edge">
<title>Node2&#45;&gt;Node7</title>
<path fill="none" stroke="midnightblue" d="M1918.41,-130.04C2014.68,-120.3 2188.2,-102.63 2336.5,-87 2339.76,-86.66 2343.06,-86.31 2346.39,-85.95"/>
<polygon fill="midnightblue" stroke="midnightblue" points="1917.8,-126.59 1908.2,-131.07 1918.5,-133.55 1917.8,-126.59"/>
</g>
<!-- Node2&#45;&gt;Node8 -->
<g id="edge7" class="edge">
<title>Node2&#45;&gt;Node8</title>
<path fill="none" stroke="midnightblue" d="M1770.71,-135.9C1512.25,-130.17 648.66,-109.72 372.5,-87 369.79,-86.78 367.04,-86.53 364.27,-86.28"/>
<polygon fill="midnightblue" stroke="midnightblue" points="1770.66,-139.4 1780.74,-136.13 1770.82,-132.41 1770.66,-139.4"/>
</g>
<!-- Node9 -->
<g id="node9" class="node">
<title>Node9</title>
<g id="a_node9"><a xlink:href="../../d2/d00/vtooloptionspropertybrowser_8cpp.html" target="_top" xlink:title=" ">
<polygon fill="white" stroke="black" points="2612.5,-56.5 2612.5,-86.5 2792.5,-86.5 2792.5,-56.5 2612.5,-56.5"/>
<text text-anchor="start" x="2620.5" y="-74.5" font-family="Helvetica,sans-Serif" font-size="10.00">src/app/seamly2d/core</text>
<text text-anchor="middle" x="2702.5" y="-63.5" font-family="Helvetica,sans-Serif" font-size="10.00">/vtooloptionspropertybrowser.cpp</text>
</a>
</g>
</g>
<!-- Node2&#45;&gt;Node9 -->
<g id="edge8" class="edge">
<title>Node2&#45;&gt;Node9</title>
<path fill="none" stroke="midnightblue" d="M1918.41,-134.52C2054.32,-128.62 2352.96,-113.64 2603.5,-87 2606.44,-86.69 2609.42,-86.35 2612.43,-86"/>
<polygon fill="midnightblue" stroke="midnightblue" points="1917.96,-131.04 1908.12,-134.97 1918.26,-138.03 1917.96,-131.04"/>
</g>
<!-- Node10 -->
<g id="node10" class="node">
<title>Node10</title>
<g id="a_node10"><a xlink:href="../../dd/dc2/decimalchart__dialog_8cpp.html" target="_top" xlink:title=" ">
<polygon fill="white" stroke="black" points="2811,-56.5 2811,-86.5 2952,-86.5 2952,-56.5 2811,-56.5"/>
<text text-anchor="start" x="2819" y="-74.5" font-family="Helvetica,sans-Serif" font-size="10.00">src/app/seamly2d/dialogs</text>
<text text-anchor="middle" x="2881.5" y="-63.5" font-family="Helvetica,sans-Serif" font-size="10.00">/decimalchart_dialog.cpp</text>
</a>
</g>
</g>
<!-- Node2&#45;&gt;Node10 -->
<g id="edge9" class="edge">
<title>Node2&#45;&gt;Node10</title>
<path fill="none" stroke="midnightblue" d="M1918.26,-136.78C2079.18,-134.52 2473.64,-125.21 2801.5,-87 2804.58,-86.64 2807.73,-86.24 2810.9,-85.8"/>
<polygon fill="midnightblue" stroke="midnightblue" points="1917.95,-133.29 1908,-136.92 1918.05,-140.29 1917.95,-133.29"/>
</g>
<!-- Node11 -->
<g id="node11" class="node">
<title>Node11</title>
<g id="a_node11"><a xlink:href="../../dc/d63/preferencespatternpage_8cpp.html" target="_top" xlink:title=" ">
<polygon fill="white" stroke="black" points="2970.5,-56.5 2970.5,-86.5 3188.5,-86.5 3188.5,-56.5 2970.5,-56.5"/>
<text text-anchor="start" x="2978.5" y="-74.5" font-family="Helvetica,sans-Serif" font-size="10.00">src/app/seamly2d/dialogs</text>
<text text-anchor="middle" x="3079.5" y="-63.5" font-family="Helvetica,sans-Serif" font-size="10.00">/configpages/preferencespatternpage.cpp</text>
</a>
</g>
</g>
<!-- Node2&#45;&gt;Node11 -->
<g id="edge10" class="edge">
<title>Node2&#45;&gt;Node11</title>
<path fill="none" stroke="midnightblue" d="M1918.24,-136.1C2097.17,-132.28 2568.51,-119.7 2960.5,-87 2963.71,-86.73 2966.98,-86.44 2970.27,-86.14"/>
<polygon fill="midnightblue" stroke="midnightblue" points="1918.08,-132.6 1908.15,-136.31 1918.22,-139.6 1918.08,-132.6"/>
</g>
<!-- Node2&#45;&gt;Node12 -->
<g id="edge11" class="edge">
<title>Node2&#45;&gt;Node12</title>
<path fill="none" stroke="midnightblue" d="M1770.58,-133.32C1714.35,-130.22 1635.07,-126.03 1565.5,-123 1108.76,-103.14 992.29,-133.54 537.5,-87 532.88,-86.53 528.14,-85.96 523.36,-85.32"/>
<polygon fill="midnightblue" stroke="midnightblue" points="1770.62,-136.82 1780.8,-133.88 1771.01,-129.84 1770.62,-136.82"/>
</g>
<!-- Node13 -->
<g id="node13" class="node">
<title>Node13</title>
<g id="a_node13"><a xlink:href="../../d5/dc5/dialogpreferences_8cpp.html" target="_top" xlink:title=" ">
<polygon fill="white" stroke="black" points="3207,-56.5 3207,-86.5 3348,-86.5 3348,-56.5 3207,-56.5"/>
<text text-anchor="start" x="3215" y="-74.5" font-family="Helvetica,sans-Serif" font-size="10.00">src/app/seamly2d/dialogs</text>
<text text-anchor="middle" x="3277.5" y="-63.5" font-family="Helvetica,sans-Serif" font-size="10.00">/dialogpreferences.cpp</text>
</a>
</g>
</g>
<!-- Node2&#45;&gt;Node13 -->
<g id="edge12" class="edge">
<title>Node2&#45;&gt;Node13</title>
<path fill="none" stroke="midnightblue" d="M1918.46,-136.12C2163.35,-131.35 2946.39,-114.3 3197.5,-87 3200.59,-86.66 3203.73,-86.28 3206.91,-85.86"/>
<polygon fill="midnightblue" stroke="midnightblue" points="1918.18,-132.63 1908.25,-136.32 1918.31,-139.63 1918.18,-132.63"/>
</g>
<!-- Node14 -->
<g id="node14" class="node">
<title>Node14</title>
<g id="a_node14"><a xlink:href="../../d5/d18/dialogpatternproperties_8cpp.html" target="_top" xlink:title=" ">
<polygon fill="white" stroke="black" points="3688,-56.5 3688,-86.5 3843,-86.5 3843,-56.5 3688,-56.5"/>
<text text-anchor="start" x="3696" y="-74.5" font-family="Helvetica,sans-Serif" font-size="10.00">src/app/seamly2d/dialogs</text>
<text text-anchor="middle" x="3765.5" y="-63.5" font-family="Helvetica,sans-Serif" font-size="10.00">/dialogpatternproperties.cpp</text>
</a>
</g>
</g>
<!-- Node2&#45;&gt;Node14 -->
<g id="edge13" class="edge">
<title>Node2&#45;&gt;Node14</title>
<path fill="none" stroke="midnightblue" d="M1918.35,-136.84C2216.08,-133.99 3329,-121.2 3679.5,-87 3682.21,-86.74 3684.97,-86.44 3687.75,-86.11"/>
<polygon fill="midnightblue" stroke="midnightblue" points="1918.07,-133.35 1908.1,-136.94 1918.14,-140.35 1918.07,-133.35"/>
</g>
<!-- Node2&#45;&gt;Node15 -->
<g id="edge14" class="edge">
<title>Node2&#45;&gt;Node15</title>
<path fill="none" stroke="midnightblue" d="M1918.59,-136.46C2182.15,-132.54 3073.66,-117.3 3357.5,-87 3360.17,-86.72 3362.88,-86.39 3365.61,-86.04"/>
<polygon fill="midnightblue" stroke="midnightblue" points="1918.31,-132.96 1908.36,-136.61 1918.42,-139.96 1918.31,-132.96"/>
</g>
<!-- Node2&#45;&gt;Node16 -->
<g id="edge15" class="edge">
<title>Node2&#45;&gt;Node16</title>
<path fill="none" stroke="midnightblue" d="M1918.34,-136.74C2199.24,-133.61 3201.45,-120.33 3518.5,-87 3521.17,-86.72 3523.88,-86.4 3526.61,-86.05"/>
<polygon fill="midnightblue" stroke="midnightblue" points="1918.22,-133.24 1908.26,-136.85 1918.29,-140.24 1918.22,-133.24"/>
</g>
<!-- Node17 -->
<g id="node17" class="node">
<title>Node17</title>
<g id="a_node17"><a xlink:href="../../d0/dfa/layoutsettings__dialog_8cpp.html" target="_top" xlink:title=" ">
<polygon fill="white" stroke="black" points="580,-56.5 580,-86.5 725,-86.5 725,-56.5 580,-56.5"/>
<text text-anchor="start" x="588" y="-74.5" font-family="Helvetica,sans-Serif" font-size="10.00">src/app/seamly2d/dialogs</text>
<text text-anchor="middle" x="652.5" y="-63.5" font-family="Helvetica,sans-Serif" font-size="10.00">/layoutsettings_dialog.cpp</text>
</a>
</g>
</g>
<!-- Node2&#45;&gt;Node17 -->
<g id="edge16" class="edge">
<title>Node2&#45;&gt;Node17</title>
<path fill="none" stroke="midnightblue" d="M1770.57,-133.48C1714.34,-130.47 1635.05,-126.31 1565.5,-123 1195.8,-105.39 1101.38,-127.7 733.5,-87 730.8,-86.7 728.06,-86.37 725.29,-86"/>
<polygon fill="midnightblue" stroke="midnightblue" points="1770.62,-136.99 1780.79,-134.03 1770.99,-130 1770.62,-136.99"/>
</g>
<!-- Node18 -->
<g id="node18" class="node">
<title>Node18</title>
<g id="a_node18"><a xlink:href="../../db/d5c/groups__widget_8cpp.html" target="_top" xlink:title=" ">
<polygon fill="white" stroke="black" points="743,-56.5 743,-86.5 884,-86.5 884,-56.5 743,-56.5"/>
<text text-anchor="start" x="751" y="-74.5" font-family="Helvetica,sans-Serif" font-size="10.00">src/app/seamly2d/dialogs</text>
<text text-anchor="middle" x="813.5" y="-63.5" font-family="Helvetica,sans-Serif" font-size="10.00">/groups_widget.cpp</text>
</a>
</g>
</g>
<!-- Node2&#45;&gt;Node18 -->
<g id="edge17" class="edge">
<title>Node2&#45;&gt;Node18</title>
<path fill="none" stroke="midnightblue" d="M1770.41,-133.63C1548.43,-122.04 903.38,-88.28 892.5,-87 889.73,-86.67 886.91,-86.31 884.07,-85.92"/>
<polygon fill="midnightblue" stroke="midnightblue" points="1770.49,-137.14 1780.65,-134.17 1770.85,-130.15 1770.49,-137.14"/>
</g>
<!-- Node19 -->
<g id="node19" class="node">
<title>Node19</title>
<g id="a_node19"><a xlink:href="../../d2/df4/show__info__dialog_8cpp.html" target="_top" xlink:title=" ">
<polygon fill="white" stroke="black" points="902,-56.5 902,-86.5 1043,-86.5 1043,-56.5 902,-56.5"/>
<text text-anchor="start" x="910" y="-74.5" font-family="Helvetica,sans-Serif" font-size="10.00">src/app/seamly2d/dialogs</text>
<text text-anchor="middle" x="972.5" y="-63.5" font-family="Helvetica,sans-Serif" font-size="10.00">/show_info_dialog.cpp</text>
</a>
</g>
</g>
<!-- Node2&#45;&gt;Node19 -->
<g id="edge18" class="edge">
<title>Node2&#45;&gt;Node19</title>
<path fill="none" stroke="midnightblue" d="M1770.65,-133.3C1587.41,-122.79 1121.63,-95.64 1051.5,-87 1048.73,-86.66 1045.91,-86.28 1043.07,-85.88"/>
<polygon fill="midnightblue" stroke="midnightblue" points="1770.55,-136.8 1780.73,-133.87 1770.95,-129.81 1770.55,-136.8"/>
</g>
<!-- Node20 -->
<g id="node20" class="node">
<title>Node20</title>
<g id="a_node20"><a xlink:href="../../dc/d14/app_2seamly2d_2main_8cpp.html" target="_top" xlink:title=" ">
<polygon fill="white" stroke="black" points="1061,-62 1061,-81 1212,-81 1212,-62 1061,-62"/>
<text text-anchor="middle" x="1136.5" y="-69" font-family="Helvetica,sans-Serif" font-size="10.00">src/app/seamly2d/main.cpp</text>
</a>
</g>
</g>
<!-- Node2&#45;&gt;Node20 -->
<g id="edge19" class="edge">
<title>Node2&#45;&gt;Node20</title>
<path fill="none" stroke="midnightblue" d="M1770.71,-133.69C1653.71,-127.16 1418.59,-112.06 1220.5,-87 1207.73,-85.38 1193.93,-83.19 1181.29,-81"/>
<polygon fill="midnightblue" stroke="midnightblue" points="1770.8,-137.2 1780.97,-134.26 1771.18,-130.21 1770.8,-137.2"/>
</g>
<!-- Node21 -->
<g id="node21" class="node">
<title>Node21</title>
<g id="a_node21"><a xlink:href="../../dd/d84/shortcuts__dialog_8cpp.html" target="_top" xlink:title=" ">
<polygon fill="white" stroke="black" points="1230,-56.5 1230,-86.5 1371,-86.5 1371,-56.5 1230,-56.5"/>
<text text-anchor="start" x="1238" y="-74.5" font-family="Helvetica,sans-Serif" font-size="10.00">src/app/seamly2d/dialogs</text>
<text text-anchor="middle" x="1300.5" y="-63.5" font-family="Helvetica,sans-Serif" font-size="10.00">/shortcuts_dialog.cpp</text>
</a>
</g>
</g>
<!-- Node2&#45;&gt;Node21 -->
<g id="edge20" class="edge">
<title>Node2&#45;&gt;Node21</title>
<path fill="none" stroke="midnightblue" d="M1770.72,-131.17C1678.84,-122.9 1517.17,-107.08 1379.5,-87 1376.74,-86.6 1373.93,-86.17 1371.09,-85.72"/>
<polygon fill="midnightblue" stroke="midnightblue" points="1770.49,-134.66 1780.76,-132.07 1771.11,-127.69 1770.49,-134.66"/>
</g>
<!-- Node22 -->
<g id="node22" class="node">
<title>Node22</title>
<g id="a_node22"><a xlink:href="../../d8/de8/mainwindowsnogui_8cpp.html" target="_top" xlink:title=" ">
<polygon fill="white" stroke="black" points="1389,-62 1389,-81 1610,-81 1610,-62 1389,-62"/>
<text text-anchor="middle" x="1499.5" y="-69" font-family="Helvetica,sans-Serif" font-size="10.00">src/app/seamly2d/mainwindowsnogui.cpp</text>
</a>
</g>
</g>
<!-- Node2&#45;&gt;Node22 -->
<g id="edge21" class="edge">
<title>Node2&#45;&gt;Node22</title>
<path fill="none" stroke="midnightblue" d="M1770.94,-123.64C1702.33,-110.71 1602.19,-91.85 1544.67,-81.01"/>
<polygon fill="midnightblue" stroke="midnightblue" points="1770.34,-127.09 1780.82,-125.5 1771.64,-120.21 1770.34,-127.09"/>
</g>
<!-- Node23 -->
<g id="node23" class="node">
<title>Node23</title>
<g id="a_node23"><a xlink:href="../../d3/d49/vpattern_8cpp.html" target="_top" xlink:title=" ">
<polygon fill="white" stroke="black" points="1628,-56.5 1628,-86.5 1753,-86.5 1753,-56.5 1628,-56.5"/>
<text text-anchor="start" x="1636" y="-74.5" font-family="Helvetica,sans-Serif" font-size="10.00">src/app/seamly2d/xml</text>
<text text-anchor="middle" x="1690.5" y="-63.5" font-family="Helvetica,sans-Serif" font-size="10.00">/vpattern.cpp</text>
</a>
</g>
</g>
<!-- Node2&#45;&gt;Node23 -->
<g id="edge22" class="edge">
<title>Node2&#45;&gt;Node23</title>
<path fill="none" stroke="midnightblue" d="M1801.63,-119.41C1777.05,-109.03 1746.64,-96.2 1723.85,-86.58"/>
<polygon fill="midnightblue" stroke="midnightblue" points="1800.51,-122.73 1811.08,-123.4 1803.23,-116.28 1800.51,-122.73"/>
</g>
<!-- Node2&#45;&gt;Node24 -->
<g id="edge23" class="edge">
<title>Node2&#45;&gt;Node24</title>
<path fill="none" stroke="midnightblue" d="M1770.58,-133.34C1714.35,-130.25 1635.07,-126.07 1565.5,-123 1510.24,-120.56 608.9,-126.81 570.5,-87 560.94,-77.08 560.82,-65.81 570.5,-56 599.99,-26.11 3295.3,-13.58 3837.22,-11.37"/>
<polygon fill="midnightblue" stroke="midnightblue" points="1770.62,-136.85 1780.8,-133.9 1771.01,-129.86 1770.62,-136.85"/>
</g>
<!-- Node25&#45;&gt;Node14 -->
<g id="edge28" class="edge">
<title>Node25&#45;&gt;Node14</title>
<path fill="none" stroke="midnightblue" d="M3765.5,-113.11C3765.5,-104.15 3765.5,-94.32 3765.5,-86.58"/>
<polygon fill="midnightblue" stroke="midnightblue" points="3762,-113.4 3765.5,-123.4 3769,-113.4 3762,-113.4"/>
</g>
<!-- Node26 -->
<g id="node26" class="node">
<title>Node26</title>
<g id="a_node26"><a xlink:href="../../d6/d64/dialogs_8h.html" target="_top" xlink:title=" ">
<polygon fill="white" stroke="black" points="3861,-56.5 3861,-86.5 4002,-86.5 4002,-56.5 3861,-56.5"/>
<text text-anchor="start" x="3869" y="-74.5" font-family="Helvetica,sans-Serif" font-size="10.00">src/app/seamly2d/dialogs</text>
<text text-anchor="middle" x="3931.5" y="-63.5" font-family="Helvetica,sans-Serif" font-size="10.00">/dialogs.h</text>
</a>
</g>
</g>
<!-- Node25&#45;&gt;Node26 -->
<g id="edge29" class="edge">
<title>Node25&#45;&gt;Node26</title>
<path fill="none" stroke="midnightblue" d="M3811.01,-119.68C3837.63,-109.26 3870.77,-96.28 3895.55,-86.58"/>
<polygon fill="midnightblue" stroke="midnightblue" points="3809.55,-116.49 3801.52,-123.4 3812.11,-123.01 3809.55,-116.49"/>
</g>
<!-- Node26&#45;&gt;Node24 -->
<g id="edge30" class="edge">
<title>Node26&#45;&gt;Node24</title>
<path fill="none" stroke="midnightblue" d="M3931.5,-46.29C3931.5,-36.86 3931.5,-26.65 3931.5,-19.66"/>
<polygon fill="midnightblue" stroke="midnightblue" points="3928,-46.4 3931.5,-56.4 3935,-46.4 3928,-46.4"/>
</g>
</g>
</svg>
        <g id="navigator" transform="translate(0 0)" fill="#404254">
                <rect fill="#f2f5e9" fill-opacity="0.5" stroke="#606060" stroke-width=".5" x="0" y="0" width="60" height="60"/>
                <use id="zoomplus" xlink:href="#zoomPlus" x="17" y="9" onmousedown="handleZoom(evt,'in')"/>
                <use id="zoomminus" xlink:href="#zoomMin" x="42" y="9" onmousedown="handleZoom(evt,'out')"/>
                <use id="reset" xlink:href="#resetDef" x="30" y="36" onmousedown="handleReset()"/>
                <g id="arrowUp" xlink:href="#dirArrow" transform="translate(30 24)" onmousedown="handlePan(0,-1)">
                  <use xlink:href="#rim" fill="#404040">
                        <set attributeName="fill" to="#808080" begin="arrowUp.mouseover" end="arrowUp.mouseout"/>
                  </use>
                  <path fill="none" stroke="white" stroke-width="1.5" d="M0,-3.0v7 M-2.5,-0.5L0,-3.0L2.5,-0.5"/>
                </g>
                <g id="arrowRight" xlink:href="#dirArrow" transform="rotate(90) translate(36 -43)" onmousedown="handlePan(1,0)">
                  <use xlink:href="#rim" fill="#404040">
                        <set attributeName="fill" to="#808080" begin="arrowRight.mouseover" end="arrowRight.mouseout"/>
                  </use>
                  <path fill="none" stroke="white" stroke-width="1.5" d="M0,-3.0v7 M-2.5,-0.5L0,-3.0L2.5,-0.5"/>
                </g>
                <g id="arrowDown" xlink:href="#dirArrow" transform="rotate(180) translate(-30 -48)" onmousedown="handlePan(0,1)">
                  <use xlink:href="#rim" fill="#404040">
                        <set attributeName="fill" to="#808080" begin="arrowDown.mouseover" end="arrowDown.mouseout"/>
                  </use>
                  <path fill="none" stroke="white" stroke-width="1.5" d="M0,-3.0v7 M-2.5,-0.5L0,-3.0L2.5,-0.5"/>
                </g>
                <g id="arrowLeft" xlink:href="#dirArrow" transform="rotate(270) translate(-36 17)" onmousedown="handlePan(-1,0)">
                  <use xlink:href="#rim" fill="#404040">
                        <set attributeName="fill" to="#808080" begin="arrowLeft.mouseover" end="arrowLeft.mouseout"/>
                  </use>
                  <path fill="none" stroke="white" stroke-width="1.5" d="M0,-3.0v7 M-2.5,-0.5L0,-3.0L2.5,-0.5"/>
                </g>
        </g>
        <svg viewBox="0 0 15 15" width="100%" height="30px" preserveAspectRatio="xMaxYMin meet">
         <g id="arrow_out" transform="scale(0.3 0.3)">
          <a xlink:href="options_8h__dep__incl_org.svg" target="_base">
           <rect id="button" ry="5" rx="5" y="6" x="6" height="38" width="38"
                fill="#f2f5e9" fill-opacity="0.5" stroke="#606060" stroke-width="1.0"/>
           <path id="arrow"
             d="M 11.500037,31.436501 C 11.940474,20.09759 22.043105,11.32322 32.158766,21.979434 L 37.068811,17.246167 C 37.068811,17.246167 37.088388,32 37.088388,32 L 22.160133,31.978069 C 22.160133,31.978069 26.997745,27.140456 26.997745,27.140456 C 18.528582,18.264221 13.291696,25.230495 11.500037,31.436501 z"
             style="fill:#404040;"/>
          </a>
         </g>
        </svg>
</svg>
