<?xml version="1.0" encoding="UTF-8" standalone="no"?>
<!DOCTYPE svg PUBLIC "-//W3C//DTD SVG 1.1//EN"
 "http://www.w3.org/Graphics/SVG/1.1/DTD/svg11.dtd">
<!-- Generated by graphviz version 2.43.0 (0)
 -->
<!-- Title: src/app/seamly2d/options.h Pages: 1 -->
<svg width="4033pt" height="214pt"
 viewBox="0.00 0.00 4032.50 214.00" xmlns="http://www.w3.org/2000/svg" xmlns:xlink="http://www.w3.org/1999/xlink">
<g id="graph0" class="graph" transform="scale(1 1) rotate(0) translate(4 210)">
<title>src/app/seamly2d/options.h</title>
<!-- Node1 -->
<g id="Node000001" class="node">
<title>Node1</title>
<g id="a_Node000001"><a xlink:title=" ">
<polygon fill="#999999" stroke="#666666" points="1564,-206 1413,-206 1413,-187 1564,-187 1564,-206"/>
<text text-anchor="middle" x="1488.5" y="-194" font-family="Helvetica,sans-Serif" font-size="10.00">src/app/seamly2d/options.h</text>
</a>
</g>
</g>
<!-- Node2 -->
<g id="Node000002" class="node">
<title>Node2</title>
<g id="a_Node000002"><a xlink:href="../../d9/d02/vapplication_8h.html" target="_top" xlink:title=" ">
<polygon fill="white" stroke="#666666" points="1844,-151 1717,-151 1717,-121 1844,-121 1844,-151"/>
<text text-anchor="start" x="1725" y="-139" font-family="Helvetica,sans-Serif" font-size="10.00">src/app/seamly2d/core</text>
<text text-anchor="middle" x="1780.5" y="-128" font-family="Helvetica,sans-Serif" font-size="10.00">/vapplication.h</text>
</a>
</g>
</g>
<!-- Node1&#45;&gt;Node2 -->
<g id="edge1_Node000001_Node000002" class="edge">
<title>Node1&#45;&gt;Node2</title>
<g id="a_edge1_Node000001_Node000002"><a xlink:title=" ">
<path fill="none" stroke="#63b8ff" d="M1540.79,-185.02C1590.15,-175.14 1664.24,-160.29 1716.97,-149.73"/>
<polygon fill="#63b8ff" stroke="#63b8ff" points="1540.08,-181.6 1530.96,-186.99 1541.45,-188.46 1540.08,-181.6"/>
</a>
</g>
</g>
<!-- Node6 -->
<g id="Node000006" class="node">
<title>Node6</title>
<g id="a_Node000006"><a xlink:href="../../d7/dfa/calculator__dialog_8cpp.html" target="_top" xlink:title=" ">
<polygon fill="white" stroke="#666666" points="141,-85 0,-85 0,-55 141,-55 141,-85"/>
<text text-anchor="start" x="8" y="-73" font-family="Helvetica,sans-Serif" font-size="10.00">src/app/seamly2d/dialogs</text>
<text text-anchor="middle" x="70.5" y="-62" font-family="Helvetica,sans-Serif" font-size="10.00">/calculator_dialog.cpp</text>
</a>
</g>
</g>
<!-- Node1&#45;&gt;Node6 -->
<g id="edge24_Node000001_Node000006" class="edge">
<title>Node1&#45;&gt;Node6</title>
<g id="a_edge24_Node000001_Node000006"><a xlink:title=" ">
<path fill="none" stroke="#63b8ff" d="M1402.54,-194.98C1235.41,-193.18 855.19,-185.32 537.5,-151 393.77,-135.47 227.28,-103.56 137.03,-85.08"/>
<polygon fill="#63b8ff" stroke="#63b8ff" points="1402.72,-198.48 1412.75,-195.08 1402.79,-191.48 1402.72,-198.48"/>
</a>
</g>
</g>
<!-- Node9 -->
<g id="Node000009" class="node">
<title>Node9</title>
<g id="a_Node000009"><a xlink:href="../../dc/d20/preferencespathpage_8cpp.html" target="_top" xlink:title=" ">
<polygon fill="white" stroke="#666666" points="364,-85 159,-85 159,-55 364,-55 364,-85"/>
<text text-anchor="start" x="167" y="-73" font-family="Helvetica,sans-Serif" font-size="10.00">src/app/seamly2d/dialogs</text>
<text text-anchor="middle" x="261.5" y="-62" font-family="Helvetica,sans-Serif" font-size="10.00">/configpages/preferencespathpage.cpp</text>
</a>
</g>
</g>
<!-- Node1&#45;&gt;Node9 -->
<g id="edge25_Node000001_Node000009" class="edge">
<title>Node1&#45;&gt;Node9</title>
<g id="a_edge25_Node000001_Node000009"><a xlink:title=" ">
<path fill="none" stroke="#63b8ff" d="M1402.64,-193.41C1262.86,-189.33 977.59,-178.21 737.5,-151 591.99,-134.51 423.34,-103.26 330.94,-85.08"/>
<polygon fill="#63b8ff" stroke="#63b8ff" points="1402.76,-196.91 1412.85,-193.7 1402.96,-189.92 1402.76,-196.91"/>
</a>
</g>
</g>
<!-- Node12 -->
<g id="Node000012" class="node">
<title>Node12</title>
<g id="a_Node000012"><a xlink:href="../../dd/d64/dialogaboutapp_8cpp.html" target="_top" xlink:title=" ">
<polygon fill="white" stroke="#666666" points="523,-85 382,-85 382,-55 523,-55 523,-85"/>
<text text-anchor="start" x="390" y="-73" font-family="Helvetica,sans-Serif" font-size="10.00">src/app/seamly2d/dialogs</text>
<text text-anchor="middle" x="452.5" y="-62" font-family="Helvetica,sans-Serif" font-size="10.00">/dialogaboutapp.cpp</text>
</a>
</g>
</g>
<!-- Node1&#45;&gt;Node12 -->
<g id="edge26_Node000001_Node000012" class="edge">
<title>Node1&#45;&gt;Node12</title>
<g id="a_edge26_Node000001_Node000012"><a xlink:title=" ">
<path fill="none" stroke="#63b8ff" d="M1402.71,-190.33C1296.54,-183.49 1110.32,-170.03 951.5,-151 763.89,-128.52 717.87,-116.15 531.5,-85 528.75,-84.54 525.95,-84.07 523.12,-83.59"/>
<polygon fill="#63b8ff" stroke="#63b8ff" points="1402.53,-193.83 1412.73,-190.98 1402.98,-186.84 1402.53,-193.83"/>
</a>
</g>
</g>
<!-- Node13 -->
<g id="Node000013" class="node">
<title>Node13</title>
<g id="a_Node000013"><a xlink:href="../../d6/d89/dialoglayoutprogress_8cpp.html" target="_top" xlink:title=" ">
<polygon fill="white" stroke="#666666" points="684,-85 541,-85 541,-55 684,-55 684,-85"/>
<text text-anchor="start" x="549" y="-73" font-family="Helvetica,sans-Serif" font-size="10.00">src/app/seamly2d/dialogs</text>
<text text-anchor="middle" x="612.5" y="-62" font-family="Helvetica,sans-Serif" font-size="10.00">/dialoglayoutprogress.cpp</text>
</a>
</g>
</g>
<!-- Node1&#45;&gt;Node13 -->
<g id="edge27_Node000001_Node000013" class="edge">
<title>Node1&#45;&gt;Node13</title>
<g id="a_edge27_Node000001_Node000013"><a xlink:title=" ">
<path fill="none" stroke="#63b8ff" d="M1411.34,-185.71C1269.02,-167.45 955.65,-126.28 692.5,-85 689.71,-84.56 686.88,-84.11 684.01,-83.64"/>
<polygon fill="#63b8ff" stroke="#63b8ff" points="1410.93,-189.18 1421.29,-186.98 1411.82,-182.24 1410.93,-189.18"/>
</a>
</g>
</g>
<!-- Node16 -->
<g id="Node000016" class="node">
<title>Node16</title>
<g id="a_Node000016"><a xlink:href="../../dd/d54/export__layout__dialog_8cpp.html" target="_top" xlink:title=" ">
<polygon fill="white" stroke="#666666" points="3669,-85 3526,-85 3526,-55 3669,-55 3669,-85"/>
<text text-anchor="start" x="3534" y="-73" font-family="Helvetica,sans-Serif" font-size="10.00">src/app/seamly2d/dialogs</text>
<text text-anchor="middle" x="3597.5" y="-62" font-family="Helvetica,sans-Serif" font-size="10.00">/export_layout_dialog.cpp</text>
</a>
</g>
</g>
<!-- Node1&#45;&gt;Node16 -->
<g id="edge32_Node000001_Node000016" class="edge">
<title>Node1&#45;&gt;Node16</title>
<g id="a_edge32_Node000001_Node000016"><a xlink:title=" ">
<path fill="none" stroke="#63b8ff" d="M1574.12,-194.09C1853.51,-188.8 2763.66,-166.06 3511.5,-85 3516.16,-84.49 3520.96,-83.91 3525.78,-83.26"/>
<polygon fill="#63b8ff" stroke="#63b8ff" points="1573.99,-190.59 1564.05,-194.28 1574.12,-197.59 1573.99,-190.59"/>
</a>
</g>
</g>
<!-- Node22 -->
<g id="Node000022" class="node">
<title>Node22</title>
<g id="a_Node000022"><a xlink:href="../../d8/dd9/mainwindow_8cpp.html" target="_top" xlink:title=" ">
<polygon fill="white" stroke="#666666" points="4024.5,-19 3836.5,-19 3836.5,0 4024.5,0 4024.5,-19"/>
<text text-anchor="middle" x="3930.5" y="-7" font-family="Helvetica,sans-Serif" font-size="10.00">src/app/seamly2d/mainwindow.cpp</text>
</a>
</g>
</g>
<!-- Node1&#45;&gt;Node22 -->
<g id="edge33_Node000001_Node000022" class="edge">
<title>Node1&#45;&gt;Node22</title>
<g id="a_edge33_Node000001_Node000022"><a xlink:title=" ">
<path fill="none" stroke="#63b8ff" d="M1574.48,-195.71C1971.67,-196.43 3619.07,-196.62 3844.5,-151 3921.91,-135.33 3965.22,-150.4 4009.5,-85 4016.98,-73.96 4016.23,-66.51 4009.5,-55 3999.02,-37.06 3978.34,-25.79 3960.77,-19.08"/>
<polygon fill="#63b8ff" stroke="#63b8ff" points="1574.22,-192.21 1564.21,-195.69 1574.21,-199.21 1574.22,-192.21"/>
</a>
</g>
</g>
<!-- Node25 -->
<g id="Node000025" class="node">
<title>Node25</title>
<g id="a_Node000025"><a xlink:href="../../d5/d4e/dialogpatternproperties_8h.html" target="_top" xlink:title=" ">
<polygon fill="white" stroke="#666666" points="3836,-151 3693,-151 3693,-121 3836,-121 3836,-151"/>
<text text-anchor="start" x="3701" y="-139" font-family="Helvetica,sans-Serif" font-size="10.00">src/app/seamly2d/dialogs</text>
<text text-anchor="middle" x="3764.5" y="-128" font-family="Helvetica,sans-Serif" font-size="10.00">/dialogpatternproperties.h</text>
</a>
</g>
</g>
<!-- Node1&#45;&gt;Node25 -->
<g id="edge28_Node000001_Node000025" class="edge">
<title>Node1&#45;&gt;Node25</title>
<g id="a_edge28_Node000001_Node000025"><a xlink:title=" ">
<path fill="none" stroke="#63b8ff" d="M1574.46,-193.29C1939.35,-183.91 3356.77,-147.48 3692.78,-138.84"/>
<polygon fill="#63b8ff" stroke="#63b8ff" points="1574.13,-189.8 1564.23,-193.55 1574.31,-196.8 1574.13,-189.8"/>
</a>
</g>
</g>
<!-- Node3 -->
<g id="Node000003" class="node">
<title>Node3</title>
<g id="a_Node000003"><a xlink:href="../../d3/dd8/vapplication_8cpp.html" target="_top" xlink:title=" ">
<polygon fill="white" stroke="#666666" points="2179,-85 2052,-85 2052,-55 2179,-55 2179,-85"/>
<text text-anchor="start" x="2060" y="-73" font-family="Helvetica,sans-Serif" font-size="10.00">src/app/seamly2d/core</text>
<text text-anchor="middle" x="2115.5" y="-62" font-family="Helvetica,sans-Serif" font-size="10.00">/vapplication.cpp</text>
</a>
</g>
</g>
<!-- Node2&#45;&gt;Node3 -->
<g id="edge2_Node000002_Node000003" class="edge">
<title>Node2&#45;&gt;Node3</title>
<g id="a_edge2_Node000002_Node000003"><a xlink:title=" ">
<path fill="none" stroke="#63b8ff" d="M1853.93,-121C1906.46,-110.99 1978.83,-97.18 2042.5,-85 2045.54,-84.42 2048.66,-83.82 2051.8,-83.22"/>
<polygon fill="#63b8ff" stroke="#63b8ff" points="1853.2,-117.58 1844.03,-122.89 1854.51,-124.46 1853.2,-117.58"/>
</a>
</g>
</g>
<!-- Node4 -->
<g id="Node000004" class="node">
<title>Node4</title>
<g id="a_Node000004"><a xlink:href="../../d2/d00/vtooloptionspropertybrowser_8cpp.html" target="_top" xlink:title=" ">
<polygon fill="white" stroke="#666666" points="2377.5,-85 2197.5,-85 2197.5,-55 2377.5,-55 2377.5,-85"/>
<text text-anchor="start" x="2205.5" y="-73" font-family="Helvetica,sans-Serif" font-size="10.00">src/app/seamly2d/core</text>
<text text-anchor="middle" x="2287.5" y="-62" font-family="Helvetica,sans-Serif" font-size="10.00">/vtooloptionspropertybrowser.cpp</text>
</a>
</g>
</g>
<!-- Node2&#45;&gt;Node4 -->
<g id="edge3_Node000002_Node000004" class="edge">
<title>Node2&#45;&gt;Node4</title>
<g id="a_edge3_Node000002_Node000004"><a xlink:title=" ">
<path fill="none" stroke="#63b8ff" d="M1854.51,-126.29C1936.11,-116.59 2071.24,-100.28 2187.5,-85 2190.72,-84.58 2193.99,-84.14 2197.29,-83.7"/>
<polygon fill="#63b8ff" stroke="#63b8ff" points="1853.86,-122.84 1844.34,-127.49 1854.68,-129.79 1853.86,-122.84"/>
</a>
</g>
</g>
<!-- Node5 -->
<g id="Node000005" class="node">
<title>Node5</title>
<g id="a_Node000005"><a xlink:href="../../dd/db4/abstractlayout__dialog_8cpp.html" target="_top" xlink:title=" ">
<polygon fill="white" stroke="#666666" points="2541.5,-85 2395.5,-85 2395.5,-55 2541.5,-55 2541.5,-85"/>
<text text-anchor="start" x="2403.5" y="-73" font-family="Helvetica,sans-Serif" font-size="10.00">src/app/seamly2d/dialogs</text>
<text text-anchor="middle" x="2468.5" y="-62" font-family="Helvetica,sans-Serif" font-size="10.00">/abstractlayout_dialog.cpp</text>
</a>
</g>
</g>
<!-- Node2&#45;&gt;Node5 -->
<g id="edge4_Node000002_Node000005" class="edge">
<title>Node2&#45;&gt;Node5</title>
<g id="a_edge4_Node000002_Node000005"><a xlink:title=" ">
<path fill="none" stroke="#63b8ff" d="M1854.42,-130.97C1968.79,-124.28 2195.37,-109.15 2386.5,-85 2389.37,-84.64 2392.28,-84.25 2395.23,-83.83"/>
<polygon fill="#63b8ff" stroke="#63b8ff" points="1854.16,-127.48 1844.38,-131.56 1854.57,-134.47 1854.16,-127.48"/>
</a>
</g>
</g>
<!-- Node2&#45;&gt;Node6 -->
<g id="edge5_Node000002_Node000006" class="edge">
<title>Node2&#45;&gt;Node6</title>
<g id="a_edge5_Node000002_Node000006"><a xlink:title=" ">
<path fill="none" stroke="#63b8ff" d="M1706.29,-134.15C1429.53,-130.77 457.62,-116.86 149.5,-85 146.73,-84.71 143.91,-84.39 141.06,-84.03"/>
<polygon fill="#63b8ff" stroke="#63b8ff" points="1706.58,-137.66 1716.62,-134.28 1706.67,-130.66 1706.58,-137.66"/>
</a>
</g>
</g>
<!-- Node7 -->
<g id="Node000007" class="node">
<title>Node7</title>
<g id="a_Node000007"><a xlink:href="../../d2/d2d/preferencesconfigurationpage_8cpp.html" target="_top" xlink:title=" ">
<polygon fill="white" stroke="#666666" points="2807,-85 2560,-85 2560,-55 2807,-55 2807,-85"/>
<text text-anchor="start" x="2568" y="-73" font-family="Helvetica,sans-Serif" font-size="10.00">src/app/seamly2d/dialogs</text>
<text text-anchor="middle" x="2683.5" y="-62" font-family="Helvetica,sans-Serif" font-size="10.00">/configpages/preferencesconfigurationpage.cpp</text>
</a>
</g>
</g>
<!-- Node2&#45;&gt;Node7 -->
<g id="edge6_Node000002_Node000007" class="edge">
<title>Node2&#45;&gt;Node7</title>
<g id="a_edge6_Node000002_Node000007"><a xlink:title=" ">
<path fill="none" stroke="#63b8ff" d="M1854.59,-131.18C1991.95,-123.87 2295.36,-106.7 2550.5,-85 2553.62,-84.73 2556.79,-84.46 2559.98,-84.17"/>
<polygon fill="#63b8ff" stroke="#63b8ff" points="1854,-127.7 1844.2,-131.73 1854.37,-134.69 1854,-127.7"/>
</a>
</g>
</g>
<!-- Node8 -->
<g id="Node000008" class="node">
<title>Node8</title>
<g id="a_Node000008"><a xlink:href="../../d9/d70/preferencesgraphicsviewpage_8cpp.html" target="_top" xlink:title=" ">
<polygon fill="white" stroke="#666666" points="3073.5,-85 2825.5,-85 2825.5,-55 3073.5,-55 3073.5,-85"/>
<text text-anchor="start" x="2833.5" y="-73" font-family="Helvetica,sans-Serif" font-size="10.00">src/app/seamly2d/dialogs</text>
<text text-anchor="middle" x="2949.5" y="-62" font-family="Helvetica,sans-Serif" font-size="10.00">/configpages/preferencesgraphicsviewpage.cpp</text>
</a>
</g>
</g>
<!-- Node2&#45;&gt;Node8 -->
<g id="edge7_Node000002_Node000008" class="edge">
<title>Node2&#45;&gt;Node8</title>
<g id="a_edge7_Node000002_Node000008"><a xlink:title=" ">
<path fill="none" stroke="#63b8ff" d="M1854.25,-132.85C2024.03,-127.6 2455.58,-112.47 2815.5,-85 2818.77,-84.75 2822.07,-84.49 2825.41,-84.21"/>
<polygon fill="#63b8ff" stroke="#63b8ff" points="1854.06,-129.36 1844.18,-133.16 1854.28,-136.35 1854.06,-129.36"/>
</a>
</g>
</g>
<!-- Node2&#45;&gt;Node9 -->
<g id="edge8_Node000002_Node000009" class="edge">
<title>Node2&#45;&gt;Node9</title>
<g id="a_edge8_Node000002_Node000009"><a xlink:title=" ">
<path fill="none" stroke="#63b8ff" d="M1706.62,-134.72C1497.17,-133.41 881.69,-126.07 372.5,-85 369.79,-84.78 367.04,-84.54 364.27,-84.29"/>
<polygon fill="#63b8ff" stroke="#63b8ff" points="1706.86,-138.22 1716.88,-134.78 1706.9,-131.22 1706.86,-138.22"/>
</a>
</g>
</g>
<!-- Node10 -->
<g id="Node000010" class="node">
<title>Node10</title>
<g id="a_Node000010"><a xlink:href="../../dc/d63/preferencespatternpage_8cpp.html" target="_top" xlink:title=" ">
<polygon fill="white" stroke="#666666" points="3309.5,-85 3091.5,-85 3091.5,-55 3309.5,-55 3309.5,-85"/>
<text text-anchor="start" x="3099.5" y="-73" font-family="Helvetica,sans-Serif" font-size="10.00">src/app/seamly2d/dialogs</text>
<text text-anchor="middle" x="3200.5" y="-62" font-family="Helvetica,sans-Serif" font-size="10.00">/configpages/preferencespatternpage.cpp</text>
</a>
</g>
</g>
<!-- Node2&#45;&gt;Node10 -->
<g id="edge9_Node000002_Node000010" class="edge">
<title>Node2&#45;&gt;Node10</title>
<g id="a_edge9_Node000002_Node000010"><a xlink:title=" ">
<path fill="none" stroke="#63b8ff" d="M1854.31,-134.22C2053.05,-131.69 2615.9,-121.58 3082.5,-85 3085.38,-84.77 3088.3,-84.53 3091.24,-84.27"/>
<polygon fill="#63b8ff" stroke="#63b8ff" points="1854.24,-130.73 1844.28,-134.35 1854.32,-137.72 1854.24,-130.73"/>
</a>
</g>
</g>
<!-- Node11 -->
<g id="Node000011" class="node">
<title>Node11</title>
<g id="a_Node000011"><a xlink:href="../../dd/dc2/decimalchart__dialog_8cpp.html" target="_top" xlink:title=" ">
<polygon fill="white" stroke="#666666" points="3469,-85 3328,-85 3328,-55 3469,-55 3469,-85"/>
<text text-anchor="start" x="3336" y="-73" font-family="Helvetica,sans-Serif" font-size="10.00">src/app/seamly2d/dialogs</text>
<text text-anchor="middle" x="3398.5" y="-62" font-family="Helvetica,sans-Serif" font-size="10.00">/decimalchart_dialog.cpp</text>
</a>
</g>
</g>
<!-- Node2&#45;&gt;Node11 -->
<g id="edge10_Node000002_Node000011" class="edge">
<title>Node2&#45;&gt;Node11</title>
<g id="a_edge10_Node000002_Node000011"><a xlink:title=" ">
<path fill="none" stroke="#63b8ff" d="M1854.44,-133.98C2120.61,-130.08 3029.38,-114.85 3318.5,-85 3321.59,-84.68 3324.73,-84.31 3327.91,-83.91"/>
<polygon fill="#63b8ff" stroke="#63b8ff" points="1854.07,-130.48 1844.12,-134.13 1854.17,-137.48 1854.07,-130.48"/>
</a>
</g>
</g>
<!-- Node2&#45;&gt;Node12 -->
<g id="edge11_Node000002_Node000012" class="edge">
<title>Node2&#45;&gt;Node12</title>
<g id="a_edge11_Node000002_Node000012"><a xlink:title=" ">
<path fill="none" stroke="#63b8ff" d="M1706.87,-135.52C1513.56,-136.15 975.83,-133.04 531.5,-85 528.73,-84.7 525.91,-84.36 523.07,-83.99"/>
<polygon fill="#63b8ff" stroke="#63b8ff" points="1706.93,-139.02 1716.91,-135.49 1706.9,-132.02 1706.93,-139.02"/>
</a>
</g>
</g>
<!-- Node2&#45;&gt;Node13 -->
<g id="edge12_Node000002_Node000013" class="edge">
<title>Node2&#45;&gt;Node13</title>
<g id="a_edge12_Node000002_Node000013"><a xlink:title=" ">
<path fill="none" stroke="#63b8ff" d="M1706.63,-134.84C1530.53,-133.76 1072.35,-126.79 692.5,-85 689.84,-84.71 687.13,-84.38 684.4,-84.03"/>
<polygon fill="#63b8ff" stroke="#63b8ff" points="1706.8,-138.34 1716.82,-134.9 1706.84,-131.34 1706.8,-138.34"/>
</a>
</g>
</g>
<!-- Node14 -->
<g id="Node000014" class="node">
<title>Node14</title>
<g id="a_Node000014"><a xlink:href="../../d5/d18/dialogpatternproperties_8cpp.html" target="_top" xlink:title=" ">
<polygon fill="white" stroke="#666666" points="3842,-85 3687,-85 3687,-55 3842,-55 3842,-85"/>
<text text-anchor="start" x="3695" y="-73" font-family="Helvetica,sans-Serif" font-size="10.00">src/app/seamly2d/dialogs</text>
<text text-anchor="middle" x="3764.5" y="-62" font-family="Helvetica,sans-Serif" font-size="10.00">/dialogpatternproperties.cpp</text>
</a>
</g>
</g>
<!-- Node2&#45;&gt;Node14 -->
<g id="edge13_Node000002_Node000014" class="edge">
<title>Node2&#45;&gt;Node14</title>
<g id="a_edge13_Node000002_Node000014"><a xlink:title=" ">
<path fill="none" stroke="#63b8ff" d="M1854.33,-134.37C2158.3,-131.57 3314.03,-118.88 3677.5,-85 3680.55,-84.72 3683.65,-84.39 3686.78,-84.03"/>
<polygon fill="#63b8ff" stroke="#63b8ff" points="1854.28,-130.87 1844.31,-134.46 1854.34,-137.87 1854.28,-130.87"/>
</a>
</g>
</g>
<!-- Node15 -->
<g id="Node000015" class="node">
<title>Node15</title>
<g id="a_Node000015"><a xlink:href="../../d5/dc5/dialogpreferences_8cpp.html" target="_top" xlink:title=" ">
<polygon fill="white" stroke="#666666" points="843,-85 702,-85 702,-55 843,-55 843,-85"/>
<text text-anchor="start" x="710" y="-73" font-family="Helvetica,sans-Serif" font-size="10.00">src/app/seamly2d/dialogs</text>
<text text-anchor="middle" x="772.5" y="-62" font-family="Helvetica,sans-Serif" font-size="10.00">/dialogpreferences.cpp</text>
</a>
</g>
</g>
<!-- Node2&#45;&gt;Node15 -->
<g id="edge14_Node000002_Node000015" class="edge">
<title>Node2&#45;&gt;Node15</title>
<g id="a_edge14_Node000002_Node000015"><a xlink:title=" ">
<path fill="none" stroke="#63b8ff" d="M1706.87,-134.08C1549.41,-131.43 1168.47,-121.48 851.5,-85 848.73,-84.68 845.92,-84.33 843.07,-83.94"/>
<polygon fill="#63b8ff" stroke="#63b8ff" points="1706.86,-137.58 1716.92,-134.24 1706.98,-130.58 1706.86,-137.58"/>
</a>
</g>
</g>
<!-- Node2&#45;&gt;Node16 -->
<g id="edge15_Node000002_Node000016" class="edge">
<title>Node2&#45;&gt;Node16</title>
<g id="a_edge15_Node000002_Node000016"><a xlink:title=" ">
<path fill="none" stroke="#63b8ff" d="M1854.4,-134.17C2141.4,-130.75 3182.42,-116.4 3511.5,-85 3516.17,-84.55 3520.97,-84.01 3525.8,-83.4"/>
<polygon fill="#63b8ff" stroke="#63b8ff" points="1854.06,-130.67 1844.11,-134.29 1854.15,-137.67 1854.06,-130.67"/>
</a>
</g>
</g>
<!-- Node17 -->
<g id="Node000017" class="node">
<title>Node17</title>
<g id="a_Node000017"><a xlink:href="../../db/d5c/groups__widget_8cpp.html" target="_top" xlink:title=" ">
<polygon fill="white" stroke="#666666" points="1002,-85 861,-85 861,-55 1002,-55 1002,-85"/>
<text text-anchor="start" x="869" y="-73" font-family="Helvetica,sans-Serif" font-size="10.00">src/app/seamly2d/dialogs</text>
<text text-anchor="middle" x="931.5" y="-62" font-family="Helvetica,sans-Serif" font-size="10.00">/groups_widget.cpp</text>
</a>
</g>
</g>
<!-- Node2&#45;&gt;Node17 -->
<g id="edge16_Node000002_Node000017" class="edge">
<title>Node2&#45;&gt;Node17</title>
<g id="a_edge16_Node000002_Node000017"><a xlink:title=" ">
<path fill="none" stroke="#63b8ff" d="M1706.49,-132.92C1568.97,-128.44 1264.88,-115.7 1010.5,-85 1007.73,-84.67 1004.92,-84.3 1002.08,-83.91"/>
<polygon fill="#63b8ff" stroke="#63b8ff" points="1706.79,-136.43 1716.9,-133.25 1707.02,-129.43 1706.79,-136.43"/>
</a>
</g>
</g>
<!-- Node18 -->
<g id="Node000018" class="node">
<title>Node18</title>
<g id="a_Node000018"><a xlink:href="../../d0/dfa/layoutsettings__dialog_8cpp.html" target="_top" xlink:title=" ">
<polygon fill="white" stroke="#666666" points="1165,-85 1020,-85 1020,-55 1165,-55 1165,-85"/>
<text text-anchor="start" x="1028" y="-73" font-family="Helvetica,sans-Serif" font-size="10.00">src/app/seamly2d/dialogs</text>
<text text-anchor="middle" x="1092.5" y="-62" font-family="Helvetica,sans-Serif" font-size="10.00">/layoutsettings_dialog.cpp</text>
</a>
</g>
</g>
<!-- Node2&#45;&gt;Node18 -->
<g id="edge17_Node000002_Node000018" class="edge">
<title>Node2&#45;&gt;Node18</title>
<g id="a_edge17_Node000002_Node000018"><a xlink:title=" ">
<path fill="none" stroke="#63b8ff" d="M1706.9,-131.06C1592.49,-124.45 1365.17,-109.41 1173.5,-85 1170.81,-84.66 1168.07,-84.29 1165.31,-83.9"/>
<polygon fill="#63b8ff" stroke="#63b8ff" points="1706.77,-134.55 1716.95,-131.63 1707.17,-127.57 1706.77,-134.55"/>
</a>
</g>
</g>
<!-- Node19 -->
<g id="Node000019" class="node">
<title>Node19</title>
<g id="a_Node000019"><a xlink:href="../../dd/d84/shortcuts__dialog_8cpp.html" target="_top" xlink:title=" ">
<polygon fill="white" stroke="#666666" points="1324,-85 1183,-85 1183,-55 1324,-55 1324,-85"/>
<text text-anchor="start" x="1191" y="-73" font-family="Helvetica,sans-Serif" font-size="10.00">src/app/seamly2d/dialogs</text>
<text text-anchor="middle" x="1253.5" y="-62" font-family="Helvetica,sans-Serif" font-size="10.00">/shortcuts_dialog.cpp</text>
</a>
</g>
</g>
<!-- Node2&#45;&gt;Node19 -->
<g id="edge18_Node000002_Node000019" class="edge">
<title>Node2&#45;&gt;Node19</title>
<g id="a_edge18_Node000002_Node000019"><a xlink:title=" ">
<path fill="none" stroke="#63b8ff" d="M1706.92,-128.25C1618,-119.76 1463.96,-103.96 1332.5,-85 1329.74,-84.6 1326.93,-84.18 1324.1,-83.74"/>
<polygon fill="#63b8ff" stroke="#63b8ff" points="1706.62,-131.74 1716.9,-129.2 1707.28,-124.77 1706.62,-131.74"/>
</a>
</g>
</g>
<!-- Node20 -->
<g id="Node000020" class="node">
<title>Node20</title>
<g id="a_Node000020"><a xlink:href="../../d2/df4/show__info__dialog_8cpp.html" target="_top" xlink:title=" ">
<polygon fill="white" stroke="#666666" points="1483,-85 1342,-85 1342,-55 1483,-55 1483,-85"/>
<text text-anchor="start" x="1350" y="-73" font-family="Helvetica,sans-Serif" font-size="10.00">src/app/seamly2d/dialogs</text>
<text text-anchor="middle" x="1412.5" y="-62" font-family="Helvetica,sans-Serif" font-size="10.00">/show_info_dialog.cpp</text>
</a>
</g>
</g>
<!-- Node2&#45;&gt;Node20 -->
<g id="edge19_Node000002_Node000020" class="edge">
<title>Node2&#45;&gt;Node20</title>
<g id="a_edge19_Node000002_Node000020"><a xlink:title=" ">
<path fill="none" stroke="#63b8ff" d="M1706.9,-122.35C1648.49,-112.29 1564.75,-97.83 1491.5,-85 1488.76,-84.52 1485.96,-84.03 1483.13,-83.53"/>
<polygon fill="#63b8ff" stroke="#63b8ff" points="1706.33,-125.8 1716.78,-124.05 1707.52,-118.91 1706.33,-125.8"/>
</a>
</g>
</g>
<!-- Node21 -->
<g id="Node000021" class="node">
<title>Node21</title>
<g id="a_Node000021"><a xlink:href="../../dc/d14/app_2seamly2d_2main_8cpp.html" target="_top" xlink:title=" ">
<polygon fill="white" stroke="#666666" points="1652,-79.5 1501,-79.5 1501,-60.5 1652,-60.5 1652,-79.5"/>
<text text-anchor="middle" x="1576.5" y="-67.5" font-family="Helvetica,sans-Serif" font-size="10.00">src/app/seamly2d/main.cpp</text>
</a>
</g>
</g>
<!-- Node2&#45;&gt;Node21 -->
<g id="edge20_Node000002_Node000021" class="edge">
<title>Node2&#45;&gt;Node21</title>
<g id="a_edge20_Node000002_Node000021"><a xlink:title=" ">
<path fill="none" stroke="#63b8ff" d="M1725.97,-117.89C1686.47,-105.5 1634.74,-89.27 1603.65,-79.52"/>
<polygon fill="#63b8ff" stroke="#63b8ff" points="1725.14,-121.3 1735.73,-120.95 1727.24,-114.62 1725.14,-121.3"/>
</a>
</g>
</g>
<!-- Node2&#45;&gt;Node22 -->
<g id="edge21_Node000002_Node000022" class="edge">
<title>Node2&#45;&gt;Node22</title>
<g id="a_edge21_Node000002_Node000022"><a xlink:title=" ">
<path fill="none" stroke="#63b8ff" d="M1854.63,-134.09C2171.58,-130.03 3400.17,-112.58 3477.5,-85 3498.1,-77.65 3496.2,-63.14 3516.5,-55 3572.69,-32.47 3732.59,-20.37 3836.42,-14.7"/>
<polygon fill="#63b8ff" stroke="#63b8ff" points="1854.14,-130.59 1844.19,-134.22 1854.23,-137.59 1854.14,-130.59"/>
</a>
</g>
</g>
<!-- Node23 -->
<g id="Node000023" class="node">
<title>Node23</title>
<g id="a_Node000023"><a xlink:href="../../d8/de8/mainwindowsnogui_8cpp.html" target="_top" xlink:title=" ">
<polygon fill="white" stroke="#666666" points="1891,-79.5 1670,-79.5 1670,-60.5 1891,-60.5 1891,-79.5"/>
<text text-anchor="middle" x="1780.5" y="-67.5" font-family="Helvetica,sans-Serif" font-size="10.00">src/app/seamly2d/mainwindowsnogui.cpp</text>
</a>
</g>
</g>
<!-- Node2&#45;&gt;Node23 -->
<g id="edge22_Node000002_Node000023" class="edge">
<title>Node2&#45;&gt;Node23</title>
<g id="a_edge22_Node000002_Node000023"><a xlink:title=" ">
<path fill="none" stroke="#63b8ff" d="M1780.5,-110.6C1780.5,-99.8 1780.5,-87.78 1780.5,-79.84"/>
<polygon fill="#63b8ff" stroke="#63b8ff" points="1777,-110.8 1780.5,-120.8 1784,-110.8 1777,-110.8"/>
</a>
</g>
</g>
<!-- Node24 -->
<g id="Node000024" class="node">
<title>Node24</title>
<g id="a_Node000024"><a xlink:href="../../d3/d49/vpattern_8cpp.html" target="_top" xlink:title=" ">
<polygon fill="white" stroke="#666666" points="2034,-85 1909,-85 1909,-55 2034,-55 2034,-85"/>
<text text-anchor="start" x="1917" y="-73" font-family="Helvetica,sans-Serif" font-size="10.00">src/app/seamly2d/xml</text>
<text text-anchor="middle" x="1971.5" y="-62" font-family="Helvetica,sans-Serif" font-size="10.00">/vpattern.cpp</text>
</a>
</g>
</g>
<!-- Node2&#45;&gt;Node24 -->
<g id="edge23_Node000002_Node000024" class="edge">
<title>Node2&#45;&gt;Node24</title>
<g id="a_edge23_Node000002_Node000024"><a xlink:title=" ">
<path fill="none" stroke="#63b8ff" d="M1832.06,-117.72C1862.66,-107.47 1900.97,-94.63 1929.68,-85.01"/>
<polygon fill="#63b8ff" stroke="#63b8ff" points="1830.79,-114.46 1822.42,-120.95 1833.01,-121.1 1830.79,-114.46"/>
</a>
</g>
</g>
<!-- Node25&#45;&gt;Node14 -->
<g id="edge29_Node000025_Node000014" class="edge">
<title>Node25&#45;&gt;Node14</title>
<g id="a_edge29_Node000025_Node000014"><a xlink:title=" ">
<path fill="none" stroke="#63b8ff" d="M3764.5,-110.54C3764.5,-101.96 3764.5,-92.61 3764.5,-85.16"/>
<polygon fill="#63b8ff" stroke="#63b8ff" points="3761,-110.8 3764.5,-120.8 3768,-110.8 3761,-110.8"/>
</a>
</g>
</g>
<!-- Node26 -->
<g id="Node000026" class="node">
<title>Node26</title>
<g id="a_Node000026"><a xlink:href="../../d6/d64/dialogs_8h.html" target="_top" xlink:title=" ">
<polygon fill="white" stroke="#666666" points="4001,-85 3860,-85 3860,-55 4001,-55 4001,-85"/>
<text text-anchor="start" x="3868" y="-73" font-family="Helvetica,sans-Serif" font-size="10.00">src/app/seamly2d/dialogs</text>
<text text-anchor="middle" x="3930.5" y="-62" font-family="Helvetica,sans-Serif" font-size="10.00">/dialogs.h</text>
</a>
</g>
</g>
<!-- Node25&#45;&gt;Node26 -->
<g id="edge30_Node000025_Node000026" class="edge">
<title>Node25&#45;&gt;Node26</title>
<g id="a_edge30_Node000025_Node000026"><a xlink:title=" ">
<path fill="none" stroke="#63b8ff" d="M3810.35,-117.32C3836.77,-107.14 3869.52,-94.51 3894.16,-85.01"/>
<polygon fill="#63b8ff" stroke="#63b8ff" points="3809,-114.09 3800.93,-120.95 3811.52,-120.62 3809,-114.09"/>
</a>
</g>
</g>
<!-- Node26&#45;&gt;Node22 -->
<g id="edge31_Node000026_Node000022" class="edge">
<title>Node26&#45;&gt;Node22</title>
<g id="a_edge31_Node000026_Node000022"><a xlink:title=" ">
<path fill="none" stroke="#63b8ff" d="M3930.5,-44.75C3930.5,-35.72 3930.5,-26.03 3930.5,-19.27"/>
<polygon fill="#63b8ff" stroke="#63b8ff" points="3927,-44.84 3930.5,-54.84 3934,-44.84 3927,-44.84"/>
</a>
</g>
</g>
</g>
</svg>
