<?xml version="1.0" encoding="UTF-8" standalone="no"?>
<!DOCTYPE svg PUBLIC "-//W3C//DTD SVG 1.1//EN"
 "http://www.w3.org/Graphics/SVG/1.1/DTD/svg11.dtd">
<!-- Generated by graphviz version 2.43.0 (0)
 -->
<!-- Title: src/app/seamly2d/options.h Pages: 1 -->
<svg width="4033pt" height="218pt"
 viewBox="0.00 0.00 4032.50 218.00" xmlns="http://www.w3.org/2000/svg" xmlns:xlink="http://www.w3.org/1999/xlink">
<g id="graph0" class="graph" transform="scale(1 1) rotate(0) translate(4 214)">
<title>src/app/seamly2d/options.h</title>
<polygon fill="white" stroke="transparent" points="-4,4 -4,-214 4028.5,-214 4028.5,4 -4,4"/>
<!-- Node1 -->
<g id="node1" class="node">
<title>Node1</title>
<g id="a_node1"><a xlink:title=" ">
<polygon fill="#bfbfbf" stroke="black" points="1494,-190.5 1494,-209.5 1645,-209.5 1645,-190.5 1494,-190.5"/>
<text text-anchor="middle" x="1569.5" y="-197.5" font-family="Helvetica,sans-Serif" font-size="10.00">src/app/seamly2d/options.h</text>
</a>
</g>
</g>
<!-- Node2 -->
<g id="node2" class="node">
<title>Node2</title>
<g id="a_node2"><a xlink:href="../../d9/d02/vapplication_8h.html" target="_top" xlink:title=" ">
<polygon fill="white" stroke="black" points="1825,-123.5 1825,-153.5 1952,-153.5 1952,-123.5 1825,-123.5"/>
<text text-anchor="start" x="1833" y="-141.5" font-family="Helvetica,sans-Serif" font-size="10.00">src/app/seamly2d/core</text>
<text text-anchor="middle" x="1888.5" y="-130.5" font-family="Helvetica,sans-Serif" font-size="10.00">/vapplication.h</text>
</a>
</g>
</g>
<!-- Node1&#45;&gt;Node2 -->
<g id="edge1" class="edge">
<title>Node1&#45;&gt;Node2</title>
<path fill="none" stroke="midnightblue" d="M1625.26,-188.6C1681.01,-178.2 1766.65,-162.23 1824.99,-151.35"/>
<polygon fill="midnightblue" stroke="midnightblue" points="1624.39,-185.2 1615.2,-190.48 1625.68,-192.08 1624.39,-185.2"/>
</g>
<!-- Node5 -->
<g id="node5" class="node">
<title>Node5</title>
<g id="a_node5"><a xlink:href="../../d7/dfa/calculator__dialog_8cpp.html" target="_top" xlink:title=" ">
<polygon fill="white" stroke="black" points="0,-56.5 0,-86.5 141,-86.5 141,-56.5 0,-56.5"/>
<text text-anchor="start" x="8" y="-74.5" font-family="Helvetica,sans-Serif" font-size="10.00">src/app/seamly2d/dialogs</text>
<text text-anchor="middle" x="70.5" y="-63.5" font-family="Helvetica,sans-Serif" font-size="10.00">/calculator_dialog.cpp</text>
</a>
</g>
</g>
<!-- Node1&#45;&gt;Node5 -->
<g id="edge24" class="edge">
<title>Node1&#45;&gt;Node5</title>
<path fill="none" stroke="midnightblue" d="M1483.7,-199.25C1304.29,-198.92 876.6,-193.61 520.5,-154 380.83,-138.47 219.18,-105.45 132.71,-86.56"/>
<polygon fill="midnightblue" stroke="midnightblue" points="1483.86,-202.75 1493.86,-199.27 1483.87,-195.75 1483.86,-202.75"/>
</g>
<!-- Node7 -->
<g id="node7" class="node">
<title>Node7</title>
<g id="a_node7"><a xlink:href="../../dc/d20/preferencespathpage_8cpp.html" target="_top" xlink:title=" ">
<polygon fill="white" stroke="black" points="159,-56.5 159,-86.5 364,-86.5 364,-56.5 159,-56.5"/>
<text text-anchor="start" x="167" y="-74.5" font-family="Helvetica,sans-Serif" font-size="10.00">src/app/seamly2d/dialogs</text>
<text text-anchor="middle" x="261.5" y="-63.5" font-family="Helvetica,sans-Serif" font-size="10.00">/configpages/preferencespathpage.cpp</text>
</a>
</g>
</g>
<!-- Node1&#45;&gt;Node7 -->
<g id="edge25" class="edge">
<title>Node1&#45;&gt;Node7</title>
<path fill="none" stroke="midnightblue" d="M1483.65,-197.73C1331.59,-194.74 1005.16,-184.97 731.5,-154 586.46,-137.59 418.36,-105.14 327.69,-86.52"/>
<polygon fill="midnightblue" stroke="midnightblue" points="1483.78,-201.23 1493.85,-197.93 1483.92,-194.23 1483.78,-201.23"/>
</g>
<!-- Node10 -->
<g id="node10" class="node">
<title>Node10</title>
<g id="a_node10"><a xlink:href="../../dd/d64/dialogaboutapp_8cpp.html" target="_top" xlink:title=" ">
<polygon fill="white" stroke="black" points="382,-56.5 382,-86.5 523,-86.5 523,-56.5 382,-56.5"/>
<text text-anchor="start" x="390" y="-74.5" font-family="Helvetica,sans-Serif" font-size="10.00">src/app/seamly2d/dialogs</text>
<text text-anchor="middle" x="452.5" y="-63.5" font-family="Helvetica,sans-Serif" font-size="10.00">/dialogaboutapp.cpp</text>
</a>
</g>
</g>
<!-- Node1&#45;&gt;Node10 -->
<g id="edge26" class="edge">
<title>Node1&#45;&gt;Node10</title>
<path fill="none" stroke="midnightblue" d="M1483.41,-194.99C1364.29,-188.92 1142.57,-175.74 954.5,-154 765.41,-132.15 719.12,-119.07 531.5,-87 528.75,-86.53 525.95,-86.05 523.12,-85.55"/>
<polygon fill="midnightblue" stroke="midnightblue" points="1483.4,-198.49 1493.56,-195.5 1483.75,-191.5 1483.4,-198.49"/>
</g>
<!-- Node12 -->
<g id="node12" class="node">
<title>Node12</title>
<g id="a_node12"><a xlink:href="../../d6/d89/dialoglayoutprogress_8cpp.html" target="_top" xlink:title=" ">
<polygon fill="white" stroke="black" points="541,-56.5 541,-86.5 684,-86.5 684,-56.5 541,-56.5"/>
<text text-anchor="start" x="549" y="-74.5" font-family="Helvetica,sans-Serif" font-size="10.00">src/app/seamly2d/dialogs</text>
<text text-anchor="middle" x="612.5" y="-63.5" font-family="Helvetica,sans-Serif" font-size="10.00">/dialoglayoutprogress.cpp</text>
</a>
</g>
</g>
<!-- Node1&#45;&gt;Node12 -->
<g id="edge27" class="edge">
<title>Node1&#45;&gt;Node12</title>
<path fill="none" stroke="midnightblue" d="M1483.67,-189.47C1326.55,-171.7 982.3,-131.28 693.5,-87 690.39,-86.52 687.22,-86.02 684.02,-85.5"/>
<polygon fill="midnightblue" stroke="midnightblue" points="1483.41,-192.96 1493.74,-190.61 1484.2,-186.01 1483.41,-192.96"/>
</g>
<!-- Node16 -->
<g id="node16" class="node">
<title>Node16</title>
<g id="a_node16"><a xlink:href="../../dd/d54/export__layout__dialog_8cpp.html" target="_top" xlink:title=" ">
<polygon fill="white" stroke="black" points="3526,-56.5 3526,-86.5 3669,-86.5 3669,-56.5 3526,-56.5"/>
<text text-anchor="start" x="3534" y="-74.5" font-family="Helvetica,sans-Serif" font-size="10.00">src/app/seamly2d/dialogs</text>
<text text-anchor="middle" x="3597.5" y="-63.5" font-family="Helvetica,sans-Serif" font-size="10.00">/export_layout_dialog.cpp</text>
</a>
</g>
</g>
<!-- Node1&#45;&gt;Node16 -->
<g id="edge32" class="edge">
<title>Node1&#45;&gt;Node16</title>
<path fill="none" stroke="midnightblue" d="M1655.65,-197.72C1928.95,-192.86 2800.66,-171.35 3516.5,-87 3519.48,-86.65 3522.52,-86.26 3525.58,-85.84"/>
<polygon fill="midnightblue" stroke="midnightblue" points="1655.35,-194.22 1645.41,-197.9 1655.47,-201.22 1655.35,-194.22"/>
</g>
<!-- Node24 -->
<g id="node24" class="node">
<title>Node24</title>
<g id="a_node24"><a xlink:href="../../d8/dd9/mainwindow_8cpp.html" target="_top" xlink:title=" ">
<polygon fill="white" stroke="black" points="3836.5,-0.5 3836.5,-19.5 4024.5,-19.5 4024.5,-0.5 3836.5,-0.5"/>
<text text-anchor="middle" x="3930.5" y="-7.5" font-family="Helvetica,sans-Serif" font-size="10.00">src/app/seamly2d/mainwindow.cpp</text>
</a>
</g>
</g>
<!-- Node1&#45;&gt;Node24 -->
<g id="edge33" class="edge">
<title>Node1&#45;&gt;Node24</title>
<path fill="none" stroke="midnightblue" d="M1655.09,-199.15C2043.09,-199.59 3627.43,-198.62 3844.5,-154 3922.03,-138.06 3965.3,-152.66 4009.5,-87 4017.19,-75.57 4016.42,-67.91 4009.5,-56 3998.95,-37.85 3978.04,-26.41 3960.38,-19.61"/>
<polygon fill="midnightblue" stroke="midnightblue" points="1655.05,-195.65 1645.05,-199.14 1655.05,-202.65 1655.05,-195.65"/>
</g>
<!-- Node25 -->
<g id="node25" class="node">
<title>Node25</title>
<g id="a_node25"><a xlink:href="../../d5/d4e/dialogpatternproperties_8h.html" target="_top" xlink:title=" ">
<polygon fill="white" stroke="black" points="3693,-123.5 3693,-153.5 3836,-153.5 3836,-123.5 3693,-123.5"/>
<text text-anchor="start" x="3701" y="-141.5" font-family="Helvetica,sans-Serif" font-size="10.00">src/app/seamly2d/dialogs</text>
<text text-anchor="middle" x="3764.5" y="-130.5" font-family="Helvetica,sans-Serif" font-size="10.00">/dialogpatternproperties.h</text>
</a>
</g>
</g>
<!-- Node1&#45;&gt;Node25 -->
<g id="edge28" class="edge">
<title>Node1&#45;&gt;Node25</title>
<path fill="none" stroke="midnightblue" d="M1655.28,-196.67C2010.82,-187.04 3365.36,-150.32 3692.89,-141.44"/>
<polygon fill="midnightblue" stroke="midnightblue" points="1654.96,-193.18 1645.06,-196.95 1655.15,-200.18 1654.96,-193.18"/>
</g>
<!-- Node3 -->
<g id="node3" class="node">
<title>Node3</title>
<g id="a_node3"><a xlink:href="../../d3/dd8/vapplication_8cpp.html" target="_top" xlink:title=" ">
<polygon fill="white" stroke="black" points="2160,-56.5 2160,-86.5 2287,-86.5 2287,-56.5 2160,-56.5"/>
<text text-anchor="start" x="2168" y="-74.5" font-family="Helvetica,sans-Serif" font-size="10.00">src/app/seamly2d/core</text>
<text text-anchor="middle" x="2223.5" y="-63.5" font-family="Helvetica,sans-Serif" font-size="10.00">/vapplication.cpp</text>
</a>
</g>
</g>
<!-- Node2&#45;&gt;Node3 -->
<g id="edge2" class="edge">
<title>Node2&#45;&gt;Node3</title>
<path fill="none" stroke="midnightblue" d="M1961.95,-123.46C2014.49,-113.39 2086.86,-99.45 2150.5,-87 2153.54,-86.4 2156.66,-85.79 2159.8,-85.17"/>
<polygon fill="midnightblue" stroke="midnightblue" points="1961.21,-120.04 1952.05,-125.36 1962.53,-126.91 1961.21,-120.04"/>
</g>
<!-- Node4 -->
<g id="node4" class="node">
<title>Node4</title>
<g id="a_node4"><a xlink:href="../../dd/db4/abstractlayout__dialog_8cpp.html" target="_top" xlink:title=" ">
<polygon fill="white" stroke="black" points="2305.5,-56.5 2305.5,-86.5 2451.5,-86.5 2451.5,-56.5 2305.5,-56.5"/>
<text text-anchor="start" x="2313.5" y="-74.5" font-family="Helvetica,sans-Serif" font-size="10.00">src/app/seamly2d/dialogs</text>
<text text-anchor="middle" x="2378.5" y="-63.5" font-family="Helvetica,sans-Serif" font-size="10.00">/abstractlayout_dialog.cpp</text>
</a>
</g>
</g>
<!-- Node2&#45;&gt;Node4 -->
<g id="edge3" class="edge">
<title>Node2&#45;&gt;Node4</title>
<path fill="none" stroke="midnightblue" d="M1962.26,-129.46C2043.91,-120.3 2179.34,-104.34 2295.5,-87 2298.68,-86.52 2301.93,-86.02 2305.21,-85.51"/>
<polygon fill="midnightblue" stroke="midnightblue" points="1961.63,-126.01 1952.08,-130.6 1962.41,-132.96 1961.63,-126.01"/>
</g>
<!-- Node2&#45;&gt;Node5 -->
<g id="edge4" class="edge">
<title>Node2&#45;&gt;Node5</title>
<path fill="none" stroke="midnightblue" d="M1814.24,-136.85C1525.84,-134.1 479.76,-121.9 149.5,-87 146.73,-86.71 143.9,-86.37 141.06,-86"/>
<polygon fill="midnightblue" stroke="midnightblue" points="1814.55,-140.36 1824.58,-136.95 1814.62,-133.36 1814.55,-140.36"/>
</g>
<!-- Node6 -->
<g id="node6" class="node">
<title>Node6</title>
<g id="a_node6"><a xlink:href="../../d2/d2d/preferencesconfigurationpage_8cpp.html" target="_top" xlink:title=" ">
<polygon fill="white" stroke="black" points="2470,-56.5 2470,-86.5 2717,-86.5 2717,-56.5 2470,-56.5"/>
<text text-anchor="start" x="2478" y="-74.5" font-family="Helvetica,sans-Serif" font-size="10.00">src/app/seamly2d/dialogs</text>
<text text-anchor="middle" x="2593.5" y="-63.5" font-family="Helvetica,sans-Serif" font-size="10.00">/configpages/preferencesconfigurationpage.cpp</text>
</a>
</g>
</g>
<!-- Node2&#45;&gt;Node6 -->
<g id="edge5" class="edge">
<title>Node2&#45;&gt;Node6</title>
<path fill="none" stroke="midnightblue" d="M1962.25,-131.48C2071.24,-122.46 2281.74,-104.63 2460.5,-87 2463.62,-86.69 2466.78,-86.38 2469.97,-86.05"/>
<polygon fill="midnightblue" stroke="midnightblue" points="1961.7,-128.01 1952.02,-132.32 1962.28,-134.99 1961.7,-128.01"/>
</g>
<!-- Node2&#45;&gt;Node7 -->
<g id="edge6" class="edge">
<title>Node2&#45;&gt;Node7</title>
<path fill="none" stroke="midnightblue" d="M1814.7,-137.56C1594.88,-137.21 925.4,-132.22 372.5,-87 369.79,-86.78 367.04,-86.54 364.27,-86.28"/>
<polygon fill="midnightblue" stroke="midnightblue" points="1814.82,-141.06 1824.83,-137.58 1814.83,-134.06 1814.82,-141.06"/>
</g>
<!-- Node8 -->
<g id="node8" class="node">
<title>Node8</title>
<g id="a_node8"><a xlink:href="../../dd/dc2/decimalchart__dialog_8cpp.html" target="_top" xlink:title=" ">
<polygon fill="white" stroke="black" points="2735,-56.5 2735,-86.5 2876,-86.5 2876,-56.5 2735,-56.5"/>
<text text-anchor="start" x="2743" y="-74.5" font-family="Helvetica,sans-Serif" font-size="10.00">src/app/seamly2d/dialogs</text>
<text text-anchor="middle" x="2805.5" y="-63.5" font-family="Helvetica,sans-Serif" font-size="10.00">/decimalchart_dialog.cpp</text>
</a>
</g>
</g>
<!-- Node2&#45;&gt;Node8 -->
<g id="edge7" class="edge">
<title>Node2&#45;&gt;Node8</title>
<path fill="none" stroke="midnightblue" d="M1962.46,-135.99C2108.69,-132.36 2444.97,-120.76 2725.5,-87 2728.58,-86.63 2731.73,-86.21 2734.9,-85.77"/>
<polygon fill="midnightblue" stroke="midnightblue" points="1962.17,-132.5 1952.26,-136.24 1962.34,-139.5 1962.17,-132.5"/>
</g>
<!-- Node9 -->
<g id="node9" class="node">
<title>Node9</title>
<g id="a_node9"><a xlink:href="../../dc/d63/preferencespatternpage_8cpp.html" target="_top" xlink:title=" ">
<polygon fill="white" stroke="black" points="2894.5,-56.5 2894.5,-86.5 3112.5,-86.5 3112.5,-56.5 2894.5,-56.5"/>
<text text-anchor="start" x="2902.5" y="-74.5" font-family="Helvetica,sans-Serif" font-size="10.00">src/app/seamly2d/dialogs</text>
<text text-anchor="middle" x="3003.5" y="-63.5" font-family="Helvetica,sans-Serif" font-size="10.00">/configpages/preferencespatternpage.cpp</text>
</a>
</g>
</g>
<!-- Node2&#45;&gt;Node9 -->
<g id="edge8" class="edge">
<title>Node2&#45;&gt;Node9</title>
<path fill="none" stroke="midnightblue" d="M1962.16,-135.54C2127.43,-130.77 2540.24,-116.66 2884.5,-87 2887.71,-86.72 2890.98,-86.43 2894.27,-86.11"/>
<polygon fill="midnightblue" stroke="midnightblue" points="1962.01,-132.05 1952.11,-135.83 1962.21,-139.04 1962.01,-132.05"/>
</g>
<!-- Node2&#45;&gt;Node10 -->
<g id="edge9" class="edge">
<title>Node2&#45;&gt;Node10</title>
<path fill="none" stroke="midnightblue" d="M1814.74,-136.16C1569.6,-131.49 783.46,-114.67 531.5,-87 528.73,-86.7 525.91,-86.35 523.06,-85.97"/>
<polygon fill="midnightblue" stroke="midnightblue" points="1814.9,-139.66 1824.96,-136.35 1815.03,-132.66 1814.9,-139.66"/>
</g>
<!-- Node11 -->
<g id="node11" class="node">
<title>Node11</title>
<g id="a_node11"><a xlink:href="../../d2/d00/vtooloptionspropertybrowser_8cpp.html" target="_top" xlink:title=" ">
<polygon fill="white" stroke="black" points="3130.5,-56.5 3130.5,-86.5 3310.5,-86.5 3310.5,-56.5 3130.5,-56.5"/>
<text text-anchor="start" x="3138.5" y="-74.5" font-family="Helvetica,sans-Serif" font-size="10.00">src/app/seamly2d/core</text>
<text text-anchor="middle" x="3220.5" y="-63.5" font-family="Helvetica,sans-Serif" font-size="10.00">/vtooloptionspropertybrowser.cpp</text>
</a>
</g>
</g>
<!-- Node2&#45;&gt;Node11 -->
<g id="edge10" class="edge">
<title>Node2&#45;&gt;Node11</title>
<path fill="none" stroke="midnightblue" d="M1962.42,-137.16C2154.19,-135.7 2683.21,-127.96 3121.5,-87 3124.44,-86.73 3127.43,-86.42 3130.44,-86.1"/>
<polygon fill="midnightblue" stroke="midnightblue" points="1962.16,-133.66 1952.18,-137.24 1962.21,-140.66 1962.16,-133.66"/>
</g>
<!-- Node2&#45;&gt;Node12 -->
<g id="edge11" class="edge">
<title>Node2&#45;&gt;Node12</title>
<path fill="none" stroke="midnightblue" d="M1814.76,-137.83C1627.05,-137.94 1116.07,-133.54 693.5,-87 690.52,-86.67 687.48,-86.3 684.42,-85.89"/>
<polygon fill="midnightblue" stroke="midnightblue" points="1814.8,-141.33 1824.79,-137.82 1814.79,-134.33 1814.8,-141.33"/>
</g>
<!-- Node13 -->
<g id="node13" class="node">
<title>Node13</title>
<g id="a_node13"><a xlink:href="../../d5/d18/dialogpatternproperties_8cpp.html" target="_top" xlink:title=" ">
<polygon fill="white" stroke="black" points="3687,-56.5 3687,-86.5 3842,-86.5 3842,-56.5 3687,-56.5"/>
<text text-anchor="start" x="3695" y="-74.5" font-family="Helvetica,sans-Serif" font-size="10.00">src/app/seamly2d/dialogs</text>
<text text-anchor="middle" x="3764.5" y="-63.5" font-family="Helvetica,sans-Serif" font-size="10.00">/dialogpatternproperties.cpp</text>
</a>
</g>
</g>
<!-- Node2&#45;&gt;Node13 -->
<g id="edge12" class="edge">
<title>Node2&#45;&gt;Node13</title>
<path fill="none" stroke="midnightblue" d="M1962.45,-136.76C2255.6,-133.64 3336.52,-120.07 3677.5,-87 3680.55,-86.7 3683.65,-86.37 3686.78,-85.99"/>
<polygon fill="midnightblue" stroke="midnightblue" points="1962.32,-133.27 1952.36,-136.87 1962.4,-140.26 1962.32,-133.27"/>
</g>
<!-- Node14 -->
<g id="node14" class="node">
<title>Node14</title>
<g id="a_node14"><a xlink:href="../../d5/dc5/dialogpreferences_8cpp.html" target="_top" xlink:title=" ">
<polygon fill="white" stroke="black" points="3367,-56.5 3367,-86.5 3508,-86.5 3508,-56.5 3367,-56.5"/>
<text text-anchor="start" x="3375" y="-74.5" font-family="Helvetica,sans-Serif" font-size="10.00">src/app/seamly2d/dialogs</text>
<text text-anchor="middle" x="3437.5" y="-63.5" font-family="Helvetica,sans-Serif" font-size="10.00">/dialogpreferences.cpp</text>
</a>
</g>
</g>
<!-- Node2&#45;&gt;Node14 -->
<g id="edge13" class="edge">
<title>Node2&#45;&gt;Node14</title>
<path fill="none" stroke="midnightblue" d="M1962.37,-136.27C2220.07,-131.76 3078.49,-114.97 3352.5,-87 3357.12,-86.53 3361.86,-85.96 3366.64,-85.32"/>
<polygon fill="midnightblue" stroke="midnightblue" points="1962.3,-132.77 1952.36,-136.44 1962.42,-139.77 1962.3,-132.77"/>
</g>
<!-- Node15 -->
<g id="node15" class="node">
<title>Node15</title>
<g id="a_node15"><a xlink:href="../../d9/d70/preferencesgraphicsviewpage_8cpp.html" target="_top" xlink:title=" ">
<polygon fill="white" stroke="black" points="702.5,-56.5 702.5,-86.5 950.5,-86.5 950.5,-56.5 702.5,-56.5"/>
<text text-anchor="start" x="710.5" y="-74.5" font-family="Helvetica,sans-Serif" font-size="10.00">src/app/seamly2d/dialogs</text>
<text text-anchor="middle" x="826.5" y="-63.5" font-family="Helvetica,sans-Serif" font-size="10.00">/configpages/preferencesgraphicsviewpage.cpp</text>
</a>
</g>
</g>
<!-- Node2&#45;&gt;Node15 -->
<g id="edge14" class="edge">
<title>Node2&#45;&gt;Node15</title>
<path fill="none" stroke="midnightblue" d="M1814.74,-134.85C1657.42,-128.91 1277.31,-112.94 959.5,-87 956.61,-86.76 953.68,-86.52 950.73,-86.26"/>
<polygon fill="midnightblue" stroke="midnightblue" points="1814.66,-138.35 1824.78,-135.23 1814.92,-131.36 1814.66,-138.35"/>
</g>
<!-- Node2&#45;&gt;Node16 -->
<g id="edge15" class="edge">
<title>Node2&#45;&gt;Node16</title>
<path fill="none" stroke="midnightblue" d="M1962.57,-136.64C2238.84,-133.22 3208.98,-119.12 3516.5,-87 3519.48,-86.69 3522.52,-86.33 3525.59,-85.94"/>
<polygon fill="midnightblue" stroke="midnightblue" points="1962.22,-133.15 1952.26,-136.77 1962.3,-140.14 1962.22,-133.15"/>
</g>
<!-- Node17 -->
<g id="node17" class="node">
<title>Node17</title>
<g id="a_node17"><a xlink:href="../../db/d5c/groups__widget_8cpp.html" target="_top" xlink:title=" ">
<polygon fill="white" stroke="black" points="969,-56.5 969,-86.5 1110,-86.5 1110,-56.5 969,-56.5"/>
<text text-anchor="start" x="977" y="-74.5" font-family="Helvetica,sans-Serif" font-size="10.00">src/app/seamly2d/dialogs</text>
<text text-anchor="middle" x="1039.5" y="-63.5" font-family="Helvetica,sans-Serif" font-size="10.00">/groups_widget.cpp</text>
</a>
</g>
</g>
<!-- Node2&#45;&gt;Node17 -->
<g id="edge16" class="edge">
<title>Node2&#45;&gt;Node17</title>
<path fill="none" stroke="midnightblue" d="M1814.47,-135.5C1676.92,-131.15 1372.78,-118.57 1118.5,-87 1115.73,-86.66 1112.91,-86.28 1110.07,-85.87"/>
<polygon fill="midnightblue" stroke="midnightblue" points="1814.78,-139.01 1824.88,-135.82 1815,-132.02 1814.78,-139.01"/>
</g>
<!-- Node18 -->
<g id="node18" class="node">
<title>Node18</title>
<g id="a_node18"><a xlink:href="../../d0/dfa/layoutsettings__dialog_8cpp.html" target="_top" xlink:title=" ">
<polygon fill="white" stroke="black" points="1128,-56.5 1128,-86.5 1273,-86.5 1273,-56.5 1128,-56.5"/>
<text text-anchor="start" x="1136" y="-74.5" font-family="Helvetica,sans-Serif" font-size="10.00">src/app/seamly2d/dialogs</text>
<text text-anchor="middle" x="1200.5" y="-63.5" font-family="Helvetica,sans-Serif" font-size="10.00">/layoutsettings_dialog.cpp</text>
</a>
</g>
</g>
<!-- Node2&#45;&gt;Node18 -->
<g id="edge17" class="edge">
<title>Node2&#45;&gt;Node18</title>
<path fill="none" stroke="midnightblue" d="M1814.89,-133.62C1700.45,-127.08 1473.1,-112.06 1281.5,-87 1278.81,-86.65 1276.07,-86.27 1273.31,-85.87"/>
<polygon fill="midnightblue" stroke="midnightblue" points="1814.75,-137.12 1824.94,-134.19 1815.15,-130.13 1814.75,-137.12"/>
</g>
<!-- Node19 -->
<g id="node19" class="node">
<title>Node19</title>
<g id="a_node19"><a xlink:href="../../dd/d84/shortcuts__dialog_8cpp.html" target="_top" xlink:title=" ">
<polygon fill="white" stroke="black" points="1291,-56.5 1291,-86.5 1432,-86.5 1432,-56.5 1291,-56.5"/>
<text text-anchor="start" x="1299" y="-74.5" font-family="Helvetica,sans-Serif" font-size="10.00">src/app/seamly2d/dialogs</text>
<text text-anchor="middle" x="1361.5" y="-63.5" font-family="Helvetica,sans-Serif" font-size="10.00">/shortcuts_dialog.cpp</text>
</a>
</g>
</g>
<!-- Node2&#45;&gt;Node19 -->
<g id="edge18" class="edge">
<title>Node2&#45;&gt;Node19</title>
<path fill="none" stroke="midnightblue" d="M1814.9,-130.78C1725.97,-122.3 1571.9,-106.44 1440.5,-87 1437.74,-86.59 1434.93,-86.16 1432.09,-85.71"/>
<polygon fill="midnightblue" stroke="midnightblue" points="1814.6,-134.27 1824.89,-131.73 1815.26,-127.3 1814.6,-134.27"/>
</g>
<!-- Node20 -->
<g id="node20" class="node">
<title>Node20</title>
<g id="a_node20"><a xlink:href="../../d2/df4/show__info__dialog_8cpp.html" target="_top" xlink:title=" ">
<polygon fill="white" stroke="black" points="1450,-56.5 1450,-86.5 1591,-86.5 1591,-56.5 1450,-56.5"/>
<text text-anchor="start" x="1458" y="-74.5" font-family="Helvetica,sans-Serif" font-size="10.00">src/app/seamly2d/dialogs</text>
<text text-anchor="middle" x="1520.5" y="-63.5" font-family="Helvetica,sans-Serif" font-size="10.00">/show_info_dialog.cpp</text>
</a>
</g>
</g>
<!-- Node2&#45;&gt;Node20 -->
<g id="edge19" class="edge">
<title>Node2&#45;&gt;Node20</title>
<path fill="none" stroke="midnightblue" d="M1814.88,-124.81C1756.46,-114.7 1672.72,-100.12 1599.5,-87 1596.75,-86.51 1593.96,-86 1591.13,-85.49"/>
<polygon fill="midnightblue" stroke="midnightblue" points="1814.31,-128.27 1824.76,-126.52 1815.51,-121.37 1814.31,-128.27"/>
</g>
<!-- Node21 -->
<g id="node21" class="node">
<title>Node21</title>
<g id="a_node21"><a xlink:href="../../dc/d14/app_2seamly2d_2main_8cpp.html" target="_top" xlink:title=" ">
<polygon fill="white" stroke="black" points="1609,-62 1609,-81 1760,-81 1760,-62 1609,-62"/>
<text text-anchor="middle" x="1684.5" y="-69" font-family="Helvetica,sans-Serif" font-size="10.00">src/app/seamly2d/main.cpp</text>
</a>
</g>
</g>
<!-- Node2&#45;&gt;Node21 -->
<g id="edge20" class="edge">
<title>Node2&#45;&gt;Node21</title>
<path fill="none" stroke="midnightblue" d="M1834.93,-120.43C1795.14,-107.75 1742.56,-91 1711.27,-81.03"/>
<polygon fill="midnightblue" stroke="midnightblue" points="1833.9,-123.77 1844.49,-123.48 1836.02,-117.11 1833.9,-123.77"/>
</g>
<!-- Node22 -->
<g id="node22" class="node">
<title>Node22</title>
<g id="a_node22"><a xlink:href="../../d8/de8/mainwindowsnogui_8cpp.html" target="_top" xlink:title=" ">
<polygon fill="white" stroke="black" points="1778,-62 1778,-81 1999,-81 1999,-62 1778,-62"/>
<text text-anchor="middle" x="1888.5" y="-69" font-family="Helvetica,sans-Serif" font-size="10.00">src/app/seamly2d/mainwindowsnogui.cpp</text>
</a>
</g>
</g>
<!-- Node2&#45;&gt;Node22 -->
<g id="edge21" class="edge">
<title>Node2&#45;&gt;Node22</title>
<path fill="none" stroke="midnightblue" d="M1888.5,-113.25C1888.5,-102.02 1888.5,-89.38 1888.5,-81.19"/>
<polygon fill="midnightblue" stroke="midnightblue" points="1885,-113.4 1888.5,-123.4 1892,-113.4 1885,-113.4"/>
</g>
<!-- Node23 -->
<g id="node23" class="node">
<title>Node23</title>
<g id="a_node23"><a xlink:href="../../d3/d49/vpattern_8cpp.html" target="_top" xlink:title=" ">
<polygon fill="white" stroke="black" points="2017,-56.5 2017,-86.5 2142,-86.5 2142,-56.5 2017,-56.5"/>
<text text-anchor="start" x="2025" y="-74.5" font-family="Helvetica,sans-Serif" font-size="10.00">src/app/seamly2d/xml</text>
<text text-anchor="middle" x="2079.5" y="-63.5" font-family="Helvetica,sans-Serif" font-size="10.00">/vpattern.cpp</text>
</a>
</g>
</g>
<!-- Node2&#45;&gt;Node23 -->
<g id="edge22" class="edge">
<title>Node2&#45;&gt;Node23</title>
<path fill="none" stroke="midnightblue" d="M1939.65,-120.09C1970.49,-109.6 2009.25,-96.41 2038.14,-86.58"/>
<polygon fill="midnightblue" stroke="midnightblue" points="1938.28,-116.86 1929.94,-123.4 1940.54,-123.49 1938.28,-116.86"/>
</g>
<!-- Node2&#45;&gt;Node24 -->
<g id="edge23" class="edge">
<title>Node2&#45;&gt;Node24</title>
<path fill="none" stroke="midnightblue" d="M1962.48,-136.2C2246.66,-131.03 3255.58,-111.05 3319.5,-87 3339.9,-79.33 3337.27,-64.11 3357.5,-56 3441.9,-22.16 3696.54,-13.7 3836.25,-11.63"/>
<polygon fill="midnightblue" stroke="midnightblue" points="1962.21,-132.7 1952.28,-136.38 1962.34,-139.7 1962.21,-132.7"/>
</g>
<!-- Node25&#45;&gt;Node13 -->
<g id="edge29" class="edge">
<title>Node25&#45;&gt;Node13</title>
<path fill="none" stroke="midnightblue" d="M3764.5,-113.11C3764.5,-104.15 3764.5,-94.32 3764.5,-86.58"/>
<polygon fill="midnightblue" stroke="midnightblue" points="3761,-113.4 3764.5,-123.4 3768,-113.4 3761,-113.4"/>
</g>
<!-- Node26 -->
<g id="node26" class="node">
<title>Node26</title>
<g id="a_node26"><a xlink:href="../../d6/d64/dialogs_8h.html" target="_top" xlink:title=" ">
<polygon fill="white" stroke="black" points="3860,-56.5 3860,-86.5 4001,-86.5 4001,-56.5 3860,-56.5"/>
<text text-anchor="start" x="3868" y="-74.5" font-family="Helvetica,sans-Serif" font-size="10.00">src/app/seamly2d/dialogs</text>
<text text-anchor="middle" x="3930.5" y="-63.5" font-family="Helvetica,sans-Serif" font-size="10.00">/dialogs.h</text>
</a>
</g>
</g>
<!-- Node25&#45;&gt;Node26 -->
<g id="edge30" class="edge">
<title>Node25&#45;&gt;Node26</title>
<path fill="none" stroke="midnightblue" d="M3810.01,-119.68C3836.63,-109.26 3869.77,-96.28 3894.55,-86.58"/>
<polygon fill="midnightblue" stroke="midnightblue" points="3808.55,-116.49 3800.52,-123.4 3811.11,-123.01 3808.55,-116.49"/>
</g>
<!-- Node26&#45;&gt;Node24 -->
<g id="edge31" class="edge">
<title>Node26&#45;&gt;Node24</title>
<path fill="none" stroke="midnightblue" d="M3930.5,-46.29C3930.5,-36.86 3930.5,-26.65 3930.5,-19.66"/>
<polygon fill="midnightblue" stroke="midnightblue" points="3927,-46.4 3930.5,-56.4 3934,-46.4 3927,-46.4"/>
</g>
</g>
</svg>
