<?xml version="1.0" encoding="UTF-8" standalone="no"?>
<!DOCTYPE svg PUBLIC "-//W3C//DTD SVG 1.1//EN"
 "http://www.w3.org/Graphics/SVG/1.1/DTD/svg11.dtd">
<!-- Generated by graphviz version 2.43.0 (0)
 -->
<!-- Title: src/libs/vgeometry/vspline.h Pages: 1 -->
<svg width="1865pt" height="423pt"
 viewBox="0.00 0.00 1865.00 423.00" xmlns="http://www.w3.org/2000/svg" xmlns:xlink="http://www.w3.org/1999/xlink">
<g id="graph0" class="graph" transform="scale(1 1) rotate(0) translate(4 419)">
<title>src/libs/vgeometry/vspline.h</title>
<!-- Node1 -->
<g id="Node000001" class="node">
<title>Node1</title>
<g id="a_Node000001"><a xlink:title=" ">
<polygon fill="#999999" stroke="#666666" points="1297.5,-415 1190.5,-415 1190.5,-385 1297.5,-385 1297.5,-415"/>
<text text-anchor="start" x="1198.5" y="-403" font-family="Helvetica,sans-Serif" font-size="10.00">src/libs/vgeometry</text>
<text text-anchor="middle" x="1244" y="-392" font-family="Helvetica,sans-Serif" font-size="10.00">/vspline.h</text>
</a>
</g>
</g>
<!-- Node2 -->
<g id="Node000002" class="node">
<title>Node2</title>
<g id="a_Node000002"><a xlink:title=" ">
<polygon fill="#e0e0e0" stroke="#999999" points="659,-74 539,-74 539,-55 659,-55 659,-74"/>
<text text-anchor="middle" x="599" y="-62" font-family="Helvetica,sans-Serif" font-size="10.00">qcompilerdetection.h</text>
</a>
</g>
</g>
<!-- Node1&#45;&gt;Node2 -->
<g id="edge1_Node000001_Node000002" class="edge">
<title>Node1&#45;&gt;Node2</title>
<g id="a_edge1_Node000001_Node000002"><a xlink:title=" ">
<path fill="none" stroke="#63b8ff" d="M1190.33,-397.31C1050.85,-392.55 679.5,-377.53 560,-349 488.79,-332 408,-358.71 408,-285.5 408,-285.5 408,-285.5 408,-173.5 408,-116.03 474.33,-88.79 528.81,-76.11"/>
<polygon fill="#63b8ff" stroke="#63b8ff" points="529.81,-79.47 538.83,-73.9 528.31,-72.63 529.81,-79.47"/>
</a>
</g>
</g>
<!-- Node3 -->
<g id="Node000003" class="node">
<title>Node3</title>
<g id="a_Node000003"><a xlink:title=" ">
<polygon fill="#e0e0e0" stroke="#999999" points="50,-74 0,-74 0,-55 50,-55 50,-74"/>
<text text-anchor="middle" x="25" y="-62" font-family="Helvetica,sans-Serif" font-size="10.00">QLineF</text>
</a>
</g>
</g>
<!-- Node1&#45;&gt;Node3 -->
<g id="edge2_Node000001_Node000003" class="edge">
<title>Node1&#45;&gt;Node3</title>
<g id="a_edge2_Node000001_Node000003"><a xlink:title=" ">
<path fill="none" stroke="#63b8ff" d="M1190.46,-399.41C963.69,-400.45 94,-397.16 94,-285.5 94,-285.5 94,-285.5 94,-173.5 94,-135.59 63.44,-100.3 42.99,-80.94"/>
<polygon fill="#63b8ff" stroke="#63b8ff" points="45.23,-78.24 35.48,-74.1 40.52,-83.42 45.23,-78.24"/>
</a>
</g>
</g>
<!-- Node4 -->
<g id="Node000004" class="node">
<title>Node4</title>
<g id="a_Node000004"><a xlink:title=" ">
<polygon fill="#e0e0e0" stroke="#999999" points="1714.5,-184 1643.5,-184 1643.5,-165 1714.5,-165 1714.5,-184"/>
<text text-anchor="middle" x="1679" y="-172" font-family="Helvetica,sans-Serif" font-size="10.00">QMetaType</text>
</a>
</g>
</g>
<!-- Node1&#45;&gt;Node4 -->
<g id="edge3_Node000001_Node000004" class="edge">
<title>Node1&#45;&gt;Node4</title>
<g id="a_edge3_Node000001_Node000004"><a xlink:title=" ">
<path fill="none" stroke="#63b8ff" d="M1271.54,-384.85C1350.52,-344.27 1577.03,-227.89 1653.46,-188.62"/>
<polygon fill="#63b8ff" stroke="#63b8ff" points="1655.12,-191.7 1662.42,-184.02 1651.92,-185.48 1655.12,-191.7"/>
</a>
</g>
</g>
<!-- Node5 -->
<g id="Node000005" class="node">
<title>Node5</title>
<g id="a_Node000005"><a xlink:title=" ">
<polygon fill="#e0e0e0" stroke="#999999" points="567.5,-184 512.5,-184 512.5,-165 567.5,-165 567.5,-184"/>
<text text-anchor="middle" x="540" y="-172" font-family="Helvetica,sans-Serif" font-size="10.00">QPointF</text>
</a>
</g>
</g>
<!-- Node1&#45;&gt;Node5 -->
<g id="edge4_Node000001_Node000005" class="edge">
<title>Node1&#45;&gt;Node5</title>
<g id="a_edge4_Node000001_Node000005"><a xlink:title=" ">
<path fill="none" stroke="#63b8ff" d="M1190.4,-397.68C1102.37,-394.53 922.14,-384 774,-349 706.11,-332.96 685.83,-331.48 627,-294 597.58,-275.26 591.39,-267.31 571,-239 560.82,-224.86 552.39,-206.87 546.91,-193.64"/>
<polygon fill="#63b8ff" stroke="#63b8ff" points="550.11,-192.23 543.16,-184.23 543.6,-194.81 550.11,-192.23"/>
</a>
</g>
</g>
<!-- Node6 -->
<g id="Node000006" class="node">
<title>Node6</title>
<g id="a_Node000006"><a xlink:title=" ">
<polygon fill="#e0e0e0" stroke="#999999" points="1629,-129 1513,-129 1513,-110 1629,-110 1629,-129"/>
<text text-anchor="middle" x="1571" y="-117" font-family="Helvetica,sans-Serif" font-size="10.00">QSharedDataPointer</text>
</a>
</g>
</g>
<!-- Node1&#45;&gt;Node6 -->
<g id="edge5_Node000001_Node000006" class="edge">
<title>Node1&#45;&gt;Node6</title>
<g id="a_edge5_Node000001_Node000006"><a xlink:title=" ">
<path fill="none" stroke="#63b8ff" d="M1297.58,-399.69C1440.32,-400.09 1819,-391.2 1819,-285.5 1819,-285.5 1819,-285.5 1819,-228.5 1819,-149.79 1712.68,-127.85 1639.27,-122.08"/>
<polygon fill="#63b8ff" stroke="#63b8ff" points="1639.37,-118.58 1629.14,-121.37 1638.88,-125.56 1639.37,-118.58"/>
</a>
</g>
</g>
<!-- Node7 -->
<g id="Node000007" class="node">
<title>Node7</title>
<g id="a_Node000007"><a xlink:title=" ">
<polygon fill="#e0e0e0" stroke="#999999" points="1427.5,-74 1374.5,-74 1374.5,-55 1427.5,-55 1427.5,-74"/>
<text text-anchor="middle" x="1401" y="-62" font-family="Helvetica,sans-Serif" font-size="10.00">QString</text>
</a>
</g>
</g>
<!-- Node1&#45;&gt;Node7 -->
<g id="edge6_Node000001_Node000007" class="edge">
<title>Node1&#45;&gt;Node7</title>
<g id="a_edge6_Node000001_Node000007"><a xlink:title=" ">
<path fill="none" stroke="#63b8ff" d="M1297.69,-398.35C1416.96,-396.21 1700.23,-387.16 1787,-349 1825.45,-332.09 1857,-327.5 1857,-285.5 1857,-285.5 1857,-285.5 1857,-173.5 1857,-87.58 1546.59,-69.92 1437.98,-66.37"/>
<polygon fill="#63b8ff" stroke="#63b8ff" points="1437.92,-62.87 1427.82,-66.06 1437.71,-69.86 1437.92,-62.87"/>
</a>
</g>
</g>
<!-- Node8 -->
<g id="Node000008" class="node">
<title>Node8</title>
<g id="a_Node000008"><a xlink:title=" ">
<polygon fill="#e0e0e0" stroke="#999999" points="1494.5,-129 1429.5,-129 1429.5,-110 1494.5,-110 1494.5,-129"/>
<text text-anchor="middle" x="1462" y="-117" font-family="Helvetica,sans-Serif" font-size="10.00">QTypeInfo</text>
</a>
</g>
</g>
<!-- Node1&#45;&gt;Node8 -->
<g id="edge7_Node000001_Node000008" class="edge">
<title>Node1&#45;&gt;Node8</title>
<g id="a_edge7_Node000001_Node000008"><a xlink:title=" ">
<path fill="none" stroke="#63b8ff" d="M1297.88,-398.06C1426.91,-394.34 1743,-376.01 1743,-285.5 1743,-285.5 1743,-285.5 1743,-228.5 1743,-199.04 1746.13,-184.45 1724,-165 1688.83,-134.08 1567.1,-137.41 1504.74,-128.83"/>
<polygon fill="#63b8ff" stroke="#63b8ff" points="1504.96,-125.32 1494.54,-127.21 1503.86,-132.23 1504.96,-125.32"/>
</a>
</g>
</g>
<!-- Node9 -->
<g id="Node000009" class="node">
<title>Node9</title>
<g id="a_Node000009"><a xlink:title=" ">
<polygon fill="#e0e0e0" stroke="#999999" points="1161.5,-129 1106.5,-129 1106.5,-110 1161.5,-110 1161.5,-129"/>
<text text-anchor="middle" x="1134" y="-117" font-family="Helvetica,sans-Serif" font-size="10.00">QVector</text>
</a>
</g>
</g>
<!-- Node1&#45;&gt;Node9 -->
<g id="edge8_Node000001_Node000009" class="edge">
<title>Node1&#45;&gt;Node9</title>
<g id="a_edge8_Node000001_Node000009"><a xlink:title=" ">
<path fill="none" stroke="#63b8ff" d="M1238.39,-384.81C1220.04,-338.34 1161.76,-190.8 1141.24,-138.83"/>
<polygon fill="#63b8ff" stroke="#63b8ff" points="1144.39,-137.27 1137.46,-129.26 1137.88,-139.85 1144.39,-137.27"/>
</a>
</g>
</g>
<!-- Node10 -->
<g id="Node000010" class="node">
<title>Node10</title>
<g id="a_Node000010"><a xlink:title=" ">
<polygon fill="#e0e0e0" stroke="#999999" points="758.5,-74 699.5,-74 699.5,-55 758.5,-55 758.5,-74"/>
<text text-anchor="middle" x="729" y="-62" font-family="Helvetica,sans-Serif" font-size="10.00">QtGlobal</text>
</a>
</g>
</g>
<!-- Node1&#45;&gt;Node10 -->
<g id="edge9_Node000001_Node000010" class="edge">
<title>Node1&#45;&gt;Node10</title>
<g id="a_edge9_Node000001_Node000010"><a xlink:title=" ">
<path fill="none" stroke="#63b8ff" d="M1190.26,-396.64C1016.94,-388.34 484,-357 484,-285.5 484,-285.5 484,-285.5 484,-173.5 484,-129.18 619.97,-90.95 689.32,-74.34"/>
<polygon fill="#63b8ff" stroke="#63b8ff" points="690.52,-77.66 699.45,-71.96 688.91,-70.84 690.52,-77.66"/>
</a>
</g>
</g>
<!-- Node11 -->
<g id="Node000011" class="node">
<title>Node11</title>
<g id="a_Node000011"><a xlink:href="../../d6/d7c/vabstractcubicbezier_8h.html" target="_top" xlink:title=" ">
<polygon fill="white" stroke="#666666" points="909,-349 783,-349 783,-330 909,-330 909,-349"/>
<text text-anchor="middle" x="846" y="-337" font-family="Helvetica,sans-Serif" font-size="10.00">vabstractcubicbezier.h</text>
</a>
</g>
</g>
<!-- Node1&#45;&gt;Node11 -->
<g id="edge10_Node000001_Node000011" class="edge">
<title>Node1&#45;&gt;Node11</title>
<g id="a_edge10_Node000001_Node000011"><a xlink:title=" ">
<path fill="none" stroke="#63b8ff" d="M1190.32,-391.11C1118.85,-380.6 992.37,-362.01 914.21,-350.53"/>
<polygon fill="#63b8ff" stroke="#63b8ff" points="914.38,-347.01 903.98,-349.02 913.36,-353.94 914.38,-347.01"/>
</a>
</g>
</g>
<!-- Node26 -->
<g id="Node000026" class="node">
<title>Node26</title>
<g id="a_Node000026"><a xlink:href="../../d5/d9d/vgeometrydef_8h.html" target="_top" xlink:title=" ">
<polygon fill="white" stroke="#666666" points="1297,-129 1203,-129 1203,-110 1297,-110 1297,-129"/>
<text text-anchor="middle" x="1250" y="-117" font-family="Helvetica,sans-Serif" font-size="10.00">vgeometrydef.h</text>
</a>
</g>
</g>
<!-- Node1&#45;&gt;Node26 -->
<g id="edge56_Node000001_Node000026" class="edge">
<title>Node1&#45;&gt;Node26</title>
<g id="a_edge56_Node000001_Node000026"><a xlink:title=" ">
<path fill="none" stroke="#63b8ff" d="M1247.94,-384.79C1253.5,-363.43 1263,-321.66 1263,-285.5 1263,-285.5 1263,-285.5 1263,-228.5 1263,-196.96 1257.47,-160.62 1253.62,-139.15"/>
<polygon fill="#63b8ff" stroke="#63b8ff" points="1257.03,-138.33 1251.75,-129.14 1250.15,-139.61 1257.03,-138.33"/>
</a>
</g>
</g>
<!-- Node28 -->
<g id="Node000028" class="node">
<title>Node28</title>
<g id="a_Node000028"><a xlink:href="../../d1/d48/vpointf_8h.html" target="_top" xlink:title=" ">
<polygon fill="white" stroke="#666666" points="1399.5,-239 1340.5,-239 1340.5,-220 1399.5,-220 1399.5,-239"/>
<text text-anchor="middle" x="1370" y="-227" font-family="Helvetica,sans-Serif" font-size="10.00">vpointf.h</text>
</a>
</g>
</g>
<!-- Node1&#45;&gt;Node28 -->
<g id="edge57_Node000001_Node000028" class="edge">
<title>Node1&#45;&gt;Node28</title>
<g id="a_edge57_Node000001_Node000028"><a xlink:title=" ">
<path fill="none" stroke="#63b8ff" d="M1254.53,-384.92C1277.56,-354.12 1332.35,-280.85 1357.27,-247.53"/>
<polygon fill="#63b8ff" stroke="#63b8ff" points="1360.27,-249.36 1363.45,-239.25 1354.66,-245.17 1360.27,-249.36"/>
</a>
</g>
</g>
<!-- Node11&#45;&gt;Node2 -->
<g id="edge11_Node000011_Node000002" class="edge">
<title>Node11&#45;&gt;Node2</title>
<g id="a_edge11_Node000011_Node000002"><a xlink:title=" ">
<path fill="none" stroke="#63b8ff" d="M782.75,-334.42C737.41,-329.45 675.94,-318.44 627,-294 561.09,-261.09 550.05,-240.69 503,-184 480,-156.29 449.1,-139.32 470,-110 479.57,-96.58 516.83,-84.61 548.86,-76.47"/>
<polygon fill="#63b8ff" stroke="#63b8ff" points="549.72,-79.86 558.6,-74.07 548.05,-73.06 549.72,-79.86"/>
</a>
</g>
</g>
<!-- Node11&#45;&gt;Node5 -->
<g id="edge12_Node000011_Node000005" class="edge">
<title>Node11&#45;&gt;Node5</title>
<g id="a_edge12_Node000011_Node000005"><a xlink:title=" ">
<path fill="none" stroke="#63b8ff" d="M782.8,-332.56C744.47,-326.85 695.65,-315.7 657,-294 610.77,-268.05 570.74,-218.47 551.74,-192.43"/>
<polygon fill="#63b8ff" stroke="#63b8ff" points="554.58,-190.39 545.93,-184.28 548.89,-194.45 554.58,-190.39"/>
</a>
</g>
</g>
<!-- Node11&#45;&gt;Node7 -->
<g id="edge13_Node000011_Node000007" class="edge">
<title>Node11&#45;&gt;Node7</title>
<g id="a_edge13_Node000011_Node000007"><a xlink:title=" ">
<path fill="none" stroke="#63b8ff" d="M909.1,-337.43C1092.51,-332.84 1619.21,-308.84 1724,-184 1804.3,-88.34 1537.93,-69.89 1437.64,-66.34"/>
<polygon fill="#63b8ff" stroke="#63b8ff" points="1437.74,-62.84 1427.63,-66.02 1437.52,-69.84 1437.74,-62.84"/>
</a>
</g>
</g>
<!-- Node11&#45;&gt;Node9 -->
<g id="edge14_Node000011_Node000009" class="edge">
<title>Node11&#45;&gt;Node9</title>
<g id="a_edge14_Node000011_Node000009"><a xlink:title=" ">
<path fill="none" stroke="#63b8ff" d="M860.7,-329.81C888.36,-313.25 949.72,-275.56 998,-239 1043.08,-204.86 1092.24,-159.92 1117.28,-136.4"/>
<polygon fill="#63b8ff" stroke="#63b8ff" points="1119.94,-138.71 1124.81,-129.3 1115.14,-133.61 1119.94,-138.71"/>
</a>
</g>
</g>
<!-- Node11&#45;&gt;Node10 -->
<g id="edge15_Node000011_Node000010" class="edge">
<title>Node11&#45;&gt;Node10</title>
<g id="a_edge15_Node000011_Node000010"><a xlink:title=" ">
<path fill="none" stroke="#63b8ff" d="M808.48,-329.92C762.61,-316.95 691,-287.57 691,-230.5 691,-230.5 691,-230.5 691,-173.5 691,-140.02 707.45,-103.84 718.7,-83.01"/>
<polygon fill="#63b8ff" stroke="#63b8ff" points="721.87,-84.53 723.72,-74.1 715.76,-81.1 721.87,-84.53"/>
</a>
</g>
</g>
<!-- Node12 -->
<g id="Node000012" class="node">
<title>Node12</title>
<g id="a_Node000012"><a xlink:href="../../d3/da5/ifcdef_8h.html" target="_top" xlink:title=" ">
<polygon fill="white" stroke="#666666" points="662.5,-184 585.5,-184 585.5,-165 662.5,-165 662.5,-184"/>
<text text-anchor="middle" x="624" y="-172" font-family="Helvetica,sans-Serif" font-size="10.00">../ifc/ifcdef.h</text>
</a>
</g>
</g>
<!-- Node11&#45;&gt;Node12 -->
<g id="edge16_Node000011_Node000012" class="edge">
<title>Node11&#45;&gt;Node12</title>
<g id="a_edge16_Node000011_Node000012"><a xlink:title=" ">
<path fill="none" stroke="#63b8ff" d="M782.89,-334.98C748.2,-330.08 706.38,-318.94 677,-294 646.32,-267.96 632.65,-220.59 627.19,-194.31"/>
<polygon fill="#63b8ff" stroke="#63b8ff" points="630.57,-193.35 625.28,-184.18 623.69,-194.65 630.57,-193.35"/>
</a>
</g>
</g>
<!-- Node22 -->
<g id="Node000022" class="node">
<title>Node22</title>
<g id="a_Node000022"><a xlink:href="../../d8/d94/vabstractbezier_8h.html" target="_top" xlink:title=" ">
<polygon fill="white" stroke="#666666" points="896.5,-294 795.5,-294 795.5,-275 896.5,-275 896.5,-294"/>
<text text-anchor="middle" x="846" y="-282" font-family="Helvetica,sans-Serif" font-size="10.00">vabstractbezier.h</text>
</a>
</g>
</g>
<!-- Node11&#45;&gt;Node22 -->
<g id="edge34_Node000011_Node000022" class="edge">
<title>Node11&#45;&gt;Node22</title>
<g id="a_edge34_Node000011_Node000022"><a xlink:title=" ">
<path fill="none" stroke="#63b8ff" d="M846,-329.75C846,-322.8 846,-312.85 846,-304.13"/>
<polygon fill="#63b8ff" stroke="#63b8ff" points="849.5,-304.09 846,-294.09 842.5,-304.09 849.5,-304.09"/>
</a>
</g>
</g>
<!-- Node11&#45;&gt;Node26 -->
<g id="edge55_Node000011_Node000026" class="edge">
<title>Node11&#45;&gt;Node26</title>
<g id="a_edge55_Node000011_Node000026"><a xlink:title=" ">
<path fill="none" stroke="#63b8ff" d="M867.19,-329.93C887.84,-321.4 919.97,-307.64 947,-294 1054.52,-239.72 1177.67,-165.18 1227.41,-134.53"/>
<polygon fill="#63b8ff" stroke="#63b8ff" points="1229.42,-137.4 1236.09,-129.17 1225.74,-131.45 1229.42,-137.4"/>
</a>
</g>
</g>
<!-- Node12&#45;&gt;Node7 -->
<g id="edge17_Node000012_Node000007" class="edge">
<title>Node12&#45;&gt;Node7</title>
<g id="a_edge17_Node000012_Node000007"><a xlink:title=" ">
<path fill="none" stroke="#63b8ff" d="M636.67,-164.78C658.34,-150.4 704.42,-122.09 748,-110 865.31,-77.45 1243.75,-68.21 1363.98,-66.07"/>
<polygon fill="#63b8ff" stroke="#63b8ff" points="1364.2,-69.56 1374.14,-65.89 1364.08,-62.56 1364.2,-69.56"/>
</a>
</g>
</g>
<!-- Node12&#45;&gt;Node10 -->
<g id="edge19_Node000012_Node000010" class="edge">
<title>Node12&#45;&gt;Node10</title>
<g id="a_edge19_Node000012_Node000010"><a xlink:title=" ">
<path fill="none" stroke="#63b8ff" d="M623.82,-164.69C624,-151.42 626.17,-126.14 639,-110 651.72,-94 671.68,-83.32 689.57,-76.44"/>
<polygon fill="#63b8ff" stroke="#63b8ff" points="690.99,-79.65 699.24,-73.01 688.64,-73.06 690.99,-79.65"/>
</a>
</g>
</g>
<!-- Node13 -->
<g id="Node000013" class="node">
<title>Node13</title>
<g id="a_Node000013"><a xlink:title=" ">
<polygon fill="#e0e0e0" stroke="#999999" points="138,-74 68,-74 68,-55 138,-55 138,-74"/>
<text text-anchor="middle" x="103" y="-62" font-family="Helvetica,sans-Serif" font-size="10.00">QStringList</text>
</a>
</g>
</g>
<!-- Node12&#45;&gt;Node13 -->
<g id="edge18_Node000012_Node000013" class="edge">
<title>Node12&#45;&gt;Node13</title>
<g id="a_edge18_Node000012_Node000013"><a xlink:title=" ">
<path fill="none" stroke="#63b8ff" d="M585.26,-166.47C582.13,-165.95 579.01,-165.46 576,-165 448.89,-145.79 414.26,-157.92 289,-129 232.63,-115.99 169.33,-92.35 133.02,-77.88"/>
<polygon fill="#63b8ff" stroke="#63b8ff" points="134.1,-74.54 123.52,-74.06 131.49,-81.04 134.1,-74.54"/>
</a>
</g>
</g>
<!-- Node14 -->
<g id="Node000014" class="node">
<title>Node14</title>
<g id="a_Node000014"><a xlink:href="../../d4/da4/def_8h.html" target="_top" xlink:title=" ">
<polygon fill="white" stroke="#666666" points="380,-129 298,-129 298,-110 380,-110 380,-129"/>
<text text-anchor="middle" x="339" y="-117" font-family="Helvetica,sans-Serif" font-size="10.00">../vmisc/def.h</text>
</a>
</g>
</g>
<!-- Node12&#45;&gt;Node14 -->
<g id="edge20_Node000012_Node000014" class="edge">
<title>Node12&#45;&gt;Node14</title>
<g id="a_edge20_Node000012_Node000014"><a xlink:title=" ">
<path fill="none" stroke="#63b8ff" d="M585.27,-166.3C534.83,-156.92 446.52,-140.5 390.49,-130.08"/>
<polygon fill="#63b8ff" stroke="#63b8ff" points="390.89,-126.59 380.42,-128.2 389.61,-133.47 390.89,-126.59"/>
</a>
</g>
</g>
<!-- Node21 -->
<g id="Node000021" class="node">
<title>Node21</title>
<g id="a_Node000021"><a xlink:href="../../d6/dcd/diagnostic_8h.html" target="_top" xlink:title=" ">
<polygon fill="white" stroke="#666666" points="984.5,-129 867.5,-129 867.5,-110 984.5,-110 984.5,-129"/>
<text text-anchor="middle" x="926" y="-117" font-family="Helvetica,sans-Serif" font-size="10.00">../vmisc/diagnostic.h</text>
</a>
</g>
</g>
<!-- Node12&#45;&gt;Node21 -->
<g id="edge32_Node000012_Node000021" class="edge">
<title>Node12&#45;&gt;Node21</title>
<g id="a_edge32_Node000012_Node000021"><a xlink:title=" ">
<path fill="none" stroke="#63b8ff" d="M662.56,-166.73C714.34,-157.65 806.83,-141.41 867.29,-130.8"/>
<polygon fill="#63b8ff" stroke="#63b8ff" points="868.21,-134.2 877.45,-129.02 867,-127.3 868.21,-134.2"/>
</a>
</g>
</g>
<!-- Node14&#45;&gt;Node2 -->
<g id="edge21_Node000014_Node000002" class="edge">
<title>Node14&#45;&gt;Node2</title>
<g id="a_edge21_Node000014_Node000002"><a xlink:title=" ">
<path fill="none" stroke="#63b8ff" d="M380.2,-110.1C425.38,-100.89 497.98,-86.09 547.04,-76.09"/>
<polygon fill="#63b8ff" stroke="#63b8ff" points="548.03,-79.46 557.13,-74.03 546.64,-72.6 548.03,-79.46"/>
</a>
</g>
</g>
<!-- Node14&#45;&gt;Node3 -->
<g id="edge23_Node000014_Node000003" class="edge">
<title>Node14&#45;&gt;Node3</title>
<g id="a_edge23_Node000014_Node000003"><a xlink:title=" ">
<path fill="none" stroke="#63b8ff" d="M297.99,-113.13C245.18,-105.95 150.36,-92.23 60.05,-74.06"/>
<polygon fill="#63b8ff" stroke="#63b8ff" points="60.69,-70.62 50.2,-72.06 59.3,-77.48 60.69,-70.62"/>
</a>
</g>
</g>
<!-- Node14&#45;&gt;Node7 -->
<g id="edge24_Node000014_Node000007" class="edge">
<title>Node14&#45;&gt;Node7</title>
<g id="a_edge24_Node000014_Node000007"><a xlink:title=" ">
<path fill="none" stroke="#63b8ff" d="M380.31,-116.44C551.11,-107.91 1200.91,-75.49 1363.8,-67.36"/>
<polygon fill="#63b8ff" stroke="#63b8ff" points="1364.43,-70.83 1374.24,-66.84 1364.08,-63.84 1364.43,-70.83"/>
</a>
</g>
</g>
<!-- Node14&#45;&gt;Node10 -->
<g id="edge27_Node000014_Node000010" class="edge">
<title>Node14&#45;&gt;Node10</title>
<g id="a_edge27_Node000014_Node000010"><a xlink:title=" ">
<path fill="none" stroke="#63b8ff" d="M380.04,-113C442.3,-104.65 564.36,-88.23 668,-74 674.83,-73.06 682.09,-72.06 689.14,-71.08"/>
<polygon fill="#63b8ff" stroke="#63b8ff" points="689.8,-74.52 699.22,-69.67 688.83,-67.59 689.8,-74.52"/>
</a>
</g>
</g>
<!-- Node14&#45;&gt;Node13 -->
<g id="edge25_Node000014_Node000013" class="edge">
<title>Node14&#45;&gt;Node13</title>
<g id="a_edge25_Node000014_Node000013"><a xlink:title=" ">
<path fill="none" stroke="#63b8ff" d="M301.08,-109.98C259.38,-100.62 192.41,-85.58 148.06,-75.62"/>
<polygon fill="#63b8ff" stroke="#63b8ff" points="148.65,-72.16 138.13,-73.39 147.12,-78.99 148.65,-72.16"/>
</a>
</g>
</g>
<!-- Node15 -->
<g id="Node000015" class="node">
<title>Node15</title>
<g id="a_Node000015"><a xlink:title=" ">
<polygon fill="#e0e0e0" stroke="#999999" points="399.5,-74 326.5,-74 326.5,-55 399.5,-55 399.5,-74"/>
<text text-anchor="middle" x="363" y="-62" font-family="Helvetica,sans-Serif" font-size="10.00">QFileDialog</text>
</a>
</g>
</g>
<!-- Node14&#45;&gt;Node15 -->
<g id="edge22_Node000014_Node000015" class="edge">
<title>Node14&#45;&gt;Node15</title>
<g id="a_edge22_Node000014_Node000015"><a xlink:title=" ">
<path fill="none" stroke="#63b8ff" d="M342.96,-109.75C346.21,-102.57 350.92,-92.18 354.95,-83.27"/>
<polygon fill="#63b8ff" stroke="#63b8ff" points="358.17,-84.64 359.11,-74.09 351.8,-81.75 358.17,-84.64"/>
</a>
</g>
</g>
<!-- Node16 -->
<g id="Node000016" class="node">
<title>Node16</title>
<g id="a_Node000016"><a xlink:title=" ">
<polygon fill="#e0e0e0" stroke="#999999" points="446.5,-74 417.5,-74 417.5,-55 446.5,-55 446.5,-74"/>
<text text-anchor="middle" x="432" y="-62" font-family="Helvetica,sans-Serif" font-size="10.00">Qt</text>
</a>
</g>
</g>
<!-- Node14&#45;&gt;Node16 -->
<g id="edge26_Node000014_Node000016" class="edge">
<title>Node14&#45;&gt;Node16</title>
<g id="a_edge26_Node000014_Node000016"><a xlink:title=" ">
<path fill="none" stroke="#63b8ff" d="M353.94,-109.98C368.67,-101.59 391.4,-88.64 408.54,-78.87"/>
<polygon fill="#63b8ff" stroke="#63b8ff" points="410.45,-81.81 417.4,-73.82 406.98,-75.73 410.45,-81.81"/>
</a>
</g>
</g>
<!-- Node17 -->
<g id="Node000017" class="node">
<title>Node17</title>
<g id="a_Node000017"><a xlink:title=" ">
<polygon fill="#e0e0e0" stroke="#999999" points="521,-74 465,-74 465,-55 521,-55 521,-74"/>
<text text-anchor="middle" x="493" y="-62" font-family="Helvetica,sans-Serif" font-size="10.00">QPrinter</text>
</a>
</g>
</g>
<!-- Node14&#45;&gt;Node17 -->
<g id="edge28_Node000014_Node000017" class="edge">
<title>Node14&#45;&gt;Node17</title>
<g id="a_edge28_Node000014_Node000017"><a xlink:title=" ">
<path fill="none" stroke="#63b8ff" d="M363.74,-109.98C389.37,-101.16 429.63,-87.31 458.41,-77.41"/>
<polygon fill="#63b8ff" stroke="#63b8ff" points="459.75,-80.65 468.06,-74.08 457.47,-74.03 459.75,-80.65"/>
</a>
</g>
</g>
<!-- Node18 -->
<g id="Node000018" class="node">
<title>Node18</title>
<g id="a_Node000018"><a xlink:title=" ">
<polygon fill="#e0e0e0" stroke="#999999" points="207.5,-74 156.5,-74 156.5,-55 207.5,-55 207.5,-74"/>
<text text-anchor="middle" x="182" y="-62" font-family="Helvetica,sans-Serif" font-size="10.00">csignal</text>
</a>
</g>
</g>
<!-- Node14&#45;&gt;Node18 -->
<g id="edge29_Node000014_Node000018" class="edge">
<title>Node14&#45;&gt;Node18</title>
<g id="a_edge29_Node000014_Node000018"><a xlink:title=" ">
<path fill="none" stroke="#63b8ff" d="M313.78,-109.98C287.64,-101.16 246.6,-87.31 217.27,-77.41"/>
<polygon fill="#63b8ff" stroke="#63b8ff" points="218.02,-73.96 207.42,-74.08 215.78,-80.6 218.02,-73.96"/>
</a>
</g>
</g>
<!-- Node19 -->
<g id="Node000019" class="node">
<title>Node19</title>
<g id="a_Node000019"><a xlink:href="../../d4/d82/debugbreak_8h.html" target="_top" xlink:title=" ">
<polygon fill="white" stroke="#666666" points="308.5,-74 225.5,-74 225.5,-55 308.5,-55 308.5,-74"/>
<text text-anchor="middle" x="267" y="-62" font-family="Helvetica,sans-Serif" font-size="10.00">debugbreak.h</text>
</a>
</g>
</g>
<!-- Node14&#45;&gt;Node19 -->
<g id="edge30_Node000014_Node000019" class="edge">
<title>Node14&#45;&gt;Node19</title>
<g id="a_edge30_Node000014_Node000019"><a xlink:title=" ">
<path fill="none" stroke="#63b8ff" d="M327.43,-109.98C316.58,-102 300.12,-89.88 287.12,-80.31"/>
<polygon fill="#63b8ff" stroke="#63b8ff" points="288.91,-77.28 278.78,-74.17 284.76,-82.92 288.91,-77.28"/>
</a>
</g>
</g>
<!-- Node20 -->
<g id="Node000020" class="node">
<title>Node20</title>
<g id="a_Node000020"><a xlink:title=" ">
<polygon fill="#e0e0e0" stroke="#999999" points="294.5,-19 239.5,-19 239.5,0 294.5,0 294.5,-19"/>
<text text-anchor="middle" x="267" y="-7" font-family="Helvetica,sans-Serif" font-size="10.00">signal.h</text>
</a>
</g>
</g>
<!-- Node19&#45;&gt;Node20 -->
<g id="edge31_Node000019_Node000020" class="edge">
<title>Node19&#45;&gt;Node20</title>
<g id="a_edge31_Node000019_Node000020"><a xlink:title=" ">
<path fill="none" stroke="#63b8ff" d="M267,-54.75C267,-47.8 267,-37.85 267,-29.13"/>
<polygon fill="#63b8ff" stroke="#63b8ff" points="270.5,-29.09 267,-19.09 263.5,-29.09 270.5,-29.09"/>
</a>
</g>
</g>
<!-- Node21&#45;&gt;Node10 -->
<g id="edge33_Node000021_Node000010" class="edge">
<title>Node21&#45;&gt;Node10</title>
<g id="a_edge33_Node000021_Node000010"><a xlink:title=" ">
<path fill="none" stroke="#63b8ff" d="M894.35,-109.98C860.15,-100.78 805.59,-86.11 768.58,-76.15"/>
<polygon fill="#63b8ff" stroke="#63b8ff" points="769.21,-72.69 758.64,-73.47 767.39,-79.45 769.21,-72.69"/>
</a>
</g>
</g>
<!-- Node22&#45;&gt;Node10 -->
<g id="edge35_Node000022_Node000010" class="edge">
<title>Node22&#45;&gt;Node10</title>
<g id="a_edge35_Node000022_Node000010"><a xlink:title=" ">
<path fill="none" stroke="#63b8ff" d="M839.35,-274.93C822.07,-252.3 775.16,-188.53 748,-129 741.42,-114.59 736.43,-97.31 733.21,-84.42"/>
<polygon fill="#63b8ff" stroke="#63b8ff" points="736.55,-83.33 730.85,-74.4 729.74,-84.94 736.55,-83.33"/>
</a>
</g>
</g>
<!-- Node23 -->
<g id="Node000023" class="node">
<title>Node23</title>
<g id="a_Node000023"><a xlink:href="../../d5/d82/vabstractcurve_8h.html" target="_top" xlink:title=" ">
<polygon fill="white" stroke="#666666" points="989,-239 891,-239 891,-220 989,-220 989,-239"/>
<text text-anchor="middle" x="940" y="-227" font-family="Helvetica,sans-Serif" font-size="10.00">vabstractcurve.h</text>
</a>
</g>
</g>
<!-- Node22&#45;&gt;Node23 -->
<g id="edge36_Node000022_Node000023" class="edge">
<title>Node22&#45;&gt;Node23</title>
<g id="a_edge36_Node000022_Node000023"><a xlink:title=" ">
<path fill="none" stroke="#63b8ff" d="M861.1,-274.98C875.82,-266.69 898.42,-253.94 915.67,-244.22"/>
<polygon fill="#63b8ff" stroke="#63b8ff" points="917.63,-247.13 924.62,-239.17 914.19,-241.03 917.63,-247.13"/>
</a>
</g>
</g>
<!-- Node23&#45;&gt;Node2 -->
<g id="edge37_Node000023_Node000002" class="edge">
<title>Node23&#45;&gt;Node2</title>
<g id="a_edge37_Node000023_Node000002"><a xlink:title=" ">
<path fill="none" stroke="#63b8ff" d="M898.67,-219.92C867.01,-212.56 822.67,-200.51 786,-184 720.65,-154.58 651.29,-105.15 618.43,-80.46"/>
<polygon fill="#63b8ff" stroke="#63b8ff" points="620.25,-77.45 610.16,-74.2 616.02,-83.03 620.25,-77.45"/>
</a>
</g>
</g>
<!-- Node23&#45;&gt;Node5 -->
<g id="edge38_Node000023_Node000005" class="edge">
<title>Node23&#45;&gt;Node5</title>
<g id="a_edge38_Node000023_Node000005"><a xlink:title=" ">
<path fill="none" stroke="#63b8ff" d="M890.88,-224.23C822.62,-217.91 695.09,-204.73 577.72,-184.15"/>
<polygon fill="#63b8ff" stroke="#63b8ff" points="578.3,-180.7 567.84,-182.39 577.08,-187.59 578.3,-180.7"/>
</a>
</g>
</g>
<!-- Node23&#45;&gt;Node6 -->
<g id="edge39_Node000023_Node000006" class="edge">
<title>Node23&#45;&gt;Node6</title>
<g id="a_edge39_Node000023_Node000006"><a xlink:title=" ">
<path fill="none" stroke="#63b8ff" d="M989.22,-227.13C1102.06,-223.52 1376.4,-212.07 1464,-184 1497.51,-173.26 1531.7,-150.48 1552.13,-135.33"/>
<polygon fill="#63b8ff" stroke="#63b8ff" points="1554.4,-138 1560.25,-129.17 1550.17,-132.42 1554.4,-138"/>
</a>
</g>
</g>
<!-- Node23&#45;&gt;Node7 -->
<g id="edge40_Node000023_Node000007" class="edge">
<title>Node23&#45;&gt;Node7</title>
<g id="a_edge40_Node000023_Node000007"><a xlink:title=" ">
<path fill="none" stroke="#63b8ff" d="M948.23,-219.73C970.1,-197.04 1032.48,-136.4 1098,-110 1188.76,-73.43 1305.63,-66.44 1364.15,-65.4"/>
<polygon fill="#63b8ff" stroke="#63b8ff" points="1364.43,-68.9 1374.38,-65.27 1364.34,-61.9 1364.43,-68.9"/>
</a>
</g>
</g>
<!-- Node23&#45;&gt;Node8 -->
<g id="edge41_Node000023_Node000008" class="edge">
<title>Node23&#45;&gt;Node8</title>
<g id="a_edge41_Node000023_Node000008"><a xlink:title=" ">
<path fill="none" stroke="#63b8ff" d="M989.22,-227.29C1109.2,-223.89 1409.44,-212.6 1444,-184 1456.96,-173.28 1460.97,-153.98 1462.04,-139.46"/>
<polygon fill="#63b8ff" stroke="#63b8ff" points="1465.55,-139.21 1462.38,-129.1 1458.56,-138.98 1465.55,-139.21"/>
</a>
</g>
</g>
<!-- Node23&#45;&gt;Node9 -->
<g id="edge42_Node000023_Node000009" class="edge">
<title>Node23&#45;&gt;Node9</title>
<g id="a_edge42_Node000023_Node000009"><a xlink:title=" ">
<path fill="none" stroke="#63b8ff" d="M955.55,-219.84C989.26,-201.08 1069.3,-156.52 1109.73,-134.01"/>
<polygon fill="#63b8ff" stroke="#63b8ff" points="1111.61,-136.97 1118.65,-129.05 1108.21,-130.85 1111.61,-136.97"/>
</a>
</g>
</g>
<!-- Node23&#45;&gt;Node10 -->
<g id="edge43_Node000023_Node000010" class="edge">
<title>Node23&#45;&gt;Node10</title>
<g id="a_edge43_Node000023_Node000010"><a xlink:title=" ">
<path fill="none" stroke="#63b8ff" d="M938.52,-219.64C936.83,-206.75 935.41,-182.44 945,-165 960.64,-136.57 1013.95,-134.78 993,-110 964.8,-76.65 835.71,-68.28 769.07,-66.19"/>
<polygon fill="#63b8ff" stroke="#63b8ff" points="769.03,-62.69 758.94,-65.91 768.84,-69.69 769.03,-62.69"/>
</a>
</g>
</g>
<!-- Node23&#45;&gt;Node12 -->
<g id="edge44_Node000023_Node000012" class="edge">
<title>Node23&#45;&gt;Node12</title>
<g id="a_edge44_Node000023_Node000012"><a xlink:title=" ">
<path fill="none" stroke="#63b8ff" d="M890.97,-220.28C831.48,-210.3 731.82,-193.58 672.55,-183.64"/>
<polygon fill="#63b8ff" stroke="#63b8ff" points="673.12,-180.19 662.68,-181.99 671.96,-187.09 673.12,-180.19"/>
</a>
</g>
</g>
<!-- Node24 -->
<g id="Node000024" class="node">
<title>Node24</title>
<g id="a_Node000024"><a xlink:href="../../db/db3/vmath_8h.html" target="_top" xlink:title=" ">
<polygon fill="white" stroke="#666666" points="893,-184 795,-184 795,-165 893,-165 893,-184"/>
<text text-anchor="middle" x="844" y="-172" font-family="Helvetica,sans-Serif" font-size="10.00">../vmisc/vmath.h</text>
</a>
</g>
</g>
<!-- Node23&#45;&gt;Node24 -->
<g id="edge45_Node000023_Node000024" class="edge">
<title>Node23&#45;&gt;Node24</title>
<g id="a_edge45_Node000023_Node000024"><a xlink:title=" ">
<path fill="none" stroke="#63b8ff" d="M924.58,-219.98C909.55,-211.69 886.46,-198.94 868.84,-189.22"/>
<polygon fill="#63b8ff" stroke="#63b8ff" points="870.15,-185.94 859.7,-184.17 866.77,-192.07 870.15,-185.94"/>
</a>
</g>
</g>
<!-- Node23&#45;&gt;Node26 -->
<g id="edge47_Node000023_Node000026" class="edge">
<title>Node23&#45;&gt;Node26</title>
<g id="a_edge47_Node000023_Node000026"><a xlink:title=" ">
<path fill="none" stroke="#63b8ff" d="M964.58,-219.94C1019.64,-200.76 1152.93,-154.32 1215.93,-132.37"/>
<polygon fill="#63b8ff" stroke="#63b8ff" points="1217.12,-135.66 1225.41,-129.07 1214.82,-129.05 1217.12,-135.66"/>
</a>
</g>
</g>
<!-- Node27 -->
<g id="Node000027" class="node">
<title>Node27</title>
<g id="a_Node000027"><a xlink:href="../../d2/d07/vgobject_8h.html" target="_top" xlink:title=" ">
<polygon fill="white" stroke="#666666" points="1435,-184 1367,-184 1367,-165 1435,-165 1435,-184"/>
<text text-anchor="middle" x="1401" y="-172" font-family="Helvetica,sans-Serif" font-size="10.00">vgobject.h</text>
</a>
</g>
</g>
<!-- Node23&#45;&gt;Node27 -->
<g id="edge48_Node000023_Node000027" class="edge">
<title>Node23&#45;&gt;Node27</title>
<g id="a_edge48_Node000023_Node000027"><a xlink:title=" ">
<path fill="none" stroke="#63b8ff" d="M989.34,-222.83C1079.73,-212.44 1270.56,-190.5 1356.9,-180.57"/>
<polygon fill="#63b8ff" stroke="#63b8ff" points="1357.37,-184.04 1366.9,-179.42 1356.57,-177.09 1357.37,-184.04"/>
</a>
</g>
</g>
<!-- Node25 -->
<g id="Node000025" class="node">
<title>Node25</title>
<g id="a_Node000025"><a xlink:title=" ">
<polygon fill="#e0e0e0" stroke="#999999" points="810.5,-129 757.5,-129 757.5,-110 810.5,-110 810.5,-129"/>
<text text-anchor="middle" x="784" y="-117" font-family="Helvetica,sans-Serif" font-size="10.00">QtMath</text>
</a>
</g>
</g>
<!-- Node24&#45;&gt;Node25 -->
<g id="edge46_Node000024_Node000025" class="edge">
<title>Node24&#45;&gt;Node25</title>
<g id="a_edge46_Node000024_Node000025"><a xlink:title=" ">
<path fill="none" stroke="#63b8ff" d="M834.36,-164.98C825.49,-157.15 812.13,-145.34 801.39,-135.86"/>
<polygon fill="#63b8ff" stroke="#63b8ff" points="803.63,-133.17 793.82,-129.17 798.99,-138.41 803.63,-133.17"/>
</a>
</g>
</g>
<!-- Node27&#45;&gt;Node6 -->
<g id="edge49_Node000027_Node000006" class="edge">
<title>Node27&#45;&gt;Node6</title>
<g id="a_edge49_Node000027_Node000006"><a xlink:title=" ">
<path fill="none" stroke="#63b8ff" d="M1428.31,-164.98C1456.85,-156.09 1501.83,-142.07 1533.64,-132.15"/>
<polygon fill="#63b8ff" stroke="#63b8ff" points="1534.97,-135.4 1543.47,-129.08 1532.88,-128.72 1534.97,-135.4"/>
</a>
</g>
</g>
<!-- Node27&#45;&gt;Node7 -->
<g id="edge50_Node000027_Node000007" class="edge">
<title>Node27&#45;&gt;Node7</title>
<g id="a_edge50_Node000027_Node000007"><a xlink:title=" ">
<path fill="none" stroke="#63b8ff" d="M1401,-164.66C1401,-147.17 1401,-107.8 1401,-84.27"/>
<polygon fill="#63b8ff" stroke="#63b8ff" points="1404.5,-84.16 1401,-74.16 1397.5,-84.16 1404.5,-84.16"/>
</a>
</g>
</g>
<!-- Node27&#45;&gt;Node8 -->
<g id="edge51_Node000027_Node000008" class="edge">
<title>Node27&#45;&gt;Node8</title>
<g id="a_edge51_Node000027_Node000008"><a xlink:title=" ">
<path fill="none" stroke="#63b8ff" d="M1410.8,-164.98C1419.82,-157.15 1433.41,-145.34 1444.32,-135.86"/>
<polygon fill="#63b8ff" stroke="#63b8ff" points="1446.77,-138.37 1452.02,-129.17 1442.18,-133.09 1446.77,-138.37"/>
</a>
</g>
</g>
<!-- Node27&#45;&gt;Node9 -->
<g id="edge52_Node000027_Node000009" class="edge">
<title>Node27&#45;&gt;Node9</title>
<g id="a_edge52_Node000027_Node000009"><a xlink:title=" ">
<path fill="none" stroke="#63b8ff" d="M1366.91,-166.73C1316.83,-156.79 1223.68,-138.3 1171.64,-127.97"/>
<polygon fill="#63b8ff" stroke="#63b8ff" points="1172.3,-124.53 1161.81,-126.02 1170.94,-131.4 1172.3,-124.53"/>
</a>
</g>
</g>
<!-- Node27&#45;&gt;Node10 -->
<g id="edge53_Node000027_Node000010" class="edge">
<title>Node27&#45;&gt;Node10</title>
<g id="a_edge53_Node000027_Node000010"><a xlink:title=" ">
<path fill="none" stroke="#63b8ff" d="M1395.46,-164.56C1385.94,-150.13 1364.99,-122.08 1339,-110 1287.49,-86.06 895.89,-71.05 768.74,-66.77"/>
<polygon fill="#63b8ff" stroke="#63b8ff" points="768.77,-63.27 758.65,-66.43 768.53,-70.26 768.77,-63.27"/>
</a>
</g>
</g>
<!-- Node27&#45;&gt;Node26 -->
<g id="edge54_Node000027_Node000026" class="edge">
<title>Node27&#45;&gt;Node26</title>
<g id="a_edge54_Node000027_Node000026"><a xlink:title=" ">
<path fill="none" stroke="#63b8ff" d="M1376.74,-164.98C1351.68,-156.19 1312.37,-142.39 1284.17,-132.49"/>
<polygon fill="#63b8ff" stroke="#63b8ff" points="1285.3,-129.18 1274.7,-129.17 1282.98,-135.78 1285.3,-129.18"/>
</a>
</g>
</g>
<!-- Node28&#45;&gt;Node2 -->
<g id="edge58_Node000028_Node000002" class="edge">
<title>Node28&#45;&gt;Node2</title>
<g id="a_edge58_Node000028_Node000002"><a xlink:title=" ">
<path fill="none" stroke="#63b8ff" d="M1340.34,-223.63C1293.01,-215.78 1197.56,-199.63 1117,-184 1001.48,-161.58 969.28,-167.28 858,-129 839.77,-122.73 837.26,-116.18 819,-110 770.2,-93.48 713.14,-82.15 669.35,-75.06"/>
<polygon fill="#63b8ff" stroke="#63b8ff" points="669.8,-71.59 659.37,-73.48 668.7,-78.51 669.8,-71.59"/>
</a>
</g>
</g>
<!-- Node28&#45;&gt;Node4 -->
<g id="edge59_Node000028_Node000004" class="edge">
<title>Node28&#45;&gt;Node4</title>
<g id="a_edge59_Node000028_Node000004"><a xlink:title=" ">
<path fill="none" stroke="#63b8ff" d="M1399.63,-223.42C1453.72,-214.14 1568.79,-194.4 1633.09,-183.37"/>
<polygon fill="#63b8ff" stroke="#63b8ff" points="1634.08,-186.76 1643.34,-181.62 1632.89,-179.86 1634.08,-186.76"/>
</a>
</g>
</g>
<!-- Node28&#45;&gt;Node6 -->
<g id="edge60_Node000028_Node000006" class="edge">
<title>Node28&#45;&gt;Node6</title>
<g id="a_edge60_Node000028_Node000006"><a xlink:title=" ">
<path fill="none" stroke="#63b8ff" d="M1399.53,-220.86C1425.23,-213.51 1462.96,-201.01 1493,-184 1516.33,-170.79 1539.74,-150.58 1554.74,-136.52"/>
<polygon fill="#63b8ff" stroke="#63b8ff" points="1557.34,-138.87 1562.15,-129.42 1552.5,-133.81 1557.34,-138.87"/>
</a>
</g>
</g>
<!-- Node28&#45;&gt;Node7 -->
<g id="edge61_Node000028_Node000007" class="edge">
<title>Node28&#45;&gt;Node7</title>
<g id="a_edge61_Node000028_Node000007"><a xlink:title=" ">
<path fill="none" stroke="#63b8ff" d="M1399.54,-228.15C1457.72,-225.63 1585.99,-210.62 1638,-129 1642.54,-121.88 1643.39,-116.5 1638,-110 1613.03,-79.91 1498.33,-70.04 1438.13,-66.9"/>
<polygon fill="#63b8ff" stroke="#63b8ff" points="1438.07,-63.39 1427.91,-66.41 1437.73,-70.39 1438.07,-63.39"/>
</a>
</g>
</g>
<!-- Node28&#45;&gt;Node8 -->
<g id="edge62_Node000028_Node000008" class="edge">
<title>Node28&#45;&gt;Node8</title>
<g id="a_edge62_Node000028_Node000008"><a xlink:title=" ">
<path fill="none" stroke="#63b8ff" d="M1399.73,-225.12C1425.03,-220.5 1459.92,-209.61 1477,-184 1486.21,-170.2 1479.97,-151.41 1472.95,-137.85"/>
<polygon fill="#63b8ff" stroke="#63b8ff" points="1475.91,-135.99 1467.9,-129.05 1469.84,-139.47 1475.91,-135.99"/>
</a>
</g>
</g>
<!-- Node28&#45;&gt;Node10 -->
<g id="edge63_Node000028_Node000010" class="edge">
<title>Node28&#45;&gt;Node10</title>
<g id="a_edge63_Node000028_Node000010"><a xlink:title=" ">
<path fill="none" stroke="#63b8ff" d="M1368.25,-219.71C1363.22,-196.98 1346.39,-136.25 1306,-110 1261.18,-80.87 892.19,-69.42 768.92,-66.39"/>
<polygon fill="#63b8ff" stroke="#63b8ff" points="768.87,-62.88 758.78,-66.14 768.7,-69.88 768.87,-62.88"/>
</a>
</g>
</g>
<!-- Node28&#45;&gt;Node21 -->
<g id="edge64_Node000028_Node000021" class="edge">
<title>Node28&#45;&gt;Node21</title>
<g id="a_edge64_Node000028_Node000021"><a xlink:title=" ">
<path fill="none" stroke="#63b8ff" d="M1340.18,-221.25C1263.98,-202.71 1061.77,-153.53 971.1,-131.47"/>
<polygon fill="#63b8ff" stroke="#63b8ff" points="971.67,-128.01 961.13,-129.04 970.02,-134.81 971.67,-128.01"/>
</a>
</g>
</g>
<!-- Node28&#45;&gt;Node26 -->
<g id="edge65_Node000028_Node000026" class="edge">
<title>Node28&#45;&gt;Node26</title>
<g id="a_edge65_Node000028_Node000026"><a xlink:title=" ">
<path fill="none" stroke="#63b8ff" d="M1360.18,-219.66C1339.77,-201.3 1292.57,-158.81 1267.07,-135.87"/>
<polygon fill="#63b8ff" stroke="#63b8ff" points="1269.39,-133.25 1259.62,-129.16 1264.71,-138.45 1269.39,-133.25"/>
</a>
</g>
</g>
<!-- Node28&#45;&gt;Node27 -->
<g id="edge66_Node000028_Node000027" class="edge">
<title>Node28&#45;&gt;Node27</title>
<g id="a_edge66_Node000028_Node000027"><a xlink:title=" ">
<path fill="none" stroke="#63b8ff" d="M1375.12,-219.75C1379.36,-212.49 1385.53,-201.95 1390.78,-192.98"/>
<polygon fill="#63b8ff" stroke="#63b8ff" points="1393.95,-194.49 1395.98,-184.09 1387.91,-190.95 1393.95,-194.49"/>
</a>
</g>
</g>
</g>
</svg>
