<?xml version="1.0" encoding="UTF-8" standalone="no"?>
<!DOCTYPE svg PUBLIC "-//W3C//DTD SVG 1.1//EN"
 "http://www.w3.org/Graphics/SVG/1.1/DTD/svg11.dtd">
<!-- Generated by graphviz version 2.43.0 (0)
 -->
<!-- Title: src/libs/vwidgets/global.h Pages: 1 -->
<!--zoomable 95 -->
<svg id="main" version="1.1" xmlns="http://www.w3.org/2000/svg" xmlns:xlink="http://www.w3.org/1999/xlink" xml:space="preserve" onload="init(evt)">
<style type="text/css"><![CDATA[
.edge:hover path { stroke: red; }
.edge:hover polygon { stroke: red; fill: red; }
]]></style>
<script type="text/javascript"><![CDATA[
var edges = document.getElementsByTagName('g');
if (edges && edges.length) {
  for (var i=0;i<edges.length;i++) {
    if (edges[i].id.substr(0,4)=='edge') {
      edges[i].setAttribute('class','edge');
    }
  }
}
]]></script>
        <defs>
                <circle id="rim" cx="0" cy="0" r="7"/>
                <circle id="rim2" cx="0" cy="0" r="3.5"/>
                <g id="zoomPlus">
                        <use xlink:href="#rim" fill="#404040">
                                <set attributeName="fill" to="#808080" begin="zoomplus.mouseover" end="zoomplus.mouseout"/>
                        </use>
                        <path d="M-4,0h8M0,-4v8" fill="none" stroke="white" stroke-width="1.5" pointer-events="none"/>
                </g>
                <g id="zoomMin">
                        <use xlink:href="#rim" fill="#404040">
                                <set attributeName="fill" to="#808080" begin="zoomminus.mouseover" end="zoomminus.mouseout"/>
                        </use>
                        <path d="M-4,0h8" fill="none" stroke="white" stroke-width="1.5" pointer-events="none"/>
                </g>
                <g id="dirArrow">
                        <path fill="none" stroke="white" stroke-width="1.5" d="M0,-3.0v7 M-2.5,-0.5L0,-3.0L2.5,-0.5"/>
                </g>
               <g id="resetDef">
                       <use xlink:href="#rim2" fill="#404040">
                               <set attributeName="fill" to="#808080" begin="reset.mouseover" end="reset.mouseout"/>
                       </use>
               </g>
        </defs>

<script type="text/javascript">
var viewWidth = 2287;
var viewHeight = 95;
var sectionId = 'dynsection-1';
</script>
<script xlink:href="../../svgpan.js"/>
<svg id="graph" class="graph">
<g id="viewport">
<title>src/libs/vwidgets/global.h</title>
<polygon fill="white" stroke="transparent" points="-4,4 -4,-91 2283,-91 2283,4 -4,4"/>
<!-- Node1 -->
<g id="node1" class="node">
<title>Node1</title>
<g id="a_node1"><a xlink:title=" ">
<polygon fill="#bfbfbf" stroke="black" points="1089.5,-67.5 1089.5,-86.5 1229.5,-86.5 1229.5,-67.5 1089.5,-67.5"/>
<text text-anchor="middle" x="1159.5" y="-74.5" font-family="Helvetica,sans-Serif" font-size="10.00">src/libs/vwidgets/global.h</text>
</a>
</g>
</g>
<!-- Node2 -->
<g id="node2" class="node">
<title>Node2</title>
<g id="a_node2"><a xlink:href="../../dd/d70/vlayoutpiece_8cpp.html" target="_top" xlink:title=" ">
<polygon fill="white" stroke="black" points="0,-6 0,-25 177,-25 177,-6 0,-6"/>
<text text-anchor="middle" x="88.5" y="-13" font-family="Helvetica,sans-Serif" font-size="10.00">src/libs/vlayout/vlayoutpiece.cpp</text>
</a>
</g>
</g>
<!-- Node1&#45;&gt;Node2 -->
<g id="edge1" class="edge">
<title>Node1&#45;&gt;Node2</title>
<path fill="none" stroke="midnightblue" d="M1079.25,-75.02C912.57,-72.38 516.85,-63 186.5,-31 171.09,-29.51 154.41,-27.27 139.24,-25"/>
<polygon fill="midnightblue" stroke="midnightblue" points="1079.37,-78.52 1089.42,-75.18 1079.47,-71.52 1079.37,-78.52"/>
</g>
<!-- Node3 -->
<g id="node3" class="node">
<title>Node3</title>
<g id="a_node3"><a xlink:href="../../db/d7d/global_8cpp.html" target="_top" xlink:title=" ">
<polygon fill="white" stroke="black" points="195.5,-6 195.5,-25 347.5,-25 347.5,-6 195.5,-6"/>
<text text-anchor="middle" x="271.5" y="-13" font-family="Helvetica,sans-Serif" font-size="10.00">src/libs/vwidgets/global.cpp</text>
</a>
</g>
</g>
<!-- Node1&#45;&gt;Node3 -->
<g id="edge2" class="edge">
<title>Node1&#45;&gt;Node3</title>
<path fill="none" stroke="midnightblue" d="M1079.33,-74.5C934.56,-71.13 620.04,-60.77 356.5,-31 343.26,-29.5 328.95,-27.3 315.92,-25.05"/>
<polygon fill="midnightblue" stroke="midnightblue" points="1079.38,-78.01 1089.46,-74.73 1079.54,-71.01 1079.38,-78.01"/>
</g>
<!-- Node4 -->
<g id="node4" class="node">
<title>Node4</title>
<g id="a_node4"><a xlink:href="../../d4/d50/scalesceneitems_8cpp.html" target="_top" xlink:title=" ">
<polygon fill="white" stroke="black" points="366,-6 366,-25 569,-25 569,-6 366,-6"/>
<text text-anchor="middle" x="467.5" y="-13" font-family="Helvetica,sans-Serif" font-size="10.00">src/libs/vwidgets/scalesceneitems.cpp</text>
</a>
</g>
</g>
<!-- Node1&#45;&gt;Node4 -->
<g id="edge3" class="edge">
<title>Node1&#45;&gt;Node4</title>
<path fill="none" stroke="midnightblue" d="M1078.82,-71.14C966.35,-64.05 756.13,-49.66 577.5,-31 561.31,-29.31 543.83,-27.15 527.66,-25.03"/>
<polygon fill="midnightblue" stroke="midnightblue" points="1078.86,-74.65 1089.06,-71.78 1079.3,-67.66 1078.86,-74.65"/>
</g>
<!-- Node5 -->
<g id="node5" class="node">
<title>Node5</title>
<g id="a_node5"><a xlink:href="../../df/dcf/vcurvepathitem_8cpp.html" target="_top" xlink:title=" ">
<polygon fill="white" stroke="black" points="587,-6 587,-25 786,-25 786,-6 587,-6"/>
<text text-anchor="middle" x="686.5" y="-13" font-family="Helvetica,sans-Serif" font-size="10.00">src/libs/vwidgets/vcurvepathitem.cpp</text>
</a>
</g>
</g>
<!-- Node1&#45;&gt;Node5 -->
<g id="edge4" class="edge">
<title>Node1&#45;&gt;Node5</title>
<path fill="none" stroke="midnightblue" d="M1079.32,-66.37C1005.35,-57.42 892.48,-43.62 794.5,-31 779.77,-29.1 763.92,-27.01 749.02,-25.01"/>
<polygon fill="midnightblue" stroke="midnightblue" points="1079.15,-69.87 1089.5,-67.6 1079.99,-62.92 1079.15,-69.87"/>
</g>
<!-- Node6 -->
<g id="node6" class="node">
<title>Node6</title>
<g id="a_node6"><a xlink:href="../../de/d45/vcontrolpointspline_8cpp.html" target="_top" xlink:title=" ">
<polygon fill="white" stroke="black" points="804,-6 804,-25 1019,-25 1019,-6 804,-6"/>
<text text-anchor="middle" x="911.5" y="-13" font-family="Helvetica,sans-Serif" font-size="10.00">src/libs/vwidgets/vcontrolpointspline.cpp</text>
</a>
</g>
</g>
<!-- Node1&#45;&gt;Node6 -->
<g id="edge5" class="edge">
<title>Node1&#45;&gt;Node6</title>
<path fill="none" stroke="midnightblue" d="M1114.13,-65.11C1065.99,-53.57 990.95,-35.56 946.97,-25.01"/>
<polygon fill="midnightblue" stroke="midnightblue" points="1113.43,-68.55 1123.97,-67.48 1115.06,-61.74 1113.43,-68.55"/>
</g>
<!-- Node7 -->
<g id="node7" class="node">
<title>Node7</title>
<g id="a_node7"><a xlink:href="../../de/dec/vgraphicssimpletextitem_8cpp.html" target="_top" xlink:title=" ">
<polygon fill="white" stroke="black" points="1037.5,-6 1037.5,-25 1281.5,-25 1281.5,-6 1037.5,-6"/>
<text text-anchor="middle" x="1159.5" y="-13" font-family="Helvetica,sans-Serif" font-size="10.00">src/libs/vwidgets/vgraphicssimpletextitem.cpp</text>
</a>
</g>
</g>
<!-- Node1&#45;&gt;Node7 -->
<g id="edge6" class="edge">
<title>Node1&#45;&gt;Node7</title>
<path fill="none" stroke="midnightblue" d="M1159.5,-57.32C1159.5,-46.5 1159.5,-33.4 1159.5,-25.01"/>
<polygon fill="midnightblue" stroke="midnightblue" points="1156,-57.48 1159.5,-67.48 1163,-57.48 1156,-57.48"/>
</g>
<!-- Node8 -->
<g id="node8" class="node">
<title>Node8</title>
<g id="a_node8"><a xlink:href="../../d8/d76/scene__rect_8cpp.html" target="_top" xlink:title=" ">
<polygon fill="white" stroke="black" points="1299.5,-0.5 1299.5,-30.5 1429.5,-30.5 1429.5,-0.5 1299.5,-0.5"/>
<text text-anchor="start" x="1307.5" y="-18.5" font-family="Helvetica,sans-Serif" font-size="10.00">src/libs/vwidgets/scene</text>
<text text-anchor="middle" x="1364.5" y="-7.5" font-family="Helvetica,sans-Serif" font-size="10.00">_rect.cpp</text>
</a>
</g>
</g>
<!-- Node1&#45;&gt;Node8 -->
<g id="edge7" class="edge">
<title>Node1&#45;&gt;Node8</title>
<path fill="none" stroke="midnightblue" d="M1198.75,-64.61C1232.19,-54.9 1280.38,-40.92 1316.19,-30.52"/>
<polygon fill="midnightblue" stroke="midnightblue" points="1197.5,-61.33 1188.87,-67.48 1199.45,-68.05 1197.5,-61.33"/>
</g>
<!-- Node9 -->
<g id="node9" class="node">
<title>Node9</title>
<g id="a_node9"><a xlink:href="../../d1/d88/vmaingraphicsscene_8cpp.html" target="_top" xlink:title=" ">
<polygon fill="white" stroke="black" points="1447.5,-6 1447.5,-25 1669.5,-25 1669.5,-6 1447.5,-6"/>
<text text-anchor="middle" x="1558.5" y="-13" font-family="Helvetica,sans-Serif" font-size="10.00">src/libs/vwidgets/vmaingraphicsscene.cpp</text>
</a>
</g>
</g>
<!-- Node1&#45;&gt;Node9 -->
<g id="edge8" class="edge">
<title>Node1&#45;&gt;Node9</title>
<path fill="none" stroke="midnightblue" d="M1226.75,-65.97C1303.85,-54.47 1428.9,-35.83 1501.44,-25.01"/>
<polygon fill="midnightblue" stroke="midnightblue" points="1226.04,-62.54 1216.67,-67.48 1227.07,-69.46 1226.04,-62.54"/>
</g>
<!-- Node10 -->
<g id="node10" class="node">
<title>Node10</title>
<g id="a_node10"><a xlink:href="../../d0/d5d/vscenepoint_8cpp.html" target="_top" xlink:title=" ">
<polygon fill="white" stroke="black" points="1688,-6 1688,-25 1869,-25 1869,-6 1688,-6"/>
<text text-anchor="middle" x="1778.5" y="-13" font-family="Helvetica,sans-Serif" font-size="10.00">src/libs/vwidgets/vscenepoint.cpp</text>
</a>
</g>
</g>
<!-- Node1&#45;&gt;Node10 -->
<g id="edge9" class="edge">
<title>Node1&#45;&gt;Node10</title>
<path fill="none" stroke="midnightblue" d="M1239.96,-70.46C1342.11,-63.11 1523.67,-48.92 1678.5,-31 1693.23,-29.3 1709.12,-27.14 1723.82,-25.01"/>
<polygon fill="midnightblue" stroke="midnightblue" points="1239.45,-66.99 1229.72,-71.2 1239.95,-73.97 1239.45,-66.99"/>
</g>
<!-- Node11 -->
<g id="node11" class="node">
<title>Node11</title>
<g id="a_node11"><a xlink:href="../../de/d22/vsimplecurve_8cpp.html" target="_top" xlink:title=" ">
<polygon fill="white" stroke="black" points="1887.5,-6 1887.5,-25 2075.5,-25 2075.5,-6 1887.5,-6"/>
<text text-anchor="middle" x="1981.5" y="-13" font-family="Helvetica,sans-Serif" font-size="10.00">src/libs/vwidgets/vsimplecurve.cpp</text>
</a>
</g>
</g>
<!-- Node1&#45;&gt;Node11 -->
<g id="edge10" class="edge">
<title>Node1&#45;&gt;Node11</title>
<path fill="none" stroke="midnightblue" d="M1239.66,-73.01C1372.65,-67.59 1647.17,-54.49 1878.5,-31 1894.22,-29.4 1911.23,-27.2 1926.8,-25"/>
<polygon fill="midnightblue" stroke="midnightblue" points="1239.41,-69.52 1229.56,-73.42 1239.69,-76.51 1239.41,-69.52"/>
</g>
<!-- Node12 -->
<g id="node12" class="node">
<title>Node12</title>
<g id="a_node12"><a xlink:href="../../df/d38/vsimplepoint_8cpp.html" target="_top" xlink:title=" ">
<polygon fill="white" stroke="black" points="2094,-6 2094,-25 2279,-25 2279,-6 2094,-6"/>
<text text-anchor="middle" x="2186.5" y="-13" font-family="Helvetica,sans-Serif" font-size="10.00">src/libs/vwidgets/vsimplepoint.cpp</text>
</a>
</g>
</g>
<!-- Node1&#45;&gt;Node12 -->
<g id="edge11" class="edge">
<title>Node1&#45;&gt;Node12</title>
<path fill="none" stroke="midnightblue" d="M1239.85,-74.59C1400.58,-71.23 1773.03,-60.65 2084.5,-31 2100.35,-29.49 2117.5,-27.28 2133.14,-25.03"/>
<polygon fill="midnightblue" stroke="midnightblue" points="1239.5,-71.1 1229.57,-74.8 1239.64,-78.1 1239.5,-71.1"/>
</g>
</g>
</svg>
        <g id="navigator" transform="translate(0 0)" fill="#404254">
                <rect fill="#f2f5e9" fill-opacity="0.5" stroke="#606060" stroke-width=".5" x="0" y="0" width="60" height="60"/>
                <use id="zoomplus" xlink:href="#zoomPlus" x="17" y="9" onmousedown="handleZoom(evt,'in')"/>
                <use id="zoomminus" xlink:href="#zoomMin" x="42" y="9" onmousedown="handleZoom(evt,'out')"/>
                <use id="reset" xlink:href="#resetDef" x="30" y="36" onmousedown="handleReset()"/>
                <g id="arrowUp" xlink:href="#dirArrow" transform="translate(30 24)" onmousedown="handlePan(0,-1)">
                  <use xlink:href="#rim" fill="#404040">
                        <set attributeName="fill" to="#808080" begin="arrowUp.mouseover" end="arrowUp.mouseout"/>
                  </use>
                  <path fill="none" stroke="white" stroke-width="1.5" d="M0,-3.0v7 M-2.5,-0.5L0,-3.0L2.5,-0.5"/>
                </g>
                <g id="arrowRight" xlink:href="#dirArrow" transform="rotate(90) translate(36 -43)" onmousedown="handlePan(1,0)">
                  <use xlink:href="#rim" fill="#404040">
                        <set attributeName="fill" to="#808080" begin="arrowRight.mouseover" end="arrowRight.mouseout"/>
                  </use>
                  <path fill="none" stroke="white" stroke-width="1.5" d="M0,-3.0v7 M-2.5,-0.5L0,-3.0L2.5,-0.5"/>
                </g>
                <g id="arrowDown" xlink:href="#dirArrow" transform="rotate(180) translate(-30 -48)" onmousedown="handlePan(0,1)">
                  <use xlink:href="#rim" fill="#404040">
                        <set attributeName="fill" to="#808080" begin="arrowDown.mouseover" end="arrowDown.mouseout"/>
                  </use>
                  <path fill="none" stroke="white" stroke-width="1.5" d="M0,-3.0v7 M-2.5,-0.5L0,-3.0L2.5,-0.5"/>
                </g>
                <g id="arrowLeft" xlink:href="#dirArrow" transform="rotate(270) translate(-36 17)" onmousedown="handlePan(-1,0)">
                  <use xlink:href="#rim" fill="#404040">
                        <set attributeName="fill" to="#808080" begin="arrowLeft.mouseover" end="arrowLeft.mouseout"/>
                  </use>
                  <path fill="none" stroke="white" stroke-width="1.5" d="M0,-3.0v7 M-2.5,-0.5L0,-3.0L2.5,-0.5"/>
                </g>
        </g>
        <svg viewBox="0 0 15 15" width="100%" height="30px" preserveAspectRatio="xMaxYMin meet">
         <g id="arrow_out" transform="scale(0.3 0.3)">
          <a xlink:href="global_8h__dep__incl_org.svg" target="_base">
           <rect id="button" ry="5" rx="5" y="6" x="6" height="38" width="38"
                fill="#f2f5e9" fill-opacity="0.5" stroke="#606060" stroke-width="1.0"/>
           <path id="arrow"
             d="M 11.500037,31.436501 C 11.940474,20.09759 22.043105,11.32322 32.158766,21.979434 L 37.068811,17.246167 C 37.068811,17.246167 37.088388,32 37.088388,32 L 22.160133,31.978069 C 22.160133,31.978069 26.997745,27.140456 26.997745,27.140456 C 18.528582,18.264221 13.291696,25.230495 11.500037,31.436501 z"
             style="fill:#404040;"/>
          </a>
         </g>
        </svg>
</svg>
