<?xml version="1.0" encoding="UTF-8" standalone="no"?>
<!DOCTYPE svg PUBLIC "-//W3C//DTD SVG 1.1//EN"
 "http://www.w3.org/Graphics/SVG/1.1/DTD/svg11.dtd">
<!-- Generated by graphviz version 2.43.0 (0)
 -->
<!-- Title: src/libs/vtools/tools/nodeDetails/vabstractnode.h Pages: 1 -->
<svg width="2109pt" height="262pt"
 viewBox="0.00 0.00 2108.50 262.00" xmlns="http://www.w3.org/2000/svg" xmlns:xlink="http://www.w3.org/1999/xlink">
<g id="graph0" class="graph" transform="scale(1 1) rotate(0) translate(4 258)">
<title>src/libs/vtools/tools/nodeDetails/vabstractnode.h</title>
<polygon fill="white" stroke="transparent" points="-4,4 -4,-258 2104.5,-258 2104.5,4 -4,4"/>
<!-- Node1 -->
<g id="node1" class="node">
<title>Node1</title>
<g id="a_node1"><a xlink:title=" ">
<polygon fill="#bfbfbf" stroke="black" points="1096.5,-223.5 1096.5,-253.5 1256.5,-253.5 1256.5,-223.5 1096.5,-223.5"/>
<text text-anchor="start" x="1104.5" y="-241.5" font-family="Helvetica,sans-Serif" font-size="10.00">src/libs/vtools/tools</text>
<text text-anchor="middle" x="1176.5" y="-230.5" font-family="Helvetica,sans-Serif" font-size="10.00">/nodeDetails/vabstractnode.h</text>
</a>
</g>
</g>
<!-- Node2 -->
<g id="node2" class="node">
<title>Node2</title>
<g id="a_node2"><a xlink:href="../../de/d51/anchorpoint__tool_8h.html" target="_top" xlink:title=" ">
<polygon fill="white" stroke="black" points="526,-145.5 526,-186.5 665,-186.5 665,-145.5 526,-145.5"/>
<text text-anchor="start" x="534" y="-174.5" font-family="Helvetica,sans-Serif" font-size="10.00">src/libs/vtools/tools</text>
<text text-anchor="start" x="534" y="-163.5" font-family="Helvetica,sans-Serif" font-size="10.00">/nodeDetails/anchorpoint</text>
<text text-anchor="middle" x="595.5" y="-152.5" font-family="Helvetica,sans-Serif" font-size="10.00">_tool.h</text>
</a>
</g>
</g>
<!-- Node1&#45;&gt;Node2 -->
<g id="edge1" class="edge">
<title>Node1&#45;&gt;Node2</title>
<path fill="none" stroke="midnightblue" d="M1086.38,-231.95C986.44,-224.95 820.67,-210.87 679.5,-187 674.77,-186.2 669.91,-185.29 665.03,-184.3"/>
<polygon fill="midnightblue" stroke="midnightblue" points="1086.22,-235.44 1096.44,-232.64 1086.71,-228.46 1086.22,-235.44"/>
</g>
<!-- Node9 -->
<g id="node9" class="node">
<title>Node9</title>
<g id="a_node9"><a xlink:href="../../d5/dcd/vabstractnode_8cpp.html" target="_top" xlink:title=" ">
<polygon fill="white" stroke="black" points="337,-151 337,-181 508,-181 508,-151 337,-151"/>
<text text-anchor="start" x="345" y="-169" font-family="Helvetica,sans-Serif" font-size="10.00">src/libs/vtools/tools</text>
<text text-anchor="middle" x="422.5" y="-158" font-family="Helvetica,sans-Serif" font-size="10.00">/nodeDetails/vabstractnode.cpp</text>
</a>
</g>
</g>
<!-- Node1&#45;&gt;Node9 -->
<g id="edge8" class="edge">
<title>Node1&#45;&gt;Node9</title>
<path fill="none" stroke="midnightblue" d="M1086.26,-234.41C958.78,-229.17 718.89,-216.14 516.5,-187 505.44,-185.41 493.72,-183.28 482.46,-181"/>
<polygon fill="midnightblue" stroke="midnightblue" points="1086.24,-237.91 1096.37,-234.81 1086.52,-230.91 1086.24,-237.91"/>
</g>
<!-- Node10 -->
<g id="node10" class="node">
<title>Node10</title>
<g id="a_node10"><a xlink:href="../../d3/d3a/vnodeellipticalarc_8cpp.html" target="_top" xlink:title=" ">
<polygon fill="white" stroke="black" points="157.5,-73 157.5,-103 345.5,-103 345.5,-73 157.5,-73"/>
<text text-anchor="start" x="165.5" y="-91" font-family="Helvetica,sans-Serif" font-size="10.00">src/libs/vtools/tools</text>
<text text-anchor="middle" x="251.5" y="-80" font-family="Helvetica,sans-Serif" font-size="10.00">/nodeDetails/vnodeellipticalarc.cpp</text>
</a>
</g>
</g>
<!-- Node1&#45;&gt;Node10 -->
<g id="edge9" class="edge">
<title>Node1&#45;&gt;Node10</title>
<path fill="none" stroke="midnightblue" d="M1086.31,-236.32C881.38,-233.06 393.29,-221.69 327.5,-187 292.27,-168.42 268.27,-125.52 257.66,-103.15"/>
<polygon fill="midnightblue" stroke="midnightblue" points="1086.39,-239.83 1096.45,-236.48 1086.5,-232.83 1086.39,-239.83"/>
</g>
<!-- Node11 -->
<g id="node11" class="node">
<title>Node11</title>
<g id="a_node11"><a xlink:href="../../d0/d43/vnodearc_8cpp.html" target="_top" xlink:title=" ">
<polygon fill="white" stroke="black" points="773.5,-73 773.5,-103 919.5,-103 919.5,-73 773.5,-73"/>
<text text-anchor="start" x="781.5" y="-91" font-family="Helvetica,sans-Serif" font-size="10.00">src/libs/vtools/tools</text>
<text text-anchor="middle" x="846.5" y="-80" font-family="Helvetica,sans-Serif" font-size="10.00">/nodeDetails/vnodearc.cpp</text>
</a>
</g>
</g>
<!-- Node1&#45;&gt;Node11 -->
<g id="edge10" class="edge">
<title>Node1&#45;&gt;Node11</title>
<path fill="none" stroke="midnightblue" d="M1086.09,-234.04C958.14,-228.2 736.95,-214.25 712.5,-187 700.04,-173.1 702.15,-160.54 712.5,-145 722.56,-129.89 763.7,-114.06 797.77,-103.1"/>
<polygon fill="midnightblue" stroke="midnightblue" points="1086.13,-237.54 1096.28,-234.5 1086.44,-230.55 1086.13,-237.54"/>
</g>
<!-- Node12 -->
<g id="node12" class="node">
<title>Node12</title>
<g id="a_node12"><a xlink:href="../../df/d25/vnodeellipticalarc_8h.html" target="_top" xlink:title=" ">
<polygon fill="white" stroke="black" points="914,-151 914,-181 1091,-181 1091,-151 914,-151"/>
<text text-anchor="start" x="922" y="-169" font-family="Helvetica,sans-Serif" font-size="10.00">src/libs/vtools/tools</text>
<text text-anchor="middle" x="1002.5" y="-158" font-family="Helvetica,sans-Serif" font-size="10.00">/nodeDetails/vnodeellipticalarc.h</text>
</a>
</g>
</g>
<!-- Node1&#45;&gt;Node12 -->
<g id="edge11" class="edge">
<title>Node1&#45;&gt;Node12</title>
<path fill="none" stroke="midnightblue" d="M1132.07,-219.5C1102.6,-207.56 1064.48,-192.11 1037.23,-181.07"/>
<polygon fill="midnightblue" stroke="midnightblue" points="1131.12,-222.89 1141.71,-223.4 1133.75,-216.4 1131.12,-222.89"/>
</g>
<!-- Node14 -->
<g id="node14" class="node">
<title>Node14</title>
<g id="a_node14"><a xlink:href="../../df/d98/vnodearc_8h.html" target="_top" xlink:title=" ">
<polygon fill="white" stroke="black" points="1109,-151 1109,-181 1244,-181 1244,-151 1109,-151"/>
<text text-anchor="start" x="1117" y="-169" font-family="Helvetica,sans-Serif" font-size="10.00">src/libs/vtools/tools</text>
<text text-anchor="middle" x="1176.5" y="-158" font-family="Helvetica,sans-Serif" font-size="10.00">/nodeDetails/vnodearc.h</text>
</a>
</g>
</g>
<!-- Node1&#45;&gt;Node14 -->
<g id="edge16" class="edge">
<title>Node1&#45;&gt;Node14</title>
<path fill="none" stroke="midnightblue" d="M1176.5,-213.23C1176.5,-202.57 1176.5,-190.41 1176.5,-181.25"/>
<polygon fill="midnightblue" stroke="midnightblue" points="1173,-213.23 1176.5,-223.23 1180,-213.23 1173,-213.23"/>
</g>
<!-- Node15 -->
<g id="node15" class="node">
<title>Node15</title>
<g id="a_node15"><a xlink:href="../../df/d94/vnodespline_8cpp.html" target="_top" xlink:title=" ">
<polygon fill="white" stroke="black" points="1739,-73 1739,-103 1900,-103 1900,-73 1739,-73"/>
<text text-anchor="start" x="1747" y="-91" font-family="Helvetica,sans-Serif" font-size="10.00">src/libs/vtools/tools</text>
<text text-anchor="middle" x="1819.5" y="-80" font-family="Helvetica,sans-Serif" font-size="10.00">/nodeDetails/vnodespline.cpp</text>
</a>
</g>
</g>
<!-- Node1&#45;&gt;Node15 -->
<g id="edge21" class="edge">
<title>Node1&#45;&gt;Node15</title>
<path fill="none" stroke="midnightblue" d="M1267.04,-235.63C1427.99,-231.49 1750.83,-219.25 1790.5,-187 1815.83,-166.41 1819.73,-124.79 1819.92,-103.01"/>
<polygon fill="midnightblue" stroke="midnightblue" points="1266.58,-232.14 1256.67,-235.89 1266.76,-239.14 1266.58,-232.14"/>
</g>
<!-- Node16 -->
<g id="node16" class="node">
<title>Node16</title>
<g id="a_node16"><a xlink:href="../../d0/dd2/vnodespline_8h.html" target="_top" xlink:title=" ">
<polygon fill="white" stroke="black" points="1425,-151 1425,-181 1574,-181 1574,-151 1425,-151"/>
<text text-anchor="start" x="1433" y="-169" font-family="Helvetica,sans-Serif" font-size="10.00">src/libs/vtools/tools</text>
<text text-anchor="middle" x="1499.5" y="-158" font-family="Helvetica,sans-Serif" font-size="10.00">/nodeDetails/vnodespline.h</text>
</a>
</g>
</g>
<!-- Node1&#45;&gt;Node16 -->
<g id="edge22" class="edge">
<title>Node1&#45;&gt;Node16</title>
<path fill="none" stroke="midnightblue" d="M1255.15,-221.41C1301.82,-211.73 1362.11,-198.99 1415.5,-187 1423.84,-185.13 1432.63,-183.1 1441.25,-181.07"/>
<polygon fill="midnightblue" stroke="midnightblue" points="1254.19,-218.03 1245.11,-223.49 1255.61,-224.89 1254.19,-218.03"/>
</g>
<!-- Node17 -->
<g id="node17" class="node">
<title>Node17</title>
<g id="a_node17"><a xlink:href="../../d5/df0/vnodepoint_8h.html" target="_top" xlink:title=" ">
<polygon fill="white" stroke="black" points="1262,-151 1262,-181 1407,-181 1407,-151 1262,-151"/>
<text text-anchor="start" x="1270" y="-169" font-family="Helvetica,sans-Serif" font-size="10.00">src/libs/vtools/tools</text>
<text text-anchor="middle" x="1334.5" y="-158" font-family="Helvetica,sans-Serif" font-size="10.00">/nodeDetails/vnodepoint.h</text>
</a>
</g>
</g>
<!-- Node1&#45;&gt;Node17 -->
<g id="edge27" class="edge">
<title>Node1&#45;&gt;Node17</title>
<path fill="none" stroke="midnightblue" d="M1217.54,-219.19C1244.2,-207.29 1278.43,-192.02 1302.96,-181.07"/>
<polygon fill="midnightblue" stroke="midnightblue" points="1215.8,-216.13 1208.09,-223.4 1218.65,-222.52 1215.8,-216.13"/>
</g>
<!-- Node18 -->
<g id="node18" class="node">
<title>Node18</title>
<g id="a_node18"><a xlink:href="../../d4/d7b/vnodepoint_8cpp.html" target="_top" xlink:title=" ">
<polygon fill="white" stroke="black" points="1564.5,-73 1564.5,-103 1720.5,-103 1720.5,-73 1564.5,-73"/>
<text text-anchor="start" x="1572.5" y="-91" font-family="Helvetica,sans-Serif" font-size="10.00">src/libs/vtools/tools</text>
<text text-anchor="middle" x="1642.5" y="-80" font-family="Helvetica,sans-Serif" font-size="10.00">/nodeDetails/vnodepoint.cpp</text>
</a>
</g>
</g>
<!-- Node1&#45;&gt;Node18 -->
<g id="edge33" class="edge">
<title>Node1&#45;&gt;Node18</title>
<path fill="none" stroke="midnightblue" d="M1266.7,-236.42C1424.71,-233.58 1738.09,-223.37 1771.5,-187 1784.13,-173.25 1781.74,-160.61 1771.5,-145 1757.97,-124.38 1735.04,-111.32 1712.23,-103.05"/>
<polygon fill="midnightblue" stroke="midnightblue" points="1266.46,-232.92 1256.52,-236.59 1266.58,-239.92 1266.46,-232.92"/>
</g>
<!-- Node19 -->
<g id="node19" class="node">
<title>Node19</title>
<g id="a_node19"><a xlink:href="../../d2/dad/vnodesplinepath_8cpp.html" target="_top" xlink:title=" ">
<polygon fill="white" stroke="black" points="1918.5,-73 1918.5,-103 2100.5,-103 2100.5,-73 1918.5,-73"/>
<text text-anchor="start" x="1926.5" y="-91" font-family="Helvetica,sans-Serif" font-size="10.00">src/libs/vtools/tools</text>
<text text-anchor="middle" x="2009.5" y="-80" font-family="Helvetica,sans-Serif" font-size="10.00">/nodeDetails/vnodesplinepath.cpp</text>
</a>
</g>
</g>
<!-- Node1&#45;&gt;Node19 -->
<g id="edge32" class="edge">
<title>Node1&#45;&gt;Node19</title>
<path fill="none" stroke="midnightblue" d="M1266.94,-234.74C1418.37,-229.38 1716.56,-215.51 1817.5,-187 1884.13,-168.18 1954.73,-125.38 1988.76,-103.09"/>
<polygon fill="midnightblue" stroke="midnightblue" points="1266.61,-231.24 1256.74,-235.09 1266.86,-238.24 1266.61,-231.24"/>
</g>
<!-- Node20 -->
<g id="node20" class="node">
<title>Node20</title>
<g id="a_node20"><a xlink:href="../../d5/d9d/vtoolinternalpath_8h.html" target="_top" xlink:title=" ">
<polygon fill="white" stroke="black" points="721.5,-151 721.5,-181 895.5,-181 895.5,-151 721.5,-151"/>
<text text-anchor="start" x="729.5" y="-169" font-family="Helvetica,sans-Serif" font-size="10.00">src/libs/vtools/tools</text>
<text text-anchor="middle" x="808.5" y="-158" font-family="Helvetica,sans-Serif" font-size="10.00">/nodeDetails/vtoolinternalpath.h</text>
</a>
</g>
</g>
<!-- Node1&#45;&gt;Node20 -->
<g id="edge34" class="edge">
<title>Node1&#45;&gt;Node20</title>
<path fill="none" stroke="midnightblue" d="M1088.35,-221.64C1035.07,-211.92 965.81,-199.08 904.5,-187 894.9,-185.11 884.76,-183.06 874.82,-181.01"/>
<polygon fill="midnightblue" stroke="midnightblue" points="1087.98,-225.13 1098.45,-223.47 1089.23,-218.24 1087.98,-225.13"/>
</g>
<!-- Node23 -->
<g id="node23" class="node">
<title>Node23</title>
<g id="a_node23"><a xlink:href="../../df/d88/vnodesplinepath_8h.html" target="_top" xlink:title=" ">
<polygon fill="white" stroke="black" points="1592,-151 1592,-181 1763,-181 1763,-151 1592,-151"/>
<text text-anchor="start" x="1600" y="-169" font-family="Helvetica,sans-Serif" font-size="10.00">src/libs/vtools/tools</text>
<text text-anchor="middle" x="1677.5" y="-158" font-family="Helvetica,sans-Serif" font-size="10.00">/nodeDetails/vnodesplinepath.h</text>
</a>
</g>
</g>
<!-- Node1&#45;&gt;Node23 -->
<g id="edge41" class="edge">
<title>Node1&#45;&gt;Node23</title>
<path fill="none" stroke="midnightblue" d="M1266.61,-228.48C1349.09,-219.71 1474.39,-205.07 1582.5,-187 1592.89,-185.26 1603.87,-183.18 1614.53,-181.03"/>
<polygon fill="midnightblue" stroke="midnightblue" points="1266.1,-225.01 1256.52,-229.55 1266.83,-231.98 1266.1,-225.01"/>
</g>
<!-- Node3 -->
<g id="node3" class="node">
<title>Node3</title>
<g id="a_node3"><a xlink:href="../../d8/dd9/mainwindow_8cpp.html" target="_top" xlink:title=" ">
<polygon fill="white" stroke="black" points="363.5,-78.5 363.5,-97.5 551.5,-97.5 551.5,-78.5 363.5,-78.5"/>
<text text-anchor="middle" x="457.5" y="-85.5" font-family="Helvetica,sans-Serif" font-size="10.00">src/app/seamly2d/mainwindow.cpp</text>
</a>
</g>
</g>
<!-- Node2&#45;&gt;Node3 -->
<g id="edge2" class="edge">
<title>Node2&#45;&gt;Node3</title>
<path fill="none" stroke="midnightblue" d="M551.12,-140.56C524.33,-125.8 491.84,-107.91 473.03,-97.55"/>
<polygon fill="midnightblue" stroke="midnightblue" points="549.51,-143.67 559.96,-145.43 552.89,-137.54 549.51,-143.67"/>
</g>
<!-- Node4 -->
<g id="node4" class="node">
<title>Node4</title>
<g id="a_node4"><a xlink:href="../../d9/d3a/anchorpoint__tool_8cpp.html" target="_top" xlink:title=" ">
<polygon fill="white" stroke="black" points="0,-67.5 0,-108.5 139,-108.5 139,-67.5 0,-67.5"/>
<text text-anchor="start" x="8" y="-96.5" font-family="Helvetica,sans-Serif" font-size="10.00">src/libs/vtools/tools</text>
<text text-anchor="start" x="8" y="-85.5" font-family="Helvetica,sans-Serif" font-size="10.00">/nodeDetails/anchorpoint</text>
<text text-anchor="middle" x="69.5" y="-74.5" font-family="Helvetica,sans-Serif" font-size="10.00">_tool.cpp</text>
</a>
</g>
</g>
<!-- Node2&#45;&gt;Node4 -->
<g id="edge3" class="edge">
<title>Node2&#45;&gt;Node4</title>
<path fill="none" stroke="midnightblue" d="M515.95,-145.06C352.84,-117.54 307.23,-136.69 148.5,-109 145.43,-108.47 142.31,-107.87 139.16,-107.24"/>
<polygon fill="midnightblue" stroke="midnightblue" points="515.39,-148.51 525.84,-146.76 516.57,-141.61 515.39,-148.51"/>
</g>
<!-- Node5 -->
<g id="node5" class="node">
<title>Node5</title>
<g id="a_node5"><a xlink:href="../../d5/dcf/nodedetails_8h.html" target="_top" xlink:title=" ">
<polygon fill="white" stroke="black" points="1250,-73 1250,-103 1397,-103 1397,-73 1250,-73"/>
<text text-anchor="start" x="1258" y="-91" font-family="Helvetica,sans-Serif" font-size="10.00">src/libs/vtools/tools</text>
<text text-anchor="middle" x="1323.5" y="-80" font-family="Helvetica,sans-Serif" font-size="10.00">/nodeDetails/nodedetails.h</text>
</a>
</g>
</g>
<!-- Node2&#45;&gt;Node5 -->
<g id="edge4" class="edge">
<title>Node2&#45;&gt;Node5</title>
<path fill="none" stroke="midnightblue" d="M675.16,-150.27C687.63,-148.29 700.39,-146.44 712.5,-145 946.06,-117.15 1008.01,-144.68 1240.5,-109 1250.46,-107.47 1260.99,-105.34 1271.08,-103.04"/>
<polygon fill="midnightblue" stroke="midnightblue" points="674.55,-146.83 665.24,-151.89 675.68,-153.74 674.55,-146.83"/>
</g>
<!-- Node8 -->
<g id="node8" class="node">
<title>Node8</title>
<g id="a_node8"><a xlink:href="../../d4/d9f/union__tool_8cpp.html" target="_top" xlink:title=" ">
<polygon fill="white" stroke="black" points="1121,-73 1121,-103 1232,-103 1232,-73 1121,-73"/>
<text text-anchor="start" x="1129" y="-91" font-family="Helvetica,sans-Serif" font-size="10.00">src/libs/vtools/tools</text>
<text text-anchor="middle" x="1176.5" y="-80" font-family="Helvetica,sans-Serif" font-size="10.00">/union_tool.cpp</text>
</a>
</g>
</g>
<!-- Node2&#45;&gt;Node8 -->
<g id="edge7" class="edge">
<title>Node2&#45;&gt;Node8</title>
<path fill="none" stroke="midnightblue" d="M675.19,-150.51C687.65,-148.49 700.41,-146.58 712.5,-145 889.06,-121.98 936.79,-143.37 1111.5,-109 1119.38,-107.45 1127.66,-105.31 1135.57,-103.01"/>
<polygon fill="midnightblue" stroke="midnightblue" points="674.57,-147.06 665.27,-152.14 675.71,-153.97 674.57,-147.06"/>
</g>
<!-- Node6 -->
<g id="node6" class="node">
<title>Node6</title>
<g id="a_node6"><a xlink:href="../../d5/da5/tools_8h.html" target="_top" xlink:title=" ">
<polygon fill="white" stroke="black" points="1203,-0.5 1203,-30.5 1314,-30.5 1314,-0.5 1203,-0.5"/>
<text text-anchor="start" x="1211" y="-18.5" font-family="Helvetica,sans-Serif" font-size="10.00">src/libs/vtools/tools</text>
<text text-anchor="middle" x="1258.5" y="-7.5" font-family="Helvetica,sans-Serif" font-size="10.00">/tools.h</text>
</a>
</g>
</g>
<!-- Node5&#45;&gt;Node6 -->
<g id="edge5" class="edge">
<title>Node5&#45;&gt;Node6</title>
<path fill="none" stroke="midnightblue" d="M1303.55,-65.36C1293.18,-54.11 1280.79,-40.68 1271.63,-30.75"/>
<polygon fill="midnightblue" stroke="midnightblue" points="1300.99,-67.75 1310.35,-72.73 1306.14,-63.01 1300.99,-67.75"/>
</g>
<!-- Node7 -->
<g id="node7" class="node">
<title>Node7</title>
<g id="a_node7"><a xlink:href="../../d9/d4e/vabstracttool_8cpp.html" target="_top" xlink:title=" ">
<polygon fill="white" stroke="black" points="1332,-0.5 1332,-30.5 1443,-30.5 1443,-0.5 1332,-0.5"/>
<text text-anchor="start" x="1340" y="-18.5" font-family="Helvetica,sans-Serif" font-size="10.00">src/libs/vtools/tools</text>
<text text-anchor="middle" x="1387.5" y="-7.5" font-family="Helvetica,sans-Serif" font-size="10.00">/vabstracttool.cpp</text>
</a>
</g>
</g>
<!-- Node5&#45;&gt;Node7 -->
<g id="edge6" class="edge">
<title>Node5&#45;&gt;Node7</title>
<path fill="none" stroke="midnightblue" d="M1343.44,-65.04C1353.59,-53.86 1365.64,-40.58 1374.57,-30.75"/>
<polygon fill="midnightblue" stroke="midnightblue" points="1340.58,-62.98 1336.45,-72.73 1345.76,-67.68 1340.58,-62.98"/>
</g>
<!-- Node12&#45;&gt;Node5 -->
<g id="edge13" class="edge">
<title>Node12&#45;&gt;Node5</title>
<path fill="none" stroke="midnightblue" d="M1072.54,-148.63C1119.96,-137.51 1184.02,-122.45 1240.5,-109 1248.57,-107.08 1257.09,-105.04 1265.46,-103.03"/>
<polygon fill="midnightblue" stroke="midnightblue" points="1071.62,-145.25 1062.68,-150.93 1073.21,-152.06 1071.62,-145.25"/>
</g>
<!-- Node12&#45;&gt;Node8 -->
<g id="edge15" class="edge">
<title>Node12&#45;&gt;Node8</title>
<path fill="none" stroke="midnightblue" d="M1044,-146.87C1074.76,-133.44 1116.08,-115.39 1144.35,-103.04"/>
<polygon fill="midnightblue" stroke="midnightblue" points="1042.58,-143.67 1034.82,-150.88 1045.39,-150.09 1042.58,-143.67"/>
</g>
<!-- Node12&#45;&gt;Node10 -->
<g id="edge12" class="edge">
<title>Node12&#45;&gt;Node10</title>
<path fill="none" stroke="midnightblue" d="M930.18,-149.09C921.55,-147.53 912.85,-146.12 904.5,-145 661.71,-112.43 597.45,-140.41 354.5,-109 342.4,-107.44 329.57,-105.32 317.24,-103.05"/>
<polygon fill="midnightblue" stroke="midnightblue" points="929.77,-152.57 940.24,-150.97 931.06,-145.69 929.77,-152.57"/>
</g>
<!-- Node13 -->
<g id="node13" class="node">
<title>Node13</title>
<g id="a_node13"><a xlink:href="../../d8/dea/pattern__piece__tool_8cpp.html" target="_top" xlink:title=" ">
<polygon fill="white" stroke="black" points="1415,-73 1415,-103 1546,-103 1546,-73 1415,-73"/>
<text text-anchor="start" x="1423" y="-91" font-family="Helvetica,sans-Serif" font-size="10.00">src/libs/vtools/tools</text>
<text text-anchor="middle" x="1480.5" y="-80" font-family="Helvetica,sans-Serif" font-size="10.00">/pattern_piece_tool.cpp</text>
</a>
</g>
</g>
<!-- Node12&#45;&gt;Node13 -->
<g id="edge14" class="edge">
<title>Node12&#45;&gt;Node13</title>
<path fill="none" stroke="midnightblue" d="M1076.37,-149.08C1084.16,-147.61 1091.98,-146.22 1099.5,-145 1234.68,-123.15 1271,-134.71 1405.5,-109 1414.1,-107.36 1423.17,-105.26 1431.92,-103.04"/>
<polygon fill="midnightblue" stroke="midnightblue" points="1075.69,-145.65 1066.53,-150.98 1077.02,-152.52 1075.69,-145.65"/>
</g>
<!-- Node14&#45;&gt;Node5 -->
<g id="edge18" class="edge">
<title>Node14&#45;&gt;Node5</title>
<path fill="none" stroke="midnightblue" d="M1212.91,-146.17C1238.75,-132.82 1272.87,-115.18 1296.34,-103.04"/>
<polygon fill="midnightblue" stroke="midnightblue" points="1211.08,-143.18 1203.81,-150.88 1214.3,-149.4 1211.08,-143.18"/>
</g>
<!-- Node14&#45;&gt;Node8 -->
<g id="edge20" class="edge">
<title>Node14&#45;&gt;Node8</title>
<path fill="none" stroke="midnightblue" d="M1176.5,-140.59C1176.5,-128.26 1176.5,-113.72 1176.5,-103.23"/>
<polygon fill="midnightblue" stroke="midnightblue" points="1173,-140.7 1176.5,-150.7 1180,-140.71 1173,-140.7"/>
</g>
<!-- Node14&#45;&gt;Node11 -->
<g id="edge17" class="edge">
<title>Node14&#45;&gt;Node11</title>
<path fill="none" stroke="midnightblue" d="M1113.71,-148.43C1108.91,-147.25 1104.13,-146.09 1099.5,-145 1023.89,-127.23 1004.24,-126.2 928.5,-109 920.21,-107.12 911.47,-105.06 902.91,-103.01"/>
<polygon fill="midnightblue" stroke="midnightblue" points="1113.01,-151.87 1123.56,-150.9 1114.71,-145.08 1113.01,-151.87"/>
</g>
<!-- Node14&#45;&gt;Node13 -->
<g id="edge19" class="edge">
<title>Node14&#45;&gt;Node13</title>
<path fill="none" stroke="midnightblue" d="M1239.11,-148.38C1243.64,-147.23 1248.14,-146.09 1252.5,-145 1320.28,-128.11 1337.74,-126 1405.5,-109 1412.95,-107.13 1420.8,-105.1 1428.5,-103.08"/>
<polygon fill="midnightblue" stroke="midnightblue" points="1238,-145.06 1229.19,-150.94 1239.75,-151.83 1238,-145.06"/>
</g>
<!-- Node16&#45;&gt;Node5 -->
<g id="edge23" class="edge">
<title>Node16&#45;&gt;Node5</title>
<path fill="none" stroke="midnightblue" d="M1457.52,-146.87C1426.41,-133.44 1384.61,-115.39 1356.02,-103.04"/>
<polygon fill="midnightblue" stroke="midnightblue" points="1456.24,-150.13 1466.81,-150.88 1459.02,-143.71 1456.24,-150.13"/>
</g>
<!-- Node16&#45;&gt;Node8 -->
<g id="edge26" class="edge">
<title>Node16&#45;&gt;Node8</title>
<path fill="none" stroke="midnightblue" d="M1431.8,-148.69C1426.29,-147.42 1420.81,-146.18 1415.5,-145 1337.98,-127.8 1317.38,-128.87 1240.5,-109 1233.62,-107.22 1226.39,-105.16 1219.36,-103.04"/>
<polygon fill="midnightblue" stroke="midnightblue" points="1431.18,-152.14 1441.71,-150.99 1432.77,-145.32 1431.18,-152.14"/>
</g>
<!-- Node16&#45;&gt;Node13 -->
<g id="edge25" class="edge">
<title>Node16&#45;&gt;Node13</title>
<path fill="none" stroke="midnightblue" d="M1493.49,-140.96C1490.39,-128.55 1486.71,-113.83 1484.06,-103.23"/>
<polygon fill="midnightblue" stroke="midnightblue" points="1490.11,-141.85 1495.93,-150.7 1496.9,-140.15 1490.11,-141.85"/>
</g>
<!-- Node16&#45;&gt;Node15 -->
<g id="edge24" class="edge">
<title>Node16&#45;&gt;Node15</title>
<path fill="none" stroke="midnightblue" d="M1567.38,-148.62C1572.5,-147.39 1577.58,-146.17 1582.5,-145 1642.75,-130.62 1711.65,-114.36 1759.58,-103.08"/>
<polygon fill="midnightblue" stroke="midnightblue" points="1566.45,-145.24 1557.54,-150.98 1568.08,-152.05 1566.45,-145.24"/>
</g>
<!-- Node17&#45;&gt;Node5 -->
<g id="edge28" class="edge">
<title>Node17&#45;&gt;Node5</title>
<path fill="none" stroke="midnightblue" d="M1330.97,-140.59C1329.18,-128.26 1327.08,-113.72 1325.56,-103.23"/>
<polygon fill="midnightblue" stroke="midnightblue" points="1327.53,-141.31 1332.43,-150.7 1334.46,-140.31 1327.53,-141.31"/>
</g>
<!-- Node17&#45;&gt;Node8 -->
<g id="edge31" class="edge">
<title>Node17&#45;&gt;Node8</title>
<path fill="none" stroke="midnightblue" d="M1296.09,-146.52C1268.24,-133.13 1231.14,-115.28 1205.69,-103.04"/>
<polygon fill="midnightblue" stroke="midnightblue" points="1294.62,-149.7 1305.15,-150.88 1297.66,-143.39 1294.62,-149.7"/>
</g>
<!-- Node17&#45;&gt;Node13 -->
<g id="edge30" class="edge">
<title>Node17&#45;&gt;Node13</title>
<path fill="none" stroke="midnightblue" d="M1370.67,-146.17C1396.33,-132.82 1430.21,-115.18 1453.53,-103.04"/>
<polygon fill="midnightblue" stroke="midnightblue" points="1368.87,-143.16 1361.62,-150.88 1372.11,-149.37 1368.87,-143.16"/>
</g>
<!-- Node17&#45;&gt;Node18 -->
<g id="edge29" class="edge">
<title>Node17&#45;&gt;Node18</title>
<path fill="none" stroke="midnightblue" d="M1401.4,-148.48C1406.17,-147.3 1410.91,-146.13 1415.5,-145 1473.43,-130.7 1539.68,-114.36 1585.59,-103.04"/>
<polygon fill="midnightblue" stroke="midnightblue" points="1400.46,-145.11 1391.59,-150.9 1402.13,-151.9 1400.46,-145.11"/>
</g>
<!-- Node20&#45;&gt;Node3 -->
<g id="edge35" class="edge">
<title>Node20&#45;&gt;Node3</title>
<path fill="none" stroke="midnightblue" d="M733.72,-148.81C661.22,-133.11 554.05,-109.91 496.85,-97.52"/>
<polygon fill="midnightblue" stroke="midnightblue" points="733.2,-152.28 743.71,-150.97 734.68,-145.43 733.2,-152.28"/>
</g>
<!-- Node20&#45;&gt;Node5 -->
<g id="edge36" class="edge">
<title>Node20&#45;&gt;Node5</title>
<path fill="none" stroke="midnightblue" d="M881.22,-149.06C889.06,-147.58 896.93,-146.19 904.5,-145 1052.86,-121.66 1092.52,-134.65 1240.5,-109 1249.99,-107.35 1260.02,-105.26 1269.69,-103.04"/>
<polygon fill="midnightblue" stroke="midnightblue" points="880.49,-145.64 871.34,-150.98 881.82,-152.51 880.49,-145.64"/>
</g>
<!-- Node20&#45;&gt;Node8 -->
<g id="edge39" class="edge">
<title>Node20&#45;&gt;Node8</title>
<path fill="none" stroke="midnightblue" d="M884.28,-148.97C891.11,-147.6 897.93,-146.26 904.5,-145 996.22,-127.47 1020.69,-130.77 1111.5,-109 1118.73,-107.27 1126.34,-105.17 1133.71,-103"/>
<polygon fill="midnightblue" stroke="midnightblue" points="883.39,-145.58 874.28,-150.99 884.78,-152.44 883.39,-145.58"/>
</g>
<!-- Node20&#45;&gt;Node13 -->
<g id="edge38" class="edge">
<title>Node20&#45;&gt;Node13</title>
<path fill="none" stroke="midnightblue" d="M879.8,-149.05C888.1,-147.52 896.47,-146.12 904.5,-145 1125.6,-114.17 1185.33,-145.92 1405.5,-109 1414.54,-107.48 1424.07,-105.36 1433.19,-103.06"/>
<polygon fill="midnightblue" stroke="midnightblue" points="878.91,-145.65 869.74,-150.97 880.22,-152.53 878.91,-145.65"/>
</g>
<!-- Node21 -->
<g id="node21" class="node">
<title>Node21</title>
<g id="a_node21"><a xlink:href="../../d3/dd9/vtoolinternalpath_8cpp.html" target="_top" xlink:title=" ">
<polygon fill="white" stroke="black" points="570,-73 570,-103 755,-103 755,-73 570,-73"/>
<text text-anchor="start" x="578" y="-91" font-family="Helvetica,sans-Serif" font-size="10.00">src/libs/vtools/tools</text>
<text text-anchor="middle" x="662.5" y="-80" font-family="Helvetica,sans-Serif" font-size="10.00">/nodeDetails/vtoolinternalpath.cpp</text>
</a>
</g>
</g>
<!-- Node20&#45;&gt;Node21 -->
<g id="edge37" class="edge">
<title>Node20&#45;&gt;Node21</title>
<path fill="none" stroke="midnightblue" d="M772.33,-146.17C746.67,-132.82 712.79,-115.18 689.47,-103.04"/>
<polygon fill="midnightblue" stroke="midnightblue" points="770.89,-149.37 781.38,-150.88 774.13,-143.16 770.89,-149.37"/>
</g>
<!-- Node22 -->
<g id="node22" class="node">
<title>Node22</title>
<g id="a_node22"><a xlink:href="../../dd/d3a/savepiecepathoptions_8cpp.html" target="_top" xlink:title=" ">
<polygon fill="white" stroke="black" points="938,-73 938,-103 1103,-103 1103,-73 938,-73"/>
<text text-anchor="start" x="946" y="-91" font-family="Helvetica,sans-Serif" font-size="10.00">src/libs/vtools/undocommands</text>
<text text-anchor="middle" x="1020.5" y="-80" font-family="Helvetica,sans-Serif" font-size="10.00">/savepiecepathoptions.cpp</text>
</a>
</g>
</g>
<!-- Node20&#45;&gt;Node22 -->
<g id="edge40" class="edge">
<title>Node20&#45;&gt;Node22</title>
<path fill="none" stroke="midnightblue" d="M857.62,-147.39C895.24,-133.9 946.44,-115.55 981.33,-103.04"/>
<polygon fill="midnightblue" stroke="midnightblue" points="856.11,-144.21 847.88,-150.88 858.47,-150.8 856.11,-144.21"/>
</g>
<!-- Node23&#45;&gt;Node5 -->
<g id="edge42" class="edge">
<title>Node23&#45;&gt;Node5</title>
<path fill="none" stroke="midnightblue" d="M1601.16,-148.88C1594.85,-147.56 1588.57,-146.26 1582.5,-145 1503.89,-128.73 1483.84,-126.51 1405.5,-109 1397.21,-107.15 1388.46,-105.11 1379.89,-103.06"/>
<polygon fill="midnightblue" stroke="midnightblue" points="1600.57,-152.33 1611.07,-150.95 1602,-145.48 1600.57,-152.33"/>
</g>
<!-- Node23&#45;&gt;Node8 -->
<g id="edge45" class="edge">
<title>Node23&#45;&gt;Node8</title>
<path fill="none" stroke="midnightblue" d="M1605.28,-148.99C1597.61,-147.53 1589.91,-146.17 1582.5,-145 1431.52,-121.23 1390.17,-139.95 1240.5,-109 1232.86,-107.42 1224.84,-105.3 1217.15,-103.03"/>
<polygon fill="midnightblue" stroke="midnightblue" points="1604.84,-152.47 1615.33,-150.96 1606.18,-145.6 1604.84,-152.47"/>
</g>
<!-- Node23&#45;&gt;Node13 -->
<g id="edge44" class="edge">
<title>Node23&#45;&gt;Node13</title>
<path fill="none" stroke="midnightblue" d="M1631.41,-147.22C1596.49,-133.75 1549.18,-115.5 1516.9,-103.04"/>
<polygon fill="midnightblue" stroke="midnightblue" points="1630.32,-150.55 1640.91,-150.88 1632.84,-144.02 1630.32,-150.55"/>
</g>
<!-- Node23&#45;&gt;Node19 -->
<g id="edge43" class="edge">
<title>Node23&#45;&gt;Node19</title>
<path fill="none" stroke="midnightblue" d="M1748.84,-148.67C1808.23,-135.07 1891.91,-115.92 1948.3,-103.01"/>
<polygon fill="midnightblue" stroke="midnightblue" points="1747.75,-145.33 1738.78,-150.97 1749.31,-152.15 1747.75,-145.33"/>
</g>
</g>
</svg>
