<?xml version="1.0" encoding="UTF-8" standalone="no"?>
<!DOCTYPE svg PUBLIC "-//W3C//DTD SVG 1.1//EN"
 "http://www.w3.org/Graphics/SVG/1.1/DTD/svg11.dtd">
<!-- Generated by graphviz version 2.43.0 (0)
 -->
<!-- Title: src/libs/vwidgets/vgrainlineitem.h Pages: 1 -->
<svg width="1089pt" height="258pt"
 viewBox="0.00 0.00 1088.50 258.00" xmlns="http://www.w3.org/2000/svg" xmlns:xlink="http://www.w3.org/1999/xlink">
<g id="graph0" class="graph" transform="scale(1 1) rotate(0) translate(4 254)">
<title>src/libs/vwidgets/vgrainlineitem.h</title>
<!-- Node1 -->
<g id="Node000001" class="node">
<title>Node1</title>
<g id="a_Node000001"><a xlink:title=" ">
<polygon fill="#999999" stroke="#666666" points="489,-250 307,-250 307,-231 489,-231 489,-250"/>
<text text-anchor="middle" x="398" y="-238" font-family="Helvetica,sans-Serif" font-size="10.00">src/libs/vwidgets/vgrainlineitem.h</text>
</a>
</g>
</g>
<!-- Node2 -->
<g id="Node000002" class="node">
<title>Node2</title>
<g id="a_Node000002"><a xlink:href="../../d3/d16/vpieceitem_8h.html" target="_top" xlink:title=" ">
<polygon fill="white" stroke="#666666" points="350,-189.5 270,-189.5 270,-170.5 350,-170.5 350,-189.5"/>
<text text-anchor="middle" x="310" y="-177.5" font-family="Helvetica,sans-Serif" font-size="10.00">vpieceitem.h</text>
</a>
</g>
</g>
<!-- Node1&#45;&gt;Node2 -->
<g id="edge1_Node000001_Node000002" class="edge">
<title>Node1&#45;&gt;Node2</title>
<g id="a_edge1_Node000001_Node000002"><a xlink:title=" ">
<path fill="none" stroke="#63b8ff" d="M385.02,-230.87C370.98,-221.54 348.37,-206.51 331.64,-195.38"/>
<polygon fill="#63b8ff" stroke="#63b8ff" points="333.3,-192.29 323.04,-189.67 329.43,-198.12 333.3,-192.29"/>
</a>
</g>
</g>
<!-- Node5 -->
<g id="Node000005" class="node">
<title>Node5</title>
<g id="a_Node000005"><a xlink:href="../../d4/da4/def_8h.html" target="_top" xlink:title=" ">
<polygon fill="white" stroke="#666666" points="439,-129 357,-129 357,-110 439,-110 439,-129"/>
<text text-anchor="middle" x="398" y="-117" font-family="Helvetica,sans-Serif" font-size="10.00">../vmisc/def.h</text>
</a>
</g>
</g>
<!-- Node1&#45;&gt;Node5 -->
<g id="edge25_Node000001_Node000005" class="edge">
<title>Node1&#45;&gt;Node5</title>
<g id="a_edge25_Node000001_Node000005"><a xlink:title=" ">
<path fill="none" stroke="#63b8ff" d="M398,-230.94C398,-211.91 398,-165.69 398,-139.47"/>
<polygon fill="#63b8ff" stroke="#63b8ff" points="401.5,-139.3 398,-129.3 394.5,-139.3 401.5,-139.3"/>
</a>
</g>
</g>
<!-- Node17 -->
<g id="Node000017" class="node">
<title>Node17</title>
<g id="a_Node000017"><a xlink:href="../../d3/d4a/vgrainlinedata_8h.html" target="_top" xlink:title=" ">
<polygon fill="white" stroke="#666666" points="918.5,-195 769.5,-195 769.5,-165 918.5,-165 918.5,-195"/>
<text text-anchor="start" x="777.5" y="-183" font-family="Helvetica,sans-Serif" font-size="10.00">../vpatterndb/floatItemData</text>
<text text-anchor="middle" x="844" y="-172" font-family="Helvetica,sans-Serif" font-size="10.00">/vgrainlinedata.h</text>
</a>
</g>
</g>
<!-- Node1&#45;&gt;Node17 -->
<g id="edge16_Node000001_Node000017" class="edge">
<title>Node1&#45;&gt;Node17</title>
<g id="a_edge16_Node000001_Node000017"><a xlink:title=" ">
<path fill="none" stroke="#63b8ff" d="M462.85,-230.99C541.17,-220.72 673.1,-203.42 759.37,-192.1"/>
<polygon fill="#63b8ff" stroke="#63b8ff" points="759.93,-195.56 769.39,-190.79 759.02,-188.62 759.93,-195.56"/>
</a>
</g>
</g>
<!-- Node3 -->
<g id="Node000003" class="node">
<title>Node3</title>
<g id="a_Node000003"><a xlink:title=" ">
<polygon fill="#e0e0e0" stroke="#999999" points="339,-129 241,-129 241,-110 339,-110 339,-129"/>
<text text-anchor="middle" x="290" y="-117" font-family="Helvetica,sans-Serif" font-size="10.00">QtCore/qglobal.h</text>
</a>
</g>
</g>
<!-- Node2&#45;&gt;Node3 -->
<g id="edge2_Node000002_Node000003" class="edge">
<title>Node2&#45;&gt;Node3</title>
<g id="a_edge2_Node000002_Node000003"><a xlink:title=" ">
<path fill="none" stroke="#63b8ff" d="M307.05,-170.37C304.21,-162.07 299.84,-149.28 296.23,-138.72"/>
<polygon fill="#63b8ff" stroke="#63b8ff" points="299.51,-137.5 292.96,-129.17 292.89,-139.76 299.51,-137.5"/>
</a>
</g>
</g>
<!-- Node4 -->
<g id="Node000004" class="node">
<title>Node4</title>
<g id="a_Node000004"><a xlink:title=" ">
<polygon fill="#e0e0e0" stroke="#999999" points="223,-129 125,-129 125,-110 223,-110 223,-129"/>
<text text-anchor="middle" x="174" y="-117" font-family="Helvetica,sans-Serif" font-size="10.00">QGraphicsObject</text>
</a>
</g>
</g>
<!-- Node2&#45;&gt;Node4 -->
<g id="edge3_Node000002_Node000004" class="edge">
<title>Node2&#45;&gt;Node4</title>
<g id="a_edge3_Node000002_Node000004"><a xlink:title=" ">
<path fill="none" stroke="#63b8ff" d="M290.22,-170.49C267.36,-160.66 229.51,-144.38 203.24,-133.08"/>
<polygon fill="#63b8ff" stroke="#63b8ff" points="204.37,-129.75 193.8,-129.02 201.6,-136.18 204.37,-129.75"/>
</a>
</g>
</g>
<!-- Node2&#45;&gt;Node5 -->
<g id="edge4_Node000002_Node000005" class="edge">
<title>Node2&#45;&gt;Node5</title>
<g id="a_edge4_Node000002_Node000005"><a xlink:title=" ">
<path fill="none" stroke="#63b8ff" d="M322.98,-170.37C337.02,-161.04 359.63,-146.01 376.36,-134.88"/>
<polygon fill="#63b8ff" stroke="#63b8ff" points="378.57,-137.62 384.96,-129.17 374.7,-131.79 378.57,-137.62"/>
</a>
</g>
</g>
<!-- Node6 -->
<g id="Node000006" class="node">
<title>Node6</title>
<g id="a_Node000006"><a xlink:title=" ">
<polygon fill="#e0e0e0" stroke="#999999" points="737,-74 617,-74 617,-55 737,-55 737,-74"/>
<text text-anchor="middle" x="677" y="-62" font-family="Helvetica,sans-Serif" font-size="10.00">qcompilerdetection.h</text>
</a>
</g>
</g>
<!-- Node5&#45;&gt;Node6 -->
<g id="edge5_Node000005_Node000006" class="edge">
<title>Node5&#45;&gt;Node6</title>
<g id="a_edge5_Node000005_Node000006"><a xlink:title=" ">
<path fill="none" stroke="#63b8ff" d="M439.17,-110.68C487.58,-101.48 568.15,-86.18 621.92,-75.96"/>
<polygon fill="#63b8ff" stroke="#63b8ff" points="622.79,-79.36 631.96,-74.06 621.48,-72.48 622.79,-79.36"/>
</a>
</g>
</g>
<!-- Node7 -->
<g id="Node000007" class="node">
<title>Node7</title>
<g id="a_Node000007"><a xlink:title=" ">
<polygon fill="#e0e0e0" stroke="#999999" points="530.5,-74 457.5,-74 457.5,-55 530.5,-55 530.5,-74"/>
<text text-anchor="middle" x="494" y="-62" font-family="Helvetica,sans-Serif" font-size="10.00">QFileDialog</text>
</a>
</g>
</g>
<!-- Node5&#45;&gt;Node7 -->
<g id="edge6_Node000005_Node000007" class="edge">
<title>Node5&#45;&gt;Node7</title>
<g id="a_edge6_Node000005_Node000007"><a xlink:title=" ">
<path fill="none" stroke="#63b8ff" d="M413.42,-109.98C428.45,-101.69 451.54,-88.94 469.16,-79.22"/>
<polygon fill="#63b8ff" stroke="#63b8ff" points="471.23,-82.07 478.3,-74.17 467.85,-75.94 471.23,-82.07"/>
</a>
</g>
</g>
<!-- Node8 -->
<g id="Node000008" class="node">
<title>Node8</title>
<g id="a_Node000008"><a xlink:title=" ">
<polygon fill="#e0e0e0" stroke="#999999" points="599,-74 549,-74 549,-55 599,-55 599,-74"/>
<text text-anchor="middle" x="574" y="-62" font-family="Helvetica,sans-Serif" font-size="10.00">QLineF</text>
</a>
</g>
</g>
<!-- Node5&#45;&gt;Node8 -->
<g id="edge7_Node000005_Node000008" class="edge">
<title>Node5&#45;&gt;Node8</title>
<g id="a_edge7_Node000005_Node000008"><a xlink:title=" ">
<path fill="none" stroke="#63b8ff" d="M426.28,-109.98C457.01,-100.73 506.14,-85.93 539.22,-75.97"/>
<polygon fill="#63b8ff" stroke="#63b8ff" points="540.36,-79.28 548.93,-73.05 538.34,-72.58 540.36,-79.28"/>
</a>
</g>
</g>
<!-- Node9 -->
<g id="Node000009" class="node">
<title>Node9</title>
<g id="a_Node000009"><a xlink:title=" ">
<polygon fill="#e0e0e0" stroke="#999999" points="808.5,-74 755.5,-74 755.5,-55 808.5,-55 808.5,-74"/>
<text text-anchor="middle" x="782" y="-62" font-family="Helvetica,sans-Serif" font-size="10.00">QString</text>
</a>
</g>
</g>
<!-- Node5&#45;&gt;Node9 -->
<g id="edge8_Node000005_Node000009" class="edge">
<title>Node5&#45;&gt;Node9</title>
<g id="a_edge8_Node000005_Node000009"><a xlink:title=" ">
<path fill="none" stroke="#63b8ff" d="M439.2,-114.64C502.7,-108.39 628.49,-94.78 745.15,-73.96"/>
<polygon fill="#63b8ff" stroke="#63b8ff" points="746.11,-77.35 755.33,-72.13 744.87,-70.46 746.11,-77.35"/>
</a>
</g>
</g>
<!-- Node10 -->
<g id="Node000010" class="node">
<title>Node10</title>
<g id="a_Node000010"><a xlink:title=" ">
<polygon fill="#e0e0e0" stroke="#999999" points="70,-74 0,-74 0,-55 70,-55 70,-74"/>
<text text-anchor="middle" x="35" y="-62" font-family="Helvetica,sans-Serif" font-size="10.00">QStringList</text>
</a>
</g>
</g>
<!-- Node5&#45;&gt;Node10 -->
<g id="edge9_Node000005_Node000010" class="edge">
<title>Node5&#45;&gt;Node10</title>
<g id="a_edge9_Node000005_Node000010"><a xlink:title=" ">
<path fill="none" stroke="#63b8ff" d="M356.82,-111.38C353.84,-110.9 350.87,-110.44 348,-110 231.89,-92.37 199.72,-93.38 79.96,-74.07"/>
<polygon fill="#63b8ff" stroke="#63b8ff" points="80.46,-70.61 70.03,-72.46 79.34,-77.52 80.46,-70.61"/>
</a>
</g>
</g>
<!-- Node11 -->
<g id="Node000011" class="node">
<title>Node11</title>
<g id="a_Node000011"><a xlink:title=" ">
<polygon fill="#e0e0e0" stroke="#999999" points="117.5,-74 88.5,-74 88.5,-55 117.5,-55 117.5,-74"/>
<text text-anchor="middle" x="103" y="-62" font-family="Helvetica,sans-Serif" font-size="10.00">Qt</text>
</a>
</g>
</g>
<!-- Node5&#45;&gt;Node11 -->
<g id="edge10_Node000005_Node000011" class="edge">
<title>Node5&#45;&gt;Node11</title>
<g id="a_edge10_Node000005_Node000011"><a xlink:title=" ">
<path fill="none" stroke="#63b8ff" d="M356.8,-111.47C353.82,-110.97 350.87,-110.48 348,-110 252.57,-94.15 224.46,-99.09 127.84,-74.1"/>
<polygon fill="#63b8ff" stroke="#63b8ff" points="128.52,-70.66 117.96,-71.5 126.74,-77.43 128.52,-70.66"/>
</a>
</g>
</g>
<!-- Node12 -->
<g id="Node000012" class="node">
<title>Node12</title>
<g id="a_Node000012"><a xlink:title=" ">
<polygon fill="#e0e0e0" stroke="#999999" points="194.5,-74 135.5,-74 135.5,-55 194.5,-55 194.5,-74"/>
<text text-anchor="middle" x="165" y="-62" font-family="Helvetica,sans-Serif" font-size="10.00">QtGlobal</text>
</a>
</g>
</g>
<!-- Node5&#45;&gt;Node12 -->
<g id="edge11_Node000005_Node000012" class="edge">
<title>Node5&#45;&gt;Node12</title>
<g id="a_edge11_Node000005_Node000012"><a xlink:title=" ">
<path fill="none" stroke="#63b8ff" d="M360.56,-109.98C317.81,-100.26 248.16,-84.42 204.54,-74.49"/>
<polygon fill="#63b8ff" stroke="#63b8ff" points="205.11,-71.03 194.58,-72.23 203.56,-77.86 205.11,-71.03"/>
</a>
</g>
</g>
<!-- Node13 -->
<g id="Node000013" class="node">
<title>Node13</title>
<g id="a_Node000013"><a xlink:title=" ">
<polygon fill="#e0e0e0" stroke="#999999" points="269,-74 213,-74 213,-55 269,-55 269,-74"/>
<text text-anchor="middle" x="241" y="-62" font-family="Helvetica,sans-Serif" font-size="10.00">QPrinter</text>
</a>
</g>
</g>
<!-- Node5&#45;&gt;Node13 -->
<g id="edge12_Node000005_Node000013" class="edge">
<title>Node5&#45;&gt;Node13</title>
<g id="a_edge12_Node000005_Node000013"><a xlink:title=" ">
<path fill="none" stroke="#63b8ff" d="M372.78,-109.98C346.64,-101.16 305.6,-87.31 276.27,-77.41"/>
<polygon fill="#63b8ff" stroke="#63b8ff" points="277.02,-73.96 266.42,-74.08 274.78,-80.6 277.02,-73.96"/>
</a>
</g>
</g>
<!-- Node14 -->
<g id="Node000014" class="node">
<title>Node14</title>
<g id="a_Node000014"><a xlink:title=" ">
<polygon fill="#e0e0e0" stroke="#999999" points="338.5,-74 287.5,-74 287.5,-55 338.5,-55 338.5,-74"/>
<text text-anchor="middle" x="313" y="-62" font-family="Helvetica,sans-Serif" font-size="10.00">csignal</text>
</a>
</g>
</g>
<!-- Node5&#45;&gt;Node14 -->
<g id="edge13_Node000005_Node000014" class="edge">
<title>Node5&#45;&gt;Node14</title>
<g id="a_edge13_Node000005_Node000014"><a xlink:title=" ">
<path fill="none" stroke="#63b8ff" d="M384.34,-109.98C371.16,-101.77 350.97,-89.18 335.43,-79.49"/>
<polygon fill="#63b8ff" stroke="#63b8ff" points="337.24,-76.49 326.91,-74.17 333.54,-82.43 337.24,-76.49"/>
</a>
</g>
</g>
<!-- Node15 -->
<g id="Node000015" class="node">
<title>Node15</title>
<g id="a_Node000015"><a xlink:href="../../d4/d82/debugbreak_8h.html" target="_top" xlink:title=" ">
<polygon fill="white" stroke="#666666" points="439.5,-74 356.5,-74 356.5,-55 439.5,-55 439.5,-74"/>
<text text-anchor="middle" x="398" y="-62" font-family="Helvetica,sans-Serif" font-size="10.00">debugbreak.h</text>
</a>
</g>
</g>
<!-- Node5&#45;&gt;Node15 -->
<g id="edge14_Node000005_Node000015" class="edge">
<title>Node5&#45;&gt;Node15</title>
<g id="a_edge14_Node000005_Node000015"><a xlink:title=" ">
<path fill="none" stroke="#63b8ff" d="M398,-109.75C398,-102.8 398,-92.85 398,-84.13"/>
<polygon fill="#63b8ff" stroke="#63b8ff" points="401.5,-84.09 398,-74.09 394.5,-84.09 401.5,-84.09"/>
</a>
</g>
</g>
<!-- Node16 -->
<g id="Node000016" class="node">
<title>Node16</title>
<g id="a_Node000016"><a xlink:title=" ">
<polygon fill="#e0e0e0" stroke="#999999" points="425.5,-19 370.5,-19 370.5,0 425.5,0 425.5,-19"/>
<text text-anchor="middle" x="398" y="-7" font-family="Helvetica,sans-Serif" font-size="10.00">signal.h</text>
</a>
</g>
</g>
<!-- Node15&#45;&gt;Node16 -->
<g id="edge15_Node000015_Node000016" class="edge">
<title>Node15&#45;&gt;Node16</title>
<g id="a_edge15_Node000015_Node000016"><a xlink:title=" ">
<path fill="none" stroke="#63b8ff" d="M398,-54.75C398,-47.8 398,-37.85 398,-29.13"/>
<polygon fill="#63b8ff" stroke="#63b8ff" points="401.5,-29.09 398,-19.09 394.5,-29.09 401.5,-29.09"/>
</a>
</g>
</g>
<!-- Node17&#45;&gt;Node9 -->
<g id="edge17_Node000017_Node000009" class="edge">
<title>Node17&#45;&gt;Node9</title>
<g id="a_edge17_Node000017_Node000009"><a xlink:title=" ">
<path fill="none" stroke="#63b8ff" d="M824.54,-164.96C813.53,-155.94 800.49,-143.27 793,-129 785.76,-115.21 783.14,-97.64 782.26,-84.48"/>
<polygon fill="#63b8ff" stroke="#63b8ff" points="785.75,-84.11 781.86,-74.25 778.75,-84.38 785.75,-84.11"/>
</a>
</g>
</g>
<!-- Node18 -->
<g id="Node000018" class="node">
<title>Node18</title>
<g id="a_Node000018"><a xlink:title=" ">
<polygon fill="#e0e0e0" stroke="#999999" points="942.5,-74 887.5,-74 887.5,-55 942.5,-55 942.5,-74"/>
<text text-anchor="middle" x="915" y="-62" font-family="Helvetica,sans-Serif" font-size="10.00">QPointF</text>
</a>
</g>
</g>
<!-- Node17&#45;&gt;Node18 -->
<g id="edge18_Node000017_Node000018" class="edge">
<title>Node17&#45;&gt;Node18</title>
<g id="a_edge18_Node000017_Node000018"><a xlink:title=" ">
<path fill="none" stroke="#63b8ff" d="M862.97,-164.9C874.04,-155.77 887.45,-143.01 896,-129 904.43,-115.19 909.33,-97.39 912.04,-84.15"/>
<polygon fill="#63b8ff" stroke="#63b8ff" points="915.48,-84.76 913.82,-74.29 908.6,-83.51 915.48,-84.76"/>
</a>
</g>
</g>
<!-- Node19 -->
<g id="Node000019" class="node">
<title>Node19</title>
<g id="a_Node000019"><a xlink:href="../../db/dc1/vabstractfloatitemdata_8h.html" target="_top" xlink:title=" ">
<polygon fill="white" stroke="#666666" points="1080.5,-129 943.5,-129 943.5,-110 1080.5,-110 1080.5,-129"/>
<text text-anchor="middle" x="1012" y="-117" font-family="Helvetica,sans-Serif" font-size="10.00">vabstractfloatitemdata.h</text>
</a>
</g>
</g>
<!-- Node17&#45;&gt;Node19 -->
<g id="edge19_Node000017_Node000019" class="edge">
<title>Node17&#45;&gt;Node19</title>
<g id="a_edge19_Node000017_Node000019"><a xlink:title=" ">
<path fill="none" stroke="#63b8ff" d="M884.24,-164.99C912.77,-155.05 950.65,-141.86 977.73,-132.43"/>
<polygon fill="#63b8ff" stroke="#63b8ff" points="978.9,-135.73 987.19,-129.14 976.6,-129.12 978.9,-135.73"/>
</a>
</g>
</g>
<!-- Node21 -->
<g id="Node000021" class="node">
<title>Node21</title>
<g id="a_Node000021"><a xlink:href="../../dc/d76/floatitemdef_8h.html" target="_top" xlink:title=" ">
<polygon fill="white" stroke="#666666" points="886.5,-129 801.5,-129 801.5,-110 886.5,-110 886.5,-129"/>
<text text-anchor="middle" x="844" y="-117" font-family="Helvetica,sans-Serif" font-size="10.00">floatitemdef.h</text>
</a>
</g>
</g>
<!-- Node17&#45;&gt;Node21 -->
<g id="edge22_Node000017_Node000021" class="edge">
<title>Node17&#45;&gt;Node21</title>
<g id="a_edge22_Node000017_Node000021"><a xlink:title=" ">
<path fill="none" stroke="#63b8ff" d="M844,-164.84C844,-157.21 844,-147.7 844,-139.45"/>
<polygon fill="#63b8ff" stroke="#63b8ff" points="847.5,-139.27 844,-129.27 840.5,-139.27 847.5,-139.27"/>
</a>
</g>
</g>
<!-- Node19&#45;&gt;Node18 -->
<g id="edge20_Node000019_Node000018" class="edge">
<title>Node19&#45;&gt;Node18</title>
<g id="a_edge20_Node000019_Node000018"><a xlink:title=" ">
<path fill="none" stroke="#63b8ff" d="M996.42,-109.98C981.23,-101.69 957.9,-88.94 940.1,-79.22"/>
<polygon fill="#63b8ff" stroke="#63b8ff" points="941.32,-75.89 930.87,-74.17 937.97,-82.04 941.32,-75.89"/>
</a>
</g>
</g>
<!-- Node20 -->
<g id="Node000020" class="node">
<title>Node20</title>
<g id="a_Node000020"><a xlink:title=" ">
<polygon fill="#e0e0e0" stroke="#999999" points="1077,-74 961,-74 961,-55 1077,-55 1077,-74"/>
<text text-anchor="middle" x="1019" y="-62" font-family="Helvetica,sans-Serif" font-size="10.00">QSharedDataPointer</text>
</a>
</g>
</g>
<!-- Node19&#45;&gt;Node20 -->
<g id="edge21_Node000019_Node000020" class="edge">
<title>Node19&#45;&gt;Node20</title>
<g id="a_edge21_Node000019_Node000020"><a xlink:title=" ">
<path fill="none" stroke="#63b8ff" d="M1013.16,-109.75C1014.07,-102.8 1015.39,-92.85 1016.54,-84.13"/>
<polygon fill="#63b8ff" stroke="#63b8ff" points="1020.03,-84.46 1017.87,-74.09 1013.09,-83.54 1020.03,-84.46"/>
</a>
</g>
</g>
<!-- Node21&#45;&gt;Node9 -->
<g id="edge24_Node000021_Node000009" class="edge">
<title>Node21&#45;&gt;Node9</title>
<g id="a_edge24_Node000021_Node000009"><a xlink:title=" ">
<path fill="none" stroke="#63b8ff" d="M834.04,-109.98C824.87,-102.15 811.06,-90.34 799.97,-80.86"/>
<polygon fill="#63b8ff" stroke="#63b8ff" points="802.02,-78.01 792.14,-74.17 797.47,-83.33 802.02,-78.01"/>
</a>
</g>
</g>
<!-- Node22 -->
<g id="Node000022" class="node">
<title>Node22</title>
<g id="a_Node000022"><a xlink:title=" ">
<polygon fill="#e0e0e0" stroke="#999999" points="867.5,-74 826.5,-74 826.5,-55 867.5,-55 867.5,-74"/>
<text text-anchor="middle" x="847" y="-62" font-family="Helvetica,sans-Serif" font-size="10.00">QList</text>
</a>
</g>
</g>
<!-- Node21&#45;&gt;Node22 -->
<g id="edge23_Node000021_Node000022" class="edge">
<title>Node21&#45;&gt;Node22</title>
<g id="a_edge23_Node000021_Node000022"><a xlink:title=" ">
<path fill="none" stroke="#63b8ff" d="M844.5,-109.75C844.89,-102.8 845.45,-92.85 845.95,-84.13"/>
<polygon fill="#63b8ff" stroke="#63b8ff" points="849.44,-84.27 846.51,-74.09 842.45,-83.88 849.44,-84.27"/>
</a>
</g>
</g>
</g>
</svg>
