<?xml version="1.0" encoding="UTF-8" standalone="no"?>
<!DOCTYPE svg PUBLIC "-//W3C//DTD SVG 1.1//EN"
 "http://www.w3.org/Graphics/SVG/1.1/DTD/svg11.dtd">
<!-- Generated by graphviz version 2.43.0 (0)
 -->
<!-- Title: src/libs/ifc/exception/vexception.h Pages: 1 -->
<svg width="818pt" height="258pt"
 viewBox="0.00 0.00 817.50 258.00" xmlns="http://www.w3.org/2000/svg" xmlns:xlink="http://www.w3.org/1999/xlink">
<g id="graph0" class="graph" transform="scale(1 1) rotate(0) translate(4 254)">
<title>src/libs/ifc/exception/vexception.h</title>
<!-- Node1 -->
<g id="Node000001" class="node">
<title>Node1</title>
<g id="a_Node000001"><a xlink:title=" ">
<polygon fill="#999999" stroke="#666666" points="627.5,-250 510.5,-250 510.5,-220 627.5,-220 627.5,-250"/>
<text text-anchor="start" x="518.5" y="-238" font-family="Helvetica,sans-Serif" font-size="10.00">src/libs/ifc/exception</text>
<text text-anchor="middle" x="569" y="-227" font-family="Helvetica,sans-Serif" font-size="10.00">/vexception.h</text>
</a>
</g>
</g>
<!-- Node2 -->
<g id="Node000002" class="node">
<title>Node2</title>
<g id="a_Node000002"><a xlink:title=" ">
<polygon fill="#e0e0e0" stroke="#999999" points="120,-74 0,-74 0,-55 120,-55 120,-74"/>
<text text-anchor="middle" x="60" y="-62" font-family="Helvetica,sans-Serif" font-size="10.00">qcompilerdetection.h</text>
</a>
</g>
</g>
<!-- Node1&#45;&gt;Node2 -->
<g id="edge1_Node000001_Node000002" class="edge">
<title>Node1&#45;&gt;Node2</title>
<g id="a_edge1_Node000001_Node000002"><a xlink:title=" ">
<path fill="none" stroke="#63b8ff" d="M510.24,-220.59C435.94,-202.93 304.63,-169.35 196,-129 156.4,-114.29 112.43,-92.75 85.49,-78.93"/>
<polygon fill="#63b8ff" stroke="#63b8ff" points="86.87,-75.7 76.38,-74.21 83.65,-81.92 86.87,-75.7"/>
</a>
</g>
</g>
<!-- Node3 -->
<g id="Node000003" class="node">
<title>Node3</title>
<g id="a_Node000003"><a xlink:title=" ">
<polygon fill="#e0e0e0" stroke="#999999" points="698.5,-184 597.5,-184 597.5,-165 698.5,-165 698.5,-184"/>
<text text-anchor="middle" x="648" y="-172" font-family="Helvetica,sans-Serif" font-size="10.00">QCoreApplication</text>
</a>
</g>
</g>
<!-- Node1&#45;&gt;Node3 -->
<g id="edge2_Node000001_Node000003" class="edge">
<title>Node1&#45;&gt;Node3</title>
<g id="a_edge2_Node000001_Node000003"><a xlink:title=" ">
<path fill="none" stroke="#63b8ff" d="M588.12,-219.84C600.18,-210.91 615.71,-199.41 627.94,-190.35"/>
<polygon fill="#63b8ff" stroke="#63b8ff" points="630.21,-193.03 636.16,-184.27 626.04,-187.4 630.21,-193.03"/>
</a>
</g>
</g>
<!-- Node4 -->
<g id="Node000004" class="node">
<title>Node4</title>
<g id="a_Node000004"><a xlink:title=" ">
<polygon fill="#e0e0e0" stroke="#999999" points="789,-184 717,-184 717,-165 789,-165 789,-184"/>
<text text-anchor="middle" x="753" y="-172" font-family="Helvetica,sans-Serif" font-size="10.00">QException</text>
</a>
</g>
</g>
<!-- Node1&#45;&gt;Node4 -->
<g id="edge3_Node000001_Node000004" class="edge">
<title>Node1&#45;&gt;Node4</title>
<g id="a_edge3_Node000001_Node000004"><a xlink:title=" ">
<path fill="none" stroke="#63b8ff" d="M613.07,-219.99C644.69,-209.94 686.78,-196.55 716.52,-187.1"/>
<polygon fill="#63b8ff" stroke="#63b8ff" points="717.63,-190.42 726.1,-184.05 715.51,-183.75 717.63,-190.42"/>
</a>
</g>
</g>
<!-- Node5 -->
<g id="Node000005" class="node">
<title>Node5</title>
<g id="a_Node000005"><a xlink:title=" ">
<polygon fill="#e0e0e0" stroke="#999999" points="809.5,-74 756.5,-74 756.5,-55 809.5,-55 809.5,-74"/>
<text text-anchor="middle" x="783" y="-62" font-family="Helvetica,sans-Serif" font-size="10.00">QString</text>
</a>
</g>
</g>
<!-- Node1&#45;&gt;Node5 -->
<g id="edge4_Node000001_Node000005" class="edge">
<title>Node1&#45;&gt;Node5</title>
<g id="a_edge4_Node000001_Node000005"><a xlink:title=" ">
<path fill="none" stroke="#63b8ff" d="M569.85,-219.79C571.44,-204.66 575.99,-180.78 589,-165 630.22,-115.01 703.05,-87.39 746.79,-74.57"/>
<polygon fill="#63b8ff" stroke="#63b8ff" points="747.78,-77.93 756.45,-71.84 745.88,-71.19 747.78,-77.93"/>
</a>
</g>
</g>
<!-- Node6 -->
<g id="Node000006" class="node">
<title>Node6</title>
<g id="a_Node000006"><a xlink:href="../../d3/da5/ifcdef_8h.html" target="_top" xlink:title=" ">
<polygon fill="white" stroke="#666666" points="490,-184 428,-184 428,-165 490,-165 490,-184"/>
<text text-anchor="middle" x="459" y="-172" font-family="Helvetica,sans-Serif" font-size="10.00">../ifcdef.h</text>
</a>
</g>
</g>
<!-- Node1&#45;&gt;Node6 -->
<g id="edge5_Node000001_Node000006" class="edge">
<title>Node1&#45;&gt;Node6</title>
<g id="a_edge5_Node000001_Node000006"><a xlink:title=" ">
<path fill="none" stroke="#63b8ff" d="M542.65,-219.99C524.95,-210.58 501.77,-198.24 484.29,-188.95"/>
<polygon fill="#63b8ff" stroke="#63b8ff" points="485.72,-185.74 475.24,-184.14 482.43,-191.92 485.72,-185.74"/>
</a>
</g>
</g>
<!-- Node6&#45;&gt;Node5 -->
<g id="edge6_Node000006_Node000005" class="edge">
<title>Node6&#45;&gt;Node5</title>
<g id="a_edge6_Node000006_Node000005"><a xlink:title=" ">
<path fill="none" stroke="#63b8ff" d="M468.88,-164.98C485.48,-151.15 520.55,-123.95 555,-110 632.56,-78.58 660.07,-90.99 746.34,-73.99"/>
<polygon fill="#63b8ff" stroke="#63b8ff" points="747.2,-77.39 756.29,-71.95 745.8,-70.53 747.2,-77.39"/>
</a>
</g>
</g>
<!-- Node7 -->
<g id="Node000007" class="node">
<title>Node7</title>
<g id="a_Node000007"><a xlink:title=" ">
<polygon fill="#e0e0e0" stroke="#999999" points="738,-74 668,-74 668,-55 738,-55 738,-74"/>
<text text-anchor="middle" x="703" y="-62" font-family="Helvetica,sans-Serif" font-size="10.00">QStringList</text>
</a>
</g>
</g>
<!-- Node6&#45;&gt;Node7 -->
<g id="edge7_Node000006_Node000007" class="edge">
<title>Node6&#45;&gt;Node7</title>
<g id="a_edge7_Node000006_Node000007"><a xlink:title=" ">
<path fill="none" stroke="#63b8ff" d="M464.57,-164.57C473.73,-150.65 493.33,-123.95 517,-110 529.13,-102.85 606.9,-85.62 657.96,-74.82"/>
<polygon fill="#63b8ff" stroke="#63b8ff" points="658.73,-78.24 667.79,-72.76 657.29,-71.39 658.73,-78.24"/>
</a>
</g>
</g>
<!-- Node8 -->
<g id="Node000008" class="node">
<title>Node8</title>
<g id="a_Node000008"><a xlink:title=" ">
<polygon fill="#e0e0e0" stroke="#999999" points="197.5,-74 138.5,-74 138.5,-55 197.5,-55 197.5,-74"/>
<text text-anchor="middle" x="168" y="-62" font-family="Helvetica,sans-Serif" font-size="10.00">QtGlobal</text>
</a>
</g>
</g>
<!-- Node6&#45;&gt;Node8 -->
<g id="edge8_Node000006_Node000008" class="edge">
<title>Node6&#45;&gt;Node8</title>
<g id="a_edge8_Node000006_Node000008"><a xlink:title=" ">
<path fill="none" stroke="#63b8ff" d="M427.91,-173.87C380.74,-173.11 289.67,-166.39 224,-129 204.51,-117.9 188.36,-97.48 178.49,-82.78"/>
<polygon fill="#63b8ff" stroke="#63b8ff" points="181.28,-80.65 172.94,-74.11 175.38,-84.42 181.28,-80.65"/>
</a>
</g>
</g>
<!-- Node9 -->
<g id="Node000009" class="node">
<title>Node9</title>
<g id="a_Node000009"><a xlink:href="../../d4/da4/def_8h.html" target="_top" xlink:title=" ">
<polygon fill="white" stroke="#666666" points="465,-129 383,-129 383,-110 465,-110 465,-129"/>
<text text-anchor="middle" x="424" y="-117" font-family="Helvetica,sans-Serif" font-size="10.00">../vmisc/def.h</text>
</a>
</g>
</g>
<!-- Node6&#45;&gt;Node9 -->
<g id="edge9_Node000006_Node000009" class="edge">
<title>Node6&#45;&gt;Node9</title>
<g id="a_edge9_Node000006_Node000009"><a xlink:title=" ">
<path fill="none" stroke="#63b8ff" d="M453.22,-164.75C448.38,-157.42 441.32,-146.73 435.36,-137.7"/>
<polygon fill="#63b8ff" stroke="#63b8ff" points="438.1,-135.5 429.67,-129.09 432.26,-139.36 438.1,-135.5"/>
</a>
</g>
</g>
<!-- Node17 -->
<g id="Node000017" class="node">
<title>Node17</title>
<g id="a_Node000017"><a xlink:href="../../d6/dcd/diagnostic_8h.html" target="_top" xlink:title=" ">
<polygon fill="white" stroke="#666666" points="349.5,-129 232.5,-129 232.5,-110 349.5,-110 349.5,-129"/>
<text text-anchor="middle" x="291" y="-117" font-family="Helvetica,sans-Serif" font-size="10.00">../vmisc/diagnostic.h</text>
</a>
</g>
</g>
<!-- Node6&#45;&gt;Node17 -->
<g id="edge21_Node000006_Node000017" class="edge">
<title>Node6&#45;&gt;Node17</title>
<g id="a_edge21_Node000006_Node000017"><a xlink:title=" ">
<path fill="none" stroke="#63b8ff" d="M432.01,-164.98C403.8,-156.09 359.36,-142.07 327.92,-132.15"/>
<polygon fill="#63b8ff" stroke="#63b8ff" points="328.79,-128.75 318.2,-129.08 326.69,-135.43 328.79,-128.75"/>
</a>
</g>
</g>
<!-- Node9&#45;&gt;Node2 -->
<g id="edge10_Node000009_Node000002" class="edge">
<title>Node9&#45;&gt;Node2</title>
<g id="a_edge10_Node000009_Node000002"><a xlink:title=" ">
<path fill="none" stroke="#63b8ff" d="M382.95,-112.52C321.24,-103.54 203.84,-86.44 128.87,-75.53"/>
<polygon fill="#63b8ff" stroke="#63b8ff" points="128.98,-72.01 118.58,-74.03 127.97,-78.93 128.98,-72.01"/>
</a>
</g>
</g>
<!-- Node9&#45;&gt;Node5 -->
<g id="edge13_Node000009_Node000005" class="edge">
<title>Node9&#45;&gt;Node5</title>
<g id="a_edge13_Node000009_Node000005"><a xlink:title=" ">
<path fill="none" stroke="#63b8ff" d="M465.25,-114.09C524.98,-107.42 639.23,-93.63 746.32,-73.96"/>
<polygon fill="#63b8ff" stroke="#63b8ff" points="747.13,-77.36 756.32,-72.1 745.85,-70.48 747.13,-77.36"/>
</a>
</g>
</g>
<!-- Node9&#45;&gt;Node7 -->
<g id="edge14_Node000009_Node000007" class="edge">
<title>Node9&#45;&gt;Node7</title>
<g id="a_edge14_Node000009_Node000007"><a xlink:title=" ">
<path fill="none" stroke="#63b8ff" d="M465.19,-110.75C510.1,-102.29 584.37,-88.26 658.02,-74.18"/>
<polygon fill="#63b8ff" stroke="#63b8ff" points="658.77,-77.6 667.94,-72.29 657.46,-70.73 658.77,-77.6"/>
</a>
</g>
</g>
<!-- Node9&#45;&gt;Node8 -->
<g id="edge16_Node000009_Node000008" class="edge">
<title>Node9&#45;&gt;Node8</title>
<g id="a_edge16_Node000009_Node000008"><a xlink:title=" ">
<path fill="none" stroke="#63b8ff" d="M382.77,-110.2C341.14,-101.79 274.73,-88.27 207.69,-74.13"/>
<polygon fill="#63b8ff" stroke="#63b8ff" points="208.31,-70.68 197.8,-72.03 206.86,-77.53 208.31,-70.68"/>
</a>
</g>
</g>
<!-- Node10 -->
<g id="Node000010" class="node">
<title>Node10</title>
<g id="a_Node000010"><a xlink:title=" ">
<polygon fill="#e0e0e0" stroke="#999999" points="649.5,-74 576.5,-74 576.5,-55 649.5,-55 649.5,-74"/>
<text text-anchor="middle" x="613" y="-62" font-family="Helvetica,sans-Serif" font-size="10.00">QFileDialog</text>
</a>
</g>
</g>
<!-- Node9&#45;&gt;Node10 -->
<g id="edge11_Node000009_Node000010" class="edge">
<title>Node9&#45;&gt;Node10</title>
<g id="a_edge11_Node000009_Node000010"><a xlink:title=" ">
<path fill="none" stroke="#63b8ff" d="M454.37,-109.98C486.37,-101.01 536.96,-86.82 572.38,-76.89"/>
<polygon fill="#63b8ff" stroke="#63b8ff" points="573.71,-80.15 582.4,-74.08 571.82,-73.41 573.71,-80.15"/>
</a>
</g>
</g>
<!-- Node11 -->
<g id="Node000011" class="node">
<title>Node11</title>
<g id="a_Node000011"><a xlink:title=" ">
<polygon fill="#e0e0e0" stroke="#999999" points="266,-74 216,-74 216,-55 266,-55 266,-74"/>
<text text-anchor="middle" x="241" y="-62" font-family="Helvetica,sans-Serif" font-size="10.00">QLineF</text>
</a>
</g>
</g>
<!-- Node9&#45;&gt;Node11 -->
<g id="edge12_Node000009_Node000011" class="edge">
<title>Node9&#45;&gt;Node11</title>
<g id="a_edge12_Node000009_Node000011"><a xlink:title=" ">
<path fill="none" stroke="#63b8ff" d="M394.6,-109.98C362.23,-100.61 310.23,-85.55 275.84,-75.59"/>
<polygon fill="#63b8ff" stroke="#63b8ff" points="276.78,-72.22 266.21,-72.8 274.84,-78.94 276.78,-72.22"/>
</a>
</g>
</g>
<!-- Node12 -->
<g id="Node000012" class="node">
<title>Node12</title>
<g id="a_Node000012"><a xlink:title=" ">
<polygon fill="#e0e0e0" stroke="#999999" points="313.5,-74 284.5,-74 284.5,-55 313.5,-55 313.5,-74"/>
<text text-anchor="middle" x="299" y="-62" font-family="Helvetica,sans-Serif" font-size="10.00">Qt</text>
</a>
</g>
</g>
<!-- Node9&#45;&gt;Node12 -->
<g id="edge15_Node000009_Node000012" class="edge">
<title>Node9&#45;&gt;Node12</title>
<g id="a_edge15_Node000009_Node000012"><a xlink:title=" ">
<path fill="none" stroke="#63b8ff" d="M403.92,-109.98C381.82,-100.61 346.32,-85.56 322.82,-75.6"/>
<polygon fill="#63b8ff" stroke="#63b8ff" points="324.14,-72.36 313.57,-71.68 321.41,-78.8 324.14,-72.36"/>
</a>
</g>
</g>
<!-- Node13 -->
<g id="Node000013" class="node">
<title>Node13</title>
<g id="a_Node000013"><a xlink:title=" ">
<polygon fill="#e0e0e0" stroke="#999999" points="388,-74 332,-74 332,-55 388,-55 388,-74"/>
<text text-anchor="middle" x="360" y="-62" font-family="Helvetica,sans-Serif" font-size="10.00">QPrinter</text>
</a>
</g>
</g>
<!-- Node9&#45;&gt;Node13 -->
<g id="edge17_Node000009_Node000013" class="edge">
<title>Node9&#45;&gt;Node13</title>
<g id="a_edge17_Node000009_Node000013"><a xlink:title=" ">
<path fill="none" stroke="#63b8ff" d="M413.72,-109.98C404.16,-102.07 389.72,-90.11 378.22,-80.58"/>
<polygon fill="#63b8ff" stroke="#63b8ff" points="380.4,-77.85 370.47,-74.17 375.94,-83.24 380.4,-77.85"/>
</a>
</g>
</g>
<!-- Node14 -->
<g id="Node000014" class="node">
<title>Node14</title>
<g id="a_Node000014"><a xlink:title=" ">
<polygon fill="#e0e0e0" stroke="#999999" points="457.5,-74 406.5,-74 406.5,-55 457.5,-55 457.5,-74"/>
<text text-anchor="middle" x="432" y="-62" font-family="Helvetica,sans-Serif" font-size="10.00">csignal</text>
</a>
</g>
</g>
<!-- Node9&#45;&gt;Node14 -->
<g id="edge18_Node000009_Node000014" class="edge">
<title>Node9&#45;&gt;Node14</title>
<g id="a_edge18_Node000009_Node000014"><a xlink:title=" ">
<path fill="none" stroke="#63b8ff" d="M425.32,-109.75C426.37,-102.8 427.87,-92.85 429.19,-84.13"/>
<polygon fill="#63b8ff" stroke="#63b8ff" points="432.67,-84.5 430.7,-74.09 425.75,-83.45 432.67,-84.5"/>
</a>
</g>
</g>
<!-- Node15 -->
<g id="Node000015" class="node">
<title>Node15</title>
<g id="a_Node000015"><a xlink:href="../../d4/d82/debugbreak_8h.html" target="_top" xlink:title=" ">
<polygon fill="white" stroke="#666666" points="558.5,-74 475.5,-74 475.5,-55 558.5,-55 558.5,-74"/>
<text text-anchor="middle" x="517" y="-62" font-family="Helvetica,sans-Serif" font-size="10.00">debugbreak.h</text>
</a>
</g>
</g>
<!-- Node9&#45;&gt;Node15 -->
<g id="edge19_Node000009_Node000015" class="edge">
<title>Node9&#45;&gt;Node15</title>
<g id="a_edge19_Node000009_Node000015"><a xlink:title=" ">
<path fill="none" stroke="#63b8ff" d="M438.94,-109.98C453.5,-101.69 475.87,-88.94 492.93,-79.22"/>
<polygon fill="#63b8ff" stroke="#63b8ff" points="494.83,-82.16 501.79,-74.17 491.36,-76.08 494.83,-82.16"/>
</a>
</g>
</g>
<!-- Node16 -->
<g id="Node000016" class="node">
<title>Node16</title>
<g id="a_Node000016"><a xlink:title=" ">
<polygon fill="#e0e0e0" stroke="#999999" points="544.5,-19 489.5,-19 489.5,0 544.5,0 544.5,-19"/>
<text text-anchor="middle" x="517" y="-7" font-family="Helvetica,sans-Serif" font-size="10.00">signal.h</text>
</a>
</g>
</g>
<!-- Node15&#45;&gt;Node16 -->
<g id="edge20_Node000015_Node000016" class="edge">
<title>Node15&#45;&gt;Node16</title>
<g id="a_edge20_Node000015_Node000016"><a xlink:title=" ">
<path fill="none" stroke="#63b8ff" d="M517,-54.75C517,-47.8 517,-37.85 517,-29.13"/>
<polygon fill="#63b8ff" stroke="#63b8ff" points="520.5,-29.09 517,-19.09 513.5,-29.09 520.5,-29.09"/>
</a>
</g>
</g>
<!-- Node17&#45;&gt;Node8 -->
<g id="edge22_Node000017_Node000008" class="edge">
<title>Node17&#45;&gt;Node8</title>
<g id="a_edge22_Node000017_Node000008"><a xlink:title=" ">
<path fill="none" stroke="#63b8ff" d="M271.24,-109.98C251.27,-101.38 220.2,-87.99 197.35,-78.15"/>
<polygon fill="#63b8ff" stroke="#63b8ff" points="198.69,-74.91 188.12,-74.17 195.92,-81.34 198.69,-74.91"/>
</a>
</g>
</g>
</g>
</svg>
