<?xml version="1.0" encoding="UTF-8" standalone="no"?>
<!DOCTYPE svg PUBLIC "-//W3C//DTD SVG 1.1//EN"
 "http://www.w3.org/Graphics/SVG/1.1/DTD/svg11.dtd">
<!-- Generated by graphviz version 2.43.0 (0)
 -->
<!-- Title: src/app/seamlyme/dialogs/dialogmdatabase.cpp Pages: 1 -->
<svg width="1075pt" height="214pt"
 viewBox="0.00 0.00 1075.00 214.00" xmlns="http://www.w3.org/2000/svg" xmlns:xlink="http://www.w3.org/1999/xlink">
<g id="graph0" class="graph" transform="scale(1 1) rotate(0) translate(4 210)">
<title>src/app/seamlyme/dialogs/dialogmdatabase.cpp</title>
<!-- Node1 -->
<g id="Node000001" class="node">
<title>Node1</title>
<g id="a_Node000001"><a xlink:title=" ">
<polygon fill="#999999" stroke="#666666" points="740.5,-206 595.5,-206 595.5,-176 740.5,-176 740.5,-206"/>
<text text-anchor="start" x="603.5" y="-194" font-family="Helvetica,sans-Serif" font-size="10.00">src/app/seamlyme/dialogs</text>
<text text-anchor="middle" x="668" y="-183" font-family="Helvetica,sans-Serif" font-size="10.00">/dialogmdatabase.cpp</text>
</a>
</g>
</g>
<!-- Node2 -->
<g id="Node000002" class="node">
<title>Node2</title>
<g id="a_Node000002"><a xlink:href="../../d0/d0b/dialogmdatabase_8h.html" target="_top" xlink:title=" ">
<polygon fill="white" stroke="#666666" points="110,-74 0,-74 0,-55 110,-55 110,-74"/>
<text text-anchor="middle" x="55" y="-62" font-family="Helvetica,sans-Serif" font-size="10.00">dialogmdatabase.h</text>
</a>
</g>
</g>
<!-- Node1&#45;&gt;Node2 -->
<g id="edge1_Node000001_Node000002" class="edge">
<title>Node1&#45;&gt;Node2</title>
<g id="a_edge1_Node000001_Node000002"><a xlink:title=" ">
<path fill="none" stroke="#63b8ff" d="M595.44,-189.41C467.78,-187.37 208.88,-178.47 128,-140 101.26,-127.28 78.9,-100.42 66.23,-82.67"/>
<polygon fill="#63b8ff" stroke="#63b8ff" points="69.06,-80.61 60.52,-74.34 63.29,-84.57 69.06,-80.61"/>
</a>
</g>
</g>
<!-- Node4 -->
<g id="Node000004" class="node">
<title>Node4</title>
<g id="a_Node000004"><a xlink:title=" ">
<polygon fill="#e0e0e0" stroke="#999999" points="262.5,-134.5 137.5,-134.5 137.5,-115.5 262.5,-115.5 262.5,-134.5"/>
<text text-anchor="middle" x="200" y="-122.5" font-family="Helvetica,sans-Serif" font-size="10.00">ui_dialogmdatabase.h</text>
</a>
</g>
</g>
<!-- Node1&#45;&gt;Node4 -->
<g id="edge3_Node000001_Node000004" class="edge">
<title>Node1&#45;&gt;Node4</title>
<g id="a_edge3_Node000001_Node000004"><a xlink:title=" ">
<path fill="none" stroke="#63b8ff" d="M595.17,-182.27C515.57,-173.49 384.39,-158 272,-140 265.33,-138.93 258.32,-137.7 251.42,-136.43"/>
<polygon fill="#63b8ff" stroke="#63b8ff" points="251.89,-132.96 241.42,-134.54 250.59,-139.84 251.89,-132.96"/>
</a>
</g>
</g>
<!-- Node5 -->
<g id="Node000005" class="node">
<title>Node5</title>
<g id="a_Node000005"><a xlink:href="../../df/da4/mapplication_8h.html" target="_top" xlink:title=" ">
<polygon fill="white" stroke="#666666" points="379,-134.5 281,-134.5 281,-115.5 379,-115.5 379,-134.5"/>
<text text-anchor="middle" x="330" y="-122.5" font-family="Helvetica,sans-Serif" font-size="10.00">../mapplication.h</text>
</a>
</g>
</g>
<!-- Node1&#45;&gt;Node5 -->
<g id="edge4_Node000001_Node000005" class="edge">
<title>Node1&#45;&gt;Node5</title>
<g id="a_edge4_Node000001_Node000005"><a xlink:title=" ">
<path fill="none" stroke="#63b8ff" d="M595.24,-178.1C538.81,-168.6 458.74,-154.51 389,-140 384.29,-139.02 379.38,-137.94 374.49,-136.84"/>
<polygon fill="#63b8ff" stroke="#63b8ff" points="375.09,-133.38 364.56,-134.54 373.51,-140.2 375.09,-133.38"/>
</a>
</g>
</g>
<!-- Node10 -->
<g id="Node000010" class="node">
<title>Node10</title>
<g id="a_Node000010"><a xlink:title=" ">
<polygon fill="#e0e0e0" stroke="#999999" points="552.5,-140 397.5,-140 397.5,-110 552.5,-110 552.5,-140"/>
<text text-anchor="start" x="405.5" y="-128" font-family="Helvetica,sans-Serif" font-size="10.00">../vpatterndb/measurements</text>
<text text-anchor="middle" x="475" y="-117" font-family="Helvetica,sans-Serif" font-size="10.00">_def.h</text>
</a>
</g>
</g>
<!-- Node1&#45;&gt;Node10 -->
<g id="edge10_Node000001_Node000010" class="edge">
<title>Node1&#45;&gt;Node10</title>
<g id="a_edge10_Node000001_Node000010"><a xlink:title=" ">
<path fill="none" stroke="#63b8ff" d="M625.65,-175.95C596.61,-166.33 557.9,-153.49 526.99,-143.24"/>
<polygon fill="#63b8ff" stroke="#63b8ff" points="527.85,-139.84 517.26,-140.01 525.65,-146.48 527.85,-139.84"/>
</a>
</g>
</g>
<!-- Node11 -->
<g id="Node000011" class="node">
<title>Node11</title>
<g id="a_Node000011"><a xlink:title=" ">
<polygon fill="#e0e0e0" stroke="#999999" points="665.5,-134.5 570.5,-134.5 570.5,-115.5 665.5,-115.5 665.5,-134.5"/>
<text text-anchor="middle" x="618" y="-122.5" font-family="Helvetica,sans-Serif" font-size="10.00">QGuiApplication</text>
</a>
</g>
</g>
<!-- Node1&#45;&gt;Node11 -->
<g id="edge11_Node000001_Node000011" class="edge">
<title>Node1&#45;&gt;Node11</title>
<g id="a_edge11_Node000001_Node000011"><a xlink:title=" ">
<path fill="none" stroke="#63b8ff" d="M656.9,-175.8C649.34,-166.11 639.28,-153.24 631.29,-143.01"/>
<polygon fill="#63b8ff" stroke="#63b8ff" points="633.82,-140.57 624.91,-134.84 628.31,-144.88 633.82,-140.57"/>
</a>
</g>
</g>
<!-- Node12 -->
<g id="Node000012" class="node">
<title>Node12</title>
<g id="a_Node000012"><a xlink:title=" ">
<polygon fill="#e0e0e0" stroke="#999999" points="754,-134.5 684,-134.5 684,-115.5 754,-115.5 754,-134.5"/>
<text text-anchor="middle" x="719" y="-122.5" font-family="Helvetica,sans-Serif" font-size="10.00">QKeyEvent</text>
</a>
</g>
</g>
<!-- Node1&#45;&gt;Node12 -->
<g id="edge12_Node000001_Node000012" class="edge">
<title>Node1&#45;&gt;Node12</title>
<g id="a_edge12_Node000001_Node000012"><a xlink:title=" ">
<path fill="none" stroke="#63b8ff" d="M679.32,-175.8C687.11,-166.01 697.5,-152.98 705.69,-142.7"/>
<polygon fill="#63b8ff" stroke="#63b8ff" points="708.46,-144.85 711.95,-134.84 702.98,-140.48 708.46,-144.85"/>
</a>
</g>
</g>
<!-- Node13 -->
<g id="Node000013" class="node">
<title>Node13</title>
<g id="a_Node000013"><a xlink:title=" ">
<polygon fill="#e0e0e0" stroke="#999999" points="823.5,-134.5 772.5,-134.5 772.5,-115.5 823.5,-115.5 823.5,-134.5"/>
<text text-anchor="middle" x="798" y="-122.5" font-family="Helvetica,sans-Serif" font-size="10.00">QMenu</text>
</a>
</g>
</g>
<!-- Node1&#45;&gt;Node13 -->
<g id="edge13_Node000001_Node000013" class="edge">
<title>Node1&#45;&gt;Node13</title>
<g id="a_edge13_Node000001_Node000013"><a xlink:title=" ">
<path fill="none" stroke="#63b8ff" d="M696.53,-175.95C718.93,-164.93 749.86,-149.7 771.67,-138.96"/>
<polygon fill="#63b8ff" stroke="#63b8ff" points="773.27,-142.07 780.7,-134.52 770.18,-135.79 773.27,-142.07"/>
</a>
</g>
</g>
<!-- Node14 -->
<g id="Node000014" class="node">
<title>Node14</title>
<g id="a_Node000014"><a xlink:title=" ">
<polygon fill="#e0e0e0" stroke="#999999" points="898.5,-134.5 841.5,-134.5 841.5,-115.5 898.5,-115.5 898.5,-134.5"/>
<text text-anchor="middle" x="870" y="-122.5" font-family="Helvetica,sans-Serif" font-size="10.00">QScreen</text>
</a>
</g>
</g>
<!-- Node1&#45;&gt;Node14 -->
<g id="edge14_Node000001_Node000014" class="edge">
<title>Node1&#45;&gt;Node14</title>
<g id="a_edge14_Node000001_Node000014"><a xlink:title=" ">
<path fill="none" stroke="#63b8ff" d="M717.37,-175.98C750.3,-166.41 794.46,-153.11 833,-140 834.85,-139.37 836.75,-138.71 838.66,-138.02"/>
<polygon fill="#63b8ff" stroke="#63b8ff" points="839.99,-141.27 848.18,-134.54 837.58,-134.69 839.99,-141.27"/>
</a>
</g>
</g>
<!-- Node15 -->
<g id="Node000015" class="node">
<title>Node15</title>
<g id="a_Node000015"><a xlink:title=" ">
<polygon fill="#e0e0e0" stroke="#999999" points="1003,-134.5 917,-134.5 917,-115.5 1003,-115.5 1003,-134.5"/>
<text text-anchor="middle" x="960" y="-122.5" font-family="Helvetica,sans-Serif" font-size="10.00">QSvgRenderer</text>
</a>
</g>
</g>
<!-- Node1&#45;&gt;Node15 -->
<g id="edge15_Node000001_Node000015" class="edge">
<title>Node1&#45;&gt;Node15</title>
<g id="a_edge15_Node000001_Node000015"><a xlink:title=" ">
<path fill="none" stroke="#63b8ff" d="M740.71,-175.99C788.43,-166.51 852.11,-153.33 908,-140 911.83,-139.09 915.81,-138.09 919.78,-137.07"/>
<polygon fill="#63b8ff" stroke="#63b8ff" points="920.77,-140.43 929.55,-134.51 918.99,-133.66 920.77,-140.43"/>
</a>
</g>
</g>
<!-- Node16 -->
<g id="Node000016" class="node">
<title>Node16</title>
<g id="a_Node000016"><a xlink:title=" ">
<polygon fill="#e0e0e0" stroke="#999999" points="1067,-134.5 1021,-134.5 1021,-115.5 1067,-115.5 1067,-134.5"/>
<text text-anchor="middle" x="1044" y="-122.5" font-family="Helvetica,sans-Serif" font-size="10.00">QtSvg</text>
</a>
</g>
</g>
<!-- Node1&#45;&gt;Node16 -->
<g id="edge16_Node000001_Node000016" class="edge">
<title>Node1&#45;&gt;Node16</title>
<g id="a_edge16_Node000001_Node000016"><a xlink:title=" ">
<path fill="none" stroke="#63b8ff" d="M740.67,-185.12C811.12,-179.07 920.46,-166.16 1012,-140 1013.68,-139.52 1015.39,-138.97 1017.11,-138.37"/>
<polygon fill="#63b8ff" stroke="#63b8ff" points="1018.7,-141.5 1026.71,-134.57 1016.12,-135 1018.7,-141.5"/>
</a>
</g>
</g>
<!-- Node3 -->
<g id="Node000003" class="node">
<title>Node3</title>
<g id="a_Node000003"><a xlink:title=" ">
<polygon fill="#e0e0e0" stroke="#999999" points="83,-19 27,-19 27,0 83,0 83,-19"/>
<text text-anchor="middle" x="55" y="-7" font-family="Helvetica,sans-Serif" font-size="10.00">QDialog</text>
</a>
</g>
</g>
<!-- Node2&#45;&gt;Node3 -->
<g id="edge2_Node000002_Node000003" class="edge">
<title>Node2&#45;&gt;Node3</title>
<g id="a_edge2_Node000002_Node000003"><a xlink:title=" ">
<path fill="none" stroke="#63b8ff" d="M55,-54.75C55,-47.8 55,-37.85 55,-29.13"/>
<polygon fill="#63b8ff" stroke="#63b8ff" points="58.5,-29.09 55,-19.09 51.5,-29.09 58.5,-29.09"/>
</a>
</g>
</g>
<!-- Node5&#45;&gt;Node2 -->
<g id="edge9_Node000005_Node000002" class="edge">
<title>Node5&#45;&gt;Node2</title>
<g id="a_edge9_Node000005_Node000002"><a xlink:title=" ">
<path fill="none" stroke="#63b8ff" d="M294.79,-115.46C286.96,-113.62 278.71,-111.71 271,-110 215.69,-97.74 152.15,-84.79 108.38,-76.04"/>
<polygon fill="#63b8ff" stroke="#63b8ff" points="109.01,-72.59 98.52,-74.07 107.64,-79.46 109.01,-72.59"/>
</a>
</g>
</g>
<!-- Node6 -->
<g id="Node000006" class="node">
<title>Node6</title>
<g id="a_Node000006"><a xlink:title=" ">
<polygon fill="#e0e0e0" stroke="#999999" points="289.5,-74 128.5,-74 128.5,-55 289.5,-55 289.5,-74"/>
<text text-anchor="middle" x="209" y="-62" font-family="Helvetica,sans-Serif" font-size="10.00">../vpatterndb/vtranslatevars.h</text>
</a>
</g>
</g>
<!-- Node5&#45;&gt;Node6 -->
<g id="edge5_Node000005_Node000006" class="edge">
<title>Node5&#45;&gt;Node6</title>
<g id="a_edge5_Node000005_Node000006"><a xlink:title=" ">
<path fill="none" stroke="#63b8ff" d="M312.41,-115.49C292.24,-105.75 258.98,-89.66 235.64,-78.38"/>
<polygon fill="#63b8ff" stroke="#63b8ff" points="237.14,-75.22 226.62,-74.02 234.1,-81.52 237.14,-75.22"/>
</a>
</g>
</g>
<!-- Node7 -->
<g id="Node000007" class="node">
<title>Node7</title>
<g id="a_Node000007"><a xlink:title=" ">
<polygon fill="#e0e0e0" stroke="#999999" points="390,-74 308,-74 308,-55 390,-55 390,-74"/>
<text text-anchor="middle" x="349" y="-62" font-family="Helvetica,sans-Serif" font-size="10.00">../vmisc/def.h</text>
</a>
</g>
</g>
<!-- Node5&#45;&gt;Node7 -->
<g id="edge6_Node000005_Node000007" class="edge">
<title>Node5&#45;&gt;Node7</title>
<g id="a_edge6_Node000005_Node000007"><a xlink:title=" ">
<path fill="none" stroke="#63b8ff" d="M332.8,-115.37C335.5,-107.07 339.65,-94.28 343.08,-83.72"/>
<polygon fill="#63b8ff" stroke="#63b8ff" points="346.42,-84.76 346.18,-74.17 339.77,-82.6 346.42,-84.76"/>
</a>
</g>
</g>
<!-- Node8 -->
<g id="Node000008" class="node">
<title>Node8</title>
<g id="a_Node000008"><a xlink:title=" ">
<polygon fill="#e0e0e0" stroke="#999999" points="572,-74 408,-74 408,-55 572,-55 572,-74"/>
<text text-anchor="middle" x="490" y="-62" font-family="Helvetica,sans-Serif" font-size="10.00">../vmisc/vseamlymesettings.h</text>
</a>
</g>
</g>
<!-- Node5&#45;&gt;Node8 -->
<g id="edge7_Node000005_Node000008" class="edge">
<title>Node5&#45;&gt;Node8</title>
<g id="a_edge7_Node000005_Node000008"><a xlink:title=" ">
<path fill="none" stroke="#63b8ff" d="M353.27,-115.49C380.64,-105.49 426.27,-88.8 457.22,-77.49"/>
<polygon fill="#63b8ff" stroke="#63b8ff" points="458.52,-80.74 466.71,-74.02 456.11,-74.16 458.52,-80.74"/>
</a>
</g>
</g>
<!-- Node9 -->
<g id="Node000009" class="node">
<title>Node9</title>
<g id="a_Node000009"><a xlink:title=" ">
<polygon fill="#e0e0e0" stroke="#999999" points="757.5,-74 590.5,-74 590.5,-55 757.5,-55 757.5,-74"/>
<text text-anchor="middle" x="674" y="-62" font-family="Helvetica,sans-Serif" font-size="10.00">../vmisc/vabstractapplication.h</text>
</a>
</g>
</g>
<!-- Node5&#45;&gt;Node9 -->
<g id="edge8_Node000005_Node000009" class="edge">
<title>Node5&#45;&gt;Node9</title>
<g id="a_edge8_Node000005_Node000009"><a xlink:title=" ">
<path fill="none" stroke="#63b8ff" d="M363.91,-115.48C372.1,-113.55 380.84,-111.6 389,-110 460.27,-96 542.27,-83.58 599.96,-75.44"/>
<polygon fill="#63b8ff" stroke="#63b8ff" points="600.66,-78.88 610.08,-74.02 599.69,-71.95 600.66,-78.88"/>
</a>
</g>
</g>
</g>
</svg>
