<?xml version="1.0" encoding="UTF-8" standalone="no"?>
<!DOCTYPE svg PUBLIC "-//W3C//DTD SVG 1.1//EN"
 "http://www.w3.org/Graphics/SVG/1.1/DTD/svg11.dtd">
<!-- Generated by graphviz version 2.43.0 (0)
 -->
<!-- Title: src/app/seamly2d/dialogs/layoutsettings_dialog.h Pages: 1 -->
<svg width="4019pt" height="236pt"
 viewBox="0.00 0.00 4019.00 236.00" xmlns="http://www.w3.org/2000/svg" xmlns:xlink="http://www.w3.org/1999/xlink">
<g id="graph0" class="graph" transform="scale(1 1) rotate(0) translate(4 232)">
<title>src/app/seamly2d/dialogs/layoutsettings_dialog.h</title>
<!-- Node1 -->
<g id="Node000001" class="node">
<title>Node1</title>
<g id="a_Node000001"><a xlink:title=" ">
<polygon fill="#999999" stroke="#666666" points="1561,-228 1420,-228 1420,-198 1561,-198 1561,-228"/>
<text text-anchor="start" x="1428" y="-216" font-family="Helvetica,sans-Serif" font-size="10.00">src/app/seamly2d/dialogs</text>
<text text-anchor="middle" x="1490.5" y="-205" font-family="Helvetica,sans-Serif" font-size="10.00">/layoutsettings_dialog.h</text>
</a>
</g>
</g>
<!-- Node2 -->
<g id="Node000002" class="node">
<title>Node2</title>
<g id="a_Node000002"><a xlink:href="../../df/d9b/vcmdexport_8cpp.html" target="_top" xlink:title=" ">
<polygon fill="white" stroke="#666666" points="890,-96 763,-96 763,-66 890,-66 890,-96"/>
<text text-anchor="start" x="771" y="-84" font-family="Helvetica,sans-Serif" font-size="10.00">src/app/seamly2d/core</text>
<text text-anchor="middle" x="826.5" y="-73" font-family="Helvetica,sans-Serif" font-size="10.00">/vcmdexport.cpp</text>
</a>
</g>
</g>
<!-- Node1&#45;&gt;Node2 -->
<g id="edge1_Node000001_Node000002" class="edge">
<title>Node1&#45;&gt;Node2</title>
<g id="a_edge1_Node000001_Node000002"><a xlink:title=" ">
<path fill="none" stroke="#63b8ff" d="M1409.58,-196.16C1275.9,-169.99 1011.68,-118.26 890.26,-94.48"/>
<polygon fill="#63b8ff" stroke="#63b8ff" points="1409.27,-199.66 1419.75,-198.15 1410.61,-192.79 1409.27,-199.66"/>
</a>
</g>
</g>
<!-- Node3 -->
<g id="Node000003" class="node">
<title>Node3</title>
<g id="a_Node000003"><a xlink:href="../../dd/d57/vcmdexport_8h.html" target="_top" xlink:title=" ">
<polygon fill="white" stroke="#666666" points="1423,-162 1296,-162 1296,-132 1423,-132 1423,-162"/>
<text text-anchor="start" x="1304" y="-150" font-family="Helvetica,sans-Serif" font-size="10.00">src/app/seamly2d/core</text>
<text text-anchor="middle" x="1359.5" y="-139" font-family="Helvetica,sans-Serif" font-size="10.00">/vcmdexport.h</text>
</a>
</g>
</g>
<!-- Node1&#45;&gt;Node3 -->
<g id="edge2_Node000001_Node000003" class="edge">
<title>Node1&#45;&gt;Node3</title>
<g id="a_edge2_Node000001_Node000003"><a xlink:title=" ">
<path fill="none" stroke="#63b8ff" d="M1452.66,-193.51C1432.11,-183.47 1407.11,-171.26 1388.18,-162.01"/>
<polygon fill="#63b8ff" stroke="#63b8ff" points="1451.23,-196.71 1461.75,-197.95 1454.3,-190.42 1451.23,-196.71"/>
</a>
</g>
</g>
<!-- Node20 -->
<g id="Node000020" class="node">
<title>Node20</title>
<g id="a_Node000020"><a xlink:href="../../d0/dfa/layoutsettings__dialog_8cpp.html" target="_top" xlink:title=" ">
<polygon fill="white" stroke="#666666" points="3772,-30 3627,-30 3627,0 3772,0 3772,-30"/>
<text text-anchor="start" x="3635" y="-18" font-family="Helvetica,sans-Serif" font-size="10.00">src/app/seamly2d/dialogs</text>
<text text-anchor="middle" x="3699.5" y="-7" font-family="Helvetica,sans-Serif" font-size="10.00">/layoutsettings_dialog.cpp</text>
</a>
</g>
</g>
<!-- Node1&#45;&gt;Node20 -->
<g id="edge31_Node000001_Node000020" class="edge">
<title>Node1&#45;&gt;Node20</title>
<g id="a_edge31_Node000001_Node000020"><a xlink:title=" ">
<path fill="none" stroke="#63b8ff" d="M1571.59,-207.52C1854.4,-191.36 2823.14,-131.62 3617.5,-30 3620.51,-29.62 3623.57,-29.2 3626.67,-28.76"/>
<polygon fill="#63b8ff" stroke="#63b8ff" points="1571.2,-204.03 1561.42,-208.1 1571.6,-211.02 1571.2,-204.03"/>
</a>
</g>
</g>
<!-- Node25 -->
<g id="Node000025" class="node">
<title>Node25</title>
<g id="a_Node000025"><a xlink:href="../../d8/de8/mainwindowsnogui_8cpp.html" target="_top" xlink:title=" ">
<polygon fill="white" stroke="#666666" points="4011,-24.5 3790,-24.5 3790,-5.5 4011,-5.5 4011,-24.5"/>
<text text-anchor="middle" x="3900.5" y="-12.5" font-family="Helvetica,sans-Serif" font-size="10.00">src/app/seamly2d/mainwindowsnogui.cpp</text>
</a>
</g>
</g>
<!-- Node1&#45;&gt;Node25 -->
<g id="edge32_Node000001_Node000025" class="edge">
<title>Node1&#45;&gt;Node25</title>
<g id="a_edge32_Node000001_Node000025"><a xlink:title=" ">
<path fill="none" stroke="#63b8ff" d="M1571.39,-208.95C1738.04,-202.42 2131.68,-185.73 2461.5,-162 2779.36,-139.13 2858.42,-127.92 3175.5,-96 3445.06,-68.86 3512.3,-60.49 3781.5,-30 3796.9,-28.26 3813.41,-26.34 3829.09,-24.5"/>
<polygon fill="#63b8ff" stroke="#63b8ff" points="1571.08,-205.46 1561.22,-209.35 1571.35,-212.45 1571.08,-205.46"/>
</a>
</g>
</g>
<!-- Node3&#45;&gt;Node2 -->
<g id="edge26_Node000003_Node000002" class="edge">
<title>Node3&#45;&gt;Node2</title>
<g id="a_edge26_Node000003_Node000002"><a xlink:title=" ">
<path fill="none" stroke="#63b8ff" d="M1285.5,-136.98C1271.23,-135.29 1256.41,-133.56 1242.5,-132 1090.18,-114.89 1051.13,-118.46 899.5,-96 896.44,-95.55 893.31,-95.05 890.15,-94.54"/>
<polygon fill="#63b8ff" stroke="#63b8ff" points="1285.42,-140.5 1295.76,-138.2 1286.25,-133.54 1285.42,-140.5"/>
</a>
</g>
</g>
<!-- Node4 -->
<g id="Node000004" class="node">
<title>Node4</title>
<g id="a_Node000004"><a xlink:href="../../d9/d02/vapplication_8h.html" target="_top" xlink:title=" ">
<polygon fill="white" stroke="#666666" points="1786,-96 1659,-96 1659,-66 1786,-66 1786,-96"/>
<text text-anchor="start" x="1667" y="-84" font-family="Helvetica,sans-Serif" font-size="10.00">src/app/seamly2d/core</text>
<text text-anchor="middle" x="1722.5" y="-73" font-family="Helvetica,sans-Serif" font-size="10.00">/vapplication.h</text>
</a>
</g>
</g>
<!-- Node3&#45;&gt;Node4 -->
<g id="edge3_Node000003_Node000004" class="edge">
<title>Node3&#45;&gt;Node4</title>
<g id="a_edge3_Node000003_Node000004"><a xlink:title=" ">
<path fill="none" stroke="#63b8ff" d="M1433.11,-133.02C1499.43,-121.33 1595.9,-104.32 1658.93,-93.21"/>
<polygon fill="#63b8ff" stroke="#63b8ff" points="1432.39,-129.6 1423.15,-134.78 1433.6,-136.49 1432.39,-129.6"/>
</a>
</g>
</g>
<!-- Node27 -->
<g id="Node000027" class="node">
<title>Node27</title>
<g id="a_Node000027"><a xlink:href="../../d9/d53/mainwindow_8h.html" target="_top" xlink:title=" ">
<polygon fill="white" stroke="#666666" points="1084.5,-90.5 908.5,-90.5 908.5,-71.5 1084.5,-71.5 1084.5,-90.5"/>
<text text-anchor="middle" x="996.5" y="-78.5" font-family="Helvetica,sans-Serif" font-size="10.00">src/app/seamly2d/mainwindow.h</text>
</a>
</g>
</g>
<!-- Node3&#45;&gt;Node27 -->
<g id="edge27_Node000003_Node000027" class="edge">
<title>Node3&#45;&gt;Node27</title>
<g id="a_edge27_Node000003_Node000027"><a xlink:title=" ">
<path fill="none" stroke="#63b8ff" d="M1285.96,-133.03C1214.08,-120.36 1106.72,-101.43 1044.96,-90.54"/>
<polygon fill="#63b8ff" stroke="#63b8ff" points="1285.4,-136.49 1295.85,-134.78 1286.61,-129.6 1285.4,-136.49"/>
</a>
</g>
</g>
<!-- Node5 -->
<g id="Node000005" class="node">
<title>Node5</title>
<g id="a_Node000005"><a xlink:href="../../d3/dd8/vapplication_8cpp.html" target="_top" xlink:title=" ">
<polygon fill="white" stroke="#666666" points="503,-30 376,-30 376,0 503,0 503,-30"/>
<text text-anchor="start" x="384" y="-18" font-family="Helvetica,sans-Serif" font-size="10.00">src/app/seamly2d/core</text>
<text text-anchor="middle" x="439.5" y="-7" font-family="Helvetica,sans-Serif" font-size="10.00">/vapplication.cpp</text>
</a>
</g>
</g>
<!-- Node4&#45;&gt;Node5 -->
<g id="edge4_Node000004_Node000005" class="edge">
<title>Node4&#45;&gt;Node5</title>
<g id="a_edge4_Node000004_Node000005"><a xlink:title=" ">
<path fill="none" stroke="#63b8ff" d="M1648.67,-78.41C1421.28,-73.29 733.54,-56.02 511.5,-30 508.72,-29.67 505.88,-29.3 503.02,-28.89"/>
<polygon fill="#63b8ff" stroke="#63b8ff" points="1648.75,-81.92 1658.82,-78.64 1648.91,-74.92 1648.75,-81.92"/>
</a>
</g>
</g>
<!-- Node6 -->
<g id="Node000006" class="node">
<title>Node6</title>
<g id="a_Node000006"><a xlink:href="../../d2/d00/vtooloptionspropertybrowser_8cpp.html" target="_top" xlink:title=" ">
<polygon fill="white" stroke="#666666" points="2293.5,-30 2113.5,-30 2113.5,0 2293.5,0 2293.5,-30"/>
<text text-anchor="start" x="2121.5" y="-18" font-family="Helvetica,sans-Serif" font-size="10.00">src/app/seamly2d/core</text>
<text text-anchor="middle" x="2203.5" y="-7" font-family="Helvetica,sans-Serif" font-size="10.00">/vtooloptionspropertybrowser.cpp</text>
</a>
</g>
</g>
<!-- Node4&#45;&gt;Node6 -->
<g id="edge5_Node000004_Node000006" class="edge">
<title>Node4&#45;&gt;Node6</title>
<g id="a_edge5_Node000004_Node000006"><a xlink:title=" ">
<path fill="none" stroke="#63b8ff" d="M1796.28,-70.51C1873.05,-60.59 1996.74,-44.48 2103.5,-30 2106.71,-29.56 2109.99,-29.12 2113.29,-28.67"/>
<polygon fill="#63b8ff" stroke="#63b8ff" points="1795.7,-67.05 1786.23,-71.81 1796.59,-74 1795.7,-67.05"/>
</a>
</g>
</g>
<!-- Node7 -->
<g id="Node000007" class="node">
<title>Node7</title>
<g id="a_Node000007"><a xlink:href="../../dd/db4/abstractlayout__dialog_8cpp.html" target="_top" xlink:title=" ">
<polygon fill="white" stroke="#666666" points="2457.5,-30 2311.5,-30 2311.5,0 2457.5,0 2457.5,-30"/>
<text text-anchor="start" x="2319.5" y="-18" font-family="Helvetica,sans-Serif" font-size="10.00">src/app/seamly2d/dialogs</text>
<text text-anchor="middle" x="2384.5" y="-7" font-family="Helvetica,sans-Serif" font-size="10.00">/abstractlayout_dialog.cpp</text>
</a>
</g>
</g>
<!-- Node4&#45;&gt;Node7 -->
<g id="edge6_Node000004_Node000007" class="edge">
<title>Node4&#45;&gt;Node7</title>
<g id="a_edge6_Node000004_Node000007"><a xlink:title=" ">
<path fill="none" stroke="#63b8ff" d="M1796.22,-75.61C1906.59,-68.6 2121.2,-53.25 2302.5,-30 2305.36,-29.63 2308.28,-29.24 2311.23,-28.82"/>
<polygon fill="#63b8ff" stroke="#63b8ff" points="1795.95,-72.12 1786.19,-76.25 1796.39,-79.11 1795.95,-72.12"/>
</a>
</g>
</g>
<!-- Node8 -->
<g id="Node000008" class="node">
<title>Node8</title>
<g id="a_Node000008"><a xlink:href="../../d7/dfa/calculator__dialog_8cpp.html" target="_top" xlink:title=" ">
<polygon fill="white" stroke="#666666" points="2617,-30 2476,-30 2476,0 2617,0 2617,-30"/>
<text text-anchor="start" x="2484" y="-18" font-family="Helvetica,sans-Serif" font-size="10.00">src/app/seamly2d/dialogs</text>
<text text-anchor="middle" x="2546.5" y="-7" font-family="Helvetica,sans-Serif" font-size="10.00">/calculator_dialog.cpp</text>
</a>
</g>
</g>
<!-- Node4&#45;&gt;Node8 -->
<g id="edge7_Node000004_Node000008" class="edge">
<title>Node4&#45;&gt;Node8</title>
<g id="a_edge7_Node000004_Node000008"><a xlink:title=" ">
<path fill="none" stroke="#63b8ff" d="M1796.56,-77.63C1930.61,-72.75 2222.24,-59.5 2466.5,-30 2469.58,-29.63 2472.72,-29.22 2475.89,-28.78"/>
<polygon fill="#63b8ff" stroke="#63b8ff" points="1796.28,-74.14 1786.41,-77.99 1796.53,-81.13 1796.28,-74.14"/>
</a>
</g>
</g>
<!-- Node9 -->
<g id="Node000009" class="node">
<title>Node9</title>
<g id="a_Node000009"><a xlink:href="../../d2/d2d/preferencesconfigurationpage_8cpp.html" target="_top" xlink:title=" ">
<polygon fill="white" stroke="#666666" points="2882,-30 2635,-30 2635,0 2882,0 2882,-30"/>
<text text-anchor="start" x="2643" y="-18" font-family="Helvetica,sans-Serif" font-size="10.00">src/app/seamly2d/dialogs</text>
<text text-anchor="middle" x="2758.5" y="-7" font-family="Helvetica,sans-Serif" font-size="10.00">/configpages/preferencesconfigurationpage.cpp</text>
</a>
</g>
</g>
<!-- Node4&#45;&gt;Node9 -->
<g id="edge8_Node000004_Node000009" class="edge">
<title>Node4&#45;&gt;Node9</title>
<g id="a_edge8_Node000004_Node000009"><a xlink:title=" ">
<path fill="none" stroke="#63b8ff" d="M1796.36,-77.15C1950.57,-70.93 2317.99,-54.68 2625.5,-30 2628.62,-29.75 2631.79,-29.49 2634.98,-29.21"/>
<polygon fill="#63b8ff" stroke="#63b8ff" points="1795.92,-73.67 1786.07,-77.56 1796.2,-80.66 1795.92,-73.67"/>
</a>
</g>
</g>
<!-- Node10 -->
<g id="Node000010" class="node">
<title>Node10</title>
<g id="a_Node000010"><a xlink:href="../../d9/d70/preferencesgraphicsviewpage_8cpp.html" target="_top" xlink:title=" ">
<polygon fill="white" stroke="#666666" points="3148.5,-30 2900.5,-30 2900.5,0 3148.5,0 3148.5,-30"/>
<text text-anchor="start" x="2908.5" y="-18" font-family="Helvetica,sans-Serif" font-size="10.00">src/app/seamly2d/dialogs</text>
<text text-anchor="middle" x="3024.5" y="-7" font-family="Helvetica,sans-Serif" font-size="10.00">/configpages/preferencesgraphicsviewpage.cpp</text>
</a>
</g>
</g>
<!-- Node4&#45;&gt;Node10 -->
<g id="edge9_Node000004_Node000010" class="edge">
<title>Node4&#45;&gt;Node10</title>
<g id="a_edge9_Node000004_Node000010"><a xlink:title=" ">
<path fill="none" stroke="#63b8ff" d="M1796.34,-78.41C1980.97,-74.1 2477.53,-60.38 2890.5,-30 2893.77,-29.76 2897.08,-29.5 2900.41,-29.23"/>
<polygon fill="#63b8ff" stroke="#63b8ff" points="1796.12,-74.91 1786.2,-78.65 1796.28,-81.91 1796.12,-74.91"/>
</a>
</g>
</g>
<!-- Node11 -->
<g id="Node000011" class="node">
<title>Node11</title>
<g id="a_Node000011"><a xlink:href="../../dc/d20/preferencespathpage_8cpp.html" target="_top" xlink:title=" ">
<polygon fill="white" stroke="#666666" points="3372,-30 3167,-30 3167,0 3372,0 3372,-30"/>
<text text-anchor="start" x="3175" y="-18" font-family="Helvetica,sans-Serif" font-size="10.00">src/app/seamly2d/dialogs</text>
<text text-anchor="middle" x="3269.5" y="-7" font-family="Helvetica,sans-Serif" font-size="10.00">/configpages/preferencespathpage.cpp</text>
</a>
</g>
</g>
<!-- Node4&#45;&gt;Node11 -->
<g id="edge10_Node000004_Node000011" class="edge">
<title>Node4&#45;&gt;Node11</title>
<g id="a_edge10_Node000004_Node000011"><a xlink:title=" ">
<path fill="none" stroke="#63b8ff" d="M1796.35,-79.76C2008.41,-78.56 2637.35,-71.49 3157.5,-30 3160.63,-29.75 3163.8,-29.48 3167,-29.19"/>
<polygon fill="#63b8ff" stroke="#63b8ff" points="1796.25,-76.26 1786.27,-79.81 1796.29,-83.26 1796.25,-76.26"/>
</a>
</g>
</g>
<!-- Node12 -->
<g id="Node000012" class="node">
<title>Node12</title>
<g id="a_Node000012"><a xlink:href="../../dc/d63/preferencespatternpage_8cpp.html" target="_top" xlink:title=" ">
<polygon fill="white" stroke="#666666" points="3608.5,-30 3390.5,-30 3390.5,0 3608.5,0 3608.5,-30"/>
<text text-anchor="start" x="3398.5" y="-18" font-family="Helvetica,sans-Serif" font-size="10.00">src/app/seamly2d/dialogs</text>
<text text-anchor="middle" x="3499.5" y="-7" font-family="Helvetica,sans-Serif" font-size="10.00">/configpages/preferencespatternpage.cpp</text>
</a>
</g>
</g>
<!-- Node4&#45;&gt;Node12 -->
<g id="edge11_Node000004_Node000012" class="edge">
<title>Node4&#45;&gt;Node12</title>
<g id="a_edge11_Node000004_Node000012"><a xlink:title=" ">
<path fill="none" stroke="#63b8ff" d="M1796.28,-80.06C2029.2,-79.76 2769.59,-75.06 3380.5,-30 3383.72,-29.76 3386.98,-29.5 3390.27,-29.22"/>
<polygon fill="#63b8ff" stroke="#63b8ff" points="1796.23,-76.56 1786.23,-80.07 1796.24,-83.56 1796.23,-76.56"/>
</a>
</g>
</g>
<!-- Node13 -->
<g id="Node000013" class="node">
<title>Node13</title>
<g id="a_Node000013"><a xlink:href="../../dd/dc2/decimalchart__dialog_8cpp.html" target="_top" xlink:title=" ">
<polygon fill="white" stroke="#666666" points="662,-30 521,-30 521,0 662,0 662,-30"/>
<text text-anchor="start" x="529" y="-18" font-family="Helvetica,sans-Serif" font-size="10.00">src/app/seamly2d/dialogs</text>
<text text-anchor="middle" x="591.5" y="-7" font-family="Helvetica,sans-Serif" font-size="10.00">/decimalchart_dialog.cpp</text>
</a>
</g>
</g>
<!-- Node4&#45;&gt;Node13 -->
<g id="edge12_Node000004_Node000013" class="edge">
<title>Node4&#45;&gt;Node13</title>
<g id="a_edge12_Node000004_Node000013"><a xlink:title=" ">
<path fill="none" stroke="#63b8ff" d="M1648.63,-79.73C1476.58,-78.4 1035.99,-70.9 670.5,-30 667.73,-29.69 664.91,-29.34 662.07,-28.97"/>
<polygon fill="#63b8ff" stroke="#63b8ff" points="1648.81,-83.23 1658.83,-79.8 1648.86,-76.23 1648.81,-83.23"/>
</a>
</g>
</g>
<!-- Node14 -->
<g id="Node000014" class="node">
<title>Node14</title>
<g id="a_Node000014"><a xlink:href="../../dd/d64/dialogaboutapp_8cpp.html" target="_top" xlink:title=" ">
<polygon fill="white" stroke="#666666" points="821,-30 680,-30 680,0 821,0 821,-30"/>
<text text-anchor="start" x="688" y="-18" font-family="Helvetica,sans-Serif" font-size="10.00">src/app/seamly2d/dialogs</text>
<text text-anchor="middle" x="750.5" y="-7" font-family="Helvetica,sans-Serif" font-size="10.00">/dialogaboutapp.cpp</text>
</a>
</g>
</g>
<!-- Node4&#45;&gt;Node14 -->
<g id="edge13_Node000004_Node000014" class="edge">
<title>Node4&#45;&gt;Node14</title>
<g id="a_edge13_Node000004_Node000014"><a xlink:title=" ">
<path fill="none" stroke="#63b8ff" d="M1648.72,-78.85C1495.56,-75.8 1132.18,-65.17 829.5,-30 826.73,-29.68 823.92,-29.32 821.07,-28.94"/>
<polygon fill="#63b8ff" stroke="#63b8ff" points="1648.87,-82.35 1658.94,-79.05 1649.01,-75.35 1648.87,-82.35"/>
</a>
</g>
</g>
<!-- Node15 -->
<g id="Node000015" class="node">
<title>Node15</title>
<g id="a_Node000015"><a xlink:href="../../d6/d89/dialoglayoutprogress_8cpp.html" target="_top" xlink:title=" ">
<polygon fill="white" stroke="#666666" points="982,-30 839,-30 839,0 982,0 982,-30"/>
<text text-anchor="start" x="847" y="-18" font-family="Helvetica,sans-Serif" font-size="10.00">src/app/seamly2d/dialogs</text>
<text text-anchor="middle" x="910.5" y="-7" font-family="Helvetica,sans-Serif" font-size="10.00">/dialoglayoutprogress.cpp</text>
</a>
</g>
</g>
<!-- Node4&#45;&gt;Node15 -->
<g id="edge14_Node000004_Node000015" class="edge">
<title>Node4&#45;&gt;Node15</title>
<g id="a_edge14_Node000004_Node000015"><a xlink:title=" ">
<path fill="none" stroke="#63b8ff" d="M1648.62,-77.52C1516.28,-72.51 1230.21,-59.08 990.5,-30 987.84,-29.68 985.14,-29.33 982.41,-28.95"/>
<polygon fill="#63b8ff" stroke="#63b8ff" points="1648.52,-81.02 1658.64,-77.9 1648.78,-74.02 1648.52,-81.02"/>
</a>
</g>
</g>
<!-- Node16 -->
<g id="Node000016" class="node">
<title>Node16</title>
<g id="a_Node000016"><a xlink:href="../../d5/d18/dialogpatternproperties_8cpp.html" target="_top" xlink:title=" ">
<polygon fill="white" stroke="#666666" points="1155,-30 1000,-30 1000,0 1155,0 1155,-30"/>
<text text-anchor="start" x="1008" y="-18" font-family="Helvetica,sans-Serif" font-size="10.00">src/app/seamly2d/dialogs</text>
<text text-anchor="middle" x="1077.5" y="-7" font-family="Helvetica,sans-Serif" font-size="10.00">/dialogpatternproperties.cpp</text>
</a>
</g>
</g>
<!-- Node4&#45;&gt;Node16 -->
<g id="edge15_Node000004_Node000016" class="edge">
<title>Node4&#45;&gt;Node16</title>
<g id="a_edge15_Node000004_Node000016"><a xlink:title=" ">
<path fill="none" stroke="#63b8ff" d="M1648.56,-75.09C1541.39,-67.59 1336.75,-51.82 1163.5,-30 1160.8,-29.66 1158.05,-29.3 1155.28,-28.92"/>
<polygon fill="#63b8ff" stroke="#63b8ff" points="1648.41,-78.59 1658.63,-75.79 1648.89,-71.61 1648.41,-78.59"/>
</a>
</g>
</g>
<!-- Node17 -->
<g id="Node000017" class="node">
<title>Node17</title>
<g id="a_Node000017"><a xlink:href="../../d5/dc5/dialogpreferences_8cpp.html" target="_top" xlink:title=" ">
<polygon fill="white" stroke="#666666" points="1314,-30 1173,-30 1173,0 1314,0 1314,-30"/>
<text text-anchor="start" x="1181" y="-18" font-family="Helvetica,sans-Serif" font-size="10.00">src/app/seamly2d/dialogs</text>
<text text-anchor="middle" x="1243.5" y="-7" font-family="Helvetica,sans-Serif" font-size="10.00">/dialogpreferences.cpp</text>
</a>
</g>
</g>
<!-- Node4&#45;&gt;Node17 -->
<g id="edge16_Node000004_Node000017" class="edge">
<title>Node4&#45;&gt;Node17</title>
<g id="a_edge16_Node000004_Node000017"><a xlink:title=" ">
<path fill="none" stroke="#63b8ff" d="M1648.95,-71.95C1568.59,-62.88 1436.14,-47.16 1322.5,-30 1319.75,-29.58 1316.94,-29.15 1314.11,-28.7"/>
<polygon fill="#63b8ff" stroke="#63b8ff" points="1648.64,-75.43 1658.97,-73.07 1649.43,-68.48 1648.64,-75.43"/>
</a>
</g>
</g>
<!-- Node18 -->
<g id="Node000018" class="node">
<title>Node18</title>
<g id="a_Node000018"><a xlink:href="../../dd/d54/export__layout__dialog_8cpp.html" target="_top" xlink:title=" ">
<polygon fill="white" stroke="#666666" points="1475,-30 1332,-30 1332,0 1475,0 1475,-30"/>
<text text-anchor="start" x="1340" y="-18" font-family="Helvetica,sans-Serif" font-size="10.00">src/app/seamly2d/dialogs</text>
<text text-anchor="middle" x="1403.5" y="-7" font-family="Helvetica,sans-Serif" font-size="10.00">/export_layout_dialog.cpp</text>
</a>
</g>
</g>
<!-- Node4&#45;&gt;Node18 -->
<g id="edge17_Node000004_Node000018" class="edge">
<title>Node4&#45;&gt;Node18</title>
<g id="a_edge17_Node000004_Node000018"><a xlink:title=" ">
<path fill="none" stroke="#63b8ff" d="M1648.74,-65.2C1595.99,-54.62 1525.44,-40.46 1473.55,-30.05"/>
<polygon fill="#63b8ff" stroke="#63b8ff" points="1648.22,-68.67 1658.71,-67.2 1649.6,-61.8 1648.22,-68.67"/>
</a>
</g>
</g>
<!-- Node19 -->
<g id="Node000019" class="node">
<title>Node19</title>
<g id="a_Node000019"><a xlink:href="../../db/d5c/groups__widget_8cpp.html" target="_top" xlink:title=" ">
<polygon fill="white" stroke="#666666" points="1634,-30 1493,-30 1493,0 1634,0 1634,-30"/>
<text text-anchor="start" x="1501" y="-18" font-family="Helvetica,sans-Serif" font-size="10.00">src/app/seamly2d/dialogs</text>
<text text-anchor="middle" x="1563.5" y="-7" font-family="Helvetica,sans-Serif" font-size="10.00">/groups_widget.cpp</text>
</a>
</g>
</g>
<!-- Node4&#45;&gt;Node19 -->
<g id="edge18_Node000004_Node000019" class="edge">
<title>Node4&#45;&gt;Node19</title>
<g id="a_edge18_Node000004_Node000019"><a xlink:title=" ">
<path fill="none" stroke="#63b8ff" d="M1678.25,-62.19C1653,-52.02 1621.8,-39.47 1598.31,-30.01"/>
<polygon fill="#63b8ff" stroke="#63b8ff" points="1677.02,-65.47 1687.61,-65.95 1679.64,-58.97 1677.02,-65.47"/>
</a>
</g>
</g>
<!-- Node4&#45;&gt;Node20 -->
<g id="edge19_Node000004_Node000020" class="edge">
<title>Node4&#45;&gt;Node20</title>
<g id="a_edge19_Node000004_Node000020"><a xlink:title=" ">
<path fill="none" stroke="#63b8ff" d="M1796.26,-79.46C2099.95,-77.03 3254.58,-65.59 3617.5,-30 3620.52,-29.7 3623.59,-29.36 3626.7,-28.98"/>
<polygon fill="#63b8ff" stroke="#63b8ff" points="1796.22,-75.96 1786.25,-79.54 1796.28,-82.96 1796.22,-75.96"/>
</a>
</g>
</g>
<!-- Node21 -->
<g id="Node000021" class="node">
<title>Node21</title>
<g id="a_Node000021"><a xlink:href="../../dd/d84/shortcuts__dialog_8cpp.html" target="_top" xlink:title=" ">
<polygon fill="white" stroke="#666666" points="1793,-30 1652,-30 1652,0 1793,0 1793,-30"/>
<text text-anchor="start" x="1660" y="-18" font-family="Helvetica,sans-Serif" font-size="10.00">src/app/seamly2d/dialogs</text>
<text text-anchor="middle" x="1722.5" y="-7" font-family="Helvetica,sans-Serif" font-size="10.00">/shortcuts_dialog.cpp</text>
</a>
</g>
</g>
<!-- Node4&#45;&gt;Node21 -->
<g id="edge20_Node000004_Node000021" class="edge">
<title>Node4&#45;&gt;Node21</title>
<g id="a_edge20_Node000004_Node000021"><a xlink:title=" ">
<path fill="none" stroke="#63b8ff" d="M1722.5,-55.54C1722.5,-46.96 1722.5,-37.61 1722.5,-30.16"/>
<polygon fill="#63b8ff" stroke="#63b8ff" points="1719,-55.8 1722.5,-65.8 1726,-55.8 1719,-55.8"/>
</a>
</g>
</g>
<!-- Node22 -->
<g id="Node000022" class="node">
<title>Node22</title>
<g id="a_Node000022"><a xlink:href="../../d2/df4/show__info__dialog_8cpp.html" target="_top" xlink:title=" ">
<polygon fill="white" stroke="#666666" points="1952,-30 1811,-30 1811,0 1952,0 1952,-30"/>
<text text-anchor="start" x="1819" y="-18" font-family="Helvetica,sans-Serif" font-size="10.00">src/app/seamly2d/dialogs</text>
<text text-anchor="middle" x="1881.5" y="-7" font-family="Helvetica,sans-Serif" font-size="10.00">/show_info_dialog.cpp</text>
</a>
</g>
</g>
<!-- Node4&#45;&gt;Node22 -->
<g id="edge21_Node000004_Node000022" class="edge">
<title>Node4&#45;&gt;Node22</title>
<g id="a_edge21_Node000004_Node000022"><a xlink:title=" ">
<path fill="none" stroke="#63b8ff" d="M1766.75,-62.19C1792,-52.02 1823.2,-39.47 1846.69,-30.01"/>
<polygon fill="#63b8ff" stroke="#63b8ff" points="1765.36,-58.97 1757.39,-65.95 1767.98,-65.47 1765.36,-58.97"/>
</a>
</g>
</g>
<!-- Node23 -->
<g id="Node000023" class="node">
<title>Node23</title>
<g id="a_Node000023"><a xlink:href="../../dc/d14/app_2seamly2d_2main_8cpp.html" target="_top" xlink:title=" ">
<polygon fill="white" stroke="#666666" points="151,-24.5 0,-24.5 0,-5.5 151,-5.5 151,-24.5"/>
<text text-anchor="middle" x="75.5" y="-12.5" font-family="Helvetica,sans-Serif" font-size="10.00">src/app/seamly2d/main.cpp</text>
</a>
</g>
</g>
<!-- Node4&#45;&gt;Node23 -->
<g id="edge22_Node000004_Node000023" class="edge">
<title>Node4&#45;&gt;Node23</title>
<g id="a_edge22_Node000004_Node000023"><a xlink:title=" ">
<path fill="none" stroke="#63b8ff" d="M1648.43,-78.2C1358.49,-71.08 309.2,-44.56 160.5,-30 147.4,-28.72 133.26,-26.66 120.35,-24.52"/>
<polygon fill="#63b8ff" stroke="#63b8ff" points="1648.75,-81.71 1658.83,-78.46 1648.92,-74.71 1648.75,-81.71"/>
</a>
</g>
</g>
<!-- Node24 -->
<g id="Node000024" class="node">
<title>Node24</title>
<g id="a_Node000024"><a xlink:href="../../d8/dd9/mainwindow_8cpp.html" target="_top" xlink:title=" ">
<polygon fill="white" stroke="#666666" points="357.5,-24.5 169.5,-24.5 169.5,-5.5 357.5,-5.5 357.5,-24.5"/>
<text text-anchor="middle" x="263.5" y="-12.5" font-family="Helvetica,sans-Serif" font-size="10.00">src/app/seamly2d/mainwindow.cpp</text>
</a>
</g>
</g>
<!-- Node4&#45;&gt;Node24 -->
<g id="edge23_Node000004_Node000024" class="edge">
<title>Node4&#45;&gt;Node24</title>
<g id="a_edge23_Node000004_Node000024"><a xlink:title=" ">
<path fill="none" stroke="#63b8ff" d="M1648.41,-78.23C1403.12,-72.22 618.71,-51.74 366.5,-30 350.95,-28.66 334.15,-26.63 318.71,-24.52"/>
<polygon fill="#63b8ff" stroke="#63b8ff" points="1648.56,-81.73 1658.65,-78.48 1648.74,-74.74 1648.56,-81.73"/>
</a>
</g>
</g>
<!-- Node4&#45;&gt;Node25 -->
<g id="edge24_Node000004_Node000025" class="edge">
<title>Node4&#45;&gt;Node25</title>
<g id="a_edge24_Node000004_Node000025"><a xlink:title=" ">
<path fill="none" stroke="#63b8ff" d="M1796.16,-79.13C2115.71,-75.21 3383.67,-58.17 3781.5,-30 3799.76,-28.71 3819.53,-26.65 3837.61,-24.5"/>
<polygon fill="#63b8ff" stroke="#63b8ff" points="1796.05,-75.63 1786.09,-79.25 1796.13,-82.63 1796.05,-75.63"/>
</a>
</g>
</g>
<!-- Node26 -->
<g id="Node000026" class="node">
<title>Node26</title>
<g id="a_Node000026"><a xlink:href="../../d3/d49/vpattern_8cpp.html" target="_top" xlink:title=" ">
<polygon fill="white" stroke="#666666" points="2095,-30 1970,-30 1970,0 2095,0 2095,-30"/>
<text text-anchor="start" x="1978" y="-18" font-family="Helvetica,sans-Serif" font-size="10.00">src/app/seamly2d/xml</text>
<text text-anchor="middle" x="2032.5" y="-7" font-family="Helvetica,sans-Serif" font-size="10.00">/vpattern.cpp</text>
</a>
</g>
</g>
<!-- Node4&#45;&gt;Node26 -->
<g id="edge25_Node000004_Node000026" class="edge">
<title>Node4&#45;&gt;Node26</title>
<g id="a_edge25_Node000004_Node000026"><a xlink:title=" ">
<path fill="none" stroke="#63b8ff" d="M1796.35,-64.75C1849.22,-53.84 1919.64,-39.3 1969.79,-28.95"/>
<polygon fill="#63b8ff" stroke="#63b8ff" points="1795.44,-61.37 1786.36,-66.82 1796.86,-68.22 1795.44,-61.37"/>
</a>
</g>
</g>
<!-- Node27&#45;&gt;Node5 -->
<g id="edge28_Node000027_Node000005" class="edge">
<title>Node27&#45;&gt;Node5</title>
<g id="a_edge28_Node000027_Node000005"><a xlink:title=" ">
<path fill="none" stroke="#63b8ff" d="M930.27,-70.09C919.65,-68.63 908.78,-67.21 898.5,-66 726.95,-45.78 682.49,-54.52 511.5,-30 508.73,-29.6 505.9,-29.17 503.05,-28.71"/>
<polygon fill="#63b8ff" stroke="#63b8ff" points="929.95,-73.58 940.33,-71.49 930.91,-66.64 929.95,-73.58"/>
</a>
</g>
</g>
<!-- Node27&#45;&gt;Node23 -->
<g id="edge29_Node000027_Node000023" class="edge">
<title>Node27&#45;&gt;Node23</title>
<g id="a_edge29_Node000027_Node000023"><a xlink:title=" ">
<path fill="none" stroke="#63b8ff" d="M933.21,-70.08C921.68,-68.52 909.75,-67.08 898.5,-66 571.6,-34.75 487.05,-64.74 160.5,-30 147.71,-28.64 133.92,-26.61 121.25,-24.52"/>
<polygon fill="#63b8ff" stroke="#63b8ff" points="932.82,-73.56 943.2,-71.47 933.78,-66.62 932.82,-73.56"/>
</a>
</g>
</g>
<!-- Node27&#45;&gt;Node24 -->
<g id="edge30_Node000027_Node000024" class="edge">
<title>Node27&#45;&gt;Node24</title>
<g id="a_edge30_Node000027_Node000024"><a xlink:title=" ">
<path fill="none" stroke="#63b8ff" d="M931.83,-70.07C920.73,-68.56 909.3,-67.13 898.5,-66 662.81,-41.23 602.27,-53.97 366.5,-30 351.78,-28.5 335.92,-26.53 321.16,-24.54"/>
<polygon fill="#63b8ff" stroke="#63b8ff" points="931.52,-73.56 941.9,-71.47 932.48,-66.62 931.52,-73.56"/>
</a>
</g>
</g>
</g>
</svg>
