<?xml version="1.0" encoding="UTF-8" standalone="no"?>
<!DOCTYPE svg PUBLIC "-//W3C//DTD SVG 1.1//EN"
 "http://www.w3.org/Graphics/SVG/1.1/DTD/svg11.dtd">
<!-- Generated by graphviz version 2.43.0 (0)
 -->
<!-- Title: src/libs/vwidgets/vcurvepathitem.cpp Pages: 1 -->
<!--zoomable 302 -->

<svg id="main" version="1.1" xmlns="http://www.w3.org/2000/svg" xmlns:xlink="http://www.w3.org/1999/xlink" xml:space="preserve" onload="init(evt)">
<style type="text/css"><![CDATA[
.node, .edge {opacity: 0.7;}
.node.selected, .edge.selected {opacity: 1;}
.edge:hover path { stroke: red; }
.edge:hover polygon { stroke: red; fill: red; }
]]></style>

<defs>
  <circle id="rim" cx="0" cy="0" r="7"/>
  <circle id="rim2" cx="0" cy="0" r="3.5"/>
  <g id="zoomPlus">
    <use xlink:href="#rim" fill="#404040"><set attributeName="fill" to="#808080" begin="zoomplus.mouseover" end="zoomplus.mouseout"/></use>
    <path d="M-4,0h8M0,-4v8" fill="none" stroke="white" stroke-width="1.5" pointer-events="none"/>
  </g>
  <g id="zoomMin">
    <use xlink:href="#rim" fill="#404040"><set attributeName="fill" to="#808080" begin="zoomminus.mouseover" end="zoomminus.mouseout"/></use>
    <path d="M-4,0h8" fill="none" stroke="white" stroke-width="1.5" pointer-events="none"/>
  </g>
  <g id="arrowUp" transform="translate(30 24)">
    <use xlink:href="#rim"/>
    <path pointer-events="none" fill="none" stroke="white" stroke-width="1.5" d="M0,-3.0v7 M-2.5,-0.5L0,-3.0L2.5,-0.5"/>
  </g>
  <g id="arrowRight" transform="rotate(90) translate(36 -43)">
    <use xlink:href="#rim"/>
    <path pointer-events="none" fill="none" stroke="white" stroke-width="1.5" d="M0,-3.0v7 M-2.5,-0.5L0,-3.0L2.5,-0.5"/>
  </g>
  <g id="arrowDown" transform="rotate(180) translate(-30 -48)">
    <use xlink:href="#rim"/>
    <path pointer-events="none" fill="none" stroke="white" stroke-width="1.5" d="M0,-3.0v7 M-2.5,-0.5L0,-3.0L2.5,-0.5"/>
  </g>
  <g id="arrowLeft" transform="rotate(270) translate(-36 17)">
    <use xlink:href="#rim"/>
    <path pointer-events="none" fill="none" stroke="white" stroke-width="1.5" d="M0,-3.0v7 M-2.5,-0.5L0,-3.0L2.5,-0.5"/>
  </g>
  <g id="resetDef">
    <use xlink:href="#rim2" fill="#404040"><set attributeName="fill" to="#808080" begin="reset.mouseover" end="reset.mouseout"/></use>
  </g>
</defs>
<script type="application/ecmascript">
var viewWidth = 1311;
var viewHeight = 302;
var sectionId = 'dynsection-0';
</script>
<script type="application/ecmascript" xlink:href="../../svg.min.js"/>
<svg id="graph" class="graph">
<g id="viewport">
<title>src/libs/vwidgets/vcurvepathitem.cpp</title>
<!-- Node1 -->
<g id="Node000001" class="node">
<title>Node1</title>
<g id="a_Node000001"><a xlink:title=" ">
<polygon fill="#999999" stroke="#666666" points="838,-294 639,-294 639,-275 838,-275 838,-294"/>
<text text-anchor="middle" x="738.5" y="-282" font-family="Helvetica,sans-Serif" font-size="10.00">src/libs/vwidgets/vcurvepathitem.cpp</text>
</a>
</g>
</g>
<!-- Node2 -->
<g id="Node000002" class="node">
<title>Node2</title>
<g id="a_Node000002"><a xlink:href="../../d7/d77/vcurvepathitem_8h.html" target="_top" xlink:title=" ">
<polygon fill="white" stroke="#666666" points="373,-184 270,-184 270,-165 373,-165 373,-184"/>
<text text-anchor="middle" x="321.5" y="-172" font-family="Helvetica,sans-Serif" font-size="10.00">vcurvepathitem.h</text>
</a>
</g>
</g>
<!-- Node1&#45;&gt;Node2 -->
<g id="edge1_Node000001_Node000002" class="edge">
<title>Node1&#45;&gt;Node2</title>
<g id="a_edge1_Node000001_Node000002"><a xlink:title=" ">
<path fill="none" stroke="#63b8ff" d="M705.43,-274.94C630.54,-255.54 448.01,-208.26 364.49,-186.63"/>
<polygon fill="#63b8ff" stroke="#63b8ff" points="365.13,-183.18 354.57,-184.07 363.38,-189.96 365.13,-183.18"/>
</a>
</g>
</g>
<!-- Node16 -->
<g id="Node000016" class="node">
<title>Node16</title>
<g id="a_Node000016"><a xlink:href="../../d2/d49/global_8h.html" target="_top" xlink:title=" ">
<polygon fill="white" stroke="#666666" points="716.5,-239 604.5,-239 604.5,-220 716.5,-220 716.5,-239"/>
<text text-anchor="middle" x="660.5" y="-227" font-family="Helvetica,sans-Serif" font-size="10.00">../vwidgets/global.h</text>
</a>
</g>
</g>
<!-- Node1&#45;&gt;Node16 -->
<g id="edge16_Node000001_Node000016" class="edge">
<title>Node1&#45;&gt;Node16</title>
<g id="a_edge16_Node000001_Node000016"><a xlink:title=" ">
<path fill="none" stroke="#63b8ff" d="M725.97,-274.98C714.1,-266.92 696.04,-254.65 681.89,-245.03"/>
<polygon fill="#63b8ff" stroke="#63b8ff" points="683.5,-241.9 673.26,-239.17 679.56,-247.69 683.5,-241.9"/>
</a>
</g>
</g>
<!-- Node17 -->
<g id="Node000017" class="node">
<title>Node17</title>
<g id="a_Node000017"><a xlink:href="../../d5/d82/vabstractcurve_8h.html" target="_top" xlink:title=" ">
<polygon fill="white" stroke="#666666" points="978.5,-239 814.5,-239 814.5,-220 978.5,-220 978.5,-239"/>
<text text-anchor="middle" x="896.5" y="-227" font-family="Helvetica,sans-Serif" font-size="10.00">../vgeometry/vabstractcurve.h</text>
</a>
</g>
</g>
<!-- Node1&#45;&gt;Node17 -->
<g id="edge18_Node000001_Node000017" class="edge">
<title>Node1&#45;&gt;Node17</title>
<g id="a_edge18_Node000001_Node000017"><a xlink:title=" ">
<path fill="none" stroke="#63b8ff" d="M763.89,-274.98C790.3,-266.13 831.85,-252.19 861.39,-242.28"/>
<polygon fill="#63b8ff" stroke="#63b8ff" points="862.55,-245.58 870.92,-239.08 860.32,-238.94 862.55,-245.58"/>
</a>
</g>
</g>
<!-- Node28 -->
<g id="Node000028" class="node">
<title>Node28</title>
<g id="a_Node000028"><a xlink:title=" ">
<polygon fill="#e0e0e0" stroke="#999999" points="1054.5,-239 996.5,-239 996.5,-220 1054.5,-220 1054.5,-239"/>
<text text-anchor="middle" x="1025.5" y="-227" font-family="Helvetica,sans-Serif" font-size="10.00">QPainter</text>
</a>
</g>
</g>
<!-- Node1&#45;&gt;Node28 -->
<g id="edge43_Node000001_Node000028" class="edge">
<title>Node1&#45;&gt;Node28</title>
<g id="a_edge43_Node000001_Node000028"><a xlink:title=" ">
<path fill="none" stroke="#63b8ff" d="M790.13,-274.94C838.4,-266.79 912.75,-253.85 986.55,-239.12"/>
<polygon fill="#63b8ff" stroke="#63b8ff" points="987.37,-242.53 996.48,-237.13 985.99,-235.66 987.37,-242.53"/>
</a>
</g>
</g>
<!-- Node3 -->
<g id="Node000003" class="node">
<title>Node3</title>
<g id="a_Node000003"><a xlink:title=" ">
<polygon fill="#e0e0e0" stroke="#999999" points="248.5,-129 138.5,-129 138.5,-110 248.5,-110 248.5,-129"/>
<text text-anchor="middle" x="193.5" y="-117" font-family="Helvetica,sans-Serif" font-size="10.00">QGraphicsPathItem</text>
</a>
</g>
</g>
<!-- Node2&#45;&gt;Node3 -->
<g id="edge2_Node000002_Node000003" class="edge">
<title>Node2&#45;&gt;Node3</title>
<g id="a_edge2_Node000002_Node000003"><a xlink:title=" ">
<path fill="none" stroke="#63b8ff" d="M300.93,-164.98C280.07,-156.34 247.53,-142.87 223.73,-133.02"/>
<polygon fill="#63b8ff" stroke="#63b8ff" points="225.02,-129.76 214.44,-129.17 222.34,-136.23 225.02,-129.76"/>
</a>
</g>
</g>
<!-- Node4 -->
<g id="Node000004" class="node">
<title>Node4</title>
<g id="a_Node000004"><a xlink:title=" ">
<polygon fill="#e0e0e0" stroke="#999999" points="600,-74 541,-74 541,-55 600,-55 600,-74"/>
<text text-anchor="middle" x="570.5" y="-62" font-family="Helvetica,sans-Serif" font-size="10.00">QtGlobal</text>
</a>
</g>
</g>
<!-- Node2&#45;&gt;Node4 -->
<g id="edge3_Node000002_Node000004" class="edge">
<title>Node2&#45;&gt;Node4</title>
<g id="a_edge3_Node000002_Node000004"><a xlink:title=" ">
<path fill="none" stroke="#63b8ff" d="M329.87,-164.71C343.42,-151 371.58,-124.56 400.5,-110 412.18,-104.12 484.44,-86.16 530.92,-74.94"/>
<polygon fill="#63b8ff" stroke="#63b8ff" points="531.79,-78.33 540.7,-72.58 530.16,-71.52 531.79,-78.33"/>
</a>
</g>
</g>
<!-- Node5 -->
<g id="Node000005" class="node">
<title>Node5</title>
<g id="a_Node000005"><a xlink:href="../../d4/da4/def_8h.html" target="_top" xlink:title=" ">
<polygon fill="white" stroke="#666666" points="348.5,-129 266.5,-129 266.5,-110 348.5,-110 348.5,-129"/>
<text text-anchor="middle" x="307.5" y="-117" font-family="Helvetica,sans-Serif" font-size="10.00">../vmisc/def.h</text>
</a>
</g>
</g>
<!-- Node2&#45;&gt;Node5 -->
<g id="edge4_Node000002_Node000005" class="edge">
<title>Node2&#45;&gt;Node5</title>
<g id="a_edge4_Node000002_Node000005"><a xlink:title=" ">
<path fill="none" stroke="#63b8ff" d="M319.19,-164.75C317.33,-157.72 314.66,-147.62 312.35,-138.84"/>
<polygon fill="#63b8ff" stroke="#63b8ff" points="315.71,-137.86 309.77,-129.09 308.94,-139.65 315.71,-137.86"/>
</a>
</g>
</g>
<!-- Node5&#45;&gt;Node4 -->
<g id="edge11_Node000005_Node000004" class="edge">
<title>Node5&#45;&gt;Node4</title>
<g id="a_edge11_Node000005_Node000004"><a xlink:title=" ">
<path fill="none" stroke="#63b8ff" d="M348.83,-110.53C391.8,-102.19 461.25,-88.55 530.88,-74.1"/>
<polygon fill="#63b8ff" stroke="#63b8ff" points="531.62,-77.52 540.7,-72.05 530.2,-70.67 531.62,-77.52"/>
</a>
</g>
</g>
<!-- Node6 -->
<g id="Node000006" class="node">
<title>Node6</title>
<g id="a_Node000006"><a xlink:title=" ">
<polygon fill="#e0e0e0" stroke="#999999" points="1249.5,-74 1129.5,-74 1129.5,-55 1249.5,-55 1249.5,-74"/>
<text text-anchor="middle" x="1189.5" y="-62" font-family="Helvetica,sans-Serif" font-size="10.00">qcompilerdetection.h</text>
</a>
</g>
</g>
<!-- Node5&#45;&gt;Node6 -->
<g id="edge5_Node000005_Node000006" class="edge">
<title>Node5&#45;&gt;Node6</title>
<g id="a_edge5_Node000005_Node000006"><a xlink:title=" ">
<path fill="none" stroke="#63b8ff" d="M348.56,-116.03C487.78,-107.67 942.94,-80.32 1119.04,-69.73"/>
<polygon fill="#63b8ff" stroke="#63b8ff" points="1119.46,-73.22 1129.23,-69.12 1119.04,-66.23 1119.46,-73.22"/>
</a>
</g>
</g>
<!-- Node7 -->
<g id="Node000007" class="node">
<title>Node7</title>
<g id="a_Node000007"><a xlink:title=" ">
<polygon fill="#e0e0e0" stroke="#999999" points="73,-74 0,-74 0,-55 73,-55 73,-74"/>
<text text-anchor="middle" x="36.5" y="-62" font-family="Helvetica,sans-Serif" font-size="10.00">QFileDialog</text>
</a>
</g>
</g>
<!-- Node5&#45;&gt;Node7 -->
<g id="edge6_Node000005_Node000007" class="edge">
<title>Node5&#45;&gt;Node7</title>
<g id="a_edge6_Node000005_Node000007"><a xlink:title=" ">
<path fill="none" stroke="#63b8ff" d="M266.34,-110.45C217.06,-100.81 134.73,-84.71 83.14,-74.62"/>
<polygon fill="#63b8ff" stroke="#63b8ff" points="83.74,-71.17 73.25,-72.69 82.4,-78.04 83.74,-71.17"/>
</a>
</g>
</g>
<!-- Node8 -->
<g id="Node000008" class="node">
<title>Node8</title>
<g id="a_Node000008"><a xlink:title=" ">
<polygon fill="#e0e0e0" stroke="#999999" points="141.5,-74 91.5,-74 91.5,-55 141.5,-55 141.5,-74"/>
<text text-anchor="middle" x="116.5" y="-62" font-family="Helvetica,sans-Serif" font-size="10.00">QLineF</text>
</a>
</g>
</g>
<!-- Node5&#45;&gt;Node8 -->
<g id="edge7_Node000005_Node000008" class="edge">
<title>Node5&#45;&gt;Node8</title>
<g id="a_edge7_Node000005_Node000008"><a xlink:title=" ">
<path fill="none" stroke="#63b8ff" d="M276.81,-109.98C242.64,-100.5 187.52,-85.21 151.65,-75.25"/>
<polygon fill="#63b8ff" stroke="#63b8ff" points="152.2,-71.77 141.62,-72.47 150.32,-78.52 152.2,-71.77"/>
</a>
</g>
</g>
<!-- Node9 -->
<g id="Node000009" class="node">
<title>Node9</title>
<g id="a_Node000009"><a xlink:title=" ">
<polygon fill="#e0e0e0" stroke="#999999" points="831,-74 778,-74 778,-55 831,-55 831,-74"/>
<text text-anchor="middle" x="804.5" y="-62" font-family="Helvetica,sans-Serif" font-size="10.00">QString</text>
</a>
</g>
</g>
<!-- Node5&#45;&gt;Node9 -->
<g id="edge8_Node000005_Node000009" class="edge">
<title>Node5&#45;&gt;Node9</title>
<g id="a_edge8_Node000005_Node000009"><a xlink:title=" ">
<path fill="none" stroke="#63b8ff" d="M348.59,-114.12C443.56,-103.99 677.03,-79.09 767.68,-69.43"/>
<polygon fill="#63b8ff" stroke="#63b8ff" points="768.18,-72.89 777.76,-68.35 767.44,-65.93 768.18,-72.89"/>
</a>
</g>
</g>
<!-- Node10 -->
<g id="Node000010" class="node">
<title>Node10</title>
<g id="a_Node000010"><a xlink:title=" ">
<polygon fill="#e0e0e0" stroke="#999999" points="522.5,-74 452.5,-74 452.5,-55 522.5,-55 522.5,-74"/>
<text text-anchor="middle" x="487.5" y="-62" font-family="Helvetica,sans-Serif" font-size="10.00">QStringList</text>
</a>
</g>
</g>
<!-- Node5&#45;&gt;Node10 -->
<g id="edge9_Node000005_Node000010" class="edge">
<title>Node5&#45;&gt;Node10</title>
<g id="a_edge9_Node000005_Node000010"><a xlink:title=" ">
<path fill="none" stroke="#63b8ff" d="M336.42,-109.98C366.77,-101.05 414.67,-86.94 448.38,-77.02"/>
<polygon fill="#63b8ff" stroke="#63b8ff" points="449.75,-80.26 458.35,-74.08 447.77,-73.55 449.75,-80.26"/>
</a>
</g>
</g>
<!-- Node11 -->
<g id="Node000011" class="node">
<title>Node11</title>
<g id="a_Node000011"><a xlink:title=" ">
<polygon fill="#e0e0e0" stroke="#999999" points="189,-74 160,-74 160,-55 189,-55 189,-74"/>
<text text-anchor="middle" x="174.5" y="-62" font-family="Helvetica,sans-Serif" font-size="10.00">Qt</text>
</a>
</g>
</g>
<!-- Node5&#45;&gt;Node11 -->
<g id="edge10_Node000005_Node000011" class="edge">
<title>Node5&#45;&gt;Node11</title>
<g id="a_edge10_Node000005_Node000011"><a xlink:title=" ">
<path fill="none" stroke="#63b8ff" d="M286.13,-109.98C262.25,-100.47 223.67,-85.1 198.7,-75.14"/>
<polygon fill="#63b8ff" stroke="#63b8ff" points="199.81,-71.82 189.23,-71.37 197.22,-78.32 199.81,-71.82"/>
</a>
</g>
</g>
<!-- Node12 -->
<g id="Node000012" class="node">
<title>Node12</title>
<g id="a_Node000012"><a xlink:title=" ">
<polygon fill="#e0e0e0" stroke="#999999" points="263.5,-74 207.5,-74 207.5,-55 263.5,-55 263.5,-74"/>
<text text-anchor="middle" x="235.5" y="-62" font-family="Helvetica,sans-Serif" font-size="10.00">QPrinter</text>
</a>
</g>
</g>
<!-- Node5&#45;&gt;Node12 -->
<g id="edge12_Node000005_Node000012" class="edge">
<title>Node5&#45;&gt;Node12</title>
<g id="a_edge12_Node000005_Node000012"><a xlink:title=" ">
<path fill="none" stroke="#63b8ff" d="M295.93,-109.98C285.08,-102 268.62,-89.88 255.62,-80.31"/>
<polygon fill="#63b8ff" stroke="#63b8ff" points="257.41,-77.28 247.28,-74.17 253.26,-82.92 257.41,-77.28"/>
</a>
</g>
</g>
<!-- Node13 -->
<g id="Node000013" class="node">
<title>Node13</title>
<g id="a_Node000013"><a xlink:title=" ">
<polygon fill="#e0e0e0" stroke="#999999" points="333,-74 282,-74 282,-55 333,-55 333,-74"/>
<text text-anchor="middle" x="307.5" y="-62" font-family="Helvetica,sans-Serif" font-size="10.00">csignal</text>
</a>
</g>
</g>
<!-- Node5&#45;&gt;Node13 -->
<g id="edge13_Node000005_Node000013" class="edge">
<title>Node5&#45;&gt;Node13</title>
<g id="a_edge13_Node000005_Node000013"><a xlink:title=" ">
<path fill="none" stroke="#63b8ff" d="M307.5,-109.75C307.5,-102.8 307.5,-92.85 307.5,-84.13"/>
<polygon fill="#63b8ff" stroke="#63b8ff" points="311,-84.09 307.5,-74.09 304,-84.09 311,-84.09"/>
</a>
</g>
</g>
<!-- Node14 -->
<g id="Node000014" class="node">
<title>Node14</title>
<g id="a_Node000014"><a xlink:href="../../d4/d82/debugbreak_8h.html" target="_top" xlink:title=" ">
<polygon fill="white" stroke="#666666" points="434,-74 351,-74 351,-55 434,-55 434,-74"/>
<text text-anchor="middle" x="392.5" y="-62" font-family="Helvetica,sans-Serif" font-size="10.00">debugbreak.h</text>
</a>
</g>
</g>
<!-- Node5&#45;&gt;Node14 -->
<g id="edge14_Node000005_Node000014" class="edge">
<title>Node5&#45;&gt;Node14</title>
<g id="a_edge14_Node000005_Node000014"><a xlink:title=" ">
<path fill="none" stroke="#63b8ff" d="M321.16,-109.98C334.34,-101.77 354.53,-89.18 370.07,-79.49"/>
<polygon fill="#63b8ff" stroke="#63b8ff" points="371.96,-82.43 378.59,-74.17 368.26,-76.49 371.96,-82.43"/>
</a>
</g>
</g>
<!-- Node15 -->
<g id="Node000015" class="node">
<title>Node15</title>
<g id="a_Node000015"><a xlink:title=" ">
<polygon fill="#e0e0e0" stroke="#999999" points="420,-19 365,-19 365,0 420,0 420,-19"/>
<text text-anchor="middle" x="392.5" y="-7" font-family="Helvetica,sans-Serif" font-size="10.00">signal.h</text>
</a>
</g>
</g>
<!-- Node14&#45;&gt;Node15 -->
<g id="edge15_Node000014_Node000015" class="edge">
<title>Node14&#45;&gt;Node15</title>
<g id="a_edge15_Node000014_Node000015"><a xlink:title=" ">
<path fill="none" stroke="#63b8ff" d="M392.5,-54.75C392.5,-47.8 392.5,-37.85 392.5,-29.13"/>
<polygon fill="#63b8ff" stroke="#63b8ff" points="396,-29.09 392.5,-19.09 389,-29.09 396,-29.09"/>
</a>
</g>
</g>
<!-- Node16&#45;&gt;Node4 -->
<g id="edge17_Node000016_Node000004" class="edge">
<title>Node16&#45;&gt;Node4</title>
<g id="a_edge17_Node000016_Node000004"><a xlink:title=" ">
<path fill="none" stroke="#63b8ff" d="M604.42,-222.48C572.81,-216.77 534.06,-205.64 505.5,-184 482.59,-166.65 479.35,-156.64 471.5,-129 469.19,-120.88 466.91,-117.09 471.5,-110 478.77,-98.76 508.49,-86.28 533.48,-77.41"/>
<polygon fill="#63b8ff" stroke="#63b8ff" points="534.81,-80.65 543.12,-74.07 532.53,-74.03 534.81,-80.65"/>
</a>
</g>
</g>
<!-- Node17&#45;&gt;Node4 -->
<g id="edge25_Node000017_Node000004" class="edge">
<title>Node17&#45;&gt;Node4</title>
<g id="a_edge25_Node000017_Node000004"><a xlink:title=" ">
<path fill="none" stroke="#63b8ff" d="M879.43,-219.97C825.97,-193.24 661.5,-111 596.92,-78.71"/>
<polygon fill="#63b8ff" stroke="#63b8ff" points="598.3,-75.49 587.79,-74.15 595.17,-81.75 598.3,-75.49"/>
</a>
</g>
</g>
<!-- Node17&#45;&gt;Node6 -->
<g id="edge19_Node000017_Node000006" class="edge">
<title>Node17&#45;&gt;Node6</title>
<g id="a_edge19_Node000017_Node000006"><a xlink:title=" ">
<path fill="none" stroke="#63b8ff" d="M978.55,-220.15C1089.4,-208.7 1273.91,-188.97 1279.5,-184 1304.45,-161.8 1310.84,-137.9 1292.5,-110 1282.07,-94.14 1264.66,-83.9 1247.09,-77.31"/>
<polygon fill="#63b8ff" stroke="#63b8ff" points="1247.95,-73.91 1237.35,-74.01 1245.7,-80.54 1247.95,-73.91"/>
</a>
</g>
</g>
<!-- Node17&#45;&gt;Node9 -->
<g id="edge22_Node000017_Node000009" class="edge">
<title>Node17&#45;&gt;Node9</title>
<g id="a_edge22_Node000017_Node000009"><a xlink:title=" ">
<path fill="none" stroke="#63b8ff" d="M978.89,-220.64C1082.15,-210.46 1246.98,-192.95 1257.5,-184 1283.12,-162.19 1296.14,-134.89 1273.5,-110 1244.57,-78.19 946.73,-68.61 841.27,-66.21"/>
<polygon fill="#63b8ff" stroke="#63b8ff" points="841.18,-62.7 831.1,-65.98 841.02,-69.7 841.18,-62.7"/>
</a>
</g>
</g>
<!-- Node18 -->
<g id="Node000018" class="node">
<title>Node18</title>
<g id="a_Node000018"><a xlink:title=" ">
<polygon fill="#e0e0e0" stroke="#999999" points="570,-184 515,-184 515,-165 570,-165 570,-184"/>
<text text-anchor="middle" x="542.5" y="-172" font-family="Helvetica,sans-Serif" font-size="10.00">QPointF</text>
</a>
</g>
</g>
<!-- Node17&#45;&gt;Node18 -->
<g id="edge20_Node000017_Node000018" class="edge">
<title>Node17&#45;&gt;Node18</title>
<g id="a_edge20_Node000017_Node000018"><a xlink:title=" ">
<path fill="none" stroke="#63b8ff" d="M821.33,-219.98C759.02,-212.45 667.96,-200.41 580.21,-184.19"/>
<polygon fill="#63b8ff" stroke="#63b8ff" points="580.83,-180.74 570.35,-182.35 579.54,-187.62 580.83,-180.74"/>
</a>
</g>
</g>
<!-- Node19 -->
<g id="Node000019" class="node">
<title>Node19</title>
<g id="a_Node000019"><a xlink:title=" ">
<polygon fill="#e0e0e0" stroke="#999999" points="846.5,-129 730.5,-129 730.5,-110 846.5,-110 846.5,-129"/>
<text text-anchor="middle" x="788.5" y="-117" font-family="Helvetica,sans-Serif" font-size="10.00">QSharedDataPointer</text>
</a>
</g>
</g>
<!-- Node17&#45;&gt;Node19 -->
<g id="edge21_Node000017_Node000019" class="edge">
<title>Node17&#45;&gt;Node19</title>
<g id="a_edge21_Node000017_Node000019"><a xlink:title=" ">
<path fill="none" stroke="#63b8ff" d="M887.66,-219.66C869.46,-201.46 827.55,-159.55 804.47,-136.47"/>
<polygon fill="#63b8ff" stroke="#63b8ff" points="806.7,-133.75 797.16,-129.16 801.75,-138.7 806.7,-133.75"/>
</a>
</g>
</g>
<!-- Node20 -->
<g id="Node000020" class="node">
<title>Node20</title>
<g id="a_Node000020"><a xlink:title=" ">
<polygon fill="#e0e0e0" stroke="#999999" points="930,-129 865,-129 865,-110 930,-110 930,-129"/>
<text text-anchor="middle" x="897.5" y="-117" font-family="Helvetica,sans-Serif" font-size="10.00">QTypeInfo</text>
</a>
</g>
</g>
<!-- Node17&#45;&gt;Node20 -->
<g id="edge23_Node000017_Node000020" class="edge">
<title>Node17&#45;&gt;Node20</title>
<g id="a_edge23_Node000017_Node000020"><a xlink:title=" ">
<path fill="none" stroke="#63b8ff" d="M896.58,-219.66C896.74,-202.17 897.11,-162.8 897.33,-139.27"/>
<polygon fill="#63b8ff" stroke="#63b8ff" points="900.83,-139.19 897.42,-129.16 893.83,-139.13 900.83,-139.19"/>
</a>
</g>
</g>
<!-- Node21 -->
<g id="Node000021" class="node">
<title>Node21</title>
<g id="a_Node000021"><a xlink:title=" ">
<polygon fill="#e0e0e0" stroke="#999999" points="1080,-129 1025,-129 1025,-110 1080,-110 1080,-129"/>
<text text-anchor="middle" x="1052.5" y="-117" font-family="Helvetica,sans-Serif" font-size="10.00">QVector</text>
</a>
</g>
</g>
<!-- Node17&#45;&gt;Node21 -->
<g id="edge24_Node000017_Node000021" class="edge">
<title>Node17&#45;&gt;Node21</title>
<g id="a_edge24_Node000017_Node000021"><a xlink:title=" ">
<path fill="none" stroke="#63b8ff" d="M927.08,-219.97C949.22,-212.8 979.08,-200.96 1001.5,-184 1018.36,-171.25 1032.92,-151.73 1042.12,-137.71"/>
<polygon fill="#63b8ff" stroke="#63b8ff" points="1045.22,-139.35 1047.59,-129.02 1039.3,-135.61 1045.22,-139.35"/>
</a>
</g>
</g>
<!-- Node22 -->
<g id="Node000022" class="node">
<title>Node22</title>
<g id="a_Node000022"><a xlink:href="../../d3/da5/ifcdef_8h.html" target="_top" xlink:title=" ">
<polygon fill="white" stroke="#666666" points="665,-184 588,-184 588,-165 665,-165 665,-184"/>
<text text-anchor="middle" x="626.5" y="-172" font-family="Helvetica,sans-Serif" font-size="10.00">../ifc/ifcdef.h</text>
</a>
</g>
</g>
<!-- Node17&#45;&gt;Node22 -->
<g id="edge26_Node000017_Node000022" class="edge">
<title>Node17&#45;&gt;Node22</title>
<g id="a_edge26_Node000017_Node000022"><a xlink:title=" ">
<path fill="none" stroke="#63b8ff" d="M853.12,-219.98C804.59,-210.46 726.14,-195.06 675.45,-185.11"/>
<polygon fill="#63b8ff" stroke="#63b8ff" points="675.88,-181.63 665.39,-183.13 674.53,-188.49 675.88,-181.63"/>
</a>
</g>
</g>
<!-- Node24 -->
<g id="Node000024" class="node">
<title>Node24</title>
<g id="a_Node000024"><a xlink:href="../../db/db3/vmath_8h.html" target="_top" xlink:title=" ">
<polygon fill="white" stroke="#666666" points="1248.5,-184 1150.5,-184 1150.5,-165 1248.5,-165 1248.5,-184"/>
<text text-anchor="middle" x="1199.5" y="-172" font-family="Helvetica,sans-Serif" font-size="10.00">../vmisc/vmath.h</text>
</a>
</g>
</g>
<!-- Node17&#45;&gt;Node24 -->
<g id="edge33_Node000017_Node000024" class="edge">
<title>Node17&#45;&gt;Node24</title>
<g id="a_edge33_Node000017_Node000024"><a xlink:title=" ">
<path fill="none" stroke="#63b8ff" d="M945.18,-219.98C998.44,-210.67 1083.81,-195.74 1140.75,-185.78"/>
<polygon fill="#63b8ff" stroke="#63b8ff" points="1141.44,-189.21 1150.69,-184.04 1140.23,-182.31 1141.44,-189.21"/>
</a>
</g>
</g>
<!-- Node26 -->
<g id="Node000026" class="node">
<title>Node26</title>
<g id="a_Node000026"><a xlink:href="../../d5/d9d/vgeometrydef_8h.html" target="_top" xlink:title=" ">
<polygon fill="white" stroke="#666666" points="1192.5,-129 1098.5,-129 1098.5,-110 1192.5,-110 1192.5,-129"/>
<text text-anchor="middle" x="1145.5" y="-117" font-family="Helvetica,sans-Serif" font-size="10.00">vgeometrydef.h</text>
</a>
</g>
</g>
<!-- Node17&#45;&gt;Node26 -->
<g id="edge35_Node000017_Node000026" class="edge">
<title>Node17&#45;&gt;Node26</title>
<g id="a_edge35_Node000017_Node000026"><a xlink:title=" ">
<path fill="none" stroke="#63b8ff" d="M924.93,-219.96C951.17,-211.76 991.04,-198.5 1024.5,-184 1059.47,-168.84 1098.21,-147.7 1122.21,-134.05"/>
<polygon fill="#63b8ff" stroke="#63b8ff" points="1124.01,-137.06 1130.94,-129.05 1120.53,-130.98 1124.01,-137.06"/>
</a>
</g>
</g>
<!-- Node27 -->
<g id="Node000027" class="node">
<title>Node27</title>
<g id="a_Node000027"><a xlink:href="../../d2/d07/vgobject_8h.html" target="_top" xlink:title=" ">
<polygon fill="white" stroke="#666666" points="992.5,-184 924.5,-184 924.5,-165 992.5,-165 992.5,-184"/>
<text text-anchor="middle" x="958.5" y="-172" font-family="Helvetica,sans-Serif" font-size="10.00">vgobject.h</text>
</a>
</g>
</g>
<!-- Node17&#45;&gt;Node27 -->
<g id="edge36_Node000017_Node000027" class="edge">
<title>Node17&#45;&gt;Node27</title>
<g id="a_edge36_Node000017_Node000027"><a xlink:title=" ">
<path fill="none" stroke="#63b8ff" d="M906.46,-219.98C915.63,-212.15 929.44,-200.34 940.53,-190.86"/>
<polygon fill="#63b8ff" stroke="#63b8ff" points="943.03,-193.33 948.36,-184.17 938.48,-188.01 943.03,-193.33"/>
</a>
</g>
</g>
<!-- Node22&#45;&gt;Node4 -->
<g id="edge29_Node000022_Node000004" class="edge">
<title>Node22&#45;&gt;Node4</title>
<g id="a_edge29_Node000022_Node000004"><a xlink:title=" ">
<path fill="none" stroke="#63b8ff" d="M624.86,-164.88C622.23,-152.28 616.34,-128.33 606.5,-110 601.06,-99.86 593.18,-89.79 586.17,-81.8"/>
<polygon fill="#63b8ff" stroke="#63b8ff" points="588.66,-79.34 579.33,-74.31 583.49,-84.06 588.66,-79.34"/>
</a>
</g>
</g>
<!-- Node22&#45;&gt;Node5 -->
<g id="edge30_Node000022_Node000005" class="edge">
<title>Node22&#45;&gt;Node5</title>
<g id="a_edge30_Node000022_Node000005"><a xlink:title=" ">
<path fill="none" stroke="#63b8ff" d="M587.99,-166.64C584.78,-166.08 581.59,-165.53 578.5,-165 502.11,-151.97 413.49,-137.55 358.95,-128.75"/>
<polygon fill="#63b8ff" stroke="#63b8ff" points="359.28,-125.26 348.85,-127.12 358.16,-132.17 359.28,-125.26"/>
</a>
</g>
</g>
<!-- Node22&#45;&gt;Node9 -->
<g id="edge27_Node000022_Node000009" class="edge">
<title>Node22&#45;&gt;Node9</title>
<g id="a_edge27_Node000022_Node000009"><a xlink:title=" ">
<path fill="none" stroke="#63b8ff" d="M638.55,-164.89C656.36,-152.31 690.88,-128.38 721.5,-110 740.13,-98.81 761.79,-87.25 778.31,-78.71"/>
<polygon fill="#63b8ff" stroke="#63b8ff" points="780.08,-81.74 787.38,-74.06 776.89,-75.51 780.08,-81.74"/>
</a>
</g>
</g>
<!-- Node22&#45;&gt;Node10 -->
<g id="edge28_Node000022_Node000010" class="edge">
<title>Node22&#45;&gt;Node10</title>
<g id="a_edge28_Node000022_Node000010"><a xlink:title=" ">
<path fill="none" stroke="#63b8ff" d="M587.81,-164.94C544.27,-154.91 478.64,-138.48 471.5,-129 461.48,-115.7 468.16,-96.84 475.71,-83.13"/>
<polygon fill="#63b8ff" stroke="#63b8ff" points="478.93,-84.57 481.14,-74.21 472.95,-80.93 478.93,-84.57"/>
</a>
</g>
</g>
<!-- Node23 -->
<g id="Node000023" class="node">
<title>Node23</title>
<g id="a_Node000023"><a xlink:href="../../d6/dcd/diagnostic_8h.html" target="_top" xlink:title=" ">
<polygon fill="white" stroke="#666666" points="598,-129 481,-129 481,-110 598,-110 598,-129"/>
<text text-anchor="middle" x="539.5" y="-117" font-family="Helvetica,sans-Serif" font-size="10.00">../vmisc/diagnostic.h</text>
</a>
</g>
</g>
<!-- Node22&#45;&gt;Node23 -->
<g id="edge31_Node000022_Node000023" class="edge">
<title>Node22&#45;&gt;Node23</title>
<g id="a_edge31_Node000022_Node000023"><a xlink:title=" ">
<path fill="none" stroke="#63b8ff" d="M612.52,-164.98C599.03,-156.77 578.37,-144.18 562.46,-134.49"/>
<polygon fill="#63b8ff" stroke="#63b8ff" points="564.09,-131.38 553.73,-129.17 560.45,-137.36 564.09,-131.38"/>
</a>
</g>
</g>
<!-- Node23&#45;&gt;Node4 -->
<g id="edge32_Node000023_Node000004" class="edge">
<title>Node23&#45;&gt;Node4</title>
<g id="a_edge32_Node000023_Node000004"><a xlink:title=" ">
<path fill="none" stroke="#63b8ff" d="M544.62,-109.75C548.86,-102.49 555.03,-91.95 560.28,-82.98"/>
<polygon fill="#63b8ff" stroke="#63b8ff" points="563.45,-84.49 565.48,-74.09 557.41,-80.95 563.45,-84.49"/>
</a>
</g>
</g>
<!-- Node25 -->
<g id="Node000025" class="node">
<title>Node25</title>
<g id="a_Node000025"><a xlink:title=" ">
<polygon fill="#e0e0e0" stroke="#999999" points="1264,-129 1211,-129 1211,-110 1264,-110 1264,-129"/>
<text text-anchor="middle" x="1237.5" y="-117" font-family="Helvetica,sans-Serif" font-size="10.00">QtMath</text>
</a>
</g>
</g>
<!-- Node24&#45;&gt;Node25 -->
<g id="edge34_Node000024_Node000025" class="edge">
<title>Node24&#45;&gt;Node25</title>
<g id="a_edge34_Node000024_Node000025"><a xlink:title=" ">
<path fill="none" stroke="#63b8ff" d="M1205.77,-164.75C1211.09,-157.34 1218.86,-146.5 1225.38,-137.41"/>
<polygon fill="#63b8ff" stroke="#63b8ff" points="1228.36,-139.26 1231.34,-129.09 1222.67,-135.18 1228.36,-139.26"/>
</a>
</g>
</g>
<!-- Node27&#45;&gt;Node4 -->
<g id="edge41_Node000027_Node000004" class="edge">
<title>Node27&#45;&gt;Node4</title>
<g id="a_edge41_Node000027_Node000004"><a xlink:title=" ">
<path fill="none" stroke="#63b8ff" d="M958.69,-164.95C958.48,-151.06 955.87,-123.79 939.5,-110 914.64,-89.06 700.26,-73.51 610.14,-67.84"/>
<polygon fill="#63b8ff" stroke="#63b8ff" points="610.24,-64.34 600.04,-67.22 609.81,-71.33 610.24,-64.34"/>
</a>
</g>
</g>
<!-- Node27&#45;&gt;Node9 -->
<g id="edge38_Node000027_Node000009" class="edge">
<title>Node27&#45;&gt;Node9</title>
<g id="a_edge38_Node000027_Node000009"><a xlink:title=" ">
<path fill="none" stroke="#63b8ff" d="M964.47,-164.73C972.67,-151.51 985.03,-126.28 972.5,-110 956.61,-89.36 885.74,-76.32 841.27,-70.01"/>
<polygon fill="#63b8ff" stroke="#63b8ff" points="841.51,-66.52 831.13,-68.63 840.56,-73.45 841.51,-66.52"/>
</a>
</g>
</g>
<!-- Node27&#45;&gt;Node19 -->
<g id="edge37_Node000027_Node000019" class="edge">
<title>Node27&#45;&gt;Node19</title>
<g id="a_edge37_Node000027_Node000019"><a xlink:title=" ">
<path fill="none" stroke="#63b8ff" d="M931.19,-164.98C902.65,-156.09 857.67,-142.07 825.86,-132.15"/>
<polygon fill="#63b8ff" stroke="#63b8ff" points="826.62,-128.72 816.03,-129.08 824.53,-135.4 826.62,-128.72"/>
</a>
</g>
</g>
<!-- Node27&#45;&gt;Node20 -->
<g id="edge39_Node000027_Node000020" class="edge">
<title>Node27&#45;&gt;Node20</title>
<g id="a_edge39_Node000027_Node000020"><a xlink:title=" ">
<path fill="none" stroke="#63b8ff" d="M948.7,-164.98C939.68,-157.15 926.09,-145.34 915.18,-135.86"/>
<polygon fill="#63b8ff" stroke="#63b8ff" points="917.32,-133.09 907.48,-129.17 912.73,-138.37 917.32,-133.09"/>
</a>
</g>
</g>
<!-- Node27&#45;&gt;Node21 -->
<g id="edge40_Node000027_Node000021" class="edge">
<title>Node27&#45;&gt;Node21</title>
<g id="a_edge40_Node000027_Node000021"><a xlink:title=" ">
<path fill="none" stroke="#63b8ff" d="M973.6,-164.98C988.32,-156.69 1010.92,-143.94 1028.17,-134.22"/>
<polygon fill="#63b8ff" stroke="#63b8ff" points="1030.13,-137.13 1037.12,-129.17 1026.69,-131.03 1030.13,-137.13"/>
</a>
</g>
</g>
<!-- Node27&#45;&gt;Node26 -->
<g id="edge42_Node000027_Node000026" class="edge">
<title>Node27&#45;&gt;Node26</title>
<g id="a_edge42_Node000027_Node000026"><a xlink:title=" ">
<path fill="none" stroke="#63b8ff" d="M988.54,-164.98C1020.21,-156.01 1070.27,-141.82 1105.31,-131.89"/>
<polygon fill="#63b8ff" stroke="#63b8ff" points="1106.55,-135.18 1115.22,-129.08 1104.64,-128.44 1106.55,-135.18"/>
</a>
</g>
</g>
</g>
</svg>

<g id="navigator" transform="translate(0 0)" fill="#404254">
  <rect fill="#f2f5e9" fill-opacity="0.5" stroke="#606060" stroke-width=".5" x="0" y="0" width="60" height="60"/>
  <use id="zoomplus" xlink:href="#zoomPlus" x="17" y="9" onmousedown="handleZoom(evt,'in')"/>
  <use id="zoomminus" xlink:href="#zoomMin" x="42" y="9" onmousedown="handleZoom(evt,'out')"/>
  <use id="reset" xlink:href="#resetDef" x="30" y="36" onmousedown="handleReset()"/>
   <use id="arrowup" xlink:href="#arrowUp" x="0" y="0" onmousedown="handlePan(0,-1)"/>
  <use id="arrowright" xlink:href="#arrowRight" x="0" y="0" onmousedown="handlePan(1,0)"/>
  <use id="arrowdown" xlink:href="#arrowDown" x="0" y="0" onmousedown="handlePan(0,1)"/>
  <use id="arrowleft" xlink:href="#arrowLeft" x="0" y="0" onmousedown="handlePan(-1,0)"/>
</g>
<svg viewBox="0 0 15 15" width="100%" height="30px" preserveAspectRatio="xMaxYMin meet">
 <g id="arrow_out" transform="scale(0.3 0.3)">
  <a xlink:href="vcurvepathitem_8cpp__incl_org.svg" target="_base">
   <rect id="button" ry="5" rx="5" y="6" x="6" height="38" width="38"
        fill="#f2f5e9" fill-opacity="0.5" stroke="#606060" stroke-width="1.0"/>
   <path id="arrow"
     d="M 11.500037,31.436501 C 11.940474,20.09759 22.043105,11.32322 32.158766,21.979434 L 37.068811,17.246167 C 37.068811,17.246167 37.088388,32 37.088388,32 L 22.160133,31.978069 C 22.160133,31.978069 26.997745,27.140456 26.997745,27.140456 C 18.528582,18.264221 13.291696,25.230495 11.500037,31.436501 z"
     style="fill:#404040;"/>
  </a>
 </g>
</svg>

<style type='text/css'>
<![CDATA[
[data-mouse-over-selected='false'] { opacity: 0.7; }
[data-mouse-over-selected='true']  { opacity: 1.0; }
]]>
</style>
<script type="application/ecmascript"><![CDATA[
document.addEventListener('DOMContentLoaded', (event) => {
  highlightEdges();
  highlightAdjacentNodes();
});
]]></script>
</svg>
