<?xml version="1.0" encoding="UTF-8" standalone="no"?>
<!DOCTYPE svg PUBLIC "-//W3C//DTD SVG 1.1//EN"
 "http://www.w3.org/Graphics/SVG/1.1/DTD/svg11.dtd">
<!-- Generated by graphviz version 2.43.0 (0)
 -->
<!-- Title: src/app/seamlyme/main.cpp Pages: 1 -->
<!--zoomable 214 -->

<svg id="main" version="1.1" xmlns="http://www.w3.org/2000/svg" xmlns:xlink="http://www.w3.org/1999/xlink" xml:space="preserve" onload="init(evt)">
<style type="text/css"><![CDATA[
.node, .edge {opacity: 0.7;}
.node.selected, .edge.selected {opacity: 1;}
.edge:hover path { stroke: red; }
.edge:hover polygon { stroke: red; fill: red; }
]]></style>

<defs>
  <circle id="rim" cx="0" cy="0" r="7"/>
  <circle id="rim2" cx="0" cy="0" r="3.5"/>
  <g id="zoomPlus">
    <use xlink:href="#rim" fill="#404040"><set attributeName="fill" to="#808080" begin="zoomplus.mouseover" end="zoomplus.mouseout"/></use>
    <path d="M-4,0h8M0,-4v8" fill="none" stroke="white" stroke-width="1.5" pointer-events="none"/>
  </g>
  <g id="zoomMin">
    <use xlink:href="#rim" fill="#404040"><set attributeName="fill" to="#808080" begin="zoomminus.mouseover" end="zoomminus.mouseout"/></use>
    <path d="M-4,0h8" fill="none" stroke="white" stroke-width="1.5" pointer-events="none"/>
  </g>
  <g id="arrowUp" transform="translate(30 24)">
    <use xlink:href="#rim"/>
    <path pointer-events="none" fill="none" stroke="white" stroke-width="1.5" d="M0,-3.0v7 M-2.5,-0.5L0,-3.0L2.5,-0.5"/>
  </g>
  <g id="arrowRight" transform="rotate(90) translate(36 -43)">
    <use xlink:href="#rim"/>
    <path pointer-events="none" fill="none" stroke="white" stroke-width="1.5" d="M0,-3.0v7 M-2.5,-0.5L0,-3.0L2.5,-0.5"/>
  </g>
  <g id="arrowDown" transform="rotate(180) translate(-30 -48)">
    <use xlink:href="#rim"/>
    <path pointer-events="none" fill="none" stroke="white" stroke-width="1.5" d="M0,-3.0v7 M-2.5,-0.5L0,-3.0L2.5,-0.5"/>
  </g>
  <g id="arrowLeft" transform="rotate(270) translate(-36 17)">
    <use xlink:href="#rim"/>
    <path pointer-events="none" fill="none" stroke="white" stroke-width="1.5" d="M0,-3.0v7 M-2.5,-0.5L0,-3.0L2.5,-0.5"/>
  </g>
  <g id="resetDef">
    <use xlink:href="#rim2" fill="#404040"><set attributeName="fill" to="#808080" begin="reset.mouseover" end="reset.mouseout"/></use>
  </g>
</defs>
<script type="application/ecmascript">
var viewWidth = 1578;
var viewHeight = 214;
var sectionId = 'dynsection-0';
</script>
<script type="application/ecmascript" xlink:href="../../svg.min.js"/>
<svg id="graph" class="graph">
<g id="viewport">
<title>src/app/seamlyme/main.cpp</title>
<!-- Node1 -->
<g id="Node000001" class="node">
<title>Node1</title>
<g id="a_Node000001"><a xlink:title=" ">
<polygon fill="#999999" stroke="#666666" points="1064,-206 909,-206 909,-187 1064,-187 1064,-206"/>
<text text-anchor="middle" x="986.5" y="-194" font-family="Helvetica,sans-Serif" font-size="10.00">src/app/seamlyme/main.cpp</text>
</a>
</g>
</g>
<!-- Node2 -->
<g id="Node000002" class="node">
<title>Node2</title>
<g id="a_Node000002"><a xlink:href="../../dc/dc0/tmainwindow_8h.html" target="_top" xlink:title=" ">
<polygon fill="white" stroke="#666666" points="559,-145.5 468,-145.5 468,-126.5 559,-126.5 559,-145.5"/>
<text text-anchor="middle" x="513.5" y="-133.5" font-family="Helvetica,sans-Serif" font-size="10.00">tmainwindow.h</text>
</a>
</g>
</g>
<!-- Node1&#45;&gt;Node2 -->
<g id="edge1_Node000001_Node000002" class="edge">
<title>Node1&#45;&gt;Node2</title>
<g id="a_edge1_Node000001_Node000002"><a xlink:title=" ">
<path fill="none" stroke="#63b8ff" d="M917.72,-186.99C823.55,-175.35 656.26,-154.66 569.38,-143.91"/>
<polygon fill="#63b8ff" stroke="#63b8ff" points="569.54,-140.4 559.19,-142.65 568.68,-147.35 569.54,-140.4"/>
</a>
</g>
</g>
<!-- Node10 -->
<g id="Node000010" class="node">
<title>Node10</title>
<g id="a_Node000010"><a xlink:href="../../df/da4/mapplication_8h.html" target="_top" xlink:title=" ">
<polygon fill="white" stroke="#666666" points="1068,-145.5 979,-145.5 979,-126.5 1068,-126.5 1068,-145.5"/>
<text text-anchor="middle" x="1023.5" y="-133.5" font-family="Helvetica,sans-Serif" font-size="10.00">mapplication.h</text>
</a>
</g>
</g>
<!-- Node1&#45;&gt;Node10 -->
<g id="edge9_Node000001_Node000010" class="edge">
<title>Node1&#45;&gt;Node10</title>
<g id="a_edge9_Node000001_Node000010"><a xlink:title=" ">
<path fill="none" stroke="#63b8ff" d="M991.96,-186.87C997.37,-178.31 1005.81,-164.97 1012.6,-154.24"/>
<polygon fill="#63b8ff" stroke="#63b8ff" points="1015.63,-155.99 1018.02,-145.67 1009.71,-152.25 1015.63,-155.99"/>
</a>
</g>
</g>
<!-- Node12 -->
<g id="Node000012" class="node">
<title>Node12</title>
<g id="a_Node000012"><a xlink:title=" ">
<polygon fill="#e0e0e0" stroke="#999999" points="1038.5,-79.5 874.5,-79.5 874.5,-60.5 1038.5,-60.5 1038.5,-79.5"/>
<text text-anchor="middle" x="956.5" y="-67.5" font-family="Helvetica,sans-Serif" font-size="10.00">../vmisc/vseamlymesettings.h</text>
</a>
</g>
</g>
<!-- Node1&#45;&gt;Node12 -->
<g id="edge20_Node000001_Node000012" class="edge">
<title>Node1&#45;&gt;Node12</title>
<g id="a_edge20_Node000001_Node000012"><a xlink:title=" ">
<path fill="none" stroke="#63b8ff" d="M982.86,-186.78C979.28,-177.91 973.87,-163.7 970.5,-151 965.03,-130.38 961.14,-106.2 958.87,-89.86"/>
<polygon fill="#63b8ff" stroke="#63b8ff" points="962.28,-88.97 957.5,-79.51 955.34,-89.88 962.28,-88.97"/>
</a>
</g>
</g>
<!-- Node15 -->
<g id="Node000015" class="node">
<title>Node15</title>
<g id="a_Node000015"><a xlink:href="../../d3/d5b/me__welcome__dialog_8h.html" target="_top" xlink:title=" ">
<polygon fill="white" stroke="#666666" points="911.5,-151 791.5,-151 791.5,-121 911.5,-121 911.5,-151"/>
<text text-anchor="start" x="799.5" y="-139" font-family="Helvetica,sans-Serif" font-size="10.00">dialogs/me_welcome</text>
<text text-anchor="middle" x="851.5" y="-128" font-family="Helvetica,sans-Serif" font-size="10.00">_dialog.h</text>
</a>
</g>
</g>
<!-- Node1&#45;&gt;Node15 -->
<g id="edge16_Node000001_Node000015" class="edge">
<title>Node1&#45;&gt;Node15</title>
<g id="a_edge16_Node000001_Node000015"><a xlink:title=" ">
<path fill="none" stroke="#63b8ff" d="M966.87,-186.99C947.7,-178.68 917.9,-165.78 893.4,-155.16"/>
<polygon fill="#63b8ff" stroke="#63b8ff" points="894.52,-151.83 883.96,-151.06 891.74,-158.25 894.52,-151.83"/>
</a>
</g>
</g>
<!-- Node16 -->
<g id="Node000016" class="node">
<title>Node16</title>
<g id="a_Node000016"><a xlink:title=" ">
<polygon fill="#e0e0e0" stroke="#999999" points="1172.5,-145.5 1086.5,-145.5 1086.5,-126.5 1172.5,-126.5 1172.5,-145.5"/>
<text text-anchor="middle" x="1129.5" y="-133.5" font-family="Helvetica,sans-Serif" font-size="10.00">QMessageBox</text>
</a>
</g>
</g>
<!-- Node1&#45;&gt;Node16 -->
<g id="edge21_Node000001_Node000016" class="edge">
<title>Node1&#45;&gt;Node16</title>
<g id="a_edge21_Node000001_Node000016"><a xlink:title=" ">
<path fill="none" stroke="#63b8ff" d="M1007.29,-186.99C1031.44,-177.12 1071.48,-160.73 1099.12,-149.43"/>
<polygon fill="#63b8ff" stroke="#63b8ff" points="1100.75,-152.54 1108.68,-145.52 1098.1,-146.06 1100.75,-152.54"/>
</a>
</g>
</g>
<!-- Node17 -->
<g id="Node000017" class="node">
<title>Node17</title>
<g id="a_Node000017"><a xlink:title=" ">
<polygon fill="#e0e0e0" stroke="#999999" points="1244,-145.5 1191,-145.5 1191,-126.5 1244,-126.5 1244,-145.5"/>
<text text-anchor="middle" x="1217.5" y="-133.5" font-family="Helvetica,sans-Serif" font-size="10.00">QTimer</text>
</a>
</g>
</g>
<!-- Node1&#45;&gt;Node17 -->
<g id="edge22_Node000001_Node000017" class="edge">
<title>Node1&#45;&gt;Node17</title>
<g id="a_edge22_Node000001_Node000017"><a xlink:title=" ">
<path fill="none" stroke="#63b8ff" d="M1032.7,-186.94C1072.54,-179.1 1131.37,-166.38 1181.5,-151 1183.42,-150.41 1185.39,-149.77 1187.36,-149.09"/>
<polygon fill="#63b8ff" stroke="#63b8ff" points="1188.93,-152.24 1197.12,-145.52 1186.53,-145.67 1188.93,-152.24"/>
</a>
</g>
</g>
<!-- Node3 -->
<g id="Node000003" class="node">
<title>Node3</title>
<g id="a_Node000003"><a xlink:title=" ">
<polygon fill="#e0e0e0" stroke="#999999" points="291.5,-79.5 207.5,-79.5 207.5,-60.5 291.5,-60.5 291.5,-79.5"/>
<text text-anchor="middle" x="249.5" y="-67.5" font-family="Helvetica,sans-Serif" font-size="10.00">QTableWidget</text>
</a>
</g>
</g>
<!-- Node2&#45;&gt;Node3 -->
<g id="edge2_Node000002_Node000003" class="edge">
<title>Node2&#45;&gt;Node3</title>
<g id="a_edge2_Node000002_Node000003"><a xlink:title=" ">
<path fill="none" stroke="#63b8ff" d="M474.72,-126.47C431.75,-116.9 360.48,-100.65 299.5,-85 296.08,-84.12 292.53,-83.18 288.98,-82.23"/>
<polygon fill="#63b8ff" stroke="#63b8ff" points="289.62,-78.77 279.05,-79.5 287.77,-85.52 289.62,-78.77"/>
</a>
</g>
</g>
<!-- Node4 -->
<g id="Node000004" class="node">
<title>Node4</title>
<g id="a_Node000004"><a xlink:title=" ">
<polygon fill="#e0e0e0" stroke="#999999" points="818.5,-79.5 736.5,-79.5 736.5,-60.5 818.5,-60.5 818.5,-79.5"/>
<text text-anchor="middle" x="777.5" y="-67.5" font-family="Helvetica,sans-Serif" font-size="10.00">../vmisc/def.h</text>
</a>
</g>
</g>
<!-- Node2&#45;&gt;Node4 -->
<g id="edge3_Node000002_Node000004" class="edge">
<title>Node2&#45;&gt;Node4</title>
<g id="a_edge3_Node000002_Node000004"><a xlink:title=" ">
<path fill="none" stroke="#63b8ff" d="M552.28,-126.47C595.25,-116.9 666.52,-100.65 727.5,-85 730.92,-84.12 734.47,-83.18 738.02,-82.23"/>
<polygon fill="#63b8ff" stroke="#63b8ff" points="739.23,-85.52 747.95,-79.5 737.38,-78.77 739.23,-85.52"/>
</a>
</g>
</g>
<!-- Node5 -->
<g id="Node000005" class="node">
<title>Node5</title>
<g id="a_Node000005"><a xlink:title=" ">
<polygon fill="#e0e0e0" stroke="#999999" points="430,-79.5 309,-79.5 309,-60.5 430,-60.5 430,-79.5"/>
<text text-anchor="middle" x="369.5" y="-67.5" font-family="Helvetica,sans-Serif" font-size="10.00">../vmisc/vlockguard.h</text>
</a>
</g>
</g>
<!-- Node2&#45;&gt;Node5 -->
<g id="edge4_Node000002_Node000005" class="edge">
<title>Node2&#45;&gt;Node5</title>
<g id="a_edge4_Node000002_Node000005"><a xlink:title=" ">
<path fill="none" stroke="#63b8ff" d="M494.08,-126.37C469.49,-115.44 426.93,-96.52 398.49,-83.88"/>
<polygon fill="#63b8ff" stroke="#63b8ff" points="399.63,-80.56 389.07,-79.7 396.79,-86.96 399.63,-80.56"/>
</a>
</g>
</g>
<!-- Node6 -->
<g id="Node000006" class="node">
<title>Node6</title>
<g id="a_Node000006"><a xlink:title=" ">
<polygon fill="#e0e0e0" stroke="#999999" points="578.5,-79.5 448.5,-79.5 448.5,-60.5 578.5,-60.5 578.5,-79.5"/>
<text text-anchor="middle" x="513.5" y="-67.5" font-family="Helvetica,sans-Serif" font-size="10.00">../vmisc/vtablesearch.h</text>
</a>
</g>
</g>
<!-- Node2&#45;&gt;Node6 -->
<g id="edge5_Node000002_Node000006" class="edge">
<title>Node2&#45;&gt;Node6</title>
<g id="a_edge5_Node000002_Node000006"><a xlink:title=" ">
<path fill="none" stroke="#63b8ff" d="M513.5,-126.37C513.5,-117.16 513.5,-102.29 513.5,-90.27"/>
<polygon fill="#63b8ff" stroke="#63b8ff" points="517,-89.91 513.5,-79.91 510,-89.91 517,-89.91"/>
</a>
</g>
</g>
<!-- Node7 -->
<g id="Node000007" class="node">
<title>Node7</title>
<g id="a_Node000007"><a xlink:title=" ">
<polygon fill="#e0e0e0" stroke="#999999" points="189,-79.5 0,-79.5 0,-60.5 189,-60.5 189,-79.5"/>
<text text-anchor="middle" x="94.5" y="-67.5" font-family="Helvetica,sans-Serif" font-size="10.00">../vwidgets/vabstractmainwindow.h</text>
</a>
</g>
</g>
<!-- Node2&#45;&gt;Node7 -->
<g id="edge6_Node000002_Node000007" class="edge">
<title>Node2&#45;&gt;Node7</title>
<g id="a_edge6_Node000002_Node000007"><a xlink:title=" ">
<path fill="none" stroke="#63b8ff" d="M467.86,-128.03C393.57,-116.68 246.19,-94.17 160.49,-81.08"/>
<polygon fill="#63b8ff" stroke="#63b8ff" points="160.77,-77.58 150.36,-79.53 159.71,-84.5 160.77,-77.58"/>
</a>
</g>
</g>
<!-- Node8 -->
<g id="Node000008" class="node">
<title>Node8</title>
<g id="a_Node000008"><a xlink:href="../../d3/d41/me__shortcuts__dialog_8h.html" target="_top" xlink:title=" ">
<polygon fill="white" stroke="#666666" points="718,-85 597,-85 597,-55 718,-55 718,-85"/>
<text text-anchor="start" x="605" y="-73" font-family="Helvetica,sans-Serif" font-size="10.00">dialogs/me_shortcuts</text>
<text text-anchor="middle" x="657.5" y="-62" font-family="Helvetica,sans-Serif" font-size="10.00">_dialog.h</text>
</a>
</g>
</g>
<!-- Node2&#45;&gt;Node8 -->
<g id="edge7_Node000002_Node000008" class="edge">
<title>Node2&#45;&gt;Node8</title>
<g id="a_edge7_Node000002_Node000008"><a xlink:title=" ">
<path fill="none" stroke="#63b8ff" d="M532.92,-126.37C554.21,-116.91 588.98,-101.45 616.39,-89.27"/>
<polygon fill="#63b8ff" stroke="#63b8ff" points="618.02,-92.38 625.74,-85.12 615.18,-85.98 618.02,-92.38"/>
</a>
</g>
</g>
<!-- Node9 -->
<g id="Node000009" class="node">
<title>Node9</title>
<g id="a_Node000009"><a xlink:title=" ">
<polygon fill="#e0e0e0" stroke="#999999" points="874.5,-19 818.5,-19 818.5,0 874.5,0 874.5,-19"/>
<text text-anchor="middle" x="846.5" y="-7" font-family="Helvetica,sans-Serif" font-size="10.00">QDialog</text>
</a>
</g>
</g>
<!-- Node8&#45;&gt;Node9 -->
<g id="edge8_Node000008_Node000009" class="edge">
<title>Node8&#45;&gt;Node9</title>
<g id="a_edge8_Node000008_Node000009"><a xlink:title=" ">
<path fill="none" stroke="#63b8ff" d="M702.77,-54.99C735.25,-44.94 778.49,-31.55 809.03,-22.1"/>
<polygon fill="#63b8ff" stroke="#63b8ff" points="810.35,-25.35 818.87,-19.05 808.28,-18.67 810.35,-25.35"/>
</a>
</g>
</g>
<!-- Node10&#45;&gt;Node4 -->
<g id="edge11_Node000010_Node000004" class="edge">
<title>Node10&#45;&gt;Node4</title>
<g id="a_edge11_Node000010_Node000004"><a xlink:title=" ">
<path fill="none" stroke="#63b8ff" d="M990.58,-126.44C946.58,-114.99 868.53,-94.68 820.09,-82.08"/>
<polygon fill="#63b8ff" stroke="#63b8ff" points="820.79,-78.64 810.23,-79.51 819.02,-85.42 820.79,-78.64"/>
</a>
</g>
</g>
<!-- Node11 -->
<g id="Node000011" class="node">
<title>Node11</title>
<g id="a_Node000011"><a xlink:title=" ">
<polygon fill="#e0e0e0" stroke="#999999" points="1570,-79.5 1409,-79.5 1409,-60.5 1570,-60.5 1570,-79.5"/>
<text text-anchor="middle" x="1489.5" y="-67.5" font-family="Helvetica,sans-Serif" font-size="10.00">../vpatterndb/vtranslatevars.h</text>
</a>
</g>
</g>
<!-- Node10&#45;&gt;Node11 -->
<g id="edge10_Node000010_Node000011" class="edge">
<title>Node10&#45;&gt;Node11</title>
<g id="a_edge10_Node000010_Node000011"><a xlink:title=" ">
<path fill="none" stroke="#63b8ff" d="M1053.32,-126.46C1061.14,-124.44 1069.59,-122.46 1077.5,-121 1219.55,-94.81 1257.34,-104.23 1400.5,-85 1409.29,-83.82 1418.54,-82.48 1427.63,-81.1"/>
<polygon fill="#63b8ff" stroke="#63b8ff" points="1428.44,-84.52 1437.79,-79.54 1427.37,-77.6 1428.44,-84.52"/>
</a>
</g>
</g>
<!-- Node10&#45;&gt;Node12 -->
<g id="edge12_Node000010_Node000012" class="edge">
<title>Node10&#45;&gt;Node12</title>
<g id="a_edge12_Node000010_Node000012"><a xlink:title=" ">
<path fill="none" stroke="#63b8ff" d="M1014.46,-126.37C1003.93,-116.31 986.31,-99.48 973.26,-87.01"/>
<polygon fill="#63b8ff" stroke="#63b8ff" points="975.47,-84.28 965.82,-79.91 970.64,-89.34 975.47,-84.28"/>
</a>
</g>
</g>
<!-- Node13 -->
<g id="Node000013" class="node">
<title>Node13</title>
<g id="a_Node000013"><a xlink:title=" ">
<polygon fill="#e0e0e0" stroke="#999999" points="1391,-79.5 1224,-79.5 1224,-60.5 1391,-60.5 1391,-79.5"/>
<text text-anchor="middle" x="1307.5" y="-67.5" font-family="Helvetica,sans-Serif" font-size="10.00">../vmisc/vabstractapplication.h</text>
</a>
</g>
</g>
<!-- Node10&#45;&gt;Node13 -->
<g id="edge13_Node000010_Node000013" class="edge">
<title>Node10&#45;&gt;Node13</title>
<g id="a_edge13_Node000010_Node000013"><a xlink:title=" ">
<path fill="none" stroke="#63b8ff" d="M1055.43,-126.5C1062.67,-124.63 1070.34,-122.71 1077.5,-121 1138.61,-106.44 1209.26,-91.34 1255.96,-81.6"/>
<polygon fill="#63b8ff" stroke="#63b8ff" points="1256.76,-85 1265.84,-79.54 1255.33,-78.15 1256.76,-85"/>
</a>
</g>
</g>
<!-- Node14 -->
<g id="Node000014" class="node">
<title>Node14</title>
<g id="a_Node000014"><a xlink:href="../../d0/d0b/dialogmdatabase_8h.html" target="_top" xlink:title=" ">
<polygon fill="white" stroke="#666666" points="1206,-79.5 1057,-79.5 1057,-60.5 1206,-60.5 1206,-79.5"/>
<text text-anchor="middle" x="1131.5" y="-67.5" font-family="Helvetica,sans-Serif" font-size="10.00">dialogs/dialogmdatabase.h</text>
</a>
</g>
</g>
<!-- Node10&#45;&gt;Node14 -->
<g id="edge14_Node000010_Node000014" class="edge">
<title>Node10&#45;&gt;Node14</title>
<g id="a_edge14_Node000010_Node000014"><a xlink:title=" ">
<path fill="none" stroke="#63b8ff" d="M1038.07,-126.37C1056.02,-115.73 1086.77,-97.51 1108.06,-84.89"/>
<polygon fill="#63b8ff" stroke="#63b8ff" points="1110,-87.81 1116.82,-79.7 1106.43,-81.79 1110,-87.81"/>
</a>
</g>
</g>
<!-- Node14&#45;&gt;Node9 -->
<g id="edge15_Node000014_Node000009" class="edge">
<title>Node14&#45;&gt;Node9</title>
<g id="a_edge15_Node000014_Node000009"><a xlink:title=" ">
<path fill="none" stroke="#63b8ff" d="M1090.06,-60.49C1034.91,-49.17 938.17,-29.32 884.71,-18.34"/>
<polygon fill="#63b8ff" stroke="#63b8ff" points="885.12,-14.85 874.62,-16.27 883.71,-21.71 885.12,-14.85"/>
</a>
</g>
</g>
<!-- Node15&#45;&gt;Node4 -->
<g id="edge18_Node000015_Node000004" class="edge">
<title>Node15&#45;&gt;Node4</title>
<g id="a_edge18_Node000015_Node000004"><a xlink:title=" ">
<path fill="none" stroke="#63b8ff" d="M835.08,-120.8C823.31,-110.62 807.48,-96.93 795.4,-86.48"/>
<polygon fill="#63b8ff" stroke="#63b8ff" points="797.58,-83.74 787.73,-79.84 793,-89.03 797.58,-83.74"/>
</a>
</g>
</g>
<!-- Node15&#45;&gt;Node9 -->
<g id="edge17_Node000015_Node000009" class="edge">
<title>Node15&#45;&gt;Node9</title>
<g id="a_edge17_Node000015_Node000009"><a xlink:title=" ">
<path fill="none" stroke="#63b8ff" d="M850.93,-120.72C850.02,-98.12 848.25,-54.12 847.25,-29.09"/>
<polygon fill="#63b8ff" stroke="#63b8ff" points="850.74,-28.92 846.84,-19.07 843.75,-29.2 850.74,-28.92"/>
</a>
</g>
</g>
<!-- Node15&#45;&gt;Node12 -->
<g id="edge19_Node000015_Node000012" class="edge">
<title>Node15&#45;&gt;Node12</title>
<g id="a_edge19_Node000015_Node000012"><a xlink:title=" ">
<path fill="none" stroke="#63b8ff" d="M874.54,-120.95C892.06,-110.27 916.06,-95.65 933.56,-84.98"/>
<polygon fill="#63b8ff" stroke="#63b8ff" points="935.81,-87.71 942.53,-79.52 932.17,-81.73 935.81,-87.71"/>
</a>
</g>
</g>
</g>
</svg>

<g id="navigator" transform="translate(0 0)" fill="#404254">
  <rect fill="#f2f5e9" fill-opacity="0.5" stroke="#606060" stroke-width=".5" x="0" y="0" width="60" height="60"/>
  <use id="zoomplus" xlink:href="#zoomPlus" x="17" y="9" onmousedown="handleZoom(evt,'in')"/>
  <use id="zoomminus" xlink:href="#zoomMin" x="42" y="9" onmousedown="handleZoom(evt,'out')"/>
  <use id="reset" xlink:href="#resetDef" x="30" y="36" onmousedown="handleReset()"/>
   <use id="arrowup" xlink:href="#arrowUp" x="0" y="0" onmousedown="handlePan(0,-1)"/>
  <use id="arrowright" xlink:href="#arrowRight" x="0" y="0" onmousedown="handlePan(1,0)"/>
  <use id="arrowdown" xlink:href="#arrowDown" x="0" y="0" onmousedown="handlePan(0,1)"/>
  <use id="arrowleft" xlink:href="#arrowLeft" x="0" y="0" onmousedown="handlePan(-1,0)"/>
</g>
<svg viewBox="0 0 15 15" width="100%" height="30px" preserveAspectRatio="xMaxYMin meet">
 <g id="arrow_out" transform="scale(0.3 0.3)">
  <a xlink:href="app_2seamlyme_2main_8cpp__incl_org.svg" target="_base">
   <rect id="button" ry="5" rx="5" y="6" x="6" height="38" width="38"
        fill="#f2f5e9" fill-opacity="0.5" stroke="#606060" stroke-width="1.0"/>
   <path id="arrow"
     d="M 11.500037,31.436501 C 11.940474,20.09759 22.043105,11.32322 32.158766,21.979434 L 37.068811,17.246167 C 37.068811,17.246167 37.088388,32 37.088388,32 L 22.160133,31.978069 C 22.160133,31.978069 26.997745,27.140456 26.997745,27.140456 C 18.528582,18.264221 13.291696,25.230495 11.500037,31.436501 z"
     style="fill:#404040;"/>
  </a>
 </g>
</svg>

<style type='text/css'>
<![CDATA[
[data-mouse-over-selected='false'] { opacity: 0.7; }
[data-mouse-over-selected='true']  { opacity: 1.0; }
]]>
</style>
<script type="application/ecmascript"><![CDATA[
document.addEventListener('DOMContentLoaded', (event) => {
  highlightEdges();
  highlightAdjacentNodes();
});
]]></script>
</svg>
