<?xml version="1.0" encoding="UTF-8" standalone="no"?>
<!DOCTYPE svg PUBLIC "-//W3C//DTD SVG 1.1//EN"
 "http://www.w3.org/Graphics/SVG/1.1/DTD/svg11.dtd">
<!-- Generated by graphviz version 2.43.0 (0)
 -->
<!-- Title: src/libs/ifc/xml/individual_size_converter.cpp Pages: 1 -->
<svg width="2298pt" height="368pt"
 viewBox="0.00 0.00 2298.00 368.00" xmlns="http://www.w3.org/2000/svg" xmlns:xlink="http://www.w3.org/1999/xlink">
<g id="graph0" class="graph" transform="scale(1 1) rotate(0) translate(4 364)">
<title>src/libs/ifc/xml/individual_size_converter.cpp</title>
<!-- Node1 -->
<g id="Node000001" class="node">
<title>Node1</title>
<g id="a_Node000001"><a xlink:title=" ">
<polygon fill="#999999" stroke="#666666" points="1005,-360 866,-360 866,-330 1005,-330 1005,-360"/>
<text text-anchor="start" x="874" y="-348" font-family="Helvetica,sans-Serif" font-size="10.00">src/libs/ifc/xml/individual</text>
<text text-anchor="middle" x="935.5" y="-337" font-family="Helvetica,sans-Serif" font-size="10.00">_size_converter.cpp</text>
</a>
</g>
</g>
<!-- Node2 -->
<g id="Node000002" class="node">
<title>Node2</title>
<g id="a_Node000002"><a xlink:href="../../d0/d93/individual__size__converter_8h.html" target="_top" xlink:title=" ">
<polygon fill="white" stroke="#666666" points="1150,-294 1001,-294 1001,-275 1150,-275 1150,-294"/>
<text text-anchor="middle" x="1075.5" y="-282" font-family="Helvetica,sans-Serif" font-size="10.00">individual_size_converter.h</text>
</a>
</g>
</g>
<!-- Node1&#45;&gt;Node2 -->
<g id="edge1_Node000001_Node000002" class="edge">
<title>Node1&#45;&gt;Node2</title>
<g id="a_edge1_Node000001_Node000002"><a xlink:title=" ">
<path fill="none" stroke="#63b8ff" d="M969.03,-329.99C992.29,-320.27 1022.99,-307.44 1045.45,-298.06"/>
<polygon fill="#63b8ff" stroke="#63b8ff" points="1046.95,-301.22 1054.82,-294.14 1044.25,-294.77 1046.95,-301.22"/>
</a>
</g>
</g>
<!-- Node7 -->
<g id="Node000007" class="node">
<title>Node7</title>
<g id="a_Node000007"><a xlink:href="../../da/d2c/abstract__m__converter_8h.html" target="_top" xlink:title=" ">
<polygon fill="white" stroke="#666666" points="1218,-239 1087,-239 1087,-220 1218,-220 1218,-239"/>
<text text-anchor="middle" x="1152.5" y="-227" font-family="Helvetica,sans-Serif" font-size="10.00">abstract_m_converter.h</text>
</a>
</g>
</g>
<!-- Node1&#45;&gt;Node7 -->
<g id="edge71_Node000001_Node000007" class="edge">
<title>Node1&#45;&gt;Node7</title>
<g id="a_edge71_Node000001_Node000007"><a xlink:title=" ">
<path fill="none" stroke="#63b8ff" d="M943.49,-329.9C953.11,-314.19 970.74,-289.13 992.5,-275 1018.24,-258.29 1050.24,-247.78 1078.84,-241.21"/>
<polygon fill="#63b8ff" stroke="#63b8ff" points="1079.77,-244.59 1088.8,-239.04 1078.29,-237.75 1079.77,-244.59"/>
</a>
</g>
</g>
<!-- Node8 -->
<g id="Node000008" class="node">
<title>Node8</title>
<g id="a_Node000008"><a xlink:title=" ">
<polygon fill="#e0e0e0" stroke="#999999" points="971,-184 926,-184 926,-165 971,-165 971,-184"/>
<text text-anchor="middle" x="948.5" y="-172" font-family="Helvetica,sans-Serif" font-size="10.00">QMap</text>
</a>
</g>
</g>
<!-- Node1&#45;&gt;Node8 -->
<g id="edge42_Node000001_Node000008" class="edge">
<title>Node1&#45;&gt;Node8</title>
<g id="a_edge42_Node000001_Node000008"><a xlink:title=" ">
<path fill="none" stroke="#63b8ff" d="M930.5,-329.96C922.96,-306.68 910.65,-258.81 921.5,-220 924.26,-210.12 929.89,-200.25 935.29,-192.32"/>
<polygon fill="#63b8ff" stroke="#63b8ff" points="938.28,-194.17 941.35,-184.03 932.63,-190.04 938.28,-194.17"/>
</a>
</g>
</g>
<!-- Node9 -->
<g id="Node000009" class="node">
<title>Node9</title>
<g id="a_Node000009"><a xlink:title=" ">
<polygon fill="#e0e0e0" stroke="#999999" points="1059.5,-184 989.5,-184 989.5,-165 1059.5,-165 1059.5,-184"/>
<text text-anchor="middle" x="1024.5" y="-172" font-family="Helvetica,sans-Serif" font-size="10.00">QMultiMap</text>
</a>
</g>
</g>
<!-- Node1&#45;&gt;Node9 -->
<g id="edge43_Node000001_Node000009" class="edge">
<title>Node1&#45;&gt;Node9</title>
<g id="a_edge43_Node000001_Node000009"><a xlink:title=" ">
<path fill="none" stroke="#63b8ff" d="M941.65,-329.82C947.85,-315.75 957.86,-293.65 967.5,-275 982.68,-245.65 1002.13,-212.54 1013.94,-192.88"/>
<polygon fill="#63b8ff" stroke="#63b8ff" points="1017.04,-194.51 1019.21,-184.14 1011.05,-190.9 1017.04,-194.51"/>
</a>
</g>
</g>
<!-- Node15 -->
<g id="Node000015" class="node">
<title>Node15</title>
<g id="a_Node000015"><a xlink:title=" ">
<polygon fill="#e0e0e0" stroke="#999999" points="73,-74 0,-74 0,-55 73,-55 73,-74"/>
<text text-anchor="middle" x="36.5" y="-62" font-family="Helvetica,sans-Serif" font-size="10.00">QDomNode</text>
</a>
</g>
</g>
<!-- Node1&#45;&gt;Node15 -->
<g id="edge36_Node000001_Node000015" class="edge">
<title>Node1&#45;&gt;Node15</title>
<g id="a_edge36_Node000001_Node000015"><a xlink:title=" ">
<path fill="none" stroke="#63b8ff" d="M865.66,-342.41C655.85,-336.72 45.5,-313.06 45.5,-230.5 45.5,-230.5 45.5,-230.5 45.5,-173.5 45.5,-142.08 41.67,-105.7 39.01,-84.2"/>
<polygon fill="#63b8ff" stroke="#63b8ff" points="42.46,-83.63 37.71,-74.16 35.52,-84.52 42.46,-83.63"/>
</a>
</g>
</g>
<!-- Node17 -->
<g id="Node000017" class="node">
<title>Node17</title>
<g id="a_Node000017"><a xlink:title=" ">
<polygon fill="#e0e0e0" stroke="#999999" points="174,-74 91,-74 91,-55 174,-55 174,-74"/>
<text text-anchor="middle" x="132.5" y="-62" font-family="Helvetica,sans-Serif" font-size="10.00">QLatin1String</text>
</a>
</g>
</g>
<!-- Node1&#45;&gt;Node17 -->
<g id="edge40_Node000001_Node000017" class="edge">
<title>Node1&#45;&gt;Node17</title>
<g id="a_edge40_Node000001_Node000017"><a xlink:title=" ">
<path fill="none" stroke="#63b8ff" d="M865.96,-337.97C708.75,-323.41 339.5,-283.56 339.5,-230.5 339.5,-230.5 339.5,-230.5 339.5,-173.5 339.5,-136.04 231.62,-96.38 171.62,-77.22"/>
<polygon fill="#63b8ff" stroke="#63b8ff" points="172.31,-73.77 161.72,-74.11 170.21,-80.45 172.31,-73.77"/>
</a>
</g>
</g>
<!-- Node18 -->
<g id="Node000018" class="node">
<title>Node18</title>
<g id="a_Node000018"><a xlink:title=" ">
<polygon fill="#e0e0e0" stroke="#999999" points="296.5,-74 192.5,-74 192.5,-55 296.5,-55 296.5,-74"/>
<text text-anchor="middle" x="244.5" y="-62" font-family="Helvetica,sans-Serif" font-size="10.00">QStaticStringData</text>
</a>
</g>
</g>
<!-- Node1&#45;&gt;Node18 -->
<g id="edge44_Node000001_Node000018" class="edge">
<title>Node1&#45;&gt;Node18</title>
<g id="a_edge44_Node000001_Node000018"><a xlink:title=" ">
<path fill="none" stroke="#63b8ff" d="M865.94,-339.99C744.24,-331.05 505.5,-304.14 505.5,-230.5 505.5,-230.5 505.5,-230.5 505.5,-173.5 505.5,-128.92 373.82,-93.18 297.52,-76.22"/>
<polygon fill="#63b8ff" stroke="#63b8ff" points="298.12,-72.76 287.6,-74.04 296.62,-79.6 298.12,-72.76"/>
</a>
</g>
</g>
<!-- Node19 -->
<g id="Node000019" class="node">
<title>Node19</title>
<g id="a_Node000019"><a xlink:title=" ">
<polygon fill="#e0e0e0" stroke="#999999" points="390.5,-74 314.5,-74 314.5,-55 390.5,-55 390.5,-74"/>
<text text-anchor="middle" x="352.5" y="-62" font-family="Helvetica,sans-Serif" font-size="10.00">QStringData</text>
</a>
</g>
</g>
<!-- Node1&#45;&gt;Node19 -->
<g id="edge45_Node000001_Node000019" class="edge">
<title>Node1&#45;&gt;Node19</title>
<g id="a_edge45_Node000001_Node000019"><a xlink:title=" ">
<path fill="none" stroke="#63b8ff" d="M865.66,-337.31C756.92,-324.93 559.5,-293.74 559.5,-230.5 559.5,-230.5 559.5,-230.5 559.5,-173.5 559.5,-140.15 546.36,-129.77 519.5,-110 500.65,-96.13 442.77,-82.64 400.42,-74.22"/>
<polygon fill="#63b8ff" stroke="#63b8ff" points="401.04,-70.77 390.56,-72.29 399.7,-77.64 401.04,-70.77"/>
</a>
</g>
</g>
<!-- Node20 -->
<g id="Node000020" class="node">
<title>Node20</title>
<g id="a_Node000020"><a xlink:title=" ">
<polygon fill="#e0e0e0" stroke="#999999" points="498,-74 409,-74 409,-55 498,-55 498,-74"/>
<text text-anchor="middle" x="453.5" y="-62" font-family="Helvetica,sans-Serif" font-size="10.00">QStringDataPtr</text>
</a>
</g>
</g>
<!-- Node1&#45;&gt;Node20 -->
<g id="edge46_Node000001_Node000020" class="edge">
<title>Node1&#45;&gt;Node20</title>
<g id="a_edge46_Node000001_Node000020"><a xlink:title=" ">
<path fill="none" stroke="#63b8ff" d="M865.65,-343.93C784.47,-339.73 661.5,-318.8 661.5,-230.5 661.5,-230.5 661.5,-230.5 661.5,-173.5 661.5,-135.82 552.65,-96.14 492.44,-77.07"/>
<polygon fill="#63b8ff" stroke="#63b8ff" points="493.45,-73.72 482.86,-74.08 491.36,-80.4 493.45,-73.72"/>
</a>
</g>
</g>
<!-- Node23 -->
<g id="Node000023" class="node">
<title>Node23</title>
<g id="a_Node000023"><a xlink:title=" ">
<polygon fill="#e0e0e0" stroke="#999999" points="598.5,-74 516.5,-74 516.5,-55 598.5,-55 598.5,-74"/>
<text text-anchor="middle" x="557.5" y="-62" font-family="Helvetica,sans-Serif" font-size="10.00">../vmisc/def.h</text>
</a>
</g>
</g>
<!-- Node1&#45;&gt;Node23 -->
<g id="edge70_Node000001_Node000023" class="edge">
<title>Node1&#45;&gt;Node23</title>
<g id="a_edge70_Node000001_Node000023"><a xlink:title=" ">
<path fill="none" stroke="#63b8ff" d="M865.85,-338.3C798.8,-328.56 707.5,-302.13 707.5,-230.5 707.5,-230.5 707.5,-230.5 707.5,-173.5 707.5,-141.9 699,-131.13 675.5,-110 656.78,-93.17 631.07,-82.48 608.43,-75.81"/>
<polygon fill="#63b8ff" stroke="#63b8ff" points="609.18,-72.39 598.61,-73.11 607.32,-79.14 609.18,-72.39"/>
</a>
</g>
</g>
<!-- Node26 -->
<g id="Node000026" class="node">
<title>Node26</title>
<g id="a_Node000026"><a xlink:title=" ">
<polygon fill="#e0e0e0" stroke="#999999" points="1258.5,-294 1168.5,-294 1168.5,-275 1258.5,-275 1258.5,-294"/>
<text text-anchor="middle" x="1213.5" y="-282" font-family="Helvetica,sans-Serif" font-size="10.00">QDomNodeList</text>
</a>
</g>
</g>
<!-- Node1&#45;&gt;Node26 -->
<g id="edge37_Node000001_Node000026" class="edge">
<title>Node1&#45;&gt;Node26</title>
<g id="a_edge37_Node000001_Node000026"><a xlink:title=" ">
<path fill="none" stroke="#63b8ff" d="M1002.09,-329.99C1051.52,-319.59 1117.9,-305.62 1163,-296.13"/>
<polygon fill="#63b8ff" stroke="#63b8ff" points="1163.79,-299.54 1172.85,-294.05 1162.35,-292.69 1163.79,-299.54"/>
</a>
</g>
</g>
<!-- Node27 -->
<g id="Node000027" class="node">
<title>Node27</title>
<g id="a_Node000027"><a xlink:title=" ">
<polygon fill="#e0e0e0" stroke="#999999" points="1344.5,-294 1276.5,-294 1276.5,-275 1344.5,-275 1344.5,-294"/>
<text text-anchor="middle" x="1310.5" y="-282" font-family="Helvetica,sans-Serif" font-size="10.00">QDomText</text>
</a>
</g>
</g>
<!-- Node1&#45;&gt;Node27 -->
<g id="edge38_Node000001_Node000027" class="edge">
<title>Node1&#45;&gt;Node27</title>
<g id="a_edge38_Node000001_Node000027"><a xlink:title=" ">
<path fill="none" stroke="#63b8ff" d="M1005.28,-334.44C1070.33,-325.3 1170.29,-310.72 1266.37,-294.13"/>
<polygon fill="#63b8ff" stroke="#63b8ff" points="1267.01,-297.57 1276.26,-292.42 1265.81,-290.68 1267.01,-297.57"/>
</a>
</g>
</g>
<!-- Node28 -->
<g id="Node000028" class="node">
<title>Node28</title>
<g id="a_Node000028"><a xlink:title=" ">
<polygon fill="#e0e0e0" stroke="#999999" points="1404,-294 1363,-294 1363,-275 1404,-275 1404,-294"/>
<text text-anchor="middle" x="1383.5" y="-282" font-family="Helvetica,sans-Serif" font-size="10.00">QFile</text>
</a>
</g>
</g>
<!-- Node1&#45;&gt;Node28 -->
<g id="edge39_Node000001_Node000028" class="edge">
<title>Node1&#45;&gt;Node28</title>
<g id="a_edge39_Node000001_Node000028"><a xlink:title=" ">
<path fill="none" stroke="#63b8ff" d="M1005.18,-339.03C1086.47,-332.48 1224.95,-318.99 1352.96,-293.78"/>
<polygon fill="#63b8ff" stroke="#63b8ff" points="1353.83,-297.17 1362.95,-291.78 1352.46,-290.31 1353.83,-297.17"/>
</a>
</g>
</g>
<!-- Node29 -->
<g id="Node000029" class="node">
<title>Node29</title>
<g id="a_Node000029"><a xlink:title=" ">
<polygon fill="#e0e0e0" stroke="#999999" points="1463,-294 1422,-294 1422,-275 1463,-275 1463,-294"/>
<text text-anchor="middle" x="1442.5" y="-282" font-family="Helvetica,sans-Serif" font-size="10.00">QList</text>
</a>
</g>
</g>
<!-- Node1&#45;&gt;Node29 -->
<g id="edge41_Node000001_Node000029" class="edge">
<title>Node1&#45;&gt;Node29</title>
<g id="a_edge41_Node000001_Node000029"><a xlink:title=" ">
<path fill="none" stroke="#63b8ff" d="M1005.35,-340.66C1096.88,-335.4 1262.39,-322.87 1411.45,-294.09"/>
<polygon fill="#63b8ff" stroke="#63b8ff" points="1412.56,-297.44 1421.7,-292.08 1411.22,-290.57 1412.56,-297.44"/>
</a>
</g>
</g>
<!-- Node30 -->
<g id="Node000030" class="node">
<title>Node30</title>
<g id="a_Node000030"><a xlink:href="../../d1/d44/vexception_8h.html" target="_top" xlink:title=" ">
<polygon fill="white" stroke="#666666" points="1624.5,-239 1484.5,-239 1484.5,-220 1624.5,-220 1624.5,-239"/>
<text text-anchor="middle" x="1554.5" y="-227" font-family="Helvetica,sans-Serif" font-size="10.00">../exception/vexception.h</text>
</a>
</g>
</g>
<!-- Node1&#45;&gt;Node30 -->
<g id="edge47_Node000001_Node000030" class="edge">
<title>Node1&#45;&gt;Node30</title>
<g id="a_edge47_Node000001_Node000030"><a xlink:title=" ">
<path fill="none" stroke="#63b8ff" d="M1005.2,-342.33C1130.66,-338.53 1389.22,-326.87 1472.5,-294 1499.03,-283.53 1524.12,-261.71 1539.4,-246.59"/>
<polygon fill="#63b8ff" stroke="#63b8ff" points="1541.95,-248.98 1546.45,-239.39 1536.95,-244.09 1541.95,-248.98"/>
</a>
</g>
</g>
<!-- Node3 -->
<g id="Node000003" class="node">
<title>Node3</title>
<g id="a_Node000003"><a xlink:title=" ">
<polygon fill="#e0e0e0" stroke="#999999" points="1749.5,-74 1629.5,-74 1629.5,-55 1749.5,-55 1749.5,-74"/>
<text text-anchor="middle" x="1689.5" y="-62" font-family="Helvetica,sans-Serif" font-size="10.00">qcompilerdetection.h</text>
</a>
</g>
</g>
<!-- Node2&#45;&gt;Node3 -->
<g id="edge2_Node000002_Node000003" class="edge">
<title>Node2&#45;&gt;Node3</title>
<g id="a_edge2_Node000002_Node000003"><a xlink:title=" ">
<path fill="none" stroke="#63b8ff" d="M1150.15,-275.85C1153.31,-275.56 1156.43,-275.27 1159.5,-275 1306.98,-261.94 1730.89,-302.61 1819.5,-184 1853.02,-139.14 1771.82,-97.75 1723.05,-77.87"/>
<polygon fill="#63b8ff" stroke="#63b8ff" points="1724.07,-74.51 1713.48,-74.07 1721.48,-81.02 1724.07,-74.51"/>
</a>
</g>
</g>
<!-- Node4 -->
<g id="Node000004" class="node">
<title>Node4</title>
<g id="a_Node000004"><a xlink:title=" ">
<polygon fill="#e0e0e0" stroke="#999999" points="1433,-74 1332,-74 1332,-55 1433,-55 1433,-74"/>
<text text-anchor="middle" x="1382.5" y="-62" font-family="Helvetica,sans-Serif" font-size="10.00">QCoreApplication</text>
</a>
</g>
</g>
<!-- Node2&#45;&gt;Node4 -->
<g id="edge3_Node000002_Node000004" class="edge">
<title>Node2&#45;&gt;Node4</title>
<g id="a_edge3_Node000002_Node000004"><a xlink:title=" ">
<path fill="none" stroke="#63b8ff" d="M1041.06,-274.9C985.89,-259.24 886.79,-222.31 916.5,-165 936.02,-127.34 954.82,-125.01 994.5,-110 1128.99,-59.13 1175.48,-90.98 1321.74,-74.13"/>
<polygon fill="#63b8ff" stroke="#63b8ff" points="1322.48,-77.57 1331.98,-72.89 1321.64,-70.62 1322.48,-77.57"/>
</a>
</g>
</g>
<!-- Node5 -->
<g id="Node000005" class="node">
<title>Node5</title>
<g id="a_Node000005"><a xlink:title=" ">
<polygon fill="#e0e0e0" stroke="#999999" points="1504,-74 1451,-74 1451,-55 1504,-55 1504,-74"/>
<text text-anchor="middle" x="1477.5" y="-62" font-family="Helvetica,sans-Serif" font-size="10.00">QString</text>
</a>
</g>
</g>
<!-- Node2&#45;&gt;Node5 -->
<g id="edge4_Node000002_Node000005" class="edge">
<title>Node2&#45;&gt;Node5</title>
<g id="a_edge4_Node000002_Node000005"><a xlink:title=" ">
<path fill="none" stroke="#63b8ff" d="M1121.52,-274.98C1152.63,-268.05 1193.99,-256.51 1227.5,-239 1308.45,-196.68 1310.54,-159.21 1387.5,-110 1406.71,-97.72 1429.78,-86.37 1447.75,-78.21"/>
<polygon fill="#63b8ff" stroke="#63b8ff" points="1449.45,-81.29 1457.16,-74.02 1446.6,-74.89 1449.45,-81.29"/>
</a>
</g>
</g>
<!-- Node6 -->
<g id="Node000006" class="node">
<title>Node6</title>
<g id="a_Node000006"><a xlink:title=" ">
<polygon fill="#e0e0e0" stroke="#999999" points="1581,-74 1522,-74 1522,-55 1581,-55 1581,-74"/>
<text text-anchor="middle" x="1551.5" y="-62" font-family="Helvetica,sans-Serif" font-size="10.00">QtGlobal</text>
</a>
</g>
</g>
<!-- Node2&#45;&gt;Node6 -->
<g id="edge5_Node000002_Node000006" class="edge">
<title>Node2&#45;&gt;Node6</title>
<g id="a_edge5_Node000002_Node000006"><a xlink:title=" ">
<path fill="none" stroke="#63b8ff" d="M1127.07,-274.96C1163.98,-267.86 1214.39,-256.13 1256.5,-239 1366.92,-194.08 1485.45,-113.01 1531.56,-80.04"/>
<polygon fill="#63b8ff" stroke="#63b8ff" points="1533.72,-82.79 1539.79,-74.11 1529.63,-77.11 1533.72,-82.79"/>
</a>
</g>
</g>
<!-- Node2&#45;&gt;Node7 -->
<g id="edge6_Node000002_Node000007" class="edge">
<title>Node2&#45;&gt;Node7</title>
<g id="a_edge6_Node000002_Node000007"><a xlink:title=" ">
<path fill="none" stroke="#63b8ff" d="M1087.87,-274.98C1099.59,-266.92 1117.42,-254.65 1131.39,-245.03"/>
<polygon fill="#63b8ff" stroke="#63b8ff" points="1133.65,-247.72 1139.9,-239.17 1129.68,-241.96 1133.65,-247.72"/>
</a>
</g>
</g>
<!-- Node10 -->
<g id="Node000010" class="node">
<title>Node10</title>
<g id="a_Node000010"><a xlink:href="../../d0/da1/abstract__converter_8h.html" target="_top" xlink:title=" ">
<polygon fill="white" stroke="#666666" points="1193.5,-184 1077.5,-184 1077.5,-165 1193.5,-165 1193.5,-184"/>
<text text-anchor="middle" x="1135.5" y="-172" font-family="Helvetica,sans-Serif" font-size="10.00">abstract_converter.h</text>
</a>
</g>
</g>
<!-- Node2&#45;&gt;Node10 -->
<g id="edge35_Node000002_Node000010" class="edge">
<title>Node2&#45;&gt;Node10</title>
<g id="a_edge35_Node000002_Node000010"><a xlink:title=" ">
<path fill="none" stroke="#63b8ff" d="M1073.72,-274.7C1071.6,-261.87 1069.37,-237.64 1078.5,-220 1085.15,-207.16 1097.36,-196.86 1108.77,-189.42"/>
<polygon fill="#63b8ff" stroke="#63b8ff" points="1110.88,-192.23 1117.64,-184.07 1107.27,-186.24 1110.88,-192.23"/>
</a>
</g>
</g>
<!-- Node7&#45;&gt;Node3 -->
<g id="edge7_Node000007_Node000003" class="edge">
<title>Node7&#45;&gt;Node3</title>
<g id="a_edge7_Node000007_Node000003"><a xlink:title=" ">
<path fill="none" stroke="#63b8ff" d="M1218.02,-225.57C1338.82,-219.7 1587.37,-205.2 1620.5,-184 1656.81,-160.77 1676.27,-111.13 1684.56,-84.05"/>
<polygon fill="#63b8ff" stroke="#63b8ff" points="1687.97,-84.85 1687.36,-74.27 1681.24,-82.92 1687.97,-84.85"/>
</a>
</g>
</g>
<!-- Node7&#45;&gt;Node5 -->
<g id="edge10_Node000007_Node000005" class="edge">
<title>Node7&#45;&gt;Node5</title>
<g id="a_edge10_Node000007_Node000005"><a xlink:title=" ">
<path fill="none" stroke="#63b8ff" d="M1162.67,-219.86C1172.93,-211.06 1189.11,-196.9 1202.5,-184 1235.33,-152.38 1233.68,-132.17 1273.5,-110 1337.85,-74.18 1365.34,-89.65 1440.81,-74.23"/>
<polygon fill="#63b8ff" stroke="#63b8ff" points="1441.73,-77.61 1450.77,-72.08 1440.25,-70.77 1441.73,-77.61"/>
</a>
</g>
</g>
<!-- Node7&#45;&gt;Node6 -->
<g id="edge11_Node000007_Node000006" class="edge">
<title>Node7&#45;&gt;Node6</title>
<g id="a_edge11_Node000007_Node000006"><a xlink:title=" ">
<path fill="none" stroke="#63b8ff" d="M1166.88,-219.95C1202.91,-198.8 1300.46,-143.36 1387.5,-110 1410.1,-101.34 1471.11,-85.5 1512,-75.24"/>
<polygon fill="#63b8ff" stroke="#63b8ff" points="1513.08,-78.58 1521.93,-72.76 1511.38,-71.79 1513.08,-78.58"/>
</a>
</g>
</g>
<!-- Node7&#45;&gt;Node8 -->
<g id="edge8_Node000007_Node000008" class="edge">
<title>Node7&#45;&gt;Node8</title>
<g id="a_edge8_Node000007_Node000008"><a xlink:title=" ">
<path fill="none" stroke="#63b8ff" d="M1119.19,-219.95C1086.49,-211.54 1034.94,-198.25 980.97,-184.11"/>
<polygon fill="#63b8ff" stroke="#63b8ff" points="981.78,-180.7 971.22,-181.55 980.01,-187.48 981.78,-180.7"/>
</a>
</g>
</g>
<!-- Node7&#45;&gt;Node9 -->
<g id="edge9_Node000007_Node000009" class="edge">
<title>Node7&#45;&gt;Node9</title>
<g id="a_edge9_Node000007_Node000009"><a xlink:title=" ">
<path fill="none" stroke="#63b8ff" d="M1131.93,-219.98C1111.07,-211.34 1078.53,-197.87 1054.73,-188.02"/>
<polygon fill="#63b8ff" stroke="#63b8ff" points="1056.02,-184.76 1045.44,-184.17 1053.34,-191.23 1056.02,-184.76"/>
</a>
</g>
</g>
<!-- Node7&#45;&gt;Node10 -->
<g id="edge12_Node000007_Node000010" class="edge">
<title>Node7&#45;&gt;Node10</title>
<g id="a_edge12_Node000007_Node000010"><a xlink:title=" ">
<path fill="none" stroke="#63b8ff" d="M1149.69,-219.75C1147.44,-212.72 1144.2,-202.62 1141.38,-193.84"/>
<polygon fill="#63b8ff" stroke="#63b8ff" points="1144.64,-192.54 1138.25,-184.09 1137.98,-194.68 1144.64,-192.54"/>
</a>
</g>
</g>
<!-- Node10&#45;&gt;Node3 -->
<g id="edge13_Node000010_Node000003" class="edge">
<title>Node10&#45;&gt;Node3</title>
<g id="a_edge13_Node000010_Node000003"><a xlink:title=" ">
<path fill="none" stroke="#63b8ff" d="M1179.43,-164.94C1279.95,-145.34 1526.38,-97.3 1635.73,-75.98"/>
<polygon fill="#63b8ff" stroke="#63b8ff" points="1636.42,-79.41 1645.56,-74.07 1635.08,-72.54 1636.42,-79.41"/>
</a>
</g>
</g>
<!-- Node10&#45;&gt;Node4 -->
<g id="edge14_Node000010_Node000004" class="edge">
<title>Node10&#45;&gt;Node4</title>
<g id="a_edge14_Node000010_Node000004"><a xlink:title=" ">
<path fill="none" stroke="#63b8ff" d="M1077.31,-164.94C1031.67,-155.86 979.82,-138.76 1005.5,-110 1050.98,-59.08 1237.19,-81.11 1321.93,-73.94"/>
<polygon fill="#63b8ff" stroke="#63b8ff" points="1322.4,-77.41 1331.98,-72.88 1321.67,-70.45 1322.4,-77.41"/>
</a>
</g>
</g>
<!-- Node10&#45;&gt;Node5 -->
<g id="edge15_Node000010_Node000005" class="edge">
<title>Node10&#45;&gt;Node5</title>
<g id="a_edge15_Node000010_Node000005"><a xlink:title=" ">
<path fill="none" stroke="#63b8ff" d="M1136.04,-164.9C1137.42,-150.95 1142.29,-123.58 1159.5,-110 1207.03,-72.5 1365.05,-84.28 1440.7,-73.92"/>
<polygon fill="#63b8ff" stroke="#63b8ff" points="1441.49,-77.34 1450.81,-72.31 1440.39,-70.43 1441.49,-77.34"/>
</a>
</g>
</g>
<!-- Node10&#45;&gt;Node6 -->
<g id="edge17_Node000010_Node000006" class="edge">
<title>Node10&#45;&gt;Node6</title>
<g id="a_edge17_Node000010_Node000006"><a xlink:title=" ">
<path fill="none" stroke="#63b8ff" d="M1155.73,-164.92C1188.1,-151.49 1253.76,-125.44 1311.5,-110 1396.5,-87.27 1422.29,-91.61 1511.63,-74.29"/>
<polygon fill="#63b8ff" stroke="#63b8ff" points="1512.52,-77.68 1521.66,-72.31 1511.17,-70.81 1512.52,-77.68"/>
</a>
</g>
</g>
<!-- Node11 -->
<g id="Node000011" class="node">
<title>Node11</title>
<g id="a_Node000011"><a xlink:title=" ">
<polygon fill="#e0e0e0" stroke="#999999" points="1107,-129 1014,-129 1014,-110 1107,-110 1107,-129"/>
<text text-anchor="middle" x="1060.5" y="-117" font-family="Helvetica,sans-Serif" font-size="10.00">QTemporaryFile</text>
</a>
</g>
</g>
<!-- Node10&#45;&gt;Node11 -->
<g id="edge16_Node000010_Node000011" class="edge">
<title>Node10&#45;&gt;Node11</title>
<g id="a_edge16_Node000010_Node000011"><a xlink:title=" ">
<path fill="none" stroke="#63b8ff" d="M1123.45,-164.98C1112.04,-156.92 1094.67,-144.65 1081.07,-135.03"/>
<polygon fill="#63b8ff" stroke="#63b8ff" points="1082.96,-132.08 1072.77,-129.17 1078.92,-137.8 1082.96,-132.08"/>
</a>
</g>
</g>
<!-- Node12 -->
<g id="Node000012" class="node">
<title>Node12</title>
<g id="a_Node000012"><a xlink:href="../../d8/da5/vdomdocument_8h.html" target="_top" xlink:title=" ">
<polygon fill="white" stroke="#666666" points="869.5,-129 767.5,-129 767.5,-110 869.5,-110 869.5,-129"/>
<text text-anchor="middle" x="818.5" y="-117" font-family="Helvetica,sans-Serif" font-size="10.00">vdomdocument.h</text>
</a>
</g>
</g>
<!-- Node10&#45;&gt;Node12 -->
<g id="edge18_Node000010_Node000012" class="edge">
<title>Node10&#45;&gt;Node12</title>
<g id="a_edge18_Node000010_Node000012"><a xlink:title=" ">
<path fill="none" stroke="#63b8ff" d="M1084.57,-164.98C1028.73,-155.65 939.17,-140.67 879.59,-130.71"/>
<polygon fill="#63b8ff" stroke="#63b8ff" points="880.01,-127.24 869.57,-129.04 878.85,-134.14 880.01,-127.24"/>
</a>
</g>
</g>
<!-- Node12&#45;&gt;Node4 -->
<g id="edge19_Node000012_Node000004" class="edge">
<title>Node12&#45;&gt;Node4</title>
<g id="a_edge19_Node000012_Node000004"><a xlink:title=" ">
<path fill="none" stroke="#63b8ff" d="M869.57,-111.58C874.27,-111.02 878.97,-110.48 883.5,-110 1075.37,-89.62 1126.83,-95.78 1321.99,-74.11"/>
<polygon fill="#63b8ff" stroke="#63b8ff" points="1322.45,-77.58 1332,-72.98 1321.67,-70.62 1322.45,-77.58"/>
</a>
</g>
</g>
<!-- Node12&#45;&gt;Node5 -->
<g id="edge26_Node000012_Node000005" class="edge">
<title>Node12&#45;&gt;Node5</title>
<g id="a_edge26_Node000012_Node000005"><a xlink:title=" ">
<path fill="none" stroke="#63b8ff" d="M869.83,-115.95C995.01,-109.55 1314.4,-92.14 1440.66,-73.99"/>
<polygon fill="#63b8ff" stroke="#63b8ff" points="1441.47,-77.41 1450.84,-72.46 1440.43,-70.49 1441.47,-77.41"/>
</a>
</g>
</g>
<!-- Node12&#45;&gt;Node6 -->
<g id="edge29_Node000012_Node000006" class="edge">
<title>Node12&#45;&gt;Node6</title>
<g id="a_edge29_Node000012_Node000006"><a xlink:title=" ">
<path fill="none" stroke="#63b8ff" d="M869.51,-116.27C1004.63,-110.2 1370.56,-92.68 1511.56,-74.03"/>
<polygon fill="#63b8ff" stroke="#63b8ff" points="1512.28,-77.46 1521.71,-72.62 1511.33,-70.53 1512.28,-77.46"/>
</a>
</g>
</g>
<!-- Node13 -->
<g id="Node000013" class="node">
<title>Node13</title>
<g id="a_Node000013"><a xlink:title=" ">
<polygon fill="#e0e0e0" stroke="#999999" points="971.5,-74 873.5,-74 873.5,-55 971.5,-55 971.5,-74"/>
<text text-anchor="middle" x="922.5" y="-62" font-family="Helvetica,sans-Serif" font-size="10.00">QDomDocument</text>
</a>
</g>
</g>
<!-- Node12&#45;&gt;Node13 -->
<g id="edge20_Node000012_Node000013" class="edge">
<title>Node12&#45;&gt;Node13</title>
<g id="a_edge20_Node000012_Node000013"><a xlink:title=" ">
<path fill="none" stroke="#63b8ff" d="M835.21,-109.98C851.71,-101.57 877.2,-88.59 896.38,-78.81"/>
<polygon fill="#63b8ff" stroke="#63b8ff" points="898.17,-81.83 905.49,-74.17 894.99,-75.59 898.17,-81.83"/>
</a>
</g>
</g>
<!-- Node14 -->
<g id="Node000014" class="node">
<title>Node14</title>
<g id="a_Node000014"><a xlink:title=" ">
<polygon fill="#e0e0e0" stroke="#999999" points="1077.5,-74 989.5,-74 989.5,-55 1077.5,-55 1077.5,-74"/>
<text text-anchor="middle" x="1033.5" y="-62" font-family="Helvetica,sans-Serif" font-size="10.00">QDomElement</text>
</a>
</g>
</g>
<!-- Node12&#45;&gt;Node14 -->
<g id="edge21_Node000012_Node000014" class="edge">
<title>Node12&#45;&gt;Node14</title>
<g id="a_edge21_Node000012_Node000014"><a xlink:title=" ">
<path fill="none" stroke="#63b8ff" d="M853.04,-109.98C889.92,-100.89 948.49,-86.46 988.84,-76.51"/>
<polygon fill="#63b8ff" stroke="#63b8ff" points="989.81,-79.87 998.69,-74.08 988.14,-73.08 989.81,-79.87"/>
</a>
</g>
</g>
<!-- Node12&#45;&gt;Node15 -->
<g id="edge22_Node000012_Node000015" class="edge">
<title>Node12&#45;&gt;Node15</title>
<g id="a_edge22_Node000012_Node000015"><a xlink:title=" ">
<path fill="none" stroke="#63b8ff" d="M767.37,-117.63C648.77,-115.15 345.65,-106.05 83.37,-74.08"/>
<polygon fill="#63b8ff" stroke="#63b8ff" points="83.63,-70.59 73.28,-72.84 82.77,-77.54 83.63,-70.59"/>
</a>
</g>
</g>
<!-- Node16 -->
<g id="Node000016" class="node">
<title>Node16</title>
<g id="a_Node000016"><a xlink:title=" ">
<polygon fill="#e0e0e0" stroke="#999999" points="1144,-74 1095,-74 1095,-55 1144,-55 1144,-74"/>
<text text-anchor="middle" x="1119.5" y="-62" font-family="Helvetica,sans-Serif" font-size="10.00">QHash</text>
</a>
</g>
</g>
<!-- Node12&#45;&gt;Node16 -->
<g id="edge23_Node000012_Node000016" class="edge">
<title>Node12&#45;&gt;Node16</title>
<g id="a_edge23_Node000012_Node000016"><a xlink:title=" ">
<path fill="none" stroke="#63b8ff" d="M869.63,-111.37C921.52,-103.83 1004.37,-90.96 1084.43,-74.3"/>
<polygon fill="#63b8ff" stroke="#63b8ff" points="1085.62,-77.62 1094.69,-72.14 1084.18,-70.77 1085.62,-77.62"/>
</a>
</g>
</g>
<!-- Node12&#45;&gt;Node17 -->
<g id="edge24_Node000012_Node000017" class="edge">
<title>Node12&#45;&gt;Node17</title>
<g id="a_edge24_Node000012_Node000017"><a xlink:title=" ">
<path fill="none" stroke="#63b8ff" d="M767.31,-116.57C660.83,-112.19 407.53,-99.91 184.47,-73.99"/>
<polygon fill="#63b8ff" stroke="#63b8ff" points="184.54,-70.47 174.2,-72.78 183.73,-77.42 184.54,-70.47"/>
</a>
</g>
</g>
<!-- Node12&#45;&gt;Node18 -->
<g id="edge25_Node000012_Node000018" class="edge">
<title>Node12&#45;&gt;Node18</title>
<g id="a_edge25_Node000012_Node000018"><a xlink:title=" ">
<path fill="none" stroke="#63b8ff" d="M767.44,-114.95C676.87,-108.47 481.89,-93.65 306.89,-74.1"/>
<polygon fill="#63b8ff" stroke="#63b8ff" points="307.05,-70.6 296.72,-72.96 306.27,-77.55 307.05,-70.6"/>
</a>
</g>
</g>
<!-- Node12&#45;&gt;Node19 -->
<g id="edge27_Node000012_Node000019" class="edge">
<title>Node12&#45;&gt;Node19</title>
<g id="a_edge27_Node000012_Node000019"><a xlink:title=" ">
<path fill="none" stroke="#63b8ff" d="M767.4,-114.29C690.18,-107.65 538.95,-93.62 400.62,-74.06"/>
<polygon fill="#63b8ff" stroke="#63b8ff" points="401.08,-70.59 390.68,-72.65 400.09,-77.52 401.08,-70.59"/>
</a>
</g>
</g>
<!-- Node12&#45;&gt;Node20 -->
<g id="edge28_Node000012_Node000020" class="edge">
<title>Node12&#45;&gt;Node20</title>
<g id="a_edge28_Node000012_Node000020"><a xlink:title=" ">
<path fill="none" stroke="#63b8ff" d="M767.29,-111.4C707.67,-103.08 605.96,-88.73 508.32,-74.11"/>
<polygon fill="#63b8ff" stroke="#63b8ff" points="508.69,-70.62 498.28,-72.6 507.65,-77.54 508.69,-70.62"/>
</a>
</g>
</g>
<!-- Node21 -->
<g id="Node000021" class="node">
<title>Node21</title>
<g id="a_Node000021"><a xlink:title=" ">
<polygon fill="#e0e0e0" stroke="#999999" points="1218.5,-74 1162.5,-74 1162.5,-55 1218.5,-55 1218.5,-74"/>
<text text-anchor="middle" x="1190.5" y="-62" font-family="Helvetica,sans-Serif" font-size="10.00">QLocale</text>
</a>
</g>
</g>
<!-- Node12&#45;&gt;Node21 -->
<g id="edge30_Node000012_Node000021" class="edge">
<title>Node12&#45;&gt;Node21</title>
<g id="a_edge30_Node000012_Node000021"><a xlink:title=" ">
<path fill="none" stroke="#63b8ff" d="M869.54,-111.78C952.07,-100.91 1109.27,-80.17 1152.25,-73.85"/>
<polygon fill="#63b8ff" stroke="#63b8ff" points="1152.94,-77.28 1162.27,-72.27 1151.85,-70.37 1152.94,-77.28"/>
</a>
</g>
</g>
<!-- Node22 -->
<g id="Node000022" class="node">
<title>Node22</title>
<g id="a_Node000022"><a xlink:title=" ">
<polygon fill="#e0e0e0" stroke="#999999" points="1314,-74 1237,-74 1237,-55 1314,-55 1314,-74"/>
<text text-anchor="middle" x="1275.5" y="-62" font-family="Helvetica,sans-Serif" font-size="10.00">../ifc/ifcdef.h</text>
</a>
</g>
</g>
<!-- Node12&#45;&gt;Node22 -->
<g id="edge31_Node000012_Node000022" class="edge">
<title>Node12&#45;&gt;Node22</title>
<g id="a_edge31_Node000012_Node000022"><a xlink:title=" ">
<path fill="none" stroke="#63b8ff" d="M869.58,-111.69C874.28,-111.11 878.98,-110.53 883.5,-110 1032.89,-92.42 1073.54,-95.28 1226.52,-74.04"/>
<polygon fill="#63b8ff" stroke="#63b8ff" points="1227.35,-77.46 1236.77,-72.6 1226.38,-70.52 1227.35,-77.46"/>
</a>
</g>
</g>
<!-- Node12&#45;&gt;Node23 -->
<g id="edge32_Node000012_Node000023" class="edge">
<title>Node12&#45;&gt;Node23</title>
<g id="a_edge32_Node000012_Node000023"><a xlink:title=" ">
<path fill="none" stroke="#63b8ff" d="M776.57,-109.98C730.96,-100.72 658.03,-85.91 608.98,-75.95"/>
<polygon fill="#63b8ff" stroke="#63b8ff" points="609.4,-72.47 598.9,-73.91 608,-79.33 609.4,-72.47"/>
</a>
</g>
</g>
<!-- Node24 -->
<g id="Node000024" class="node">
<title>Node24</title>
<g id="a_Node000024"><a xlink:title=" ">
<polygon fill="#e0e0e0" stroke="#999999" points="734,-74 617,-74 617,-55 734,-55 734,-74"/>
<text text-anchor="middle" x="675.5" y="-62" font-family="Helvetica,sans-Serif" font-size="10.00">../vmisc/diagnostic.h</text>
</a>
</g>
</g>
<!-- Node12&#45;&gt;Node24 -->
<g id="edge33_Node000012_Node000024" class="edge">
<title>Node12&#45;&gt;Node24</title>
<g id="a_edge33_Node000012_Node000024"><a xlink:title=" ">
<path fill="none" stroke="#63b8ff" d="M795.52,-109.98C772,-101.27 735.21,-87.63 708.56,-77.75"/>
<polygon fill="#63b8ff" stroke="#63b8ff" points="709.49,-74.36 698.89,-74.17 707.05,-80.93 709.49,-74.36"/>
</a>
</g>
</g>
<!-- Node25 -->
<g id="Node000025" class="node">
<title>Node25</title>
<g id="a_Node000025"><a xlink:title=" ">
<polygon fill="#e0e0e0" stroke="#999999" points="855,-74 752,-74 752,-55 855,-55 855,-74"/>
<text text-anchor="middle" x="803.5" y="-62" font-family="Helvetica,sans-Serif" font-size="10.00">../vmisc/logging.h</text>
</a>
</g>
</g>
<!-- Node12&#45;&gt;Node25 -->
<g id="edge34_Node000012_Node000025" class="edge">
<title>Node12&#45;&gt;Node25</title>
<g id="a_edge34_Node000012_Node000025"><a xlink:title=" ">
<path fill="none" stroke="#63b8ff" d="M816.02,-109.75C814.04,-102.72 811.18,-92.62 808.69,-83.84"/>
<polygon fill="#63b8ff" stroke="#63b8ff" points="812.02,-82.76 805.93,-74.09 805.29,-84.66 812.02,-82.76"/>
</a>
</g>
</g>
<!-- Node30&#45;&gt;Node3 -->
<g id="edge48_Node000030_Node000003" class="edge">
<title>Node30&#45;&gt;Node3</title>
<g id="a_edge48_Node000030_Node000003"><a xlink:title=" ">
<path fill="none" stroke="#63b8ff" d="M1617.22,-219.92C1641.68,-213.64 1668.18,-202.79 1686.5,-184 1710.06,-159.84 1708.62,-143.35 1703.5,-110 1702.15,-101.19 1699.37,-91.74 1696.65,-83.82"/>
<polygon fill="#63b8ff" stroke="#63b8ff" points="1699.84,-82.35 1693.1,-74.18 1693.27,-84.77 1699.84,-82.35"/>
</a>
</g>
</g>
<!-- Node30&#45;&gt;Node4 -->
<g id="edge49_Node000030_Node000004" class="edge">
<title>Node30&#45;&gt;Node4</title>
<g id="a_edge49_Node000030_Node000004"><a xlink:title=" ">
<path fill="none" stroke="#63b8ff" d="M1542.08,-219.81C1530.04,-211.18 1511.45,-197.37 1496.5,-184 1458.4,-149.94 1417.84,-105.57 1396.89,-81.96"/>
<polygon fill="#63b8ff" stroke="#63b8ff" points="1399.34,-79.45 1390.1,-74.26 1394.09,-84.08 1399.34,-79.45"/>
</a>
</g>
</g>
<!-- Node30&#45;&gt;Node5 -->
<g id="edge51_Node000030_Node000005" class="edge">
<title>Node30&#45;&gt;Node5</title>
<g id="a_edge51_Node000030_Node000005"><a xlink:title=" ">
<path fill="none" stroke="#63b8ff" d="M1545.65,-219.91C1529.72,-203.8 1496.56,-167.22 1482.5,-129 1477.18,-114.55 1476.17,-97.04 1476.35,-84.07"/>
<polygon fill="#63b8ff" stroke="#63b8ff" points="1479.85,-84.16 1476.74,-74.03 1472.86,-83.88 1479.85,-84.16"/>
</a>
</g>
</g>
<!-- Node31 -->
<g id="Node000031" class="node">
<title>Node31</title>
<g id="a_Node000031"><a xlink:title=" ">
<polygon fill="#e0e0e0" stroke="#999999" points="1810.5,-184 1738.5,-184 1738.5,-165 1810.5,-165 1810.5,-184"/>
<text text-anchor="middle" x="1774.5" y="-172" font-family="Helvetica,sans-Serif" font-size="10.00">QException</text>
</a>
</g>
</g>
<!-- Node30&#45;&gt;Node31 -->
<g id="edge50_Node000030_Node000031" class="edge">
<title>Node30&#45;&gt;Node31</title>
<g id="a_edge50_Node000030_Node000031"><a xlink:title=" ">
<path fill="none" stroke="#63b8ff" d="M1589.85,-219.98C1627.66,-210.87 1687.76,-196.4 1729.07,-186.45"/>
<polygon fill="#63b8ff" stroke="#63b8ff" points="1729.97,-189.83 1738.88,-184.08 1728.33,-183.02 1729.97,-189.83"/>
</a>
</g>
</g>
<!-- Node32 -->
<g id="Node000032" class="node">
<title>Node32</title>
<g id="a_Node000032"><a xlink:href="../../d3/da5/ifcdef_8h.html" target="_top" xlink:title=" ">
<polygon fill="white" stroke="#666666" points="1611.5,-184 1549.5,-184 1549.5,-165 1611.5,-165 1611.5,-184"/>
<text text-anchor="middle" x="1580.5" y="-172" font-family="Helvetica,sans-Serif" font-size="10.00">../ifcdef.h</text>
</a>
</g>
</g>
<!-- Node30&#45;&gt;Node32 -->
<g id="edge52_Node000030_Node000032" class="edge">
<title>Node30&#45;&gt;Node32</title>
<g id="a_edge52_Node000030_Node000032"><a xlink:title=" ">
<path fill="none" stroke="#63b8ff" d="M1558.79,-219.75C1562.31,-212.57 1567.41,-202.18 1571.78,-193.27"/>
<polygon fill="#63b8ff" stroke="#63b8ff" points="1575.02,-194.61 1576.29,-184.09 1568.74,-191.53 1575.02,-194.61"/>
</a>
</g>
</g>
<!-- Node32&#45;&gt;Node5 -->
<g id="edge53_Node000032_Node000005" class="edge">
<title>Node32&#45;&gt;Node5</title>
<g id="a_edge53_Node000032_Node000005"><a xlink:title=" ">
<path fill="none" stroke="#63b8ff" d="M1553.03,-164.93C1534.89,-157.95 1511.9,-146.37 1497.5,-129 1487.02,-116.34 1482.01,-98.16 1479.63,-84.49"/>
<polygon fill="#63b8ff" stroke="#63b8ff" points="1483.05,-83.7 1478.18,-74.29 1476.12,-84.68 1483.05,-83.7"/>
</a>
</g>
</g>
<!-- Node32&#45;&gt;Node6 -->
<g id="edge55_Node000032_Node000006" class="edge">
<title>Node32&#45;&gt;Node6</title>
<g id="a_edge55_Node000032_Node000006"><a xlink:title=" ">
<path fill="none" stroke="#63b8ff" d="M1596.64,-164.9C1616.23,-153.25 1645.2,-131.46 1632.5,-110 1623.37,-94.56 1606.76,-84.12 1590.96,-77.26"/>
<polygon fill="#63b8ff" stroke="#63b8ff" points="1591.88,-73.86 1581.29,-73.43 1589.3,-80.37 1591.88,-73.86"/>
</a>
</g>
</g>
<!-- Node33 -->
<g id="Node000033" class="node">
<title>Node33</title>
<g id="a_Node000033"><a xlink:title=" ">
<polygon fill="#e0e0e0" stroke="#999999" points="1837.5,-74 1767.5,-74 1767.5,-55 1837.5,-55 1837.5,-74"/>
<text text-anchor="middle" x="1802.5" y="-62" font-family="Helvetica,sans-Serif" font-size="10.00">QStringList</text>
</a>
</g>
</g>
<!-- Node32&#45;&gt;Node33 -->
<g id="edge54_Node000032_Node000033" class="edge">
<title>Node32&#45;&gt;Node33</title>
<g id="a_edge54_Node000032_Node000033"><a xlink:title=" ">
<path fill="none" stroke="#63b8ff" d="M1598.29,-164.84C1637.2,-145.92 1730.01,-100.77 1775.89,-78.45"/>
<polygon fill="#63b8ff" stroke="#63b8ff" points="1777.47,-81.57 1784.93,-74.05 1774.41,-75.27 1777.47,-81.57"/>
</a>
</g>
</g>
<!-- Node34 -->
<g id="Node000034" class="node">
<title>Node34</title>
<g id="a_Node000034"><a xlink:href="../../d4/da4/def_8h.html" target="_top" xlink:title=" ">
<polygon fill="white" stroke="#666666" points="1959.5,-129 1877.5,-129 1877.5,-110 1959.5,-110 1959.5,-129"/>
<text text-anchor="middle" x="1918.5" y="-117" font-family="Helvetica,sans-Serif" font-size="10.00">../vmisc/def.h</text>
</a>
</g>
</g>
<!-- Node32&#45;&gt;Node34 -->
<g id="edge56_Node000032_Node000034" class="edge">
<title>Node32&#45;&gt;Node34</title>
<g id="a_edge56_Node000032_Node000034"><a xlink:title=" ">
<path fill="none" stroke="#63b8ff" d="M1611.69,-168.61C1670.03,-159.46 1796.14,-139.69 1867.18,-128.55"/>
<polygon fill="#63b8ff" stroke="#63b8ff" points="1867.91,-131.98 1877.24,-126.97 1866.82,-125.06 1867.91,-131.98"/>
</a>
</g>
</g>
<!-- Node42 -->
<g id="Node000042" class="node">
<title>Node42</title>
<g id="a_Node000042"><a xlink:href="../../d6/dcd/diagnostic_8h.html" target="_top" xlink:title=" ">
<polygon fill="white" stroke="#666666" points="1623,-129 1506,-129 1506,-110 1623,-110 1623,-129"/>
<text text-anchor="middle" x="1564.5" y="-117" font-family="Helvetica,sans-Serif" font-size="10.00">../vmisc/diagnostic.h</text>
</a>
</g>
</g>
<!-- Node32&#45;&gt;Node42 -->
<g id="edge68_Node000032_Node000042" class="edge">
<title>Node32&#45;&gt;Node42</title>
<g id="a_edge68_Node000032_Node000042"><a xlink:title=" ">
<path fill="none" stroke="#63b8ff" d="M1577.86,-164.75C1575.74,-157.72 1572.69,-147.62 1570.04,-138.84"/>
<polygon fill="#63b8ff" stroke="#63b8ff" points="1573.33,-137.65 1567.09,-129.09 1566.63,-139.67 1573.33,-137.65"/>
</a>
</g>
</g>
<!-- Node34&#45;&gt;Node3 -->
<g id="edge57_Node000034_Node000003" class="edge">
<title>Node34&#45;&gt;Node3</title>
<g id="a_edge57_Node000034_Node000003"><a xlink:title=" ">
<path fill="none" stroke="#63b8ff" d="M1881.71,-109.98C1842.26,-100.86 1779.52,-86.33 1736.52,-76.38"/>
<polygon fill="#63b8ff" stroke="#63b8ff" points="1737.11,-72.93 1726.58,-74.08 1735.53,-79.75 1737.11,-72.93"/>
</a>
</g>
</g>
<!-- Node34&#45;&gt;Node5 -->
<g id="edge60_Node000034_Node000005" class="edge">
<title>Node34&#45;&gt;Node5</title>
<g id="a_edge60_Node000034_Node000005"><a xlink:title=" ">
<path fill="none" stroke="#63b8ff" d="M1877.45,-115.66C1805.77,-110.34 1652.98,-97.39 1514.13,-73.89"/>
<polygon fill="#63b8ff" stroke="#63b8ff" points="1514.61,-70.42 1504.16,-72.18 1513.43,-77.32 1514.61,-70.42"/>
</a>
</g>
</g>
<!-- Node34&#45;&gt;Node6 -->
<g id="edge63_Node000034_Node000006" class="edge">
<title>Node34&#45;&gt;Node6</title>
<g id="a_edge63_Node000034_Node000006"><a xlink:title=" ">
<path fill="none" stroke="#63b8ff" d="M1877.47,-112.57C1806.48,-102.32 1661.63,-81.4 1591.42,-71.27"/>
<polygon fill="#63b8ff" stroke="#63b8ff" points="1591.62,-67.76 1581.22,-69.79 1590.62,-74.69 1591.62,-67.76"/>
</a>
</g>
</g>
<!-- Node34&#45;&gt;Node33 -->
<g id="edge61_Node000034_Node000033" class="edge">
<title>Node34&#45;&gt;Node33</title>
<g id="a_edge61_Node000034_Node000033"><a xlink:title=" ">
<path fill="none" stroke="#63b8ff" d="M1899.86,-109.98C1881.2,-101.46 1852.25,-88.23 1830.76,-78.41"/>
<polygon fill="#63b8ff" stroke="#63b8ff" points="1832.03,-75.14 1821.48,-74.17 1829.12,-81.51 1832.03,-75.14"/>
</a>
</g>
</g>
<!-- Node35 -->
<g id="Node000035" class="node">
<title>Node35</title>
<g id="a_Node000035"><a xlink:title=" ">
<polygon fill="#e0e0e0" stroke="#999999" points="1929,-74 1856,-74 1856,-55 1929,-55 1929,-74"/>
<text text-anchor="middle" x="1892.5" y="-62" font-family="Helvetica,sans-Serif" font-size="10.00">QFileDialog</text>
</a>
</g>
</g>
<!-- Node34&#45;&gt;Node35 -->
<g id="edge58_Node000034_Node000035" class="edge">
<title>Node34&#45;&gt;Node35</title>
<g id="a_edge58_Node000034_Node000035"><a xlink:title=" ">
<path fill="none" stroke="#63b8ff" d="M1914.21,-109.75C1910.69,-102.57 1905.59,-92.18 1901.22,-83.27"/>
<polygon fill="#63b8ff" stroke="#63b8ff" points="1904.26,-81.53 1896.71,-74.09 1897.98,-84.61 1904.26,-81.53"/>
</a>
</g>
</g>
<!-- Node36 -->
<g id="Node000036" class="node">
<title>Node36</title>
<g id="a_Node000036"><a xlink:title=" ">
<polygon fill="#e0e0e0" stroke="#999999" points="1997.5,-74 1947.5,-74 1947.5,-55 1997.5,-55 1997.5,-74"/>
<text text-anchor="middle" x="1972.5" y="-62" font-family="Helvetica,sans-Serif" font-size="10.00">QLineF</text>
</a>
</g>
</g>
<!-- Node34&#45;&gt;Node36 -->
<g id="edge59_Node000034_Node000036" class="edge">
<title>Node34&#45;&gt;Node36</title>
<g id="a_edge59_Node000034_Node000036"><a xlink:title=" ">
<path fill="none" stroke="#63b8ff" d="M1927.42,-109.75C1935.28,-102.03 1946.93,-90.6 1956.42,-81.28"/>
<polygon fill="#63b8ff" stroke="#63b8ff" points="1959.06,-83.59 1963.75,-74.09 1954.16,-78.6 1959.06,-83.59"/>
</a>
</g>
</g>
<!-- Node37 -->
<g id="Node000037" class="node">
<title>Node37</title>
<g id="a_Node000037"><a xlink:title=" ">
<polygon fill="#e0e0e0" stroke="#999999" points="2045,-74 2016,-74 2016,-55 2045,-55 2045,-74"/>
<text text-anchor="middle" x="2030.5" y="-62" font-family="Helvetica,sans-Serif" font-size="10.00">Qt</text>
</a>
</g>
</g>
<!-- Node34&#45;&gt;Node37 -->
<g id="edge62_Node000034_Node000037" class="edge">
<title>Node34&#45;&gt;Node37</title>
<g id="a_edge62_Node000034_Node000037"><a xlink:title=" ">
<path fill="none" stroke="#63b8ff" d="M1936.49,-109.98C1955.5,-100.99 1985.56,-86.77 2006.55,-76.83"/>
<polygon fill="#63b8ff" stroke="#63b8ff" points="2008.23,-79.91 2015.77,-72.47 2005.23,-73.59 2008.23,-79.91"/>
</a>
</g>
</g>
<!-- Node38 -->
<g id="Node000038" class="node">
<title>Node38</title>
<g id="a_Node000038"><a xlink:title=" ">
<polygon fill="#e0e0e0" stroke="#999999" points="2119.5,-74 2063.5,-74 2063.5,-55 2119.5,-55 2119.5,-74"/>
<text text-anchor="middle" x="2091.5" y="-62" font-family="Helvetica,sans-Serif" font-size="10.00">QPrinter</text>
</a>
</g>
</g>
<!-- Node34&#45;&gt;Node38 -->
<g id="edge64_Node000034_Node000038" class="edge">
<title>Node34&#45;&gt;Node38</title>
<g id="a_edge64_Node000034_Node000038"><a xlink:title=" ">
<path fill="none" stroke="#63b8ff" d="M1946.3,-109.98C1975.47,-101.05 2021.5,-86.94 2053.9,-77.02"/>
<polygon fill="#63b8ff" stroke="#63b8ff" points="2054.95,-80.36 2063.49,-74.08 2052.9,-73.66 2054.95,-80.36"/>
</a>
</g>
</g>
<!-- Node39 -->
<g id="Node000039" class="node">
<title>Node39</title>
<g id="a_Node000039"><a xlink:title=" ">
<polygon fill="#e0e0e0" stroke="#999999" points="2189,-74 2138,-74 2138,-55 2189,-55 2189,-74"/>
<text text-anchor="middle" x="2163.5" y="-62" font-family="Helvetica,sans-Serif" font-size="10.00">csignal</text>
</a>
</g>
</g>
<!-- Node34&#45;&gt;Node39 -->
<g id="edge65_Node000034_Node000039" class="edge">
<title>Node34&#45;&gt;Node39</title>
<g id="a_edge65_Node000034_Node000039"><a xlink:title=" ">
<path fill="none" stroke="#63b8ff" d="M1959.62,-110.16C1999.95,-101.9 2063.41,-88.67 2127.96,-74.07"/>
<polygon fill="#63b8ff" stroke="#63b8ff" points="2128.93,-77.44 2137.91,-71.81 2127.38,-70.61 2128.93,-77.44"/>
</a>
</g>
</g>
<!-- Node40 -->
<g id="Node000040" class="node">
<title>Node40</title>
<g id="a_Node000040"><a xlink:href="../../d4/d82/debugbreak_8h.html" target="_top" xlink:title=" ">
<polygon fill="white" stroke="#666666" points="2290,-74 2207,-74 2207,-55 2290,-55 2290,-74"/>
<text text-anchor="middle" x="2248.5" y="-62" font-family="Helvetica,sans-Serif" font-size="10.00">debugbreak.h</text>
</a>
</g>
</g>
<!-- Node34&#45;&gt;Node40 -->
<g id="edge66_Node000034_Node000040" class="edge">
<title>Node34&#45;&gt;Node40</title>
<g id="a_edge66_Node000034_Node000040"><a xlink:title=" ">
<path fill="none" stroke="#63b8ff" d="M1959.8,-112.08C2012.46,-103.86 2106.63,-89.06 2196.66,-74.29"/>
<polygon fill="#63b8ff" stroke="#63b8ff" points="2197.46,-77.7 2206.76,-72.63 2196.33,-70.8 2197.46,-77.7"/>
</a>
</g>
</g>
<!-- Node41 -->
<g id="Node000041" class="node">
<title>Node41</title>
<g id="a_Node000041"><a xlink:title=" ">
<polygon fill="#e0e0e0" stroke="#999999" points="2276,-19 2221,-19 2221,0 2276,0 2276,-19"/>
<text text-anchor="middle" x="2248.5" y="-7" font-family="Helvetica,sans-Serif" font-size="10.00">signal.h</text>
</a>
</g>
</g>
<!-- Node40&#45;&gt;Node41 -->
<g id="edge67_Node000040_Node000041" class="edge">
<title>Node40&#45;&gt;Node41</title>
<g id="a_edge67_Node000040_Node000041"><a xlink:title=" ">
<path fill="none" stroke="#63b8ff" d="M2248.5,-54.75C2248.5,-47.8 2248.5,-37.85 2248.5,-29.13"/>
<polygon fill="#63b8ff" stroke="#63b8ff" points="2252,-29.09 2248.5,-19.09 2245,-29.09 2252,-29.09"/>
</a>
</g>
</g>
<!-- Node42&#45;&gt;Node6 -->
<g id="edge69_Node000042_Node000006" class="edge">
<title>Node42&#45;&gt;Node6</title>
<g id="a_edge69_Node000042_Node000006"><a xlink:title=" ">
<path fill="none" stroke="#63b8ff" d="M1562.35,-109.75C1560.63,-102.72 1558.15,-92.62 1556,-83.84"/>
<polygon fill="#63b8ff" stroke="#63b8ff" points="1559.39,-82.97 1553.61,-74.09 1552.59,-84.63 1559.39,-82.97"/>
</a>
</g>
</g>
</g>
</svg>
