<?xml version="1.0" encoding="UTF-8" standalone="no"?>
<!DOCTYPE svg PUBLIC "-//W3C//DTD SVG 1.1//EN"
 "http://www.w3.org/Graphics/SVG/1.1/DTD/svg11.dtd">
<!-- Generated by graphviz version 2.43.0 (0)
 -->
<!-- Title: src/libs/ifc/exception/vexceptionconversionerror.cpp Pages: 1 -->
<svg width="897pt" height="368pt"
 viewBox="0.00 0.00 896.93 368.00" xmlns="http://www.w3.org/2000/svg" xmlns:xlink="http://www.w3.org/1999/xlink">
<g id="graph0" class="graph" transform="scale(1 1) rotate(0) translate(4 364)">
<title>src/libs/ifc/exception/vexceptionconversionerror.cpp</title>
<!-- Node1 -->
<g id="Node000001" class="node">
<title>Node1</title>
<g id="a_Node000001"><a xlink:title=" ">
<polygon fill="#999999" stroke="#666666" points="641.5,-360 471.5,-360 471.5,-330 641.5,-330 641.5,-360"/>
<text text-anchor="start" x="479.5" y="-348" font-family="Helvetica,sans-Serif" font-size="10.00">src/libs/ifc/exception</text>
<text text-anchor="middle" x="556.5" y="-337" font-family="Helvetica,sans-Serif" font-size="10.00">/vexceptionconversionerror.cpp</text>
</a>
</g>
</g>
<!-- Node2 -->
<g id="Node000002" class="node">
<title>Node2</title>
<g id="a_Node000002"><a xlink:href="../../d9/d72/vexceptionconversionerror_8h.html" target="_top" xlink:title=" ">
<polygon fill="white" stroke="#666666" points="634,-294 479,-294 479,-275 634,-275 634,-294"/>
<text text-anchor="middle" x="556.5" y="-282" font-family="Helvetica,sans-Serif" font-size="10.00">vexceptionconversionerror.h</text>
</a>
</g>
</g>
<!-- Node1&#45;&gt;Node2 -->
<g id="edge1_Node000001_Node000002" class="edge">
<title>Node1&#45;&gt;Node2</title>
<g id="a_edge1_Node000001_Node000002"><a xlink:title=" ">
<path fill="none" stroke="#63b8ff" d="M556.5,-329.84C556.5,-322.21 556.5,-312.7 556.5,-304.45"/>
<polygon fill="#63b8ff" stroke="#63b8ff" points="560,-304.27 556.5,-294.27 553,-304.27 560,-304.27"/>
</a>
</g>
</g>
<!-- Node7 -->
<g id="Node000007" class="node">
<title>Node7</title>
<g id="a_Node000007"><a xlink:title=" ">
<polygon fill="#e0e0e0" stroke="#999999" points="59,-74 0,-74 0,-55 59,-55 59,-74"/>
<text text-anchor="middle" x="29.5" y="-62" font-family="Helvetica,sans-Serif" font-size="10.00">QtGlobal</text>
</a>
</g>
</g>
<!-- Node1&#45;&gt;Node7 -->
<g id="edge28_Node000001_Node000007" class="edge">
<title>Node1&#45;&gt;Node7</title>
<g id="a_edge28_Node000001_Node000007"><a xlink:title=" ">
<path fill="none" stroke="#63b8ff" d="M471.21,-342.52C325.34,-337.65 43.5,-317.04 43.5,-230.5 43.5,-230.5 43.5,-230.5 43.5,-173.5 43.5,-141.93 37.54,-105.59 33.4,-84.14"/>
<polygon fill="#63b8ff" stroke="#63b8ff" points="36.79,-83.24 31.39,-74.13 29.93,-84.62 36.79,-83.24"/>
</a>
</g>
</g>
<!-- Node17 -->
<g id="Node000017" class="node">
<title>Node17</title>
<g id="a_Node000017"><a xlink:href="../../d1/d44/vexception_8h.html" target="_top" xlink:title=" ">
<polygon fill="white" stroke="#666666" points="721.5,-239 641.5,-239 641.5,-220 721.5,-220 721.5,-239"/>
<text text-anchor="middle" x="681.5" y="-227" font-family="Helvetica,sans-Serif" font-size="10.00">vexception.h</text>
</a>
</g>
</g>
<!-- Node1&#45;&gt;Node17 -->
<g id="edge29_Node000001_Node000017" class="edge">
<title>Node1&#45;&gt;Node17</title>
<g id="a_edge29_Node000001_Node000017"><a xlink:title=" ">
<path fill="none" stroke="#63b8ff" d="M589.75,-329.9C607.2,-321.34 628.09,-309.14 643.5,-294 656.79,-280.94 667.22,-262.3 673.76,-248.59"/>
<polygon fill="#63b8ff" stroke="#63b8ff" points="677.06,-249.8 677.99,-239.24 670.68,-246.91 677.06,-249.8"/>
</a>
</g>
</g>
<!-- Node3 -->
<g id="Node000003" class="node">
<title>Node3</title>
<g id="a_Node000003"><a xlink:title=" ">
<polygon fill="#e0e0e0" stroke="#999999" points="737.5,-74 617.5,-74 617.5,-55 737.5,-55 737.5,-74"/>
<text text-anchor="middle" x="677.5" y="-62" font-family="Helvetica,sans-Serif" font-size="10.00">qcompilerdetection.h</text>
</a>
</g>
</g>
<!-- Node2&#45;&gt;Node3 -->
<g id="edge2_Node000002_Node000003" class="edge">
<title>Node2&#45;&gt;Node3</title>
<g id="a_edge2_Node000002_Node000003"><a xlink:title=" ">
<path fill="none" stroke="#63b8ff" d="M556.36,-274.92C556.34,-247.82 559.62,-162.72 599.5,-110 610.33,-95.69 627.19,-85.25 642.47,-78.09"/>
<polygon fill="#63b8ff" stroke="#63b8ff" points="643.94,-81.27 651.71,-74.06 641.14,-74.85 643.94,-81.27"/>
</a>
</g>
</g>
<!-- Node4 -->
<g id="Node000004" class="node">
<title>Node4</title>
<g id="a_Node000004"><a xlink:title=" ">
<polygon fill="#e0e0e0" stroke="#999999" points="809,-74 756,-74 756,-55 809,-55 809,-74"/>
<text text-anchor="middle" x="782.5" y="-62" font-family="Helvetica,sans-Serif" font-size="10.00">QString</text>
</a>
</g>
</g>
<!-- Node2&#45;&gt;Node4 -->
<g id="edge3_Node000002_Node000004" class="edge">
<title>Node2&#45;&gt;Node4</title>
<g id="a_edge3_Node000002_Node000004"><a xlink:title=" ">
<path fill="none" stroke="#63b8ff" d="M564.39,-274.97C582.75,-255.21 629.96,-204.93 671.5,-165 703.6,-134.15 742.68,-99.83 764.86,-80.64"/>
<polygon fill="#63b8ff" stroke="#63b8ff" points="767.2,-83.24 772.49,-74.06 762.63,-77.94 767.2,-83.24"/>
</a>
</g>
</g>
<!-- Node5 -->
<g id="Node000005" class="node">
<title>Node5</title>
<g id="a_Node000005"><a xlink:href="../../d3/da5/ifcdef_8h.html" target="_top" xlink:title=" ">
<polygon fill="white" stroke="#666666" points="509.5,-184 447.5,-184 447.5,-165 509.5,-165 509.5,-184"/>
<text text-anchor="middle" x="478.5" y="-172" font-family="Helvetica,sans-Serif" font-size="10.00">../ifcdef.h</text>
</a>
</g>
</g>
<!-- Node2&#45;&gt;Node5 -->
<g id="edge4_Node000002_Node000005" class="edge">
<title>Node2&#45;&gt;Node5</title>
<g id="a_edge4_Node000002_Node000005"><a xlink:title=" ">
<path fill="none" stroke="#63b8ff" d="M549.87,-274.68C543.17,-265.73 532.53,-251.46 523.5,-239 512.14,-223.33 499.4,-205.32 490.39,-192.49"/>
<polygon fill="#63b8ff" stroke="#63b8ff" points="493.16,-190.35 484.56,-184.17 487.43,-194.37 493.16,-190.35"/>
</a>
</g>
</g>
<!-- Node2&#45;&gt;Node17 -->
<g id="edge22_Node000002_Node000017" class="edge">
<title>Node2&#45;&gt;Node17</title>
<g id="a_edge22_Node000002_Node000017"><a xlink:title=" ">
<path fill="none" stroke="#63b8ff" d="M576.58,-274.98C596.87,-266.38 628.46,-252.99 651.67,-243.15"/>
<polygon fill="#63b8ff" stroke="#63b8ff" points="653.21,-246.3 661.05,-239.17 650.48,-239.85 653.21,-246.3"/>
</a>
</g>
</g>
<!-- Node5&#45;&gt;Node4 -->
<g id="edge5_Node000005_Node000004" class="edge">
<title>Node5&#45;&gt;Node4</title>
<g id="a_edge5_Node000005_Node000004"><a xlink:title=" ">
<path fill="none" stroke="#63b8ff" d="M492.14,-164.91C514.02,-151.48 558.66,-125.41 599.5,-110 606.4,-107.4 694.52,-86.35 745.91,-74.16"/>
<polygon fill="#63b8ff" stroke="#63b8ff" points="746.74,-77.56 755.67,-71.84 745.13,-70.74 746.74,-77.56"/>
</a>
</g>
</g>
<!-- Node6 -->
<g id="Node000006" class="node">
<title>Node6</title>
<g id="a_Node000006"><a xlink:title=" ">
<polygon fill="#e0e0e0" stroke="#999999" points="599.5,-74 529.5,-74 529.5,-55 599.5,-55 599.5,-74"/>
<text text-anchor="middle" x="564.5" y="-62" font-family="Helvetica,sans-Serif" font-size="10.00">QStringList</text>
</a>
</g>
</g>
<!-- Node5&#45;&gt;Node6 -->
<g id="edge6_Node000005_Node000006" class="edge">
<title>Node5&#45;&gt;Node6</title>
<g id="a_edge6_Node000005_Node000006"><a xlink:title=" ">
<path fill="none" stroke="#63b8ff" d="M484.27,-164.61C492.52,-152.09 508.37,-128.69 523.5,-110 531.51,-100.1 541.13,-89.6 549.04,-81.28"/>
<polygon fill="#63b8ff" stroke="#63b8ff" points="551.57,-83.7 555.99,-74.07 546.53,-78.84 551.57,-83.7"/>
</a>
</g>
</g>
<!-- Node5&#45;&gt;Node7 -->
<g id="edge7_Node000005_Node000007" class="edge">
<title>Node5&#45;&gt;Node7</title>
<g id="a_edge7_Node000005_Node000007"><a xlink:title=" ">
<path fill="none" stroke="#63b8ff" d="M447.09,-171.22C392.75,-166.73 278.05,-154.84 184.5,-129 137.71,-116.07 86.03,-93 55.74,-78.52"/>
<polygon fill="#63b8ff" stroke="#63b8ff" points="57.21,-75.34 46.69,-74.14 54.17,-81.64 57.21,-75.34"/>
</a>
</g>
</g>
<!-- Node8 -->
<g id="Node000008" class="node">
<title>Node8</title>
<g id="a_Node000008"><a xlink:href="../../d4/da4/def_8h.html" target="_top" xlink:title=" ">
<polygon fill="white" stroke="#666666" points="425.5,-129 343.5,-129 343.5,-110 425.5,-110 425.5,-129"/>
<text text-anchor="middle" x="384.5" y="-117" font-family="Helvetica,sans-Serif" font-size="10.00">../vmisc/def.h</text>
</a>
</g>
</g>
<!-- Node5&#45;&gt;Node8 -->
<g id="edge8_Node000005_Node000008" class="edge">
<title>Node5&#45;&gt;Node8</title>
<g id="a_edge8_Node000005_Node000008"><a xlink:title=" ">
<path fill="none" stroke="#63b8ff" d="M463.4,-164.98C448.68,-156.69 426.08,-143.94 408.83,-134.22"/>
<polygon fill="#63b8ff" stroke="#63b8ff" points="410.31,-131.03 399.88,-129.17 406.87,-137.13 410.31,-131.03"/>
</a>
</g>
</g>
<!-- Node16 -->
<g id="Node000016" class="node">
<title>Node16</title>
<g id="a_Node000016"><a xlink:href="../../d6/dcd/diagnostic_8h.html" target="_top" xlink:title=" ">
<polygon fill="white" stroke="#666666" points="311,-129 194,-129 194,-110 311,-110 311,-129"/>
<text text-anchor="middle" x="252.5" y="-117" font-family="Helvetica,sans-Serif" font-size="10.00">../vmisc/diagnostic.h</text>
</a>
</g>
</g>
<!-- Node5&#45;&gt;Node16 -->
<g id="edge20_Node000005_Node000016" class="edge">
<title>Node5&#45;&gt;Node16</title>
<g id="a_edge20_Node000005_Node000016"><a xlink:title=" ">
<path fill="none" stroke="#63b8ff" d="M447.08,-166.13C408.59,-157.11 343.08,-141.74 298.82,-131.36"/>
<polygon fill="#63b8ff" stroke="#63b8ff" points="299.42,-127.91 288.89,-129.03 297.83,-134.72 299.42,-127.91"/>
</a>
</g>
</g>
<!-- Node8&#45;&gt;Node3 -->
<g id="edge9_Node000008_Node000003" class="edge">
<title>Node8&#45;&gt;Node3</title>
<g id="a_edge9_Node000008_Node000003"><a xlink:title=" ">
<path fill="none" stroke="#63b8ff" d="M425.55,-111.07C476.36,-101.88 563.18,-86.18 620.45,-75.82"/>
<polygon fill="#63b8ff" stroke="#63b8ff" points="621.21,-79.24 630.43,-74.01 619.97,-72.35 621.21,-79.24"/>
</a>
</g>
</g>
<!-- Node8&#45;&gt;Node4 -->
<g id="edge12_Node000008_Node000004" class="edge">
<title>Node8&#45;&gt;Node4</title>
<g id="a_edge12_Node000008_Node000004"><a xlink:title=" ">
<path fill="none" stroke="#63b8ff" d="M425.71,-114.92C491.34,-108.89 623.81,-95.4 745.93,-73.9"/>
<polygon fill="#63b8ff" stroke="#63b8ff" points="746.6,-77.34 755.83,-72.14 745.37,-70.45 746.6,-77.34"/>
</a>
</g>
</g>
<!-- Node8&#45;&gt;Node6 -->
<g id="edge13_Node000008_Node000006" class="edge">
<title>Node8&#45;&gt;Node6</title>
<g id="a_edge13_Node000008_Node000006"><a xlink:title=" ">
<path fill="none" stroke="#63b8ff" d="M413.42,-109.98C443.77,-101.05 491.67,-86.94 525.38,-77.02"/>
<polygon fill="#63b8ff" stroke="#63b8ff" points="526.75,-80.26 535.35,-74.08 524.77,-73.55 526.75,-80.26"/>
</a>
</g>
</g>
<!-- Node8&#45;&gt;Node7 -->
<g id="edge15_Node000008_Node000007" class="edge">
<title>Node8&#45;&gt;Node7</title>
<g id="a_edge15_Node000008_Node000007"><a xlink:title=" ">
<path fill="none" stroke="#63b8ff" d="M343.32,-112.91C269.61,-102.87 118.8,-82.22 69.21,-74.11"/>
<polygon fill="#63b8ff" stroke="#63b8ff" points="69.77,-70.65 59.32,-72.41 68.59,-77.55 69.77,-70.65"/>
</a>
</g>
</g>
<!-- Node9 -->
<g id="Node000009" class="node">
<title>Node9</title>
<g id="a_Node000009"><a xlink:title=" ">
<polygon fill="#e0e0e0" stroke="#999999" points="150,-74 77,-74 77,-55 150,-55 150,-74"/>
<text text-anchor="middle" x="113.5" y="-62" font-family="Helvetica,sans-Serif" font-size="10.00">QFileDialog</text>
</a>
</g>
</g>
<!-- Node8&#45;&gt;Node9 -->
<g id="edge10_Node000008_Node000009" class="edge">
<title>Node8&#45;&gt;Node9</title>
<g id="a_edge10_Node000008_Node000009"><a xlink:title=" ">
<path fill="none" stroke="#63b8ff" d="M343.34,-110.45C294.06,-100.81 211.73,-84.71 160.14,-74.62"/>
<polygon fill="#63b8ff" stroke="#63b8ff" points="160.74,-71.17 150.25,-72.69 159.4,-78.04 160.74,-71.17"/>
</a>
</g>
</g>
<!-- Node10 -->
<g id="Node000010" class="node">
<title>Node10</title>
<g id="a_Node000010"><a xlink:title=" ">
<polygon fill="#e0e0e0" stroke="#999999" points="218.5,-74 168.5,-74 168.5,-55 218.5,-55 218.5,-74"/>
<text text-anchor="middle" x="193.5" y="-62" font-family="Helvetica,sans-Serif" font-size="10.00">QLineF</text>
</a>
</g>
</g>
<!-- Node8&#45;&gt;Node10 -->
<g id="edge11_Node000008_Node000010" class="edge">
<title>Node8&#45;&gt;Node10</title>
<g id="a_edge11_Node000008_Node000010"><a xlink:title=" ">
<path fill="none" stroke="#63b8ff" d="M353.81,-109.98C319.64,-100.5 264.52,-85.21 228.65,-75.25"/>
<polygon fill="#63b8ff" stroke="#63b8ff" points="229.2,-71.77 218.62,-72.47 227.32,-78.52 229.2,-71.77"/>
</a>
</g>
</g>
<!-- Node11 -->
<g id="Node000011" class="node">
<title>Node11</title>
<g id="a_Node000011"><a xlink:title=" ">
<polygon fill="#e0e0e0" stroke="#999999" points="266,-74 237,-74 237,-55 266,-55 266,-74"/>
<text text-anchor="middle" x="251.5" y="-62" font-family="Helvetica,sans-Serif" font-size="10.00">Qt</text>
</a>
</g>
</g>
<!-- Node8&#45;&gt;Node11 -->
<g id="edge14_Node000008_Node000011" class="edge">
<title>Node8&#45;&gt;Node11</title>
<g id="a_edge14_Node000008_Node000011"><a xlink:title=" ">
<path fill="none" stroke="#63b8ff" d="M363.13,-109.98C339.25,-100.47 300.67,-85.1 275.7,-75.14"/>
<polygon fill="#63b8ff" stroke="#63b8ff" points="276.81,-71.82 266.23,-71.37 274.22,-78.32 276.81,-71.82"/>
</a>
</g>
</g>
<!-- Node12 -->
<g id="Node000012" class="node">
<title>Node12</title>
<g id="a_Node000012"><a xlink:title=" ">
<polygon fill="#e0e0e0" stroke="#999999" points="340.5,-74 284.5,-74 284.5,-55 340.5,-55 340.5,-74"/>
<text text-anchor="middle" x="312.5" y="-62" font-family="Helvetica,sans-Serif" font-size="10.00">QPrinter</text>
</a>
</g>
</g>
<!-- Node8&#45;&gt;Node12 -->
<g id="edge16_Node000008_Node000012" class="edge">
<title>Node8&#45;&gt;Node12</title>
<g id="a_edge16_Node000008_Node000012"><a xlink:title=" ">
<path fill="none" stroke="#63b8ff" d="M372.93,-109.98C362.08,-102 345.62,-89.88 332.62,-80.31"/>
<polygon fill="#63b8ff" stroke="#63b8ff" points="334.41,-77.28 324.28,-74.17 330.26,-82.92 334.41,-77.28"/>
</a>
</g>
</g>
<!-- Node13 -->
<g id="Node000013" class="node">
<title>Node13</title>
<g id="a_Node000013"><a xlink:title=" ">
<polygon fill="#e0e0e0" stroke="#999999" points="410,-74 359,-74 359,-55 410,-55 410,-74"/>
<text text-anchor="middle" x="384.5" y="-62" font-family="Helvetica,sans-Serif" font-size="10.00">csignal</text>
</a>
</g>
</g>
<!-- Node8&#45;&gt;Node13 -->
<g id="edge17_Node000008_Node000013" class="edge">
<title>Node8&#45;&gt;Node13</title>
<g id="a_edge17_Node000008_Node000013"><a xlink:title=" ">
<path fill="none" stroke="#63b8ff" d="M384.5,-109.75C384.5,-102.8 384.5,-92.85 384.5,-84.13"/>
<polygon fill="#63b8ff" stroke="#63b8ff" points="388,-84.09 384.5,-74.09 381,-84.09 388,-84.09"/>
</a>
</g>
</g>
<!-- Node14 -->
<g id="Node000014" class="node">
<title>Node14</title>
<g id="a_Node000014"><a xlink:href="../../d4/d82/debugbreak_8h.html" target="_top" xlink:title=" ">
<polygon fill="white" stroke="#666666" points="511,-74 428,-74 428,-55 511,-55 511,-74"/>
<text text-anchor="middle" x="469.5" y="-62" font-family="Helvetica,sans-Serif" font-size="10.00">debugbreak.h</text>
</a>
</g>
</g>
<!-- Node8&#45;&gt;Node14 -->
<g id="edge18_Node000008_Node000014" class="edge">
<title>Node8&#45;&gt;Node14</title>
<g id="a_edge18_Node000008_Node000014"><a xlink:title=" ">
<path fill="none" stroke="#63b8ff" d="M398.16,-109.98C411.34,-101.77 431.53,-89.18 447.07,-79.49"/>
<polygon fill="#63b8ff" stroke="#63b8ff" points="448.96,-82.43 455.59,-74.17 445.26,-76.49 448.96,-82.43"/>
</a>
</g>
</g>
<!-- Node15 -->
<g id="Node000015" class="node">
<title>Node15</title>
<g id="a_Node000015"><a xlink:title=" ">
<polygon fill="#e0e0e0" stroke="#999999" points="497,-19 442,-19 442,0 497,0 497,-19"/>
<text text-anchor="middle" x="469.5" y="-7" font-family="Helvetica,sans-Serif" font-size="10.00">signal.h</text>
</a>
</g>
</g>
<!-- Node14&#45;&gt;Node15 -->
<g id="edge19_Node000014_Node000015" class="edge">
<title>Node14&#45;&gt;Node15</title>
<g id="a_edge19_Node000014_Node000015"><a xlink:title=" ">
<path fill="none" stroke="#63b8ff" d="M469.5,-54.75C469.5,-47.8 469.5,-37.85 469.5,-29.13"/>
<polygon fill="#63b8ff" stroke="#63b8ff" points="473,-29.09 469.5,-19.09 466,-29.09 473,-29.09"/>
</a>
</g>
</g>
<!-- Node16&#45;&gt;Node7 -->
<g id="edge21_Node000016_Node000007" class="edge">
<title>Node16&#45;&gt;Node7</title>
<g id="a_edge21_Node000016_Node000007"><a xlink:title=" ">
<path fill="none" stroke="#63b8ff" d="M216.67,-109.98C176.29,-100.39 110.85,-84.83 69.01,-74.89"/>
<polygon fill="#63b8ff" stroke="#63b8ff" points="69.71,-71.46 59.18,-72.55 68.1,-78.27 69.71,-71.46"/>
</a>
</g>
</g>
<!-- Node17&#45;&gt;Node3 -->
<g id="edge23_Node000017_Node000003" class="edge">
<title>Node17&#45;&gt;Node3</title>
<g id="a_edge23_Node000017_Node000003"><a xlink:title=" ">
<path fill="none" stroke="#63b8ff" d="M678.93,-219.73C676.45,-210.83 672.9,-196.59 671.5,-184 667.59,-148.81 671.64,-107.46 674.72,-84.08"/>
<polygon fill="#63b8ff" stroke="#63b8ff" points="678.19,-84.54 676.11,-74.15 671.25,-83.57 678.19,-84.54"/>
</a>
</g>
</g>
<!-- Node17&#45;&gt;Node4 -->
<g id="edge26_Node000017_Node000004" class="edge">
<title>Node17&#45;&gt;Node4</title>
<g id="a_edge26_Node000017_Node000004"><a xlink:title=" ">
<path fill="none" stroke="#63b8ff" d="M721.5,-225.35C773.77,-220.3 860.97,-208.38 880.5,-184 911.27,-145.58 846.89,-101.04 808.45,-79.12"/>
<polygon fill="#63b8ff" stroke="#63b8ff" points="809.75,-75.84 799.31,-74.05 806.36,-81.96 809.75,-75.84"/>
</a>
</g>
</g>
<!-- Node17&#45;&gt;Node5 -->
<g id="edge27_Node000017_Node000005" class="edge">
<title>Node17&#45;&gt;Node5</title>
<g id="a_edge27_Node000017_Node000005"><a xlink:title=" ">
<path fill="none" stroke="#63b8ff" d="M648.88,-219.98C613.7,-210.8 557.6,-196.15 519.47,-186.2"/>
<polygon fill="#63b8ff" stroke="#63b8ff" points="520.26,-182.79 509.7,-183.65 518.49,-189.56 520.26,-182.79"/>
</a>
</g>
</g>
<!-- Node18 -->
<g id="Node000018" class="node">
<title>Node18</title>
<g id="a_Node000018"><a xlink:title=" ">
<polygon fill="#e0e0e0" stroke="#999999" points="781,-184 680,-184 680,-165 781,-165 781,-184"/>
<text text-anchor="middle" x="730.5" y="-172" font-family="Helvetica,sans-Serif" font-size="10.00">QCoreApplication</text>
</a>
</g>
</g>
<!-- Node17&#45;&gt;Node18 -->
<g id="edge24_Node000017_Node000018" class="edge">
<title>Node17&#45;&gt;Node18</title>
<g id="a_edge24_Node000017_Node000018"><a xlink:title=" ">
<path fill="none" stroke="#63b8ff" d="M689.59,-219.75C696.66,-212.11 707.09,-200.82 715.65,-191.56"/>
<polygon fill="#63b8ff" stroke="#63b8ff" points="718.34,-193.81 722.56,-184.09 713.2,-189.06 718.34,-193.81"/>
</a>
</g>
</g>
<!-- Node19 -->
<g id="Node000019" class="node">
<title>Node19</title>
<g id="a_Node000019"><a xlink:title=" ">
<polygon fill="#e0e0e0" stroke="#999999" points="871.5,-184 799.5,-184 799.5,-165 871.5,-165 871.5,-184"/>
<text text-anchor="middle" x="835.5" y="-172" font-family="Helvetica,sans-Serif" font-size="10.00">QException</text>
</a>
</g>
</g>
<!-- Node17&#45;&gt;Node19 -->
<g id="edge25_Node000017_Node000019" class="edge">
<title>Node17&#45;&gt;Node19</title>
<g id="a_edge25_Node000017_Node000019"><a xlink:title=" ">
<path fill="none" stroke="#63b8ff" d="M706.24,-219.98C731.87,-211.16 772.13,-197.31 800.91,-187.41"/>
<polygon fill="#63b8ff" stroke="#63b8ff" points="802.25,-190.65 810.56,-184.08 799.97,-184.03 802.25,-190.65"/>
</a>
</g>
</g>
</g>
</svg>
