<?xml version="1.0" encoding="UTF-8" standalone="no"?>
<!DOCTYPE svg PUBLIC "-//W3C//DTD SVG 1.1//EN"
 "http://www.w3.org/Graphics/SVG/1.1/DTD/svg11.dtd">
<!-- Generated by graphviz version 2.43.0 (0)
 -->
<!-- Title: src/libs/ifc/exception/vexceptionundo.cpp Pages: 1 -->
<svg width="817pt" height="368pt"
 viewBox="0.00 0.00 816.50 368.00" xmlns="http://www.w3.org/2000/svg" xmlns:xlink="http://www.w3.org/1999/xlink">
<g id="graph0" class="graph" transform="scale(1 1) rotate(0) translate(4 364)">
<title>src/libs/ifc/exception/vexceptionundo.cpp</title>
<!-- Node1 -->
<g id="Node000001" class="node">
<title>Node1</title>
<g id="a_Node000001"><a xlink:title=" ">
<polygon fill="#999999" stroke="#666666" points="450.5,-360 332.5,-360 332.5,-330 450.5,-330 450.5,-360"/>
<text text-anchor="start" x="340.5" y="-348" font-family="Helvetica,sans-Serif" font-size="10.00">src/libs/ifc/exception</text>
<text text-anchor="middle" x="391.5" y="-337" font-family="Helvetica,sans-Serif" font-size="10.00">/vexceptionundo.cpp</text>
</a>
</g>
</g>
<!-- Node2 -->
<g id="Node000002" class="node">
<title>Node2</title>
<g id="a_Node000002"><a xlink:href="../../de/d5b/vexceptionundo_8h.html" target="_top" xlink:title=" ">
<polygon fill="white" stroke="#666666" points="403.5,-294 299.5,-294 299.5,-275 403.5,-275 403.5,-294"/>
<text text-anchor="middle" x="351.5" y="-282" font-family="Helvetica,sans-Serif" font-size="10.00">vexceptionundo.h</text>
</a>
</g>
</g>
<!-- Node1&#45;&gt;Node2 -->
<g id="edge1_Node000001_Node000002" class="edge">
<title>Node1&#45;&gt;Node2</title>
<g id="a_edge1_Node000001_Node000002"><a xlink:title=" ">
<path fill="none" stroke="#63b8ff" d="M381.82,-329.84C376.25,-321.69 369.21,-311.4 363.32,-302.78"/>
<polygon fill="#63b8ff" stroke="#63b8ff" points="366.03,-300.55 357.49,-294.27 360.25,-304.5 366.03,-300.55"/>
</a>
</g>
</g>
<!-- Node17 -->
<g id="Node000017" class="node">
<title>Node17</title>
<g id="a_Node000017"><a xlink:href="../../d1/d44/vexception_8h.html" target="_top" xlink:title=" ">
<polygon fill="white" stroke="#666666" points="471.5,-239 391.5,-239 391.5,-220 471.5,-220 471.5,-239"/>
<text text-anchor="middle" x="431.5" y="-227" font-family="Helvetica,sans-Serif" font-size="10.00">vexception.h</text>
</a>
</g>
</g>
<!-- Node1&#45;&gt;Node17 -->
<g id="edge28_Node000001_Node000017" class="edge">
<title>Node1&#45;&gt;Node17</title>
<g id="a_edge28_Node000001_Node000017"><a xlink:title=" ">
<path fill="none" stroke="#63b8ff" d="M397.98,-329.72C402.36,-319.8 408.12,-306.23 412.5,-294 417.85,-279.09 422.94,-261.85 426.5,-249.1"/>
<polygon fill="#63b8ff" stroke="#63b8ff" points="429.94,-249.79 429.21,-239.22 423.19,-247.94 429.94,-249.79"/>
</a>
</g>
</g>
<!-- Node3 -->
<g id="Node000003" class="node">
<title>Node3</title>
<g id="a_Node000003"><a xlink:title=" ">
<polygon fill="#e0e0e0" stroke="#999999" points="808.5,-74 688.5,-74 688.5,-55 808.5,-55 808.5,-74"/>
<text text-anchor="middle" x="748.5" y="-62" font-family="Helvetica,sans-Serif" font-size="10.00">qcompilerdetection.h</text>
</a>
</g>
</g>
<!-- Node2&#45;&gt;Node3 -->
<g id="edge2_Node000002_Node000003" class="edge">
<title>Node2&#45;&gt;Node3</title>
<g id="a_edge2_Node000002_Node000003"><a xlink:title=" ">
<path fill="none" stroke="#63b8ff" d="M403.57,-281.86C477.32,-276.86 612.54,-257.5 696.5,-184 726.69,-157.58 740.06,-110.36 745.39,-84.21"/>
<polygon fill="#63b8ff" stroke="#63b8ff" points="748.88,-84.59 747.26,-74.12 742,-83.32 748.88,-84.59"/>
</a>
</g>
</g>
<!-- Node4 -->
<g id="Node000004" class="node">
<title>Node4</title>
<g id="a_Node000004"><a xlink:title=" ">
<polygon fill="#e0e0e0" stroke="#999999" points="53,-74 0,-74 0,-55 53,-55 53,-74"/>
<text text-anchor="middle" x="26.5" y="-62" font-family="Helvetica,sans-Serif" font-size="10.00">QString</text>
</a>
</g>
</g>
<!-- Node2&#45;&gt;Node4 -->
<g id="edge3_Node000002_Node000004" class="edge">
<title>Node2&#45;&gt;Node4</title>
<g id="a_edge3_Node000002_Node000004"><a xlink:title=" ">
<path fill="none" stroke="#63b8ff" d="M336.32,-274.9C297.01,-252.42 189.03,-189.49 104.5,-129 82.93,-113.57 59.5,-94.1 44.01,-80.81"/>
<polygon fill="#63b8ff" stroke="#63b8ff" points="46.14,-78.02 36.28,-74.13 41.56,-83.32 46.14,-78.02"/>
</a>
</g>
</g>
<!-- Node5 -->
<g id="Node000005" class="node">
<title>Node5</title>
<g id="a_Node000005"><a xlink:href="../../d3/da5/ifcdef_8h.html" target="_top" xlink:title=" ">
<polygon fill="white" stroke="#666666" points="379.5,-184 317.5,-184 317.5,-165 379.5,-165 379.5,-184"/>
<text text-anchor="middle" x="348.5" y="-172" font-family="Helvetica,sans-Serif" font-size="10.00">../ifcdef.h</text>
</a>
</g>
</g>
<!-- Node2&#45;&gt;Node5 -->
<g id="edge4_Node000002_Node000005" class="edge">
<title>Node2&#45;&gt;Node5</title>
<g id="a_edge4_Node000002_Node000005"><a xlink:title=" ">
<path fill="none" stroke="#63b8ff" d="M351.25,-274.66C350.77,-257.17 349.68,-217.8 349.02,-194.27"/>
<polygon fill="#63b8ff" stroke="#63b8ff" points="352.52,-194.06 348.74,-184.16 345.52,-194.25 352.52,-194.06"/>
</a>
</g>
</g>
<!-- Node2&#45;&gt;Node17 -->
<g id="edge22_Node000002_Node000017" class="edge">
<title>Node2&#45;&gt;Node17</title>
<g id="a_edge22_Node000002_Node000017"><a xlink:title=" ">
<path fill="none" stroke="#63b8ff" d="M364.35,-274.98C376.64,-266.84 395.41,-254.41 409.98,-244.76"/>
<polygon fill="#63b8ff" stroke="#63b8ff" points="412.01,-247.61 418.41,-239.17 408.14,-241.78 412.01,-247.61"/>
</a>
</g>
</g>
<!-- Node5&#45;&gt;Node4 -->
<g id="edge5_Node000005_Node000004" class="edge">
<title>Node5&#45;&gt;Node4</title>
<g id="a_edge5_Node000005_Node000004"><a xlink:title=" ">
<path fill="none" stroke="#63b8ff" d="M320.8,-164.95C292.5,-156.15 247.33,-141.94 208.5,-129 156.41,-111.64 96.33,-90.45 59.9,-77.47"/>
<polygon fill="#63b8ff" stroke="#63b8ff" points="60.87,-74.1 50.28,-74.03 58.52,-80.69 60.87,-74.1"/>
</a>
</g>
</g>
<!-- Node6 -->
<g id="Node000006" class="node">
<title>Node6</title>
<g id="a_Node000006"><a xlink:title=" ">
<polygon fill="#e0e0e0" stroke="#999999" points="141.5,-74 71.5,-74 71.5,-55 141.5,-55 141.5,-74"/>
<text text-anchor="middle" x="106.5" y="-62" font-family="Helvetica,sans-Serif" font-size="10.00">QStringList</text>
</a>
</g>
</g>
<!-- Node5&#45;&gt;Node6 -->
<g id="edge6_Node000005_Node000006" class="edge">
<title>Node5&#45;&gt;Node6</title>
<g id="a_edge6_Node000005_Node000006"><a xlink:title=" ">
<path fill="none" stroke="#63b8ff" d="M329.11,-164.84C286.52,-145.84 184.68,-100.39 134.88,-78.17"/>
<polygon fill="#63b8ff" stroke="#63b8ff" points="136.21,-74.93 125.65,-74.05 133.36,-81.32 136.21,-74.93"/>
</a>
</g>
</g>
<!-- Node7 -->
<g id="Node000007" class="node">
<title>Node7</title>
<g id="a_Node000007"><a xlink:title=" ">
<polygon fill="#e0e0e0" stroke="#999999" points="670,-74 611,-74 611,-55 670,-55 670,-74"/>
<text text-anchor="middle" x="640.5" y="-62" font-family="Helvetica,sans-Serif" font-size="10.00">QtGlobal</text>
</a>
</g>
</g>
<!-- Node5&#45;&gt;Node7 -->
<g id="edge7_Node000005_Node000007" class="edge">
<title>Node5&#45;&gt;Node7</title>
<g id="a_edge7_Node000005_Node000007"><a xlink:title=" ">
<path fill="none" stroke="#63b8ff" d="M353.3,-164.87C361.58,-150.87 379.93,-123.43 403.5,-110 478.84,-67.06 512.04,-90.05 600.73,-74.19"/>
<polygon fill="#63b8ff" stroke="#63b8ff" points="601.49,-77.61 610.65,-72.3 600.18,-70.73 601.49,-77.61"/>
</a>
</g>
</g>
<!-- Node8 -->
<g id="Node000008" class="node">
<title>Node8</title>
<g id="a_Node000008"><a xlink:href="../../d4/da4/def_8h.html" target="_top" xlink:title=" ">
<polygon fill="white" stroke="#666666" points="355.5,-129 273.5,-129 273.5,-110 355.5,-110 355.5,-129"/>
<text text-anchor="middle" x="314.5" y="-117" font-family="Helvetica,sans-Serif" font-size="10.00">../vmisc/def.h</text>
</a>
</g>
</g>
<!-- Node5&#45;&gt;Node8 -->
<g id="edge8_Node000005_Node000008" class="edge">
<title>Node5&#45;&gt;Node8</title>
<g id="a_edge8_Node000005_Node000008"><a xlink:title=" ">
<path fill="none" stroke="#63b8ff" d="M342.89,-164.75C338.18,-157.42 331.33,-146.73 325.53,-137.7"/>
<polygon fill="#63b8ff" stroke="#63b8ff" points="328.36,-135.62 320.01,-129.09 322.46,-139.4 328.36,-135.62"/>
</a>
</g>
</g>
<!-- Node16 -->
<g id="Node000016" class="node">
<title>Node16</title>
<g id="a_Node000016"><a xlink:href="../../d6/dcd/diagnostic_8h.html" target="_top" xlink:title=" ">
<polygon fill="white" stroke="#666666" points="529,-129 412,-129 412,-110 529,-110 529,-129"/>
<text text-anchor="middle" x="470.5" y="-117" font-family="Helvetica,sans-Serif" font-size="10.00">../vmisc/diagnostic.h</text>
</a>
</g>
</g>
<!-- Node5&#45;&gt;Node16 -->
<g id="edge20_Node000005_Node000016" class="edge">
<title>Node5&#45;&gt;Node16</title>
<g id="a_edge20_Node000005_Node000016"><a xlink:title=" ">
<path fill="none" stroke="#63b8ff" d="M368.1,-164.98C387.82,-156.42 418.45,-143.11 441.08,-133.28"/>
<polygon fill="#63b8ff" stroke="#63b8ff" points="442.76,-136.37 450.54,-129.17 439.98,-129.94 442.76,-136.37"/>
</a>
</g>
</g>
<!-- Node8&#45;&gt;Node3 -->
<g id="edge9_Node000008_Node000003" class="edge">
<title>Node8&#45;&gt;Node3</title>
<g id="a_edge9_Node000008_Node000003"><a xlink:title=" ">
<path fill="none" stroke="#63b8ff" d="M355.56,-113.51C421.33,-105.52 554.69,-89.29 678.27,-74.15"/>
<polygon fill="#63b8ff" stroke="#63b8ff" points="678.79,-77.61 688.29,-72.92 677.94,-70.66 678.79,-77.61"/>
</a>
</g>
</g>
<!-- Node8&#45;&gt;Node4 -->
<g id="edge12_Node000008_Node000004" class="edge">
<title>Node8&#45;&gt;Node4</title>
<g id="a_edge12_Node000008_Node000004"><a xlink:title=" ">
<path fill="none" stroke="#63b8ff" d="M273.33,-111.97C225.38,-104.2 143.53,-90.44 63.46,-74.09"/>
<polygon fill="#63b8ff" stroke="#63b8ff" points="63.7,-70.57 53.2,-71.98 62.29,-77.43 63.7,-70.57"/>
</a>
</g>
</g>
<!-- Node8&#45;&gt;Node6 -->
<g id="edge13_Node000008_Node000006" class="edge">
<title>Node8&#45;&gt;Node6</title>
<g id="a_edge13_Node000008_Node000006"><a xlink:title=" ">
<path fill="none" stroke="#63b8ff" d="M281.08,-109.98C245.56,-100.93 189.23,-86.58 150.2,-76.64"/>
<polygon fill="#63b8ff" stroke="#63b8ff" points="150.74,-73.16 140.18,-74.08 149.01,-79.94 150.74,-73.16"/>
</a>
</g>
</g>
<!-- Node8&#45;&gt;Node7 -->
<g id="edge15_Node000008_Node000007" class="edge">
<title>Node8&#45;&gt;Node7</title>
<g id="a_edge15_Node000008_Node000007"><a xlink:title=" ">
<path fill="none" stroke="#63b8ff" d="M355.65,-112.14C360.32,-111.42 365.01,-110.69 369.5,-110 469.92,-94.48 497.86,-93.5 600.8,-74.23"/>
<polygon fill="#63b8ff" stroke="#63b8ff" points="601.49,-77.66 610.67,-72.37 600.19,-70.78 601.49,-77.66"/>
</a>
</g>
</g>
<!-- Node9 -->
<g id="Node000009" class="node">
<title>Node9</title>
<g id="a_Node000009"><a xlink:title=" ">
<polygon fill="#e0e0e0" stroke="#999999" points="593,-74 520,-74 520,-55 593,-55 593,-74"/>
<text text-anchor="middle" x="556.5" y="-62" font-family="Helvetica,sans-Serif" font-size="10.00">QFileDialog</text>
</a>
</g>
</g>
<!-- Node8&#45;&gt;Node9 -->
<g id="edge10_Node000008_Node000009" class="edge">
<title>Node8&#45;&gt;Node9</title>
<g id="a_edge10_Node000008_Node000009"><a xlink:title=" ">
<path fill="none" stroke="#63b8ff" d="M353.38,-109.98C395.99,-100.65 464.31,-85.69 509.79,-75.73"/>
<polygon fill="#63b8ff" stroke="#63b8ff" points="510.68,-79.12 519.7,-73.56 509.18,-72.28 510.68,-79.12"/>
</a>
</g>
</g>
<!-- Node10 -->
<g id="Node000010" class="node">
<title>Node10</title>
<g id="a_Node000010"><a xlink:title=" ">
<polygon fill="#e0e0e0" stroke="#999999" points="209.5,-74 159.5,-74 159.5,-55 209.5,-55 209.5,-74"/>
<text text-anchor="middle" x="184.5" y="-62" font-family="Helvetica,sans-Serif" font-size="10.00">QLineF</text>
</a>
</g>
</g>
<!-- Node8&#45;&gt;Node10 -->
<g id="edge11_Node000008_Node000010" class="edge">
<title>Node8&#45;&gt;Node10</title>
<g id="a_edge11_Node000008_Node000010"><a xlink:title=" ">
<path fill="none" stroke="#63b8ff" d="M293.61,-109.98C272.42,-101.34 239.37,-87.87 215.2,-78.02"/>
<polygon fill="#63b8ff" stroke="#63b8ff" points="216.35,-74.7 205.77,-74.17 213.71,-81.19 216.35,-74.7"/>
</a>
</g>
</g>
<!-- Node11 -->
<g id="Node000011" class="node">
<title>Node11</title>
<g id="a_Node000011"><a xlink:title=" ">
<polygon fill="#e0e0e0" stroke="#999999" points="257,-74 228,-74 228,-55 257,-55 257,-74"/>
<text text-anchor="middle" x="242.5" y="-62" font-family="Helvetica,sans-Serif" font-size="10.00">Qt</text>
</a>
</g>
</g>
<!-- Node8&#45;&gt;Node11 -->
<g id="edge14_Node000008_Node000011" class="edge">
<title>Node8&#45;&gt;Node11</title>
<g id="a_edge14_Node000008_Node000011"><a xlink:title=" ">
<path fill="none" stroke="#63b8ff" d="M302.93,-109.98C292.08,-102 275.62,-89.88 262.62,-80.31"/>
<polygon fill="#63b8ff" stroke="#63b8ff" points="264.41,-77.28 254.28,-74.17 260.26,-82.92 264.41,-77.28"/>
</a>
</g>
</g>
<!-- Node12 -->
<g id="Node000012" class="node">
<title>Node12</title>
<g id="a_Node000012"><a xlink:title=" ">
<polygon fill="#e0e0e0" stroke="#999999" points="331.5,-74 275.5,-74 275.5,-55 331.5,-55 331.5,-74"/>
<text text-anchor="middle" x="303.5" y="-62" font-family="Helvetica,sans-Serif" font-size="10.00">QPrinter</text>
</a>
</g>
</g>
<!-- Node8&#45;&gt;Node12 -->
<g id="edge16_Node000008_Node000012" class="edge">
<title>Node8&#45;&gt;Node12</title>
<g id="a_edge16_Node000008_Node000012"><a xlink:title=" ">
<path fill="none" stroke="#63b8ff" d="M312.68,-109.75C311.24,-102.8 309.18,-92.85 307.37,-84.13"/>
<polygon fill="#63b8ff" stroke="#63b8ff" points="310.74,-83.17 305.28,-74.09 303.89,-84.59 310.74,-83.17"/>
</a>
</g>
</g>
<!-- Node13 -->
<g id="Node000013" class="node">
<title>Node13</title>
<g id="a_Node000013"><a xlink:title=" ">
<polygon fill="#e0e0e0" stroke="#999999" points="401,-74 350,-74 350,-55 401,-55 401,-74"/>
<text text-anchor="middle" x="375.5" y="-62" font-family="Helvetica,sans-Serif" font-size="10.00">csignal</text>
</a>
</g>
</g>
<!-- Node8&#45;&gt;Node13 -->
<g id="edge17_Node000008_Node000013" class="edge">
<title>Node8&#45;&gt;Node13</title>
<g id="a_edge17_Node000008_Node000013"><a xlink:title=" ">
<path fill="none" stroke="#63b8ff" d="M324.3,-109.98C333.32,-102.15 346.91,-90.34 357.82,-80.86"/>
<polygon fill="#63b8ff" stroke="#63b8ff" points="360.27,-83.37 365.52,-74.17 355.68,-78.09 360.27,-83.37"/>
</a>
</g>
</g>
<!-- Node14 -->
<g id="Node000014" class="node">
<title>Node14</title>
<g id="a_Node000014"><a xlink:href="../../d4/d82/debugbreak_8h.html" target="_top" xlink:title=" ">
<polygon fill="white" stroke="#666666" points="502,-74 419,-74 419,-55 502,-55 502,-74"/>
<text text-anchor="middle" x="460.5" y="-62" font-family="Helvetica,sans-Serif" font-size="10.00">debugbreak.h</text>
</a>
</g>
</g>
<!-- Node8&#45;&gt;Node14 -->
<g id="edge18_Node000008_Node000014" class="edge">
<title>Node8&#45;&gt;Node14</title>
<g id="a_edge18_Node000008_Node000014"><a xlink:title=" ">
<path fill="none" stroke="#63b8ff" d="M337.96,-109.98C362.08,-101.23 399.87,-87.51 427.1,-77.62"/>
<polygon fill="#63b8ff" stroke="#63b8ff" points="428.41,-80.87 436.62,-74.17 426.02,-74.29 428.41,-80.87"/>
</a>
</g>
</g>
<!-- Node15 -->
<g id="Node000015" class="node">
<title>Node15</title>
<g id="a_Node000015"><a xlink:title=" ">
<polygon fill="#e0e0e0" stroke="#999999" points="488,-19 433,-19 433,0 488,0 488,-19"/>
<text text-anchor="middle" x="460.5" y="-7" font-family="Helvetica,sans-Serif" font-size="10.00">signal.h</text>
</a>
</g>
</g>
<!-- Node14&#45;&gt;Node15 -->
<g id="edge19_Node000014_Node000015" class="edge">
<title>Node14&#45;&gt;Node15</title>
<g id="a_edge19_Node000014_Node000015"><a xlink:title=" ">
<path fill="none" stroke="#63b8ff" d="M460.5,-54.75C460.5,-47.8 460.5,-37.85 460.5,-29.13"/>
<polygon fill="#63b8ff" stroke="#63b8ff" points="464,-29.09 460.5,-19.09 457,-29.09 464,-29.09"/>
</a>
</g>
</g>
<!-- Node16&#45;&gt;Node7 -->
<g id="edge21_Node000016_Node000007" class="edge">
<title>Node16&#45;&gt;Node7</title>
<g id="a_edge21_Node000016_Node000007"><a xlink:title=" ">
<path fill="none" stroke="#63b8ff" d="M497.81,-109.98C526.35,-101.09 571.33,-87.07 603.14,-77.15"/>
<polygon fill="#63b8ff" stroke="#63b8ff" points="604.47,-80.4 612.97,-74.08 602.38,-73.72 604.47,-80.4"/>
</a>
</g>
</g>
<!-- Node17&#45;&gt;Node3 -->
<g id="edge23_Node000017_Node000003" class="edge">
<title>Node17&#45;&gt;Node3</title>
<g id="a_edge23_Node000017_Node000003"><a xlink:title=" ">
<path fill="none" stroke="#63b8ff" d="M448.1,-219.97C499.97,-193.29 659.36,-111.34 722.42,-78.91"/>
<polygon fill="#63b8ff" stroke="#63b8ff" points="724.39,-81.83 731.68,-74.15 721.19,-75.61 724.39,-81.83"/>
</a>
</g>
</g>
<!-- Node17&#45;&gt;Node4 -->
<g id="edge26_Node000017_Node000004" class="edge">
<title>Node17&#45;&gt;Node4</title>
<g id="a_edge26_Node000017_Node000004"><a xlink:title=" ">
<path fill="none" stroke="#63b8ff" d="M402.87,-219.92C351.2,-204.1 239.29,-168.35 148.5,-129 113.3,-113.74 74.23,-92.62 50.01,-79.01"/>
<polygon fill="#63b8ff" stroke="#63b8ff" points="51.62,-75.9 41.19,-74.02 48.17,-81.99 51.62,-75.9"/>
</a>
</g>
</g>
<!-- Node17&#45;&gt;Node5 -->
<g id="edge27_Node000017_Node000005" class="edge">
<title>Node17&#45;&gt;Node5</title>
<g id="a_edge27_Node000017_Node000005"><a xlink:title=" ">
<path fill="none" stroke="#63b8ff" d="M418.16,-219.98C405.41,-211.84 385.95,-199.41 370.83,-189.76"/>
<polygon fill="#63b8ff" stroke="#63b8ff" points="372.39,-186.6 362.08,-184.17 368.62,-192.5 372.39,-186.6"/>
</a>
</g>
</g>
<!-- Node18 -->
<g id="Node000018" class="node">
<title>Node18</title>
<g id="a_Node000018"><a xlink:title=" ">
<polygon fill="#e0e0e0" stroke="#999999" points="687,-184 586,-184 586,-165 687,-165 687,-184"/>
<text text-anchor="middle" x="636.5" y="-172" font-family="Helvetica,sans-Serif" font-size="10.00">QCoreApplication</text>
</a>
</g>
</g>
<!-- Node17&#45;&gt;Node18 -->
<g id="edge24_Node000017_Node000018" class="edge">
<title>Node17&#45;&gt;Node18</title>
<g id="a_edge24_Node000017_Node000018"><a xlink:title=" ">
<path fill="none" stroke="#63b8ff" d="M464.44,-219.98C499.45,-210.93 554.97,-196.58 593.43,-186.64"/>
<polygon fill="#63b8ff" stroke="#63b8ff" points="594.5,-189.97 603.31,-184.08 592.75,-183.2 594.5,-189.97"/>
</a>
</g>
</g>
<!-- Node19 -->
<g id="Node000019" class="node">
<title>Node19</title>
<g id="a_Node000019"><a xlink:title=" ">
<polygon fill="#e0e0e0" stroke="#999999" points="469.5,-184 397.5,-184 397.5,-165 469.5,-165 469.5,-184"/>
<text text-anchor="middle" x="433.5" y="-172" font-family="Helvetica,sans-Serif" font-size="10.00">QException</text>
</a>
</g>
</g>
<!-- Node17&#45;&gt;Node19 -->
<g id="edge25_Node000017_Node000019" class="edge">
<title>Node17&#45;&gt;Node19</title>
<g id="a_edge25_Node000017_Node000019"><a xlink:title=" ">
<path fill="none" stroke="#63b8ff" d="M431.83,-219.75C432.09,-212.8 432.47,-202.85 432.8,-194.13"/>
<polygon fill="#63b8ff" stroke="#63b8ff" points="436.3,-194.21 433.18,-184.09 429.3,-193.95 436.3,-194.21"/>
</a>
</g>
</g>
</g>
</svg>
