<?xml version="1.0" encoding="UTF-8" standalone="no"?>
<!DOCTYPE svg PUBLIC "-//W3C//DTD SVG 1.1//EN"
 "http://www.w3.org/Graphics/SVG/1.1/DTD/svg11.dtd">
<!-- Generated by graphviz version 2.43.0 (0)
 -->
<!-- Title: VSettings Pages: 1 -->
<svg width="187pt" height="928pt"
 viewBox="0.00 0.00 187.00 928.00" xmlns="http://www.w3.org/2000/svg" xmlns:xlink="http://www.w3.org/1999/xlink">
<g id="graph0" class="graph" transform="scale(1 1) rotate(0) translate(4 924)">
<title>VSettings</title>
<!-- Node1 -->
<g id="Node000001" class="node">
<title>Node1</title>
<g id="a_Node000001"><a xlink:title=" ">
<polygon fill="#999999" stroke="transparent" points="179,-409 0,-409 0,0 179,0 179,-409"/>
<text text-anchor="start" x="66.5" y="-396.5" font-family="Helvetica,sans-Serif" font-size="10.00">VSettings</text>
<text text-anchor="start" x="88" y="-381.5" font-family="Helvetica,sans-Serif" font-size="10.00"> </text>
<text text-anchor="start" x="4.5" y="-366.5" font-family="Helvetica,sans-Serif" font-size="10.00">+</text>
<text text-anchor="start" x="17.5" y="-366.5" font-family="Helvetica,sans-Serif" font-size="10.00">VSettings()</text>
<text text-anchor="start" x="4.5" y="-351.5" font-family="Helvetica,sans-Serif" font-size="10.00">+</text>
<text text-anchor="start" x="17.5" y="-351.5" font-family="Helvetica,sans-Serif" font-size="10.00">GetLabelLanguage()</text>
<text text-anchor="start" x="4.5" y="-336.5" font-family="Helvetica,sans-Serif" font-size="10.00">+</text>
<text text-anchor="start" x="17.5" y="-336.5" font-family="Helvetica,sans-Serif" font-size="10.00">SetLabelLanguage()</text>
<text text-anchor="start" x="4.5" y="-321.5" font-family="Helvetica,sans-Serif" font-size="10.00">+</text>
<text text-anchor="start" x="17.5" y="-321.5" font-family="Helvetica,sans-Serif" font-size="10.00">getPatternPath()</text>
<text text-anchor="start" x="4.5" y="-306.5" font-family="Helvetica,sans-Serif" font-size="10.00">+</text>
<text text-anchor="start" x="17.5" y="-306.5" font-family="Helvetica,sans-Serif" font-size="10.00">SetPathPattern()</text>
<text text-anchor="start" x="4.5" y="-291.5" font-family="Helvetica,sans-Serif" font-size="10.00">+</text>
<text text-anchor="start" x="17.5" y="-291.5" font-family="Helvetica,sans-Serif" font-size="10.00">getLayoutPath()</text>
<text text-anchor="start" x="4.5" y="-276.5" font-family="Helvetica,sans-Serif" font-size="10.00">+</text>
<text text-anchor="start" x="17.5" y="-276.5" font-family="Helvetica,sans-Serif" font-size="10.00">SetPathLayout()</text>
<text text-anchor="start" x="4.5" y="-261.5" font-family="Helvetica,sans-Serif" font-size="10.00">+</text>
<text text-anchor="start" x="17.5" y="-261.5" font-family="Helvetica,sans-Serif" font-size="10.00">GetGraphicalOutput()</text>
<text text-anchor="start" x="4.5" y="-246.5" font-family="Helvetica,sans-Serif" font-size="10.00">+</text>
<text text-anchor="start" x="17.5" y="-246.5" font-family="Helvetica,sans-Serif" font-size="10.00">SetGraphicalOutput()</text>
<text text-anchor="start" x="4.5" y="-231.5" font-family="Helvetica,sans-Serif" font-size="10.00">+</text>
<text text-anchor="start" x="17.5" y="-231.5" font-family="Helvetica,sans-Serif" font-size="10.00">GetServer()</text>
<text text-anchor="start" x="17.5" y="-216.5" font-family="Helvetica,sans-Serif" font-size="10.00">and 57 more...</text>
<text text-anchor="start" x="4.5" y="-201.5" font-family="Helvetica,sans-Serif" font-size="10.00">+</text>
<text text-anchor="start" x="17.5" y="-201.5" font-family="Helvetica,sans-Serif" font-size="10.00">getDefaultPatternPath()</text>
<text text-anchor="start" x="4.5" y="-186.5" font-family="Helvetica,sans-Serif" font-size="10.00">+</text>
<text text-anchor="start" x="17.5" y="-186.5" font-family="Helvetica,sans-Serif" font-size="10.00">getDefaultLayoutPath()</text>
<text text-anchor="start" x="4.5" y="-171.5" font-family="Helvetica,sans-Serif" font-size="10.00">+</text>
<text text-anchor="start" x="17.5" y="-171.5" font-family="Helvetica,sans-Serif" font-size="10.00">GetDefLayoutShift()</text>
<text text-anchor="start" x="4.5" y="-156.5" font-family="Helvetica,sans-Serif" font-size="10.00">+</text>
<text text-anchor="start" x="17.5" y="-156.5" font-family="Helvetica,sans-Serif" font-size="10.00">GetDefLayoutWidth()</text>
<text text-anchor="start" x="4.5" y="-141.5" font-family="Helvetica,sans-Serif" font-size="10.00">+</text>
<text text-anchor="start" x="17.5" y="-141.5" font-family="Helvetica,sans-Serif" font-size="10.00">GetDefLayoutGroup()</text>
<text text-anchor="start" x="4.5" y="-126.5" font-family="Helvetica,sans-Serif" font-size="10.00">+</text>
<text text-anchor="start" x="17.5" y="-126.5" font-family="Helvetica,sans-Serif" font-size="10.00">GetDefLayoutRotate()</text>
<text text-anchor="start" x="4.5" y="-111.5" font-family="Helvetica,sans-Serif" font-size="10.00">+</text>
<text text-anchor="start" x="17.5" y="-111.5" font-family="Helvetica,sans-Serif" font-size="10.00">GetDefLayoutRotationIncrease()</text>
<text text-anchor="start" x="4.5" y="-96.5" font-family="Helvetica,sans-Serif" font-size="10.00">+</text>
<text text-anchor="start" x="17.5" y="-96.5" font-family="Helvetica,sans-Serif" font-size="10.00">GetDefLayoutAutoCrop()</text>
<text text-anchor="start" x="4.5" y="-81.5" font-family="Helvetica,sans-Serif" font-size="10.00">+</text>
<text text-anchor="start" x="17.5" y="-81.5" font-family="Helvetica,sans-Serif" font-size="10.00">GetDefLayoutSaveLength()</text>
<text text-anchor="start" x="4.5" y="-66.5" font-family="Helvetica,sans-Serif" font-size="10.00">+</text>
<text text-anchor="start" x="17.5" y="-66.5" font-family="Helvetica,sans-Serif" font-size="10.00">GetDefLayoutUnitePages()</text>
<text text-anchor="start" x="4.5" y="-51.5" font-family="Helvetica,sans-Serif" font-size="10.00">+</text>
<text text-anchor="start" x="17.5" y="-51.5" font-family="Helvetica,sans-Serif" font-size="10.00">GetDefIgnoreAllFields()</text>
<text text-anchor="start" x="4.5" y="-36.5" font-family="Helvetica,sans-Serif" font-size="10.00">+</text>
<text text-anchor="start" x="17.5" y="-36.5" font-family="Helvetica,sans-Serif" font-size="10.00">GetDefStripOptimization()</text>
<text text-anchor="start" x="4.5" y="-21.5" font-family="Helvetica,sans-Serif" font-size="10.00">+</text>
<text text-anchor="start" x="17.5" y="-21.5" font-family="Helvetica,sans-Serif" font-size="10.00">GetDefMultiplier()</text>
<text text-anchor="start" x="4.5" y="-6.5" font-family="Helvetica,sans-Serif" font-size="10.00">+</text>
<text text-anchor="start" x="17.5" y="-6.5" font-family="Helvetica,sans-Serif" font-size="10.00">GetDefTextAsPaths()</text>
<polygon fill="#666666" stroke="#666666" points="0.5,-391.5 0.5,-391.5 179.5,-391.5 179.5,-391.5 0.5,-391.5"/>
<polygon fill="#666666" stroke="#666666" points="0.5,-376.5 0.5,-376.5 179.5,-376.5 179.5,-376.5 0.5,-376.5"/>
<polygon fill="none" stroke="#666666" points="0,0 0,-409 179,-409 179,0 0,0"/>
</a>
</g>
</g>
<!-- Node2 -->
<g id="Node000002" class="node">
<title>Node2</title>
<g id="a_Node000002"><a xlink:href="../../de/d0f/classVCommonSettings.html" target="_top" xlink:title=" ">
<polygon fill="white" stroke="transparent" points="176,-835 3,-835 3,-445 176,-445 176,-835"/>
<text text-anchor="start" x="44.5" y="-823" font-family="Helvetica,sans-Serif" font-size="10.00">VCommonSettings</text>
<text text-anchor="start" x="7.5" y="-808" font-family="Helvetica,sans-Serif" font-size="10.00">+</text>
<text text-anchor="start" x="20.5" y="-808" font-family="Helvetica,sans-Serif" font-size="10.00">unixStandardSharePath</text>
<text text-anchor="start" x="7.5" y="-793" font-family="Helvetica,sans-Serif" font-size="10.00">+</text>
<text text-anchor="start" x="20.5" y="-793" font-family="Helvetica,sans-Serif" font-size="10.00">VCommonSettings()</text>
<text text-anchor="start" x="7.5" y="-778" font-family="Helvetica,sans-Serif" font-size="10.00">+</text>
<text text-anchor="start" x="20.5" y="-778" font-family="Helvetica,sans-Serif" font-size="10.00">getIndividualSizePath()</text>
<text text-anchor="start" x="7.5" y="-763" font-family="Helvetica,sans-Serif" font-size="10.00">+</text>
<text text-anchor="start" x="20.5" y="-763" font-family="Helvetica,sans-Serif" font-size="10.00">setIndividualSizePath()</text>
<text text-anchor="start" x="7.5" y="-748" font-family="Helvetica,sans-Serif" font-size="10.00">+</text>
<text text-anchor="start" x="20.5" y="-748" font-family="Helvetica,sans-Serif" font-size="10.00">getMultisizePath()</text>
<text text-anchor="start" x="7.5" y="-733" font-family="Helvetica,sans-Serif" font-size="10.00">+</text>
<text text-anchor="start" x="20.5" y="-733" font-family="Helvetica,sans-Serif" font-size="10.00">setMultisizePath()</text>
<text text-anchor="start" x="7.5" y="-718" font-family="Helvetica,sans-Serif" font-size="10.00">+</text>
<text text-anchor="start" x="20.5" y="-718" font-family="Helvetica,sans-Serif" font-size="10.00">getBodyScansPath()</text>
<text text-anchor="start" x="7.5" y="-703" font-family="Helvetica,sans-Serif" font-size="10.00">+</text>
<text text-anchor="start" x="20.5" y="-703" font-family="Helvetica,sans-Serif" font-size="10.00">setBodyScansPath()</text>
<text text-anchor="start" x="7.5" y="-688" font-family="Helvetica,sans-Serif" font-size="10.00">+</text>
<text text-anchor="start" x="20.5" y="-688" font-family="Helvetica,sans-Serif" font-size="10.00">getTemplatePath()</text>
<text text-anchor="start" x="7.5" y="-673" font-family="Helvetica,sans-Serif" font-size="10.00">+</text>
<text text-anchor="start" x="20.5" y="-673" font-family="Helvetica,sans-Serif" font-size="10.00">setTemplatePath()</text>
<text text-anchor="start" x="7.5" y="-658" font-family="Helvetica,sans-Serif" font-size="10.00">+</text>
<text text-anchor="start" x="20.5" y="-658" font-family="Helvetica,sans-Serif" font-size="10.00">getLabelTemplatePath()</text>
<text text-anchor="start" x="20.5" y="-643" font-family="Helvetica,sans-Serif" font-size="10.00">and 261 more...</text>
<text text-anchor="start" x="7.5" y="-628" font-family="Helvetica,sans-Serif" font-size="10.00">+</text>
<text text-anchor="start" x="20.5" y="-628" font-family="Helvetica,sans-Serif" font-size="10.00">SharePath()</text>
<text text-anchor="start" x="7.5" y="-613" font-family="Helvetica,sans-Serif" font-size="10.00">+</text>
<text text-anchor="start" x="20.5" y="-613" font-family="Helvetica,sans-Serif" font-size="10.00">MultisizeTablesPath()</text>
<text text-anchor="start" x="7.5" y="-598" font-family="Helvetica,sans-Serif" font-size="10.00">+</text>
<text text-anchor="start" x="20.5" y="-598" font-family="Helvetica,sans-Serif" font-size="10.00">StandardTemplatesPath()</text>
<text text-anchor="start" x="7.5" y="-583" font-family="Helvetica,sans-Serif" font-size="10.00">+</text>
<text text-anchor="start" x="20.5" y="-583" font-family="Helvetica,sans-Serif" font-size="10.00">PrepareStandardTemplates()</text>
<text text-anchor="start" x="7.5" y="-568" font-family="Helvetica,sans-Serif" font-size="10.00">+</text>
<text text-anchor="start" x="20.5" y="-568" font-family="Helvetica,sans-Serif" font-size="10.00">prepareMultisizeTables()</text>
<text text-anchor="start" x="7.5" y="-553" font-family="Helvetica,sans-Serif" font-size="10.00">+</text>
<text text-anchor="start" x="20.5" y="-553" font-family="Helvetica,sans-Serif" font-size="10.00">getDefaultIndividualSize</text>
<text text-anchor="start" x="20.5" y="-542" font-family="Helvetica,sans-Serif" font-size="10.00">Path()</text>
<text text-anchor="start" x="7.5" y="-527" font-family="Helvetica,sans-Serif" font-size="10.00">+</text>
<text text-anchor="start" x="20.5" y="-527" font-family="Helvetica,sans-Serif" font-size="10.00">getDefaultMultisizePath()</text>
<text text-anchor="start" x="7.5" y="-512" font-family="Helvetica,sans-Serif" font-size="10.00">+</text>
<text text-anchor="start" x="20.5" y="-512" font-family="Helvetica,sans-Serif" font-size="10.00">getDefaultBodyScansPath()</text>
<text text-anchor="start" x="7.5" y="-497" font-family="Helvetica,sans-Serif" font-size="10.00">+</text>
<text text-anchor="start" x="20.5" y="-497" font-family="Helvetica,sans-Serif" font-size="10.00">getDefaultTemplatePath()</text>
<text text-anchor="start" x="7.5" y="-482" font-family="Helvetica,sans-Serif" font-size="10.00">+</text>
<text text-anchor="start" x="20.5" y="-482" font-family="Helvetica,sans-Serif" font-size="10.00">getDefaultLabelTemplatePath()</text>
<text text-anchor="start" x="7.5" y="-467" font-family="Helvetica,sans-Serif" font-size="10.00">+</text>
<text text-anchor="start" x="20.5" y="-467" font-family="Helvetica,sans-Serif" font-size="10.00">PredefinedDateFormats()</text>
<text text-anchor="start" x="7.5" y="-452" font-family="Helvetica,sans-Serif" font-size="10.00">+</text>
<text text-anchor="start" x="20.5" y="-452" font-family="Helvetica,sans-Serif" font-size="10.00">PredefinedTimeFormats()</text>
<polygon fill="#666666" stroke="#666666" points="3.5,-818 3.5,-818 176.5,-818 176.5,-818 3.5,-818"/>
<polygon fill="#666666" stroke="#666666" points="3.5,-803 3.5,-803 18.5,-803 18.5,-803 3.5,-803"/>
<polygon fill="#666666" stroke="#666666" points="18.5,-803 18.5,-803 176.5,-803 176.5,-803 18.5,-803"/>
<polygon fill="none" stroke="#666666" points="3,-445 3,-835 176,-835 176,-445 3,-445"/>
</a>
</g>
</g>
<!-- Node2&#45;&gt;Node1 -->
<g id="edge1_Node000001_Node000002" class="edge">
<title>Node2&#45;&gt;Node1</title>
<g id="a_edge1_Node000001_Node000002"><a xlink:title=" ">
<path fill="none" stroke="#63b8ff" d="M89.5,-434.48C89.5,-426.05 89.5,-417.58 89.5,-409.15"/>
<polygon fill="none" stroke="#63b8ff" points="86,-434.76 89.5,-444.76 93,-434.76 86,-434.76"/>
</a>
</g>
</g>
<!-- Node3 -->
<g id="Node000003" class="node">
<title>Node3</title>
<g id="a_Node000003"><a xlink:title=" ">
<polygon fill="white" stroke="transparent" points="118.5,-920 60.5,-920 60.5,-871 118.5,-871 118.5,-920"/>
<text text-anchor="start" x="65.5" y="-907.5" font-family="Helvetica,sans-Serif" font-size="10.00">QSettings</text>
<text text-anchor="start" x="87.5" y="-892.5" font-family="Helvetica,sans-Serif" font-size="10.00"> </text>
<text text-anchor="start" x="87.5" y="-877.5" font-family="Helvetica,sans-Serif" font-size="10.00"> </text>
<polygon fill="#666666" stroke="#666666" points="60.5,-902.5 60.5,-902.5 118.5,-902.5 118.5,-902.5 60.5,-902.5"/>
<polygon fill="#666666" stroke="#666666" points="60.5,-887.5 60.5,-887.5 118.5,-887.5 118.5,-887.5 60.5,-887.5"/>
<polygon fill="none" stroke="#666666" points="60.5,-871 60.5,-920 118.5,-920 118.5,-871 60.5,-871"/>
</a>
</g>
</g>
<!-- Node3&#45;&gt;Node2 -->
<g id="edge2_Node000002_Node000003" class="edge">
<title>Node3&#45;&gt;Node2</title>
<g id="a_edge2_Node000002_Node000003"><a xlink:title=" ">
<path fill="none" stroke="#63b8ff" d="M89.5,-860.57C89.5,-852.95 89.5,-844.34 89.5,-835.04"/>
<polygon fill="none" stroke="#63b8ff" points="86,-860.65 89.5,-870.65 93,-860.65 86,-860.65"/>
</a>
</g>
</g>
</g>
</svg>
