<?xml version="1.0" encoding="UTF-8" standalone="no"?>
<!DOCTYPE svg PUBLIC "-//W3C//DTD SVG 1.1//EN"
 "http://www.w3.org/Graphics/SVG/1.1/DTD/svg11.dtd">
<!-- Generated by graphviz version 2.43.0 (0)
 -->
<!-- Title: src/libs/vwidgets/nonscalingfill_pathitem.cpp Pages: 1 -->
<!--zoomable 258 -->

<svg id="main" version="1.1" xmlns="http://www.w3.org/2000/svg" xmlns:xlink="http://www.w3.org/1999/xlink" xml:space="preserve" onload="init(evt)">
<style type="text/css"><![CDATA[
.node, .edge {opacity: 0.7;}
.node.selected, .edge.selected {opacity: 1;}
.edge:hover path { stroke: red; }
.edge:hover polygon { stroke: red; fill: red; }
]]></style>

<defs>
  <circle id="rim" cx="0" cy="0" r="7"/>
  <circle id="rim2" cx="0" cy="0" r="3.5"/>
  <g id="zoomPlus">
    <use xlink:href="#rim" fill="#404040"><set attributeName="fill" to="#808080" begin="zoomplus.mouseover" end="zoomplus.mouseout"/></use>
    <path d="M-4,0h8M0,-4v8" fill="none" stroke="white" stroke-width="1.5" pointer-events="none"/>
  </g>
  <g id="zoomMin">
    <use xlink:href="#rim" fill="#404040"><set attributeName="fill" to="#808080" begin="zoomminus.mouseover" end="zoomminus.mouseout"/></use>
    <path d="M-4,0h8" fill="none" stroke="white" stroke-width="1.5" pointer-events="none"/>
  </g>
  <g id="arrowUp" transform="translate(30 24)">
    <use xlink:href="#rim"/>
    <path pointer-events="none" fill="none" stroke="white" stroke-width="1.5" d="M0,-3.0v7 M-2.5,-0.5L0,-3.0L2.5,-0.5"/>
  </g>
  <g id="arrowRight" transform="rotate(90) translate(36 -43)">
    <use xlink:href="#rim"/>
    <path pointer-events="none" fill="none" stroke="white" stroke-width="1.5" d="M0,-3.0v7 M-2.5,-0.5L0,-3.0L2.5,-0.5"/>
  </g>
  <g id="arrowDown" transform="rotate(180) translate(-30 -48)">
    <use xlink:href="#rim"/>
    <path pointer-events="none" fill="none" stroke="white" stroke-width="1.5" d="M0,-3.0v7 M-2.5,-0.5L0,-3.0L2.5,-0.5"/>
  </g>
  <g id="arrowLeft" transform="rotate(270) translate(-36 17)">
    <use xlink:href="#rim"/>
    <path pointer-events="none" fill="none" stroke="white" stroke-width="1.5" d="M0,-3.0v7 M-2.5,-0.5L0,-3.0L2.5,-0.5"/>
  </g>
  <g id="resetDef">
    <use xlink:href="#rim2" fill="#404040"><set attributeName="fill" to="#808080" begin="reset.mouseover" end="reset.mouseout"/></use>
  </g>
</defs>
<script type="application/ecmascript">
var viewWidth = 817;
var viewHeight = 258;
var sectionId = 'dynsection-0';
</script>
<script type="application/ecmascript" xlink:href="../../svg.min.js"/>
<svg id="graph" class="graph">
<g id="viewport">
<title>src/libs/vwidgets/nonscalingfill_pathitem.cpp</title>
<!-- Node1 -->
<g id="Node000001" class="node">
<title>Node1</title>
<g id="a_Node000001"><a xlink:title=" ">
<polygon fill="#999999" stroke="#666666" points="519,-250 353,-250 353,-220 519,-220 519,-250"/>
<text text-anchor="start" x="361" y="-238" font-family="Helvetica,sans-Serif" font-size="10.00">src/libs/vwidgets/nonscalingfill</text>
<text text-anchor="middle" x="436" y="-227" font-family="Helvetica,sans-Serif" font-size="10.00">_pathitem.cpp</text>
</a>
</g>
</g>
<!-- Node2 -->
<g id="Node000002" class="node">
<title>Node2</title>
<g id="a_Node000002"><a xlink:href="../../dd/d15/nonscalingfill__pathitem_8h.html" target="_top" xlink:title=" ">
<polygon fill="white" stroke="#666666" points="356,-184 216,-184 216,-165 356,-165 356,-184"/>
<text text-anchor="middle" x="286" y="-172" font-family="Helvetica,sans-Serif" font-size="10.00">nonscalingfill_pathitem.h</text>
</a>
</g>
</g>
<!-- Node1&#45;&gt;Node2 -->
<g id="edge1_Node000001_Node000002" class="edge">
<title>Node1&#45;&gt;Node2</title>
<g id="a_edge1_Node000001_Node000002"><a xlink:title=" ">
<path fill="none" stroke="#63b8ff" d="M400.07,-219.99C374.93,-210.18 341.67,-197.21 317.55,-187.81"/>
<polygon fill="#63b8ff" stroke="#63b8ff" points="318.74,-184.51 308.15,-184.14 316.2,-191.03 318.74,-184.51"/>
</a>
</g>
</g>
<!-- Node16 -->
<g id="Node000016" class="node">
<title>Node16</title>
<g id="a_Node000016"><a xlink:title=" ">
<polygon fill="#e0e0e0" stroke="#999999" points="426,-184 374,-184 374,-165 426,-165 426,-184"/>
<text text-anchor="middle" x="400" y="-172" font-family="Helvetica,sans-Serif" font-size="10.00">QBrush</text>
</a>
</g>
</g>
<!-- Node1&#45;&gt;Node16 -->
<g id="edge17_Node000001_Node000016" class="edge">
<title>Node1&#45;&gt;Node16</title>
<g id="a_edge17_Node000001_Node000016"><a xlink:title=" ">
<path fill="none" stroke="#63b8ff" d="M427.29,-219.84C422.33,-211.78 416.07,-201.62 410.8,-193.06"/>
<polygon fill="#63b8ff" stroke="#63b8ff" points="413.62,-190.95 405.39,-184.27 407.65,-194.62 413.62,-190.95"/>
</a>
</g>
</g>
<!-- Node17 -->
<g id="Node000017" class="node">
<title>Node17</title>
<g id="a_Node000017"><a xlink:title=" ">
<polygon fill="#e0e0e0" stroke="#999999" points="500,-184 444,-184 444,-165 500,-165 500,-184"/>
<text text-anchor="middle" x="472" y="-172" font-family="Helvetica,sans-Serif" font-size="10.00">QMatrix</text>
</a>
</g>
</g>
<!-- Node1&#45;&gt;Node17 -->
<g id="edge18_Node000001_Node000017" class="edge">
<title>Node1&#45;&gt;Node17</title>
<g id="a_edge18_Node000001_Node000017"><a xlink:title=" ">
<path fill="none" stroke="#63b8ff" d="M444.71,-219.84C449.67,-211.78 455.93,-201.62 461.2,-193.06"/>
<polygon fill="#63b8ff" stroke="#63b8ff" points="464.35,-194.62 466.61,-184.27 458.38,-190.95 464.35,-194.62"/>
</a>
</g>
</g>
<!-- Node18 -->
<g id="Node000018" class="node">
<title>Node18</title>
<g id="a_Node000018"><a xlink:title=" ">
<polygon fill="#e0e0e0" stroke="#999999" points="576,-184 518,-184 518,-165 576,-165 576,-184"/>
<text text-anchor="middle" x="547" y="-172" font-family="Helvetica,sans-Serif" font-size="10.00">QPainter</text>
</a>
</g>
</g>
<!-- Node1&#45;&gt;Node18 -->
<g id="edge19_Node000001_Node000018" class="edge">
<title>Node1&#45;&gt;Node18</title>
<g id="a_edge19_Node000001_Node000018"><a xlink:title=" ">
<path fill="none" stroke="#63b8ff" d="M462.59,-219.99C480.45,-210.58 503.84,-198.24 521.48,-188.95"/>
<polygon fill="#63b8ff" stroke="#63b8ff" points="523.39,-191.9 530.61,-184.14 520.13,-185.71 523.39,-191.9"/>
</a>
</g>
</g>
<!-- Node3 -->
<g id="Node000003" class="node">
<title>Node3</title>
<g id="a_Node000003"><a xlink:title=" ">
<polygon fill="#e0e0e0" stroke="#999999" points="120,-74 0,-74 0,-55 120,-55 120,-74"/>
<text text-anchor="middle" x="60" y="-62" font-family="Helvetica,sans-Serif" font-size="10.00">qcompilerdetection.h</text>
</a>
</g>
</g>
<!-- Node2&#45;&gt;Node3 -->
<g id="edge2_Node000002_Node000003" class="edge">
<title>Node2&#45;&gt;Node3</title>
<g id="a_edge2_Node000002_Node000003"><a xlink:title=" ">
<path fill="none" stroke="#63b8ff" d="M267.89,-164.84C228.28,-145.92 133.8,-100.77 87.09,-78.45"/>
<polygon fill="#63b8ff" stroke="#63b8ff" points="88.42,-75.2 77.89,-74.05 85.4,-81.52 88.42,-75.2"/>
</a>
</g>
</g>
<!-- Node4 -->
<g id="Node000004" class="node">
<title>Node4</title>
<g id="a_Node000004"><a xlink:title=" ">
<polygon fill="#e0e0e0" stroke="#999999" points="543,-129 433,-129 433,-110 543,-110 543,-129"/>
<text text-anchor="middle" x="488" y="-117" font-family="Helvetica,sans-Serif" font-size="10.00">QGraphicsPathItem</text>
</a>
</g>
</g>
<!-- Node2&#45;&gt;Node4 -->
<g id="edge3_Node000002_Node000004" class="edge">
<title>Node2&#45;&gt;Node4</title>
<g id="a_edge3_Node000002_Node000004"><a xlink:title=" ">
<path fill="none" stroke="#63b8ff" d="M318.45,-164.98C352.96,-155.93 407.66,-141.58 445.56,-131.64"/>
<polygon fill="#63b8ff" stroke="#63b8ff" points="446.51,-135.01 455.29,-129.08 444.73,-128.23 446.51,-135.01"/>
</a>
</g>
</g>
<!-- Node5 -->
<g id="Node000005" class="node">
<title>Node5</title>
<g id="a_Node000005"><a xlink:title=" ">
<polygon fill="#e0e0e0" stroke="#999999" points="197.5,-74 138.5,-74 138.5,-55 197.5,-55 197.5,-74"/>
<text text-anchor="middle" x="168" y="-62" font-family="Helvetica,sans-Serif" font-size="10.00">QtGlobal</text>
</a>
</g>
</g>
<!-- Node2&#45;&gt;Node5 -->
<g id="edge4_Node000002_Node000005" class="edge">
<title>Node2&#45;&gt;Node5</title>
<g id="a_edge4_Node000002_Node000005"><a xlink:title=" ">
<path fill="none" stroke="#63b8ff" d="M276.34,-164.66C256.36,-146.38 210.26,-104.18 185.12,-81.17"/>
<polygon fill="#63b8ff" stroke="#63b8ff" points="187.2,-78.33 177.46,-74.16 182.47,-83.49 187.2,-78.33"/>
</a>
</g>
</g>
<!-- Node6 -->
<g id="Node000006" class="node">
<title>Node6</title>
<g id="a_Node000006"><a xlink:href="../../d4/da4/def_8h.html" target="_top" xlink:title=" ">
<polygon fill="white" stroke="#666666" points="415,-129 333,-129 333,-110 415,-110 415,-129"/>
<text text-anchor="middle" x="374" y="-117" font-family="Helvetica,sans-Serif" font-size="10.00">../vmisc/def.h</text>
</a>
</g>
</g>
<!-- Node2&#45;&gt;Node6 -->
<g id="edge5_Node000002_Node000006" class="edge">
<title>Node2&#45;&gt;Node6</title>
<g id="a_edge5_Node000002_Node000006"><a xlink:title=" ">
<path fill="none" stroke="#63b8ff" d="M300.14,-164.98C313.79,-156.77 334.69,-144.18 350.78,-134.49"/>
<polygon fill="#63b8ff" stroke="#63b8ff" points="352.84,-137.33 359.6,-129.17 349.23,-131.33 352.84,-137.33"/>
</a>
</g>
</g>
<!-- Node6&#45;&gt;Node3 -->
<g id="edge6_Node000006_Node000003" class="edge">
<title>Node6&#45;&gt;Node3</title>
<g id="a_edge6_Node000006_Node000003"><a xlink:title=" ">
<path fill="none" stroke="#63b8ff" d="M332.95,-111.57C278.78,-102.43 183,-86.26 120.52,-75.71"/>
<polygon fill="#63b8ff" stroke="#63b8ff" points="120.85,-72.22 110.41,-74.01 119.68,-79.12 120.85,-72.22"/>
</a>
</g>
</g>
<!-- Node6&#45;&gt;Node5 -->
<g id="edge12_Node000006_Node000005" class="edge">
<title>Node6&#45;&gt;Node5</title>
<g id="a_edge12_Node000006_Node000005"><a xlink:title=" ">
<path fill="none" stroke="#63b8ff" d="M340.9,-109.98C304.57,-100.64 246.27,-85.64 207.55,-75.68"/>
<polygon fill="#63b8ff" stroke="#63b8ff" points="208.23,-72.24 197.67,-73.13 206.48,-79.02 208.23,-72.24"/>
</a>
</g>
</g>
<!-- Node7 -->
<g id="Node000007" class="node">
<title>Node7</title>
<g id="a_Node000007"><a xlink:title=" ">
<polygon fill="#e0e0e0" stroke="#999999" points="458.5,-74 385.5,-74 385.5,-55 458.5,-55 458.5,-74"/>
<text text-anchor="middle" x="422" y="-62" font-family="Helvetica,sans-Serif" font-size="10.00">QFileDialog</text>
</a>
</g>
</g>
<!-- Node6&#45;&gt;Node7 -->
<g id="edge7_Node000006_Node000007" class="edge">
<title>Node6&#45;&gt;Node7</title>
<g id="a_edge7_Node000006_Node000007"><a xlink:title=" ">
<path fill="none" stroke="#63b8ff" d="M381.93,-109.75C388.85,-102.11 399.07,-90.82 407.45,-81.56"/>
<polygon fill="#63b8ff" stroke="#63b8ff" points="410.1,-83.85 414.22,-74.09 404.91,-79.15 410.1,-83.85"/>
</a>
</g>
</g>
<!-- Node8 -->
<g id="Node000008" class="node">
<title>Node8</title>
<g id="a_Node000008"><a xlink:title=" ">
<polygon fill="#e0e0e0" stroke="#999999" points="527,-74 477,-74 477,-55 527,-55 527,-74"/>
<text text-anchor="middle" x="502" y="-62" font-family="Helvetica,sans-Serif" font-size="10.00">QLineF</text>
</a>
</g>
</g>
<!-- Node6&#45;&gt;Node8 -->
<g id="edge8_Node000006_Node000008" class="edge">
<title>Node6&#45;&gt;Node8</title>
<g id="a_edge8_Node000006_Node000008"><a xlink:title=" ">
<path fill="none" stroke="#63b8ff" d="M394.57,-109.98C415.43,-101.34 447.97,-87.87 471.77,-78.02"/>
<polygon fill="#63b8ff" stroke="#63b8ff" points="473.16,-81.23 481.06,-74.17 470.48,-74.76 473.16,-81.23"/>
</a>
</g>
</g>
<!-- Node9 -->
<g id="Node000009" class="node">
<title>Node9</title>
<g id="a_Node000009"><a xlink:title=" ">
<polygon fill="#e0e0e0" stroke="#999999" points="598.5,-74 545.5,-74 545.5,-55 598.5,-55 598.5,-74"/>
<text text-anchor="middle" x="572" y="-62" font-family="Helvetica,sans-Serif" font-size="10.00">QString</text>
</a>
</g>
</g>
<!-- Node6&#45;&gt;Node9 -->
<g id="edge9_Node000006_Node000009" class="edge">
<title>Node6&#45;&gt;Node9</title>
<g id="a_edge9_Node000006_Node000009"><a xlink:title=" ">
<path fill="none" stroke="#63b8ff" d="M405.81,-109.98C441.18,-100.52 498.22,-85.25 535.42,-75.29"/>
<polygon fill="#63b8ff" stroke="#63b8ff" points="536.59,-78.6 545.35,-72.63 534.78,-71.84 536.59,-78.6"/>
</a>
</g>
</g>
<!-- Node10 -->
<g id="Node000010" class="node">
<title>Node10</title>
<g id="a_Node000010"><a xlink:title=" ">
<polygon fill="#e0e0e0" stroke="#999999" points="687,-74 617,-74 617,-55 687,-55 687,-74"/>
<text text-anchor="middle" x="652" y="-62" font-family="Helvetica,sans-Serif" font-size="10.00">QStringList</text>
</a>
</g>
</g>
<!-- Node6&#45;&gt;Node10 -->
<g id="edge10_Node000006_Node000010" class="edge">
<title>Node6&#45;&gt;Node10</title>
<g id="a_edge10_Node000006_Node000010"><a xlink:title=" ">
<path fill="none" stroke="#63b8ff" d="M415.01,-110.74C459.73,-102.27 533.68,-88.23 607.06,-74.18"/>
<polygon fill="#63b8ff" stroke="#63b8ff" points="607.77,-77.6 616.94,-72.28 606.46,-70.73 607.77,-77.6"/>
</a>
</g>
</g>
<!-- Node11 -->
<g id="Node000011" class="node">
<title>Node11</title>
<g id="a_Node000011"><a xlink:title=" ">
<polygon fill="#e0e0e0" stroke="#999999" points="734.5,-74 705.5,-74 705.5,-55 734.5,-55 734.5,-74"/>
<text text-anchor="middle" x="720" y="-62" font-family="Helvetica,sans-Serif" font-size="10.00">Qt</text>
</a>
</g>
</g>
<!-- Node6&#45;&gt;Node11 -->
<g id="edge11_Node000006_Node000011" class="edge">
<title>Node6&#45;&gt;Node11</title>
<g id="a_edge11_Node000006_Node000011"><a xlink:title=" ">
<path fill="none" stroke="#63b8ff" d="M415.18,-111.38C418.16,-110.9 421.13,-110.43 424,-110 541.39,-92.26 575.64,-101.96 695.49,-73.6"/>
<polygon fill="#63b8ff" stroke="#63b8ff" points="696.52,-76.95 705.42,-71.21 694.88,-70.15 696.52,-76.95"/>
</a>
</g>
</g>
<!-- Node12 -->
<g id="Node000012" class="node">
<title>Node12</title>
<g id="a_Node000012"><a xlink:title=" ">
<polygon fill="#e0e0e0" stroke="#999999" points="809,-74 753,-74 753,-55 809,-55 809,-74"/>
<text text-anchor="middle" x="781" y="-62" font-family="Helvetica,sans-Serif" font-size="10.00">QPrinter</text>
</a>
</g>
</g>
<!-- Node6&#45;&gt;Node12 -->
<g id="edge13_Node000006_Node000012" class="edge">
<title>Node6&#45;&gt;Node12</title>
<g id="a_edge13_Node000006_Node000012"><a xlink:title=" ">
<path fill="none" stroke="#63b8ff" d="M415.17,-111.31C418.16,-110.85 421.12,-110.41 424,-110 562.53,-90.45 601.19,-97.71 742.85,-74.01"/>
<polygon fill="#63b8ff" stroke="#63b8ff" points="743.51,-77.45 752.78,-72.33 742.34,-70.55 743.51,-77.45"/>
</a>
</g>
</g>
<!-- Node13 -->
<g id="Node000013" class="node">
<title>Node13</title>
<g id="a_Node000013"><a xlink:title=" ">
<polygon fill="#e0e0e0" stroke="#999999" points="266.5,-74 215.5,-74 215.5,-55 266.5,-55 266.5,-74"/>
<text text-anchor="middle" x="241" y="-62" font-family="Helvetica,sans-Serif" font-size="10.00">csignal</text>
</a>
</g>
</g>
<!-- Node6&#45;&gt;Node13 -->
<g id="edge14_Node000006_Node000013" class="edge">
<title>Node6&#45;&gt;Node13</title>
<g id="a_edge14_Node000006_Node000013"><a xlink:title=" ">
<path fill="none" stroke="#63b8ff" d="M352.63,-109.98C330.85,-101.3 296.84,-87.75 272.08,-77.88"/>
<polygon fill="#63b8ff" stroke="#63b8ff" points="273.34,-74.62 262.76,-74.17 270.75,-81.12 273.34,-74.62"/>
</a>
</g>
</g>
<!-- Node14 -->
<g id="Node000014" class="node">
<title>Node14</title>
<g id="a_Node000014"><a xlink:href="../../d4/d82/debugbreak_8h.html" target="_top" xlink:title=" ">
<polygon fill="white" stroke="#666666" points="367.5,-74 284.5,-74 284.5,-55 367.5,-55 367.5,-74"/>
<text text-anchor="middle" x="326" y="-62" font-family="Helvetica,sans-Serif" font-size="10.00">debugbreak.h</text>
</a>
</g>
</g>
<!-- Node6&#45;&gt;Node14 -->
<g id="edge15_Node000006_Node000014" class="edge">
<title>Node6&#45;&gt;Node14</title>
<g id="a_edge15_Node000006_Node000014"><a xlink:title=" ">
<path fill="none" stroke="#63b8ff" d="M366.07,-109.75C359.15,-102.11 348.93,-90.82 340.55,-81.56"/>
<polygon fill="#63b8ff" stroke="#63b8ff" points="343.09,-79.15 333.78,-74.09 337.9,-83.85 343.09,-79.15"/>
</a>
</g>
</g>
<!-- Node15 -->
<g id="Node000015" class="node">
<title>Node15</title>
<g id="a_Node000015"><a xlink:title=" ">
<polygon fill="#e0e0e0" stroke="#999999" points="353.5,-19 298.5,-19 298.5,0 353.5,0 353.5,-19"/>
<text text-anchor="middle" x="326" y="-7" font-family="Helvetica,sans-Serif" font-size="10.00">signal.h</text>
</a>
</g>
</g>
<!-- Node14&#45;&gt;Node15 -->
<g id="edge16_Node000014_Node000015" class="edge">
<title>Node14&#45;&gt;Node15</title>
<g id="a_edge16_Node000014_Node000015"><a xlink:title=" ">
<path fill="none" stroke="#63b8ff" d="M326,-54.75C326,-47.8 326,-37.85 326,-29.13"/>
<polygon fill="#63b8ff" stroke="#63b8ff" points="329.5,-29.09 326,-19.09 322.5,-29.09 329.5,-29.09"/>
</a>
</g>
</g>
</g>
</svg>

<g id="navigator" transform="translate(0 0)" fill="#404254">
  <rect fill="#f2f5e9" fill-opacity="0.5" stroke="#606060" stroke-width=".5" x="0" y="0" width="60" height="60"/>
  <use id="zoomplus" xlink:href="#zoomPlus" x="17" y="9" onmousedown="handleZoom(evt,'in')"/>
  <use id="zoomminus" xlink:href="#zoomMin" x="42" y="9" onmousedown="handleZoom(evt,'out')"/>
  <use id="reset" xlink:href="#resetDef" x="30" y="36" onmousedown="handleReset()"/>
   <use id="arrowup" xlink:href="#arrowUp" x="0" y="0" onmousedown="handlePan(0,-1)"/>
  <use id="arrowright" xlink:href="#arrowRight" x="0" y="0" onmousedown="handlePan(1,0)"/>
  <use id="arrowdown" xlink:href="#arrowDown" x="0" y="0" onmousedown="handlePan(0,1)"/>
  <use id="arrowleft" xlink:href="#arrowLeft" x="0" y="0" onmousedown="handlePan(-1,0)"/>
</g>
<svg viewBox="0 0 15 15" width="100%" height="30px" preserveAspectRatio="xMaxYMin meet">
 <g id="arrow_out" transform="scale(0.3 0.3)">
  <a xlink:href="nonscalingfill__pathitem_8cpp__incl_org.svg" target="_base">
   <rect id="button" ry="5" rx="5" y="6" x="6" height="38" width="38"
        fill="#f2f5e9" fill-opacity="0.5" stroke="#606060" stroke-width="1.0"/>
   <path id="arrow"
     d="M 11.500037,31.436501 C 11.940474,20.09759 22.043105,11.32322 32.158766,21.979434 L 37.068811,17.246167 C 37.068811,17.246167 37.088388,32 37.088388,32 L 22.160133,31.978069 C 22.160133,31.978069 26.997745,27.140456 26.997745,27.140456 C 18.528582,18.264221 13.291696,25.230495 11.500037,31.436501 z"
     style="fill:#404040;"/>
  </a>
 </g>
</svg>

<style type='text/css'>
<![CDATA[
[data-mouse-over-selected='false'] { opacity: 0.7; }
[data-mouse-over-selected='true']  { opacity: 1.0; }
]]>
</style>
<script type="application/ecmascript"><![CDATA[
document.addEventListener('DOMContentLoaded', (event) => {
  highlightEdges();
  highlightAdjacentNodes();
});
]]></script>
</svg>
