<?xml version="1.0" encoding="UTF-8" standalone="no"?>
<!DOCTYPE svg PUBLIC "-//W3C//DTD SVG 1.1//EN"
 "http://www.w3.org/Graphics/SVG/1.1/DTD/svg11.dtd">
<!-- Generated by graphviz version 2.43.0 (0)
 -->
<!-- Title: src/app/seamlyme/dialogs/me_welcome_dialog.cpp Pages: 1 -->
<svg width="833pt" height="214pt"
 viewBox="0.00 0.00 833.25 214.00" xmlns="http://www.w3.org/2000/svg" xmlns:xlink="http://www.w3.org/1999/xlink">
<g id="graph0" class="graph" transform="scale(1 1) rotate(0) translate(4 210)">
<title>src/app/seamlyme/dialogs/me_welcome_dialog.cpp</title>
<!-- Node1 -->
<g id="Node000001" class="node">
<title>Node1</title>
<g id="a_Node000001"><a xlink:title=" ">
<polygon fill="#999999" stroke="#666666" points="552.75,-206 407.75,-206 407.75,-176 552.75,-176 552.75,-206"/>
<text text-anchor="start" x="415.75" y="-194" font-family="Helvetica,sans-Serif" font-size="10.00">src/app/seamlyme/dialogs</text>
<text text-anchor="middle" x="480.25" y="-183" font-family="Helvetica,sans-Serif" font-size="10.00">/me_welcome_dialog.cpp</text>
</a>
</g>
</g>
<!-- Node2 -->
<g id="Node000002" class="node">
<title>Node2</title>
<g id="a_Node000002"><a xlink:href="../../d3/d5b/me__welcome__dialog_8h.html" target="_top" xlink:title=" ">
<polygon fill="white" stroke="#666666" points="192.25,-134.5 66.25,-134.5 66.25,-115.5 192.25,-115.5 192.25,-134.5"/>
<text text-anchor="middle" x="129.25" y="-122.5" font-family="Helvetica,sans-Serif" font-size="10.00">me_welcome_dialog.h</text>
</a>
</g>
</g>
<!-- Node1&#45;&gt;Node2 -->
<g id="edge1_Node000001_Node000002" class="edge">
<title>Node1&#45;&gt;Node2</title>
<g id="a_edge1_Node000001_Node000002"><a xlink:title=" ">
<path fill="none" stroke="#63b8ff" d="M407.53,-176.74C341.75,-164.75 246.25,-147.33 185.97,-136.34"/>
<polygon fill="#63b8ff" stroke="#63b8ff" points="186.34,-132.85 175.87,-134.5 185.08,-139.74 186.34,-132.85"/>
</a>
</g>
</g>
<!-- Node6 -->
<g id="Node000006" class="node">
<title>Node6</title>
<g id="a_Node000006"><a xlink:title=" ">
<polygon fill="#e0e0e0" stroke="#999999" points="471.25,-134.5 331.25,-134.5 331.25,-115.5 471.25,-115.5 471.25,-134.5"/>
<text text-anchor="middle" x="401.25" y="-122.5" font-family="Helvetica,sans-Serif" font-size="10.00">ui_me_welcome_dialog.h</text>
</a>
</g>
</g>
<!-- Node1&#45;&gt;Node6 -->
<g id="edge5_Node000001_Node000006" class="edge">
<title>Node1&#45;&gt;Node6</title>
<g id="a_edge5_Node000001_Node000006"><a xlink:title=" ">
<path fill="none" stroke="#63b8ff" d="M462.72,-175.8C450.04,-165.53 432.94,-151.67 419.99,-141.18"/>
<polygon fill="#63b8ff" stroke="#63b8ff" points="422.14,-138.42 412.17,-134.84 417.74,-143.86 422.14,-138.42"/>
</a>
</g>
</g>
<!-- Node7 -->
<g id="Node000007" class="node">
<title>Node7</title>
<g id="a_Node000007"><a xlink:title=" ">
<polygon fill="#e0e0e0" stroke="#999999" points="631.25,-140 489.25,-140 489.25,-110 631.25,-110 631.25,-140"/>
<text text-anchor="start" x="497.25" y="-128" font-family="Helvetica,sans-Serif" font-size="10.00">../vpatterndb/variables</text>
<text text-anchor="middle" x="560.25" y="-117" font-family="Helvetica,sans-Serif" font-size="10.00">/measurement_variable.h</text>
</a>
</g>
</g>
<!-- Node1&#45;&gt;Node7 -->
<g id="edge6_Node000001_Node000007" class="edge">
<title>Node1&#45;&gt;Node7</title>
<g id="a_edge6_Node000001_Node000007"><a xlink:title=" ">
<path fill="none" stroke="#63b8ff" d="M498.01,-175.8C508.78,-167.18 522.71,-156.04 534.66,-146.48"/>
<polygon fill="#63b8ff" stroke="#63b8ff" points="536.93,-149.14 542.55,-140.16 532.55,-143.68 536.93,-149.14"/>
</a>
</g>
</g>
<!-- Node8 -->
<g id="Node000008" class="node">
<title>Node8</title>
<g id="a_Node000008"><a xlink:href="../../df/da4/mapplication_8h.html" target="_top" xlink:title=" ">
<polygon fill="white" stroke="#666666" points="313.25,-134.5 215.25,-134.5 215.25,-115.5 313.25,-115.5 313.25,-134.5"/>
<text text-anchor="middle" x="264.25" y="-122.5" font-family="Helvetica,sans-Serif" font-size="10.00">../mapplication.h</text>
</a>
</g>
</g>
<!-- Node1&#45;&gt;Node8 -->
<g id="edge7_Node000001_Node000008" class="edge">
<title>Node1&#45;&gt;Node8</title>
<g id="a_edge7_Node000001_Node000008"><a xlink:title=" ">
<path fill="none" stroke="#63b8ff" d="M432.85,-175.95C393.8,-164.38 339.13,-148.18 302.75,-137.41"/>
<polygon fill="#63b8ff" stroke="#63b8ff" points="303.58,-134 293,-134.52 301.59,-140.71 303.58,-134"/>
</a>
</g>
</g>
<!-- Node12 -->
<g id="Node000012" class="node">
<title>Node12</title>
<g id="a_Node000012"><a xlink:title=" ">
<polygon fill="#e0e0e0" stroke="#999999" points="729.25,-134.5 649.25,-134.5 649.25,-115.5 729.25,-115.5 729.25,-134.5"/>
<text text-anchor="middle" x="689.25" y="-122.5" font-family="Helvetica,sans-Serif" font-size="10.00">QPushButton</text>
</a>
</g>
</g>
<!-- Node1&#45;&gt;Node12 -->
<g id="edge14_Node000001_Node000012" class="edge">
<title>Node1&#45;&gt;Node12</title>
<g id="a_edge14_Node000001_Node000012"><a xlink:title=" ">
<path fill="none" stroke="#63b8ff" d="M526.12,-175.95C563.74,-164.43 616.35,-148.32 651.56,-137.54"/>
<polygon fill="#63b8ff" stroke="#63b8ff" points="652.9,-140.79 661.44,-134.52 650.85,-134.1 652.9,-140.79"/>
</a>
</g>
</g>
<!-- Node13 -->
<g id="Node000013" class="node">
<title>Node13</title>
<g id="a_Node000013"><a xlink:title=" ">
<polygon fill="#e0e0e0" stroke="#999999" points="825.25,-134.5 747.25,-134.5 747.25,-115.5 825.25,-115.5 825.25,-134.5"/>
<text text-anchor="middle" x="786.25" y="-122.5" font-family="Helvetica,sans-Serif" font-size="10.00">QShowEvent</text>
</a>
</g>
</g>
<!-- Node1&#45;&gt;Node13 -->
<g id="edge15_Node000001_Node000013" class="edge">
<title>Node1&#45;&gt;Node13</title>
<g id="a_edge15_Node000001_Node000013"><a xlink:title=" ">
<path fill="none" stroke="#63b8ff" d="M552.93,-177.77C604.83,-168.58 676.17,-155.03 738.25,-140 741.69,-139.17 745.25,-138.25 748.8,-137.28"/>
<polygon fill="#63b8ff" stroke="#63b8ff" points="750.02,-140.58 758.7,-134.51 748.13,-133.84 750.02,-140.58"/>
</a>
</g>
</g>
<!-- Node3 -->
<g id="Node000003" class="node">
<title>Node3</title>
<g id="a_Node000003"><a xlink:title=" ">
<polygon fill="#e0e0e0" stroke="#999999" points="207.25,-19 151.25,-19 151.25,0 207.25,0 207.25,-19"/>
<text text-anchor="middle" x="179.25" y="-7" font-family="Helvetica,sans-Serif" font-size="10.00">QDialog</text>
</a>
</g>
</g>
<!-- Node2&#45;&gt;Node3 -->
<g id="edge2_Node000002_Node000003" class="edge">
<title>Node2&#45;&gt;Node3</title>
<g id="a_edge2_Node000002_Node000003"><a xlink:title=" ">
<path fill="none" stroke="#63b8ff" d="M81.03,-115.42C36.98,-105.41 -17.9,-86.15 6.25,-55 22.6,-33.91 95.15,-21.07 140.95,-14.91"/>
<polygon fill="#63b8ff" stroke="#63b8ff" points="141.66,-18.35 151.13,-13.59 140.76,-11.41 141.66,-18.35"/>
</a>
</g>
</g>
<!-- Node4 -->
<g id="Node000004" class="node">
<title>Node4</title>
<g id="a_Node000004"><a xlink:title=" ">
<polygon fill="#e0e0e0" stroke="#999999" points="97.25,-74 15.25,-74 15.25,-55 97.25,-55 97.25,-74"/>
<text text-anchor="middle" x="56.25" y="-62" font-family="Helvetica,sans-Serif" font-size="10.00">../vmisc/def.h</text>
</a>
</g>
</g>
<!-- Node2&#45;&gt;Node4 -->
<g id="edge3_Node000002_Node000004" class="edge">
<title>Node2&#45;&gt;Node4</title>
<g id="a_edge3_Node000002_Node000004"><a xlink:title=" ">
<path fill="none" stroke="#63b8ff" d="M118.48,-115.37C107.05,-106.21 88.77,-91.56 74.98,-80.51"/>
<polygon fill="#63b8ff" stroke="#63b8ff" points="77.06,-77.69 67.07,-74.17 72.68,-83.15 77.06,-77.69"/>
</a>
</g>
</g>
<!-- Node5 -->
<g id="Node000005" class="node">
<title>Node5</title>
<g id="a_Node000005"><a xlink:title=" ">
<polygon fill="#e0e0e0" stroke="#999999" points="279.25,-74 115.25,-74 115.25,-55 279.25,-55 279.25,-74"/>
<text text-anchor="middle" x="197.25" y="-62" font-family="Helvetica,sans-Serif" font-size="10.00">../vmisc/vseamlymesettings.h</text>
</a>
</g>
</g>
<!-- Node2&#45;&gt;Node5 -->
<g id="edge4_Node000002_Node000005" class="edge">
<title>Node2&#45;&gt;Node5</title>
<g id="a_edge4_Node000002_Node000005"><a xlink:title=" ">
<path fill="none" stroke="#63b8ff" d="M139.29,-115.37C149.83,-106.3 166.64,-91.84 179.45,-80.82"/>
<polygon fill="#63b8ff" stroke="#63b8ff" points="181.88,-83.34 187.18,-74.17 177.32,-78.04 181.88,-83.34"/>
</a>
</g>
</g>
<!-- Node8&#45;&gt;Node4 -->
<g id="edge9_Node000008_Node000004" class="edge">
<title>Node8&#45;&gt;Node4</title>
<g id="a_edge9_Node000008_Node000004"><a xlink:title=" ">
<path fill="none" stroke="#63b8ff" d="M234.01,-115.49C197.65,-105.27 136.53,-88.08 96.29,-76.76"/>
<polygon fill="#63b8ff" stroke="#63b8ff" points="97.11,-73.35 86.54,-74.02 95.21,-80.09 97.11,-73.35"/>
</a>
</g>
</g>
<!-- Node8&#45;&gt;Node5 -->
<g id="edge10_Node000008_Node000005" class="edge">
<title>Node8&#45;&gt;Node5</title>
<g id="a_edge10_Node000008_Node000005"><a xlink:title=" ">
<path fill="none" stroke="#63b8ff" d="M254.37,-115.37C243.98,-106.3 227.42,-91.84 214.8,-80.82"/>
<polygon fill="#63b8ff" stroke="#63b8ff" points="217.02,-78.11 207.18,-74.17 212.41,-83.38 217.02,-78.11"/>
</a>
</g>
</g>
<!-- Node9 -->
<g id="Node000009" class="node">
<title>Node9</title>
<g id="a_Node000009"><a xlink:title=" ">
<polygon fill="#e0e0e0" stroke="#999999" points="625.75,-74 464.75,-74 464.75,-55 625.75,-55 625.75,-74"/>
<text text-anchor="middle" x="545.25" y="-62" font-family="Helvetica,sans-Serif" font-size="10.00">../vpatterndb/vtranslatevars.h</text>
</a>
</g>
</g>
<!-- Node8&#45;&gt;Node9 -->
<g id="edge8_Node000008_Node000009" class="edge">
<title>Node8&#45;&gt;Node9</title>
<g id="a_edge8_Node000008_Node000009"><a xlink:title=" ">
<path fill="none" stroke="#63b8ff" d="M298.55,-115.48C306.33,-113.62 314.57,-111.69 322.25,-110 379.24,-97.44 444.77,-84.55 489.98,-75.9"/>
<polygon fill="#63b8ff" stroke="#63b8ff" points="490.7,-79.32 499.87,-74.01 489.39,-72.44 490.7,-79.32"/>
</a>
</g>
</g>
<!-- Node10 -->
<g id="Node000010" class="node">
<title>Node10</title>
<g id="a_Node000010"><a xlink:title=" ">
<polygon fill="#e0e0e0" stroke="#999999" points="810.75,-74 643.75,-74 643.75,-55 810.75,-55 810.75,-74"/>
<text text-anchor="middle" x="727.25" y="-62" font-family="Helvetica,sans-Serif" font-size="10.00">../vmisc/vabstractapplication.h</text>
</a>
</g>
</g>
<!-- Node8&#45;&gt;Node10 -->
<g id="edge11_Node000008_Node000010" class="edge">
<title>Node8&#45;&gt;Node10</title>
<g id="a_edge11_Node000008_Node000010"><a xlink:title=" ">
<path fill="none" stroke="#63b8ff" d="M296.31,-115.49C304.71,-113.47 313.78,-111.48 322.25,-110 380.02,-99.9 532.85,-84.21 633.37,-74.42"/>
<polygon fill="#63b8ff" stroke="#63b8ff" points="633.92,-77.88 643.54,-73.43 633.24,-70.91 633.92,-77.88"/>
</a>
</g>
</g>
<!-- Node11 -->
<g id="Node000011" class="node">
<title>Node11</title>
<g id="a_Node000011"><a xlink:href="../../d0/d0b/dialogmdatabase_8h.html" target="_top" xlink:title=" ">
<polygon fill="white" stroke="#666666" points="446.75,-74 297.75,-74 297.75,-55 446.75,-55 446.75,-74"/>
<text text-anchor="middle" x="372.25" y="-62" font-family="Helvetica,sans-Serif" font-size="10.00">dialogs/dialogmdatabase.h</text>
</a>
</g>
</g>
<!-- Node8&#45;&gt;Node11 -->
<g id="edge12_Node000008_Node000011" class="edge">
<title>Node8&#45;&gt;Node11</title>
<g id="a_edge12_Node000008_Node000011"><a xlink:title=" ">
<path fill="none" stroke="#63b8ff" d="M280.19,-115.37C297.9,-105.78 326.71,-90.17 347.39,-78.97"/>
<polygon fill="#63b8ff" stroke="#63b8ff" points="349.13,-82.01 356.25,-74.17 345.79,-75.85 349.13,-82.01"/>
</a>
</g>
</g>
<!-- Node11&#45;&gt;Node3 -->
<g id="edge13_Node000011_Node000003" class="edge">
<title>Node11&#45;&gt;Node3</title>
<g id="a_edge13_Node000011_Node000003"><a xlink:title=" ">
<path fill="none" stroke="#63b8ff" d="M341.25,-54.98C307.45,-45.7 253.36,-30.85 217.09,-20.89"/>
<polygon fill="#63b8ff" stroke="#63b8ff" points="217.93,-17.49 207.36,-18.22 216.08,-24.24 217.93,-17.49"/>
</a>
</g>
</g>
</g>
</svg>
