<?xml version="1.0" encoding="UTF-8" standalone="no"?>
<!DOCTYPE svg PUBLIC "-//W3C//DTD SVG 1.1//EN"
 "http://www.w3.org/Graphics/SVG/1.1/DTD/svg11.dtd">
<!-- Generated by graphviz version 2.43.0 (0)
 -->
<!-- Title: src/libs/ifc/exception/vexceptionemptyparameter.cpp Pages: 1 -->
<!--zoomable 368 -->

<svg id="main" version="1.1" xmlns="http://www.w3.org/2000/svg" xmlns:xlink="http://www.w3.org/1999/xlink" xml:space="preserve" onload="init(evt)">
<style type="text/css"><![CDATA[
.node, .edge {opacity: 0.7;}
.node.selected, .edge.selected {opacity: 1;}
.edge:hover path { stroke: red; }
.edge:hover polygon { stroke: red; fill: red; }
]]></style>

<defs>
  <circle id="rim" cx="0" cy="0" r="7"/>
  <circle id="rim2" cx="0" cy="0" r="3.5"/>
  <g id="zoomPlus">
    <use xlink:href="#rim" fill="#404040"><set attributeName="fill" to="#808080" begin="zoomplus.mouseover" end="zoomplus.mouseout"/></use>
    <path d="M-4,0h8M0,-4v8" fill="none" stroke="white" stroke-width="1.5" pointer-events="none"/>
  </g>
  <g id="zoomMin">
    <use xlink:href="#rim" fill="#404040"><set attributeName="fill" to="#808080" begin="zoomminus.mouseover" end="zoomminus.mouseout"/></use>
    <path d="M-4,0h8" fill="none" stroke="white" stroke-width="1.5" pointer-events="none"/>
  </g>
  <g id="arrowUp" transform="translate(30 24)">
    <use xlink:href="#rim"/>
    <path pointer-events="none" fill="none" stroke="white" stroke-width="1.5" d="M0,-3.0v7 M-2.5,-0.5L0,-3.0L2.5,-0.5"/>
  </g>
  <g id="arrowRight" transform="rotate(90) translate(36 -43)">
    <use xlink:href="#rim"/>
    <path pointer-events="none" fill="none" stroke="white" stroke-width="1.5" d="M0,-3.0v7 M-2.5,-0.5L0,-3.0L2.5,-0.5"/>
  </g>
  <g id="arrowDown" transform="rotate(180) translate(-30 -48)">
    <use xlink:href="#rim"/>
    <path pointer-events="none" fill="none" stroke="white" stroke-width="1.5" d="M0,-3.0v7 M-2.5,-0.5L0,-3.0L2.5,-0.5"/>
  </g>
  <g id="arrowLeft" transform="rotate(270) translate(-36 17)">
    <use xlink:href="#rim"/>
    <path pointer-events="none" fill="none" stroke="white" stroke-width="1.5" d="M0,-3.0v7 M-2.5,-0.5L0,-3.0L2.5,-0.5"/>
  </g>
  <g id="resetDef">
    <use xlink:href="#rim2" fill="#404040"><set attributeName="fill" to="#808080" begin="reset.mouseover" end="reset.mouseout"/></use>
  </g>
</defs>
<script type="application/ecmascript">
var viewWidth = 817;
var viewHeight = 368;
var sectionId = 'dynsection-0';
</script>
<script type="application/ecmascript" xlink:href="../../svg.min.js"/>
<svg id="graph" class="graph">
<g id="viewport">
<title>src/libs/ifc/exception/vexceptionemptyparameter.cpp</title>
<!-- Node1 -->
<g id="Node000001" class="node">
<title>Node1</title>
<g id="a_Node000001"><a xlink:title=" ">
<polygon fill="#999999" stroke="#666666" points="613.5,-360 437.5,-360 437.5,-330 613.5,-330 613.5,-360"/>
<text text-anchor="start" x="445.5" y="-348" font-family="Helvetica,sans-Serif" font-size="10.00">src/libs/ifc/exception</text>
<text text-anchor="middle" x="525.5" y="-337" font-family="Helvetica,sans-Serif" font-size="10.00">/vexceptionemptyparameter.cpp</text>
</a>
</g>
</g>
<!-- Node2 -->
<g id="Node000002" class="node">
<title>Node2</title>
<g id="a_Node000002"><a xlink:href="../../d2/d18/vexceptionemptyparameter_8h.html" target="_top" xlink:title=" ">
<polygon fill="white" stroke="#666666" points="452,-294 291,-294 291,-275 452,-275 452,-294"/>
<text text-anchor="middle" x="371.5" y="-282" font-family="Helvetica,sans-Serif" font-size="10.00">vexceptionemptyparameter.h</text>
</a>
</g>
</g>
<!-- Node1&#45;&gt;Node2 -->
<g id="edge1_Node000001_Node000002" class="edge">
<title>Node1&#45;&gt;Node2</title>
<g id="a_edge1_Node000001_Node000002"><a xlink:title=" ">
<path fill="none" stroke="#63b8ff" d="M488.61,-329.99C462.8,-320.18 428.65,-307.21 403.9,-297.81"/>
<polygon fill="#63b8ff" stroke="#63b8ff" points="404.83,-294.42 394.24,-294.14 402.35,-300.96 404.83,-294.42"/>
</a>
</g>
</g>
<!-- Node17 -->
<g id="Node000017" class="node">
<title>Node17</title>
<g id="a_Node000017"><a xlink:href="../../d1/d44/vexception_8h.html" target="_top" xlink:title=" ">
<polygon fill="white" stroke="#666666" points="541.5,-239 461.5,-239 461.5,-220 541.5,-220 541.5,-239"/>
<text text-anchor="middle" x="501.5" y="-227" font-family="Helvetica,sans-Serif" font-size="10.00">vexception.h</text>
</a>
</g>
</g>
<!-- Node1&#45;&gt;Node17 -->
<g id="edge31_Node000001_Node000017" class="edge">
<title>Node1&#45;&gt;Node17</title>
<g id="a_edge31_Node000001_Node000017"><a xlink:title=" ">
<path fill="none" stroke="#63b8ff" d="M519.74,-329.8C515.97,-319.92 511.25,-306.35 508.5,-294 505.22,-279.25 503.45,-262.2 502.51,-249.49"/>
<polygon fill="#63b8ff" stroke="#63b8ff" points="505.98,-248.99 501.86,-239.23 499,-249.43 505.98,-248.99"/>
</a>
</g>
</g>
<!-- Node20 -->
<g id="Node000020" class="node">
<title>Node20</title>
<g id="a_Node000020"><a xlink:title=" ">
<polygon fill="#e0e0e0" stroke="#999999" points="605.5,-294 517.5,-294 517.5,-275 605.5,-275 605.5,-294"/>
<text text-anchor="middle" x="561.5" y="-282" font-family="Helvetica,sans-Serif" font-size="10.00">QDomElement</text>
</a>
</g>
</g>
<!-- Node1&#45;&gt;Node20 -->
<g id="edge29_Node000001_Node000020" class="edge">
<title>Node1&#45;&gt;Node20</title>
<g id="a_edge29_Node000001_Node000020"><a xlink:title=" ">
<path fill="none" stroke="#63b8ff" d="M534.21,-329.84C539.17,-321.78 545.43,-311.62 550.7,-303.06"/>
<polygon fill="#63b8ff" stroke="#63b8ff" points="553.85,-304.62 556.11,-294.27 547.88,-300.95 553.85,-304.62"/>
</a>
</g>
</g>
<!-- Node21 -->
<g id="Node000021" class="node">
<title>Node21</title>
<g id="a_Node000021"><a xlink:title=" ">
<polygon fill="#e0e0e0" stroke="#999999" points="703.5,-294 623.5,-294 623.5,-275 703.5,-275 703.5,-294"/>
<text text-anchor="middle" x="663.5" y="-282" font-family="Helvetica,sans-Serif" font-size="10.00">QTextStream</text>
</a>
</g>
</g>
<!-- Node1&#45;&gt;Node21 -->
<g id="edge30_Node000001_Node000021" class="edge">
<title>Node1&#45;&gt;Node21</title>
<g id="a_edge30_Node000001_Node000021"><a xlink:title=" ">
<path fill="none" stroke="#63b8ff" d="M558.55,-329.99C581.48,-320.27 611.74,-307.44 633.88,-298.06"/>
<polygon fill="#63b8ff" stroke="#63b8ff" points="635.28,-301.26 643.12,-294.14 632.55,-294.82 635.28,-301.26"/>
</a>
</g>
</g>
<!-- Node3 -->
<g id="Node000003" class="node">
<title>Node3</title>
<g id="a_Node000003"><a xlink:title=" ">
<polygon fill="#e0e0e0" stroke="#999999" points="808.5,-74 688.5,-74 688.5,-55 808.5,-55 808.5,-74"/>
<text text-anchor="middle" x="748.5" y="-62" font-family="Helvetica,sans-Serif" font-size="10.00">qcompilerdetection.h</text>
</a>
</g>
</g>
<!-- Node2&#45;&gt;Node3 -->
<g id="edge2_Node000002_Node000003" class="edge">
<title>Node2&#45;&gt;Node3</title>
<g id="a_edge2_Node000002_Node000003"><a xlink:title=" ">
<path fill="none" stroke="#63b8ff" d="M378.09,-274.61C399.95,-245.81 473.38,-154.39 556.5,-110 579.11,-97.92 641.03,-84.74 688.5,-75.88"/>
<polygon fill="#63b8ff" stroke="#63b8ff" points="689.19,-79.31 698.39,-74.06 687.92,-72.43 689.19,-79.31"/>
</a>
</g>
</g>
<!-- Node4 -->
<g id="Node000004" class="node">
<title>Node4</title>
<g id="a_Node000004"><a xlink:title=" ">
<polygon fill="#e0e0e0" stroke="#999999" points="53,-74 0,-74 0,-55 53,-55 53,-74"/>
<text text-anchor="middle" x="26.5" y="-62" font-family="Helvetica,sans-Serif" font-size="10.00">QString</text>
</a>
</g>
</g>
<!-- Node2&#45;&gt;Node4 -->
<g id="edge3_Node000002_Node000004" class="edge">
<title>Node2&#45;&gt;Node4</title>
<g id="a_edge3_Node000002_Node000004"><a xlink:title=" ">
<path fill="none" stroke="#63b8ff" d="M338.2,-274.91C276.25,-257.38 142.38,-211.95 62.5,-129 49.75,-115.76 39.89,-97.14 33.74,-83.49"/>
<polygon fill="#63b8ff" stroke="#63b8ff" points="36.92,-82.01 29.77,-74.19 30.48,-84.76 36.92,-82.01"/>
</a>
</g>
</g>
<!-- Node5 -->
<g id="Node000005" class="node">
<title>Node5</title>
<g id="a_Node000005"><a xlink:title=" ">
<polygon fill="#e0e0e0" stroke="#999999" points="130,-74 71,-74 71,-55 130,-55 130,-74"/>
<text text-anchor="middle" x="100.5" y="-62" font-family="Helvetica,sans-Serif" font-size="10.00">QtGlobal</text>
</a>
</g>
</g>
<!-- Node2&#45;&gt;Node5 -->
<g id="edge4_Node000002_Node000005" class="edge">
<title>Node2&#45;&gt;Node5</title>
<g id="a_edge4_Node000002_Node000005"><a xlink:title=" ">
<path fill="none" stroke="#63b8ff" d="M350.85,-274.9C305.69,-255.18 197,-202.71 131.5,-129 119.8,-115.83 111.47,-97.45 106.41,-83.86"/>
<polygon fill="#63b8ff" stroke="#63b8ff" points="109.64,-82.47 103.06,-74.17 103.02,-84.76 109.64,-82.47"/>
</a>
</g>
</g>
<!-- Node6 -->
<g id="Node000006" class="node">
<title>Node6</title>
<g id="a_Node000006"><a xlink:href="../../d3/da5/ifcdef_8h.html" target="_top" xlink:title=" ">
<polygon fill="white" stroke="#666666" points="376.5,-184 314.5,-184 314.5,-165 376.5,-165 376.5,-184"/>
<text text-anchor="middle" x="345.5" y="-172" font-family="Helvetica,sans-Serif" font-size="10.00">../ifcdef.h</text>
</a>
</g>
</g>
<!-- Node2&#45;&gt;Node6 -->
<g id="edge5_Node000002_Node000006" class="edge">
<title>Node2&#45;&gt;Node6</title>
<g id="a_edge5_Node000002_Node000006"><a xlink:title=" ">
<path fill="none" stroke="#63b8ff" d="M369.37,-274.66C365.14,-257.09 355.6,-217.45 349.94,-193.95"/>
<polygon fill="#63b8ff" stroke="#63b8ff" points="353.33,-193.06 347.58,-184.16 346.52,-194.7 353.33,-193.06"/>
</a>
</g>
</g>
<!-- Node2&#45;&gt;Node17 -->
<g id="edge23_Node000002_Node000017" class="edge">
<title>Node2&#45;&gt;Node17</title>
<g id="a_edge23_Node000002_Node000017"><a xlink:title=" ">
<path fill="none" stroke="#63b8ff" d="M392.39,-274.98C413.58,-266.34 446.63,-252.87 470.8,-243.02"/>
<polygon fill="#63b8ff" stroke="#63b8ff" points="472.29,-246.19 480.23,-239.17 469.65,-239.7 472.29,-246.19"/>
</a>
</g>
</g>
<!-- Node6&#45;&gt;Node4 -->
<g id="edge6_Node000006_Node000004" class="edge">
<title>Node6&#45;&gt;Node4</title>
<g id="a_edge6_Node000006_Node000004"><a xlink:title=" ">
<path fill="none" stroke="#63b8ff" d="M314.44,-170.38C271.94,-165.37 193.84,-153.5 131.5,-129 99.55,-116.44 66.22,-94.53 45.9,-80.02"/>
<polygon fill="#63b8ff" stroke="#63b8ff" points="47.93,-77.17 37.79,-74.12 43.81,-82.83 47.93,-77.17"/>
</a>
</g>
</g>
<!-- Node6&#45;&gt;Node5 -->
<g id="edge8_Node000006_Node000005" class="edge">
<title>Node6&#45;&gt;Node5</title>
<g id="a_edge8_Node000006_Node000005"><a xlink:title=" ">
<path fill="none" stroke="#63b8ff" d="M314.36,-171.44C275.89,-167.71 209.53,-157.39 160.5,-129 140.5,-117.42 123.05,-97.13 112.2,-82.6"/>
<polygon fill="#63b8ff" stroke="#63b8ff" points="115.01,-80.51 106.34,-74.42 109.32,-84.59 115.01,-80.51"/>
</a>
</g>
</g>
<!-- Node7 -->
<g id="Node000007" class="node">
<title>Node7</title>
<g id="a_Node000007"><a xlink:title=" ">
<polygon fill="#e0e0e0" stroke="#999999" points="670.5,-74 600.5,-74 600.5,-55 670.5,-55 670.5,-74"/>
<text text-anchor="middle" x="635.5" y="-62" font-family="Helvetica,sans-Serif" font-size="10.00">QStringList</text>
</a>
</g>
</g>
<!-- Node6&#45;&gt;Node7 -->
<g id="edge7_Node000006_Node000007" class="edge">
<title>Node6&#45;&gt;Node7</title>
<g id="a_edge7_Node000006_Node000007"><a xlink:title=" ">
<path fill="none" stroke="#63b8ff" d="M355.34,-164.89C371.54,-151.17 405.34,-124.44 438.5,-110 452.32,-103.98 536.42,-85.98 590.18,-74.8"/>
<polygon fill="#63b8ff" stroke="#63b8ff" points="591.09,-78.19 600.17,-72.73 589.66,-71.33 591.09,-78.19"/>
</a>
</g>
</g>
<!-- Node8 -->
<g id="Node000008" class="node">
<title>Node8</title>
<g id="a_Node000008"><a xlink:href="../../d4/da4/def_8h.html" target="_top" xlink:title=" ">
<polygon fill="white" stroke="#666666" points="386.5,-129 304.5,-129 304.5,-110 386.5,-110 386.5,-129"/>
<text text-anchor="middle" x="345.5" y="-117" font-family="Helvetica,sans-Serif" font-size="10.00">../vmisc/def.h</text>
</a>
</g>
</g>
<!-- Node6&#45;&gt;Node8 -->
<g id="edge9_Node000006_Node000008" class="edge">
<title>Node6&#45;&gt;Node8</title>
<g id="a_edge9_Node000006_Node000008"><a xlink:title=" ">
<path fill="none" stroke="#63b8ff" d="M345.5,-164.75C345.5,-157.8 345.5,-147.85 345.5,-139.13"/>
<polygon fill="#63b8ff" stroke="#63b8ff" points="349,-139.09 345.5,-129.09 342,-139.09 349,-139.09"/>
</a>
</g>
</g>
<!-- Node16 -->
<g id="Node000016" class="node">
<title>Node16</title>
<g id="a_Node000016"><a xlink:href="../../d6/dcd/diagnostic_8h.html" target="_top" xlink:title=" ">
<polygon fill="white" stroke="#666666" points="286,-129 169,-129 169,-110 286,-110 286,-129"/>
<text text-anchor="middle" x="227.5" y="-117" font-family="Helvetica,sans-Serif" font-size="10.00">../vmisc/diagnostic.h</text>
</a>
</g>
</g>
<!-- Node6&#45;&gt;Node16 -->
<g id="edge21_Node000006_Node000016" class="edge">
<title>Node6&#45;&gt;Node16</title>
<g id="a_edge21_Node000006_Node000016"><a xlink:title=" ">
<path fill="none" stroke="#63b8ff" d="M326.54,-164.98C307.47,-156.42 277.84,-143.11 255.95,-133.28"/>
<polygon fill="#63b8ff" stroke="#63b8ff" points="257.36,-130.07 246.8,-129.17 254.49,-136.46 257.36,-130.07"/>
</a>
</g>
</g>
<!-- Node8&#45;&gt;Node3 -->
<g id="edge10_Node000008_Node000003" class="edge">
<title>Node8&#45;&gt;Node3</title>
<g id="a_edge10_Node000008_Node000003"><a xlink:title=" ">
<path fill="none" stroke="#63b8ff" d="M386.73,-113.08C455.46,-104.04 594.17,-85.8 678.45,-74.71"/>
<polygon fill="#63b8ff" stroke="#63b8ff" points="678.99,-78.17 688.45,-73.4 678.08,-71.23 678.99,-78.17"/>
</a>
</g>
</g>
<!-- Node8&#45;&gt;Node4 -->
<g id="edge13_Node000008_Node000004" class="edge">
<title>Node8&#45;&gt;Node4</title>
<g id="a_edge13_Node000008_Node000004"><a xlink:title=" ">
<path fill="none" stroke="#63b8ff" d="M304.31,-111.44C301.33,-110.95 298.37,-110.46 295.5,-110 194.77,-93.69 166.42,-94.38 63.1,-74.19"/>
<polygon fill="#63b8ff" stroke="#63b8ff" points="63.69,-70.74 53.2,-72.23 62.33,-77.6 63.69,-70.74"/>
</a>
</g>
</g>
<!-- Node8&#45;&gt;Node5 -->
<g id="edge16_Node000008_Node000005" class="edge">
<title>Node8&#45;&gt;Node5</title>
<g id="a_edge16_Node000008_Node000005"><a xlink:title=" ">
<path fill="none" stroke="#63b8ff" d="M306,-109.99C266.56,-101.49 203.92,-87.97 140.14,-74.14"/>
<polygon fill="#63b8ff" stroke="#63b8ff" points="140.82,-70.7 130.31,-72 139.34,-77.54 140.82,-70.7"/>
</a>
</g>
</g>
<!-- Node8&#45;&gt;Node7 -->
<g id="edge14_Node000008_Node000007" class="edge">
<title>Node8&#45;&gt;Node7</title>
<g id="a_edge14_Node000008_Node000007"><a xlink:title=" ">
<path fill="none" stroke="#63b8ff" d="M386.88,-111.17C433.78,-102.83 512.8,-88.67 590.48,-74.17"/>
<polygon fill="#63b8ff" stroke="#63b8ff" points="591.26,-77.59 600.44,-72.31 589.97,-70.71 591.26,-77.59"/>
</a>
</g>
</g>
<!-- Node9 -->
<g id="Node000009" class="node">
<title>Node9</title>
<g id="a_Node000009"><a xlink:title=" ">
<polygon fill="#e0e0e0" stroke="#999999" points="466,-74 393,-74 393,-55 466,-55 466,-74"/>
<text text-anchor="middle" x="429.5" y="-62" font-family="Helvetica,sans-Serif" font-size="10.00">QFileDialog</text>
</a>
</g>
</g>
<!-- Node8&#45;&gt;Node9 -->
<g id="edge11_Node000008_Node000009" class="edge">
<title>Node8&#45;&gt;Node9</title>
<g id="a_edge11_Node000008_Node000009"><a xlink:title=" ">
<path fill="none" stroke="#63b8ff" d="M359,-109.98C371.9,-101.84 391.6,-89.41 406.9,-79.76"/>
<polygon fill="#63b8ff" stroke="#63b8ff" points="409.17,-82.47 415.76,-74.17 405.43,-76.55 409.17,-82.47"/>
</a>
</g>
</g>
<!-- Node10 -->
<g id="Node000010" class="node">
<title>Node10</title>
<g id="a_Node000010"><a xlink:title=" ">
<polygon fill="#e0e0e0" stroke="#999999" points="534.5,-74 484.5,-74 484.5,-55 534.5,-55 534.5,-74"/>
<text text-anchor="middle" x="509.5" y="-62" font-family="Helvetica,sans-Serif" font-size="10.00">QLineF</text>
</a>
</g>
</g>
<!-- Node8&#45;&gt;Node10 -->
<g id="edge12_Node000008_Node000010" class="edge">
<title>Node8&#45;&gt;Node10</title>
<g id="a_edge12_Node000008_Node000010"><a xlink:title=" ">
<path fill="none" stroke="#63b8ff" d="M371.85,-109.98C399.67,-100.99 443.67,-86.77 474.42,-76.84"/>
<polygon fill="#63b8ff" stroke="#63b8ff" points="475.85,-80.05 484.29,-73.65 473.7,-73.39 475.85,-80.05"/>
</a>
</g>
</g>
<!-- Node11 -->
<g id="Node000011" class="node">
<title>Node11</title>
<g id="a_Node000011"><a xlink:title=" ">
<polygon fill="#e0e0e0" stroke="#999999" points="582,-74 553,-74 553,-55 582,-55 582,-74"/>
<text text-anchor="middle" x="567.5" y="-62" font-family="Helvetica,sans-Serif" font-size="10.00">Qt</text>
</a>
</g>
</g>
<!-- Node8&#45;&gt;Node11 -->
<g id="edge15_Node000008_Node000011" class="edge">
<title>Node8&#45;&gt;Node11</title>
<g id="a_edge15_Node000008_Node000011"><a xlink:title=" ">
<path fill="none" stroke="#63b8ff" d="M386.82,-110.71C425,-103.18 483.44,-90.81 542.93,-73.87"/>
<polygon fill="#63b8ff" stroke="#63b8ff" points="544.23,-77.13 552.87,-70.99 542.29,-70.41 544.23,-77.13"/>
</a>
</g>
</g>
<!-- Node12 -->
<g id="Node000012" class="node">
<title>Node12</title>
<g id="a_Node000012"><a xlink:title=" ">
<polygon fill="#e0e0e0" stroke="#999999" points="204.5,-74 148.5,-74 148.5,-55 204.5,-55 204.5,-74"/>
<text text-anchor="middle" x="176.5" y="-62" font-family="Helvetica,sans-Serif" font-size="10.00">QPrinter</text>
</a>
</g>
</g>
<!-- Node8&#45;&gt;Node12 -->
<g id="edge17_Node000008_Node000012" class="edge">
<title>Node8&#45;&gt;Node12</title>
<g id="a_edge17_Node000008_Node000012"><a xlink:title=" ">
<path fill="none" stroke="#63b8ff" d="M318.35,-109.98C289.97,-101.09 245.27,-87.07 213.64,-77.15"/>
<polygon fill="#63b8ff" stroke="#63b8ff" points="214.45,-73.73 203.87,-74.08 212.36,-80.41 214.45,-73.73"/>
</a>
</g>
</g>
<!-- Node13 -->
<g id="Node000013" class="node">
<title>Node13</title>
<g id="a_Node000013"><a xlink:title=" ">
<polygon fill="#e0e0e0" stroke="#999999" points="274,-74 223,-74 223,-55 274,-55 274,-74"/>
<text text-anchor="middle" x="248.5" y="-62" font-family="Helvetica,sans-Serif" font-size="10.00">csignal</text>
</a>
</g>
</g>
<!-- Node8&#45;&gt;Node13 -->
<g id="edge18_Node000008_Node000013" class="edge">
<title>Node8&#45;&gt;Node13</title>
<g id="a_edge18_Node000008_Node000013"><a xlink:title=" ">
<path fill="none" stroke="#63b8ff" d="M329.92,-109.98C314.73,-101.69 291.4,-88.94 273.6,-79.22"/>
<polygon fill="#63b8ff" stroke="#63b8ff" points="274.82,-75.89 264.37,-74.17 271.47,-82.04 274.82,-75.89"/>
</a>
</g>
</g>
<!-- Node14 -->
<g id="Node000014" class="node">
<title>Node14</title>
<g id="a_Node000014"><a xlink:href="../../d4/d82/debugbreak_8h.html" target="_top" xlink:title=" ">
<polygon fill="white" stroke="#666666" points="375,-74 292,-74 292,-55 375,-55 375,-74"/>
<text text-anchor="middle" x="333.5" y="-62" font-family="Helvetica,sans-Serif" font-size="10.00">debugbreak.h</text>
</a>
</g>
</g>
<!-- Node8&#45;&gt;Node14 -->
<g id="edge19_Node000008_Node000014" class="edge">
<title>Node8&#45;&gt;Node14</title>
<g id="a_edge19_Node000008_Node000014"><a xlink:title=" ">
<path fill="none" stroke="#63b8ff" d="M343.52,-109.75C341.93,-102.72 339.64,-92.62 337.65,-83.84"/>
<polygon fill="#63b8ff" stroke="#63b8ff" points="341.07,-83.07 335.44,-74.09 334.24,-84.62 341.07,-83.07"/>
</a>
</g>
</g>
<!-- Node15 -->
<g id="Node000015" class="node">
<title>Node15</title>
<g id="a_Node000015"><a xlink:title=" ">
<polygon fill="#e0e0e0" stroke="#999999" points="361,-19 306,-19 306,0 361,0 361,-19"/>
<text text-anchor="middle" x="333.5" y="-7" font-family="Helvetica,sans-Serif" font-size="10.00">signal.h</text>
</a>
</g>
</g>
<!-- Node14&#45;&gt;Node15 -->
<g id="edge20_Node000014_Node000015" class="edge">
<title>Node14&#45;&gt;Node15</title>
<g id="a_edge20_Node000014_Node000015"><a xlink:title=" ">
<path fill="none" stroke="#63b8ff" d="M333.5,-54.75C333.5,-47.8 333.5,-37.85 333.5,-29.13"/>
<polygon fill="#63b8ff" stroke="#63b8ff" points="337,-29.09 333.5,-19.09 330,-29.09 337,-29.09"/>
</a>
</g>
</g>
<!-- Node16&#45;&gt;Node5 -->
<g id="edge22_Node000016_Node000005" class="edge">
<title>Node16&#45;&gt;Node5</title>
<g id="a_edge22_Node000016_Node000005"><a xlink:title=" ">
<path fill="none" stroke="#63b8ff" d="M207.1,-109.98C186.48,-101.38 154.39,-87.99 130.81,-78.15"/>
<polygon fill="#63b8ff" stroke="#63b8ff" points="131.85,-74.79 121.28,-74.17 129.16,-81.25 131.85,-74.79"/>
</a>
</g>
</g>
<!-- Node17&#45;&gt;Node3 -->
<g id="edge24_Node000017_Node000003" class="edge">
<title>Node17&#45;&gt;Node3</title>
<g id="a_edge24_Node000017_Node000003"><a xlink:title=" ">
<path fill="none" stroke="#63b8ff" d="M501.37,-219.6C501.66,-206.2 504.08,-180.75 517.5,-165 560.72,-114.25 634.54,-88.64 687.09,-76.24"/>
<polygon fill="#63b8ff" stroke="#63b8ff" points="688,-79.63 696.98,-74 686.45,-72.8 688,-79.63"/>
</a>
</g>
</g>
<!-- Node17&#45;&gt;Node4 -->
<g id="edge27_Node000017_Node000004" class="edge">
<title>Node17&#45;&gt;Node4</title>
<g id="a_edge27_Node000017_Node000004"><a xlink:title=" ">
<path fill="none" stroke="#63b8ff" d="M461.31,-225.96C384.73,-219.63 214.53,-198.25 91.5,-129 70.55,-117.21 51.51,-96.96 39.53,-82.49"/>
<polygon fill="#63b8ff" stroke="#63b8ff" points="42.01,-79.99 33.03,-74.36 36.54,-84.36 42.01,-79.99"/>
</a>
</g>
</g>
<!-- Node17&#45;&gt;Node6 -->
<g id="edge28_Node000017_Node000006" class="edge">
<title>Node17&#45;&gt;Node6</title>
<g id="a_edge28_Node000017_Node000006"><a xlink:title=" ">
<path fill="none" stroke="#63b8ff" d="M476.44,-219.98C450.47,-211.16 409.69,-197.31 380.54,-187.41"/>
<polygon fill="#63b8ff" stroke="#63b8ff" points="381.35,-183.99 370.76,-184.08 379.1,-190.61 381.35,-183.99"/>
</a>
</g>
</g>
<!-- Node18 -->
<g id="Node000018" class="node">
<title>Node18</title>
<g id="a_Node000018"><a xlink:title=" ">
<polygon fill="#e0e0e0" stroke="#999999" points="627,-184 526,-184 526,-165 627,-165 627,-184"/>
<text text-anchor="middle" x="576.5" y="-172" font-family="Helvetica,sans-Serif" font-size="10.00">QCoreApplication</text>
</a>
</g>
</g>
<!-- Node17&#45;&gt;Node18 -->
<g id="edge25_Node000017_Node000018" class="edge">
<title>Node17&#45;&gt;Node18</title>
<g id="a_edge25_Node000017_Node000018"><a xlink:title=" ">
<path fill="none" stroke="#63b8ff" d="M513.55,-219.98C524.96,-211.92 542.33,-199.65 555.93,-190.03"/>
<polygon fill="#63b8ff" stroke="#63b8ff" points="558.08,-192.8 564.23,-184.17 554.04,-187.08 558.08,-192.8"/>
</a>
</g>
</g>
<!-- Node19 -->
<g id="Node000019" class="node">
<title>Node19</title>
<g id="a_Node000019"><a xlink:title=" ">
<polygon fill="#e0e0e0" stroke="#999999" points="717.5,-184 645.5,-184 645.5,-165 717.5,-165 717.5,-184"/>
<text text-anchor="middle" x="681.5" y="-172" font-family="Helvetica,sans-Serif" font-size="10.00">QException</text>
</a>
</g>
</g>
<!-- Node17&#45;&gt;Node19 -->
<g id="edge26_Node000017_Node000019" class="edge">
<title>Node17&#45;&gt;Node19</title>
<g id="a_edge26_Node000017_Node000019"><a xlink:title=" ">
<path fill="none" stroke="#63b8ff" d="M530.42,-219.98C560.77,-211.05 608.67,-196.94 642.38,-187.02"/>
<polygon fill="#63b8ff" stroke="#63b8ff" points="643.75,-190.26 652.35,-184.08 641.77,-183.55 643.75,-190.26"/>
</a>
</g>
</g>
</g>
</svg>

<g id="navigator" transform="translate(0 0)" fill="#404254">
  <rect fill="#f2f5e9" fill-opacity="0.5" stroke="#606060" stroke-width=".5" x="0" y="0" width="60" height="60"/>
  <use id="zoomplus" xlink:href="#zoomPlus" x="17" y="9" onmousedown="handleZoom(evt,'in')"/>
  <use id="zoomminus" xlink:href="#zoomMin" x="42" y="9" onmousedown="handleZoom(evt,'out')"/>
  <use id="reset" xlink:href="#resetDef" x="30" y="36" onmousedown="handleReset()"/>
   <use id="arrowup" xlink:href="#arrowUp" x="0" y="0" onmousedown="handlePan(0,-1)"/>
  <use id="arrowright" xlink:href="#arrowRight" x="0" y="0" onmousedown="handlePan(1,0)"/>
  <use id="arrowdown" xlink:href="#arrowDown" x="0" y="0" onmousedown="handlePan(0,1)"/>
  <use id="arrowleft" xlink:href="#arrowLeft" x="0" y="0" onmousedown="handlePan(-1,0)"/>
</g>
<svg viewBox="0 0 15 15" width="100%" height="30px" preserveAspectRatio="xMaxYMin meet">
 <g id="arrow_out" transform="scale(0.3 0.3)">
  <a xlink:href="vexceptionemptyparameter_8cpp__incl_org.svg" target="_base">
   <rect id="button" ry="5" rx="5" y="6" x="6" height="38" width="38"
        fill="#f2f5e9" fill-opacity="0.5" stroke="#606060" stroke-width="1.0"/>
   <path id="arrow"
     d="M 11.500037,31.436501 C 11.940474,20.09759 22.043105,11.32322 32.158766,21.979434 L 37.068811,17.246167 C 37.068811,17.246167 37.088388,32 37.088388,32 L 22.160133,31.978069 C 22.160133,31.978069 26.997745,27.140456 26.997745,27.140456 C 18.528582,18.264221 13.291696,25.230495 11.500037,31.436501 z"
     style="fill:#404040;"/>
  </a>
 </g>
</svg>

<style type='text/css'>
<![CDATA[
[data-mouse-over-selected='false'] { opacity: 0.7; }
[data-mouse-over-selected='true']  { opacity: 1.0; }
]]>
</style>
<script type="application/ecmascript"><![CDATA[
document.addEventListener('DOMContentLoaded', (event) => {
  highlightEdges();
  highlightAdjacentNodes();
});
]]></script>
</svg>
