<?xml version="1.0" encoding="UTF-8" standalone="no"?>
<!DOCTYPE svg PUBLIC "-//W3C//DTD SVG 1.1//EN"
 "http://www.w3.org/Graphics/SVG/1.1/DTD/svg11.dtd">
<!-- Generated by graphviz version 2.43.0 (0)
 -->
<!-- Title: src/libs/vpatterndb/variables.h Pages: 1 -->
<svg width="1738pt" height="269pt"
 viewBox="0.00 0.00 1738.40 269.00" xmlns="http://www.w3.org/2000/svg" xmlns:xlink="http://www.w3.org/1999/xlink">
<g id="graph0" class="graph" transform="scale(1 1) rotate(0) translate(4 265)">
<title>src/libs/vpatterndb/variables.h</title>
<!-- Node1 -->
<g id="Node000001" class="node">
<title>Node1</title>
<g id="a_Node000001"><a xlink:title=" ">
<polygon fill="#999999" stroke="#666666" points="954.74,-261 847.74,-261 847.74,-231 954.74,-231 954.74,-261"/>
<text text-anchor="start" x="855.74" y="-249" font-family="Helvetica,sans-Serif" font-size="10.00">src/libs/vpatterndb</text>
<text text-anchor="middle" x="901.24" y="-238" font-family="Helvetica,sans-Serif" font-size="10.00">/variables.h</text>
</a>
</g>
</g>
<!-- Node2 -->
<g id="Node000002" class="node">
<title>Node2</title>
<g id="a_Node000002"><a xlink:href="../../d4/df4/vinternalvariable_8h.html" target="_top" xlink:title=" ">
<polygon fill="white" stroke="#666666" points="850.74,-74 693.74,-74 693.74,-55 850.74,-55 850.74,-74"/>
<text text-anchor="middle" x="772.24" y="-62" font-family="Helvetica,sans-Serif" font-size="10.00">variables/vinternalvariable.h</text>
</a>
</g>
</g>
<!-- Node1&#45;&gt;Node2 -->
<g id="edge1_Node000001_Node000002" class="edge">
<title>Node1&#45;&gt;Node2</title>
<g id="a_edge1_Node000001_Node000002"><a xlink:title=" ">
<path fill="none" stroke="#63b8ff" d="M868.85,-230.94C852.68,-222.53 833.92,-210.45 821.24,-195 793.77,-161.5 780.69,-110.97 775.36,-84.01"/>
<polygon fill="#63b8ff" stroke="#63b8ff" points="778.77,-83.21 773.53,-74.01 771.89,-84.48 778.77,-83.21"/>
</a>
</g>
</g>
<!-- Node8 -->
<g id="Node000008" class="node">
<title>Node8</title>
<g id="a_Node000008"><a xlink:href="../../d7/d1e/measurement__variable_8h.html" target="_top" xlink:title=" ">
<polygon fill="white" stroke="#666666" points="365.74,-195 232.74,-195 232.74,-165 365.74,-165 365.74,-195"/>
<text text-anchor="start" x="240.74" y="-183" font-family="Helvetica,sans-Serif" font-size="10.00">variables/measurement</text>
<text text-anchor="middle" x="299.24" y="-172" font-family="Helvetica,sans-Serif" font-size="10.00">_variable.h</text>
</a>
</g>
</g>
<!-- Node1&#45;&gt;Node8 -->
<g id="edge7_Node000001_Node000008" class="edge">
<title>Node1&#45;&gt;Node8</title>
<g id="a_edge7_Node000001_Node000008"><a xlink:title=" ">
<path fill="none" stroke="#63b8ff" d="M847.56,-239.29C740.48,-227.91 500.06,-202.35 376.21,-189.18"/>
<polygon fill="#63b8ff" stroke="#63b8ff" points="376.36,-185.68 366.05,-188.1 375.62,-192.64 376.36,-185.68"/>
</a>
</g>
</g>
<!-- Node14 -->
<g id="Node000014" class="node">
<title>Node14</title>
<g id="a_Node000014"><a xlink:href="../../d9/d7e/vincrement_8h.html" target="_top" xlink:title=" ">
<polygon fill="white" stroke="#666666" points="1110.74,-189.5 981.74,-189.5 981.74,-170.5 1110.74,-170.5 1110.74,-189.5"/>
<text text-anchor="middle" x="1046.24" y="-177.5" font-family="Helvetica,sans-Serif" font-size="10.00">variables/vincrement.h</text>
</a>
</g>
</g>
<!-- Node1&#45;&gt;Node14 -->
<g id="edge26_Node000001_Node000014" class="edge">
<title>Node1&#45;&gt;Node14</title>
<g id="a_edge26_Node000001_Node000014"><a xlink:title=" ">
<path fill="none" stroke="#63b8ff" d="M933.06,-230.95C958.27,-219.83 993.17,-204.42 1017.53,-193.67"/>
<polygon fill="#63b8ff" stroke="#63b8ff" points="1019.21,-196.76 1026.95,-189.52 1016.39,-190.35 1019.21,-196.76"/>
</a>
</g>
</g>
<!-- Node15 -->
<g id="Node000015" class="node">
<title>Node15</title>
<g id="a_Node000015"><a xlink:href="../../df/d03/vcurvelength_8h.html" target="_top" xlink:title=" ">
<polygon fill="white" stroke="#666666" points="1265.74,-189.5 1128.74,-189.5 1128.74,-170.5 1265.74,-170.5 1265.74,-189.5"/>
<text text-anchor="middle" x="1197.24" y="-177.5" font-family="Helvetica,sans-Serif" font-size="10.00">variables/vcurvelength.h</text>
</a>
</g>
</g>
<!-- Node1&#45;&gt;Node15 -->
<g id="edge33_Node000001_Node000015" class="edge">
<title>Node1&#45;&gt;Node15</title>
<g id="a_edge33_Node000001_Node000015"><a xlink:title=" ">
<path fill="none" stroke="#63b8ff" d="M954.85,-233.41C1009.78,-221.53 1094.5,-203.21 1147.85,-191.68"/>
<polygon fill="#63b8ff" stroke="#63b8ff" points="1148.72,-195.07 1157.76,-189.54 1147.25,-188.23 1148.72,-195.07"/>
</a>
</g>
</g>
<!-- Node17 -->
<g id="Node000017" class="node">
<title>Node17</title>
<g id="a_Node000017"><a xlink:href="../../dd/d2a/vlinelength_8h.html" target="_top" xlink:title=" ">
<polygon fill="white" stroke="#666666" points="649.24,-129 521.24,-129 521.24,-110 649.24,-110 649.24,-129"/>
<text text-anchor="middle" x="585.24" y="-117" font-family="Helvetica,sans-Serif" font-size="10.00">variables/vlinelength.h</text>
</a>
</g>
</g>
<!-- Node1&#45;&gt;Node17 -->
<g id="edge45_Node000001_Node000017" class="edge">
<title>Node1&#45;&gt;Node17</title>
<g id="a_edge45_Node000001_Node000017"><a xlink:title=" ">
<path fill="none" stroke="#63b8ff" d="M858.41,-230.9C829.85,-221.28 791.57,-207.98 758.24,-195 706.52,-174.85 647.33,-148.67 613.31,-133.31"/>
<polygon fill="#63b8ff" stroke="#63b8ff" points="614.56,-130.03 604.01,-129.1 611.67,-136.41 614.56,-130.03"/>
</a>
</g>
</g>
<!-- Node18 -->
<g id="Node000018" class="node">
<title>Node18</title>
<g id="a_Node000018"><a xlink:href="../../dd/dd9/vlineangle_8h.html" target="_top" xlink:title=" ">
<polygon fill="white" stroke="#666666" points="941.74,-129 816.74,-129 816.74,-110 941.74,-110 941.74,-129"/>
<text text-anchor="middle" x="879.24" y="-117" font-family="Helvetica,sans-Serif" font-size="10.00">variables/vlineangle.h</text>
</a>
</g>
</g>
<!-- Node1&#45;&gt;Node18 -->
<g id="edge53_Node000001_Node000018" class="edge">
<title>Node1&#45;&gt;Node18</title>
<g id="a_edge53_Node000001_Node000018"><a xlink:title=" ">
<path fill="none" stroke="#63b8ff" d="M868.73,-230.84C854.16,-222.65 838.44,-210.79 830.24,-195 824.1,-183.16 824.85,-177.19 830.24,-165 835.57,-152.97 845.93,-142.8 855.76,-135.24"/>
<polygon fill="#63b8ff" stroke="#63b8ff" points="858.01,-137.93 864.12,-129.27 853.94,-132.23 858.01,-137.93"/>
</a>
</g>
</g>
<!-- Node19 -->
<g id="Node000019" class="node">
<title>Node19</title>
<g id="a_Node000019"><a xlink:href="../../d1/d1c/varcradius_8h.html" target="_top" xlink:title=" ">
<polygon fill="white" stroke="#666666" points="963.74,-189.5 838.74,-189.5 838.74,-170.5 963.74,-170.5 963.74,-189.5"/>
<text text-anchor="middle" x="901.24" y="-177.5" font-family="Helvetica,sans-Serif" font-size="10.00">variables/varcradius.h</text>
</a>
</g>
</g>
<!-- Node1&#45;&gt;Node19 -->
<g id="edge59_Node000001_Node000019" class="edge">
<title>Node1&#45;&gt;Node19</title>
<g id="a_edge59_Node000001_Node000019"><a xlink:title=" ">
<path fill="none" stroke="#63b8ff" d="M901.24,-230.8C901.24,-221.7 901.24,-209.79 901.24,-199.9"/>
<polygon fill="#63b8ff" stroke="#63b8ff" points="904.74,-199.84 901.24,-189.84 897.74,-199.84 904.74,-199.84"/>
</a>
</g>
</g>
<!-- Node20 -->
<g id="Node000020" class="node">
<title>Node20</title>
<g id="a_Node000020"><a xlink:href="../../d9/d7c/vcurveangle_8h.html" target="_top" xlink:title=" ">
<polygon fill="white" stroke="#666666" points="1418.24,-189.5 1284.24,-189.5 1284.24,-170.5 1418.24,-170.5 1418.24,-189.5"/>
<text text-anchor="middle" x="1351.24" y="-177.5" font-family="Helvetica,sans-Serif" font-size="10.00">variables/vcurveangle.h</text>
</a>
</g>
</g>
<!-- Node1&#45;&gt;Node20 -->
<g id="edge65_Node000001_Node000020" class="edge">
<title>Node1&#45;&gt;Node20</title>
<g id="a_edge65_Node000001_Node000020"><a xlink:title=" ">
<path fill="none" stroke="#63b8ff" d="M954.94,-238.67C1027.68,-229.89 1161.54,-213.06 1275.24,-195 1282.35,-193.87 1289.81,-192.6 1297.17,-191.3"/>
<polygon fill="#63b8ff" stroke="#63b8ff" points="1297.88,-194.73 1307.1,-189.51 1296.64,-187.84 1297.88,-194.73"/>
</a>
</g>
</g>
<!-- Node21 -->
<g id="Node000021" class="node">
<title>Node21</title>
<g id="a_Node000021"><a xlink:href="../../d1/d66/vcurveclength_8h.html" target="_top" xlink:title=" ">
<polygon fill="white" stroke="#666666" points="1579.74,-189.5 1436.74,-189.5 1436.74,-170.5 1579.74,-170.5 1579.74,-189.5"/>
<text text-anchor="middle" x="1508.24" y="-177.5" font-family="Helvetica,sans-Serif" font-size="10.00">variables/vcurveclength.h</text>
</a>
</g>
</g>
<!-- Node1&#45;&gt;Node21 -->
<g id="edge70_Node000001_Node000021" class="edge">
<title>Node1&#45;&gt;Node21</title>
<g id="a_edge70_Node000001_Node000021"><a xlink:title=" ">
<path fill="none" stroke="#63b8ff" d="M954.78,-241.27C1050.05,-234.33 1255.18,-218.01 1427.24,-195 1435.39,-193.91 1443.97,-192.6 1452.38,-191.23"/>
<polygon fill="#63b8ff" stroke="#63b8ff" points="1453.22,-194.64 1462.5,-189.53 1452.06,-187.73 1453.22,-194.64"/>
</a>
</g>
</g>
<!-- Node3 -->
<g id="Node000003" class="node">
<title>Node3</title>
<g id="a_Node000003"><a xlink:title=" ">
<polygon fill="#e0e0e0" stroke="#999999" points="647.24,-19 531.24,-19 531.24,0 647.24,0 647.24,-19"/>
<text text-anchor="middle" x="589.24" y="-7" font-family="Helvetica,sans-Serif" font-size="10.00">QSharedDataPointer</text>
</a>
</g>
</g>
<!-- Node2&#45;&gt;Node3 -->
<g id="edge2_Node000002_Node000003" class="edge">
<title>Node2&#45;&gt;Node3</title>
<g id="a_edge2_Node000002_Node000003"><a xlink:title=" ">
<path fill="none" stroke="#63b8ff" d="M742.84,-54.98C711.85,-46.01 662.87,-31.82 628.57,-21.89"/>
<polygon fill="#63b8ff" stroke="#63b8ff" points="629.46,-18.5 618.88,-19.08 627.51,-25.23 629.46,-18.5"/>
</a>
</g>
</g>
<!-- Node4 -->
<g id="Node000004" class="node">
<title>Node4</title>
<g id="a_Node000004"><a xlink:title=" ">
<polygon fill="#e0e0e0" stroke="#999999" points="1575.74,-19 1522.74,-19 1522.74,0 1575.74,0 1575.74,-19"/>
<text text-anchor="middle" x="1549.24" y="-7" font-family="Helvetica,sans-Serif" font-size="10.00">QString</text>
</a>
</g>
</g>
<!-- Node2&#45;&gt;Node4 -->
<g id="edge3_Node000002_Node000004" class="edge">
<title>Node2&#45;&gt;Node4</title>
<g id="a_edge3_Node000002_Node000004"><a xlink:title=" ">
<path fill="none" stroke="#63b8ff" d="M851.02,-58.13C1016.18,-46.86 1393.26,-21.14 1512.43,-13.01"/>
<polygon fill="#63b8ff" stroke="#63b8ff" points="1512.76,-16.5 1522.5,-12.32 1512.29,-9.51 1512.76,-16.5"/>
</a>
</g>
</g>
<!-- Node5 -->
<g id="Node000005" class="node">
<title>Node5</title>
<g id="a_Node000005"><a xlink:title=" ">
<polygon fill="#e0e0e0" stroke="#999999" points="804.74,-19 739.74,-19 739.74,0 804.74,0 804.74,-19"/>
<text text-anchor="middle" x="772.24" y="-7" font-family="Helvetica,sans-Serif" font-size="10.00">QTypeInfo</text>
</a>
</g>
</g>
<!-- Node2&#45;&gt;Node5 -->
<g id="edge4_Node000002_Node000005" class="edge">
<title>Node2&#45;&gt;Node5</title>
<g id="a_edge4_Node000002_Node000005"><a xlink:title=" ">
<path fill="none" stroke="#63b8ff" d="M772.24,-54.75C772.24,-47.8 772.24,-37.85 772.24,-29.13"/>
<polygon fill="#63b8ff" stroke="#63b8ff" points="775.74,-29.09 772.24,-19.09 768.74,-29.09 775.74,-29.09"/>
</a>
</g>
</g>
<!-- Node6 -->
<g id="Node000006" class="node">
<title>Node6</title>
<g id="a_Node000006"><a xlink:title=" ">
<polygon fill="#e0e0e0" stroke="#999999" points="1388.74,-19 1329.74,-19 1329.74,0 1388.74,0 1388.74,-19"/>
<text text-anchor="middle" x="1359.24" y="-7" font-family="Helvetica,sans-Serif" font-size="10.00">QtGlobal</text>
</a>
</g>
</g>
<!-- Node2&#45;&gt;Node6 -->
<g id="edge5_Node000002_Node000006" class="edge">
<title>Node2&#45;&gt;Node6</title>
<g id="a_edge5_Node000002_Node000006"><a xlink:title=" ">
<path fill="none" stroke="#63b8ff" d="M850.8,-56.41C977.72,-44.95 1223.35,-22.77 1319.39,-14.1"/>
<polygon fill="#63b8ff" stroke="#63b8ff" points="1319.9,-17.57 1329.55,-13.18 1319.27,-10.59 1319.9,-17.57"/>
</a>
</g>
</g>
<!-- Node7 -->
<g id="Node000007" class="node">
<title>Node7</title>
<g id="a_Node000007"><a xlink:title=" ">
<polygon fill="#e0e0e0" stroke="#999999" points="354.24,-19 272.24,-19 272.24,0 354.24,0 354.24,-19"/>
<text text-anchor="middle" x="313.24" y="-7" font-family="Helvetica,sans-Serif" font-size="10.00">../vmisc/def.h</text>
</a>
</g>
</g>
<!-- Node2&#45;&gt;Node7 -->
<g id="edge6_Node000002_Node000007" class="edge">
<title>Node2&#45;&gt;Node7</title>
<g id="a_edge6_Node000002_Node000007"><a xlink:title=" ">
<path fill="none" stroke="#63b8ff" d="M698.5,-54.98C604.81,-44.17 445.56,-25.78 364.28,-16.39"/>
<polygon fill="#63b8ff" stroke="#63b8ff" points="364.62,-12.91 354.28,-15.24 363.82,-19.86 364.62,-12.91"/>
</a>
</g>
</g>
<!-- Node8&#45;&gt;Node3 -->
<g id="edge10_Node000008_Node000003" class="edge">
<title>Node8&#45;&gt;Node3</title>
<g id="a_edge10_Node000008_Node000003"><a xlink:title=" ">
<path fill="none" stroke="#63b8ff" d="M285.19,-164.71C262.35,-139.76 222.48,-87.8 251.24,-55 268.71,-35.08 427.07,-21.26 520.7,-14.75"/>
<polygon fill="#63b8ff" stroke="#63b8ff" points="521.21,-18.22 530.95,-14.05 520.73,-11.24 521.21,-18.22"/>
</a>
</g>
</g>
<!-- Node8&#45;&gt;Node4 -->
<g id="edge11_Node000008_Node000004" class="edge">
<title>Node8&#45;&gt;Node4</title>
<g id="a_edge11_Node000008_Node000004"><a xlink:title=" ">
<path fill="none" stroke="#63b8ff" d="M365.76,-177.52C579.56,-172.53 1240.65,-155.13 1333.24,-129 1411.8,-106.83 1493.26,-51.87 1529.65,-25.32"/>
<polygon fill="#63b8ff" stroke="#63b8ff" points="1531.94,-27.98 1537.9,-19.22 1527.78,-22.35 1531.94,-27.98"/>
</a>
</g>
</g>
<!-- Node8&#45;&gt;Node5 -->
<g id="edge13_Node000008_Node000005" class="edge">
<title>Node8&#45;&gt;Node5</title>
<g id="a_edge13_Node000008_Node000005"><a xlink:title=" ">
<path fill="none" stroke="#63b8ff" d="M297.03,-164.96C293.83,-138.97 291.28,-83.44 322.24,-55 329.71,-48.14 618.17,-23.37 729.25,-14.07"/>
<polygon fill="#63b8ff" stroke="#63b8ff" points="729.76,-17.54 739.43,-13.22 729.18,-10.56 729.76,-17.54"/>
</a>
</g>
</g>
<!-- Node8&#45;&gt;Node6 -->
<g id="edge14_Node000008_Node000006" class="edge">
<title>Node8&#45;&gt;Node6</title>
<g id="a_edge14_Node000008_Node000006"><a xlink:title=" ">
<path fill="none" stroke="#63b8ff" d="M365.77,-177.62C509.2,-174.05 843.31,-162.32 951.24,-129 967.41,-124.01 969.43,-118.18 984.24,-110 1030.02,-84.73 1038.69,-71.68 1088.24,-55 1167.68,-28.27 1265.8,-17.27 1319.49,-13"/>
<polygon fill="#63b8ff" stroke="#63b8ff" points="1319.91,-16.47 1329.62,-12.23 1319.38,-9.49 1319.91,-16.47"/>
</a>
</g>
</g>
<!-- Node8&#45;&gt;Node7 -->
<g id="edge15_Node000008_Node000007" class="edge">
<title>Node8&#45;&gt;Node7</title>
<g id="a_edge15_Node000008_Node000007"><a xlink:title=" ">
<path fill="none" stroke="#63b8ff" d="M232.66,-176.88C157.35,-172.92 41.58,-161.55 14.24,-129 -56.58,-44.67 159.19,-19.94 262,-13.03"/>
<polygon fill="#63b8ff" stroke="#63b8ff" points="262.42,-16.52 272.18,-12.38 261.98,-9.53 262.42,-16.52"/>
</a>
</g>
</g>
<!-- Node9 -->
<g id="Node000009" class="node">
<title>Node9</title>
<g id="a_Node000009"><a xlink:title=" ">
<polygon fill="#e0e0e0" stroke="#999999" points="1217.24,-74 1097.24,-74 1097.24,-55 1217.24,-55 1217.24,-74"/>
<text text-anchor="middle" x="1157.24" y="-62" font-family="Helvetica,sans-Serif" font-size="10.00">qcompilerdetection.h</text>
</a>
</g>
</g>
<!-- Node8&#45;&gt;Node9 -->
<g id="edge8_Node000008_Node000009" class="edge">
<title>Node8&#45;&gt;Node9</title>
<g id="a_edge8_Node000008_Node000009"><a xlink:title=" ">
<path fill="none" stroke="#63b8ff" d="M365.9,-177.43C514.53,-173.39 869.05,-160.66 984.24,-129 1002.45,-124 1004.79,-117.2 1022.24,-110 1053.6,-97.07 1090.2,-85.2 1117.38,-76.97"/>
<polygon fill="#63b8ff" stroke="#63b8ff" points="1118.72,-80.23 1127.3,-74.01 1116.71,-73.52 1118.72,-80.23"/>
</a>
</g>
</g>
<!-- Node10 -->
<g id="Node000010" class="node">
<title>Node10</title>
<g id="a_Node000010"><a xlink:title=" ">
<polygon fill="#e0e0e0" stroke="#999999" points="156.74,-129 111.74,-129 111.74,-110 156.74,-110 156.74,-129"/>
<text text-anchor="middle" x="134.24" y="-117" font-family="Helvetica,sans-Serif" font-size="10.00">QMap</text>
</a>
</g>
</g>
<!-- Node8&#45;&gt;Node10 -->
<g id="edge9_Node000008_Node000010" class="edge">
<title>Node8&#45;&gt;Node10</title>
<g id="a_edge9_Node000008_Node000010"><a xlink:title=" ">
<path fill="none" stroke="#63b8ff" d="M259.72,-164.99C231.32,-154.92 193.48,-141.5 166.81,-132.05"/>
<polygon fill="#63b8ff" stroke="#63b8ff" points="167.77,-128.67 157.18,-128.63 165.43,-135.27 167.77,-128.67"/>
</a>
</g>
</g>
<!-- Node11 -->
<g id="Node000011" class="node">
<title>Node11</title>
<g id="a_Node000011"><a xlink:title=" ">
<polygon fill="#e0e0e0" stroke="#999999" points="93.24,-129 23.24,-129 23.24,-110 93.24,-110 93.24,-129"/>
<text text-anchor="middle" x="58.24" y="-117" font-family="Helvetica,sans-Serif" font-size="10.00">QStringList</text>
</a>
</g>
</g>
<!-- Node8&#45;&gt;Node11 -->
<g id="edge12_Node000008_Node000011" class="edge">
<title>Node8&#45;&gt;Node11</title>
<g id="a_edge12_Node000008_Node000011"><a xlink:title=" ">
<path fill="none" stroke="#63b8ff" d="M241.52,-164.99C199.21,-154.72 142.57,-140.97 103.51,-131.49"/>
<polygon fill="#63b8ff" stroke="#63b8ff" points="104.03,-128.01 93.48,-129.05 102.37,-134.81 104.03,-128.01"/>
</a>
</g>
</g>
<!-- Node12 -->
<g id="Node000012" class="node">
<title>Node12</title>
<g id="a_Node000012"><a xlink:title=" ">
<polygon fill="#e0e0e0" stroke="#999999" points="408.74,-74 331.74,-74 331.74,-55 408.74,-55 408.74,-74"/>
<text text-anchor="middle" x="370.24" y="-62" font-family="Helvetica,sans-Serif" font-size="10.00">../ifc/ifcdef.h</text>
</a>
</g>
</g>
<!-- Node8&#45;&gt;Node12 -->
<g id="edge16_Node000008_Node000012" class="edge">
<title>Node8&#45;&gt;Node12</title>
<g id="a_edge16_Node000008_Node000012"><a xlink:title=" ">
<path fill="none" stroke="#63b8ff" d="M302.06,-164.9C305.44,-150.3 312.09,-127.26 323.24,-110 330.44,-98.87 340.97,-88.56 350.25,-80.66"/>
<polygon fill="#63b8ff" stroke="#63b8ff" points="352.72,-83.16 358.28,-74.14 348.31,-77.73 352.72,-83.16"/>
</a>
</g>
</g>
<!-- Node13 -->
<g id="Node000013" class="node">
<title>Node13</title>
<g id="a_Node000013"><a xlink:href="../../dd/d6e/vvariable_8h.html" target="_top" xlink:title=" ">
<polygon fill="white" stroke="#666666" points="741.74,-129 670.74,-129 670.74,-110 741.74,-110 741.74,-129"/>
<text text-anchor="middle" x="706.24" y="-117" font-family="Helvetica,sans-Serif" font-size="10.00">vvariable.h</text>
</a>
</g>
</g>
<!-- Node8&#45;&gt;Node13 -->
<g id="edge17_Node000008_Node000013" class="edge">
<title>Node8&#45;&gt;Node13</title>
<g id="a_edge17_Node000008_Node000013"><a xlink:title=" ">
<path fill="none" stroke="#63b8ff" d="M365.85,-170.47C438.01,-161.06 556.46,-145.09 658.24,-129 659,-128.88 659.76,-128.76 660.52,-128.64"/>
<polygon fill="#63b8ff" stroke="#63b8ff" points="661.33,-132.05 670.62,-126.96 660.18,-125.15 661.33,-132.05"/>
</a>
</g>
</g>
<!-- Node13&#45;&gt;Node2 -->
<g id="edge25_Node000013_Node000002" class="edge">
<title>Node13&#45;&gt;Node2</title>
<g id="a_edge25_Node000013_Node000002"><a xlink:title=" ">
<path fill="none" stroke="#63b8ff" d="M716.85,-109.98C726.7,-102.07 741.59,-90.11 753.46,-80.58"/>
<polygon fill="#63b8ff" stroke="#63b8ff" points="755.84,-83.16 761.45,-74.17 751.46,-77.7 755.84,-83.16"/>
</a>
</g>
</g>
<!-- Node13&#45;&gt;Node3 -->
<g id="edge19_Node000013_Node000003" class="edge">
<title>Node13&#45;&gt;Node3</title>
<g id="a_edge19_Node000013_Node000003"><a xlink:title=" ">
<path fill="none" stroke="#63b8ff" d="M696.67,-109.66C676.86,-91.38 631.15,-49.18 606.22,-26.17"/>
<polygon fill="#63b8ff" stroke="#63b8ff" points="608.35,-23.37 598.62,-19.16 603.6,-28.51 608.35,-23.37"/>
</a>
</g>
</g>
<!-- Node13&#45;&gt;Node4 -->
<g id="edge20_Node000013_Node000004" class="edge">
<title>Node13&#45;&gt;Node4</title>
<g id="a_edge20_Node000013_Node000004"><a xlink:title=" ">
<path fill="none" stroke="#63b8ff" d="M741.86,-115.5C857.27,-105.79 1214.22,-75.69 1226.24,-74 1330.88,-59.28 1452.86,-32.7 1512.55,-19.07"/>
<polygon fill="#63b8ff" stroke="#63b8ff" points="1513.65,-22.41 1522.61,-16.76 1512.08,-15.58 1513.65,-22.41"/>
</a>
</g>
</g>
<!-- Node13&#45;&gt;Node5 -->
<g id="edge21_Node000013_Node000005" class="edge">
<title>Node13&#45;&gt;Node5</title>
<g id="a_edge21_Node000013_Node000005"><a xlink:title=" ">
<path fill="none" stroke="#63b8ff" d="M698.91,-109.75C689.15,-96.98 674.34,-72.83 685.24,-55 695.09,-38.91 712.79,-28.4 729.67,-21.66"/>
<polygon fill="#63b8ff" stroke="#63b8ff" points="731.24,-24.82 739.45,-18.12 728.85,-18.24 731.24,-24.82"/>
</a>
</g>
</g>
<!-- Node13&#45;&gt;Node6 -->
<g id="edge22_Node000013_Node000006" class="edge">
<title>Node13&#45;&gt;Node6</title>
<g id="a_edge22_Node000013_Node000006"><a xlink:title=" ">
<path fill="none" stroke="#63b8ff" d="M739.38,-110C792.3,-96.67 899.31,-70.76 991.24,-55 1109.85,-34.67 1251.54,-20.29 1319.3,-14.02"/>
<polygon fill="#63b8ff" stroke="#63b8ff" points="1319.89,-17.49 1329.53,-13.09 1319.25,-10.51 1319.89,-17.49"/>
</a>
</g>
</g>
<!-- Node13&#45;&gt;Node7 -->
<g id="edge23_Node000013_Node000007" class="edge">
<title>Node13&#45;&gt;Node7</title>
<g id="a_edge23_Node000013_Node000007"><a xlink:title=" ">
<path fill="none" stroke="#63b8ff" d="M675.08,-109.94C604.71,-90.6 433.52,-43.55 354.48,-21.83"/>
<polygon fill="#63b8ff" stroke="#63b8ff" points="354.98,-18.34 344.41,-19.07 353.13,-25.09 354.98,-18.34"/>
</a>
</g>
</g>
<!-- Node13&#45;&gt;Node9 -->
<g id="edge18_Node000013_Node000009" class="edge">
<title>Node13&#45;&gt;Node9</title>
<g id="a_edge18_Node000013_Node000009"><a xlink:title=" ">
<path fill="none" stroke="#63b8ff" d="M742.01,-114.3C816.46,-105.55 989.26,-85.24 1086.86,-73.77"/>
<polygon fill="#63b8ff" stroke="#63b8ff" points="1087.41,-77.23 1096.93,-72.59 1086.59,-70.28 1087.41,-77.23"/>
</a>
</g>
</g>
<!-- Node13&#45;&gt;Node12 -->
<g id="edge24_Node000013_Node000012" class="edge">
<title>Node13&#45;&gt;Node12</title>
<g id="a_edge24_Node000013_Node000012"><a xlink:title=" ">
<path fill="none" stroke="#63b8ff" d="M670.61,-112.1C666.44,-111.38 662.25,-110.66 658.24,-110 574.37,-96.1 476.52,-81.27 419.17,-72.73"/>
<polygon fill="#63b8ff" stroke="#63b8ff" points="419.36,-69.21 408.95,-71.2 418.33,-76.14 419.36,-69.21"/>
</a>
</g>
</g>
<!-- Node14&#45;&gt;Node3 -->
<g id="edge28_Node000014_Node000003" class="edge">
<title>Node14&#45;&gt;Node3</title>
<g id="a_edge28_Node000014_Node000003"><a xlink:title=" ">
<path fill="none" stroke="#63b8ff" d="M1006.22,-170.43C995.55,-168.39 983.99,-166.4 973.24,-165 828.39,-146.14 403.59,-195.32 322.24,-74 317.54,-66.99 316.79,-61.44 322.24,-55 347.25,-25.48 450.54,-15.52 521.07,-12.18"/>
<polygon fill="#63b8ff" stroke="#63b8ff" points="521.39,-15.67 531.22,-11.73 521.08,-8.67 521.39,-15.67"/>
</a>
</g>
</g>
<!-- Node14&#45;&gt;Node4 -->
<g id="edge29_Node000014_Node000004" class="edge">
<title>Node14&#45;&gt;Node4</title>
<g id="a_edge29_Node000014_Node000004"><a xlink:title=" ">
<path fill="none" stroke="#63b8ff" d="M1087.61,-170.43C1098.22,-168.44 1109.62,-166.47 1120.24,-165 1209.74,-152.59 1457.9,-189.24 1525.24,-129 1553.18,-104.01 1553.82,-56.22 1551.65,-29.6"/>
<polygon fill="#63b8ff" stroke="#63b8ff" points="1555.1,-28.9 1550.58,-19.32 1548.14,-29.63 1555.1,-28.9"/>
</a>
</g>
</g>
<!-- Node14&#45;&gt;Node5 -->
<g id="edge30_Node000014_Node000005" class="edge">
<title>Node14&#45;&gt;Node5</title>
<g id="a_edge30_Node000014_Node000005"><a xlink:title=" ">
<path fill="none" stroke="#63b8ff" d="M1039.15,-170.45C1020.29,-148.23 966.43,-88.11 909.24,-55 879.75,-37.92 842.84,-26.42 814.76,-19.39"/>
<polygon fill="#63b8ff" stroke="#63b8ff" points="815.39,-15.94 804.85,-17 813.75,-22.75 815.39,-15.94"/>
</a>
</g>
</g>
<!-- Node14&#45;&gt;Node6 -->
<g id="edge31_Node000014_Node000006" class="edge">
<title>Node14&#45;&gt;Node6</title>
<g id="a_edge31_Node000014_Node000006"><a xlink:title=" ">
<path fill="none" stroke="#63b8ff" d="M1089.62,-170.45C1099.66,-168.57 1110.31,-166.65 1120.24,-165 1232.29,-146.44 1276.64,-188.73 1373.24,-129 1404.69,-109.56 1426.71,-88.58 1411.24,-55 1405.5,-42.52 1394.33,-32.24 1383.82,-24.71"/>
<polygon fill="#63b8ff" stroke="#63b8ff" points="1385.54,-21.65 1375.27,-19.05 1381.68,-27.49 1385.54,-21.65"/>
</a>
</g>
</g>
<!-- Node14&#45;&gt;Node9 -->
<g id="edge27_Node000014_Node000009" class="edge">
<title>Node14&#45;&gt;Node9</title>
<g id="a_edge27_Node000014_Node000009"><a xlink:title=" ">
<path fill="none" stroke="#63b8ff" d="M1055.6,-170.3C1066.13,-160.45 1083.67,-143.83 1098.24,-129 1113.65,-113.33 1130.67,-94.88 1142.46,-81.91"/>
<polygon fill="#63b8ff" stroke="#63b8ff" points="1145.26,-84.03 1149.38,-74.27 1140.07,-79.34 1145.26,-84.03"/>
</a>
</g>
</g>
<!-- Node14&#45;&gt;Node13 -->
<g id="edge32_Node000014_Node000013" class="edge">
<title>Node14&#45;&gt;Node13</title>
<g id="a_edge32_Node000014_Node000013"><a xlink:title=" ">
<path fill="none" stroke="#63b8ff" d="M1002.66,-170.46C992.98,-168.62 982.77,-166.71 973.24,-165 895.84,-151.13 805.54,-136.38 752.28,-127.82"/>
<polygon fill="#63b8ff" stroke="#63b8ff" points="752.56,-124.32 742.14,-126.2 751.46,-131.24 752.56,-124.32"/>
</a>
</g>
</g>
<!-- Node15&#45;&gt;Node4 -->
<g id="edge35_Node000015_Node000004" class="edge">
<title>Node15&#45;&gt;Node4</title>
<g id="a_edge35_Node000015_Node000004"><a xlink:title=" ">
<path fill="none" stroke="#63b8ff" d="M1242.55,-170.45C1253.25,-168.54 1264.63,-166.61 1275.24,-165 1339.01,-155.3 1520.56,-177.35 1563.24,-129 1587.93,-101.03 1570.96,-53.77 1558.72,-28.2"/>
<polygon fill="#63b8ff" stroke="#63b8ff" points="1561.84,-26.61 1554.2,-19.26 1555.59,-29.76 1561.84,-26.61"/>
</a>
</g>
</g>
<!-- Node15&#45;&gt;Node6 -->
<g id="edge36_Node000015_Node000006" class="edge">
<title>Node15&#45;&gt;Node6</title>
<g id="a_edge36_Node000015_Node000006"><a xlink:title=" ">
<path fill="none" stroke="#63b8ff" d="M1241.32,-170.47C1299.78,-158.88 1397.25,-138.53 1411.24,-129 1441.8,-108.19 1468.75,-86.41 1449.24,-55 1438.12,-37.1 1417.43,-26.18 1398.68,-19.64"/>
<polygon fill="#63b8ff" stroke="#63b8ff" points="1399.71,-16.29 1389.12,-16.61 1397.6,-22.97 1399.71,-16.29"/>
</a>
</g>
</g>
<!-- Node15&#45;&gt;Node7 -->
<g id="edge37_Node000015_Node000007" class="edge">
<title>Node15&#45;&gt;Node7</title>
<g id="a_edge37_Node000015_Node000007"><a xlink:title=" ">
<path fill="none" stroke="#63b8ff" d="M1155.83,-170.48C1144.35,-168.39 1131.85,-166.36 1120.24,-165 826.72,-130.5 744.55,-194.02 456.24,-129 393.44,-114.84 361.77,-124.82 322.24,-74 312.52,-61.5 310.82,-43.3 311.24,-29.58"/>
<polygon fill="#63b8ff" stroke="#63b8ff" points="314.75,-29.56 311.95,-19.34 307.76,-29.07 314.75,-29.56"/>
</a>
</g>
</g>
<!-- Node15&#45;&gt;Node9 -->
<g id="edge34_Node000015_Node000009" class="edge">
<title>Node15&#45;&gt;Node9</title>
<g id="a_edge34_Node000015_Node000009"><a xlink:title=" ">
<path fill="none" stroke="#63b8ff" d="M1194.24,-170.47C1187.78,-152.15 1172.46,-108.68 1163.7,-83.81"/>
<polygon fill="#63b8ff" stroke="#63b8ff" points="1166.91,-82.4 1160.29,-74.13 1160.31,-84.72 1166.91,-82.4"/>
</a>
</g>
</g>
<!-- Node15&#45;&gt;Node12 -->
<g id="edge38_Node000015_Node000012" class="edge">
<title>Node15&#45;&gt;Node12</title>
<g id="a_edge38_Node000015_Node000012"><a xlink:title=" ">
<path fill="none" stroke="#63b8ff" d="M1155.42,-170.45C1144.05,-168.38 1131.71,-166.38 1120.24,-165 851.48,-132.73 775.19,-193.3 512.24,-129 468.13,-118.21 420.69,-94.19 393.34,-78.98"/>
<polygon fill="#63b8ff" stroke="#63b8ff" points="394.97,-75.88 384.54,-74.01 391.52,-81.98 394.97,-75.88"/>
</a>
</g>
</g>
<!-- Node16 -->
<g id="Node000016" class="node">
<title>Node16</title>
<g id="a_Node000016"><a xlink:href="../../d2/db0/vcurvevariable_8h.html" target="_top" xlink:title=" ">
<polygon fill="white" stroke="#666666" points="1324.24,-129 1226.24,-129 1226.24,-110 1324.24,-110 1324.24,-129"/>
<text text-anchor="middle" x="1275.24" y="-117" font-family="Helvetica,sans-Serif" font-size="10.00">vcurvevariable.h</text>
</a>
</g>
</g>
<!-- Node15&#45;&gt;Node16 -->
<g id="edge39_Node000015_Node000016" class="edge">
<title>Node15&#45;&gt;Node16</title>
<g id="a_edge39_Node000015_Node000016"><a xlink:title=" ">
<path fill="none" stroke="#63b8ff" d="M1208.75,-170.37C1221.08,-161.12 1240.86,-146.28 1255.65,-135.19"/>
<polygon fill="#63b8ff" stroke="#63b8ff" points="1257.79,-137.97 1263.69,-129.17 1253.59,-132.37 1257.79,-137.97"/>
</a>
</g>
</g>
<!-- Node16&#45;&gt;Node2 -->
<g id="edge44_Node000016_Node000002" class="edge">
<title>Node16&#45;&gt;Node2</title>
<g id="a_edge44_Node000016_Node000002"><a xlink:title=" ">
<path fill="none" stroke="#63b8ff" d="M1226.1,-113.32C1141.56,-104.41 967.49,-86.07 861.19,-74.87"/>
<polygon fill="#63b8ff" stroke="#63b8ff" points="861.43,-71.38 851.12,-73.81 860.7,-78.34 861.43,-71.38"/>
</a>
</g>
</g>
<!-- Node16&#45;&gt;Node3 -->
<g id="edge41_Node000016_Node000003" class="edge">
<title>Node16&#45;&gt;Node3</title>
<g id="a_edge41_Node000016_Node000003"><a xlink:title=" ">
<path fill="none" stroke="#63b8ff" d="M1271.38,-109.6C1264.6,-95.21 1249.08,-67.23 1226.24,-55 1220.03,-51.67 821.05,-25.51 657.77,-14.92"/>
<polygon fill="#63b8ff" stroke="#63b8ff" points="657.57,-11.4 647.36,-14.25 657.11,-18.39 657.57,-11.4"/>
</a>
</g>
</g>
<!-- Node16&#45;&gt;Node5 -->
<g id="edge42_Node000016_Node000005" class="edge">
<title>Node16&#45;&gt;Node5</title>
<g id="a_edge42_Node000016_Node000005"><a xlink:title=" ">
<path fill="none" stroke="#63b8ff" d="M1275.91,-109.94C1276.48,-96.04 1275.31,-68.74 1259.24,-55 1225.84,-26.43 927.85,-14.97 815.15,-11.62"/>
<polygon fill="#63b8ff" stroke="#63b8ff" points="814.94,-8.12 804.84,-11.33 814.74,-15.11 814.94,-8.12"/>
</a>
</g>
</g>
<!-- Node16&#45;&gt;Node6 -->
<g id="edge43_Node000016_Node000006" class="edge">
<title>Node16&#45;&gt;Node6</title>
<g id="a_edge43_Node000016_Node000006"><a xlink:title=" ">
<path fill="none" stroke="#63b8ff" d="M1291.55,-109.91C1304.93,-102.13 1323.52,-89.52 1335.24,-74 1345.35,-60.63 1351.63,-42.52 1355.22,-29.06"/>
<polygon fill="#63b8ff" stroke="#63b8ff" points="1358.69,-29.6 1357.63,-19.06 1351.89,-27.96 1358.69,-29.6"/>
</a>
</g>
</g>
<!-- Node16&#45;&gt;Node9 -->
<g id="edge40_Node000016_Node000009" class="edge">
<title>Node16&#45;&gt;Node9</title>
<g id="a_edge40_Node000016_Node000009"><a xlink:title=" ">
<path fill="none" stroke="#63b8ff" d="M1256.29,-109.98C1237.22,-101.42 1207.58,-88.11 1185.7,-78.28"/>
<polygon fill="#63b8ff" stroke="#63b8ff" points="1187.1,-75.07 1176.55,-74.17 1184.24,-81.46 1187.1,-75.07"/>
</a>
</g>
</g>
<!-- Node17&#45;&gt;Node2 -->
<g id="edge52_Node000017_Node000002" class="edge">
<title>Node17&#45;&gt;Node2</title>
<g id="a_edge52_Node000017_Node000002"><a xlink:title=" ">
<path fill="none" stroke="#63b8ff" d="M615.29,-109.98C646.96,-101.01 697.01,-86.82 732.06,-76.89"/>
<polygon fill="#63b8ff" stroke="#63b8ff" points="733.3,-80.18 741.96,-74.08 731.39,-73.44 733.3,-80.18"/>
</a>
</g>
</g>
<!-- Node17&#45;&gt;Node3 -->
<g id="edge47_Node000017_Node000003" class="edge">
<title>Node17&#45;&gt;Node3</title>
<g id="a_edge47_Node000017_Node000003"><a xlink:title=" ">
<path fill="none" stroke="#63b8ff" d="M570.53,-109.85C552.98,-98.33 527.19,-76.84 537.24,-55 542.99,-42.52 554.15,-32.24 564.67,-24.71"/>
<polygon fill="#63b8ff" stroke="#63b8ff" points="566.81,-27.49 573.22,-19.05 562.95,-21.65 566.81,-27.49"/>
</a>
</g>
</g>
<!-- Node17&#45;&gt;Node5 -->
<g id="edge48_Node000017_Node000005" class="edge">
<title>Node17&#45;&gt;Node5</title>
<g id="a_edge48_Node000017_Node000005"><a xlink:title=" ">
<path fill="none" stroke="#63b8ff" d="M586.67,-109.7C589.36,-95.97 596.49,-69.52 613.24,-55 645.53,-27.01 694.14,-16.53 729.1,-12.66"/>
<polygon fill="#63b8ff" stroke="#63b8ff" points="729.87,-16.1 739.48,-11.65 729.19,-9.13 729.87,-16.1"/>
</a>
</g>
</g>
<!-- Node17&#45;&gt;Node6 -->
<g id="edge49_Node000017_Node000006" class="edge">
<title>Node17&#45;&gt;Node6</title>
<g id="a_edge49_Node000017_Node000006"><a xlink:title=" ">
<path fill="none" stroke="#63b8ff" d="M594.88,-109.98C611.79,-95.63 648.49,-67.01 685.24,-55 804.12,-16.15 1192.75,-11.15 1319.14,-10.56"/>
<polygon fill="#63b8ff" stroke="#63b8ff" points="1319.52,-14.06 1329.51,-10.52 1319.49,-7.06 1319.52,-14.06"/>
</a>
</g>
</g>
<!-- Node17&#45;&gt;Node7 -->
<g id="edge50_Node000017_Node000007" class="edge">
<title>Node17&#45;&gt;Node7</title>
<g id="a_edge50_Node000017_Node000007"><a xlink:title=" ">
<path fill="none" stroke="#63b8ff" d="M559.9,-109.93C534.71,-101.29 495.07,-87.36 461.24,-74 441.43,-66.18 436.81,-63.41 417.24,-55 392.01,-44.15 363.31,-31.88 342.46,-22.97"/>
<polygon fill="#63b8ff" stroke="#63b8ff" points="343.76,-19.72 333.19,-19.01 341.01,-26.16 343.76,-19.72"/>
</a>
</g>
</g>
<!-- Node17&#45;&gt;Node9 -->
<g id="edge46_Node000017_Node000009" class="edge">
<title>Node17&#45;&gt;Node9</title>
<g id="a_edge46_Node000017_Node000009"><a xlink:title=" ">
<path fill="none" stroke="#63b8ff" d="M649.52,-111.31C653.82,-110.85 658.1,-110.42 662.24,-110 813.42,-94.86 990.82,-79.5 1086.84,-71.38"/>
<polygon fill="#63b8ff" stroke="#63b8ff" points="1087.34,-74.85 1097.01,-70.52 1086.75,-67.87 1087.34,-74.85"/>
</a>
</g>
</g>
<!-- Node17&#45;&gt;Node12 -->
<g id="edge51_Node000017_Node000012" class="edge">
<title>Node17&#45;&gt;Node12</title>
<g id="a_edge51_Node000017_Node000012"><a xlink:title=" ">
<path fill="none" stroke="#63b8ff" d="M550.7,-109.98C513.82,-100.89 455.26,-86.46 414.9,-76.51"/>
<polygon fill="#63b8ff" stroke="#63b8ff" points="415.61,-73.08 405.06,-74.08 413.93,-79.87 415.61,-73.08"/>
</a>
</g>
</g>
<!-- Node18&#45;&gt;Node2 -->
<g id="edge58_Node000018_Node000002" class="edge">
<title>Node18&#45;&gt;Node2</title>
<g id="a_edge58_Node000018_Node000002"><a xlink:title=" ">
<path fill="none" stroke="#63b8ff" d="M862.05,-109.98C844.99,-101.54 818.61,-88.47 798.85,-78.68"/>
<polygon fill="#63b8ff" stroke="#63b8ff" points="800.26,-75.47 789.75,-74.17 797.16,-81.75 800.26,-75.47"/>
</a>
</g>
</g>
<!-- Node18&#45;&gt;Node3 -->
<g id="edge55_Node000018_Node000003" class="edge">
<title>Node18&#45;&gt;Node3</title>
<g id="a_edge55_Node000018_Node000003"><a xlink:title=" ">
<path fill="none" stroke="#63b8ff" d="M879.35,-109.57C879,-95.67 876.14,-68.98 860.24,-55 830.86,-29.15 727.7,-18.15 657.49,-13.59"/>
<polygon fill="#63b8ff" stroke="#63b8ff" points="657.58,-10.09 647.38,-12.96 657.14,-17.08 657.58,-10.09"/>
</a>
</g>
</g>
<!-- Node18&#45;&gt;Node5 -->
<g id="edge56_Node000018_Node000005" class="edge">
<title>Node18&#45;&gt;Node5</title>
<g id="a_edge56_Node000018_Node000005"><a xlink:title=" ">
<path fill="none" stroke="#63b8ff" d="M885.02,-109.87C892.96,-96.84 905,-71.85 893.24,-55 875.7,-29.85 842.28,-18.88 815,-14.11"/>
<polygon fill="#63b8ff" stroke="#63b8ff" points="815.31,-10.61 804.89,-12.56 814.25,-17.53 815.31,-10.61"/>
</a>
</g>
</g>
<!-- Node18&#45;&gt;Node6 -->
<g id="edge57_Node000018_Node000006" class="edge">
<title>Node18&#45;&gt;Node6</title>
<g id="a_edge57_Node000018_Node000006"><a xlink:title=" ">
<path fill="none" stroke="#63b8ff" d="M898.9,-109.93C931,-96.27 996.96,-69.62 1055.24,-55 1148.27,-31.66 1260.59,-19.15 1319.21,-13.78"/>
<polygon fill="#63b8ff" stroke="#63b8ff" points="1319.86,-17.23 1329.51,-12.85 1319.24,-10.26 1319.86,-17.23"/>
</a>
</g>
</g>
<!-- Node18&#45;&gt;Node9 -->
<g id="edge54_Node000018_Node000009" class="edge">
<title>Node18&#45;&gt;Node9</title>
<g id="a_edge54_Node000018_Node000009"><a xlink:title=" ">
<path fill="none" stroke="#63b8ff" d="M923.91,-109.98C972.4,-100.74 1049.89,-85.97 1102.13,-76.01"/>
<polygon fill="#63b8ff" stroke="#63b8ff" points="1103.06,-79.39 1112.23,-74.08 1101.75,-72.52 1103.06,-79.39"/>
</a>
</g>
</g>
<!-- Node19&#45;&gt;Node6 -->
<g id="edge61_Node000019_Node000006" class="edge">
<title>Node19&#45;&gt;Node6</title>
<g id="a_edge61_Node000019_Node000006"><a xlink:title=" ">
<path fill="none" stroke="#63b8ff" d="M941.5,-170.49C951.81,-168.5 962.91,-166.52 973.24,-165 1052.79,-153.31 1269.38,-177.84 1333.24,-129 1363.4,-105.94 1363.98,-56.6 1361.68,-29.43"/>
<polygon fill="#63b8ff" stroke="#63b8ff" points="1365.14,-28.85 1360.6,-19.28 1358.18,-29.59 1365.14,-28.85"/>
</a>
</g>
</g>
<!-- Node19&#45;&gt;Node7 -->
<g id="edge62_Node000019_Node000007" class="edge">
<title>Node19&#45;&gt;Node7</title>
<g id="a_edge62_Node000019_Node000007"><a xlink:title=" ">
<path fill="none" stroke="#63b8ff" d="M838.63,-174.74C670.12,-162.64 216.84,-125.53 175.24,-74 148.12,-40.4 212.13,-23.81 261.81,-16.21"/>
<polygon fill="#63b8ff" stroke="#63b8ff" points="262.43,-19.65 271.83,-14.76 261.44,-12.73 262.43,-19.65"/>
</a>
</g>
</g>
<!-- Node19&#45;&gt;Node9 -->
<g id="edge60_Node000019_Node000009" class="edge">
<title>Node19&#45;&gt;Node9</title>
<g id="a_edge60_Node000019_Node000009"><a xlink:title=" ">
<path fill="none" stroke="#63b8ff" d="M922.8,-170.46C947.1,-160.74 987.73,-144.24 1022.24,-129 1060.02,-112.32 1103.1,-91.79 1130.23,-78.67"/>
<polygon fill="#63b8ff" stroke="#63b8ff" points="1131.99,-81.71 1139.46,-74.2 1128.94,-75.41 1131.99,-81.71"/>
</a>
</g>
</g>
<!-- Node19&#45;&gt;Node12 -->
<g id="edge63_Node000019_Node000012" class="edge">
<title>Node19&#45;&gt;Node12</title>
<g id="a_edge63_Node000019_Node000012"><a xlink:title=" ">
<path fill="none" stroke="#63b8ff" d="M838.56,-175.08C736.3,-168.11 538.33,-152.11 472.24,-129 440.31,-117.83 407.91,-95.33 388.44,-80.34"/>
<polygon fill="#63b8ff" stroke="#63b8ff" points="390.48,-77.49 380.45,-74.05 386.14,-82.98 390.48,-77.49"/>
</a>
</g>
</g>
<!-- Node19&#45;&gt;Node16 -->
<g id="edge64_Node000019_Node000016" class="edge">
<title>Node19&#45;&gt;Node16</title>
<g id="a_edge64_Node000019_Node000016"><a xlink:title=" ">
<path fill="none" stroke="#63b8ff" d="M943.44,-170.46C953.21,-168.58 963.58,-166.65 973.24,-165 1057.32,-150.64 1155.04,-136.75 1216.02,-128.41"/>
<polygon fill="#63b8ff" stroke="#63b8ff" points="1216.79,-131.84 1226.23,-127.02 1215.85,-124.9 1216.79,-131.84"/>
</a>
</g>
</g>
<!-- Node20&#45;&gt;Node4 -->
<g id="edge67_Node000020_Node000004" class="edge">
<title>Node20&#45;&gt;Node4</title>
<g id="a_edge67_Node000020_Node000004"><a xlink:title=" ">
<path fill="none" stroke="#63b8ff" d="M1386.82,-170.44C1412.66,-162.85 1447.33,-149.7 1472.24,-129 1506.08,-100.89 1530.29,-54.03 1541.76,-28.47"/>
<polygon fill="#63b8ff" stroke="#63b8ff" points="1545,-29.79 1545.77,-19.22 1538.58,-27.01 1545,-29.79"/>
</a>
</g>
</g>
<!-- Node20&#45;&gt;Node6 -->
<g id="edge68_Node000020_Node000006" class="edge">
<title>Node20&#45;&gt;Node6</title>
<g id="a_edge68_Node000020_Node000006"><a xlink:title=" ">
<path fill="none" stroke="#63b8ff" d="M1375.81,-170.42C1396.95,-162.16 1427.4,-148.12 1449.24,-129 1471.6,-109.43 1478.4,-102.36 1487.24,-74 1499.63,-34.29 1440.88,-19.36 1398.86,-13.78"/>
<polygon fill="#63b8ff" stroke="#63b8ff" points="1399.21,-10.3 1388.86,-12.58 1398.37,-17.25 1399.21,-10.3"/>
</a>
</g>
</g>
<!-- Node20&#45;&gt;Node9 -->
<g id="edge66_Node000020_Node000009" class="edge">
<title>Node20&#45;&gt;Node9</title>
<g id="a_edge66_Node000020_Node000009"><a xlink:title=" ">
<path fill="none" stroke="#63b8ff" d="M1315.6,-170.49C1287.33,-162.66 1247.67,-149.17 1217.24,-129 1198.16,-116.35 1180.72,-96.54 1169.63,-82.42"/>
<polygon fill="#63b8ff" stroke="#63b8ff" points="1172.13,-79.93 1163.29,-74.08 1166.56,-84.16 1172.13,-79.93"/>
</a>
</g>
</g>
<!-- Node20&#45;&gt;Node16 -->
<g id="edge69_Node000020_Node000016" class="edge">
<title>Node20&#45;&gt;Node16</title>
<g id="a_edge69_Node000020_Node000016"><a xlink:title=" ">
<path fill="none" stroke="#63b8ff" d="M1340.03,-170.37C1328.13,-161.21 1309.1,-146.56 1294.74,-135.51"/>
<polygon fill="#63b8ff" stroke="#63b8ff" points="1296.56,-132.49 1286.5,-129.17 1292.29,-138.04 1296.56,-132.49"/>
</a>
</g>
</g>
<!-- Node21&#45;&gt;Node4 -->
<g id="edge72_Node000021_Node000004" class="edge">
<title>Node21&#45;&gt;Node4</title>
<g id="a_edge72_Node000021_Node000004"><a xlink:title=" ">
<path fill="none" stroke="#63b8ff" d="M1580,-171.1C1632.9,-163.62 1698.46,-150.32 1715.24,-129 1735.59,-103.16 1735.26,-81.09 1715.24,-55 1699.61,-34.62 1629.9,-21.52 1585.94,-15.13"/>
<polygon fill="#63b8ff" stroke="#63b8ff" points="1586.29,-11.65 1575.9,-13.72 1585.32,-18.58 1586.29,-11.65"/>
</a>
</g>
</g>
<!-- Node21&#45;&gt;Node6 -->
<g id="edge73_Node000021_Node000006" class="edge">
<title>Node21&#45;&gt;Node6</title>
<g id="a_edge73_Node000021_Node000006"><a xlink:title=" ">
<path fill="none" stroke="#63b8ff" d="M1510.76,-170.35C1516.56,-148.41 1528.41,-89.87 1501.24,-55 1477.25,-24.19 1432.09,-14.25 1399.12,-11.28"/>
<polygon fill="#63b8ff" stroke="#63b8ff" points="1399.11,-7.77 1388.89,-10.54 1398.61,-14.75 1399.11,-7.77"/>
</a>
</g>
</g>
<!-- Node21&#45;&gt;Node9 -->
<g id="edge71_Node000021_Node000009" class="edge">
<title>Node21&#45;&gt;Node9</title>
<g id="a_edge71_Node000021_Node000009"><a xlink:title=" ">
<path fill="none" stroke="#63b8ff" d="M1488.86,-170.41C1456.89,-156.46 1390.91,-128.57 1333.24,-110 1291.33,-96.5 1242.75,-84.48 1207.26,-76.35"/>
<polygon fill="#63b8ff" stroke="#63b8ff" points="1207.67,-72.85 1197.15,-74.06 1206.13,-79.68 1207.67,-72.85"/>
</a>
</g>
</g>
<!-- Node21&#45;&gt;Node16 -->
<g id="edge74_Node000021_Node000016" class="edge">
<title>Node21&#45;&gt;Node16</title>
<g id="a_edge74_Node000021_Node000016"><a xlink:title=" ">
<path fill="none" stroke="#63b8ff" d="M1474.36,-170.49C1433.29,-160.18 1364,-142.78 1318.95,-131.47"/>
<polygon fill="#63b8ff" stroke="#63b8ff" points="1319.72,-128.06 1309.17,-129.02 1318.01,-134.85 1319.72,-128.06"/>
</a>
</g>
</g>
</g>
</svg>
