<?xml version="1.0" encoding="UTF-8" standalone="no"?>
<!DOCTYPE svg PUBLIC "-//W3C//DTD SVG 1.1//EN"
 "http://www.w3.org/Graphics/SVG/1.1/DTD/svg11.dtd">
<!-- Generated by graphviz version 2.43.0 (0)
 -->
<!-- Title: src/libs/vgeometry/vgobject.cpp Pages: 1 -->
<!--zoomable 313 -->

<svg id="main" version="1.1" xmlns="http://www.w3.org/2000/svg" xmlns:xlink="http://www.w3.org/1999/xlink" xml:space="preserve" onload="init(evt)">
<style type="text/css"><![CDATA[
.node, .edge {opacity: 0.7;}
.node.selected, .edge.selected {opacity: 1;}
.edge:hover path { stroke: red; }
.edge:hover polygon { stroke: red; fill: red; }
]]></style>

<defs>
  <circle id="rim" cx="0" cy="0" r="7"/>
  <circle id="rim2" cx="0" cy="0" r="3.5"/>
  <g id="zoomPlus">
    <use xlink:href="#rim" fill="#404040"><set attributeName="fill" to="#808080" begin="zoomplus.mouseover" end="zoomplus.mouseout"/></use>
    <path d="M-4,0h8M0,-4v8" fill="none" stroke="white" stroke-width="1.5" pointer-events="none"/>
  </g>
  <g id="zoomMin">
    <use xlink:href="#rim" fill="#404040"><set attributeName="fill" to="#808080" begin="zoomminus.mouseover" end="zoomminus.mouseout"/></use>
    <path d="M-4,0h8" fill="none" stroke="white" stroke-width="1.5" pointer-events="none"/>
  </g>
  <g id="arrowUp" transform="translate(30 24)">
    <use xlink:href="#rim"/>
    <path pointer-events="none" fill="none" stroke="white" stroke-width="1.5" d="M0,-3.0v7 M-2.5,-0.5L0,-3.0L2.5,-0.5"/>
  </g>
  <g id="arrowRight" transform="rotate(90) translate(36 -43)">
    <use xlink:href="#rim"/>
    <path pointer-events="none" fill="none" stroke="white" stroke-width="1.5" d="M0,-3.0v7 M-2.5,-0.5L0,-3.0L2.5,-0.5"/>
  </g>
  <g id="arrowDown" transform="rotate(180) translate(-30 -48)">
    <use xlink:href="#rim"/>
    <path pointer-events="none" fill="none" stroke="white" stroke-width="1.5" d="M0,-3.0v7 M-2.5,-0.5L0,-3.0L2.5,-0.5"/>
  </g>
  <g id="arrowLeft" transform="rotate(270) translate(-36 17)">
    <use xlink:href="#rim"/>
    <path pointer-events="none" fill="none" stroke="white" stroke-width="1.5" d="M0,-3.0v7 M-2.5,-0.5L0,-3.0L2.5,-0.5"/>
  </g>
  <g id="resetDef">
    <use xlink:href="#rim2" fill="#404040"><set attributeName="fill" to="#808080" begin="reset.mouseover" end="reset.mouseout"/></use>
  </g>
</defs>
<script type="application/ecmascript">
var viewWidth = 1246;
var viewHeight = 313;
var sectionId = 'dynsection-0';
</script>
<script type="application/ecmascript" xlink:href="../../svg.min.js"/>
<svg id="graph" class="graph">
<g id="viewport">
<title>src/libs/vgeometry/vgobject.cpp</title>
<!-- Node1 -->
<g id="Node000001" class="node">
<title>Node1</title>
<g id="a_Node000001"><a xlink:title=" ">
<polygon fill="#999999" stroke="#666666" points="850,-305 743,-305 743,-275 850,-275 850,-305"/>
<text text-anchor="start" x="751" y="-293" font-family="Helvetica,sans-Serif" font-size="10.00">src/libs/vgeometry</text>
<text text-anchor="middle" x="796.5" y="-282" font-family="Helvetica,sans-Serif" font-size="10.00">/vgobject.cpp</text>
</a>
</g>
</g>
<!-- Node2 -->
<g id="Node000002" class="node">
<title>Node2</title>
<g id="a_Node000002"><a xlink:href="../../d2/d07/vgobject_8h.html" target="_top" xlink:title=" ">
<polygon fill="white" stroke="#666666" points="389.5,-239 321.5,-239 321.5,-220 389.5,-220 389.5,-239"/>
<text text-anchor="middle" x="355.5" y="-227" font-family="Helvetica,sans-Serif" font-size="10.00">vgobject.h</text>
</a>
</g>
</g>
<!-- Node1&#45;&gt;Node2 -->
<g id="edge1_Node000001_Node000002" class="edge">
<title>Node1&#45;&gt;Node2</title>
<g id="a_edge1_Node000001_Node000002"><a xlink:title=" ">
<path fill="none" stroke="#63b8ff" d="M742.87,-281.89C654.7,-270.19 480.83,-247.13 399.45,-236.33"/>
<polygon fill="#63b8ff" stroke="#63b8ff" points="399.9,-232.86 389.53,-235.01 398.98,-239.8 399.9,-232.86"/>
</a>
</g>
</g>
<!-- Node9 -->
<g id="Node000009" class="node">
<title>Node9</title>
<g id="a_Node000009"><a xlink:title=" ">
<polygon fill="#e0e0e0" stroke="#999999" points="818.5,-239 774.5,-239 774.5,-220 818.5,-220 818.5,-239"/>
<text text-anchor="middle" x="796.5" y="-227" font-family="Helvetica,sans-Serif" font-size="10.00">QLine</text>
</a>
</g>
</g>
<!-- Node1&#45;&gt;Node9 -->
<g id="edge8_Node000001_Node000009" class="edge">
<title>Node1&#45;&gt;Node9</title>
<g id="a_edge8_Node000001_Node000009"><a xlink:title=" ">
<path fill="none" stroke="#63b8ff" d="M796.5,-274.84C796.5,-267.21 796.5,-257.7 796.5,-249.45"/>
<polygon fill="#63b8ff" stroke="#63b8ff" points="800,-249.27 796.5,-239.27 793,-249.27 800,-249.27"/>
</a>
</g>
</g>
<!-- Node10 -->
<g id="Node000010" class="node">
<title>Node10</title>
<g id="a_Node000010"><a xlink:title=" ">
<polygon fill="#e0e0e0" stroke="#999999" points="817.5,-74 767.5,-74 767.5,-55 817.5,-55 817.5,-74"/>
<text text-anchor="middle" x="792.5" y="-62" font-family="Helvetica,sans-Serif" font-size="10.00">QLineF</text>
</a>
</g>
</g>
<!-- Node1&#45;&gt;Node10 -->
<g id="edge9_Node000001_Node000010" class="edge">
<title>Node1&#45;&gt;Node10</title>
<g id="a_edge9_Node000001_Node000010"><a xlink:title=" ">
<path fill="none" stroke="#63b8ff" d="M784.64,-274.72C777.57,-265.24 769.25,-252.16 765.5,-239 758.53,-214.52 775.07,-208.63 781.5,-184 790.47,-149.64 792.35,-108 792.62,-84.35"/>
<polygon fill="#63b8ff" stroke="#63b8ff" points="796.12,-84.3 792.65,-74.29 789.12,-84.28 796.12,-84.3"/>
</a>
</g>
</g>
<!-- Node11 -->
<g id="Node000011" class="node">
<title>Node11</title>
<g id="a_Node000011"><a xlink:title=" ">
<polygon fill="#e0e0e0" stroke="#999999" points="886,-239 837,-239 837,-220 886,-220 886,-239"/>
<text text-anchor="middle" x="861.5" y="-227" font-family="Helvetica,sans-Serif" font-size="10.00">QPoint</text>
</a>
</g>
</g>
<!-- Node1&#45;&gt;Node11 -->
<g id="edge10_Node000001_Node000011" class="edge">
<title>Node1&#45;&gt;Node11</title>
<g id="a_edge10_Node000001_Node000011"><a xlink:title=" ">
<path fill="none" stroke="#63b8ff" d="M812.23,-274.84C821.86,-266.17 834.19,-255.08 844.11,-246.15"/>
<polygon fill="#63b8ff" stroke="#63b8ff" points="846.67,-248.56 851.76,-239.27 841.99,-243.35 846.67,-248.56"/>
</a>
</g>
</g>
<!-- Node12 -->
<g id="Node000012" class="node">
<title>Node12</title>
<g id="a_Node000012"><a xlink:title=" ">
<polygon fill="#e0e0e0" stroke="#999999" points="959,-239 904,-239 904,-220 959,-220 959,-239"/>
<text text-anchor="middle" x="931.5" y="-227" font-family="Helvetica,sans-Serif" font-size="10.00">QPointF</text>
</a>
</g>
</g>
<!-- Node1&#45;&gt;Node12 -->
<g id="edge11_Node000001_Node000012" class="edge">
<title>Node1&#45;&gt;Node12</title>
<g id="a_edge11_Node000001_Node000012"><a xlink:title=" ">
<path fill="none" stroke="#63b8ff" d="M828.84,-274.99C851.16,-265.31 880.6,-252.56 902.23,-243.18"/>
<polygon fill="#63b8ff" stroke="#63b8ff" points="903.78,-246.33 911.56,-239.14 901,-239.9 903.78,-246.33"/>
</a>
</g>
</g>
<!-- Node13 -->
<g id="Node000013" class="node">
<title>Node13</title>
<g id="a_Node000013"><a xlink:title=" ">
<polygon fill="#e0e0e0" stroke="#999999" points="1029.5,-239 977.5,-239 977.5,-220 1029.5,-220 1029.5,-239"/>
<text text-anchor="middle" x="1003.5" y="-227" font-family="Helvetica,sans-Serif" font-size="10.00">QRectF</text>
</a>
</g>
</g>
<!-- Node1&#45;&gt;Node13 -->
<g id="edge12_Node000001_Node000013" class="edge">
<title>Node1&#45;&gt;Node13</title>
<g id="a_edge12_Node000001_Node000013"><a xlink:title=" ">
<path fill="none" stroke="#63b8ff" d="M846.08,-274.99C883.48,-264.42 933.9,-250.17 967.5,-240.67"/>
<polygon fill="#63b8ff" stroke="#63b8ff" points="968.68,-243.98 977.35,-237.89 966.78,-237.24 968.68,-243.98"/>
</a>
</g>
</g>
<!-- Node14 -->
<g id="Node000014" class="node">
<title>Node14</title>
<g id="a_Node000014"><a xlink:title=" ">
<polygon fill="#e0e0e0" stroke="#999999" points="1121,-239 1048,-239 1048,-220 1121,-220 1121,-239"/>
<text text-anchor="middle" x="1084.5" y="-227" font-family="Helvetica,sans-Serif" font-size="10.00">QTransform</text>
</a>
</g>
</g>
<!-- Node1&#45;&gt;Node14 -->
<g id="edge13_Node000001_Node000014" class="edge">
<title>Node1&#45;&gt;Node14</title>
<g id="a_edge13_Node000001_Node000014"><a xlink:title=" ">
<path fill="none" stroke="#63b8ff" d="M850.33,-278.07C904.36,-267.09 986.74,-250.36 1038.01,-239.94"/>
<polygon fill="#63b8ff" stroke="#63b8ff" points="1038.73,-243.37 1047.83,-237.95 1037.33,-236.51 1038.73,-243.37"/>
</a>
</g>
</g>
<!-- Node15 -->
<g id="Node000015" class="node">
<title>Node15</title>
<g id="a_Node000015"><a xlink:href="../../d4/da4/def_8h.html" target="_top" xlink:title=" ">
<polygon fill="white" stroke="#666666" points="464.5,-129 382.5,-129 382.5,-110 464.5,-110 464.5,-129"/>
<text text-anchor="middle" x="423.5" y="-117" font-family="Helvetica,sans-Serif" font-size="10.00">../vmisc/def.h</text>
</a>
</g>
</g>
<!-- Node1&#45;&gt;Node15 -->
<g id="edge14_Node000001_Node000015" class="edge">
<title>Node1&#45;&gt;Node15</title>
<g id="a_edge14_Node000001_Node000015"><a xlink:title=" ">
<path fill="none" stroke="#63b8ff" d="M742.99,-289.85C594.45,-290.89 182.8,-284.52 105.5,-184 100.35,-177.31 99.96,-171.37 105.5,-165 139.38,-126.05 290.64,-120.17 371.74,-119.89"/>
<polygon fill="#63b8ff" stroke="#63b8ff" points="372.22,-123.39 382.22,-119.89 372.22,-116.39 372.22,-123.39"/>
</a>
</g>
</g>
<!-- Node24 -->
<g id="Node000024" class="node">
<title>Node24</title>
<g id="a_Node000024"><a xlink:href="../../db/db3/vmath_8h.html" target="_top" xlink:title=" ">
<polygon fill="white" stroke="#666666" points="1237.5,-239 1139.5,-239 1139.5,-220 1237.5,-220 1237.5,-239"/>
<text text-anchor="middle" x="1188.5" y="-227" font-family="Helvetica,sans-Serif" font-size="10.00">../vmisc/vmath.h</text>
</a>
</g>
</g>
<!-- Node1&#45;&gt;Node24 -->
<g id="edge26_Node000001_Node000024" class="edge">
<title>Node1&#45;&gt;Node24</title>
<g id="a_edge26_Node000001_Node000024"><a xlink:title=" ">
<path fill="none" stroke="#63b8ff" d="M850.18,-280.99C923.18,-270.09 1053.32,-250.67 1129.15,-239.36"/>
<polygon fill="#63b8ff" stroke="#63b8ff" points="1130.1,-242.75 1139.47,-237.82 1129.07,-235.83 1130.1,-242.75"/>
</a>
</g>
</g>
<!-- Node26 -->
<g id="Node000026" class="node">
<title>Node26</title>
<g id="a_Node000026"><a xlink:href="../../d3/da5/ifcdef_8h.html" target="_top" xlink:title=" ">
<polygon fill="white" stroke="#666666" points="596,-184 519,-184 519,-165 596,-165 596,-184"/>
<text text-anchor="middle" x="557.5" y="-172" font-family="Helvetica,sans-Serif" font-size="10.00">../ifc/ifcdef.h</text>
</a>
</g>
</g>
<!-- Node1&#45;&gt;Node26 -->
<g id="edge28_Node000001_Node000026" class="edge">
<title>Node1&#45;&gt;Node26</title>
<g id="a_edge28_Node000001_Node000026"><a xlink:title=" ">
<path fill="none" stroke="#63b8ff" d="M742.85,-283.04C685.7,-275.63 600.25,-261.2 576.5,-239 564.3,-227.59 559.82,-208.7 558.24,-194.48"/>
<polygon fill="#63b8ff" stroke="#63b8ff" points="561.71,-194.03 557.49,-184.31 554.73,-194.54 561.71,-194.03"/>
</a>
</g>
</g>
<!-- Node28 -->
<g id="Node000028" class="node">
<title>Node28</title>
<g id="a_Node000028"><a xlink:href="../../d9/d69/vgobject__p_8h.html" target="_top" xlink:title=" ">
<polygon fill="white" stroke="#666666" points="665,-239 586,-239 586,-220 665,-220 665,-239"/>
<text text-anchor="middle" x="625.5" y="-227" font-family="Helvetica,sans-Serif" font-size="10.00">vgobject_p.h</text>
</a>
</g>
</g>
<!-- Node1&#45;&gt;Node28 -->
<g id="edge35_Node000001_Node000028" class="edge">
<title>Node1&#45;&gt;Node28</title>
<g id="a_edge35_Node000001_Node000028"><a xlink:title=" ">
<path fill="none" stroke="#63b8ff" d="M755.54,-274.99C726.5,-265.05 687.95,-251.86 660.38,-242.43"/>
<polygon fill="#63b8ff" stroke="#63b8ff" points="661.35,-239.06 650.75,-239.14 659.08,-245.69 661.35,-239.06"/>
</a>
</g>
</g>
<!-- Node3 -->
<g id="Node000003" class="node">
<title>Node3</title>
<g id="a_Node000003"><a xlink:title=" ">
<polygon fill="#e0e0e0" stroke="#999999" points="304.5,-184 188.5,-184 188.5,-165 304.5,-165 304.5,-184"/>
<text text-anchor="middle" x="246.5" y="-172" font-family="Helvetica,sans-Serif" font-size="10.00">QSharedDataPointer</text>
</a>
</g>
</g>
<!-- Node2&#45;&gt;Node3 -->
<g id="edge2_Node000002_Node000003" class="edge">
<title>Node2&#45;&gt;Node3</title>
<g id="a_edge2_Node000002_Node000003"><a xlink:title=" ">
<path fill="none" stroke="#63b8ff" d="M337.99,-219.98C320.53,-211.5 293.49,-198.35 273.33,-188.54"/>
<polygon fill="#63b8ff" stroke="#63b8ff" points="274.86,-185.4 264.33,-184.17 271.79,-191.69 274.86,-185.4"/>
</a>
</g>
</g>
<!-- Node4 -->
<g id="Node000004" class="node">
<title>Node4</title>
<g id="a_Node000004"><a xlink:title=" ">
<polygon fill="#e0e0e0" stroke="#999999" points="53,-74 0,-74 0,-55 53,-55 53,-74"/>
<text text-anchor="middle" x="26.5" y="-62" font-family="Helvetica,sans-Serif" font-size="10.00">QString</text>
</a>
</g>
</g>
<!-- Node2&#45;&gt;Node4 -->
<g id="edge3_Node000002_Node000004" class="edge">
<title>Node2&#45;&gt;Node4</title>
<g id="a_edge3_Node000002_Node000004"><a xlink:title=" ">
<path fill="none" stroke="#63b8ff" d="M321.21,-225.72C261.28,-220.34 140.54,-206.93 105.5,-184 68.04,-159.49 44.05,-110.37 33.22,-83.72"/>
<polygon fill="#63b8ff" stroke="#63b8ff" points="36.37,-82.16 29.49,-74.1 29.84,-84.69 36.37,-82.16"/>
</a>
</g>
</g>
<!-- Node5 -->
<g id="Node000005" class="node">
<title>Node5</title>
<g id="a_Node000005"><a xlink:title=" ">
<polygon fill="#e0e0e0" stroke="#999999" points="388,-184 323,-184 323,-165 388,-165 388,-184"/>
<text text-anchor="middle" x="355.5" y="-172" font-family="Helvetica,sans-Serif" font-size="10.00">QTypeInfo</text>
</a>
</g>
</g>
<!-- Node2&#45;&gt;Node5 -->
<g id="edge4_Node000002_Node000005" class="edge">
<title>Node2&#45;&gt;Node5</title>
<g id="a_edge4_Node000002_Node000005"><a xlink:title=" ">
<path fill="none" stroke="#63b8ff" d="M355.5,-219.75C355.5,-212.8 355.5,-202.85 355.5,-194.13"/>
<polygon fill="#63b8ff" stroke="#63b8ff" points="359,-194.09 355.5,-184.09 352,-194.09 359,-194.09"/>
</a>
</g>
</g>
<!-- Node6 -->
<g id="Node000006" class="node">
<title>Node6</title>
<g id="a_Node000006"><a xlink:title=" ">
<polygon fill="#e0e0e0" stroke="#999999" points="170,-184 115,-184 115,-165 170,-165 170,-184"/>
<text text-anchor="middle" x="142.5" y="-172" font-family="Helvetica,sans-Serif" font-size="10.00">QVector</text>
</a>
</g>
</g>
<!-- Node2&#45;&gt;Node6 -->
<g id="edge5_Node000002_Node000006" class="edge">
<title>Node2&#45;&gt;Node6</title>
<g id="a_edge5_Node000002_Node000006"><a xlink:title=" ">
<path fill="none" stroke="#63b8ff" d="M321.28,-219.98C282.66,-210.37 220.03,-194.79 180.08,-184.85"/>
<polygon fill="#63b8ff" stroke="#63b8ff" points="180.74,-181.41 170.19,-182.39 179.05,-188.2 180.74,-181.41"/>
</a>
</g>
</g>
<!-- Node7 -->
<g id="Node000007" class="node">
<title>Node7</title>
<g id="a_Node000007"><a xlink:title=" ">
<polygon fill="#e0e0e0" stroke="#999999" points="741,-74 682,-74 682,-55 741,-55 741,-74"/>
<text text-anchor="middle" x="711.5" y="-62" font-family="Helvetica,sans-Serif" font-size="10.00">QtGlobal</text>
</a>
</g>
</g>
<!-- Node2&#45;&gt;Node7 -->
<g id="edge6_Node000002_Node000007" class="edge">
<title>Node2&#45;&gt;Node7</title>
<g id="a_edge6_Node000002_Node000007"><a xlink:title=" ">
<path fill="none" stroke="#63b8ff" d="M389.64,-226.56C438.68,-222.87 531.22,-212.45 604.5,-184 647.14,-167.45 663.59,-165.25 691.5,-129 701.53,-115.98 706.58,-97.83 709.1,-84.27"/>
<polygon fill="#63b8ff" stroke="#63b8ff" points="712.59,-84.59 710.67,-74.17 705.68,-83.52 712.59,-84.59"/>
</a>
</g>
</g>
<!-- Node8 -->
<g id="Node000008" class="node">
<title>Node8</title>
<g id="a_Node000008"><a xlink:href="../../d5/d9d/vgeometrydef_8h.html" target="_top" xlink:title=" ">
<polygon fill="white" stroke="#666666" points="500.5,-184 406.5,-184 406.5,-165 500.5,-165 500.5,-184"/>
<text text-anchor="middle" x="453.5" y="-172" font-family="Helvetica,sans-Serif" font-size="10.00">vgeometrydef.h</text>
</a>
</g>
</g>
<!-- Node2&#45;&gt;Node8 -->
<g id="edge7_Node000002_Node000008" class="edge">
<title>Node2&#45;&gt;Node8</title>
<g id="a_edge7_Node000002_Node000008"><a xlink:title=" ">
<path fill="none" stroke="#63b8ff" d="M371.25,-219.98C386.73,-211.61 410.59,-198.7 428.64,-188.95"/>
<polygon fill="#63b8ff" stroke="#63b8ff" points="430.34,-192.01 437.47,-184.17 427.01,-185.85 430.34,-192.01"/>
</a>
</g>
</g>
<!-- Node15&#45;&gt;Node4 -->
<g id="edge18_Node000015_Node000004" class="edge">
<title>Node15&#45;&gt;Node4</title>
<g id="a_edge18_Node000015_Node000004"><a xlink:title=" ">
<path fill="none" stroke="#63b8ff" d="M382.28,-115C316.69,-109.09 184.39,-95.79 63.36,-74.16"/>
<polygon fill="#63b8ff" stroke="#63b8ff" points="63.65,-70.66 53.18,-72.32 62.4,-77.54 63.65,-70.66"/>
</a>
</g>
</g>
<!-- Node15&#45;&gt;Node7 -->
<g id="edge21_Node000015_Node000007" class="edge">
<title>Node15&#45;&gt;Node7</title>
<g id="a_edge21_Node000015_Node000007"><a xlink:title=" ">
<path fill="none" stroke="#63b8ff" d="M464.57,-111.65C511.97,-103.63 592.53,-89.68 671.58,-74.12"/>
<polygon fill="#63b8ff" stroke="#63b8ff" points="672.58,-77.49 681.71,-72.11 671.22,-70.62 672.58,-77.49"/>
</a>
</g>
</g>
<!-- Node15&#45;&gt;Node10 -->
<g id="edge17_Node000015_Node000010" class="edge">
<title>Node15&#45;&gt;Node10</title>
<g id="a_edge17_Node000015_Node000010"><a xlink:title=" ">
<path fill="none" stroke="#63b8ff" d="M464.67,-113.76C526.79,-106.42 648.11,-91.31 750.5,-74 752.71,-73.63 754.97,-73.22 757.25,-72.8"/>
<polygon fill="#63b8ff" stroke="#63b8ff" points="758.07,-76.21 767.23,-70.89 756.75,-69.34 758.07,-76.21"/>
</a>
</g>
</g>
<!-- Node16 -->
<g id="Node000016" class="node">
<title>Node16</title>
<g id="a_Node000016"><a xlink:title=" ">
<polygon fill="#e0e0e0" stroke="#999999" points="292.5,-74 172.5,-74 172.5,-55 292.5,-55 292.5,-74"/>
<text text-anchor="middle" x="232.5" y="-62" font-family="Helvetica,sans-Serif" font-size="10.00">qcompilerdetection.h</text>
</a>
</g>
</g>
<!-- Node15&#45;&gt;Node16 -->
<g id="edge15_Node000015_Node000016" class="edge">
<title>Node15&#45;&gt;Node16</title>
<g id="a_edge15_Node000015_Node000016"><a xlink:title=" ">
<path fill="none" stroke="#63b8ff" d="M392.81,-109.98C360.33,-100.97 308.9,-86.7 273.09,-76.76"/>
<polygon fill="#63b8ff" stroke="#63b8ff" points="274,-73.38 263.43,-74.08 272.13,-80.13 274,-73.38"/>
</a>
</g>
</g>
<!-- Node17 -->
<g id="Node000017" class="node">
<title>Node17</title>
<g id="a_Node000017"><a xlink:title=" ">
<polygon fill="#e0e0e0" stroke="#999999" points="384,-74 311,-74 311,-55 384,-55 384,-74"/>
<text text-anchor="middle" x="347.5" y="-62" font-family="Helvetica,sans-Serif" font-size="10.00">QFileDialog</text>
</a>
</g>
</g>
<!-- Node15&#45;&gt;Node17 -->
<g id="edge16_Node000015_Node000017" class="edge">
<title>Node15&#45;&gt;Node17</title>
<g id="a_edge16_Node000015_Node000017"><a xlink:title=" ">
<path fill="none" stroke="#63b8ff" d="M411.29,-109.98C399.72,-101.92 382.12,-89.65 368.34,-80.03"/>
<polygon fill="#63b8ff" stroke="#63b8ff" points="370.14,-77.02 359.93,-74.17 366.13,-82.76 370.14,-77.02"/>
</a>
</g>
</g>
<!-- Node18 -->
<g id="Node000018" class="node">
<title>Node18</title>
<g id="a_Node000018"><a xlink:title=" ">
<polygon fill="#e0e0e0" stroke="#999999" points="663.5,-74 593.5,-74 593.5,-55 663.5,-55 663.5,-74"/>
<text text-anchor="middle" x="628.5" y="-62" font-family="Helvetica,sans-Serif" font-size="10.00">QStringList</text>
</a>
</g>
</g>
<!-- Node15&#45;&gt;Node18 -->
<g id="edge19_Node000015_Node000018" class="edge">
<title>Node15&#45;&gt;Node18</title>
<g id="a_edge19_Node000015_Node000018"><a xlink:title=" ">
<path fill="none" stroke="#63b8ff" d="M456.44,-109.98C491.45,-100.93 546.97,-86.58 585.43,-76.64"/>
<polygon fill="#63b8ff" stroke="#63b8ff" points="586.5,-79.97 595.31,-74.08 584.75,-73.2 586.5,-79.97"/>
</a>
</g>
</g>
<!-- Node19 -->
<g id="Node000019" class="node">
<title>Node19</title>
<g id="a_Node000019"><a xlink:title=" ">
<polygon fill="#e0e0e0" stroke="#999999" points="431,-74 402,-74 402,-55 431,-55 431,-74"/>
<text text-anchor="middle" x="416.5" y="-62" font-family="Helvetica,sans-Serif" font-size="10.00">Qt</text>
</a>
</g>
</g>
<!-- Node15&#45;&gt;Node19 -->
<g id="edge20_Node000015_Node000019" class="edge">
<title>Node15&#45;&gt;Node19</title>
<g id="a_edge20_Node000015_Node000019"><a xlink:title=" ">
<path fill="none" stroke="#63b8ff" d="M422.34,-109.75C421.43,-102.8 420.11,-92.85 418.96,-84.13"/>
<polygon fill="#63b8ff" stroke="#63b8ff" points="422.41,-83.54 417.63,-74.09 415.47,-84.46 422.41,-83.54"/>
</a>
</g>
</g>
<!-- Node20 -->
<g id="Node000020" class="node">
<title>Node20</title>
<g id="a_Node000020"><a xlink:title=" ">
<polygon fill="#e0e0e0" stroke="#999999" points="505.5,-74 449.5,-74 449.5,-55 505.5,-55 505.5,-74"/>
<text text-anchor="middle" x="477.5" y="-62" font-family="Helvetica,sans-Serif" font-size="10.00">QPrinter</text>
</a>
</g>
</g>
<!-- Node15&#45;&gt;Node20 -->
<g id="edge22_Node000015_Node000020" class="edge">
<title>Node15&#45;&gt;Node20</title>
<g id="a_edge22_Node000015_Node000020"><a xlink:title=" ">
<path fill="none" stroke="#63b8ff" d="M432.42,-109.75C440.28,-102.03 451.93,-90.6 461.42,-81.28"/>
<polygon fill="#63b8ff" stroke="#63b8ff" points="464.06,-83.59 468.75,-74.09 459.16,-78.6 464.06,-83.59"/>
</a>
</g>
</g>
<!-- Node21 -->
<g id="Node000021" class="node">
<title>Node21</title>
<g id="a_Node000021"><a xlink:title=" ">
<polygon fill="#e0e0e0" stroke="#999999" points="575,-74 524,-74 524,-55 575,-55 575,-74"/>
<text text-anchor="middle" x="549.5" y="-62" font-family="Helvetica,sans-Serif" font-size="10.00">csignal</text>
</a>
</g>
</g>
<!-- Node15&#45;&gt;Node21 -->
<g id="edge23_Node000015_Node000021" class="edge">
<title>Node15&#45;&gt;Node21</title>
<g id="a_edge23_Node000015_Node000021"><a xlink:title=" ">
<path fill="none" stroke="#63b8ff" d="M443.74,-109.98C464.2,-101.38 496.03,-87.99 519.43,-78.15"/>
<polygon fill="#63b8ff" stroke="#63b8ff" points="521.03,-81.27 528.89,-74.17 518.31,-74.82 521.03,-81.27"/>
</a>
</g>
</g>
<!-- Node22 -->
<g id="Node000022" class="node">
<title>Node22</title>
<g id="a_Node000022"><a xlink:href="../../d4/d82/debugbreak_8h.html" target="_top" xlink:title=" ">
<polygon fill="white" stroke="#666666" points="154,-74 71,-74 71,-55 154,-55 154,-74"/>
<text text-anchor="middle" x="112.5" y="-62" font-family="Helvetica,sans-Serif" font-size="10.00">debugbreak.h</text>
</a>
</g>
</g>
<!-- Node15&#45;&gt;Node22 -->
<g id="edge24_Node000015_Node000022" class="edge">
<title>Node15&#45;&gt;Node22</title>
<g id="a_edge24_Node000015_Node000022"><a xlink:title=" ">
<path fill="none" stroke="#63b8ff" d="M382.2,-111.46C326.13,-101.91 225.9,-84.83 164.68,-74.39"/>
<polygon fill="#63b8ff" stroke="#63b8ff" points="164.91,-70.88 154.47,-72.65 163.74,-77.78 164.91,-70.88"/>
</a>
</g>
</g>
<!-- Node23 -->
<g id="Node000023" class="node">
<title>Node23</title>
<g id="a_Node000023"><a xlink:title=" ">
<polygon fill="#e0e0e0" stroke="#999999" points="140,-19 85,-19 85,0 140,0 140,-19"/>
<text text-anchor="middle" x="112.5" y="-7" font-family="Helvetica,sans-Serif" font-size="10.00">signal.h</text>
</a>
</g>
</g>
<!-- Node22&#45;&gt;Node23 -->
<g id="edge25_Node000022_Node000023" class="edge">
<title>Node22&#45;&gt;Node23</title>
<g id="a_edge25_Node000022_Node000023"><a xlink:title=" ">
<path fill="none" stroke="#63b8ff" d="M112.5,-54.75C112.5,-47.8 112.5,-37.85 112.5,-29.13"/>
<polygon fill="#63b8ff" stroke="#63b8ff" points="116,-29.09 112.5,-19.09 109,-29.09 116,-29.09"/>
</a>
</g>
</g>
<!-- Node25 -->
<g id="Node000025" class="node">
<title>Node25</title>
<g id="a_Node000025"><a xlink:title=" ">
<polygon fill="#e0e0e0" stroke="#999999" points="1215,-184 1162,-184 1162,-165 1215,-165 1215,-184"/>
<text text-anchor="middle" x="1188.5" y="-172" font-family="Helvetica,sans-Serif" font-size="10.00">QtMath</text>
</a>
</g>
</g>
<!-- Node24&#45;&gt;Node25 -->
<g id="edge27_Node000024_Node000025" class="edge">
<title>Node24&#45;&gt;Node25</title>
<g id="a_edge27_Node000024_Node000025"><a xlink:title=" ">
<path fill="none" stroke="#63b8ff" d="M1188.5,-219.75C1188.5,-212.8 1188.5,-202.85 1188.5,-194.13"/>
<polygon fill="#63b8ff" stroke="#63b8ff" points="1192,-194.09 1188.5,-184.09 1185,-194.09 1192,-194.09"/>
</a>
</g>
</g>
<!-- Node26&#45;&gt;Node4 -->
<g id="edge29_Node000026_Node000004" class="edge">
<title>Node26&#45;&gt;Node4</title>
<g id="a_edge29_Node000026_Node000004"><a xlink:title=" ">
<path fill="none" stroke="#63b8ff" d="M518.8,-166.29C436.69,-150.86 238.8,-113.07 63.16,-74.31"/>
<polygon fill="#63b8ff" stroke="#63b8ff" points="63.75,-70.85 53.23,-72.11 62.23,-77.69 63.75,-70.85"/>
</a>
</g>
</g>
<!-- Node26&#45;&gt;Node7 -->
<g id="edge31_Node000026_Node000007" class="edge">
<title>Node26&#45;&gt;Node7</title>
<g id="a_edge31_Node000026_Node000007"><a xlink:title=" ">
<path fill="none" stroke="#63b8ff" d="M554.27,-164.67C550.03,-151.36 544.43,-126.03 556.5,-110 563.59,-100.59 628.41,-84.3 671.95,-74.26"/>
<polygon fill="#63b8ff" stroke="#63b8ff" points="672.73,-77.67 681.7,-72.03 671.17,-70.85 672.73,-77.67"/>
</a>
</g>
</g>
<!-- Node26&#45;&gt;Node15 -->
<g id="edge32_Node000026_Node000015" class="edge">
<title>Node26&#45;&gt;Node15</title>
<g id="a_edge32_Node000026_Node000015"><a xlink:title=" ">
<path fill="none" stroke="#63b8ff" d="M535.97,-164.98C514.03,-156.3 479.76,-142.75 454.81,-132.88"/>
<polygon fill="#63b8ff" stroke="#63b8ff" points="456.01,-129.59 445.42,-129.17 453.43,-136.1 456.01,-129.59"/>
</a>
</g>
</g>
<!-- Node26&#45;&gt;Node18 -->
<g id="edge30_Node000026_Node000018" class="edge">
<title>Node26&#45;&gt;Node18</title>
<g id="a_edge30_Node000026_Node000018"><a xlink:title=" ">
<path fill="none" stroke="#63b8ff" d="M547,-165C532.93,-152.54 511.07,-128.77 523.5,-110 531.26,-98.29 562.66,-85.89 589.13,-77.16"/>
<polygon fill="#63b8ff" stroke="#63b8ff" points="590.51,-80.4 598.97,-74.01 588.38,-73.73 590.51,-80.4"/>
</a>
</g>
</g>
<!-- Node27 -->
<g id="Node000027" class="node">
<title>Node27</title>
<g id="a_Node000027"><a xlink:href="../../d6/dcd/diagnostic_8h.html" target="_top" xlink:title=" ">
<polygon fill="white" stroke="#666666" points="683,-129 566,-129 566,-110 683,-110 683,-129"/>
<text text-anchor="middle" x="624.5" y="-117" font-family="Helvetica,sans-Serif" font-size="10.00">../vmisc/diagnostic.h</text>
</a>
</g>
</g>
<!-- Node26&#45;&gt;Node27 -->
<g id="edge33_Node000026_Node000027" class="edge">
<title>Node26&#45;&gt;Node27</title>
<g id="a_edge33_Node000026_Node000027"><a xlink:title=" ">
<path fill="none" stroke="#63b8ff" d="M568.26,-164.98C578.27,-157.07 593.39,-145.11 605.43,-135.58"/>
<polygon fill="#63b8ff" stroke="#63b8ff" points="607.87,-138.12 613.54,-129.17 603.53,-132.63 607.87,-138.12"/>
</a>
</g>
</g>
<!-- Node27&#45;&gt;Node7 -->
<g id="edge34_Node000027_Node000007" class="edge">
<title>Node27&#45;&gt;Node7</title>
<g id="a_edge34_Node000027_Node000007"><a xlink:title=" ">
<path fill="none" stroke="#63b8ff" d="M638.48,-109.98C651.97,-101.77 672.63,-89.18 688.54,-79.49"/>
<polygon fill="#63b8ff" stroke="#63b8ff" points="690.55,-82.36 697.27,-74.17 686.91,-76.38 690.55,-82.36"/>
</a>
</g>
</g>
<!-- Node28&#45;&gt;Node8 -->
<g id="edge37_Node000028_Node000008" class="edge">
<title>Node28&#45;&gt;Node8</title>
<g id="a_edge37_Node000028_Node000008"><a xlink:title=" ">
<path fill="none" stroke="#63b8ff" d="M597.87,-219.98C568.99,-211.09 523.49,-197.07 491.3,-187.15"/>
<polygon fill="#63b8ff" stroke="#63b8ff" points="491.94,-183.68 481.35,-184.08 489.88,-190.37 491.94,-183.68"/>
</a>
</g>
</g>
<!-- Node28&#45;&gt;Node26 -->
<g id="edge38_Node000028_Node000026" class="edge">
<title>Node28&#45;&gt;Node26</title>
<g id="a_edge38_Node000028_Node000026"><a xlink:title=" ">
<path fill="none" stroke="#63b8ff" d="M614.57,-219.98C604.42,-212.07 589.08,-200.11 576.85,-190.58"/>
<polygon fill="#63b8ff" stroke="#63b8ff" points="578.66,-187.56 568.62,-184.17 574.36,-193.08 578.66,-187.56"/>
</a>
</g>
</g>
<!-- Node28&#45;&gt;Node27 -->
<g id="edge39_Node000028_Node000027" class="edge">
<title>Node28&#45;&gt;Node27</title>
<g id="a_edge39_Node000028_Node000027"><a xlink:title=" ">
<path fill="none" stroke="#63b8ff" d="M625.42,-219.66C625.26,-202.17 624.89,-162.8 624.67,-139.27"/>
<polygon fill="#63b8ff" stroke="#63b8ff" points="628.17,-139.13 624.58,-129.16 621.17,-139.19 628.17,-139.13"/>
</a>
</g>
</g>
<!-- Node29 -->
<g id="Node000029" class="node">
<title>Node29</title>
<g id="a_Node000029"><a xlink:title=" ">
<polygon fill="#e0e0e0" stroke="#999999" points="772,-184 691,-184 691,-165 772,-165 772,-184"/>
<text text-anchor="middle" x="731.5" y="-172" font-family="Helvetica,sans-Serif" font-size="10.00">QSharedData</text>
</a>
</g>
</g>
<!-- Node28&#45;&gt;Node29 -->
<g id="edge36_Node000028_Node000029" class="edge">
<title>Node28&#45;&gt;Node29</title>
<g id="a_edge36_Node000028_Node000029"><a xlink:title=" ">
<path fill="none" stroke="#63b8ff" d="M642.53,-219.98C659.43,-211.54 685.56,-198.47 705.14,-188.68"/>
<polygon fill="#63b8ff" stroke="#63b8ff" points="706.78,-191.77 714.16,-184.17 703.65,-185.51 706.78,-191.77"/>
</a>
</g>
</g>
</g>
</svg>

<g id="navigator" transform="translate(0 0)" fill="#404254">
  <rect fill="#f2f5e9" fill-opacity="0.5" stroke="#606060" stroke-width=".5" x="0" y="0" width="60" height="60"/>
  <use id="zoomplus" xlink:href="#zoomPlus" x="17" y="9" onmousedown="handleZoom(evt,'in')"/>
  <use id="zoomminus" xlink:href="#zoomMin" x="42" y="9" onmousedown="handleZoom(evt,'out')"/>
  <use id="reset" xlink:href="#resetDef" x="30" y="36" onmousedown="handleReset()"/>
   <use id="arrowup" xlink:href="#arrowUp" x="0" y="0" onmousedown="handlePan(0,-1)"/>
  <use id="arrowright" xlink:href="#arrowRight" x="0" y="0" onmousedown="handlePan(1,0)"/>
  <use id="arrowdown" xlink:href="#arrowDown" x="0" y="0" onmousedown="handlePan(0,1)"/>
  <use id="arrowleft" xlink:href="#arrowLeft" x="0" y="0" onmousedown="handlePan(-1,0)"/>
</g>
<svg viewBox="0 0 15 15" width="100%" height="30px" preserveAspectRatio="xMaxYMin meet">
 <g id="arrow_out" transform="scale(0.3 0.3)">
  <a xlink:href="vgobject_8cpp__incl_org.svg" target="_base">
   <rect id="button" ry="5" rx="5" y="6" x="6" height="38" width="38"
        fill="#f2f5e9" fill-opacity="0.5" stroke="#606060" stroke-width="1.0"/>
   <path id="arrow"
     d="M 11.500037,31.436501 C 11.940474,20.09759 22.043105,11.32322 32.158766,21.979434 L 37.068811,17.246167 C 37.068811,17.246167 37.088388,32 37.088388,32 L 22.160133,31.978069 C 22.160133,31.978069 26.997745,27.140456 26.997745,27.140456 C 18.528582,18.264221 13.291696,25.230495 11.500037,31.436501 z"
     style="fill:#404040;"/>
  </a>
 </g>
</svg>

<style type='text/css'>
<![CDATA[
[data-mouse-over-selected='false'] { opacity: 0.7; }
[data-mouse-over-selected='true']  { opacity: 1.0; }
]]>
</style>
<script type="application/ecmascript"><![CDATA[
document.addEventListener('DOMContentLoaded', (event) => {
  highlightEdges();
  highlightAdjacentNodes();
});
]]></script>
</svg>
