<?xml version="1.0" encoding="UTF-8" standalone="no"?>
<!DOCTYPE svg PUBLIC "-//W3C//DTD SVG 1.1//EN"
 "http://www.w3.org/Graphics/SVG/1.1/DTD/svg11.dtd">
<!-- Generated by graphviz version 2.43.0 (0)
 -->
<!-- Title: src/libs/vpatterndb/vpiece_p.h Pages: 1 -->
<!--zoomable 368 -->

<svg id="main" version="1.1" xmlns="http://www.w3.org/2000/svg" xmlns:xlink="http://www.w3.org/1999/xlink" xml:space="preserve" onload="init(evt)">
<style type="text/css"><![CDATA[
.node, .edge {opacity: 0.7;}
.node.selected, .edge.selected {opacity: 1;}
.edge:hover path { stroke: red; }
.edge:hover polygon { stroke: red; fill: red; }
]]></style>

<defs>
  <circle id="rim" cx="0" cy="0" r="7"/>
  <circle id="rim2" cx="0" cy="0" r="3.5"/>
  <g id="zoomPlus">
    <use xlink:href="#rim" fill="#404040"><set attributeName="fill" to="#808080" begin="zoomplus.mouseover" end="zoomplus.mouseout"/></use>
    <path d="M-4,0h8M0,-4v8" fill="none" stroke="white" stroke-width="1.5" pointer-events="none"/>
  </g>
  <g id="zoomMin">
    <use xlink:href="#rim" fill="#404040"><set attributeName="fill" to="#808080" begin="zoomminus.mouseover" end="zoomminus.mouseout"/></use>
    <path d="M-4,0h8" fill="none" stroke="white" stroke-width="1.5" pointer-events="none"/>
  </g>
  <g id="arrowUp" transform="translate(30 24)">
    <use xlink:href="#rim"/>
    <path pointer-events="none" fill="none" stroke="white" stroke-width="1.5" d="M0,-3.0v7 M-2.5,-0.5L0,-3.0L2.5,-0.5"/>
  </g>
  <g id="arrowRight" transform="rotate(90) translate(36 -43)">
    <use xlink:href="#rim"/>
    <path pointer-events="none" fill="none" stroke="white" stroke-width="1.5" d="M0,-3.0v7 M-2.5,-0.5L0,-3.0L2.5,-0.5"/>
  </g>
  <g id="arrowDown" transform="rotate(180) translate(-30 -48)">
    <use xlink:href="#rim"/>
    <path pointer-events="none" fill="none" stroke="white" stroke-width="1.5" d="M0,-3.0v7 M-2.5,-0.5L0,-3.0L2.5,-0.5"/>
  </g>
  <g id="arrowLeft" transform="rotate(270) translate(-36 17)">
    <use xlink:href="#rim"/>
    <path pointer-events="none" fill="none" stroke="white" stroke-width="1.5" d="M0,-3.0v7 M-2.5,-0.5L0,-3.0L2.5,-0.5"/>
  </g>
  <g id="resetDef">
    <use xlink:href="#rim2" fill="#404040"><set attributeName="fill" to="#808080" begin="reset.mouseover" end="reset.mouseout"/></use>
  </g>
</defs>
<script type="application/ecmascript">
var viewWidth = 1846;
var viewHeight = 368;
var sectionId = 'dynsection-0';
</script>
<script type="application/ecmascript" xlink:href="../../svg.min.js"/>
<svg id="graph" class="graph">
<g id="viewport">
<title>src/libs/vpatterndb/vpiece_p.h</title>
<!-- Node1 -->
<g id="Node000001" class="node">
<title>Node1</title>
<g id="a_Node000001"><a xlink:title=" ">
<polygon fill="#999999" stroke="#666666" points="934,-360 827,-360 827,-330 934,-330 934,-360"/>
<text text-anchor="start" x="835" y="-348" font-family="Helvetica,sans-Serif" font-size="10.00">src/libs/vpatterndb</text>
<text text-anchor="middle" x="880.5" y="-337" font-family="Helvetica,sans-Serif" font-size="10.00">/vpiece_p.h</text>
</a>
</g>
</g>
<!-- Node2 -->
<g id="Node000002" class="node">
<title>Node2</title>
<g id="a_Node000002"><a xlink:title=" ">
<polygon fill="#e0e0e0" stroke="#999999" points="411,-294 330,-294 330,-275 411,-275 411,-294"/>
<text text-anchor="middle" x="370.5" y="-282" font-family="Helvetica,sans-Serif" font-size="10.00">QSharedData</text>
</a>
</g>
</g>
<!-- Node1&#45;&gt;Node2 -->
<g id="edge1_Node000001_Node000002" class="edge">
<title>Node1&#45;&gt;Node2</title>
<g id="a_edge1_Node000001_Node000002"><a xlink:title=" ">
<path fill="none" stroke="#63b8ff" d="M826.82,-338.87C741.63,-330.56 570.26,-313.13 425.5,-294 424.03,-293.81 422.55,-293.61 421.04,-293.4"/>
<polygon fill="#63b8ff" stroke="#63b8ff" points="421.41,-289.92 411.02,-291.97 420.43,-296.85 421.41,-289.92"/>
</a>
</g>
</g>
<!-- Node3 -->
<g id="Node000003" class="node">
<title>Node3</title>
<g id="a_Node000003"><a xlink:title=" ">
<polygon fill="#e0e0e0" stroke="#999999" points="1421,-129 1366,-129 1366,-110 1421,-110 1421,-129"/>
<text text-anchor="middle" x="1393.5" y="-117" font-family="Helvetica,sans-Serif" font-size="10.00">QVector</text>
</a>
</g>
</g>
<!-- Node1&#45;&gt;Node3 -->
<g id="edge2_Node000001_Node000003" class="edge">
<title>Node1&#45;&gt;Node3</title>
<g id="a_edge2_Node000001_Node000003"><a xlink:title=" ">
<path fill="none" stroke="#63b8ff" d="M934.15,-335.85C1025.64,-319.82 1214.56,-277.32 1344.5,-184 1361.41,-171.86 1375.28,-152.24 1383.89,-138.02"/>
<polygon fill="#63b8ff" stroke="#63b8ff" points="1387.02,-139.61 1388.99,-129.2 1380.96,-136.11 1387.02,-139.61"/>
</a>
</g>
</g>
<!-- Node4 -->
<g id="Node000004" class="node">
<title>Node4</title>
<g id="a_Node000004"><a xlink:href="../../d6/dcd/diagnostic_8h.html" target="_top" xlink:title=" ">
<polygon fill="white" stroke="#666666" points="737,-129 620,-129 620,-110 737,-110 737,-129"/>
<text text-anchor="middle" x="678.5" y="-117" font-family="Helvetica,sans-Serif" font-size="10.00">../vmisc/diagnostic.h</text>
</a>
</g>
</g>
<!-- Node1&#45;&gt;Node4 -->
<g id="edge3_Node000001_Node000004" class="edge">
<title>Node1&#45;&gt;Node4</title>
<g id="a_edge3_Node000001_Node000004"><a xlink:title=" ">
<path fill="none" stroke="#63b8ff" d="M862.56,-329.85C850.74,-320.21 835.16,-306.9 822.5,-294 769.84,-240.35 715.15,-169.55 691.11,-137.53"/>
<polygon fill="#63b8ff" stroke="#63b8ff" points="693.71,-135.15 684.92,-129.23 688.1,-139.34 693.71,-135.15"/>
</a>
</g>
</g>
<!-- Node6 -->
<g id="Node000006" class="node">
<title>Node6</title>
<g id="a_Node000006"><a xlink:href="../../d4/da4/def_8h.html" target="_top" xlink:title=" ">
<polygon fill="white" stroke="#666666" points="449.5,-129 367.5,-129 367.5,-110 449.5,-110 449.5,-129"/>
<text text-anchor="middle" x="408.5" y="-117" font-family="Helvetica,sans-Serif" font-size="10.00">../vmisc/def.h</text>
</a>
</g>
</g>
<!-- Node1&#45;&gt;Node6 -->
<g id="edge5_Node000001_Node000006" class="edge">
<title>Node1&#45;&gt;Node6</title>
<g id="a_edge5_Node000001_Node000006"><a xlink:title=" ">
<path fill="none" stroke="#63b8ff" d="M826.89,-331.96C743.91,-311.51 581.84,-264.21 465.5,-184 447.09,-171.31 430.58,-151.51 420.12,-137.39"/>
<polygon fill="#63b8ff" stroke="#63b8ff" points="422.83,-135.17 414.16,-129.07 417.14,-139.24 422.83,-135.17"/>
</a>
</g>
</g>
<!-- Node17 -->
<g id="Node000017" class="node">
<title>Node17</title>
<g id="a_Node000017"><a xlink:href="../../d1/da0/vpiecenode_8h.html" target="_top" xlink:title=" ">
<polygon fill="white" stroke="#666666" points="913.5,-184 831.5,-184 831.5,-165 913.5,-165 913.5,-184"/>
<text text-anchor="middle" x="872.5" y="-172" font-family="Helvetica,sans-Serif" font-size="10.00">vpiecenode.h</text>
</a>
</g>
</g>
<!-- Node1&#45;&gt;Node17 -->
<g id="edge17_Node000001_Node000017" class="edge">
<title>Node1&#45;&gt;Node17</title>
<g id="a_edge17_Node000001_Node000017"><a xlink:title=" ">
<path fill="none" stroke="#63b8ff" d="M860.41,-329.8C849.63,-320.9 837.38,-308.4 831.5,-294 816.97,-258.42 841.99,-215.55 858.91,-192.37"/>
<polygon fill="#63b8ff" stroke="#63b8ff" points="861.83,-194.32 865.11,-184.24 856.26,-190.07 861.83,-194.32"/>
</a>
</g>
</g>
<!-- Node20 -->
<g id="Node000020" class="node">
<title>Node20</title>
<g id="a_Node000020"><a xlink:href="../../da/d03/vpiecepath_8h.html" target="_top" xlink:title=" ">
<polygon fill="white" stroke="#666666" points="920.5,-294 840.5,-294 840.5,-275 920.5,-275 920.5,-294"/>
<text text-anchor="middle" x="880.5" y="-282" font-family="Helvetica,sans-Serif" font-size="10.00">vpiecepath.h</text>
</a>
</g>
</g>
<!-- Node1&#45;&gt;Node20 -->
<g id="edge22_Node000001_Node000020" class="edge">
<title>Node1&#45;&gt;Node20</title>
<g id="a_edge22_Node000001_Node000020"><a xlink:title=" ">
<path fill="none" stroke="#63b8ff" d="M880.5,-329.84C880.5,-322.21 880.5,-312.7 880.5,-304.45"/>
<polygon fill="#63b8ff" stroke="#63b8ff" points="884,-304.27 880.5,-294.27 877,-304.27 884,-304.27"/>
</a>
</g>
</g>
<!-- Node29 -->
<g id="Node000029" class="node">
<title>Node29</title>
<g id="a_Node000029"><a xlink:href="../../d8/dbc/vpiecelabeldata_8h.html" target="_top" xlink:title=" ">
<polygon fill="white" stroke="#666666" points="1830.5,-294 1656.5,-294 1656.5,-275 1830.5,-275 1830.5,-294"/>
<text text-anchor="middle" x="1743.5" y="-282" font-family="Helvetica,sans-Serif" font-size="10.00">floatItemData/vpiecelabeldata.h</text>
</a>
</g>
</g>
<!-- Node1&#45;&gt;Node29 -->
<g id="edge50_Node000001_Node000029" class="edge">
<title>Node1&#45;&gt;Node29</title>
<g id="a_edge50_Node000001_Node000029"><a xlink:title=" ">
<path fill="none" stroke="#63b8ff" d="M934.16,-340.36C1076.29,-330.73 1464.04,-304.44 1646.34,-292.09"/>
<polygon fill="#63b8ff" stroke="#63b8ff" points="1646.71,-295.57 1656.45,-291.4 1646.24,-288.58 1646.71,-295.57"/>
</a>
</g>
</g>
<!-- Node30 -->
<g id="Node000030" class="node">
<title>Node30</title>
<g id="a_Node000030"><a xlink:href="../../de/d1f/vpatternlabeldata_8h.html" target="_top" xlink:title=" ">
<polygon fill="white" stroke="#666666" points="1570,-239 1457,-239 1457,-220 1570,-220 1570,-239"/>
<text text-anchor="middle" x="1513.5" y="-227" font-family="Helvetica,sans-Serif" font-size="10.00">vpatternlabeldata.h</text>
</a>
</g>
</g>
<!-- Node1&#45;&gt;Node30 -->
<g id="edge60_Node000001_Node000030" class="edge">
<title>Node1&#45;&gt;Node30</title>
<g id="a_edge60_Node000001_Node000030"><a xlink:title=" ">
<path fill="none" stroke="#63b8ff" d="M934.33,-342.23C1051.79,-337.83 1327.59,-324.51 1415.5,-294 1446.42,-283.27 1477.31,-260.82 1495.92,-245.7"/>
<polygon fill="#63b8ff" stroke="#63b8ff" points="1498.34,-248.23 1503.79,-239.14 1493.86,-242.86 1498.34,-248.23"/>
</a>
</g>
</g>
<!-- Node34 -->
<g id="Node000034" class="node">
<title>Node34</title>
<g id="a_Node000034"><a xlink:href="../../d3/d4a/vgrainlinedata_8h.html" target="_top" xlink:title=" ">
<polygon fill="white" stroke="#666666" points="1755,-239 1588,-239 1588,-220 1755,-220 1755,-239"/>
<text text-anchor="middle" x="1671.5" y="-227" font-family="Helvetica,sans-Serif" font-size="10.00">floatItemData/vgrainlinedata.h</text>
</a>
</g>
</g>
<!-- Node1&#45;&gt;Node34 -->
<g id="edge61_Node000001_Node000034" class="edge">
<title>Node1&#45;&gt;Node34</title>
<g id="a_edge61_Node000001_Node000034"><a xlink:title=" ">
<path fill="none" stroke="#63b8ff" d="M934.11,-342.63C1035.26,-339.3 1260.9,-328.36 1447.5,-294 1516.1,-281.37 1593.99,-256.91 1637.48,-242.32"/>
<polygon fill="#63b8ff" stroke="#63b8ff" points="1638.65,-245.62 1647,-239.09 1636.41,-238.98 1638.65,-245.62"/>
</a>
</g>
</g>
<!-- Node5 -->
<g id="Node000005" class="node">
<title>Node5</title>
<g id="a_Node000005"><a xlink:title=" ">
<polygon fill="#e0e0e0" stroke="#999999" points="737,-74 678,-74 678,-55 737,-55 737,-74"/>
<text text-anchor="middle" x="707.5" y="-62" font-family="Helvetica,sans-Serif" font-size="10.00">QtGlobal</text>
</a>
</g>
</g>
<!-- Node4&#45;&gt;Node5 -->
<g id="edge4_Node000004_Node000005" class="edge">
<title>Node4&#45;&gt;Node5</title>
<g id="a_edge4_Node000004_Node000005"><a xlink:title=" ">
<path fill="none" stroke="#63b8ff" d="M683.29,-109.75C687.26,-102.49 693.03,-91.95 697.93,-82.98"/>
<polygon fill="#63b8ff" stroke="#63b8ff" points="701.07,-84.54 702.8,-74.09 694.93,-81.18 701.07,-84.54"/>
</a>
</g>
</g>
<!-- Node6&#45;&gt;Node5 -->
<g id="edge12_Node000006_Node000005" class="edge">
<title>Node6&#45;&gt;Node5</title>
<g id="a_edge12_Node000006_Node000005"><a xlink:title=" ">
<path fill="none" stroke="#63b8ff" d="M449.58,-112.06C498.96,-104.18 584.57,-90.11 667.84,-74.05"/>
<polygon fill="#63b8ff" stroke="#63b8ff" points="668.57,-77.48 677.72,-72.14 667.23,-70.61 668.57,-77.48"/>
</a>
</g>
</g>
<!-- Node7 -->
<g id="Node000007" class="node">
<title>Node7</title>
<g id="a_Node000007"><a xlink:title=" ">
<polygon fill="#e0e0e0" stroke="#999999" points="571.5,-74 451.5,-74 451.5,-55 571.5,-55 571.5,-74"/>
<text text-anchor="middle" x="511.5" y="-62" font-family="Helvetica,sans-Serif" font-size="10.00">qcompilerdetection.h</text>
</a>
</g>
</g>
<!-- Node6&#45;&gt;Node7 -->
<g id="edge6_Node000006_Node000007" class="edge">
<title>Node6&#45;&gt;Node7</title>
<g id="a_edge6_Node000006_Node000007"><a xlink:title=" ">
<path fill="none" stroke="#63b8ff" d="M425.05,-109.98C441.39,-101.57 466.63,-88.59 485.63,-78.81"/>
<polygon fill="#63b8ff" stroke="#63b8ff" points="487.36,-81.86 494.65,-74.17 484.16,-75.63 487.36,-81.86"/>
</a>
</g>
</g>
<!-- Node8 -->
<g id="Node000008" class="node">
<title>Node8</title>
<g id="a_Node000008"><a xlink:title=" ">
<polygon fill="#e0e0e0" stroke="#999999" points="365,-74 292,-74 292,-55 365,-55 365,-74"/>
<text text-anchor="middle" x="328.5" y="-62" font-family="Helvetica,sans-Serif" font-size="10.00">QFileDialog</text>
</a>
</g>
</g>
<!-- Node6&#45;&gt;Node8 -->
<g id="edge7_Node000006_Node000008" class="edge">
<title>Node6&#45;&gt;Node8</title>
<g id="a_edge7_Node000006_Node000008"><a xlink:title=" ">
<path fill="none" stroke="#63b8ff" d="M395.65,-109.98C383.36,-101.84 364.59,-89.41 350.02,-79.76"/>
<polygon fill="#63b8ff" stroke="#63b8ff" points="351.86,-76.78 341.59,-74.17 347.99,-82.61 351.86,-76.78"/>
</a>
</g>
</g>
<!-- Node9 -->
<g id="Node000009" class="node">
<title>Node9</title>
<g id="a_Node000009"><a xlink:title=" ">
<polygon fill="#e0e0e0" stroke="#999999" points="433.5,-74 383.5,-74 383.5,-55 433.5,-55 433.5,-74"/>
<text text-anchor="middle" x="408.5" y="-62" font-family="Helvetica,sans-Serif" font-size="10.00">QLineF</text>
</a>
</g>
</g>
<!-- Node6&#45;&gt;Node9 -->
<g id="edge8_Node000006_Node000009" class="edge">
<title>Node6&#45;&gt;Node9</title>
<g id="a_edge8_Node000006_Node000009"><a xlink:title=" ">
<path fill="none" stroke="#63b8ff" d="M408.5,-109.75C408.5,-102.8 408.5,-92.85 408.5,-84.13"/>
<polygon fill="#63b8ff" stroke="#63b8ff" points="412,-84.09 408.5,-74.09 405,-84.09 412,-84.09"/>
</a>
</g>
</g>
<!-- Node10 -->
<g id="Node000010" class="node">
<title>Node10</title>
<g id="a_Node000010"><a xlink:title=" ">
<polygon fill="#e0e0e0" stroke="#999999" points="1547,-74 1494,-74 1494,-55 1547,-55 1547,-74"/>
<text text-anchor="middle" x="1520.5" y="-62" font-family="Helvetica,sans-Serif" font-size="10.00">QString</text>
</a>
</g>
</g>
<!-- Node6&#45;&gt;Node10 -->
<g id="edge9_Node000006_Node000010" class="edge">
<title>Node6&#45;&gt;Node10</title>
<g id="a_edge9_Node000006_Node000010"><a xlink:title=" ">
<path fill="none" stroke="#63b8ff" d="M449.73,-116.53C626.16,-108.13 1316.24,-75.24 1483.73,-67.25"/>
<polygon fill="#63b8ff" stroke="#63b8ff" points="1483.95,-70.75 1493.77,-66.77 1483.62,-63.75 1483.95,-70.75"/>
</a>
</g>
</g>
<!-- Node11 -->
<g id="Node000011" class="node">
<title>Node11</title>
<g id="a_Node000011"><a xlink:title=" ">
<polygon fill="#e0e0e0" stroke="#999999" points="659.5,-74 589.5,-74 589.5,-55 659.5,-55 659.5,-74"/>
<text text-anchor="middle" x="624.5" y="-62" font-family="Helvetica,sans-Serif" font-size="10.00">QStringList</text>
</a>
</g>
</g>
<!-- Node6&#45;&gt;Node11 -->
<g id="edge10_Node000006_Node000011" class="edge">
<title>Node6&#45;&gt;Node11</title>
<g id="a_edge10_Node000006_Node000011"><a xlink:title=" ">
<path fill="none" stroke="#63b8ff" d="M443.2,-109.98C480.25,-100.89 539.09,-86.46 579.63,-76.51"/>
<polygon fill="#63b8ff" stroke="#63b8ff" points="580.65,-79.86 589.52,-74.08 578.98,-73.07 580.65,-79.86"/>
</a>
</g>
</g>
<!-- Node12 -->
<g id="Node000012" class="node">
<title>Node12</title>
<g id="a_Node000012"><a xlink:title=" ">
<polygon fill="#e0e0e0" stroke="#999999" points="29,-74 0,-74 0,-55 29,-55 29,-74"/>
<text text-anchor="middle" x="14.5" y="-62" font-family="Helvetica,sans-Serif" font-size="10.00">Qt</text>
</a>
</g>
</g>
<!-- Node6&#45;&gt;Node12 -->
<g id="edge11_Node000006_Node000012" class="edge">
<title>Node6&#45;&gt;Node12</title>
<g id="a_edge11_Node000006_Node000012"><a xlink:title=" ">
<path fill="none" stroke="#63b8ff" d="M367.47,-116.52C300.48,-112.66 163.46,-102.09 39.14,-73.59"/>
<polygon fill="#63b8ff" stroke="#63b8ff" points="39.6,-70.11 29.07,-71.24 38.01,-76.92 39.6,-70.11"/>
</a>
</g>
</g>
<!-- Node13 -->
<g id="Node000013" class="node">
<title>Node13</title>
<g id="a_Node000013"><a xlink:title=" ">
<polygon fill="#e0e0e0" stroke="#999999" points="103.5,-74 47.5,-74 47.5,-55 103.5,-55 103.5,-74"/>
<text text-anchor="middle" x="75.5" y="-62" font-family="Helvetica,sans-Serif" font-size="10.00">QPrinter</text>
</a>
</g>
</g>
<!-- Node6&#45;&gt;Node13 -->
<g id="edge13_Node000006_Node000013" class="edge">
<title>Node6&#45;&gt;Node13</title>
<g id="a_edge13_Node000006_Node000013"><a xlink:title=" ">
<path fill="none" stroke="#63b8ff" d="M367.15,-113.3C311.68,-106.1 209.91,-92.12 113.63,-74.09"/>
<polygon fill="#63b8ff" stroke="#63b8ff" points="114.21,-70.64 103.73,-72.22 112.91,-77.52 114.21,-70.64"/>
</a>
</g>
</g>
<!-- Node14 -->
<g id="Node000014" class="node">
<title>Node14</title>
<g id="a_Node000014"><a xlink:title=" ">
<polygon fill="#e0e0e0" stroke="#999999" points="173,-74 122,-74 122,-55 173,-55 173,-74"/>
<text text-anchor="middle" x="147.5" y="-62" font-family="Helvetica,sans-Serif" font-size="10.00">csignal</text>
</a>
</g>
</g>
<!-- Node6&#45;&gt;Node14 -->
<g id="edge14_Node000006_Node000014" class="edge">
<title>Node6&#45;&gt;Node14</title>
<g id="a_edge14_Node000006_Node000014"><a xlink:title=" ">
<path fill="none" stroke="#63b8ff" d="M367.36,-111.09C323.83,-103.11 252.91,-89.69 182.95,-74.24"/>
<polygon fill="#63b8ff" stroke="#63b8ff" points="183.61,-70.8 173.09,-72.05 182.09,-77.63 183.61,-70.8"/>
</a>
</g>
</g>
<!-- Node15 -->
<g id="Node000015" class="node">
<title>Node15</title>
<g id="a_Node000015"><a xlink:href="../../d4/d82/debugbreak_8h.html" target="_top" xlink:title=" ">
<polygon fill="white" stroke="#666666" points="274,-74 191,-74 191,-55 274,-55 274,-74"/>
<text text-anchor="middle" x="232.5" y="-62" font-family="Helvetica,sans-Serif" font-size="10.00">debugbreak.h</text>
</a>
</g>
</g>
<!-- Node6&#45;&gt;Node15 -->
<g id="edge15_Node000006_Node000015" class="edge">
<title>Node6&#45;&gt;Node15</title>
<g id="a_edge15_Node000006_Node000015"><a xlink:title=" ">
<path fill="none" stroke="#63b8ff" d="M380.22,-109.98C350.55,-101.05 303.71,-86.94 270.75,-77.02"/>
<polygon fill="#63b8ff" stroke="#63b8ff" points="271.58,-73.61 261,-74.08 269.57,-80.32 271.58,-73.61"/>
</a>
</g>
</g>
<!-- Node16 -->
<g id="Node000016" class="node">
<title>Node16</title>
<g id="a_Node000016"><a xlink:title=" ">
<polygon fill="#e0e0e0" stroke="#999999" points="260,-19 205,-19 205,0 260,0 260,-19"/>
<text text-anchor="middle" x="232.5" y="-7" font-family="Helvetica,sans-Serif" font-size="10.00">signal.h</text>
</a>
</g>
</g>
<!-- Node15&#45;&gt;Node16 -->
<g id="edge16_Node000015_Node000016" class="edge">
<title>Node15&#45;&gt;Node16</title>
<g id="a_edge16_Node000015_Node000016"><a xlink:title=" ">
<path fill="none" stroke="#63b8ff" d="M232.5,-54.75C232.5,-47.8 232.5,-37.85 232.5,-29.13"/>
<polygon fill="#63b8ff" stroke="#63b8ff" points="236,-29.09 232.5,-19.09 229,-29.09 236,-29.09"/>
</a>
</g>
</g>
<!-- Node17&#45;&gt;Node5 -->
<g id="edge18_Node000017_Node000005" class="edge">
<title>Node17&#45;&gt;Node5</title>
<g id="a_edge18_Node000017_Node000005"><a xlink:title=" ">
<path fill="none" stroke="#63b8ff" d="M867.08,-164.96C858.19,-151.58 839.33,-125.61 817.5,-110 796.28,-94.83 769.15,-83.78 747.14,-76.49"/>
<polygon fill="#63b8ff" stroke="#63b8ff" points="748.01,-73.09 737.42,-73.4 745.89,-79.76 748.01,-73.09"/>
</a>
</g>
</g>
<!-- Node17&#45;&gt;Node6 -->
<g id="edge21_Node000017_Node000006" class="edge">
<title>Node17&#45;&gt;Node6</title>
<g id="a_edge21_Node000017_Node000006"><a xlink:title=" ">
<path fill="none" stroke="#63b8ff" d="M831.32,-168.8C746.45,-159.1 552.27,-136.92 459.57,-126.33"/>
<polygon fill="#63b8ff" stroke="#63b8ff" points="459.92,-122.85 449.58,-125.19 459.12,-129.81 459.92,-122.85"/>
</a>
</g>
</g>
<!-- Node18 -->
<g id="Node000018" class="node">
<title>Node18</title>
<g id="a_Node000018"><a xlink:title=" ">
<polygon fill="#e0e0e0" stroke="#999999" points="1075.5,-129 959.5,-129 959.5,-110 1075.5,-110 1075.5,-129"/>
<text text-anchor="middle" x="1017.5" y="-117" font-family="Helvetica,sans-Serif" font-size="10.00">QSharedDataPointer</text>
</a>
</g>
</g>
<!-- Node17&#45;&gt;Node18 -->
<g id="edge19_Node000017_Node000018" class="edge">
<title>Node17&#45;&gt;Node18</title>
<g id="a_edge19_Node000017_Node000018"><a xlink:title=" ">
<path fill="none" stroke="#63b8ff" d="M895.8,-164.98C919.75,-156.23 957.28,-142.51 984.33,-132.62"/>
<polygon fill="#63b8ff" stroke="#63b8ff" points="985.59,-135.89 993.78,-129.17 983.19,-129.32 985.59,-135.89"/>
</a>
</g>
</g>
<!-- Node19 -->
<g id="Node000019" class="node">
<title>Node19</title>
<g id="a_Node000019"><a xlink:title=" ">
<polygon fill="#e0e0e0" stroke="#999999" points="941,-129 870,-129 870,-110 941,-110 941,-129"/>
<text text-anchor="middle" x="905.5" y="-117" font-family="Helvetica,sans-Serif" font-size="10.00">QMetaType</text>
</a>
</g>
</g>
<!-- Node17&#45;&gt;Node19 -->
<g id="edge20_Node000017_Node000019" class="edge">
<title>Node17&#45;&gt;Node19</title>
<g id="a_edge20_Node000017_Node000019"><a xlink:title=" ">
<path fill="none" stroke="#63b8ff" d="M877.95,-164.75C882.51,-157.42 889.17,-146.73 894.79,-137.7"/>
<polygon fill="#63b8ff" stroke="#63b8ff" points="897.84,-139.43 900.15,-129.09 891.9,-135.73 897.84,-139.43"/>
</a>
</g>
</g>
<!-- Node20&#45;&gt;Node5 -->
<g id="edge23_Node000020_Node000005" class="edge">
<title>Node20&#45;&gt;Node5</title>
<g id="a_edge23_Node000020_Node000005"><a xlink:title=" ">
<path fill="none" stroke="#63b8ff" d="M846.94,-275C770.77,-255.36 590.1,-206.83 573.5,-184 556.3,-160.34 586.78,-123.67 601.5,-110 620.14,-92.68 646.5,-81.58 668.27,-74.79"/>
<polygon fill="#63b8ff" stroke="#63b8ff" points="669.29,-78.14 677.9,-71.97 667.32,-71.42 669.29,-78.14"/>
</a>
</g>
</g>
<!-- Node20&#45;&gt;Node6 -->
<g id="edge25_Node000020_Node000006" class="edge">
<title>Node20&#45;&gt;Node6</title>
<g id="a_edge25_Node000020_Node000006"><a xlink:title=" ">
<path fill="none" stroke="#63b8ff" d="M840.25,-277.59C769.31,-266.16 618.48,-237.35 501.5,-184 473.37,-171.17 444.51,-149.96 426.55,-135.62"/>
<polygon fill="#63b8ff" stroke="#63b8ff" points="428.63,-132.8 418.66,-129.2 424.21,-138.23 428.63,-132.8"/>
</a>
</g>
</g>
<!-- Node20&#45;&gt;Node18 -->
<g id="edge24_Node000020_Node000018" class="edge">
<title>Node20&#45;&gt;Node18</title>
<g id="a_edge24_Node000020_Node000018"><a xlink:title=" ">
<path fill="none" stroke="#63b8ff" d="M887.87,-274.74C909.79,-248.65 974.91,-171.17 1003.63,-137"/>
<polygon fill="#63b8ff" stroke="#63b8ff" points="1006.34,-139.21 1010.1,-129.31 1000.98,-134.71 1006.34,-139.21"/>
</a>
</g>
</g>
<!-- Node21 -->
<g id="Node000021" class="node">
<title>Node21</title>
<g id="a_Node000021"><a xlink:href="../../d5/d82/vabstractcurve_8h.html" target="_top" xlink:title=" ">
<polygon fill="white" stroke="#666666" points="1172.5,-239 1008.5,-239 1008.5,-220 1172.5,-220 1172.5,-239"/>
<text text-anchor="middle" x="1090.5" y="-227" font-family="Helvetica,sans-Serif" font-size="10.00">../vgeometry/vabstractcurve.h</text>
</a>
</g>
</g>
<!-- Node20&#45;&gt;Node21 -->
<g id="edge26_Node000020_Node000021" class="edge">
<title>Node20&#45;&gt;Node21</title>
<g id="a_edge26_Node000020_Node000021"><a xlink:title=" ">
<path fill="none" stroke="#63b8ff" d="M914.24,-274.98C950.18,-265.91 1007.22,-251.52 1046.63,-241.57"/>
<polygon fill="#63b8ff" stroke="#63b8ff" points="1047.66,-244.92 1056.5,-239.08 1045.94,-238.14 1047.66,-244.92"/>
</a>
</g>
</g>
<!-- Node21&#45;&gt;Node3 -->
<g id="edge32_Node000021_Node000003" class="edge">
<title>Node21&#45;&gt;Node3</title>
<g id="a_edge32_Node000021_Node000003"><a xlink:title=" ">
<path fill="none" stroke="#63b8ff" d="M1111.41,-219.91C1132.18,-211.26 1164.82,-197.32 1192.5,-184 1208.8,-176.16 1211.66,-171.62 1228.5,-165 1251.54,-155.94 1314.64,-139.79 1355.79,-129.64"/>
<polygon fill="#63b8ff" stroke="#63b8ff" points="1356.87,-132.98 1365.75,-127.19 1355.2,-126.18 1356.87,-132.98"/>
</a>
</g>
</g>
<!-- Node21&#45;&gt;Node5 -->
<g id="edge33_Node000021_Node000005" class="edge">
<title>Node21&#45;&gt;Node5</title>
<g id="a_edge33_Node000021_Node000005"><a xlink:title=" ">
<path fill="none" stroke="#63b8ff" d="M1008.32,-228.06C953,-224.69 879.95,-214.09 822.5,-184 810.2,-177.56 750.63,-112.97 722.4,-81.95"/>
<polygon fill="#63b8ff" stroke="#63b8ff" points="724.64,-79.22 715.33,-74.17 719.46,-83.93 724.64,-79.22"/>
</a>
</g>
</g>
<!-- Node21&#45;&gt;Node7 -->
<g id="edge27_Node000021_Node000007" class="edge">
<title>Node21&#45;&gt;Node7</title>
<g id="a_edge27_Node000021_Node000007"><a xlink:title=" ">
<path fill="none" stroke="#63b8ff" d="M1008.45,-225.74C871.74,-220.5 608.79,-207.49 573.5,-184 538.51,-160.71 522,-111.09 515.33,-84.03"/>
<polygon fill="#63b8ff" stroke="#63b8ff" points="518.74,-83.24 513.11,-74.26 511.92,-84.79 518.74,-83.24"/>
</a>
</g>
</g>
<!-- Node21&#45;&gt;Node10 -->
<g id="edge30_Node000021_Node000010" class="edge">
<title>Node21&#45;&gt;Node10</title>
<g id="a_edge30_Node000021_Node000010"><a xlink:title=" ">
<path fill="none" stroke="#63b8ff" d="M1172.73,-221.44C1223.4,-215.31 1289.05,-204.11 1344.5,-184 1360.41,-178.23 1361.93,-171.63 1377.5,-165 1430.3,-142.52 1460.76,-169.41 1501.5,-129 1513.36,-117.23 1517.88,-98.39 1519.57,-84.28"/>
<polygon fill="#63b8ff" stroke="#63b8ff" points="1523.07,-84.46 1520.4,-74.21 1516.09,-83.88 1523.07,-84.46"/>
</a>
</g>
</g>
<!-- Node21&#45;&gt;Node18 -->
<g id="edge29_Node000021_Node000018" class="edge">
<title>Node21&#45;&gt;Node18</title>
<g id="a_edge29_Node000021_Node000018"><a xlink:title=" ">
<path fill="none" stroke="#63b8ff" d="M1084.26,-219.68C1077.96,-210.73 1067.96,-196.46 1059.5,-184 1048.97,-168.49 1037.21,-150.67 1028.82,-137.87"/>
<polygon fill="#63b8ff" stroke="#63b8ff" points="1031.54,-135.63 1023.14,-129.17 1025.68,-139.46 1031.54,-135.63"/>
</a>
</g>
</g>
<!-- Node22 -->
<g id="Node000022" class="node">
<title>Node22</title>
<g id="a_Node000022"><a xlink:title=" ">
<polygon fill="#e0e0e0" stroke="#999999" points="1628,-129 1573,-129 1573,-110 1628,-110 1628,-129"/>
<text text-anchor="middle" x="1600.5" y="-117" font-family="Helvetica,sans-Serif" font-size="10.00">QPointF</text>
</a>
</g>
</g>
<!-- Node21&#45;&gt;Node22 -->
<g id="edge28_Node000021_Node000022" class="edge">
<title>Node21&#45;&gt;Node22</title>
<g id="a_edge28_Node000021_Node000022"><a xlink:title=" ">
<path fill="none" stroke="#63b8ff" d="M1161.42,-219.99C1219.78,-212.39 1304.48,-199.99 1377.5,-184 1444.44,-169.34 1520.97,-146.1 1564.73,-132.17"/>
<polygon fill="#63b8ff" stroke="#63b8ff" points="1565.88,-135.47 1574.34,-129.09 1563.74,-128.81 1565.88,-135.47"/>
</a>
</g>
</g>
<!-- Node23 -->
<g id="Node000023" class="node">
<title>Node23</title>
<g id="a_Node000023"><a xlink:title=" ">
<polygon fill="#e0e0e0" stroke="#999999" points="1159,-129 1094,-129 1094,-110 1159,-110 1159,-129"/>
<text text-anchor="middle" x="1126.5" y="-117" font-family="Helvetica,sans-Serif" font-size="10.00">QTypeInfo</text>
</a>
</g>
</g>
<!-- Node21&#45;&gt;Node23 -->
<g id="edge31_Node000021_Node000023" class="edge">
<title>Node21&#45;&gt;Node23</title>
<g id="a_edge31_Node000021_Node000023"><a xlink:title=" ">
<path fill="none" stroke="#63b8ff" d="M1082.55,-219.63C1072.36,-207.12 1057.07,-183.74 1066.5,-165 1073.19,-151.71 1085.94,-141.39 1097.97,-134.05"/>
<polygon fill="#63b8ff" stroke="#63b8ff" points="1099.92,-136.97 1106.92,-129.02 1096.49,-130.87 1099.92,-136.97"/>
</a>
</g>
</g>
<!-- Node24 -->
<g id="Node000024" class="node">
<title>Node24</title>
<g id="a_Node000024"><a xlink:href="../../d3/da5/ifcdef_8h.html" target="_top" xlink:title=" ">
<polygon fill="white" stroke="#666666" points="659,-184 582,-184 582,-165 659,-165 659,-184"/>
<text text-anchor="middle" x="620.5" y="-172" font-family="Helvetica,sans-Serif" font-size="10.00">../ifc/ifcdef.h</text>
</a>
</g>
</g>
<!-- Node21&#45;&gt;Node24 -->
<g id="edge34_Node000021_Node000024" class="edge">
<title>Node21&#45;&gt;Node24</title>
<g id="a_edge34_Node000021_Node000024"><a xlink:title=" ">
<path fill="none" stroke="#63b8ff" d="M1014.99,-219.98C917.69,-209.01 751.33,-190.25 669.24,-181"/>
<polygon fill="#63b8ff" stroke="#63b8ff" points="669.51,-177.5 659.18,-179.86 668.73,-184.46 669.51,-177.5"/>
</a>
</g>
</g>
<!-- Node25 -->
<g id="Node000025" class="node">
<title>Node25</title>
<g id="a_Node000025"><a xlink:href="../../db/db3/vmath_8h.html" target="_top" xlink:title=" ">
<polygon fill="white" stroke="#666666" points="1335.5,-184 1237.5,-184 1237.5,-165 1335.5,-165 1335.5,-184"/>
<text text-anchor="middle" x="1286.5" y="-172" font-family="Helvetica,sans-Serif" font-size="10.00">../vmisc/vmath.h</text>
</a>
</g>
</g>
<!-- Node21&#45;&gt;Node25 -->
<g id="edge40_Node000021_Node000025" class="edge">
<title>Node21&#45;&gt;Node25</title>
<g id="a_edge40_Node000021_Node000025"><a xlink:title=" ">
<path fill="none" stroke="#63b8ff" d="M1121.99,-219.98C1155.32,-210.97 1208.1,-196.7 1244.85,-186.76"/>
<polygon fill="#63b8ff" stroke="#63b8ff" points="1246.02,-190.07 1254.76,-184.08 1244.2,-183.31 1246.02,-190.07"/>
</a>
</g>
</g>
<!-- Node27 -->
<g id="Node000027" class="node">
<title>Node27</title>
<g id="a_Node000027"><a xlink:href="../../d5/d9d/vgeometrydef_8h.html" target="_top" xlink:title=" ">
<polygon fill="white" stroke="#666666" points="1347.5,-129 1253.5,-129 1253.5,-110 1347.5,-110 1347.5,-129"/>
<text text-anchor="middle" x="1300.5" y="-117" font-family="Helvetica,sans-Serif" font-size="10.00">vgeometrydef.h</text>
</a>
</g>
</g>
<!-- Node21&#45;&gt;Node27 -->
<g id="edge42_Node000021_Node000027" class="edge">
<title>Node21&#45;&gt;Node27</title>
<g id="a_edge42_Node000021_Node000027"><a xlink:title=" ">
<path fill="none" stroke="#63b8ff" d="M1103.41,-219.86C1122.89,-207.02 1161.16,-182.55 1195.5,-165 1219.24,-152.87 1247.06,-141.19 1268.1,-132.84"/>
<polygon fill="#63b8ff" stroke="#63b8ff" points="1269.51,-136.04 1277.54,-129.13 1266.95,-129.53 1269.51,-136.04"/>
</a>
</g>
</g>
<!-- Node28 -->
<g id="Node000028" class="node">
<title>Node28</title>
<g id="a_Node000028"><a xlink:href="../../d2/d07/vgobject_8h.html" target="_top" xlink:title=" ">
<polygon fill="white" stroke="#666666" points="1143.5,-184 1075.5,-184 1075.5,-165 1143.5,-165 1143.5,-184"/>
<text text-anchor="middle" x="1109.5" y="-172" font-family="Helvetica,sans-Serif" font-size="10.00">vgobject.h</text>
</a>
</g>
</g>
<!-- Node21&#45;&gt;Node28 -->
<g id="edge43_Node000021_Node000028" class="edge">
<title>Node21&#45;&gt;Node28</title>
<g id="a_edge43_Node000021_Node000028"><a xlink:title=" ">
<path fill="none" stroke="#63b8ff" d="M1093.64,-219.75C1096.18,-212.65 1099.86,-202.4 1103.03,-193.56"/>
<polygon fill="#63b8ff" stroke="#63b8ff" points="1106.34,-194.68 1106.42,-184.09 1099.75,-192.32 1106.34,-194.68"/>
</a>
</g>
</g>
<!-- Node24&#45;&gt;Node4 -->
<g id="edge39_Node000024_Node000004" class="edge">
<title>Node24&#45;&gt;Node4</title>
<g id="a_edge39_Node000024_Node000004"><a xlink:title=" ">
<path fill="none" stroke="#63b8ff" d="M629.82,-164.98C638.31,-157.23 651.06,-145.58 661.38,-136.14"/>
<polygon fill="#63b8ff" stroke="#63b8ff" points="663.99,-138.5 669.01,-129.17 659.27,-133.33 663.99,-138.5"/>
</a>
</g>
</g>
<!-- Node24&#45;&gt;Node5 -->
<g id="edge37_Node000024_Node000005" class="edge">
<title>Node24&#45;&gt;Node5</title>
<g id="a_edge37_Node000024_Node000005"><a xlink:title=" ">
<path fill="none" stroke="#63b8ff" d="M615.94,-164.93C609.74,-151.97 600.59,-127.08 611.5,-110 618.54,-98.98 647.44,-86.45 671.72,-77.5"/>
<polygon fill="#63b8ff" stroke="#63b8ff" points="673.19,-80.69 681.41,-74.02 670.82,-74.11 673.19,-80.69"/>
</a>
</g>
</g>
<!-- Node24&#45;&gt;Node6 -->
<g id="edge38_Node000024_Node000006" class="edge">
<title>Node24&#45;&gt;Node6</title>
<g id="a_edge38_Node000024_Node000006"><a xlink:title=" ">
<path fill="none" stroke="#63b8ff" d="M586.44,-164.98C550.08,-155.89 492.33,-141.46 452.53,-131.51"/>
<polygon fill="#63b8ff" stroke="#63b8ff" points="453.38,-128.11 442.83,-129.08 451.68,-134.9 453.38,-128.11"/>
</a>
</g>
</g>
<!-- Node24&#45;&gt;Node10 -->
<g id="edge35_Node000024_Node000010" class="edge">
<title>Node24&#45;&gt;Node10</title>
<g id="a_edge35_Node000024_Node000010"><a xlink:title=" ">
<path fill="none" stroke="#63b8ff" d="M646.54,-164.89C690.36,-150.79 781.87,-123.06 861.5,-110 1096.24,-71.51 1383.26,-66.18 1483.7,-65.54"/>
<polygon fill="#63b8ff" stroke="#63b8ff" points="1483.94,-69.04 1493.93,-65.49 1483.91,-62.04 1483.94,-69.04"/>
</a>
</g>
</g>
<!-- Node24&#45;&gt;Node11 -->
<g id="edge36_Node000024_Node000011" class="edge">
<title>Node24&#45;&gt;Node11</title>
<g id="a_edge36_Node000024_Node000011"><a xlink:title=" ">
<path fill="none" stroke="#63b8ff" d="M607.54,-164.88C591.77,-153.22 568.29,-131.4 577.5,-110 582.65,-98.03 592.79,-87.76 602.33,-80.12"/>
<polygon fill="#63b8ff" stroke="#63b8ff" points="604.49,-82.88 610.43,-74.11 600.31,-77.26 604.49,-82.88"/>
</a>
</g>
</g>
<!-- Node26 -->
<g id="Node000026" class="node">
<title>Node26</title>
<g id="a_Node000026"><a xlink:title=" ">
<polygon fill="#e0e0e0" stroke="#999999" points="1492,-129 1439,-129 1439,-110 1492,-110 1492,-129"/>
<text text-anchor="middle" x="1465.5" y="-117" font-family="Helvetica,sans-Serif" font-size="10.00">QtMath</text>
</a>
</g>
</g>
<!-- Node25&#45;&gt;Node26 -->
<g id="edge41_Node000025_Node000026" class="edge">
<title>Node25&#45;&gt;Node26</title>
<g id="a_edge41_Node000025_Node000026"><a xlink:title=" ">
<path fill="none" stroke="#63b8ff" d="M1315.26,-164.98C1346.16,-155.84 1395.34,-141.27 1428.96,-131.32"/>
<polygon fill="#63b8ff" stroke="#63b8ff" points="1430.26,-134.58 1438.86,-128.39 1428.28,-127.87 1430.26,-134.58"/>
</a>
</g>
</g>
<!-- Node28&#45;&gt;Node3 -->
<g id="edge47_Node000028_Node000003" class="edge">
<title>Node28&#45;&gt;Node3</title>
<g id="a_edge47_Node000028_Node000003"><a xlink:title=" ">
<path fill="none" stroke="#63b8ff" d="M1143.56,-167.89C1189.42,-160.22 1273.81,-145.71 1355.68,-129.08"/>
<polygon fill="#63b8ff" stroke="#63b8ff" points="1356.55,-132.48 1365.65,-127.05 1355.15,-125.62 1356.55,-132.48"/>
</a>
</g>
</g>
<!-- Node28&#45;&gt;Node5 -->
<g id="edge48_Node000028_Node000005" class="edge">
<title>Node28&#45;&gt;Node5</title>
<g id="a_edge48_Node000028_Node000005"><a xlink:title=" ">
<path fill="none" stroke="#63b8ff" d="M1127.61,-164.93C1150.95,-152.78 1186.51,-129.83 1168.5,-110 1140.41,-79.07 854.1,-69.03 747.34,-66.35"/>
<polygon fill="#63b8ff" stroke="#63b8ff" points="747.37,-62.85 737.29,-66.1 747.2,-69.85 747.37,-62.85"/>
</a>
</g>
</g>
<!-- Node28&#45;&gt;Node10 -->
<g id="edge45_Node000028_Node000010" class="edge">
<title>Node28&#45;&gt;Node10</title>
<g id="a_edge45_Node000028_Node000010"><a xlink:title=" ">
<path fill="none" stroke="#63b8ff" d="M1124.33,-164.82C1148.61,-151.01 1198.72,-124.15 1244.5,-110 1327.75,-84.27 1429.98,-72.74 1483.62,-68.15"/>
<polygon fill="#63b8ff" stroke="#63b8ff" points="1484,-71.63 1493.68,-67.32 1483.42,-64.66 1484,-71.63"/>
</a>
</g>
</g>
<!-- Node28&#45;&gt;Node18 -->
<g id="edge44_Node000028_Node000018" class="edge">
<title>Node28&#45;&gt;Node18</title>
<g id="a_edge44_Node000028_Node000018"><a xlink:title=" ">
<path fill="none" stroke="#63b8ff" d="M1094.72,-164.98C1080.32,-156.69 1058.19,-143.94 1041.31,-134.22"/>
<polygon fill="#63b8ff" stroke="#63b8ff" points="1042.96,-131.13 1032.55,-129.17 1039.47,-137.19 1042.96,-131.13"/>
</a>
</g>
</g>
<!-- Node28&#45;&gt;Node23 -->
<g id="edge46_Node000028_Node000023" class="edge">
<title>Node28&#45;&gt;Node23</title>
<g id="a_edge46_Node000028_Node000023"><a xlink:title=" ">
<path fill="none" stroke="#63b8ff" d="M1112.31,-164.75C1114.56,-157.72 1117.8,-147.62 1120.62,-138.84"/>
<polygon fill="#63b8ff" stroke="#63b8ff" points="1124.02,-139.68 1123.75,-129.09 1117.36,-137.54 1124.02,-139.68"/>
</a>
</g>
</g>
<!-- Node28&#45;&gt;Node27 -->
<g id="edge49_Node000028_Node000027" class="edge">
<title>Node28&#45;&gt;Node27</title>
<g id="a_edge49_Node000028_Node000027"><a xlink:title=" ">
<path fill="none" stroke="#63b8ff" d="M1140.19,-164.98C1172.67,-155.97 1224.1,-141.7 1259.91,-131.76"/>
<polygon fill="#63b8ff" stroke="#63b8ff" points="1260.87,-135.13 1269.57,-129.08 1259,-128.38 1260.87,-135.13"/>
</a>
</g>
</g>
<!-- Node29&#45;&gt;Node10 -->
<g id="edge51_Node000029_Node000010" class="edge">
<title>Node29&#45;&gt;Node10</title>
<g id="a_edge51_Node000029_Node000010"><a xlink:title=" ">
<path fill="none" stroke="#63b8ff" d="M1755.71,-274.78C1776.24,-259.28 1816.95,-224.7 1832.5,-184 1844.99,-151.3 1833.69,-130.76 1805.5,-110 1766.74,-81.46 1625.51,-70.69 1557.54,-67.1"/>
<polygon fill="#63b8ff" stroke="#63b8ff" points="1557.45,-63.59 1547.29,-66.58 1557.1,-70.58 1557.45,-63.59"/>
</a>
</g>
</g>
<!-- Node29&#45;&gt;Node30 -->
<g id="edge52_Node000029_Node000030" class="edge">
<title>Node29&#45;&gt;Node30</title>
<g id="a_edge52_Node000029_Node000030"><a xlink:title=" ">
<path fill="none" stroke="#63b8ff" d="M1706.55,-274.98C1666.93,-265.86 1603.91,-251.33 1560.73,-241.38"/>
<polygon fill="#63b8ff" stroke="#63b8ff" points="1561.27,-237.92 1550.74,-239.08 1559.7,-244.74 1561.27,-237.92"/>
</a>
</g>
</g>
<!-- Node32 -->
<g id="Node000032" class="node">
<title>Node32</title>
<g id="a_Node000032"><a xlink:href="../../dc/d76/floatitemdef_8h.html" target="_top" xlink:title=" ">
<polygon fill="white" stroke="#666666" points="1823,-184 1738,-184 1738,-165 1823,-165 1823,-184"/>
<text text-anchor="middle" x="1780.5" y="-172" font-family="Helvetica,sans-Serif" font-size="10.00">floatitemdef.h</text>
</a>
</g>
</g>
<!-- Node29&#45;&gt;Node32 -->
<g id="edge57_Node000029_Node000032" class="edge">
<title>Node29&#45;&gt;Node32</title>
<g id="a_edge57_Node000029_Node000032"><a xlink:title=" ">
<path fill="none" stroke="#63b8ff" d="M1748.2,-274.85C1752.84,-266.03 1759.89,-251.87 1764.5,-239 1769.78,-224.26 1774.01,-207.01 1776.79,-194.21"/>
<polygon fill="#63b8ff" stroke="#63b8ff" points="1780.24,-194.79 1778.85,-184.29 1773.39,-193.37 1780.24,-194.79"/>
</a>
</g>
</g>
<!-- Node30&#45;&gt;Node22 -->
<g id="edge53_Node000030_Node000022" class="edge">
<title>Node30&#45;&gt;Node22</title>
<g id="a_edge53_Node000030_Node000022"><a xlink:title=" ">
<path fill="none" stroke="#63b8ff" d="M1559.66,-220C1580.1,-213.69 1602.25,-202.78 1614.5,-184 1623.53,-170.15 1617.65,-151.37 1610.96,-137.82"/>
<polygon fill="#63b8ff" stroke="#63b8ff" points="1614.02,-136.13 1606.15,-129.04 1607.88,-139.49 1614.02,-136.13"/>
</a>
</g>
</g>
<!-- Node31 -->
<g id="Node000031" class="node">
<title>Node31</title>
<g id="a_Node000031"><a xlink:href="../../db/dc1/vabstractfloatitemdata_8h.html" target="_top" xlink:title=" ">
<polygon fill="white" stroke="#666666" points="1605,-184 1468,-184 1468,-165 1605,-165 1605,-184"/>
<text text-anchor="middle" x="1536.5" y="-172" font-family="Helvetica,sans-Serif" font-size="10.00">vabstractfloatitemdata.h</text>
</a>
</g>
</g>
<!-- Node30&#45;&gt;Node31 -->
<g id="edge54_Node000030_Node000031" class="edge">
<title>Node30&#45;&gt;Node31</title>
<g id="a_edge54_Node000030_Node000031"><a xlink:title=" ">
<path fill="none" stroke="#63b8ff" d="M1517.3,-219.75C1520.41,-212.57 1524.92,-202.18 1528.79,-193.27"/>
<polygon fill="#63b8ff" stroke="#63b8ff" points="1532,-194.66 1532.77,-184.09 1525.58,-191.87 1532,-194.66"/>
</a>
</g>
</g>
<!-- Node31&#45;&gt;Node18 -->
<g id="edge56_Node000031_Node000018" class="edge">
<title>Node31&#45;&gt;Node18</title>
<g id="a_edge56_Node000031_Node000018"><a xlink:title=" ">
<path fill="none" stroke="#63b8ff" d="M1467.68,-167.27C1381.25,-159.32 1228.16,-144.83 1085.95,-129.02"/>
<polygon fill="#63b8ff" stroke="#63b8ff" points="1086.05,-125.51 1075.73,-127.88 1085.28,-132.47 1086.05,-125.51"/>
</a>
</g>
</g>
<!-- Node31&#45;&gt;Node22 -->
<g id="edge55_Node000031_Node000022" class="edge">
<title>Node31&#45;&gt;Node22</title>
<g id="a_edge55_Node000031_Node000022"><a xlink:title=" ">
<path fill="none" stroke="#63b8ff" d="M1546.78,-164.98C1556.34,-157.07 1570.78,-145.11 1582.28,-135.58"/>
<polygon fill="#63b8ff" stroke="#63b8ff" points="1584.56,-138.24 1590.03,-129.17 1580.1,-132.85 1584.56,-138.24"/>
</a>
</g>
</g>
<!-- Node32&#45;&gt;Node10 -->
<g id="edge59_Node000032_Node000010" class="edge">
<title>Node32&#45;&gt;Node10</title>
<g id="a_edge59_Node000032_Node000010"><a xlink:title=" ">
<path fill="none" stroke="#63b8ff" d="M1785.18,-164.96C1791.8,-151.58 1801.72,-125.6 1788.5,-110 1759.26,-75.51 1623.48,-67.72 1557.15,-65.98"/>
<polygon fill="#63b8ff" stroke="#63b8ff" points="1557.21,-62.48 1547.13,-65.75 1557.05,-69.48 1557.21,-62.48"/>
</a>
</g>
</g>
<!-- Node33 -->
<g id="Node000033" class="node">
<title>Node33</title>
<g id="a_Node000033"><a xlink:title=" ">
<polygon fill="#e0e0e0" stroke="#999999" points="1779,-129 1738,-129 1738,-110 1779,-110 1779,-129"/>
<text text-anchor="middle" x="1758.5" y="-117" font-family="Helvetica,sans-Serif" font-size="10.00">QList</text>
</a>
</g>
</g>
<!-- Node32&#45;&gt;Node33 -->
<g id="edge58_Node000032_Node000033" class="edge">
<title>Node32&#45;&gt;Node33</title>
<g id="a_edge58_Node000032_Node000033"><a xlink:title=" ">
<path fill="none" stroke="#63b8ff" d="M1776.87,-164.75C1773.92,-157.65 1769.67,-147.4 1765.99,-138.56"/>
<polygon fill="#63b8ff" stroke="#63b8ff" points="1769.13,-136.98 1762.07,-129.09 1762.67,-139.67 1769.13,-136.98"/>
</a>
</g>
</g>
<!-- Node34&#45;&gt;Node10 -->
<g id="edge62_Node000034_Node000010" class="edge">
<title>Node34&#45;&gt;Node10</title>
<g id="a_edge62_Node000034_Node000010"><a xlink:title=" ">
<path fill="none" stroke="#63b8ff" d="M1671.88,-219.76C1672.31,-197.67 1670.15,-139.31 1637.5,-110 1614.9,-89.71 1582.11,-78.31 1556.99,-72.14"/>
<polygon fill="#63b8ff" stroke="#63b8ff" points="1557.62,-68.7 1547.09,-69.88 1556.06,-75.52 1557.62,-68.7"/>
</a>
</g>
</g>
<!-- Node34&#45;&gt;Node22 -->
<g id="edge63_Node000034_Node000022" class="edge">
<title>Node34&#45;&gt;Node22</title>
<g id="a_edge63_Node000034_Node000022"><a xlink:title=" ">
<path fill="none" stroke="#63b8ff" d="M1669.52,-219.7C1666.34,-206.88 1659.25,-182.66 1647.5,-165 1640.16,-153.97 1629.61,-143.66 1620.37,-135.75"/>
<polygon fill="#63b8ff" stroke="#63b8ff" points="1622.33,-132.83 1612.37,-129.2 1617.89,-138.25 1622.33,-132.83"/>
</a>
</g>
</g>
<!-- Node34&#45;&gt;Node31 -->
<g id="edge64_Node000034_Node000031" class="edge">
<title>Node34&#45;&gt;Node31</title>
<g id="a_edge64_Node000034_Node000031"><a xlink:title=" ">
<path fill="none" stroke="#63b8ff" d="M1649.81,-219.98C1627.7,-211.3 1593.18,-197.75 1568.05,-187.88"/>
<polygon fill="#63b8ff" stroke="#63b8ff" points="1569.17,-184.57 1558.58,-184.17 1566.61,-191.08 1569.17,-184.57"/>
</a>
</g>
</g>
<!-- Node34&#45;&gt;Node32 -->
<g id="edge65_Node000034_Node000032" class="edge">
<title>Node34&#45;&gt;Node32</title>
<g id="a_edge65_Node000034_Node000032"><a xlink:title=" ">
<path fill="none" stroke="#63b8ff" d="M1689.01,-219.98C1706.47,-211.5 1733.51,-198.35 1753.67,-188.54"/>
<polygon fill="#63b8ff" stroke="#63b8ff" points="1755.21,-191.69 1762.67,-184.17 1752.14,-185.4 1755.21,-191.69"/>
</a>
</g>
</g>
</g>
</svg>

<g id="navigator" transform="translate(0 0)" fill="#404254">
  <rect fill="#f2f5e9" fill-opacity="0.5" stroke="#606060" stroke-width=".5" x="0" y="0" width="60" height="60"/>
  <use id="zoomplus" xlink:href="#zoomPlus" x="17" y="9" onmousedown="handleZoom(evt,'in')"/>
  <use id="zoomminus" xlink:href="#zoomMin" x="42" y="9" onmousedown="handleZoom(evt,'out')"/>
  <use id="reset" xlink:href="#resetDef" x="30" y="36" onmousedown="handleReset()"/>
   <use id="arrowup" xlink:href="#arrowUp" x="0" y="0" onmousedown="handlePan(0,-1)"/>
  <use id="arrowright" xlink:href="#arrowRight" x="0" y="0" onmousedown="handlePan(1,0)"/>
  <use id="arrowdown" xlink:href="#arrowDown" x="0" y="0" onmousedown="handlePan(0,1)"/>
  <use id="arrowleft" xlink:href="#arrowLeft" x="0" y="0" onmousedown="handlePan(-1,0)"/>
</g>
<svg viewBox="0 0 15 15" width="100%" height="30px" preserveAspectRatio="xMaxYMin meet">
 <g id="arrow_out" transform="scale(0.3 0.3)">
  <a xlink:href="vpiece__p_8h__incl_org.svg" target="_base">
   <rect id="button" ry="5" rx="5" y="6" x="6" height="38" width="38"
        fill="#f2f5e9" fill-opacity="0.5" stroke="#606060" stroke-width="1.0"/>
   <path id="arrow"
     d="M 11.500037,31.436501 C 11.940474,20.09759 22.043105,11.32322 32.158766,21.979434 L 37.068811,17.246167 C 37.068811,17.246167 37.088388,32 37.088388,32 L 22.160133,31.978069 C 22.160133,31.978069 26.997745,27.140456 26.997745,27.140456 C 18.528582,18.264221 13.291696,25.230495 11.500037,31.436501 z"
     style="fill:#404040;"/>
  </a>
 </g>
</svg>

<style type='text/css'>
<![CDATA[
[data-mouse-over-selected='false'] { opacity: 0.7; }
[data-mouse-over-selected='true']  { opacity: 1.0; }
]]>
</style>
<script type="application/ecmascript"><![CDATA[
document.addEventListener('DOMContentLoaded', (event) => {
  highlightEdges();
  highlightAdjacentNodes();
});
]]></script>
</svg>
