<?xml version="1.0" encoding="UTF-8" standalone="no"?>
<!DOCTYPE svg PUBLIC "-//W3C//DTD SVG 1.1//EN"
 "http://www.w3.org/Graphics/SVG/1.1/DTD/svg11.dtd">
<!-- Generated by graphviz version 2.43.0 (0)
 -->
<!-- Title: src/libs/vmisc/vtablesearch.cpp Pages: 1 -->
<!--zoomable 192 -->

<svg id="main" version="1.1" xmlns="http://www.w3.org/2000/svg" xmlns:xlink="http://www.w3.org/1999/xlink" xml:space="preserve" onload="init(evt)">
<style type="text/css"><![CDATA[
.node, .edge {opacity: 0.7;}
.node.selected, .edge.selected {opacity: 1;}
.edge:hover path { stroke: red; }
.edge:hover polygon { stroke: red; fill: red; }
]]></style>

<defs>
  <circle id="rim" cx="0" cy="0" r="7"/>
  <circle id="rim2" cx="0" cy="0" r="3.5"/>
  <g id="zoomPlus">
    <use xlink:href="#rim" fill="#404040"><set attributeName="fill" to="#808080" begin="zoomplus.mouseover" end="zoomplus.mouseout"/></use>
    <path d="M-4,0h8M0,-4v8" fill="none" stroke="white" stroke-width="1.5" pointer-events="none"/>
  </g>
  <g id="zoomMin">
    <use xlink:href="#rim" fill="#404040"><set attributeName="fill" to="#808080" begin="zoomminus.mouseover" end="zoomminus.mouseout"/></use>
    <path d="M-4,0h8" fill="none" stroke="white" stroke-width="1.5" pointer-events="none"/>
  </g>
  <g id="arrowUp" transform="translate(30 24)">
    <use xlink:href="#rim"/>
    <path pointer-events="none" fill="none" stroke="white" stroke-width="1.5" d="M0,-3.0v7 M-2.5,-0.5L0,-3.0L2.5,-0.5"/>
  </g>
  <g id="arrowRight" transform="rotate(90) translate(36 -43)">
    <use xlink:href="#rim"/>
    <path pointer-events="none" fill="none" stroke="white" stroke-width="1.5" d="M0,-3.0v7 M-2.5,-0.5L0,-3.0L2.5,-0.5"/>
  </g>
  <g id="arrowDown" transform="rotate(180) translate(-30 -48)">
    <use xlink:href="#rim"/>
    <path pointer-events="none" fill="none" stroke="white" stroke-width="1.5" d="M0,-3.0v7 M-2.5,-0.5L0,-3.0L2.5,-0.5"/>
  </g>
  <g id="arrowLeft" transform="rotate(270) translate(-36 17)">
    <use xlink:href="#rim"/>
    <path pointer-events="none" fill="none" stroke="white" stroke-width="1.5" d="M0,-3.0v7 M-2.5,-0.5L0,-3.0L2.5,-0.5"/>
  </g>
  <g id="resetDef">
    <use xlink:href="#rim2" fill="#404040"><set attributeName="fill" to="#808080" begin="reset.mouseover" end="reset.mouseout"/></use>
  </g>
</defs>
<script type="application/ecmascript">
var viewWidth = 1053;
var viewHeight = 192;
var sectionId = 'dynsection-0';
</script>
<script type="application/ecmascript" xlink:href="../../svg.min.js"/>
<svg id="graph" class="graph">
<g id="viewport">
<title>src/libs/vmisc/vtablesearch.cpp</title>
<!-- Node1 -->
<g id="Node000001" class="node">
<title>Node1</title>
<g id="a_Node000001"><a xlink:title=" ">
<polygon fill="#999999" stroke="#666666" points="518,-184 348,-184 348,-165 518,-165 518,-184"/>
<text text-anchor="middle" x="433" y="-172" font-family="Helvetica,sans-Serif" font-size="10.00">src/libs/vmisc/vtablesearch.cpp</text>
</a>
</g>
</g>
<!-- Node2 -->
<g id="Node000002" class="node">
<title>Node2</title>
<g id="a_Node000002"><a xlink:href="../../db/dcf/vtablesearch_8h.html" target="_top" xlink:title=" ">
<polygon fill="white" stroke="#666666" points="272.5,-129 183.5,-129 183.5,-110 272.5,-110 272.5,-129"/>
<text text-anchor="middle" x="228" y="-117" font-family="Helvetica,sans-Serif" font-size="10.00">vtablesearch.h</text>
</a>
</g>
</g>
<!-- Node1&#45;&gt;Node2 -->
<g id="edge1_Node000001_Node000002" class="edge">
<title>Node1&#45;&gt;Node2</title>
<g id="a_edge1_Node000001_Node000002"><a xlink:title=" ">
<path fill="none" stroke="#63b8ff" d="M400.06,-164.98C365.05,-155.93 309.53,-141.58 271.07,-131.64"/>
<polygon fill="#63b8ff" stroke="#63b8ff" points="271.75,-128.2 261.19,-129.08 270,-134.97 271.75,-128.2"/>
</a>
</g>
</g>
<!-- Node6 -->
<g id="Node000006" class="node">
<title>Node6</title>
<g id="a_Node000006"><a xlink:title=" ">
<polygon fill="#e0e0e0" stroke="#999999" points="84,-74 0,-74 0,-55 84,-55 84,-74"/>
<text text-anchor="middle" x="42" y="-62" font-family="Helvetica,sans-Serif" font-size="10.00">QTableWidget</text>
</a>
</g>
</g>
<!-- Node1&#45;&gt;Node6 -->
<g id="edge8_Node000001_Node000006" class="edge">
<title>Node1&#45;&gt;Node6</title>
<g id="a_edge8_Node000001_Node000006"><a xlink:title=" ">
<path fill="none" stroke="#63b8ff" d="M348.18,-164.97C296.91,-158.33 230.71,-147.12 174,-129 134.26,-116.3 91.25,-93.8 65.48,-79.28"/>
<polygon fill="#63b8ff" stroke="#63b8ff" points="66.91,-76.06 56.49,-74.14 63.43,-82.14 66.91,-76.06"/>
</a>
</g>
</g>
<!-- Node8 -->
<g id="Node000008" class="node">
<title>Node8</title>
<g id="a_Node000008"><a xlink:title=" ">
<polygon fill="#e0e0e0" stroke="#999999" points="585,-129 527,-129 527,-110 585,-110 585,-129"/>
<text text-anchor="middle" x="556" y="-117" font-family="Helvetica,sans-Serif" font-size="10.00">QPalette</text>
</a>
</g>
</g>
<!-- Node1&#45;&gt;Node8 -->
<g id="edge7_Node000001_Node000008" class="edge">
<title>Node1&#45;&gt;Node8</title>
<g id="a_edge7_Node000001_Node000008"><a xlink:title=" ">
<path fill="none" stroke="#63b8ff" d="M452.76,-164.98C472.73,-156.38 503.8,-142.99 526.65,-133.15"/>
<polygon fill="#63b8ff" stroke="#63b8ff" points="528.08,-136.34 535.88,-129.17 525.31,-129.91 528.08,-136.34"/>
</a>
</g>
</g>
<!-- Node9 -->
<g id="Node000009" class="node">
<title>Node9</title>
<g id="a_Node000009"><a xlink:title=" ">
<polygon fill="#e0e0e0" stroke="#999999" points="710.5,-129 603.5,-129 603.5,-110 710.5,-110 710.5,-129"/>
<text text-anchor="middle" x="657" y="-117" font-family="Helvetica,sans-Serif" font-size="10.00">QTableWidgetItem</text>
</a>
</g>
</g>
<!-- Node1&#45;&gt;Node9 -->
<g id="edge9_Node000001_Node000009" class="edge">
<title>Node1&#45;&gt;Node9</title>
<g id="a_edge9_Node000001_Node000009"><a xlink:title=" ">
<path fill="none" stroke="#63b8ff" d="M468.99,-164.98C507.49,-155.87 568.69,-141.4 610.74,-131.45"/>
<polygon fill="#63b8ff" stroke="#63b8ff" points="611.8,-134.79 620.73,-129.08 610.19,-127.98 611.8,-134.79"/>
</a>
</g>
</g>
<!-- Node10 -->
<g id="Node000010" class="node">
<title>Node10</title>
<g id="a_Node000010"><a xlink:title=" ">
<polygon fill="#e0e0e0" stroke="#999999" points="413.5,-74 384.5,-74 384.5,-55 413.5,-55 413.5,-74"/>
<text text-anchor="middle" x="399" y="-62" font-family="Helvetica,sans-Serif" font-size="10.00">Qt</text>
</a>
</g>
</g>
<!-- Node1&#45;&gt;Node10 -->
<g id="edge10_Node000001_Node000010" class="edge">
<title>Node1&#45;&gt;Node10</title>
<g id="a_edge10_Node000001_Node000010"><a xlink:title=" ">
<path fill="none" stroke="#63b8ff" d="M430.04,-165C426.95,-156.06 422,-141.59 418,-129 413.2,-113.9 408.07,-96.68 404.35,-83.98"/>
<polygon fill="#63b8ff" stroke="#63b8ff" points="407.64,-82.78 401.49,-74.16 400.92,-84.74 407.64,-82.78"/>
</a>
</g>
</g>
<!-- Node11 -->
<g id="Node000011" class="node">
<title>Node11</title>
<g id="a_Node000011"><a xlink:href="../../d4/da4/def_8h.html" target="_top" xlink:title=" ">
<polygon fill="white" stroke="#666666" points="509,-129 427,-129 427,-110 509,-110 509,-129"/>
<text text-anchor="middle" x="468" y="-117" font-family="Helvetica,sans-Serif" font-size="10.00">../vmisc/def.h</text>
</a>
</g>
</g>
<!-- Node1&#45;&gt;Node11 -->
<g id="edge11_Node000001_Node000011" class="edge">
<title>Node1&#45;&gt;Node11</title>
<g id="a_edge11_Node000001_Node000011"><a xlink:title=" ">
<path fill="none" stroke="#63b8ff" d="M438.78,-164.75C443.62,-157.42 450.68,-146.73 456.64,-137.7"/>
<polygon fill="#63b8ff" stroke="#63b8ff" points="459.74,-139.36 462.33,-129.09 453.9,-135.5 459.74,-139.36"/>
</a>
</g>
</g>
<!-- Node3 -->
<g id="Node000003" class="node">
<title>Node3</title>
<g id="a_Node000003"><a xlink:title=" ">
<polygon fill="#e0e0e0" stroke="#999999" points="218,-74 162,-74 162,-55 218,-55 218,-74"/>
<text text-anchor="middle" x="190" y="-62" font-family="Helvetica,sans-Serif" font-size="10.00">QObject</text>
</a>
</g>
</g>
<!-- Node2&#45;&gt;Node3 -->
<g id="edge2_Node000002_Node000003" class="edge">
<title>Node2&#45;&gt;Node3</title>
<g id="a_edge2_Node000002_Node000003"><a xlink:title=" ">
<path fill="none" stroke="#63b8ff" d="M221.73,-109.75C216.41,-102.34 208.64,-91.5 202.12,-82.41"/>
<polygon fill="#63b8ff" stroke="#63b8ff" points="204.83,-80.18 196.16,-74.09 199.14,-84.26 204.83,-80.18"/>
</a>
</g>
</g>
<!-- Node4 -->
<g id="Node000004" class="node">
<title>Node4</title>
<g id="a_Node000004"><a xlink:title=" ">
<polygon fill="#e0e0e0" stroke="#999999" points="143.5,-74 102.5,-74 102.5,-55 143.5,-55 143.5,-74"/>
<text text-anchor="middle" x="123" y="-62" font-family="Helvetica,sans-Serif" font-size="10.00">QList</text>
</a>
</g>
</g>
<!-- Node2&#45;&gt;Node4 -->
<g id="edge3_Node000002_Node000004" class="edge">
<title>Node2&#45;&gt;Node4</title>
<g id="a_edge3_Node000002_Node000004"><a xlink:title=" ">
<path fill="none" stroke="#63b8ff" d="M211.13,-109.98C194.39,-101.54 168.5,-88.47 149.11,-78.68"/>
<polygon fill="#63b8ff" stroke="#63b8ff" points="150.68,-75.55 140.18,-74.17 147.53,-81.8 150.68,-75.55"/>
</a>
</g>
</g>
<!-- Node5 -->
<g id="Node000005" class="node">
<title>Node5</title>
<g id="a_Node000005"><a xlink:title=" ">
<polygon fill="#e0e0e0" stroke="#999999" points="366.5,-74 313.5,-74 313.5,-55 366.5,-55 366.5,-74"/>
<text text-anchor="middle" x="340" y="-62" font-family="Helvetica,sans-Serif" font-size="10.00">QString</text>
</a>
</g>
</g>
<!-- Node2&#45;&gt;Node5 -->
<g id="edge4_Node000002_Node000005" class="edge">
<title>Node2&#45;&gt;Node5</title>
<g id="a_edge4_Node000002_Node000005"><a xlink:title=" ">
<path fill="none" stroke="#63b8ff" d="M245.99,-109.98C263.93,-101.5 291.72,-88.35 312.43,-78.54"/>
<polygon fill="#63b8ff" stroke="#63b8ff" points="314.14,-81.61 321.68,-74.17 311.14,-75.28 314.14,-81.61"/>
</a>
</g>
</g>
<!-- Node2&#45;&gt;Node6 -->
<g id="edge5_Node000002_Node000006" class="edge">
<title>Node2&#45;&gt;Node6</title>
<g id="a_edge5_Node000002_Node000006"><a xlink:title=" ">
<path fill="none" stroke="#63b8ff" d="M198.12,-109.98C166.62,-101.01 116.83,-86.82 81.97,-76.89"/>
<polygon fill="#63b8ff" stroke="#63b8ff" points="82.69,-73.46 72.12,-74.08 80.78,-80.19 82.69,-73.46"/>
</a>
</g>
</g>
<!-- Node7 -->
<g id="Node000007" class="node">
<title>Node7</title>
<g id="a_Node000007"><a xlink:title=" ">
<polygon fill="#e0e0e0" stroke="#999999" points="295.5,-74 236.5,-74 236.5,-55 295.5,-55 295.5,-74"/>
<text text-anchor="middle" x="266" y="-62" font-family="Helvetica,sans-Serif" font-size="10.00">QtGlobal</text>
</a>
</g>
</g>
<!-- Node2&#45;&gt;Node7 -->
<g id="edge6_Node000002_Node000007" class="edge">
<title>Node2&#45;&gt;Node7</title>
<g id="a_edge6_Node000002_Node000007"><a xlink:title=" ">
<path fill="none" stroke="#63b8ff" d="M234.27,-109.75C239.59,-102.34 247.36,-91.5 253.88,-82.41"/>
<polygon fill="#63b8ff" stroke="#63b8ff" points="256.86,-84.26 259.84,-74.09 251.17,-80.18 256.86,-84.26"/>
</a>
</g>
</g>
<!-- Node11&#45;&gt;Node5 -->
<g id="edge15_Node000011_Node000005" class="edge">
<title>Node11&#45;&gt;Node5</title>
<g id="a_edge15_Node000011_Node000005"><a xlink:title=" ">
<path fill="none" stroke="#63b8ff" d="M447.43,-109.98C426.57,-101.34 394.03,-87.87 370.23,-78.02"/>
<polygon fill="#63b8ff" stroke="#63b8ff" points="371.52,-74.76 360.94,-74.17 368.84,-81.23 371.52,-74.76"/>
</a>
</g>
</g>
<!-- Node11&#45;&gt;Node7 -->
<g id="edge18_Node000011_Node000007" class="edge">
<title>Node11&#45;&gt;Node7</title>
<g id="a_edge18_Node000011_Node000007"><a xlink:title=" ">
<path fill="none" stroke="#63b8ff" d="M435.55,-109.98C400.12,-100.69 343.4,-85.81 305.44,-75.85"/>
<polygon fill="#63b8ff" stroke="#63b8ff" points="306.3,-72.46 295.74,-73.3 304.53,-79.23 306.3,-72.46"/>
</a>
</g>
</g>
<!-- Node11&#45;&gt;Node10 -->
<g id="edge17_Node000011_Node000010" class="edge">
<title>Node11&#45;&gt;Node10</title>
<g id="a_edge17_Node000011_Node000010"><a xlink:title=" ">
<path fill="none" stroke="#63b8ff" d="M456.91,-109.98C446.51,-102 430.74,-89.88 418.28,-80.31"/>
<polygon fill="#63b8ff" stroke="#63b8ff" points="420.35,-77.49 410.29,-74.17 416.09,-83.04 420.35,-77.49"/>
</a>
</g>
</g>
<!-- Node12 -->
<g id="Node000012" class="node">
<title>Node12</title>
<g id="a_Node000012"><a xlink:title=" ">
<polygon fill="#e0e0e0" stroke="#999999" points="797,-74 677,-74 677,-55 797,-55 797,-74"/>
<text text-anchor="middle" x="737" y="-62" font-family="Helvetica,sans-Serif" font-size="10.00">qcompilerdetection.h</text>
</a>
</g>
</g>
<!-- Node11&#45;&gt;Node12 -->
<g id="edge12_Node000011_Node000012" class="edge">
<title>Node11&#45;&gt;Node12</title>
<g id="a_edge12_Node000011_Node000012"><a xlink:title=" ">
<path fill="none" stroke="#63b8ff" d="M509.15,-110.39C555.92,-101.18 632.42,-86.1 683.72,-76"/>
<polygon fill="#63b8ff" stroke="#63b8ff" points="684.49,-79.41 693.63,-74.05 683.14,-72.54 684.49,-79.41"/>
</a>
</g>
</g>
<!-- Node13 -->
<g id="Node000013" class="node">
<title>Node13</title>
<g id="a_Node000013"><a xlink:title=" ">
<polygon fill="#e0e0e0" stroke="#999999" points="888.5,-74 815.5,-74 815.5,-55 888.5,-55 888.5,-74"/>
<text text-anchor="middle" x="852" y="-62" font-family="Helvetica,sans-Serif" font-size="10.00">QFileDialog</text>
</a>
</g>
</g>
<!-- Node11&#45;&gt;Node13 -->
<g id="edge13_Node000011_Node000013" class="edge">
<title>Node11&#45;&gt;Node13</title>
<g id="a_edge13_Node000011_Node000013"><a xlink:title=" ">
<path fill="none" stroke="#63b8ff" d="M509.18,-111.35C512.16,-110.88 515.13,-110.42 518,-110 642.38,-91.66 676.79,-93.61 805.15,-74.04"/>
<polygon fill="#63b8ff" stroke="#63b8ff" points="806.02,-77.45 815.37,-72.47 804.96,-70.53 806.02,-77.45"/>
</a>
</g>
</g>
<!-- Node14 -->
<g id="Node000014" class="node">
<title>Node14</title>
<g id="a_Node000014"><a xlink:title=" ">
<polygon fill="#e0e0e0" stroke="#999999" points="957,-74 907,-74 907,-55 957,-55 957,-74"/>
<text text-anchor="middle" x="932" y="-62" font-family="Helvetica,sans-Serif" font-size="10.00">QLineF</text>
</a>
</g>
</g>
<!-- Node11&#45;&gt;Node14 -->
<g id="edge14_Node000011_Node000014" class="edge">
<title>Node11&#45;&gt;Node14</title>
<g id="a_edge14_Node000011_Node000014"><a xlink:title=" ">
<path fill="none" stroke="#63b8ff" d="M509.16,-111.25C512.15,-110.8 515.12,-110.38 518,-110 682.98,-88.19 729.05,-102.1 896.92,-73.93"/>
<polygon fill="#63b8ff" stroke="#63b8ff" points="897.57,-77.37 906.84,-72.24 896.39,-70.47 897.57,-77.37"/>
</a>
</g>
</g>
<!-- Node15 -->
<g id="Node000015" class="node">
<title>Node15</title>
<g id="a_Node000015"><a xlink:title=" ">
<polygon fill="#e0e0e0" stroke="#999999" points="1045,-74 975,-74 975,-55 1045,-55 1045,-74"/>
<text text-anchor="middle" x="1010" y="-62" font-family="Helvetica,sans-Serif" font-size="10.00">QStringList</text>
</a>
</g>
</g>
<!-- Node11&#45;&gt;Node15 -->
<g id="edge16_Node000011_Node000015" class="edge">
<title>Node11&#45;&gt;Node15</title>
<g id="a_edge16_Node000011_Node000015"><a xlink:title=" ">
<path fill="none" stroke="#63b8ff" d="M509.16,-111.21C512.15,-110.77 515.12,-110.36 518,-110 712.92,-85.65 766.32,-100.47 964.81,-74"/>
<polygon fill="#63b8ff" stroke="#63b8ff" points="965.55,-77.43 974.99,-72.62 964.61,-70.5 965.55,-77.43"/>
</a>
</g>
</g>
<!-- Node16 -->
<g id="Node000016" class="node">
<title>Node16</title>
<g id="a_Node000016"><a xlink:title=" ">
<polygon fill="#e0e0e0" stroke="#999999" points="488,-74 432,-74 432,-55 488,-55 488,-74"/>
<text text-anchor="middle" x="460" y="-62" font-family="Helvetica,sans-Serif" font-size="10.00">QPrinter</text>
</a>
</g>
</g>
<!-- Node11&#45;&gt;Node16 -->
<g id="edge19_Node000011_Node000016" class="edge">
<title>Node11&#45;&gt;Node16</title>
<g id="a_edge19_Node000011_Node000016"><a xlink:title=" ">
<path fill="none" stroke="#63b8ff" d="M466.68,-109.75C465.63,-102.8 464.13,-92.85 462.81,-84.13"/>
<polygon fill="#63b8ff" stroke="#63b8ff" points="466.25,-83.45 461.3,-74.09 459.33,-84.5 466.25,-83.45"/>
</a>
</g>
</g>
<!-- Node17 -->
<g id="Node000017" class="node">
<title>Node17</title>
<g id="a_Node000017"><a xlink:title=" ">
<polygon fill="#e0e0e0" stroke="#999999" points="557.5,-74 506.5,-74 506.5,-55 557.5,-55 557.5,-74"/>
<text text-anchor="middle" x="532" y="-62" font-family="Helvetica,sans-Serif" font-size="10.00">csignal</text>
</a>
</g>
</g>
<!-- Node11&#45;&gt;Node17 -->
<g id="edge20_Node000011_Node000017" class="edge">
<title>Node11&#45;&gt;Node17</title>
<g id="a_edge20_Node000011_Node000017"><a xlink:title=" ">
<path fill="none" stroke="#63b8ff" d="M478.28,-109.98C487.84,-102.07 502.28,-90.11 513.78,-80.58"/>
<polygon fill="#63b8ff" stroke="#63b8ff" points="516.06,-83.24 521.53,-74.17 511.6,-77.85 516.06,-83.24"/>
</a>
</g>
</g>
<!-- Node18 -->
<g id="Node000018" class="node">
<title>Node18</title>
<g id="a_Node000018"><a xlink:href="../../d4/d82/debugbreak_8h.html" target="_top" xlink:title=" ">
<polygon fill="white" stroke="#666666" points="658.5,-74 575.5,-74 575.5,-55 658.5,-55 658.5,-74"/>
<text text-anchor="middle" x="617" y="-62" font-family="Helvetica,sans-Serif" font-size="10.00">debugbreak.h</text>
</a>
</g>
</g>
<!-- Node11&#45;&gt;Node18 -->
<g id="edge21_Node000011_Node000018" class="edge">
<title>Node11&#45;&gt;Node18</title>
<g id="a_edge21_Node000011_Node000018"><a xlink:title=" ">
<path fill="none" stroke="#63b8ff" d="M491.94,-109.98C516.56,-101.23 555.12,-87.51 582.92,-77.62"/>
<polygon fill="#63b8ff" stroke="#63b8ff" points="584.38,-80.82 592.62,-74.17 582.03,-74.22 584.38,-80.82"/>
</a>
</g>
</g>
<!-- Node19 -->
<g id="Node000019" class="node">
<title>Node19</title>
<g id="a_Node000019"><a xlink:title=" ">
<polygon fill="#e0e0e0" stroke="#999999" points="644.5,-19 589.5,-19 589.5,0 644.5,0 644.5,-19"/>
<text text-anchor="middle" x="617" y="-7" font-family="Helvetica,sans-Serif" font-size="10.00">signal.h</text>
</a>
</g>
</g>
<!-- Node18&#45;&gt;Node19 -->
<g id="edge22_Node000018_Node000019" class="edge">
<title>Node18&#45;&gt;Node19</title>
<g id="a_edge22_Node000018_Node000019"><a xlink:title=" ">
<path fill="none" stroke="#63b8ff" d="M617,-54.75C617,-47.8 617,-37.85 617,-29.13"/>
<polygon fill="#63b8ff" stroke="#63b8ff" points="620.5,-29.09 617,-19.09 613.5,-29.09 620.5,-29.09"/>
</a>
</g>
</g>
</g>
</svg>

<g id="navigator" transform="translate(0 0)" fill="#404254">
  <rect fill="#f2f5e9" fill-opacity="0.5" stroke="#606060" stroke-width=".5" x="0" y="0" width="60" height="60"/>
  <use id="zoomplus" xlink:href="#zoomPlus" x="17" y="9" onmousedown="handleZoom(evt,'in')"/>
  <use id="zoomminus" xlink:href="#zoomMin" x="42" y="9" onmousedown="handleZoom(evt,'out')"/>
  <use id="reset" xlink:href="#resetDef" x="30" y="36" onmousedown="handleReset()"/>
   <use id="arrowup" xlink:href="#arrowUp" x="0" y="0" onmousedown="handlePan(0,-1)"/>
  <use id="arrowright" xlink:href="#arrowRight" x="0" y="0" onmousedown="handlePan(1,0)"/>
  <use id="arrowdown" xlink:href="#arrowDown" x="0" y="0" onmousedown="handlePan(0,1)"/>
  <use id="arrowleft" xlink:href="#arrowLeft" x="0" y="0" onmousedown="handlePan(-1,0)"/>
</g>
<svg viewBox="0 0 15 15" width="100%" height="30px" preserveAspectRatio="xMaxYMin meet">
 <g id="arrow_out" transform="scale(0.3 0.3)">
  <a xlink:href="vtablesearch_8cpp__incl_org.svg" target="_base">
   <rect id="button" ry="5" rx="5" y="6" x="6" height="38" width="38"
        fill="#f2f5e9" fill-opacity="0.5" stroke="#606060" stroke-width="1.0"/>
   <path id="arrow"
     d="M 11.500037,31.436501 C 11.940474,20.09759 22.043105,11.32322 32.158766,21.979434 L 37.068811,17.246167 C 37.068811,17.246167 37.088388,32 37.088388,32 L 22.160133,31.978069 C 22.160133,31.978069 26.997745,27.140456 26.997745,27.140456 C 18.528582,18.264221 13.291696,25.230495 11.500037,31.436501 z"
     style="fill:#404040;"/>
  </a>
 </g>
</svg>

<style type='text/css'>
<![CDATA[
[data-mouse-over-selected='false'] { opacity: 0.7; }
[data-mouse-over-selected='true']  { opacity: 1.0; }
]]>
</style>
<script type="application/ecmascript"><![CDATA[
document.addEventListener('DOMContentLoaded', (event) => {
  highlightEdges();
  highlightAdjacentNodes();
});
]]></script>
</svg>
