<?xml version="1.0" encoding="UTF-8" standalone="no"?>
<!DOCTYPE svg PUBLIC "-//W3C//DTD SVG 1.1//EN"
 "http://www.w3.org/Graphics/SVG/1.1/DTD/svg11.dtd">
<!-- Generated by graphviz version 2.43.0 (0)
 -->
<!-- Title: src/libs/vpatterndb/variables/measurement_variable.h Pages: 1 -->
<svg width="5799pt" height="407pt"
 viewBox="0.00 0.00 5799.00 407.00" xmlns="http://www.w3.org/2000/svg" xmlns:xlink="http://www.w3.org/1999/xlink">
<g id="graph0" class="graph" transform="scale(1 1) rotate(0) translate(4 403)">
<title>src/libs/vpatterndb/variables/measurement_variable.h</title>
<polygon fill="white" stroke="transparent" points="-4,4 -4,-403 5795,-403 5795,4 -4,4"/>
<!-- Node1 -->
<g id="node1" class="node">
<title>Node1</title>
<g id="a_node1"><a xlink:title=" ">
<polygon fill="#bfbfbf" stroke="black" points="3703,-357.5 3703,-398.5 3839,-398.5 3839,-357.5 3703,-357.5"/>
<text text-anchor="start" x="3711" y="-386.5" font-family="Helvetica,sans-Serif" font-size="10.00">src/libs/vpatterndb</text>
<text text-anchor="start" x="3711" y="-375.5" font-family="Helvetica,sans-Serif" font-size="10.00">/variables/measurement</text>
<text text-anchor="middle" x="3771" y="-364.5" font-family="Helvetica,sans-Serif" font-size="10.00">_variable.h</text>
</a>
</g>
</g>
<!-- Node2 -->
<g id="node2" class="node">
<title>Node2</title>
<g id="a_node2"><a xlink:href="../../d9/de3/measurements_8cpp.html" target="_top" xlink:title=" ">
<polygon fill="white" stroke="black" points="0,-78.5 0,-97.5 190,-97.5 190,-78.5 0,-78.5"/>
<text text-anchor="middle" x="95" y="-85.5" font-family="Helvetica,sans-Serif" font-size="10.00">src/libs/vformat/measurements.cpp</text>
</a>
</g>
</g>
<!-- Node1&#45;&gt;Node2 -->
<g id="edge1" class="edge">
<title>Node1&#45;&gt;Node2</title>
<path fill="none" stroke="midnightblue" d="M3692.67,-373.89C3496.38,-366 2967.63,-344.18 2527,-321 1537.69,-268.95 1261.6,-433.21 302,-187 224.2,-167.04 140.3,-117.56 108.36,-97.58"/>
<polygon fill="midnightblue" stroke="midnightblue" points="3692.75,-377.39 3702.88,-374.3 3693.03,-370.4 3692.75,-377.39"/>
</g>
<!-- Node3 -->
<g id="node3" class="node">
<title>Node3</title>
<g id="a_node3"><a xlink:href="../../d4/da4/measurement__variable_8cpp.html" target="_top" xlink:title=" ">
<polygon fill="white" stroke="black" points="5655,-67.5 5655,-108.5 5791,-108.5 5791,-67.5 5655,-67.5"/>
<text text-anchor="start" x="5663" y="-96.5" font-family="Helvetica,sans-Serif" font-size="10.00">src/libs/vpatterndb</text>
<text text-anchor="start" x="5663" y="-85.5" font-family="Helvetica,sans-Serif" font-size="10.00">/variables/measurement</text>
<text text-anchor="middle" x="5723" y="-74.5" font-family="Helvetica,sans-Serif" font-size="10.00">_variable.cpp</text>
</a>
</g>
</g>
<!-- Node1&#45;&gt;Node3 -->
<g id="edge2" class="edge">
<title>Node1&#45;&gt;Node3</title>
<path fill="none" stroke="midnightblue" d="M3849.47,-371.56C3970.14,-362.87 4208.47,-344.43 4410,-321 4789.45,-276.89 4883.53,-257.33 5259,-187 5431.46,-154.7 5475.02,-148.4 5646,-109 5648.83,-108.35 5651.71,-107.67 5654.61,-106.97"/>
<polygon fill="midnightblue" stroke="midnightblue" points="3848.94,-368.09 3839.22,-372.3 3849.44,-375.07 3848.94,-368.09"/>
</g>
<!-- Node4 -->
<g id="node4" class="node">
<title>Node4</title>
<g id="a_node4"><a xlink:href="../../de/dca/variables_8h.html" target="_top" xlink:title=" ">
<polygon fill="white" stroke="black" points="2535.5,-290.5 2535.5,-320.5 2642.5,-320.5 2642.5,-290.5 2535.5,-290.5"/>
<text text-anchor="start" x="2543.5" y="-308.5" font-family="Helvetica,sans-Serif" font-size="10.00">src/libs/vpatterndb</text>
<text text-anchor="middle" x="2589" y="-297.5" font-family="Helvetica,sans-Serif" font-size="10.00">/variables.h</text>
</a>
</g>
</g>
<!-- Node1&#45;&gt;Node4 -->
<g id="edge3" class="edge">
<title>Node1&#45;&gt;Node4</title>
<path fill="none" stroke="midnightblue" d="M3692.77,-372.33C3469.35,-359.01 2832.33,-321.01 2642.82,-309.71"/>
<polygon fill="midnightblue" stroke="midnightblue" points="3692.58,-375.83 3702.77,-372.93 3693,-368.84 3692.58,-375.83"/>
</g>
<!-- Node40 -->
<g id="node35" class="node">
<title>Node40</title>
<g id="a_node35"><a xlink:href="../../d6/d46/vcontainer_8cpp.html" target="_top" xlink:title=" ">
<polygon fill="white" stroke="black" points="5529.5,-73 5529.5,-103 5636.5,-103 5636.5,-73 5529.5,-73"/>
<text text-anchor="start" x="5537.5" y="-91" font-family="Helvetica,sans-Serif" font-size="10.00">src/libs/vpatterndb</text>
<text text-anchor="middle" x="5583" y="-80" font-family="Helvetica,sans-Serif" font-size="10.00">/vcontainer.cpp</text>
</a>
</g>
</g>
<!-- Node1&#45;&gt;Node40 -->
<g id="edge62" class="edge">
<title>Node1&#45;&gt;Node40</title>
<path fill="none" stroke="midnightblue" d="M3849.3,-369.53C4096.96,-344.94 4884.46,-259.39 5521,-109 5528.04,-107.34 5535.44,-105.25 5542.58,-103.07"/>
<polygon fill="midnightblue" stroke="midnightblue" points="3848.92,-366.05 3839.32,-370.52 3849.61,-373.01 3848.92,-366.05"/>
</g>
<!-- Node5 -->
<g id="node5" class="node">
<title>Node5</title>
<g id="a_node5"><a xlink:href="../../d3/df7/vcontainer_8h.html" target="_top" xlink:title=" ">
<polygon fill="white" stroke="black" points="1514.5,-223.5 1514.5,-253.5 1621.5,-253.5 1621.5,-223.5 1514.5,-223.5"/>
<text text-anchor="start" x="1522.5" y="-241.5" font-family="Helvetica,sans-Serif" font-size="10.00">src/libs/vpatterndb</text>
<text text-anchor="middle" x="1568" y="-230.5" font-family="Helvetica,sans-Serif" font-size="10.00">/vcontainer.h</text>
</a>
</g>
</g>
<!-- Node4&#45;&gt;Node5 -->
<g id="edge4" class="edge">
<title>Node4&#45;&gt;Node5</title>
<path fill="none" stroke="midnightblue" d="M2524.97,-300.42C2337.98,-288.52 1795.03,-253.95 1621.79,-242.92"/>
<polygon fill="midnightblue" stroke="midnightblue" points="2524.98,-303.93 2535.19,-301.07 2525.43,-296.95 2524.98,-303.93"/>
</g>
<!-- Node5&#45;&gt;Node2 -->
<g id="edge7" class="edge">
<title>Node5&#45;&gt;Node2</title>
<path fill="none" stroke="midnightblue" d="M1504.16,-235.98C1306.35,-231.03 705.3,-214.1 512,-187 363.42,-166.17 190.04,-117.3 123.22,-97.53"/>
<polygon fill="midnightblue" stroke="midnightblue" points="1504.31,-239.48 1514.39,-236.23 1504.48,-232.49 1504.31,-239.48"/>
</g>
<!-- Node6 -->
<g id="node6" class="node">
<title>Node6</title>
<g id="a_node6"><a xlink:href="../../dc/db7/measurements_8h.html" target="_top" xlink:title=" ">
<polygon fill="white" stroke="black" points="521.5,-156.5 521.5,-175.5 700.5,-175.5 700.5,-156.5 521.5,-156.5"/>
<text text-anchor="middle" x="611" y="-163.5" font-family="Helvetica,sans-Serif" font-size="10.00">src/libs/vformat/measurements.h</text>
</a>
</g>
</g>
<!-- Node5&#45;&gt;Node6 -->
<g id="edge5" class="edge">
<title>Node5&#45;&gt;Node6</title>
<path fill="none" stroke="midnightblue" d="M1503.77,-235.01C1366.95,-229.37 1036.73,-213.98 761,-187 730.15,-183.98 695.87,-179.5 667.87,-175.54"/>
<polygon fill="midnightblue" stroke="midnightblue" points="1503.93,-238.52 1514.06,-235.43 1504.22,-231.53 1503.93,-238.52"/>
</g>
<!-- Node7 -->
<g id="node7" class="node">
<title>Node7</title>
<g id="a_node7"><a xlink:href="../../d6/de0/vlayoutpiece_8h.html" target="_top" xlink:title=" ">
<polygon fill="white" stroke="black" points="770,-156.5 770,-175.5 936,-175.5 936,-156.5 770,-156.5"/>
<text text-anchor="middle" x="853" y="-163.5" font-family="Helvetica,sans-Serif" font-size="10.00">src/libs/vlayout/vlayoutpiece.h</text>
</a>
</g>
</g>
<!-- Node5&#45;&gt;Node7 -->
<g id="edge8" class="edge">
<title>Node5&#45;&gt;Node7</title>
<path fill="none" stroke="midnightblue" d="M1503.96,-235.01C1390.99,-230.01 1149.13,-216.6 947,-187 927.35,-184.12 905.66,-179.6 888.07,-175.58"/>
<polygon fill="midnightblue" stroke="midnightblue" points="1504.02,-238.51 1514.16,-235.45 1504.32,-231.52 1504.02,-238.51"/>
</g>
<!-- Node17 -->
<g id="node16" class="node">
<title>Node17</title>
<g id="a_node16"><a xlink:href="../../d8/d70/vtextmanager_8cpp.html" target="_top" xlink:title=" ">
<polygon fill="white" stroke="black" points="1692,-78.5 1692,-97.5 1874,-97.5 1874,-78.5 1692,-78.5"/>
<text text-anchor="middle" x="1783" y="-85.5" font-family="Helvetica,sans-Serif" font-size="10.00">src/libs/vlayout/vtextmanager.cpp</text>
</a>
</g>
</g>
<!-- Node5&#45;&gt;Node17 -->
<g id="edge19" class="edge">
<title>Node5&#45;&gt;Node17</title>
<path fill="none" stroke="midnightblue" d="M1631.73,-235.97C1672.39,-231.62 1723.4,-219.39 1756,-187 1780.91,-162.25 1783.41,-116.76 1783.29,-97.73"/>
<polygon fill="midnightblue" stroke="midnightblue" points="1631.26,-232.49 1621.63,-236.91 1631.91,-239.46 1631.26,-232.49"/>
</g>
<!-- Node18 -->
<g id="node17" class="node">
<title>Node18</title>
<g id="a_node17"><a xlink:href="../../d5/d74/vabstractapplication_8h.html" target="_top" xlink:title=" ">
<polygon fill="white" stroke="red" points="3402.5,-156.5 3402.5,-175.5 3597.5,-175.5 3597.5,-156.5 3402.5,-156.5"/>
<text text-anchor="middle" x="3500" y="-163.5" font-family="Helvetica,sans-Serif" font-size="10.00">src/libs/vmisc/vabstractapplication.h</text>
</a>
</g>
</g>
<!-- Node5&#45;&gt;Node18 -->
<g id="edge20" class="edge">
<title>Node5&#45;&gt;Node18</title>
<path fill="none" stroke="midnightblue" d="M1631.79,-235.17C1914.98,-224.84 3059.48,-183.07 3402.42,-170.56"/>
<polygon fill="midnightblue" stroke="midnightblue" points="1631.55,-231.68 1621.69,-235.54 1631.81,-238.67 1631.55,-231.68"/>
</g>
<!-- Node36 -->
<g id="node31" class="node">
<title>Node36</title>
<g id="a_node31"><a xlink:href="../../db/d11/vformula_8cpp.html" target="_top" xlink:title=" ">
<polygon fill="white" stroke="black" points="5404.5,-73 5404.5,-103 5511.5,-103 5511.5,-73 5404.5,-73"/>
<text text-anchor="start" x="5412.5" y="-91" font-family="Helvetica,sans-Serif" font-size="10.00">src/libs/vpatterndb</text>
<text text-anchor="middle" x="5458" y="-80" font-family="Helvetica,sans-Serif" font-size="10.00">/vformula.cpp</text>
</a>
</g>
</g>
<!-- Node5&#45;&gt;Node36 -->
<g id="edge54" class="edge">
<title>Node5&#45;&gt;Node36</title>
<path fill="none" stroke="midnightblue" d="M1631.62,-236.69C1882.65,-233.31 2828.81,-219.08 3607,-187 3930.82,-173.65 4011.25,-159.83 4335,-145 4570.44,-134.21 5162.73,-149.03 5395,-109 5403.03,-107.62 5411.45,-105.46 5419.43,-103.07"/>
<polygon fill="midnightblue" stroke="midnightblue" points="1631.53,-233.19 1621.58,-236.82 1631.63,-240.19 1631.53,-233.19"/>
</g>
<!-- Node37 -->
<g id="node32" class="node">
<title>Node37</title>
<g id="a_node32"><a xlink:href="../../df/d7a/vpiece_8cpp.html" target="_top" xlink:title=" ">
<polygon fill="white" stroke="black" points="1566.5,-73 1566.5,-103 1673.5,-103 1673.5,-73 1566.5,-73"/>
<text text-anchor="start" x="1574.5" y="-91" font-family="Helvetica,sans-Serif" font-size="10.00">src/libs/vpatterndb</text>
<text text-anchor="middle" x="1620" y="-80" font-family="Helvetica,sans-Serif" font-size="10.00">/vpiece.cpp</text>
</a>
</g>
</g>
<!-- Node5&#45;&gt;Node37 -->
<g id="edge56" class="edge">
<title>Node5&#45;&gt;Node37</title>
<path fill="none" stroke="midnightblue" d="M1504.08,-234.43C1392.15,-228.39 1170.27,-213.23 1147,-187 1134.61,-173.04 1134.45,-158.82 1147,-145 1174.91,-114.25 1477.92,-115.04 1519,-109 1534.47,-106.72 1551.17,-103.67 1566.44,-100.63"/>
<polygon fill="midnightblue" stroke="midnightblue" points="1504.06,-237.93 1514.23,-234.97 1504.43,-230.94 1504.06,-237.93"/>
</g>
<!-- Node39 -->
<g id="node34" class="node">
<title>Node39</title>
<g id="a_node34"><a xlink:href="../../d8/dba/vpiecenode_8cpp.html" target="_top" xlink:title=" ">
<polygon fill="white" stroke="black" points="2383.5,-0.5 2383.5,-30.5 2490.5,-30.5 2490.5,-0.5 2383.5,-0.5"/>
<text text-anchor="start" x="2391.5" y="-18.5" font-family="Helvetica,sans-Serif" font-size="10.00">src/libs/vpatterndb</text>
<text text-anchor="middle" x="2437" y="-7.5" font-family="Helvetica,sans-Serif" font-size="10.00">/vpiecenode.cpp</text>
</a>
</g>
</g>
<!-- Node5&#45;&gt;Node39 -->
<g id="edge57" class="edge">
<title>Node5&#45;&gt;Node39</title>
<path fill="none" stroke="midnightblue" d="M1631.85,-233.86C1664.74,-228.35 1702.21,-215.64 1723,-187 1733.97,-171.89 1734.72,-159.53 1723,-145 1675.61,-86.23 1604.39,-167.77 1557,-109 1545.28,-94.47 1544.18,-80.57 1557,-67 1585.47,-36.85 2196.57,-21.55 2383.29,-17.57"/>
<polygon fill="midnightblue" stroke="midnightblue" points="1631.19,-230.42 1621.81,-235.35 1632.22,-237.34 1631.19,-230.42"/>
</g>
<!-- Node5&#45;&gt;Node40 -->
<g id="edge59" class="edge">
<title>Node5&#45;&gt;Node40</title>
<path fill="none" stroke="midnightblue" d="M1631.98,-237.65C1911.19,-238 3050.83,-236.18 3985,-187 4206.37,-175.35 4260.72,-158.18 4482,-145 4712.62,-131.27 5293.43,-148.85 5521,-109 5528.91,-107.62 5537.2,-105.46 5545.05,-103.07"/>
<polygon fill="midnightblue" stroke="midnightblue" points="1631.64,-234.15 1621.63,-237.64 1631.63,-241.15 1631.64,-234.15"/>
</g>
<!-- Node57 -->
<g id="node45" class="node">
<title>Node57</title>
<g id="a_node45"><a xlink:href="../../d1/de1/vincrement__p_8h.html" target="_top" xlink:title=" ">
<polygon fill="white" stroke="red" points="956.5,-151 956.5,-181 1099.5,-181 1099.5,-151 956.5,-151"/>
<text text-anchor="start" x="964.5" y="-169" font-family="Helvetica,sans-Serif" font-size="10.00">src/libs/vpatterndb</text>
<text text-anchor="middle" x="1028" y="-158" font-family="Helvetica,sans-Serif" font-size="10.00">/variables/vincrement_p.h</text>
</a>
</g>
</g>
<!-- Node5&#45;&gt;Node57 -->
<g id="edge51" class="edge">
<title>Node5&#45;&gt;Node57</title>
<path fill="none" stroke="midnightblue" d="M1504.14,-232.78C1415.96,-225.73 1252.16,-210.66 1114,-187 1104.33,-185.34 1094.12,-183.27 1084.24,-181.08"/>
<polygon fill="midnightblue" stroke="midnightblue" points="1504,-236.28 1514.25,-233.58 1504.56,-229.3 1504,-236.28"/>
</g>
<!-- Node59 -->
<g id="node46" class="node">
<title>Node59</title>
<g id="a_node46"><a xlink:href="../../d7/d8a/measurement__variable__p_8h.html" target="_top" xlink:title=" ">
<polygon fill="white" stroke="black" points="4491,-145.5 4491,-186.5 4627,-186.5 4627,-145.5 4491,-145.5"/>
<text text-anchor="start" x="4499" y="-174.5" font-family="Helvetica,sans-Serif" font-size="10.00">src/libs/vpatterndb</text>
<text text-anchor="start" x="4499" y="-163.5" font-family="Helvetica,sans-Serif" font-size="10.00">/variables/measurement</text>
<text text-anchor="middle" x="4559" y="-152.5" font-family="Helvetica,sans-Serif" font-size="10.00">_variable_p.h</text>
</a>
</g>
</g>
<!-- Node5&#45;&gt;Node59 -->
<g id="edge52" class="edge">
<title>Node5&#45;&gt;Node59</title>
<path fill="none" stroke="midnightblue" d="M1631.8,-237.07C1995.08,-234.54 3806.09,-220.39 4363,-187 4405.51,-184.45 4453.03,-179.65 4490.63,-175.39"/>
<polygon fill="midnightblue" stroke="midnightblue" points="1631.7,-233.57 1621.72,-237.14 1631.75,-240.57 1631.7,-233.57"/>
</g>
<!-- Node60 -->
<g id="node47" class="node">
<title>Node60</title>
<g id="a_node47"><a xlink:href="../../d6/d91/vnodedetail_8cpp.html" target="_top" xlink:title=" ">
<polygon fill="white" stroke="black" points="1156.5,-151 1156.5,-181 1263.5,-181 1263.5,-151 1156.5,-151"/>
<text text-anchor="start" x="1164.5" y="-169" font-family="Helvetica,sans-Serif" font-size="10.00">src/libs/vpatterndb</text>
<text text-anchor="middle" x="1210" y="-158" font-family="Helvetica,sans-Serif" font-size="10.00">/vnodedetail.cpp</text>
</a>
</g>
</g>
<!-- Node5&#45;&gt;Node60 -->
<g id="edge55" class="edge">
<title>Node5&#45;&gt;Node60</title>
<path fill="none" stroke="midnightblue" d="M1504.19,-229.3C1443.88,-220.93 1351.09,-206.4 1272,-187 1265.08,-185.3 1257.81,-183.23 1250.78,-181.07"/>
<polygon fill="midnightblue" stroke="midnightblue" points="1503.94,-232.8 1514.32,-230.7 1504.89,-225.87 1503.94,-232.8"/>
</g>
<!-- Node61 -->
<g id="node48" class="node">
<title>Node61</title>
<g id="a_node48"><a xlink:href="../../da/de1/vpiecepath_8cpp.html" target="_top" xlink:title=" ">
<polygon fill="white" stroke="black" points="1281.5,-151 1281.5,-181 1388.5,-181 1388.5,-151 1281.5,-151"/>
<text text-anchor="start" x="1289.5" y="-169" font-family="Helvetica,sans-Serif" font-size="10.00">src/libs/vpatterndb</text>
<text text-anchor="middle" x="1335" y="-158" font-family="Helvetica,sans-Serif" font-size="10.00">/vpiecepath.cpp</text>
</a>
</g>
</g>
<!-- Node5&#45;&gt;Node61 -->
<g id="edge58" class="edge">
<title>Node5&#45;&gt;Node61</title>
<path fill="none" stroke="midnightblue" d="M1509.3,-220.56C1476.25,-210.92 1434.26,-198.51 1397,-187 1390.84,-185.1 1384.35,-183.05 1377.98,-181.02"/>
<polygon fill="midnightblue" stroke="midnightblue" points="1508.68,-224.02 1519.26,-223.45 1510.63,-217.3 1508.68,-224.02"/>
</g>
<!-- Node62 -->
<g id="node49" class="node">
<title>Node62</title>
<g id="a_node49"><a xlink:href="../../d1/d3a/abstracttest_8cpp.html" target="_top" xlink:title=" ">
<polygon fill="white" stroke="black" points="1406.5,-156.5 1406.5,-175.5 1567.5,-175.5 1567.5,-156.5 1406.5,-156.5"/>
<text text-anchor="middle" x="1487" y="-163.5" font-family="Helvetica,sans-Serif" font-size="10.00">src/libs/vtest/abstracttest.cpp</text>
</a>
</g>
</g>
<!-- Node5&#45;&gt;Node62 -->
<g id="edge60" class="edge">
<title>Node5&#45;&gt;Node62</title>
<path fill="none" stroke="midnightblue" d="M1543.88,-216.51C1528.32,-202.96 1508.87,-186.03 1497.22,-175.89"/>
<polygon fill="midnightblue" stroke="midnightblue" points="1541.77,-219.31 1551.61,-223.23 1546.36,-214.03 1541.77,-219.31"/>
</g>
<!-- Node63 -->
<g id="node50" class="node">
<title>Node63</title>
<g id="a_node50"><a xlink:href="../../da/db4/piece__tablewidgetitem_8cpp.html" target="_top" xlink:title=" ">
<polygon fill="white" stroke="black" points="1586,-151 1586,-181 1714,-181 1714,-151 1586,-151"/>
<text text-anchor="start" x="1594" y="-169" font-family="Helvetica,sans-Serif" font-size="10.00">src/libs/vwidgets/piece</text>
<text text-anchor="middle" x="1650" y="-158" font-family="Helvetica,sans-Serif" font-size="10.00">_tablewidgetitem.cpp</text>
</a>
</g>
</g>
<!-- Node5&#45;&gt;Node63 -->
<g id="edge61" class="edge">
<title>Node5&#45;&gt;Node63</title>
<path fill="none" stroke="midnightblue" d="M1592.47,-216.46C1605.8,-205 1621.93,-191.14 1633.71,-181"/>
<polygon fill="midnightblue" stroke="midnightblue" points="1589.89,-214.06 1584.59,-223.23 1594.46,-219.37 1589.89,-214.06"/>
</g>
<!-- Node6&#45;&gt;Node2 -->
<g id="edge6" class="edge">
<title>Node6&#45;&gt;Node2</title>
<path fill="none" stroke="midnightblue" d="M532.08,-155.2C449.97,-144.76 317.75,-127.25 204,-109 182.53,-105.56 158.78,-101.26 138.94,-97.53"/>
<polygon fill="midnightblue" stroke="midnightblue" points="531.73,-158.69 542.09,-156.47 532.61,-151.74 531.73,-158.69"/>
</g>
<!-- Node8 -->
<g id="node8" class="node">
<title>Node8</title>
<g id="a_node8"><a xlink:href="../../dd/d66/vdxfengine_8cpp.html" target="_top" xlink:title=" ">
<polygon fill="white" stroke="black" points="246,-78.5 246,-97.5 400,-97.5 400,-78.5 246,-78.5"/>
<text text-anchor="middle" x="323" y="-85.5" font-family="Helvetica,sans-Serif" font-size="10.00">src/libs/vdxf/vdxfengine.cpp</text>
</a>
</g>
</g>
<!-- Node7&#45;&gt;Node8 -->
<g id="edge9" class="edge">
<title>Node7&#45;&gt;Node8</title>
<path fill="none" stroke="midnightblue" d="M783.55,-155.09C759.9,-151.78 733.31,-148.15 709,-145 575.82,-127.76 541.26,-132.24 409,-109 391.34,-105.9 371.85,-101.45 355.91,-97.54"/>
<polygon fill="midnightblue" stroke="midnightblue" points="783.09,-158.56 793.48,-156.48 784.06,-151.63 783.09,-158.56"/>
</g>
<!-- Node9 -->
<g id="node9" class="node">
<title>Node9</title>
<g id="a_node9"><a xlink:href="../../de/da8/vbank_8cpp.html" target="_top" xlink:title=" ">
<polygon fill="white" stroke="black" points="418,-78.5 418,-97.5 562,-97.5 562,-78.5 418,-78.5"/>
<text text-anchor="middle" x="490" y="-85.5" font-family="Helvetica,sans-Serif" font-size="10.00">src/libs/vlayout/vbank.cpp</text>
</a>
</g>
</g>
<!-- Node7&#45;&gt;Node9 -->
<g id="edge10" class="edge">
<title>Node7&#45;&gt;Node9</title>
<path fill="none" stroke="midnightblue" d="M796.55,-154.58C739.51,-143.87 648.91,-126.34 571,-109 555.16,-105.47 537.68,-101.21 523.02,-97.52"/>
<polygon fill="midnightblue" stroke="midnightblue" points="795.98,-158.04 806.46,-156.44 797.27,-151.16 795.98,-158.04"/>
</g>
<!-- Node10 -->
<g id="node10" class="node">
<title>Node10</title>
<g id="a_node10"><a xlink:href="../../df/d5d/vcontour_8cpp.html" target="_top" xlink:title=" ">
<polygon fill="white" stroke="black" points="580,-78.5 580,-97.5 736,-97.5 736,-78.5 580,-78.5"/>
<text text-anchor="middle" x="658" y="-85.5" font-family="Helvetica,sans-Serif" font-size="10.00">src/libs/vlayout/vcontour.cpp</text>
</a>
</g>
</g>
<!-- Node7&#45;&gt;Node10 -->
<g id="edge11" class="edge">
<title>Node7&#45;&gt;Node10</title>
<path fill="none" stroke="midnightblue" d="M821.54,-152.74C781.81,-137.25 714.48,-111.01 679.91,-97.54"/>
<polygon fill="midnightblue" stroke="midnightblue" points="820.42,-156.06 831.01,-156.43 822.96,-149.54 820.42,-156.06"/>
</g>
<!-- Node11 -->
<g id="node11" class="node">
<title>Node11</title>
<g id="a_node11"><a xlink:href="../../d3/d39/vlayoutgenerator_8cpp.html" target="_top" xlink:title=" ">
<polygon fill="white" stroke="black" points="754.5,-78.5 754.5,-97.5 951.5,-97.5 951.5,-78.5 754.5,-78.5"/>
<text text-anchor="middle" x="853" y="-85.5" font-family="Helvetica,sans-Serif" font-size="10.00">src/libs/vlayout/vlayoutgenerator.cpp</text>
</a>
</g>
</g>
<!-- Node7&#45;&gt;Node11 -->
<g id="edge12" class="edge">
<title>Node7&#45;&gt;Node11</title>
<path fill="none" stroke="midnightblue" d="M853,-146.22C853,-130.7 853,-109.36 853,-97.62"/>
<polygon fill="midnightblue" stroke="midnightblue" points="849.5,-146.28 853,-156.28 856.5,-146.28 849.5,-146.28"/>
</g>
<!-- Node12 -->
<g id="node12" class="node">
<title>Node12</title>
<g id="a_node12"><a xlink:href="../../d2/d2d/vlayoutpaper__p_8h.html" target="_top" xlink:title=" ">
<polygon fill="white" stroke="black" points="969.5,-78.5 969.5,-97.5 1148.5,-97.5 1148.5,-78.5 969.5,-78.5"/>
<text text-anchor="middle" x="1059" y="-85.5" font-family="Helvetica,sans-Serif" font-size="10.00">src/libs/vlayout/vlayoutpaper_p.h</text>
</a>
</g>
</g>
<!-- Node7&#45;&gt;Node12 -->
<g id="edge13" class="edge">
<title>Node7&#45;&gt;Node12</title>
<path fill="none" stroke="midnightblue" d="M885.7,-152.94C927.6,-137.48 999.18,-111.07 1035.85,-97.54"/>
<polygon fill="midnightblue" stroke="midnightblue" points="884.4,-149.68 876.23,-156.43 886.82,-156.25 884.4,-149.68"/>
</g>
<!-- Node13 -->
<g id="node13" class="node">
<title>Node13</title>
<g id="a_node13"><a xlink:href="../../d1/dd1/vlayoutpaper_8cpp.html" target="_top" xlink:title=" ">
<polygon fill="white" stroke="black" points="970,-6 970,-25 1148,-25 1148,-6 970,-6"/>
<text text-anchor="middle" x="1059" y="-13" font-family="Helvetica,sans-Serif" font-size="10.00">src/libs/vlayout/vlayoutpaper.cpp</text>
</a>
</g>
</g>
<!-- Node7&#45;&gt;Node13 -->
<g id="edge15" class="edge">
<title>Node7&#45;&gt;Node13</title>
<path fill="none" stroke="midnightblue" d="M787.44,-155.02C762.87,-151.51 734.7,-147.76 709,-145 656.7,-139.38 272.75,-147.58 237,-109 224.31,-95.31 224.21,-80.6 237,-67 261.81,-40.62 762.31,-24.36 969.94,-18.73"/>
<polygon fill="midnightblue" stroke="midnightblue" points="786.97,-158.49 797.37,-156.46 787.97,-151.56 786.97,-158.49"/>
</g>
<!-- Node14 -->
<g id="node14" class="node">
<title>Node14</title>
<g id="a_node14"><a xlink:href="../../db/d5c/vposition_8h.html" target="_top" xlink:title=" ">
<polygon fill="white" stroke="red" points="1167,-78.5 1167,-97.5 1315,-97.5 1315,-78.5 1167,-78.5"/>
<text text-anchor="middle" x="1241" y="-85.5" font-family="Helvetica,sans-Serif" font-size="10.00">src/libs/vlayout/vposition.h</text>
</a>
</g>
</g>
<!-- Node7&#45;&gt;Node14 -->
<g id="edge16" class="edge">
<title>Node7&#45;&gt;Node14</title>
<path fill="none" stroke="midnightblue" d="M901.23,-154.35C915.9,-151.22 932.09,-147.86 947,-145 1040,-127.14 1064.23,-127.98 1157,-109 1173.6,-105.61 1191.91,-101.31 1207.19,-97.57"/>
<polygon fill="midnightblue" stroke="midnightblue" points="900.39,-150.95 891.35,-156.48 901.86,-157.8 900.39,-150.95"/>
</g>
<!-- Node16 -->
<g id="node15" class="node">
<title>Node16</title>
<g id="a_node15"><a xlink:href="../../dd/d70/vlayoutpiece_8cpp.html" target="_top" xlink:title=" ">
<polygon fill="white" stroke="black" points="1333.5,-78.5 1333.5,-97.5 1510.5,-97.5 1510.5,-78.5 1333.5,-78.5"/>
<text text-anchor="middle" x="1422" y="-85.5" font-family="Helvetica,sans-Serif" font-size="10.00">src/libs/vlayout/vlayoutpiece.cpp</text>
</a>
</g>
</g>
<!-- Node7&#45;&gt;Node16 -->
<g id="edge18" class="edge">
<title>Node7&#45;&gt;Node16</title>
<path fill="none" stroke="midnightblue" d="M898.32,-154.26C913.71,-150.91 931.04,-147.45 947,-145 1113.37,-119.44 1157.53,-133.86 1324,-109 1344.27,-105.97 1366.67,-101.49 1384.94,-97.53"/>
<polygon fill="midnightblue" stroke="midnightblue" points="897.54,-150.85 888.53,-156.44 899.05,-157.68 897.54,-150.85"/>
</g>
<!-- Node12&#45;&gt;Node13 -->
<g id="edge14" class="edge">
<title>Node12&#45;&gt;Node13</title>
<path fill="none" stroke="midnightblue" d="M1059,-67.94C1059,-54.03 1059,-35.82 1059,-25.22"/>
<polygon fill="midnightblue" stroke="midnightblue" points="1055.5,-68.36 1059,-78.36 1062.5,-68.36 1055.5,-68.36"/>
</g>
<!-- Node14&#45;&gt;Node13 -->
<g id="edge17" class="edge">
<title>Node14&#45;&gt;Node13</title>
<path fill="none" stroke="midnightblue" d="M1209.34,-74.74C1172.62,-60.51 1113.05,-37.44 1081.03,-25.03"/>
<polygon fill="midnightblue" stroke="midnightblue" points="1208.46,-78.15 1219.05,-78.5 1210.99,-71.62 1208.46,-78.15"/>
</g>
<!-- Node18&#45;&gt;Node16 -->
<g id="edge31" class="edge">
<title>Node18&#45;&gt;Node16</title>
<path fill="none" stroke="midnightblue" d="M3392.15,-163.57C3038.74,-158.63 1917.65,-140.8 1557,-109 1527.97,-106.44 1495.67,-101.72 1469.95,-97.51"/>
<polygon fill="midnightblue" stroke="midnightblue" points="3392.33,-167.08 3402.38,-163.72 3392.43,-160.08 3392.33,-167.08"/>
</g>
<!-- Node18&#45;&gt;Node17 -->
<g id="edge32" class="edge">
<title>Node18&#45;&gt;Node17</title>
<path fill="none" stroke="midnightblue" d="M3391.92,-163.52C3079.22,-158.89 2177.23,-142.89 1884,-109 1862.16,-106.48 1837.99,-101.76 1818.77,-97.54"/>
<polygon fill="midnightblue" stroke="midnightblue" points="3392.29,-167.03 3402.35,-163.68 3392.4,-160.03 3392.29,-167.03"/>
</g>
<!-- Node19 -->
<g id="node18" class="node">
<title>Node19</title>
<g id="a_node18"><a xlink:href="../../d4/d90/fvupdater_8cpp.html" target="_top" xlink:title=" ">
<polygon fill="white" stroke="black" points="2583.5,-78.5 2583.5,-97.5 2736.5,-97.5 2736.5,-78.5 2583.5,-78.5"/>
<text text-anchor="middle" x="2660" y="-85.5" font-family="Helvetica,sans-Serif" font-size="10.00">src/libs/fervor/fvupdater.cpp</text>
</a>
</g>
</g>
<!-- Node18&#45;&gt;Node19 -->
<g id="edge21" class="edge">
<title>Node18&#45;&gt;Node19</title>
<path fill="none" stroke="midnightblue" d="M3392.09,-162.22C3245.2,-157.24 2974.42,-143.83 2746,-109 2727.82,-106.23 2707.78,-101.66 2691.63,-97.59"/>
<polygon fill="midnightblue" stroke="midnightblue" points="3392.34,-165.73 3402.45,-162.56 3392.58,-158.73 3392.34,-165.73"/>
</g>
<!-- Node20 -->
<g id="node19" class="node">
<title>Node20</title>
<g id="a_node19"><a xlink:href="../../d9/dc8/dxiface_8cpp.html" target="_top" xlink:title=" ">
<polygon fill="white" stroke="black" points="2754.5,-78.5 2754.5,-97.5 2889.5,-97.5 2889.5,-78.5 2754.5,-78.5"/>
<text text-anchor="middle" x="2822" y="-85.5" font-family="Helvetica,sans-Serif" font-size="10.00">src/libs/vdxf/dxiface.cpp</text>
</a>
</g>
</g>
<!-- Node18&#45;&gt;Node20 -->
<g id="edge22" class="edge">
<title>Node18&#45;&gt;Node20</title>
<path fill="none" stroke="midnightblue" d="M3392.3,-160.2C3271.49,-153.61 3070.05,-138.98 2899,-109 2882.67,-106.14 2864.74,-101.57 2850.28,-97.51"/>
<polygon fill="midnightblue" stroke="midnightblue" points="3392.12,-163.7 3402.29,-160.74 3392.49,-156.71 3392.12,-163.7"/>
</g>
<!-- Node21 -->
<g id="node20" class="node">
<title>Node21</title>
<g id="a_node20"><a xlink:href="../../da/d75/vabstractarc__p_8h.html" target="_top" xlink:title=" ">
<polygon fill="white" stroke="red" points="2907.5,-73 2907.5,-103 3014.5,-103 3014.5,-73 2907.5,-73"/>
<text text-anchor="start" x="2915.5" y="-91" font-family="Helvetica,sans-Serif" font-size="10.00">src/libs/vgeometry</text>
<text text-anchor="middle" x="2961" y="-80" font-family="Helvetica,sans-Serif" font-size="10.00">/vabstractarc_p.h</text>
</a>
</g>
</g>
<!-- Node18&#45;&gt;Node21 -->
<g id="edge23" class="edge">
<title>Node18&#45;&gt;Node21</title>
<path fill="none" stroke="midnightblue" d="M3392.35,-158.21C3295.25,-150.69 3148.91,-135.92 3024,-109 3016.6,-107.4 3008.82,-105.3 3001.36,-103.06"/>
<polygon fill="midnightblue" stroke="midnightblue" points="3392.24,-161.71 3402.48,-158.98 3392.77,-154.73 3392.24,-161.71"/>
</g>
<!-- Node23 -->
<g id="node21" class="node">
<title>Node23</title>
<g id="a_node21"><a xlink:href="../../dc/da3/varc__p_8h.html" target="_top" xlink:title=" ">
<polygon fill="white" stroke="red" points="3032.5,-73 3032.5,-103 3139.5,-103 3139.5,-73 3032.5,-73"/>
<text text-anchor="start" x="3040.5" y="-91" font-family="Helvetica,sans-Serif" font-size="10.00">src/libs/vgeometry</text>
<text text-anchor="middle" x="3086" y="-80" font-family="Helvetica,sans-Serif" font-size="10.00">/varc_p.h</text>
</a>
</g>
</g>
<!-- Node18&#45;&gt;Node23 -->
<g id="edge24" class="edge">
<title>Node18&#45;&gt;Node23</title>
<path fill="none" stroke="midnightblue" d="M3415.79,-155.15C3344.26,-145.93 3239.14,-130.37 3149,-109 3141.85,-107.31 3134.34,-105.21 3127.1,-103.02"/>
<polygon fill="midnightblue" stroke="midnightblue" points="3415.74,-158.67 3426.1,-156.47 3416.62,-151.73 3415.74,-158.67"/>
</g>
<!-- Node25 -->
<g id="node22" class="node">
<title>Node25</title>
<g id="a_node22"><a xlink:href="../../d5/d8e/vcubicbezier__p_8h.html" target="_top" xlink:title=" ">
<polygon fill="white" stroke="red" points="3157.5,-73 3157.5,-103 3264.5,-103 3264.5,-73 3157.5,-73"/>
<text text-anchor="start" x="3165.5" y="-91" font-family="Helvetica,sans-Serif" font-size="10.00">src/libs/vgeometry</text>
<text text-anchor="middle" x="3211" y="-80" font-family="Helvetica,sans-Serif" font-size="10.00">/vcubicbezier_p.h</text>
</a>
</g>
</g>
<!-- Node18&#45;&gt;Node25 -->
<g id="edge25" class="edge">
<title>Node18&#45;&gt;Node25</title>
<path fill="none" stroke="midnightblue" d="M3452.25,-154.11C3406.35,-143.42 3335.12,-126.26 3274,-109 3267.48,-107.16 3260.63,-105.11 3253.93,-103.03"/>
<polygon fill="midnightblue" stroke="midnightblue" points="3451.68,-157.57 3462.22,-156.42 3453.26,-150.75 3451.68,-157.57"/>
</g>
<!-- Node27 -->
<g id="node23" class="node">
<title>Node27</title>
<g id="a_node23"><a xlink:href="../../df/dde/vellipticalarc__p_8h.html" target="_top" xlink:title=" ">
<polygon fill="white" stroke="black" points="4411.5,-73 4411.5,-103 4518.5,-103 4518.5,-73 4411.5,-73"/>
<text text-anchor="start" x="4419.5" y="-91" font-family="Helvetica,sans-Serif" font-size="10.00">src/libs/vgeometry</text>
<text text-anchor="middle" x="4465" y="-80" font-family="Helvetica,sans-Serif" font-size="10.00">/vellipticalarc_p.h</text>
</a>
</g>
</g>
<!-- Node18&#45;&gt;Node27 -->
<g id="edge26" class="edge">
<title>Node18&#45;&gt;Node27</title>
<path fill="none" stroke="midnightblue" d="M3607.76,-161.69C3813.14,-154.83 4253.5,-137.28 4403,-109 4410.78,-107.53 4418.94,-105.37 4426.69,-103"/>
<polygon fill="midnightblue" stroke="midnightblue" points="3607.44,-158.2 3597.56,-162.03 3607.67,-165.2 3607.44,-158.2"/>
</g>
<!-- Node28 -->
<g id="node24" class="node">
<title>Node28</title>
<g id="a_node24"><a xlink:href="../../d6/dfb/vellipticalarc_8cpp.html" target="_top" xlink:title=" ">
<polygon fill="white" stroke="black" points="3887.5,-0.5 3887.5,-30.5 3994.5,-30.5 3994.5,-0.5 3887.5,-0.5"/>
<text text-anchor="start" x="3895.5" y="-18.5" font-family="Helvetica,sans-Serif" font-size="10.00">src/libs/vgeometry</text>
<text text-anchor="middle" x="3941" y="-7.5" font-family="Helvetica,sans-Serif" font-size="10.00">/vellipticalarc.cpp</text>
</a>
</g>
</g>
<!-- Node18&#45;&gt;Node28 -->
<g id="edge28" class="edge">
<title>Node18&#45;&gt;Node28</title>
<path fill="none" stroke="midnightblue" d="M3475.95,-150.64C3462.03,-140.85 3445.78,-126.51 3438,-109 3430.42,-91.94 3425.48,-80.84 3438,-67 3467.73,-34.13 3763.72,-21.69 3887.27,-17.91"/>
<polygon fill="midnightblue" stroke="midnightblue" points="3474.37,-153.8 3484.64,-156.4 3478.24,-147.96 3474.37,-153.8"/>
</g>
<!-- Node29 -->
<g id="node25" class="node">
<title>Node29</title>
<g id="a_node25"><a xlink:href="../../d1/d76/vspline__p_8h.html" target="_top" xlink:title=" ">
<polygon fill="white" stroke="red" points="3446.5,-73 3446.5,-103 3553.5,-103 3553.5,-73 3446.5,-73"/>
<text text-anchor="start" x="3454.5" y="-91" font-family="Helvetica,sans-Serif" font-size="10.00">src/libs/vgeometry</text>
<text text-anchor="middle" x="3500" y="-80" font-family="Helvetica,sans-Serif" font-size="10.00">/vspline_p.h</text>
</a>
</g>
</g>
<!-- Node18&#45;&gt;Node29 -->
<g id="edge29" class="edge">
<title>Node18&#45;&gt;Node29</title>
<path fill="none" stroke="midnightblue" d="M3500,-146.28C3500,-132.9 3500,-115.19 3500,-103.02"/>
<polygon fill="midnightblue" stroke="midnightblue" points="3496.5,-146.28 3500,-156.28 3503.5,-146.28 3496.5,-146.28"/>
</g>
<!-- Node31 -->
<g id="node26" class="node">
<title>Node31</title>
<g id="a_node26"><a xlink:href="../../d9/d15/vabstractpiece_8cpp.html" target="_top" xlink:title=" ">
<polygon fill="white" stroke="black" points="3572,-78.5 3572,-97.5 3758,-97.5 3758,-78.5 3572,-78.5"/>
<text text-anchor="middle" x="3665" y="-85.5" font-family="Helvetica,sans-Serif" font-size="10.00">src/libs/vlayout/vabstractpiece.cpp</text>
</a>
</g>
</g>
<!-- Node18&#45;&gt;Node31 -->
<g id="edge30" class="edge">
<title>Node18&#45;&gt;Node31</title>
<path fill="none" stroke="midnightblue" d="M3527.89,-152.16C3561.55,-136.65 3617.25,-110.99 3646.21,-97.66"/>
<polygon fill="midnightblue" stroke="midnightblue" points="3526.23,-149.07 3518.61,-156.43 3529.15,-155.42 3526.23,-149.07"/>
</g>
<!-- Node32 -->
<g id="node27" class="node">
<title>Node32</title>
<g id="a_node27"><a xlink:href="../../db/d65/dialogexporttocsv_8cpp.html" target="_top" xlink:title=" ">
<polygon fill="white" stroke="black" points="3776.5,-73 3776.5,-103 3903.5,-103 3903.5,-73 3776.5,-73"/>
<text text-anchor="start" x="3784.5" y="-91" font-family="Helvetica,sans-Serif" font-size="10.00">src/libs/vmisc/dialogs</text>
<text text-anchor="middle" x="3840" y="-80" font-family="Helvetica,sans-Serif" font-size="10.00">/dialogexporttocsv.cpp</text>
</a>
</g>
</g>
<!-- Node18&#45;&gt;Node32 -->
<g id="edge33" class="edge">
<title>Node18&#45;&gt;Node32</title>
<path fill="none" stroke="midnightblue" d="M3555.14,-154.45C3609.28,-143.85 3694.12,-126.61 3767,-109 3774.54,-107.18 3782.48,-105.14 3790.23,-103.07"/>
<polygon fill="midnightblue" stroke="midnightblue" points="3554.21,-151.07 3545.07,-156.41 3555.55,-157.94 3554.21,-151.07"/>
</g>
<!-- Node33 -->
<g id="node28" class="node">
<title>Node33</title>
<g id="a_node28"><a xlink:href="../../d6/d0b/def_8cpp.html" target="_top" xlink:title=" ">
<polygon fill="white" stroke="black" points="3922,-78.5 3922,-97.5 4044,-97.5 4044,-78.5 3922,-78.5"/>
<text text-anchor="middle" x="3983" y="-85.5" font-family="Helvetica,sans-Serif" font-size="10.00">src/libs/vmisc/def.cpp</text>
</a>
</g>
</g>
<!-- Node18&#45;&gt;Node33 -->
<g id="edge34" class="edge">
<title>Node18&#45;&gt;Node33</title>
<path fill="none" stroke="midnightblue" d="M3600.93,-155.41C3684.97,-146.44 3807.52,-131.1 3913,-109 3927.6,-105.94 3943.61,-101.45 3956.63,-97.5"/>
<polygon fill="midnightblue" stroke="midnightblue" points="3600.45,-151.94 3590.87,-156.47 3601.18,-158.9 3600.45,-151.94"/>
</g>
<!-- Node34 -->
<g id="node29" class="node">
<title>Node34</title>
<g id="a_node29"><a xlink:href="../../d0/df6/vabstractapplication_8cpp.html" target="_top" xlink:title=" ">
<polygon fill="white" stroke="black" points="4062,-78.5 4062,-97.5 4268,-97.5 4268,-78.5 4062,-78.5"/>
<text text-anchor="middle" x="4165" y="-85.5" font-family="Helvetica,sans-Serif" font-size="10.00">src/libs/vmisc/vabstractapplication.cpp</text>
</a>
</g>
</g>
<!-- Node18&#45;&gt;Node34 -->
<g id="edge35" class="edge">
<title>Node18&#45;&gt;Node34</title>
<path fill="none" stroke="midnightblue" d="M3607.92,-156.51C3719.59,-147.15 3898.93,-130.53 4053,-109 4075.79,-105.82 4101.03,-101.39 4121.77,-97.51"/>
<polygon fill="midnightblue" stroke="midnightblue" points="3607.34,-153.04 3597.66,-157.36 3607.92,-160.02 3607.34,-153.04"/>
</g>
<!-- Node35 -->
<g id="node30" class="node">
<title>Node35</title>
<g id="a_node30"><a xlink:href="../../d4/d4f/pmsystems_8cpp.html" target="_top" xlink:title=" ">
<polygon fill="white" stroke="black" points="4286.5,-73 4286.5,-103 4393.5,-103 4393.5,-73 4286.5,-73"/>
<text text-anchor="start" x="4294.5" y="-91" font-family="Helvetica,sans-Serif" font-size="10.00">src/libs/vpatterndb</text>
<text text-anchor="middle" x="4340" y="-80" font-family="Helvetica,sans-Serif" font-size="10.00">/pmsystems.cpp</text>
</a>
</g>
</g>
<!-- Node18&#45;&gt;Node35 -->
<g id="edge36" class="edge">
<title>Node18&#45;&gt;Node35</title>
<path fill="none" stroke="midnightblue" d="M3607.75,-165.2C3758.73,-163.68 4041.18,-154.27 4277,-109 4284.78,-107.51 4292.94,-105.37 4300.71,-103.03"/>
<polygon fill="midnightblue" stroke="midnightblue" points="3607.53,-161.7 3597.56,-165.29 3607.59,-168.7 3607.53,-161.7"/>
</g>
<!-- Node18&#45;&gt;Node36 -->
<g id="edge37" class="edge">
<title>Node18&#45;&gt;Node36</title>
<path fill="none" stroke="midnightblue" d="M3607.88,-160.94C3722.13,-156.71 3907.76,-149.99 4068,-145 4362.85,-135.81 5104.12,-158.11 5395,-109 5403.15,-107.62 5411.69,-105.44 5419.77,-103.01"/>
<polygon fill="midnightblue" stroke="midnightblue" points="3607.6,-157.45 3597.74,-161.32 3607.86,-164.45 3607.6,-157.45"/>
</g>
<!-- Node18&#45;&gt;Node37 -->
<g id="edge38" class="edge">
<title>Node18&#45;&gt;Node37</title>
<path fill="none" stroke="midnightblue" d="M3392.22,-165.58C3053.7,-166.77 2014.57,-165.61 1683,-109 1674.97,-107.63 1666.55,-105.48 1658.57,-103.09"/>
<polygon fill="midnightblue" stroke="midnightblue" points="3392.29,-169.08 3402.28,-165.54 3392.26,-162.08 3392.29,-169.08"/>
</g>
<!-- Node38 -->
<g id="node33" class="node">
<title>Node38</title>
<g id="a_node33"><a xlink:href="../../df/dba/vpiecenode__p_8h.html" target="_top" xlink:title=" ">
<polygon fill="white" stroke="black" points="3282.5,-73 3282.5,-103 3389.5,-103 3389.5,-73 3282.5,-73"/>
<text text-anchor="start" x="3290.5" y="-91" font-family="Helvetica,sans-Serif" font-size="10.00">src/libs/vpatterndb</text>
<text text-anchor="middle" x="3336" y="-80" font-family="Helvetica,sans-Serif" font-size="10.00">/vpiecenode_p.h</text>
</a>
</g>
</g>
<!-- Node18&#45;&gt;Node38 -->
<g id="edge39" class="edge">
<title>Node18&#45;&gt;Node38</title>
<path fill="none" stroke="midnightblue" d="M3472.24,-152.14C3442.88,-138.53 3396.7,-117.13 3366.39,-103.08"/>
<polygon fill="midnightblue" stroke="midnightblue" points="3470.96,-155.4 3481.51,-156.43 3473.9,-149.05 3470.96,-155.4"/>
</g>
<!-- Node18&#45;&gt;Node40 -->
<g id="edge41" class="edge">
<title>Node18&#45;&gt;Node40</title>
<path fill="none" stroke="midnightblue" d="M3607.73,-162.43C4019.55,-152.54 5473.51,-117.15 5521,-109 5529.03,-107.62 5537.44,-105.44 5545.39,-103.01"/>
<polygon fill="midnightblue" stroke="midnightblue" points="3607.53,-158.93 3597.61,-162.67 3607.69,-165.93 3607.53,-158.93"/>
</g>
<!-- Node41 -->
<g id="node36" class="node">
<title>Node41</title>
<g id="a_node36"><a xlink:href="../../de/d3e/vtranslatevars_8cpp.html" target="_top" xlink:title=" ">
<polygon fill="white" stroke="black" points="4537,-73 4537,-103 4647,-103 4647,-73 4537,-73"/>
<text text-anchor="start" x="4545" y="-91" font-family="Helvetica,sans-Serif" font-size="10.00">src/libs/vpatterndb</text>
<text text-anchor="middle" x="4592" y="-80" font-family="Helvetica,sans-Serif" font-size="10.00">/vtranslatevars.cpp</text>
</a>
</g>
</g>
<!-- Node18&#45;&gt;Node41 -->
<g id="edge42" class="edge">
<title>Node18&#45;&gt;Node41</title>
<path fill="none" stroke="midnightblue" d="M3607.59,-160.65C3852.91,-150.53 4439.36,-125.01 4528,-109 4536.02,-107.55 4544.44,-105.4 4552.44,-103.04"/>
<polygon fill="midnightblue" stroke="midnightblue" points="3607.44,-157.16 3597.59,-161.07 3607.73,-164.15 3607.44,-157.16"/>
</g>
<!-- Node42 -->
<g id="node37" class="node">
<title>Node42</title>
<g id="a_node37"><a xlink:href="../../df/d40/export__format__combobox_8cpp.html" target="_top" xlink:title=" ">
<polygon fill="white" stroke="black" points="4665.5,-73 4665.5,-103 4798.5,-103 4798.5,-73 4665.5,-73"/>
<text text-anchor="start" x="4673.5" y="-91" font-family="Helvetica,sans-Serif" font-size="10.00">src/libs/vwidgets/export</text>
<text text-anchor="middle" x="4732" y="-80" font-family="Helvetica,sans-Serif" font-size="10.00">_format_combobox.cpp</text>
</a>
</g>
</g>
<!-- Node18&#45;&gt;Node42 -->
<g id="edge43" class="edge">
<title>Node18&#45;&gt;Node42</title>
<path fill="none" stroke="midnightblue" d="M3607.77,-161.07C3875.05,-151.12 4554.29,-124.67 4656,-109 4665.44,-107.55 4675.4,-105.39 4684.89,-103.03"/>
<polygon fill="midnightblue" stroke="midnightblue" points="3607.52,-157.57 3597.66,-161.44 3607.78,-164.57 3607.52,-157.57"/>
</g>
<!-- Node43 -->
<g id="node38" class="node">
<title>Node43</title>
<g id="a_node38"><a xlink:href="../../d3/d4f/mouse__coordinates_8cpp.html" target="_top" xlink:title=" ">
<polygon fill="white" stroke="black" points="4817,-73 4817,-103 4951,-103 4951,-73 4817,-73"/>
<text text-anchor="start" x="4825" y="-91" font-family="Helvetica,sans-Serif" font-size="10.00">src/libs/vwidgets/mouse</text>
<text text-anchor="middle" x="4884" y="-80" font-family="Helvetica,sans-Serif" font-size="10.00">_coordinates.cpp</text>
</a>
</g>
</g>
<!-- Node18&#45;&gt;Node43 -->
<g id="edge44" class="edge">
<title>Node18&#45;&gt;Node43</title>
<path fill="none" stroke="midnightblue" d="M3607.71,-161.02C3910.18,-149.75 4749.13,-117.9 4808,-109 4817.44,-107.57 4827.4,-105.43 4836.89,-103.07"/>
<polygon fill="midnightblue" stroke="midnightblue" points="3607.48,-157.52 3597.62,-161.39 3607.74,-164.52 3607.48,-157.52"/>
</g>
<!-- Node44 -->
<g id="node39" class="node">
<title>Node44</title>
<g id="a_node39"><a xlink:href="../../d2/d28/page__format__combobox_8cpp.html" target="_top" xlink:title=" ">
<polygon fill="white" stroke="black" points="4969.5,-73 4969.5,-103 5100.5,-103 5100.5,-73 4969.5,-73"/>
<text text-anchor="start" x="4977.5" y="-91" font-family="Helvetica,sans-Serif" font-size="10.00">src/libs/vwidgets/page</text>
<text text-anchor="middle" x="5035" y="-80" font-family="Helvetica,sans-Serif" font-size="10.00">_format_combobox.cpp</text>
</a>
</g>
</g>
<!-- Node18&#45;&gt;Node44 -->
<g id="edge45" class="edge">
<title>Node18&#45;&gt;Node44</title>
<path fill="none" stroke="midnightblue" d="M3607.87,-161.18C3939.96,-149.39 4926.64,-114.02 4960,-109 4969.46,-107.58 4979.44,-105.4 4988.93,-103.01"/>
<polygon fill="midnightblue" stroke="midnightblue" points="3607.63,-157.69 3597.76,-161.54 3607.88,-164.68 3607.63,-157.69"/>
</g>
<!-- Node45 -->
<g id="node40" class="node">
<title>Node45</title>
<g id="a_node40"><a xlink:href="../../d7/d1b/pen__toolbar_8cpp.html" target="_top" xlink:title=" ">
<polygon fill="white" stroke="black" points="5118.5,-73 5118.5,-103 5237.5,-103 5237.5,-73 5118.5,-73"/>
<text text-anchor="start" x="5126.5" y="-91" font-family="Helvetica,sans-Serif" font-size="10.00">src/libs/vwidgets/pen</text>
<text text-anchor="middle" x="5178" y="-80" font-family="Helvetica,sans-Serif" font-size="10.00">_toolbar.cpp</text>
</a>
</g>
</g>
<!-- Node18&#45;&gt;Node45 -->
<g id="edge46" class="edge">
<title>Node18&#45;&gt;Node45</title>
<path fill="none" stroke="midnightblue" d="M3607.89,-161.18C3722.15,-157.14 3907.78,-150.59 4068,-145 4299.55,-136.92 4881.28,-145.98 5110,-109 5118.62,-107.61 5127.7,-105.45 5136.3,-103.05"/>
<polygon fill="midnightblue" stroke="midnightblue" points="3607.61,-157.69 3597.74,-161.54 3607.86,-164.68 3607.61,-157.69"/>
</g>
<!-- Node46 -->
<g id="node41" class="node">
<title>Node46</title>
<g id="a_node41"><a xlink:href="../../d8/d76/scene__rect_8cpp.html" target="_top" xlink:title=" ">
<polygon fill="white" stroke="black" points="5256,-73 5256,-103 5386,-103 5386,-73 5256,-73"/>
<text text-anchor="start" x="5264" y="-91" font-family="Helvetica,sans-Serif" font-size="10.00">src/libs/vwidgets/scene</text>
<text text-anchor="middle" x="5321" y="-80" font-family="Helvetica,sans-Serif" font-size="10.00">_rect.cpp</text>
</a>
</g>
</g>
<!-- Node18&#45;&gt;Node46 -->
<g id="edge47" class="edge">
<title>Node18&#45;&gt;Node46</title>
<path fill="none" stroke="midnightblue" d="M3607.89,-161.05C3722.14,-156.9 3907.77,-150.27 4068,-145 4329.98,-136.39 4987.71,-147.46 5247,-109 5256.35,-107.61 5266.2,-105.46 5275.56,-103.07"/>
<polygon fill="midnightblue" stroke="midnightblue" points="3607.61,-157.56 3597.74,-161.42 3607.86,-164.55 3607.61,-157.56"/>
</g>
<!-- Node47 -->
<g id="node42" class="node">
<title>Node47</title>
<g id="a_node42"><a xlink:href="../../dd/df6/vabstractmainwindow_8cpp.html" target="_top" xlink:title=" ">
<polygon fill="white" stroke="black" points="1892.5,-78.5 1892.5,-97.5 2121.5,-97.5 2121.5,-78.5 1892.5,-78.5"/>
<text text-anchor="middle" x="2007" y="-85.5" font-family="Helvetica,sans-Serif" font-size="10.00">src/libs/vwidgets/vabstractmainwindow.cpp</text>
</a>
</g>
</g>
<!-- Node18&#45;&gt;Node47 -->
<g id="edge48" class="edge">
<title>Node18&#45;&gt;Node47</title>
<path fill="none" stroke="midnightblue" d="M3392.09,-164.94C3160.5,-163.87 2598.87,-156.13 2131,-109 2104.53,-106.33 2075.13,-101.67 2051.6,-97.51"/>
<polygon fill="midnightblue" stroke="midnightblue" points="3392.18,-168.44 3402.2,-164.99 3392.21,-161.44 3392.18,-168.44"/>
</g>
<!-- Node48 -->
<g id="node43" class="node">
<title>Node48</title>
<g id="a_node43"><a xlink:href="../../de/d45/vcontrolpointspline_8cpp.html" target="_top" xlink:title=" ">
<polygon fill="white" stroke="black" points="2139.5,-78.5 2139.5,-97.5 2354.5,-97.5 2354.5,-78.5 2139.5,-78.5"/>
<text text-anchor="middle" x="2247" y="-85.5" font-family="Helvetica,sans-Serif" font-size="10.00">src/libs/vwidgets/vcontrolpointspline.cpp</text>
</a>
</g>
</g>
<!-- Node18&#45;&gt;Node48 -->
<g id="edge49" class="edge">
<title>Node18&#45;&gt;Node48</title>
<path fill="none" stroke="midnightblue" d="M3392.41,-163.99C3190.32,-161.15 2740.4,-150.3 2364,-109 2339.21,-106.28 2311.72,-101.66 2289.62,-97.55"/>
<polygon fill="midnightblue" stroke="midnightblue" points="3392.39,-167.49 3402.43,-164.13 3392.48,-160.49 3392.39,-167.49"/>
</g>
<!-- Node49 -->
<g id="node44" class="node">
<title>Node49</title>
<g id="a_node44"><a xlink:href="../../d1/d90/vgrainlineitem_8cpp.html" target="_top" xlink:title=" ">
<polygon fill="white" stroke="black" points="2372.5,-78.5 2372.5,-97.5 2565.5,-97.5 2565.5,-78.5 2372.5,-78.5"/>
<text text-anchor="middle" x="2469" y="-85.5" font-family="Helvetica,sans-Serif" font-size="10.00">src/libs/vwidgets/vgrainlineitem.cpp</text>
</a>
</g>
</g>
<!-- Node18&#45;&gt;Node49 -->
<g id="edge50" class="edge">
<title>Node18&#45;&gt;Node49</title>
<path fill="none" stroke="midnightblue" d="M3392.29,-162.88C3219.35,-158.48 2869.3,-145.52 2575,-109 2552.7,-106.23 2528.01,-101.66 2508.08,-97.59"/>
<polygon fill="midnightblue" stroke="midnightblue" points="3392.33,-166.38 3402.41,-163.13 3392.5,-159.38 3392.33,-166.38"/>
</g>
<!-- Node27&#45;&gt;Node28 -->
<g id="edge27" class="edge">
<title>Node27&#45;&gt;Node28</title>
<path fill="none" stroke="midnightblue" d="M4415.73,-70.12C4411.45,-68.95 4407.17,-67.89 4403,-67 4257.22,-35.86 4081.23,-23.36 3994.56,-18.82"/>
<polygon fill="midnightblue" stroke="midnightblue" points="4415.06,-73.56 4425.64,-72.98 4417,-66.84 4415.06,-73.56"/>
</g>
<!-- Node38&#45;&gt;Node39 -->
<g id="edge40" class="edge">
<title>Node38&#45;&gt;Node39</title>
<path fill="none" stroke="midnightblue" d="M3287.72,-70.14C3283.12,-68.93 3278.5,-67.85 3274,-67 3122.8,-38.52 2650.66,-22.64 2490.65,-17.97"/>
<polygon fill="midnightblue" stroke="midnightblue" points="3287.12,-73.61 3297.69,-72.99 3289.04,-66.88 3287.12,-73.61"/>
</g>
<!-- Node59&#45;&gt;Node3 -->
<g id="edge53" class="edge">
<title>Node59&#45;&gt;Node3</title>
<path fill="none" stroke="midnightblue" d="M4637.39,-163.03C4852.93,-157.27 5451.34,-138.98 5646,-109 5648.87,-108.56 5651.78,-108.05 5654.72,-107.5"/>
<polygon fill="midnightblue" stroke="midnightblue" points="4637.02,-159.53 4627.11,-163.3 4637.2,-166.53 4637.02,-159.53"/>
</g>
</g>
</svg>
