<?xml version="1.0" encoding="UTF-8" standalone="no"?>
<!DOCTYPE svg PUBLIC "-//W3C//DTD SVG 1.1//EN"
 "http://www.w3.org/Graphics/SVG/1.1/DTD/svg11.dtd">
<!-- Generated by graphviz version 2.43.0 (0)
 -->
<!-- Title: src/libs/ifc/exception/vexceptionconversionerror.h Pages: 1 -->
<svg width="817pt" height="313pt"
 viewBox="0.00 0.00 816.50 313.00" xmlns="http://www.w3.org/2000/svg" xmlns:xlink="http://www.w3.org/1999/xlink">
<g id="graph0" class="graph" transform="scale(1 1) rotate(0) translate(4 309)">
<title>src/libs/ifc/exception/vexceptionconversionerror.h</title>
<!-- Node1 -->
<g id="Node000001" class="node">
<title>Node1</title>
<g id="a_Node000001"><a xlink:title=" ">
<polygon fill="#999999" stroke="#666666" points="478.5,-305 320.5,-305 320.5,-275 478.5,-275 478.5,-305"/>
<text text-anchor="start" x="328.5" y="-293" font-family="Helvetica,sans-Serif" font-size="10.00">src/libs/ifc/exception</text>
<text text-anchor="middle" x="399.5" y="-282" font-family="Helvetica,sans-Serif" font-size="10.00">/vexceptionconversionerror.h</text>
</a>
</g>
</g>
<!-- Node2 -->
<g id="Node000002" class="node">
<title>Node2</title>
<g id="a_Node000002"><a xlink:title=" ">
<polygon fill="#e0e0e0" stroke="#999999" points="808.5,-74 688.5,-74 688.5,-55 808.5,-55 808.5,-74"/>
<text text-anchor="middle" x="748.5" y="-62" font-family="Helvetica,sans-Serif" font-size="10.00">qcompilerdetection.h</text>
</a>
</g>
</g>
<!-- Node1&#45;&gt;Node2 -->
<g id="edge1_Node000001_Node000002" class="edge">
<title>Node1&#45;&gt;Node2</title>
<g id="a_edge1_Node000001_Node000002"><a xlink:title=" ">
<path fill="none" stroke="#63b8ff" d="M478.52,-278.74C544.15,-266.46 636.19,-240.02 696.5,-184 725.89,-156.7 739.58,-109.82 745.17,-83.97"/>
<polygon fill="#63b8ff" stroke="#63b8ff" points="748.64,-84.49 747.15,-74 741.77,-83.13 748.64,-84.49"/>
</a>
</g>
</g>
<!-- Node3 -->
<g id="Node000003" class="node">
<title>Node3</title>
<g id="a_Node000003"><a xlink:title=" ">
<polygon fill="#e0e0e0" stroke="#999999" points="53,-74 0,-74 0,-55 53,-55 53,-74"/>
<text text-anchor="middle" x="26.5" y="-62" font-family="Helvetica,sans-Serif" font-size="10.00">QString</text>
</a>
</g>
</g>
<!-- Node1&#45;&gt;Node3 -->
<g id="edge2_Node000001_Node000003" class="edge">
<title>Node1&#45;&gt;Node3</title>
<g id="a_edge2_Node000001_Node000003"><a xlink:title=" ">
<path fill="none" stroke="#63b8ff" d="M369.99,-274.84C316.23,-248.63 199.43,-189.63 107.5,-129 84.85,-114.06 60.56,-94.5 44.56,-81.05"/>
<polygon fill="#63b8ff" stroke="#63b8ff" points="46.47,-78.09 36.58,-74.28 41.94,-83.42 46.47,-78.09"/>
</a>
</g>
</g>
<!-- Node4 -->
<g id="Node000004" class="node">
<title>Node4</title>
<g id="a_Node000004"><a xlink:href="../../d3/da5/ifcdef_8h.html" target="_top" xlink:title=" ">
<polygon fill="white" stroke="#666666" points="392.5,-184 330.5,-184 330.5,-165 392.5,-165 392.5,-184"/>
<text text-anchor="middle" x="361.5" y="-172" font-family="Helvetica,sans-Serif" font-size="10.00">../ifcdef.h</text>
</a>
</g>
</g>
<!-- Node1&#45;&gt;Node4 -->
<g id="edge3_Node000001_Node000004" class="edge">
<title>Node1&#45;&gt;Node4</title>
<g id="a_edge3_Node000001_Node000004"><a xlink:title=" ">
<path fill="none" stroke="#63b8ff" d="M394.69,-274.63C387.82,-254.12 375.22,-216.47 367.67,-193.93"/>
<polygon fill="#63b8ff" stroke="#63b8ff" points="370.92,-192.6 364.42,-184.23 364.28,-194.82 370.92,-192.6"/>
</a>
</g>
</g>
<!-- Node16 -->
<g id="Node000016" class="node">
<title>Node16</title>
<g id="a_Node000016"><a xlink:href="../../d1/d44/vexception_8h.html" target="_top" xlink:title=" ">
<polygon fill="white" stroke="#666666" points="481.5,-239 401.5,-239 401.5,-220 481.5,-220 481.5,-239"/>
<text text-anchor="middle" x="441.5" y="-227" font-family="Helvetica,sans-Serif" font-size="10.00">vexception.h</text>
</a>
</g>
</g>
<!-- Node1&#45;&gt;Node16 -->
<g id="edge21_Node000001_Node000016" class="edge">
<title>Node1&#45;&gt;Node16</title>
<g id="a_edge21_Node000001_Node000016"><a xlink:title=" ">
<path fill="none" stroke="#63b8ff" d="M409.67,-274.84C415.58,-266.61 423.06,-256.18 429.29,-247.51"/>
<polygon fill="#63b8ff" stroke="#63b8ff" points="432.22,-249.43 435.21,-239.27 426.53,-245.35 432.22,-249.43"/>
</a>
</g>
</g>
<!-- Node4&#45;&gt;Node3 -->
<g id="edge4_Node000004_Node000003" class="edge">
<title>Node4&#45;&gt;Node3</title>
<g id="a_edge4_Node000004_Node000003"><a xlink:title=" ">
<path fill="none" stroke="#63b8ff" d="M332.41,-164.99C302.69,-156.23 255.26,-142.05 214.5,-129 160.44,-111.69 98.08,-90.36 60.51,-77.35"/>
<polygon fill="#63b8ff" stroke="#63b8ff" points="61.65,-74.04 51.05,-74.07 59.35,-80.65 61.65,-74.04"/>
</a>
</g>
</g>
<!-- Node5 -->
<g id="Node000005" class="node">
<title>Node5</title>
<g id="a_Node000005"><a xlink:title=" ">
<polygon fill="#e0e0e0" stroke="#999999" points="141.5,-74 71.5,-74 71.5,-55 141.5,-55 141.5,-74"/>
<text text-anchor="middle" x="106.5" y="-62" font-family="Helvetica,sans-Serif" font-size="10.00">QStringList</text>
</a>
</g>
</g>
<!-- Node4&#45;&gt;Node5 -->
<g id="edge5_Node000004_Node000005" class="edge">
<title>Node4&#45;&gt;Node5</title>
<g id="a_edge5_Node000004_Node000005"><a xlink:title=" ">
<path fill="none" stroke="#63b8ff" d="M341.06,-164.84C296.1,-145.8 188.43,-100.2 136.08,-78.03"/>
<polygon fill="#63b8ff" stroke="#63b8ff" points="137.25,-74.72 126.68,-74.05 134.52,-81.17 137.25,-74.72"/>
</a>
</g>
</g>
<!-- Node6 -->
<g id="Node000006" class="node">
<title>Node6</title>
<g id="a_Node000006"><a xlink:title=" ">
<polygon fill="#e0e0e0" stroke="#999999" points="670,-74 611,-74 611,-55 670,-55 670,-74"/>
<text text-anchor="middle" x="640.5" y="-62" font-family="Helvetica,sans-Serif" font-size="10.00">QtGlobal</text>
</a>
</g>
</g>
<!-- Node4&#45;&gt;Node6 -->
<g id="edge6_Node000004_Node000006" class="edge">
<title>Node4&#45;&gt;Node6</title>
<g id="a_edge6_Node000004_Node000006"><a xlink:title=" ">
<path fill="none" stroke="#63b8ff" d="M391.67,-164.94C420.07,-156.63 463.62,-143.21 500.5,-129 511.59,-124.73 575,-95.67 612.57,-78.38"/>
<polygon fill="#63b8ff" stroke="#63b8ff" points="614.35,-81.41 621.97,-74.05 611.42,-75.05 614.35,-81.41"/>
</a>
</g>
</g>
<!-- Node7 -->
<g id="Node000007" class="node">
<title>Node7</title>
<g id="a_Node000007"><a xlink:href="../../d4/da4/def_8h.html" target="_top" xlink:title=" ">
<polygon fill="white" stroke="#666666" points="355.5,-129 273.5,-129 273.5,-110 355.5,-110 355.5,-129"/>
<text text-anchor="middle" x="314.5" y="-117" font-family="Helvetica,sans-Serif" font-size="10.00">../vmisc/def.h</text>
</a>
</g>
</g>
<!-- Node4&#45;&gt;Node7 -->
<g id="edge7_Node000004_Node000007" class="edge">
<title>Node4&#45;&gt;Node7</title>
<g id="a_edge7_Node000004_Node000007"><a xlink:title=" ">
<path fill="none" stroke="#63b8ff" d="M353.74,-164.75C347.03,-157.18 337.16,-146.05 328.99,-136.84"/>
<polygon fill="#63b8ff" stroke="#63b8ff" points="331.37,-134.25 322.12,-129.09 326.13,-138.89 331.37,-134.25"/>
</a>
</g>
</g>
<!-- Node15 -->
<g id="Node000015" class="node">
<title>Node15</title>
<g id="a_Node000015"><a xlink:href="../../d6/dcd/diagnostic_8h.html" target="_top" xlink:title=" ">
<polygon fill="white" stroke="#666666" points="491,-129 374,-129 374,-110 491,-110 491,-129"/>
<text text-anchor="middle" x="432.5" y="-117" font-family="Helvetica,sans-Serif" font-size="10.00">../vmisc/diagnostic.h</text>
</a>
</g>
</g>
<!-- Node4&#45;&gt;Node15 -->
<g id="edge19_Node000004_Node000015" class="edge">
<title>Node4&#45;&gt;Node15</title>
<g id="a_edge19_Node000004_Node000015"><a xlink:title=" ">
<path fill="none" stroke="#63b8ff" d="M372.91,-164.98C383.61,-157 399.84,-144.88 412.66,-135.31"/>
<polygon fill="#63b8ff" stroke="#63b8ff" points="414.97,-137.96 420.89,-129.17 410.78,-132.35 414.97,-137.96"/>
</a>
</g>
</g>
<!-- Node7&#45;&gt;Node2 -->
<g id="edge8_Node000007_Node000002" class="edge">
<title>Node7&#45;&gt;Node2</title>
<g id="a_edge8_Node000007_Node000002"><a xlink:title=" ">
<path fill="none" stroke="#63b8ff" d="M355.67,-111.45C358.99,-110.94 362.3,-110.45 365.5,-110 501.34,-90.91 538.3,-90.59 678.05,-74.16"/>
<polygon fill="#63b8ff" stroke="#63b8ff" points="678.77,-77.6 688.29,-72.95 677.95,-70.65 678.77,-77.6"/>
</a>
</g>
</g>
<!-- Node7&#45;&gt;Node3 -->
<g id="edge11_Node000007_Node000003" class="edge">
<title>Node7&#45;&gt;Node3</title>
<g id="a_edge11_Node000007_Node000003"><a xlink:title=" ">
<path fill="none" stroke="#63b8ff" d="M273.33,-111.97C225.38,-104.2 143.53,-90.44 63.46,-74.09"/>
<polygon fill="#63b8ff" stroke="#63b8ff" points="63.7,-70.57 53.2,-71.98 62.29,-77.43 63.7,-70.57"/>
</a>
</g>
</g>
<!-- Node7&#45;&gt;Node5 -->
<g id="edge12_Node000007_Node000005" class="edge">
<title>Node7&#45;&gt;Node5</title>
<g id="a_edge12_Node000007_Node000005"><a xlink:title=" ">
<path fill="none" stroke="#63b8ff" d="M281.08,-109.98C245.56,-100.93 189.23,-86.58 150.2,-76.64"/>
<polygon fill="#63b8ff" stroke="#63b8ff" points="150.74,-73.16 140.18,-74.08 149.01,-79.94 150.74,-73.16"/>
</a>
</g>
</g>
<!-- Node7&#45;&gt;Node6 -->
<g id="edge14_Node000007_Node000006" class="edge">
<title>Node7&#45;&gt;Node6</title>
<g id="a_edge14_Node000007_Node000006"><a xlink:title=" ">
<path fill="none" stroke="#63b8ff" d="M355.69,-111.58C359.01,-111.04 362.31,-110.51 365.5,-110 467.53,-93.75 496.07,-93.63 600.65,-74.25"/>
<polygon fill="#63b8ff" stroke="#63b8ff" points="601.48,-77.66 610.67,-72.38 600.2,-70.77 601.48,-77.66"/>
</a>
</g>
</g>
<!-- Node8 -->
<g id="Node000008" class="node">
<title>Node8</title>
<g id="a_Node000008"><a xlink:title=" ">
<polygon fill="#e0e0e0" stroke="#999999" points="593,-74 520,-74 520,-55 593,-55 593,-74"/>
<text text-anchor="middle" x="556.5" y="-62" font-family="Helvetica,sans-Serif" font-size="10.00">QFileDialog</text>
</a>
</g>
</g>
<!-- Node7&#45;&gt;Node8 -->
<g id="edge9_Node000007_Node000008" class="edge">
<title>Node7&#45;&gt;Node8</title>
<g id="a_edge9_Node000007_Node000008"><a xlink:title=" ">
<path fill="none" stroke="#63b8ff" d="M353.38,-109.98C395.99,-100.65 464.31,-85.69 509.79,-75.73"/>
<polygon fill="#63b8ff" stroke="#63b8ff" points="510.68,-79.12 519.7,-73.56 509.18,-72.28 510.68,-79.12"/>
</a>
</g>
</g>
<!-- Node9 -->
<g id="Node000009" class="node">
<title>Node9</title>
<g id="a_Node000009"><a xlink:title=" ">
<polygon fill="#e0e0e0" stroke="#999999" points="209.5,-74 159.5,-74 159.5,-55 209.5,-55 209.5,-74"/>
<text text-anchor="middle" x="184.5" y="-62" font-family="Helvetica,sans-Serif" font-size="10.00">QLineF</text>
</a>
</g>
</g>
<!-- Node7&#45;&gt;Node9 -->
<g id="edge10_Node000007_Node000009" class="edge">
<title>Node7&#45;&gt;Node9</title>
<g id="a_edge10_Node000007_Node000009"><a xlink:title=" ">
<path fill="none" stroke="#63b8ff" d="M293.61,-109.98C272.42,-101.34 239.37,-87.87 215.2,-78.02"/>
<polygon fill="#63b8ff" stroke="#63b8ff" points="216.35,-74.7 205.77,-74.17 213.71,-81.19 216.35,-74.7"/>
</a>
</g>
</g>
<!-- Node10 -->
<g id="Node000010" class="node">
<title>Node10</title>
<g id="a_Node000010"><a xlink:title=" ">
<polygon fill="#e0e0e0" stroke="#999999" points="257,-74 228,-74 228,-55 257,-55 257,-74"/>
<text text-anchor="middle" x="242.5" y="-62" font-family="Helvetica,sans-Serif" font-size="10.00">Qt</text>
</a>
</g>
</g>
<!-- Node7&#45;&gt;Node10 -->
<g id="edge13_Node000007_Node000010" class="edge">
<title>Node7&#45;&gt;Node10</title>
<g id="a_edge13_Node000007_Node000010"><a xlink:title=" ">
<path fill="none" stroke="#63b8ff" d="M302.93,-109.98C292.08,-102 275.62,-89.88 262.62,-80.31"/>
<polygon fill="#63b8ff" stroke="#63b8ff" points="264.41,-77.28 254.28,-74.17 260.26,-82.92 264.41,-77.28"/>
</a>
</g>
</g>
<!-- Node11 -->
<g id="Node000011" class="node">
<title>Node11</title>
<g id="a_Node000011"><a xlink:title=" ">
<polygon fill="#e0e0e0" stroke="#999999" points="331.5,-74 275.5,-74 275.5,-55 331.5,-55 331.5,-74"/>
<text text-anchor="middle" x="303.5" y="-62" font-family="Helvetica,sans-Serif" font-size="10.00">QPrinter</text>
</a>
</g>
</g>
<!-- Node7&#45;&gt;Node11 -->
<g id="edge15_Node000007_Node000011" class="edge">
<title>Node7&#45;&gt;Node11</title>
<g id="a_edge15_Node000007_Node000011"><a xlink:title=" ">
<path fill="none" stroke="#63b8ff" d="M312.68,-109.75C311.24,-102.8 309.18,-92.85 307.37,-84.13"/>
<polygon fill="#63b8ff" stroke="#63b8ff" points="310.74,-83.17 305.28,-74.09 303.89,-84.59 310.74,-83.17"/>
</a>
</g>
</g>
<!-- Node12 -->
<g id="Node000012" class="node">
<title>Node12</title>
<g id="a_Node000012"><a xlink:title=" ">
<polygon fill="#e0e0e0" stroke="#999999" points="401,-74 350,-74 350,-55 401,-55 401,-74"/>
<text text-anchor="middle" x="375.5" y="-62" font-family="Helvetica,sans-Serif" font-size="10.00">csignal</text>
</a>
</g>
</g>
<!-- Node7&#45;&gt;Node12 -->
<g id="edge16_Node000007_Node000012" class="edge">
<title>Node7&#45;&gt;Node12</title>
<g id="a_edge16_Node000007_Node000012"><a xlink:title=" ">
<path fill="none" stroke="#63b8ff" d="M324.3,-109.98C333.32,-102.15 346.91,-90.34 357.82,-80.86"/>
<polygon fill="#63b8ff" stroke="#63b8ff" points="360.27,-83.37 365.52,-74.17 355.68,-78.09 360.27,-83.37"/>
</a>
</g>
</g>
<!-- Node13 -->
<g id="Node000013" class="node">
<title>Node13</title>
<g id="a_Node000013"><a xlink:href="../../d4/d82/debugbreak_8h.html" target="_top" xlink:title=" ">
<polygon fill="white" stroke="#666666" points="502,-74 419,-74 419,-55 502,-55 502,-74"/>
<text text-anchor="middle" x="460.5" y="-62" font-family="Helvetica,sans-Serif" font-size="10.00">debugbreak.h</text>
</a>
</g>
</g>
<!-- Node7&#45;&gt;Node13 -->
<g id="edge17_Node000007_Node000013" class="edge">
<title>Node7&#45;&gt;Node13</title>
<g id="a_edge17_Node000007_Node000013"><a xlink:title=" ">
<path fill="none" stroke="#63b8ff" d="M337.96,-109.98C362.08,-101.23 399.87,-87.51 427.1,-77.62"/>
<polygon fill="#63b8ff" stroke="#63b8ff" points="428.41,-80.87 436.62,-74.17 426.02,-74.29 428.41,-80.87"/>
</a>
</g>
</g>
<!-- Node14 -->
<g id="Node000014" class="node">
<title>Node14</title>
<g id="a_Node000014"><a xlink:title=" ">
<polygon fill="#e0e0e0" stroke="#999999" points="488,-19 433,-19 433,0 488,0 488,-19"/>
<text text-anchor="middle" x="460.5" y="-7" font-family="Helvetica,sans-Serif" font-size="10.00">signal.h</text>
</a>
</g>
</g>
<!-- Node13&#45;&gt;Node14 -->
<g id="edge18_Node000013_Node000014" class="edge">
<title>Node13&#45;&gt;Node14</title>
<g id="a_edge18_Node000013_Node000014"><a xlink:title=" ">
<path fill="none" stroke="#63b8ff" d="M460.5,-54.75C460.5,-47.8 460.5,-37.85 460.5,-29.13"/>
<polygon fill="#63b8ff" stroke="#63b8ff" points="464,-29.09 460.5,-19.09 457,-29.09 464,-29.09"/>
</a>
</g>
</g>
<!-- Node15&#45;&gt;Node6 -->
<g id="edge20_Node000015_Node000006" class="edge">
<title>Node15&#45;&gt;Node6</title>
<g id="a_edge20_Node000015_Node000006"><a xlink:title=" ">
<path fill="none" stroke="#63b8ff" d="M465.92,-109.98C502.79,-100.59 562.06,-85.49 601.15,-75.53"/>
<polygon fill="#63b8ff" stroke="#63b8ff" points="602.04,-78.91 610.87,-73.05 600.31,-72.13 602.04,-78.91"/>
</a>
</g>
</g>
<!-- Node16&#45;&gt;Node2 -->
<g id="edge22_Node000016_Node000002" class="edge">
<title>Node16&#45;&gt;Node2</title>
<g id="a_edge22_Node000016_Node000002"><a xlink:title=" ">
<path fill="none" stroke="#63b8ff" d="M457.57,-219.97C507.81,-193.29 662.17,-111.34 723.24,-78.91"/>
<polygon fill="#63b8ff" stroke="#63b8ff" points="725.02,-81.93 732.22,-74.15 721.74,-75.74 725.02,-81.93"/>
</a>
</g>
</g>
<!-- Node16&#45;&gt;Node3 -->
<g id="edge25_Node000016_Node000003" class="edge">
<title>Node16&#45;&gt;Node3</title>
<g id="a_edge25_Node000016_Node000003"><a xlink:title=" ">
<path fill="none" stroke="#63b8ff" d="M412.3,-219.88C359.59,-204.01 245.39,-168.19 152.5,-129 116.08,-113.63 75.5,-92.41 50.49,-78.81"/>
<polygon fill="#63b8ff" stroke="#63b8ff" points="52.15,-75.74 41.7,-74.01 48.79,-81.88 52.15,-75.74"/>
</a>
</g>
</g>
<!-- Node16&#45;&gt;Node4 -->
<g id="edge26_Node000016_Node000004" class="edge">
<title>Node16&#45;&gt;Node4</title>
<g id="a_edge26_Node000016_Node000004"><a xlink:title=" ">
<path fill="none" stroke="#63b8ff" d="M428.65,-219.98C416.36,-211.84 397.59,-199.41 383.02,-189.76"/>
<polygon fill="#63b8ff" stroke="#63b8ff" points="384.86,-186.78 374.59,-184.17 380.99,-192.61 384.86,-186.78"/>
</a>
</g>
</g>
<!-- Node17 -->
<g id="Node000017" class="node">
<title>Node17</title>
<g id="a_Node000017"><a xlink:title=" ">
<polygon fill="#e0e0e0" stroke="#999999" points="687,-184 586,-184 586,-165 687,-165 687,-184"/>
<text text-anchor="middle" x="636.5" y="-172" font-family="Helvetica,sans-Serif" font-size="10.00">QCoreApplication</text>
</a>
</g>
</g>
<!-- Node16&#45;&gt;Node17 -->
<g id="edge23_Node000016_Node000017" class="edge">
<title>Node16&#45;&gt;Node17</title>
<g id="a_edge23_Node000016_Node000017"><a xlink:title=" ">
<path fill="none" stroke="#63b8ff" d="M472.83,-219.98C505.99,-210.97 558.5,-196.7 595.06,-186.76"/>
<polygon fill="#63b8ff" stroke="#63b8ff" points="596.19,-190.08 604.92,-184.08 594.36,-183.33 596.19,-190.08"/>
</a>
</g>
</g>
<!-- Node18 -->
<g id="Node000018" class="node">
<title>Node18</title>
<g id="a_Node000018"><a xlink:title=" ">
<polygon fill="#e0e0e0" stroke="#999999" points="482.5,-184 410.5,-184 410.5,-165 482.5,-165 482.5,-184"/>
<text text-anchor="middle" x="446.5" y="-172" font-family="Helvetica,sans-Serif" font-size="10.00">QException</text>
</a>
</g>
</g>
<!-- Node16&#45;&gt;Node18 -->
<g id="edge24_Node000016_Node000018" class="edge">
<title>Node16&#45;&gt;Node18</title>
<g id="a_edge24_Node000016_Node000018"><a xlink:title=" ">
<path fill="none" stroke="#63b8ff" d="M442.33,-219.75C442.98,-212.8 443.92,-202.85 444.74,-194.13"/>
<polygon fill="#63b8ff" stroke="#63b8ff" points="448.23,-194.37 445.69,-184.09 441.27,-193.72 448.23,-194.37"/>
</a>
</g>
</g>
</g>
</svg>
