<?xml version="1.0" encoding="UTF-8" standalone="no"?>
<!DOCTYPE svg PUBLIC "-//W3C//DTD SVG 1.1//EN"
 "http://www.w3.org/Graphics/SVG/1.1/DTD/svg11.dtd">
<!-- Generated by graphviz version 2.43.0 (0)
 -->
<!-- Title: src/libs/vtools/tools/drawTools/toolcurve/vabstractspline.h Pages: 1 -->
<svg width="2390pt" height="384pt"
 viewBox="0.00 0.00 2389.50 384.00" xmlns="http://www.w3.org/2000/svg" xmlns:xlink="http://www.w3.org/1999/xlink">
<g id="graph0" class="graph" transform="scale(1 1) rotate(0) translate(4 380)">
<title>src/libs/vtools/tools/drawTools/toolcurve/vabstractspline.h</title>
<polygon fill="white" stroke="transparent" points="-4,4 -4,-380 2385.5,-380 2385.5,4 -4,4"/>
<!-- Node1 -->
<g id="node1" class="node">
<title>Node1</title>
<g id="a_node1"><a xlink:title=" ">
<polygon fill="#bfbfbf" stroke="black" points="668,-334.5 668,-375.5 785,-375.5 785,-334.5 668,-334.5"/>
<text text-anchor="start" x="676" y="-363.5" font-family="Helvetica,sans-Serif" font-size="10.00">src/libs/vtools/tools</text>
<text text-anchor="start" x="676" y="-352.5" font-family="Helvetica,sans-Serif" font-size="10.00">/drawTools/toolcurve</text>
<text text-anchor="middle" x="726.5" y="-341.5" font-family="Helvetica,sans-Serif" font-size="10.00">/vabstractspline.h</text>
</a>
</g>
</g>
<!-- Node2 -->
<g id="node2" class="node">
<title>Node2</title>
<g id="a_node2"><a xlink:href="../../d2/d9b/vtoolarc_8cpp.html" target="_top" xlink:title=" ">
<polygon fill="white" stroke="black" points="236,-162 236,-203 353,-203 353,-162 236,-162"/>
<text text-anchor="start" x="244" y="-191" font-family="Helvetica,sans-Serif" font-size="10.00">src/libs/vtools/tools</text>
<text text-anchor="start" x="244" y="-180" font-family="Helvetica,sans-Serif" font-size="10.00">/drawTools/toolcurve</text>
<text text-anchor="middle" x="294.5" y="-169" font-family="Helvetica,sans-Serif" font-size="10.00">/vtoolarc.cpp</text>
</a>
</g>
</g>
<!-- Node1&#45;&gt;Node2 -->
<g id="edge1" class="edge">
<title>Node1&#45;&gt;Node2</title>
<path fill="none" stroke="midnightblue" d="M657.69,-350.28C566.15,-344.19 410.4,-329.45 363.5,-298 329.58,-275.25 309.68,-229.66 300.56,-203.39"/>
<polygon fill="midnightblue" stroke="midnightblue" points="657.5,-353.78 667.71,-350.93 657.95,-346.79 657.5,-353.78"/>
</g>
<!-- Node3 -->
<g id="node3" class="node">
<title>Node3</title>
<g id="a_node3"><a xlink:href="../../d3/d19/vtoolarc_8h.html" target="_top" xlink:title=" ">
<polygon fill="white" stroke="black" points="174,-251 174,-292 291,-292 291,-251 174,-251"/>
<text text-anchor="start" x="182" y="-280" font-family="Helvetica,sans-Serif" font-size="10.00">src/libs/vtools/tools</text>
<text text-anchor="start" x="182" y="-269" font-family="Helvetica,sans-Serif" font-size="10.00">/drawTools/toolcurve</text>
<text text-anchor="middle" x="232.5" y="-258" font-family="Helvetica,sans-Serif" font-size="10.00">/vtoolarc.h</text>
</a>
</g>
</g>
<!-- Node1&#45;&gt;Node3 -->
<g id="edge2" class="edge">
<title>Node1&#45;&gt;Node3</title>
<path fill="none" stroke="midnightblue" d="M657.75,-349.18C573.75,-342.3 427.71,-327.15 305.5,-298 298.58,-296.35 291.4,-294.29 284.35,-292.06"/>
<polygon fill="midnightblue" stroke="midnightblue" points="657.68,-352.69 667.93,-350 658.24,-345.71 657.68,-352.69"/>
</g>
<!-- Node6 -->
<g id="node6" class="node">
<title>Node6</title>
<g id="a_node6"><a xlink:href="../../de/dd9/vtoolarcwithlength_8h.html" target="_top" xlink:title=" ">
<polygon fill="white" stroke="black" points="385.5,-251 385.5,-292 505.5,-292 505.5,-251 385.5,-251"/>
<text text-anchor="start" x="393.5" y="-280" font-family="Helvetica,sans-Serif" font-size="10.00">src/libs/vtools/tools</text>
<text text-anchor="start" x="393.5" y="-269" font-family="Helvetica,sans-Serif" font-size="10.00">/drawTools/toolcurve</text>
<text text-anchor="middle" x="445.5" y="-258" font-family="Helvetica,sans-Serif" font-size="10.00">/vtoolarcwithlength.h</text>
</a>
</g>
</g>
<!-- Node1&#45;&gt;Node6 -->
<g id="edge6" class="edge">
<title>Node1&#45;&gt;Node6</title>
<path fill="none" stroke="midnightblue" d="M657.79,-337.62C616.06,-327.24 561.88,-312.98 514.5,-298 508.78,-296.19 502.83,-294.19 496.93,-292.12"/>
<polygon fill="midnightblue" stroke="midnightblue" points="657.03,-341.04 667.58,-340.04 658.71,-334.24 657.03,-341.04"/>
</g>
<!-- Node7 -->
<g id="node7" class="node">
<title>Node7</title>
<g id="a_node7"><a xlink:href="../../d3/d33/vtoolarcwithlength_8cpp.html" target="_top" xlink:title=" ">
<polygon fill="white" stroke="black" points="371,-162 371,-203 502,-203 502,-162 371,-162"/>
<text text-anchor="start" x="379" y="-191" font-family="Helvetica,sans-Serif" font-size="10.00">src/libs/vtools/tools</text>
<text text-anchor="start" x="379" y="-180" font-family="Helvetica,sans-Serif" font-size="10.00">/drawTools/toolcurve</text>
<text text-anchor="middle" x="436.5" y="-169" font-family="Helvetica,sans-Serif" font-size="10.00">/vtoolarcwithlength.cpp</text>
</a>
</g>
</g>
<!-- Node1&#45;&gt;Node7 -->
<g id="edge9" class="edge">
<title>Node1&#45;&gt;Node7</title>
<path fill="none" stroke="midnightblue" d="M657.72,-353.15C566.24,-350.39 411.91,-339.52 376.5,-298 361.22,-280.08 367.62,-266.82 376.5,-245 383.25,-228.42 396.85,-213.87 409.4,-203.09"/>
<polygon fill="midnightblue" stroke="midnightblue" points="657.64,-356.65 667.73,-353.43 657.83,-349.65 657.64,-356.65"/>
</g>
<!-- Node8 -->
<g id="node8" class="node">
<title>Node8</title>
<g id="a_node8"><a xlink:href="../../db/dcd/vtoolcubicbezier_8cpp.html" target="_top" xlink:title=" ">
<polygon fill="white" stroke="black" points="60,-162 60,-203 179,-203 179,-162 60,-162"/>
<text text-anchor="start" x="68" y="-191" font-family="Helvetica,sans-Serif" font-size="10.00">src/libs/vtools/tools</text>
<text text-anchor="start" x="68" y="-180" font-family="Helvetica,sans-Serif" font-size="10.00">/drawTools/toolcurve</text>
<text text-anchor="middle" x="119.5" y="-169" font-family="Helvetica,sans-Serif" font-size="10.00">/vtoolcubicbezier.cpp</text>
</a>
</g>
</g>
<!-- Node1&#45;&gt;Node8 -->
<g id="edge10" class="edge">
<title>Node1&#45;&gt;Node8</title>
<path fill="none" stroke="midnightblue" d="M657.52,-351.12C516.04,-344.65 203.07,-327.19 164.5,-298 134.52,-275.32 124.5,-229.7 121.16,-203.41"/>
<polygon fill="midnightblue" stroke="midnightblue" points="657.66,-354.63 667.81,-351.59 657.98,-347.64 657.66,-354.63"/>
</g>
<!-- Node9 -->
<g id="node9" class="node">
<title>Node9</title>
<g id="a_node9"><a xlink:href="../../d4/df1/vtoolcubicbezier_8h.html" target="_top" xlink:title=" ">
<polygon fill="white" stroke="black" points="0,-251 0,-292 117,-292 117,-251 0,-251"/>
<text text-anchor="start" x="8" y="-280" font-family="Helvetica,sans-Serif" font-size="10.00">src/libs/vtools/tools</text>
<text text-anchor="start" x="8" y="-269" font-family="Helvetica,sans-Serif" font-size="10.00">/drawTools/toolcurve</text>
<text text-anchor="middle" x="58.5" y="-258" font-family="Helvetica,sans-Serif" font-size="10.00">/vtoolcubicbezier.h</text>
</a>
</g>
</g>
<!-- Node1&#45;&gt;Node9 -->
<g id="edge11" class="edge">
<title>Node1&#45;&gt;Node9</title>
<path fill="none" stroke="midnightblue" d="M657.81,-352.91C546.19,-349.95 319,-338.94 131.5,-298 124.29,-296.43 116.8,-294.35 109.5,-292.06"/>
<polygon fill="midnightblue" stroke="midnightblue" points="657.84,-356.42 667.93,-353.17 658.02,-349.42 657.84,-356.42"/>
</g>
<!-- Node10 -->
<g id="node10" class="node">
<title>Node10</title>
<g id="a_node10"><a xlink:href="../../d6/d25/vtoolcubicbezierpath_8h.html" target="_top" xlink:title=" ">
<polygon fill="white" stroke="black" points="524,-251 524,-292 655,-292 655,-251 524,-251"/>
<text text-anchor="start" x="532" y="-280" font-family="Helvetica,sans-Serif" font-size="10.00">src/libs/vtools/tools</text>
<text text-anchor="start" x="532" y="-269" font-family="Helvetica,sans-Serif" font-size="10.00">/drawTools/toolcurve</text>
<text text-anchor="middle" x="589.5" y="-258" font-family="Helvetica,sans-Serif" font-size="10.00">/vtoolcubicbezierpath.h</text>
</a>
</g>
</g>
<!-- Node1&#45;&gt;Node10 -->
<g id="edge14" class="edge">
<title>Node1&#45;&gt;Node10</title>
<path fill="none" stroke="midnightblue" d="M685.06,-329.35C665.03,-317.43 641.31,-303.32 622.52,-292.14"/>
<polygon fill="midnightblue" stroke="midnightblue" points="683.3,-332.37 693.69,-334.48 686.88,-326.36 683.3,-332.37"/>
</g>
<!-- Node11 -->
<g id="node11" class="node">
<title>Node11</title>
<g id="a_node11"><a xlink:href="../../d4/d49/vtoolcubicbezierpath_8cpp.html" target="_top" xlink:title=" ">
<polygon fill="white" stroke="black" points="596.5,-162 596.5,-203 738.5,-203 738.5,-162 596.5,-162"/>
<text text-anchor="start" x="604.5" y="-191" font-family="Helvetica,sans-Serif" font-size="10.00">src/libs/vtools/tools</text>
<text text-anchor="start" x="604.5" y="-180" font-family="Helvetica,sans-Serif" font-size="10.00">/drawTools/toolcurve</text>
<text text-anchor="middle" x="667.5" y="-169" font-family="Helvetica,sans-Serif" font-size="10.00">/vtoolcubicbezierpath.cpp</text>
</a>
</g>
</g>
<!-- Node1&#45;&gt;Node11 -->
<g id="edge17" class="edge">
<title>Node1&#45;&gt;Node11</title>
<path fill="none" stroke="midnightblue" d="M713.36,-324.99C709.65,-316.38 705.75,-306.88 702.5,-298 690.5,-265.21 679.18,-226.14 672.81,-203.16"/>
<polygon fill="midnightblue" stroke="midnightblue" points="710.2,-326.5 717.42,-334.25 716.61,-323.69 710.2,-326.5"/>
</g>
<!-- Node12 -->
<g id="node12" class="node">
<title>Node12</title>
<g id="a_node12"><a xlink:href="../../d5/d63/vtoolellipticalarc_8h.html" target="_top" xlink:title=" ">
<polygon fill="white" stroke="black" points="712,-251 712,-292 829,-292 829,-251 712,-251"/>
<text text-anchor="start" x="720" y="-280" font-family="Helvetica,sans-Serif" font-size="10.00">src/libs/vtools/tools</text>
<text text-anchor="start" x="720" y="-269" font-family="Helvetica,sans-Serif" font-size="10.00">/drawTools/toolcurve</text>
<text text-anchor="middle" x="770.5" y="-258" font-family="Helvetica,sans-Serif" font-size="10.00">/vtoolellipticalarc.h</text>
</a>
</g>
</g>
<!-- Node1&#45;&gt;Node12 -->
<g id="edge18" class="edge">
<title>Node1&#45;&gt;Node12</title>
<path fill="none" stroke="midnightblue" d="M741.94,-325.39C747.9,-314.37 754.56,-302.03 759.95,-292.05"/>
<polygon fill="midnightblue" stroke="midnightblue" points="738.82,-323.81 737.15,-334.27 744.98,-327.13 738.82,-323.81"/>
</g>
<!-- Node13 -->
<g id="node13" class="node">
<title>Node13</title>
<g id="a_node13"><a xlink:href="../../d8/dc7/vtoolellipticalarc_8cpp.html" target="_top" xlink:title=" ">
<polygon fill="white" stroke="black" points="794.5,-162 794.5,-203 916.5,-203 916.5,-162 794.5,-162"/>
<text text-anchor="start" x="802.5" y="-191" font-family="Helvetica,sans-Serif" font-size="10.00">src/libs/vtools/tools</text>
<text text-anchor="start" x="802.5" y="-180" font-family="Helvetica,sans-Serif" font-size="10.00">/drawTools/toolcurve</text>
<text text-anchor="middle" x="855.5" y="-169" font-family="Helvetica,sans-Serif" font-size="10.00">/vtoolellipticalarc.cpp</text>
</a>
</g>
</g>
<!-- Node1&#45;&gt;Node13 -->
<g id="edge21" class="edge">
<title>Node1&#45;&gt;Node13</title>
<path fill="none" stroke="midnightblue" d="M794.33,-332.33C810.75,-324.04 826.67,-312.87 837.5,-298 857.88,-270.03 859,-227.96 857.54,-203.36"/>
<polygon fill="midnightblue" stroke="midnightblue" points="792.73,-329.22 785.18,-336.65 795.72,-335.55 792.73,-329.22"/>
</g>
<!-- Node14 -->
<g id="node14" class="node">
<title>Node14</title>
<g id="a_node14"><a xlink:href="../../db/d8c/vtoolspline_8h.html" target="_top" xlink:title=" ">
<polygon fill="white" stroke="black" points="886,-251 886,-292 1003,-292 1003,-251 886,-251"/>
<text text-anchor="start" x="894" y="-280" font-family="Helvetica,sans-Serif" font-size="10.00">src/libs/vtools/tools</text>
<text text-anchor="start" x="894" y="-269" font-family="Helvetica,sans-Serif" font-size="10.00">/drawTools/toolcurve</text>
<text text-anchor="middle" x="944.5" y="-258" font-family="Helvetica,sans-Serif" font-size="10.00">/vtoolspline.h</text>
</a>
</g>
</g>
<!-- Node1&#45;&gt;Node14 -->
<g id="edge22" class="edge">
<title>Node1&#45;&gt;Node14</title>
<path fill="none" stroke="midnightblue" d="M788.22,-330.92C821.08,-318.64 861.04,-303.7 892.33,-292"/>
<polygon fill="midnightblue" stroke="midnightblue" points="786.86,-327.7 778.72,-334.48 789.31,-334.26 786.86,-327.7"/>
</g>
<!-- Node15 -->
<g id="node15" class="node">
<title>Node15</title>
<g id="a_node15"><a xlink:href="../../d0/d39/vtoolspline_8cpp.html" target="_top" xlink:title=" ">
<polygon fill="white" stroke="black" points="973,-162 973,-203 1090,-203 1090,-162 973,-162"/>
<text text-anchor="start" x="981" y="-191" font-family="Helvetica,sans-Serif" font-size="10.00">src/libs/vtools/tools</text>
<text text-anchor="start" x="981" y="-180" font-family="Helvetica,sans-Serif" font-size="10.00">/drawTools/toolcurve</text>
<text text-anchor="middle" x="1031.5" y="-169" font-family="Helvetica,sans-Serif" font-size="10.00">/vtoolspline.cpp</text>
</a>
</g>
</g>
<!-- Node1&#45;&gt;Node15 -->
<g id="edge26" class="edge">
<title>Node1&#45;&gt;Node15</title>
<path fill="none" stroke="midnightblue" d="M795.34,-349.3C869.87,-342.73 982.06,-328.07 1011.5,-298 1036.21,-272.77 1036.48,-228.53 1034.18,-203.06"/>
<polygon fill="midnightblue" stroke="midnightblue" points="794.75,-345.84 785.09,-350.17 795.35,-352.81 794.75,-345.84"/>
</g>
<!-- Node16 -->
<g id="node16" class="node">
<title>Node16</title>
<g id="a_node16"><a xlink:href="../../d1/d05/vabstractspline_8cpp.html" target="_top" xlink:title=" ">
<polygon fill="white" stroke="black" points="1060,-251 1060,-292 1177,-292 1177,-251 1060,-251"/>
<text text-anchor="start" x="1068" y="-280" font-family="Helvetica,sans-Serif" font-size="10.00">src/libs/vtools/tools</text>
<text text-anchor="start" x="1068" y="-269" font-family="Helvetica,sans-Serif" font-size="10.00">/drawTools/toolcurve</text>
<text text-anchor="middle" x="1118.5" y="-258" font-family="Helvetica,sans-Serif" font-size="10.00">/vabstractspline.cpp</text>
</a>
</g>
</g>
<!-- Node1&#45;&gt;Node16 -->
<g id="edge25" class="edge">
<title>Node1&#45;&gt;Node16</title>
<path fill="none" stroke="midnightblue" d="M795.16,-345.23C860.24,-336.15 960.41,-320.17 1045.5,-298 1052.13,-296.27 1059.01,-294.22 1065.78,-292.05"/>
<polygon fill="midnightblue" stroke="midnightblue" points="794.46,-341.8 785.03,-346.63 795.41,-348.73 794.46,-341.8"/>
</g>
<!-- Node17 -->
<g id="node17" class="node">
<title>Node17</title>
<g id="a_node17"><a xlink:href="../../d6/d38/vtoolsplinepath_8h.html" target="_top" xlink:title=" ">
<polygon fill="white" stroke="black" points="1195,-251 1195,-292 1312,-292 1312,-251 1195,-251"/>
<text text-anchor="start" x="1203" y="-280" font-family="Helvetica,sans-Serif" font-size="10.00">src/libs/vtools/tools</text>
<text text-anchor="start" x="1203" y="-269" font-family="Helvetica,sans-Serif" font-size="10.00">/drawTools/toolcurve</text>
<text text-anchor="middle" x="1253.5" y="-258" font-family="Helvetica,sans-Serif" font-size="10.00">/vtoolsplinepath.h</text>
</a>
</g>
</g>
<!-- Node1&#45;&gt;Node17 -->
<g id="edge27" class="edge">
<title>Node1&#45;&gt;Node17</title>
<path fill="none" stroke="midnightblue" d="M795.41,-350.69C886,-345.19 1049.6,-331.27 1185.5,-298 1192.11,-296.38 1198.96,-294.31 1205.65,-292.05"/>
<polygon fill="midnightblue" stroke="midnightblue" points="795.04,-347.21 785.26,-351.29 795.45,-354.2 795.04,-347.21"/>
</g>
<!-- Node18 -->
<g id="node18" class="node">
<title>Node18</title>
<g id="a_node18"><a xlink:href="../../d8/d1f/vtoolsplinepath_8cpp.html" target="_top" xlink:title=" ">
<polygon fill="white" stroke="black" points="1330,-162 1330,-203 1447,-203 1447,-162 1330,-162"/>
<text text-anchor="start" x="1338" y="-191" font-family="Helvetica,sans-Serif" font-size="10.00">src/libs/vtools/tools</text>
<text text-anchor="start" x="1338" y="-180" font-family="Helvetica,sans-Serif" font-size="10.00">/drawTools/toolcurve</text>
<text text-anchor="middle" x="1388.5" y="-169" font-family="Helvetica,sans-Serif" font-size="10.00">/vtoolsplinepath.cpp</text>
</a>
</g>
</g>
<!-- Node1&#45;&gt;Node18 -->
<g id="edge31" class="edge">
<title>Node1&#45;&gt;Node18</title>
<path fill="none" stroke="midnightblue" d="M795.31,-351C942.26,-344.11 1276.97,-325.56 1320.5,-298 1355.07,-276.11 1374.35,-229.75 1382.95,-203.23"/>
<polygon fill="midnightblue" stroke="midnightblue" points="794.89,-347.52 785.06,-351.48 795.21,-354.51 794.89,-347.52"/>
</g>
<!-- Node20 -->
<g id="node20" class="node">
<title>Node20</title>
<g id="a_node20"><a xlink:href="../../d7/d7d/vtoolcut_8h.html" target="_top" xlink:title=" ">
<polygon fill="white" stroke="black" points="1724,-245.5 1724,-297.5 1853,-297.5 1853,-245.5 1724,-245.5"/>
<text text-anchor="start" x="1732" y="-285.5" font-family="Helvetica,sans-Serif" font-size="10.00">src/libs/vtools/tools</text>
<text text-anchor="start" x="1732" y="-274.5" font-family="Helvetica,sans-Serif" font-size="10.00">/drawTools/toolpoint</text>
<text text-anchor="start" x="1732" y="-263.5" font-family="Helvetica,sans-Serif" font-size="10.00">/toolsinglepoint/toolcut</text>
<text text-anchor="middle" x="1788.5" y="-252.5" font-family="Helvetica,sans-Serif" font-size="10.00">/vtoolcut.h</text>
</a>
</g>
</g>
<!-- Node1&#45;&gt;Node20 -->
<g id="edge32" class="edge">
<title>Node1&#45;&gt;Node20</title>
<path fill="none" stroke="midnightblue" d="M795.14,-348.73C988.41,-333.9 1535.3,-291.93 1723.74,-277.47"/>
<polygon fill="midnightblue" stroke="midnightblue" points="794.81,-345.25 785.11,-349.5 795.35,-352.23 794.81,-345.25"/>
</g>
<!-- Node3&#45;&gt;Node2 -->
<g id="edge3" class="edge">
<title>Node3&#45;&gt;Node2</title>
<path fill="none" stroke="midnightblue" d="M252.6,-242.3C261.71,-229.52 272.25,-214.72 280.49,-203.16"/>
<polygon fill="midnightblue" stroke="midnightblue" points="249.52,-240.58 246.57,-250.76 255.22,-244.65 249.52,-240.58"/>
</g>
<!-- Node4 -->
<g id="node4" class="node">
<title>Node4</title>
<g id="a_node4"><a xlink:href="../../d4/d56/drawtools_8h.html" target="_top" xlink:title=" ">
<polygon fill="white" stroke="black" points="791.5,-78.5 791.5,-108.5 919.5,-108.5 919.5,-78.5 791.5,-78.5"/>
<text text-anchor="start" x="799.5" y="-96.5" font-family="Helvetica,sans-Serif" font-size="10.00">src/libs/vtools/tools</text>
<text text-anchor="middle" x="855.5" y="-85.5" font-family="Helvetica,sans-Serif" font-size="10.00">/drawTools/drawtools.h</text>
</a>
</g>
</g>
<!-- Node3&#45;&gt;Node4 -->
<g id="edge4" class="edge">
<title>Node3&#45;&gt;Node4</title>
<path fill="none" stroke="midnightblue" d="M220.53,-241.07C212.23,-215.34 205.96,-178.65 226.5,-156 263.98,-114.68 638.89,-100.2 791.44,-95.99"/>
<polygon fill="midnightblue" stroke="midnightblue" points="217.28,-242.39 223.89,-250.68 223.89,-240.08 217.28,-242.39"/>
</g>
<!-- Node5 -->
<g id="node5" class="node">
<title>Node5</title>
<g id="a_node5"><a xlink:href="../../d5/da5/tools_8h.html" target="_top" xlink:title=" ">
<polygon fill="white" stroke="black" points="800,-0.5 800,-30.5 911,-30.5 911,-0.5 800,-0.5"/>
<text text-anchor="start" x="808" y="-18.5" font-family="Helvetica,sans-Serif" font-size="10.00">src/libs/vtools/tools</text>
<text text-anchor="middle" x="855.5" y="-7.5" font-family="Helvetica,sans-Serif" font-size="10.00">/tools.h</text>
</a>
</g>
</g>
<!-- Node4&#45;&gt;Node5 -->
<g id="edge5" class="edge">
<title>Node4&#45;&gt;Node5</title>
<path fill="none" stroke="midnightblue" d="M855.5,-68.09C855.5,-55.76 855.5,-41.22 855.5,-30.73"/>
<polygon fill="midnightblue" stroke="midnightblue" points="852,-68.2 855.5,-78.2 859,-68.21 852,-68.2"/>
</g>
<!-- Node6&#45;&gt;Node4 -->
<g id="edge8" class="edge">
<title>Node6&#45;&gt;Node4</title>
<path fill="none" stroke="midnightblue" d="M473.82,-243.87C508.91,-210.97 564.8,-158.94 570.5,-156 640.76,-119.68 731.42,-104.79 791.41,-98.69"/>
<polygon fill="midnightblue" stroke="midnightblue" points="471.14,-241.58 466.24,-250.97 475.93,-246.68 471.14,-241.58"/>
</g>
<!-- Node6&#45;&gt;Node7 -->
<g id="edge7" class="edge">
<title>Node6&#45;&gt;Node7</title>
<path fill="none" stroke="midnightblue" d="M442.39,-240.44C441.11,-228.1 439.67,-214.16 438.53,-203.16"/>
<polygon fill="midnightblue" stroke="midnightblue" points="438.95,-241.17 443.46,-250.76 445.91,-240.45 438.95,-241.17"/>
</g>
<!-- Node9&#45;&gt;Node4 -->
<g id="edge13" class="edge">
<title>Node9&#45;&gt;Node4</title>
<path fill="none" stroke="midnightblue" d="M45.7,-240.98C36.74,-215.19 29.7,-178.45 50.5,-156 100.48,-102.05 609.56,-95.23 791.39,-94.52"/>
<polygon fill="midnightblue" stroke="midnightblue" points="42.52,-242.48 49.31,-250.61 49.08,-240.02 42.52,-242.48"/>
</g>
<!-- Node9&#45;&gt;Node8 -->
<g id="edge12" class="edge">
<title>Node9&#45;&gt;Node8</title>
<path fill="none" stroke="midnightblue" d="M78.27,-242.3C87.24,-229.52 97.61,-214.72 105.71,-203.16"/>
<polygon fill="midnightblue" stroke="midnightblue" points="75.22,-240.56 72.34,-250.76 80.95,-244.58 75.22,-240.56"/>
</g>
<!-- Node10&#45;&gt;Node4 -->
<g id="edge16" class="edge">
<title>Node10&#45;&gt;Node4</title>
<path fill="none" stroke="midnightblue" d="M579.46,-240.89C572.91,-215.6 568.67,-179.65 587.5,-156 612.52,-124.59 720.41,-107.9 791.44,-100.15"/>
<polygon fill="midnightblue" stroke="midnightblue" points="576.14,-242.02 582.25,-250.68 582.88,-240.1 576.14,-242.02"/>
</g>
<!-- Node10&#45;&gt;Node11 -->
<g id="edge15" class="edge">
<title>Node10&#45;&gt;Node11</title>
<path fill="none" stroke="midnightblue" d="M614.13,-243.03C625.73,-230.09 639.31,-214.94 649.87,-203.16"/>
<polygon fill="midnightblue" stroke="midnightblue" points="611.27,-240.98 607.2,-250.76 616.48,-245.65 611.27,-240.98"/>
</g>
<!-- Node12&#45;&gt;Node4 -->
<g id="edge20" class="edge">
<title>Node12&#45;&gt;Node4</title>
<path fill="none" stroke="midnightblue" d="M768.8,-240.58C768.7,-216.4 771.52,-182.19 785.5,-156 796.16,-136.02 816.1,-119.5 831.97,-108.63"/>
<polygon fill="midnightblue" stroke="midnightblue" points="765.3,-240.67 769.01,-250.6 772.3,-240.53 765.3,-240.67"/>
</g>
<!-- Node12&#45;&gt;Node13 -->
<g id="edge19" class="edge">
<title>Node12&#45;&gt;Node13</title>
<path fill="none" stroke="midnightblue" d="M796.98,-243.4C809.7,-230.37 824.67,-215.05 836.29,-203.16"/>
<polygon fill="midnightblue" stroke="midnightblue" points="794.27,-241.16 789.79,-250.76 799.28,-246.05 794.27,-241.16"/>
</g>
<!-- Node14&#45;&gt;Node4 -->
<g id="edge24" class="edge">
<title>Node14&#45;&gt;Node4</title>
<path fill="none" stroke="midnightblue" d="M944.96,-240.95C944.12,-216.71 940.08,-182.24 925.5,-156 914.42,-136.06 894.31,-119.43 878.48,-108.51"/>
<polygon fill="midnightblue" stroke="midnightblue" points="941.46,-241.04 945.14,-250.97 948.46,-240.91 941.46,-241.04"/>
</g>
<!-- Node14&#45;&gt;Node15 -->
<g id="edge23" class="edge">
<title>Node14&#45;&gt;Node15</title>
<path fill="none" stroke="midnightblue" d="M971.6,-243.4C984.63,-230.37 999.95,-215.05 1011.84,-203.16"/>
<polygon fill="midnightblue" stroke="midnightblue" points="968.84,-241.21 964.24,-250.76 973.79,-246.16 968.84,-241.21"/>
</g>
<!-- Node17&#45;&gt;Node4 -->
<g id="edge28" class="edge">
<title>Node17&#45;&gt;Node4</title>
<path fill="none" stroke="midnightblue" d="M1196.08,-246.45C1176.29,-236.57 1154.78,-223.91 1137.5,-209 1115.36,-189.89 1122.77,-172.32 1098.5,-156 1044.88,-119.93 971.7,-105.01 919.7,-98.85"/>
<polygon fill="midnightblue" stroke="midnightblue" points="1194.8,-249.72 1205.33,-250.94 1197.86,-243.42 1194.8,-249.72"/>
</g>
<!-- Node17&#45;&gt;Node18 -->
<g id="edge29" class="edge">
<title>Node17&#45;&gt;Node18</title>
<path fill="none" stroke="midnightblue" d="M1292.41,-245.43C1313.21,-232.02 1338.45,-215.76 1357.84,-203.26"/>
<polygon fill="midnightblue" stroke="midnightblue" points="1290.31,-242.62 1283.8,-250.98 1294.1,-248.5 1290.31,-242.62"/>
</g>
<!-- Node19 -->
<g id="node19" class="node">
<title>Node19</title>
<g id="a_node19"><a xlink:href="../../dc/d3d/movesplinepath_8cpp.html" target="_top" xlink:title=" ">
<polygon fill="white" stroke="black" points="1147,-167.5 1147,-197.5 1312,-197.5 1312,-167.5 1147,-167.5"/>
<text text-anchor="start" x="1155" y="-185.5" font-family="Helvetica,sans-Serif" font-size="10.00">src/libs/vtools/undocommands</text>
<text text-anchor="middle" x="1229.5" y="-174.5" font-family="Helvetica,sans-Serif" font-size="10.00">/movesplinepath.cpp</text>
</a>
</g>
</g>
<!-- Node17&#45;&gt;Node19 -->
<g id="edge30" class="edge">
<title>Node17&#45;&gt;Node19</title>
<path fill="none" stroke="midnightblue" d="M1245.39,-241.11C1241.36,-226.48 1236.66,-209.47 1233.43,-197.74"/>
<polygon fill="midnightblue" stroke="midnightblue" points="1242.02,-242.05 1248.05,-250.76 1248.77,-240.19 1242.02,-242.05"/>
</g>
<!-- Node21 -->
<g id="node21" class="node">
<title>Node21</title>
<g id="a_node21"><a xlink:href="../../d2/dc5/vtoolcut_8cpp.html" target="_top" xlink:title=" ">
<polygon fill="white" stroke="black" points="1836,-156.5 1836,-208.5 1965,-208.5 1965,-156.5 1836,-156.5"/>
<text text-anchor="start" x="1844" y="-196.5" font-family="Helvetica,sans-Serif" font-size="10.00">src/libs/vtools/tools</text>
<text text-anchor="start" x="1844" y="-185.5" font-family="Helvetica,sans-Serif" font-size="10.00">/drawTools/toolpoint</text>
<text text-anchor="start" x="1844" y="-174.5" font-family="Helvetica,sans-Serif" font-size="10.00">/toolsinglepoint/toolcut</text>
<text text-anchor="middle" x="1900.5" y="-163.5" font-family="Helvetica,sans-Serif" font-size="10.00">/vtoolcut.cpp</text>
</a>
</g>
</g>
<!-- Node20&#45;&gt;Node21 -->
<g id="edge33" class="edge">
<title>Node20&#45;&gt;Node21</title>
<path fill="none" stroke="midnightblue" d="M1829.14,-238.93C1841.98,-228.96 1856,-218.07 1868.18,-208.61"/>
<polygon fill="midnightblue" stroke="midnightblue" points="1826.65,-236.44 1820.9,-245.34 1830.94,-241.97 1826.65,-236.44"/>
</g>
<!-- Node22 -->
<g id="node22" class="node">
<title>Node22</title>
<g id="a_node22"><a xlink:href="../../d5/dbe/vtoolcutarc_8h.html" target="_top" xlink:title=" ">
<polygon fill="white" stroke="black" points="1465,-156.5 1465,-208.5 1594,-208.5 1594,-156.5 1465,-156.5"/>
<text text-anchor="start" x="1473" y="-196.5" font-family="Helvetica,sans-Serif" font-size="10.00">src/libs/vtools/tools</text>
<text text-anchor="start" x="1473" y="-185.5" font-family="Helvetica,sans-Serif" font-size="10.00">/drawTools/toolpoint</text>
<text text-anchor="start" x="1473" y="-174.5" font-family="Helvetica,sans-Serif" font-size="10.00">/toolsinglepoint/toolcut</text>
<text text-anchor="middle" x="1529.5" y="-163.5" font-family="Helvetica,sans-Serif" font-size="10.00">/vtoolcutarc.h</text>
</a>
</g>
</g>
<!-- Node20&#45;&gt;Node22 -->
<g id="edge34" class="edge">
<title>Node20&#45;&gt;Node22</title>
<path fill="none" stroke="midnightblue" d="M1713.98,-246.18C1679.94,-234.99 1639.14,-221.45 1602.5,-209 1599.83,-208.09 1597.11,-207.16 1594.36,-206.22"/>
<polygon fill="midnightblue" stroke="midnightblue" points="1713.26,-249.62 1723.85,-249.42 1715.44,-242.97 1713.26,-249.62"/>
</g>
<!-- Node23 -->
<g id="node23" class="node">
<title>Node23</title>
<g id="a_node23"><a xlink:href="../../dc/db5/vtoolcutarc_8cpp.html" target="_top" xlink:title=" ">
<polygon fill="white" stroke="black" points="1465,-67.5 1465,-119.5 1594,-119.5 1594,-67.5 1465,-67.5"/>
<text text-anchor="start" x="1473" y="-107.5" font-family="Helvetica,sans-Serif" font-size="10.00">src/libs/vtools/tools</text>
<text text-anchor="start" x="1473" y="-96.5" font-family="Helvetica,sans-Serif" font-size="10.00">/drawTools/toolpoint</text>
<text text-anchor="start" x="1473" y="-85.5" font-family="Helvetica,sans-Serif" font-size="10.00">/toolsinglepoint/toolcut</text>
<text text-anchor="middle" x="1529.5" y="-74.5" font-family="Helvetica,sans-Serif" font-size="10.00">/vtoolcutarc.cpp</text>
</a>
</g>
</g>
<!-- Node20&#45;&gt;Node23 -->
<g id="edge40" class="edge">
<title>Node20&#45;&gt;Node23</title>
<path fill="none" stroke="midnightblue" d="M1785.19,-235.47C1780.96,-210.07 1771.36,-176.67 1749.5,-156 1737.97,-145.1 1654.92,-123.8 1594.25,-109.36"/>
<polygon fill="midnightblue" stroke="midnightblue" points="1781.74,-236.07 1786.64,-245.46 1788.67,-235.06 1781.74,-236.07"/>
</g>
<!-- Node24 -->
<g id="node24" class="node">
<title>Node24</title>
<g id="a_node24"><a xlink:href="../../d7/dea/vtoolcutspline_8h.html" target="_top" xlink:title=" ">
<polygon fill="white" stroke="black" points="1612,-156.5 1612,-208.5 1741,-208.5 1741,-156.5 1612,-156.5"/>
<text text-anchor="start" x="1620" y="-196.5" font-family="Helvetica,sans-Serif" font-size="10.00">src/libs/vtools/tools</text>
<text text-anchor="start" x="1620" y="-185.5" font-family="Helvetica,sans-Serif" font-size="10.00">/drawTools/toolpoint</text>
<text text-anchor="start" x="1620" y="-174.5" font-family="Helvetica,sans-Serif" font-size="10.00">/toolsinglepoint/toolcut</text>
<text text-anchor="middle" x="1676.5" y="-163.5" font-family="Helvetica,sans-Serif" font-size="10.00">/vtoolcutspline.h</text>
</a>
</g>
</g>
<!-- Node20&#45;&gt;Node24 -->
<g id="edge37" class="edge">
<title>Node20&#45;&gt;Node24</title>
<path fill="none" stroke="midnightblue" d="M1747.86,-238.93C1735.02,-228.96 1721,-218.07 1708.82,-208.61"/>
<polygon fill="midnightblue" stroke="midnightblue" points="1746.06,-241.97 1756.1,-245.34 1750.35,-236.44 1746.06,-241.97"/>
</g>
<!-- Node25 -->
<g id="node25" class="node">
<title>Node25</title>
<g id="a_node25"><a xlink:href="../../da/dae/vtoolcutspline_8cpp.html" target="_top" xlink:title=" ">
<polygon fill="white" stroke="black" points="1662,-67.5 1662,-119.5 1791,-119.5 1791,-67.5 1662,-67.5"/>
<text text-anchor="start" x="1670" y="-107.5" font-family="Helvetica,sans-Serif" font-size="10.00">src/libs/vtools/tools</text>
<text text-anchor="start" x="1670" y="-96.5" font-family="Helvetica,sans-Serif" font-size="10.00">/drawTools/toolpoint</text>
<text text-anchor="start" x="1670" y="-85.5" font-family="Helvetica,sans-Serif" font-size="10.00">/toolsinglepoint/toolcut</text>
<text text-anchor="middle" x="1726.5" y="-74.5" font-family="Helvetica,sans-Serif" font-size="10.00">/vtoolcutspline.cpp</text>
</a>
</g>
</g>
<!-- Node20&#45;&gt;Node25 -->
<g id="edge41" class="edge">
<title>Node20&#45;&gt;Node25</title>
<path fill="none" stroke="midnightblue" d="M1793.1,-235.15C1794.69,-211.79 1793.94,-181 1783.5,-156 1777.78,-142.3 1767.57,-129.75 1757.35,-119.61"/>
<polygon fill="midnightblue" stroke="midnightblue" points="1789.6,-235.05 1792.24,-245.31 1796.57,-235.64 1789.6,-235.05"/>
</g>
<!-- Node26 -->
<g id="node26" class="node">
<title>Node26</title>
<g id="a_node26"><a xlink:href="../../d6/d9d/vtoolcutsplinepath_8h.html" target="_top" xlink:title=" ">
<polygon fill="white" stroke="black" points="2022,-156.5 2022,-208.5 2151,-208.5 2151,-156.5 2022,-156.5"/>
<text text-anchor="start" x="2030" y="-196.5" font-family="Helvetica,sans-Serif" font-size="10.00">src/libs/vtools/tools</text>
<text text-anchor="start" x="2030" y="-185.5" font-family="Helvetica,sans-Serif" font-size="10.00">/drawTools/toolpoint</text>
<text text-anchor="start" x="2030" y="-174.5" font-family="Helvetica,sans-Serif" font-size="10.00">/toolsinglepoint/toolcut</text>
<text text-anchor="middle" x="2086.5" y="-163.5" font-family="Helvetica,sans-Serif" font-size="10.00">/vtoolcutsplinepath.h</text>
</a>
</g>
</g>
<!-- Node20&#45;&gt;Node26 -->
<g id="edge42" class="edge">
<title>Node20&#45;&gt;Node26</title>
<path fill="none" stroke="midnightblue" d="M1863.07,-250.32C1905.52,-238.65 1959.62,-223.44 2007.5,-209 2012.19,-207.58 2017.03,-206.1 2021.89,-204.58"/>
<polygon fill="midnightblue" stroke="midnightblue" points="1862.09,-246.96 1853.37,-252.99 1863.94,-253.71 1862.09,-246.96"/>
</g>
<!-- Node27 -->
<g id="node27" class="node">
<title>Node27</title>
<g id="a_node27"><a xlink:href="../../d1/ddf/vtoolcutsplinepath_8cpp.html" target="_top" xlink:title=" ">
<polygon fill="white" stroke="black" points="1893,-67.5 1893,-119.5 2024,-119.5 2024,-67.5 1893,-67.5"/>
<text text-anchor="start" x="1901" y="-107.5" font-family="Helvetica,sans-Serif" font-size="10.00">src/libs/vtools/tools</text>
<text text-anchor="start" x="1901" y="-96.5" font-family="Helvetica,sans-Serif" font-size="10.00">/drawTools/toolpoint</text>
<text text-anchor="start" x="1901" y="-85.5" font-family="Helvetica,sans-Serif" font-size="10.00">/toolsinglepoint/toolcut</text>
<text text-anchor="middle" x="1958.5" y="-74.5" font-family="Helvetica,sans-Serif" font-size="10.00">/vtoolcutsplinepath.cpp</text>
</a>
</g>
</g>
<!-- Node20&#45;&gt;Node27 -->
<g id="edge47" class="edge">
<title>Node20&#45;&gt;Node27</title>
<path fill="none" stroke="midnightblue" d="M1863.15,-265.91C1902.8,-259.21 1948.4,-243.79 1973.5,-209 1992.27,-182.99 1981.72,-144.76 1971.16,-119.75"/>
<polygon fill="midnightblue" stroke="midnightblue" points="1862.57,-262.46 1853.22,-267.43 1863.63,-269.37 1862.57,-262.46"/>
</g>
<!-- Node22&#45;&gt;Node4 -->
<g id="edge35" class="edge">
<title>Node22&#45;&gt;Node4</title>
<path fill="none" stroke="midnightblue" d="M1454.72,-156.06C1255.81,-113.23 1028.57,-100.28 919.76,-96.26"/>
<polygon fill="midnightblue" stroke="midnightblue" points="1454.25,-159.54 1464.77,-158.25 1455.75,-152.7 1454.25,-159.54"/>
</g>
<!-- Node22&#45;&gt;Node23 -->
<g id="edge36" class="edge">
<title>Node22&#45;&gt;Node23</title>
<path fill="none" stroke="midnightblue" d="M1529.5,-146.19C1529.5,-137.28 1529.5,-127.9 1529.5,-119.61"/>
<polygon fill="midnightblue" stroke="midnightblue" points="1526,-146.34 1529.5,-156.34 1533,-146.34 1526,-146.34"/>
</g>
<!-- Node24&#45;&gt;Node4 -->
<g id="edge38" class="edge">
<title>Node24&#45;&gt;Node4</title>
<path fill="none" stroke="midnightblue" d="M1601.94,-156.13C1346.16,-103.57 1048.3,-95.43 919.73,-94.42"/>
<polygon fill="midnightblue" stroke="midnightblue" points="1601.28,-159.57 1611.79,-158.18 1602.71,-152.71 1601.28,-159.57"/>
</g>
<!-- Node24&#45;&gt;Node25 -->
<g id="edge39" class="edge">
<title>Node24&#45;&gt;Node25</title>
<path fill="none" stroke="midnightblue" d="M1695.96,-147.64C1701.32,-138.31 1707.05,-128.35 1712.07,-119.61"/>
<polygon fill="midnightblue" stroke="midnightblue" points="1692.91,-145.92 1690.96,-156.34 1698.98,-149.41 1692.91,-145.92"/>
</g>
<!-- Node26&#45;&gt;Node4 -->
<g id="edge43" class="edge">
<title>Node26&#45;&gt;Node4</title>
<path fill="none" stroke="midnightblue" d="M2011.66,-162.77C1998.99,-160.13 1985.92,-157.73 1973.5,-156 1869.29,-141.48 1141.73,-107.53 919.69,-97.4"/>
<polygon fill="midnightblue" stroke="midnightblue" points="2011.2,-166.25 2021.71,-164.93 2012.67,-159.41 2011.2,-166.25"/>
</g>
<!-- Node26&#45;&gt;Node27 -->
<g id="edge44" class="edge">
<title>Node26&#45;&gt;Node27</title>
<path fill="none" stroke="midnightblue" d="M2040.9,-150.5C2025.99,-140.37 2009.63,-129.25 1995.44,-119.61"/>
<polygon fill="midnightblue" stroke="midnightblue" points="2039.24,-153.61 2049.48,-156.34 2043.17,-147.82 2039.24,-153.61"/>
</g>
<!-- Node28 -->
<g id="node28" class="node">
<title>Node28</title>
<g id="a_node28"><a xlink:href="../../da/d99/vtoolcurveintersectaxis_8cpp.html" target="_top" xlink:title=" ">
<polygon fill="white" stroke="black" points="2042,-67.5 2042,-119.5 2199,-119.5 2199,-67.5 2042,-67.5"/>
<text text-anchor="start" x="2050" y="-107.5" font-family="Helvetica,sans-Serif" font-size="10.00">src/libs/vtools/tools</text>
<text text-anchor="start" x="2050" y="-96.5" font-family="Helvetica,sans-Serif" font-size="10.00">/drawTools/toolpoint</text>
<text text-anchor="start" x="2050" y="-85.5" font-family="Helvetica,sans-Serif" font-size="10.00">/toolsinglepoint/toollinepoint</text>
<text text-anchor="middle" x="2120.5" y="-74.5" font-family="Helvetica,sans-Serif" font-size="10.00">/vtoolcurveintersectaxis.cpp</text>
</a>
</g>
</g>
<!-- Node26&#45;&gt;Node28 -->
<g id="edge45" class="edge">
<title>Node26&#45;&gt;Node28</title>
<path fill="none" stroke="midnightblue" d="M2100.07,-146.77C2103.62,-137.69 2107.38,-128.08 2110.69,-119.61"/>
<polygon fill="midnightblue" stroke="midnightblue" points="2096.71,-145.75 2096.33,-156.34 2103.23,-148.3 2096.71,-145.75"/>
</g>
<!-- Node29 -->
<g id="node29" class="node">
<title>Node29</title>
<g id="a_node29"><a xlink:href="../../d7/d3d/vistoolcutsplinepath_8cpp.html" target="_top" xlink:title=" ">
<polygon fill="white" stroke="black" points="2217.5,-78.5 2217.5,-108.5 2381.5,-108.5 2381.5,-78.5 2217.5,-78.5"/>
<text text-anchor="start" x="2225.5" y="-96.5" font-family="Helvetica,sans-Serif" font-size="10.00">src/libs/vtools/visualization</text>
<text text-anchor="middle" x="2299.5" y="-85.5" font-family="Helvetica,sans-Serif" font-size="10.00">/path/vistoolcutsplinepath.cpp</text>
</a>
</g>
</g>
<!-- Node26&#45;&gt;Node29 -->
<g id="edge46" class="edge">
<title>Node26&#45;&gt;Node29</title>
<path fill="none" stroke="midnightblue" d="M2157.38,-152.55C2193.62,-137.75 2236.08,-120.4 2265.09,-108.55"/>
<polygon fill="midnightblue" stroke="midnightblue" points="2155.76,-149.43 2147.82,-156.45 2158.4,-155.91 2155.76,-149.43"/>
</g>
</g>
</svg>
