<?xml version="1.0" encoding="UTF-8" standalone="no"?>
<!DOCTYPE svg PUBLIC "-//W3C//DTD SVG 1.1//EN"
 "http://www.w3.org/Graphics/SVG/1.1/DTD/svg11.dtd">
<!-- Generated by graphviz version 2.43.0 (0)
 -->
<!-- Title: src/libs/vwidgets/linetype_combobox.cpp Pages: 1 -->
<svg width="1146pt" height="258pt"
 viewBox="0.00 0.00 1146.00 258.00" xmlns="http://www.w3.org/2000/svg" xmlns:xlink="http://www.w3.org/1999/xlink">
<g id="graph0" class="graph" transform="scale(1 1) rotate(0) translate(4 254)">
<title>src/libs/vwidgets/linetype_combobox.cpp</title>
<!-- Node1 -->
<g id="Node000001" class="node">
<title>Node1</title>
<g id="a_Node000001"><a xlink:title=" ">
<polygon fill="#999999" stroke="#666666" points="607,-250 466,-250 466,-220 607,-220 607,-250"/>
<text text-anchor="start" x="474" y="-238" font-family="Helvetica,sans-Serif" font-size="10.00">src/libs/vwidgets/linetype</text>
<text text-anchor="middle" x="536.5" y="-227" font-family="Helvetica,sans-Serif" font-size="10.00">_combobox.cpp</text>
</a>
</g>
</g>
<!-- Node2 -->
<g id="Node000002" class="node">
<title>Node2</title>
<g id="a_Node000002"><a xlink:href="../../da/d4f/linetype__combobox_8h.html" target="_top" xlink:title=" ">
<polygon fill="white" stroke="#666666" points="285.5,-184 163.5,-184 163.5,-165 285.5,-165 285.5,-184"/>
<text text-anchor="middle" x="224.5" y="-172" font-family="Helvetica,sans-Serif" font-size="10.00">linetype_combobox.h</text>
</a>
</g>
</g>
<!-- Node1&#45;&gt;Node2 -->
<g id="edge1_Node000001_Node000002" class="edge">
<title>Node1&#45;&gt;Node2</title>
<g id="a_edge1_Node000001_Node000002"><a xlink:title=" ">
<path fill="none" stroke="#63b8ff" d="M465.7,-220.73C409.41,-210.17 331.75,-195.61 279.92,-185.89"/>
<polygon fill="#63b8ff" stroke="#63b8ff" points="280.39,-182.42 269.91,-184.02 279.1,-189.3 280.39,-182.42"/>
</a>
</g>
</g>
<!-- Node3 -->
<g id="Node000003" class="node">
<title>Node3</title>
<g id="a_Node000003"><a xlink:title=" ">
<polygon fill="#e0e0e0" stroke="#999999" points="77,-129 0,-129 0,-110 77,-110 77,-129"/>
<text text-anchor="middle" x="38.5" y="-117" font-family="Helvetica,sans-Serif" font-size="10.00">QComboBox</text>
</a>
</g>
</g>
<!-- Node1&#45;&gt;Node3 -->
<g id="edge28_Node000001_Node000003" class="edge">
<title>Node1&#45;&gt;Node3</title>
<g id="a_edge28_Node000001_Node000003"><a xlink:title=" ">
<path fill="none" stroke="#63b8ff" d="M465.78,-232.52C387.78,-229.12 259.41,-218.24 154.5,-184 118.82,-172.35 81.41,-149.69 59.02,-134.82"/>
<polygon fill="#63b8ff" stroke="#63b8ff" points="60.91,-131.88 50.67,-129.17 56.99,-137.68 60.91,-131.88"/>
</a>
</g>
</g>
<!-- Node8 -->
<g id="Node000008" class="node">
<title>Node8</title>
<g id="a_Node000008"><a xlink:href="../../d3/da5/ifcdef_8h.html" target="_top" xlink:title=" ">
<polygon fill="white" stroke="#666666" points="458,-184 381,-184 381,-165 458,-165 458,-184"/>
<text text-anchor="middle" x="419.5" y="-172" font-family="Helvetica,sans-Serif" font-size="10.00">../ifc/ifcdef.h</text>
</a>
</g>
</g>
<!-- Node1&#45;&gt;Node8 -->
<g id="edge7_Node000001_Node000008" class="edge">
<title>Node1&#45;&gt;Node8</title>
<g id="a_edge7_Node000001_Node000008"><a xlink:title=" ">
<path fill="none" stroke="#63b8ff" d="M508.48,-219.99C489.48,-210.49 464.53,-198.02 445.89,-188.69"/>
<polygon fill="#63b8ff" stroke="#63b8ff" points="447.29,-185.48 436.78,-184.14 444.16,-191.74 447.29,-185.48"/>
</a>
</g>
</g>
<!-- Node22 -->
<g id="Node000022" class="node">
<title>Node22</title>
<g id="a_Node000022"><a xlink:title=" ">
<polygon fill="#e0e0e0" stroke="#999999" points="596.5,-184 476.5,-184 476.5,-165 596.5,-165 596.5,-184"/>
<text text-anchor="middle" x="536.5" y="-172" font-family="Helvetica,sans-Serif" font-size="10.00">QStandardItemModel</text>
</a>
</g>
</g>
<!-- Node1&#45;&gt;Node22 -->
<g id="edge25_Node000001_Node000022" class="edge">
<title>Node1&#45;&gt;Node22</title>
<g id="a_edge25_Node000001_Node000022"><a xlink:title=" ">
<path fill="none" stroke="#63b8ff" d="M536.5,-219.84C536.5,-212.21 536.5,-202.7 536.5,-194.45"/>
<polygon fill="#63b8ff" stroke="#63b8ff" points="540,-194.27 536.5,-184.27 533,-194.27 540,-194.27"/>
</a>
</g>
</g>
<!-- Node23 -->
<g id="Node000023" class="node">
<title>Node23</title>
<g id="a_Node000023"><a xlink:title=" ">
<polygon fill="#e0e0e0" stroke="#999999" points="726,-184 615,-184 615,-165 726,-165 726,-184"/>
<text text-anchor="middle" x="670.5" y="-172" font-family="Helvetica,sans-Serif" font-size="10.00">QAbstractItemView</text>
</a>
</g>
</g>
<!-- Node1&#45;&gt;Node23 -->
<g id="edge26_Node000001_Node000023" class="edge">
<title>Node1&#45;&gt;Node23</title>
<g id="a_edge26_Node000001_Node000023"><a xlink:title=" ">
<path fill="none" stroke="#63b8ff" d="M568.6,-219.99C590.75,-210.31 619.98,-197.56 641.45,-188.18"/>
<polygon fill="#63b8ff" stroke="#63b8ff" points="642.95,-191.35 650.71,-184.14 640.15,-184.93 642.95,-191.35"/>
</a>
</g>
</g>
<!-- Node24 -->
<g id="Node000024" class="node">
<title>Node24</title>
<g id="a_Node000024"><a xlink:title=" ">
<polygon fill="#e0e0e0" stroke="#999999" points="805,-184 744,-184 744,-165 805,-165 805,-184"/>
<text text-anchor="middle" x="774.5" y="-172" font-family="Helvetica,sans-Serif" font-size="10.00">QPixmap</text>
</a>
</g>
</g>
<!-- Node1&#45;&gt;Node24 -->
<g id="edge27_Node000001_Node000024" class="edge">
<title>Node1&#45;&gt;Node24</title>
<g id="a_edge27_Node000001_Node000024"><a xlink:title=" ">
<path fill="none" stroke="#63b8ff" d="M593.51,-219.99C636.81,-209.34 695.3,-194.97 733.92,-185.47"/>
<polygon fill="#63b8ff" stroke="#63b8ff" points="734.9,-188.84 743.78,-183.05 733.23,-182.04 734.9,-188.84"/>
</a>
</g>
</g>
<!-- Node25 -->
<g id="Node000025" class="node">
<title>Node25</title>
<g id="a_Node000025"><a xlink:title=" ">
<polygon fill="#e0e0e0" stroke="#999999" points="881.5,-184 823.5,-184 823.5,-165 881.5,-165 881.5,-184"/>
<text text-anchor="middle" x="852.5" y="-172" font-family="Helvetica,sans-Serif" font-size="10.00">QPainter</text>
</a>
</g>
</g>
<!-- Node1&#45;&gt;Node25 -->
<g id="edge29_Node000001_Node000025" class="edge">
<title>Node1&#45;&gt;Node25</title>
<g id="a_edge29_Node000001_Node000025"><a xlink:title=" ">
<path fill="none" stroke="#63b8ff" d="M607.21,-222.13C661.07,-212.89 737.31,-199.4 813.25,-184.18"/>
<polygon fill="#63b8ff" stroke="#63b8ff" points="814.37,-187.53 823.48,-182.12 812.99,-180.67 814.37,-187.53"/>
</a>
</g>
</g>
<!-- Node2&#45;&gt;Node3 -->
<g id="edge2_Node000002_Node000003" class="edge">
<title>Node2&#45;&gt;Node3</title>
<g id="a_edge2_Node000002_Node000003"><a xlink:title=" ">
<path fill="none" stroke="#63b8ff" d="M194.62,-164.98C163.12,-156.01 113.33,-141.82 78.47,-131.89"/>
<polygon fill="#63b8ff" stroke="#63b8ff" points="79.19,-128.46 68.62,-129.08 77.28,-135.19 79.19,-128.46"/>
</a>
</g>
</g>
<!-- Node4 -->
<g id="Node000004" class="node">
<title>Node4</title>
<g id="a_Node000004"><a xlink:title=" ">
<polygon fill="#e0e0e0" stroke="#999999" points="293,-129 234,-129 234,-110 293,-110 293,-129"/>
<text text-anchor="middle" x="263.5" y="-117" font-family="Helvetica,sans-Serif" font-size="10.00">QWidget</text>
</a>
</g>
</g>
<!-- Node2&#45;&gt;Node4 -->
<g id="edge3_Node000002_Node000004" class="edge">
<title>Node2&#45;&gt;Node4</title>
<g id="a_edge3_Node000002_Node000004"><a xlink:title=" ">
<path fill="none" stroke="#63b8ff" d="M230.94,-164.75C236.39,-157.34 244.36,-146.5 251.06,-137.41"/>
<polygon fill="#63b8ff" stroke="#63b8ff" points="254.07,-139.22 257.18,-129.09 248.43,-135.07 254.07,-139.22"/>
</a>
</g>
</g>
<!-- Node5 -->
<g id="Node000005" class="node">
<title>Node5</title>
<g id="a_Node000005"><a xlink:title=" ">
<polygon fill="#e0e0e0" stroke="#999999" points="353.5,-129 311.5,-129 311.5,-110 353.5,-110 353.5,-129"/>
<text text-anchor="middle" x="332.5" y="-117" font-family="Helvetica,sans-Serif" font-size="10.00">QPen</text>
</a>
</g>
</g>
<!-- Node2&#45;&gt;Node5 -->
<g id="edge4_Node000002_Node000005" class="edge">
<title>Node2&#45;&gt;Node5</title>
<g id="a_edge4_Node000002_Node000005"><a xlink:title=" ">
<path fill="none" stroke="#63b8ff" d="M241.85,-164.98C259.07,-156.54 285.7,-143.47 305.65,-133.68"/>
<polygon fill="#63b8ff" stroke="#63b8ff" points="307.4,-136.72 314.83,-129.17 304.31,-130.43 307.4,-136.72"/>
</a>
</g>
</g>
<!-- Node6 -->
<g id="Node000006" class="node">
<title>Node6</title>
<g id="a_Node000006"><a xlink:title=" ">
<polygon fill="#e0e0e0" stroke="#999999" points="139.5,-129 95.5,-129 95.5,-110 139.5,-110 139.5,-129"/>
<text text-anchor="middle" x="117.5" y="-117" font-family="Helvetica,sans-Serif" font-size="10.00">QIcon</text>
</a>
</g>
</g>
<!-- Node2&#45;&gt;Node6 -->
<g id="edge5_Node000002_Node000006" class="edge">
<title>Node2&#45;&gt;Node6</title>
<g id="a_edge5_Node000002_Node000006"><a xlink:title=" ">
<path fill="none" stroke="#63b8ff" d="M207.31,-164.98C190.25,-156.54 163.87,-143.47 144.1,-133.68"/>
<polygon fill="#63b8ff" stroke="#63b8ff" points="145.52,-130.47 135,-129.17 142.41,-136.75 145.52,-130.47"/>
</a>
</g>
</g>
<!-- Node7 -->
<g id="Node000007" class="node">
<title>Node7</title>
<g id="a_Node000007"><a xlink:title=" ">
<polygon fill="#e0e0e0" stroke="#999999" points="215.5,-129 157.5,-129 157.5,-110 215.5,-110 215.5,-129"/>
<text text-anchor="middle" x="186.5" y="-117" font-family="Helvetica,sans-Serif" font-size="10.00">memory</text>
</a>
</g>
</g>
<!-- Node2&#45;&gt;Node7 -->
<g id="edge6_Node000002_Node000007" class="edge">
<title>Node2&#45;&gt;Node7</title>
<g id="a_edge6_Node000002_Node000007"><a xlink:title=" ">
<path fill="none" stroke="#63b8ff" d="M218.23,-164.75C212.91,-157.34 205.14,-146.5 198.62,-137.41"/>
<polygon fill="#63b8ff" stroke="#63b8ff" points="201.33,-135.18 192.66,-129.09 195.64,-139.26 201.33,-135.18"/>
</a>
</g>
</g>
<!-- Node9 -->
<g id="Node000009" class="node">
<title>Node9</title>
<g id="a_Node000009"><a xlink:title=" ">
<polygon fill="#e0e0e0" stroke="#999999" points="381,-74 328,-74 328,-55 381,-55 381,-74"/>
<text text-anchor="middle" x="354.5" y="-62" font-family="Helvetica,sans-Serif" font-size="10.00">QString</text>
</a>
</g>
</g>
<!-- Node8&#45;&gt;Node9 -->
<g id="edge8_Node000008_Node000009" class="edge">
<title>Node8&#45;&gt;Node9</title>
<g id="a_edge8_Node000008_Node000009"><a xlink:title=" ">
<path fill="none" stroke="#63b8ff" d="M414.18,-164.66C403.46,-146.85 379.1,-106.37 365.04,-83.01"/>
<polygon fill="#63b8ff" stroke="#63b8ff" points="367.87,-80.92 359.71,-74.16 361.87,-84.53 367.87,-80.92"/>
</a>
</g>
</g>
<!-- Node10 -->
<g id="Node000010" class="node">
<title>Node10</title>
<g id="a_Node000010"><a xlink:title=" ">
<polygon fill="#e0e0e0" stroke="#999999" points="469.5,-74 399.5,-74 399.5,-55 469.5,-55 469.5,-74"/>
<text text-anchor="middle" x="434.5" y="-62" font-family="Helvetica,sans-Serif" font-size="10.00">QStringList</text>
</a>
</g>
</g>
<!-- Node8&#45;&gt;Node10 -->
<g id="edge9_Node000008_Node000010" class="edge">
<title>Node8&#45;&gt;Node10</title>
<g id="a_edge9_Node000008_Node000010"><a xlink:title=" ">
<path fill="none" stroke="#63b8ff" d="M420.73,-164.66C423.16,-147.17 428.62,-107.8 431.89,-84.27"/>
<polygon fill="#63b8ff" stroke="#63b8ff" points="435.39,-84.54 433.3,-74.16 428.45,-83.58 435.39,-84.54"/>
</a>
</g>
</g>
<!-- Node11 -->
<g id="Node000011" class="node">
<title>Node11</title>
<g id="a_Node000011"><a xlink:title=" ">
<polygon fill="#e0e0e0" stroke="#999999" points="547,-74 488,-74 488,-55 547,-55 547,-74"/>
<text text-anchor="middle" x="517.5" y="-62" font-family="Helvetica,sans-Serif" font-size="10.00">QtGlobal</text>
</a>
</g>
</g>
<!-- Node8&#45;&gt;Node11 -->
<g id="edge10_Node000008_Node000011" class="edge">
<title>Node8&#45;&gt;Node11</title>
<g id="a_edge10_Node000008_Node000011"><a xlink:title=" ">
<path fill="none" stroke="#63b8ff" d="M427.21,-164.84C438.13,-152.59 458.76,-129.51 476.5,-110 485.18,-100.46 494.96,-89.84 502.79,-81.36"/>
<polygon fill="#63b8ff" stroke="#63b8ff" points="505.38,-83.72 509.61,-74 500.25,-78.96 505.38,-83.72"/>
</a>
</g>
</g>
<!-- Node12 -->
<g id="Node000012" class="node">
<title>Node12</title>
<g id="a_Node000012"><a xlink:href="../../d4/da4/def_8h.html" target="_top" xlink:title=" ">
<polygon fill="white" stroke="#666666" points="703.5,-129 621.5,-129 621.5,-110 703.5,-110 703.5,-129"/>
<text text-anchor="middle" x="662.5" y="-117" font-family="Helvetica,sans-Serif" font-size="10.00">../vmisc/def.h</text>
</a>
</g>
</g>
<!-- Node8&#45;&gt;Node12 -->
<g id="edge11_Node000008_Node000012" class="edge">
<title>Node8&#45;&gt;Node12</title>
<g id="a_edge11_Node000008_Node000012"><a xlink:title=" ">
<path fill="none" stroke="#63b8ff" d="M458,-165.1C500.06,-155.93 567.52,-141.22 613.36,-131.22"/>
<polygon fill="#63b8ff" stroke="#63b8ff" points="614.35,-134.58 623.37,-129.03 612.86,-127.75 614.35,-134.58"/>
</a>
</g>
</g>
<!-- Node21 -->
<g id="Node000021" class="node">
<title>Node21</title>
<g id="a_Node000021"><a xlink:href="../../d6/dcd/diagnostic_8h.html" target="_top" xlink:title=" ">
<polygon fill="white" stroke="#666666" points="603,-129 486,-129 486,-110 603,-110 603,-129"/>
<text text-anchor="middle" x="544.5" y="-117" font-family="Helvetica,sans-Serif" font-size="10.00">../vmisc/diagnostic.h</text>
</a>
</g>
</g>
<!-- Node8&#45;&gt;Node21 -->
<g id="edge23_Node000008_Node000021" class="edge">
<title>Node8&#45;&gt;Node21</title>
<g id="a_edge23_Node000008_Node000021"><a xlink:title=" ">
<path fill="none" stroke="#63b8ff" d="M439.58,-164.98C459.87,-156.38 491.46,-142.99 514.67,-133.15"/>
<polygon fill="#63b8ff" stroke="#63b8ff" points="516.21,-136.3 524.05,-129.17 513.48,-129.85 516.21,-136.3"/>
</a>
</g>
</g>
<!-- Node12&#45;&gt;Node9 -->
<g id="edge15_Node000012_Node000009" class="edge">
<title>Node12&#45;&gt;Node9</title>
<g id="a_edge15_Node000012_Node000009"><a xlink:title=" ">
<path fill="none" stroke="#63b8ff" d="M621.3,-111.47C618.32,-110.97 615.37,-110.48 612.5,-110 516.98,-94.14 490.19,-93.52 391.02,-73.98"/>
<polygon fill="#63b8ff" stroke="#63b8ff" points="391.68,-70.54 381.19,-72.02 390.32,-77.41 391.68,-70.54"/>
</a>
</g>
</g>
<!-- Node12&#45;&gt;Node10 -->
<g id="edge16_Node000012_Node000010" class="edge">
<title>Node12&#45;&gt;Node10</title>
<g id="a_edge16_Node000012_Node000010"><a xlink:title=" ">
<path fill="none" stroke="#63b8ff" d="M625.87,-109.98C586.01,-100.72 522.27,-85.9 479.42,-75.94"/>
<polygon fill="#63b8ff" stroke="#63b8ff" points="480.08,-72.5 469.54,-73.65 478.49,-79.32 480.08,-72.5"/>
</a>
</g>
</g>
<!-- Node12&#45;&gt;Node11 -->
<g id="edge18_Node000012_Node000011" class="edge">
<title>Node12&#45;&gt;Node11</title>
<g id="a_edge18_Node000012_Node000011"><a xlink:title=" ">
<path fill="none" stroke="#63b8ff" d="M639.2,-109.98C615.25,-101.23 577.72,-87.51 550.67,-77.62"/>
<polygon fill="#63b8ff" stroke="#63b8ff" points="551.81,-74.32 541.22,-74.17 549.41,-80.89 551.81,-74.32"/>
</a>
</g>
</g>
<!-- Node13 -->
<g id="Node000013" class="node">
<title>Node13</title>
<g id="a_Node000013"><a xlink:title=" ">
<polygon fill="#e0e0e0" stroke="#999999" points="1046.5,-74 926.5,-74 926.5,-55 1046.5,-55 1046.5,-74"/>
<text text-anchor="middle" x="986.5" y="-62" font-family="Helvetica,sans-Serif" font-size="10.00">qcompilerdetection.h</text>
</a>
</g>
</g>
<!-- Node12&#45;&gt;Node13 -->
<g id="edge12_Node000012_Node000013" class="edge">
<title>Node12&#45;&gt;Node13</title>
<g id="a_edge12_Node000012_Node000013"><a xlink:title=" ">
<path fill="none" stroke="#63b8ff" d="M703.53,-111.79C759.22,-102.68 859.2,-86.32 924.18,-75.69"/>
<polygon fill="#63b8ff" stroke="#63b8ff" points="924.99,-79.11 934.3,-74.04 923.86,-72.2 924.99,-79.11"/>
</a>
</g>
</g>
<!-- Node14 -->
<g id="Node000014" class="node">
<title>Node14</title>
<g id="a_Node000014"><a xlink:title=" ">
<polygon fill="#e0e0e0" stroke="#999999" points="1138,-74 1065,-74 1065,-55 1138,-55 1138,-74"/>
<text text-anchor="middle" x="1101.5" y="-62" font-family="Helvetica,sans-Serif" font-size="10.00">QFileDialog</text>
</a>
</g>
</g>
<!-- Node12&#45;&gt;Node14 -->
<g id="edge13_Node000012_Node000014" class="edge">
<title>Node12&#45;&gt;Node14</title>
<g id="a_edge13_Node000012_Node000014"><a xlink:title=" ">
<path fill="none" stroke="#63b8ff" d="M703.64,-114.8C773.57,-108.3 920.26,-93.76 1054.8,-74"/>
<polygon fill="#63b8ff" stroke="#63b8ff" points="1055.5,-77.43 1064.88,-72.51 1054.48,-70.51 1055.5,-77.43"/>
</a>
</g>
</g>
<!-- Node15 -->
<g id="Node000015" class="node">
<title>Node15</title>
<g id="a_Node000015"><a xlink:title=" ">
<polygon fill="#e0e0e0" stroke="#999999" points="615.5,-74 565.5,-74 565.5,-55 615.5,-55 615.5,-74"/>
<text text-anchor="middle" x="590.5" y="-62" font-family="Helvetica,sans-Serif" font-size="10.00">QLineF</text>
</a>
</g>
</g>
<!-- Node12&#45;&gt;Node15 -->
<g id="edge14_Node000012_Node000015" class="edge">
<title>Node12&#45;&gt;Node15</title>
<g id="a_edge14_Node000012_Node000015"><a xlink:title=" ">
<path fill="none" stroke="#63b8ff" d="M650.93,-109.98C640.08,-102 623.62,-89.88 610.62,-80.31"/>
<polygon fill="#63b8ff" stroke="#63b8ff" points="612.41,-77.28 602.28,-74.17 608.26,-82.92 612.41,-77.28"/>
</a>
</g>
</g>
<!-- Node16 -->
<g id="Node000016" class="node">
<title>Node16</title>
<g id="a_Node000016"><a xlink:title=" ">
<polygon fill="#e0e0e0" stroke="#999999" points="663,-74 634,-74 634,-55 663,-55 663,-74"/>
<text text-anchor="middle" x="648.5" y="-62" font-family="Helvetica,sans-Serif" font-size="10.00">Qt</text>
</a>
</g>
</g>
<!-- Node12&#45;&gt;Node16 -->
<g id="edge17_Node000012_Node000016" class="edge">
<title>Node12&#45;&gt;Node16</title>
<g id="a_edge17_Node000012_Node000016"><a xlink:title=" ">
<path fill="none" stroke="#63b8ff" d="M660.19,-109.75C658.33,-102.72 655.66,-92.62 653.35,-83.84"/>
<polygon fill="#63b8ff" stroke="#63b8ff" points="656.71,-82.86 650.77,-74.09 649.94,-84.65 656.71,-82.86"/>
</a>
</g>
</g>
<!-- Node17 -->
<g id="Node000017" class="node">
<title>Node17</title>
<g id="a_Node000017"><a xlink:title=" ">
<polygon fill="#e0e0e0" stroke="#999999" points="737.5,-74 681.5,-74 681.5,-55 737.5,-55 737.5,-74"/>
<text text-anchor="middle" x="709.5" y="-62" font-family="Helvetica,sans-Serif" font-size="10.00">QPrinter</text>
</a>
</g>
</g>
<!-- Node12&#45;&gt;Node17 -->
<g id="edge19_Node000012_Node000017" class="edge">
<title>Node12&#45;&gt;Node17</title>
<g id="a_edge19_Node000012_Node000017"><a xlink:title=" ">
<path fill="none" stroke="#63b8ff" d="M670.26,-109.75C676.97,-102.18 686.84,-91.05 695.01,-81.84"/>
<polygon fill="#63b8ff" stroke="#63b8ff" points="697.87,-83.89 701.88,-74.09 692.63,-79.25 697.87,-83.89"/>
</a>
</g>
</g>
<!-- Node18 -->
<g id="Node000018" class="node">
<title>Node18</title>
<g id="a_Node000018"><a xlink:title=" ">
<polygon fill="#e0e0e0" stroke="#999999" points="807,-74 756,-74 756,-55 807,-55 807,-74"/>
<text text-anchor="middle" x="781.5" y="-62" font-family="Helvetica,sans-Serif" font-size="10.00">csignal</text>
</a>
</g>
</g>
<!-- Node12&#45;&gt;Node18 -->
<g id="edge20_Node000012_Node000018" class="edge">
<title>Node12&#45;&gt;Node18</title>
<g id="a_edge20_Node000012_Node000018"><a xlink:title=" ">
<path fill="none" stroke="#63b8ff" d="M681.62,-109.98C700.85,-101.42 730.73,-88.11 752.81,-78.28"/>
<polygon fill="#63b8ff" stroke="#63b8ff" points="754.32,-81.44 762.03,-74.17 751.47,-75.04 754.32,-81.44"/>
</a>
</g>
</g>
<!-- Node19 -->
<g id="Node000019" class="node">
<title>Node19</title>
<g id="a_Node000019"><a xlink:href="../../d4/d82/debugbreak_8h.html" target="_top" xlink:title=" ">
<polygon fill="white" stroke="#666666" points="908,-74 825,-74 825,-55 908,-55 908,-74"/>
<text text-anchor="middle" x="866.5" y="-62" font-family="Helvetica,sans-Serif" font-size="10.00">debugbreak.h</text>
</a>
</g>
</g>
<!-- Node12&#45;&gt;Node19 -->
<g id="edge21_Node000012_Node000019" class="edge">
<title>Node12&#45;&gt;Node19</title>
<g id="a_edge21_Node000012_Node000019"><a xlink:title=" ">
<path fill="none" stroke="#63b8ff" d="M695.28,-109.98C730.12,-100.93 785.37,-86.58 823.64,-76.64"/>
<polygon fill="#63b8ff" stroke="#63b8ff" points="824.67,-79.98 833.47,-74.08 822.91,-73.21 824.67,-79.98"/>
</a>
</g>
</g>
<!-- Node20 -->
<g id="Node000020" class="node">
<title>Node20</title>
<g id="a_Node000020"><a xlink:title=" ">
<polygon fill="#e0e0e0" stroke="#999999" points="894,-19 839,-19 839,0 894,0 894,-19"/>
<text text-anchor="middle" x="866.5" y="-7" font-family="Helvetica,sans-Serif" font-size="10.00">signal.h</text>
</a>
</g>
</g>
<!-- Node19&#45;&gt;Node20 -->
<g id="edge22_Node000019_Node000020" class="edge">
<title>Node19&#45;&gt;Node20</title>
<g id="a_edge22_Node000019_Node000020"><a xlink:title=" ">
<path fill="none" stroke="#63b8ff" d="M866.5,-54.75C866.5,-47.8 866.5,-37.85 866.5,-29.13"/>
<polygon fill="#63b8ff" stroke="#63b8ff" points="870,-29.09 866.5,-19.09 863,-29.09 870,-29.09"/>
</a>
</g>
</g>
<!-- Node21&#45;&gt;Node11 -->
<g id="edge24_Node000021_Node000011" class="edge">
<title>Node21&#45;&gt;Node11</title>
<g id="a_edge24_Node000021_Node000011"><a xlink:title=" ">
<path fill="none" stroke="#63b8ff" d="M540.04,-109.75C536.38,-102.57 531.09,-92.18 526.55,-83.27"/>
<polygon fill="#63b8ff" stroke="#63b8ff" points="529.53,-81.41 521.88,-74.09 523.3,-84.59 529.53,-81.41"/>
</a>
</g>
</g>
</g>
</svg>
