<?xml version="1.0" encoding="UTF-8" standalone="no"?>
<!DOCTYPE svg PUBLIC "-//W3C//DTD SVG 1.1//EN"
 "http://www.w3.org/Graphics/SVG/1.1/DTD/svg11.dtd">
<!-- Generated by graphviz version 2.43.0 (0)
 -->
<!-- Title: MultiSizeConverter Pages: 1 -->
<svg width="298pt" height="1857pt"
 viewBox="0.00 0.00 297.50 1857.00" xmlns="http://www.w3.org/2000/svg" xmlns:xlink="http://www.w3.org/1999/xlink">
<g id="graph0" class="graph" transform="scale(1 1) rotate(0) translate(4 1853)">
<title>MultiSizeConverter</title>
<!-- Node1 -->
<g id="Node000001" class="node">
<title>Node1</title>
<g id="a_Node000001"><a xlink:title=" ">
<polygon fill="#999999" stroke="transparent" points="216.5,-468 29.5,-468 29.5,0 216.5,0 216.5,-468"/>
<text text-anchor="start" x="76.5" y="-456" font-family="Helvetica,sans-Serif" font-size="10.00">MultiSizeConverter</text>
<text text-anchor="start" x="34" y="-441" font-family="Helvetica,sans-Serif" font-size="10.00">+</text>
<text text-anchor="start" x="47" y="-441" font-family="Helvetica,sans-Serif" font-size="10.00">MeasurementMaxVerStr</text>
<text text-anchor="start" x="34" y="-426" font-family="Helvetica,sans-Serif" font-size="10.00">+</text>
<text text-anchor="start" x="47" y="-426" font-family="Helvetica,sans-Serif" font-size="10.00">CurrentSchema</text>
<text text-anchor="start" x="34" y="-411" font-family="Helvetica,sans-Serif" font-size="10.00">+</text>
<text text-anchor="start" x="47" y="-411" font-family="Helvetica,sans-Serif" font-size="10.00">MeasurementMinVer</text>
<text text-anchor="start" x="34" y="-396" font-family="Helvetica,sans-Serif" font-size="10.00">+</text>
<text text-anchor="start" x="47" y="-396" font-family="Helvetica,sans-Serif" font-size="10.00">MeasurementMaxVer</text>
<text text-anchor="start" x="36.5" y="-381" font-family="Helvetica,sans-Serif" font-size="10.00">&#45;</text>
<text text-anchor="start" x="47" y="-381" font-family="Helvetica,sans-Serif" font-size="10.00">MeasurementMinVerStr</text>
<text text-anchor="start" x="34" y="-366" font-family="Helvetica,sans-Serif" font-size="10.00">+</text>
<text text-anchor="start" x="47" y="-366" font-family="Helvetica,sans-Serif" font-size="10.00">MultiSizeConverter()</text>
<text text-anchor="start" x="34" y="-351" font-family="Helvetica,sans-Serif" font-size="10.00">+</text>
<text text-anchor="start" x="47" y="-351" font-family="Helvetica,sans-Serif" font-size="10.00">~MultiSizeConverter()</text>
<text text-anchor="start" x="34" y="-336" font-family="Helvetica,sans-Serif" font-size="10.00">#</text>
<text text-anchor="start" x="47" y="-336" font-family="Helvetica,sans-Serif" font-size="10.00">minVer()</text>
<text text-anchor="start" x="34" y="-321" font-family="Helvetica,sans-Serif" font-size="10.00">#</text>
<text text-anchor="start" x="47" y="-321" font-family="Helvetica,sans-Serif" font-size="10.00">maxVer()</text>
<text text-anchor="start" x="34" y="-306" font-family="Helvetica,sans-Serif" font-size="10.00">#</text>
<text text-anchor="start" x="47" y="-306" font-family="Helvetica,sans-Serif" font-size="10.00">minVerStr()</text>
<text text-anchor="start" x="34" y="-291" font-family="Helvetica,sans-Serif" font-size="10.00">#</text>
<text text-anchor="start" x="47" y="-291" font-family="Helvetica,sans-Serif" font-size="10.00">maxVerStr()</text>
<text text-anchor="start" x="34" y="-276" font-family="Helvetica,sans-Serif" font-size="10.00">#</text>
<text text-anchor="start" x="47" y="-276" font-family="Helvetica,sans-Serif" font-size="10.00">getSchema()</text>
<text text-anchor="start" x="34" y="-261" font-family="Helvetica,sans-Serif" font-size="10.00">#</text>
<text text-anchor="start" x="47" y="-261" font-family="Helvetica,sans-Serif" font-size="10.00">applyPatches()</text>
<text text-anchor="start" x="34" y="-246" font-family="Helvetica,sans-Serif" font-size="10.00">#</text>
<text text-anchor="start" x="47" y="-246" font-family="Helvetica,sans-Serif" font-size="10.00">downgradeToCurrentMaxVersion()</text>
<text text-anchor="start" x="34" y="-231" font-family="Helvetica,sans-Serif" font-size="10.00">#</text>
<text text-anchor="start" x="47" y="-231" font-family="Helvetica,sans-Serif" font-size="10.00">isReadOnly()</text>
<text text-anchor="start" x="36.5" y="-216" font-family="Helvetica,sans-Serif" font-size="10.00">&#45;</text>
<text text-anchor="start" x="47" y="-216" font-family="Helvetica,sans-Serif" font-size="10.00">addNewTagsForVer0_4_0()</text>
<text text-anchor="start" x="36.5" y="-201" font-family="Helvetica,sans-Serif" font-size="10.00">&#45;</text>
<text text-anchor="start" x="47" y="-201" font-family="Helvetica,sans-Serif" font-size="10.00">removeTagsForVer0_4_0()</text>
<text text-anchor="start" x="36.5" y="-186" font-family="Helvetica,sans-Serif" font-size="10.00">&#45;</text>
<text text-anchor="start" x="47" y="-186" font-family="Helvetica,sans-Serif" font-size="10.00">convertMeasurementsToV0</text>
<text text-anchor="start" x="47" y="-175" font-family="Helvetica,sans-Serif" font-size="10.00">_4_0()</text>
<text text-anchor="start" x="36.5" y="-160" font-family="Helvetica,sans-Serif" font-size="10.00">&#45;</text>
<text text-anchor="start" x="47" y="-160" font-family="Helvetica,sans-Serif" font-size="10.00">addMeasurementsVer0</text>
<text text-anchor="start" x="47" y="-149" font-family="Helvetica,sans-Serif" font-size="10.00">_4_0()</text>
<text text-anchor="start" x="36.5" y="-134" font-family="Helvetica,sans-Serif" font-size="10.00">&#45;</text>
<text text-anchor="start" x="47" y="-134" font-family="Helvetica,sans-Serif" font-size="10.00">convertPmSystemToVer0</text>
<text text-anchor="start" x="47" y="-123" font-family="Helvetica,sans-Serif" font-size="10.00">_4_1()</text>
<text text-anchor="start" x="36.5" y="-108" font-family="Helvetica,sans-Serif" font-size="10.00">&#45;</text>
<text text-anchor="start" x="47" y="-108" font-family="Helvetica,sans-Serif" font-size="10.00">convertMeasurementsToV0</text>
<text text-anchor="start" x="47" y="-97" font-family="Helvetica,sans-Serif" font-size="10.00">_4_2()</text>
<text text-anchor="start" x="36.5" y="-82" font-family="Helvetica,sans-Serif" font-size="10.00">&#45;</text>
<text text-anchor="start" x="47" y="-82" font-family="Helvetica,sans-Serif" font-size="10.00">convertToVer0_4_0()</text>
<text text-anchor="start" x="36.5" y="-67" font-family="Helvetica,sans-Serif" font-size="10.00">&#45;</text>
<text text-anchor="start" x="47" y="-67" font-family="Helvetica,sans-Serif" font-size="10.00">convertToVer0_4_1()</text>
<text text-anchor="start" x="36.5" y="-52" font-family="Helvetica,sans-Serif" font-size="10.00">&#45;</text>
<text text-anchor="start" x="47" y="-52" font-family="Helvetica,sans-Serif" font-size="10.00">convertToVer0_4_2()</text>
<text text-anchor="start" x="36.5" y="-37" font-family="Helvetica,sans-Serif" font-size="10.00">&#45;</text>
<text text-anchor="start" x="47" y="-37" font-family="Helvetica,sans-Serif" font-size="10.00">convertToVer0_4_3()</text>
<text text-anchor="start" x="36.5" y="-22" font-family="Helvetica,sans-Serif" font-size="10.00">&#45;</text>
<text text-anchor="start" x="47" y="-22" font-family="Helvetica,sans-Serif" font-size="10.00">convertToVer0_4_4()</text>
<text text-anchor="start" x="36.5" y="-7" font-family="Helvetica,sans-Serif" font-size="10.00">&#45;</text>
<text text-anchor="start" x="47" y="-7" font-family="Helvetica,sans-Serif" font-size="10.00">convertToVer0_4_5()</text>
<polygon fill="#666666" stroke="#666666" points="30,-451 30,-451 217,-451 217,-451 30,-451"/>
<polygon fill="#666666" stroke="#666666" points="30,-376 30,-376 45,-376 45,-376 30,-376"/>
<polygon fill="#666666" stroke="#666666" points="45,-376 45,-376 217,-376 217,-376 45,-376"/>
<polygon fill="none" stroke="#666666" points="29.5,0 29.5,-468 216.5,-468 216.5,0 29.5,0"/>
</a>
</g>
</g>
<!-- Node2 -->
<g id="Node000002" class="node">
<title>Node2</title>
<g id="a_Node000002"><a xlink:href="../../d8/d6b/classAbstractMConverter.html" target="_top" xlink:title=" ">
<polygon fill="white" stroke="transparent" points="192.5,-636 53.5,-636 53.5,-505 192.5,-505 192.5,-636"/>
<text text-anchor="start" x="74.5" y="-623.5" font-family="Helvetica,sans-Serif" font-size="10.00">AbstractMConverter</text>
<text text-anchor="start" x="121.5" y="-608.5" font-family="Helvetica,sans-Serif" font-size="10.00"> </text>
<text text-anchor="start" x="58" y="-593.5" font-family="Helvetica,sans-Serif" font-size="10.00">+</text>
<text text-anchor="start" x="71" y="-593.5" font-family="Helvetica,sans-Serif" font-size="10.00">AbstractMConverter()</text>
<text text-anchor="start" x="58" y="-578.5" font-family="Helvetica,sans-Serif" font-size="10.00">+</text>
<text text-anchor="start" x="71" y="-578.5" font-family="Helvetica,sans-Serif" font-size="10.00">~AbstractMConverter()</text>
<text text-anchor="start" x="58" y="-563.5" font-family="Helvetica,sans-Serif" font-size="10.00">#</text>
<text text-anchor="start" x="71" y="-563.5" font-family="Helvetica,sans-Serif" font-size="10.00">AddRootComment()</text>
<text text-anchor="start" x="58" y="-548.5" font-family="Helvetica,sans-Serif" font-size="10.00">#</text>
<text text-anchor="start" x="71" y="-548.5" font-family="Helvetica,sans-Serif" font-size="10.00">OldNamesToNewNames</text>
<text text-anchor="start" x="71" y="-537.5" font-family="Helvetica,sans-Serif" font-size="10.00">_InV0_3_0()</text>
<text text-anchor="start" x="58" y="-522.5" font-family="Helvetica,sans-Serif" font-size="10.00">#</text>
<text text-anchor="start" x="71" y="-522.5" font-family="Helvetica,sans-Serif" font-size="10.00">OldNamesToNewNames</text>
<text text-anchor="start" x="71" y="-511.5" font-family="Helvetica,sans-Serif" font-size="10.00">_InV0_3_3()</text>
<polygon fill="#666666" stroke="#666666" points="54,-618.5 54,-618.5 193,-618.5 193,-618.5 54,-618.5"/>
<polygon fill="#666666" stroke="#666666" points="54,-603.5 54,-603.5 193,-603.5 193,-603.5 54,-603.5"/>
<polygon fill="none" stroke="#666666" points="53.5,-505 53.5,-636 192.5,-636 192.5,-505 53.5,-505"/>
</a>
</g>
</g>
<!-- Node2&#45;&gt;Node1 -->
<g id="edge1_Node000001_Node000002" class="edge">
<title>Node2&#45;&gt;Node1</title>
<g id="a_edge1_Node000001_Node000002"><a xlink:title=" ">
<path fill="none" stroke="#63b8ff" d="M123,-494.56C123,-486.13 123,-477.24 123,-468.04"/>
<polygon fill="none" stroke="#63b8ff" points="119.5,-494.61 123,-504.61 126.5,-494.61 119.5,-494.61"/>
</a>
</g>
</g>
<!-- Node3 -->
<g id="Node000003" class="node">
<title>Node3</title>
<g id="a_Node000003"><a xlink:href="../../dc/d68/classVAbstractConverter.html" target="_top" xlink:title=" ">
<polygon fill="white" stroke="transparent" points="216.5,-1112 29.5,-1112 29.5,-673 216.5,-673 216.5,-1112"/>
<text text-anchor="start" x="76" y="-1099.5" font-family="Helvetica,sans-Serif" font-size="10.00">VAbstractConverter</text>
<text text-anchor="start" x="34" y="-1084.5" font-family="Helvetica,sans-Serif" font-size="10.00">#</text>
<text text-anchor="start" x="47" y="-1084.5" font-family="Helvetica,sans-Serif" font-size="10.00">m_ver</text>
<text text-anchor="start" x="34" y="-1069.5" font-family="Helvetica,sans-Serif" font-size="10.00">#</text>
<text text-anchor="start" x="47" y="-1069.5" font-family="Helvetica,sans-Serif" font-size="10.00">m_convertedFileName</text>
<text text-anchor="start" x="36.5" y="-1054.5" font-family="Helvetica,sans-Serif" font-size="10.00">&#45;</text>
<text text-anchor="start" x="47" y="-1054.5" font-family="Helvetica,sans-Serif" font-size="10.00">m_tmpFile</text>
<text text-anchor="start" x="34" y="-1039.5" font-family="Helvetica,sans-Serif" font-size="10.00">+</text>
<text text-anchor="start" x="47" y="-1039.5" font-family="Helvetica,sans-Serif" font-size="10.00">VAbstractConverter()</text>
<text text-anchor="start" x="34" y="-1024.5" font-family="Helvetica,sans-Serif" font-size="10.00">+</text>
<text text-anchor="start" x="47" y="-1024.5" font-family="Helvetica,sans-Serif" font-size="10.00">~VAbstractConverter()</text>
<text text-anchor="start" x="34" y="-1009.5" font-family="Helvetica,sans-Serif" font-size="10.00">+</text>
<text text-anchor="start" x="47" y="-1009.5" font-family="Helvetica,sans-Serif" font-size="10.00">Convert()</text>
<text text-anchor="start" x="34" y="-994.5" font-family="Helvetica,sans-Serif" font-size="10.00">+</text>
<text text-anchor="start" x="47" y="-994.5" font-family="Helvetica,sans-Serif" font-size="10.00">GetCurrentFormatVarsion()</text>
<text text-anchor="start" x="34" y="-979.5" font-family="Helvetica,sans-Serif" font-size="10.00">+</text>
<text text-anchor="start" x="47" y="-979.5" font-family="Helvetica,sans-Serif" font-size="10.00">GetVersionStr()</text>
<text text-anchor="start" x="34" y="-964.5" font-family="Helvetica,sans-Serif" font-size="10.00">+</text>
<text text-anchor="start" x="47" y="-964.5" font-family="Helvetica,sans-Serif" font-size="10.00">GetVersion()</text>
<text text-anchor="start" x="34" y="-949.5" font-family="Helvetica,sans-Serif" font-size="10.00">#</text>
<text text-anchor="start" x="47" y="-949.5" font-family="Helvetica,sans-Serif" font-size="10.00">ValidateInputFile()</text>
<text text-anchor="start" x="34" y="-934.5" font-family="Helvetica,sans-Serif" font-size="10.00">#</text>
<text text-anchor="start" x="47" y="-934.5" font-family="Helvetica,sans-Serif" font-size="10.00">InvalidVersion()</text>
<text text-anchor="start" x="34" y="-919.5" font-family="Helvetica,sans-Serif" font-size="10.00">#</text>
<text text-anchor="start" x="47" y="-919.5" font-family="Helvetica,sans-Serif" font-size="10.00">Save()</text>
<text text-anchor="start" x="34" y="-904.5" font-family="Helvetica,sans-Serif" font-size="10.00">#</text>
<text text-anchor="start" x="47" y="-904.5" font-family="Helvetica,sans-Serif" font-size="10.00">setVersion()</text>
<text text-anchor="start" x="34" y="-889.5" font-family="Helvetica,sans-Serif" font-size="10.00">#</text>
<text text-anchor="start" x="47" y="-889.5" font-family="Helvetica,sans-Serif" font-size="10.00">minVer()</text>
<text text-anchor="start" x="34" y="-874.5" font-family="Helvetica,sans-Serif" font-size="10.00">#</text>
<text text-anchor="start" x="47" y="-874.5" font-family="Helvetica,sans-Serif" font-size="10.00">maxVer()</text>
<text text-anchor="start" x="34" y="-859.5" font-family="Helvetica,sans-Serif" font-size="10.00">#</text>
<text text-anchor="start" x="47" y="-859.5" font-family="Helvetica,sans-Serif" font-size="10.00">minVerStr()</text>
<text text-anchor="start" x="34" y="-844.5" font-family="Helvetica,sans-Serif" font-size="10.00">#</text>
<text text-anchor="start" x="47" y="-844.5" font-family="Helvetica,sans-Serif" font-size="10.00">maxVerStr()</text>
<text text-anchor="start" x="34" y="-829.5" font-family="Helvetica,sans-Serif" font-size="10.00">#</text>
<text text-anchor="start" x="47" y="-829.5" font-family="Helvetica,sans-Serif" font-size="10.00">getSchema()</text>
<text text-anchor="start" x="34" y="-814.5" font-family="Helvetica,sans-Serif" font-size="10.00">#</text>
<text text-anchor="start" x="47" y="-814.5" font-family="Helvetica,sans-Serif" font-size="10.00">applyPatches()</text>
<text text-anchor="start" x="34" y="-799.5" font-family="Helvetica,sans-Serif" font-size="10.00">#</text>
<text text-anchor="start" x="47" y="-799.5" font-family="Helvetica,sans-Serif" font-size="10.00">downgradeToCurrentMaxVersion()</text>
<text text-anchor="start" x="34" y="-784.5" font-family="Helvetica,sans-Serif" font-size="10.00">#</text>
<text text-anchor="start" x="47" y="-784.5" font-family="Helvetica,sans-Serif" font-size="10.00">isReadOnly()</text>
<text text-anchor="start" x="34" y="-769.5" font-family="Helvetica,sans-Serif" font-size="10.00">#</text>
<text text-anchor="start" x="47" y="-769.5" font-family="Helvetica,sans-Serif" font-size="10.00">Replace()</text>
<text text-anchor="start" x="34" y="-754.5" font-family="Helvetica,sans-Serif" font-size="10.00">#</text>
<text text-anchor="start" x="47" y="-754.5" font-family="Helvetica,sans-Serif" font-size="10.00">CorrectionsPositions()</text>
<text text-anchor="start" x="34" y="-739.5" font-family="Helvetica,sans-Serif" font-size="10.00">#</text>
<text text-anchor="start" x="47" y="-739.5" font-family="Helvetica,sans-Serif" font-size="10.00">BiasTokens()</text>
<text text-anchor="start" x="36.5" y="-724.5" font-family="Helvetica,sans-Serif" font-size="10.00">&#45;</text>
<text text-anchor="start" x="47" y="-724.5" font-family="Helvetica,sans-Serif" font-size="10.00">ReserveFile()</text>
<text text-anchor="start" x="36.5" y="-709.5" font-family="Helvetica,sans-Serif" font-size="10.00">&#45;</text>
<text text-anchor="start" x="47" y="-709.5" font-family="Helvetica,sans-Serif" font-size="10.00">ValidateVersion()</text>
<text text-anchor="start" x="36.5" y="-694.5" font-family="Helvetica,sans-Serif" font-size="10.00">&#45;</text>
<text text-anchor="start" x="47" y="-694.5" font-family="Helvetica,sans-Serif" font-size="10.00">removeVersionNumber()</text>
<text text-anchor="start" x="36.5" y="-679.5" font-family="Helvetica,sans-Serif" font-size="10.00">&#45;</text>
<text text-anchor="start" x="47" y="-679.5" font-family="Helvetica,sans-Serif" font-size="10.00">removeBakExtension()</text>
<polygon fill="#666666" stroke="#666666" points="30,-1094.5 30,-1094.5 217,-1094.5 217,-1094.5 30,-1094.5"/>
<polygon fill="#666666" stroke="#666666" points="30,-1049.5 30,-1049.5 45,-1049.5 45,-1049.5 30,-1049.5"/>
<polygon fill="#666666" stroke="#666666" points="45,-1049.5 45,-1049.5 217,-1049.5 217,-1049.5 45,-1049.5"/>
<polygon fill="none" stroke="#666666" points="29.5,-673 29.5,-1112 216.5,-1112 216.5,-673 29.5,-673"/>
</a>
</g>
</g>
<!-- Node3&#45;&gt;Node2 -->
<g id="edge2_Node000002_Node000003" class="edge">
<title>Node3&#45;&gt;Node2</title>
<g id="a_edge2_Node000002_Node000003"><a xlink:title=" ">
<path fill="none" stroke="#63b8ff" d="M123,-662.55C123,-653.29 123,-644.4 123,-636.06"/>
<polygon fill="none" stroke="#63b8ff" points="119.5,-662.75 123,-672.75 126.5,-662.75 119.5,-662.75"/>
</a>
</g>
</g>
<!-- Node4 -->
<g id="Node000004" class="node">
<title>Node4</title>
<g id="a_Node000004"><a xlink:href="../../d6/deb/classVDomDocument.html" target="_top" xlink:title="The VDomDocument class represents a Seamly2D document (.val file).">
<polygon fill="white" stroke="transparent" points="198.5,-1753 47.5,-1753 47.5,-1149 198.5,-1149 198.5,-1753"/>
<text text-anchor="start" x="83" y="-1741" font-family="Helvetica,sans-Serif" font-size="10.00">VDomDocument</text>
<text text-anchor="start" x="52" y="-1726" font-family="Helvetica,sans-Serif" font-size="10.00">+</text>
<text text-anchor="start" x="65" y="-1726" font-family="Helvetica,sans-Serif" font-size="10.00">AttrId</text>
<text text-anchor="start" x="52" y="-1711" font-family="Helvetica,sans-Serif" font-size="10.00">+</text>
<text text-anchor="start" x="65" y="-1711" font-family="Helvetica,sans-Serif" font-size="10.00">AttrText</text>
<text text-anchor="start" x="52" y="-1696" font-family="Helvetica,sans-Serif" font-size="10.00">+</text>
<text text-anchor="start" x="65" y="-1696" font-family="Helvetica,sans-Serif" font-size="10.00">AttrBold</text>
<text text-anchor="start" x="52" y="-1681" font-family="Helvetica,sans-Serif" font-size="10.00">+</text>
<text text-anchor="start" x="65" y="-1681" font-family="Helvetica,sans-Serif" font-size="10.00">AttrItalic</text>
<text text-anchor="start" x="52" y="-1666" font-family="Helvetica,sans-Serif" font-size="10.00">+</text>
<text text-anchor="start" x="65" y="-1666" font-family="Helvetica,sans-Serif" font-size="10.00">AttrAlignment</text>
<text text-anchor="start" x="52" y="-1651" font-family="Helvetica,sans-Serif" font-size="10.00">+</text>
<text text-anchor="start" x="65" y="-1651" font-family="Helvetica,sans-Serif" font-size="10.00">AttrFSIncrement</text>
<text text-anchor="start" x="52" y="-1636" font-family="Helvetica,sans-Serif" font-size="10.00">+</text>
<text text-anchor="start" x="65" y="-1636" font-family="Helvetica,sans-Serif" font-size="10.00">TagVersion</text>
<text text-anchor="start" x="52" y="-1621" font-family="Helvetica,sans-Serif" font-size="10.00">+</text>
<text text-anchor="start" x="65" y="-1621" font-family="Helvetica,sans-Serif" font-size="10.00">TagUnit</text>
<text text-anchor="start" x="52" y="-1606" font-family="Helvetica,sans-Serif" font-size="10.00">+</text>
<text text-anchor="start" x="65" y="-1606" font-family="Helvetica,sans-Serif" font-size="10.00">TagLine</text>
<text text-anchor="start" x="52" y="-1591" font-family="Helvetica,sans-Serif" font-size="10.00">+</text>
<text text-anchor="start" x="65" y="-1591" font-family="Helvetica,sans-Serif" font-size="10.00">VDomDocument()</text>
<text text-anchor="start" x="52" y="-1576" font-family="Helvetica,sans-Serif" font-size="10.00">+</text>
<text text-anchor="start" x="65" y="-1576" font-family="Helvetica,sans-Serif" font-size="10.00">~VDomDocument()</text>
<text text-anchor="start" x="52" y="-1561" font-family="Helvetica,sans-Serif" font-size="10.00">+</text>
<text text-anchor="start" x="65" y="-1561" font-family="Helvetica,sans-Serif" font-size="10.00">elementById()</text>
<text text-anchor="start" x="52" y="-1546" font-family="Helvetica,sans-Serif" font-size="10.00">+</text>
<text text-anchor="start" x="65" y="-1546" font-family="Helvetica,sans-Serif" font-size="10.00">SetAttribute()</text>
<text text-anchor="start" x="52" y="-1531" font-family="Helvetica,sans-Serif" font-size="10.00">+</text>
<text text-anchor="start" x="65" y="-1531" font-family="Helvetica,sans-Serif" font-size="10.00">measurementUnits()</text>
<text text-anchor="start" x="52" y="-1516" font-family="Helvetica,sans-Serif" font-size="10.00">+</text>
<text text-anchor="start" x="65" y="-1516" font-family="Helvetica,sans-Serif" font-size="10.00">setXMLContent()</text>
<text text-anchor="start" x="52" y="-1501" font-family="Helvetica,sans-Serif" font-size="10.00">+</text>
<text text-anchor="start" x="65" y="-1501" font-family="Helvetica,sans-Serif" font-size="10.00">SaveDocument()</text>
<text text-anchor="start" x="52" y="-1486" font-family="Helvetica,sans-Serif" font-size="10.00">+</text>
<text text-anchor="start" x="65" y="-1486" font-family="Helvetica,sans-Serif" font-size="10.00">Major()</text>
<text text-anchor="start" x="52" y="-1471" font-family="Helvetica,sans-Serif" font-size="10.00">+</text>
<text text-anchor="start" x="65" y="-1471" font-family="Helvetica,sans-Serif" font-size="10.00">Minor()</text>
<text text-anchor="start" x="52" y="-1456" font-family="Helvetica,sans-Serif" font-size="10.00">+</text>
<text text-anchor="start" x="65" y="-1456" font-family="Helvetica,sans-Serif" font-size="10.00">Patch()</text>
<text text-anchor="start" x="65" y="-1441" font-family="Helvetica,sans-Serif" font-size="10.00">and 8 more...</text>
<text text-anchor="start" x="52" y="-1426" font-family="Helvetica,sans-Serif" font-size="10.00">+</text>
<text text-anchor="start" x="65" y="-1426" font-family="Helvetica,sans-Serif" font-size="10.00">GetParametrUInt()</text>
<text text-anchor="start" x="52" y="-1411" font-family="Helvetica,sans-Serif" font-size="10.00">+</text>
<text text-anchor="start" x="65" y="-1411" font-family="Helvetica,sans-Serif" font-size="10.00">getParameterBool()</text>
<text text-anchor="start" x="52" y="-1396" font-family="Helvetica,sans-Serif" font-size="10.00">+</text>
<text text-anchor="start" x="65" y="-1396" font-family="Helvetica,sans-Serif" font-size="10.00">GetParametrUsage()</text>
<text text-anchor="start" x="52" y="-1381" font-family="Helvetica,sans-Serif" font-size="10.00">+</text>
<text text-anchor="start" x="65" y="-1381" font-family="Helvetica,sans-Serif" font-size="10.00">SetParametrUsage()</text>
<text text-anchor="start" x="52" y="-1366" font-family="Helvetica,sans-Serif" font-size="10.00">+</text>
<text text-anchor="start" x="65" y="-1366" font-family="Helvetica,sans-Serif" font-size="10.00">GetParametrString()</text>
<text text-anchor="start" x="52" y="-1351" font-family="Helvetica,sans-Serif" font-size="10.00">+</text>
<text text-anchor="start" x="65" y="-1351" font-family="Helvetica,sans-Serif" font-size="10.00">GetParametrEmptyString()</text>
<text text-anchor="start" x="52" y="-1336" font-family="Helvetica,sans-Serif" font-size="10.00">+</text>
<text text-anchor="start" x="65" y="-1336" font-family="Helvetica,sans-Serif" font-size="10.00">GetParametrDouble()</text>
<text text-anchor="start" x="52" y="-1321" font-family="Helvetica,sans-Serif" font-size="10.00">+</text>
<text text-anchor="start" x="65" y="-1321" font-family="Helvetica,sans-Serif" font-size="10.00">getParameterId()</text>
<text text-anchor="start" x="52" y="-1306" font-family="Helvetica,sans-Serif" font-size="10.00">+</text>
<text text-anchor="start" x="65" y="-1306" font-family="Helvetica,sans-Serif" font-size="10.00">ValidateXML()</text>
<text text-anchor="start" x="52" y="-1291" font-family="Helvetica,sans-Serif" font-size="10.00">+</text>
<text text-anchor="start" x="65" y="-1291" font-family="Helvetica,sans-Serif" font-size="10.00">UnitsHelpString()</text>
<text text-anchor="start" x="52" y="-1276" font-family="Helvetica,sans-Serif" font-size="10.00">+</text>
<text text-anchor="start" x="65" y="-1276" font-family="Helvetica,sans-Serif" font-size="10.00">RemoveAllChildren()</text>
<text text-anchor="start" x="52" y="-1261" font-family="Helvetica,sans-Serif" font-size="10.00">+</text>
<text text-anchor="start" x="65" y="-1261" font-family="Helvetica,sans-Serif" font-size="10.00">SafeCopy()</text>
<text text-anchor="start" x="52" y="-1246" font-family="Helvetica,sans-Serif" font-size="10.00">#</text>
<text text-anchor="start" x="65" y="-1246" font-family="Helvetica,sans-Serif" font-size="10.00">setTagText()</text>
<text text-anchor="start" x="52" y="-1231" font-family="Helvetica,sans-Serif" font-size="10.00">#</text>
<text text-anchor="start" x="65" y="-1231" font-family="Helvetica,sans-Serif" font-size="10.00">setTagText()</text>
<text text-anchor="start" x="52" y="-1216" font-family="Helvetica,sans-Serif" font-size="10.00">#</text>
<text text-anchor="start" x="65" y="-1216" font-family="Helvetica,sans-Serif" font-size="10.00">UniqueTagText()</text>
<text text-anchor="start" x="52" y="-1201" font-family="Helvetica,sans-Serif" font-size="10.00">#</text>
<text text-anchor="start" x="65" y="-1201" font-family="Helvetica,sans-Serif" font-size="10.00">TestUniqueId()</text>
<text text-anchor="start" x="52" y="-1186" font-family="Helvetica,sans-Serif" font-size="10.00">#</text>
<text text-anchor="start" x="65" y="-1186" font-family="Helvetica,sans-Serif" font-size="10.00">CollectId()</text>
<text text-anchor="start" x="54.5" y="-1171" font-family="Helvetica,sans-Serif" font-size="10.00">&#45;</text>
<text text-anchor="start" x="65" y="-1171" font-family="Helvetica,sans-Serif" font-size="10.00">find()</text>
<text text-anchor="start" x="54.5" y="-1156" font-family="Helvetica,sans-Serif" font-size="10.00">&#45;</text>
<text text-anchor="start" x="65" y="-1156" font-family="Helvetica,sans-Serif" font-size="10.00">SaveCanonicalXML()</text>
<polygon fill="#666666" stroke="#666666" points="48,-1736 48,-1736 199,-1736 199,-1736 48,-1736"/>
<polygon fill="#666666" stroke="#666666" points="48,-1601 48,-1601 63,-1601 63,-1601 48,-1601"/>
<polygon fill="#666666" stroke="#666666" points="63,-1601 63,-1601 199,-1601 199,-1601 63,-1601"/>
<polygon fill="none" stroke="#666666" points="47.5,-1149 47.5,-1753 198.5,-1753 198.5,-1149 47.5,-1149"/>
</a>
</g>
</g>
<!-- Node4&#45;&gt;Node3 -->
<g id="edge3_Node000003_Node000004" class="edge">
<title>Node4&#45;&gt;Node3</title>
<g id="a_edge3_Node000003_Node000004"><a xlink:title=" ">
<path fill="none" stroke="#63b8ff" d="M123,-1138.88C123,-1129.98 123,-1121.12 123,-1112.35"/>
<polygon fill="none" stroke="#63b8ff" points="119.5,-1138.95 123,-1148.95 126.5,-1138.95 119.5,-1138.95"/>
</a>
</g>
</g>
<!-- Node5 -->
<g id="Node000005" class="node">
<title>Node5</title>
<g id="a_Node000005"><a xlink:title=" ">
<polygon fill="white" stroke="transparent" points="92,-1849 0,-1849 0,-1800 92,-1800 92,-1849"/>
<text text-anchor="start" x="5" y="-1836.5" font-family="Helvetica,sans-Serif" font-size="10.00">QDomDocument</text>
<text text-anchor="start" x="44" y="-1821.5" font-family="Helvetica,sans-Serif" font-size="10.00"> </text>
<text text-anchor="start" x="44" y="-1806.5" font-family="Helvetica,sans-Serif" font-size="10.00"> </text>
<polygon fill="#666666" stroke="#666666" points="0,-1831.5 0,-1831.5 92,-1831.5 92,-1831.5 0,-1831.5"/>
<polygon fill="#666666" stroke="#666666" points="0,-1816.5 0,-1816.5 92,-1816.5 92,-1816.5 0,-1816.5"/>
<polygon fill="none" stroke="#666666" points="0,-1800 0,-1849 92,-1849 92,-1800 0,-1800"/>
</a>
</g>
</g>
<!-- Node5&#45;&gt;Node4 -->
<g id="edge4_Node000004_Node000005" class="edge">
<title>Node5&#45;&gt;Node4</title>
<g id="a_edge4_Node000004_Node000005"><a xlink:title=" ">
<path fill="none" stroke="#63b8ff" d="M52.97,-1789.89C55.12,-1779.49 57.69,-1767.08 60.56,-1753.25"/>
<polygon fill="none" stroke="#63b8ff" points="49.48,-1789.48 50.88,-1799.98 56.33,-1790.9 49.48,-1789.48"/>
</a>
</g>
</g>
<!-- Node6 -->
<g id="Node000006" class="node">
<title>Node6</title>
<g id="a_Node000006"><a xlink:href="../../da/da1/classQHash.html" target="_top" xlink:title=" ">
<polygon fill="white" stroke="transparent" points="289.5,-1849 110.5,-1849 110.5,-1800 289.5,-1800 289.5,-1849"/>
<text text-anchor="start" x="116" y="-1836.5" font-family="Helvetica,sans-Serif" font-size="10.00">QHash&lt; quint32, QDomElement &gt;</text>
<text text-anchor="start" x="198.5" y="-1821.5" font-family="Helvetica,sans-Serif" font-size="10.00"> </text>
<text text-anchor="start" x="198.5" y="-1806.5" font-family="Helvetica,sans-Serif" font-size="10.00"> </text>
<polygon fill="#666666" stroke="#666666" points="111,-1831.5 111,-1831.5 290,-1831.5 290,-1831.5 111,-1831.5"/>
<polygon fill="#666666" stroke="#666666" points="111,-1816.5 111,-1816.5 290,-1816.5 290,-1816.5 111,-1816.5"/>
<polygon fill="none" stroke="#666666" points="110.5,-1800 110.5,-1849 289.5,-1849 289.5,-1800 110.5,-1800"/>
</a>
</g>
</g>
<!-- Node6&#45;&gt;Node4 -->
<g id="edge5_Node000004_Node000006" class="edge">
<title>Node6&#45;&gt;Node4</title>
<g id="a_edge5_Node000004_Node000006"><a xlink:title=" ">
<path fill="none" stroke="#63b8ff" d="M195.12,-1799.98C193.17,-1790.57 190.72,-1778.71 187.89,-1765.09"/>
<polygon fill="none" stroke="#63b8ff" points="187.88,-1765 182.74,-1759.94 185.44,-1753.25 190.57,-1758.32 187.88,-1765"/>
</a>
</g>
<text text-anchor="middle" x="204.5" y="-1774" font-family="Helvetica,sans-Serif" font-size="10.00" fill="grey"> &#45;map</text>
</g>
</g>
</svg>
