<?xml version="1.0" encoding="UTF-8" standalone="no"?>
<!DOCTYPE svg PUBLIC "-//W3C//DTD SVG 1.1//EN"
 "http://www.w3.org/Graphics/SVG/1.1/DTD/svg11.dtd">
<!-- Generated by graphviz version 2.43.0 (0)
 -->
<!-- Title: src/libs/ifc/exception/vexception.cpp Pages: 1 -->
<svg width="817pt" height="313pt"
 viewBox="0.00 0.00 817.00 313.00" xmlns="http://www.w3.org/2000/svg" xmlns:xlink="http://www.w3.org/1999/xlink">
<g id="graph0" class="graph" transform="scale(1 1) rotate(0) translate(4 309)">
<title>src/libs/ifc/exception/vexception.cpp</title>
<!-- Node1 -->
<g id="Node000001" class="node">
<title>Node1</title>
<g id="a_Node000001"><a xlink:title=" ">
<polygon fill="#999999" stroke="#666666" points="400,-305 283,-305 283,-275 400,-275 400,-305"/>
<text text-anchor="start" x="291" y="-293" font-family="Helvetica,sans-Serif" font-size="10.00">src/libs/ifc/exception</text>
<text text-anchor="middle" x="341.5" y="-282" font-family="Helvetica,sans-Serif" font-size="10.00">/vexception.cpp</text>
</a>
</g>
</g>
<!-- Node2 -->
<g id="Node000002" class="node">
<title>Node2</title>
<g id="a_Node000002"><a xlink:href="../../d1/d44/vexception_8h.html" target="_top" xlink:title=" ">
<polygon fill="white" stroke="#666666" points="415.5,-239 335.5,-239 335.5,-220 415.5,-220 415.5,-239"/>
<text text-anchor="middle" x="375.5" y="-227" font-family="Helvetica,sans-Serif" font-size="10.00">vexception.h</text>
</a>
</g>
</g>
<!-- Node1&#45;&gt;Node2 -->
<g id="edge1_Node000001_Node000002" class="edge">
<title>Node1&#45;&gt;Node2</title>
<g id="a_edge1_Node000001_Node000002"><a xlink:title=" ">
<path fill="none" stroke="#63b8ff" d="M349.73,-274.84C354.41,-266.78 360.32,-256.62 365.3,-248.06"/>
<polygon fill="#63b8ff" stroke="#63b8ff" points="368.41,-249.67 370.41,-239.27 362.35,-246.15 368.41,-249.67"/>
</a>
</g>
</g>
<!-- Node7 -->
<g id="Node000007" class="node">
<title>Node7</title>
<g id="a_Node000007"><a xlink:href="../../d3/da5/ifcdef_8h.html" target="_top" xlink:title=" ">
<polygon fill="white" stroke="#666666" points="306.5,-184 244.5,-184 244.5,-165 306.5,-165 306.5,-184"/>
<text text-anchor="middle" x="275.5" y="-172" font-family="Helvetica,sans-Serif" font-size="10.00">../ifcdef.h</text>
</a>
</g>
</g>
<!-- Node1&#45;&gt;Node7 -->
<g id="edge26_Node000001_Node000007" class="edge">
<title>Node1&#45;&gt;Node7</title>
<g id="a_edge26_Node000001_Node000007"><a xlink:title=" ">
<path fill="none" stroke="#63b8ff" d="M333.14,-274.63C321.05,-253.84 298.72,-215.44 285.69,-193.02"/>
<polygon fill="#63b8ff" stroke="#63b8ff" points="288.63,-191.11 280.58,-184.23 282.58,-194.63 288.63,-191.11"/>
</a>
</g>
</g>
<!-- Node9 -->
<g id="Node000009" class="node">
<title>Node9</title>
<g id="a_Node000009"><a xlink:title=" ">
<polygon fill="#e0e0e0" stroke="#999999" points="59,-74 0,-74 0,-55 59,-55 59,-74"/>
<text text-anchor="middle" x="29.5" y="-62" font-family="Helvetica,sans-Serif" font-size="10.00">QtGlobal</text>
</a>
</g>
</g>
<!-- Node1&#45;&gt;Node9 -->
<g id="edge25_Node000001_Node000009" class="edge">
<title>Node1&#45;&gt;Node9</title>
<g id="a_edge25_Node000001_Node000009"><a xlink:title=" ">
<path fill="none" stroke="#63b8ff" d="M291.8,-274.93C226.47,-253.9 112.53,-208.04 48.5,-129 38.2,-116.29 33.48,-98.11 31.32,-84.45"/>
<polygon fill="#63b8ff" stroke="#63b8ff" points="34.76,-83.76 30.04,-74.27 27.81,-84.63 34.76,-83.76"/>
</a>
</g>
</g>
<!-- Node19 -->
<g id="Node000019" class="node">
<title>Node19</title>
<g id="a_Node000019"><a xlink:title=" ">
<polygon fill="#e0e0e0" stroke="#999999" points="507,-239 434,-239 434,-220 507,-220 507,-239"/>
<text text-anchor="middle" x="470.5" y="-227" font-family="Helvetica,sans-Serif" font-size="10.00">QByteArray</text>
</a>
</g>
</g>
<!-- Node1&#45;&gt;Node19 -->
<g id="edge24_Node000001_Node000019" class="edge">
<title>Node1&#45;&gt;Node19</title>
<g id="a_edge24_Node000001_Node000019"><a xlink:title=" ">
<path fill="none" stroke="#63b8ff" d="M372.4,-274.99C393.63,-265.36 421.61,-252.67 442.25,-243.31"/>
<polygon fill="#63b8ff" stroke="#63b8ff" points="443.79,-246.46 451.45,-239.14 440.9,-240.08 443.79,-246.46"/>
</a>
</g>
</g>
<!-- Node3 -->
<g id="Node000003" class="node">
<title>Node3</title>
<g id="a_Node000003"><a xlink:title=" ">
<polygon fill="#e0e0e0" stroke="#999999" points="737.5,-74 617.5,-74 617.5,-55 737.5,-55 737.5,-74"/>
<text text-anchor="middle" x="677.5" y="-62" font-family="Helvetica,sans-Serif" font-size="10.00">qcompilerdetection.h</text>
</a>
</g>
</g>
<!-- Node2&#45;&gt;Node3 -->
<g id="edge2_Node000002_Node000003" class="edge">
<title>Node2&#45;&gt;Node3</title>
<g id="a_edge2_Node000002_Node000003"><a xlink:title=" ">
<path fill="none" stroke="#63b8ff" d="M415.57,-220.89C446.71,-213.99 490.36,-202.09 525.5,-184 580.5,-155.69 635.34,-106.47 661.56,-81.3"/>
<polygon fill="#63b8ff" stroke="#63b8ff" points="664.02,-83.8 668.75,-74.32 659.14,-78.78 664.02,-83.8"/>
</a>
</g>
</g>
<!-- Node4 -->
<g id="Node000004" class="node">
<title>Node4</title>
<g id="a_Node000004"><a xlink:title=" ">
<polygon fill="#e0e0e0" stroke="#999999" points="426,-184 325,-184 325,-165 426,-165 426,-184"/>
<text text-anchor="middle" x="375.5" y="-172" font-family="Helvetica,sans-Serif" font-size="10.00">QCoreApplication</text>
</a>
</g>
</g>
<!-- Node2&#45;&gt;Node4 -->
<g id="edge3_Node000002_Node000004" class="edge">
<title>Node2&#45;&gt;Node4</title>
<g id="a_edge3_Node000002_Node000004"><a xlink:title=" ">
<path fill="none" stroke="#63b8ff" d="M375.5,-219.75C375.5,-212.8 375.5,-202.85 375.5,-194.13"/>
<polygon fill="#63b8ff" stroke="#63b8ff" points="379,-194.09 375.5,-184.09 372,-194.09 379,-194.09"/>
</a>
</g>
</g>
<!-- Node5 -->
<g id="Node000005" class="node">
<title>Node5</title>
<g id="a_Node000005"><a xlink:title=" ">
<polygon fill="#e0e0e0" stroke="#999999" points="516.5,-184 444.5,-184 444.5,-165 516.5,-165 516.5,-184"/>
<text text-anchor="middle" x="480.5" y="-172" font-family="Helvetica,sans-Serif" font-size="10.00">QException</text>
</a>
</g>
</g>
<!-- Node2&#45;&gt;Node5 -->
<g id="edge4_Node000002_Node000005" class="edge">
<title>Node2&#45;&gt;Node5</title>
<g id="a_edge4_Node000002_Node000005"><a xlink:title=" ">
<path fill="none" stroke="#63b8ff" d="M392.37,-219.98C409.11,-211.54 435,-198.47 454.39,-188.68"/>
<polygon fill="#63b8ff" stroke="#63b8ff" points="455.97,-191.8 463.32,-184.17 452.82,-185.55 455.97,-191.8"/>
</a>
</g>
</g>
<!-- Node6 -->
<g id="Node000006" class="node">
<title>Node6</title>
<g id="a_Node000006"><a xlink:title=" ">
<polygon fill="#e0e0e0" stroke="#999999" points="809,-74 756,-74 756,-55 809,-55 809,-74"/>
<text text-anchor="middle" x="782.5" y="-62" font-family="Helvetica,sans-Serif" font-size="10.00">QString</text>
</a>
</g>
</g>
<!-- Node2&#45;&gt;Node6 -->
<g id="edge5_Node000002_Node000006" class="edge">
<title>Node2&#45;&gt;Node6</title>
<g id="a_edge5_Node000002_Node000006"><a xlink:title=" ">
<path fill="none" stroke="#63b8ff" d="M415.65,-221.43C452.69,-214.25 508.83,-201.66 555.5,-184 634.03,-154.29 720.23,-103.92 760.05,-79.55"/>
<polygon fill="#63b8ff" stroke="#63b8ff" points="762.03,-82.44 768.71,-74.21 758.36,-76.48 762.03,-82.44"/>
</a>
</g>
</g>
<!-- Node2&#45;&gt;Node7 -->
<g id="edge6_Node000002_Node000007" class="edge">
<title>Node2&#45;&gt;Node7</title>
<g id="a_edge6_Node000002_Node000007"><a xlink:title=" ">
<path fill="none" stroke="#63b8ff" d="M359.43,-219.98C343.64,-211.61 319.28,-198.7 300.87,-188.95"/>
<polygon fill="#63b8ff" stroke="#63b8ff" points="302.33,-185.76 291.86,-184.17 299.06,-191.95 302.33,-185.76"/>
</a>
</g>
</g>
<!-- Node7&#45;&gt;Node6 -->
<g id="edge7_Node000007_Node000006" class="edge">
<title>Node7&#45;&gt;Node6</title>
<g id="a_edge7_Node000007_Node000006"><a xlink:title=" ">
<path fill="none" stroke="#63b8ff" d="M306.71,-167.01C394.52,-148.73 643.37,-96.8 745.76,-74.11"/>
<polygon fill="#63b8ff" stroke="#63b8ff" points="746.78,-77.47 755.78,-71.88 745.26,-70.64 746.78,-77.47"/>
</a>
</g>
</g>
<!-- Node8 -->
<g id="Node000008" class="node">
<title>Node8</title>
<g id="a_Node000008"><a xlink:title=" ">
<polygon fill="#e0e0e0" stroke="#999999" points="147.5,-74 77.5,-74 77.5,-55 147.5,-55 147.5,-74"/>
<text text-anchor="middle" x="112.5" y="-62" font-family="Helvetica,sans-Serif" font-size="10.00">QStringList</text>
</a>
</g>
</g>
<!-- Node7&#45;&gt;Node8 -->
<g id="edge8_Node000007_Node000008" class="edge">
<title>Node7&#45;&gt;Node8</title>
<g id="a_edge8_Node000007_Node000008"><a xlink:title=" ">
<path fill="none" stroke="#63b8ff" d="M269.32,-164.58C259.64,-151.17 239.68,-125.69 217.5,-110 197.41,-95.78 172.07,-84.88 151.32,-77.43"/>
<polygon fill="#63b8ff" stroke="#63b8ff" points="152.44,-74.11 141.84,-74.14 150.15,-80.72 152.44,-74.11"/>
</a>
</g>
</g>
<!-- Node7&#45;&gt;Node9 -->
<g id="edge9_Node000007_Node000009" class="edge">
<title>Node7&#45;&gt;Node9</title>
<g id="a_edge9_Node000007_Node000009"><a xlink:title=" ">
<path fill="none" stroke="#63b8ff" d="M264.09,-164.83C243.59,-149.36 201.11,-117.91 184.5,-110 164.14,-100.3 108.02,-85.19 69.21,-75.31"/>
<polygon fill="#63b8ff" stroke="#63b8ff" points="69.81,-71.86 59.26,-72.8 68.1,-78.64 69.81,-71.86"/>
</a>
</g>
</g>
<!-- Node10 -->
<g id="Node000010" class="node">
<title>Node10</title>
<g id="a_Node000010"><a xlink:href="../../d4/da4/def_8h.html" target="_top" xlink:title=" ">
<polygon fill="white" stroke="#666666" points="351.5,-129 269.5,-129 269.5,-110 351.5,-110 351.5,-129"/>
<text text-anchor="middle" x="310.5" y="-117" font-family="Helvetica,sans-Serif" font-size="10.00">../vmisc/def.h</text>
</a>
</g>
</g>
<!-- Node7&#45;&gt;Node10 -->
<g id="edge10_Node000007_Node000010" class="edge">
<title>Node7&#45;&gt;Node10</title>
<g id="a_edge10_Node000007_Node000010"><a xlink:title=" ">
<path fill="none" stroke="#63b8ff" d="M281.28,-164.75C286.12,-157.42 293.18,-146.73 299.14,-137.7"/>
<polygon fill="#63b8ff" stroke="#63b8ff" points="302.24,-139.36 304.83,-129.09 296.4,-135.5 302.24,-139.36"/>
</a>
</g>
</g>
<!-- Node18 -->
<g id="Node000018" class="node">
<title>Node18</title>
<g id="a_Node000018"><a xlink:href="../../d6/dcd/diagnostic_8h.html" target="_top" xlink:title=" ">
<polygon fill="white" stroke="#666666" points="175,-129 58,-129 58,-110 175,-110 175,-129"/>
<text text-anchor="middle" x="116.5" y="-117" font-family="Helvetica,sans-Serif" font-size="10.00">../vmisc/diagnostic.h</text>
</a>
</g>
</g>
<!-- Node7&#45;&gt;Node18 -->
<g id="edge22_Node000007_Node000018" class="edge">
<title>Node7&#45;&gt;Node18</title>
<g id="a_edge22_Node000007_Node000018"><a xlink:title=" ">
<path fill="none" stroke="#63b8ff" d="M249.95,-164.98C223.38,-156.13 181.56,-142.19 151.83,-132.28"/>
<polygon fill="#63b8ff" stroke="#63b8ff" points="152.84,-128.92 142.25,-129.08 150.63,-135.56 152.84,-128.92"/>
</a>
</g>
</g>
<!-- Node10&#45;&gt;Node3 -->
<g id="edge11_Node000010_Node000003" class="edge">
<title>Node10&#45;&gt;Node3</title>
<g id="a_edge11_Node000010_Node000003"><a xlink:title=" ">
<path fill="none" stroke="#63b8ff" d="M351.53,-112.57C413.83,-103.58 533,-86.37 608.7,-75.44"/>
<polygon fill="#63b8ff" stroke="#63b8ff" points="609.23,-78.9 618.63,-74 608.23,-71.97 609.23,-78.9"/>
</a>
</g>
</g>
<!-- Node10&#45;&gt;Node6 -->
<g id="edge14_Node000010_Node000006" class="edge">
<title>Node10&#45;&gt;Node6</title>
<g id="a_edge14_Node000010_Node000006"><a xlink:title=" ">
<path fill="none" stroke="#63b8ff" d="M351.61,-116.09C427.55,-111.26 595.04,-98.8 745.93,-73.86"/>
<polygon fill="#63b8ff" stroke="#63b8ff" points="746.56,-77.31 755.84,-72.2 745.4,-70.4 746.56,-77.31"/>
</a>
</g>
</g>
<!-- Node10&#45;&gt;Node8 -->
<g id="edge15_Node000010_Node000008" class="edge">
<title>Node10&#45;&gt;Node8</title>
<g id="a_edge15_Node000010_Node000008"><a xlink:title=" ">
<path fill="none" stroke="#63b8ff" d="M278.69,-109.98C245.01,-100.97 191.7,-86.7 154.58,-76.76"/>
<polygon fill="#63b8ff" stroke="#63b8ff" points="155.13,-73.29 144.56,-74.08 153.32,-80.05 155.13,-73.29"/>
</a>
</g>
</g>
<!-- Node10&#45;&gt;Node9 -->
<g id="edge17_Node000010_Node000009" class="edge">
<title>Node10&#45;&gt;Node9</title>
<g id="a_edge17_Node000010_Node000009"><a xlink:title=" ">
<path fill="none" stroke="#63b8ff" d="M269.32,-111.35C223.17,-103.24 145.87,-89.39 69.56,-74.16"/>
<polygon fill="#63b8ff" stroke="#63b8ff" points="69.78,-70.63 59.29,-72.1 68.41,-77.5 69.78,-70.63"/>
</a>
</g>
</g>
<!-- Node11 -->
<g id="Node000011" class="node">
<title>Node11</title>
<g id="a_Node000011"><a xlink:title=" ">
<polygon fill="#e0e0e0" stroke="#999999" points="599,-74 526,-74 526,-55 599,-55 599,-74"/>
<text text-anchor="middle" x="562.5" y="-62" font-family="Helvetica,sans-Serif" font-size="10.00">QFileDialog</text>
</a>
</g>
</g>
<!-- Node10&#45;&gt;Node11 -->
<g id="edge12_Node000010_Node000011" class="edge">
<title>Node10&#45;&gt;Node11</title>
<g id="a_edge12_Node000010_Node000011"><a xlink:title=" ">
<path fill="none" stroke="#63b8ff" d="M350.99,-109.98C395.97,-100.53 468.47,-85.28 515.81,-75.32"/>
<polygon fill="#63b8ff" stroke="#63b8ff" points="516.73,-78.7 525.8,-73.22 515.29,-71.85 516.73,-78.7"/>
</a>
</g>
</g>
<!-- Node12 -->
<g id="Node000012" class="node">
<title>Node12</title>
<g id="a_Node000012"><a xlink:title=" ">
<polygon fill="#e0e0e0" stroke="#999999" points="215.5,-74 165.5,-74 165.5,-55 215.5,-55 215.5,-74"/>
<text text-anchor="middle" x="190.5" y="-62" font-family="Helvetica,sans-Serif" font-size="10.00">QLineF</text>
</a>
</g>
</g>
<!-- Node10&#45;&gt;Node12 -->
<g id="edge13_Node000010_Node000012" class="edge">
<title>Node10&#45;&gt;Node12</title>
<g id="a_edge13_Node000010_Node000012"><a xlink:title=" ">
<path fill="none" stroke="#63b8ff" d="M291.22,-109.98C271.83,-101.42 241.69,-88.11 219.43,-78.28"/>
<polygon fill="#63b8ff" stroke="#63b8ff" points="220.69,-75.01 210.13,-74.17 217.86,-81.41 220.69,-75.01"/>
</a>
</g>
</g>
<!-- Node13 -->
<g id="Node000013" class="node">
<title>Node13</title>
<g id="a_Node000013"><a xlink:title=" ">
<polygon fill="#e0e0e0" stroke="#999999" points="263,-74 234,-74 234,-55 263,-55 263,-74"/>
<text text-anchor="middle" x="248.5" y="-62" font-family="Helvetica,sans-Serif" font-size="10.00">Qt</text>
</a>
</g>
</g>
<!-- Node10&#45;&gt;Node13 -->
<g id="edge16_Node000010_Node000013" class="edge">
<title>Node10&#45;&gt;Node13</title>
<g id="a_edge16_Node000010_Node000013"><a xlink:title=" ">
<path fill="none" stroke="#63b8ff" d="M300.54,-109.98C291.37,-102.15 277.56,-90.34 266.47,-80.86"/>
<polygon fill="#63b8ff" stroke="#63b8ff" points="268.52,-78.01 258.64,-74.17 263.97,-83.33 268.52,-78.01"/>
</a>
</g>
</g>
<!-- Node14 -->
<g id="Node000014" class="node">
<title>Node14</title>
<g id="a_Node000014"><a xlink:title=" ">
<polygon fill="#e0e0e0" stroke="#999999" points="337.5,-74 281.5,-74 281.5,-55 337.5,-55 337.5,-74"/>
<text text-anchor="middle" x="309.5" y="-62" font-family="Helvetica,sans-Serif" font-size="10.00">QPrinter</text>
</a>
</g>
</g>
<!-- Node10&#45;&gt;Node14 -->
<g id="edge18_Node000010_Node000014" class="edge">
<title>Node10&#45;&gt;Node14</title>
<g id="a_edge18_Node000010_Node000014"><a xlink:title=" ">
<path fill="none" stroke="#63b8ff" d="M310.33,-109.75C310.2,-102.8 310.02,-92.85 309.85,-84.13"/>
<polygon fill="#63b8ff" stroke="#63b8ff" points="313.35,-84.02 309.66,-74.09 306.35,-84.15 313.35,-84.02"/>
</a>
</g>
</g>
<!-- Node15 -->
<g id="Node000015" class="node">
<title>Node15</title>
<g id="a_Node000015"><a xlink:title=" ">
<polygon fill="#e0e0e0" stroke="#999999" points="407,-74 356,-74 356,-55 407,-55 407,-74"/>
<text text-anchor="middle" x="381.5" y="-62" font-family="Helvetica,sans-Serif" font-size="10.00">csignal</text>
</a>
</g>
</g>
<!-- Node10&#45;&gt;Node15 -->
<g id="edge19_Node000010_Node000015" class="edge">
<title>Node10&#45;&gt;Node15</title>
<g id="a_edge19_Node000010_Node000015"><a xlink:title=" ">
<path fill="none" stroke="#63b8ff" d="M321.91,-109.98C332.61,-102 348.84,-89.88 361.66,-80.31"/>
<polygon fill="#63b8ff" stroke="#63b8ff" points="363.97,-82.96 369.89,-74.17 359.78,-77.35 363.97,-82.96"/>
</a>
</g>
</g>
<!-- Node16 -->
<g id="Node000016" class="node">
<title>Node16</title>
<g id="a_Node000016"><a xlink:href="../../d4/d82/debugbreak_8h.html" target="_top" xlink:title=" ">
<polygon fill="white" stroke="#666666" points="508,-74 425,-74 425,-55 508,-55 508,-74"/>
<text text-anchor="middle" x="466.5" y="-62" font-family="Helvetica,sans-Serif" font-size="10.00">debugbreak.h</text>
</a>
</g>
</g>
<!-- Node10&#45;&gt;Node16 -->
<g id="edge20_Node000010_Node000016" class="edge">
<title>Node10&#45;&gt;Node16</title>
<g id="a_edge20_Node000010_Node000016"><a xlink:title=" ">
<path fill="none" stroke="#63b8ff" d="M335.56,-109.98C361.53,-101.16 402.31,-87.31 431.46,-77.41"/>
<polygon fill="#63b8ff" stroke="#63b8ff" points="432.9,-80.61 441.24,-74.08 430.65,-73.99 432.9,-80.61"/>
</a>
</g>
</g>
<!-- Node17 -->
<g id="Node000017" class="node">
<title>Node17</title>
<g id="a_Node000017"><a xlink:title=" ">
<polygon fill="#e0e0e0" stroke="#999999" points="494,-19 439,-19 439,0 494,0 494,-19"/>
<text text-anchor="middle" x="466.5" y="-7" font-family="Helvetica,sans-Serif" font-size="10.00">signal.h</text>
</a>
</g>
</g>
<!-- Node16&#45;&gt;Node17 -->
<g id="edge21_Node000016_Node000017" class="edge">
<title>Node16&#45;&gt;Node17</title>
<g id="a_edge21_Node000016_Node000017"><a xlink:title=" ">
<path fill="none" stroke="#63b8ff" d="M466.5,-54.75C466.5,-47.8 466.5,-37.85 466.5,-29.13"/>
<polygon fill="#63b8ff" stroke="#63b8ff" points="470,-29.09 466.5,-19.09 463,-29.09 470,-29.09"/>
</a>
</g>
</g>
<!-- Node18&#45;&gt;Node9 -->
<g id="edge23_Node000018_Node000009" class="edge">
<title>Node18&#45;&gt;Node9</title>
<g id="a_edge23_Node000018_Node000009"><a xlink:title=" ">
<path fill="none" stroke="#63b8ff" d="M102.52,-109.98C89.03,-101.77 68.37,-89.18 52.46,-79.49"/>
<polygon fill="#63b8ff" stroke="#63b8ff" points="54.09,-76.38 43.73,-74.17 50.45,-82.36 54.09,-76.38"/>
</a>
</g>
</g>
</g>
</svg>
