<?xml version="1.0" encoding="UTF-8" standalone="no"?>
<!DOCTYPE svg PUBLIC "-//W3C//DTD SVG 1.1//EN"
 "http://www.w3.org/Graphics/SVG/1.1/DTD/svg11.dtd">
<!-- Generated by graphviz version 2.43.0 (0)
 -->
<!-- Title: src/libs/ifc/xml/vabstractpattern.h Pages: 1 -->
<svg width="1870pt" height="218pt"
 viewBox="0.00 0.00 1870.00 218.00" xmlns="http://www.w3.org/2000/svg" xmlns:xlink="http://www.w3.org/1999/xlink">
<g id="graph0" class="graph" transform="scale(1 1) rotate(0) translate(4 214)">
<title>src/libs/ifc/xml/vabstractpattern.h</title>
<polygon fill="white" stroke="transparent" points="-4,4 -4,-214 1866,-214 1866,4 -4,4"/>
<!-- Node1 -->
<g id="node1" class="node">
<title>Node1</title>
<g id="a_node1"><a xlink:title=" ">
<polygon fill="#bfbfbf" stroke="black" points="1208.5,-190.5 1208.5,-209.5 1389.5,-209.5 1389.5,-190.5 1208.5,-190.5"/>
<text text-anchor="middle" x="1299" y="-197.5" font-family="Helvetica,sans-Serif" font-size="10.00">src/libs/ifc/xml/vabstractpattern.h</text>
</a>
</g>
</g>
<!-- Node2 -->
<g id="node2" class="node">
<title>Node2</title>
<g id="a_node2"><a xlink:href="../../de/d7d/vabstractpattern_8cpp.html" target="_top" xlink:title=" ">
<polygon fill="white" stroke="black" points="486,-129 486,-148 678,-148 678,-129 486,-129"/>
<text text-anchor="middle" x="582" y="-136" font-family="Helvetica,sans-Serif" font-size="10.00">src/libs/ifc/xml/vabstractpattern.cpp</text>
</a>
</g>
</g>
<!-- Node1&#45;&gt;Node2 -->
<g id="edge1" class="edge">
<title>Node1&#45;&gt;Node2</title>
<path fill="none" stroke="midnightblue" d="M1198.34,-193.57C1076.92,-186.57 866.69,-172.99 687,-154 671.35,-152.35 654.45,-150.18 638.87,-148.03"/>
<polygon fill="midnightblue" stroke="midnightblue" points="1198.18,-197.07 1208.37,-194.15 1198.58,-190.08 1198.18,-197.07"/>
</g>
<!-- Node3 -->
<g id="node3" class="node">
<title>Node3</title>
<g id="a_node3"><a xlink:href="../../d6/de0/vlayoutpiece_8h.html" target="_top" xlink:title=" ">
<polygon fill="white" stroke="black" points="696,-129 696,-148 862,-148 862,-129 696,-129"/>
<text text-anchor="middle" x="779" y="-136" font-family="Helvetica,sans-Serif" font-size="10.00">src/libs/vlayout/vlayoutpiece.h</text>
</a>
</g>
</g>
<!-- Node1&#45;&gt;Node3 -->
<g id="edge2" class="edge">
<title>Node1&#45;&gt;Node3</title>
<path fill="none" stroke="midnightblue" d="M1214.41,-189.32C1114.21,-177.86 948.87,-158.94 853.37,-148.01"/>
<polygon fill="midnightblue" stroke="midnightblue" points="1214.16,-192.82 1224.5,-190.48 1214.96,-185.86 1214.16,-192.82"/>
</g>
<!-- Node13 -->
<g id="node13" class="node">
<title>Node13</title>
<g id="a_node13"><a xlink:href="../../d8/d70/vtextmanager_8cpp.html" target="_top" xlink:title=" ">
<polygon fill="white" stroke="black" points="1032,-129 1032,-148 1214,-148 1214,-129 1032,-129"/>
<text text-anchor="middle" x="1123" y="-136" font-family="Helvetica,sans-Serif" font-size="10.00">src/libs/vlayout/vtextmanager.cpp</text>
</a>
</g>
</g>
<!-- Node1&#45;&gt;Node13 -->
<g id="edge14" class="edge">
<title>Node1&#45;&gt;Node13</title>
<path fill="none" stroke="midnightblue" d="M1264.19,-187.23C1229.98,-175.67 1178.6,-158.3 1148.17,-148.01"/>
<polygon fill="midnightblue" stroke="midnightblue" points="1263.19,-190.59 1273.78,-190.48 1265.43,-183.96 1263.19,-190.59"/>
</g>
<!-- Node14 -->
<g id="node14" class="node">
<title>Node14</title>
<g id="a_node14"><a xlink:href="../../d0/da5/export__format__combobox_8h.html" target="_top" xlink:title=" ">
<polygon fill="white" stroke="black" points="1232.5,-123.5 1232.5,-153.5 1365.5,-153.5 1365.5,-123.5 1232.5,-123.5"/>
<text text-anchor="start" x="1240.5" y="-141.5" font-family="Helvetica,sans-Serif" font-size="10.00">src/libs/vwidgets/export</text>
<text text-anchor="middle" x="1299" y="-130.5" font-family="Helvetica,sans-Serif" font-size="10.00">_format_combobox.h</text>
</a>
</g>
</g>
<!-- Node1&#45;&gt;Node14 -->
<g id="edge15" class="edge">
<title>Node1&#45;&gt;Node14</title>
<path fill="none" stroke="midnightblue" d="M1299,-180.23C1299,-171.59 1299,-161.5 1299,-153.52"/>
<polygon fill="midnightblue" stroke="midnightblue" points="1295.5,-180.48 1299,-190.48 1302.5,-180.48 1295.5,-180.48"/>
</g>
<!-- Node16 -->
<g id="node16" class="node">
<title>Node16</title>
<g id="a_node16"><a xlink:href="../../d3/d86/page__format__combobox_8h.html" target="_top" xlink:title=" ">
<polygon fill="white" stroke="black" points="1383.5,-123.5 1383.5,-153.5 1508.5,-153.5 1508.5,-123.5 1383.5,-123.5"/>
<text text-anchor="start" x="1391.5" y="-141.5" font-family="Helvetica,sans-Serif" font-size="10.00">src/libs/vwidgets/page</text>
<text text-anchor="middle" x="1446" y="-130.5" font-family="Helvetica,sans-Serif" font-size="10.00">_format_combobox.h</text>
</a>
</g>
</g>
<!-- Node1&#45;&gt;Node16 -->
<g id="edge17" class="edge">
<title>Node1&#45;&gt;Node16</title>
<path fill="none" stroke="midnightblue" d="M1329.34,-186.72C1353.2,-177.06 1386.45,-163.6 1411.36,-153.52"/>
<polygon fill="midnightblue" stroke="midnightblue" points="1328.02,-183.48 1320.06,-190.48 1330.64,-189.97 1328.02,-183.48"/>
</g>
<!-- Node18 -->
<g id="node18" class="node">
<title>Node18</title>
<g id="a_node18"><a xlink:href="../../d7/df4/group__tablewidgetitem_8cpp.html" target="_top" xlink:title=" ">
<polygon fill="white" stroke="black" points="1526.5,-123.5 1526.5,-153.5 1655.5,-153.5 1655.5,-123.5 1526.5,-123.5"/>
<text text-anchor="start" x="1534.5" y="-141.5" font-family="Helvetica,sans-Serif" font-size="10.00">src/libs/vwidgets/group</text>
<text text-anchor="middle" x="1591" y="-130.5" font-family="Helvetica,sans-Serif" font-size="10.00">_tablewidgetitem.cpp</text>
</a>
</g>
</g>
<!-- Node1&#45;&gt;Node18 -->
<g id="edge19" class="edge">
<title>Node1&#45;&gt;Node18</title>
<path fill="none" stroke="midnightblue" d="M1350.9,-188.42C1399.91,-178.44 1473.56,-163.43 1526.36,-152.67"/>
<polygon fill="midnightblue" stroke="midnightblue" points="1349.94,-185.05 1340.84,-190.48 1351.33,-191.91 1349.94,-185.05"/>
</g>
<!-- Node19 -->
<g id="node19" class="node">
<title>Node19</title>
<g id="a_node19"><a xlink:href="../../de/d22/vsimplecurve_8cpp.html" target="_top" xlink:title=" ">
<polygon fill="white" stroke="black" points="1674,-129 1674,-148 1862,-148 1862,-129 1674,-129"/>
<text text-anchor="middle" x="1768" y="-136" font-family="Helvetica,sans-Serif" font-size="10.00">src/libs/vwidgets/vsimplecurve.cpp</text>
</a>
</g>
</g>
<!-- Node1&#45;&gt;Node19 -->
<g id="edge20" class="edge">
<title>Node1&#45;&gt;Node19</title>
<path fill="none" stroke="midnightblue" d="M1381.49,-189.28C1455.7,-180.43 1567.71,-166.83 1665,-154 1679.14,-152.14 1694.37,-150.04 1708.66,-148.04"/>
<polygon fill="midnightblue" stroke="midnightblue" points="1380.79,-185.84 1371.27,-190.49 1381.61,-192.79 1380.79,-185.84"/>
</g>
<!-- Node4 -->
<g id="node4" class="node">
<title>Node4</title>
<g id="a_node4"><a xlink:href="../../dd/d66/vdxfengine_8cpp.html" target="_top" xlink:title=" ">
<polygon fill="white" stroke="black" points="0,-62 0,-81 154,-81 154,-62 0,-62"/>
<text text-anchor="middle" x="77" y="-69" font-family="Helvetica,sans-Serif" font-size="10.00">src/libs/vdxf/vdxfengine.cpp</text>
</a>
</g>
</g>
<!-- Node3&#45;&gt;Node4 -->
<g id="edge3" class="edge">
<title>Node3&#45;&gt;Node4</title>
<path fill="none" stroke="midnightblue" d="M720.02,-127.42C709.06,-125.77 697.7,-124.21 687,-123 455.04,-96.8 394.82,-114.44 163,-87 149.77,-85.43 135.47,-83.23 122.4,-81.01"/>
<polygon fill="midnightblue" stroke="midnightblue" points="719.51,-130.88 729.93,-128.95 720.58,-123.96 719.51,-130.88"/>
</g>
<!-- Node5 -->
<g id="node5" class="node">
<title>Node5</title>
<g id="a_node5"><a xlink:href="../../de/da8/vbank_8cpp.html" target="_top" xlink:title=" ">
<polygon fill="white" stroke="black" points="172,-62 172,-81 316,-81 316,-62 172,-62"/>
<text text-anchor="middle" x="244" y="-69" font-family="Helvetica,sans-Serif" font-size="10.00">src/libs/vlayout/vbank.cpp</text>
</a>
</g>
</g>
<!-- Node3&#45;&gt;Node5 -->
<g id="edge4" class="edge">
<title>Node3&#45;&gt;Node5</title>
<path fill="none" stroke="midnightblue" d="M717.83,-127.36C707.55,-125.8 696.98,-124.28 687,-123 526.63,-102.41 485.14,-109.26 325,-87 312.97,-85.33 300,-83.17 288.04,-81.03"/>
<polygon fill="midnightblue" stroke="midnightblue" points="717.56,-130.86 727.98,-128.93 718.63,-123.94 717.56,-130.86"/>
</g>
<!-- Node6 -->
<g id="node6" class="node">
<title>Node6</title>
<g id="a_node6"><a xlink:href="../../df/d5d/vcontour_8cpp.html" target="_top" xlink:title=" ">
<polygon fill="white" stroke="black" points="334,-62 334,-81 490,-81 490,-62 334,-62"/>
<text text-anchor="middle" x="412" y="-69" font-family="Helvetica,sans-Serif" font-size="10.00">src/libs/vlayout/vcontour.cpp</text>
</a>
</g>
</g>
<!-- Node3&#45;&gt;Node6 -->
<g id="edge5" class="edge">
<title>Node3&#45;&gt;Node6</title>
<path fill="none" stroke="midnightblue" d="M720.37,-127.12C648.24,-114.34 527.14,-92.89 460.17,-81.03"/>
<polygon fill="midnightblue" stroke="midnightblue" points="720.19,-130.64 730.64,-128.94 721.41,-123.75 720.19,-130.64"/>
</g>
<!-- Node7 -->
<g id="node7" class="node">
<title>Node7</title>
<g id="a_node7"><a xlink:href="../../d2/d2d/vlayoutpaper__p_8h.html" target="_top" xlink:title=" ">
<polygon fill="white" stroke="black" points="508.5,-62 508.5,-81 687.5,-81 687.5,-62 508.5,-62"/>
<text text-anchor="middle" x="598" y="-69" font-family="Helvetica,sans-Serif" font-size="10.00">src/libs/vlayout/vlayoutpaper_p.h</text>
</a>
</g>
</g>
<!-- Node3&#45;&gt;Node7 -->
<g id="edge6" class="edge">
<title>Node3&#45;&gt;Node7</title>
<path fill="none" stroke="midnightblue" d="M745.41,-125.44C709.5,-112.54 653.48,-92.42 621.85,-81.06"/>
<polygon fill="midnightblue" stroke="midnightblue" points="744.37,-128.78 754.96,-128.87 746.74,-122.19 744.37,-128.78"/>
</g>
<!-- Node8 -->
<g id="node8" class="node">
<title>Node8</title>
<g id="a_node8"><a xlink:href="../../d1/dd1/vlayoutpaper_8cpp.html" target="_top" xlink:title=" ">
<polygon fill="white" stroke="black" points="627,-0.5 627,-19.5 805,-19.5 805,-0.5 627,-0.5"/>
<text text-anchor="middle" x="716" y="-7.5" font-family="Helvetica,sans-Serif" font-size="10.00">src/libs/vlayout/vlayoutpaper.cpp</text>
</a>
</g>
</g>
<!-- Node3&#45;&gt;Node8 -->
<g id="edge13" class="edge">
<title>Node3&#45;&gt;Node8</title>
<path fill="none" stroke="midnightblue" d="M761.85,-121.83C752.64,-112.54 741.81,-100.05 735,-87 723.3,-64.57 718.57,-34.61 716.86,-19.91"/>
<polygon fill="midnightblue" stroke="midnightblue" points="759.46,-124.39 769.08,-128.83 764.33,-119.36 759.46,-124.39"/>
</g>
<!-- Node9 -->
<g id="node9" class="node">
<title>Node9</title>
<g id="a_node9"><a xlink:href="../../d3/d39/vlayoutgenerator_8cpp.html" target="_top" xlink:title=" ">
<polygon fill="white" stroke="black" points="744.5,-62 744.5,-81 941.5,-81 941.5,-62 744.5,-62"/>
<text text-anchor="middle" x="843" y="-69" font-family="Helvetica,sans-Serif" font-size="10.00">src/libs/vlayout/vlayoutgenerator.cpp</text>
</a>
</g>
</g>
<!-- Node3&#45;&gt;Node9 -->
<g id="edge8" class="edge">
<title>Node3&#45;&gt;Node9</title>
<path fill="none" stroke="midnightblue" d="M794.76,-121.5C807.31,-108.75 824.4,-91.39 834.51,-81.13"/>
<polygon fill="midnightblue" stroke="midnightblue" points="792.15,-119.15 787.63,-128.73 797.14,-124.06 792.15,-119.15"/>
</g>
<!-- Node10 -->
<g id="node10" class="node">
<title>Node10</title>
<g id="a_node10"><a xlink:href="../../db/d5c/vposition_8h.html" target="_top" xlink:title=" ">
<polygon fill="white" stroke="black" points="960,-62 960,-81 1108,-81 1108,-62 960,-62"/>
<text text-anchor="middle" x="1034" y="-69" font-family="Helvetica,sans-Serif" font-size="10.00">src/libs/vlayout/vposition.h</text>
</a>
</g>
</g>
<!-- Node3&#45;&gt;Node10 -->
<g id="edge9" class="edge">
<title>Node3&#45;&gt;Node10</title>
<path fill="none" stroke="midnightblue" d="M822.53,-126.4C872.86,-113.58 954.61,-92.74 1000.33,-81.08"/>
<polygon fill="midnightblue" stroke="midnightblue" points="821.42,-123.07 812.6,-128.94 823.15,-129.86 821.42,-123.07"/>
</g>
<!-- Node12 -->
<g id="node12" class="node">
<title>Node12</title>
<g id="a_node12"><a xlink:href="../../dd/d70/vlayoutpiece_8cpp.html" target="_top" xlink:title=" ">
<polygon fill="white" stroke="black" points="1126.5,-62 1126.5,-81 1303.5,-81 1303.5,-62 1126.5,-62"/>
<text text-anchor="middle" x="1215" y="-69" font-family="Helvetica,sans-Serif" font-size="10.00">src/libs/vlayout/vlayoutpiece.cpp</text>
</a>
</g>
</g>
<!-- Node3&#45;&gt;Node12 -->
<g id="edge12" class="edge">
<title>Node3&#45;&gt;Node12</title>
<path fill="none" stroke="midnightblue" d="M846.56,-127.43C931.98,-114.69 1077.56,-92.99 1157.77,-81.03"/>
<polygon fill="midnightblue" stroke="midnightblue" points="845.82,-124 836.45,-128.94 846.85,-130.92 845.82,-124"/>
</g>
<!-- Node7&#45;&gt;Node8 -->
<g id="edge7" class="edge">
<title>Node7&#45;&gt;Node8</title>
<path fill="none" stroke="midnightblue" d="M624.05,-57.37C646.92,-45.83 679.51,-29.4 699.12,-19.51"/>
<polygon fill="midnightblue" stroke="midnightblue" points="622.26,-54.35 614.91,-61.98 625.41,-60.6 622.26,-54.35"/>
</g>
<!-- Node10&#45;&gt;Node8 -->
<g id="edge10" class="edge">
<title>Node10&#45;&gt;Node8</title>
<path fill="none" stroke="midnightblue" d="M978.51,-60.12C916.92,-48.59 818.7,-30.22 761.48,-19.51"/>
<polygon fill="midnightblue" stroke="midnightblue" points="977.97,-63.58 988.44,-61.98 979.25,-56.7 977.97,-63.58"/>
</g>
<!-- Node11 -->
<g id="node11" class="node">
<title>Node11</title>
<g id="a_node11"><a xlink:href="../../df/d76/vposition_8cpp.html" target="_top" xlink:title=" ">
<polygon fill="white" stroke="black" points="954.5,-0.5 954.5,-19.5 1113.5,-19.5 1113.5,-0.5 954.5,-0.5"/>
<text text-anchor="middle" x="1034" y="-7.5" font-family="Helvetica,sans-Serif" font-size="10.00">src/libs/vlayout/vposition.cpp</text>
</a>
</g>
</g>
<!-- Node10&#45;&gt;Node11 -->
<g id="edge11" class="edge">
<title>Node10&#45;&gt;Node11</title>
<path fill="none" stroke="midnightblue" d="M1034,-51.82C1034,-41 1034,-27.9 1034,-19.51"/>
<polygon fill="midnightblue" stroke="midnightblue" points="1030.5,-51.98 1034,-61.98 1037.5,-51.98 1030.5,-51.98"/>
</g>
<!-- Node15 -->
<g id="node15" class="node">
<title>Node15</title>
<g id="a_node15"><a xlink:href="../../df/d40/export__format__combobox_8cpp.html" target="_top" xlink:title=" ">
<polygon fill="white" stroke="black" points="1321.5,-56.5 1321.5,-86.5 1454.5,-86.5 1454.5,-56.5 1321.5,-56.5"/>
<text text-anchor="start" x="1329.5" y="-74.5" font-family="Helvetica,sans-Serif" font-size="10.00">src/libs/vwidgets/export</text>
<text text-anchor="middle" x="1388" y="-63.5" font-family="Helvetica,sans-Serif" font-size="10.00">_format_combobox.cpp</text>
</a>
</g>
</g>
<!-- Node14&#45;&gt;Node15 -->
<g id="edge16" class="edge">
<title>Node14&#45;&gt;Node15</title>
<path fill="none" stroke="midnightblue" d="M1326.45,-117.45C1340.14,-107.45 1356.37,-95.6 1368.73,-86.58"/>
<polygon fill="midnightblue" stroke="midnightblue" points="1324.32,-114.67 1318.31,-123.4 1328.45,-120.32 1324.32,-114.67"/>
</g>
<!-- Node17 -->
<g id="node17" class="node">
<title>Node17</title>
<g id="a_node17"><a xlink:href="../../d2/d28/page__format__combobox_8cpp.html" target="_top" xlink:title=" ">
<polygon fill="white" stroke="black" points="1472.5,-56.5 1472.5,-86.5 1603.5,-86.5 1603.5,-56.5 1472.5,-56.5"/>
<text text-anchor="start" x="1480.5" y="-74.5" font-family="Helvetica,sans-Serif" font-size="10.00">src/libs/vwidgets/page</text>
<text text-anchor="middle" x="1538" y="-63.5" font-family="Helvetica,sans-Serif" font-size="10.00">_format_combobox.cpp</text>
</a>
</g>
</g>
<!-- Node16&#45;&gt;Node17 -->
<g id="edge18" class="edge">
<title>Node16&#45;&gt;Node17</title>
<path fill="none" stroke="midnightblue" d="M1474.38,-117.45C1488.53,-107.45 1505.31,-95.6 1518.08,-86.58"/>
<polygon fill="midnightblue" stroke="midnightblue" points="1472.11,-114.77 1465.96,-123.4 1476.15,-120.48 1472.11,-114.77"/>
</g>
</g>
</svg>
