<?xml version="1.0" encoding="UTF-8" standalone="no"?>
<!DOCTYPE svg PUBLIC "-//W3C//DTD SVG 1.1//EN"
 "http://www.w3.org/Graphics/SVG/1.1/DTD/svg11.dtd">
<!-- Generated by graphviz version 2.43.0 (0)
 -->
<!-- Title: src/libs/vwidgets/vmaingraphicsscene.h Pages: 1 -->
<svg width="966pt" height="192pt"
 viewBox="0.00 0.00 965.50 192.00" xmlns="http://www.w3.org/2000/svg" xmlns:xlink="http://www.w3.org/1999/xlink">
<g id="graph0" class="graph" transform="scale(1 1) rotate(0) translate(4 188)">
<title>src/libs/vwidgets/vmaingraphicsscene.h</title>
<!-- Node1 -->
<g id="Node000001" class="node">
<title>Node1</title>
<g id="a_Node000001"><a xlink:title=" ">
<polygon fill="#999999" stroke="#666666" points="640.5,-184 429.5,-184 429.5,-165 640.5,-165 640.5,-184"/>
<text text-anchor="middle" x="535" y="-172" font-family="Helvetica,sans-Serif" font-size="10.00">src/libs/vwidgets/vmaingraphicsscene.h</text>
</a>
</g>
</g>
<!-- Node2 -->
<g id="Node000002" class="node">
<title>Node2</title>
<g id="a_Node000002"><a xlink:title=" ">
<polygon fill="#e0e0e0" stroke="#999999" points="120,-74 0,-74 0,-55 120,-55 120,-74"/>
<text text-anchor="middle" x="60" y="-62" font-family="Helvetica,sans-Serif" font-size="10.00">qcompilerdetection.h</text>
</a>
</g>
</g>
<!-- Node1&#45;&gt;Node2 -->
<g id="edge1_Node000001_Node000002" class="edge">
<title>Node1&#45;&gt;Node2</title>
<g id="a_edge1_Node000001_Node000002"><a xlink:title=" ">
<path fill="none" stroke="#63b8ff" d="M429.22,-165.75C365.73,-159.42 283.8,-148.24 213,-129 166.62,-116.4 115.6,-93.19 85.76,-78.59"/>
<polygon fill="#63b8ff" stroke="#63b8ff" points="87,-75.3 76.48,-74 83.89,-81.58 87,-75.3"/>
</a>
</g>
</g>
<!-- Node3 -->
<g id="Node000003" class="node">
<title>Node3</title>
<g id="a_Node000003"><a xlink:title=" ">
<polygon fill="#e0e0e0" stroke="#999999" points="477,-129 381,-129 381,-110 477,-110 477,-129"/>
<text text-anchor="middle" x="429" y="-117" font-family="Helvetica,sans-Serif" font-size="10.00">QGraphicsScene</text>
</a>
</g>
</g>
<!-- Node1&#45;&gt;Node3 -->
<g id="edge2_Node000001_Node000003" class="edge">
<title>Node1&#45;&gt;Node3</title>
<g id="a_edge2_Node000001_Node000003"><a xlink:title=" ">
<path fill="none" stroke="#63b8ff" d="M517.97,-164.98C501.07,-156.54 474.94,-143.47 455.36,-133.68"/>
<polygon fill="#63b8ff" stroke="#63b8ff" points="456.85,-130.51 446.34,-129.17 453.72,-136.77 456.85,-130.51"/>
</a>
</g>
</g>
<!-- Node4 -->
<g id="Node000004" class="node">
<title>Node4</title>
<g id="a_Node000004"><a xlink:title=" ">
<polygon fill="#e0e0e0" stroke="#999999" points="575,-129 495,-129 495,-110 575,-110 575,-129"/>
<text text-anchor="middle" x="535" y="-117" font-family="Helvetica,sans-Serif" font-size="10.00">QMetaObject</text>
</a>
</g>
</g>
<!-- Node1&#45;&gt;Node4 -->
<g id="edge3_Node000001_Node000004" class="edge">
<title>Node1&#45;&gt;Node4</title>
<g id="a_edge3_Node000001_Node000004"><a xlink:title=" ">
<path fill="none" stroke="#63b8ff" d="M535,-164.75C535,-157.8 535,-147.85 535,-139.13"/>
<polygon fill="#63b8ff" stroke="#63b8ff" points="538.5,-139.09 535,-129.09 531.5,-139.09 538.5,-139.09"/>
</a>
</g>
</g>
<!-- Node5 -->
<g id="Node000005" class="node">
<title>Node5</title>
<g id="a_Node000005"><a xlink:title=" ">
<polygon fill="#e0e0e0" stroke="#999999" points="649,-129 593,-129 593,-110 649,-110 649,-129"/>
<text text-anchor="middle" x="621" y="-117" font-family="Helvetica,sans-Serif" font-size="10.00">QObject</text>
</a>
</g>
</g>
<!-- Node1&#45;&gt;Node5 -->
<g id="edge4_Node000001_Node000005" class="edge">
<title>Node1&#45;&gt;Node5</title>
<g id="a_edge4_Node000001_Node000005"><a xlink:title=" ">
<path fill="none" stroke="#63b8ff" d="M548.82,-164.98C562.15,-156.77 582.58,-144.18 598.31,-134.49"/>
<polygon fill="#63b8ff" stroke="#63b8ff" points="600.25,-137.4 606.93,-129.17 596.58,-131.44 600.25,-137.4"/>
</a>
</g>
</g>
<!-- Node6 -->
<g id="Node000006" class="node">
<title>Node6</title>
<g id="a_Node000006"><a xlink:title=" ">
<polygon fill="#e0e0e0" stroke="#999999" points="722.5,-129 667.5,-129 667.5,-110 722.5,-110 722.5,-129"/>
<text text-anchor="middle" x="695" y="-117" font-family="Helvetica,sans-Serif" font-size="10.00">QPointF</text>
</a>
</g>
</g>
<!-- Node1&#45;&gt;Node6 -->
<g id="edge5_Node000001_Node000006" class="edge">
<title>Node1&#45;&gt;Node6</title>
<g id="a_edge5_Node000001_Node000006"><a xlink:title=" ">
<path fill="none" stroke="#63b8ff" d="M560.71,-164.98C587.45,-156.13 629.53,-142.19 659.45,-132.28"/>
<polygon fill="#63b8ff" stroke="#63b8ff" points="660.7,-135.55 669.09,-129.08 658.5,-128.9 660.7,-135.55"/>
</a>
</g>
</g>
<!-- Node7 -->
<g id="Node000007" class="node">
<title>Node7</title>
<g id="a_Node000007"><a xlink:title=" ">
<polygon fill="#e0e0e0" stroke="#999999" points="793,-129 741,-129 741,-110 793,-110 793,-129"/>
<text text-anchor="middle" x="767" y="-117" font-family="Helvetica,sans-Serif" font-size="10.00">QRectF</text>
</a>
</g>
</g>
<!-- Node1&#45;&gt;Node7 -->
<g id="edge6_Node000001_Node000007" class="edge">
<title>Node1&#45;&gt;Node7</title>
<g id="a_edge6_Node000001_Node000007"><a xlink:title=" ">
<path fill="none" stroke="#63b8ff" d="M573.55,-164.99C611.19,-156.63 670.38,-143.37 730.58,-129.31"/>
<polygon fill="#63b8ff" stroke="#63b8ff" points="731.7,-132.64 740.64,-126.95 730.1,-125.82 731.7,-132.64"/>
</a>
</g>
</g>
<!-- Node8 -->
<g id="Node000008" class="node">
<title>Node8</title>
<g id="a_Node000008"><a xlink:title=" ">
<polygon fill="#e0e0e0" stroke="#999999" points="191.5,-74 138.5,-74 138.5,-55 191.5,-55 191.5,-74"/>
<text text-anchor="middle" x="165" y="-62" font-family="Helvetica,sans-Serif" font-size="10.00">QString</text>
</a>
</g>
</g>
<!-- Node1&#45;&gt;Node8 -->
<g id="edge7_Node000001_Node000008" class="edge">
<title>Node1&#45;&gt;Node8</title>
<g id="a_edge7_Node000001_Node000008"><a xlink:title=" ">
<path fill="none" stroke="#63b8ff" d="M429.2,-168.98C374.31,-163.68 307.18,-152.47 251,-129 223.88,-117.67 197.39,-96.05 181.14,-81.21"/>
<polygon fill="#63b8ff" stroke="#63b8ff" points="183.32,-78.45 173.63,-74.16 178.53,-83.56 183.32,-78.45"/>
</a>
</g>
</g>
<!-- Node9 -->
<g id="Node000009" class="node">
<title>Node9</title>
<g id="a_Node000009"><a xlink:title=" ">
<polygon fill="#e0e0e0" stroke="#999999" points="884.5,-129 811.5,-129 811.5,-110 884.5,-110 884.5,-129"/>
<text text-anchor="middle" x="848" y="-117" font-family="Helvetica,sans-Serif" font-size="10.00">QTransform</text>
</a>
</g>
</g>
<!-- Node1&#45;&gt;Node9 -->
<g id="edge8_Node000001_Node000009" class="edge">
<title>Node1&#45;&gt;Node9</title>
<g id="a_edge8_Node000001_Node000009"><a xlink:title=" ">
<path fill="none" stroke="#63b8ff" d="M587.73,-164.99C639.42,-156.59 720.71,-143.21 801.05,-129.14"/>
<polygon fill="#63b8ff" stroke="#63b8ff" points="802.11,-132.51 811.35,-127.33 800.9,-125.61 802.11,-132.51"/>
</a>
</g>
</g>
<!-- Node10 -->
<g id="Node000010" class="node">
<title>Node10</title>
<g id="a_Node000010"><a xlink:title=" ">
<polygon fill="#e0e0e0" stroke="#999999" points="957.5,-129 902.5,-129 902.5,-110 957.5,-110 957.5,-129"/>
<text text-anchor="middle" x="930" y="-117" font-family="Helvetica,sans-Serif" font-size="10.00">QVector</text>
</a>
</g>
</g>
<!-- Node1&#45;&gt;Node10 -->
<g id="edge9_Node000001_Node000010" class="edge">
<title>Node1&#45;&gt;Node10</title>
<g id="a_edge9_Node000001_Node000010"><a xlink:title=" ">
<path fill="none" stroke="#63b8ff" d="M625.78,-165C696.19,-157.77 796.37,-146.09 892.29,-129.15"/>
<polygon fill="#63b8ff" stroke="#63b8ff" points="892.93,-132.59 902.15,-127.39 891.69,-125.7 892.93,-132.59"/>
</a>
</g>
</g>
<!-- Node11 -->
<g id="Node000011" class="node">
<title>Node11</title>
<g id="a_Node000011"><a xlink:title=" ">
<polygon fill="#e0e0e0" stroke="#999999" points="268.5,-74 209.5,-74 209.5,-55 268.5,-55 268.5,-74"/>
<text text-anchor="middle" x="239" y="-62" font-family="Helvetica,sans-Serif" font-size="10.00">QtGlobal</text>
</a>
</g>
</g>
<!-- Node1&#45;&gt;Node11 -->
<g id="edge10_Node000001_Node000011" class="edge">
<title>Node1&#45;&gt;Node11</title>
<g id="a_edge10_Node000001_Node000011"><a xlink:title=" ">
<path fill="none" stroke="#63b8ff" d="M429.48,-165.22C367.7,-158.56 297.03,-147.23 272,-129 257.12,-118.16 248.4,-98.58 243.71,-84.02"/>
<polygon fill="#63b8ff" stroke="#63b8ff" points="246.98,-82.74 240.86,-74.09 240.25,-84.67 246.98,-82.74"/>
</a>
</g>
</g>
<!-- Node12 -->
<g id="Node000012" class="node">
<title>Node12</title>
<g id="a_Node000012"><a xlink:href="../../d4/da4/def_8h.html" target="_top" xlink:title=" ">
<polygon fill="white" stroke="#666666" points="363,-129 281,-129 281,-110 363,-110 363,-129"/>
<text text-anchor="middle" x="322" y="-117" font-family="Helvetica,sans-Serif" font-size="10.00">../vmisc/def.h</text>
</a>
</g>
</g>
<!-- Node1&#45;&gt;Node12 -->
<g id="edge11_Node000001_Node000012" class="edge">
<title>Node1&#45;&gt;Node12</title>
<g id="a_edge11_Node000001_Node000012"><a xlink:title=" ">
<path fill="none" stroke="#63b8ff" d="M500.78,-164.98C464.24,-155.89 406.22,-141.46 366.24,-131.51"/>
<polygon fill="#63b8ff" stroke="#63b8ff" points="367.04,-128.1 356.49,-129.08 365.35,-134.89 367.04,-128.1"/>
</a>
</g>
</g>
<!-- Node12&#45;&gt;Node2 -->
<g id="edge12_Node000012_Node000002" class="edge">
<title>Node12&#45;&gt;Node2</title>
<g id="a_edge12_Node000012_Node000002"><a xlink:title=" ">
<path fill="none" stroke="#63b8ff" d="M280.77,-110.16C235.21,-100.94 161.71,-86.08 112.17,-76.05"/>
<polygon fill="#63b8ff" stroke="#63b8ff" points="112.78,-72.61 102.29,-74.05 111.39,-79.47 112.78,-72.61"/>
</a>
</g>
</g>
<!-- Node12&#45;&gt;Node8 -->
<g id="edge15_Node000012_Node000008" class="edge">
<title>Node12&#45;&gt;Node8</title>
<g id="a_edge15_Node000012_Node000008"><a xlink:title=" ">
<path fill="none" stroke="#63b8ff" d="M296.78,-109.98C270.64,-101.16 229.6,-87.31 200.27,-77.41"/>
<polygon fill="#63b8ff" stroke="#63b8ff" points="201.02,-73.96 190.42,-74.08 198.78,-80.6 201.02,-73.96"/>
</a>
</g>
</g>
<!-- Node12&#45;&gt;Node11 -->
<g id="edge18_Node000012_Node000011" class="edge">
<title>Node12&#45;&gt;Node11</title>
<g id="a_edge18_Node000012_Node000011"><a xlink:title=" ">
<path fill="none" stroke="#63b8ff" d="M308.66,-109.98C295.91,-101.84 276.45,-89.41 261.33,-79.76"/>
<polygon fill="#63b8ff" stroke="#63b8ff" points="262.89,-76.6 252.58,-74.17 259.12,-82.5 262.89,-76.6"/>
</a>
</g>
</g>
<!-- Node13 -->
<g id="Node000013" class="node">
<title>Node13</title>
<g id="a_Node000013"><a xlink:title=" ">
<polygon fill="#e0e0e0" stroke="#999999" points="740.5,-74 667.5,-74 667.5,-55 740.5,-55 740.5,-74"/>
<text text-anchor="middle" x="704" y="-62" font-family="Helvetica,sans-Serif" font-size="10.00">QFileDialog</text>
</a>
</g>
</g>
<!-- Node12&#45;&gt;Node13 -->
<g id="edge13_Node000012_Node000013" class="edge">
<title>Node12&#45;&gt;Node13</title>
<g id="a_edge13_Node000012_Node000013"><a xlink:title=" ">
<path fill="none" stroke="#63b8ff" d="M363.18,-111.35C366.16,-110.88 369.13,-110.42 372,-110 495.95,-91.7 530.27,-93.82 657.09,-74.22"/>
<polygon fill="#63b8ff" stroke="#63b8ff" points="657.85,-77.64 667.2,-72.64 656.78,-70.73 657.85,-77.64"/>
</a>
</g>
</g>
<!-- Node14 -->
<g id="Node000014" class="node">
<title>Node14</title>
<g id="a_Node000014"><a xlink:title=" ">
<polygon fill="#e0e0e0" stroke="#999999" points="809,-74 759,-74 759,-55 809,-55 809,-74"/>
<text text-anchor="middle" x="784" y="-62" font-family="Helvetica,sans-Serif" font-size="10.00">QLineF</text>
</a>
</g>
</g>
<!-- Node12&#45;&gt;Node14 -->
<g id="edge14_Node000012_Node000014" class="edge">
<title>Node12&#45;&gt;Node14</title>
<g id="a_edge14_Node000012_Node000014"><a xlink:title=" ">
<path fill="none" stroke="#63b8ff" d="M363.16,-111.26C366.15,-110.81 369.12,-110.38 372,-110 536.03,-88.28 581.89,-101.99 748.72,-73.96"/>
<polygon fill="#63b8ff" stroke="#63b8ff" points="749.57,-77.37 758.84,-72.24 748.39,-70.47 749.57,-77.37"/>
</a>
</g>
</g>
<!-- Node15 -->
<g id="Node000015" class="node">
<title>Node15</title>
<g id="a_Node000015"><a xlink:title=" ">
<polygon fill="#e0e0e0" stroke="#999999" points="357,-74 287,-74 287,-55 357,-55 357,-74"/>
<text text-anchor="middle" x="322" y="-62" font-family="Helvetica,sans-Serif" font-size="10.00">QStringList</text>
</a>
</g>
</g>
<!-- Node12&#45;&gt;Node15 -->
<g id="edge16_Node000012_Node000015" class="edge">
<title>Node12&#45;&gt;Node15</title>
<g id="a_edge16_Node000012_Node000015"><a xlink:title=" ">
<path fill="none" stroke="#63b8ff" d="M322,-109.75C322,-102.8 322,-92.85 322,-84.13"/>
<polygon fill="#63b8ff" stroke="#63b8ff" points="325.5,-84.09 322,-74.09 318.5,-84.09 325.5,-84.09"/>
</a>
</g>
</g>
<!-- Node16 -->
<g id="Node000016" class="node">
<title>Node16</title>
<g id="a_Node000016"><a xlink:title=" ">
<polygon fill="#e0e0e0" stroke="#999999" points="404.5,-74 375.5,-74 375.5,-55 404.5,-55 404.5,-74"/>
<text text-anchor="middle" x="390" y="-62" font-family="Helvetica,sans-Serif" font-size="10.00">Qt</text>
</a>
</g>
</g>
<!-- Node12&#45;&gt;Node16 -->
<g id="edge17_Node000012_Node000016" class="edge">
<title>Node12&#45;&gt;Node16</title>
<g id="a_edge17_Node000012_Node000016"><a xlink:title=" ">
<path fill="none" stroke="#63b8ff" d="M332.93,-109.98C343.08,-102.07 358.42,-90.11 370.65,-80.58"/>
<polygon fill="#63b8ff" stroke="#63b8ff" points="373.14,-83.08 378.88,-74.17 368.84,-77.56 373.14,-83.08"/>
</a>
</g>
</g>
<!-- Node17 -->
<g id="Node000017" class="node">
<title>Node17</title>
<g id="a_Node000017"><a xlink:title=" ">
<polygon fill="#e0e0e0" stroke="#999999" points="479,-74 423,-74 423,-55 479,-55 479,-74"/>
<text text-anchor="middle" x="451" y="-62" font-family="Helvetica,sans-Serif" font-size="10.00">QPrinter</text>
</a>
</g>
</g>
<!-- Node12&#45;&gt;Node17 -->
<g id="edge19_Node000012_Node000017" class="edge">
<title>Node12&#45;&gt;Node17</title>
<g id="a_edge19_Node000012_Node000017"><a xlink:title=" ">
<path fill="none" stroke="#63b8ff" d="M342.73,-109.98C363.76,-101.34 396.55,-87.87 420.54,-78.02"/>
<polygon fill="#63b8ff" stroke="#63b8ff" points="421.98,-81.21 429.9,-74.17 419.32,-74.73 421.98,-81.21"/>
</a>
</g>
</g>
<!-- Node18 -->
<g id="Node000018" class="node">
<title>Node18</title>
<g id="a_Node000018"><a xlink:title=" ">
<polygon fill="#e0e0e0" stroke="#999999" points="548.5,-74 497.5,-74 497.5,-55 548.5,-55 548.5,-74"/>
<text text-anchor="middle" x="523" y="-62" font-family="Helvetica,sans-Serif" font-size="10.00">csignal</text>
</a>
</g>
</g>
<!-- Node12&#45;&gt;Node18 -->
<g id="edge20_Node000012_Node000018" class="edge">
<title>Node12&#45;&gt;Node18</title>
<g id="a_edge20_Node000012_Node000018"><a xlink:title=" ">
<path fill="none" stroke="#63b8ff" d="M354.29,-109.98C390.71,-100.38 449.75,-84.82 487.45,-74.87"/>
<polygon fill="#63b8ff" stroke="#63b8ff" points="488.7,-78.16 497.48,-72.23 486.92,-71.39 488.7,-78.16"/>
</a>
</g>
</g>
<!-- Node19 -->
<g id="Node000019" class="node">
<title>Node19</title>
<g id="a_Node000019"><a xlink:href="../../d4/d82/debugbreak_8h.html" target="_top" xlink:title=" ">
<polygon fill="white" stroke="#666666" points="649.5,-74 566.5,-74 566.5,-55 649.5,-55 649.5,-74"/>
<text text-anchor="middle" x="608" y="-62" font-family="Helvetica,sans-Serif" font-size="10.00">debugbreak.h</text>
</a>
</g>
</g>
<!-- Node12&#45;&gt;Node19 -->
<g id="edge21_Node000012_Node000019" class="edge">
<title>Node12&#45;&gt;Node19</title>
<g id="a_edge21_Node000012_Node000019"><a xlink:title=" ">
<path fill="none" stroke="#63b8ff" d="M363.28,-110.85C414.25,-101.4 500.97,-85.33 556.31,-75.08"/>
<polygon fill="#63b8ff" stroke="#63b8ff" points="557.07,-78.5 566.27,-73.23 555.8,-71.61 557.07,-78.5"/>
</a>
</g>
</g>
<!-- Node20 -->
<g id="Node000020" class="node">
<title>Node20</title>
<g id="a_Node000020"><a xlink:title=" ">
<polygon fill="#e0e0e0" stroke="#999999" points="635.5,-19 580.5,-19 580.5,0 635.5,0 635.5,-19"/>
<text text-anchor="middle" x="608" y="-7" font-family="Helvetica,sans-Serif" font-size="10.00">signal.h</text>
</a>
</g>
</g>
<!-- Node19&#45;&gt;Node20 -->
<g id="edge22_Node000019_Node000020" class="edge">
<title>Node19&#45;&gt;Node20</title>
<g id="a_edge22_Node000019_Node000020"><a xlink:title=" ">
<path fill="none" stroke="#63b8ff" d="M608,-54.75C608,-47.8 608,-37.85 608,-29.13"/>
<polygon fill="#63b8ff" stroke="#63b8ff" points="611.5,-29.09 608,-19.09 604.5,-29.09 611.5,-29.09"/>
</a>
</g>
</g>
</g>
</svg>
