<?xml version="1.0" encoding="UTF-8" standalone="no"?>
<!DOCTYPE svg PUBLIC "-//W3C//DTD SVG 1.1//EN"
 "http://www.w3.org/Graphics/SVG/1.1/DTD/svg11.dtd">
<!-- Generated by graphviz version 2.43.0 (0)
 -->
<!-- Title: src/libs/vgeometry/vabstractarc.h Pages: 1 -->
<!--zoomable 313 -->

<svg id="main" version="1.1" xmlns="http://www.w3.org/2000/svg" xmlns:xlink="http://www.w3.org/1999/xlink" xml:space="preserve" onload="init(evt)">
<style type="text/css"><![CDATA[
.node, .edge {opacity: 0.7;}
.node.selected, .edge.selected {opacity: 1;}
.edge:hover path { stroke: red; }
.edge:hover polygon { stroke: red; fill: red; }
]]></style>

<defs>
  <circle id="rim" cx="0" cy="0" r="7"/>
  <circle id="rim2" cx="0" cy="0" r="3.5"/>
  <g id="zoomPlus">
    <use xlink:href="#rim" fill="#404040"><set attributeName="fill" to="#808080" begin="zoomplus.mouseover" end="zoomplus.mouseout"/></use>
    <path d="M-4,0h8M0,-4v8" fill="none" stroke="white" stroke-width="1.5" pointer-events="none"/>
  </g>
  <g id="zoomMin">
    <use xlink:href="#rim" fill="#404040"><set attributeName="fill" to="#808080" begin="zoomminus.mouseover" end="zoomminus.mouseout"/></use>
    <path d="M-4,0h8" fill="none" stroke="white" stroke-width="1.5" pointer-events="none"/>
  </g>
  <g id="arrowUp" transform="translate(30 24)">
    <use xlink:href="#rim"/>
    <path pointer-events="none" fill="none" stroke="white" stroke-width="1.5" d="M0,-3.0v7 M-2.5,-0.5L0,-3.0L2.5,-0.5"/>
  </g>
  <g id="arrowRight" transform="rotate(90) translate(36 -43)">
    <use xlink:href="#rim"/>
    <path pointer-events="none" fill="none" stroke="white" stroke-width="1.5" d="M0,-3.0v7 M-2.5,-0.5L0,-3.0L2.5,-0.5"/>
  </g>
  <g id="arrowDown" transform="rotate(180) translate(-30 -48)">
    <use xlink:href="#rim"/>
    <path pointer-events="none" fill="none" stroke="white" stroke-width="1.5" d="M0,-3.0v7 M-2.5,-0.5L0,-3.0L2.5,-0.5"/>
  </g>
  <g id="arrowLeft" transform="rotate(270) translate(-36 17)">
    <use xlink:href="#rim"/>
    <path pointer-events="none" fill="none" stroke="white" stroke-width="1.5" d="M0,-3.0v7 M-2.5,-0.5L0,-3.0L2.5,-0.5"/>
  </g>
  <g id="resetDef">
    <use xlink:href="#rim2" fill="#404040"><set attributeName="fill" to="#808080" begin="reset.mouseover" end="reset.mouseout"/></use>
  </g>
</defs>
<script type="application/ecmascript">
var viewWidth = 993;
var viewHeight = 313;
var sectionId = 'dynsection-0';
</script>
<script type="application/ecmascript" xlink:href="../../svg.min.js"/>
<svg id="graph" class="graph">
<g id="viewport">
<title>src/libs/vgeometry/vabstractarc.h</title>
<!-- Node1 -->
<g id="Node000001" class="node">
<title>Node1</title>
<g id="a_Node000001"><a xlink:title=" ">
<polygon fill="#999999" stroke="#666666" points="682,-305 575,-305 575,-275 682,-275 682,-305"/>
<text text-anchor="start" x="583" y="-293" font-family="Helvetica,sans-Serif" font-size="10.00">src/libs/vgeometry</text>
<text text-anchor="middle" x="628.5" y="-282" font-family="Helvetica,sans-Serif" font-size="10.00">/vabstractarc.h</text>
</a>
</g>
</g>
<!-- Node2 -->
<g id="Node000002" class="node">
<title>Node2</title>
<g id="a_Node000002"><a xlink:title=" ">
<polygon fill="#e0e0e0" stroke="#999999" points="738.5,-74 618.5,-74 618.5,-55 738.5,-55 738.5,-74"/>
<text text-anchor="middle" x="678.5" y="-62" font-family="Helvetica,sans-Serif" font-size="10.00">qcompilerdetection.h</text>
</a>
</g>
</g>
<!-- Node1&#45;&gt;Node2 -->
<g id="edge1_Node000001_Node000002" class="edge">
<title>Node1&#45;&gt;Node2</title>
<g id="a_edge1_Node000001_Node000002"><a xlink:title=" ">
<path fill="none" stroke="#63b8ff" d="M682.2,-282.84C762.46,-270.29 910.17,-233.45 965.5,-129 969.45,-121.54 970.99,-116.41 965.5,-110 958.45,-101.78 831.56,-84.54 748.88,-74.1"/>
<polygon fill="#63b8ff" stroke="#63b8ff" points="749.14,-70.61 738.78,-72.83 748.27,-77.55 749.14,-70.61"/>
</a>
</g>
</g>
<!-- Node3 -->
<g id="Node000003" class="node">
<title>Node3</title>
<g id="a_Node000003"><a xlink:title=" ">
<polygon fill="#e0e0e0" stroke="#999999" points="648.5,-129 532.5,-129 532.5,-110 648.5,-110 648.5,-129"/>
<text text-anchor="middle" x="590.5" y="-117" font-family="Helvetica,sans-Serif" font-size="10.00">QSharedDataPointer</text>
</a>
</g>
</g>
<!-- Node1&#45;&gt;Node3 -->
<g id="edge2_Node000001_Node000003" class="edge">
<title>Node1&#45;&gt;Node3</title>
<g id="a_edge2_Node000001_Node000003"><a xlink:title=" ">
<path fill="none" stroke="#63b8ff" d="M580.1,-274.89C538.25,-259.83 480.38,-231.48 453.5,-184 449.34,-176.65 448.54,-171.83 453.5,-165 463.63,-151.05 502.6,-139.22 536.39,-131.27"/>
<polygon fill="#63b8ff" stroke="#63b8ff" points="537.25,-134.67 546.22,-129.03 535.69,-127.84 537.25,-134.67"/>
</a>
</g>
</g>
<!-- Node4 -->
<g id="Node000004" class="node">
<title>Node4</title>
<g id="a_Node000004"><a xlink:title=" ">
<polygon fill="#e0e0e0" stroke="#999999" points="810,-74 757,-74 757,-55 810,-55 810,-74"/>
<text text-anchor="middle" x="783.5" y="-62" font-family="Helvetica,sans-Serif" font-size="10.00">QString</text>
</a>
</g>
</g>
<!-- Node1&#45;&gt;Node4 -->
<g id="edge3_Node000001_Node000004" class="edge">
<title>Node1&#45;&gt;Node4</title>
<g id="a_edge3_Node000001_Node000004"><a xlink:title=" ">
<path fill="none" stroke="#63b8ff" d="M682.14,-286.87C771.87,-279.89 946.09,-250.61 981.5,-129 983.86,-120.89 986.78,-116.59 981.5,-110 961.68,-85.23 871.76,-73.29 820.17,-68.38"/>
<polygon fill="#63b8ff" stroke="#63b8ff" points="820.37,-64.89 810.09,-67.47 819.74,-71.86 820.37,-64.89"/>
</a>
</g>
</g>
<!-- Node5 -->
<g id="Node000005" class="node">
<title>Node5</title>
<g id="a_Node000005"><a xlink:title=" ">
<polygon fill="#e0e0e0" stroke="#999999" points="59,-74 0,-74 0,-55 59,-55 59,-74"/>
<text text-anchor="middle" x="29.5" y="-62" font-family="Helvetica,sans-Serif" font-size="10.00">QtGlobal</text>
</a>
</g>
</g>
<!-- Node1&#45;&gt;Node5 -->
<g id="edge4_Node000001_Node000005" class="edge">
<title>Node1&#45;&gt;Node5</title>
<g id="a_edge4_Node000001_Node000005"><a xlink:title=" ">
<path fill="none" stroke="#63b8ff" d="M574.95,-285.74C478.08,-278.24 268.88,-254.57 108.5,-184 69.34,-166.77 49.31,-166.92 29.5,-129 22.32,-115.26 23.03,-97.45 25.13,-84.19"/>
<polygon fill="#63b8ff" stroke="#63b8ff" points="28.57,-84.8 27.07,-74.32 21.71,-83.45 28.57,-84.8"/>
</a>
</g>
</g>
<!-- Node6 -->
<g id="Node000006" class="node">
<title>Node6</title>
<g id="a_Node000006"><a xlink:href="../../d3/da5/ifcdef_8h.html" target="_top" xlink:title=" ">
<polygon fill="white" stroke="#666666" points="364,-184 287,-184 287,-165 364,-165 364,-184"/>
<text text-anchor="middle" x="325.5" y="-172" font-family="Helvetica,sans-Serif" font-size="10.00">../ifc/ifcdef.h</text>
</a>
</g>
</g>
<!-- Node1&#45;&gt;Node6 -->
<g id="edge5_Node000001_Node000006" class="edge">
<title>Node1&#45;&gt;Node6</title>
<g id="a_edge5_Node000001_Node000006"><a xlink:title=" ">
<path fill="none" stroke="#63b8ff" d="M574.65,-288.06C521.88,-284.95 440.83,-274.18 380.5,-239 361.28,-227.79 345.43,-207.39 335.76,-192.73"/>
<polygon fill="#63b8ff" stroke="#63b8ff" points="338.62,-190.69 330.33,-184.08 332.69,-194.41 338.62,-190.69"/>
</a>
</g>
</g>
<!-- Node17 -->
<g id="Node000017" class="node">
<title>Node17</title>
<g id="a_Node000017"><a xlink:href="../../d5/d82/vabstractcurve_8h.html" target="_top" xlink:title=" ">
<polygon fill="white" stroke="#666666" points="677.5,-239 579.5,-239 579.5,-220 677.5,-220 677.5,-239"/>
<text text-anchor="middle" x="628.5" y="-227" font-family="Helvetica,sans-Serif" font-size="10.00">vabstractcurve.h</text>
</a>
</g>
</g>
<!-- Node1&#45;&gt;Node17 -->
<g id="edge23_Node000001_Node000017" class="edge">
<title>Node1&#45;&gt;Node17</title>
<g id="a_edge23_Node000001_Node000017"><a xlink:title=" ">
<path fill="none" stroke="#63b8ff" d="M628.5,-274.84C628.5,-267.21 628.5,-257.7 628.5,-249.45"/>
<polygon fill="#63b8ff" stroke="#63b8ff" points="632,-249.27 628.5,-239.27 625,-249.27 632,-249.27"/>
</a>
</g>
</g>
<!-- Node23 -->
<g id="Node000023" class="node">
<title>Node23</title>
<g id="a_Node000023"><a xlink:href="../../d5/d9d/vgeometrydef_8h.html" target="_top" xlink:title=" ">
<polygon fill="white" stroke="#666666" points="956.5,-129 862.5,-129 862.5,-110 956.5,-110 956.5,-129"/>
<text text-anchor="middle" x="909.5" y="-117" font-family="Helvetica,sans-Serif" font-size="10.00">vgeometrydef.h</text>
</a>
</g>
</g>
<!-- Node1&#45;&gt;Node23 -->
<g id="edge42_Node000001_Node000023" class="edge">
<title>Node1&#45;&gt;Node23</title>
<g id="a_edge42_Node000001_Node000023"><a xlink:title=" ">
<path fill="none" stroke="#63b8ff" d="M677.41,-274.91C727.42,-258.78 805.49,-228.69 861.5,-184 877.47,-171.25 891.01,-152.05 899.59,-138.09"/>
<polygon fill="#63b8ff" stroke="#63b8ff" points="902.65,-139.81 904.71,-129.42 896.62,-136.25 902.65,-139.81"/>
</a>
</g>
</g>
<!-- Node6&#45;&gt;Node4 -->
<g id="edge6_Node000006_Node000004" class="edge">
<title>Node6&#45;&gt;Node4</title>
<g id="a_edge6_Node000006_Node000004"><a xlink:title=" ">
<path fill="none" stroke="#63b8ff" d="M338.95,-164.82C361.45,-150.75 408.6,-123.22 452.5,-110 575.88,-72.84 615.54,-96.01 746.8,-73.89"/>
<polygon fill="#63b8ff" stroke="#63b8ff" points="747.58,-77.31 756.83,-72.14 746.38,-70.41 747.58,-77.31"/>
</a>
</g>
</g>
<!-- Node6&#45;&gt;Node5 -->
<g id="edge8_Node000006_Node000005" class="edge">
<title>Node6&#45;&gt;Node5</title>
<g id="a_edge8_Node000006_Node000005"><a xlink:title=" ">
<path fill="none" stroke="#63b8ff" d="M286.8,-171.07C222.84,-166.39 98.61,-154.26 63.5,-129 48.46,-118.17 39.43,-98.6 34.51,-84.03"/>
<polygon fill="#63b8ff" stroke="#63b8ff" points="37.75,-82.66 31.5,-74.1 31.05,-84.68 37.75,-82.66"/>
</a>
</g>
</g>
<!-- Node7 -->
<g id="Node000007" class="node">
<title>Node7</title>
<g id="a_Node000007"><a xlink:title=" ">
<polygon fill="#e0e0e0" stroke="#999999" points="147.5,-74 77.5,-74 77.5,-55 147.5,-55 147.5,-74"/>
<text text-anchor="middle" x="112.5" y="-62" font-family="Helvetica,sans-Serif" font-size="10.00">QStringList</text>
</a>
</g>
</g>
<!-- Node6&#45;&gt;Node7 -->
<g id="edge7_Node000006_Node000007" class="edge">
<title>Node6&#45;&gt;Node7</title>
<g id="a_edge7_Node000006_Node000007"><a xlink:title=" ">
<path fill="none" stroke="#63b8ff" d="M308.43,-164.84C271.18,-145.96 182.43,-100.96 138.31,-78.59"/>
<polygon fill="#63b8ff" stroke="#63b8ff" points="139.86,-75.45 129.36,-74.05 136.69,-81.69 139.86,-75.45"/>
</a>
</g>
</g>
<!-- Node8 -->
<g id="Node000008" class="node">
<title>Node8</title>
<g id="a_Node000008"><a xlink:href="../../d4/da4/def_8h.html" target="_top" xlink:title=" ">
<polygon fill="white" stroke="#666666" points="366.5,-129 284.5,-129 284.5,-110 366.5,-110 366.5,-129"/>
<text text-anchor="middle" x="325.5" y="-117" font-family="Helvetica,sans-Serif" font-size="10.00">../vmisc/def.h</text>
</a>
</g>
</g>
<!-- Node6&#45;&gt;Node8 -->
<g id="edge9_Node000006_Node000008" class="edge">
<title>Node6&#45;&gt;Node8</title>
<g id="a_edge9_Node000006_Node000008"><a xlink:title=" ">
<path fill="none" stroke="#63b8ff" d="M325.5,-164.75C325.5,-157.8 325.5,-147.85 325.5,-139.13"/>
<polygon fill="#63b8ff" stroke="#63b8ff" points="329,-139.09 325.5,-129.09 322,-139.09 329,-139.09"/>
</a>
</g>
</g>
<!-- Node16 -->
<g id="Node000016" class="node">
<title>Node16</title>
<g id="a_Node000016"><a xlink:href="../../d6/dcd/diagnostic_8h.html" target="_top" xlink:title=" ">
<polygon fill="white" stroke="#666666" points="190,-129 73,-129 73,-110 190,-110 190,-129"/>
<text text-anchor="middle" x="131.5" y="-117" font-family="Helvetica,sans-Serif" font-size="10.00">../vmisc/diagnostic.h</text>
</a>
</g>
</g>
<!-- Node6&#45;&gt;Node16 -->
<g id="edge21_Node000006_Node000016" class="edge">
<title>Node6&#45;&gt;Node16</title>
<g id="a_edge21_Node000006_Node000016"><a xlink:title=" ">
<path fill="none" stroke="#63b8ff" d="M294.33,-164.98C261.34,-155.97 209.1,-141.7 172.73,-131.76"/>
<polygon fill="#63b8ff" stroke="#63b8ff" points="173.48,-128.34 162.91,-129.08 171.64,-135.09 173.48,-128.34"/>
</a>
</g>
</g>
<!-- Node8&#45;&gt;Node2 -->
<g id="edge10_Node000008_Node000002" class="edge">
<title>Node8&#45;&gt;Node2</title>
<g id="a_edge10_Node000008_Node000002"><a xlink:title=" ">
<path fill="none" stroke="#63b8ff" d="M366.64,-112.12C371.32,-111.4 376.01,-110.68 380.5,-110 459.45,-98 550.22,-84.49 610.63,-75.53"/>
<polygon fill="#63b8ff" stroke="#63b8ff" points="611.42,-78.96 620.8,-74.03 610.4,-72.03 611.42,-78.96"/>
</a>
</g>
</g>
<!-- Node8&#45;&gt;Node4 -->
<g id="edge13_Node000008_Node000004" class="edge">
<title>Node8&#45;&gt;Node4</title>
<g id="a_edge13_Node000008_Node000004"><a xlink:title=" ">
<path fill="none" stroke="#63b8ff" d="M366.61,-111.89C371.29,-111.22 375.99,-110.57 380.5,-110 539.93,-89.88 584.11,-100.46 746.97,-73.85"/>
<polygon fill="#63b8ff" stroke="#63b8ff" points="747.55,-77.3 756.84,-72.21 746.41,-70.39 747.55,-77.3"/>
</a>
</g>
</g>
<!-- Node8&#45;&gt;Node5 -->
<g id="edge16_Node000008_Node000005" class="edge">
<title>Node8&#45;&gt;Node5</title>
<g id="a_edge16_Node000008_Node000005"><a xlink:title=" ">
<path fill="none" stroke="#63b8ff" d="M284.45,-111.95C235.62,-104.04 151.4,-90 69.28,-74.08"/>
<polygon fill="#63b8ff" stroke="#63b8ff" points="69.77,-70.61 59.28,-72.13 68.43,-77.48 69.77,-70.61"/>
</a>
</g>
</g>
<!-- Node8&#45;&gt;Node7 -->
<g id="edge14_Node000008_Node000007" class="edge">
<title>Node8&#45;&gt;Node7</title>
<g id="a_edge14_Node000008_Node000007"><a xlink:title=" ">
<path fill="none" stroke="#63b8ff" d="M291.28,-109.98C254.74,-100.89 196.72,-86.46 156.74,-76.51"/>
<polygon fill="#63b8ff" stroke="#63b8ff" points="157.54,-73.1 146.99,-74.08 155.85,-79.89 157.54,-73.1"/>
</a>
</g>
</g>
<!-- Node9 -->
<g id="Node000009" class="node">
<title>Node9</title>
<g id="a_Node000009"><a xlink:title=" ">
<polygon fill="#e0e0e0" stroke="#999999" points="239,-74 166,-74 166,-55 239,-55 239,-74"/>
<text text-anchor="middle" x="202.5" y="-62" font-family="Helvetica,sans-Serif" font-size="10.00">QFileDialog</text>
</a>
</g>
</g>
<!-- Node8&#45;&gt;Node9 -->
<g id="edge11_Node000008_Node000009" class="edge">
<title>Node8&#45;&gt;Node9</title>
<g id="a_edge11_Node000008_Node000009"><a xlink:title=" ">
<path fill="none" stroke="#63b8ff" d="M305.74,-109.98C285.77,-101.38 254.7,-87.99 231.85,-78.15"/>
<polygon fill="#63b8ff" stroke="#63b8ff" points="233.19,-74.91 222.62,-74.17 230.42,-81.34 233.19,-74.91"/>
</a>
</g>
</g>
<!-- Node10 -->
<g id="Node000010" class="node">
<title>Node10</title>
<g id="a_Node000010"><a xlink:title=" ">
<polygon fill="#e0e0e0" stroke="#999999" points="307.5,-74 257.5,-74 257.5,-55 307.5,-55 307.5,-74"/>
<text text-anchor="middle" x="282.5" y="-62" font-family="Helvetica,sans-Serif" font-size="10.00">QLineF</text>
</a>
</g>
</g>
<!-- Node8&#45;&gt;Node10 -->
<g id="edge12_Node000008_Node000010" class="edge">
<title>Node8&#45;&gt;Node10</title>
<g id="a_edge12_Node000008_Node000010"><a xlink:title=" ">
<path fill="none" stroke="#63b8ff" d="M318.4,-109.75C312.33,-102.26 303.41,-91.28 295.99,-82.13"/>
<polygon fill="#63b8ff" stroke="#63b8ff" points="298.49,-79.65 289.47,-74.09 293.05,-84.06 298.49,-79.65"/>
</a>
</g>
</g>
<!-- Node11 -->
<g id="Node000011" class="node">
<title>Node11</title>
<g id="a_Node000011"><a xlink:title=" ">
<polygon fill="#e0e0e0" stroke="#999999" points="355,-74 326,-74 326,-55 355,-55 355,-74"/>
<text text-anchor="middle" x="340.5" y="-62" font-family="Helvetica,sans-Serif" font-size="10.00">Qt</text>
</a>
</g>
</g>
<!-- Node8&#45;&gt;Node11 -->
<g id="edge15_Node000008_Node000011" class="edge">
<title>Node8&#45;&gt;Node11</title>
<g id="a_edge15_Node000008_Node000011"><a xlink:title=" ">
<path fill="none" stroke="#63b8ff" d="M327.98,-109.75C329.96,-102.72 332.82,-92.62 335.31,-83.84"/>
<polygon fill="#63b8ff" stroke="#63b8ff" points="338.71,-84.66 338.07,-74.09 331.98,-82.76 338.71,-84.66"/>
</a>
</g>
</g>
<!-- Node12 -->
<g id="Node000012" class="node">
<title>Node12</title>
<g id="a_Node000012"><a xlink:title=" ">
<polygon fill="#e0e0e0" stroke="#999999" points="429.5,-74 373.5,-74 373.5,-55 429.5,-55 429.5,-74"/>
<text text-anchor="middle" x="401.5" y="-62" font-family="Helvetica,sans-Serif" font-size="10.00">QPrinter</text>
</a>
</g>
</g>
<!-- Node8&#45;&gt;Node12 -->
<g id="edge17_Node000008_Node000012" class="edge">
<title>Node8&#45;&gt;Node12</title>
<g id="a_edge17_Node000008_Node000012"><a xlink:title=" ">
<path fill="none" stroke="#63b8ff" d="M337.71,-109.98C349.28,-101.92 366.88,-89.65 380.66,-80.03"/>
<polygon fill="#63b8ff" stroke="#63b8ff" points="382.87,-82.76 389.07,-74.17 378.86,-77.02 382.87,-82.76"/>
</a>
</g>
</g>
<!-- Node13 -->
<g id="Node000013" class="node">
<title>Node13</title>
<g id="a_Node000013"><a xlink:title=" ">
<polygon fill="#e0e0e0" stroke="#999999" points="499,-74 448,-74 448,-55 499,-55 499,-74"/>
<text text-anchor="middle" x="473.5" y="-62" font-family="Helvetica,sans-Serif" font-size="10.00">csignal</text>
</a>
</g>
</g>
<!-- Node8&#45;&gt;Node13 -->
<g id="edge18_Node000008_Node000013" class="edge">
<title>Node8&#45;&gt;Node13</title>
<g id="a_edge18_Node000008_Node000013"><a xlink:title=" ">
<path fill="none" stroke="#63b8ff" d="M349.28,-109.98C373.73,-101.23 412.03,-87.51 439.65,-77.62"/>
<polygon fill="#63b8ff" stroke="#63b8ff" points="441.05,-80.84 449.29,-74.17 438.69,-74.25 441.05,-80.84"/>
</a>
</g>
</g>
<!-- Node14 -->
<g id="Node000014" class="node">
<title>Node14</title>
<g id="a_Node000014"><a xlink:href="../../d4/d82/debugbreak_8h.html" target="_top" xlink:title=" ">
<polygon fill="white" stroke="#666666" points="600,-74 517,-74 517,-55 600,-55 600,-74"/>
<text text-anchor="middle" x="558.5" y="-62" font-family="Helvetica,sans-Serif" font-size="10.00">debugbreak.h</text>
</a>
</g>
</g>
<!-- Node8&#45;&gt;Node14 -->
<g id="edge19_Node000008_Node000014" class="edge">
<title>Node8&#45;&gt;Node14</title>
<g id="a_edge19_Node000008_Node000014"><a xlink:title=" ">
<path fill="none" stroke="#63b8ff" d="M362.94,-109.98C403.15,-100.84 467.18,-86.27 510.94,-76.32"/>
<polygon fill="#63b8ff" stroke="#63b8ff" points="511.8,-79.71 520.77,-74.08 510.24,-72.89 511.8,-79.71"/>
</a>
</g>
</g>
<!-- Node15 -->
<g id="Node000015" class="node">
<title>Node15</title>
<g id="a_Node000015"><a xlink:title=" ">
<polygon fill="#e0e0e0" stroke="#999999" points="586,-19 531,-19 531,0 586,0 586,-19"/>
<text text-anchor="middle" x="558.5" y="-7" font-family="Helvetica,sans-Serif" font-size="10.00">signal.h</text>
</a>
</g>
</g>
<!-- Node14&#45;&gt;Node15 -->
<g id="edge20_Node000014_Node000015" class="edge">
<title>Node14&#45;&gt;Node15</title>
<g id="a_edge20_Node000014_Node000015"><a xlink:title=" ">
<path fill="none" stroke="#63b8ff" d="M558.5,-54.75C558.5,-47.8 558.5,-37.85 558.5,-29.13"/>
<polygon fill="#63b8ff" stroke="#63b8ff" points="562,-29.09 558.5,-19.09 555,-29.09 562,-29.09"/>
</a>
</g>
</g>
<!-- Node16&#45;&gt;Node5 -->
<g id="edge22_Node000016_Node000005" class="edge">
<title>Node16&#45;&gt;Node5</title>
<g id="a_edge22_Node000016_Node000005"><a xlink:title=" ">
<path fill="none" stroke="#63b8ff" d="M115.11,-109.98C98.93,-101.57 73.93,-88.59 55.12,-78.81"/>
<polygon fill="#63b8ff" stroke="#63b8ff" points="56.67,-75.68 46.19,-74.17 53.45,-81.89 56.67,-75.68"/>
</a>
</g>
</g>
<!-- Node17&#45;&gt;Node2 -->
<g id="edge24_Node000017_Node000002" class="edge">
<title>Node17&#45;&gt;Node2</title>
<g id="a_edge24_Node000017_Node000002"><a xlink:title=" ">
<path fill="none" stroke="#63b8ff" d="M579.27,-222.65C533.14,-216.05 469.02,-203.6 453.5,-184 433.08,-158.22 431.61,-135.41 452.5,-110 462.48,-97.86 545.47,-83.84 608.01,-74.84"/>
<polygon fill="#63b8ff" stroke="#63b8ff" points="608.84,-78.25 618.25,-73.38 607.86,-71.32 608.84,-78.25"/>
</a>
</g>
</g>
<!-- Node17&#45;&gt;Node3 -->
<g id="edge26_Node000017_Node000003" class="edge">
<title>Node17&#45;&gt;Node3</title>
<g id="a_edge26_Node000017_Node000003"><a xlink:title=" ">
<path fill="none" stroke="#63b8ff" d="M625.39,-219.66C619.18,-202.01 605.13,-162.09 596.88,-138.64"/>
<polygon fill="#63b8ff" stroke="#63b8ff" points="600.17,-137.43 593.55,-129.16 593.56,-139.75 600.17,-137.43"/>
</a>
</g>
</g>
<!-- Node17&#45;&gt;Node4 -->
<g id="edge27_Node000017_Node000004" class="edge">
<title>Node17&#45;&gt;Node4</title>
<g id="a_edge27_Node000017_Node000004"><a xlink:title=" ">
<path fill="none" stroke="#63b8ff" d="M677.51,-222.07C763.55,-209.57 935.52,-178.77 965.5,-129 998.23,-74.67 882.73,-65.98 820.55,-65.13"/>
<polygon fill="#63b8ff" stroke="#63b8ff" points="820.36,-61.63 810.34,-65.06 820.31,-68.63 820.36,-61.63"/>
</a>
</g>
</g>
<!-- Node17&#45;&gt;Node5 -->
<g id="edge30_Node000017_Node000005" class="edge">
<title>Node17&#45;&gt;Node5</title>
<g id="a_edge30_Node000017_Node000005"><a xlink:title=" ">
<path fill="none" stroke="#63b8ff" d="M579.26,-227.25C452.23,-222.97 118.14,-204.61 43.5,-129 31.99,-117.34 29.03,-98.48 28.63,-84.34"/>
<polygon fill="#63b8ff" stroke="#63b8ff" points="32.13,-84.27 28.74,-74.24 25.13,-84.2 32.13,-84.27"/>
</a>
</g>
</g>
<!-- Node17&#45;&gt;Node6 -->
<g id="edge31_Node000017_Node000006" class="edge">
<title>Node17&#45;&gt;Node6</title>
<g id="a_edge31_Node000017_Node000006"><a xlink:title=" ">
<path fill="none" stroke="#63b8ff" d="M579.82,-219.98C523.44,-210.12 431.09,-193.97 374.55,-184.08"/>
<polygon fill="#63b8ff" stroke="#63b8ff" points="374.88,-180.58 364.43,-182.31 373.68,-187.48 374.88,-180.58"/>
</a>
</g>
</g>
<!-- Node18 -->
<g id="Node000018" class="node">
<title>Node18</title>
<g id="a_Node000018"><a xlink:title=" ">
<polygon fill="#e0e0e0" stroke="#999999" points="836,-184 781,-184 781,-165 836,-165 836,-184"/>
<text text-anchor="middle" x="808.5" y="-172" font-family="Helvetica,sans-Serif" font-size="10.00">QPointF</text>
</a>
</g>
</g>
<!-- Node17&#45;&gt;Node18 -->
<g id="edge25_Node000017_Node000018" class="edge">
<title>Node17&#45;&gt;Node18</title>
<g id="a_edge25_Node000017_Node000018"><a xlink:title=" ">
<path fill="none" stroke="#63b8ff" d="M657.42,-219.98C688.22,-210.92 737.09,-196.53 770.87,-186.58"/>
<polygon fill="#63b8ff" stroke="#63b8ff" points="772.23,-189.83 780.83,-183.65 770.25,-183.11 772.23,-189.83"/>
</a>
</g>
</g>
<!-- Node19 -->
<g id="Node000019" class="node">
<title>Node19</title>
<g id="a_Node000019"><a xlink:title=" ">
<polygon fill="#e0e0e0" stroke="#999999" points="844,-129 779,-129 779,-110 844,-110 844,-129"/>
<text text-anchor="middle" x="811.5" y="-117" font-family="Helvetica,sans-Serif" font-size="10.00">QTypeInfo</text>
</a>
</g>
</g>
<!-- Node17&#45;&gt;Node19 -->
<g id="edge28_Node000017_Node000019" class="edge">
<title>Node17&#45;&gt;Node19</title>
<g id="a_edge28_Node000017_Node000019"><a xlink:title=" ">
<path fill="none" stroke="#63b8ff" d="M677.51,-225.47C734.88,-220.77 824.72,-209.48 845.5,-184 857.39,-169.42 843.56,-150.04 830.13,-136.54"/>
<polygon fill="#63b8ff" stroke="#63b8ff" points="832.16,-133.64 822.47,-129.35 827.37,-138.75 832.16,-133.64"/>
</a>
</g>
</g>
<!-- Node20 -->
<g id="Node000020" class="node">
<title>Node20</title>
<g id="a_Node000020"><a xlink:title=" ">
<polygon fill="#e0e0e0" stroke="#999999" points="722,-129 667,-129 667,-110 722,-110 722,-129"/>
<text text-anchor="middle" x="694.5" y="-117" font-family="Helvetica,sans-Serif" font-size="10.00">QVector</text>
</a>
</g>
</g>
<!-- Node17&#45;&gt;Node20 -->
<g id="edge29_Node000017_Node000020" class="edge">
<title>Node17&#45;&gt;Node20</title>
<g id="a_edge29_Node000017_Node000020"><a xlink:title=" ">
<path fill="none" stroke="#63b8ff" d="M629.66,-219.7C631.66,-206.87 636.64,-182.64 647.5,-165 654.44,-153.72 664.96,-143.39 674.29,-135.53"/>
<polygon fill="#63b8ff" stroke="#63b8ff" points="676.76,-138.03 682.38,-129.05 672.39,-132.56 676.76,-138.03"/>
</a>
</g>
</g>
<!-- Node21 -->
<g id="Node000021" class="node">
<title>Node21</title>
<g id="a_Node000021"><a xlink:href="../../db/db3/vmath_8h.html" target="_top" xlink:title=" ">
<polygon fill="white" stroke="#666666" points="560.5,-184 462.5,-184 462.5,-165 560.5,-165 560.5,-184"/>
<text text-anchor="middle" x="511.5" y="-172" font-family="Helvetica,sans-Serif" font-size="10.00">../vmisc/vmath.h</text>
</a>
</g>
</g>
<!-- Node17&#45;&gt;Node21 -->
<g id="edge32_Node000017_Node000021" class="edge">
<title>Node17&#45;&gt;Node21</title>
<g id="a_edge32_Node000017_Node000021"><a xlink:title=" ">
<path fill="none" stroke="#63b8ff" d="M609.7,-219.98C590.88,-211.46 561.68,-198.23 540,-188.41"/>
<polygon fill="#63b8ff" stroke="#63b8ff" points="541.19,-185.11 530.64,-184.17 538.3,-191.48 541.19,-185.11"/>
</a>
</g>
</g>
<!-- Node17&#45;&gt;Node23 -->
<g id="edge34_Node000017_Node000023" class="edge">
<title>Node17&#45;&gt;Node23</title>
<g id="a_edge34_Node000017_Node000023"><a xlink:title=" ">
<path fill="none" stroke="#63b8ff" d="M649.56,-219.96C670.86,-211.22 704.67,-197.12 733.5,-184 751.05,-176.01 754.62,-172.22 772.5,-165 804.51,-152.08 841.84,-140.15 869.44,-131.9"/>
<polygon fill="#63b8ff" stroke="#63b8ff" points="870.54,-135.23 879.14,-129.04 868.55,-128.52 870.54,-135.23"/>
</a>
</g>
</g>
<!-- Node24 -->
<g id="Node000024" class="node">
<title>Node24</title>
<g id="a_Node000024"><a xlink:href="../../d2/d07/vgobject_8h.html" target="_top" xlink:title=" ">
<polygon fill="white" stroke="#666666" points="724.5,-184 656.5,-184 656.5,-165 724.5,-165 724.5,-184"/>
<text text-anchor="middle" x="690.5" y="-172" font-family="Helvetica,sans-Serif" font-size="10.00">vgobject.h</text>
</a>
</g>
</g>
<!-- Node17&#45;&gt;Node24 -->
<g id="edge35_Node000017_Node000024" class="edge">
<title>Node17&#45;&gt;Node24</title>
<g id="a_edge35_Node000017_Node000024"><a xlink:title=" ">
<path fill="none" stroke="#63b8ff" d="M638.46,-219.98C647.63,-212.15 661.44,-200.34 672.53,-190.86"/>
<polygon fill="#63b8ff" stroke="#63b8ff" points="675.03,-193.33 680.36,-184.17 670.48,-188.01 675.03,-193.33"/>
</a>
</g>
</g>
<!-- Node22 -->
<g id="Node000022" class="node">
<title>Node22</title>
<g id="a_Node000022"><a xlink:title=" ">
<polygon fill="#e0e0e0" stroke="#999999" points="514,-129 461,-129 461,-110 514,-110 514,-129"/>
<text text-anchor="middle" x="487.5" y="-117" font-family="Helvetica,sans-Serif" font-size="10.00">QtMath</text>
</a>
</g>
</g>
<!-- Node21&#45;&gt;Node22 -->
<g id="edge33_Node000021_Node000022" class="edge">
<title>Node21&#45;&gt;Node22</title>
<g id="a_edge33_Node000021_Node000022"><a xlink:title=" ">
<path fill="none" stroke="#63b8ff" d="M507.54,-164.75C504.29,-157.57 499.58,-147.18 495.55,-138.27"/>
<polygon fill="#63b8ff" stroke="#63b8ff" points="498.7,-136.75 491.39,-129.09 492.33,-139.64 498.7,-136.75"/>
</a>
</g>
</g>
<!-- Node24&#45;&gt;Node3 -->
<g id="edge36_Node000024_Node000003" class="edge">
<title>Node24&#45;&gt;Node3</title>
<g id="a_edge36_Node000024_Node000003"><a xlink:title=" ">
<path fill="none" stroke="#63b8ff" d="M674.43,-164.98C658.64,-156.61 634.28,-143.7 615.87,-133.95"/>
<polygon fill="#63b8ff" stroke="#63b8ff" points="617.33,-130.76 606.86,-129.17 614.06,-136.95 617.33,-130.76"/>
</a>
</g>
</g>
<!-- Node24&#45;&gt;Node4 -->
<g id="edge37_Node000024_Node000004" class="edge">
<title>Node24&#45;&gt;Node4</title>
<g id="a_edge37_Node000024_Node000004"><a xlink:title=" ">
<path fill="none" stroke="#63b8ff" d="M698.82,-164.77C707.22,-155.9 720.48,-141.69 731.5,-129 745.02,-113.44 759.86,-95.2 770.21,-82.27"/>
<polygon fill="#63b8ff" stroke="#63b8ff" points="773.1,-84.26 776.59,-74.26 767.62,-79.9 773.1,-84.26"/>
</a>
</g>
</g>
<!-- Node24&#45;&gt;Node5 -->
<g id="edge40_Node000024_Node000005" class="edge">
<title>Node24&#45;&gt;Node5</title>
<g id="a_edge40_Node000024_Node000005"><a xlink:title=" ">
<path fill="none" stroke="#63b8ff" d="M656.35,-170.49C570.74,-162.83 348.58,-142.28 275.5,-129 265.23,-127.13 135.66,-93.31 68.82,-75.81"/>
<polygon fill="#63b8ff" stroke="#63b8ff" points="69.61,-72.4 59.05,-73.25 67.84,-79.17 69.61,-72.4"/>
</a>
</g>
</g>
<!-- Node24&#45;&gt;Node19 -->
<g id="edge38_Node000024_Node000019" class="edge">
<title>Node24&#45;&gt;Node19</title>
<g id="a_edge38_Node000024_Node000019"><a xlink:title=" ">
<path fill="none" stroke="#63b8ff" d="M709.94,-164.98C729.49,-156.42 759.88,-143.11 782.32,-133.28"/>
<polygon fill="#63b8ff" stroke="#63b8ff" points="783.95,-136.39 791.71,-129.17 781.14,-129.98 783.95,-136.39"/>
</a>
</g>
</g>
<!-- Node24&#45;&gt;Node20 -->
<g id="edge39_Node000024_Node000020" class="edge">
<title>Node24&#45;&gt;Node20</title>
<g id="a_edge39_Node000024_Node000020"><a xlink:title=" ">
<path fill="none" stroke="#63b8ff" d="M691.16,-164.75C691.68,-157.8 692.44,-147.85 693.09,-139.13"/>
<polygon fill="#63b8ff" stroke="#63b8ff" points="696.59,-139.32 693.85,-129.09 689.61,-138.8 696.59,-139.32"/>
</a>
</g>
</g>
<!-- Node24&#45;&gt;Node23 -->
<g id="edge41_Node000024_Node000023" class="edge">
<title>Node24&#45;&gt;Node23</title>
<g id="a_edge41_Node000024_Node000023"><a xlink:title=" ">
<path fill="none" stroke="#63b8ff" d="M724.72,-165.22C762.28,-156.13 822.76,-141.49 864.22,-131.46"/>
<polygon fill="#63b8ff" stroke="#63b8ff" points="865.17,-134.83 874.07,-129.07 863.53,-128.02 865.17,-134.83"/>
</a>
</g>
</g>
</g>
</svg>

<g id="navigator" transform="translate(0 0)" fill="#404254">
  <rect fill="#f2f5e9" fill-opacity="0.5" stroke="#606060" stroke-width=".5" x="0" y="0" width="60" height="60"/>
  <use id="zoomplus" xlink:href="#zoomPlus" x="17" y="9" onmousedown="handleZoom(evt,'in')"/>
  <use id="zoomminus" xlink:href="#zoomMin" x="42" y="9" onmousedown="handleZoom(evt,'out')"/>
  <use id="reset" xlink:href="#resetDef" x="30" y="36" onmousedown="handleReset()"/>
   <use id="arrowup" xlink:href="#arrowUp" x="0" y="0" onmousedown="handlePan(0,-1)"/>
  <use id="arrowright" xlink:href="#arrowRight" x="0" y="0" onmousedown="handlePan(1,0)"/>
  <use id="arrowdown" xlink:href="#arrowDown" x="0" y="0" onmousedown="handlePan(0,1)"/>
  <use id="arrowleft" xlink:href="#arrowLeft" x="0" y="0" onmousedown="handlePan(-1,0)"/>
</g>
<svg viewBox="0 0 15 15" width="100%" height="30px" preserveAspectRatio="xMaxYMin meet">
 <g id="arrow_out" transform="scale(0.3 0.3)">
  <a xlink:href="vabstractarc_8h__incl_org.svg" target="_base">
   <rect id="button" ry="5" rx="5" y="6" x="6" height="38" width="38"
        fill="#f2f5e9" fill-opacity="0.5" stroke="#606060" stroke-width="1.0"/>
   <path id="arrow"
     d="M 11.500037,31.436501 C 11.940474,20.09759 22.043105,11.32322 32.158766,21.979434 L 37.068811,17.246167 C 37.068811,17.246167 37.088388,32 37.088388,32 L 22.160133,31.978069 C 22.160133,31.978069 26.997745,27.140456 26.997745,27.140456 C 18.528582,18.264221 13.291696,25.230495 11.500037,31.436501 z"
     style="fill:#404040;"/>
  </a>
 </g>
</svg>

<style type='text/css'>
<![CDATA[
[data-mouse-over-selected='false'] { opacity: 0.7; }
[data-mouse-over-selected='true']  { opacity: 1.0; }
]]>
</style>
<script type="application/ecmascript"><![CDATA[
document.addEventListener('DOMContentLoaded', (event) => {
  highlightEdges();
  highlightAdjacentNodes();
});
]]></script>
</svg>
