<?xml version="1.0" encoding="UTF-8" standalone="no"?>
<!DOCTYPE svg PUBLIC "-//W3C//DTD SVG 1.1//EN"
 "http://www.w3.org/Graphics/SVG/1.1/DTD/svg11.dtd">
<!-- Generated by graphviz version 2.43.0 (0)
 -->
<!-- Title: src/libs/vwidgets/vcurvepathitem.h Pages: 1 -->
<svg width="1233pt" height="151pt"
 viewBox="0.00 0.00 1232.50 151.00" xmlns="http://www.w3.org/2000/svg" xmlns:xlink="http://www.w3.org/1999/xlink">
<g id="graph0" class="graph" transform="scale(1 1) rotate(0) translate(4 147)">
<title>src/libs/vwidgets/vcurvepathitem.h</title>
<polygon fill="white" stroke="transparent" points="-4,4 -4,-147 1228.5,-147 1228.5,4 -4,4"/>
<!-- Node1 -->
<g id="node1" class="node">
<title>Node1</title>
<g id="a_node1"><a xlink:title=" ">
<polygon fill="#bfbfbf" stroke="black" points="415.5,-123.5 415.5,-142.5 603.5,-142.5 603.5,-123.5 415.5,-123.5"/>
<text text-anchor="middle" x="509.5" y="-130.5" font-family="Helvetica,sans-Serif" font-size="10.00">src/libs/vwidgets/vcurvepathitem.h</text>
</a>
</g>
</g>
<!-- Node2 -->
<g id="node2" class="node">
<title>Node2</title>
<g id="a_node2"><a xlink:href="../../da/daf/scalesceneitems_8h.html" target="_top" xlink:title=" ">
<polygon fill="white" stroke="black" points="306.5,-67.5 306.5,-86.5 498.5,-86.5 498.5,-67.5 306.5,-67.5"/>
<text text-anchor="middle" x="402.5" y="-74.5" font-family="Helvetica,sans-Serif" font-size="10.00">src/libs/vwidgets/scalesceneitems.h</text>
</a>
</g>
</g>
<!-- Node1&#45;&gt;Node2 -->
<g id="edge1" class="edge">
<title>Node1&#45;&gt;Node2</title>
<path fill="none" stroke="midnightblue" d="M483.2,-118.73C463.39,-108.73 436.79,-95.31 419.65,-86.65"/>
<polygon fill="midnightblue" stroke="midnightblue" points="481.8,-121.94 492.31,-123.32 484.96,-115.69 481.8,-121.94"/>
</g>
<!-- Node3 -->
<g id="node3" class="node">
<title>Node3</title>
<g id="a_node3"><a xlink:href="../../d4/d50/scalesceneitems_8cpp.html" target="_top" xlink:title=" ">
<polygon fill="white" stroke="black" points="0,-6 0,-25 203,-25 203,-6 0,-6"/>
<text text-anchor="middle" x="101.5" y="-13" font-family="Helvetica,sans-Serif" font-size="10.00">src/libs/vwidgets/scalesceneitems.cpp</text>
</a>
</g>
</g>
<!-- Node1&#45;&gt;Node3 -->
<g id="edge6" class="edge">
<title>Node1&#45;&gt;Node3</title>
<path fill="none" stroke="midnightblue" d="M449.8,-121.58C407.03,-113.57 348.26,-101.44 297.5,-87 232.46,-68.49 157.86,-39.41 122.37,-25.07"/>
<polygon fill="midnightblue" stroke="midnightblue" points="449.3,-125.04 459.77,-123.43 450.58,-118.16 449.3,-125.04"/>
</g>
<!-- Node7 -->
<g id="node7" class="node">
<title>Node7</title>
<g id="a_node7"><a xlink:href="../../df/dcf/vcurvepathitem_8cpp.html" target="_top" xlink:title=" ">
<polygon fill="white" stroke="black" points="517,-67.5 517,-86.5 716,-86.5 716,-67.5 517,-67.5"/>
<text text-anchor="middle" x="616.5" y="-74.5" font-family="Helvetica,sans-Serif" font-size="10.00">src/libs/vwidgets/vcurvepathitem.cpp</text>
</a>
</g>
</g>
<!-- Node1&#45;&gt;Node7 -->
<g id="edge7" class="edge">
<title>Node1&#45;&gt;Node7</title>
<path fill="none" stroke="midnightblue" d="M535.8,-118.73C555.61,-108.73 582.21,-95.31 599.35,-86.65"/>
<polygon fill="midnightblue" stroke="midnightblue" points="534.04,-115.69 526.69,-123.32 537.2,-121.94 534.04,-115.69"/>
</g>
<!-- Node8 -->
<g id="node8" class="node">
<title>Node8</title>
<g id="a_node8"><a xlink:href="../../d2/d3e/vsimplecurve_8h.html" target="_top" xlink:title=" ">
<polygon fill="white" stroke="black" points="808.5,-67.5 808.5,-86.5 984.5,-86.5 984.5,-67.5 808.5,-67.5"/>
<text text-anchor="middle" x="896.5" y="-74.5" font-family="Helvetica,sans-Serif" font-size="10.00">src/libs/vwidgets/vsimplecurve.h</text>
</a>
</g>
</g>
<!-- Node1&#45;&gt;Node8 -->
<g id="edge8" class="edge">
<title>Node1&#45;&gt;Node8</title>
<path fill="none" stroke="midnightblue" d="M580.87,-122.04C653.96,-111.84 766.38,-96.16 835.47,-86.52"/>
<polygon fill="midnightblue" stroke="midnightblue" points="580.24,-118.6 570.82,-123.44 581.21,-125.53 580.24,-118.6"/>
</g>
<!-- Node2&#45;&gt;Node3 -->
<g id="edge2" class="edge">
<title>Node2&#45;&gt;Node3</title>
<path fill="none" stroke="midnightblue" d="M349.25,-65.47C290.92,-53.94 198.49,-35.67 144.55,-25.01"/>
<polygon fill="midnightblue" stroke="midnightblue" points="348.89,-68.97 359.37,-67.48 350.24,-62.1 348.89,-68.97"/>
</g>
<!-- Node4 -->
<g id="node4" class="node">
<title>Node4</title>
<g id="a_node4"><a xlink:href="../../de/d45/vcontrolpointspline_8cpp.html" target="_top" xlink:title=" ">
<polygon fill="white" stroke="black" points="221,-6 221,-25 436,-25 436,-6 221,-6"/>
<text text-anchor="middle" x="328.5" y="-13" font-family="Helvetica,sans-Serif" font-size="10.00">src/libs/vwidgets/vcontrolpointspline.cpp</text>
</a>
</g>
</g>
<!-- Node2&#45;&gt;Node4 -->
<g id="edge3" class="edge">
<title>Node2&#45;&gt;Node4</title>
<path fill="none" stroke="midnightblue" d="M383.81,-60.97C369.66,-49.59 350.72,-34.37 339.08,-25.01"/>
<polygon fill="midnightblue" stroke="midnightblue" points="381.91,-63.94 391.9,-67.48 386.3,-58.48 381.91,-63.94"/>
</g>
<!-- Node5 -->
<g id="node5" class="node">
<title>Node5</title>
<g id="a_node5"><a xlink:href="../../d8/d76/scene__rect_8cpp.html" target="_top" xlink:title=" ">
<polygon fill="white" stroke="black" points="454.5,-0.5 454.5,-30.5 584.5,-30.5 584.5,-0.5 454.5,-0.5"/>
<text text-anchor="start" x="462.5" y="-18.5" font-family="Helvetica,sans-Serif" font-size="10.00">src/libs/vwidgets/scene</text>
<text text-anchor="middle" x="519.5" y="-7.5" font-family="Helvetica,sans-Serif" font-size="10.00">_rect.cpp</text>
</a>
</g>
</g>
<!-- Node2&#45;&gt;Node5 -->
<g id="edge4" class="edge">
<title>Node2&#45;&gt;Node5</title>
<path fill="none" stroke="midnightblue" d="M428.18,-62.94C447.05,-53.35 472.63,-40.33 491.93,-30.52"/>
<polygon fill="midnightblue" stroke="midnightblue" points="426.59,-59.82 419.26,-67.48 429.76,-66.06 426.59,-59.82"/>
</g>
<!-- Node6 -->
<g id="node6" class="node">
<title>Node6</title>
<g id="a_node6"><a xlink:href="../../d0/d5d/vscenepoint_8cpp.html" target="_top" xlink:title=" ">
<polygon fill="white" stroke="black" points="603,-6 603,-25 784,-25 784,-6 603,-6"/>
<text text-anchor="middle" x="693.5" y="-13" font-family="Helvetica,sans-Serif" font-size="10.00">src/libs/vwidgets/vscenepoint.cpp</text>
</a>
</g>
</g>
<!-- Node2&#45;&gt;Node6 -->
<g id="edge5" class="edge">
<title>Node2&#45;&gt;Node6</title>
<path fill="none" stroke="midnightblue" d="M454.33,-65.4C510.75,-53.87 599.84,-35.65 651.88,-25.01"/>
<polygon fill="midnightblue" stroke="midnightblue" points="453.29,-62.04 444.19,-67.48 454.69,-68.9 453.29,-62.04"/>
</g>
<!-- Node9 -->
<g id="node9" class="node">
<title>Node9</title>
<g id="a_node9"><a xlink:href="../../de/d22/vsimplecurve_8cpp.html" target="_top" xlink:title=" ">
<polygon fill="white" stroke="black" points="802.5,-6 802.5,-25 990.5,-25 990.5,-6 802.5,-6"/>
<text text-anchor="middle" x="896.5" y="-13" font-family="Helvetica,sans-Serif" font-size="10.00">src/libs/vwidgets/vsimplecurve.cpp</text>
</a>
</g>
</g>
<!-- Node8&#45;&gt;Node9 -->
<g id="edge9" class="edge">
<title>Node8&#45;&gt;Node9</title>
<path fill="none" stroke="midnightblue" d="M896.5,-57.32C896.5,-46.5 896.5,-33.4 896.5,-25.01"/>
<polygon fill="midnightblue" stroke="midnightblue" points="893,-57.48 896.5,-67.48 900,-57.48 893,-57.48"/>
</g>
<!-- Node10 -->
<g id="node10" class="node">
<title>Node10</title>
<g id="a_node10"><a xlink:href="../../d2/d31/vmaingraphicsview_8cpp.html" target="_top" xlink:title=" ">
<polygon fill="white" stroke="black" points="1008.5,-6 1008.5,-25 1224.5,-25 1224.5,-6 1008.5,-6"/>
<text text-anchor="middle" x="1116.5" y="-13" font-family="Helvetica,sans-Serif" font-size="10.00">src/libs/vwidgets/vmaingraphicsview.cpp</text>
</a>
</g>
</g>
<!-- Node8&#45;&gt;Node10 -->
<g id="edge10" class="edge">
<title>Node8&#45;&gt;Node10</title>
<path fill="none" stroke="midnightblue" d="M937.83,-64.82C980.56,-53.26 1046.35,-35.47 1085.04,-25.01"/>
<polygon fill="midnightblue" stroke="midnightblue" points="936.76,-61.49 928.02,-67.48 938.59,-68.24 936.76,-61.49"/>
</g>
</g>
</svg>
