<?xml version="1.0" encoding="UTF-8" standalone="no"?>
<!DOCTYPE svg PUBLIC "-//W3C//DTD SVG 1.1//EN"
 "http://www.w3.org/Graphics/SVG/1.1/DTD/svg11.dtd">
<!-- Generated by graphviz version 2.43.0 (0)
 -->
<!-- Title: VPosition Pages: 1 -->
<!--zoomable 1364 -->

<svg id="main" version="1.1" xmlns="http://www.w3.org/2000/svg" xmlns:xlink="http://www.w3.org/1999/xlink" xml:space="preserve" onload="init(evt)">
<style type="text/css"><![CDATA[
.node, .edge {opacity: 0.7;}
.node.selected, .edge.selected {opacity: 1;}
.edge:hover path { stroke: red; }
.edge:hover polygon { stroke: red; fill: red; }
]]></style>

<defs>
  <circle id="rim" cx="0" cy="0" r="7"/>
  <circle id="rim2" cx="0" cy="0" r="3.5"/>
  <g id="zoomPlus">
    <use xlink:href="#rim" fill="#404040"><set attributeName="fill" to="#808080" begin="zoomplus.mouseover" end="zoomplus.mouseout"/></use>
    <path d="M-4,0h8M0,-4v8" fill="none" stroke="white" stroke-width="1.5" pointer-events="none"/>
  </g>
  <g id="zoomMin">
    <use xlink:href="#rim" fill="#404040"><set attributeName="fill" to="#808080" begin="zoomminus.mouseover" end="zoomminus.mouseout"/></use>
    <path d="M-4,0h8" fill="none" stroke="white" stroke-width="1.5" pointer-events="none"/>
  </g>
  <g id="arrowUp" transform="translate(30 24)">
    <use xlink:href="#rim"/>
    <path pointer-events="none" fill="none" stroke="white" stroke-width="1.5" d="M0,-3.0v7 M-2.5,-0.5L0,-3.0L2.5,-0.5"/>
  </g>
  <g id="arrowRight" transform="rotate(90) translate(36 -43)">
    <use xlink:href="#rim"/>
    <path pointer-events="none" fill="none" stroke="white" stroke-width="1.5" d="M0,-3.0v7 M-2.5,-0.5L0,-3.0L2.5,-0.5"/>
  </g>
  <g id="arrowDown" transform="rotate(180) translate(-30 -48)">
    <use xlink:href="#rim"/>
    <path pointer-events="none" fill="none" stroke="white" stroke-width="1.5" d="M0,-3.0v7 M-2.5,-0.5L0,-3.0L2.5,-0.5"/>
  </g>
  <g id="arrowLeft" transform="rotate(270) translate(-36 17)">
    <use xlink:href="#rim"/>
    <path pointer-events="none" fill="none" stroke="white" stroke-width="1.5" d="M0,-3.0v7 M-2.5,-0.5L0,-3.0L2.5,-0.5"/>
  </g>
  <g id="resetDef">
    <use xlink:href="#rim2" fill="#404040"><set attributeName="fill" to="#808080" begin="reset.mouseover" end="reset.mouseout"/></use>
  </g>
</defs>
<script type="application/ecmascript">
var viewWidth = 481;
var viewHeight = 1364;
var sectionId = 'dynsection-1';
</script>
<script type="application/ecmascript" xlink:href="../../svg.min.js"/>
<svg id="graph" class="graph">
<g id="viewport">
<title>VPosition</title>
<!-- Node1 -->
<g id="Node000001" class="node">
<title>Node1</title>
<g id="a_Node000001"><a xlink:title=" ">
<polygon fill="#999999" stroke="transparent" points="258,-289 122,-289 122,0 258,0 258,-289"/>
<text text-anchor="start" x="167" y="-276.5" font-family="Helvetica,sans-Serif" font-size="10.00">VPosition</text>
<text text-anchor="start" x="128.5" y="-261.5" font-family="Helvetica,sans-Serif" font-size="10.00">&#45;</text>
<text text-anchor="start" x="139" y="-261.5" font-family="Helvetica,sans-Serif" font-size="10.00">m_sheetEdgeNum</text>
<text text-anchor="start" x="128.5" y="-246.5" font-family="Helvetica,sans-Serif" font-size="10.00">&#45;</text>
<text text-anchor="start" x="139" y="-246.5" font-family="Helvetica,sans-Serif" font-size="10.00">m_pieceEdgeNum</text>
<text text-anchor="start" x="128.5" y="-231.5" font-family="Helvetica,sans-Serif" font-size="10.00">&#45;</text>
<text text-anchor="start" x="139" y="-231.5" font-family="Helvetica,sans-Serif" font-size="10.00">m_stop</text>
<text text-anchor="start" x="128.5" y="-216.5" font-family="Helvetica,sans-Serif" font-size="10.00">&#45;</text>
<text text-anchor="start" x="139" y="-216.5" font-family="Helvetica,sans-Serif" font-size="10.00">m_rotate</text>
<text text-anchor="start" x="128.5" y="-201.5" font-family="Helvetica,sans-Serif" font-size="10.00">&#45;</text>
<text text-anchor="start" x="139" y="-201.5" font-family="Helvetica,sans-Serif" font-size="10.00">m_rotationIncrement</text>
<text text-anchor="start" x="128.5" y="-186.5" font-family="Helvetica,sans-Serif" font-size="10.00">&#45;</text>
<text text-anchor="start" x="139" y="-186.5" font-family="Helvetica,sans-Serif" font-size="10.00">m_angleBetween</text>
<text text-anchor="start" x="126" y="-171.5" font-family="Helvetica,sans-Serif" font-size="10.00">+</text>
<text text-anchor="start" x="139" y="-171.5" font-family="Helvetica,sans-Serif" font-size="10.00">VPosition()</text>
<text text-anchor="start" x="126" y="-156.5" font-family="Helvetica,sans-Serif" font-size="10.00">+</text>
<text text-anchor="start" x="139" y="-156.5" font-family="Helvetica,sans-Serif" font-size="10.00">~VPosition()</text>
<text text-anchor="start" x="126" y="-141.5" font-family="Helvetica,sans-Serif" font-size="10.00">+</text>
<text text-anchor="start" x="139" y="-141.5" font-family="Helvetica,sans-Serif" font-size="10.00">run()</text>
<text text-anchor="start" x="126" y="-126.5" font-family="Helvetica,sans-Serif" font-size="10.00">+</text>
<text text-anchor="start" x="139" y="-126.5" font-family="Helvetica,sans-Serif" font-size="10.00">getBestResult()</text>
<text text-anchor="start" x="128.5" y="-111.5" font-family="Helvetica,sans-Serif" font-size="10.00">&#45;</text>
<text text-anchor="start" x="139" y="-111.5" font-family="Helvetica,sans-Serif" font-size="10.00">saveCandidate()</text>
<text text-anchor="start" x="128.5" y="-96.5" font-family="Helvetica,sans-Serif" font-size="10.00">&#45;</text>
<text text-anchor="start" x="139" y="-96.5" font-family="Helvetica,sans-Serif" font-size="10.00">edgesIntersect()</text>
<text text-anchor="start" x="128.5" y="-81.5" font-family="Helvetica,sans-Serif" font-size="10.00">&#45;</text>
<text text-anchor="start" x="139" y="-81.5" font-family="Helvetica,sans-Serif" font-size="10.00">rotatedEdgeIntersects()</text>
<text text-anchor="start" x="128.5" y="-66.5" font-family="Helvetica,sans-Serif" font-size="10.00">&#45;</text>
<text text-anchor="start" x="139" y="-66.5" font-family="Helvetica,sans-Serif" font-size="10.00">intersectionType()</text>
<text text-anchor="start" x="128.5" y="-51.5" font-family="Helvetica,sans-Serif" font-size="10.00">&#45;</text>
<text text-anchor="start" x="139" y="-51.5" font-family="Helvetica,sans-Serif" font-size="10.00">sheetContains()</text>
<text text-anchor="start" x="128.5" y="-36.5" font-family="Helvetica,sans-Serif" font-size="10.00">&#45;</text>
<text text-anchor="start" x="139" y="-36.5" font-family="Helvetica,sans-Serif" font-size="10.00">combineEdges()</text>
<text text-anchor="start" x="128.5" y="-21.5" font-family="Helvetica,sans-Serif" font-size="10.00">&#45;</text>
<text text-anchor="start" x="139" y="-21.5" font-family="Helvetica,sans-Serif" font-size="10.00">rotateEdges()</text>
<text text-anchor="start" x="128.5" y="-6.5" font-family="Helvetica,sans-Serif" font-size="10.00">&#45;</text>
<text text-anchor="start" x="139" y="-6.5" font-family="Helvetica,sans-Serif" font-size="10.00">rotate()</text>
<polygon fill="#666666" stroke="#666666" points="122,-271.5 122,-271.5 258,-271.5 258,-271.5 122,-271.5"/>
<polygon fill="#666666" stroke="#666666" points="122,-181.5 122,-181.5 137,-181.5 137,-181.5 122,-181.5"/>
<polygon fill="#666666" stroke="#666666" points="137,-181.5 137,-181.5 258,-181.5 258,-181.5 137,-181.5"/>
<polygon fill="none" stroke="#666666" points="122,0 122,-289 258,-289 258,0 122,0"/>
</a>
</g>
</g>
<!-- Node2 -->
<g id="Node000002" class="node">
<title>Node2</title>
<g id="a_Node000002"><a xlink:title=" ">
<polygon fill="white" stroke="transparent" points="64,-557.5 0,-557.5 0,-508.5 64,-508.5 64,-557.5"/>
<text text-anchor="start" x="5" y="-545" font-family="Helvetica,sans-Serif" font-size="10.00">QRunnable</text>
<text text-anchor="start" x="30" y="-530" font-family="Helvetica,sans-Serif" font-size="10.00"> </text>
<text text-anchor="start" x="30" y="-515" font-family="Helvetica,sans-Serif" font-size="10.00"> </text>
<polygon fill="#666666" stroke="#666666" points="0,-540 0,-540 64,-540 64,-540 0,-540"/>
<polygon fill="#666666" stroke="#666666" points="0,-525 0,-525 64,-525 64,-525 0,-525"/>
<polygon fill="none" stroke="#666666" points="0,-508.5 0,-557.5 64,-557.5 64,-508.5 0,-508.5"/>
</a>
</g>
</g>
<!-- Node2&#45;&gt;Node1 -->
<g id="edge1_Node000001_Node000002" class="edge">
<title>Node2&#45;&gt;Node1</title>
<g id="a_edge1_Node000001_Node000002"><a xlink:title=" ">
<path fill="none" stroke="#63b8ff" d="M35.47,-498.32C40.39,-458.45 51.3,-390.56 73,-336 85.76,-303.9 103.79,-271.1 121.89,-241.96"/>
<polygon fill="none" stroke="#63b8ff" points="31.99,-497.97 34.3,-508.31 38.94,-498.79 31.99,-497.97"/>
</a>
</g>
</g>
<!-- Node3 -->
<g id="Node000003" class="node">
<title>Node3</title>
<g id="a_Node000003"><a xlink:href="../../d3/dd7/classVBestSquare.html" target="_top" xlink:title=" ">
<polygon fill="white" stroke="transparent" points="181.5,-700 82.5,-700 82.5,-366 181.5,-366 181.5,-700"/>
<text text-anchor="start" x="101" y="-688" font-family="Helvetica,sans-Serif" font-size="10.00">VBestSquare</text>
<text text-anchor="start" x="89.5" y="-673" font-family="Helvetica,sans-Serif" font-size="10.00">&#45;</text>
<text text-anchor="start" x="100" y="-673" font-family="Helvetica,sans-Serif" font-size="10.00">resI</text>
<text text-anchor="start" x="89.5" y="-658" font-family="Helvetica,sans-Serif" font-size="10.00">&#45;</text>
<text text-anchor="start" x="100" y="-658" font-family="Helvetica,sans-Serif" font-size="10.00">resJ</text>
<text text-anchor="start" x="89.5" y="-643" font-family="Helvetica,sans-Serif" font-size="10.00">&#45;</text>
<text text-anchor="start" x="100" y="-643" font-family="Helvetica,sans-Serif" font-size="10.00">resTransform</text>
<text text-anchor="start" x="89.5" y="-628" font-family="Helvetica,sans-Serif" font-size="10.00">&#45;</text>
<text text-anchor="start" x="100" y="-628" font-family="Helvetica,sans-Serif" font-size="10.00">bestSize</text>
<text text-anchor="start" x="89.5" y="-613" font-family="Helvetica,sans-Serif" font-size="10.00">&#45;</text>
<text text-anchor="start" x="100" y="-613" font-family="Helvetica,sans-Serif" font-size="10.00">sheetWidth</text>
<text text-anchor="start" x="89.5" y="-598" font-family="Helvetica,sans-Serif" font-size="10.00">&#45;</text>
<text text-anchor="start" x="100" y="-598" font-family="Helvetica,sans-Serif" font-size="10.00">valideResult</text>
<text text-anchor="start" x="89.5" y="-583" font-family="Helvetica,sans-Serif" font-size="10.00">&#45;</text>
<text text-anchor="start" x="100" y="-583" font-family="Helvetica,sans-Serif" font-size="10.00">resMirror</text>
<text text-anchor="start" x="89.5" y="-568" font-family="Helvetica,sans-Serif" font-size="10.00">&#45;</text>
<text text-anchor="start" x="100" y="-568" font-family="Helvetica,sans-Serif" font-size="10.00">type</text>
<text text-anchor="start" x="89.5" y="-553" font-family="Helvetica,sans-Serif" font-size="10.00">&#45;</text>
<text text-anchor="start" x="100" y="-553" font-family="Helvetica,sans-Serif" font-size="10.00">saveLength</text>
<text text-anchor="start" x="87" y="-538" font-family="Helvetica,sans-Serif" font-size="10.00">+</text>
<text text-anchor="start" x="100" y="-538" font-family="Helvetica,sans-Serif" font-size="10.00">VBestSquare()</text>
<text text-anchor="start" x="87" y="-523" font-family="Helvetica,sans-Serif" font-size="10.00">+</text>
<text text-anchor="start" x="100" y="-523" font-family="Helvetica,sans-Serif" font-size="10.00">NewResult()</text>
<text text-anchor="start" x="87" y="-508" font-family="Helvetica,sans-Serif" font-size="10.00">+</text>
<text text-anchor="start" x="100" y="-508" font-family="Helvetica,sans-Serif" font-size="10.00">NewResult()</text>
<text text-anchor="start" x="87" y="-493" font-family="Helvetica,sans-Serif" font-size="10.00">+</text>
<text text-anchor="start" x="100" y="-493" font-family="Helvetica,sans-Serif" font-size="10.00">BestSize()</text>
<text text-anchor="start" x="87" y="-478" font-family="Helvetica,sans-Serif" font-size="10.00">+</text>
<text text-anchor="start" x="100" y="-478" font-family="Helvetica,sans-Serif" font-size="10.00">GContourEdge()</text>
<text text-anchor="start" x="87" y="-463" font-family="Helvetica,sans-Serif" font-size="10.00">+</text>
<text text-anchor="start" x="100" y="-463" font-family="Helvetica,sans-Serif" font-size="10.00">pieceEdge()</text>
<text text-anchor="start" x="87" y="-448" font-family="Helvetica,sans-Serif" font-size="10.00">+</text>
<text text-anchor="start" x="100" y="-448" font-family="Helvetica,sans-Serif" font-size="10.00">Transform()</text>
<text text-anchor="start" x="87" y="-433" font-family="Helvetica,sans-Serif" font-size="10.00">+</text>
<text text-anchor="start" x="100" y="-433" font-family="Helvetica,sans-Serif" font-size="10.00">ValidResult()</text>
<text text-anchor="start" x="87" y="-418" font-family="Helvetica,sans-Serif" font-size="10.00">+</text>
<text text-anchor="start" x="100" y="-418" font-family="Helvetica,sans-Serif" font-size="10.00">isMirror()</text>
<text text-anchor="start" x="87" y="-403" font-family="Helvetica,sans-Serif" font-size="10.00">+</text>
<text text-anchor="start" x="100" y="-403" font-family="Helvetica,sans-Serif" font-size="10.00">Type()</text>
<text text-anchor="start" x="87" y="-388" font-family="Helvetica,sans-Serif" font-size="10.00">+</text>
<text text-anchor="start" x="100" y="-388" font-family="Helvetica,sans-Serif" font-size="10.00">IsSaveLength()</text>
<text text-anchor="start" x="89.5" y="-373" font-family="Helvetica,sans-Serif" font-size="10.00">&#45;</text>
<text text-anchor="start" x="100" y="-373" font-family="Helvetica,sans-Serif" font-size="10.00">Square()</text>
<polygon fill="#666666" stroke="#666666" points="83,-683 83,-683 182,-683 182,-683 83,-683"/>
<polygon fill="#666666" stroke="#666666" points="83,-548 83,-548 98,-548 98,-548 83,-548"/>
<polygon fill="#666666" stroke="#666666" points="98,-548 98,-548 182,-548 182,-548 98,-548"/>
<polygon fill="none" stroke="#666666" points="82.5,-366 82.5,-700 181.5,-700 181.5,-366 82.5,-366"/>
</a>
</g>
</g>
<!-- Node3&#45;&gt;Node1 -->
<g id="edge2_Node000001_Node000003" class="edge">
<title>Node3&#45;&gt;Node1</title>
<g id="a_edge2_Node000001_Node000003"><a xlink:title=" ">
<path fill="none" stroke="#63b8ff" d="M144.08,-365.79C146.32,-345.92 148.94,-325.97 152,-307 152.31,-305.09 152.63,-303.16 152.95,-301.23"/>
<polygon fill="none" stroke="#63b8ff" points="152.98,-301.07 150.09,-294.47 155.08,-289.26 157.97,-295.87 152.98,-301.07"/>
</a>
</g>
<text text-anchor="middle" x="189" y="-310" font-family="Helvetica,sans-Serif" font-size="10.00" fill="grey"> &#45;m_bestResult</text>
</g>
<!-- Node4 -->
<g id="Node000004" class="node">
<title>Node4</title>
<g id="a_Node000004"><a xlink:href="../../de/dad/classVContour.html" target="_top" xlink:title=" ">
<polygon fill="white" stroke="transparent" points="296.5,-640 199.5,-640 199.5,-426 296.5,-426 296.5,-640"/>
<text text-anchor="start" x="225.5" y="-628" font-family="Helvetica,sans-Serif" font-size="10.00">VContour</text>
<text text-anchor="start" x="206.5" y="-613" font-family="Helvetica,sans-Serif" font-size="10.00">&#45;</text>
<text text-anchor="start" x="217" y="-613" font-family="Helvetica,sans-Serif" font-size="10.00">d</text>
<text text-anchor="start" x="204" y="-598" font-family="Helvetica,sans-Serif" font-size="10.00">+</text>
<text text-anchor="start" x="217" y="-598" font-family="Helvetica,sans-Serif" font-size="10.00">VContour()</text>
<text text-anchor="start" x="204" y="-583" font-family="Helvetica,sans-Serif" font-size="10.00">+</text>
<text text-anchor="start" x="217" y="-583" font-family="Helvetica,sans-Serif" font-size="10.00">VContour()</text>
<text text-anchor="start" x="204" y="-568" font-family="Helvetica,sans-Serif" font-size="10.00">+</text>
<text text-anchor="start" x="217" y="-568" font-family="Helvetica,sans-Serif" font-size="10.00">VContour()</text>
<text text-anchor="start" x="204" y="-553" font-family="Helvetica,sans-Serif" font-size="10.00">+</text>
<text text-anchor="start" x="217" y="-553" font-family="Helvetica,sans-Serif" font-size="10.00">~VContour()</text>
<text text-anchor="start" x="204" y="-538" font-family="Helvetica,sans-Serif" font-size="10.00">+</text>
<text text-anchor="start" x="217" y="-538" font-family="Helvetica,sans-Serif" font-size="10.00">operator=()</text>
<text text-anchor="start" x="204" y="-523" font-family="Helvetica,sans-Serif" font-size="10.00">+</text>
<text text-anchor="start" x="217" y="-523" font-family="Helvetica,sans-Serif" font-size="10.00">Swap()</text>
<text text-anchor="start" x="204" y="-508" font-family="Helvetica,sans-Serif" font-size="10.00">+</text>
<text text-anchor="start" x="217" y="-508" font-family="Helvetica,sans-Serif" font-size="10.00">SetContour()</text>
<text text-anchor="start" x="204" y="-493" font-family="Helvetica,sans-Serif" font-size="10.00">+</text>
<text text-anchor="start" x="217" y="-493" font-family="Helvetica,sans-Serif" font-size="10.00">GetContour()</text>
<text text-anchor="start" x="204" y="-478" font-family="Helvetica,sans-Serif" font-size="10.00">+</text>
<text text-anchor="start" x="217" y="-478" font-family="Helvetica,sans-Serif" font-size="10.00">GetShift()</text>
<text text-anchor="start" x="204" y="-463" font-family="Helvetica,sans-Serif" font-size="10.00">+</text>
<text text-anchor="start" x="217" y="-463" font-family="Helvetica,sans-Serif" font-size="10.00">SetShift()</text>
<text text-anchor="start" x="217" y="-448" font-family="Helvetica,sans-Serif" font-size="10.00">and 14 more...</text>
<text text-anchor="start" x="206.5" y="-433" font-family="Helvetica,sans-Serif" font-size="10.00">&#45;</text>
<text text-anchor="start" x="217" y="-433" font-family="Helvetica,sans-Serif" font-size="10.00">AppendWhole()</text>
<polygon fill="#666666" stroke="#666666" points="200,-623 200,-623 297,-623 297,-623 200,-623"/>
<polygon fill="#666666" stroke="#666666" points="200,-608 200,-608 215,-608 215,-608 200,-608"/>
<polygon fill="#666666" stroke="#666666" points="215,-608 215,-608 297,-608 297,-608 215,-608"/>
<polygon fill="none" stroke="#666666" points="199.5,-426 199.5,-640 296.5,-640 296.5,-426 199.5,-426"/>
</a>
</g>
</g>
<!-- Node4&#45;&gt;Node1 -->
<g id="edge3_Node000001_Node000004" class="edge">
<title>Node4&#45;&gt;Node1</title>
<g id="a_edge3_Node000001_Node000004"><a xlink:title=" ">
<path fill="none" stroke="#63b8ff" d="M240.29,-425.78C236.85,-388.14 232.16,-345.56 226,-307 225.7,-305.09 225.38,-303.17 225.06,-301.24"/>
<polygon fill="none" stroke="#63b8ff" points="225.04,-301.12 220.07,-295.89 222.99,-289.3 227.95,-294.52 225.04,-301.12"/>
</a>
</g>
<text text-anchor="middle" x="251.5" y="-310" font-family="Helvetica,sans-Serif" font-size="10.00" fill="grey"> &#45;m_sheet</text>
</g>
<!-- Node5 -->
<g id="Node000005" class="node">
<title>Node5</title>
<g id="a_Node000005"><a xlink:href="../../df/de5/classVLayoutPiece.html" target="_top" xlink:title=" ">
<polygon fill="white" stroke="transparent" points="473,-730 315,-730 315,-336 473,-336 473,-730"/>
<text text-anchor="start" x="360.5" y="-718" font-family="Helvetica,sans-Serif" font-size="10.00">VLayoutPiece</text>
<text text-anchor="start" x="321.5" y="-703" font-family="Helvetica,sans-Serif" font-size="10.00">&#45;</text>
<text text-anchor="start" x="332" y="-703" font-family="Helvetica,sans-Serif" font-size="10.00">d</text>
<text text-anchor="start" x="319" y="-688" font-family="Helvetica,sans-Serif" font-size="10.00">+</text>
<text text-anchor="start" x="332" y="-688" font-family="Helvetica,sans-Serif" font-size="10.00">VLayoutPiece()</text>
<text text-anchor="start" x="319" y="-673" font-family="Helvetica,sans-Serif" font-size="10.00">+</text>
<text text-anchor="start" x="332" y="-673" font-family="Helvetica,sans-Serif" font-size="10.00">VLayoutPiece()</text>
<text text-anchor="start" x="319" y="-658" font-family="Helvetica,sans-Serif" font-size="10.00">+</text>
<text text-anchor="start" x="332" y="-658" font-family="Helvetica,sans-Serif" font-size="10.00">~VLayoutPiece()</text>
<text text-anchor="start" x="319" y="-643" font-family="Helvetica,sans-Serif" font-size="10.00">+</text>
<text text-anchor="start" x="332" y="-643" font-family="Helvetica,sans-Serif" font-size="10.00">operator=()</text>
<text text-anchor="start" x="319" y="-628" font-family="Helvetica,sans-Serif" font-size="10.00">+</text>
<text text-anchor="start" x="332" y="-628" font-family="Helvetica,sans-Serif" font-size="10.00">Swap()</text>
<text text-anchor="start" x="319" y="-613" font-family="Helvetica,sans-Serif" font-size="10.00">+</text>
<text text-anchor="start" x="332" y="-613" font-family="Helvetica,sans-Serif" font-size="10.00">getContourPoints()</text>
<text text-anchor="start" x="319" y="-598" font-family="Helvetica,sans-Serif" font-size="10.00">+</text>
<text text-anchor="start" x="332" y="-598" font-family="Helvetica,sans-Serif" font-size="10.00">SetCountourPoints()</text>
<text text-anchor="start" x="319" y="-583" font-family="Helvetica,sans-Serif" font-size="10.00">+</text>
<text text-anchor="start" x="332" y="-583" font-family="Helvetica,sans-Serif" font-size="10.00">GetSeamAllowancePoints()</text>
<text text-anchor="start" x="319" y="-568" font-family="Helvetica,sans-Serif" font-size="10.00">+</text>
<text text-anchor="start" x="332" y="-568" font-family="Helvetica,sans-Serif" font-size="10.00">setSeamAllowancePoints()</text>
<text text-anchor="start" x="319" y="-553" font-family="Helvetica,sans-Serif" font-size="10.00">+</text>
<text text-anchor="start" x="332" y="-553" font-family="Helvetica,sans-Serif" font-size="10.00">getLayoutAllowancePoints()</text>
<text text-anchor="start" x="332" y="-538" font-family="Helvetica,sans-Serif" font-size="10.00">and 41 more...</text>
<text text-anchor="start" x="319" y="-523" font-family="Helvetica,sans-Serif" font-size="10.00">+</text>
<text text-anchor="start" x="332" y="-523" font-family="Helvetica,sans-Serif" font-size="10.00">Create()</text>
<text text-anchor="start" x="321.5" y="-508" font-family="Helvetica,sans-Serif" font-size="10.00">&#45;</text>
<text text-anchor="start" x="332" y="-508" font-family="Helvetica,sans-Serif" font-size="10.00">piecePath()</text>
<text text-anchor="start" x="321.5" y="-493" font-family="Helvetica,sans-Serif" font-size="10.00">&#45;</text>
<text text-anchor="start" x="332" y="-493" font-family="Helvetica,sans-Serif" font-size="10.00">createMainItem()</text>
<text text-anchor="start" x="321.5" y="-478" font-family="Helvetica,sans-Serif" font-size="10.00">&#45;</text>
<text text-anchor="start" x="332" y="-478" font-family="Helvetica,sans-Serif" font-size="10.00">createAllowanceItem()</text>
<text text-anchor="start" x="321.5" y="-463" font-family="Helvetica,sans-Serif" font-size="10.00">&#45;</text>
<text text-anchor="start" x="332" y="-463" font-family="Helvetica,sans-Serif" font-size="10.00">createNotchesItem()</text>
<text text-anchor="start" x="321.5" y="-448" font-family="Helvetica,sans-Serif" font-size="10.00">&#45;</text>
<text text-anchor="start" x="332" y="-448" font-family="Helvetica,sans-Serif" font-size="10.00">getMainPathItem()</text>
<text text-anchor="start" x="321.5" y="-433" font-family="Helvetica,sans-Serif" font-size="10.00">&#45;</text>
<text text-anchor="start" x="332" y="-433" font-family="Helvetica,sans-Serif" font-size="10.00">createInternalPathItem()</text>
<text text-anchor="start" x="321.5" y="-418" font-family="Helvetica,sans-Serif" font-size="10.00">&#45;</text>
<text text-anchor="start" x="332" y="-418" font-family="Helvetica,sans-Serif" font-size="10.00">createCutoutPathItem()</text>
<text text-anchor="start" x="321.5" y="-403" font-family="Helvetica,sans-Serif" font-size="10.00">&#45;</text>
<text text-anchor="start" x="332" y="-403" font-family="Helvetica,sans-Serif" font-size="10.00">createLabelItem()</text>
<text text-anchor="start" x="321.5" y="-388" font-family="Helvetica,sans-Serif" font-size="10.00">&#45;</text>
<text text-anchor="start" x="332" y="-388" font-family="Helvetica,sans-Serif" font-size="10.00">createGrainlineItem()</text>
<text text-anchor="start" x="321.5" y="-373" font-family="Helvetica,sans-Serif" font-size="10.00">&#45;</text>
<text text-anchor="start" x="332" y="-373" font-family="Helvetica,sans-Serif" font-size="10.00">Map()</text>
<text text-anchor="start" x="321.5" y="-358" font-family="Helvetica,sans-Serif" font-size="10.00">&#45;</text>
<text text-anchor="start" x="332" y="-358" font-family="Helvetica,sans-Serif" font-size="10.00">Edge()</text>
<text text-anchor="start" x="321.5" y="-343" font-family="Helvetica,sans-Serif" font-size="10.00">&#45;</text>
<text text-anchor="start" x="332" y="-343" font-family="Helvetica,sans-Serif" font-size="10.00">EdgeByPoint()</text>
<polygon fill="#666666" stroke="#666666" points="315,-713 315,-713 473,-713 473,-713 315,-713"/>
<polygon fill="#666666" stroke="#666666" points="315,-698 315,-698 330,-698 330,-698 315,-698"/>
<polygon fill="#666666" stroke="#666666" points="330,-698 330,-698 473,-698 473,-698 330,-698"/>
<polygon fill="none" stroke="#666666" points="315,-336 315,-730 473,-730 473,-336 315,-336"/>
</a>
</g>
</g>
<!-- Node5&#45;&gt;Node1 -->
<g id="edge4_Node000001_Node000005" class="edge">
<title>Node5&#45;&gt;Node1</title>
<g id="a_edge4_Node000001_Node000005"><a xlink:title=" ">
<path fill="none" stroke="#63b8ff" d="M314.96,-353.41C311.99,-347.51 309,-341.69 306,-336 293.27,-311.82 278.75,-286.5 264.39,-262.5"/>
<polygon fill="none" stroke="#63b8ff" points="264.22,-262.22 257.7,-259.15 258.03,-251.94 264.55,-255.02 264.22,-262.22"/>
</a>
</g>
<text text-anchor="middle" x="318.5" y="-310" font-family="Helvetica,sans-Serif" font-size="10.00" fill="grey"> &#45;m_piece</text>
</g>
<!-- Node6 -->
<g id="Node000006" class="node">
<title>Node6</title>
<g id="a_Node000006"><a xlink:href="../../dd/dfe/classVAbstractPiece.html" target="_top" xlink:title=" ">
<polygon fill="white" stroke="transparent" points="473,-1356 315,-1356 315,-767 473,-767 473,-1356"/>
<text text-anchor="start" x="357.5" y="-1343.5" font-family="Helvetica,sans-Serif" font-size="10.00">VAbstractPiece</text>
<text text-anchor="start" x="321.5" y="-1328.5" font-family="Helvetica,sans-Serif" font-size="10.00">&#45;</text>
<text text-anchor="start" x="332" y="-1328.5" font-family="Helvetica,sans-Serif" font-size="10.00">d</text>
<text text-anchor="start" x="319" y="-1313.5" font-family="Helvetica,sans-Serif" font-size="10.00">+</text>
<text text-anchor="start" x="332" y="-1313.5" font-family="Helvetica,sans-Serif" font-size="10.00">VAbstractPiece()</text>
<text text-anchor="start" x="319" y="-1298.5" font-family="Helvetica,sans-Serif" font-size="10.00">+</text>
<text text-anchor="start" x="332" y="-1298.5" font-family="Helvetica,sans-Serif" font-size="10.00">VAbstractPiece()</text>
<text text-anchor="start" x="319" y="-1283.5" font-family="Helvetica,sans-Serif" font-size="10.00">+</text>
<text text-anchor="start" x="332" y="-1283.5" font-family="Helvetica,sans-Serif" font-size="10.00">~VAbstractPiece()</text>
<text text-anchor="start" x="319" y="-1268.5" font-family="Helvetica,sans-Serif" font-size="10.00">+</text>
<text text-anchor="start" x="332" y="-1268.5" font-family="Helvetica,sans-Serif" font-size="10.00">operator=()</text>
<text text-anchor="start" x="319" y="-1253.5" font-family="Helvetica,sans-Serif" font-size="10.00">+</text>
<text text-anchor="start" x="332" y="-1253.5" font-family="Helvetica,sans-Serif" font-size="10.00">Swap()</text>
<text text-anchor="start" x="319" y="-1238.5" font-family="Helvetica,sans-Serif" font-size="10.00">+</text>
<text text-anchor="start" x="332" y="-1238.5" font-family="Helvetica,sans-Serif" font-size="10.00">GetName()</text>
<text text-anchor="start" x="319" y="-1223.5" font-family="Helvetica,sans-Serif" font-size="10.00">+</text>
<text text-anchor="start" x="332" y="-1223.5" font-family="Helvetica,sans-Serif" font-size="10.00">SetName()</text>
<text text-anchor="start" x="319" y="-1208.5" font-family="Helvetica,sans-Serif" font-size="10.00">+</text>
<text text-anchor="start" x="332" y="-1208.5" font-family="Helvetica,sans-Serif" font-size="10.00">getColor()</text>
<text text-anchor="start" x="319" y="-1193.5" font-family="Helvetica,sans-Serif" font-size="10.00">+</text>
<text text-anchor="start" x="332" y="-1193.5" font-family="Helvetica,sans-Serif" font-size="10.00">setColor()</text>
<text text-anchor="start" x="319" y="-1178.5" font-family="Helvetica,sans-Serif" font-size="10.00">+</text>
<text text-anchor="start" x="332" y="-1178.5" font-family="Helvetica,sans-Serif" font-size="10.00">getFill()</text>
<text text-anchor="start" x="332" y="-1163.5" font-family="Helvetica,sans-Serif" font-size="10.00">and 17 more...</text>
<text text-anchor="start" x="319" y="-1148.5" font-family="Helvetica,sans-Serif" font-size="10.00">+</text>
<text text-anchor="start" x="332" y="-1148.5" font-family="Helvetica,sans-Serif" font-size="10.00">Equidistant()</text>
<text text-anchor="start" x="319" y="-1133.5" font-family="Helvetica,sans-Serif" font-size="10.00">+</text>
<text text-anchor="start" x="332" y="-1133.5" font-family="Helvetica,sans-Serif" font-size="10.00">sumTrapezoids()</text>
<text text-anchor="start" x="319" y="-1118.5" font-family="Helvetica,sans-Serif" font-size="10.00">+</text>
<text text-anchor="start" x="332" y="-1118.5" font-family="Helvetica,sans-Serif" font-size="10.00">isClockwise()</text>
<text text-anchor="start" x="319" y="-1103.5" font-family="Helvetica,sans-Serif" font-size="10.00">+</text>
<text text-anchor="start" x="332" y="-1103.5" font-family="Helvetica,sans-Serif" font-size="10.00">CheckLoops()</text>
<text text-anchor="start" x="319" y="-1088.5" font-family="Helvetica,sans-Serif" font-size="10.00">+</text>
<text text-anchor="start" x="332" y="-1088.5" font-family="Helvetica,sans-Serif" font-size="10.00">EkvPoint()</text>
<text text-anchor="start" x="319" y="-1073.5" font-family="Helvetica,sans-Serif" font-size="10.00">+</text>
<text text-anchor="start" x="332" y="-1073.5" font-family="Helvetica,sans-Serif" font-size="10.00">createParallelLine()</text>
<text text-anchor="start" x="319" y="-1058.5" font-family="Helvetica,sans-Serif" font-size="10.00">+</text>
<text text-anchor="start" x="332" y="-1058.5" font-family="Helvetica,sans-Serif" font-size="10.00">createParallelLine()</text>
<text text-anchor="start" x="319" y="-1043.5" font-family="Helvetica,sans-Serif" font-size="10.00">+</text>
<text text-anchor="start" x="332" y="-1043.5" font-family="Helvetica,sans-Serif" font-size="10.00">CorrectEquidistantPoints()</text>
<text text-anchor="start" x="319" y="-1028.5" font-family="Helvetica,sans-Serif" font-size="10.00">#</text>
<text text-anchor="start" x="332" y="-1028.5" font-family="Helvetica,sans-Serif" font-size="10.00">RemoveDublicates()</text>
<text text-anchor="start" x="319" y="-1013.5" font-family="Helvetica,sans-Serif" font-size="10.00">#</text>
<text text-anchor="start" x="332" y="-1013.5" font-family="Helvetica,sans-Serif" font-size="10.00">MaxLocalSA()</text>
<text text-anchor="start" x="319" y="-998.5" font-family="Helvetica,sans-Serif" font-size="10.00">#</text>
<text text-anchor="start" x="332" y="-998.5" font-family="Helvetica,sans-Serif" font-size="10.00">IsEkvPointOnLine()</text>
<text text-anchor="start" x="319" y="-983.5" font-family="Helvetica,sans-Serif" font-size="10.00">#</text>
<text text-anchor="start" x="332" y="-983.5" font-family="Helvetica,sans-Serif" font-size="10.00">IsEkvPointOnLine()</text>
<text text-anchor="start" x="321.5" y="-968.5" font-family="Helvetica,sans-Serif" font-size="10.00">&#45;</text>
<text text-anchor="start" x="332" y="-968.5" font-family="Helvetica,sans-Serif" font-size="10.00">CheckIntersection()</text>
<text text-anchor="start" x="321.5" y="-953.5" font-family="Helvetica,sans-Serif" font-size="10.00">&#45;</text>
<text text-anchor="start" x="332" y="-953.5" font-family="Helvetica,sans-Serif" font-size="10.00">ParallelCrossPoint()</text>
<text text-anchor="start" x="321.5" y="-938.5" font-family="Helvetica,sans-Serif" font-size="10.00">&#45;</text>
<text text-anchor="start" x="332" y="-938.5" font-family="Helvetica,sans-Serif" font-size="10.00">Crossing()</text>
<text text-anchor="start" x="321.5" y="-923.5" font-family="Helvetica,sans-Serif" font-size="10.00">&#45;</text>
<text text-anchor="start" x="332" y="-923.5" font-family="Helvetica,sans-Serif" font-size="10.00">SubPath()</text>
<text text-anchor="start" x="321.5" y="-908.5" font-family="Helvetica,sans-Serif" font-size="10.00">&#45;</text>
<text text-anchor="start" x="332" y="-908.5" font-family="Helvetica,sans-Serif" font-size="10.00">PointPosition()</text>
<text text-anchor="start" x="321.5" y="-893.5" font-family="Helvetica,sans-Serif" font-size="10.00">&#45;</text>
<text text-anchor="start" x="332" y="-893.5" font-family="Helvetica,sans-Serif" font-size="10.00">AngleByLength()</text>
<text text-anchor="start" x="321.5" y="-878.5" font-family="Helvetica,sans-Serif" font-size="10.00">&#45;</text>
<text text-anchor="start" x="332" y="-878.5" font-family="Helvetica,sans-Serif" font-size="10.00">AngleByIntersection()</text>
<text text-anchor="start" x="321.5" y="-863.5" font-family="Helvetica,sans-Serif" font-size="10.00">&#45;</text>
<text text-anchor="start" x="332" y="-863.5" font-family="Helvetica,sans-Serif" font-size="10.00">AngleByFirstSymmetry()</text>
<text text-anchor="start" x="321.5" y="-848.5" font-family="Helvetica,sans-Serif" font-size="10.00">&#45;</text>
<text text-anchor="start" x="332" y="-848.5" font-family="Helvetica,sans-Serif" font-size="10.00">AngleBySecondSymmetry()</text>
<text text-anchor="start" x="321.5" y="-833.5" font-family="Helvetica,sans-Serif" font-size="10.00">&#45;</text>
<text text-anchor="start" x="332" y="-833.5" font-family="Helvetica,sans-Serif" font-size="10.00">AngleByFirstRightAngle()</text>
<text text-anchor="start" x="321.5" y="-818.5" font-family="Helvetica,sans-Serif" font-size="10.00">&#45;</text>
<text text-anchor="start" x="332" y="-818.5" font-family="Helvetica,sans-Serif" font-size="10.00">AngleBySecondRightAngle()</text>
<text text-anchor="start" x="321.5" y="-803.5" font-family="Helvetica,sans-Serif" font-size="10.00">&#45;</text>
<text text-anchor="start" x="332" y="-803.5" font-family="Helvetica,sans-Serif" font-size="10.00">SingleParallelPoint()</text>
<text text-anchor="start" x="321.5" y="-788.5" font-family="Helvetica,sans-Serif" font-size="10.00">&#45;</text>
<text text-anchor="start" x="332" y="-788.5" font-family="Helvetica,sans-Serif" font-size="10.00">BisectorLine()</text>
<text text-anchor="start" x="321.5" y="-773.5" font-family="Helvetica,sans-Serif" font-size="10.00">&#45;</text>
<text text-anchor="start" x="332" y="-773.5" font-family="Helvetica,sans-Serif" font-size="10.00">AngleBetweenBisectors()</text>
<polygon fill="#666666" stroke="#666666" points="315,-1338.5 315,-1338.5 473,-1338.5 473,-1338.5 315,-1338.5"/>
<polygon fill="#666666" stroke="#666666" points="315,-1323.5 315,-1323.5 330,-1323.5 330,-1323.5 315,-1323.5"/>
<polygon fill="#666666" stroke="#666666" points="330,-1323.5 330,-1323.5 473,-1323.5 473,-1323.5 330,-1323.5"/>
<polygon fill="none" stroke="#666666" points="315,-767 315,-1356 473,-1356 473,-767 315,-767"/>
</a>
</g>
</g>
<!-- Node6&#45;&gt;Node5 -->
<g id="edge5_Node000005_Node000006" class="edge">
<title>Node6&#45;&gt;Node5</title>
<g id="a_edge5_Node000005_Node000006"><a xlink:title=" ">
<path fill="none" stroke="#63b8ff" d="M394,-756.71C394,-747.76 394,-738.87 394,-730.09"/>
<polygon fill="none" stroke="#63b8ff" points="390.5,-756.85 394,-766.85 397.5,-756.85 390.5,-756.85"/>
</a>
</g>
</g>
</g>
</svg>

<g id="navigator" transform="translate(0 0)" fill="#404254">
  <rect fill="#f2f5e9" fill-opacity="0.5" stroke="#606060" stroke-width=".5" x="0" y="0" width="60" height="60"/>
  <use id="zoomplus" xlink:href="#zoomPlus" x="17" y="9" onmousedown="handleZoom(evt,'in')"/>
  <use id="zoomminus" xlink:href="#zoomMin" x="42" y="9" onmousedown="handleZoom(evt,'out')"/>
  <use id="reset" xlink:href="#resetDef" x="30" y="36" onmousedown="handleReset()"/>
   <use id="arrowup" xlink:href="#arrowUp" x="0" y="0" onmousedown="handlePan(0,-1)"/>
  <use id="arrowright" xlink:href="#arrowRight" x="0" y="0" onmousedown="handlePan(1,0)"/>
  <use id="arrowdown" xlink:href="#arrowDown" x="0" y="0" onmousedown="handlePan(0,1)"/>
  <use id="arrowleft" xlink:href="#arrowLeft" x="0" y="0" onmousedown="handlePan(-1,0)"/>
</g>
<svg viewBox="0 0 15 15" width="100%" height="30px" preserveAspectRatio="xMaxYMin meet">
 <g id="arrow_out" transform="scale(0.3 0.3)">
  <a xlink:href="classVPosition__coll__graph_org.svg" target="_base">
   <rect id="button" ry="5" rx="5" y="6" x="6" height="38" width="38"
        fill="#f2f5e9" fill-opacity="0.5" stroke="#606060" stroke-width="1.0"/>
   <path id="arrow"
     d="M 11.500037,31.436501 C 11.940474,20.09759 22.043105,11.32322 32.158766,21.979434 L 37.068811,17.246167 C 37.068811,17.246167 37.088388,32 37.088388,32 L 22.160133,31.978069 C 22.160133,31.978069 26.997745,27.140456 26.997745,27.140456 C 18.528582,18.264221 13.291696,25.230495 11.500037,31.436501 z"
     style="fill:#404040;"/>
  </a>
 </g>
</svg>

<style type='text/css'>
<![CDATA[
[data-mouse-over-selected='false'] { opacity: 0.7; }
[data-mouse-over-selected='true']  { opacity: 1.0; }
]]>
</style>
<script type="application/ecmascript"><![CDATA[
document.addEventListener('DOMContentLoaded', (event) => {
  highlightEdges();
  highlightAdjacentNodes();
});
]]></script>
</svg>
