<?xml version="1.0" encoding="UTF-8" standalone="no"?>
<!DOCTYPE svg PUBLIC "-//W3C//DTD SVG 1.1//EN"
 "http://www.w3.org/Graphics/SVG/1.1/DTD/svg11.dtd">
<!-- Generated by graphviz version 2.43.0 (0)
 -->
<!-- Title: src/libs/vgeometry/vellipticalarc.h Pages: 1 -->
<svg width="1580pt" height="368pt"
 viewBox="0.00 0.00 1579.50 368.00" xmlns="http://www.w3.org/2000/svg" xmlns:xlink="http://www.w3.org/1999/xlink">
<g id="graph0" class="graph" transform="scale(1 1) rotate(0) translate(4 364)">
<title>src/libs/vgeometry/vellipticalarc.h</title>
<!-- Node1 -->
<g id="Node000001" class="node">
<title>Node1</title>
<g id="a_Node000001"><a xlink:title=" ">
<polygon fill="#999999" stroke="#666666" points="825.5,-360 718.5,-360 718.5,-330 825.5,-330 825.5,-360"/>
<text text-anchor="start" x="726.5" y="-348" font-family="Helvetica,sans-Serif" font-size="10.00">src/libs/vgeometry</text>
<text text-anchor="middle" x="772" y="-337" font-family="Helvetica,sans-Serif" font-size="10.00">/vellipticalarc.h</text>
</a>
</g>
</g>
<!-- Node2 -->
<g id="Node000002" class="node">
<title>Node2</title>
<g id="a_Node000002"><a xlink:title=" ">
<polygon fill="#e0e0e0" stroke="#999999" points="120,-74 0,-74 0,-55 120,-55 120,-74"/>
<text text-anchor="middle" x="60" y="-62" font-family="Helvetica,sans-Serif" font-size="10.00">qcompilerdetection.h</text>
</a>
</g>
</g>
<!-- Node1&#45;&gt;Node2 -->
<g id="edge1_Node000001_Node000002" class="edge">
<title>Node1&#45;&gt;Node2</title>
<g id="a_edge1_Node000001_Node000002"><a xlink:title=" ">
<path fill="none" stroke="#63b8ff" d="M718.34,-341.45C547.9,-332.65 30,-300.18 30,-230.5 30,-230.5 30,-230.5 30,-173.5 30,-140.87 42.87,-104.65 51.75,-83.55"/>
<polygon fill="#63b8ff" stroke="#63b8ff" points="55.02,-84.8 55.83,-74.23 48.61,-81.99 55.02,-84.8"/>
</a>
</g>
</g>
<!-- Node3 -->
<g id="Node000003" class="node">
<title>Node3</title>
<g id="a_Node000003"><a xlink:title=" ">
<polygon fill="#e0e0e0" stroke="#999999" points="1571.5,-294 1470.5,-294 1470.5,-275 1571.5,-275 1571.5,-294"/>
<text text-anchor="middle" x="1521" y="-282" font-family="Helvetica,sans-Serif" font-size="10.00">QCoreApplication</text>
</a>
</g>
</g>
<!-- Node1&#45;&gt;Node3 -->
<g id="edge2_Node000001_Node000003" class="edge">
<title>Node1&#45;&gt;Node3</title>
<g id="a_edge2_Node000001_Node000003"><a xlink:title=" ">
<path fill="none" stroke="#63b8ff" d="M825.74,-341.12C941.26,-334.69 1221.76,-317.86 1456,-294 1457.31,-293.87 1458.63,-293.73 1459.96,-293.59"/>
<polygon fill="#63b8ff" stroke="#63b8ff" points="1460.75,-297.02 1470.29,-292.42 1459.96,-290.06 1460.75,-297.02"/>
</a>
</g>
</g>
<!-- Node4 -->
<g id="Node000004" class="node">
<title>Node4</title>
<g id="a_Node000004"><a xlink:title=" ">
<polygon fill="#e0e0e0" stroke="#999999" points="189.5,-184 134.5,-184 134.5,-165 189.5,-165 189.5,-184"/>
<text text-anchor="middle" x="162" y="-172" font-family="Helvetica,sans-Serif" font-size="10.00">QPointF</text>
</a>
</g>
</g>
<!-- Node1&#45;&gt;Node4 -->
<g id="edge3_Node000001_Node000004" class="edge">
<title>Node1&#45;&gt;Node4</title>
<g id="a_edge3_Node000001_Node000004"><a xlink:title=" ">
<path fill="none" stroke="#63b8ff" d="M718.24,-335.53C630.91,-320.95 453.43,-287.89 309,-239 265.71,-224.35 217.39,-202.32 188.36,-188.44"/>
<polygon fill="#63b8ff" stroke="#63b8ff" points="189.81,-185.26 179.29,-184.07 186.77,-191.56 189.81,-185.26"/>
</a>
</g>
</g>
<!-- Node5 -->
<g id="Node000005" class="node">
<title>Node5</title>
<g id="a_Node000005"><a xlink:title=" ">
<polygon fill="#e0e0e0" stroke="#999999" points="342,-129 226,-129 226,-110 342,-110 342,-129"/>
<text text-anchor="middle" x="284" y="-117" font-family="Helvetica,sans-Serif" font-size="10.00">QSharedDataPointer</text>
</a>
</g>
</g>
<!-- Node1&#45;&gt;Node5 -->
<g id="edge4_Node000001_Node000005" class="edge">
<title>Node1&#45;&gt;Node5</title>
<g id="a_edge4_Node000001_Node000005"><a xlink:title=" ">
<path fill="none" stroke="#63b8ff" d="M718.29,-339.71C575.25,-327 191.46,-283.98 125,-184 120.33,-176.97 119.9,-171.73 125,-165 136.53,-149.8 179.05,-138.38 217.22,-130.91"/>
<polygon fill="#63b8ff" stroke="#63b8ff" points="218.15,-134.3 227.33,-129 216.85,-127.42 218.15,-134.3"/>
</a>
</g>
</g>
<!-- Node6 -->
<g id="Node000006" class="node">
<title>Node6</title>
<g id="a_Node000006"><a xlink:title=" ">
<polygon fill="#e0e0e0" stroke="#999999" points="731.5,-74 678.5,-74 678.5,-55 731.5,-55 731.5,-74"/>
<text text-anchor="middle" x="705" y="-62" font-family="Helvetica,sans-Serif" font-size="10.00">QString</text>
</a>
</g>
</g>
<!-- Node1&#45;&gt;Node6 -->
<g id="edge5_Node000001_Node000006" class="edge">
<title>Node1&#45;&gt;Node6</title>
<g id="a_edge5_Node000001_Node000006"><a xlink:title=" ">
<path fill="none" stroke="#63b8ff" d="M768.25,-329.96C759.14,-295.73 735.35,-205.17 718,-129 714.56,-113.89 711.06,-96.67 708.56,-83.98"/>
<polygon fill="#63b8ff" stroke="#63b8ff" points="711.99,-83.3 706.65,-74.15 705.12,-84.64 711.99,-83.3"/>
</a>
</g>
</g>
<!-- Node7 -->
<g id="Node000007" class="node">
<title>Node7</title>
<g id="a_Node000007"><a xlink:title=" ">
<polygon fill="#e0e0e0" stroke="#999999" points="1265.5,-129 1200.5,-129 1200.5,-110 1265.5,-110 1265.5,-129"/>
<text text-anchor="middle" x="1233" y="-117" font-family="Helvetica,sans-Serif" font-size="10.00">QTypeInfo</text>
</a>
</g>
</g>
<!-- Node1&#45;&gt;Node7 -->
<g id="edge6_Node000001_Node000007" class="edge">
<title>Node1&#45;&gt;Node7</title>
<g id="a_edge6_Node000001_Node000007"><a xlink:title=" ">
<path fill="none" stroke="#63b8ff" d="M825.68,-341.8C912.18,-336.02 1085.04,-315.05 1207,-239 1237.42,-220.03 1251.7,-216.87 1266,-184 1273.15,-167.55 1261.74,-149.46 1250.43,-136.81"/>
<polygon fill="#63b8ff" stroke="#63b8ff" points="1252.68,-134.1 1243.21,-129.35 1247.65,-138.97 1252.68,-134.1"/>
</a>
</g>
</g>
<!-- Node8 -->
<g id="Node000008" class="node">
<title>Node8</title>
<g id="a_Node000008"><a xlink:title=" ">
<polygon fill="#e0e0e0" stroke="#999999" points="781.5,-129 726.5,-129 726.5,-110 781.5,-110 781.5,-129"/>
<text text-anchor="middle" x="754" y="-117" font-family="Helvetica,sans-Serif" font-size="10.00">QVector</text>
</a>
</g>
</g>
<!-- Node1&#45;&gt;Node8 -->
<g id="edge7_Node000001_Node000008" class="edge">
<title>Node1&#45;&gt;Node8</title>
<g id="a_edge7_Node000001_Node000008"><a xlink:title=" ">
<path fill="none" stroke="#63b8ff" d="M770.85,-329.68C767.71,-290.76 759.04,-183.07 755.52,-139.33"/>
<polygon fill="#63b8ff" stroke="#63b8ff" points="758.99,-138.92 754.7,-129.23 752.02,-139.48 758.99,-138.92"/>
</a>
</g>
</g>
<!-- Node9 -->
<g id="Node000009" class="node">
<title>Node9</title>
<g id="a_Node000009"><a xlink:title=" ">
<polygon fill="#e0e0e0" stroke="#999999" points="1045.5,-74 986.5,-74 986.5,-55 1045.5,-55 1045.5,-74"/>
<text text-anchor="middle" x="1016" y="-62" font-family="Helvetica,sans-Serif" font-size="10.00">QtGlobal</text>
</a>
</g>
</g>
<!-- Node1&#45;&gt;Node9 -->
<g id="edge8_Node000001_Node000009" class="edge">
<title>Node1&#45;&gt;Node9</title>
<g id="a_edge8_Node000001_Node000009"><a xlink:title=" ">
<path fill="none" stroke="#63b8ff" d="M825.7,-340.56C984.68,-329.66 1442,-292.88 1442,-230.5 1442,-230.5 1442,-230.5 1442,-173.5 1442,-94.3 1161.8,-72.53 1055.89,-67.13"/>
<polygon fill="#63b8ff" stroke="#63b8ff" points="1055.78,-63.62 1045.62,-66.63 1055.44,-70.61 1055.78,-63.62"/>
</a>
</g>
</g>
<!-- Node10 -->
<g id="Node000010" class="node">
<title>Node10</title>
<g id="a_Node000010"><a xlink:href="../../d0/d17/vabstractarc_8h.html" target="_top" xlink:title=" ">
<polygon fill="white" stroke="#666666" points="624,-294 538,-294 538,-275 624,-275 624,-294"/>
<text text-anchor="middle" x="581" y="-282" font-family="Helvetica,sans-Serif" font-size="10.00">vabstractarc.h</text>
</a>
</g>
</g>
<!-- Node1&#45;&gt;Node10 -->
<g id="edge9_Node000001_Node000010" class="edge">
<title>Node1&#45;&gt;Node10</title>
<g id="a_edge9_Node000001_Node000010"><a xlink:title=" ">
<path fill="none" stroke="#63b8ff" d="M726.25,-329.99C693.43,-319.94 649.73,-306.55 618.87,-297.1"/>
<polygon fill="#63b8ff" stroke="#63b8ff" points="619.51,-293.64 608.93,-294.05 617.46,-300.33 619.51,-293.64"/>
</a>
</g>
</g>
<!-- Node25 -->
<g id="Node000025" class="node">
<title>Node25</title>
<g id="a_Node000025"><a xlink:href="../../d5/d9d/vgeometrydef_8h.html" target="_top" xlink:title=" ">
<polygon fill="white" stroke="#666666" points="1182,-129 1088,-129 1088,-110 1182,-110 1182,-129"/>
<text text-anchor="middle" x="1135" y="-117" font-family="Helvetica,sans-Serif" font-size="10.00">vgeometrydef.h</text>
</a>
</g>
</g>
<!-- Node1&#45;&gt;Node25 -->
<g id="edge52_Node000001_Node000025" class="edge">
<title>Node1&#45;&gt;Node25</title>
<g id="a_edge52_Node000001_Node000025"><a xlink:title=" ">
<path fill="none" stroke="#63b8ff" d="M825.83,-334.82C941.09,-313.86 1204.92,-258.5 1250,-184 1266.91,-156.06 1228.91,-139.51 1192.15,-130.35"/>
<polygon fill="#63b8ff" stroke="#63b8ff" points="1192.9,-126.93 1182.37,-128.06 1191.31,-133.74 1192.9,-126.93"/>
</a>
</g>
</g>
<!-- Node27 -->
<g id="Node000027" class="node">
<title>Node27</title>
<g id="a_Node000027"><a xlink:href="../../d1/d48/vpointf_8h.html" target="_top" xlink:title=" ">
<polygon fill="white" stroke="#666666" points="1135.5,-239 1076.5,-239 1076.5,-220 1135.5,-220 1135.5,-239"/>
<text text-anchor="middle" x="1106" y="-227" font-family="Helvetica,sans-Serif" font-size="10.00">vpointf.h</text>
</a>
</g>
</g>
<!-- Node1&#45;&gt;Node27 -->
<g id="edge53_Node000001_Node000027" class="edge">
<title>Node1&#45;&gt;Node27</title>
<g id="a_edge53_Node000001_Node000027"><a xlink:title=" ">
<path fill="none" stroke="#63b8ff" d="M813.29,-329.97C879.59,-307.44 1008.63,-263.59 1070.82,-242.46"/>
<polygon fill="#63b8ff" stroke="#63b8ff" points="1072.22,-245.68 1080.56,-239.14 1069.97,-239.05 1072.22,-245.68"/>
</a>
</g>
</g>
<!-- Node10&#45;&gt;Node2 -->
<g id="edge10_Node000010_Node000002" class="edge">
<title>Node10&#45;&gt;Node2</title>
<g id="a_edge10_Node000010_Node000002"><a xlink:title=" ">
<path fill="none" stroke="#63b8ff" d="M537.94,-279.04C436.99,-267.81 188.81,-235.57 125,-184 92.27,-157.54 73.49,-109.98 65.19,-83.88"/>
<polygon fill="#63b8ff" stroke="#63b8ff" points="68.49,-82.7 62.26,-74.13 61.78,-84.72 68.49,-82.7"/>
</a>
</g>
</g>
<!-- Node10&#45;&gt;Node5 -->
<g id="edge11_Node000010_Node000005" class="edge">
<title>Node10&#45;&gt;Node5</title>
<g id="a_edge11_Node000010_Node000005"><a xlink:title=" ">
<path fill="none" stroke="#63b8ff" d="M537.84,-284.22C468.78,-282.73 335.12,-268.41 275,-184 265.63,-170.85 269.77,-152.22 275.11,-138.54"/>
<polygon fill="#63b8ff" stroke="#63b8ff" points="278.39,-139.77 279.23,-129.21 271.99,-136.94 278.39,-139.77"/>
</a>
</g>
</g>
<!-- Node10&#45;&gt;Node6 -->
<g id="edge12_Node000010_Node000006" class="edge">
<title>Node10&#45;&gt;Node6</title>
<g id="a_edge12_Node000010_Node000006"><a xlink:title=" ">
<path fill="none" stroke="#63b8ff" d="M574.26,-274.75C559.87,-254.95 528.66,-205.28 544,-165 563.77,-113.09 627.64,-86.35 668.75,-74.17"/>
<polygon fill="#63b8ff" stroke="#63b8ff" points="669.73,-77.53 678.41,-71.45 667.84,-70.79 669.73,-77.53"/>
</a>
</g>
</g>
<!-- Node10&#45;&gt;Node9 -->
<g id="edge13_Node000010_Node000009" class="edge">
<title>Node10&#45;&gt;Node9</title>
<g id="a_edge13_Node000010_Node000009"><a xlink:title=" ">
<path fill="none" stroke="#63b8ff" d="M624.05,-283.97C761.17,-284.5 1183.93,-278.3 1273,-184 1296.39,-159.23 1315.1,-135.93 1293,-110 1263.03,-74.83 1125.29,-67.35 1056.02,-65.83"/>
<polygon fill="#63b8ff" stroke="#63b8ff" points="1055.98,-62.33 1045.92,-65.64 1055.85,-69.33 1055.98,-62.33"/>
</a>
</g>
</g>
<!-- Node11 -->
<g id="Node000011" class="node">
<title>Node11</title>
<g id="a_Node000011"><a xlink:href="../../d3/da5/ifcdef_8h.html" target="_top" xlink:title=" ">
<polygon fill="white" stroke="#666666" points="629.5,-184 552.5,-184 552.5,-165 629.5,-165 629.5,-184"/>
<text text-anchor="middle" x="591" y="-172" font-family="Helvetica,sans-Serif" font-size="10.00">../ifc/ifcdef.h</text>
</a>
</g>
</g>
<!-- Node10&#45;&gt;Node11 -->
<g id="edge14_Node000010_Node000011" class="edge">
<title>Node10&#45;&gt;Node11</title>
<g id="a_edge14_Node000010_Node000011"><a xlink:title=" ">
<path fill="none" stroke="#63b8ff" d="M574.89,-274.89C567.01,-262.69 554.99,-239.68 561,-220 564.09,-209.9 570.32,-200.02 576.31,-192.15"/>
<polygon fill="#63b8ff" stroke="#63b8ff" points="579.18,-194.16 582.79,-184.2 573.76,-189.74 579.18,-194.16"/>
</a>
</g>
</g>
<!-- Node22 -->
<g id="Node000022" class="node">
<title>Node22</title>
<g id="a_Node000022"><a xlink:href="../../d5/d82/vabstractcurve_8h.html" target="_top" xlink:title=" ">
<polygon fill="white" stroke="#666666" points="668,-239 570,-239 570,-220 668,-220 668,-239"/>
<text text-anchor="middle" x="619" y="-227" font-family="Helvetica,sans-Serif" font-size="10.00">vabstractcurve.h</text>
</a>
</g>
</g>
<!-- Node10&#45;&gt;Node22 -->
<g id="edge32_Node000010_Node000022" class="edge">
<title>Node10&#45;&gt;Node22</title>
<g id="a_edge32_Node000010_Node000022"><a xlink:title=" ">
<path fill="none" stroke="#63b8ff" d="M587.27,-274.75C592.59,-267.34 600.36,-256.5 606.88,-247.41"/>
<polygon fill="#63b8ff" stroke="#63b8ff" points="609.86,-249.26 612.84,-239.09 604.17,-245.18 609.86,-249.26"/>
</a>
</g>
</g>
<!-- Node10&#45;&gt;Node25 -->
<g id="edge51_Node000010_Node000025" class="edge">
<title>Node10&#45;&gt;Node25</title>
<g id="a_edge51_Node000010_Node000025"><a xlink:title=" ">
<path fill="none" stroke="#63b8ff" d="M624.21,-275.28C698.98,-260.54 856.87,-227.06 986,-184 1029.86,-169.37 1078.84,-147.34 1108.27,-133.45"/>
<polygon fill="#63b8ff" stroke="#63b8ff" points="1109.94,-136.53 1117.47,-129.07 1106.94,-130.21 1109.94,-136.53"/>
</a>
</g>
</g>
<!-- Node11&#45;&gt;Node6 -->
<g id="edge15_Node000011_Node000006" class="edge">
<title>Node11&#45;&gt;Node6</title>
<g id="a_edge15_Node000011_Node000006"><a xlink:title=" ">
<path fill="none" stroke="#63b8ff" d="M591.08,-164.63C591.66,-151.27 594.6,-125.87 608,-110 616.61,-99.8 646.28,-86.98 670.56,-77.72"/>
<polygon fill="#63b8ff" stroke="#63b8ff" points="672.07,-80.89 680.22,-74.11 669.63,-74.33 672.07,-80.89"/>
</a>
</g>
</g>
<!-- Node11&#45;&gt;Node9 -->
<g id="edge17_Node000011_Node000009" class="edge">
<title>Node11&#45;&gt;Node9</title>
<g id="a_edge17_Node000011_Node000009"><a xlink:title=" ">
<path fill="none" stroke="#63b8ff" d="M604.49,-164.95C627.05,-151.07 674.28,-123.81 718,-110 807.46,-81.74 917.82,-71.24 975.9,-67.48"/>
<polygon fill="#63b8ff" stroke="#63b8ff" points="976.35,-70.96 986.12,-66.85 975.92,-63.97 976.35,-70.96"/>
</a>
</g>
</g>
<!-- Node12 -->
<g id="Node000012" class="node">
<title>Node12</title>
<g id="a_Node000012"><a xlink:title=" ">
<polygon fill="#e0e0e0" stroke="#999999" points="660,-74 590,-74 590,-55 660,-55 660,-74"/>
<text text-anchor="middle" x="625" y="-62" font-family="Helvetica,sans-Serif" font-size="10.00">QStringList</text>
</a>
</g>
</g>
<!-- Node11&#45;&gt;Node12 -->
<g id="edge16_Node000011_Node000012" class="edge">
<title>Node11&#45;&gt;Node12</title>
<g id="a_edge16_Node000011_Node000012"><a xlink:title=" ">
<path fill="none" stroke="#63b8ff" d="M583.86,-164.6C574.73,-152.07 561.1,-128.65 570,-110 576.09,-97.23 587.84,-86.94 598.92,-79.49"/>
<polygon fill="#63b8ff" stroke="#63b8ff" points="600.9,-82.38 607.54,-74.12 597.2,-76.43 600.9,-82.38"/>
</a>
</g>
</g>
<!-- Node13 -->
<g id="Node000013" class="node">
<title>Node13</title>
<g id="a_Node000013"><a xlink:href="../../d4/da4/def_8h.html" target="_top" xlink:title=" ">
<polygon fill="white" stroke="#666666" points="480,-129 398,-129 398,-110 480,-110 480,-129"/>
<text text-anchor="middle" x="439" y="-117" font-family="Helvetica,sans-Serif" font-size="10.00">../vmisc/def.h</text>
</a>
</g>
</g>
<!-- Node11&#45;&gt;Node13 -->
<g id="edge18_Node000011_Node000013" class="edge">
<title>Node11&#45;&gt;Node13</title>
<g id="a_edge18_Node000011_Node000013"><a xlink:title=" ">
<path fill="none" stroke="#63b8ff" d="M566.58,-164.98C541.28,-156.16 501.55,-142.31 473.14,-132.41"/>
<polygon fill="#63b8ff" stroke="#63b8ff" points="474.21,-129.07 463.61,-129.08 471.9,-135.68 474.21,-129.07"/>
</a>
</g>
</g>
<!-- Node21 -->
<g id="Node000021" class="node">
<title>Node21</title>
<g id="a_Node000021"><a xlink:href="../../d6/dcd/diagnostic_8h.html" target="_top" xlink:title=" ">
<polygon fill="white" stroke="#666666" points="1031.5,-129 914.5,-129 914.5,-110 1031.5,-110 1031.5,-129"/>
<text text-anchor="middle" x="973" y="-117" font-family="Helvetica,sans-Serif" font-size="10.00">../vmisc/diagnostic.h</text>
</a>
</g>
</g>
<!-- Node11&#45;&gt;Node21 -->
<g id="edge30_Node000011_Node000021" class="edge">
<title>Node11&#45;&gt;Node21</title>
<g id="a_edge30_Node000011_Node000021"><a xlink:title=" ">
<path fill="none" stroke="#63b8ff" d="M629.73,-168.13C694.12,-159.19 824.04,-141.17 904.28,-130.04"/>
<polygon fill="#63b8ff" stroke="#63b8ff" points="904.87,-133.49 914.29,-128.65 903.9,-126.55 904.87,-133.49"/>
</a>
</g>
</g>
<!-- Node13&#45;&gt;Node2 -->
<g id="edge19_Node000013_Node000002" class="edge">
<title>Node13&#45;&gt;Node2</title>
<g id="a_edge19_Node000013_Node000002"><a xlink:title=" ">
<path fill="none" stroke="#63b8ff" d="M397.87,-112.07C393.19,-111.36 388.49,-110.66 384,-110 296.67,-97.26 195.95,-83.58 130.29,-74.81"/>
<polygon fill="#63b8ff" stroke="#63b8ff" points="130.43,-71.29 120.06,-73.44 129.51,-78.23 130.43,-71.29"/>
</a>
</g>
</g>
<!-- Node13&#45;&gt;Node6 -->
<g id="edge22_Node000013_Node000006" class="edge">
<title>Node13&#45;&gt;Node6</title>
<g id="a_edge22_Node000013_Node000006"><a xlink:title=" ">
<path fill="none" stroke="#63b8ff" d="M480.23,-111.05C524.27,-102.97 596.35,-89.42 668.16,-74.11"/>
<polygon fill="#63b8ff" stroke="#63b8ff" points="669.25,-77.45 678.29,-71.93 667.78,-70.61 669.25,-77.45"/>
</a>
</g>
</g>
<!-- Node13&#45;&gt;Node9 -->
<g id="edge25_Node000013_Node000009" class="edge">
<title>Node13&#45;&gt;Node9</title>
<g id="a_edge25_Node000013_Node000009"><a xlink:title=" ">
<path fill="none" stroke="#63b8ff" d="M480.03,-114.73C586.57,-104.95 870.98,-78.82 976.16,-69.16"/>
<polygon fill="#63b8ff" stroke="#63b8ff" points="976.71,-72.62 986.35,-68.22 976.07,-65.65 976.71,-72.62"/>
</a>
</g>
</g>
<!-- Node13&#45;&gt;Node12 -->
<g id="edge23_Node000013_Node000012" class="edge">
<title>Node13&#45;&gt;Node12</title>
<g id="a_edge23_Node000013_Node000012"><a xlink:title=" ">
<path fill="none" stroke="#63b8ff" d="M468.88,-109.98C500.38,-101.01 550.17,-86.82 585.03,-76.89"/>
<polygon fill="#63b8ff" stroke="#63b8ff" points="586.22,-80.19 594.88,-74.08 584.31,-73.46 586.22,-80.19"/>
</a>
</g>
</g>
<!-- Node14 -->
<g id="Node000014" class="node">
<title>Node14</title>
<g id="a_Node000014"><a xlink:title=" ">
<polygon fill="#e0e0e0" stroke="#999999" points="381.5,-74 308.5,-74 308.5,-55 381.5,-55 381.5,-74"/>
<text text-anchor="middle" x="345" y="-62" font-family="Helvetica,sans-Serif" font-size="10.00">QFileDialog</text>
</a>
</g>
</g>
<!-- Node13&#45;&gt;Node14 -->
<g id="edge20_Node000013_Node000014" class="edge">
<title>Node13&#45;&gt;Node14</title>
<g id="a_edge20_Node000013_Node000014"><a xlink:title=" ">
<path fill="none" stroke="#63b8ff" d="M423.9,-109.98C409.18,-101.69 386.58,-88.94 369.33,-79.22"/>
<polygon fill="#63b8ff" stroke="#63b8ff" points="370.81,-76.03 360.38,-74.17 367.37,-82.13 370.81,-76.03"/>
</a>
</g>
</g>
<!-- Node15 -->
<g id="Node000015" class="node">
<title>Node15</title>
<g id="a_Node000015"><a xlink:title=" ">
<polygon fill="#e0e0e0" stroke="#999999" points="450,-74 400,-74 400,-55 450,-55 450,-74"/>
<text text-anchor="middle" x="425" y="-62" font-family="Helvetica,sans-Serif" font-size="10.00">QLineF</text>
</a>
</g>
</g>
<!-- Node13&#45;&gt;Node15 -->
<g id="edge21_Node000013_Node000015" class="edge">
<title>Node13&#45;&gt;Node15</title>
<g id="a_edge21_Node000013_Node000015"><a xlink:title=" ">
<path fill="none" stroke="#63b8ff" d="M436.69,-109.75C434.83,-102.72 432.16,-92.62 429.85,-83.84"/>
<polygon fill="#63b8ff" stroke="#63b8ff" points="433.21,-82.86 427.27,-74.09 426.44,-84.65 433.21,-82.86"/>
</a>
</g>
</g>
<!-- Node16 -->
<g id="Node000016" class="node">
<title>Node16</title>
<g id="a_Node000016"><a xlink:title=" ">
<polygon fill="#e0e0e0" stroke="#999999" points="497.5,-74 468.5,-74 468.5,-55 497.5,-55 497.5,-74"/>
<text text-anchor="middle" x="483" y="-62" font-family="Helvetica,sans-Serif" font-size="10.00">Qt</text>
</a>
</g>
</g>
<!-- Node13&#45;&gt;Node16 -->
<g id="edge24_Node000013_Node000016" class="edge">
<title>Node13&#45;&gt;Node16</title>
<g id="a_edge24_Node000013_Node000016"><a xlink:title=" ">
<path fill="none" stroke="#63b8ff" d="M446.27,-109.75C452.54,-102.18 461.79,-91.05 469.43,-81.84"/>
<polygon fill="#63b8ff" stroke="#63b8ff" points="472.17,-84.02 475.87,-74.09 466.79,-79.55 472.17,-84.02"/>
</a>
</g>
</g>
<!-- Node17 -->
<g id="Node000017" class="node">
<title>Node17</title>
<g id="a_Node000017"><a xlink:title=" ">
<polygon fill="#e0e0e0" stroke="#999999" points="572,-74 516,-74 516,-55 572,-55 572,-74"/>
<text text-anchor="middle" x="544" y="-62" font-family="Helvetica,sans-Serif" font-size="10.00">QPrinter</text>
</a>
</g>
</g>
<!-- Node13&#45;&gt;Node17 -->
<g id="edge26_Node000013_Node000017" class="edge">
<title>Node13&#45;&gt;Node17</title>
<g id="a_edge26_Node000013_Node000017"><a xlink:title=" ">
<path fill="none" stroke="#63b8ff" d="M455.87,-109.98C472.61,-101.54 498.5,-88.47 517.89,-78.68"/>
<polygon fill="#63b8ff" stroke="#63b8ff" points="519.47,-81.8 526.82,-74.17 516.32,-75.55 519.47,-81.8"/>
</a>
</g>
</g>
<!-- Node18 -->
<g id="Node000018" class="node">
<title>Node18</title>
<g id="a_Node000018"><a xlink:title=" ">
<polygon fill="#e0e0e0" stroke="#999999" points="189.5,-74 138.5,-74 138.5,-55 189.5,-55 189.5,-74"/>
<text text-anchor="middle" x="164" y="-62" font-family="Helvetica,sans-Serif" font-size="10.00">csignal</text>
</a>
</g>
</g>
<!-- Node13&#45;&gt;Node18 -->
<g id="edge27_Node000013_Node000018" class="edge">
<title>Node13&#45;&gt;Node18</title>
<g id="a_edge27_Node000013_Node000018"><a xlink:title=" ">
<path fill="none" stroke="#63b8ff" d="M397.91,-111.72C351.88,-103.94 274.83,-90.39 199.69,-74.26"/>
<polygon fill="#63b8ff" stroke="#63b8ff" points="200.09,-70.77 189.58,-72.08 198.61,-77.61 200.09,-70.77"/>
</a>
</g>
</g>
<!-- Node19 -->
<g id="Node000019" class="node">
<title>Node19</title>
<g id="a_Node000019"><a xlink:href="../../d4/d82/debugbreak_8h.html" target="_top" xlink:title=" ">
<polygon fill="white" stroke="#666666" points="290.5,-74 207.5,-74 207.5,-55 290.5,-55 290.5,-74"/>
<text text-anchor="middle" x="249" y="-62" font-family="Helvetica,sans-Serif" font-size="10.00">debugbreak.h</text>
</a>
</g>
</g>
<!-- Node13&#45;&gt;Node19 -->
<g id="edge28_Node000013_Node000019" class="edge">
<title>Node13&#45;&gt;Node19</title>
<g id="a_edge28_Node000013_Node000019"><a xlink:title=" ">
<path fill="none" stroke="#63b8ff" d="M408.47,-109.98C376.3,-101.01 325.44,-86.82 289.83,-76.89"/>
<polygon fill="#63b8ff" stroke="#63b8ff" points="290.34,-73.4 279.77,-74.08 288.46,-80.14 290.34,-73.4"/>
</a>
</g>
</g>
<!-- Node20 -->
<g id="Node000020" class="node">
<title>Node20</title>
<g id="a_Node000020"><a xlink:title=" ">
<polygon fill="#e0e0e0" stroke="#999999" points="276.5,-19 221.5,-19 221.5,0 276.5,0 276.5,-19"/>
<text text-anchor="middle" x="249" y="-7" font-family="Helvetica,sans-Serif" font-size="10.00">signal.h</text>
</a>
</g>
</g>
<!-- Node19&#45;&gt;Node20 -->
<g id="edge29_Node000019_Node000020" class="edge">
<title>Node19&#45;&gt;Node20</title>
<g id="a_edge29_Node000019_Node000020"><a xlink:title=" ">
<path fill="none" stroke="#63b8ff" d="M249,-54.75C249,-47.8 249,-37.85 249,-29.13"/>
<polygon fill="#63b8ff" stroke="#63b8ff" points="252.5,-29.09 249,-19.09 245.5,-29.09 252.5,-29.09"/>
</a>
</g>
</g>
<!-- Node21&#45;&gt;Node9 -->
<g id="edge31_Node000021_Node000009" class="edge">
<title>Node21&#45;&gt;Node9</title>
<g id="a_edge31_Node000021_Node000009"><a xlink:title=" ">
<path fill="none" stroke="#63b8ff" d="M980.1,-109.75C986.17,-102.26 995.09,-91.28 1002.51,-82.13"/>
<polygon fill="#63b8ff" stroke="#63b8ff" points="1005.45,-84.06 1009.03,-74.09 1000.01,-79.65 1005.45,-84.06"/>
</a>
</g>
</g>
<!-- Node22&#45;&gt;Node2 -->
<g id="edge33_Node000022_Node000002" class="edge">
<title>Node22&#45;&gt;Node2</title>
<g id="a_edge33_Node000022_Node000002"><a xlink:title=" ">
<path fill="none" stroke="#63b8ff" d="M569.76,-226.33C502.24,-222.41 377.59,-211.78 275,-184 214.44,-167.6 199.41,-160.22 145,-129 120.24,-114.79 94.3,-94.51 77.69,-80.72"/>
<polygon fill="#63b8ff" stroke="#63b8ff" points="79.82,-77.93 69.91,-74.17 75.31,-83.29 79.82,-77.93"/>
</a>
</g>
</g>
<!-- Node22&#45;&gt;Node4 -->
<g id="edge34_Node000022_Node000004" class="edge">
<title>Node22&#45;&gt;Node4</title>
<g id="a_edge34_Node000022_Node000004"><a xlink:title=" ">
<path fill="none" stroke="#63b8ff" d="M569.66,-222.78C477.79,-212.12 282.37,-189.46 199.94,-179.9"/>
<polygon fill="#63b8ff" stroke="#63b8ff" points="200.1,-176.4 189.77,-178.72 199.3,-183.35 200.1,-176.4"/>
</a>
</g>
</g>
<!-- Node22&#45;&gt;Node5 -->
<g id="edge35_Node000022_Node000005" class="edge">
<title>Node22&#45;&gt;Node5</title>
<g id="a_edge35_Node000022_Node000005"><a xlink:title=" ">
<path fill="none" stroke="#63b8ff" d="M589.91,-219.99C560.19,-211.23 512.76,-197.05 472,-184 417.94,-166.69 355.58,-145.36 318.01,-132.35"/>
<polygon fill="#63b8ff" stroke="#63b8ff" points="319.15,-129.04 308.55,-129.07 316.85,-135.65 319.15,-129.04"/>
</a>
</g>
</g>
<!-- Node22&#45;&gt;Node6 -->
<g id="edge36_Node000022_Node000006" class="edge">
<title>Node22&#45;&gt;Node6</title>
<g id="a_edge36_Node000022_Node000006"><a xlink:title=" ">
<path fill="none" stroke="#63b8ff" d="M623.62,-219.74C637.21,-193.98 677.23,-118.13 695.59,-83.33"/>
<polygon fill="#63b8ff" stroke="#63b8ff" points="698.78,-84.78 700.35,-74.31 692.59,-81.52 698.78,-84.78"/>
</a>
</g>
</g>
<!-- Node22&#45;&gt;Node7 -->
<g id="edge37_Node000022_Node000007" class="edge">
<title>Node22&#45;&gt;Node7</title>
<g id="a_edge37_Node000022_Node000007"><a xlink:title=" ">
<path fill="none" stroke="#63b8ff" d="M668.29,-224.59C739.03,-218.51 873.26,-205.23 986,-184 1060.95,-169.89 1146.86,-146.02 1195.05,-131.91"/>
<polygon fill="#63b8ff" stroke="#63b8ff" points="1196.14,-135.24 1204.75,-129.06 1194.17,-128.52 1196.14,-135.24"/>
</a>
</g>
</g>
<!-- Node22&#45;&gt;Node8 -->
<g id="edge38_Node000022_Node000008" class="edge">
<title>Node22&#45;&gt;Node8</title>
<g id="a_edge38_Node000022_Node000008"><a xlink:title=" ">
<path fill="none" stroke="#63b8ff" d="M630.05,-219.66C653.1,-201.22 706.57,-158.45 735.16,-135.57"/>
<polygon fill="#63b8ff" stroke="#63b8ff" points="737.55,-138.14 743.18,-129.16 733.18,-132.67 737.55,-138.14"/>
</a>
</g>
</g>
<!-- Node22&#45;&gt;Node9 -->
<g id="edge39_Node000022_Node000009" class="edge">
<title>Node22&#45;&gt;Node9</title>
<g id="a_edge39_Node000022_Node000009"><a xlink:title=" ">
<path fill="none" stroke="#63b8ff" d="M668,-226.69C727.82,-223.24 831.35,-213.2 915,-184 930.98,-178.42 932.73,-172.3 948,-165 987.99,-145.89 1015.95,-165.56 1041,-129 1050.89,-114.57 1041.05,-95.66 1030.96,-82.24"/>
<polygon fill="#63b8ff" stroke="#63b8ff" points="1033.52,-79.85 1024.49,-74.32 1028.1,-84.28 1033.52,-79.85"/>
</a>
</g>
</g>
<!-- Node22&#45;&gt;Node11 -->
<g id="edge40_Node000022_Node000011" class="edge">
<title>Node22&#45;&gt;Node11</title>
<g id="a_edge40_Node000022_Node000011"><a xlink:title=" ">
<path fill="none" stroke="#63b8ff" d="M614.38,-219.75C610.54,-212.49 604.98,-201.95 600.24,-192.98"/>
<polygon fill="#63b8ff" stroke="#63b8ff" points="603.3,-191.3 595.54,-184.09 597.11,-194.57 603.3,-191.3"/>
</a>
</g>
</g>
<!-- Node23 -->
<g id="Node000023" class="node">
<title>Node23</title>
<g id="a_Node000023"><a xlink:href="../../db/db3/vmath_8h.html" target="_top" xlink:title=" ">
<polygon fill="white" stroke="#666666" points="382,-184 284,-184 284,-165 382,-165 382,-184"/>
<text text-anchor="middle" x="333" y="-172" font-family="Helvetica,sans-Serif" font-size="10.00">../vmisc/vmath.h</text>
</a>
</g>
</g>
<!-- Node22&#45;&gt;Node23 -->
<g id="edge41_Node000022_Node000023" class="edge">
<title>Node22&#45;&gt;Node23</title>
<g id="a_edge41_Node000022_Node000023"><a xlink:title=" ">
<path fill="none" stroke="#63b8ff" d="M573.05,-219.98C523.06,-210.72 443.11,-195.9 389.36,-185.94"/>
<polygon fill="#63b8ff" stroke="#63b8ff" points="389.78,-182.46 379.31,-184.08 388.51,-189.35 389.78,-182.46"/>
</a>
</g>
</g>
<!-- Node22&#45;&gt;Node25 -->
<g id="edge43_Node000022_Node000025" class="edge">
<title>Node22&#45;&gt;Node25</title>
<g id="a_edge43_Node000022_Node000025"><a xlink:title=" ">
<path fill="none" stroke="#63b8ff" d="M668.22,-225.58C733.18,-220.87 850.69,-209.44 948,-184 970.2,-178.2 974.4,-172.72 996,-165 1029.68,-152.96 1068.48,-140.67 1096.52,-132.06"/>
<polygon fill="#63b8ff" stroke="#63b8ff" points="1097.79,-135.33 1106.33,-129.06 1095.74,-128.64 1097.79,-135.33"/>
</a>
</g>
</g>
<!-- Node26 -->
<g id="Node000026" class="node">
<title>Node26</title>
<g id="a_Node000026"><a xlink:href="../../d2/d07/vgobject_8h.html" target="_top" xlink:title=" ">
<polygon fill="white" stroke="#666666" points="906,-184 838,-184 838,-165 906,-165 906,-184"/>
<text text-anchor="middle" x="872" y="-172" font-family="Helvetica,sans-Serif" font-size="10.00">vgobject.h</text>
</a>
</g>
</g>
<!-- Node22&#45;&gt;Node26 -->
<g id="edge44_Node000022_Node000026" class="edge">
<title>Node22&#45;&gt;Node26</title>
<g id="a_edge44_Node000022_Node000026"><a xlink:title=" ">
<path fill="none" stroke="#63b8ff" d="M659.65,-219.98C705.72,-210.33 780.54,-194.66 827.97,-184.72"/>
<polygon fill="#63b8ff" stroke="#63b8ff" points="828.87,-188.11 837.94,-182.63 827.44,-181.26 828.87,-188.11"/>
</a>
</g>
</g>
<!-- Node24 -->
<g id="Node000024" class="node">
<title>Node24</title>
<g id="a_Node000024"><a xlink:title=" ">
<polygon fill="#e0e0e0" stroke="#999999" points="207.5,-129 154.5,-129 154.5,-110 207.5,-110 207.5,-129"/>
<text text-anchor="middle" x="181" y="-117" font-family="Helvetica,sans-Serif" font-size="10.00">QtMath</text>
</a>
</g>
</g>
<!-- Node23&#45;&gt;Node24 -->
<g id="edge42_Node000023_Node000024" class="edge">
<title>Node23&#45;&gt;Node24</title>
<g id="a_edge42_Node000023_Node000024"><a xlink:title=" ">
<path fill="none" stroke="#63b8ff" d="M308.58,-164.98C283.28,-156.16 243.55,-142.31 215.14,-132.41"/>
<polygon fill="#63b8ff" stroke="#63b8ff" points="216.21,-129.07 205.61,-129.08 213.9,-135.68 216.21,-129.07"/>
</a>
</g>
</g>
<!-- Node26&#45;&gt;Node5 -->
<g id="edge45_Node000026_Node000005" class="edge">
<title>Node26&#45;&gt;Node5</title>
<g id="a_edge45_Node000026_Node000005"><a xlink:title=" ">
<path fill="none" stroke="#63b8ff" d="M837.85,-170.42C743.68,-161.93 478.97,-138.07 352.69,-126.69"/>
<polygon fill="#63b8ff" stroke="#63b8ff" points="352.65,-123.17 342.38,-125.76 352.02,-130.15 352.65,-123.17"/>
</a>
</g>
</g>
<!-- Node26&#45;&gt;Node6 -->
<g id="edge46_Node000026_Node000006" class="edge">
<title>Node26&#45;&gt;Node6</title>
<g id="a_edge46_Node000026_Node000006"><a xlink:title=" ">
<path fill="none" stroke="#63b8ff" d="M867.58,-164.86C860.26,-151.35 844.39,-125.2 824,-110 799.44,-91.69 766.51,-80.15 741.52,-73.42"/>
<polygon fill="#63b8ff" stroke="#63b8ff" points="742.24,-70 731.68,-70.91 740.51,-76.78 742.24,-70"/>
</a>
</g>
</g>
<!-- Node26&#45;&gt;Node7 -->
<g id="edge47_Node000026_Node000007" class="edge">
<title>Node26&#45;&gt;Node7</title>
<g id="a_edge47_Node000026_Node000007"><a xlink:title=" ">
<path fill="none" stroke="#63b8ff" d="M906.1,-169.44C962.85,-162.53 1080.49,-147.56 1190.54,-128.98"/>
<polygon fill="#63b8ff" stroke="#63b8ff" points="1191.21,-132.41 1200.48,-127.29 1190.03,-125.51 1191.21,-132.41"/>
</a>
</g>
</g>
<!-- Node26&#45;&gt;Node8 -->
<g id="edge48_Node000026_Node000008" class="edge">
<title>Node26&#45;&gt;Node8</title>
<g id="a_edge48_Node000026_Node000008"><a xlink:title=" ">
<path fill="none" stroke="#63b8ff" d="M853.04,-164.98C833.97,-156.42 804.34,-143.11 782.45,-133.28"/>
<polygon fill="#63b8ff" stroke="#63b8ff" points="783.86,-130.07 773.3,-129.17 780.99,-136.46 783.86,-130.07"/>
</a>
</g>
</g>
<!-- Node26&#45;&gt;Node9 -->
<g id="edge49_Node000026_Node000009" class="edge">
<title>Node26&#45;&gt;Node9</title>
<g id="a_edge49_Node000026_Node000009"><a xlink:title=" ">
<path fill="none" stroke="#63b8ff" d="M874.49,-164.91C878.81,-151.45 888.88,-125.38 906,-110 925.89,-92.13 953.89,-80.94 976.66,-74.26"/>
<polygon fill="#63b8ff" stroke="#63b8ff" points="977.67,-77.61 986.38,-71.57 975.81,-70.86 977.67,-77.61"/>
</a>
</g>
</g>
<!-- Node26&#45;&gt;Node25 -->
<g id="edge50_Node000026_Node000025" class="edge">
<title>Node26&#45;&gt;Node25</title>
<g id="a_edge50_Node000026_Node000025"><a xlink:title=" ">
<path fill="none" stroke="#63b8ff" d="M906.11,-166.63C950.94,-157.59 1030.1,-141.64 1082.57,-131.07"/>
<polygon fill="#63b8ff" stroke="#63b8ff" points="1083.57,-134.43 1092.69,-129.03 1082.19,-127.57 1083.57,-134.43"/>
</a>
</g>
</g>
<!-- Node27&#45;&gt;Node2 -->
<g id="edge54_Node000027_Node000002" class="edge">
<title>Node27&#45;&gt;Node2</title>
<g id="a_edge54_Node000027_Node000002"><a xlink:title=" ">
<path fill="none" stroke="#63b8ff" d="M1076.31,-227.34C975.48,-223.23 646.76,-208.23 544,-184 522.07,-178.83 518.14,-172.79 497,-165 449.52,-147.51 435.75,-148.36 389,-129 371.55,-121.77 369,-115.72 351,-110 330.36,-103.44 209.48,-86.06 130.15,-75.06"/>
<polygon fill="#63b8ff" stroke="#63b8ff" points="130.59,-71.59 120.21,-73.69 129.63,-78.52 130.59,-71.59"/>
</a>
</g>
</g>
<!-- Node27&#45;&gt;Node5 -->
<g id="edge56_Node000027_Node000005" class="edge">
<title>Node27&#45;&gt;Node5</title>
<g id="a_edge56_Node000027_Node000005"><a xlink:title=" ">
<path fill="none" stroke="#63b8ff" d="M1076.46,-229.08C988.91,-230.22 723.65,-229.4 510,-184 485.52,-178.8 480.92,-172.35 457,-165 414.91,-152.07 366.29,-139.8 331.33,-131.43"/>
<polygon fill="#63b8ff" stroke="#63b8ff" points="331.94,-127.97 321.4,-129.06 330.32,-134.78 331.94,-127.97"/>
</a>
</g>
</g>
<!-- Node27&#45;&gt;Node6 -->
<g id="edge57_Node000027_Node000006" class="edge">
<title>Node27&#45;&gt;Node6</title>
<g id="a_edge57_Node000027_Node000006"><a xlink:title=" ">
<path fill="none" stroke="#63b8ff" d="M1076.28,-227.07C1013.12,-223.51 868.12,-212.4 829,-184 799.08,-162.28 817.1,-136.18 791,-110 776.91,-95.87 757.4,-85.27 740.52,-77.98"/>
<polygon fill="#63b8ff" stroke="#63b8ff" points="741.53,-74.61 730.95,-74.06 738.88,-81.08 741.53,-74.61"/>
</a>
</g>
</g>
<!-- Node27&#45;&gt;Node7 -->
<g id="edge58_Node000027_Node000007" class="edge">
<title>Node27&#45;&gt;Node7</title>
<g id="a_edge58_Node000027_Node000007"><a xlink:title=" ">
<path fill="none" stroke="#63b8ff" d="M1109.39,-219.63C1114.88,-206.29 1126.85,-180.9 1144,-165 1159.29,-150.83 1179.93,-140.13 1197.49,-132.78"/>
<polygon fill="#63b8ff" stroke="#63b8ff" points="1198.88,-135.99 1206.88,-129.04 1196.29,-129.49 1198.88,-135.99"/>
</a>
</g>
</g>
<!-- Node27&#45;&gt;Node9 -->
<g id="edge59_Node000027_Node000009" class="edge">
<title>Node27&#45;&gt;Node9</title>
<g id="a_edge59_Node000027_Node000009"><a xlink:title=" ">
<path fill="none" stroke="#63b8ff" d="M1135.66,-226.41C1167.45,-222.71 1217.69,-212.45 1250,-184 1276.05,-161.06 1297.37,-136.54 1275,-110 1247.5,-77.37 1121.87,-68.66 1056.22,-66.34"/>
<polygon fill="#63b8ff" stroke="#63b8ff" points="1055.95,-62.83 1045.84,-66.01 1055.73,-69.83 1055.95,-62.83"/>
</a>
</g>
</g>
<!-- Node27&#45;&gt;Node21 -->
<g id="edge60_Node000027_Node000021" class="edge">
<title>Node27&#45;&gt;Node21</title>
<g id="a_edge60_Node000027_Node000021"><a xlink:title=" ">
<path fill="none" stroke="#63b8ff" d="M1135.55,-224.77C1181.69,-217.78 1262.64,-200.14 1233,-165 1220.72,-150.44 1114.52,-136 1041.71,-127.68"/>
<polygon fill="#63b8ff" stroke="#63b8ff" points="1042,-124.19 1031.67,-126.55 1041.22,-131.15 1042,-124.19"/>
</a>
</g>
</g>
<!-- Node27&#45;&gt;Node25 -->
<g id="edge61_Node000027_Node000025" class="edge">
<title>Node27&#45;&gt;Node25</title>
<g id="a_edge61_Node000027_Node000025"><a xlink:title=" ">
<path fill="none" stroke="#63b8ff" d="M1105.34,-219.66C1104.67,-207.19 1104.43,-183.86 1110,-165 1112.85,-155.35 1118.09,-145.5 1123.04,-137.54"/>
<polygon fill="#63b8ff" stroke="#63b8ff" points="1125.98,-139.44 1128.56,-129.17 1120.13,-135.59 1125.98,-139.44"/>
</a>
</g>
</g>
<!-- Node27&#45;&gt;Node26 -->
<g id="edge62_Node000027_Node000026" class="edge">
<title>Node27&#45;&gt;Node26</title>
<g id="a_edge62_Node000027_Node000026"><a xlink:title=" ">
<path fill="none" stroke="#63b8ff" d="M1076.36,-221.79C1035.92,-212.63 963.12,-196.14 916.21,-185.51"/>
<polygon fill="#63b8ff" stroke="#63b8ff" points="916.85,-182.07 906.33,-183.27 915.31,-188.9 916.85,-182.07"/>
</a>
</g>
</g>
<!-- Node28 -->
<g id="Node000028" class="node">
<title>Node28</title>
<g id="a_Node000028"><a xlink:title=" ">
<polygon fill="#e0e0e0" stroke="#999999" points="1223.5,-184 1152.5,-184 1152.5,-165 1223.5,-165 1223.5,-184"/>
<text text-anchor="middle" x="1188" y="-172" font-family="Helvetica,sans-Serif" font-size="10.00">QMetaType</text>
</a>
</g>
</g>
<!-- Node27&#45;&gt;Node28 -->
<g id="edge55_Node000027_Node000028" class="edge">
<title>Node27&#45;&gt;Node28</title>
<g id="a_edge55_Node000027_Node000028"><a xlink:title=" ">
<path fill="none" stroke="#63b8ff" d="M1119.17,-219.98C1131.77,-211.84 1151,-199.41 1165.94,-189.76"/>
<polygon fill="#63b8ff" stroke="#63b8ff" points="1168.09,-192.54 1174.59,-184.17 1164.29,-186.66 1168.09,-192.54"/>
</a>
</g>
</g>
</g>
</svg>
