<?xml version="1.0" encoding="UTF-8" standalone="no"?>
<!DOCTYPE svg PUBLIC "-//W3C//DTD SVG 1.1//EN"
 "http://www.w3.org/Graphics/SVG/1.1/DTD/svg11.dtd">
<!-- Generated by graphviz version 2.43.0 (0)
 -->
<!-- Title: src/libs/vgeometry/vabstractcurve.cpp Pages: 1 -->
<svg width="1178pt" height="313pt"
 viewBox="0.00 0.00 1178.31 313.00" xmlns="http://www.w3.org/2000/svg" xmlns:xlink="http://www.w3.org/1999/xlink">
<g id="graph0" class="graph" transform="scale(1 1) rotate(0) translate(4 309)">
<title>src/libs/vgeometry/vabstractcurve.cpp</title>
<!-- Node1 -->
<g id="Node000001" class="node">
<title>Node1</title>
<g id="a_Node000001"><a xlink:title=" ">
<polygon fill="#999999" stroke="#666666" points="860.81,-305 747.81,-305 747.81,-275 860.81,-275 860.81,-305"/>
<text text-anchor="start" x="755.81" y="-293" font-family="Helvetica,sans-Serif" font-size="10.00">src/libs/vgeometry</text>
<text text-anchor="middle" x="804.31" y="-282" font-family="Helvetica,sans-Serif" font-size="10.00">/vabstractcurve.cpp</text>
</a>
</g>
</g>
<!-- Node2 -->
<g id="Node000002" class="node">
<title>Node2</title>
<g id="a_Node000002"><a xlink:href="../../d5/d82/vabstractcurve_8h.html" target="_top" xlink:title=" ">
<polygon fill="white" stroke="#666666" points="416.31,-239 318.31,-239 318.31,-220 416.31,-220 416.31,-239"/>
<text text-anchor="middle" x="367.31" y="-227" font-family="Helvetica,sans-Serif" font-size="10.00">vabstractcurve.h</text>
</a>
</g>
</g>
<!-- Node1&#45;&gt;Node2 -->
<g id="edge1_Node000001_Node000002" class="edge">
<title>Node1&#45;&gt;Node2</title>
<g id="a_edge1_Node000001_Node000002"><a xlink:title=" ">
<path fill="none" stroke="#63b8ff" d="M747.63,-281.41C664.63,-270.3 510.77,-249.7 426.41,-238.41"/>
<polygon fill="#63b8ff" stroke="#63b8ff" points="426.86,-234.94 416.48,-237.08 425.93,-241.88 426.86,-234.94"/>
</a>
</g>
</g>
<!-- Node14 -->
<g id="Node000014" class="node">
<title>Node14</title>
<g id="a_Node000014"><a xlink:title=" ">
<polygon fill="#e0e0e0" stroke="#999999" points="418.31,-74 368.31,-74 368.31,-55 418.31,-55 418.31,-74"/>
<text text-anchor="middle" x="393.31" y="-62" font-family="Helvetica,sans-Serif" font-size="10.00">QLineF</text>
</a>
</g>
</g>
<!-- Node1&#45;&gt;Node14 -->
<g id="edge38_Node000001_Node000014" class="edge">
<title>Node1&#45;&gt;Node14</title>
<g id="a_edge38_Node000001_Node000014"><a xlink:title=" ">
<path fill="none" stroke="#63b8ff" d="M747.7,-286.73C709.23,-282.23 659.8,-270.18 628.31,-239 585.85,-196.94 634.01,-150.78 590.31,-110 538.4,-61.56 502.7,-88.43 428.74,-74.08"/>
<polygon fill="#63b8ff" stroke="#63b8ff" points="429.06,-70.57 418.54,-71.89 427.59,-77.41 429.06,-70.57"/>
</a>
</g>
</g>
<!-- Node25 -->
<g id="Node000025" class="node">
<title>Node25</title>
<g id="a_Node000025"><a xlink:title=" ">
<polygon fill="#e0e0e0" stroke="#999999" points="681.31,-239 637.31,-239 637.31,-220 681.31,-220 681.31,-239"/>
<text text-anchor="middle" x="659.31" y="-227" font-family="Helvetica,sans-Serif" font-size="10.00">QLine</text>
</a>
</g>
</g>
<!-- Node1&#45;&gt;Node25 -->
<g id="edge37_Node000001_Node000025" class="edge">
<title>Node1&#45;&gt;Node25</title>
<g id="a_edge37_Node000001_Node000025"><a xlink:title=" ">
<path fill="none" stroke="#63b8ff" d="M769.58,-274.99C745.39,-265.23 713.41,-252.33 690.13,-242.93"/>
<polygon fill="#63b8ff" stroke="#63b8ff" points="691.31,-239.63 680.73,-239.14 688.69,-246.13 691.31,-239.63"/>
</a>
</g>
</g>
<!-- Node26 -->
<g id="Node000026" class="node">
<title>Node26</title>
<g id="a_Node000026"><a xlink:title=" ">
<polygon fill="#e0e0e0" stroke="#999999" points="800.81,-239 699.81,-239 699.81,-220 800.81,-220 800.81,-239"/>
<text text-anchor="middle" x="750.31" y="-227" font-family="Helvetica,sans-Serif" font-size="10.00">QMessageLogger</text>
</a>
</g>
</g>
<!-- Node1&#45;&gt;Node26 -->
<g id="edge39_Node000001_Node000026" class="edge">
<title>Node1&#45;&gt;Node26</title>
<g id="a_edge39_Node000001_Node000026"><a xlink:title=" ">
<path fill="none" stroke="#63b8ff" d="M791.24,-274.84C783.4,-266.35 773.41,-255.52 765.26,-246.69"/>
<polygon fill="#63b8ff" stroke="#63b8ff" points="767.76,-244.24 758.4,-239.27 762.62,-248.99 767.76,-244.24"/>
</a>
</g>
</g>
<!-- Node27 -->
<g id="Node000027" class="node">
<title>Node27</title>
<g id="a_Node000027"><a xlink:title=" ">
<polygon fill="#e0e0e0" stroke="#999999" points="897.81,-239 818.81,-239 818.81,-220 897.81,-220 897.81,-239"/>
<text text-anchor="middle" x="858.31" y="-227" font-family="Helvetica,sans-Serif" font-size="10.00">QPainterPath</text>
</a>
</g>
</g>
<!-- Node1&#45;&gt;Node27 -->
<g id="edge40_Node000001_Node000027" class="edge">
<title>Node1&#45;&gt;Node27</title>
<g id="a_edge40_Node000001_Node000027"><a xlink:title=" ">
<path fill="none" stroke="#63b8ff" d="M817.38,-274.84C825.22,-266.35 835.22,-255.52 843.37,-246.69"/>
<polygon fill="#63b8ff" stroke="#63b8ff" points="846.01,-248.99 850.22,-239.27 840.87,-244.24 846.01,-248.99"/>
</a>
</g>
</g>
<!-- Node28 -->
<g id="Node000028" class="node">
<title>Node28</title>
<g id="a_Node000028"><a xlink:title=" ">
<polygon fill="#e0e0e0" stroke="#999999" points="964.81,-239 915.81,-239 915.81,-220 964.81,-220 964.81,-239"/>
<text text-anchor="middle" x="940.31" y="-227" font-family="Helvetica,sans-Serif" font-size="10.00">QPoint</text>
</a>
</g>
</g>
<!-- Node1&#45;&gt;Node28 -->
<g id="edge41_Node000001_Node000028" class="edge">
<title>Node1&#45;&gt;Node28</title>
<g id="a_edge41_Node000001_Node000028"><a xlink:title=" ">
<path fill="none" stroke="#63b8ff" d="M836.89,-274.99C859.38,-265.31 889.04,-252.56 910.82,-243.18"/>
<polygon fill="#63b8ff" stroke="#63b8ff" points="912.42,-246.31 920.23,-239.14 909.66,-239.88 912.42,-246.31"/>
</a>
</g>
</g>
<!-- Node29 -->
<g id="Node000029" class="node">
<title>Node29</title>
<g id="a_Node000029"><a xlink:title=" ">
<polygon fill="#e0e0e0" stroke="#999999" points="1041.81,-239 982.81,-239 982.81,-220 1041.81,-220 1041.81,-239"/>
<text text-anchor="middle" x="1012.31" y="-227" font-family="Helvetica,sans-Serif" font-size="10.00">QtDebug</text>
</a>
</g>
</g>
<!-- Node1&#45;&gt;Node29 -->
<g id="edge42_Node000001_Node000029" class="edge">
<title>Node1&#45;&gt;Node29</title>
<g id="a_edge42_Node000001_Node000029"><a xlink:title=" ">
<path fill="none" stroke="#63b8ff" d="M854.13,-274.99C890.51,-264.76 939.16,-251.07 972.86,-241.6"/>
<polygon fill="#63b8ff" stroke="#63b8ff" points="974.13,-244.88 982.81,-238.8 972.23,-238.14 974.13,-244.88"/>
</a>
</g>
</g>
<!-- Node30 -->
<g id="Node000030" class="node">
<title>Node30</title>
<g id="a_Node000030"><a xlink:href="../../d1/ded/vabstractcurve__p_8h.html" target="_top" xlink:title=" ">
<polygon fill="white" stroke="#666666" points="1170.31,-239 1060.31,-239 1060.31,-220 1170.31,-220 1170.31,-239"/>
<text text-anchor="middle" x="1115.31" y="-227" font-family="Helvetica,sans-Serif" font-size="10.00">vabstractcurve_p.h</text>
</a>
</g>
</g>
<!-- Node1&#45;&gt;Node30 -->
<g id="edge43_Node000001_Node000030" class="edge">
<title>Node1&#45;&gt;Node30</title>
<g id="a_edge43_Node000001_Node000030"><a xlink:title=" ">
<path fill="none" stroke="#63b8ff" d="M860.99,-278.34C917.57,-267.7 1003.94,-251.45 1060.02,-240.9"/>
<polygon fill="#63b8ff" stroke="#63b8ff" points="1060.94,-244.29 1070.12,-239 1059.65,-237.41 1060.94,-244.29"/>
</a>
</g>
</g>
<!-- Node3 -->
<g id="Node000003" class="node">
<title>Node3</title>
<g id="a_Node000003"><a xlink:title=" ">
<polygon fill="#e0e0e0" stroke="#999999" points="163.31,-74 43.31,-74 43.31,-55 163.31,-55 163.31,-74"/>
<text text-anchor="middle" x="103.31" y="-62" font-family="Helvetica,sans-Serif" font-size="10.00">qcompilerdetection.h</text>
</a>
</g>
</g>
<!-- Node2&#45;&gt;Node3 -->
<g id="edge2_Node000002_Node000003" class="edge">
<title>Node2&#45;&gt;Node3</title>
<g id="a_edge2_Node000002_Node000003"><a xlink:title=" ">
<path fill="none" stroke="#63b8ff" d="M317.98,-225.99C223.96,-220.7 26.63,-206.97 6.31,-184 -10.12,-165.41 9.54,-131.94 28.31,-110 39.94,-96.41 56.81,-85.89 71.6,-78.5"/>
<polygon fill="#63b8ff" stroke="#63b8ff" points="73.4,-81.52 80.95,-74.09 70.41,-75.19 73.4,-81.52"/>
</a>
</g>
</g>
<!-- Node4 -->
<g id="Node000004" class="node">
<title>Node4</title>
<g id="a_Node000004"><a xlink:title=" ">
<polygon fill="#e0e0e0" stroke="#999999" points="481.81,-184 426.81,-184 426.81,-165 481.81,-165 481.81,-184"/>
<text text-anchor="middle" x="454.31" y="-172" font-family="Helvetica,sans-Serif" font-size="10.00">QPointF</text>
</a>
</g>
</g>
<!-- Node2&#45;&gt;Node4 -->
<g id="edge3_Node000002_Node000004" class="edge">
<title>Node2&#45;&gt;Node4</title>
<g id="a_edge3_Node000002_Node000004"><a xlink:title=" ">
<path fill="none" stroke="#63b8ff" d="M381.29,-219.98C394.78,-211.77 415.45,-199.18 431.35,-189.49"/>
<polygon fill="#63b8ff" stroke="#63b8ff" points="433.36,-192.36 440.08,-184.17 429.72,-186.38 433.36,-192.36"/>
</a>
</g>
</g>
<!-- Node5 -->
<g id="Node000005" class="node">
<title>Node5</title>
<g id="a_Node000005"><a xlink:title=" ">
<polygon fill="#e0e0e0" stroke="#999999" points="581.31,-129 465.31,-129 465.31,-110 581.31,-110 581.31,-129"/>
<text text-anchor="middle" x="523.31" y="-117" font-family="Helvetica,sans-Serif" font-size="10.00">QSharedDataPointer</text>
</a>
</g>
</g>
<!-- Node2&#45;&gt;Node5 -->
<g id="edge4_Node000002_Node000005" class="edge">
<title>Node2&#45;&gt;Node5</title>
<g id="a_edge4_Node000002_Node000005"><a xlink:title=" ">
<path fill="none" stroke="#63b8ff" d="M416.19,-219.96C441.03,-213.55 470.33,-202.56 491.31,-184 504.87,-172.01 513.39,-152.92 518.2,-138.8"/>
<polygon fill="#63b8ff" stroke="#63b8ff" points="521.57,-139.76 521.18,-129.17 514.88,-137.69 521.57,-139.76"/>
</a>
</g>
</g>
<!-- Node6 -->
<g id="Node000006" class="node">
<title>Node6</title>
<g id="a_Node000006"><a xlink:title=" ">
<polygon fill="#e0e0e0" stroke="#999999" points="349.81,-74 296.81,-74 296.81,-55 349.81,-55 349.81,-74"/>
<text text-anchor="middle" x="323.31" y="-62" font-family="Helvetica,sans-Serif" font-size="10.00">QString</text>
</a>
</g>
</g>
<!-- Node2&#45;&gt;Node6 -->
<g id="edge5_Node000002_Node000006" class="edge">
<title>Node2&#45;&gt;Node6</title>
<g id="a_edge5_Node000002_Node000006"><a xlink:title=" ">
<path fill="none" stroke="#63b8ff" d="M317.89,-222.26C265.02,-212.6 184.1,-188.42 149.31,-129 118.81,-76.9 226.61,-67.07 286.28,-65.52"/>
<polygon fill="#63b8ff" stroke="#63b8ff" points="286.54,-69.02 296.47,-65.33 286.4,-62.02 286.54,-69.02"/>
</a>
</g>
</g>
<!-- Node7 -->
<g id="Node000007" class="node">
<title>Node7</title>
<g id="a_Node000007"><a xlink:title=" ">
<polygon fill="#e0e0e0" stroke="#999999" points="223.81,-129 158.81,-129 158.81,-110 223.81,-110 223.81,-129"/>
<text text-anchor="middle" x="191.31" y="-117" font-family="Helvetica,sans-Serif" font-size="10.00">QTypeInfo</text>
</a>
</g>
</g>
<!-- Node2&#45;&gt;Node7 -->
<g id="edge6_Node000002_Node000007" class="edge">
<title>Node2&#45;&gt;Node7</title>
<g id="a_edge6_Node000002_Node000007"><a xlink:title=" ">
<path fill="none" stroke="#63b8ff" d="M347.72,-219.85C329.34,-211.48 301.33,-198.02 278.31,-184 253.7,-169.01 227.18,-149.05 209.98,-135.54"/>
<polygon fill="#63b8ff" stroke="#63b8ff" points="211.91,-132.6 201.9,-129.12 207.55,-138.08 211.91,-132.6"/>
</a>
</g>
</g>
<!-- Node8 -->
<g id="Node000008" class="node">
<title>Node8</title>
<g id="a_Node000008"><a xlink:title=" ">
<polygon fill="#e0e0e0" stroke="#999999" points="296.81,-129 241.81,-129 241.81,-110 296.81,-110 296.81,-129"/>
<text text-anchor="middle" x="269.31" y="-117" font-family="Helvetica,sans-Serif" font-size="10.00">QVector</text>
</a>
</g>
</g>
<!-- Node2&#45;&gt;Node8 -->
<g id="edge7_Node000002_Node000008" class="edge">
<title>Node2&#45;&gt;Node8</title>
<g id="a_edge7_Node000002_Node000008"><a xlink:title=" ">
<path fill="none" stroke="#63b8ff" d="M345.16,-219.92C328.83,-212.58 307.14,-200.58 293.31,-184 282.58,-171.13 276.36,-152.97 272.96,-139.36"/>
<polygon fill="#63b8ff" stroke="#63b8ff" points="276.29,-138.23 270.72,-129.22 269.46,-139.74 276.29,-138.23"/>
</a>
</g>
</g>
<!-- Node9 -->
<g id="Node000009" class="node">
<title>Node9</title>
<g id="a_Node000009"><a xlink:title=" ">
<polygon fill="#e0e0e0" stroke="#999999" points="966.81,-74 907.81,-74 907.81,-55 966.81,-55 966.81,-74"/>
<text text-anchor="middle" x="937.31" y="-62" font-family="Helvetica,sans-Serif" font-size="10.00">QtGlobal</text>
</a>
</g>
</g>
<!-- Node2&#45;&gt;Node9 -->
<g id="edge8_Node000002_Node000009" class="edge">
<title>Node2&#45;&gt;Node9</title>
<g id="a_edge8_Node000002_Node000009"><a xlink:title=" ">
<path fill="none" stroke="#63b8ff" d="M416.38,-221.56C499.43,-208.92 672.23,-178.77 811.31,-129 848.78,-115.59 889.43,-93.63 914.14,-79.37"/>
<polygon fill="#63b8ff" stroke="#63b8ff" points="916.22,-82.21 923.09,-74.14 912.69,-76.17 916.22,-82.21"/>
</a>
</g>
</g>
<!-- Node10 -->
<g id="Node000010" class="node">
<title>Node10</title>
<g id="a_Node000010"><a xlink:href="../../d3/da5/ifcdef_8h.html" target="_top" xlink:title=" ">
<polygon fill="white" stroke="#666666" points="861.81,-184 784.81,-184 784.81,-165 861.81,-165 861.81,-184"/>
<text text-anchor="middle" x="823.31" y="-172" font-family="Helvetica,sans-Serif" font-size="10.00">../ifc/ifcdef.h</text>
</a>
</g>
</g>
<!-- Node2&#45;&gt;Node10 -->
<g id="edge9_Node000002_Node000010" class="edge">
<title>Node2&#45;&gt;Node10</title>
<g id="a_edge9_Node000002_Node000010"><a xlink:title=" ">
<path fill="none" stroke="#63b8ff" d="M416.55,-222.78C504.4,-212.57 687.16,-191.32 774.62,-181.16"/>
<polygon fill="#63b8ff" stroke="#63b8ff" points="775.28,-184.61 784.8,-179.98 774.47,-177.65 775.28,-184.61"/>
</a>
</g>
</g>
<!-- Node21 -->
<g id="Node000021" class="node">
<title>Node21</title>
<g id="a_Node000021"><a xlink:href="../../db/db3/vmath_8h.html" target="_top" xlink:title=" ">
<polygon fill="white" stroke="#666666" points="113.31,-184 15.31,-184 15.31,-165 113.31,-165 113.31,-184"/>
<text text-anchor="middle" x="64.31" y="-172" font-family="Helvetica,sans-Serif" font-size="10.00">../vmisc/vmath.h</text>
</a>
</g>
</g>
<!-- Node2&#45;&gt;Node21 -->
<g id="edge27_Node000002_Node000021" class="edge">
<title>Node2&#45;&gt;Node21</title>
<g id="a_edge27_Node000002_Node000021"><a xlink:title=" ">
<path fill="none" stroke="#63b8ff" d="M318.63,-219.98C265.37,-210.67 180.01,-195.74 123.06,-185.78"/>
<polygon fill="#63b8ff" stroke="#63b8ff" points="123.58,-182.31 113.12,-184.04 122.37,-189.21 123.58,-182.31"/>
</a>
</g>
</g>
<!-- Node23 -->
<g id="Node000023" class="node">
<title>Node23</title>
<g id="a_Node000023"><a xlink:href="../../d5/d9d/vgeometrydef_8h.html" target="_top" xlink:title=" ">
<polygon fill="white" stroke="#666666" points="447.31,-129 353.31,-129 353.31,-110 447.31,-110 447.31,-129"/>
<text text-anchor="middle" x="400.31" y="-117" font-family="Helvetica,sans-Serif" font-size="10.00">vgeometrydef.h</text>
</a>
</g>
</g>
<!-- Node2&#45;&gt;Node23 -->
<g id="edge29_Node000002_Node000023" class="edge">
<title>Node2&#45;&gt;Node23</title>
<g id="a_edge29_Node000002_Node000023"><a xlink:title=" ">
<path fill="none" stroke="#63b8ff" d="M370.01,-219.66C375.38,-202.09 387.5,-162.45 394.67,-138.95"/>
<polygon fill="#63b8ff" stroke="#63b8ff" points="398.09,-139.74 397.67,-129.16 391.4,-137.7 398.09,-139.74"/>
</a>
</g>
</g>
<!-- Node24 -->
<g id="Node000024" class="node">
<title>Node24</title>
<g id="a_Node000024"><a xlink:href="../../d2/d07/vgobject_8h.html" target="_top" xlink:title=" ">
<polygon fill="white" stroke="#666666" points="370.31,-184 302.31,-184 302.31,-165 370.31,-165 370.31,-184"/>
<text text-anchor="middle" x="336.31" y="-172" font-family="Helvetica,sans-Serif" font-size="10.00">vgobject.h</text>
</a>
</g>
</g>
<!-- Node2&#45;&gt;Node24 -->
<g id="edge30_Node000002_Node000024" class="edge">
<title>Node2&#45;&gt;Node24</title>
<g id="a_edge30_Node000002_Node000024"><a xlink:title=" ">
<path fill="none" stroke="#63b8ff" d="M362.19,-219.75C357.95,-212.49 351.79,-201.95 346.54,-192.98"/>
<polygon fill="#63b8ff" stroke="#63b8ff" points="349.41,-190.95 341.34,-184.09 343.36,-194.49 349.41,-190.95"/>
</a>
</g>
</g>
<!-- Node10&#45;&gt;Node6 -->
<g id="edge10_Node000010_Node000006" class="edge">
<title>Node10&#45;&gt;Node6</title>
<g id="a_edge10_Node000010_Node000006"><a xlink:title=" ">
<path fill="none" stroke="#63b8ff" d="M793.45,-164.91C739.9,-149.59 629.47,-118.36 590.31,-110 491.77,-88.96 463.01,-93.64 359.88,-73.96"/>
<polygon fill="#63b8ff" stroke="#63b8ff" points="360.48,-70.51 350,-72.04 359.15,-77.38 360.48,-70.51"/>
</a>
</g>
</g>
<!-- Node10&#45;&gt;Node9 -->
<g id="edge12_Node000010_Node000009" class="edge">
<title>Node10&#45;&gt;Node9</title>
<g id="a_edge12_Node000010_Node000009"><a xlink:title=" ">
<path fill="none" stroke="#63b8ff" d="M833.91,-164.9C844.59,-156.13 861.44,-142 875.31,-129 891.89,-113.48 909.93,-94.78 922.26,-81.7"/>
<polygon fill="#63b8ff" stroke="#63b8ff" points="924.84,-84.06 929.13,-74.37 919.74,-79.28 924.84,-84.06"/>
</a>
</g>
</g>
<!-- Node11 -->
<g id="Node000011" class="node">
<title>Node11</title>
<g id="a_Node000011"><a xlink:title=" ">
<polygon fill="#e0e0e0" stroke="#999999" points="889.31,-74 819.31,-74 819.31,-55 889.31,-55 889.31,-74"/>
<text text-anchor="middle" x="854.31" y="-62" font-family="Helvetica,sans-Serif" font-size="10.00">QStringList</text>
</a>
</g>
</g>
<!-- Node10&#45;&gt;Node11 -->
<g id="edge11_Node000010_Node000011" class="edge">
<title>Node10&#45;&gt;Node11</title>
<g id="a_edge11_Node000010_Node000011"><a xlink:title=" ">
<path fill="none" stroke="#63b8ff" d="M825.85,-164.66C830.89,-147.09 842.27,-107.45 849.02,-83.95"/>
<polygon fill="#63b8ff" stroke="#63b8ff" points="852.43,-84.74 851.83,-74.16 845.7,-82.8 852.43,-84.74"/>
</a>
</g>
</g>
<!-- Node12 -->
<g id="Node000012" class="node">
<title>Node12</title>
<g id="a_Node000012"><a xlink:href="../../d4/da4/def_8h.html" target="_top" xlink:title=" ">
<polygon fill="white" stroke="#666666" points="757.31,-129 675.31,-129 675.31,-110 757.31,-110 757.31,-129"/>
<text text-anchor="middle" x="716.31" y="-117" font-family="Helvetica,sans-Serif" font-size="10.00">../vmisc/def.h</text>
</a>
</g>
</g>
<!-- Node10&#45;&gt;Node12 -->
<g id="edge13_Node000010_Node000012" class="edge">
<title>Node10&#45;&gt;Node12</title>
<g id="a_edge13_Node000010_Node000012"><a xlink:title=" ">
<path fill="none" stroke="#63b8ff" d="M806.12,-164.98C789.06,-156.54 762.68,-143.47 742.92,-133.68"/>
<polygon fill="#63b8ff" stroke="#63b8ff" points="744.33,-130.47 733.82,-129.17 741.22,-136.75 744.33,-130.47"/>
</a>
</g>
</g>
<!-- Node20 -->
<g id="Node000020" class="node">
<title>Node20</title>
<g id="a_Node000020"><a xlink:href="../../d6/dcd/diagnostic_8h.html" target="_top" xlink:title=" ">
<polygon fill="white" stroke="#666666" points="1044.81,-129 927.81,-129 927.81,-110 1044.81,-110 1044.81,-129"/>
<text text-anchor="middle" x="986.31" y="-117" font-family="Helvetica,sans-Serif" font-size="10.00">../vmisc/diagnostic.h</text>
</a>
</g>
</g>
<!-- Node10&#45;&gt;Node20 -->
<g id="edge25_Node000010_Node000020" class="edge">
<title>Node10&#45;&gt;Node20</title>
<g id="a_edge25_Node000010_Node000020"><a xlink:title=" ">
<path fill="none" stroke="#63b8ff" d="M849.5,-164.98C876.75,-156.13 919.61,-142.19 950.1,-132.28"/>
<polygon fill="#63b8ff" stroke="#63b8ff" points="951.49,-135.5 959.92,-129.08 949.33,-128.85 951.49,-135.5"/>
</a>
</g>
</g>
<!-- Node12&#45;&gt;Node3 -->
<g id="edge14_Node000012_Node000003" class="edge">
<title>Node12&#45;&gt;Node3</title>
<g id="a_edge14_Node000012_Node000003"><a xlink:title=" ">
<path fill="none" stroke="#63b8ff" d="M675.14,-114.94C572.16,-106.04 302.49,-82.72 173.72,-71.59"/>
<polygon fill="#63b8ff" stroke="#63b8ff" points="173.84,-68.09 163.58,-70.71 173.24,-75.06 173.84,-68.09"/>
</a>
</g>
</g>
<!-- Node12&#45;&gt;Node6 -->
<g id="edge17_Node000012_Node000006" class="edge">
<title>Node12&#45;&gt;Node6</title>
<g id="a_edge17_Node000012_Node000006"><a xlink:title=" ">
<path fill="none" stroke="#63b8ff" d="M675.19,-111.99C670.51,-111.29 665.81,-110.62 661.31,-110 530.66,-92.12 494.18,-97.3 360.22,-73.96"/>
<polygon fill="#63b8ff" stroke="#63b8ff" points="360.43,-70.44 349.98,-72.15 359.22,-77.33 360.43,-70.44"/>
</a>
</g>
</g>
<!-- Node12&#45;&gt;Node9 -->
<g id="edge20_Node000012_Node000009" class="edge">
<title>Node12&#45;&gt;Node9</title>
<g id="a_edge20_Node000012_Node000009"><a xlink:title=" ">
<path fill="none" stroke="#63b8ff" d="M751.82,-109.98C791.72,-100.42 856.33,-84.92 897.8,-74.98"/>
<polygon fill="#63b8ff" stroke="#63b8ff" points="898.65,-78.37 907.56,-72.63 897.02,-71.56 898.65,-78.37"/>
</a>
</g>
</g>
<!-- Node12&#45;&gt;Node11 -->
<g id="edge18_Node000012_Node000011" class="edge">
<title>Node12&#45;&gt;Node11</title>
<g id="a_edge18_Node000012_Node000011"><a xlink:title=" ">
<path fill="none" stroke="#63b8ff" d="M738.48,-109.98C761.08,-101.3 796.37,-87.75 822.07,-77.88"/>
<polygon fill="#63b8ff" stroke="#63b8ff" points="823.66,-81.02 831.74,-74.17 821.15,-74.49 823.66,-81.02"/>
</a>
</g>
</g>
<!-- Node13 -->
<g id="Node000013" class="node">
<title>Node13</title>
<g id="a_Node000013"><a xlink:title=" ">
<polygon fill="#e0e0e0" stroke="#999999" points="753.81,-74 680.81,-74 680.81,-55 753.81,-55 753.81,-74"/>
<text text-anchor="middle" x="717.31" y="-62" font-family="Helvetica,sans-Serif" font-size="10.00">QFileDialog</text>
</a>
</g>
</g>
<!-- Node12&#45;&gt;Node13 -->
<g id="edge15_Node000012_Node000013" class="edge">
<title>Node12&#45;&gt;Node13</title>
<g id="a_edge15_Node000012_Node000013"><a xlink:title=" ">
<path fill="none" stroke="#63b8ff" d="M716.48,-109.75C716.61,-102.8 716.8,-92.85 716.96,-84.13"/>
<polygon fill="#63b8ff" stroke="#63b8ff" points="720.46,-84.15 717.15,-74.09 713.46,-84.02 720.46,-84.15"/>
</a>
</g>
</g>
<!-- Node12&#45;&gt;Node14 -->
<g id="edge16_Node000012_Node000014" class="edge">
<title>Node12&#45;&gt;Node14</title>
<g id="a_edge16_Node000012_Node000014"><a xlink:title=" ">
<path fill="none" stroke="#63b8ff" d="M675.17,-112.14C670.49,-111.42 665.8,-110.69 661.31,-110 560.47,-94.45 532.16,-94.75 428.44,-74.07"/>
<polygon fill="#63b8ff" stroke="#63b8ff" points="429,-70.61 418.5,-72.07 427.62,-77.48 429,-70.61"/>
</a>
</g>
</g>
<!-- Node15 -->
<g id="Node000015" class="node">
<title>Node15</title>
<g id="a_Node000015"><a xlink:title=" ">
<polygon fill="#e0e0e0" stroke="#999999" points="800.81,-74 771.81,-74 771.81,-55 800.81,-55 800.81,-74"/>
<text text-anchor="middle" x="786.31" y="-62" font-family="Helvetica,sans-Serif" font-size="10.00">Qt</text>
</a>
</g>
</g>
<!-- Node12&#45;&gt;Node15 -->
<g id="edge19_Node000012_Node000015" class="edge">
<title>Node12&#45;&gt;Node15</title>
<g id="a_edge19_Node000012_Node000015"><a xlink:title=" ">
<path fill="none" stroke="#63b8ff" d="M727.56,-109.98C738.11,-102 754.11,-89.88 766.75,-80.31"/>
<polygon fill="#63b8ff" stroke="#63b8ff" points="769,-83 774.86,-74.17 764.78,-77.42 769,-83"/>
</a>
</g>
</g>
<!-- Node16 -->
<g id="Node000016" class="node">
<title>Node16</title>
<g id="a_Node000016"><a xlink:title=" ">
<polygon fill="#e0e0e0" stroke="#999999" points="492.31,-74 436.31,-74 436.31,-55 492.31,-55 492.31,-74"/>
<text text-anchor="middle" x="464.31" y="-62" font-family="Helvetica,sans-Serif" font-size="10.00">QPrinter</text>
</a>
</g>
</g>
<!-- Node12&#45;&gt;Node16 -->
<g id="edge21_Node000012_Node000016" class="edge">
<title>Node12&#45;&gt;Node16</title>
<g id="a_edge21_Node000012_Node000016"><a xlink:title=" ">
<path fill="none" stroke="#63b8ff" d="M675.25,-110.15C632.14,-101.34 562.4,-86.97 502.31,-74 502.21,-73.98 502.11,-73.96 502.01,-73.94"/>
<polygon fill="#63b8ff" stroke="#63b8ff" points="503.04,-70.58 492.52,-71.86 501.54,-77.42 503.04,-70.58"/>
</a>
</g>
</g>
<!-- Node17 -->
<g id="Node000017" class="node">
<title>Node17</title>
<g id="a_Node000017"><a xlink:title=" ">
<polygon fill="#e0e0e0" stroke="#999999" points="561.81,-74 510.81,-74 510.81,-55 561.81,-55 561.81,-74"/>
<text text-anchor="middle" x="536.31" y="-62" font-family="Helvetica,sans-Serif" font-size="10.00">csignal</text>
</a>
</g>
</g>
<!-- Node12&#45;&gt;Node17 -->
<g id="edge22_Node000012_Node000017" class="edge">
<title>Node12&#45;&gt;Node17</title>
<g id="a_edge22_Node000012_Node000017"><a xlink:title=" ">
<path fill="none" stroke="#63b8ff" d="M687.39,-109.98C655.96,-100.73 605.71,-85.93 571.89,-75.97"/>
<polygon fill="#63b8ff" stroke="#63b8ff" points="572.54,-72.52 561.95,-73.05 570.56,-79.23 572.54,-72.52"/>
</a>
</g>
</g>
<!-- Node18 -->
<g id="Node000018" class="node">
<title>Node18</title>
<g id="a_Node000018"><a xlink:href="../../d4/d82/debugbreak_8h.html" target="_top" xlink:title=" ">
<polygon fill="white" stroke="#666666" points="662.81,-74 579.81,-74 579.81,-55 662.81,-55 662.81,-74"/>
<text text-anchor="middle" x="621.31" y="-62" font-family="Helvetica,sans-Serif" font-size="10.00">debugbreak.h</text>
</a>
</g>
</g>
<!-- Node12&#45;&gt;Node18 -->
<g id="edge23_Node000012_Node000018" class="edge">
<title>Node12&#45;&gt;Node18</title>
<g id="a_edge23_Node000012_Node000018"><a xlink:title=" ">
<path fill="none" stroke="#63b8ff" d="M701.05,-109.98C686.18,-101.69 663.33,-88.94 645.9,-79.22"/>
<polygon fill="#63b8ff" stroke="#63b8ff" points="647.29,-75.99 636.85,-74.17 643.88,-82.1 647.29,-75.99"/>
</a>
</g>
</g>
<!-- Node19 -->
<g id="Node000019" class="node">
<title>Node19</title>
<g id="a_Node000019"><a xlink:title=" ">
<polygon fill="#e0e0e0" stroke="#999999" points="648.81,-19 593.81,-19 593.81,0 648.81,0 648.81,-19"/>
<text text-anchor="middle" x="621.31" y="-7" font-family="Helvetica,sans-Serif" font-size="10.00">signal.h</text>
</a>
</g>
</g>
<!-- Node18&#45;&gt;Node19 -->
<g id="edge24_Node000018_Node000019" class="edge">
<title>Node18&#45;&gt;Node19</title>
<g id="a_edge24_Node000018_Node000019"><a xlink:title=" ">
<path fill="none" stroke="#63b8ff" d="M621.31,-54.75C621.31,-47.8 621.31,-37.85 621.31,-29.13"/>
<polygon fill="#63b8ff" stroke="#63b8ff" points="624.81,-29.09 621.31,-19.09 617.81,-29.09 624.81,-29.09"/>
</a>
</g>
</g>
<!-- Node20&#45;&gt;Node9 -->
<g id="edge26_Node000020_Node000009" class="edge">
<title>Node20&#45;&gt;Node9</title>
<g id="a_edge26_Node000020_Node000009"><a xlink:title=" ">
<path fill="none" stroke="#63b8ff" d="M978.22,-109.75C971.16,-102.11 960.72,-90.82 952.16,-81.56"/>
<polygon fill="#63b8ff" stroke="#63b8ff" points="954.61,-79.06 945.25,-74.09 949.47,-83.81 954.61,-79.06"/>
</a>
</g>
</g>
<!-- Node22 -->
<g id="Node000022" class="node">
<title>Node22</title>
<g id="a_Node000022"><a xlink:title=" ">
<polygon fill="#e0e0e0" stroke="#999999" points="90.81,-129 37.81,-129 37.81,-110 90.81,-110 90.81,-129"/>
<text text-anchor="middle" x="64.31" y="-117" font-family="Helvetica,sans-Serif" font-size="10.00">QtMath</text>
</a>
</g>
</g>
<!-- Node21&#45;&gt;Node22 -->
<g id="edge28_Node000021_Node000022" class="edge">
<title>Node21&#45;&gt;Node22</title>
<g id="a_edge28_Node000021_Node000022"><a xlink:title=" ">
<path fill="none" stroke="#63b8ff" d="M64.31,-164.75C64.31,-157.8 64.31,-147.85 64.31,-139.13"/>
<polygon fill="#63b8ff" stroke="#63b8ff" points="67.81,-139.09 64.31,-129.09 60.81,-139.09 67.81,-139.09"/>
</a>
</g>
</g>
<!-- Node24&#45;&gt;Node5 -->
<g id="edge31_Node000024_Node000005" class="edge">
<title>Node24&#45;&gt;Node5</title>
<g id="a_edge31_Node000024_Node000005"><a xlink:title=" ">
<path fill="none" stroke="#63b8ff" d="M366.36,-164.98C398.02,-156.01 448.08,-141.82 483.12,-131.89"/>
<polygon fill="#63b8ff" stroke="#63b8ff" points="484.37,-135.18 493.03,-129.08 482.46,-128.44 484.37,-135.18"/>
</a>
</g>
</g>
<!-- Node24&#45;&gt;Node6 -->
<g id="edge32_Node000024_Node000006" class="edge">
<title>Node24&#45;&gt;Node6</title>
<g id="a_edge32_Node000024_Node000006"><a xlink:title=" ">
<path fill="none" stroke="#63b8ff" d="M335.25,-164.66C333.14,-147.17 328.4,-107.8 325.57,-84.27"/>
<polygon fill="#63b8ff" stroke="#63b8ff" points="329.02,-83.67 324.35,-74.16 322.07,-84.51 329.02,-83.67"/>
</a>
</g>
</g>
<!-- Node24&#45;&gt;Node7 -->
<g id="edge33_Node000024_Node000007" class="edge">
<title>Node24&#45;&gt;Node7</title>
<g id="a_edge33_Node000024_Node000007"><a xlink:title=" ">
<path fill="none" stroke="#63b8ff" d="M313.02,-164.98C289.06,-156.23 251.53,-142.51 224.48,-132.62"/>
<polygon fill="#63b8ff" stroke="#63b8ff" points="225.63,-129.32 215.03,-129.17 223.22,-135.89 225.63,-129.32"/>
</a>
</g>
</g>
<!-- Node24&#45;&gt;Node8 -->
<g id="edge34_Node000024_Node000008" class="edge">
<title>Node24&#45;&gt;Node8</title>
<g id="a_edge34_Node000024_Node000008"><a xlink:title=" ">
<path fill="none" stroke="#63b8ff" d="M325.55,-164.98C315.55,-157.07 300.43,-145.11 288.38,-135.58"/>
<polygon fill="#63b8ff" stroke="#63b8ff" points="290.29,-132.63 280.27,-129.17 285.94,-138.12 290.29,-132.63"/>
</a>
</g>
</g>
<!-- Node24&#45;&gt;Node9 -->
<g id="edge35_Node000024_Node000009" class="edge">
<title>Node24&#45;&gt;Node9</title>
<g id="a_edge35_Node000024_Node000009"><a xlink:title=" ">
<path fill="none" stroke="#63b8ff" d="M370.62,-169.94C385.31,-168.42 402.65,-166.62 418.31,-165 572.98,-148.98 614.89,-164.35 766.31,-129 818.3,-116.87 875.96,-93.18 909.29,-78.42"/>
<polygon fill="#63b8ff" stroke="#63b8ff" points="911.12,-81.43 918.81,-74.14 908.26,-75.04 911.12,-81.43"/>
</a>
</g>
</g>
<!-- Node24&#45;&gt;Node23 -->
<g id="edge36_Node000024_Node000023" class="edge">
<title>Node24&#45;&gt;Node23</title>
<g id="a_edge36_Node000024_Node000023"><a xlink:title=" ">
<path fill="none" stroke="#63b8ff" d="M346.6,-164.98C356.15,-157.07 370.59,-145.11 382.1,-135.58"/>
<polygon fill="#63b8ff" stroke="#63b8ff" points="384.37,-138.24 389.84,-129.17 379.91,-132.85 384.37,-138.24"/>
</a>
</g>
</g>
<!-- Node30&#45;&gt;Node10 -->
<g id="edge45_Node000030_Node000010" class="edge">
<title>Node30&#45;&gt;Node10</title>
<g id="a_edge45_Node000030_Node000010"><a xlink:title=" ">
<path fill="none" stroke="#63b8ff" d="M1068.4,-219.98C1014.63,-210.23 926.92,-194.31 872.3,-184.39"/>
<polygon fill="#63b8ff" stroke="#63b8ff" points="872.63,-180.9 862.17,-182.55 871.38,-187.78 872.63,-180.9"/>
</a>
</g>
</g>
<!-- Node30&#45;&gt;Node20 -->
<g id="edge46_Node000030_Node000020" class="edge">
<title>Node30&#45;&gt;Node20</title>
<g id="a_edge46_Node000030_Node000020"><a xlink:title=" ">
<path fill="none" stroke="#63b8ff" d="M1104.76,-219.66C1082.82,-201.3 1032.08,-158.81 1004.67,-135.87"/>
<polygon fill="#63b8ff" stroke="#63b8ff" points="1006.57,-132.89 996.65,-129.16 1002.08,-138.26 1006.57,-132.89"/>
</a>
</g>
</g>
<!-- Node31 -->
<g id="Node000031" class="node">
<title>Node31</title>
<g id="a_Node000031"><a xlink:title=" ">
<polygon fill="#e0e0e0" stroke="#999999" points="1155.81,-184 1074.81,-184 1074.81,-165 1155.81,-165 1155.81,-184"/>
<text text-anchor="middle" x="1115.31" y="-172" font-family="Helvetica,sans-Serif" font-size="10.00">QSharedData</text>
</a>
</g>
</g>
<!-- Node30&#45;&gt;Node31 -->
<g id="edge44_Node000030_Node000031" class="edge">
<title>Node30&#45;&gt;Node31</title>
<g id="a_edge44_Node000030_Node000031"><a xlink:title=" ">
<path fill="none" stroke="#63b8ff" d="M1115.31,-219.75C1115.31,-212.8 1115.31,-202.85 1115.31,-194.13"/>
<polygon fill="#63b8ff" stroke="#63b8ff" points="1118.81,-194.09 1115.31,-184.09 1111.81,-194.09 1118.81,-194.09"/>
</a>
</g>
</g>
</g>
</svg>
