<?xml version="1.0" encoding="UTF-8" standalone="no"?>
<!DOCTYPE svg PUBLIC "-//W3C//DTD SVG 1.1//EN"
 "http://www.w3.org/Graphics/SVG/1.1/DTD/svg11.dtd">
<!-- Generated by graphviz version 2.43.0 (0)
 -->
<!-- Title: src/app/seamly2d/dialogs/calculator_dialog.cpp Pages: 1 -->
<svg width="2473pt" height="335pt"
 viewBox="0.00 0.00 2472.77 335.00" xmlns="http://www.w3.org/2000/svg" xmlns:xlink="http://www.w3.org/1999/xlink">
<g id="graph0" class="graph" transform="scale(1 1) rotate(0) translate(4 331)">
<title>src/app/seamly2d/dialogs/calculator_dialog.cpp</title>
<!-- Node1 -->
<g id="Node000001" class="node">
<title>Node1</title>
<g id="a_Node000001"><a xlink:title=" ">
<polygon fill="#999999" stroke="#666666" points="573,-327 432,-327 432,-297 573,-297 573,-327"/>
<text text-anchor="start" x="440" y="-315" font-family="Helvetica,sans-Serif" font-size="10.00">src/app/seamly2d/dialogs</text>
<text text-anchor="middle" x="502.5" y="-304" font-family="Helvetica,sans-Serif" font-size="10.00">/calculator_dialog.cpp</text>
</a>
</g>
</g>
<!-- Node2 -->
<g id="Node000002" class="node">
<title>Node2</title>
<g id="a_Node000002"><a xlink:title=" ">
<polygon fill="#e0e0e0" stroke="#999999" points="47,-261 0,-261 0,-242 47,-242 47,-261"/>
<text text-anchor="middle" x="23.5" y="-249" font-family="Helvetica,sans-Serif" font-size="10.00">QDate</text>
</a>
</g>
</g>
<!-- Node1&#45;&gt;Node2 -->
<g id="edge1_Node000001_Node000002" class="edge">
<title>Node1&#45;&gt;Node2</title>
<g id="a_edge1_Node000001_Node000002"><a xlink:title=" ">
<path fill="none" stroke="#63b8ff" d="M431.76,-306.15C345.49,-299.55 195.17,-285.83 57.12,-260.85"/>
<polygon fill="#63b8ff" stroke="#63b8ff" points="57.67,-257.39 47.2,-259.03 56.41,-264.28 57.67,-257.39"/>
</a>
</g>
</g>
<!-- Node3 -->
<g id="Node000003" class="node">
<title>Node3</title>
<g id="a_Node000003"><a xlink:title=" ">
<polygon fill="#e0e0e0" stroke="#999999" points="171.5,-261 65.5,-261 65.5,-242 171.5,-242 171.5,-261"/>
<text text-anchor="middle" x="118.5" y="-249" font-family="Helvetica,sans-Serif" font-size="10.00">QDesktopServices</text>
</a>
</g>
</g>
<!-- Node1&#45;&gt;Node3 -->
<g id="edge2_Node000001_Node000003" class="edge">
<title>Node1&#45;&gt;Node3</title>
<g id="a_edge2_Node000001_Node000003"><a xlink:title=" ">
<path fill="none" stroke="#63b8ff" d="M431.62,-300.2C360.09,-289.31 250.66,-272.63 181.92,-262.16"/>
<polygon fill="#63b8ff" stroke="#63b8ff" points="182.08,-258.65 171.67,-260.6 181.03,-265.57 182.08,-258.65"/>
</a>
</g>
</g>
<!-- Node4 -->
<g id="Node000004" class="node">
<title>Node4</title>
<g id="a_Node000004"><a xlink:title=" ">
<polygon fill="#e0e0e0" stroke="#999999" points="275.5,-261 189.5,-261 189.5,-242 275.5,-242 275.5,-261"/>
<text text-anchor="middle" x="232.5" y="-249" font-family="Helvetica,sans-Serif" font-size="10.00">QMessageBox</text>
</a>
</g>
</g>
<!-- Node1&#45;&gt;Node4 -->
<g id="edge3_Node000001_Node000004" class="edge">
<title>Node1&#45;&gt;Node4</title>
<g id="a_edge3_Node000001_Node000004"><a xlink:title=" ">
<path fill="none" stroke="#63b8ff" d="M437.83,-296.99C389.92,-286.61 325.62,-272.68 281.82,-263.19"/>
<polygon fill="#63b8ff" stroke="#63b8ff" points="282.49,-259.75 271.98,-261.05 281.01,-266.59 282.49,-259.75"/>
</a>
</g>
</g>
<!-- Node5 -->
<g id="Node000005" class="node">
<title>Node5</title>
<g id="a_Node000005"><a xlink:title=" ">
<polygon fill="#e0e0e0" stroke="#999999" points="353,-261 294,-261 294,-242 353,-242 353,-261"/>
<text text-anchor="middle" x="323.5" y="-249" font-family="Helvetica,sans-Serif" font-size="10.00">QtDebug</text>
</a>
</g>
</g>
<!-- Node1&#45;&gt;Node5 -->
<g id="edge4_Node000001_Node000005" class="edge">
<title>Node1&#45;&gt;Node5</title>
<g id="a_edge4_Node000001_Node000005"><a xlink:title=" ">
<path fill="none" stroke="#63b8ff" d="M459.63,-296.99C429,-286.98 388.27,-273.67 359.37,-264.22"/>
<polygon fill="#63b8ff" stroke="#63b8ff" points="360.27,-260.83 349.67,-261.05 358.09,-267.49 360.27,-260.83"/>
</a>
</g>
</g>
<!-- Node6 -->
<g id="Node000006" class="node">
<title>Node6</title>
<g id="a_Node000006"><a xlink:title=" ">
<polygon fill="#e0e0e0" stroke="#999999" points="356,-200.5 297,-200.5 297,-181.5 356,-181.5 356,-200.5"/>
<text text-anchor="middle" x="326.5" y="-188.5" font-family="Helvetica,sans-Serif" font-size="10.00">QWidget</text>
</a>
</g>
</g>
<!-- Node1&#45;&gt;Node6 -->
<g id="edge5_Node000001_Node000006" class="edge">
<title>Node1&#45;&gt;Node6</title>
<g id="a_edge5_Node000001_Node000006"><a xlink:title=" ">
<path fill="none" stroke="#63b8ff" d="M479.14,-296.95C463.05,-287.14 441.27,-273.59 422.5,-261 395.57,-242.94 365.32,-220.89 346.1,-206.66"/>
<polygon fill="#63b8ff" stroke="#63b8ff" points="347.97,-203.68 337.86,-200.53 343.79,-209.3 347.97,-203.68"/>
</a>
</g>
</g>
<!-- Node7 -->
<g id="Node000007" class="node">
<title>Node7</title>
<g id="a_Node000007"><a xlink:title=" ">
<polygon fill="#e0e0e0" stroke="#999999" points="430.5,-200.5 374.5,-200.5 374.5,-181.5 430.5,-181.5 430.5,-200.5"/>
<text text-anchor="middle" x="402.5" y="-188.5" font-family="Helvetica,sans-Serif" font-size="10.00">QDialog</text>
</a>
</g>
</g>
<!-- Node1&#45;&gt;Node7 -->
<g id="edge6_Node000001_Node000007" class="edge">
<title>Node1&#45;&gt;Node7</title>
<g id="a_edge6_Node000001_Node000007"><a xlink:title=" ">
<path fill="none" stroke="#63b8ff" d="M479.77,-296.82C466.55,-287.76 450.23,-275.09 438.5,-261 425.7,-245.62 415.66,-224.95 409.48,-210.26"/>
<polygon fill="#63b8ff" stroke="#63b8ff" points="412.64,-208.74 405.67,-200.77 406.15,-211.35 412.64,-208.74"/>
</a>
</g>
</g>
<!-- Node8 -->
<g id="Node000008" class="node">
<title>Node8</title>
<g id="a_Node000008"><a xlink:href="../../d7/d5b/options_8h.html" target="_top" xlink:title=" ">
<polygon fill="white" stroke="#666666" points="659,-200.5 588,-200.5 588,-181.5 659,-181.5 659,-200.5"/>
<text text-anchor="middle" x="623.5" y="-188.5" font-family="Helvetica,sans-Serif" font-size="10.00">../options.h</text>
</a>
</g>
</g>
<!-- Node1&#45;&gt;Node8 -->
<g id="edge7_Node000001_Node000008" class="edge">
<title>Node1&#45;&gt;Node8</title>
<g id="a_edge7_Node000001_Node000008"><a xlink:title=" ">
<path fill="none" stroke="#63b8ff" d="M531.46,-296.91C547.5,-288.12 567.05,-275.7 581.5,-261 596.19,-246.05 608.05,-225.03 615.37,-210.13"/>
<polygon fill="#63b8ff" stroke="#63b8ff" points="618.6,-211.47 619.69,-200.94 612.27,-208.5 618.6,-211.47"/>
</a>
</g>
</g>
<!-- Node13 -->
<g id="Node000013" class="node">
<title>Node13</title>
<g id="a_Node000013"><a xlink:href="../../d9/d02/vapplication_8h.html" target="_top" xlink:title=" ">
<polygon fill="white" stroke="#666666" points="779,-261 660,-261 660,-242 779,-242 779,-261"/>
<text text-anchor="middle" x="719.5" y="-249" font-family="Helvetica,sans-Serif" font-size="10.00">../core/vapplication.h</text>
</a>
</g>
</g>
<!-- Node1&#45;&gt;Node13 -->
<g id="edge12_Node000001_Node000013" class="edge">
<title>Node1&#45;&gt;Node13</title>
<g id="a_edge12_Node000001_Node000013"><a xlink:title=" ">
<path fill="none" stroke="#63b8ff" d="M554.48,-296.99C592.25,-286.8 642.71,-273.2 677.84,-263.73"/>
<polygon fill="#63b8ff" stroke="#63b8ff" points="679.03,-267.04 687.77,-261.05 677.2,-260.28 679.03,-267.04"/>
</a>
</g>
</g>
<!-- Node52 -->
<g id="Node000052" class="node">
<title>Node52</title>
<g id="a_Node000052"><a xlink:title=" ">
<polygon fill="#e0e0e0" stroke="#999999" points="910,-261 797,-261 797,-242 910,-242 910,-261"/>
<text text-anchor="middle" x="853.5" y="-249" font-family="Helvetica,sans-Serif" font-size="10.00">../fervor/fvupdater.h</text>
</a>
</g>
</g>
<!-- Node1&#45;&gt;Node52 -->
<g id="edge59_Node000001_Node000052" class="edge">
<title>Node1&#45;&gt;Node52</title>
<g id="a_edge59_Node000001_Node000052"><a xlink:title=" ">
<path fill="none" stroke="#63b8ff" d="M573.11,-299.23C637.39,-288.52 731.34,-272.86 792.45,-262.67"/>
<polygon fill="#63b8ff" stroke="#63b8ff" points="793.05,-266.12 802.34,-261.03 791.9,-259.22 793.05,-266.12"/>
</a>
</g>
</g>
<!-- Node53 -->
<g id="Node000053" class="node">
<title>Node53</title>
<g id="a_Node000053"><a xlink:title=" ">
<polygon fill="#e0e0e0" stroke="#999999" points="570,-206 449,-206 449,-176 570,-176 570,-206"/>
<text text-anchor="start" x="457" y="-194" font-family="Helvetica,sans-Serif" font-size="10.00">../vwidgets/calculator</text>
<text text-anchor="middle" x="509.5" y="-183" font-family="Helvetica,sans-Serif" font-size="10.00">/calculator.h</text>
</a>
</g>
</g>
<!-- Node1&#45;&gt;Node53 -->
<g id="edge60_Node000001_Node000053" class="edge">
<title>Node1&#45;&gt;Node53</title>
<g id="a_edge60_Node000001_Node000053"><a xlink:title=" ">
<path fill="none" stroke="#63b8ff" d="M530.12,-296.85C543.44,-288.41 558.09,-276.34 565.5,-261 574.32,-242.73 559.31,-225.03 542.62,-212.13"/>
<polygon fill="#63b8ff" stroke="#63b8ff" points="544.55,-209.2 534.39,-206.2 540.46,-214.88 544.55,-209.2"/>
</a>
</g>
</g>
<!-- Node54 -->
<g id="Node000054" class="node">
<title>Node54</title>
<g id="a_Node000054"><a xlink:href="../../d7/d73/calculator__dialog_8h.html" target="_top" xlink:title=" ">
<polygon fill="white" stroke="#666666" points="557,-261 448,-261 448,-242 557,-242 557,-261"/>
<text text-anchor="middle" x="502.5" y="-249" font-family="Helvetica,sans-Serif" font-size="10.00">calculator_dialog.h</text>
</a>
</g>
</g>
<!-- Node1&#45;&gt;Node54 -->
<g id="edge61_Node000001_Node000054" class="edge">
<title>Node1&#45;&gt;Node54</title>
<g id="a_edge61_Node000001_Node000054"><a xlink:title=" ">
<path fill="none" stroke="#63b8ff" d="M502.5,-296.84C502.5,-289.21 502.5,-279.7 502.5,-271.45"/>
<polygon fill="#63b8ff" stroke="#63b8ff" points="506,-271.27 502.5,-261.27 499,-271.27 506,-271.27"/>
</a>
</g>
</g>
<!-- Node55 -->
<g id="Node000055" class="node">
<title>Node55</title>
<g id="a_Node000055"><a xlink:title=" ">
<polygon fill="#e0e0e0" stroke="#999999" points="1051,-261 928,-261 928,-242 1051,-242 1051,-261"/>
<text text-anchor="middle" x="989.5" y="-249" font-family="Helvetica,sans-Serif" font-size="10.00">ui_calculator_dialog.h</text>
</a>
</g>
</g>
<!-- Node1&#45;&gt;Node55 -->
<g id="edge65_Node000001_Node000055" class="edge">
<title>Node1&#45;&gt;Node55</title>
<g id="a_edge65_Node000001_Node000055"><a xlink:title=" ">
<path fill="none" stroke="#63b8ff" d="M573.34,-302.54C654.12,-292.88 790.46,-276.56 917.38,-261.26"/>
<polygon fill="#63b8ff" stroke="#63b8ff" points="918.16,-264.69 927.66,-260.01 917.32,-257.74 918.16,-264.69"/>
</a>
</g>
</g>
<!-- Node56 -->
<g id="Node000056" class="node">
<title>Node56</title>
<g id="a_Node000056"><a xlink:href="../../d1/d9f/seamly2d_2version_8h.html" target="_top" xlink:title=" ">
<polygon fill="white" stroke="#666666" points="1360,-261 1289,-261 1289,-242 1360,-242 1360,-261"/>
<text text-anchor="middle" x="1324.5" y="-249" font-family="Helvetica,sans-Serif" font-size="10.00">../version.h</text>
</a>
</g>
</g>
<!-- Node1&#45;&gt;Node56 -->
<g id="edge66_Node000001_Node000056" class="edge">
<title>Node1&#45;&gt;Node56</title>
<g id="a_edge66_Node000001_Node000056"><a xlink:title=" ">
<path fill="none" stroke="#63b8ff" d="M573.29,-305.96C737.83,-294.25 1142.34,-265.46 1278.74,-255.76"/>
<polygon fill="#63b8ff" stroke="#63b8ff" points="1279.12,-259.24 1288.84,-255.04 1278.62,-252.26 1279.12,-259.24"/>
</a>
</g>
</g>
<!-- Node9 -->
<g id="Node000009" class="node">
<title>Node9</title>
<g id="a_Node000009"><a xlink:title=" ">
<polygon fill="#e0e0e0" stroke="#999999" points="776,-74 699,-74 699,-55 776,-55 776,-74"/>
<text text-anchor="middle" x="737.5" y="-62" font-family="Helvetica,sans-Serif" font-size="10.00">../ifc/ifcdef.h</text>
</a>
</g>
</g>
<!-- Node8&#45;&gt;Node9 -->
<g id="edge8_Node000008_Node000009" class="edge">
<title>Node8&#45;&gt;Node9</title>
<g id="a_edge8_Node000008_Node000009"><a xlink:title=" ">
<path fill="none" stroke="#63b8ff" d="M596.43,-181.36C590.54,-179.54 584.32,-177.67 578.5,-176 513.53,-157.37 397.4,-161.22 441.5,-110 472.79,-73.66 612.82,-66.59 688.53,-65.47"/>
<polygon fill="#63b8ff" stroke="#63b8ff" points="688.81,-68.97 698.77,-65.35 688.73,-61.97 688.81,-68.97"/>
</a>
</g>
</g>
<!-- Node10 -->
<g id="Node000010" class="node">
<title>Node10</title>
<g id="a_Node000010"><a xlink:title=" ">
<polygon fill="#e0e0e0" stroke="#999999" points="244,-134.5 85,-134.5 85,-115.5 244,-115.5 244,-134.5"/>
<text text-anchor="middle" x="164.5" y="-122.5" font-family="Helvetica,sans-Serif" font-size="10.00">../vgeometry/vgeometrydef.h</text>
</a>
</g>
</g>
<!-- Node8&#45;&gt;Node10 -->
<g id="edge9_Node000008_Node000010" class="edge">
<title>Node8&#45;&gt;Node10</title>
<g id="a_edge9_Node000008_Node000010"><a xlink:title=" ">
<path fill="none" stroke="#63b8ff" d="M598.97,-181.43C592.39,-179.39 585.23,-177.4 578.5,-176 435.81,-146.21 396.97,-159.46 252.5,-140 243.81,-138.83 234.66,-137.49 225.67,-136.12"/>
<polygon fill="#63b8ff" stroke="#63b8ff" points="226.04,-132.63 215.63,-134.56 224.97,-139.55 226.04,-132.63"/>
</a>
</g>
</g>
<!-- Node11 -->
<g id="Node000011" class="node">
<title>Node11</title>
<g id="a_Node000011"><a xlink:title=" ">
<polygon fill="#e0e0e0" stroke="#999999" points="389,-134.5 262,-134.5 262,-115.5 389,-115.5 389,-134.5"/>
<text text-anchor="middle" x="325.5" y="-122.5" font-family="Helvetica,sans-Serif" font-size="10.00">../qmuparser/qmudef.h</text>
</a>
</g>
</g>
<!-- Node8&#45;&gt;Node11 -->
<g id="edge10_Node000008_Node000011" class="edge">
<title>Node8&#45;&gt;Node11</title>
<g id="a_edge10_Node000008_Node000011"><a xlink:title=" ">
<path fill="none" stroke="#63b8ff" d="M597.46,-181.38C591.28,-179.48 584.69,-177.57 578.5,-176 542.07,-166.76 444.59,-148.13 381.82,-136.41"/>
<polygon fill="#63b8ff" stroke="#63b8ff" points="382.15,-132.91 371.67,-134.51 380.86,-139.79 382.15,-132.91"/>
</a>
</g>
</g>
<!-- Node12 -->
<g id="Node000012" class="node">
<title>Node12</title>
<g id="a_Node000012"><a xlink:title=" ">
<polygon fill="#e0e0e0" stroke="#999999" points="1166.5,-74 1084.5,-74 1084.5,-55 1166.5,-55 1166.5,-74"/>
<text text-anchor="middle" x="1125.5" y="-62" font-family="Helvetica,sans-Serif" font-size="10.00">../vmisc/def.h</text>
</a>
</g>
</g>
<!-- Node8&#45;&gt;Node12 -->
<g id="edge11_Node000008_Node000012" class="edge">
<title>Node8&#45;&gt;Node12</title>
<g id="a_edge11_Node000008_Node000012"><a xlink:title=" ">
<path fill="none" stroke="#63b8ff" d="M596.59,-181.41C554.17,-167.8 476.35,-142.58 474.5,-140 466.71,-129.18 465.4,-119.74 474.5,-110 494.89,-88.17 923.66,-72.1 1073.98,-67.12"/>
<polygon fill="#63b8ff" stroke="#63b8ff" points="1074.44,-70.61 1084.32,-66.78 1074.21,-63.61 1074.44,-70.61"/>
</a>
</g>
</g>
<!-- Node13&#45;&gt;Node8 -->
<g id="edge14_Node000013_Node000008" class="edge">
<title>Node13&#45;&gt;Node8</title>
<g id="a_edge14_Node000013_Node000008"><a xlink:title=" ">
<path fill="none" stroke="#63b8ff" d="M705.33,-241.87C689.81,-232.41 664.67,-217.09 646.35,-205.92"/>
<polygon fill="#63b8ff" stroke="#63b8ff" points="648.08,-202.88 637.72,-200.67 644.44,-208.86 648.08,-202.88"/>
</a>
</g>
</g>
<!-- Node14 -->
<g id="Node000014" class="node">
<title>Node14</title>
<g id="a_Node000014"><a xlink:title=" ">
<polygon fill="#e0e0e0" stroke="#999999" points="946,-200.5 779,-200.5 779,-181.5 946,-181.5 946,-200.5"/>
<text text-anchor="middle" x="862.5" y="-188.5" font-family="Helvetica,sans-Serif" font-size="10.00">../vmisc/vabstractapplication.h</text>
</a>
</g>
</g>
<!-- Node13&#45;&gt;Node14 -->
<g id="edge13_Node000013_Node000014" class="edge">
<title>Node13&#45;&gt;Node14</title>
<g id="a_edge13_Node000013_Node000014"><a xlink:title=" ">
<path fill="none" stroke="#63b8ff" d="M740.29,-241.99C764.44,-232.12 804.48,-215.73 832.12,-204.43"/>
<polygon fill="#63b8ff" stroke="#63b8ff" points="833.75,-207.54 841.68,-200.52 831.1,-201.06 833.75,-207.54"/>
</a>
</g>
</g>
<!-- Node15 -->
<g id="Node000015" class="node">
<title>Node15</title>
<g id="a_Node000015"><a xlink:title=" ">
<polygon fill="#e0e0e0" stroke="#999999" points="1139.5,-200.5 963.5,-200.5 963.5,-181.5 1139.5,-181.5 1139.5,-200.5"/>
<text text-anchor="middle" x="1051.5" y="-188.5" font-family="Helvetica,sans-Serif" font-size="10.00">../vwidgets/vmaingraphicsview.h</text>
</a>
</g>
</g>
<!-- Node13&#45;&gt;Node15 -->
<g id="edge15_Node000013_Node000015" class="edge">
<title>Node13&#45;&gt;Node15</title>
<g id="a_edge15_Node000013_Node000015"><a xlink:title=" ">
<path fill="none" stroke="#63b8ff" d="M767.78,-241.99C827.52,-231.47 929.19,-213.55 993.22,-202.27"/>
<polygon fill="#63b8ff" stroke="#63b8ff" points="993.93,-205.7 1003.17,-200.52 992.71,-198.81 993.93,-205.7"/>
</a>
</g>
</g>
<!-- Node16 -->
<g id="Node000016" class="node">
<title>Node16</title>
<g id="a_Node000016"><a xlink:title=" ">
<polygon fill="#e0e0e0" stroke="#999999" points="1319,-200.5 1158,-200.5 1158,-181.5 1319,-181.5 1319,-200.5"/>
<text text-anchor="middle" x="1238.5" y="-188.5" font-family="Helvetica,sans-Serif" font-size="10.00">../vpatterndb/vtranslatevars.h</text>
</a>
</g>
</g>
<!-- Node13&#45;&gt;Node16 -->
<g id="edge16_Node000013_Node000016" class="edge">
<title>Node13&#45;&gt;Node16</title>
<g id="a_edge16_Node000013_Node000016"><a xlink:title=" ">
<path fill="none" stroke="#63b8ff" d="M779.33,-243.04C782.43,-242.68 785.5,-242.33 788.5,-242 948.31,-224.17 989,-226.37 1148.5,-206 1157.6,-204.84 1167.2,-203.48 1176.6,-202.08"/>
<polygon fill="#63b8ff" stroke="#63b8ff" points="1177.33,-205.51 1186.69,-200.55 1176.28,-198.59 1177.33,-205.51"/>
</a>
</g>
</g>
<!-- Node17 -->
<g id="Node000017" class="node">
<title>Node17</title>
<g id="a_Node000017"><a xlink:href="../../dd/db2/vsettings_8h.html" target="_top" xlink:title=" ">
<polygon fill="white" stroke="#666666" points="1496,-200.5 1425,-200.5 1425,-181.5 1496,-181.5 1496,-200.5"/>
<text text-anchor="middle" x="1460.5" y="-188.5" font-family="Helvetica,sans-Serif" font-size="10.00">vsettings.h</text>
</a>
</g>
</g>
<!-- Node13&#45;&gt;Node17 -->
<g id="edge17_Node000013_Node000017" class="edge">
<title>Node13&#45;&gt;Node17</title>
<g id="a_edge17_Node000013_Node000017"><a xlink:title=" ">
<path fill="none" stroke="#63b8ff" d="M779.32,-242.92C782.42,-242.6 785.5,-242.28 788.5,-242 1027.96,-219.29 1088.86,-226.69 1328.5,-206 1357.26,-203.52 1389.47,-200.11 1414.87,-197.28"/>
<polygon fill="#63b8ff" stroke="#63b8ff" points="1415.41,-200.74 1424.96,-196.15 1414.63,-193.79 1415.41,-200.74"/>
</a>
</g>
</g>
<!-- Node41 -->
<g id="Node000041" class="node">
<title>Node41</title>
<g id="a_Node000041"><a xlink:href="../../dd/d57/vcmdexport_8h.html" target="_top" xlink:title=" ">
<polygon fill="white" stroke="#666666" points="761.5,-200.5 677.5,-200.5 677.5,-181.5 761.5,-181.5 761.5,-200.5"/>
<text text-anchor="middle" x="719.5" y="-188.5" font-family="Helvetica,sans-Serif" font-size="10.00">vcmdexport.h</text>
</a>
</g>
</g>
<!-- Node13&#45;&gt;Node41 -->
<g id="edge47_Node000013_Node000041" class="edge">
<title>Node13&#45;&gt;Node41</title>
<g id="a_edge47_Node000013_Node000041"><a xlink:title=" ">
<path fill="none" stroke="#63b8ff" d="M719.5,-241.87C719.5,-233.75 719.5,-221.31 719.5,-210.89"/>
<polygon fill="#63b8ff" stroke="#63b8ff" points="723,-210.67 719.5,-200.67 716,-210.67 723,-210.67"/>
</a>
</g>
</g>
<!-- Node18 -->
<g id="Node000018" class="node">
<title>Node18</title>
<g id="a_Node000018"><a xlink:title=" ">
<polygon fill="#e0e0e0" stroke="#999999" points="1346.5,-74 1266.5,-74 1266.5,-55 1346.5,-55 1346.5,-74"/>
<text text-anchor="middle" x="1306.5" y="-62" font-family="Helvetica,sans-Serif" font-size="10.00">QMetaObject</text>
</a>
</g>
</g>
<!-- Node17&#45;&gt;Node18 -->
<g id="edge18_Node000017_Node000018" class="edge">
<title>Node17&#45;&gt;Node18</title>
<g id="a_edge18_Node000017_Node000018"><a xlink:title=" ">
<path fill="none" stroke="#63b8ff" d="M1449.91,-181.44C1424.09,-160.56 1357.59,-106.8 1325.02,-80.47"/>
<polygon fill="#63b8ff" stroke="#63b8ff" points="1327.14,-77.68 1317.16,-74.12 1322.74,-83.13 1327.14,-77.68"/>
</a>
</g>
</g>
<!-- Node19 -->
<g id="Node000019" class="node">
<title>Node19</title>
<g id="a_Node000019"><a xlink:title=" ">
<polygon fill="#e0e0e0" stroke="#999999" points="1420.5,-74 1364.5,-74 1364.5,-55 1420.5,-55 1420.5,-74"/>
<text text-anchor="middle" x="1392.5" y="-62" font-family="Helvetica,sans-Serif" font-size="10.00">QObject</text>
</a>
</g>
</g>
<!-- Node17&#45;&gt;Node19 -->
<g id="edge19_Node000017_Node000019" class="edge">
<title>Node17&#45;&gt;Node19</title>
<g id="a_edge19_Node000017_Node000019"><a xlink:title=" ">
<path fill="none" stroke="#63b8ff" d="M1455.83,-181.44C1444.76,-161.19 1416.79,-109.97 1402,-82.9"/>
<polygon fill="#63b8ff" stroke="#63b8ff" points="1405.07,-81.22 1397.21,-74.12 1398.93,-84.57 1405.07,-81.22"/>
</a>
</g>
</g>
<!-- Node20 -->
<g id="Node000020" class="node">
<title>Node20</title>
<g id="a_Node000020"><a xlink:title=" ">
<polygon fill="#e0e0e0" stroke="#999999" points="1662.5,-74 1598.5,-74 1598.5,-55 1662.5,-55 1662.5,-74"/>
<text text-anchor="middle" x="1630.5" y="-62" font-family="Helvetica,sans-Serif" font-size="10.00">QSettings</text>
</a>
</g>
</g>
<!-- Node17&#45;&gt;Node20 -->
<g id="edge20_Node000017_Node000020" class="edge">
<title>Node17&#45;&gt;Node20</title>
<g id="a_edge20_Node000017_Node000020"><a xlink:title=" ">
<path fill="none" stroke="#63b8ff" d="M1487.36,-181.47C1530.17,-167.82 1609.31,-142.35 1611.5,-140 1625.55,-124.93 1629.57,-100.94 1630.54,-84.27"/>
<polygon fill="#63b8ff" stroke="#63b8ff" points="1634.04,-84.19 1630.81,-74.1 1627.04,-84.01 1634.04,-84.19"/>
</a>
</g>
</g>
<!-- Node21 -->
<g id="Node000021" class="node">
<title>Node21</title>
<g id="a_Node000021"><a xlink:title=" ">
<polygon fill="#e0e0e0" stroke="#999999" points="1734,-74 1681,-74 1681,-55 1734,-55 1734,-74"/>
<text text-anchor="middle" x="1707.5" y="-62" font-family="Helvetica,sans-Serif" font-size="10.00">QString</text>
</a>
</g>
</g>
<!-- Node17&#45;&gt;Node21 -->
<g id="edge21_Node000017_Node000021" class="edge">
<title>Node17&#45;&gt;Node21</title>
<g id="a_edge21_Node000017_Node000021"><a xlink:title=" ">
<path fill="none" stroke="#63b8ff" d="M1487.59,-181.45C1493.49,-179.62 1499.7,-177.73 1505.5,-176 1561.74,-159.28 1581.85,-169.62 1632.5,-140 1658.13,-125.01 1681.32,-99.21 1694.92,-82.25"/>
<polygon fill="#63b8ff" stroke="#63b8ff" points="1697.73,-84.33 1701.12,-74.29 1692.21,-80.03 1697.73,-84.33"/>
</a>
</g>
</g>
<!-- Node22 -->
<g id="Node000022" class="node">
<title>Node22</title>
<g id="a_Node000022"><a xlink:title=" ">
<polygon fill="#e0e0e0" stroke="#999999" points="1740,-19 1681,-19 1681,0 1740,0 1740,-19"/>
<text text-anchor="middle" x="1710.5" y="-7" font-family="Helvetica,sans-Serif" font-size="10.00">QtGlobal</text>
</a>
</g>
</g>
<!-- Node17&#45;&gt;Node22 -->
<g id="edge22_Node000017_Node000022" class="edge">
<title>Node17&#45;&gt;Node22</title>
<g id="a_edge22_Node000017_Node000022"><a xlink:title=" ">
<path fill="none" stroke="#63b8ff" d="M1484.53,-181.38C1491.23,-179.29 1498.58,-177.29 1505.5,-176 1715.32,-136.93 2321.94,-236.34 2460.5,-74 2465.98,-67.58 2466.29,-61.15 2460.5,-55 2435.96,-28.96 1902.21,-14.86 1750.43,-11.37"/>
<polygon fill="#63b8ff" stroke="#63b8ff" points="1750.25,-7.86 1740.18,-11.14 1750.09,-14.86 1750.25,-7.86"/>
</a>
</g>
</g>
<!-- Node23 -->
<g id="Node000023" class="node">
<title>Node23</title>
<g id="a_Node000023"><a xlink:title=" ">
<polygon fill="#e0e0e0" stroke="#999999" points="1248,-74 1185,-74 1185,-55 1248,-55 1248,-74"/>
<text text-anchor="middle" x="1216.5" y="-62" font-family="Helvetica,sans-Serif" font-size="10.00">QMargins</text>
</a>
</g>
</g>
<!-- Node17&#45;&gt;Node23 -->
<g id="edge23_Node000017_Node000023" class="edge">
<title>Node17&#45;&gt;Node23</title>
<g id="a_edge23_Node000017_Node000023"><a xlink:title=" ">
<path fill="none" stroke="#63b8ff" d="M1443.12,-181.4C1423.14,-171.5 1389.39,-154.7 1360.5,-140 1318.8,-118.79 1270.55,-93.72 1241.83,-78.74"/>
<polygon fill="#63b8ff" stroke="#63b8ff" points="1243.36,-75.59 1232.87,-74.07 1240.12,-81.79 1243.36,-75.59"/>
</a>
</g>
</g>
<!-- Node24 -->
<g id="Node000024" class="node">
<title>Node24</title>
<g id="a_Node000024"><a xlink:href="../../d4/da4/def_8h.html" target="_top" xlink:title=" ">
<polygon fill="white" stroke="#666666" points="2036.5,-134.5 1954.5,-134.5 1954.5,-115.5 2036.5,-115.5 2036.5,-134.5"/>
<text text-anchor="middle" x="1995.5" y="-122.5" font-family="Helvetica,sans-Serif" font-size="10.00">../vmisc/def.h</text>
</a>
</g>
</g>
<!-- Node17&#45;&gt;Node24 -->
<g id="edge24_Node000017_Node000024" class="edge">
<title>Node17&#45;&gt;Node24</title>
<g id="a_edge24_Node000017_Node000024"><a xlink:title=" ">
<path fill="none" stroke="#63b8ff" d="M1485.03,-181.4C1491.61,-179.36 1498.77,-177.38 1505.5,-176 1663.45,-143.71 1854.52,-131.86 1944.25,-127.86"/>
<polygon fill="#63b8ff" stroke="#63b8ff" points="1944.59,-131.35 1954.43,-127.42 1944.29,-124.35 1944.59,-131.35"/>
</a>
</g>
</g>
<!-- Node34 -->
<g id="Node000034" class="node">
<title>Node34</title>
<g id="a_Node000034"><a xlink:href="../../de/dec/vbank_8h.html" target="_top" xlink:title=" ">
<polygon fill="#fff0f0" stroke="red" points="1542.5,-74 1438.5,-74 1438.5,-55 1542.5,-55 1542.5,-74"/>
<text text-anchor="middle" x="1490.5" y="-62" font-family="Helvetica,sans-Serif" font-size="10.00">../vlayout/vbank.h</text>
</a>
</g>
</g>
<!-- Node17&#45;&gt;Node34 -->
<g id="edge35_Node000017_Node000034" class="edge">
<title>Node17&#45;&gt;Node34</title>
<g id="a_edge35_Node000017_Node000034"><a xlink:title=" ">
<path fill="none" stroke="#63b8ff" d="M1462.56,-181.44C1467.38,-161.45 1479.46,-111.32 1486.05,-83.98"/>
<polygon fill="#63b8ff" stroke="#63b8ff" points="1489.48,-84.66 1488.42,-74.12 1482.68,-83.02 1489.48,-84.66"/>
</a>
</g>
</g>
<!-- Node38 -->
<g id="Node000038" class="node">
<title>Node38</title>
<g id="a_Node000038"><a xlink:href="../../d4/d5c/vcommonsettings_8h.html" target="_top" xlink:title=" ">
<polygon fill="#fff0f0" stroke="red" points="1602,-134.5 1489,-134.5 1489,-115.5 1602,-115.5 1602,-134.5"/>
<text text-anchor="middle" x="1545.5" y="-122.5" font-family="Helvetica,sans-Serif" font-size="10.00">vcommonsettings.h</text>
</a>
</g>
</g>
<!-- Node17&#45;&gt;Node38 -->
<g id="edge39_Node000017_Node000038" class="edge">
<title>Node17&#45;&gt;Node38</title>
<g id="a_edge39_Node000017_Node000038"><a xlink:title=" ">
<path fill="none" stroke="#63b8ff" d="M1471.96,-181.37C1485.78,-170.97 1509.21,-153.32 1525.91,-140.75"/>
<polygon fill="#63b8ff" stroke="#63b8ff" points="1528.06,-143.51 1533.95,-134.7 1523.85,-137.92 1528.06,-143.51"/>
</a>
</g>
</g>
<!-- Node24&#45;&gt;Node21 -->
<g id="edge28_Node000024_Node000021" class="edge">
<title>Node24&#45;&gt;Node21</title>
<g id="a_edge28_Node000024_Node000021"><a xlink:title=" ">
<path fill="none" stroke="#63b8ff" d="M1954.38,-116.31C1906.36,-107.23 1824.32,-91.39 1744,-74.04"/>
<polygon fill="#63b8ff" stroke="#63b8ff" points="1744.73,-70.62 1734.21,-71.92 1743.24,-77.46 1744.73,-70.62"/>
</a>
</g>
</g>
<!-- Node24&#45;&gt;Node22 -->
<g id="edge31_Node000024_Node000022" class="edge">
<title>Node24&#45;&gt;Node22</title>
<g id="a_edge31_Node000024_Node000022"><a xlink:title=" ">
<path fill="none" stroke="#63b8ff" d="M1972.71,-115.46C1947.5,-105.87 1905.76,-89.62 1870.5,-74 1852.87,-66.19 1849.24,-62.56 1831.5,-55 1803.09,-42.89 1770.15,-30.91 1745.82,-22.43"/>
<polygon fill="#63b8ff" stroke="#63b8ff" points="1746.88,-19.1 1736.29,-19.14 1744.6,-25.71 1746.88,-19.1"/>
</a>
</g>
</g>
<!-- Node25 -->
<g id="Node000025" class="node">
<title>Node25</title>
<g id="a_Node000025"><a xlink:title=" ">
<polygon fill="#e0e0e0" stroke="#999999" points="2451.5,-74 2331.5,-74 2331.5,-55 2451.5,-55 2451.5,-74"/>
<text text-anchor="middle" x="2391.5" y="-62" font-family="Helvetica,sans-Serif" font-size="10.00">qcompilerdetection.h</text>
</a>
</g>
</g>
<!-- Node24&#45;&gt;Node25 -->
<g id="edge25_Node000024_Node000025" class="edge">
<title>Node24&#45;&gt;Node25</title>
<g id="a_edge25_Node000024_Node000025"><a xlink:title=" ">
<path fill="none" stroke="#63b8ff" d="M2036.76,-117.91C2104.84,-107.85 2241.35,-87.68 2323.75,-75.51"/>
<polygon fill="#63b8ff" stroke="#63b8ff" points="2324.39,-78.95 2333.77,-74.03 2323.37,-72.03 2324.39,-78.95"/>
</a>
</g>
</g>
<!-- Node26 -->
<g id="Node000026" class="node">
<title>Node26</title>
<g id="a_Node000026"><a xlink:title=" ">
<polygon fill="#e0e0e0" stroke="#999999" points="1952,-74 1879,-74 1879,-55 1952,-55 1952,-74"/>
<text text-anchor="middle" x="1915.5" y="-62" font-family="Helvetica,sans-Serif" font-size="10.00">QFileDialog</text>
</a>
</g>
</g>
<!-- Node24&#45;&gt;Node26 -->
<g id="edge26_Node000024_Node000026" class="edge">
<title>Node24&#45;&gt;Node26</title>
<g id="a_edge26_Node000024_Node000026"><a xlink:title=" ">
<path fill="none" stroke="#63b8ff" d="M1983.7,-115.37C1971.05,-106.12 1950.76,-91.28 1935.59,-80.19"/>
<polygon fill="#63b8ff" stroke="#63b8ff" points="1937.49,-77.24 1927.35,-74.17 1933.36,-82.9 1937.49,-77.24"/>
</a>
</g>
</g>
<!-- Node27 -->
<g id="Node000027" class="node">
<title>Node27</title>
<g id="a_Node000027"><a xlink:title=" ">
<polygon fill="#e0e0e0" stroke="#999999" points="2020.5,-74 1970.5,-74 1970.5,-55 2020.5,-55 2020.5,-74"/>
<text text-anchor="middle" x="1995.5" y="-62" font-family="Helvetica,sans-Serif" font-size="10.00">QLineF</text>
</a>
</g>
</g>
<!-- Node24&#45;&gt;Node27 -->
<g id="edge27_Node000024_Node000027" class="edge">
<title>Node24&#45;&gt;Node27</title>
<g id="a_edge27_Node000024_Node000027"><a xlink:title=" ">
<path fill="none" stroke="#63b8ff" d="M1995.5,-115.37C1995.5,-107.25 1995.5,-94.81 1995.5,-84.39"/>
<polygon fill="#63b8ff" stroke="#63b8ff" points="1999,-84.17 1995.5,-74.17 1992,-84.17 1999,-84.17"/>
</a>
</g>
</g>
<!-- Node28 -->
<g id="Node000028" class="node">
<title>Node28</title>
<g id="a_Node000028"><a xlink:title=" ">
<polygon fill="#e0e0e0" stroke="#999999" points="1822.5,-74 1752.5,-74 1752.5,-55 1822.5,-55 1822.5,-74"/>
<text text-anchor="middle" x="1787.5" y="-62" font-family="Helvetica,sans-Serif" font-size="10.00">QStringList</text>
</a>
</g>
</g>
<!-- Node24&#45;&gt;Node28 -->
<g id="edge29_Node000024_Node000028" class="edge">
<title>Node24&#45;&gt;Node28</title>
<g id="a_edge29_Node000024_Node000028"><a xlink:title=" ">
<path fill="none" stroke="#63b8ff" d="M1965.26,-115.49C1928.9,-105.27 1867.77,-88.08 1827.53,-76.76"/>
<polygon fill="#63b8ff" stroke="#63b8ff" points="1828.36,-73.35 1817.78,-74.02 1826.46,-80.09 1828.36,-73.35"/>
</a>
</g>
</g>
<!-- Node29 -->
<g id="Node000029" class="node">
<title>Node29</title>
<g id="a_Node000029"><a xlink:title=" ">
<polygon fill="#e0e0e0" stroke="#999999" points="2068,-74 2039,-74 2039,-55 2068,-55 2068,-74"/>
<text text-anchor="middle" x="2053.5" y="-62" font-family="Helvetica,sans-Serif" font-size="10.00">Qt</text>
</a>
</g>
</g>
<!-- Node24&#45;&gt;Node29 -->
<g id="edge30_Node000024_Node000029" class="edge">
<title>Node24&#45;&gt;Node29</title>
<g id="a_edge30_Node000024_Node000029"><a xlink:title=" ">
<path fill="none" stroke="#63b8ff" d="M2004.06,-115.37C2012.88,-106.47 2026.84,-92.39 2037.68,-81.45"/>
<polygon fill="#63b8ff" stroke="#63b8ff" points="2040.35,-83.73 2044.91,-74.17 2035.38,-78.8 2040.35,-83.73"/>
</a>
</g>
</g>
<!-- Node30 -->
<g id="Node000030" class="node">
<title>Node30</title>
<g id="a_Node000030"><a xlink:title=" ">
<polygon fill="#e0e0e0" stroke="#999999" points="2142.5,-74 2086.5,-74 2086.5,-55 2142.5,-55 2142.5,-74"/>
<text text-anchor="middle" x="2114.5" y="-62" font-family="Helvetica,sans-Serif" font-size="10.00">QPrinter</text>
</a>
</g>
</g>
<!-- Node24&#45;&gt;Node30 -->
<g id="edge32_Node000024_Node000030" class="edge">
<title>Node24&#45;&gt;Node30</title>
<g id="a_edge32_Node000024_Node000030"><a xlink:title=" ">
<path fill="none" stroke="#63b8ff" d="M2012.8,-115.49C2032.55,-105.79 2065.05,-89.81 2087.99,-78.53"/>
<polygon fill="#63b8ff" stroke="#63b8ff" points="2089.75,-81.57 2097.18,-74.02 2086.66,-75.29 2089.75,-81.57"/>
</a>
</g>
</g>
<!-- Node31 -->
<g id="Node000031" class="node">
<title>Node31</title>
<g id="a_Node000031"><a xlink:title=" ">
<polygon fill="#e0e0e0" stroke="#999999" points="2212,-74 2161,-74 2161,-55 2212,-55 2212,-74"/>
<text text-anchor="middle" x="2186.5" y="-62" font-family="Helvetica,sans-Serif" font-size="10.00">csignal</text>
</a>
</g>
</g>
<!-- Node24&#45;&gt;Node31 -->
<g id="edge33_Node000024_Node000031" class="edge">
<title>Node24&#45;&gt;Node31</title>
<g id="a_edge33_Node000024_Node000031"><a xlink:title=" ">
<path fill="none" stroke="#63b8ff" d="M2023.27,-115.49C2057.04,-105.15 2114.07,-87.69 2150.99,-76.38"/>
<polygon fill="#63b8ff" stroke="#63b8ff" points="2152.3,-79.64 2160.83,-73.36 2150.25,-72.94 2152.3,-79.64"/>
</a>
</g>
</g>
<!-- Node32 -->
<g id="Node000032" class="node">
<title>Node32</title>
<g id="a_Node000032"><a xlink:href="../../d4/d82/debugbreak_8h.html" target="_top" xlink:title=" ">
<polygon fill="#fff0f0" stroke="red" points="2313,-74 2230,-74 2230,-55 2313,-55 2313,-74"/>
<text text-anchor="middle" x="2271.5" y="-62" font-family="Helvetica,sans-Serif" font-size="10.00">debugbreak.h</text>
</a>
</g>
</g>
<!-- Node24&#45;&gt;Node32 -->
<g id="edge34_Node000024_Node000032" class="edge">
<title>Node24&#45;&gt;Node32</title>
<g id="a_edge34_Node000024_Node000032"><a xlink:title=" ">
<path fill="none" stroke="#63b8ff" d="M2035.63,-115.49C2084.79,-105.07 2168.09,-87.42 2221.4,-76.12"/>
<polygon fill="#63b8ff" stroke="#63b8ff" points="2222.26,-79.51 2231.32,-74.02 2220.81,-72.67 2222.26,-79.51"/>
</a>
</g>
</g>
<!-- Node34&#45;&gt;Node22 -->
<g id="edge38_Node000034_Node000022" class="edge">
<title>Node34&#45;&gt;Node22</title>
<g id="a_edge38_Node000034_Node000022"><a xlink:title=" ">
<path fill="none" stroke="#63b8ff" d="M1525.85,-54.98C1565.49,-45.44 1629.61,-29.99 1670.91,-20.04"/>
<polygon fill="#63b8ff" stroke="#63b8ff" points="1671.98,-23.38 1680.88,-17.63 1670.34,-16.57 1671.98,-23.38"/>
</a>
</g>
</g>
<!-- Node35 -->
<g id="Node000035" class="node">
<title>Node35</title>
<g id="a_Node000035"><a xlink:title=" ">
<polygon fill="#e0e0e0" stroke="#999999" points="1549,-19 1500,-19 1500,0 1549,0 1549,-19"/>
<text text-anchor="middle" x="1524.5" y="-7" font-family="Helvetica,sans-Serif" font-size="10.00">QHash</text>
</a>
</g>
</g>
<!-- Node34&#45;&gt;Node35 -->
<g id="edge36_Node000034_Node000035" class="edge">
<title>Node34&#45;&gt;Node35</title>
<g id="a_edge36_Node000034_Node000035"><a xlink:title=" ">
<path fill="none" stroke="#63b8ff" d="M1496.11,-54.75C1500.82,-47.42 1507.67,-36.73 1513.47,-27.7"/>
<polygon fill="#63b8ff" stroke="#63b8ff" points="1516.54,-29.4 1518.99,-19.09 1510.64,-25.62 1516.54,-29.4"/>
</a>
</g>
</g>
<!-- Node36 -->
<g id="Node000036" class="node">
<title>Node36</title>
<g id="a_Node000036"><a xlink:title=" ">
<polygon fill="#e0e0e0" stroke="#999999" points="1481.5,-19 1429.5,-19 1429.5,0 1481.5,0 1481.5,-19"/>
<text text-anchor="middle" x="1455.5" y="-7" font-family="Helvetica,sans-Serif" font-size="10.00">QRectF</text>
</a>
</g>
</g>
<!-- Node34&#45;&gt;Node36 -->
<g id="edge37_Node000034_Node000036" class="edge">
<title>Node34&#45;&gt;Node36</title>
<g id="a_edge37_Node000034_Node000036"><a xlink:title=" ">
<path fill="none" stroke="#63b8ff" d="M1484.72,-54.75C1479.88,-47.42 1472.82,-36.73 1466.86,-27.7"/>
<polygon fill="#63b8ff" stroke="#63b8ff" points="1469.6,-25.5 1461.17,-19.09 1463.76,-29.36 1469.6,-25.5"/>
</a>
</g>
</g>
<!-- Node38&#45;&gt;Node18 -->
<g id="edge40_Node000038_Node000018" class="edge">
<title>Node38&#45;&gt;Node18</title>
<g id="a_edge40_Node000038_Node000018"><a xlink:title=" ">
<path fill="none" stroke="#63b8ff" d="M1510.75,-115.49C1468.53,-105.16 1397.25,-87.71 1351.04,-76.4"/>
<polygon fill="#63b8ff" stroke="#63b8ff" points="1351.84,-72.99 1341.29,-74.02 1350.18,-79.79 1351.84,-72.99"/>
</a>
</g>
</g>
<!-- Node38&#45;&gt;Node19 -->
<g id="edge41_Node000038_Node000019" class="edge">
<title>Node38&#45;&gt;Node19</title>
<g id="a_edge41_Node000038_Node000019"><a xlink:title=" ">
<path fill="none" stroke="#63b8ff" d="M1523.25,-115.49C1497.19,-105.53 1453.82,-88.95 1424.23,-77.63"/>
<polygon fill="#63b8ff" stroke="#63b8ff" points="1425.36,-74.32 1414.77,-74.02 1422.86,-80.86 1425.36,-74.32"/>
</a>
</g>
</g>
<!-- Node38&#45;&gt;Node20 -->
<g id="edge42_Node000038_Node000020" class="edge">
<title>Node38&#45;&gt;Node20</title>
<g id="a_edge42_Node000038_Node000020"><a xlink:title=" ">
<path fill="none" stroke="#63b8ff" d="M1558.04,-115.37C1571.6,-106.04 1593.44,-91.01 1609.6,-79.88"/>
<polygon fill="#63b8ff" stroke="#63b8ff" points="1611.65,-82.72 1617.91,-74.17 1607.68,-76.95 1611.65,-82.72"/>
</a>
</g>
</g>
<!-- Node38&#45;&gt;Node21 -->
<g id="edge43_Node000038_Node000021" class="edge">
<title>Node38&#45;&gt;Node21</title>
<g id="a_edge43_Node000038_Node000021"><a xlink:title=" ">
<path fill="none" stroke="#63b8ff" d="M1569.06,-115.49C1596.77,-105.49 1642.97,-88.8 1674.31,-77.49"/>
<polygon fill="#63b8ff" stroke="#63b8ff" points="1675.7,-80.71 1683.92,-74.02 1673.32,-74.12 1675.7,-80.71"/>
</a>
</g>
</g>
<!-- Node38&#45;&gt;Node22 -->
<g id="edge45_Node000038_Node000022" class="edge">
<title>Node38&#45;&gt;Node22</title>
<g id="a_edge45_Node000038_Node000022"><a xlink:title=" ">
<path fill="none" stroke="#63b8ff" d="M1548.95,-115.06C1555.02,-100.49 1568.91,-71.57 1589.5,-55 1613.1,-36 1645.57,-24.65 1670.93,-18.18"/>
<polygon fill="#63b8ff" stroke="#63b8ff" points="1672.06,-21.51 1680.97,-15.77 1670.43,-14.7 1672.06,-21.51"/>
</a>
</g>
</g>
<!-- Node38&#45;&gt;Node28 -->
<g id="edge44_Node000038_Node000028" class="edge">
<title>Node38&#45;&gt;Node28</title>
<g id="a_edge44_Node000038_Node000028"><a xlink:title=" ">
<path fill="none" stroke="#63b8ff" d="M1580.69,-115.49C1623.43,-105.16 1695.62,-87.71 1742.4,-76.4"/>
<polygon fill="#63b8ff" stroke="#63b8ff" points="1743.37,-79.77 1752.27,-74.02 1741.73,-72.96 1743.37,-79.77"/>
</a>
</g>
</g>
<!-- Node38&#45;&gt;Node34 -->
<g id="edge46_Node000038_Node000034" class="edge">
<title>Node38&#45;&gt;Node34</title>
<g id="a_edge46_Node000038_Node000034"><a xlink:title=" ">
<path fill="none" stroke="#63b8ff" d="M1537.38,-115.37C1529.1,-106.55 1516.03,-92.66 1505.8,-81.77"/>
<polygon fill="#63b8ff" stroke="#63b8ff" points="1508.05,-79.06 1498.65,-74.17 1502.95,-83.85 1508.05,-79.06"/>
</a>
</g>
</g>
<!-- Node41&#45;&gt;Node12 -->
<g id="edge57_Node000041_Node000012" class="edge">
<title>Node41&#45;&gt;Node12</title>
<g id="a_edge57_Node000041_Node000012"><a xlink:title=" ">
<path fill="none" stroke="#63b8ff" d="M747.37,-181.47C754.83,-179.43 762.92,-177.43 770.5,-176 844.72,-161.96 1052.03,-190.16 1108.5,-140 1123.89,-126.33 1126.87,-101.85 1126.83,-84.7"/>
<polygon fill="#63b8ff" stroke="#63b8ff" points="1130.31,-84.08 1126.43,-74.22 1123.31,-84.34 1130.31,-84.08"/>
</a>
</g>
</g>
<!-- Node42 -->
<g id="Node000042" class="node">
<title>Node42</title>
<g id="a_Node000042"><a xlink:title=" ">
<polygon fill="#e0e0e0" stroke="#999999" points="541.5,-134.5 483.5,-134.5 483.5,-115.5 541.5,-115.5 541.5,-134.5"/>
<text text-anchor="middle" x="512.5" y="-122.5" font-family="Helvetica,sans-Serif" font-size="10.00">memory</text>
</a>
</g>
</g>
<!-- Node41&#45;&gt;Node42 -->
<g id="edge48_Node000041_Node000042" class="edge">
<title>Node41&#45;&gt;Node42</title>
<g id="a_edge48_Node000041_Node000042"><a xlink:title=" ">
<path fill="none" stroke="#63b8ff" d="M688.47,-181.48C654.43,-171.97 598.27,-155.85 550.5,-140 548.6,-139.37 546.65,-138.71 544.69,-138.02"/>
<polygon fill="#63b8ff" stroke="#63b8ff" points="545.51,-134.6 534.92,-134.54 543.16,-141.19 545.51,-134.6"/>
</a>
</g>
</g>
<!-- Node43 -->
<g id="Node000043" class="node">
<title>Node43</title>
<g id="a_Node000043"><a xlink:title=" ">
<polygon fill="#e0e0e0" stroke="#999999" points="607,-134.5 560,-134.5 560,-115.5 607,-115.5 607,-134.5"/>
<text text-anchor="middle" x="583.5" y="-122.5" font-family="Helvetica,sans-Serif" font-size="10.00">vector</text>
</a>
</g>
</g>
<!-- Node41&#45;&gt;Node43 -->
<g id="edge49_Node000041_Node000043" class="edge">
<title>Node41&#45;&gt;Node43</title>
<g id="a_edge49_Node000041_Node000043"><a xlink:title=" ">
<path fill="none" stroke="#63b8ff" d="M701.16,-181.37C678.04,-170.49 638.09,-151.69 611.23,-139.05"/>
<polygon fill="#63b8ff" stroke="#63b8ff" points="612.52,-135.79 601.99,-134.7 609.54,-142.12 612.52,-135.79"/>
</a>
</g>
</g>
<!-- Node44 -->
<g id="Node000044" class="node">
<title>Node44</title>
<g id="a_Node000044"><a xlink:title=" ">
<polygon fill="#e0e0e0" stroke="#999999" points="705.5,-134.5 625.5,-134.5 625.5,-115.5 705.5,-115.5 705.5,-134.5"/>
<text text-anchor="middle" x="665.5" y="-122.5" font-family="Helvetica,sans-Serif" font-size="10.00">QTextStream</text>
</a>
</g>
</g>
<!-- Node41&#45;&gt;Node44 -->
<g id="edge50_Node000041_Node000044" class="edge">
<title>Node41&#45;&gt;Node44</title>
<g id="a_edge50_Node000041_Node000044"><a xlink:title=" ">
<path fill="none" stroke="#63b8ff" d="M712.22,-181.37C703.89,-171.5 690.06,-155.11 679.61,-142.72"/>
<polygon fill="#63b8ff" stroke="#63b8ff" points="682.14,-140.29 673.01,-134.91 676.79,-144.81 682.14,-140.29"/>
</a>
</g>
</g>
<!-- Node45 -->
<g id="Node000045" class="node">
<title>Node45</title>
<g id="a_Node000045"><a xlink:title=" ">
<polygon fill="#e0e0e0" stroke="#999999" points="825,-134.5 724,-134.5 724,-115.5 825,-115.5 825,-134.5"/>
<text text-anchor="middle" x="774.5" y="-122.5" font-family="Helvetica,sans-Serif" font-size="10.00">QCoreApplication</text>
</a>
</g>
</g>
<!-- Node41&#45;&gt;Node45 -->
<g id="edge51_Node000041_Node000045" class="edge">
<title>Node41&#45;&gt;Node45</title>
<g id="a_edge51_Node000041_Node000045"><a xlink:title=" ">
<path fill="none" stroke="#63b8ff" d="M726.92,-181.37C735.4,-171.5 749.48,-155.11 760.13,-142.72"/>
<polygon fill="#63b8ff" stroke="#63b8ff" points="762.98,-144.77 766.85,-134.91 757.67,-140.21 762.98,-144.77"/>
</a>
</g>
</g>
<!-- Node46 -->
<g id="Node000046" class="node">
<title>Node46</title>
<g id="a_Node000046"><a xlink:title=" ">
<polygon fill="#e0e0e0" stroke="#999999" points="968,-134.5 843,-134.5 843,-115.5 968,-115.5 968,-134.5"/>
<text text-anchor="middle" x="905.5" y="-122.5" font-family="Helvetica,sans-Serif" font-size="10.00">QCommandLineParser</text>
</a>
</g>
</g>
<!-- Node41&#45;&gt;Node46 -->
<g id="edge52_Node000041_Node000046" class="edge">
<title>Node41&#45;&gt;Node46</title>
<g id="a_edge52_Node000041_Node000046"><a xlink:title=" ">
<path fill="none" stroke="#63b8ff" d="M744.58,-181.37C777.12,-170.17 834.05,-150.58 870.74,-137.96"/>
<polygon fill="#63b8ff" stroke="#63b8ff" points="872.2,-141.16 880.52,-134.6 869.92,-134.54 872.2,-141.16"/>
</a>
</g>
</g>
<!-- Node47 -->
<g id="Node000047" class="node">
<title>Node47</title>
<g id="a_Node000047"><a xlink:href="../../d3/dd8/layoutsettings__dialog_8h.html" target="_top" xlink:title=" ">
<polygon fill="#fff0f0" stroke="red" points="1289.5,-140 1155.5,-140 1155.5,-110 1289.5,-110 1289.5,-140"/>
<text text-anchor="start" x="1163.5" y="-128" font-family="Helvetica,sans-Serif" font-size="10.00">../dialogs/layoutsettings</text>
<text text-anchor="middle" x="1222.5" y="-117" font-family="Helvetica,sans-Serif" font-size="10.00">_dialog.h</text>
</a>
</g>
</g>
<!-- Node41&#45;&gt;Node47 -->
<g id="edge53_Node000041_Node000047" class="edge">
<title>Node41&#45;&gt;Node47</title>
<g id="a_edge53_Node000041_Node000047"><a xlink:title=" ">
<path fill="none" stroke="#63b8ff" d="M747.09,-181.5C754.62,-179.43 762.82,-177.42 770.5,-176 933.42,-145.96 977.32,-162.12 1141.5,-140 1142.77,-139.83 1144.06,-139.65 1145.35,-139.47"/>
<polygon fill="#63b8ff" stroke="#63b8ff" points="1145.99,-142.91 1155.38,-138 1144.97,-135.99 1145.99,-142.91"/>
</a>
</g>
</g>
<!-- Node51 -->
<g id="Node000051" class="node">
<title>Node51</title>
<g id="a_Node000051"><a xlink:title=" ">
<polygon fill="#e0e0e0" stroke="#999999" points="1099,-134.5 986,-134.5 986,-115.5 1099,-115.5 1099,-134.5"/>
<text text-anchor="middle" x="1042.5" y="-122.5" font-family="Helvetica,sans-Serif" font-size="10.00">../vmisc/vsysexits.h</text>
</a>
</g>
</g>
<!-- Node41&#45;&gt;Node51 -->
<g id="edge58_Node000041_Node000051" class="edge">
<title>Node41&#45;&gt;Node51</title>
<g id="a_edge58_Node000041_Node000051"><a xlink:title=" ">
<path fill="none" stroke="#63b8ff" d="M748.78,-181.45C755.85,-179.52 763.42,-177.58 770.5,-176 861.63,-155.62 885.84,-157.83 977.5,-140 982.88,-138.95 988.5,-137.81 994.09,-136.65"/>
<polygon fill="#63b8ff" stroke="#63b8ff" points="995,-140.04 1004.06,-134.55 993.55,-133.19 995,-140.04"/>
</a>
</g>
</g>
<!-- Node47&#45;&gt;Node9 -->
<g id="edge55_Node000047_Node000009" class="edge">
<title>Node47&#45;&gt;Node9</title>
<g id="a_edge55_Node000047_Node000009"><a xlink:title=" ">
<path fill="none" stroke="#63b8ff" d="M1155.29,-115.71C1139.92,-113.83 1123.64,-111.84 1108.5,-110 992.95,-95.98 857.13,-79.75 786.21,-71.3"/>
<polygon fill="#63b8ff" stroke="#63b8ff" points="786.57,-67.82 776.23,-70.11 785.74,-74.77 786.57,-67.82"/>
</a>
</g>
</g>
<!-- Node47&#45;&gt;Node12 -->
<g id="edge54_Node000047_Node000012" class="edge">
<title>Node47&#45;&gt;Node12</title>
<g id="a_edge54_Node000047_Node000012"><a xlink:title=" ">
<path fill="none" stroke="#63b8ff" d="M1199.02,-109.84C1183.7,-100.6 1163.79,-88.59 1148.55,-79.4"/>
<polygon fill="#63b8ff" stroke="#63b8ff" points="1150.12,-76.26 1139.75,-74.09 1146.51,-82.26 1150.12,-76.26"/>
</a>
</g>
</g>
<!-- Node47&#45;&gt;Node23 -->
<g id="edge56_Node000047_Node000023" class="edge">
<title>Node47&#45;&gt;Node23</title>
<g id="a_edge56_Node000047_Node000023"><a xlink:title=" ">
<path fill="none" stroke="#63b8ff" d="M1221.05,-109.84C1220.27,-102.21 1219.29,-92.7 1218.44,-84.45"/>
<polygon fill="#63b8ff" stroke="#63b8ff" points="1221.9,-83.86 1217.4,-74.27 1214.94,-84.57 1221.9,-83.86"/>
</a>
</g>
</g>
<!-- Node54&#45;&gt;Node6 -->
<g id="edge63_Node000054_Node000006" class="edge">
<title>Node54&#45;&gt;Node6</title>
<g id="a_edge63_Node000054_Node000006"><a xlink:title=" ">
<path fill="none" stroke="#63b8ff" d="M475.38,-241.96C447.69,-233.18 403.48,-218.98 365.5,-206 363.61,-205.35 361.67,-204.68 359.72,-204"/>
<polygon fill="#63b8ff" stroke="#63b8ff" points="360.56,-200.59 349.97,-200.56 358.23,-207.19 360.56,-200.59"/>
</a>
</g>
</g>
<!-- Node54&#45;&gt;Node7 -->
<g id="edge62_Node000054_Node000007" class="edge">
<title>Node54&#45;&gt;Node7</title>
<g id="a_edge62_Node000054_Node000007"><a xlink:title=" ">
<path fill="none" stroke="#63b8ff" d="M487.74,-241.87C471.5,-232.36 445.15,-216.95 426.04,-205.77"/>
<polygon fill="#63b8ff" stroke="#63b8ff" points="427.71,-202.7 417.32,-200.67 424.18,-208.74 427.71,-202.7"/>
</a>
</g>
</g>
<!-- Node54&#45;&gt;Node53 -->
<g id="edge64_Node000054_Node000053" class="edge">
<title>Node54&#45;&gt;Node53</title>
<g id="a_edge64_Node000054_Node000053"><a xlink:title=" ">
<path fill="none" stroke="#63b8ff" d="M503.53,-241.87C504.34,-235.11 505.51,-225.35 506.6,-216.26"/>
<polygon fill="#63b8ff" stroke="#63b8ff" points="510.1,-216.46 507.81,-206.11 503.15,-215.63 510.1,-216.46"/>
</a>
</g>
</g>
<!-- Node57 -->
<g id="Node000057" class="node">
<title>Node57</title>
<g id="a_Node000057"><a xlink:href="../../dc/d73/projectversion_8h.html" target="_top" xlink:title=" ">
<polygon fill="white" stroke="#666666" points="1680.5,-200.5 1514.5,-200.5 1514.5,-181.5 1680.5,-181.5 1680.5,-200.5"/>
<text text-anchor="middle" x="1597.5" y="-188.5" font-family="Helvetica,sans-Serif" font-size="10.00">../../libs/vmisc/projectversion.h</text>
</a>
</g>
</g>
<!-- Node56&#45;&gt;Node57 -->
<g id="edge67_Node000056_Node000057" class="edge">
<title>Node56&#45;&gt;Node57</title>
<g id="a_edge67_Node000056_Node000057"><a xlink:title=" ">
<path fill="none" stroke="#63b8ff" d="M1360.19,-242.85C1408.12,-232.58 1493.52,-214.28 1547.74,-202.66"/>
<polygon fill="#63b8ff" stroke="#63b8ff" points="1548.77,-206.02 1557.82,-200.5 1547.31,-199.18 1548.77,-206.02"/>
</a>
</g>
</g>
</g>
</svg>
