<?xml version="1.0" encoding="UTF-8" standalone="no"?>
<!DOCTYPE svg PUBLIC "-//W3C//DTD SVG 1.1//EN"
 "http://www.w3.org/Graphics/SVG/1.1/DTD/svg11.dtd">
<!-- Generated by graphviz version 2.43.0 (0)
 -->
<!-- Title: VPieceItem Pages: 1 -->
<!--zoomable 992 -->

<svg id="main" version="1.1" xmlns="http://www.w3.org/2000/svg" xmlns:xlink="http://www.w3.org/1999/xlink" xml:space="preserve" onload="init(evt)">
<style type="text/css"><![CDATA[
.node, .edge {opacity: 0.7;}
.node.selected, .edge.selected {opacity: 1;}
.edge:hover path { stroke: red; }
.edge:hover polygon { stroke: red; fill: red; }
]]></style>

<defs>
  <circle id="rim" cx="0" cy="0" r="7"/>
  <circle id="rim2" cx="0" cy="0" r="3.5"/>
  <g id="zoomPlus">
    <use xlink:href="#rim" fill="#404040"><set attributeName="fill" to="#808080" begin="zoomplus.mouseover" end="zoomplus.mouseout"/></use>
    <path d="M-4,0h8M0,-4v8" fill="none" stroke="white" stroke-width="1.5" pointer-events="none"/>
  </g>
  <g id="zoomMin">
    <use xlink:href="#rim" fill="#404040"><set attributeName="fill" to="#808080" begin="zoomminus.mouseover" end="zoomminus.mouseout"/></use>
    <path d="M-4,0h8" fill="none" stroke="white" stroke-width="1.5" pointer-events="none"/>
  </g>
  <g id="arrowUp" transform="translate(30 24)">
    <use xlink:href="#rim"/>
    <path pointer-events="none" fill="none" stroke="white" stroke-width="1.5" d="M0,-3.0v7 M-2.5,-0.5L0,-3.0L2.5,-0.5"/>
  </g>
  <g id="arrowRight" transform="rotate(90) translate(36 -43)">
    <use xlink:href="#rim"/>
    <path pointer-events="none" fill="none" stroke="white" stroke-width="1.5" d="M0,-3.0v7 M-2.5,-0.5L0,-3.0L2.5,-0.5"/>
  </g>
  <g id="arrowDown" transform="rotate(180) translate(-30 -48)">
    <use xlink:href="#rim"/>
    <path pointer-events="none" fill="none" stroke="white" stroke-width="1.5" d="M0,-3.0v7 M-2.5,-0.5L0,-3.0L2.5,-0.5"/>
  </g>
  <g id="arrowLeft" transform="rotate(270) translate(-36 17)">
    <use xlink:href="#rim"/>
    <path pointer-events="none" fill="none" stroke="white" stroke-width="1.5" d="M0,-3.0v7 M-2.5,-0.5L0,-3.0L2.5,-0.5"/>
  </g>
  <g id="resetDef">
    <use xlink:href="#rim2" fill="#404040"><set attributeName="fill" to="#808080" begin="reset.mouseover" end="reset.mouseout"/></use>
  </g>
</defs>
<script type="application/ecmascript">
var viewWidth = 286;
var viewHeight = 992;
var sectionId = 'dynsection-0';
</script>
<script type="application/ecmascript" xlink:href="../../svg.min.js"/>
<svg id="graph" class="graph">
<g id="viewport">
<title>VPieceItem</title>
<!-- Node1 -->
<g id="Node000001" class="node">
<title>Node1</title>
<g id="a_Node000001"><a xlink:title=" ">
<polygon fill="#999999" stroke="transparent" points="192.5,-899 85.5,-899 85.5,-640 192.5,-640 192.5,-899"/>
<text text-anchor="start" x="111.5" y="-886.5" font-family="Helvetica,sans-Serif" font-size="10.00">VPieceItem</text>
<text text-anchor="start" x="90" y="-871.5" font-family="Helvetica,sans-Serif" font-size="10.00">#</text>
<text text-anchor="start" x="103" y="-871.5" font-family="Helvetica,sans-Serif" font-size="10.00">m_boundingRect</text>
<text text-anchor="start" x="90" y="-856.5" font-family="Helvetica,sans-Serif" font-size="10.00">#</text>
<text text-anchor="start" x="103" y="-856.5" font-family="Helvetica,sans-Serif" font-size="10.00">m_mode</text>
<text text-anchor="start" x="90" y="-841.5" font-family="Helvetica,sans-Serif" font-size="10.00">#</text>
<text text-anchor="start" x="103" y="-841.5" font-family="Helvetica,sans-Serif" font-size="10.00">m_isReleased</text>
<text text-anchor="start" x="90" y="-826.5" font-family="Helvetica,sans-Serif" font-size="10.00">#</text>
<text text-anchor="start" x="103" y="-826.5" font-family="Helvetica,sans-Serif" font-size="10.00">m_rotationCenter</text>
<text text-anchor="start" x="90" y="-811.5" font-family="Helvetica,sans-Serif" font-size="10.00">#</text>
<text text-anchor="start" x="103" y="-811.5" font-family="Helvetica,sans-Serif" font-size="10.00">m_moveType</text>
<text text-anchor="start" x="90" y="-796.5" font-family="Helvetica,sans-Serif" font-size="10.00">#</text>
<text text-anchor="start" x="103" y="-796.5" font-family="Helvetica,sans-Serif" font-size="10.00">m_inactiveZ</text>
<text text-anchor="start" x="90" y="-781.5" font-family="Helvetica,sans-Serif" font-size="10.00">+</text>
<text text-anchor="start" x="103" y="-781.5" font-family="Helvetica,sans-Serif" font-size="10.00">VPieceItem()</text>
<text text-anchor="start" x="90" y="-766.5" font-family="Helvetica,sans-Serif" font-size="10.00">+</text>
<text text-anchor="start" x="103" y="-766.5" font-family="Helvetica,sans-Serif" font-size="10.00">~VPieceItem()</text>
<text text-anchor="start" x="90" y="-751.5" font-family="Helvetica,sans-Serif" font-size="10.00">+</text>
<text text-anchor="start" x="103" y="-751.5" font-family="Helvetica,sans-Serif" font-size="10.00">boundingRect()</text>
<text text-anchor="start" x="90" y="-736.5" font-family="Helvetica,sans-Serif" font-size="10.00">+</text>
<text text-anchor="start" x="103" y="-736.5" font-family="Helvetica,sans-Serif" font-size="10.00">updateItem()</text>
<text text-anchor="start" x="90" y="-721.5" font-family="Helvetica,sans-Serif" font-size="10.00">+</text>
<text text-anchor="start" x="103" y="-721.5" font-family="Helvetica,sans-Serif" font-size="10.00">reset()</text>
<text text-anchor="start" x="90" y="-706.5" font-family="Helvetica,sans-Serif" font-size="10.00">+</text>
<text text-anchor="start" x="103" y="-706.5" font-family="Helvetica,sans-Serif" font-size="10.00">isIdle()</text>
<text text-anchor="start" x="90" y="-691.5" font-family="Helvetica,sans-Serif" font-size="10.00">+</text>
<text text-anchor="start" x="103" y="-691.5" font-family="Helvetica,sans-Serif" font-size="10.00">getMoveType()</text>
<text text-anchor="start" x="90" y="-676.5" font-family="Helvetica,sans-Serif" font-size="10.00">+</text>
<text text-anchor="start" x="103" y="-676.5" font-family="Helvetica,sans-Serif" font-size="10.00">setMoveType()</text>
<text text-anchor="start" x="90" y="-661.5" font-family="Helvetica,sans-Serif" font-size="10.00">+</text>
<text text-anchor="start" x="103" y="-661.5" font-family="Helvetica,sans-Serif" font-size="10.00">type()</text>
<text text-anchor="start" x="90" y="-646.5" font-family="Helvetica,sans-Serif" font-size="10.00">#</text>
<text text-anchor="start" x="103" y="-646.5" font-family="Helvetica,sans-Serif" font-size="10.00">GetAngle()</text>
<polygon fill="#666666" stroke="#666666" points="86,-881.5 86,-881.5 193,-881.5 193,-881.5 86,-881.5"/>
<polygon fill="#666666" stroke="#666666" points="86,-791.5 86,-791.5 101,-791.5 101,-791.5 86,-791.5"/>
<polygon fill="#666666" stroke="#666666" points="101,-791.5 101,-791.5 193,-791.5 193,-791.5 101,-791.5"/>
<polygon fill="none" stroke="#666666" points="85.5,-640 85.5,-899 192.5,-899 192.5,-640 85.5,-640"/>
</a>
</g>
</g>
<!-- Node3 -->
<g id="Node000003" class="node">
<title>Node3</title>
<g id="a_Node000003"><a xlink:href="../../da/d4e/classVGrainlineItem.html" target="_top" xlink:title=" ">
<polygon fill="white" stroke="transparent" points="130,-604 0,-604 0,0 130,0 130,-604"/>
<text text-anchor="start" x="28" y="-592" font-family="Helvetica,sans-Serif" font-size="10.00">VGrainlineItem</text>
<text text-anchor="start" x="6.5" y="-577" font-family="Helvetica,sans-Serif" font-size="10.00">&#45;</text>
<text text-anchor="start" x="17" y="-577" font-family="Helvetica,sans-Serif" font-size="10.00">m_rotation</text>
<text text-anchor="start" x="6.5" y="-562" font-family="Helvetica,sans-Serif" font-size="10.00">&#45;</text>
<text text-anchor="start" x="17" y="-562" font-family="Helvetica,sans-Serif" font-size="10.00">m_rotationStart</text>
<text text-anchor="start" x="6.5" y="-547" font-family="Helvetica,sans-Serif" font-size="10.00">&#45;</text>
<text text-anchor="start" x="17" y="-547" font-family="Helvetica,sans-Serif" font-size="10.00">m_length</text>
<text text-anchor="start" x="6.5" y="-532" font-family="Helvetica,sans-Serif" font-size="10.00">&#45;</text>
<text text-anchor="start" x="17" y="-532" font-family="Helvetica,sans-Serif" font-size="10.00">m_boundingPoly</text>
<text text-anchor="start" x="6.5" y="-517" font-family="Helvetica,sans-Serif" font-size="10.00">&#45;</text>
<text text-anchor="start" x="17" y="-517" font-family="Helvetica,sans-Serif" font-size="10.00">m_startPos</text>
<text text-anchor="start" x="6.5" y="-502" font-family="Helvetica,sans-Serif" font-size="10.00">&#45;</text>
<text text-anchor="start" x="17" y="-502" font-family="Helvetica,sans-Serif" font-size="10.00">m_movePos</text>
<text text-anchor="start" x="6.5" y="-487" font-family="Helvetica,sans-Serif" font-size="10.00">&#45;</text>
<text text-anchor="start" x="17" y="-487" font-family="Helvetica,sans-Serif" font-size="10.00">m_resizeHandle</text>
<text text-anchor="start" x="6.5" y="-472" font-family="Helvetica,sans-Serif" font-size="10.00">&#45;</text>
<text text-anchor="start" x="17" y="-472" font-family="Helvetica,sans-Serif" font-size="10.00">m_startLength</text>
<text text-anchor="start" x="6.5" y="-457" font-family="Helvetica,sans-Serif" font-size="10.00">&#45;</text>
<text text-anchor="start" x="17" y="-457" font-family="Helvetica,sans-Serif" font-size="10.00">m_startPoint</text>
<text text-anchor="start" x="6.5" y="-442" font-family="Helvetica,sans-Serif" font-size="10.00">&#45;</text>
<text text-anchor="start" x="17" y="-442" font-family="Helvetica,sans-Serif" font-size="10.00">m_finishPoint</text>
<text text-anchor="start" x="6.5" y="-427" font-family="Helvetica,sans-Serif" font-size="10.00">&#45;</text>
<text text-anchor="start" x="17" y="-427" font-family="Helvetica,sans-Serif" font-size="10.00">m_centerPoint</text>
<text text-anchor="start" x="6.5" y="-412" font-family="Helvetica,sans-Serif" font-size="10.00">&#45;</text>
<text text-anchor="start" x="17" y="-412" font-family="Helvetica,sans-Serif" font-size="10.00">m_angle</text>
<text text-anchor="start" x="6.5" y="-397" font-family="Helvetica,sans-Serif" font-size="10.00">&#45;</text>
<text text-anchor="start" x="17" y="-397" font-family="Helvetica,sans-Serif" font-size="10.00">m_arrowType</text>
<text text-anchor="start" x="6.5" y="-382" font-family="Helvetica,sans-Serif" font-size="10.00">&#45;</text>
<text text-anchor="start" x="17" y="-382" font-family="Helvetica,sans-Serif" font-size="10.00">m_penWidth</text>
<text text-anchor="start" x="4" y="-367" font-family="Helvetica,sans-Serif" font-size="10.00">+</text>
<text text-anchor="start" x="17" y="-367" font-family="Helvetica,sans-Serif" font-size="10.00">VGrainlineItem()</text>
<text text-anchor="start" x="4" y="-352" font-family="Helvetica,sans-Serif" font-size="10.00">+</text>
<text text-anchor="start" x="17" y="-352" font-family="Helvetica,sans-Serif" font-size="10.00">~VGrainlineItem()</text>
<text text-anchor="start" x="4" y="-337" font-family="Helvetica,sans-Serif" font-size="10.00">+</text>
<text text-anchor="start" x="17" y="-337" font-family="Helvetica,sans-Serif" font-size="10.00">shape()</text>
<text text-anchor="start" x="4" y="-322" font-family="Helvetica,sans-Serif" font-size="10.00">+</text>
<text text-anchor="start" x="17" y="-322" font-family="Helvetica,sans-Serif" font-size="10.00">paint()</text>
<text text-anchor="start" x="4" y="-307" font-family="Helvetica,sans-Serif" font-size="10.00">+</text>
<text text-anchor="start" x="17" y="-307" font-family="Helvetica,sans-Serif" font-size="10.00">updateGeometry()</text>
<text text-anchor="start" x="4" y="-292" font-family="Helvetica,sans-Serif" font-size="10.00">+</text>
<text text-anchor="start" x="17" y="-292" font-family="Helvetica,sans-Serif" font-size="10.00">type()</text>
<text text-anchor="start" x="4" y="-277" font-family="Helvetica,sans-Serif" font-size="10.00">+</text>
<text text-anchor="start" x="17" y="-277" font-family="Helvetica,sans-Serif" font-size="10.00">isContained()</text>
<text text-anchor="start" x="4" y="-262" font-family="Helvetica,sans-Serif" font-size="10.00">#</text>
<text text-anchor="start" x="17" y="-262" font-family="Helvetica,sans-Serif" font-size="10.00">mousePressEvent()</text>
<text text-anchor="start" x="4" y="-247" font-family="Helvetica,sans-Serif" font-size="10.00">#</text>
<text text-anchor="start" x="17" y="-247" font-family="Helvetica,sans-Serif" font-size="10.00">mouseMoveEvent()</text>
<text text-anchor="start" x="4" y="-232" font-family="Helvetica,sans-Serif" font-size="10.00">#</text>
<text text-anchor="start" x="17" y="-232" font-family="Helvetica,sans-Serif" font-size="10.00">mouseReleaseEvent()</text>
<text text-anchor="start" x="4" y="-217" font-family="Helvetica,sans-Serif" font-size="10.00">#</text>
<text text-anchor="start" x="17" y="-217" font-family="Helvetica,sans-Serif" font-size="10.00">hoverEnterEvent()</text>
<text text-anchor="start" x="4" y="-202" font-family="Helvetica,sans-Serif" font-size="10.00">#</text>
<text text-anchor="start" x="17" y="-202" font-family="Helvetica,sans-Serif" font-size="10.00">hoverLeaveEvent()</text>
<text text-anchor="start" x="4" y="-187" font-family="Helvetica,sans-Serif" font-size="10.00">#</text>
<text text-anchor="start" x="17" y="-187" font-family="Helvetica,sans-Serif" font-size="10.00">updateItem()</text>
<text text-anchor="start" x="4" y="-172" font-family="Helvetica,sans-Serif" font-size="10.00">#</text>
<text text-anchor="start" x="17" y="-172" font-family="Helvetica,sans-Serif" font-size="10.00">updateRectangle()</text>
<text text-anchor="start" x="4" y="-157" font-family="Helvetica,sans-Serif" font-size="10.00">#</text>
<text text-anchor="start" x="17" y="-157" font-family="Helvetica,sans-Serif" font-size="10.00">GetAngle()</text>
<text text-anchor="start" x="4" y="-142" font-family="Helvetica,sans-Serif" font-size="10.00">#</text>
<text text-anchor="start" x="17" y="-142" font-family="Helvetica,sans-Serif" font-size="10.00">rotate()</text>
<text text-anchor="start" x="4" y="-127" font-family="Helvetica,sans-Serif" font-size="10.00">#</text>
<text text-anchor="start" x="17" y="-127" font-family="Helvetica,sans-Serif" font-size="10.00">getInsideCorner()</text>
<text text-anchor="start" x="6.5" y="-112" font-family="Helvetica,sans-Serif" font-size="10.00">&#45;</text>
<text text-anchor="start" x="17" y="-112" font-family="Helvetica,sans-Serif" font-size="10.00">mainLine()</text>
<text text-anchor="start" x="6.5" y="-97" font-family="Helvetica,sans-Serif" font-size="10.00">&#45;</text>
<text text-anchor="start" x="17" y="-97" font-family="Helvetica,sans-Serif" font-size="10.00">firstArrow()</text>
<text text-anchor="start" x="6.5" y="-82" font-family="Helvetica,sans-Serif" font-size="10.00">&#45;</text>
<text text-anchor="start" x="17" y="-82" font-family="Helvetica,sans-Serif" font-size="10.00">secondArrow()</text>
<text text-anchor="start" x="6.5" y="-67" font-family="Helvetica,sans-Serif" font-size="10.00">&#45;</text>
<text text-anchor="start" x="17" y="-67" font-family="Helvetica,sans-Serif" font-size="10.00">mainShape()</text>
<text text-anchor="start" x="6.5" y="-52" font-family="Helvetica,sans-Serif" font-size="10.00">&#45;</text>
<text text-anchor="start" x="17" y="-52" font-family="Helvetica,sans-Serif" font-size="10.00">allUserModifications()</text>
<text text-anchor="start" x="6.5" y="-37" font-family="Helvetica,sans-Serif" font-size="10.00">&#45;</text>
<text text-anchor="start" x="17" y="-37" font-family="Helvetica,sans-Serif" font-size="10.00">userRotateAndMove()</text>
<text text-anchor="start" x="6.5" y="-22" font-family="Helvetica,sans-Serif" font-size="10.00">&#45;</text>
<text text-anchor="start" x="17" y="-22" font-family="Helvetica,sans-Serif" font-size="10.00">userMoveAndResize()</text>
<text text-anchor="start" x="6.5" y="-7" font-family="Helvetica,sans-Serif" font-size="10.00">&#45;</text>
<text text-anchor="start" x="17" y="-7" font-family="Helvetica,sans-Serif" font-size="10.00">updateResizeHandle()</text>
<polygon fill="#666666" stroke="#666666" points="0,-587 0,-587 130,-587 130,-587 0,-587"/>
<polygon fill="#666666" stroke="#666666" points="0,-377 0,-377 15,-377 15,-377 0,-377"/>
<polygon fill="#666666" stroke="#666666" points="15,-377 15,-377 130,-377 130,-377 15,-377"/>
<polygon fill="none" stroke="#666666" points="0,0 0,-604 130,-604 130,0 0,0"/>
</a>
</g>
</g>
<!-- Node1&#45;&gt;Node3 -->
<g id="edge2_Node000001_Node000003" class="edge">
<title>Node1&#45;&gt;Node3</title>
<g id="a_edge2_Node000001_Node000003"><a xlink:title=" ">
<path fill="none" stroke="#63b8ff" d="M116.94,-629.74C115.62,-621.44 114.27,-612.96 112.9,-604.33"/>
<polygon fill="none" stroke="#63b8ff" points="113.51,-630.43 118.53,-639.76 120.42,-629.33 113.51,-630.43"/>
</a>
</g>
</g>
<!-- Node4 -->
<g id="Node000004" class="node">
<title>Node4</title>
<g id="a_Node000004"><a xlink:href="../../d2/d41/classVTextGraphicsItem.html" target="_top" xlink:title="The VTextGraphicsItem class. This class implements text graphics item, which can be dragged around,...">
<polygon fill="white" stroke="transparent" points="278,-529 148,-529 148,-75 278,-75 278,-529"/>
<text text-anchor="start" x="166.5" y="-517" font-family="Helvetica,sans-Serif" font-size="10.00">VTextGraphicsItem</text>
<text text-anchor="start" x="154.5" y="-502" font-family="Helvetica,sans-Serif" font-size="10.00">&#45;</text>
<text text-anchor="start" x="165" y="-502" font-family="Helvetica,sans-Serif" font-size="10.00">m_startPos</text>
<text text-anchor="start" x="154.5" y="-487" font-family="Helvetica,sans-Serif" font-size="10.00">&#45;</text>
<text text-anchor="start" x="165" y="-487" font-family="Helvetica,sans-Serif" font-size="10.00">m_start</text>
<text text-anchor="start" x="154.5" y="-472" font-family="Helvetica,sans-Serif" font-size="10.00">&#45;</text>
<text text-anchor="start" x="165" y="-472" font-family="Helvetica,sans-Serif" font-size="10.00">m_startSize</text>
<text text-anchor="start" x="154.5" y="-457" font-family="Helvetica,sans-Serif" font-size="10.00">&#45;</text>
<text text-anchor="start" x="165" y="-457" font-family="Helvetica,sans-Serif" font-size="10.00">m_rotation</text>
<text text-anchor="start" x="154.5" y="-442" font-family="Helvetica,sans-Serif" font-size="10.00">&#45;</text>
<text text-anchor="start" x="165" y="-442" font-family="Helvetica,sans-Serif" font-size="10.00">m_angle</text>
<text text-anchor="start" x="154.5" y="-427" font-family="Helvetica,sans-Serif" font-size="10.00">&#45;</text>
<text text-anchor="start" x="165" y="-427" font-family="Helvetica,sans-Serif" font-size="10.00">m_rectResize</text>
<text text-anchor="start" x="154.5" y="-412" font-family="Helvetica,sans-Serif" font-size="10.00">&#45;</text>
<text text-anchor="start" x="165" y="-412" font-family="Helvetica,sans-Serif" font-size="10.00">m_textMananger</text>
<text text-anchor="start" x="152" y="-397" font-family="Helvetica,sans-Serif" font-size="10.00">+</text>
<text text-anchor="start" x="165" y="-397" font-family="Helvetica,sans-Serif" font-size="10.00">VTextGraphicsItem()</text>
<text text-anchor="start" x="152" y="-382" font-family="Helvetica,sans-Serif" font-size="10.00">+</text>
<text text-anchor="start" x="165" y="-382" font-family="Helvetica,sans-Serif" font-size="10.00">~VTextGraphicsItem()</text>
<text text-anchor="start" x="152" y="-367" font-family="Helvetica,sans-Serif" font-size="10.00">+</text>
<text text-anchor="start" x="165" y="-367" font-family="Helvetica,sans-Serif" font-size="10.00">paint()</text>
<text text-anchor="start" x="152" y="-352" font-family="Helvetica,sans-Serif" font-size="10.00">+</text>
<text text-anchor="start" x="165" y="-352" font-family="Helvetica,sans-Serif" font-size="10.00">updateItem()</text>
<text text-anchor="start" x="152" y="-337" font-family="Helvetica,sans-Serif" font-size="10.00">+</text>
<text text-anchor="start" x="165" y="-337" font-family="Helvetica,sans-Serif" font-size="10.00">type()</text>
<text text-anchor="start" x="152" y="-322" font-family="Helvetica,sans-Serif" font-size="10.00">+</text>
<text text-anchor="start" x="165" y="-322" font-family="Helvetica,sans-Serif" font-size="10.00">setFont()</text>
<text text-anchor="start" x="152" y="-307" font-family="Helvetica,sans-Serif" font-size="10.00">+</text>
<text text-anchor="start" x="165" y="-307" font-family="Helvetica,sans-Serif" font-size="10.00">getFontSize()</text>
<text text-anchor="start" x="152" y="-292" font-family="Helvetica,sans-Serif" font-size="10.00">+</text>
<text text-anchor="start" x="165" y="-292" font-family="Helvetica,sans-Serif" font-size="10.00">setSize()</text>
<text text-anchor="start" x="152" y="-277" font-family="Helvetica,sans-Serif" font-size="10.00">+</text>
<text text-anchor="start" x="165" y="-277" font-family="Helvetica,sans-Serif" font-size="10.00">isContained()</text>
<text text-anchor="start" x="152" y="-262" font-family="Helvetica,sans-Serif" font-size="10.00">+</text>
<text text-anchor="start" x="165" y="-262" font-family="Helvetica,sans-Serif" font-size="10.00">updateData()</text>
<text text-anchor="start" x="152" y="-247" font-family="Helvetica,sans-Serif" font-size="10.00">+</text>
<text text-anchor="start" x="165" y="-247" font-family="Helvetica,sans-Serif" font-size="10.00">updateData()</text>
<text text-anchor="start" x="152" y="-232" font-family="Helvetica,sans-Serif" font-size="10.00">+</text>
<text text-anchor="start" x="165" y="-232" font-family="Helvetica,sans-Serif" font-size="10.00">getTextLines()</text>
<text text-anchor="start" x="152" y="-217" font-family="Helvetica,sans-Serif" font-size="10.00">#</text>
<text text-anchor="start" x="165" y="-217" font-family="Helvetica,sans-Serif" font-size="10.00">mousePressEvent()</text>
<text text-anchor="start" x="152" y="-202" font-family="Helvetica,sans-Serif" font-size="10.00">#</text>
<text text-anchor="start" x="165" y="-202" font-family="Helvetica,sans-Serif" font-size="10.00">mouseMoveEvent()</text>
<text text-anchor="start" x="152" y="-187" font-family="Helvetica,sans-Serif" font-size="10.00">#</text>
<text text-anchor="start" x="165" y="-187" font-family="Helvetica,sans-Serif" font-size="10.00">mouseReleaseEvent()</text>
<text text-anchor="start" x="152" y="-172" font-family="Helvetica,sans-Serif" font-size="10.00">#</text>
<text text-anchor="start" x="165" y="-172" font-family="Helvetica,sans-Serif" font-size="10.00">hoverMoveEvent()</text>
<text text-anchor="start" x="152" y="-157" font-family="Helvetica,sans-Serif" font-size="10.00">#</text>
<text text-anchor="start" x="165" y="-157" font-family="Helvetica,sans-Serif" font-size="10.00">hoverLeaveEvent()</text>
<text text-anchor="start" x="152" y="-142" font-family="Helvetica,sans-Serif" font-size="10.00">#</text>
<text text-anchor="start" x="165" y="-142" font-family="Helvetica,sans-Serif" font-size="10.00">UpdateBox()</text>
<text text-anchor="start" x="152" y="-127" font-family="Helvetica,sans-Serif" font-size="10.00">#</text>
<text text-anchor="start" x="165" y="-127" font-family="Helvetica,sans-Serif" font-size="10.00">correctLabel()</text>
<text text-anchor="start" x="154.5" y="-112" font-family="Helvetica,sans-Serif" font-size="10.00">&#45;</text>
<text text-anchor="start" x="165" y="-112" font-family="Helvetica,sans-Serif" font-size="10.00">allUserModifications()</text>
<text text-anchor="start" x="154.5" y="-97" font-family="Helvetica,sans-Serif" font-size="10.00">&#45;</text>
<text text-anchor="start" x="165" y="-97" font-family="Helvetica,sans-Serif" font-size="10.00">userRotateAndMove()</text>
<text text-anchor="start" x="154.5" y="-82" font-family="Helvetica,sans-Serif" font-size="10.00">&#45;</text>
<text text-anchor="start" x="165" y="-82" font-family="Helvetica,sans-Serif" font-size="10.00">userMoveAndResize()</text>
<polygon fill="#666666" stroke="#666666" points="148,-512 148,-512 278,-512 278,-512 148,-512"/>
<polygon fill="#666666" stroke="#666666" points="148,-407 148,-407 163,-407 163,-407 148,-407"/>
<polygon fill="#666666" stroke="#666666" points="163,-407 163,-407 278,-407 278,-407 163,-407"/>
<polygon fill="none" stroke="#666666" points="148,-75 148,-529 278,-529 278,-75 148,-75"/>
</a>
</g>
</g>
<!-- Node1&#45;&gt;Node4 -->
<g id="edge3_Node000001_Node000004" class="edge">
<title>Node1&#45;&gt;Node4</title>
<g id="a_edge3_Node000001_Node000004"><a xlink:title=" ">
<path fill="none" stroke="#63b8ff" d="M161.09,-629.56C166.13,-597.84 171.62,-563.33 177.07,-529.02"/>
<polygon fill="none" stroke="#63b8ff" points="157.58,-629.33 159.47,-639.76 164.49,-630.43 157.58,-629.33"/>
</a>
</g>
</g>
<!-- Node2 -->
<g id="Node000002" class="node">
<title>Node2</title>
<g id="a_Node000002"><a xlink:title=" ">
<polygon fill="white" stroke="transparent" points="185,-984 93,-984 93,-935 185,-935 185,-984"/>
<text text-anchor="start" x="98" y="-971.5" font-family="Helvetica,sans-Serif" font-size="10.00">QGraphicsObject</text>
<text text-anchor="start" x="137" y="-956.5" font-family="Helvetica,sans-Serif" font-size="10.00"> </text>
<text text-anchor="start" x="137" y="-941.5" font-family="Helvetica,sans-Serif" font-size="10.00"> </text>
<polygon fill="#666666" stroke="#666666" points="93,-966.5 93,-966.5 185,-966.5 185,-966.5 93,-966.5"/>
<polygon fill="#666666" stroke="#666666" points="93,-951.5 93,-951.5 185,-951.5 185,-951.5 93,-951.5"/>
<polygon fill="none" stroke="#666666" points="93,-935 93,-984 185,-984 185,-935 93,-935"/>
</a>
</g>
</g>
<!-- Node2&#45;&gt;Node1 -->
<g id="edge1_Node000001_Node000002" class="edge">
<title>Node2&#45;&gt;Node1</title>
<g id="a_edge1_Node000001_Node000002"><a xlink:title=" ">
<path fill="none" stroke="#63b8ff" d="M139,-924.5C139,-916.83 139,-908.24 139,-899.15"/>
<polygon fill="none" stroke="#63b8ff" points="135.5,-924.69 139,-934.69 142.5,-924.69 135.5,-924.69"/>
</a>
</g>
</g>
</g>
</svg>

<g id="navigator" transform="translate(0 0)" fill="#404254">
  <rect fill="#f2f5e9" fill-opacity="0.5" stroke="#606060" stroke-width=".5" x="0" y="0" width="60" height="60"/>
  <use id="zoomplus" xlink:href="#zoomPlus" x="17" y="9" onmousedown="handleZoom(evt,'in')"/>
  <use id="zoomminus" xlink:href="#zoomMin" x="42" y="9" onmousedown="handleZoom(evt,'out')"/>
  <use id="reset" xlink:href="#resetDef" x="30" y="36" onmousedown="handleReset()"/>
   <use id="arrowup" xlink:href="#arrowUp" x="0" y="0" onmousedown="handlePan(0,-1)"/>
  <use id="arrowright" xlink:href="#arrowRight" x="0" y="0" onmousedown="handlePan(1,0)"/>
  <use id="arrowdown" xlink:href="#arrowDown" x="0" y="0" onmousedown="handlePan(0,1)"/>
  <use id="arrowleft" xlink:href="#arrowLeft" x="0" y="0" onmousedown="handlePan(-1,0)"/>
</g>
<svg viewBox="0 0 15 15" width="100%" height="30px" preserveAspectRatio="xMaxYMin meet">
 <g id="arrow_out" transform="scale(0.3 0.3)">
  <a xlink:href="classVPieceItem__inherit__graph_org.svg" target="_base">
   <rect id="button" ry="5" rx="5" y="6" x="6" height="38" width="38"
        fill="#f2f5e9" fill-opacity="0.5" stroke="#606060" stroke-width="1.0"/>
   <path id="arrow"
     d="M 11.500037,31.436501 C 11.940474,20.09759 22.043105,11.32322 32.158766,21.979434 L 37.068811,17.246167 C 37.068811,17.246167 37.088388,32 37.088388,32 L 22.160133,31.978069 C 22.160133,31.978069 26.997745,27.140456 26.997745,27.140456 C 18.528582,18.264221 13.291696,25.230495 11.500037,31.436501 z"
     style="fill:#404040;"/>
  </a>
 </g>
</svg>

<style type='text/css'>
<![CDATA[
[data-mouse-over-selected='false'] { opacity: 0.7; }
[data-mouse-over-selected='true']  { opacity: 1.0; }
]]>
</style>
<script type="application/ecmascript"><![CDATA[
document.addEventListener('DOMContentLoaded', (event) => {
  highlightEdges();
  highlightAdjacentNodes();
});
]]></script>
</svg>
