<?xml version="1.0" encoding="UTF-8" standalone="no"?>
<!DOCTYPE svg PUBLIC "-//W3C//DTD SVG 1.1//EN"
 "http://www.w3.org/Graphics/SVG/1.1/DTD/svg11.dtd">
<!-- Generated by graphviz version 2.43.0 (0)
 -->
<!-- Title: src/libs/ifc/xml/abstract_converter.cpp Pages: 1 -->
<svg width="2532pt" height="368pt"
 viewBox="0.00 0.00 2531.50 368.00" xmlns="http://www.w3.org/2000/svg" xmlns:xlink="http://www.w3.org/1999/xlink">
<g id="graph0" class="graph" transform="scale(1 1) rotate(0) translate(4 364)">
<title>src/libs/ifc/xml/abstract_converter.cpp</title>
<!-- Node1 -->
<g id="Node000001" class="node">
<title>Node1</title>
<g id="a_Node000001"><a xlink:title=" ">
<polygon fill="#999999" stroke="#666666" points="1860.5,-360 1729.5,-360 1729.5,-330 1860.5,-330 1860.5,-360"/>
<text text-anchor="start" x="1737.5" y="-348" font-family="Helvetica,sans-Serif" font-size="10.00">src/libs/ifc/xml/abstract</text>
<text text-anchor="middle" x="1795" y="-337" font-family="Helvetica,sans-Serif" font-size="10.00">_converter.cpp</text>
</a>
</g>
</g>
<!-- Node2 -->
<g id="Node000002" class="node">
<title>Node2</title>
<g id="a_Node000002"><a xlink:href="../../d0/da1/abstract__converter_8h.html" target="_top" xlink:title=" ">
<polygon fill="white" stroke="#666666" points="816,-294 700,-294 700,-275 816,-275 816,-294"/>
<text text-anchor="middle" x="758" y="-282" font-family="Helvetica,sans-Serif" font-size="10.00">abstract_converter.h</text>
</a>
</g>
</g>
<!-- Node1&#45;&gt;Node2 -->
<g id="edge1_Node000001_Node000002" class="edge">
<title>Node1&#45;&gt;Node2</title>
<g id="a_edge1_Node000001_Node000002"><a xlink:title=" ">
<path fill="none" stroke="#63b8ff" d="M1729.34,-340.3C1543.54,-329.81 1015.31,-300.02 826.3,-289.35"/>
<polygon fill="#63b8ff" stroke="#63b8ff" points="826.4,-285.85 816.22,-288.78 826,-292.84 826.4,-285.85"/>
</a>
</g>
</g>
<!-- Node8 -->
<g id="Node000008" class="node">
<title>Node8</title>
<g id="a_Node000008"><a xlink:href="../../d8/da5/vdomdocument_8h.html" target="_top" xlink:title=" ">
<polygon fill="white" stroke="#666666" points="1469,-239 1367,-239 1367,-220 1469,-220 1469,-239"/>
<text text-anchor="middle" x="1418" y="-227" font-family="Helvetica,sans-Serif" font-size="10.00">vdomdocument.h</text>
</a>
</g>
</g>
<!-- Node1&#45;&gt;Node8 -->
<g id="edge67_Node000001_Node000008" class="edge">
<title>Node1&#45;&gt;Node8</title>
<g id="a_edge67_Node000001_Node000008"><a xlink:title=" ">
<path fill="none" stroke="#63b8ff" d="M1748.39,-329.97C1673.1,-307.3 1526.11,-263.05 1456.42,-242.07"/>
<polygon fill="#63b8ff" stroke="#63b8ff" points="1457.3,-238.68 1446.71,-239.14 1455.28,-245.38 1457.3,-238.68"/>
</a>
</g>
</g>
<!-- Node10 -->
<g id="Node000010" class="node">
<title>Node10</title>
<g id="a_Node000010"><a xlink:title=" ">
<polygon fill="#e0e0e0" stroke="#999999" points="1706,-184 1618,-184 1618,-165 1706,-165 1706,-184"/>
<text text-anchor="middle" x="1662" y="-172" font-family="Helvetica,sans-Serif" font-size="10.00">QDomElement</text>
</a>
</g>
</g>
<!-- Node1&#45;&gt;Node10 -->
<g id="edge25_Node000001_Node000010" class="edge">
<title>Node1&#45;&gt;Node10</title>
<g id="a_edge25_Node000001_Node000010"><a xlink:title=" ">
<path fill="none" stroke="#63b8ff" d="M1761.63,-329.99C1744.92,-321.59 1725.44,-309.51 1712,-294 1686.26,-264.29 1672.28,-219.41 1666.05,-194.27"/>
<polygon fill="#63b8ff" stroke="#63b8ff" points="1669.39,-193.18 1663.73,-184.23 1662.58,-194.76 1669.39,-193.18"/>
</a>
</g>
</g>
<!-- Node11 -->
<g id="Node000011" class="node">
<title>Node11</title>
<g id="a_Node000011"><a xlink:title=" ">
<polygon fill="#e0e0e0" stroke="#999999" points="1797.5,-184 1724.5,-184 1724.5,-165 1797.5,-165 1797.5,-184"/>
<text text-anchor="middle" x="1761" y="-172" font-family="Helvetica,sans-Serif" font-size="10.00">QDomNode</text>
</a>
</g>
</g>
<!-- Node1&#45;&gt;Node11 -->
<g id="edge26_Node000001_Node000011" class="edge">
<title>Node1&#45;&gt;Node11</title>
<g id="a_edge26_Node000001_Node000011"><a xlink:title=" ">
<path fill="none" stroke="#63b8ff" d="M1762.49,-329.84C1747.92,-321.65 1732.19,-309.79 1724,-294 1708.85,-264.81 1712.82,-250.93 1724,-220 1727.94,-209.09 1735.86,-198.96 1743.36,-191.14"/>
<polygon fill="#63b8ff" stroke="#63b8ff" points="1745.84,-193.61 1750.56,-184.13 1740.95,-188.6 1745.84,-193.61"/>
</a>
</g>
</g>
<!-- Node13 -->
<g id="Node000013" class="node">
<title>Node13</title>
<g id="a_Node000013"><a xlink:title=" ">
<polygon fill="#e0e0e0" stroke="#999999" points="1898.5,-184 1815.5,-184 1815.5,-165 1898.5,-165 1898.5,-184"/>
<text text-anchor="middle" x="1857" y="-172" font-family="Helvetica,sans-Serif" font-size="10.00">QLatin1String</text>
</a>
</g>
</g>
<!-- Node1&#45;&gt;Node13 -->
<g id="edge30_Node000001_Node000013" class="edge">
<title>Node1&#45;&gt;Node13</title>
<g id="a_edge30_Node000001_Node000013"><a xlink:title=" ">
<path fill="none" stroke="#63b8ff" d="M1782.39,-329.85C1774.86,-320.42 1766.01,-307.35 1762,-294 1752.54,-262.5 1744.35,-247.75 1762,-220 1771.88,-204.45 1788.79,-194.25 1805.62,-187.58"/>
<polygon fill="#63b8ff" stroke="#63b8ff" points="1807.24,-190.72 1815.47,-184.06 1804.88,-184.13 1807.24,-190.72"/>
</a>
</g>
</g>
<!-- Node14 -->
<g id="Node000014" class="node">
<title>Node14</title>
<g id="a_Node000014"><a xlink:title=" ">
<polygon fill="#e0e0e0" stroke="#999999" points="2021,-184 1917,-184 1917,-165 2021,-165 2021,-184"/>
<text text-anchor="middle" x="1969" y="-172" font-family="Helvetica,sans-Serif" font-size="10.00">QStaticStringData</text>
</a>
</g>
</g>
<!-- Node1&#45;&gt;Node14 -->
<g id="edge34_Node000001_Node000014" class="edge">
<title>Node1&#45;&gt;Node14</title>
<g id="a_edge34_Node000001_Node000014"><a xlink:title=" ">
<path fill="none" stroke="#63b8ff" d="M1790.71,-329.89C1784.03,-304.76 1774.36,-251.91 1800,-220 1807.46,-210.72 1869.32,-196.09 1916.06,-186.16"/>
<polygon fill="#63b8ff" stroke="#63b8ff" points="1917.01,-189.53 1926.07,-184.05 1915.57,-182.68 1917.01,-189.53"/>
</a>
</g>
</g>
<!-- Node15 -->
<g id="Node000015" class="node">
<title>Node15</title>
<g id="a_Node000015"><a xlink:title=" ">
<polygon fill="#e0e0e0" stroke="#999999" points="2115,-184 2039,-184 2039,-165 2115,-165 2115,-184"/>
<text text-anchor="middle" x="2077" y="-172" font-family="Helvetica,sans-Serif" font-size="10.00">QStringData</text>
</a>
</g>
</g>
<!-- Node1&#45;&gt;Node15 -->
<g id="edge35_Node000001_Node000015" class="edge">
<title>Node1&#45;&gt;Node15</title>
<g id="a_edge35_Node000001_Node000015"><a xlink:title=" ">
<path fill="none" stroke="#63b8ff" d="M1795.5,-329.98C1797.23,-304.02 1804.84,-248.53 1838,-220 1838.91,-219.22 1959.39,-197.04 2028.92,-184.3"/>
<polygon fill="#63b8ff" stroke="#63b8ff" points="2029.58,-187.74 2038.79,-182.49 2028.32,-180.85 2029.58,-187.74"/>
</a>
</g>
</g>
<!-- Node16 -->
<g id="Node000016" class="node">
<title>Node16</title>
<g id="a_Node000016"><a xlink:title=" ">
<polygon fill="#e0e0e0" stroke="#999999" points="2222.5,-184 2133.5,-184 2133.5,-165 2222.5,-165 2222.5,-184"/>
<text text-anchor="middle" x="2178" y="-172" font-family="Helvetica,sans-Serif" font-size="10.00">QStringDataPtr</text>
</a>
</g>
</g>
<!-- Node1&#45;&gt;Node16 -->
<g id="edge36_Node000001_Node000016" class="edge">
<title>Node1&#45;&gt;Node16</title>
<g id="a_edge36_Node000001_Node000016"><a xlink:title=" ">
<path fill="none" stroke="#63b8ff" d="M1807.09,-329.91C1821.05,-314.44 1845.41,-289.83 1871,-275 1952.67,-227.66 2059.82,-199.54 2123.53,-185.84"/>
<polygon fill="#63b8ff" stroke="#63b8ff" points="2124.31,-189.25 2133.37,-183.76 2122.87,-182.4 2124.31,-189.25"/>
</a>
</g>
</g>
<!-- Node22 -->
<g id="Node000022" class="node">
<title>Node22</title>
<g id="a_Node000022"><a xlink:title=" ">
<polygon fill="#e0e0e0" stroke="#999999" points="1918,-294 1880,-294 1880,-275 1918,-275 1918,-294"/>
<text text-anchor="middle" x="1899" y="-282" font-family="Helvetica,sans-Serif" font-size="10.00">QDir</text>
</a>
</g>
</g>
<!-- Node1&#45;&gt;Node22 -->
<g id="edge24_Node000001_Node000022" class="edge">
<title>Node1&#45;&gt;Node22</title>
<g id="a_edge24_Node000001_Node000022"><a xlink:title=" ">
<path fill="none" stroke="#63b8ff" d="M1819.91,-329.99C1836.49,-320.66 1858.16,-308.47 1874.63,-299.21"/>
<polygon fill="#63b8ff" stroke="#63b8ff" points="1876.64,-302.09 1883.64,-294.14 1873.21,-295.99 1876.64,-302.09"/>
</a>
</g>
</g>
<!-- Node23 -->
<g id="Node000023" class="node">
<title>Node23</title>
<g id="a_Node000023"><a xlink:title=" ">
<polygon fill="#e0e0e0" stroke="#999999" points="2026,-294 1936,-294 1936,-275 2026,-275 2026,-294"/>
<text text-anchor="middle" x="1981" y="-282" font-family="Helvetica,sans-Serif" font-size="10.00">QDomNodeList</text>
</a>
</g>
</g>
<!-- Node1&#45;&gt;Node23 -->
<g id="edge27_Node000001_Node000023" class="edge">
<title>Node1&#45;&gt;Node23</title>
<g id="a_edge27_Node000001_Node000023"><a xlink:title=" ">
<path fill="none" stroke="#63b8ff" d="M1839.55,-329.99C1871.51,-319.94 1914.06,-306.55 1944.12,-297.1"/>
<polygon fill="#63b8ff" stroke="#63b8ff" points="1945.31,-300.39 1953.8,-294.05 1943.21,-293.72 1945.31,-300.39"/>
</a>
</g>
</g>
<!-- Node24 -->
<g id="Node000024" class="node">
<title>Node24</title>
<g id="a_Node000024"><a xlink:title=" ">
<polygon fill="#e0e0e0" stroke="#999999" points="2085.5,-294 2044.5,-294 2044.5,-275 2085.5,-275 2085.5,-294"/>
<text text-anchor="middle" x="2065" y="-282" font-family="Helvetica,sans-Serif" font-size="10.00">QFile</text>
</a>
</g>
</g>
<!-- Node1&#45;&gt;Node24 -->
<g id="edge28_Node000001_Node000024" class="edge">
<title>Node1&#45;&gt;Node24</title>
<g id="a_edge28_Node000001_Node000024"><a xlink:title=" ">
<path fill="none" stroke="#63b8ff" d="M1860.73,-331.61C1906.76,-322.63 1969.88,-309.72 2034.44,-293.99"/>
<polygon fill="#63b8ff" stroke="#63b8ff" points="2035.52,-297.33 2044.39,-291.55 2033.85,-290.53 2035.52,-297.33"/>
</a>
</g>
</g>
<!-- Node25 -->
<g id="Node000025" class="node">
<title>Node25</title>
<g id="a_Node000025"><a xlink:title=" ">
<polygon fill="#e0e0e0" stroke="#999999" points="2164,-294 2104,-294 2104,-275 2164,-275 2164,-294"/>
<text text-anchor="middle" x="2134" y="-282" font-family="Helvetica,sans-Serif" font-size="10.00">QFileInfo</text>
</a>
</g>
</g>
<!-- Node1&#45;&gt;Node25 -->
<g id="edge29_Node000001_Node000025" class="edge">
<title>Node1&#45;&gt;Node25</title>
<g id="a_edge29_Node000001_Node000025"><a xlink:title=" ">
<path fill="none" stroke="#63b8ff" d="M1860.71,-334.01C1919.34,-324.87 2007.77,-310.56 2093.86,-294.14"/>
<polygon fill="#63b8ff" stroke="#63b8ff" points="2094.64,-297.56 2103.8,-292.24 2093.32,-290.68 2094.64,-297.56"/>
</a>
</g>
</g>
<!-- Node26 -->
<g id="Node000026" class="node">
<title>Node26</title>
<g id="a_Node000026"><a xlink:title=" ">
<polygon fill="#e0e0e0" stroke="#999999" points="2227.5,-294 2182.5,-294 2182.5,-275 2227.5,-275 2227.5,-294"/>
<text text-anchor="middle" x="2205" y="-282" font-family="Helvetica,sans-Serif" font-size="10.00">QMap</text>
</a>
</g>
</g>
<!-- Node1&#45;&gt;Node26 -->
<g id="edge31_Node000001_Node000026" class="edge">
<title>Node1&#45;&gt;Node26</title>
<g id="a_edge31_Node000001_Node000026"><a xlink:title=" ">
<path fill="none" stroke="#63b8ff" d="M1860.63,-337.9C1934.21,-330.48 2057.19,-316.34 2172.31,-293.88"/>
<polygon fill="#63b8ff" stroke="#63b8ff" points="2173.23,-297.27 2182.36,-291.9 2171.87,-290.4 2173.23,-297.27"/>
</a>
</g>
</g>
<!-- Node27 -->
<g id="Node000027" class="node">
<title>Node27</title>
<g id="a_Node000027"><a xlink:title=" ">
<polygon fill="#e0e0e0" stroke="#999999" points="2360.5,-294 2245.5,-294 2245.5,-275 2360.5,-275 2360.5,-294"/>
<text text-anchor="middle" x="2303" y="-282" font-family="Helvetica,sans-Serif" font-size="10.00">QRegularExpression</text>
</a>
</g>
</g>
<!-- Node1&#45;&gt;Node27 -->
<g id="edge32_Node000001_Node000027" class="edge">
<title>Node1&#45;&gt;Node27</title>
<g id="a_edge32_Node000001_Node000027"><a xlink:title=" ">
<path fill="none" stroke="#63b8ff" d="M1860.56,-336.9C1944.87,-327.71 2096.11,-310.97 2235.41,-294.18"/>
<polygon fill="#63b8ff" stroke="#63b8ff" points="2235.91,-297.64 2245.41,-292.97 2235.07,-290.69 2235.91,-297.64"/>
</a>
</g>
</g>
<!-- Node28 -->
<g id="Node000028" class="node">
<title>Node28</title>
<g id="a_Node000028"><a xlink:title=" ">
<polygon fill="#e0e0e0" stroke="#999999" points="2523.5,-294 2378.5,-294 2378.5,-275 2523.5,-275 2523.5,-294"/>
<text text-anchor="middle" x="2451" y="-282" font-family="Helvetica,sans-Serif" font-size="10.00">QRegularExpressionMatch</text>
</a>
</g>
</g>
<!-- Node1&#45;&gt;Node28 -->
<g id="edge33_Node000001_Node000028" class="edge">
<title>Node1&#45;&gt;Node28</title>
<g id="a_edge33_Node000001_Node000028"><a xlink:title=" ">
<path fill="none" stroke="#63b8ff" d="M1860.57,-338.68C1965.48,-330.09 2177.84,-312.34 2367.96,-294.18"/>
<polygon fill="#63b8ff" stroke="#63b8ff" points="2368.53,-297.64 2378.15,-293.21 2367.86,-290.68 2368.53,-297.64"/>
</a>
</g>
</g>
<!-- Node29 -->
<g id="Node000029" class="node">
<title>Node29</title>
<g id="a_Node000029"><a xlink:title=" ">
<polygon fill="#e0e0e0" stroke="#999999" points="208,-74 138,-74 138,-55 208,-55 208,-74"/>
<text text-anchor="middle" x="173" y="-62" font-family="Helvetica,sans-Serif" font-size="10.00">QStringList</text>
</a>
</g>
</g>
<!-- Node1&#45;&gt;Node29 -->
<g id="edge37_Node000001_Node000029" class="edge">
<title>Node1&#45;&gt;Node29</title>
<g id="a_edge37_Node000001_Node000029"><a xlink:title=" ">
<path fill="none" stroke="#63b8ff" d="M1729.11,-343.55C1489.77,-341.62 666.87,-332.3 407,-294 296.99,-277.79 165,-341.7 165,-230.5 165,-230.5 165,-230.5 165,-173.5 165,-142.1 168.4,-105.71 170.77,-84.2"/>
<polygon fill="#63b8ff" stroke="#63b8ff" points="174.26,-84.5 171.92,-74.16 167.31,-83.7 174.26,-84.5"/>
</a>
</g>
</g>
<!-- Node30 -->
<g id="Node000030" class="node">
<title>Node30</title>
<g id="a_Node000030"><a xlink:href="../../d1/d44/vexception_8h.html" target="_top" xlink:title=" ">
<polygon fill="white" stroke="#666666" points="465,-239 325,-239 325,-220 465,-220 465,-239"/>
<text text-anchor="middle" x="395" y="-227" font-family="Helvetica,sans-Serif" font-size="10.00">../exception/vexception.h</text>
</a>
</g>
</g>
<!-- Node1&#45;&gt;Node30 -->
<g id="edge38_Node000001_Node000030" class="edge">
<title>Node1&#45;&gt;Node30</title>
<g id="a_edge38_Node000001_Node000030"><a xlink:title=" ">
<path fill="none" stroke="#63b8ff" d="M1729.34,-343.43C1464.14,-340.88 483.51,-329.11 428,-294 412.29,-284.06 403.67,-264.04 399.22,-249.12"/>
<polygon fill="#63b8ff" stroke="#63b8ff" points="402.59,-248.17 396.67,-239.38 395.81,-249.94 402.59,-248.17"/>
</a>
</g>
</g>
<!-- Node42 -->
<g id="Node000042" class="node">
<title>Node42</title>
<g id="a_Node000042"><a xlink:href="../../d0/d21/vexceptionwrongid_8h.html" target="_top" xlink:title=" ">
<polygon fill="white" stroke="#666666" points="616.5,-294 437.5,-294 437.5,-275 616.5,-275 616.5,-294"/>
<text text-anchor="middle" x="527" y="-282" font-family="Helvetica,sans-Serif" font-size="10.00">../exception/vexceptionwrongid.h</text>
</a>
</g>
</g>
<!-- Node1&#45;&gt;Node42 -->
<g id="edge61_Node000001_Node000042" class="edge">
<title>Node1&#45;&gt;Node42</title>
<g id="a_edge61_Node000001_Node000042"><a xlink:title=" ">
<path fill="none" stroke="#63b8ff" d="M1729.35,-341.18C1558.35,-333.79 1085.05,-313.13 691,-294 670.32,-293 648.18,-291.88 627.06,-290.79"/>
<polygon fill="#63b8ff" stroke="#63b8ff" points="626.96,-287.28 616.79,-290.26 626.6,-294.27 626.96,-287.28"/>
</a>
</g>
</g>
<!-- Node3 -->
<g id="Node000003" class="node">
<title>Node3</title>
<g id="a_Node000003"><a xlink:title=" ">
<polygon fill="#e0e0e0" stroke="#999999" points="120,-74 0,-74 0,-55 120,-55 120,-74"/>
<text text-anchor="middle" x="60" y="-62" font-family="Helvetica,sans-Serif" font-size="10.00">qcompilerdetection.h</text>
</a>
</g>
</g>
<!-- Node2&#45;&gt;Node3 -->
<g id="edge2_Node000002_Node000003" class="edge">
<title>Node2&#45;&gt;Node3</title>
<g id="a_edge2_Node000002_Node000003"><a xlink:title=" ">
<path fill="none" stroke="#63b8ff" d="M729.58,-274.99C652.86,-251.96 435.2,-186.33 255,-129 199.13,-111.22 134.46,-90.04 95.42,-77.19"/>
<polygon fill="#63b8ff" stroke="#63b8ff" points="96.42,-73.84 85.83,-74.03 94.23,-80.49 96.42,-73.84"/>
</a>
</g>
</g>
<!-- Node4 -->
<g id="Node000004" class="node">
<title>Node4</title>
<g id="a_Node000004"><a xlink:title=" ">
<polygon fill="#e0e0e0" stroke="#999999" points="774.5,-184 673.5,-184 673.5,-165 774.5,-165 774.5,-184"/>
<text text-anchor="middle" x="724" y="-172" font-family="Helvetica,sans-Serif" font-size="10.00">QCoreApplication</text>
</a>
</g>
</g>
<!-- Node2&#45;&gt;Node4 -->
<g id="edge3_Node000002_Node000004" class="edge">
<title>Node2&#45;&gt;Node4</title>
<g id="a_edge3_Node000002_Node000004"><a xlink:title=" ">
<path fill="none" stroke="#63b8ff" d="M740.54,-274.88C727.53,-267.38 710.72,-255.18 703,-239 695.84,-223.99 703.26,-205.9 711.2,-192.87"/>
<polygon fill="#63b8ff" stroke="#63b8ff" points="714.21,-194.66 716.86,-184.4 708.39,-190.77 714.21,-194.66"/>
</a>
</g>
</g>
<!-- Node5 -->
<g id="Node000005" class="node">
<title>Node5</title>
<g id="a_Node000005"><a xlink:title=" ">
<polygon fill="#e0e0e0" stroke="#999999" points="731.5,-74 678.5,-74 678.5,-55 731.5,-55 731.5,-74"/>
<text text-anchor="middle" x="705" y="-62" font-family="Helvetica,sans-Serif" font-size="10.00">QString</text>
</a>
</g>
</g>
<!-- Node2&#45;&gt;Node5 -->
<g id="edge4_Node000002_Node000005" class="edge">
<title>Node2&#45;&gt;Node5</title>
<g id="a_edge4_Node000002_Node000005"><a xlink:title=" ">
<path fill="none" stroke="#63b8ff" d="M742.89,-274.88C729.68,-266.81 710.53,-253.8 697,-239 677.77,-217.96 671.61,-211.47 664,-184 661.75,-175.86 661.8,-173.15 664,-165 668.83,-147.12 677.5,-145.94 685,-129 691.44,-114.45 696.74,-97.18 700.26,-84.33"/>
<polygon fill="#63b8ff" stroke="#63b8ff" points="703.72,-84.91 702.88,-74.35 696.95,-83.14 703.72,-84.91"/>
</a>
</g>
</g>
<!-- Node6 -->
<g id="Node000006" class="node">
<title>Node6</title>
<g id="a_Node000006"><a xlink:title=" ">
<polygon fill="#e0e0e0" stroke="#999999" points="804.5,-239 711.5,-239 711.5,-220 804.5,-220 804.5,-239"/>
<text text-anchor="middle" x="758" y="-227" font-family="Helvetica,sans-Serif" font-size="10.00">QTemporaryFile</text>
</a>
</g>
</g>
<!-- Node2&#45;&gt;Node6 -->
<g id="edge5_Node000002_Node000006" class="edge">
<title>Node2&#45;&gt;Node6</title>
<g id="a_edge5_Node000002_Node000006"><a xlink:title=" ">
<path fill="none" stroke="#63b8ff" d="M758,-274.75C758,-267.8 758,-257.85 758,-249.13"/>
<polygon fill="#63b8ff" stroke="#63b8ff" points="761.5,-249.09 758,-239.09 754.5,-249.09 761.5,-249.09"/>
</a>
</g>
</g>
<!-- Node7 -->
<g id="Node000007" class="node">
<title>Node7</title>
<g id="a_Node000007"><a xlink:title=" ">
<polygon fill="#e0e0e0" stroke="#999999" points="809.5,-74 750.5,-74 750.5,-55 809.5,-55 809.5,-74"/>
<text text-anchor="middle" x="780" y="-62" font-family="Helvetica,sans-Serif" font-size="10.00">QtGlobal</text>
</a>
</g>
</g>
<!-- Node2&#45;&gt;Node7 -->
<g id="edge6_Node000002_Node000007" class="edge">
<title>Node2&#45;&gt;Node7</title>
<g id="a_edge6_Node000002_Node000007"><a xlink:title=" ">
<path fill="none" stroke="#63b8ff" d="M775.46,-274.88C788.47,-267.38 805.28,-255.18 813,-239 838.25,-186.09 807.37,-115.42 790.12,-83.04"/>
<polygon fill="#63b8ff" stroke="#63b8ff" points="793.18,-81.35 785.28,-74.29 787.06,-84.73 793.18,-81.35"/>
</a>
</g>
</g>
<!-- Node2&#45;&gt;Node8 -->
<g id="edge7_Node000002_Node000008" class="edge">
<title>Node2&#45;&gt;Node8</title>
<g id="a_edge7_Node000002_Node000008"><a xlink:title=" ">
<path fill="none" stroke="#63b8ff" d="M816.28,-278.82C940.38,-268.85 1229.71,-245.62 1356.56,-235.43"/>
<polygon fill="#63b8ff" stroke="#63b8ff" points="1357.17,-238.9 1366.86,-234.61 1356.61,-231.92 1357.17,-238.9"/>
</a>
</g>
</g>
<!-- Node8&#45;&gt;Node4 -->
<g id="edge8_Node000008_Node000004" class="edge">
<title>Node8&#45;&gt;Node4</title>
<g id="a_edge8_Node000008_Node000004"><a xlink:title=" ">
<path fill="none" stroke="#63b8ff" d="M1366.61,-224.76C1264.01,-217.25 1026.51,-199.74 827,-184 813.25,-182.92 798.48,-181.72 784.53,-180.57"/>
<polygon fill="#63b8ff" stroke="#63b8ff" points="784.8,-177.08 774.55,-179.74 784.23,-184.06 784.8,-177.08"/>
</a>
</g>
</g>
<!-- Node8&#45;&gt;Node5 -->
<g id="edge15_Node000008_Node000005" class="edge">
<title>Node8&#45;&gt;Node5</title>
<g id="a_edge15_Node000008_Node000005"><a xlink:title=" ">
<path fill="none" stroke="#63b8ff" d="M1366.68,-227.85C1248.33,-225.78 959.5,-217.37 869,-184 807.17,-161.2 747.89,-108.18 720.63,-81.48"/>
<polygon fill="#63b8ff" stroke="#63b8ff" points="722.78,-78.68 713.23,-74.1 717.84,-83.64 722.78,-78.68"/>
</a>
</g>
</g>
<!-- Node8&#45;&gt;Node7 -->
<g id="edge18_Node000008_Node000007" class="edge">
<title>Node8&#45;&gt;Node7</title>
<g id="a_edge18_Node000008_Node000007"><a xlink:title=" ">
<path fill="none" stroke="#63b8ff" d="M1366.83,-228.85C1252.51,-228.89 980.08,-224.57 899,-184 859.59,-164.28 864.62,-140.69 833,-110 822.36,-99.67 809.66,-88.96 799.36,-80.63"/>
<polygon fill="#63b8ff" stroke="#63b8ff" points="801.37,-77.76 791.37,-74.26 797,-83.23 801.37,-77.76"/>
</a>
</g>
</g>
<!-- Node9 -->
<g id="Node000009" class="node">
<title>Node9</title>
<g id="a_Node000009"><a xlink:title=" ">
<polygon fill="#e0e0e0" stroke="#999999" points="1262,-184 1164,-184 1164,-165 1262,-165 1262,-184"/>
<text text-anchor="middle" x="1213" y="-172" font-family="Helvetica,sans-Serif" font-size="10.00">QDomDocument</text>
</a>
</g>
</g>
<!-- Node8&#45;&gt;Node9 -->
<g id="edge9_Node000008_Node000009" class="edge">
<title>Node8&#45;&gt;Node9</title>
<g id="a_edge9_Node000008_Node000009"><a xlink:title=" ">
<path fill="none" stroke="#63b8ff" d="M1385.06,-219.98C1350.05,-210.93 1294.53,-196.58 1256.07,-186.64"/>
<polygon fill="#63b8ff" stroke="#63b8ff" points="1256.75,-183.2 1246.19,-184.08 1255,-189.97 1256.75,-183.2"/>
</a>
</g>
</g>
<!-- Node8&#45;&gt;Node10 -->
<g id="edge10_Node000008_Node000010" class="edge">
<title>Node8&#45;&gt;Node10</title>
<g id="a_edge10_Node000008_Node000010"><a xlink:title=" ">
<path fill="none" stroke="#63b8ff" d="M1457.2,-219.98C1499.41,-210.82 1566.65,-196.21 1612.48,-186.26"/>
<polygon fill="#63b8ff" stroke="#63b8ff" points="1613.46,-189.63 1622.49,-184.08 1611.97,-182.78 1613.46,-189.63"/>
</a>
</g>
</g>
<!-- Node8&#45;&gt;Node11 -->
<g id="edge11_Node000008_Node000011" class="edge">
<title>Node8&#45;&gt;Node11</title>
<g id="a_edge11_Node000008_Node000011"><a xlink:title=" ">
<path fill="none" stroke="#63b8ff" d="M1469.06,-221.39C1526.22,-213.31 1621.85,-199.43 1714.27,-184.07"/>
<polygon fill="#63b8ff" stroke="#63b8ff" points="1715.07,-187.49 1724.36,-182.39 1713.92,-180.58 1715.07,-187.49"/>
</a>
</g>
</g>
<!-- Node12 -->
<g id="Node000012" class="node">
<title>Node12</title>
<g id="a_Node000012"><a xlink:title=" ">
<polygon fill="#e0e0e0" stroke="#999999" points="1329.5,-184 1280.5,-184 1280.5,-165 1329.5,-165 1329.5,-184"/>
<text text-anchor="middle" x="1305" y="-172" font-family="Helvetica,sans-Serif" font-size="10.00">QHash</text>
</a>
</g>
</g>
<!-- Node8&#45;&gt;Node12 -->
<g id="edge12_Node000008_Node000012" class="edge">
<title>Node8&#45;&gt;Node12</title>
<g id="a_edge12_Node000008_Node000012"><a xlink:title=" ">
<path fill="none" stroke="#63b8ff" d="M1399.84,-219.98C1381.75,-211.5 1353.72,-198.35 1332.81,-188.54"/>
<polygon fill="#63b8ff" stroke="#63b8ff" points="1334.03,-185.25 1323.49,-184.17 1331.05,-191.59 1334.03,-185.25"/>
</a>
</g>
</g>
<!-- Node8&#45;&gt;Node13 -->
<g id="edge13_Node000008_Node000013" class="edge">
<title>Node8&#45;&gt;Node13</title>
<g id="a_edge13_Node000008_Node000013"><a xlink:title=" ">
<path fill="none" stroke="#63b8ff" d="M1469.09,-223.55C1541.59,-216.33 1678.72,-201.95 1805.05,-184.21"/>
<polygon fill="#63b8ff" stroke="#63b8ff" points="1805.87,-187.63 1815.28,-182.77 1804.89,-180.7 1805.87,-187.63"/>
</a>
</g>
</g>
<!-- Node8&#45;&gt;Node14 -->
<g id="edge14_Node000008_Node000014" class="edge">
<title>Node8&#45;&gt;Node14</title>
<g id="a_edge14_Node000008_Node000014"><a xlink:title=" ">
<path fill="none" stroke="#63b8ff" d="M1469.23,-224.66C1556.65,-217.93 1740.51,-203 1906.38,-184.13"/>
<polygon fill="#63b8ff" stroke="#63b8ff" points="1907.24,-187.56 1916.78,-182.94 1906.44,-180.6 1907.24,-187.56"/>
</a>
</g>
</g>
<!-- Node8&#45;&gt;Node15 -->
<g id="edge16_Node000008_Node000015" class="edge">
<title>Node8&#45;&gt;Node15</title>
<g id="a_edge16_Node000008_Node000015"><a xlink:title=" ">
<path fill="none" stroke="#63b8ff" d="M1469.36,-226.61C1573.14,-222.4 1815.39,-210.53 2028.7,-184.03"/>
<polygon fill="#63b8ff" stroke="#63b8ff" points="2029.35,-187.47 2038.83,-182.75 2028.47,-180.53 2029.35,-187.47"/>
</a>
</g>
</g>
<!-- Node8&#45;&gt;Node16 -->
<g id="edge17_Node000008_Node000016" class="edge">
<title>Node8&#45;&gt;Node16</title>
<g id="a_edge17_Node000008_Node000016"><a xlink:title=" ">
<path fill="none" stroke="#63b8ff" d="M1469.08,-226.91C1584.01,-222.99 1871.82,-211.2 2123.2,-183.97"/>
<polygon fill="#63b8ff" stroke="#63b8ff" points="2123.69,-187.44 2133.25,-182.87 2122.93,-180.48 2123.69,-187.44"/>
</a>
</g>
</g>
<!-- Node17 -->
<g id="Node000017" class="node">
<title>Node17</title>
<g id="a_Node000017"><a xlink:title=" ">
<polygon fill="#e0e0e0" stroke="#999999" points="1404,-184 1348,-184 1348,-165 1404,-165 1404,-184"/>
<text text-anchor="middle" x="1376" y="-172" font-family="Helvetica,sans-Serif" font-size="10.00">QLocale</text>
</a>
</g>
</g>
<!-- Node8&#45;&gt;Node17 -->
<g id="edge19_Node000008_Node000017" class="edge">
<title>Node8&#45;&gt;Node17</title>
<g id="a_edge19_Node000008_Node000017"><a xlink:title=" ">
<path fill="none" stroke="#63b8ff" d="M1411.06,-219.75C1405.13,-212.26 1396.43,-201.28 1389.18,-192.13"/>
<polygon fill="#63b8ff" stroke="#63b8ff" points="1391.76,-189.75 1382.81,-184.09 1386.27,-194.1 1391.76,-189.75"/>
</a>
</g>
</g>
<!-- Node18 -->
<g id="Node000018" class="node">
<title>Node18</title>
<g id="a_Node000018"><a xlink:title=" ">
<polygon fill="#e0e0e0" stroke="#999999" points="1499.5,-184 1422.5,-184 1422.5,-165 1499.5,-165 1499.5,-184"/>
<text text-anchor="middle" x="1461" y="-172" font-family="Helvetica,sans-Serif" font-size="10.00">../ifc/ifcdef.h</text>
</a>
</g>
</g>
<!-- Node8&#45;&gt;Node18 -->
<g id="edge20_Node000008_Node000018" class="edge">
<title>Node8&#45;&gt;Node18</title>
<g id="a_edge20_Node000008_Node000018"><a xlink:title=" ">
<path fill="none" stroke="#63b8ff" d="M1425.1,-219.75C1431.17,-212.26 1440.09,-201.28 1447.51,-192.13"/>
<polygon fill="#63b8ff" stroke="#63b8ff" points="1450.45,-194.06 1454.03,-184.09 1445.01,-189.65 1450.45,-194.06"/>
</a>
</g>
</g>
<!-- Node19 -->
<g id="Node000019" class="node">
<title>Node19</title>
<g id="a_Node000019"><a xlink:title=" ">
<polygon fill="#e0e0e0" stroke="#999999" points="1600,-184 1518,-184 1518,-165 1600,-165 1600,-184"/>
<text text-anchor="middle" x="1559" y="-172" font-family="Helvetica,sans-Serif" font-size="10.00">../vmisc/def.h</text>
</a>
</g>
</g>
<!-- Node8&#45;&gt;Node19 -->
<g id="edge21_Node000008_Node000019" class="edge">
<title>Node8&#45;&gt;Node19</title>
<g id="a_edge21_Node000008_Node000019"><a xlink:title=" ">
<path fill="none" stroke="#63b8ff" d="M1440.65,-219.98C1463.85,-211.27 1500.12,-197.63 1526.4,-187.75"/>
<polygon fill="#63b8ff" stroke="#63b8ff" points="1527.8,-190.97 1535.93,-184.17 1525.34,-184.41 1527.8,-190.97"/>
</a>
</g>
</g>
<!-- Node20 -->
<g id="Node000020" class="node">
<title>Node20</title>
<g id="a_Node000020"><a xlink:title=" ">
<polygon fill="#e0e0e0" stroke="#999999" points="1024.5,-184 907.5,-184 907.5,-165 1024.5,-165 1024.5,-184"/>
<text text-anchor="middle" x="966" y="-172" font-family="Helvetica,sans-Serif" font-size="10.00">../vmisc/diagnostic.h</text>
</a>
</g>
</g>
<!-- Node8&#45;&gt;Node20 -->
<g id="edge22_Node000008_Node000020" class="edge">
<title>Node8&#45;&gt;Node20</title>
<g id="a_edge22_Node000008_Node000020"><a xlink:title=" ">
<path fill="none" stroke="#63b8ff" d="M1366.74,-222.71C1295.04,-214.57 1160.44,-199.18 1034.79,-184.08"/>
<polygon fill="#63b8ff" stroke="#63b8ff" points="1034.95,-180.58 1024.6,-182.86 1034.11,-187.53 1034.95,-180.58"/>
</a>
</g>
</g>
<!-- Node21 -->
<g id="Node000021" class="node">
<title>Node21</title>
<g id="a_Node000021"><a xlink:title=" ">
<polygon fill="#e0e0e0" stroke="#999999" points="1145.5,-184 1042.5,-184 1042.5,-165 1145.5,-165 1145.5,-184"/>
<text text-anchor="middle" x="1094" y="-172" font-family="Helvetica,sans-Serif" font-size="10.00">../vmisc/logging.h</text>
</a>
</g>
</g>
<!-- Node8&#45;&gt;Node21 -->
<g id="edge23_Node000008_Node000021" class="edge">
<title>Node8&#45;&gt;Node21</title>
<g id="a_edge23_Node000008_Node000021"><a xlink:title=" ">
<path fill="none" stroke="#63b8ff" d="M1366.66,-220.1C1309.36,-210.73 1216.68,-195.57 1155.54,-185.57"/>
<polygon fill="#63b8ff" stroke="#63b8ff" points="1156.07,-182.11 1145.63,-183.95 1154.94,-189.01 1156.07,-182.11"/>
</a>
</g>
</g>
<!-- Node30&#45;&gt;Node3 -->
<g id="edge39_Node000030_Node000003" class="edge">
<title>Node30&#45;&gt;Node3</title>
<g id="a_edge39_Node000030_Node000003"><a xlink:title=" ">
<path fill="none" stroke="#63b8ff" d="M365.18,-219.98C338.63,-211.98 298.99,-199.01 266,-184 195.72,-152.02 118.11,-103.47 81.44,-79.67"/>
<polygon fill="#63b8ff" stroke="#63b8ff" points="83.32,-76.71 73.03,-74.17 79.49,-82.57 83.32,-76.71"/>
</a>
</g>
</g>
<!-- Node30&#45;&gt;Node4 -->
<g id="edge40_Node000030_Node000004" class="edge">
<title>Node30&#45;&gt;Node4</title>
<g id="a_edge40_Node000030_Node000004"><a xlink:title=" ">
<path fill="none" stroke="#63b8ff" d="M447.86,-219.98C506.71,-210.5 601.64,-195.21 663.43,-185.26"/>
<polygon fill="#63b8ff" stroke="#63b8ff" points="664.12,-188.69 673.43,-183.65 663,-181.78 664.12,-188.69"/>
</a>
</g>
</g>
<!-- Node30&#45;&gt;Node5 -->
<g id="edge42_Node000030_Node000005" class="edge">
<title>Node30&#45;&gt;Node5</title>
<g id="a_edge42_Node000030_Node000005"><a xlink:title=" ">
<path fill="none" stroke="#63b8ff" d="M397.39,-219.88C404.06,-197.57 425.12,-137.75 466,-110 539.22,-60.3 576.66,-90.31 668.36,-73.9"/>
<polygon fill="#63b8ff" stroke="#63b8ff" points="669.15,-77.32 678.3,-71.98 667.82,-70.44 669.15,-77.32"/>
</a>
</g>
</g>
<!-- Node31 -->
<g id="Node000031" class="node">
<title>Node31</title>
<g id="a_Node000031"><a xlink:title=" ">
<polygon fill="#e0e0e0" stroke="#999999" points="347,-184 275,-184 275,-165 347,-165 347,-184"/>
<text text-anchor="middle" x="311" y="-172" font-family="Helvetica,sans-Serif" font-size="10.00">QException</text>
</a>
</g>
</g>
<!-- Node30&#45;&gt;Node31 -->
<g id="edge41_Node000030_Node000031" class="edge">
<title>Node30&#45;&gt;Node31</title>
<g id="a_edge41_Node000030_Node000031"><a xlink:title=" ">
<path fill="none" stroke="#63b8ff" d="M381.5,-219.98C368.6,-211.84 348.9,-199.41 333.6,-189.76"/>
<polygon fill="#63b8ff" stroke="#63b8ff" points="335.07,-186.55 324.74,-184.17 331.33,-192.47 335.07,-186.55"/>
</a>
</g>
</g>
<!-- Node32 -->
<g id="Node000032" class="node">
<title>Node32</title>
<g id="a_Node000032"><a xlink:href="../../d3/da5/ifcdef_8h.html" target="_top" xlink:title=" ">
<polygon fill="white" stroke="#666666" points="503,-184 441,-184 441,-165 503,-165 503,-184"/>
<text text-anchor="middle" x="472" y="-172" font-family="Helvetica,sans-Serif" font-size="10.00">../ifcdef.h</text>
</a>
</g>
</g>
<!-- Node30&#45;&gt;Node32 -->
<g id="edge43_Node000030_Node000032" class="edge">
<title>Node30&#45;&gt;Node32</title>
<g id="a_edge43_Node000030_Node000032"><a xlink:title=" ">
<path fill="none" stroke="#63b8ff" d="M407.37,-219.98C419.09,-211.92 436.92,-199.65 450.89,-190.03"/>
<polygon fill="#63b8ff" stroke="#63b8ff" points="453.15,-192.72 459.4,-184.17 449.18,-186.96 453.15,-192.72"/>
</a>
</g>
</g>
<!-- Node32&#45;&gt;Node5 -->
<g id="edge44_Node000032_Node000005" class="edge">
<title>Node32&#45;&gt;Node5</title>
<g id="a_edge44_Node000032_Node000005"><a xlink:title=" ">
<path fill="none" stroke="#63b8ff" d="M470.06,-164.81C467.59,-151.23 465.14,-124.98 479,-110 535.27,-49.2 581.48,-88.77 668.35,-73.86"/>
<polygon fill="#63b8ff" stroke="#63b8ff" points="669.14,-77.27 678.29,-71.95 667.81,-70.4 669.14,-77.27"/>
</a>
</g>
</g>
<!-- Node32&#45;&gt;Node7 -->
<g id="edge46_Node000032_Node000007" class="edge">
<title>Node32&#45;&gt;Node7</title>
<g id="a_edge46_Node000032_Node000007"><a xlink:title=" ">
<path fill="none" stroke="#63b8ff" d="M479.7,-164.92C492.72,-151.01 520.55,-123.69 550,-110 627.93,-73.76 655.74,-90.93 740,-74 740.1,-73.98 740.21,-73.96 740.31,-73.94"/>
<polygon fill="#63b8ff" stroke="#63b8ff" points="741.22,-77.32 750.31,-71.89 739.81,-70.47 741.22,-77.32"/>
</a>
</g>
</g>
<!-- Node32&#45;&gt;Node29 -->
<g id="edge45_Node000032_Node000029" class="edge">
<title>Node32&#45;&gt;Node29</title>
<g id="a_edge45_Node000032_Node000029"><a xlink:title=" ">
<path fill="none" stroke="#63b8ff" d="M440.88,-167.7C405.57,-160.62 346.58,-147.3 298,-129 278.37,-121.61 228.52,-95.39 198.03,-79.04"/>
<polygon fill="#63b8ff" stroke="#63b8ff" points="199.34,-75.77 188.88,-74.12 196.03,-81.94 199.34,-75.77"/>
</a>
</g>
</g>
<!-- Node33 -->
<g id="Node000033" class="node">
<title>Node33</title>
<g id="a_Node000033"><a xlink:href="../../d4/da4/def_8h.html" target="_top" xlink:title=" ">
<polygon fill="white" stroke="#666666" points="389,-129 307,-129 307,-110 389,-110 389,-129"/>
<text text-anchor="middle" x="348" y="-117" font-family="Helvetica,sans-Serif" font-size="10.00">../vmisc/def.h</text>
</a>
</g>
</g>
<!-- Node32&#45;&gt;Node33 -->
<g id="edge47_Node000032_Node000033" class="edge">
<title>Node32&#45;&gt;Node33</title>
<g id="a_edge47_Node000032_Node000033"><a xlink:title=" ">
<path fill="none" stroke="#63b8ff" d="M452.08,-164.98C431.95,-156.38 400.62,-142.99 377.59,-133.15"/>
<polygon fill="#63b8ff" stroke="#63b8ff" points="378.86,-129.88 368.29,-129.17 376.1,-136.32 378.86,-129.88"/>
</a>
</g>
</g>
<!-- Node41 -->
<g id="Node000041" class="node">
<title>Node41</title>
<g id="a_Node000041"><a xlink:href="../../d6/dcd/diagnostic_8h.html" target="_top" xlink:title=" ">
<polygon fill="white" stroke="#666666" points="676.5,-129 559.5,-129 559.5,-110 676.5,-110 676.5,-129"/>
<text text-anchor="middle" x="618" y="-117" font-family="Helvetica,sans-Serif" font-size="10.00">../vmisc/diagnostic.h</text>
</a>
</g>
</g>
<!-- Node32&#45;&gt;Node41 -->
<g id="edge59_Node000032_Node000041" class="edge">
<title>Node32&#45;&gt;Node41</title>
<g id="a_edge59_Node000032_Node000041"><a xlink:title=" ">
<path fill="none" stroke="#63b8ff" d="M495.46,-164.98C519.58,-156.23 557.37,-142.51 584.6,-132.62"/>
<polygon fill="#63b8ff" stroke="#63b8ff" points="585.91,-135.87 594.12,-129.17 583.52,-129.29 585.91,-135.87"/>
</a>
</g>
</g>
<!-- Node33&#45;&gt;Node3 -->
<g id="edge48_Node000033_Node000003" class="edge">
<title>Node33&#45;&gt;Node3</title>
<g id="a_edge48_Node000033_Node000003"><a xlink:title=" ">
<path fill="none" stroke="#63b8ff" d="M306.74,-110.91C256.81,-101.72 172.49,-86.2 116.54,-75.9"/>
<polygon fill="#63b8ff" stroke="#63b8ff" points="116.9,-72.41 106.43,-74.05 115.64,-79.3 116.9,-72.41"/>
</a>
</g>
</g>
<!-- Node33&#45;&gt;Node5 -->
<g id="edge51_Node000033_Node000005" class="edge">
<title>Node33&#45;&gt;Node5</title>
<g id="a_edge51_Node000033_Node000005"><a xlink:title=" ">
<path fill="none" stroke="#63b8ff" d="M389.13,-112.06C393.81,-111.35 398.51,-110.65 403,-110 517.84,-93.36 549.96,-95.59 668.15,-73.98"/>
<polygon fill="#63b8ff" stroke="#63b8ff" points="669.13,-77.36 678.32,-72.1 667.86,-70.48 669.13,-77.36"/>
</a>
</g>
</g>
<!-- Node33&#45;&gt;Node7 -->
<g id="edge54_Node000033_Node000007" class="edge">
<title>Node33&#45;&gt;Node7</title>
<g id="a_edge54_Node000033_Node000007"><a xlink:title=" ">
<path fill="none" stroke="#63b8ff" d="M389.09,-115.15C460.67,-109.02 612.73,-94.7 740,-74 740.11,-73.98 740.21,-73.97 740.32,-73.95"/>
<polygon fill="#63b8ff" stroke="#63b8ff" points="741.14,-77.36 750.35,-72.13 739.89,-70.47 741.14,-77.36"/>
</a>
</g>
</g>
<!-- Node33&#45;&gt;Node29 -->
<g id="edge52_Node000033_Node000029" class="edge">
<title>Node33&#45;&gt;Node29</title>
<g id="a_edge52_Node000033_Node000029"><a xlink:title=" ">
<path fill="none" stroke="#63b8ff" d="M319.88,-109.98C290.38,-101.05 243.81,-86.94 211.03,-77.02"/>
<polygon fill="#63b8ff" stroke="#63b8ff" points="211.92,-73.63 201.34,-74.08 209.89,-80.33 211.92,-73.63"/>
</a>
</g>
</g>
<!-- Node34 -->
<g id="Node000034" class="node">
<title>Node34</title>
<g id="a_Node000034"><a xlink:title=" ">
<polygon fill="#e0e0e0" stroke="#999999" points="299.5,-74 226.5,-74 226.5,-55 299.5,-55 299.5,-74"/>
<text text-anchor="middle" x="263" y="-62" font-family="Helvetica,sans-Serif" font-size="10.00">QFileDialog</text>
</a>
</g>
</g>
<!-- Node33&#45;&gt;Node34 -->
<g id="edge49_Node000033_Node000034" class="edge">
<title>Node33&#45;&gt;Node34</title>
<g id="a_edge49_Node000033_Node000034"><a xlink:title=" ">
<path fill="none" stroke="#63b8ff" d="M334.34,-109.98C321.16,-101.77 300.97,-89.18 285.43,-79.49"/>
<polygon fill="#63b8ff" stroke="#63b8ff" points="287.24,-76.49 276.91,-74.17 283.54,-82.43 287.24,-76.49"/>
</a>
</g>
</g>
<!-- Node35 -->
<g id="Node000035" class="node">
<title>Node35</title>
<g id="a_Node000035"><a xlink:title=" ">
<polygon fill="#e0e0e0" stroke="#999999" points="368,-74 318,-74 318,-55 368,-55 368,-74"/>
<text text-anchor="middle" x="343" y="-62" font-family="Helvetica,sans-Serif" font-size="10.00">QLineF</text>
</a>
</g>
</g>
<!-- Node33&#45;&gt;Node35 -->
<g id="edge50_Node000033_Node000035" class="edge">
<title>Node33&#45;&gt;Node35</title>
<g id="a_edge50_Node000033_Node000035"><a xlink:title=" ">
<path fill="none" stroke="#63b8ff" d="M347.17,-109.75C346.52,-102.8 345.58,-92.85 344.76,-84.13"/>
<polygon fill="#63b8ff" stroke="#63b8ff" points="348.23,-83.72 343.81,-74.09 341.27,-84.37 348.23,-83.72"/>
</a>
</g>
</g>
<!-- Node36 -->
<g id="Node000036" class="node">
<title>Node36</title>
<g id="a_Node000036"><a xlink:title=" ">
<polygon fill="#e0e0e0" stroke="#999999" points="415.5,-74 386.5,-74 386.5,-55 415.5,-55 415.5,-74"/>
<text text-anchor="middle" x="401" y="-62" font-family="Helvetica,sans-Serif" font-size="10.00">Qt</text>
</a>
</g>
</g>
<!-- Node33&#45;&gt;Node36 -->
<g id="edge53_Node000033_Node000036" class="edge">
<title>Node33&#45;&gt;Node36</title>
<g id="a_edge53_Node000033_Node000036"><a xlink:title=" ">
<path fill="none" stroke="#63b8ff" d="M356.75,-109.75C364.47,-102.03 375.9,-90.6 385.22,-81.28"/>
<polygon fill="#63b8ff" stroke="#63b8ff" points="387.81,-83.64 392.41,-74.09 382.86,-78.69 387.81,-83.64"/>
</a>
</g>
</g>
<!-- Node37 -->
<g id="Node000037" class="node">
<title>Node37</title>
<g id="a_Node000037"><a xlink:title=" ">
<polygon fill="#e0e0e0" stroke="#999999" points="490,-74 434,-74 434,-55 490,-55 490,-74"/>
<text text-anchor="middle" x="462" y="-62" font-family="Helvetica,sans-Serif" font-size="10.00">QPrinter</text>
</a>
</g>
</g>
<!-- Node33&#45;&gt;Node37 -->
<g id="edge55_Node000033_Node000037" class="edge">
<title>Node33&#45;&gt;Node37</title>
<g id="a_edge55_Node000033_Node000037"><a xlink:title=" ">
<path fill="none" stroke="#63b8ff" d="M366.32,-109.98C384.66,-101.46 413.11,-88.23 434.23,-78.41"/>
<polygon fill="#63b8ff" stroke="#63b8ff" points="435.76,-81.56 443.35,-74.17 432.81,-75.21 435.76,-81.56"/>
</a>
</g>
</g>
<!-- Node38 -->
<g id="Node000038" class="node">
<title>Node38</title>
<g id="a_Node000038"><a xlink:title=" ">
<polygon fill="#e0e0e0" stroke="#999999" points="559.5,-74 508.5,-74 508.5,-55 559.5,-55 559.5,-74"/>
<text text-anchor="middle" x="534" y="-62" font-family="Helvetica,sans-Serif" font-size="10.00">csignal</text>
</a>
</g>
</g>
<!-- Node33&#45;&gt;Node38 -->
<g id="edge56_Node000033_Node000038" class="edge">
<title>Node33&#45;&gt;Node38</title>
<g id="a_edge56_Node000033_Node000038"><a xlink:title=" ">
<path fill="none" stroke="#63b8ff" d="M377.88,-109.98C410.78,-100.61 463.64,-85.55 498.59,-75.59"/>
<polygon fill="#63b8ff" stroke="#63b8ff" points="499.72,-78.91 508.38,-72.8 497.81,-72.17 499.72,-78.91"/>
</a>
</g>
</g>
<!-- Node39 -->
<g id="Node000039" class="node">
<title>Node39</title>
<g id="a_Node000039"><a xlink:href="../../d4/d82/debugbreak_8h.html" target="_top" xlink:title=" ">
<polygon fill="white" stroke="#666666" points="660.5,-74 577.5,-74 577.5,-55 660.5,-55 660.5,-74"/>
<text text-anchor="middle" x="619" y="-62" font-family="Helvetica,sans-Serif" font-size="10.00">debugbreak.h</text>
</a>
</g>
</g>
<!-- Node33&#45;&gt;Node39 -->
<g id="edge57_Node000033_Node000039" class="edge">
<title>Node33&#45;&gt;Node39</title>
<g id="a_edge57_Node000033_Node000039"><a xlink:title=" ">
<path fill="none" stroke="#63b8ff" d="M389.16,-110.45C436.91,-101.11 515.7,-85.7 567.48,-75.58"/>
<polygon fill="#63b8ff" stroke="#63b8ff" points="568.31,-78.98 577.45,-73.63 566.97,-72.11 568.31,-78.98"/>
</a>
</g>
</g>
<!-- Node40 -->
<g id="Node000040" class="node">
<title>Node40</title>
<g id="a_Node000040"><a xlink:title=" ">
<polygon fill="#e0e0e0" stroke="#999999" points="646.5,-19 591.5,-19 591.5,0 646.5,0 646.5,-19"/>
<text text-anchor="middle" x="619" y="-7" font-family="Helvetica,sans-Serif" font-size="10.00">signal.h</text>
</a>
</g>
</g>
<!-- Node39&#45;&gt;Node40 -->
<g id="edge58_Node000039_Node000040" class="edge">
<title>Node39&#45;&gt;Node40</title>
<g id="a_edge58_Node000039_Node000040"><a xlink:title=" ">
<path fill="none" stroke="#63b8ff" d="M619,-54.75C619,-47.8 619,-37.85 619,-29.13"/>
<polygon fill="#63b8ff" stroke="#63b8ff" points="622.5,-29.09 619,-19.09 615.5,-29.09 622.5,-29.09"/>
</a>
</g>
</g>
<!-- Node41&#45;&gt;Node7 -->
<g id="edge60_Node000041_Node000007" class="edge">
<title>Node41&#45;&gt;Node7</title>
<g id="a_edge60_Node000041_Node000007"><a xlink:title=" ">
<path fill="none" stroke="#63b8ff" d="M644.03,-109.98C671.11,-101.13 713.71,-87.19 744.01,-77.28"/>
<polygon fill="#63b8ff" stroke="#63b8ff" points="745.35,-80.52 753.77,-74.08 743.18,-73.87 745.35,-80.52"/>
</a>
</g>
</g>
<!-- Node42&#45;&gt;Node3 -->
<g id="edge62_Node000042_Node000003" class="edge">
<title>Node42&#45;&gt;Node3</title>
<g id="a_edge62_Node000042_Node000003"><a xlink:title=" ">
<path fill="none" stroke="#63b8ff" d="M458.32,-274.98C416.22,-268.31 361.8,-257.07 316,-239 216.17,-199.62 116.17,-115.96 77.12,-81.18"/>
<polygon fill="#63b8ff" stroke="#63b8ff" points="79.11,-78.26 69.33,-74.17 74.42,-83.46 79.11,-78.26"/>
</a>
</g>
</g>
<!-- Node42&#45;&gt;Node5 -->
<g id="edge63_Node000042_Node000005" class="edge">
<title>Node42&#45;&gt;Node5</title>
<g id="a_edge63_Node000042_Node000005"><a xlink:title=" ">
<path fill="none" stroke="#63b8ff" d="M525.23,-275C520,-247.4 507.54,-159.25 550,-110 553.96,-105.4 623.74,-86.6 668.31,-74.96"/>
<polygon fill="#63b8ff" stroke="#63b8ff" points="669.42,-78.28 678.22,-72.38 667.66,-71.51 669.42,-78.28"/>
</a>
</g>
</g>
<!-- Node42&#45;&gt;Node7 -->
<g id="edge64_Node000042_Node000007" class="edge">
<title>Node42&#45;&gt;Node7</title>
<g id="a_edge64_Node000042_Node000007"><a xlink:title=" ">
<path fill="none" stroke="#63b8ff" d="M536.96,-274.86C559.53,-255.28 616.35,-206.05 664,-165 698.76,-135.06 739.48,-100.17 762.26,-80.68"/>
<polygon fill="#63b8ff" stroke="#63b8ff" points="764.74,-83.17 770.06,-74 760.18,-77.85 764.74,-83.17"/>
</a>
</g>
</g>
<!-- Node42&#45;&gt;Node30 -->
<g id="edge66_Node000042_Node000030" class="edge">
<title>Node42&#45;&gt;Node30</title>
<g id="a_edge66_Node000042_Node000030"><a xlink:title=" ">
<path fill="none" stroke="#63b8ff" d="M505.79,-274.98C484.27,-266.34 450.72,-252.87 426.17,-243.02"/>
<polygon fill="#63b8ff" stroke="#63b8ff" points="427.18,-239.65 416.59,-239.17 424.57,-246.14 427.18,-239.65"/>
</a>
</g>
</g>
<!-- Node42&#45;&gt;Node32 -->
<g id="edge65_Node000042_Node000032" class="edge">
<title>Node42&#45;&gt;Node32</title>
<g id="a_edge65_Node000042_Node000032"><a xlink:title=" ">
<path fill="none" stroke="#63b8ff" d="M522.5,-274.66C513.47,-256.93 493,-216.73 481.07,-193.32"/>
<polygon fill="#63b8ff" stroke="#63b8ff" points="484.07,-191.48 476.41,-184.16 477.83,-194.66 484.07,-191.48"/>
</a>
</g>
</g>
</g>
</svg>
