<?xml version="1.0" encoding="UTF-8" standalone="no"?>
<!DOCTYPE svg PUBLIC "-//W3C//DTD SVG 1.1//EN"
 "http://www.w3.org/Graphics/SVG/1.1/DTD/svg11.dtd">
<!-- Generated by graphviz version 2.43.0 (0)
 -->
<!-- Title: src/libs/vpatterndb/vpiece.h Pages: 1 -->
<svg width="1221pt" height="258pt"
 viewBox="0.00 0.00 1221.00 258.00" xmlns="http://www.w3.org/2000/svg" xmlns:xlink="http://www.w3.org/1999/xlink">
<g id="graph0" class="graph" transform="scale(1 1) rotate(0) translate(4 254)">
<title>src/libs/vpatterndb/vpiece.h</title>
<!-- Node1 -->
<g id="Node000001" class="node">
<title>Node1</title>
<g id="a_Node000001"><a xlink:title=" ">
<polygon fill="#999999" stroke="#666666" points="906.5,-250 799.5,-250 799.5,-220 906.5,-220 906.5,-250"/>
<text text-anchor="start" x="807.5" y="-238" font-family="Helvetica,sans-Serif" font-size="10.00">src/libs/vpatterndb</text>
<text text-anchor="middle" x="853" y="-227" font-family="Helvetica,sans-Serif" font-size="10.00">/vpiece.h</text>
</a>
</g>
</g>
<!-- Node2 -->
<g id="Node000002" class="node">
<title>Node2</title>
<g id="a_Node000002"><a xlink:title=" ">
<polygon fill="#e0e0e0" stroke="#999999" points="738.5,-74 679.5,-74 679.5,-55 738.5,-55 738.5,-74"/>
<text text-anchor="middle" x="709" y="-62" font-family="Helvetica,sans-Serif" font-size="10.00">QtGlobal</text>
</a>
</g>
</g>
<!-- Node1&#45;&gt;Node2 -->
<g id="edge1_Node000001_Node000002" class="edge">
<title>Node1&#45;&gt;Node2</title>
<g id="a_edge1_Node000001_Node000002"><a xlink:title=" ">
<path fill="none" stroke="#63b8ff" d="M855.12,-219.89C858.05,-194.75 860.35,-141.9 834,-110 822.88,-96.54 781.1,-83.42 748.87,-74.95"/>
<polygon fill="#63b8ff" stroke="#63b8ff" points="749.34,-71.46 738.79,-72.37 747.61,-78.24 749.34,-71.46"/>
</a>
</g>
</g>
<!-- Node3 -->
<g id="Node000003" class="node">
<title>Node3</title>
<g id="a_Node000003"><a xlink:title=" ">
<polygon fill="#e0e0e0" stroke="#999999" points="50,-74 0,-74 0,-55 50,-55 50,-74"/>
<text text-anchor="middle" x="25" y="-62" font-family="Helvetica,sans-Serif" font-size="10.00">QLineF</text>
</a>
</g>
</g>
<!-- Node1&#45;&gt;Node3 -->
<g id="edge2_Node000001_Node000003" class="edge">
<title>Node1&#45;&gt;Node3</title>
<g id="a_edge2_Node000001_Node000003"><a xlink:title=" ">
<path fill="none" stroke="#63b8ff" d="M799.38,-224.08C672.59,-200.43 344.24,-138.08 60.3,-74.21"/>
<polygon fill="#63b8ff" stroke="#63b8ff" points="60.75,-70.73 50.22,-71.94 59.21,-77.56 60.75,-70.73"/>
</a>
</g>
</g>
<!-- Node4 -->
<g id="Node000004" class="node">
<title>Node4</title>
<g id="a_Node000004"><a xlink:title=" ">
<polygon fill="#e0e0e0" stroke="#999999" points="1213,-74 1097,-74 1097,-55 1213,-55 1213,-74"/>
<text text-anchor="middle" x="1155" y="-62" font-family="Helvetica,sans-Serif" font-size="10.00">QSharedDataPointer</text>
</a>
</g>
</g>
<!-- Node1&#45;&gt;Node4 -->
<g id="edge3_Node000001_Node000004" class="edge">
<title>Node1&#45;&gt;Node4</title>
<g id="a_edge3_Node000001_Node000004"><a xlink:title=" ">
<path fill="none" stroke="#63b8ff" d="M896.51,-219.96C922.05,-211.03 954.59,-198.45 982,-184 1041.5,-152.63 1105.23,-104.82 1136.09,-80.63"/>
<polygon fill="#63b8ff" stroke="#63b8ff" points="1138.55,-83.15 1144.23,-74.2 1134.21,-77.65 1138.55,-83.15"/>
</a>
</g>
</g>
<!-- Node5 -->
<g id="Node000005" class="node">
<title>Node5</title>
<g id="a_Node000005"><a xlink:title=" ">
<polygon fill="#e0e0e0" stroke="#999999" points="973,-184 881,-184 881,-165 973,-165 973,-184"/>
<text text-anchor="middle" x="927" y="-172" font-family="Helvetica,sans-Serif" font-size="10.00">QSharedPointer</text>
</a>
</g>
</g>
<!-- Node1&#45;&gt;Node5 -->
<g id="edge4_Node000001_Node000005" class="edge">
<title>Node1&#45;&gt;Node5</title>
<g id="a_edge4_Node000001_Node000005"><a xlink:title=" ">
<path fill="none" stroke="#63b8ff" d="M870.91,-219.84C882.09,-211 896.48,-199.63 907.88,-190.62"/>
<polygon fill="#63b8ff" stroke="#63b8ff" points="910.24,-193.21 915.91,-184.27 905.9,-187.72 910.24,-193.21"/>
</a>
</g>
</g>
<!-- Node6 -->
<g id="Node000006" class="node">
<title>Node6</title>
<g id="a_Node000006"><a xlink:href="../../dd/d37/vabstractpiece_8h.html" target="_top" xlink:title=" ">
<polygon fill="white" stroke="#666666" points="795,-184 649,-184 649,-165 795,-165 795,-184"/>
<text text-anchor="middle" x="722" y="-172" font-family="Helvetica,sans-Serif" font-size="10.00">../vlayout/vabstractpiece.h</text>
</a>
</g>
</g>
<!-- Node1&#45;&gt;Node6 -->
<g id="edge5_Node000001_Node000006" class="edge">
<title>Node1&#45;&gt;Node6</title>
<g id="a_edge5_Node000001_Node000006"><a xlink:title=" ">
<path fill="none" stroke="#63b8ff" d="M821.62,-219.99C800.06,-210.36 771.65,-197.67 750.69,-188.31"/>
<polygon fill="#63b8ff" stroke="#63b8ff" points="751.9,-185.02 741.35,-184.14 749.05,-191.41 751.9,-185.02"/>
</a>
</g>
</g>
<!-- Node6&#45;&gt;Node2 -->
<g id="edge6_Node000006_Node000002" class="edge">
<title>Node6&#45;&gt;Node2</title>
<g id="a_edge6_Node000006_Node000002"><a xlink:title=" ">
<path fill="none" stroke="#63b8ff" d="M657.49,-164.99C614.76,-157.87 564.23,-146.11 551,-129 545.84,-122.32 545.9,-116.73 551,-110 554.68,-105.14 623.99,-86.91 669.58,-75.34"/>
<polygon fill="#63b8ff" stroke="#63b8ff" points="670.64,-78.68 679.48,-72.84 668.92,-71.9 670.64,-78.68"/>
</a>
</g>
</g>
<!-- Node6&#45;&gt;Node4 -->
<g id="edge7_Node000006_Node000004" class="edge">
<title>Node6&#45;&gt;Node4</title>
<g id="a_edge7_Node000006_Node000004"><a xlink:title=" ">
<path fill="none" stroke="#63b8ff" d="M795.07,-168.99C857.1,-163.7 947.9,-152.44 1024,-129 1063.84,-116.73 1106.72,-93.91 1132.18,-79.23"/>
<polygon fill="#63b8ff" stroke="#63b8ff" points="1134.19,-82.11 1141.05,-74.04 1130.65,-76.07 1134.19,-82.11"/>
</a>
</g>
</g>
<!-- Node7 -->
<g id="Node000007" class="node">
<title>Node7</title>
<g id="a_Node000007"><a xlink:title=" ">
<polygon fill="#e0e0e0" stroke="#999999" points="615.5,-129 560.5,-129 560.5,-110 615.5,-110 615.5,-129"/>
<text text-anchor="middle" x="588" y="-117" font-family="Helvetica,sans-Serif" font-size="10.00">QPointF</text>
</a>
</g>
</g>
<!-- Node6&#45;&gt;Node7 -->
<g id="edge8_Node000006_Node000007" class="edge">
<title>Node6&#45;&gt;Node7</title>
<g id="a_edge8_Node000006_Node000007"><a xlink:title=" ">
<path fill="none" stroke="#63b8ff" d="M700.47,-164.98C678.53,-156.3 644.26,-142.75 619.31,-132.88"/>
<polygon fill="#63b8ff" stroke="#63b8ff" points="620.51,-129.59 609.92,-129.17 617.93,-136.1 620.51,-129.59"/>
</a>
</g>
</g>
<!-- Node8 -->
<g id="Node000008" class="node">
<title>Node8</title>
<g id="a_Node000008"><a xlink:title=" ">
<polygon fill="#e0e0e0" stroke="#999999" points="825,-129 769,-129 769,-110 825,-110 825,-129"/>
<text text-anchor="middle" x="797" y="-117" font-family="Helvetica,sans-Serif" font-size="10.00">QDebug</text>
</a>
</g>
</g>
<!-- Node6&#45;&gt;Node8 -->
<g id="edge9_Node000006_Node000008" class="edge">
<title>Node6&#45;&gt;Node8</title>
<g id="a_edge9_Node000006_Node000008"><a xlink:title=" ">
<path fill="none" stroke="#63b8ff" d="M734.05,-164.98C745.46,-156.92 762.83,-144.65 776.43,-135.03"/>
<polygon fill="#63b8ff" stroke="#63b8ff" points="778.58,-137.8 784.73,-129.17 774.54,-132.08 778.58,-137.8"/>
</a>
</g>
</g>
<!-- Node9 -->
<g id="Node000009" class="node">
<title>Node9</title>
<g id="a_Node000009"><a xlink:href="../../d6/dcd/diagnostic_8h.html" target="_top" xlink:title=" ">
<polygon fill="white" stroke="#666666" points="750.5,-129 633.5,-129 633.5,-110 750.5,-110 750.5,-129"/>
<text text-anchor="middle" x="692" y="-117" font-family="Helvetica,sans-Serif" font-size="10.00">../vmisc/diagnostic.h</text>
</a>
</g>
</g>
<!-- Node6&#45;&gt;Node9 -->
<g id="edge10_Node000006_Node000009" class="edge">
<title>Node6&#45;&gt;Node9</title>
<g id="a_edge10_Node000006_Node000009"><a xlink:title=" ">
<path fill="none" stroke="#63b8ff" d="M717.05,-164.75C712.94,-157.49 706.97,-146.95 701.9,-137.98"/>
<polygon fill="#63b8ff" stroke="#63b8ff" points="704.83,-136.07 696.86,-129.09 698.74,-139.52 704.83,-136.07"/>
</a>
</g>
</g>
<!-- Node10 -->
<g id="Node000010" class="node">
<title>Node10</title>
<g id="a_Node000010"><a xlink:href="../../d4/da4/def_8h.html" target="_top" xlink:title=" ">
<polygon fill="white" stroke="#666666" points="437,-129 355,-129 355,-110 437,-110 437,-129"/>
<text text-anchor="middle" x="396" y="-117" font-family="Helvetica,sans-Serif" font-size="10.00">../vmisc/def.h</text>
</a>
</g>
</g>
<!-- Node6&#45;&gt;Node10 -->
<g id="edge12_Node000006_Node000010" class="edge">
<title>Node6&#45;&gt;Node10</title>
<g id="a_edge12_Node000006_Node000010"><a xlink:title=" ">
<path fill="none" stroke="#63b8ff" d="M669.62,-164.98C608.54,-155.05 508.22,-138.74 447.51,-128.87"/>
<polygon fill="#63b8ff" stroke="#63b8ff" points="447.82,-125.38 437.39,-127.23 446.7,-132.29 447.82,-125.38"/>
</a>
</g>
</g>
<!-- Node20 -->
<g id="Node000020" class="node">
<title>Node20</title>
<g id="a_Node000020"><a xlink:href="../../d2/d07/vgobject_8h.html" target="_top" xlink:title=" ">
<polygon fill="white" stroke="#666666" points="1014.5,-129 881.5,-129 881.5,-110 1014.5,-110 1014.5,-129"/>
<text text-anchor="middle" x="948" y="-117" font-family="Helvetica,sans-Serif" font-size="10.00">../vgeometry/vgobject.h</text>
</a>
</g>
</g>
<!-- Node6&#45;&gt;Node20 -->
<g id="edge24_Node000006_Node000020" class="edge">
<title>Node6&#45;&gt;Node20</title>
<g id="a_edge24_Node000006_Node000020"><a xlink:title=" ">
<path fill="none" stroke="#63b8ff" d="M758.31,-164.98C797.24,-155.86 859.16,-141.33 901.6,-131.38"/>
<polygon fill="#63b8ff" stroke="#63b8ff" points="902.47,-134.77 911.4,-129.08 900.87,-127.96 902.47,-134.77"/>
</a>
</g>
</g>
<!-- Node9&#45;&gt;Node2 -->
<g id="edge11_Node000009_Node000002" class="edge">
<title>Node9&#45;&gt;Node2</title>
<g id="a_edge11_Node000009_Node000002"><a xlink:title=" ">
<path fill="none" stroke="#63b8ff" d="M694.81,-109.75C697.06,-102.72 700.3,-92.62 703.12,-83.84"/>
<polygon fill="#63b8ff" stroke="#63b8ff" points="706.52,-84.68 706.25,-74.09 699.86,-82.54 706.52,-84.68"/>
</a>
</g>
</g>
<!-- Node10&#45;&gt;Node2 -->
<g id="edge19_Node000010_Node000002" class="edge">
<title>Node10&#45;&gt;Node2</title>
<g id="a_edge19_Node000010_Node000002"><a xlink:title=" ">
<path fill="none" stroke="#63b8ff" d="M437.43,-112.48C489.26,-104.79 580.93,-90.68 669.3,-74.04"/>
<polygon fill="#63b8ff" stroke="#63b8ff" points="670.05,-77.46 679.22,-72.16 668.75,-70.59 670.05,-77.46"/>
</a>
</g>
</g>
<!-- Node10&#45;&gt;Node3 -->
<g id="edge15_Node000010_Node000003" class="edge">
<title>Node10&#45;&gt;Node3</title>
<g id="a_edge15_Node000010_Node000003"><a xlink:title=" ">
<path fill="none" stroke="#63b8ff" d="M354.78,-114.58C292.89,-108.37 172.14,-94.96 60.28,-74.05"/>
<polygon fill="#63b8ff" stroke="#63b8ff" points="60.66,-70.56 50.18,-72.13 59.35,-77.43 60.66,-70.56"/>
</a>
</g>
</g>
<!-- Node11 -->
<g id="Node000011" class="node">
<title>Node11</title>
<g id="a_Node000011"><a xlink:title=" ">
<polygon fill="#e0e0e0" stroke="#999999" points="661,-74 541,-74 541,-55 661,-55 661,-74"/>
<text text-anchor="middle" x="601" y="-62" font-family="Helvetica,sans-Serif" font-size="10.00">qcompilerdetection.h</text>
</a>
</g>
</g>
<!-- Node10&#45;&gt;Node11 -->
<g id="edge13_Node000010_Node000011" class="edge">
<title>Node10&#45;&gt;Node11</title>
<g id="a_edge13_Node000010_Node000011"><a xlink:title=" ">
<path fill="none" stroke="#63b8ff" d="M428.94,-109.98C463.95,-100.93 519.47,-86.58 557.93,-76.64"/>
<polygon fill="#63b8ff" stroke="#63b8ff" points="559,-79.97 567.81,-74.08 557.25,-73.2 559,-79.97"/>
</a>
</g>
</g>
<!-- Node12 -->
<g id="Node000012" class="node">
<title>Node12</title>
<g id="a_Node000012"><a xlink:title=" ">
<polygon fill="#e0e0e0" stroke="#999999" points="141.5,-74 68.5,-74 68.5,-55 141.5,-55 141.5,-74"/>
<text text-anchor="middle" x="105" y="-62" font-family="Helvetica,sans-Serif" font-size="10.00">QFileDialog</text>
</a>
</g>
</g>
<!-- Node10&#45;&gt;Node12 -->
<g id="edge14_Node000010_Node000012" class="edge">
<title>Node10&#45;&gt;Node12</title>
<g id="a_edge14_Node000010_Node000012"><a xlink:title=" ">
<path fill="none" stroke="#63b8ff" d="M354.81,-111.06C308.12,-102.61 229.44,-88.36 151.63,-74.11"/>
<polygon fill="#63b8ff" stroke="#63b8ff" points="152.12,-70.64 141.66,-72.28 150.86,-77.53 152.12,-70.64"/>
</a>
</g>
</g>
<!-- Node13 -->
<g id="Node000013" class="node">
<title>Node13</title>
<g id="a_Node000013"><a xlink:title=" ">
<polygon fill="#e0e0e0" stroke="#999999" points="809.5,-74 756.5,-74 756.5,-55 809.5,-55 809.5,-74"/>
<text text-anchor="middle" x="783" y="-62" font-family="Helvetica,sans-Serif" font-size="10.00">QString</text>
</a>
</g>
</g>
<!-- Node10&#45;&gt;Node13 -->
<g id="edge16_Node000010_Node000013" class="edge">
<title>Node10&#45;&gt;Node13</title>
<g id="a_edge16_Node000010_Node000013"><a xlink:title=" ">
<path fill="none" stroke="#63b8ff" d="M437.02,-114.72C500.96,-108.52 628.42,-94.92 746.4,-73.92"/>
<polygon fill="#63b8ff" stroke="#63b8ff" points="747.11,-77.35 756.33,-72.13 745.87,-70.46 747.11,-77.35"/>
</a>
</g>
</g>
<!-- Node14 -->
<g id="Node000014" class="node">
<title>Node14</title>
<g id="a_Node000014"><a xlink:title=" ">
<polygon fill="#e0e0e0" stroke="#999999" points="230,-74 160,-74 160,-55 230,-55 230,-74"/>
<text text-anchor="middle" x="195" y="-62" font-family="Helvetica,sans-Serif" font-size="10.00">QStringList</text>
</a>
</g>
</g>
<!-- Node10&#45;&gt;Node14 -->
<g id="edge17_Node000010_Node000014" class="edge">
<title>Node10&#45;&gt;Node14</title>
<g id="a_edge17_Node000010_Node000014"><a xlink:title=" ">
<path fill="none" stroke="#63b8ff" d="M363.71,-109.98C329.38,-100.93 274.94,-86.58 237.23,-76.64"/>
<polygon fill="#63b8ff" stroke="#63b8ff" points="238.11,-73.25 227.55,-74.08 236.32,-80.02 238.11,-73.25"/>
</a>
</g>
</g>
<!-- Node15 -->
<g id="Node000015" class="node">
<title>Node15</title>
<g id="a_Node000015"><a xlink:title=" ">
<polygon fill="#e0e0e0" stroke="#999999" points="277.5,-74 248.5,-74 248.5,-55 277.5,-55 277.5,-74"/>
<text text-anchor="middle" x="263" y="-62" font-family="Helvetica,sans-Serif" font-size="10.00">Qt</text>
</a>
</g>
</g>
<!-- Node10&#45;&gt;Node15 -->
<g id="edge18_Node000010_Node000015" class="edge">
<title>Node10&#45;&gt;Node15</title>
<g id="a_edge18_Node000010_Node000015"><a xlink:title=" ">
<path fill="none" stroke="#63b8ff" d="M374.63,-109.98C350.75,-100.47 312.17,-85.1 287.2,-75.14"/>
<polygon fill="#63b8ff" stroke="#63b8ff" points="288.31,-71.82 277.73,-71.37 285.72,-78.32 288.31,-71.82"/>
</a>
</g>
</g>
<!-- Node16 -->
<g id="Node000016" class="node">
<title>Node16</title>
<g id="a_Node000016"><a xlink:title=" ">
<polygon fill="#e0e0e0" stroke="#999999" points="352,-74 296,-74 296,-55 352,-55 352,-74"/>
<text text-anchor="middle" x="324" y="-62" font-family="Helvetica,sans-Serif" font-size="10.00">QPrinter</text>
</a>
</g>
</g>
<!-- Node10&#45;&gt;Node16 -->
<g id="edge20_Node000010_Node000016" class="edge">
<title>Node10&#45;&gt;Node16</title>
<g id="a_edge20_Node000010_Node000016"><a xlink:title=" ">
<path fill="none" stroke="#63b8ff" d="M384.43,-109.98C373.58,-102 357.12,-89.88 344.12,-80.31"/>
<polygon fill="#63b8ff" stroke="#63b8ff" points="345.91,-77.28 335.78,-74.17 341.76,-82.92 345.91,-77.28"/>
</a>
</g>
</g>
<!-- Node17 -->
<g id="Node000017" class="node">
<title>Node17</title>
<g id="a_Node000017"><a xlink:title=" ">
<polygon fill="#e0e0e0" stroke="#999999" points="421.5,-74 370.5,-74 370.5,-55 421.5,-55 421.5,-74"/>
<text text-anchor="middle" x="396" y="-62" font-family="Helvetica,sans-Serif" font-size="10.00">csignal</text>
</a>
</g>
</g>
<!-- Node10&#45;&gt;Node17 -->
<g id="edge21_Node000010_Node000017" class="edge">
<title>Node10&#45;&gt;Node17</title>
<g id="a_edge21_Node000010_Node000017"><a xlink:title=" ">
<path fill="none" stroke="#63b8ff" d="M396,-109.75C396,-102.8 396,-92.85 396,-84.13"/>
<polygon fill="#63b8ff" stroke="#63b8ff" points="399.5,-84.09 396,-74.09 392.5,-84.09 399.5,-84.09"/>
</a>
</g>
</g>
<!-- Node18 -->
<g id="Node000018" class="node">
<title>Node18</title>
<g id="a_Node000018"><a xlink:href="../../d4/d82/debugbreak_8h.html" target="_top" xlink:title=" ">
<polygon fill="white" stroke="#666666" points="522.5,-74 439.5,-74 439.5,-55 522.5,-55 522.5,-74"/>
<text text-anchor="middle" x="481" y="-62" font-family="Helvetica,sans-Serif" font-size="10.00">debugbreak.h</text>
</a>
</g>
</g>
<!-- Node10&#45;&gt;Node18 -->
<g id="edge22_Node000010_Node000018" class="edge">
<title>Node10&#45;&gt;Node18</title>
<g id="a_edge22_Node000010_Node000018"><a xlink:title=" ">
<path fill="none" stroke="#63b8ff" d="M409.66,-109.98C422.84,-101.77 443.03,-89.18 458.57,-79.49"/>
<polygon fill="#63b8ff" stroke="#63b8ff" points="460.46,-82.43 467.09,-74.17 456.76,-76.49 460.46,-82.43"/>
</a>
</g>
</g>
<!-- Node19 -->
<g id="Node000019" class="node">
<title>Node19</title>
<g id="a_Node000019"><a xlink:title=" ">
<polygon fill="#e0e0e0" stroke="#999999" points="508.5,-19 453.5,-19 453.5,0 508.5,0 508.5,-19"/>
<text text-anchor="middle" x="481" y="-7" font-family="Helvetica,sans-Serif" font-size="10.00">signal.h</text>
</a>
</g>
</g>
<!-- Node18&#45;&gt;Node19 -->
<g id="edge23_Node000018_Node000019" class="edge">
<title>Node18&#45;&gt;Node19</title>
<g id="a_edge23_Node000018_Node000019"><a xlink:title=" ">
<path fill="none" stroke="#63b8ff" d="M481,-54.75C481,-47.8 481,-37.85 481,-29.13"/>
<polygon fill="#63b8ff" stroke="#63b8ff" points="484.5,-29.09 481,-19.09 477.5,-29.09 484.5,-29.09"/>
</a>
</g>
</g>
<!-- Node20&#45;&gt;Node2 -->
<g id="edge29_Node000020_Node000002" class="edge">
<title>Node20&#45;&gt;Node2</title>
<g id="a_edge29_Node000020_Node000002"><a xlink:title=" ">
<path fill="none" stroke="#63b8ff" d="M909.46,-109.99C871.05,-101.51 810.1,-88.03 748.72,-74.38"/>
<polygon fill="#63b8ff" stroke="#63b8ff" points="749.39,-70.94 738.87,-72.19 747.87,-77.78 749.39,-70.94"/>
</a>
</g>
</g>
<!-- Node20&#45;&gt;Node4 -->
<g id="edge25_Node000020_Node000004" class="edge">
<title>Node20&#45;&gt;Node4</title>
<g id="a_edge25_Node000020_Node000004"><a xlink:title=" ">
<path fill="none" stroke="#63b8ff" d="M981.26,-109.98C1016.61,-100.93 1072.67,-86.58 1111.51,-76.64"/>
<polygon fill="#63b8ff" stroke="#63b8ff" points="1112.66,-79.95 1121.48,-74.08 1110.93,-73.17 1112.66,-79.95"/>
</a>
</g>
</g>
<!-- Node20&#45;&gt;Node13 -->
<g id="edge26_Node000020_Node000013" class="edge">
<title>Node20&#45;&gt;Node13</title>
<g id="a_edge26_Node000020_Node000013"><a xlink:title=" ">
<path fill="none" stroke="#63b8ff" d="M921.49,-109.98C893.79,-101.09 850.14,-87.07 819.26,-77.15"/>
<polygon fill="#63b8ff" stroke="#63b8ff" points="820.31,-73.81 809.72,-74.08 818.17,-80.47 820.31,-73.81"/>
</a>
</g>
</g>
<!-- Node21 -->
<g id="Node000021" class="node">
<title>Node21</title>
<g id="a_Node000021"><a xlink:title=" ">
<polygon fill="#e0e0e0" stroke="#999999" points="1078.5,-74 1013.5,-74 1013.5,-55 1078.5,-55 1078.5,-74"/>
<text text-anchor="middle" x="1046" y="-62" font-family="Helvetica,sans-Serif" font-size="10.00">QTypeInfo</text>
</a>
</g>
</g>
<!-- Node20&#45;&gt;Node21 -->
<g id="edge27_Node000020_Node000021" class="edge">
<title>Node20&#45;&gt;Node21</title>
<g id="a_edge27_Node000020_Node000021"><a xlink:title=" ">
<path fill="none" stroke="#63b8ff" d="M963.75,-109.98C979.23,-101.61 1003.09,-88.7 1021.14,-78.95"/>
<polygon fill="#63b8ff" stroke="#63b8ff" points="1022.84,-82.01 1029.97,-74.17 1019.51,-75.85 1022.84,-82.01"/>
</a>
</g>
</g>
<!-- Node22 -->
<g id="Node000022" class="node">
<title>Node22</title>
<g id="a_Node000022"><a xlink:title=" ">
<polygon fill="#e0e0e0" stroke="#999999" points="882.5,-74 827.5,-74 827.5,-55 882.5,-55 882.5,-74"/>
<text text-anchor="middle" x="855" y="-62" font-family="Helvetica,sans-Serif" font-size="10.00">QVector</text>
</a>
</g>
</g>
<!-- Node20&#45;&gt;Node22 -->
<g id="edge28_Node000020_Node000022" class="edge">
<title>Node20&#45;&gt;Node22</title>
<g id="a_edge28_Node000020_Node000022"><a xlink:title=" ">
<path fill="none" stroke="#63b8ff" d="M933.06,-109.98C918.5,-101.69 896.13,-88.94 879.07,-79.22"/>
<polygon fill="#63b8ff" stroke="#63b8ff" points="880.64,-76.08 870.21,-74.17 877.17,-82.16 880.64,-76.08"/>
</a>
</g>
</g>
<!-- Node23 -->
<g id="Node000023" class="node">
<title>Node23</title>
<g id="a_Node000023"><a xlink:href="../../d5/d9d/vgeometrydef_8h.html" target="_top" xlink:title=" ">
<polygon fill="white" stroke="#666666" points="995,-74 901,-74 901,-55 995,-55 995,-74"/>
<text text-anchor="middle" x="948" y="-62" font-family="Helvetica,sans-Serif" font-size="10.00">vgeometrydef.h</text>
</a>
</g>
</g>
<!-- Node20&#45;&gt;Node23 -->
<g id="edge30_Node000020_Node000023" class="edge">
<title>Node20&#45;&gt;Node23</title>
<g id="a_edge30_Node000020_Node000023"><a xlink:title=" ">
<path fill="none" stroke="#63b8ff" d="M948,-109.75C948,-102.8 948,-92.85 948,-84.13"/>
<polygon fill="#63b8ff" stroke="#63b8ff" points="951.5,-84.09 948,-74.09 944.5,-84.09 951.5,-84.09"/>
</a>
</g>
</g>
</g>
</svg>
