<?xml version="1.0" encoding="UTF-8" standalone="no"?>
<!DOCTYPE svg PUBLIC "-//W3C//DTD SVG 1.1//EN"
 "http://www.w3.org/Graphics/SVG/1.1/DTD/svg11.dtd">
<!-- Generated by graphviz version 2.43.0 (0)
 -->
<!-- Title: VVariable Pages: 1 -->
<svg width="266pt" height="797pt"
 viewBox="0.00 0.00 265.50 797.00" xmlns="http://www.w3.org/2000/svg" xmlns:xlink="http://www.w3.org/1999/xlink">
<g id="graph0" class="graph" transform="scale(1 1) rotate(0) translate(4 793)">
<title>VVariable</title>
<!-- Node1 -->
<g id="Node000001" class="node">
<title>Node1</title>
<g id="a_Node000001"><a xlink:title=" ">
<polygon fill="#999999" stroke="transparent" points="192.5,-509 90.5,-509 90.5,-355 192.5,-355 192.5,-509"/>
<text text-anchor="start" x="118" y="-497" font-family="Helvetica,sans-Serif" font-size="10.00">VVariable</text>
<text text-anchor="start" x="97" y="-482" font-family="Helvetica,sans-Serif" font-size="10.00">&#45;</text>
<text text-anchor="start" x="107.5" y="-482" font-family="Helvetica,sans-Serif" font-size="10.00">d</text>
<text text-anchor="start" x="94.5" y="-467" font-family="Helvetica,sans-Serif" font-size="10.00">+</text>
<text text-anchor="start" x="107.5" y="-467" font-family="Helvetica,sans-Serif" font-size="10.00">VVariable()</text>
<text text-anchor="start" x="94.5" y="-452" font-family="Helvetica,sans-Serif" font-size="10.00">+</text>
<text text-anchor="start" x="107.5" y="-452" font-family="Helvetica,sans-Serif" font-size="10.00">VVariable()</text>
<text text-anchor="start" x="94.5" y="-437" font-family="Helvetica,sans-Serif" font-size="10.00">+</text>
<text text-anchor="start" x="107.5" y="-437" font-family="Helvetica,sans-Serif" font-size="10.00">VVariable()</text>
<text text-anchor="start" x="94.5" y="-422" font-family="Helvetica,sans-Serif" font-size="10.00">+</text>
<text text-anchor="start" x="107.5" y="-422" font-family="Helvetica,sans-Serif" font-size="10.00">~VVariable()</text>
<text text-anchor="start" x="94.5" y="-407" font-family="Helvetica,sans-Serif" font-size="10.00">+</text>
<text text-anchor="start" x="107.5" y="-407" font-family="Helvetica,sans-Serif" font-size="10.00">operator=()</text>
<text text-anchor="start" x="94.5" y="-392" font-family="Helvetica,sans-Serif" font-size="10.00">+</text>
<text text-anchor="start" x="107.5" y="-392" font-family="Helvetica,sans-Serif" font-size="10.00">Swap()</text>
<text text-anchor="start" x="94.5" y="-377" font-family="Helvetica,sans-Serif" font-size="10.00">+</text>
<text text-anchor="start" x="107.5" y="-377" font-family="Helvetica,sans-Serif" font-size="10.00">GetDescription()</text>
<text text-anchor="start" x="94.5" y="-362" font-family="Helvetica,sans-Serif" font-size="10.00">+</text>
<text text-anchor="start" x="107.5" y="-362" font-family="Helvetica,sans-Serif" font-size="10.00">SetDescription()</text>
<polygon fill="#666666" stroke="#666666" points="90.5,-492 90.5,-492 192.5,-492 192.5,-492 90.5,-492"/>
<polygon fill="#666666" stroke="#666666" points="90.5,-477 90.5,-477 105.5,-477 105.5,-477 90.5,-477"/>
<polygon fill="#666666" stroke="#666666" points="105.5,-477 105.5,-477 192.5,-477 192.5,-477 105.5,-477"/>
<polygon fill="none" stroke="#666666" points="90.5,-355 90.5,-509 192.5,-509 192.5,-355 90.5,-355"/>
</a>
</g>
</g>
<!-- Node3 -->
<g id="Node000003" class="node">
<title>Node3</title>
<g id="a_Node000003"><a xlink:href="../../d5/d38/classMeasurementVariable.html" target="_top" xlink:title="The MeasurementVariable class keep data row of multisize table.">
<polygon fill="white" stroke="transparent" points="145,-319 0,-319 0,0 145,0 145,-319"/>
<text text-anchor="start" x="19" y="-306.5" font-family="Helvetica,sans-Serif" font-size="10.00">MeasurementVariable</text>
<text text-anchor="start" x="7" y="-291.5" font-family="Helvetica,sans-Serif" font-size="10.00">&#45;</text>
<text text-anchor="start" x="17.5" y="-291.5" font-family="Helvetica,sans-Serif" font-size="10.00">d</text>
<text text-anchor="start" x="4.5" y="-276.5" font-family="Helvetica,sans-Serif" font-size="10.00">+</text>
<text text-anchor="start" x="17.5" y="-276.5" font-family="Helvetica,sans-Serif" font-size="10.00">MeasurementVariable()</text>
<text text-anchor="start" x="4.5" y="-261.5" font-family="Helvetica,sans-Serif" font-size="10.00">+</text>
<text text-anchor="start" x="17.5" y="-261.5" font-family="Helvetica,sans-Serif" font-size="10.00">MeasurementVariable()</text>
<text text-anchor="start" x="4.5" y="-246.5" font-family="Helvetica,sans-Serif" font-size="10.00">+</text>
<text text-anchor="start" x="17.5" y="-246.5" font-family="Helvetica,sans-Serif" font-size="10.00">MeasurementVariable()</text>
<text text-anchor="start" x="4.5" y="-231.5" font-family="Helvetica,sans-Serif" font-size="10.00">+</text>
<text text-anchor="start" x="17.5" y="-231.5" font-family="Helvetica,sans-Serif" font-size="10.00">~MeasurementVariable()</text>
<text text-anchor="start" x="4.5" y="-216.5" font-family="Helvetica,sans-Serif" font-size="10.00">+</text>
<text text-anchor="start" x="17.5" y="-216.5" font-family="Helvetica,sans-Serif" font-size="10.00">operator=()</text>
<text text-anchor="start" x="4.5" y="-201.5" font-family="Helvetica,sans-Serif" font-size="10.00">+</text>
<text text-anchor="start" x="17.5" y="-201.5" font-family="Helvetica,sans-Serif" font-size="10.00">Swap()</text>
<text text-anchor="start" x="4.5" y="-186.5" font-family="Helvetica,sans-Serif" font-size="10.00">+</text>
<text text-anchor="start" x="17.5" y="-186.5" font-family="Helvetica,sans-Serif" font-size="10.00">getGuiText()</text>
<text text-anchor="start" x="4.5" y="-171.5" font-family="Helvetica,sans-Serif" font-size="10.00">+</text>
<text text-anchor="start" x="17.5" y="-171.5" font-family="Helvetica,sans-Serif" font-size="10.00">TagName()</text>
<text text-anchor="start" x="4.5" y="-156.5" font-family="Helvetica,sans-Serif" font-size="10.00">+</text>
<text text-anchor="start" x="17.5" y="-156.5" font-family="Helvetica,sans-Serif" font-size="10.00">setTagName()</text>
<text text-anchor="start" x="4.5" y="-141.5" font-family="Helvetica,sans-Serif" font-size="10.00">+</text>
<text text-anchor="start" x="17.5" y="-141.5" font-family="Helvetica,sans-Serif" font-size="10.00">GetFormula()</text>
<text text-anchor="start" x="17.5" y="-126.5" font-family="Helvetica,sans-Serif" font-size="10.00">and 16 more...</text>
<text text-anchor="start" x="4.5" y="-111.5" font-family="Helvetica,sans-Serif" font-size="10.00">+</text>
<text text-anchor="start" x="17.5" y="-111.5" font-family="Helvetica,sans-Serif" font-size="10.00">ListHeights()</text>
<text text-anchor="start" x="4.5" y="-96.5" font-family="Helvetica,sans-Serif" font-size="10.00">+</text>
<text text-anchor="start" x="17.5" y="-96.5" font-family="Helvetica,sans-Serif" font-size="10.00">ListSizes()</text>
<text text-anchor="start" x="4.5" y="-81.5" font-family="Helvetica,sans-Serif" font-size="10.00">+</text>
<text text-anchor="start" x="17.5" y="-81.5" font-family="Helvetica,sans-Serif" font-size="10.00">WholeListHeights()</text>
<text text-anchor="start" x="4.5" y="-66.5" font-family="Helvetica,sans-Serif" font-size="10.00">+</text>
<text text-anchor="start" x="17.5" y="-66.5" font-family="Helvetica,sans-Serif" font-size="10.00">WholeListSizes()</text>
<text text-anchor="start" x="4.5" y="-51.5" font-family="Helvetica,sans-Serif" font-size="10.00">+</text>
<text text-anchor="start" x="17.5" y="-51.5" font-family="Helvetica,sans-Serif" font-size="10.00">IsGradationSizeValid()</text>
<text text-anchor="start" x="4.5" y="-36.5" font-family="Helvetica,sans-Serif" font-size="10.00">+</text>
<text text-anchor="start" x="17.5" y="-36.5" font-family="Helvetica,sans-Serif" font-size="10.00">IsGradationHeightValid()</text>
<text text-anchor="start" x="7" y="-21.5" font-family="Helvetica,sans-Serif" font-size="10.00">&#45;</text>
<text text-anchor="start" x="17.5" y="-21.5" font-family="Helvetica,sans-Serif" font-size="10.00">CalcValue()</text>
<text text-anchor="start" x="7" y="-6.5" font-family="Helvetica,sans-Serif" font-size="10.00">&#45;</text>
<text text-anchor="start" x="17.5" y="-6.5" font-family="Helvetica,sans-Serif" font-size="10.00">ListValue()</text>
<polygon fill="#666666" stroke="#666666" points="0.5,-301.5 0.5,-301.5 145.5,-301.5 145.5,-301.5 0.5,-301.5"/>
<polygon fill="#666666" stroke="#666666" points="0.5,-286.5 0.5,-286.5 15.5,-286.5 15.5,-286.5 0.5,-286.5"/>
<polygon fill="#666666" stroke="#666666" points="15.5,-286.5 15.5,-286.5 145.5,-286.5 145.5,-286.5 15.5,-286.5"/>
<polygon fill="none" stroke="#666666" points="0,0 0,-319 145,-319 145,0 0,0"/>
</a>
</g>
</g>
<!-- Node1&#45;&gt;Node3 -->
<g id="edge2_Node000001_Node000003" class="edge">
<title>Node1&#45;&gt;Node3</title>
<g id="a_edge2_Node000001_Node000003"><a xlink:title=" ">
<path fill="none" stroke="#63b8ff" d="M119.6,-345.15C117.44,-336.69 115.21,-327.94 112.94,-319.04"/>
<polygon fill="none" stroke="#63b8ff" points="116.23,-346.11 122.1,-354.93 123.02,-344.38 116.23,-346.11"/>
</a>
</g>
</g>
<!-- Node4 -->
<g id="Node000004" class="node">
<title>Node4</title>
<g id="a_Node000004"><a xlink:href="../../dd/d0c/classVIncrement.html" target="_top" xlink:title="The VIncrement class keep data row of increment table.">
<polygon fill="white" stroke="transparent" points="257.5,-251.5 163.5,-251.5 163.5,-67.5 257.5,-67.5 257.5,-251.5"/>
<text text-anchor="start" x="182" y="-239.5" font-family="Helvetica,sans-Serif" font-size="10.00">VIncrement</text>
<text text-anchor="start" x="170" y="-224.5" font-family="Helvetica,sans-Serif" font-size="10.00">&#45;</text>
<text text-anchor="start" x="180.5" y="-224.5" font-family="Helvetica,sans-Serif" font-size="10.00">d</text>
<text text-anchor="start" x="167.5" y="-209.5" font-family="Helvetica,sans-Serif" font-size="10.00">+</text>
<text text-anchor="start" x="180.5" y="-209.5" font-family="Helvetica,sans-Serif" font-size="10.00">VIncrement()</text>
<text text-anchor="start" x="167.5" y="-194.5" font-family="Helvetica,sans-Serif" font-size="10.00">+</text>
<text text-anchor="start" x="180.5" y="-194.5" font-family="Helvetica,sans-Serif" font-size="10.00">VIncrement()</text>
<text text-anchor="start" x="167.5" y="-179.5" font-family="Helvetica,sans-Serif" font-size="10.00">+</text>
<text text-anchor="start" x="180.5" y="-179.5" font-family="Helvetica,sans-Serif" font-size="10.00">VIncrement()</text>
<text text-anchor="start" x="167.5" y="-164.5" font-family="Helvetica,sans-Serif" font-size="10.00">+</text>
<text text-anchor="start" x="180.5" y="-164.5" font-family="Helvetica,sans-Serif" font-size="10.00">~VIncrement()</text>
<text text-anchor="start" x="167.5" y="-149.5" font-family="Helvetica,sans-Serif" font-size="10.00">+</text>
<text text-anchor="start" x="180.5" y="-149.5" font-family="Helvetica,sans-Serif" font-size="10.00">operator=()</text>
<text text-anchor="start" x="167.5" y="-134.5" font-family="Helvetica,sans-Serif" font-size="10.00">+</text>
<text text-anchor="start" x="180.5" y="-134.5" font-family="Helvetica,sans-Serif" font-size="10.00">Swap()</text>
<text text-anchor="start" x="167.5" y="-119.5" font-family="Helvetica,sans-Serif" font-size="10.00">+</text>
<text text-anchor="start" x="180.5" y="-119.5" font-family="Helvetica,sans-Serif" font-size="10.00">getIndex()</text>
<text text-anchor="start" x="167.5" y="-104.5" font-family="Helvetica,sans-Serif" font-size="10.00">+</text>
<text text-anchor="start" x="180.5" y="-104.5" font-family="Helvetica,sans-Serif" font-size="10.00">GetFormula()</text>
<text text-anchor="start" x="167.5" y="-89.5" font-family="Helvetica,sans-Serif" font-size="10.00">+</text>
<text text-anchor="start" x="180.5" y="-89.5" font-family="Helvetica,sans-Serif" font-size="10.00">IsFormulaOk()</text>
<text text-anchor="start" x="167.5" y="-74.5" font-family="Helvetica,sans-Serif" font-size="10.00">+</text>
<text text-anchor="start" x="180.5" y="-74.5" font-family="Helvetica,sans-Serif" font-size="10.00">GetData()</text>
<polygon fill="#666666" stroke="#666666" points="163.5,-234.5 163.5,-234.5 257.5,-234.5 257.5,-234.5 163.5,-234.5"/>
<polygon fill="#666666" stroke="#666666" points="163.5,-219.5 163.5,-219.5 178.5,-219.5 178.5,-219.5 163.5,-219.5"/>
<polygon fill="#666666" stroke="#666666" points="178.5,-219.5 178.5,-219.5 257.5,-219.5 257.5,-219.5 178.5,-219.5"/>
<polygon fill="none" stroke="#666666" points="163.5,-67.5 163.5,-251.5 257.5,-251.5 257.5,-67.5 163.5,-67.5"/>
</a>
</g>
</g>
<!-- Node1&#45;&gt;Node4 -->
<g id="edge3_Node000001_Node000004" class="edge">
<title>Node1&#45;&gt;Node4</title>
<g id="a_edge3_Node000001_Node000004"><a xlink:title=" ">
<path fill="none" stroke="#63b8ff" d="M163.43,-345.01C171.01,-315.31 179.52,-281.94 187.2,-251.83"/>
<polygon fill="none" stroke="#63b8ff" points="159.98,-344.38 160.9,-354.93 166.77,-346.11 159.98,-344.38"/>
</a>
</g>
</g>
<!-- Node2 -->
<g id="Node000002" class="node">
<title>Node2</title>
<g id="a_Node000002"><a xlink:href="../../d4/d3d/classVInternalVariable.html" target="_top" xlink:title=" ">
<polygon fill="white" stroke="transparent" points="202,-789 81,-789 81,-545 202,-545 202,-789"/>
<text text-anchor="start" x="99.5" y="-777" font-family="Helvetica,sans-Serif" font-size="10.00">VInternalVariable</text>
<text text-anchor="start" x="88" y="-762" font-family="Helvetica,sans-Serif" font-size="10.00">&#45;</text>
<text text-anchor="start" x="98.5" y="-762" font-family="Helvetica,sans-Serif" font-size="10.00">d</text>
<text text-anchor="start" x="85.5" y="-747" font-family="Helvetica,sans-Serif" font-size="10.00">+</text>
<text text-anchor="start" x="98.5" y="-747" font-family="Helvetica,sans-Serif" font-size="10.00">VInternalVariable()</text>
<text text-anchor="start" x="85.5" y="-732" font-family="Helvetica,sans-Serif" font-size="10.00">+</text>
<text text-anchor="start" x="98.5" y="-732" font-family="Helvetica,sans-Serif" font-size="10.00">VInternalVariable()</text>
<text text-anchor="start" x="85.5" y="-717" font-family="Helvetica,sans-Serif" font-size="10.00">+</text>
<text text-anchor="start" x="98.5" y="-717" font-family="Helvetica,sans-Serif" font-size="10.00">~VInternalVariable()</text>
<text text-anchor="start" x="85.5" y="-702" font-family="Helvetica,sans-Serif" font-size="10.00">+</text>
<text text-anchor="start" x="98.5" y="-702" font-family="Helvetica,sans-Serif" font-size="10.00">operator=()</text>
<text text-anchor="start" x="85.5" y="-687" font-family="Helvetica,sans-Serif" font-size="10.00">+</text>
<text text-anchor="start" x="98.5" y="-687" font-family="Helvetica,sans-Serif" font-size="10.00">Swap()</text>
<text text-anchor="start" x="85.5" y="-672" font-family="Helvetica,sans-Serif" font-size="10.00">+</text>
<text text-anchor="start" x="98.5" y="-672" font-family="Helvetica,sans-Serif" font-size="10.00">GetValue()</text>
<text text-anchor="start" x="85.5" y="-657" font-family="Helvetica,sans-Serif" font-size="10.00">+</text>
<text text-anchor="start" x="98.5" y="-657" font-family="Helvetica,sans-Serif" font-size="10.00">GetValue()</text>
<text text-anchor="start" x="85.5" y="-642" font-family="Helvetica,sans-Serif" font-size="10.00">+</text>
<text text-anchor="start" x="98.5" y="-642" font-family="Helvetica,sans-Serif" font-size="10.00">GetName()</text>
<text text-anchor="start" x="85.5" y="-627" font-family="Helvetica,sans-Serif" font-size="10.00">+</text>
<text text-anchor="start" x="98.5" y="-627" font-family="Helvetica,sans-Serif" font-size="10.00">SetName()</text>
<text text-anchor="start" x="85.5" y="-612" font-family="Helvetica,sans-Serif" font-size="10.00">+</text>
<text text-anchor="start" x="98.5" y="-612" font-family="Helvetica,sans-Serif" font-size="10.00">GetType()</text>
<text text-anchor="start" x="85.5" y="-597" font-family="Helvetica,sans-Serif" font-size="10.00">+</text>
<text text-anchor="start" x="98.5" y="-597" font-family="Helvetica,sans-Serif" font-size="10.00">SetType()</text>
<text text-anchor="start" x="85.5" y="-582" font-family="Helvetica,sans-Serif" font-size="10.00">+</text>
<text text-anchor="start" x="98.5" y="-582" font-family="Helvetica,sans-Serif" font-size="10.00">Filter()</text>
<text text-anchor="start" x="85.5" y="-567" font-family="Helvetica,sans-Serif" font-size="10.00">+</text>
<text text-anchor="start" x="98.5" y="-567" font-family="Helvetica,sans-Serif" font-size="10.00">isNotUsed()</text>
<text text-anchor="start" x="85.5" y="-552" font-family="Helvetica,sans-Serif" font-size="10.00">#</text>
<text text-anchor="start" x="98.5" y="-552" font-family="Helvetica,sans-Serif" font-size="10.00">SetValue()</text>
<polygon fill="#666666" stroke="#666666" points="81.5,-772 81.5,-772 202.5,-772 202.5,-772 81.5,-772"/>
<polygon fill="#666666" stroke="#666666" points="81.5,-757 81.5,-757 96.5,-757 96.5,-757 81.5,-757"/>
<polygon fill="#666666" stroke="#666666" points="96.5,-757 96.5,-757 202.5,-757 202.5,-757 96.5,-757"/>
<polygon fill="none" stroke="#666666" points="81,-545 81,-789 202,-789 202,-545 81,-545"/>
</a>
</g>
</g>
<!-- Node2&#45;&gt;Node1 -->
<g id="edge1_Node000001_Node000002" class="edge">
<title>Node2&#45;&gt;Node1</title>
<g id="a_edge1_Node000001_Node000002"><a xlink:title=" ">
<path fill="none" stroke="#63b8ff" d="M141.5,-534.58C141.5,-525.98 141.5,-517.48 141.5,-509.29"/>
<polygon fill="none" stroke="#63b8ff" points="138,-534.72 141.5,-544.72 145,-534.72 138,-534.72"/>
</a>
</g>
</g>
</g>
</svg>
