<?xml version="1.0" encoding="UTF-8" standalone="no"?>
<!DOCTYPE svg PUBLIC "-//W3C//DTD SVG 1.1//EN"
 "http://www.w3.org/Graphics/SVG/1.1/DTD/svg11.dtd">
<!-- Generated by graphviz version 2.43.0 (0)
 -->
<!-- Title: src/app/seamly2d/core/vapplication.h Pages: 1 -->
<svg width="2393pt" height="269pt"
 viewBox="0.00 0.00 2392.50 269.00" xmlns="http://www.w3.org/2000/svg" xmlns:xlink="http://www.w3.org/1999/xlink">
<g id="graph0" class="graph" transform="scale(1 1) rotate(0) translate(4 265)">
<title>src/app/seamly2d/core/vapplication.h</title>
<!-- Node1 -->
<g id="Node000001" class="node">
<title>Node1</title>
<g id="a_Node000001"><a xlink:title=" ">
<polygon fill="#999999" stroke="#666666" points="988,-261 861,-261 861,-231 988,-231 988,-261"/>
<text text-anchor="start" x="869" y="-249" font-family="Helvetica,sans-Serif" font-size="10.00">src/app/seamly2d/core</text>
<text text-anchor="middle" x="924.5" y="-238" font-family="Helvetica,sans-Serif" font-size="10.00">/vapplication.h</text>
</a>
</g>
</g>
<!-- Node2 -->
<g id="Node000002" class="node">
<title>Node2</title>
<g id="a_Node000002"><a xlink:title=" ">
<polygon fill="#e0e0e0" stroke="#999999" points="167,-195 0,-195 0,-176 167,-176 167,-195"/>
<text text-anchor="middle" x="83.5" y="-183" font-family="Helvetica,sans-Serif" font-size="10.00">../vmisc/vabstractapplication.h</text>
</a>
</g>
</g>
<!-- Node1&#45;&gt;Node2 -->
<g id="edge1_Node000001_Node000002" class="edge">
<title>Node1&#45;&gt;Node2</title>
<g id="a_edge1_Node000001_Node000002"><a xlink:title=" ">
<path fill="none" stroke="#63b8ff" d="M860.77,-241.15C732.13,-233.3 432.19,-214.48 180.5,-195 179.4,-194.92 178.3,-194.83 177.19,-194.74"/>
<polygon fill="#63b8ff" stroke="#63b8ff" points="177.34,-191.24 167.09,-193.93 176.78,-198.22 177.34,-191.24"/>
</a>
</g>
</g>
<!-- Node3 -->
<g id="Node000003" class="node">
<title>Node3</title>
<g id="a_Node000003"><a xlink:href="../../d7/d5b/options_8h.html" target="_top" xlink:title=" ">
<polygon fill="white" stroke="#666666" points="394,-74 323,-74 323,-55 394,-55 394,-74"/>
<text text-anchor="middle" x="358.5" y="-62" font-family="Helvetica,sans-Serif" font-size="10.00">../options.h</text>
</a>
</g>
</g>
<!-- Node1&#45;&gt;Node3 -->
<g id="edge2_Node000001_Node000003" class="edge">
<title>Node1&#45;&gt;Node3</title>
<g id="a_edge2_Node000001_Node000003"><a xlink:title=" ">
<path fill="none" stroke="#63b8ff" d="M860.75,-245.69C702.23,-245.9 297.02,-236.76 213.5,-140 181.45,-102.87 259.27,-81.86 312.87,-72.17"/>
<polygon fill="#63b8ff" stroke="#63b8ff" points="313.64,-75.59 322.9,-70.44 312.45,-68.69 313.64,-75.59"/>
</a>
</g>
</g>
<!-- Node8 -->
<g id="Node000008" class="node">
<title>Node8</title>
<g id="a_Node000008"><a xlink:title=" ">
<polygon fill="#e0e0e0" stroke="#999999" points="1382.5,-195 1206.5,-195 1206.5,-176 1382.5,-176 1382.5,-195"/>
<text text-anchor="middle" x="1294.5" y="-183" font-family="Helvetica,sans-Serif" font-size="10.00">../vwidgets/vmaingraphicsview.h</text>
</a>
</g>
</g>
<!-- Node1&#45;&gt;Node8 -->
<g id="edge7_Node000001_Node000008" class="edge">
<title>Node1&#45;&gt;Node8</title>
<g id="a_edge7_Node000001_Node000008"><a xlink:title=" ">
<path fill="none" stroke="#63b8ff" d="M988.11,-234.94C1055.91,-224.22 1162.66,-207.34 1230.58,-196.61"/>
<polygon fill="#63b8ff" stroke="#63b8ff" points="1231.39,-200.02 1240.73,-195 1230.3,-193.11 1231.39,-200.02"/>
</a>
</g>
</g>
<!-- Node9 -->
<g id="Node000009" class="node">
<title>Node9</title>
<g id="a_Node000009"><a xlink:title=" ">
<polygon fill="#e0e0e0" stroke="#999999" points="1562,-195 1401,-195 1401,-176 1562,-176 1562,-195"/>
<text text-anchor="middle" x="1481.5" y="-183" font-family="Helvetica,sans-Serif" font-size="10.00">../vpatterndb/vtranslatevars.h</text>
</a>
</g>
</g>
<!-- Node1&#45;&gt;Node9 -->
<g id="edge8_Node000001_Node000009" class="edge">
<title>Node1&#45;&gt;Node9</title>
<g id="a_edge8_Node000001_Node000009"><a xlink:title=" ">
<path fill="none" stroke="#63b8ff" d="M988.12,-238.32C1086.9,-227.94 1277.54,-207.92 1390.74,-196.03"/>
<polygon fill="#63b8ff" stroke="#63b8ff" points="1391.2,-199.5 1400.78,-194.98 1390.46,-192.54 1391.2,-199.5"/>
</a>
</g>
</g>
<!-- Node10 -->
<g id="Node000010" class="node">
<title>Node10</title>
<g id="a_Node000010"><a xlink:href="../../dd/db2/vsettings_8h.html" target="_top" xlink:title=" ">
<polygon fill="white" stroke="#666666" points="1188,-195 1117,-195 1117,-176 1188,-176 1188,-195"/>
<text text-anchor="middle" x="1152.5" y="-183" font-family="Helvetica,sans-Serif" font-size="10.00">vsettings.h</text>
</a>
</g>
</g>
<!-- Node1&#45;&gt;Node10 -->
<g id="edge9_Node000001_Node000010" class="edge">
<title>Node1&#45;&gt;Node10</title>
<g id="a_edge9_Node000001_Node000010"><a xlink:title=" ">
<path fill="none" stroke="#63b8ff" d="M979.11,-230.99C1018.97,-220.76 1072.27,-207.09 1109.2,-197.61"/>
<polygon fill="#63b8ff" stroke="#63b8ff" points="1110.35,-200.93 1119.16,-195.05 1108.61,-194.15 1110.35,-200.93"/>
</a>
</g>
</g>
<!-- Node34 -->
<g id="Node000034" class="node">
<title>Node34</title>
<g id="a_Node000034"><a xlink:href="../../dd/d57/vcmdexport_8h.html" target="_top" xlink:title=" ">
<polygon fill="white" stroke="#666666" points="758.5,-195 674.5,-195 674.5,-176 758.5,-176 758.5,-195"/>
<text text-anchor="middle" x="716.5" y="-183" font-family="Helvetica,sans-Serif" font-size="10.00">vcmdexport.h</text>
</a>
</g>
</g>
<!-- Node1&#45;&gt;Node34 -->
<g id="edge43_Node000001_Node000034" class="edge">
<title>Node1&#45;&gt;Node34</title>
<g id="a_edge43_Node000001_Node000034"><a xlink:title=" ">
<path fill="none" stroke="#63b8ff" d="M874.68,-230.99C838.63,-220.85 790.52,-207.32 756.87,-197.85"/>
<polygon fill="#63b8ff" stroke="#63b8ff" points="757.49,-194.39 746.91,-195.05 755.59,-201.13 757.49,-194.39"/>
</a>
</g>
</g>
<!-- Node4 -->
<g id="Node000004" class="node">
<title>Node4</title>
<g id="a_Node000004"><a xlink:title=" ">
<polygon fill="#e0e0e0" stroke="#999999" points="865,-19 788,-19 788,0 865,0 865,-19"/>
<text text-anchor="middle" x="826.5" y="-7" font-family="Helvetica,sans-Serif" font-size="10.00">../ifc/ifcdef.h</text>
</a>
</g>
</g>
<!-- Node3&#45;&gt;Node4 -->
<g id="edge3_Node000003_Node000004" class="edge">
<title>Node3&#45;&gt;Node4</title>
<g id="a_edge3_Node000003_Node000004"><a xlink:title=" ">
<path fill="none" stroke="#63b8ff" d="M394.21,-59.79C484.96,-50.34 720.81,-25.72 777.7,-18.88"/>
<polygon fill="#63b8ff" stroke="#63b8ff" points="778.29,-22.34 787.76,-17.6 777.4,-15.39 778.29,-22.34"/>
</a>
</g>
</g>
<!-- Node5 -->
<g id="Node000005" class="node">
<title>Node5</title>
<g id="a_Node000005"><a xlink:title=" ">
<polygon fill="#e0e0e0" stroke="#999999" points="358,-19 199,-19 199,0 358,0 358,-19"/>
<text text-anchor="middle" x="278.5" y="-7" font-family="Helvetica,sans-Serif" font-size="10.00">../vgeometry/vgeometrydef.h</text>
</a>
</g>
</g>
<!-- Node3&#45;&gt;Node5 -->
<g id="edge4_Node000003_Node000005" class="edge">
<title>Node3&#45;&gt;Node5</title>
<g id="a_edge4_Node000003_Node000005"><a xlink:title=" ">
<path fill="none" stroke="#63b8ff" d="M345.65,-54.98C333.36,-46.84 314.59,-34.41 300.02,-24.76"/>
<polygon fill="#63b8ff" stroke="#63b8ff" points="301.86,-21.78 291.59,-19.17 297.99,-27.61 301.86,-21.78"/>
</a>
</g>
</g>
<!-- Node6 -->
<g id="Node000006" class="node">
<title>Node6</title>
<g id="a_Node000006"><a xlink:title=" ">
<polygon fill="#e0e0e0" stroke="#999999" points="503,-19 376,-19 376,0 503,0 503,-19"/>
<text text-anchor="middle" x="439.5" y="-7" font-family="Helvetica,sans-Serif" font-size="10.00">../qmuparser/qmudef.h</text>
</a>
</g>
</g>
<!-- Node3&#45;&gt;Node6 -->
<g id="edge5_Node000003_Node000006" class="edge">
<title>Node3&#45;&gt;Node6</title>
<g id="a_edge5_Node000003_Node000006"><a xlink:title=" ">
<path fill="none" stroke="#63b8ff" d="M371.51,-54.98C383.96,-46.84 402.96,-34.41 417.71,-24.76"/>
<polygon fill="#63b8ff" stroke="#63b8ff" points="419.8,-27.57 426.25,-19.17 415.96,-21.72 419.8,-27.57"/>
</a>
</g>
</g>
<!-- Node7 -->
<g id="Node000007" class="node">
<title>Node7</title>
<g id="a_Node000007"><a xlink:title=" ">
<polygon fill="#e0e0e0" stroke="#999999" points="662.5,-19 580.5,-19 580.5,0 662.5,0 662.5,-19"/>
<text text-anchor="middle" x="621.5" y="-7" font-family="Helvetica,sans-Serif" font-size="10.00">../vmisc/def.h</text>
</a>
</g>
</g>
<!-- Node3&#45;&gt;Node7 -->
<g id="edge6_Node000003_Node000007" class="edge">
<title>Node3&#45;&gt;Node7</title>
<g id="a_edge6_Node000003_Node000007"><a xlink:title=" ">
<path fill="none" stroke="#63b8ff" d="M394.24,-56.3C439.67,-47.14 518.39,-31.28 570.22,-20.83"/>
<polygon fill="#63b8ff" stroke="#63b8ff" points="571.09,-24.23 580.2,-18.82 569.71,-17.37 571.09,-24.23"/>
</a>
</g>
</g>
<!-- Node11 -->
<g id="Node000011" class="node">
<title>Node11</title>
<g id="a_Node000011"><a xlink:title=" ">
<polygon fill="#e0e0e0" stroke="#999999" points="1125.5,-74 1045.5,-74 1045.5,-55 1125.5,-55 1125.5,-74"/>
<text text-anchor="middle" x="1085.5" y="-62" font-family="Helvetica,sans-Serif" font-size="10.00">QMetaObject</text>
</a>
</g>
</g>
<!-- Node10&#45;&gt;Node11 -->
<g id="edge10_Node000010_Node000011" class="edge">
<title>Node10&#45;&gt;Node11</title>
<g id="a_edge10_Node000010_Node000011"><a xlink:title=" ">
<path fill="none" stroke="#63b8ff" d="M1147.68,-175.94C1136.77,-156.57 1110,-109.02 1095.4,-83.08"/>
<polygon fill="#63b8ff" stroke="#63b8ff" points="1098.41,-81.3 1090.46,-74.3 1092.31,-84.73 1098.41,-81.3"/>
</a>
</g>
</g>
<!-- Node12 -->
<g id="Node000012" class="node">
<title>Node12</title>
<g id="a_Node000012"><a xlink:title=" ">
<polygon fill="#e0e0e0" stroke="#999999" points="1199.5,-74 1143.5,-74 1143.5,-55 1199.5,-55 1199.5,-74"/>
<text text-anchor="middle" x="1171.5" y="-62" font-family="Helvetica,sans-Serif" font-size="10.00">QObject</text>
</a>
</g>
</g>
<!-- Node10&#45;&gt;Node12 -->
<g id="edge11_Node000010_Node000012" class="edge">
<title>Node10&#45;&gt;Node12</title>
<g id="a_edge11_Node000010_Node000012"><a xlink:title=" ">
<path fill="none" stroke="#63b8ff" d="M1153.87,-175.94C1156.91,-156.91 1164.28,-110.69 1168.47,-84.47"/>
<polygon fill="#63b8ff" stroke="#63b8ff" points="1171.97,-84.73 1170.09,-74.3 1165.06,-83.62 1171.97,-84.73"/>
</a>
</g>
</g>
<!-- Node13 -->
<g id="Node000013" class="node">
<title>Node13</title>
<g id="a_Node000013"><a xlink:title=" ">
<polygon fill="#e0e0e0" stroke="#999999" points="1281.5,-74 1217.5,-74 1217.5,-55 1281.5,-55 1281.5,-74"/>
<text text-anchor="middle" x="1249.5" y="-62" font-family="Helvetica,sans-Serif" font-size="10.00">QSettings</text>
</a>
</g>
</g>
<!-- Node10&#45;&gt;Node13 -->
<g id="edge12_Node000010_Node000013" class="edge">
<title>Node10&#45;&gt;Node13</title>
<g id="a_edge12_Node000010_Node000013"><a xlink:title=" ">
<path fill="none" stroke="#63b8ff" d="M1159.48,-175.94C1175.48,-156.31 1215.05,-107.76 1236,-82.07"/>
<polygon fill="#63b8ff" stroke="#63b8ff" points="1238.72,-84.26 1242.33,-74.3 1233.29,-79.84 1238.72,-84.26"/>
</a>
</g>
</g>
<!-- Node14 -->
<g id="Node000014" class="node">
<title>Node14</title>
<g id="a_Node000014"><a xlink:title=" ">
<polygon fill="#e0e0e0" stroke="#999999" points="1755,-74 1702,-74 1702,-55 1755,-55 1755,-74"/>
<text text-anchor="middle" x="1728.5" y="-62" font-family="Helvetica,sans-Serif" font-size="10.00">QString</text>
</a>
</g>
</g>
<!-- Node10&#45;&gt;Node14 -->
<g id="edge13_Node000010_Node000014" class="edge">
<title>Node10&#45;&gt;Node14</title>
<g id="a_edge13_Node000010_Node000014"><a xlink:title=" ">
<path fill="none" stroke="#63b8ff" d="M1188.33,-177.56C1191.43,-177.01 1194.52,-176.48 1197.5,-176 1315.26,-156.92 1346.68,-164.2 1463.5,-140 1546.9,-122.72 1642.61,-93.39 1693.08,-77.17"/>
<polygon fill="#63b8ff" stroke="#63b8ff" points="1694.4,-80.42 1702.84,-74.01 1692.25,-73.76 1694.4,-80.42"/>
</a>
</g>
</g>
<!-- Node15 -->
<g id="Node000015" class="node">
<title>Node15</title>
<g id="a_Node000015"><a xlink:title=" ">
<polygon fill="#e0e0e0" stroke="#999999" points="1416,-19 1357,-19 1357,0 1416,0 1416,-19"/>
<text text-anchor="middle" x="1386.5" y="-7" font-family="Helvetica,sans-Serif" font-size="10.00">QtGlobal</text>
</a>
</g>
</g>
<!-- Node10&#45;&gt;Node15 -->
<g id="edge14_Node000010_Node000015" class="edge">
<title>Node10&#45;&gt;Node15</title>
<g id="a_edge14_Node000010_Node000015"><a xlink:title=" ">
<path fill="none" stroke="#63b8ff" d="M1143.46,-175.98C1116.3,-150.36 1037.23,-75.69 1036.5,-74 1033.17,-66.24 1030.92,-61.34 1036.5,-55 1056.76,-32.01 1259.21,-17.77 1346.64,-12.65"/>
<polygon fill="#63b8ff" stroke="#63b8ff" points="1346.93,-16.14 1356.71,-12.07 1346.53,-9.15 1346.93,-16.14"/>
</a>
</g>
</g>
<!-- Node16 -->
<g id="Node000016" class="node">
<title>Node16</title>
<g id="a_Node000016"><a xlink:title=" ">
<polygon fill="#e0e0e0" stroke="#999999" points="970,-74 907,-74 907,-55 970,-55 970,-74"/>
<text text-anchor="middle" x="938.5" y="-62" font-family="Helvetica,sans-Serif" font-size="10.00">QMargins</text>
</a>
</g>
</g>
<!-- Node10&#45;&gt;Node16 -->
<g id="edge15_Node000010_Node000016" class="edge">
<title>Node10&#45;&gt;Node16</title>
<g id="a_edge15_Node000010_Node000016"><a xlink:title=" ">
<path fill="none" stroke="#63b8ff" d="M1138.52,-175.96C1124.13,-167.11 1101.1,-152.82 1081.5,-140 1061.69,-127.05 1058.15,-121.56 1037.5,-110 1015.7,-97.79 989.92,-86.29 970.14,-78.04"/>
<polygon fill="#63b8ff" stroke="#63b8ff" points="971.25,-74.72 960.67,-74.15 968.59,-81.19 971.25,-74.72"/>
</a>
</g>
</g>
<!-- Node17 -->
<g id="Node000017" class="node">
<title>Node17</title>
<g id="a_Node000017"><a xlink:href="../../d4/da4/def_8h.html" target="_top" xlink:title=" ">
<polygon fill="white" stroke="#666666" points="1928.5,-134.5 1846.5,-134.5 1846.5,-115.5 1928.5,-115.5 1928.5,-134.5"/>
<text text-anchor="middle" x="1887.5" y="-122.5" font-family="Helvetica,sans-Serif" font-size="10.00">../vmisc/def.h</text>
</a>
</g>
</g>
<!-- Node10&#45;&gt;Node17 -->
<g id="edge16_Node000010_Node000017" class="edge">
<title>Node10&#45;&gt;Node17</title>
<g id="a_edge16_Node000010_Node000017"><a xlink:title=" ">
<path fill="none" stroke="#63b8ff" d="M1188.3,-177.36C1191.41,-176.85 1194.5,-176.39 1197.5,-176 1260.23,-167.83 1687.09,-139.24 1836.21,-129.38"/>
<polygon fill="#63b8ff" stroke="#63b8ff" points="1836.71,-132.85 1846.46,-128.7 1836.25,-125.87 1836.71,-132.85"/>
</a>
</g>
</g>
<!-- Node27 -->
<g id="Node000027" class="node">
<title>Node27</title>
<g id="a_Node000027"><a xlink:href="../../de/dec/vbank_8h.html" target="_top" xlink:title=" ">
<polygon fill="white" stroke="#666666" points="1595.5,-74 1491.5,-74 1491.5,-55 1595.5,-55 1595.5,-74"/>
<text text-anchor="middle" x="1543.5" y="-62" font-family="Helvetica,sans-Serif" font-size="10.00">../vlayout/vbank.h</text>
</a>
</g>
</g>
<!-- Node10&#45;&gt;Node27 -->
<g id="edge28_Node000010_Node000027" class="edge">
<title>Node10&#45;&gt;Node27</title>
<g id="a_edge28_Node000010_Node000027"><a xlink:title=" ">
<path fill="none" stroke="#63b8ff" d="M1188.35,-177.64C1191.44,-177.08 1194.52,-176.52 1197.5,-176 1295.51,-158.76 1325,-174.08 1418.5,-140 1458.91,-125.27 1500.86,-97.18 1524.42,-80.02"/>
<polygon fill="#63b8ff" stroke="#63b8ff" points="1526.56,-82.79 1532.51,-74.03 1522.39,-77.17 1526.56,-82.79"/>
</a>
</g>
</g>
<!-- Node31 -->
<g id="Node000031" class="node">
<title>Node31</title>
<g id="a_Node000031"><a xlink:href="../../d4/d5c/vcommonsettings_8h.html" target="_top" xlink:title=" ">
<polygon fill="white" stroke="#666666" points="1410,-134.5 1297,-134.5 1297,-115.5 1410,-115.5 1410,-134.5"/>
<text text-anchor="middle" x="1353.5" y="-122.5" font-family="Helvetica,sans-Serif" font-size="10.00">vcommonsettings.h</text>
</a>
</g>
</g>
<!-- Node10&#45;&gt;Node31 -->
<g id="edge33_Node000010_Node000031" class="edge">
<title>Node10&#45;&gt;Node31</title>
<g id="a_edge33_Node000010_Node000031"><a xlink:title=" ">
<path fill="none" stroke="#63b8ff" d="M1181.73,-175.99C1216.71,-165.81 1275.43,-148.72 1314.32,-137.4"/>
<polygon fill="#63b8ff" stroke="#63b8ff" points="1315.61,-140.67 1324.24,-134.52 1313.66,-133.95 1315.61,-140.67"/>
</a>
</g>
</g>
<!-- Node17&#45;&gt;Node14 -->
<g id="edge20_Node000017_Node000014" class="edge">
<title>Node17&#45;&gt;Node14</title>
<g id="a_edge20_Node000017_Node000014"><a xlink:title=" ">
<path fill="none" stroke="#63b8ff" d="M1864.38,-115.49C1837.18,-105.49 1791.83,-88.8 1761.08,-77.49"/>
<polygon fill="#63b8ff" stroke="#63b8ff" points="1762.24,-74.18 1751.65,-74.02 1759.82,-80.75 1762.24,-74.18"/>
</a>
</g>
</g>
<!-- Node17&#45;&gt;Node15 -->
<g id="edge23_Node000017_Node000015" class="edge">
<title>Node17&#45;&gt;Node15</title>
<g id="a_edge23_Node000017_Node000015"><a xlink:title=" ">
<path fill="none" stroke="#63b8ff" d="M1872.62,-115.28C1842.26,-97.56 1775.06,-58.69 1763.5,-55 1625.91,-11.02 1583.66,-38.23 1440.5,-19 1435.93,-18.39 1431.15,-17.7 1426.41,-16.99"/>
<polygon fill="#63b8ff" stroke="#63b8ff" points="1426.59,-13.48 1416.17,-15.42 1425.53,-20.39 1426.59,-13.48"/>
</a>
</g>
</g>
<!-- Node18 -->
<g id="Node000018" class="node">
<title>Node18</title>
<g id="a_Node000018"><a xlink:title=" ">
<polygon fill="#e0e0e0" stroke="#999999" points="2123.5,-74 2003.5,-74 2003.5,-55 2123.5,-55 2123.5,-74"/>
<text text-anchor="middle" x="2063.5" y="-62" font-family="Helvetica,sans-Serif" font-size="10.00">qcompilerdetection.h</text>
</a>
</g>
</g>
<!-- Node17&#45;&gt;Node18 -->
<g id="edge17_Node000017_Node000018" class="edge">
<title>Node17&#45;&gt;Node18</title>
<g id="a_edge17_Node000017_Node000018"><a xlink:title=" ">
<path fill="none" stroke="#63b8ff" d="M1913.09,-115.49C1943.46,-105.4 1994.26,-88.51 2028.32,-77.19"/>
<polygon fill="#63b8ff" stroke="#63b8ff" points="2029.49,-80.49 2037.88,-74.02 2027.28,-73.85 2029.49,-80.49"/>
</a>
</g>
</g>
<!-- Node19 -->
<g id="Node000019" class="node">
<title>Node19</title>
<g id="a_Node000019"><a xlink:title=" ">
<polygon fill="#e0e0e0" stroke="#999999" points="2215,-74 2142,-74 2142,-55 2215,-55 2215,-74"/>
<text text-anchor="middle" x="2178.5" y="-62" font-family="Helvetica,sans-Serif" font-size="10.00">QFileDialog</text>
</a>
</g>
</g>
<!-- Node17&#45;&gt;Node19 -->
<g id="edge18_Node000017_Node000019" class="edge">
<title>Node17&#45;&gt;Node19</title>
<g id="a_edge18_Node000017_Node000019"><a xlink:title=" ">
<path fill="none" stroke="#63b8ff" d="M1928.58,-115.74C1982.11,-104.98 2075.52,-86.2 2131.73,-74.9"/>
<polygon fill="#63b8ff" stroke="#63b8ff" points="2132.66,-78.29 2141.77,-72.88 2131.28,-71.42 2132.66,-78.29"/>
</a>
</g>
</g>
<!-- Node20 -->
<g id="Node000020" class="node">
<title>Node20</title>
<g id="a_Node000020"><a xlink:title=" ">
<polygon fill="#e0e0e0" stroke="#999999" points="2384.5,-74 2334.5,-74 2334.5,-55 2384.5,-55 2384.5,-74"/>
<text text-anchor="middle" x="2359.5" y="-62" font-family="Helvetica,sans-Serif" font-size="10.00">QLineF</text>
</a>
</g>
</g>
<!-- Node17&#45;&gt;Node20 -->
<g id="edge19_Node000017_Node000020" class="edge">
<title>Node17&#45;&gt;Node20</title>
<g id="a_edge19_Node000017_Node000020"><a xlink:title=" ">
<path fill="none" stroke="#63b8ff" d="M1928.52,-121.12C2004.7,-115.39 2173.27,-100.89 2324.4,-73.97"/>
<polygon fill="#63b8ff" stroke="#63b8ff" points="2325.11,-77.4 2334.33,-72.18 2323.87,-70.51 2325.11,-77.4"/>
</a>
</g>
</g>
<!-- Node21 -->
<g id="Node000021" class="node">
<title>Node21</title>
<g id="a_Node000021"><a xlink:title=" ">
<polygon fill="#e0e0e0" stroke="#999999" points="1683.5,-74 1613.5,-74 1613.5,-55 1683.5,-55 1683.5,-74"/>
<text text-anchor="middle" x="1648.5" y="-62" font-family="Helvetica,sans-Serif" font-size="10.00">QStringList</text>
</a>
</g>
</g>
<!-- Node17&#45;&gt;Node21 -->
<g id="edge21_Node000017_Node000021" class="edge">
<title>Node17&#45;&gt;Node21</title>
<g id="a_edge21_Node000017_Node000021"><a xlink:title=" ">
<path fill="none" stroke="#63b8ff" d="M1852.75,-115.49C1810.53,-105.16 1739.25,-87.71 1693.04,-76.4"/>
<polygon fill="#63b8ff" stroke="#63b8ff" points="1693.84,-72.99 1683.29,-74.02 1692.18,-79.79 1693.84,-72.99"/>
</a>
</g>
</g>
<!-- Node22 -->
<g id="Node000022" class="node">
<title>Node22</title>
<g id="a_Node000022"><a xlink:title=" ">
<polygon fill="#e0e0e0" stroke="#999999" points="1841,-74 1812,-74 1812,-55 1841,-55 1841,-74"/>
<text text-anchor="middle" x="1826.5" y="-62" font-family="Helvetica,sans-Serif" font-size="10.00">Qt</text>
</a>
</g>
</g>
<!-- Node17&#45;&gt;Node22 -->
<g id="edge22_Node000017_Node000022" class="edge">
<title>Node17&#45;&gt;Node22</title>
<g id="a_edge22_Node000017_Node000022"><a xlink:title=" ">
<path fill="none" stroke="#63b8ff" d="M1878.5,-115.37C1869.13,-106.38 1854.25,-92.11 1842.8,-81.14"/>
<polygon fill="#63b8ff" stroke="#63b8ff" points="1845.18,-78.56 1835.54,-74.17 1840.33,-83.62 1845.18,-78.56"/>
</a>
</g>
</g>
<!-- Node23 -->
<g id="Node000023" class="node">
<title>Node23</title>
<g id="a_Node000023"><a xlink:title=" ">
<polygon fill="#e0e0e0" stroke="#999999" points="1915.5,-74 1859.5,-74 1859.5,-55 1915.5,-55 1915.5,-74"/>
<text text-anchor="middle" x="1887.5" y="-62" font-family="Helvetica,sans-Serif" font-size="10.00">QPrinter</text>
</a>
</g>
</g>
<!-- Node17&#45;&gt;Node23 -->
<g id="edge24_Node000017_Node000023" class="edge">
<title>Node17&#45;&gt;Node23</title>
<g id="a_edge24_Node000017_Node000023"><a xlink:title=" ">
<path fill="none" stroke="#63b8ff" d="M1887.5,-115.37C1887.5,-107.25 1887.5,-94.81 1887.5,-84.39"/>
<polygon fill="#63b8ff" stroke="#63b8ff" points="1891,-84.17 1887.5,-74.17 1884,-84.17 1891,-84.17"/>
</a>
</g>
</g>
<!-- Node24 -->
<g id="Node000024" class="node">
<title>Node24</title>
<g id="a_Node000024"><a xlink:title=" ">
<polygon fill="#e0e0e0" stroke="#999999" points="1985,-74 1934,-74 1934,-55 1985,-55 1985,-74"/>
<text text-anchor="middle" x="1959.5" y="-62" font-family="Helvetica,sans-Serif" font-size="10.00">csignal</text>
</a>
</g>
</g>
<!-- Node17&#45;&gt;Node24 -->
<g id="edge25_Node000017_Node000024" class="edge">
<title>Node17&#45;&gt;Node24</title>
<g id="a_edge25_Node000017_Node000024"><a xlink:title=" ">
<path fill="none" stroke="#63b8ff" d="M1898.12,-115.37C1909.4,-106.21 1927.42,-91.56 1941.03,-80.51"/>
<polygon fill="#63b8ff" stroke="#63b8ff" points="1943.28,-83.19 1948.83,-74.17 1938.86,-77.76 1943.28,-83.19"/>
</a>
</g>
</g>
<!-- Node25 -->
<g id="Node000025" class="node">
<title>Node25</title>
<g id="a_Node000025"><a xlink:href="../../d4/d82/debugbreak_8h.html" target="_top" xlink:title=" ">
<polygon fill="white" stroke="#666666" points="2316,-74 2233,-74 2233,-55 2316,-55 2316,-74"/>
<text text-anchor="middle" x="2274.5" y="-62" font-family="Helvetica,sans-Serif" font-size="10.00">debugbreak.h</text>
</a>
</g>
</g>
<!-- Node17&#45;&gt;Node25 -->
<g id="edge26_Node000017_Node000025" class="edge">
<title>Node17&#45;&gt;Node25</title>
<g id="a_edge26_Node000017_Node000025"><a xlink:title=" ">
<path fill="none" stroke="#63b8ff" d="M1928.52,-118.2C1990.16,-109.42 2110.58,-92.03 2222.65,-74.27"/>
<polygon fill="#63b8ff" stroke="#63b8ff" points="2223.44,-77.69 2232.77,-72.66 2222.34,-70.77 2223.44,-77.69"/>
</a>
</g>
</g>
<!-- Node26 -->
<g id="Node000026" class="node">
<title>Node26</title>
<g id="a_Node000026"><a xlink:title=" ">
<polygon fill="#e0e0e0" stroke="#999999" points="2302,-19 2247,-19 2247,0 2302,0 2302,-19"/>
<text text-anchor="middle" x="2274.5" y="-7" font-family="Helvetica,sans-Serif" font-size="10.00">signal.h</text>
</a>
</g>
</g>
<!-- Node25&#45;&gt;Node26 -->
<g id="edge27_Node000025_Node000026" class="edge">
<title>Node25&#45;&gt;Node26</title>
<g id="a_edge27_Node000025_Node000026"><a xlink:title=" ">
<path fill="none" stroke="#63b8ff" d="M2274.5,-54.75C2274.5,-47.8 2274.5,-37.85 2274.5,-29.13"/>
<polygon fill="#63b8ff" stroke="#63b8ff" points="2278,-29.09 2274.5,-19.09 2271,-29.09 2278,-29.09"/>
</a>
</g>
</g>
<!-- Node27&#45;&gt;Node15 -->
<g id="edge32_Node000027_Node000015" class="edge">
<title>Node27&#45;&gt;Node15</title>
<g id="a_edge32_Node000027_Node000015"><a xlink:title=" ">
<path fill="none" stroke="#63b8ff" d="M1518.28,-54.98C1492.14,-46.16 1451.1,-32.31 1421.77,-22.41"/>
<polygon fill="#63b8ff" stroke="#63b8ff" points="1422.52,-18.96 1411.92,-19.08 1420.28,-25.6 1422.52,-18.96"/>
</a>
</g>
</g>
<!-- Node28 -->
<g id="Node000028" class="node">
<title>Node28</title>
<g id="a_Node000028"><a xlink:title=" ">
<polygon fill="#e0e0e0" stroke="#999999" points="1499,-19 1450,-19 1450,0 1499,0 1499,-19"/>
<text text-anchor="middle" x="1474.5" y="-7" font-family="Helvetica,sans-Serif" font-size="10.00">QHash</text>
</a>
</g>
</g>
<!-- Node27&#45;&gt;Node28 -->
<g id="edge29_Node000027_Node000028" class="edge">
<title>Node27&#45;&gt;Node28</title>
<g id="a_edge29_Node000027_Node000028"><a xlink:title=" ">
<path fill="none" stroke="#63b8ff" d="M1532.41,-54.98C1522.01,-47 1506.24,-34.88 1493.78,-25.31"/>
<polygon fill="#63b8ff" stroke="#63b8ff" points="1495.85,-22.49 1485.79,-19.17 1491.59,-28.04 1495.85,-22.49"/>
</a>
</g>
</g>
<!-- Node29 -->
<g id="Node000029" class="node">
<title>Node29</title>
<g id="a_Node000029"><a xlink:title=" ">
<polygon fill="#e0e0e0" stroke="#999999" points="1569.5,-19 1517.5,-19 1517.5,0 1569.5,0 1569.5,-19"/>
<text text-anchor="middle" x="1543.5" y="-7" font-family="Helvetica,sans-Serif" font-size="10.00">QRectF</text>
</a>
</g>
</g>
<!-- Node27&#45;&gt;Node29 -->
<g id="edge30_Node000027_Node000029" class="edge">
<title>Node27&#45;&gt;Node29</title>
<g id="a_edge30_Node000027_Node000029"><a xlink:title=" ">
<path fill="none" stroke="#63b8ff" d="M1543.5,-54.75C1543.5,-47.8 1543.5,-37.85 1543.5,-29.13"/>
<polygon fill="#63b8ff" stroke="#63b8ff" points="1547,-29.09 1543.5,-19.09 1540,-29.09 1547,-29.09"/>
</a>
</g>
</g>
<!-- Node30 -->
<g id="Node000030" class="node">
<title>Node30</title>
<g id="a_Node000030"><a xlink:title=" ">
<polygon fill="#e0e0e0" stroke="#999999" points="1643,-19 1588,-19 1588,0 1643,0 1643,-19"/>
<text text-anchor="middle" x="1615.5" y="-7" font-family="Helvetica,sans-Serif" font-size="10.00">QVector</text>
</a>
</g>
</g>
<!-- Node27&#45;&gt;Node30 -->
<g id="edge31_Node000027_Node000030" class="edge">
<title>Node27&#45;&gt;Node30</title>
<g id="a_edge31_Node000027_Node000030"><a xlink:title=" ">
<path fill="none" stroke="#63b8ff" d="M1555.07,-54.98C1565.92,-47 1582.38,-34.88 1595.38,-25.31"/>
<polygon fill="#63b8ff" stroke="#63b8ff" points="1597.74,-27.92 1603.72,-19.17 1593.59,-22.28 1597.74,-27.92"/>
</a>
</g>
</g>
<!-- Node31&#45;&gt;Node11 -->
<g id="edge35_Node000031_Node000011" class="edge">
<title>Node31&#45;&gt;Node11</title>
<g id="a_edge35_Node000031_Node000011"><a xlink:title=" ">
<path fill="none" stroke="#63b8ff" d="M1314.53,-115.49C1266.9,-105.1 1186.25,-87.49 1134.47,-76.19"/>
<polygon fill="#63b8ff" stroke="#63b8ff" points="1135.03,-72.73 1124.52,-74.02 1133.54,-79.57 1135.03,-72.73"/>
</a>
</g>
</g>
<!-- Node31&#45;&gt;Node12 -->
<g id="edge36_Node000031_Node000012" class="edge">
<title>Node31&#45;&gt;Node12</title>
<g id="a_edge36_Node000031_Node000012"><a xlink:title=" ">
<path fill="none" stroke="#63b8ff" d="M1327.04,-115.49C1295.63,-105.4 1243.1,-88.51 1207.88,-77.19"/>
<polygon fill="#63b8ff" stroke="#63b8ff" points="1208.59,-73.74 1198,-74.02 1206.45,-80.41 1208.59,-73.74"/>
</a>
</g>
</g>
<!-- Node31&#45;&gt;Node13 -->
<g id="edge37_Node000031_Node000013" class="edge">
<title>Node31&#45;&gt;Node13</title>
<g id="a_edge37_Node000031_Node000013"><a xlink:title=" ">
<path fill="none" stroke="#63b8ff" d="M1338.15,-115.37C1321.18,-105.82 1293.6,-90.31 1273.71,-79.12"/>
<polygon fill="#63b8ff" stroke="#63b8ff" points="1275.34,-76.02 1264.91,-74.17 1271.91,-82.12 1275.34,-76.02"/>
</a>
</g>
</g>
<!-- Node31&#45;&gt;Node14 -->
<g id="edge39_Node000031_Node000014" class="edge">
<title>Node31&#45;&gt;Node14</title>
<g id="a_edge39_Node000031_Node000014"><a xlink:title=" ">
<path fill="none" stroke="#63b8ff" d="M1410.13,-117.15C1475.6,-108.9 1586.77,-93.85 1691.98,-73.95"/>
<polygon fill="#63b8ff" stroke="#63b8ff" points="1692.65,-77.38 1701.82,-72.07 1691.34,-70.51 1692.65,-77.38"/>
</a>
</g>
</g>
<!-- Node31&#45;&gt;Node15 -->
<g id="edge41_Node000031_Node000015" class="edge">
<title>Node31&#45;&gt;Node15</title>
<g id="a_edge41_Node000031_Node000015"><a xlink:title=" ">
<path fill="none" stroke="#63b8ff" d="M1355.98,-115.47C1361.31,-97.15 1373.94,-53.68 1381.18,-28.81"/>
<polygon fill="#63b8ff" stroke="#63b8ff" points="1384.56,-29.71 1383.99,-19.13 1377.84,-27.76 1384.56,-29.71"/>
</a>
</g>
</g>
<!-- Node31&#45;&gt;Node21 -->
<g id="edge40_Node000031_Node000021" class="edge">
<title>Node31&#45;&gt;Node21</title>
<g id="a_edge40_Node000031_Node000021"><a xlink:title=" ">
<path fill="none" stroke="#63b8ff" d="M1396.4,-115.49C1451.61,-104.55 1547.1,-85.61 1603.37,-74.45"/>
<polygon fill="#63b8ff" stroke="#63b8ff" points="1604.28,-77.84 1613.4,-72.46 1602.91,-70.97 1604.28,-77.84"/>
</a>
</g>
</g>
<!-- Node31&#45;&gt;Node27 -->
<g id="edge42_Node000031_Node000027" class="edge">
<title>Node31&#45;&gt;Node27</title>
<g id="a_edge42_Node000031_Node000027"><a xlink:title=" ">
<path fill="none" stroke="#63b8ff" d="M1381.13,-115.49C1414.05,-105.36 1469.23,-88.37 1505.99,-77.05"/>
<polygon fill="#63b8ff" stroke="#63b8ff" points="1507.31,-80.3 1515.84,-74.02 1505.25,-73.61 1507.31,-80.3"/>
</a>
</g>
</g>
<!-- Node32 -->
<g id="Node000032" class="node">
<title>Node32</title>
<g id="a_Node000032"><a xlink:title=" ">
<polygon fill="#e0e0e0" stroke="#999999" points="1473,-74 1400,-74 1400,-55 1473,-55 1473,-74"/>
<text text-anchor="middle" x="1436.5" y="-62" font-family="Helvetica,sans-Serif" font-size="10.00">QByteArray</text>
</a>
</g>
</g>
<!-- Node31&#45;&gt;Node32 -->
<g id="edge34_Node000031_Node000032" class="edge">
<title>Node31&#45;&gt;Node32</title>
<g id="a_edge34_Node000031_Node000032"><a xlink:title=" ">
<path fill="none" stroke="#63b8ff" d="M1365.75,-115.37C1378.86,-106.12 1399.92,-91.28 1415.65,-80.19"/>
<polygon fill="#63b8ff" stroke="#63b8ff" points="1418.05,-82.79 1424.2,-74.17 1414.01,-77.07 1418.05,-82.79"/>
</a>
</g>
</g>
<!-- Node33 -->
<g id="Node000033" class="node">
<title>Node33</title>
<g id="a_Node000033"><a xlink:title=" ">
<polygon fill="#e0e0e0" stroke="#999999" points="1343.5,-74 1299.5,-74 1299.5,-55 1343.5,-55 1343.5,-74"/>
<text text-anchor="middle" x="1321.5" y="-62" font-family="Helvetica,sans-Serif" font-size="10.00">QSize</text>
</a>
</g>
</g>
<!-- Node31&#45;&gt;Node33 -->
<g id="edge38_Node000031_Node000033" class="edge">
<title>Node31&#45;&gt;Node33</title>
<g id="a_edge38_Node000031_Node000033"><a xlink:title=" ">
<path fill="none" stroke="#63b8ff" d="M1348.78,-115.37C1344.15,-106.9 1336.95,-93.74 1331.11,-83.07"/>
<polygon fill="#63b8ff" stroke="#63b8ff" points="1334.11,-81.26 1326.24,-74.17 1327.97,-84.62 1334.11,-81.26"/>
</a>
</g>
</g>
<!-- Node34&#45;&gt;Node7 -->
<g id="edge59_Node000034_Node000007" class="edge">
<title>Node34&#45;&gt;Node7</title>
<g id="a_edge59_Node000034_Node000007"><a xlink:title=" ">
<path fill="none" stroke="#63b8ff" d="M674.39,-179.9C634.71,-174.38 574.35,-162.83 526.5,-140 525.83,-139.68 441.83,-74.67 441.5,-74 437.79,-66.42 436.29,-61.65 441.5,-55 457.26,-34.87 522.76,-22.59 570.21,-16.16"/>
<polygon fill="#63b8ff" stroke="#63b8ff" points="570.87,-19.61 580.34,-14.84 569.97,-12.67 570.87,-19.61"/>
</a>
</g>
</g>
<!-- Node35 -->
<g id="Node000035" class="node">
<title>Node35</title>
<g id="a_Node000035"><a xlink:title=" ">
<polygon fill="#e0e0e0" stroke="#999999" points="745.5,-134.5 687.5,-134.5 687.5,-115.5 745.5,-115.5 745.5,-134.5"/>
<text text-anchor="middle" x="716.5" y="-122.5" font-family="Helvetica,sans-Serif" font-size="10.00">memory</text>
</a>
</g>
</g>
<!-- Node34&#45;&gt;Node35 -->
<g id="edge44_Node000034_Node000035" class="edge">
<title>Node34&#45;&gt;Node35</title>
<g id="a_edge44_Node000034_Node000035"><a xlink:title=" ">
<path fill="none" stroke="#63b8ff" d="M716.5,-175.87C716.5,-167.75 716.5,-155.31 716.5,-144.89"/>
<polygon fill="#63b8ff" stroke="#63b8ff" points="720,-144.67 716.5,-134.67 713,-144.67 720,-144.67"/>
</a>
</g>
</g>
<!-- Node36 -->
<g id="Node000036" class="node">
<title>Node36</title>
<g id="a_Node000036"><a xlink:title=" ">
<polygon fill="#e0e0e0" stroke="#999999" points="811,-134.5 764,-134.5 764,-115.5 811,-115.5 811,-134.5"/>
<text text-anchor="middle" x="787.5" y="-122.5" font-family="Helvetica,sans-Serif" font-size="10.00">vector</text>
</a>
</g>
</g>
<!-- Node34&#45;&gt;Node36 -->
<g id="edge45_Node000034_Node000036" class="edge">
<title>Node34&#45;&gt;Node36</title>
<g id="a_edge45_Node000034_Node000036"><a xlink:title=" ">
<path fill="none" stroke="#63b8ff" d="M726.98,-175.87C737.99,-166.8 755.54,-152.34 768.91,-141.32"/>
<polygon fill="#63b8ff" stroke="#63b8ff" points="771.49,-143.73 776.98,-134.67 767.04,-138.33 771.49,-143.73"/>
</a>
</g>
</g>
<!-- Node37 -->
<g id="Node000037" class="node">
<title>Node37</title>
<g id="a_Node000037"><a xlink:title=" ">
<polygon fill="#e0e0e0" stroke="#999999" points="909.5,-134.5 829.5,-134.5 829.5,-115.5 909.5,-115.5 909.5,-134.5"/>
<text text-anchor="middle" x="869.5" y="-122.5" font-family="Helvetica,sans-Serif" font-size="10.00">QTextStream</text>
</a>
</g>
</g>
<!-- Node34&#45;&gt;Node37 -->
<g id="edge46_Node000034_Node000037" class="edge">
<title>Node34&#45;&gt;Node37</title>
<g id="a_edge46_Node000034_Node000037"><a xlink:title=" ">
<path fill="none" stroke="#63b8ff" d="M738.75,-175.99C764.81,-166.03 808.18,-149.45 837.77,-138.13"/>
<polygon fill="#63b8ff" stroke="#63b8ff" points="839.14,-141.36 847.23,-134.52 836.64,-134.82 839.14,-141.36"/>
</a>
</g>
</g>
<!-- Node38 -->
<g id="Node000038" class="node">
<title>Node38</title>
<g id="a_Node000038"><a xlink:title=" ">
<polygon fill="#e0e0e0" stroke="#999999" points="1029,-134.5 928,-134.5 928,-115.5 1029,-115.5 1029,-134.5"/>
<text text-anchor="middle" x="978.5" y="-122.5" font-family="Helvetica,sans-Serif" font-size="10.00">QCoreApplication</text>
</a>
</g>
</g>
<!-- Node34&#45;&gt;Node38 -->
<g id="edge47_Node000034_Node000038" class="edge">
<title>Node34&#45;&gt;Node38</title>
<g id="a_edge47_Node000034_Node000038"><a xlink:title=" ">
<path fill="none" stroke="#63b8ff" d="M756.01,-175.95C796.76,-167.09 862.12,-152.79 918.5,-140 922.96,-138.99 927.61,-137.92 932.25,-136.85"/>
<polygon fill="#63b8ff" stroke="#63b8ff" points="933.4,-140.18 942.35,-134.51 931.81,-133.36 933.4,-140.18"/>
</a>
</g>
</g>
<!-- Node39 -->
<g id="Node000039" class="node">
<title>Node39</title>
<g id="a_Node000039"><a xlink:title=" ">
<polygon fill="#e0e0e0" stroke="#999999" points="348,-134.5 223,-134.5 223,-115.5 348,-115.5 348,-134.5"/>
<text text-anchor="middle" x="285.5" y="-122.5" font-family="Helvetica,sans-Serif" font-size="10.00">QCommandLineParser</text>
</a>
</g>
</g>
<!-- Node34&#45;&gt;Node39 -->
<g id="edge48_Node000034_Node000039" class="edge">
<title>Node34&#45;&gt;Node39</title>
<g id="a_edge48_Node000034_Node000039"><a xlink:title=" ">
<path fill="none" stroke="#63b8ff" d="M674.24,-180.27C606.84,-173.3 470.92,-158.33 356.5,-140 349.92,-138.95 343.01,-137.73 336.2,-136.46"/>
<polygon fill="#63b8ff" stroke="#63b8ff" points="336.81,-133.01 326.33,-134.57 335.5,-139.89 336.81,-133.01"/>
</a>
</g>
</g>
<!-- Node40 -->
<g id="Node000040" class="node">
<title>Node40</title>
<g id="a_Node000040"><a xlink:href="../../d3/dd8/layoutsettings__dialog_8h.html" target="_top" xlink:title=" ">
<polygon fill="white" stroke="#666666" points="669.5,-140 535.5,-140 535.5,-110 669.5,-110 669.5,-140"/>
<text text-anchor="start" x="543.5" y="-128" font-family="Helvetica,sans-Serif" font-size="10.00">../dialogs/layoutsettings</text>
<text text-anchor="middle" x="602.5" y="-117" font-family="Helvetica,sans-Serif" font-size="10.00">_dialog.h</text>
</a>
</g>
</g>
<!-- Node34&#45;&gt;Node40 -->
<g id="edge49_Node000034_Node000040" class="edge">
<title>Node34&#45;&gt;Node40</title>
<g id="a_edge49_Node000034_Node000040"><a xlink:title=" ">
<path fill="none" stroke="#63b8ff" d="M699.68,-175.87C683.78,-167.71 659.4,-155.2 639.03,-144.75"/>
<polygon fill="#63b8ff" stroke="#63b8ff" points="640.5,-141.57 630.01,-140.11 637.3,-147.79 640.5,-141.57"/>
</a>
</g>
</g>
<!-- Node45 -->
<g id="Node000045" class="node">
<title>Node45</title>
<g id="a_Node000045"><a xlink:title=" ">
<polygon fill="#e0e0e0" stroke="#999999" points="479,-134.5 366,-134.5 366,-115.5 479,-115.5 479,-134.5"/>
<text text-anchor="middle" x="422.5" y="-122.5" font-family="Helvetica,sans-Serif" font-size="10.00">../vmisc/vsysexits.h</text>
</a>
</g>
</g>
<!-- Node34&#45;&gt;Node45 -->
<g id="edge60_Node000034_Node000045" class="edge">
<title>Node34&#45;&gt;Node45</title>
<g id="a_edge60_Node000034_Node000045"><a xlink:title=" ">
<path fill="none" stroke="#63b8ff" d="M674.38,-176.12C621.95,-165.69 532.4,-147.87 475.4,-136.53"/>
<polygon fill="#63b8ff" stroke="#63b8ff" points="475.99,-133.08 465.5,-134.56 474.63,-139.94 475.99,-133.08"/>
</a>
</g>
</g>
<!-- Node40&#45;&gt;Node4 -->
<g id="edge56_Node000040_Node000004" class="edge">
<title>Node40&#45;&gt;Node4</title>
<g id="a_edge56_Node000040_Node000004"><a xlink:title=" ">
<path fill="none" stroke="#63b8ff" d="M669.66,-111.41C741.5,-97.79 845.62,-77.53 848.5,-74 859.52,-60.51 850.21,-41.16 840.52,-27.37"/>
<polygon fill="#63b8ff" stroke="#63b8ff" points="843.17,-25.06 834.32,-19.23 837.6,-29.3 843.17,-25.06"/>
</a>
</g>
</g>
<!-- Node40&#45;&gt;Node7 -->
<g id="edge55_Node000040_Node000007" class="edge">
<title>Node40&#45;&gt;Node7</title>
<g id="a_edge55_Node000040_Node000007"><a xlink:title=" ">
<path fill="none" stroke="#63b8ff" d="M627.08,-109.99C639.59,-101.38 653.58,-89.11 660.5,-74 668.43,-56.7 654.36,-38.31 640.96,-25.8"/>
<polygon fill="#63b8ff" stroke="#63b8ff" points="643.17,-23.08 633.32,-19.16 638.58,-28.36 643.17,-23.08"/>
</a>
</g>
</g>
<!-- Node40&#45;&gt;Node16 -->
<g id="edge58_Node000040_Node000016" class="edge">
<title>Node40&#45;&gt;Node16</title>
<g id="a_edge58_Node000040_Node000016"><a xlink:title=" ">
<path fill="none" stroke="#63b8ff" d="M669.63,-111.59C672.63,-111.05 675.59,-110.52 678.5,-110 755.48,-96.32 845.43,-81.09 896.81,-72.47"/>
<polygon fill="#63b8ff" stroke="#63b8ff" points="897.58,-75.89 906.86,-70.78 896.42,-68.99 897.58,-75.89"/>
</a>
</g>
</g>
<!-- Node41 -->
<g id="Node000041" class="node">
<title>Node41</title>
<g id="a_Node000041"><a xlink:href="../../d7/d9e/abstractlayout__dialog_8h.html" target="_top" xlink:title=" ">
<polygon fill="white" stroke="#666666" points="840,-74 709,-74 709,-55 840,-55 840,-74"/>
<text text-anchor="middle" x="774.5" y="-62" font-family="Helvetica,sans-Serif" font-size="10.00">abstractlayout_dialog.h</text>
</a>
</g>
</g>
<!-- Node40&#45;&gt;Node41 -->
<g id="edge50_Node000040_Node000041" class="edge">
<title>Node40&#45;&gt;Node41</title>
<g id="a_edge50_Node000040_Node000041"><a xlink:title=" ">
<path fill="none" stroke="#63b8ff" d="M643.7,-109.99C673,-100.02 711.92,-86.78 739.67,-77.35"/>
<polygon fill="#63b8ff" stroke="#63b8ff" points="741.01,-80.59 749.35,-74.05 738.76,-73.96 741.01,-80.59"/>
</a>
</g>
</g>
<!-- Node43 -->
<g id="Node000043" class="node">
<title>Node43</title>
<g id="a_Node000043"><a xlink:title=" ">
<polygon fill="#e0e0e0" stroke="#999999" points="554.5,-74 450.5,-74 450.5,-55 554.5,-55 554.5,-74"/>
<text text-anchor="middle" x="502.5" y="-62" font-family="Helvetica,sans-Serif" font-size="10.00">../vlayout/vbank.h</text>
</a>
</g>
</g>
<!-- Node40&#45;&gt;Node43 -->
<g id="edge54_Node000040_Node000043" class="edge">
<title>Node40&#45;&gt;Node43</title>
<g id="a_edge54_Node000040_Node000043"><a xlink:title=" ">
<path fill="none" stroke="#63b8ff" d="M578.55,-109.99C562.61,-100.66 541.77,-88.47 525.94,-79.21"/>
<polygon fill="#63b8ff" stroke="#63b8ff" points="527.67,-76.17 517.27,-74.14 524.13,-82.21 527.67,-76.17"/>
</a>
</g>
</g>
<!-- Node44 -->
<g id="Node000044" class="node">
<title>Node44</title>
<g id="a_Node000044"><a xlink:title=" ">
<polygon fill="#e0e0e0" stroke="#999999" points="652,-74 573,-74 573,-55 652,-55 652,-74"/>
<text text-anchor="middle" x="612.5" y="-62" font-family="Helvetica,sans-Serif" font-size="10.00">QCloseEvent</text>
</a>
</g>
</g>
<!-- Node40&#45;&gt;Node44 -->
<g id="edge57_Node000040_Node000044" class="edge">
<title>Node40&#45;&gt;Node44</title>
<g id="a_edge57_Node000040_Node000044"><a xlink:title=" ">
<path fill="none" stroke="#63b8ff" d="M604.92,-109.84C606.24,-102.13 607.89,-92.49 609.31,-84.17"/>
<polygon fill="#63b8ff" stroke="#63b8ff" points="612.77,-84.71 611,-74.27 605.87,-83.53 612.77,-84.71"/>
</a>
</g>
</g>
<!-- Node41&#45;&gt;Node4 -->
<g id="edge51_Node000041_Node000004" class="edge">
<title>Node41&#45;&gt;Node4</title>
<g id="a_edge51_Node000041_Node000004"><a xlink:title=" ">
<path fill="none" stroke="#63b8ff" d="M783.09,-54.75C790.66,-47.03 801.88,-35.6 811.01,-26.28"/>
<polygon fill="#63b8ff" stroke="#63b8ff" points="813.57,-28.68 818.07,-19.09 808.57,-23.78 813.57,-28.68"/>
</a>
</g>
</g>
<!-- Node41&#45;&gt;Node7 -->
<g id="edge52_Node000041_Node000007" class="edge">
<title>Node41&#45;&gt;Node7</title>
<g id="a_edge52_Node000041_Node000007"><a xlink:title=" ">
<path fill="none" stroke="#63b8ff" d="M749.92,-54.98C724.45,-46.16 684.46,-32.31 655.87,-22.41"/>
<polygon fill="#63b8ff" stroke="#63b8ff" points="656.87,-19.05 646.27,-19.08 654.58,-25.66 656.87,-19.05"/>
</a>
</g>
</g>
<!-- Node42 -->
<g id="Node000042" class="node">
<title>Node42</title>
<g id="a_Node000042"><a xlink:title=" ">
<polygon fill="#e0e0e0" stroke="#999999" points="769.5,-19 713.5,-19 713.5,0 769.5,0 769.5,-19"/>
<text text-anchor="middle" x="741.5" y="-7" font-family="Helvetica,sans-Serif" font-size="10.00">QDialog</text>
</a>
</g>
</g>
<!-- Node41&#45;&gt;Node42 -->
<g id="edge53_Node000041_Node000042" class="edge">
<title>Node41&#45;&gt;Node42</title>
<g id="a_edge53_Node000041_Node000042"><a xlink:title=" ">
<path fill="none" stroke="#63b8ff" d="M769.05,-54.75C764.49,-47.42 757.83,-36.73 752.21,-27.7"/>
<polygon fill="#63b8ff" stroke="#63b8ff" points="755.1,-25.73 746.85,-19.09 749.16,-29.43 755.1,-25.73"/>
</a>
</g>
</g>
</g>
</svg>
