<?xml version="1.0" encoding="UTF-8" standalone="no"?>
<!DOCTYPE svg PUBLIC "-//W3C//DTD SVG 1.1//EN"
 "http://www.w3.org/Graphics/SVG/1.1/DTD/svg11.dtd">
<!-- Generated by graphviz version 2.43.0 (0)
 -->
<!-- Title: src/libs/vpatterndb/vnodedetail_p.h Pages: 1 -->
<svg width="846pt" height="258pt"
 viewBox="0.00 0.00 846.00 258.00" xmlns="http://www.w3.org/2000/svg" xmlns:xlink="http://www.w3.org/1999/xlink">
<g id="graph0" class="graph" transform="scale(1 1) rotate(0) translate(4 254)">
<title>src/libs/vpatterndb/vnodedetail_p.h</title>
<!-- Node1 -->
<g id="Node000001" class="node">
<title>Node1</title>
<g id="a_Node000001"><a xlink:title=" ">
<polygon fill="#999999" stroke="#666666" points="722,-250 615,-250 615,-220 722,-220 722,-250"/>
<text text-anchor="start" x="623" y="-238" font-family="Helvetica,sans-Serif" font-size="10.00">src/libs/vpatterndb</text>
<text text-anchor="middle" x="668.5" y="-227" font-family="Helvetica,sans-Serif" font-size="10.00">/vnodedetail_p.h</text>
</a>
</g>
</g>
<!-- Node2 -->
<g id="Node000002" class="node">
<title>Node2</title>
<g id="a_Node000002"><a xlink:title=" ">
<polygon fill="#e0e0e0" stroke="#999999" points="612,-184 531,-184 531,-165 612,-165 612,-184"/>
<text text-anchor="middle" x="571.5" y="-172" font-family="Helvetica,sans-Serif" font-size="10.00">QSharedData</text>
</a>
</g>
</g>
<!-- Node1&#45;&gt;Node2 -->
<g id="edge1_Node000001_Node000002" class="edge">
<title>Node1&#45;&gt;Node2</title>
<g id="a_edge1_Node000001_Node000002"><a xlink:title=" ">
<path fill="none" stroke="#63b8ff" d="M645.02,-219.84C629.7,-210.6 609.79,-198.59 594.55,-189.4"/>
<polygon fill="#63b8ff" stroke="#63b8ff" points="596.12,-186.26 585.75,-184.09 592.51,-192.26 596.12,-186.26"/>
</a>
</g>
</g>
<!-- Node3 -->
<g id="Node000003" class="node">
<title>Node3</title>
<g id="a_Node000003"><a xlink:href="../../d3/da5/ifcdef_8h.html" target="_top" xlink:title=" ">
<polygon fill="white" stroke="#666666" points="707,-184 630,-184 630,-165 707,-165 707,-184"/>
<text text-anchor="middle" x="668.5" y="-172" font-family="Helvetica,sans-Serif" font-size="10.00">../ifc/ifcdef.h</text>
</a>
</g>
</g>
<!-- Node1&#45;&gt;Node3 -->
<g id="edge2_Node000001_Node000003" class="edge">
<title>Node1&#45;&gt;Node3</title>
<g id="a_edge2_Node000001_Node000003"><a xlink:title=" ">
<path fill="none" stroke="#63b8ff" d="M668.5,-219.84C668.5,-212.21 668.5,-202.7 668.5,-194.45"/>
<polygon fill="#63b8ff" stroke="#63b8ff" points="672,-194.27 668.5,-184.27 665,-194.27 672,-194.27"/>
</a>
</g>
</g>
<!-- Node16 -->
<g id="Node000016" class="node">
<title>Node16</title>
<g id="a_Node000016"><a xlink:href="../../d6/dcd/diagnostic_8h.html" target="_top" xlink:title=" ">
<polygon fill="white" stroke="#666666" points="838,-129 721,-129 721,-110 838,-110 838,-129"/>
<text text-anchor="middle" x="779.5" y="-117" font-family="Helvetica,sans-Serif" font-size="10.00">../vmisc/diagnostic.h</text>
</a>
</g>
</g>
<!-- Node1&#45;&gt;Node16 -->
<g id="edge20_Node000001_Node000016" class="edge">
<title>Node1&#45;&gt;Node16</title>
<g id="a_edge20_Node000001_Node000016"><a xlink:title=" ">
<path fill="none" stroke="#63b8ff" d="M682.56,-219.63C703.34,-198.37 742.14,-158.71 763.82,-136.54"/>
<polygon fill="#63b8ff" stroke="#63b8ff" points="766.47,-138.83 770.96,-129.23 761.47,-133.93 766.47,-138.83"/>
</a>
</g>
</g>
<!-- Node4 -->
<g id="Node000004" class="node">
<title>Node4</title>
<g id="a_Node000004"><a xlink:title=" ">
<polygon fill="#e0e0e0" stroke="#999999" points="53,-74 0,-74 0,-55 53,-55 53,-74"/>
<text text-anchor="middle" x="26.5" y="-62" font-family="Helvetica,sans-Serif" font-size="10.00">QString</text>
</a>
</g>
</g>
<!-- Node3&#45;&gt;Node4 -->
<g id="edge3_Node000003_Node000004" class="edge">
<title>Node3&#45;&gt;Node4</title>
<g id="a_edge3_Node000003_Node000004"><a xlink:title=" ">
<path fill="none" stroke="#63b8ff" d="M629.79,-166.39C626.99,-165.91 624.2,-165.44 621.5,-165 511.57,-147.09 483.47,-146.67 373.5,-129 237.74,-107.19 201.02,-103.04 63.31,-74.29"/>
<polygon fill="#63b8ff" stroke="#63b8ff" points="63.72,-70.8 53.21,-72.17 62.28,-77.65 63.72,-70.8"/>
</a>
</g>
</g>
<!-- Node5 -->
<g id="Node000005" class="node">
<title>Node5</title>
<g id="a_Node000005"><a xlink:title=" ">
<polygon fill="#e0e0e0" stroke="#999999" points="731.5,-74 661.5,-74 661.5,-55 731.5,-55 731.5,-74"/>
<text text-anchor="middle" x="696.5" y="-62" font-family="Helvetica,sans-Serif" font-size="10.00">QStringList</text>
</a>
</g>
</g>
<!-- Node3&#45;&gt;Node5 -->
<g id="edge4_Node000003_Node000005" class="edge">
<title>Node3&#45;&gt;Node5</title>
<g id="a_edge4_Node000003_Node000005"><a xlink:title=" ">
<path fill="none" stroke="#63b8ff" d="M669.24,-164.74C670.43,-152.37 673.2,-129.14 678.5,-110 680.98,-101.07 684.7,-91.49 688.12,-83.52"/>
<polygon fill="#63b8ff" stroke="#63b8ff" points="691.42,-84.72 692.31,-74.16 685.03,-81.86 691.42,-84.72"/>
</a>
</g>
</g>
<!-- Node6 -->
<g id="Node000006" class="node">
<title>Node6</title>
<g id="a_Node000006"><a xlink:title=" ">
<polygon fill="#e0e0e0" stroke="#999999" points="809,-74 750,-74 750,-55 809,-55 809,-74"/>
<text text-anchor="middle" x="779.5" y="-62" font-family="Helvetica,sans-Serif" font-size="10.00">QtGlobal</text>
</a>
</g>
</g>
<!-- Node3&#45;&gt;Node6 -->
<g id="edge5_Node000003_Node000006" class="edge">
<title>Node3&#45;&gt;Node6</title>
<g id="a_edge5_Node000003_Node000006"><a xlink:title=" ">
<path fill="none" stroke="#63b8ff" d="M673.03,-164.93C680.18,-151.98 695.07,-127.09 712.5,-110 724.89,-97.85 741.05,-87 754.39,-79.06"/>
<polygon fill="#63b8ff" stroke="#63b8ff" points="756.18,-82.07 763.1,-74.05 752.69,-76.01 756.18,-82.07"/>
</a>
</g>
</g>
<!-- Node7 -->
<g id="Node000007" class="node">
<title>Node7</title>
<g id="a_Node000007"><a xlink:href="../../d4/da4/def_8h.html" target="_top" xlink:title=" ">
<polygon fill="white" stroke="#666666" points="464.5,-129 382.5,-129 382.5,-110 464.5,-110 464.5,-129"/>
<text text-anchor="middle" x="423.5" y="-117" font-family="Helvetica,sans-Serif" font-size="10.00">../vmisc/def.h</text>
</a>
</g>
</g>
<!-- Node3&#45;&gt;Node7 -->
<g id="edge6_Node000003_Node000007" class="edge">
<title>Node3&#45;&gt;Node7</title>
<g id="a_edge6_Node000003_Node000007"><a xlink:title=" ">
<path fill="none" stroke="#63b8ff" d="M629.95,-165.16C587.52,-155.98 519.19,-141.2 472.87,-131.18"/>
<polygon fill="#63b8ff" stroke="#63b8ff" points="473.56,-127.75 463.04,-129.05 472.08,-134.59 473.56,-127.75"/>
</a>
</g>
</g>
<!-- Node3&#45;&gt;Node16 -->
<g id="edge18_Node000003_Node000016" class="edge">
<title>Node3&#45;&gt;Node16</title>
<g id="a_edge18_Node000003_Node000016"><a xlink:title=" ">
<path fill="none" stroke="#63b8ff" d="M686.33,-164.98C704.11,-156.5 731.65,-143.35 752.18,-133.54"/>
<polygon fill="#63b8ff" stroke="#63b8ff" points="753.83,-136.64 761.34,-129.17 750.81,-130.32 753.83,-136.64"/>
</a>
</g>
</g>
<!-- Node7&#45;&gt;Node4 -->
<g id="edge10_Node000007_Node000004" class="edge">
<title>Node7&#45;&gt;Node4</title>
<g id="a_edge10_Node000007_Node000004"><a xlink:title=" ">
<path fill="none" stroke="#63b8ff" d="M382.28,-115C316.69,-109.09 184.39,-95.79 63.36,-74.16"/>
<polygon fill="#63b8ff" stroke="#63b8ff" points="63.65,-70.66 53.18,-72.32 62.4,-77.54 63.65,-70.66"/>
</a>
</g>
</g>
<!-- Node7&#45;&gt;Node5 -->
<g id="edge11_Node000007_Node000005" class="edge">
<title>Node7&#45;&gt;Node5</title>
<g id="a_edge11_Node000007_Node000005"><a xlink:title=" ">
<path fill="none" stroke="#63b8ff" d="M464.67,-110.51C514.8,-100.78 599.2,-84.39 651.15,-74.3"/>
<polygon fill="#63b8ff" stroke="#63b8ff" points="651.94,-77.72 661.09,-72.37 650.61,-70.84 651.94,-77.72"/>
</a>
</g>
</g>
<!-- Node7&#45;&gt;Node6 -->
<g id="edge13_Node000007_Node000006" class="edge">
<title>Node7&#45;&gt;Node6</title>
<g id="a_edge13_Node000007_Node000006"><a xlink:title=" ">
<path fill="none" stroke="#63b8ff" d="M464.69,-113.72C523.42,-106.69 634.79,-92.54 739.61,-74.03"/>
<polygon fill="#63b8ff" stroke="#63b8ff" points="740.5,-77.43 749.74,-72.23 739.28,-70.54 740.5,-77.43"/>
</a>
</g>
</g>
<!-- Node8 -->
<g id="Node000008" class="node">
<title>Node8</title>
<g id="a_Node000008"><a xlink:title=" ">
<polygon fill="#e0e0e0" stroke="#999999" points="483.5,-74 363.5,-74 363.5,-55 483.5,-55 483.5,-74"/>
<text text-anchor="middle" x="423.5" y="-62" font-family="Helvetica,sans-Serif" font-size="10.00">qcompilerdetection.h</text>
</a>
</g>
</g>
<!-- Node7&#45;&gt;Node8 -->
<g id="edge7_Node000007_Node000008" class="edge">
<title>Node7&#45;&gt;Node8</title>
<g id="a_edge7_Node000007_Node000008"><a xlink:title=" ">
<path fill="none" stroke="#63b8ff" d="M423.5,-109.75C423.5,-102.8 423.5,-92.85 423.5,-84.13"/>
<polygon fill="#63b8ff" stroke="#63b8ff" points="427,-84.09 423.5,-74.09 420,-84.09 427,-84.09"/>
</a>
</g>
</g>
<!-- Node9 -->
<g id="Node000009" class="node">
<title>Node9</title>
<g id="a_Node000009"><a xlink:title=" ">
<polygon fill="#e0e0e0" stroke="#999999" points="575,-74 502,-74 502,-55 575,-55 575,-74"/>
<text text-anchor="middle" x="538.5" y="-62" font-family="Helvetica,sans-Serif" font-size="10.00">QFileDialog</text>
</a>
</g>
</g>
<!-- Node7&#45;&gt;Node9 -->
<g id="edge8_Node000007_Node000009" class="edge">
<title>Node7&#45;&gt;Node9</title>
<g id="a_edge8_Node000007_Node000009"><a xlink:title=" ">
<path fill="none" stroke="#63b8ff" d="M441.98,-109.98C460.48,-101.46 489.18,-88.23 510.48,-78.41"/>
<polygon fill="#63b8ff" stroke="#63b8ff" points="512.07,-81.53 519.69,-74.17 509.14,-75.18 512.07,-81.53"/>
</a>
</g>
</g>
<!-- Node10 -->
<g id="Node000010" class="node">
<title>Node10</title>
<g id="a_Node000010"><a xlink:title=" ">
<polygon fill="#e0e0e0" stroke="#999999" points="643.5,-74 593.5,-74 593.5,-55 643.5,-55 643.5,-74"/>
<text text-anchor="middle" x="618.5" y="-62" font-family="Helvetica,sans-Serif" font-size="10.00">QLineF</text>
</a>
</g>
</g>
<!-- Node7&#45;&gt;Node10 -->
<g id="edge9_Node000007_Node000010" class="edge">
<title>Node7&#45;&gt;Node10</title>
<g id="a_edge9_Node000007_Node000010"><a xlink:title=" ">
<path fill="none" stroke="#63b8ff" d="M454.83,-109.98C490.06,-100.41 547.11,-84.9 583.7,-74.96"/>
<polygon fill="#63b8ff" stroke="#63b8ff" points="584.71,-78.31 593.45,-72.31 582.88,-71.55 584.71,-78.31"/>
</a>
</g>
</g>
<!-- Node11 -->
<g id="Node000011" class="node">
<title>Node11</title>
<g id="a_Node000011"><a xlink:title=" ">
<polygon fill="#e0e0e0" stroke="#999999" points="100,-74 71,-74 71,-55 100,-55 100,-74"/>
<text text-anchor="middle" x="85.5" y="-62" font-family="Helvetica,sans-Serif" font-size="10.00">Qt</text>
</a>
</g>
</g>
<!-- Node7&#45;&gt;Node11 -->
<g id="edge12_Node000007_Node000011" class="edge">
<title>Node7&#45;&gt;Node11</title>
<g id="a_edge12_Node000007_Node000011"><a xlink:title=" ">
<path fill="none" stroke="#63b8ff" d="M382.36,-115.31C323.78,-110.19 212.96,-98.38 110.02,-73.62"/>
<polygon fill="#63b8ff" stroke="#63b8ff" points="110.63,-70.17 100.08,-71.19 108.96,-76.97 110.63,-70.17"/>
</a>
</g>
</g>
<!-- Node12 -->
<g id="Node000012" class="node">
<title>Node12</title>
<g id="a_Node000012"><a xlink:title=" ">
<polygon fill="#e0e0e0" stroke="#999999" points="174.5,-74 118.5,-74 118.5,-55 174.5,-55 174.5,-74"/>
<text text-anchor="middle" x="146.5" y="-62" font-family="Helvetica,sans-Serif" font-size="10.00">QPrinter</text>
</a>
</g>
</g>
<!-- Node7&#45;&gt;Node12 -->
<g id="edge14_Node000007_Node000012" class="edge">
<title>Node7&#45;&gt;Node12</title>
<g id="a_edge14_Node000007_Node000012"><a xlink:title=" ">
<path fill="none" stroke="#63b8ff" d="M382.39,-111.31C334.7,-102.86 253.76,-88.19 184.5,-74 184.4,-73.98 184.3,-73.96 184.2,-73.94"/>
<polygon fill="#63b8ff" stroke="#63b8ff" points="185.21,-70.57 174.7,-71.93 183.76,-77.42 185.21,-70.57"/>
</a>
</g>
</g>
<!-- Node13 -->
<g id="Node000013" class="node">
<title>Node13</title>
<g id="a_Node000013"><a xlink:title=" ">
<polygon fill="#e0e0e0" stroke="#999999" points="244,-74 193,-74 193,-55 244,-55 244,-74"/>
<text text-anchor="middle" x="218.5" y="-62" font-family="Helvetica,sans-Serif" font-size="10.00">csignal</text>
</a>
</g>
</g>
<!-- Node7&#45;&gt;Node13 -->
<g id="edge15_Node000007_Node000013" class="edge">
<title>Node7&#45;&gt;Node13</title>
<g id="a_edge15_Node000007_Node000013"><a xlink:title=" ">
<path fill="none" stroke="#63b8ff" d="M390.56,-109.98C353.16,-100.31 292.36,-84.6 253.95,-74.66"/>
<polygon fill="#63b8ff" stroke="#63b8ff" points="254.77,-71.26 244.22,-72.15 253.02,-78.04 254.77,-71.26"/>
</a>
</g>
</g>
<!-- Node14 -->
<g id="Node000014" class="node">
<title>Node14</title>
<g id="a_Node000014"><a xlink:href="../../d4/d82/debugbreak_8h.html" target="_top" xlink:title=" ">
<polygon fill="white" stroke="#666666" points="345,-74 262,-74 262,-55 345,-55 345,-74"/>
<text text-anchor="middle" x="303.5" y="-62" font-family="Helvetica,sans-Serif" font-size="10.00">debugbreak.h</text>
</a>
</g>
</g>
<!-- Node7&#45;&gt;Node14 -->
<g id="edge16_Node000007_Node000014" class="edge">
<title>Node7&#45;&gt;Node14</title>
<g id="a_edge16_Node000007_Node000014"><a xlink:title=" ">
<path fill="none" stroke="#63b8ff" d="M404.22,-109.98C384.83,-101.42 354.69,-88.11 332.43,-78.28"/>
<polygon fill="#63b8ff" stroke="#63b8ff" points="333.69,-75.01 323.13,-74.17 330.86,-81.41 333.69,-75.01"/>
</a>
</g>
</g>
<!-- Node15 -->
<g id="Node000015" class="node">
<title>Node15</title>
<g id="a_Node000015"><a xlink:title=" ">
<polygon fill="#e0e0e0" stroke="#999999" points="331,-19 276,-19 276,0 331,0 331,-19"/>
<text text-anchor="middle" x="303.5" y="-7" font-family="Helvetica,sans-Serif" font-size="10.00">signal.h</text>
</a>
</g>
</g>
<!-- Node14&#45;&gt;Node15 -->
<g id="edge17_Node000014_Node000015" class="edge">
<title>Node14&#45;&gt;Node15</title>
<g id="a_edge17_Node000014_Node000015"><a xlink:title=" ">
<path fill="none" stroke="#63b8ff" d="M303.5,-54.75C303.5,-47.8 303.5,-37.85 303.5,-29.13"/>
<polygon fill="#63b8ff" stroke="#63b8ff" points="307,-29.09 303.5,-19.09 300,-29.09 307,-29.09"/>
</a>
</g>
</g>
<!-- Node16&#45;&gt;Node6 -->
<g id="edge19_Node000016_Node000006" class="edge">
<title>Node16&#45;&gt;Node6</title>
<g id="a_edge19_Node000016_Node000006"><a xlink:title=" ">
<path fill="none" stroke="#63b8ff" d="M779.5,-109.75C779.5,-102.8 779.5,-92.85 779.5,-84.13"/>
<polygon fill="#63b8ff" stroke="#63b8ff" points="783,-84.09 779.5,-74.09 776,-84.09 783,-84.09"/>
</a>
</g>
</g>
</g>
</svg>
