<?xml version="1.0" encoding="UTF-8" standalone="no"?>
<!DOCTYPE svg PUBLIC "-//W3C//DTD SVG 1.1//EN"
 "http://www.w3.org/Graphics/SVG/1.1/DTD/svg11.dtd">
<!-- Generated by graphviz version 2.43.0 (0)
 -->
<!-- Title: src/libs/vwidgets/vsimplecurve.h Pages: 1 -->
<svg width="1322pt" height="302pt"
 viewBox="0.00 0.00 1321.50 302.00" xmlns="http://www.w3.org/2000/svg" xmlns:xlink="http://www.w3.org/1999/xlink">
<g id="graph0" class="graph" transform="scale(1 1) rotate(0) translate(4 298)">
<title>src/libs/vwidgets/vsimplecurve.h</title>
<!-- Node1 -->
<g id="Node000001" class="node">
<title>Node1</title>
<g id="a_Node000001"><a xlink:title=" ">
<polygon fill="#999999" stroke="#666666" points="891,-294 715,-294 715,-275 891,-275 891,-294"/>
<text text-anchor="middle" x="803" y="-282" font-family="Helvetica,sans-Serif" font-size="10.00">src/libs/vwidgets/vsimplecurve.h</text>
</a>
</g>
</g>
<!-- Node2 -->
<g id="Node000002" class="node">
<title>Node2</title>
<g id="a_Node000002"><a xlink:title=" ">
<polygon fill="#e0e0e0" stroke="#999999" points="120,-74 0,-74 0,-55 120,-55 120,-74"/>
<text text-anchor="middle" x="60" y="-62" font-family="Helvetica,sans-Serif" font-size="10.00">qcompilerdetection.h</text>
</a>
</g>
</g>
<!-- Node1&#45;&gt;Node2 -->
<g id="edge1_Node000001_Node000002" class="edge">
<title>Node1&#45;&gt;Node2</title>
<g id="a_edge1_Node000001_Node000002"><a xlink:title=" ">
<path fill="none" stroke="#63b8ff" d="M714.84,-282.18C564.19,-279.13 263.71,-269.34 163,-239 115.55,-224.7 92.02,-226.18 66,-184 46.96,-153.14 51.27,-108.69 55.82,-83.93"/>
<polygon fill="#63b8ff" stroke="#63b8ff" points="59.26,-84.56 57.84,-74.06 52.4,-83.15 59.26,-84.56"/>
</a>
</g>
</g>
<!-- Node3 -->
<g id="Node000003" class="node">
<title>Node3</title>
<g id="a_Node000003"><a xlink:title=" ">
<polygon fill="#e0e0e0" stroke="#999999" points="285,-184 235,-184 235,-165 285,-165 285,-184"/>
<text text-anchor="middle" x="260" y="-172" font-family="Helvetica,sans-Serif" font-size="10.00">QColor</text>
</a>
</g>
</g>
<!-- Node1&#45;&gt;Node3 -->
<g id="edge2_Node000001_Node000003" class="edge">
<title>Node1&#45;&gt;Node3</title>
<g id="a_edge2_Node000001_Node000003"><a xlink:title=" ">
<path fill="none" stroke="#63b8ff" d="M747.9,-274.98C694.78,-266.56 612.19,-252.96 541,-239 433.76,-217.97 405.06,-210.3 295.06,-184.21"/>
<polygon fill="#63b8ff" stroke="#63b8ff" points="295.77,-180.79 285.23,-181.89 294.16,-187.6 295.77,-180.79"/>
</a>
</g>
</g>
<!-- Node4 -->
<g id="Node000004" class="node">
<title>Node4</title>
<g id="a_Node000004"><a xlink:title=" ">
<polygon fill="#e0e0e0" stroke="#999999" points="1125.5,-239 1036.5,-239 1036.5,-220 1125.5,-220 1125.5,-239"/>
<text text-anchor="middle" x="1081" y="-227" font-family="Helvetica,sans-Serif" font-size="10.00">QGraphicsItem</text>
</a>
</g>
</g>
<!-- Node1&#45;&gt;Node4 -->
<g id="edge3_Node000001_Node000004" class="edge">
<title>Node1&#45;&gt;Node4</title>
<g id="a_edge3_Node000001_Node000004"><a xlink:title=" ">
<path fill="none" stroke="#63b8ff" d="M847.67,-274.98C896.3,-265.71 974.11,-250.88 1026.35,-240.92"/>
<polygon fill="#63b8ff" stroke="#63b8ff" points="1027.28,-244.31 1036.45,-238.99 1025.97,-237.43 1027.28,-244.31"/>
</a>
</g>
</g>
<!-- Node5 -->
<g id="Node000005" class="node">
<title>Node5</title>
<g id="a_Node000005"><a xlink:title=" ">
<polygon fill="#e0e0e0" stroke="#999999" points="383,-184 303,-184 303,-165 383,-165 383,-184"/>
<text text-anchor="middle" x="343" y="-172" font-family="Helvetica,sans-Serif" font-size="10.00">QMetaObject</text>
</a>
</g>
</g>
<!-- Node1&#45;&gt;Node5 -->
<g id="edge4_Node000001_Node000005" class="edge">
<title>Node1&#45;&gt;Node5</title>
<g id="a_edge4_Node000001_Node000005"><a xlink:title=" ">
<path fill="none" stroke="#63b8ff" d="M766.52,-274.94C683.57,-255.46 480.91,-207.88 389.31,-186.37"/>
<polygon fill="#63b8ff" stroke="#63b8ff" points="390.02,-182.94 379.48,-184.07 388.42,-189.76 390.02,-182.94"/>
</a>
</g>
</g>
<!-- Node6 -->
<g id="Node000006" class="node">
<title>Node6</title>
<g id="a_Node000006"><a xlink:title=" ">
<polygon fill="#e0e0e0" stroke="#999999" points="942,-184 886,-184 886,-165 942,-165 942,-184"/>
<text text-anchor="middle" x="914" y="-172" font-family="Helvetica,sans-Serif" font-size="10.00">QObject</text>
</a>
</g>
</g>
<!-- Node1&#45;&gt;Node6 -->
<g id="edge5_Node000001_Node000006" class="edge">
<title>Node1&#45;&gt;Node6</title>
<g id="a_edge5_Node000001_Node000006"><a xlink:title=" ">
<path fill="none" stroke="#63b8ff" d="M812.08,-274.66C830.88,-256.38 874.24,-214.18 897.9,-191.17"/>
<polygon fill="#63b8ff" stroke="#63b8ff" points="900.37,-193.64 905.1,-184.16 895.49,-188.62 900.37,-193.64"/>
</a>
</g>
</g>
<!-- Node7 -->
<g id="Node000007" class="node">
<title>Node7</title>
<g id="a_Node000007"><a xlink:title=" ">
<polygon fill="#e0e0e0" stroke="#999999" points="1236,-239 1144,-239 1144,-220 1236,-220 1236,-239"/>
<text text-anchor="middle" x="1190" y="-227" font-family="Helvetica,sans-Serif" font-size="10.00">QSharedPointer</text>
</a>
</g>
</g>
<!-- Node1&#45;&gt;Node7 -->
<g id="edge6_Node000001_Node000007" class="edge">
<title>Node1&#45;&gt;Node7</title>
<g id="a_edge6_Node000001_Node000007"><a xlink:title=" ">
<path fill="none" stroke="#63b8ff" d="M869.51,-274.98C934.35,-266.59 1036.02,-253.19 1133.74,-239.16"/>
<polygon fill="#63b8ff" stroke="#63b8ff" points="1134.4,-242.6 1143.8,-237.71 1133.4,-235.67 1134.4,-242.6"/>
</a>
</g>
</g>
<!-- Node8 -->
<g id="Node000008" class="node">
<title>Node8</title>
<g id="a_Node000008"><a xlink:title=" ">
<polygon fill="#e0e0e0" stroke="#999999" points="922.5,-74 869.5,-74 869.5,-55 922.5,-55 922.5,-74"/>
<text text-anchor="middle" x="896" y="-62" font-family="Helvetica,sans-Serif" font-size="10.00">QString</text>
</a>
</g>
</g>
<!-- Node1&#45;&gt;Node8 -->
<g id="edge7_Node000001_Node000008" class="edge">
<title>Node1&#45;&gt;Node8</title>
<g id="a_edge7_Node000001_Node000008"><a xlink:title=" ">
<path fill="none" stroke="#63b8ff" d="M866.49,-274.93C892.7,-268.66 921.83,-257.79 943,-239 963.08,-221.17 962.32,-210.24 968,-184 976.98,-142.54 939.48,-102.01 915.23,-80.77"/>
<polygon fill="#63b8ff" stroke="#63b8ff" points="917.21,-77.86 907.31,-74.1 912.7,-83.22 917.21,-77.86"/>
</a>
</g>
</g>
<!-- Node9 -->
<g id="Node000009" class="node">
<title>Node9</title>
<g id="a_Node000009"><a xlink:title=" ">
<polygon fill="#e0e0e0" stroke="#999999" points="1313.5,-239 1254.5,-239 1254.5,-220 1313.5,-220 1313.5,-239"/>
<text text-anchor="middle" x="1284" y="-227" font-family="Helvetica,sans-Serif" font-size="10.00">QVariant</text>
</a>
</g>
</g>
<!-- Node1&#45;&gt;Node9 -->
<g id="edge8_Node000001_Node000009" class="edge">
<title>Node1&#45;&gt;Node9</title>
<g id="a_edge8_Node000001_Node000009"><a xlink:title=" ">
<path fill="none" stroke="#63b8ff" d="M891.02,-277.61C978.22,-271.1 1115.74,-259.01 1244.23,-238.93"/>
<polygon fill="#63b8ff" stroke="#63b8ff" points="1244.93,-242.37 1254.26,-237.35 1243.83,-235.45 1244.93,-242.37"/>
</a>
</g>
</g>
<!-- Node10 -->
<g id="Node000010" class="node">
<title>Node10</title>
<g id="a_Node000010"><a xlink:title=" ">
<polygon fill="#e0e0e0" stroke="#999999" points="781.5,-74 722.5,-74 722.5,-55 781.5,-55 781.5,-74"/>
<text text-anchor="middle" x="752" y="-62" font-family="Helvetica,sans-Serif" font-size="10.00">QtGlobal</text>
</a>
</g>
</g>
<!-- Node1&#45;&gt;Node10 -->
<g id="edge9_Node000001_Node000010" class="edge">
<title>Node1&#45;&gt;Node10</title>
<g id="a_edge9_Node000001_Node000010"><a xlink:title=" ">
<path fill="none" stroke="#63b8ff" d="M832.76,-274.93C884.88,-258.33 984.14,-218.62 951,-165 916.19,-108.67 838.77,-83.17 791.41,-72.46"/>
<polygon fill="#63b8ff" stroke="#63b8ff" points="792.01,-69.01 781.5,-70.34 790.55,-75.86 792.01,-69.01"/>
</a>
</g>
</g>
<!-- Node11 -->
<g id="Node000011" class="node">
<title>Node11</title>
<g id="a_Node000011"><a xlink:href="../../d4/da4/def_8h.html" target="_top" xlink:title=" ">
<polygon fill="white" stroke="#666666" points="481,-129 399,-129 399,-110 481,-110 481,-129"/>
<text text-anchor="middle" x="440" y="-117" font-family="Helvetica,sans-Serif" font-size="10.00">../vmisc/def.h</text>
</a>
</g>
</g>
<!-- Node1&#45;&gt;Node11 -->
<g id="edge10_Node000001_Node000011" class="edge">
<title>Node1&#45;&gt;Node11</title>
<g id="a_edge10_Node000001_Node000011"><a xlink:title=" ">
<path fill="none" stroke="#63b8ff" d="M714.94,-282.11C568.42,-277.67 284.8,-259.32 226,-184 220.8,-177.34 220.67,-171.55 226,-165 246.12,-140.27 332.03,-128.83 388.7,-123.89"/>
<polygon fill="#63b8ff" stroke="#63b8ff" points="389.24,-127.36 398.91,-123.04 388.66,-120.38 389.24,-127.36"/>
</a>
</g>
</g>
<!-- Node20 -->
<g id="Node000020" class="node">
<title>Node20</title>
<g id="a_Node000020"><a xlink:href="../../d6/d8e/vabstractsimple_8h.html" target="_top" xlink:title=" ">
<polygon fill="white" stroke="#666666" points="745,-239 641,-239 641,-220 745,-220 745,-239"/>
<text text-anchor="middle" x="693" y="-227" font-family="Helvetica,sans-Serif" font-size="10.00">vabstractsimple.h</text>
</a>
</g>
</g>
<!-- Node1&#45;&gt;Node20 -->
<g id="edge22_Node000001_Node000020" class="edge">
<title>Node1&#45;&gt;Node20</title>
<g id="a_edge22_Node000001_Node000020"><a xlink:title=" ">
<path fill="none" stroke="#63b8ff" d="M785.33,-274.98C767.71,-266.5 740.42,-253.35 720.07,-243.54"/>
<polygon fill="#63b8ff" stroke="#63b8ff" points="721.52,-240.36 710.99,-239.17 718.48,-246.66 721.52,-240.36"/>
</a>
</g>
</g>
<!-- Node25 -->
<g id="Node000025" class="node">
<title>Node25</title>
<g id="a_Node000025"><a xlink:href="../../d7/d77/vcurvepathitem_8h.html" target="_top" xlink:title=" ">
<polygon fill="white" stroke="#666666" points="178.5,-184 75.5,-184 75.5,-165 178.5,-165 178.5,-184"/>
<text text-anchor="middle" x="127" y="-172" font-family="Helvetica,sans-Serif" font-size="10.00">vcurvepathitem.h</text>
</a>
</g>
</g>
<!-- Node1&#45;&gt;Node25 -->
<g id="edge39_Node000001_Node000025" class="edge">
<title>Node1&#45;&gt;Node25</title>
<g id="a_edge39_Node000001_Node000025"><a xlink:title=" ">
<path fill="none" stroke="#63b8ff" d="M714.88,-284.35C568.88,-284.57 283.92,-279.54 193,-239 170.42,-228.93 150.92,-207.67 139.09,-192.52"/>
<polygon fill="#63b8ff" stroke="#63b8ff" points="141.84,-190.36 133.05,-184.45 136.24,-194.55 141.84,-190.36"/>
</a>
</g>
</g>
<!-- Node11&#45;&gt;Node2 -->
<g id="edge11_Node000011_Node000002" class="edge">
<title>Node11&#45;&gt;Node2</title>
<g id="a_edge11_Node000011_Node000002"><a xlink:title=" ">
<path fill="none" stroke="#63b8ff" d="M398.97,-112.78C334.69,-103.81 209.43,-86.34 130.5,-75.33"/>
<polygon fill="#63b8ff" stroke="#63b8ff" points="130.55,-71.81 120.16,-73.89 129.58,-78.74 130.55,-71.81"/>
</a>
</g>
</g>
<!-- Node11&#45;&gt;Node8 -->
<g id="edge14_Node000011_Node000008" class="edge">
<title>Node11&#45;&gt;Node8</title>
<g id="a_edge14_Node000011_Node000008"><a xlink:title=" ">
<path fill="none" stroke="#63b8ff" d="M481.27,-113.7C569.47,-103.45 775.11,-79.55 859.19,-69.78"/>
<polygon fill="#63b8ff" stroke="#63b8ff" points="859.76,-73.24 869.29,-68.6 858.95,-66.28 859.76,-73.24"/>
</a>
</g>
</g>
<!-- Node11&#45;&gt;Node10 -->
<g id="edge17_Node000011_Node000010" class="edge">
<title>Node11&#45;&gt;Node10</title>
<g id="a_edge17_Node000011_Node000010"><a xlink:title=" ">
<path fill="none" stroke="#63b8ff" d="M481.11,-111.52C541.36,-101.28 652.93,-82.33 712.35,-72.24"/>
<polygon fill="#63b8ff" stroke="#63b8ff" points="713.19,-75.64 722.46,-70.52 712.02,-68.74 713.19,-75.64"/>
</a>
</g>
</g>
<!-- Node12 -->
<g id="Node000012" class="node">
<title>Node12</title>
<g id="a_Node000012"><a xlink:title=" ">
<polygon fill="#e0e0e0" stroke="#999999" points="468.5,-74 395.5,-74 395.5,-55 468.5,-55 468.5,-74"/>
<text text-anchor="middle" x="432" y="-62" font-family="Helvetica,sans-Serif" font-size="10.00">QFileDialog</text>
</a>
</g>
</g>
<!-- Node11&#45;&gt;Node12 -->
<g id="edge12_Node000011_Node000012" class="edge">
<title>Node11&#45;&gt;Node12</title>
<g id="a_edge12_Node000011_Node000012"><a xlink:title=" ">
<path fill="none" stroke="#63b8ff" d="M438.68,-109.75C437.63,-102.8 436.13,-92.85 434.81,-84.13"/>
<polygon fill="#63b8ff" stroke="#63b8ff" points="438.25,-83.45 433.3,-74.09 431.33,-84.5 438.25,-83.45"/>
</a>
</g>
</g>
<!-- Node13 -->
<g id="Node000013" class="node">
<title>Node13</title>
<g id="a_Node000013"><a xlink:title=" ">
<polygon fill="#e0e0e0" stroke="#999999" points="537,-74 487,-74 487,-55 537,-55 537,-74"/>
<text text-anchor="middle" x="512" y="-62" font-family="Helvetica,sans-Serif" font-size="10.00">QLineF</text>
</a>
</g>
</g>
<!-- Node11&#45;&gt;Node13 -->
<g id="edge13_Node000011_Node000013" class="edge">
<title>Node11&#45;&gt;Node13</title>
<g id="a_edge13_Node000011_Node000013"><a xlink:title=" ">
<path fill="none" stroke="#63b8ff" d="M451.57,-109.98C462.42,-102 478.88,-89.88 491.88,-80.31"/>
<polygon fill="#63b8ff" stroke="#63b8ff" points="494.24,-82.92 500.22,-74.17 490.09,-77.28 494.24,-82.92"/>
</a>
</g>
</g>
<!-- Node14 -->
<g id="Node000014" class="node">
<title>Node14</title>
<g id="a_Node000014"><a xlink:title=" ">
<polygon fill="#e0e0e0" stroke="#999999" points="673,-74 603,-74 603,-55 673,-55 673,-74"/>
<text text-anchor="middle" x="638" y="-62" font-family="Helvetica,sans-Serif" font-size="10.00">QStringList</text>
</a>
</g>
</g>
<!-- Node11&#45;&gt;Node14 -->
<g id="edge15_Node000011_Node000014" class="edge">
<title>Node11&#45;&gt;Node14</title>
<g id="a_edge15_Node000011_Node000014"><a xlink:title=" ">
<path fill="none" stroke="#63b8ff" d="M471.81,-109.98C505.49,-100.97 558.8,-86.7 595.92,-76.76"/>
<polygon fill="#63b8ff" stroke="#63b8ff" points="597.18,-80.05 605.94,-74.08 595.37,-73.29 597.18,-80.05"/>
</a>
</g>
</g>
<!-- Node15 -->
<g id="Node000015" class="node">
<title>Node15</title>
<g id="a_Node000015"><a xlink:title=" ">
<polygon fill="#e0e0e0" stroke="#999999" points="584.5,-74 555.5,-74 555.5,-55 584.5,-55 584.5,-74"/>
<text text-anchor="middle" x="570" y="-62" font-family="Helvetica,sans-Serif" font-size="10.00">Qt</text>
</a>
</g>
</g>
<!-- Node11&#45;&gt;Node15 -->
<g id="edge16_Node000011_Node000015" class="edge">
<title>Node11&#45;&gt;Node15</title>
<g id="a_edge16_Node000011_Node000015"><a xlink:title=" ">
<path fill="none" stroke="#63b8ff" d="M460.89,-109.98C484.1,-100.52 521.53,-85.26 545.95,-75.31"/>
<polygon fill="#63b8ff" stroke="#63b8ff" points="547.29,-78.54 555.23,-71.52 544.65,-72.06 547.29,-78.54"/>
</a>
</g>
</g>
<!-- Node16 -->
<g id="Node000016" class="node">
<title>Node16</title>
<g id="a_Node000016"><a xlink:title=" ">
<polygon fill="#e0e0e0" stroke="#999999" points="207,-74 151,-74 151,-55 207,-55 207,-74"/>
<text text-anchor="middle" x="179" y="-62" font-family="Helvetica,sans-Serif" font-size="10.00">QPrinter</text>
</a>
</g>
</g>
<!-- Node11&#45;&gt;Node16 -->
<g id="edge18_Node000011_Node000016" class="edge">
<title>Node11&#45;&gt;Node16</title>
<g id="a_edge18_Node000011_Node000016"><a xlink:title=" ">
<path fill="none" stroke="#63b8ff" d="M398.64,-110.66C355.74,-102.45 286.46,-88.96 217.44,-74.26"/>
<polygon fill="#63b8ff" stroke="#63b8ff" points="217.77,-70.75 207.26,-72.08 216.31,-77.6 217.77,-70.75"/>
</a>
</g>
</g>
<!-- Node17 -->
<g id="Node000017" class="node">
<title>Node17</title>
<g id="a_Node000017"><a xlink:title=" ">
<polygon fill="#e0e0e0" stroke="#999999" points="276.5,-74 225.5,-74 225.5,-55 276.5,-55 276.5,-74"/>
<text text-anchor="middle" x="251" y="-62" font-family="Helvetica,sans-Serif" font-size="10.00">csignal</text>
</a>
</g>
</g>
<!-- Node11&#45;&gt;Node17 -->
<g id="edge19_Node000011_Node000017" class="edge">
<title>Node11&#45;&gt;Node17</title>
<g id="a_edge19_Node000011_Node000017"><a xlink:title=" ">
<path fill="none" stroke="#63b8ff" d="M409.63,-109.98C376.11,-100.58 322.19,-85.46 286.68,-75.51"/>
<polygon fill="#63b8ff" stroke="#63b8ff" points="287.31,-72.05 276.74,-72.72 285.42,-78.79 287.31,-72.05"/>
</a>
</g>
</g>
<!-- Node18 -->
<g id="Node000018" class="node">
<title>Node18</title>
<g id="a_Node000018"><a xlink:href="../../d4/d82/debugbreak_8h.html" target="_top" xlink:title=" ">
<polygon fill="white" stroke="#666666" points="377.5,-74 294.5,-74 294.5,-55 377.5,-55 377.5,-74"/>
<text text-anchor="middle" x="336" y="-62" font-family="Helvetica,sans-Serif" font-size="10.00">debugbreak.h</text>
</a>
</g>
</g>
<!-- Node11&#45;&gt;Node18 -->
<g id="edge20_Node000011_Node000018" class="edge">
<title>Node11&#45;&gt;Node18</title>
<g id="a_edge20_Node000011_Node000018"><a xlink:title=" ">
<path fill="none" stroke="#63b8ff" d="M423.29,-109.98C406.79,-101.57 381.3,-88.59 362.12,-78.81"/>
<polygon fill="#63b8ff" stroke="#63b8ff" points="363.51,-75.59 353.01,-74.17 360.33,-81.83 363.51,-75.59"/>
</a>
</g>
</g>
<!-- Node19 -->
<g id="Node000019" class="node">
<title>Node19</title>
<g id="a_Node000019"><a xlink:title=" ">
<polygon fill="#e0e0e0" stroke="#999999" points="363.5,-19 308.5,-19 308.5,0 363.5,0 363.5,-19"/>
<text text-anchor="middle" x="336" y="-7" font-family="Helvetica,sans-Serif" font-size="10.00">signal.h</text>
</a>
</g>
</g>
<!-- Node18&#45;&gt;Node19 -->
<g id="edge21_Node000018_Node000019" class="edge">
<title>Node18&#45;&gt;Node19</title>
<g id="a_edge21_Node000018_Node000019"><a xlink:title=" ">
<path fill="none" stroke="#63b8ff" d="M336,-54.75C336,-47.8 336,-37.85 336,-29.13"/>
<polygon fill="#63b8ff" stroke="#63b8ff" points="339.5,-29.09 336,-19.09 332.5,-29.09 339.5,-29.09"/>
</a>
</g>
</g>
<!-- Node20&#45;&gt;Node3 -->
<g id="edge23_Node000020_Node000003" class="edge">
<title>Node20&#45;&gt;Node3</title>
<g id="a_edge23_Node000020_Node000003"><a xlink:title=" ">
<path fill="none" stroke="#63b8ff" d="M640.71,-224.91C566.11,-219.3 424.72,-206.84 295.26,-184"/>
<polygon fill="#63b8ff" stroke="#63b8ff" points="295.63,-180.51 285.17,-182.19 294.4,-187.4 295.63,-180.51"/>
</a>
</g>
</g>
<!-- Node20&#45;&gt;Node5 -->
<g id="edge24_Node000020_Node000005" class="edge">
<title>Node20&#45;&gt;Node5</title>
<g id="a_edge24_Node000020_Node000005"><a xlink:title=" ">
<path fill="none" stroke="#63b8ff" d="M640.92,-221.12C581.05,-212.55 479.84,-197.82 393,-184 392.9,-183.98 392.8,-183.97 392.7,-183.95"/>
<polygon fill="#63b8ff" stroke="#63b8ff" points="393.54,-180.54 383.1,-182.39 392.41,-187.45 393.54,-180.54"/>
</a>
</g>
</g>
<!-- Node20&#45;&gt;Node6 -->
<g id="edge25_Node000020_Node000006" class="edge">
<title>Node20&#45;&gt;Node6</title>
<g id="a_edge25_Node000020_Node000006"><a xlink:title=" ">
<path fill="none" stroke="#63b8ff" d="M728.51,-219.98C768.89,-210.3 834.57,-194.55 875.97,-184.62"/>
<polygon fill="#63b8ff" stroke="#63b8ff" points="877.03,-187.96 885.94,-182.23 875.4,-181.16 877.03,-187.96"/>
</a>
</g>
</g>
<!-- Node20&#45;&gt;Node8 -->
<g id="edge27_Node000020_Node000008" class="edge">
<title>Node20&#45;&gt;Node8</title>
<g id="a_edge27_Node000020_Node000008"><a xlink:title=" ">
<path fill="none" stroke="#63b8ff" d="M737.8,-219.98C763.31,-213.41 794.71,-202.27 818,-184 852.91,-156.61 877.32,-109.07 888.71,-83.32"/>
<polygon fill="#63b8ff" stroke="#63b8ff" points="891.97,-84.6 892.68,-74.02 885.53,-81.85 891.97,-84.6"/>
</a>
</g>
</g>
<!-- Node20&#45;&gt;Node10 -->
<g id="edge29_Node000020_Node000010" class="edge">
<title>Node20&#45;&gt;Node10</title>
<g id="a_edge29_Node000020_Node000010"><a xlink:title=" ">
<path fill="none" stroke="#63b8ff" d="M745.08,-220.01C766.11,-213.75 788.36,-202.87 801,-184 823.38,-150.57 789.75,-105.3 768.03,-81.55"/>
<polygon fill="#63b8ff" stroke="#63b8ff" points="770.39,-78.94 760.96,-74.11 765.31,-83.77 770.39,-78.94"/>
</a>
</g>
</g>
<!-- Node20&#45;&gt;Node11 -->
<g id="edge38_Node000020_Node000011" class="edge">
<title>Node20&#45;&gt;Node11</title>
<g id="a_edge38_Node000020_Node000011"><a xlink:title=" ">
<path fill="none" stroke="#63b8ff" d="M678.19,-219.95C655.43,-207.02 610.23,-182.16 570,-165 539.84,-152.14 504.6,-140.26 478.42,-132.02"/>
<polygon fill="#63b8ff" stroke="#63b8ff" points="479.45,-128.67 468.86,-129.04 477.36,-135.35 479.45,-128.67"/>
</a>
</g>
</g>
<!-- Node20&#45;&gt;Node15 -->
<g id="edge28_Node000020_Node000015" class="edge">
<title>Node20&#45;&gt;Node15</title>
<g id="a_edge28_Node000020_Node000015"><a xlink:title=" ">
<path fill="none" stroke="#63b8ff" d="M682.59,-219.94C672.57,-211.42 657.32,-197.68 646,-184 618.45,-150.72 592.72,-106.91 579.42,-82.97"/>
<polygon fill="#63b8ff" stroke="#63b8ff" points="582.39,-81.11 574.52,-74.02 576.25,-84.47 582.39,-81.11"/>
</a>
</g>
</g>
<!-- Node21 -->
<g id="Node000021" class="node">
<title>Node21</title>
<g id="a_Node000021"><a xlink:title=" ">
<polygon fill="#e0e0e0" stroke="#999999" points="792,-184 750,-184 750,-165 792,-165 792,-184"/>
<text text-anchor="middle" x="771" y="-172" font-family="Helvetica,sans-Serif" font-size="10.00">QPen</text>
</a>
</g>
</g>
<!-- Node20&#45;&gt;Node21 -->
<g id="edge26_Node000020_Node000021" class="edge">
<title>Node20&#45;&gt;Node21</title>
<g id="a_edge26_Node000020_Node000021"><a xlink:title=" ">
<path fill="none" stroke="#63b8ff" d="M705.53,-219.98C717.4,-211.92 735.46,-199.65 749.61,-190.03"/>
<polygon fill="#63b8ff" stroke="#63b8ff" points="751.94,-192.69 758.24,-184.17 748,-186.9 751.94,-192.69"/>
</a>
</g>
</g>
<!-- Node22 -->
<g id="Node000022" class="node">
<title>Node22</title>
<g id="a_Node000022"><a xlink:href="../../d3/da5/ifcdef_8h.html" target="_top" xlink:title=" ">
<polygon fill="white" stroke="#666666" points="731.5,-184 654.5,-184 654.5,-165 731.5,-165 731.5,-184"/>
<text text-anchor="middle" x="693" y="-172" font-family="Helvetica,sans-Serif" font-size="10.00">../ifc/ifcdef.h</text>
</a>
</g>
</g>
<!-- Node20&#45;&gt;Node22 -->
<g id="edge30_Node000020_Node000022" class="edge">
<title>Node20&#45;&gt;Node22</title>
<g id="a_edge30_Node000020_Node000022"><a xlink:title=" ">
<path fill="none" stroke="#63b8ff" d="M693,-219.75C693,-212.8 693,-202.85 693,-194.13"/>
<polygon fill="#63b8ff" stroke="#63b8ff" points="696.5,-194.09 693,-184.09 689.5,-194.09 696.5,-194.09"/>
</a>
</g>
</g>
<!-- Node24 -->
<g id="Node000024" class="node">
<title>Node24</title>
<g id="a_Node000024"><a xlink:href="../../d5/d9d/vgeometrydef_8h.html" target="_top" xlink:title=" ">
<polygon fill="white" stroke="#666666" points="560.5,-184 401.5,-184 401.5,-165 560.5,-165 560.5,-184"/>
<text text-anchor="middle" x="481" y="-172" font-family="Helvetica,sans-Serif" font-size="10.00">../vgeometry/vgeometrydef.h</text>
</a>
</g>
</g>
<!-- Node20&#45;&gt;Node24 -->
<g id="edge37_Node000020_Node000024" class="edge">
<title>Node20&#45;&gt;Node24</title>
<g id="a_edge37_Node000020_Node000024"><a xlink:title=" ">
<path fill="none" stroke="#63b8ff" d="M658.94,-219.98C622.58,-210.89 564.83,-196.46 525.03,-186.51"/>
<polygon fill="#63b8ff" stroke="#63b8ff" points="525.88,-183.11 515.33,-184.08 524.18,-189.9 525.88,-183.11"/>
</a>
</g>
</g>
<!-- Node22&#45;&gt;Node8 -->
<g id="edge31_Node000022_Node000008" class="edge">
<title>Node22&#45;&gt;Node8</title>
<g id="a_edge31_Node000022_Node000008"><a xlink:title=" ">
<path fill="none" stroke="#63b8ff" d="M709.86,-164.9C727.24,-156.01 755.09,-141.68 779,-129 811.13,-111.97 847.95,-91.89 871.57,-78.94"/>
<polygon fill="#63b8ff" stroke="#63b8ff" points="873.45,-81.9 880.53,-74.02 870.08,-75.76 873.45,-81.9"/>
</a>
</g>
</g>
<!-- Node22&#45;&gt;Node10 -->
<g id="edge33_Node000022_Node000010" class="edge">
<title>Node22&#45;&gt;Node10</title>
<g id="a_edge33_Node000022_Node000010"><a xlink:title=" ">
<path fill="none" stroke="#63b8ff" d="M717.81,-164.95C733.84,-157.99 753.43,-146.42 763,-129 770.65,-115.07 766.43,-97.05 761.15,-83.77"/>
<polygon fill="#63b8ff" stroke="#63b8ff" points="764.19,-81.99 756.9,-74.3 757.8,-84.86 764.19,-81.99"/>
</a>
</g>
</g>
<!-- Node22&#45;&gt;Node11 -->
<g id="edge34_Node000022_Node000011" class="edge">
<title>Node22&#45;&gt;Node11</title>
<g id="a_edge34_Node000022_Node000011"><a xlink:title=" ">
<path fill="none" stroke="#63b8ff" d="M654.3,-165.39C610.49,-156.22 538.96,-141.23 490.72,-131.12"/>
<polygon fill="#63b8ff" stroke="#63b8ff" points="491.3,-127.67 480.79,-129.05 489.86,-134.52 491.3,-127.67"/>
</a>
</g>
</g>
<!-- Node22&#45;&gt;Node14 -->
<g id="edge32_Node000022_Node000014" class="edge">
<title>Node22&#45;&gt;Node14</title>
<g id="a_edge32_Node000022_Node000014"><a xlink:title=" ">
<path fill="none" stroke="#63b8ff" d="M670.88,-164.95C655.8,-157.82 636.99,-146.06 628,-129 620.61,-114.98 624.5,-96.97 629.42,-83.71"/>
<polygon fill="#63b8ff" stroke="#63b8ff" points="632.75,-84.84 633.4,-74.27 626.29,-82.13 632.75,-84.84"/>
</a>
</g>
</g>
<!-- Node23 -->
<g id="Node000023" class="node">
<title>Node23</title>
<g id="a_Node000023"><a xlink:href="../../d6/dcd/diagnostic_8h.html" target="_top" xlink:title=" ">
<polygon fill="white" stroke="#666666" points="753.5,-129 636.5,-129 636.5,-110 753.5,-110 753.5,-129"/>
<text text-anchor="middle" x="695" y="-117" font-family="Helvetica,sans-Serif" font-size="10.00">../vmisc/diagnostic.h</text>
</a>
</g>
</g>
<!-- Node22&#45;&gt;Node23 -->
<g id="edge35_Node000022_Node000023" class="edge">
<title>Node22&#45;&gt;Node23</title>
<g id="a_edge35_Node000022_Node000023"><a xlink:title=" ">
<path fill="none" stroke="#63b8ff" d="M693.33,-164.75C693.59,-157.8 693.97,-147.85 694.3,-139.13"/>
<polygon fill="#63b8ff" stroke="#63b8ff" points="697.8,-139.21 694.68,-129.09 690.8,-138.95 697.8,-139.21"/>
</a>
</g>
</g>
<!-- Node23&#45;&gt;Node10 -->
<g id="edge36_Node000023_Node000010" class="edge">
<title>Node23&#45;&gt;Node10</title>
<g id="a_edge36_Node000023_Node000010"><a xlink:title=" ">
<path fill="none" stroke="#63b8ff" d="M704.16,-109.98C712.5,-102.23 725.03,-90.58 735.18,-81.14"/>
<polygon fill="#63b8ff" stroke="#63b8ff" points="737.74,-83.54 742.68,-74.17 732.97,-78.42 737.74,-83.54"/>
</a>
</g>
</g>
<!-- Node25&#45;&gt;Node10 -->
<g id="edge41_Node000025_Node000010" class="edge">
<title>Node25&#45;&gt;Node10</title>
<g id="a_edge41_Node000025_Node000010"><a xlink:title=" ">
<path fill="none" stroke="#63b8ff" d="M178.68,-169.06C249.34,-162.57 379.9,-149.02 490,-129 569.7,-114.51 661.39,-90.59 712.43,-76.61"/>
<polygon fill="#63b8ff" stroke="#63b8ff" points="713.67,-79.9 722.38,-73.87 711.81,-73.15 713.67,-79.9"/>
</a>
</g>
</g>
<!-- Node25&#45;&gt;Node11 -->
<g id="edge42_Node000025_Node000011" class="edge">
<title>Node25&#45;&gt;Node11</title>
<g id="a_edge42_Node000025_Node000011"><a xlink:title=" ">
<path fill="none" stroke="#63b8ff" d="M177.29,-164.98C235.32,-155.16 330.26,-139.08 388.71,-129.18"/>
<polygon fill="#63b8ff" stroke="#63b8ff" points="389.55,-132.59 398.83,-127.47 388.39,-125.69 389.55,-132.59"/>
</a>
</g>
</g>
<!-- Node26 -->
<g id="Node000026" class="node">
<title>Node26</title>
<g id="a_Node000026"><a xlink:title=" ">
<polygon fill="#e0e0e0" stroke="#999999" points="185,-129 75,-129 75,-110 185,-110 185,-129"/>
<text text-anchor="middle" x="130" y="-117" font-family="Helvetica,sans-Serif" font-size="10.00">QGraphicsPathItem</text>
</a>
</g>
</g>
<!-- Node25&#45;&gt;Node26 -->
<g id="edge40_Node000025_Node000026" class="edge">
<title>Node25&#45;&gt;Node26</title>
<g id="a_edge40_Node000025_Node000026"><a xlink:title=" ">
<path fill="none" stroke="#63b8ff" d="M127.5,-164.75C127.89,-157.8 128.45,-147.85 128.95,-139.13"/>
<polygon fill="#63b8ff" stroke="#63b8ff" points="132.44,-139.27 129.51,-129.09 125.45,-138.88 132.44,-139.27"/>
</a>
</g>
</g>
</g>
</svg>
