<?xml version="1.0" encoding="UTF-8" standalone="no"?>
<!DOCTYPE svg PUBLIC "-//W3C//DTD SVG 1.1//EN"
 "http://www.w3.org/Graphics/SVG/1.1/DTD/svg11.dtd">
<!-- Generated by graphviz version 2.43.0 (0)
 -->
<!-- Title: Graphical Class Hierarchy Pages: 1 -->
<svg width="374pt" height="101pt"
 viewBox="0.00 0.00 374.00 101.00" xmlns="http://www.w3.org/2000/svg" xmlns:xlink="http://www.w3.org/1999/xlink">
<g id="graph0" class="graph" transform="scale(1 1) rotate(0) translate(4 97)">
<title>Graphical Class Hierarchy</title>
<!-- Node0 -->
<g id="Node000000" class="node">
<title>Node0</title>
<g id="a_Node000000"><a xlink:title=" ">
<polygon fill="#e0e0e0" stroke="#999999" points="79,-56 0,-56 0,-37 79,-37 79,-56"/>
<text text-anchor="middle" x="39.5" y="-44" font-family="Helvetica,sans-Serif" font-size="10.00">QApplication</text>
</a>
</g>
</g>
<!-- Node1 -->
<g id="Node000001" class="node">
<title>Node1</title>
<g id="a_Node000001"><a xlink:href="db/dda/classVAbstractApplication.html" target="_top" xlink:title=" ">
<polygon fill="white" stroke="#666666" points="233,-56 115,-56 115,-37 233,-37 233,-56"/>
<text text-anchor="middle" x="174" y="-44" font-family="Helvetica,sans-Serif" font-size="10.00">VAbstractApplication</text>
</a>
</g>
</g>
<!-- Node0&#45;&gt;Node1 -->
<g id="edge7_Node000000_Node000001" class="edge">
<title>Node0&#45;&gt;Node1</title>
<g id="a_edge7_Node000000_Node000001"><a xlink:title=" ">
<path fill="none" stroke="#63b8ff" d="M89.41,-46.5C97.68,-46.5 106.33,-46.5 114.81,-46.5"/>
<polygon fill="#63b8ff" stroke="#63b8ff" points="89.18,-43 79.18,-46.5 89.18,-50 89.18,-43"/>
</a>
</g>
</g>
<!-- Node2 -->
<g id="Node000002" class="node">
<title>Node2</title>
<g id="a_Node000002"><a xlink:href="da/d04/classMApplication.html" target="_top" xlink:title=" ">
<polygon fill="white" stroke="#666666" points="357.5,-93 277.5,-93 277.5,-74 357.5,-74 357.5,-93"/>
<text text-anchor="middle" x="317.5" y="-81" font-family="Helvetica,sans-Serif" font-size="10.00">MApplication</text>
</a>
</g>
</g>
<!-- Node1&#45;&gt;Node2 -->
<g id="edge8_Node000001_Node000002" class="edge">
<title>Node1&#45;&gt;Node2</title>
<g id="a_edge8_Node000001_Node000002"><a xlink:title=" ">
<path fill="none" stroke="#63b8ff" d="M221.35,-58.62C240.28,-63.57 261.87,-69.22 279.69,-73.88"/>
<polygon fill="#63b8ff" stroke="#63b8ff" points="222,-55.17 211.44,-56.03 220.23,-61.94 222,-55.17"/>
</a>
</g>
</g>
<!-- Node3 -->
<g id="Node000003" class="node">
<title>Node3</title>
<g id="a_Node000003"><a xlink:href="d2/df0/classTestVApplication.html" target="_top" xlink:title=" ">
<polygon fill="white" stroke="#666666" points="366,-56 269,-56 269,-37 366,-37 366,-56"/>
<text text-anchor="middle" x="317.5" y="-44" font-family="Helvetica,sans-Serif" font-size="10.00">TestVApplication</text>
</a>
</g>
</g>
<!-- Node1&#45;&gt;Node3 -->
<g id="edge9_Node000001_Node000003" class="edge">
<title>Node1&#45;&gt;Node3</title>
<g id="a_edge9_Node000001_Node000003"><a xlink:title=" ">
<path fill="none" stroke="#63b8ff" d="M243.62,-46.5C252.07,-46.5 260.56,-46.5 268.6,-46.5"/>
<polygon fill="#63b8ff" stroke="#63b8ff" points="243.37,-43 233.37,-46.5 243.37,-50 243.37,-43"/>
</a>
</g>
</g>
<!-- Node4 -->
<g id="Node000004" class="node">
<title>Node4</title>
<g id="a_Node000004"><a xlink:href="d1/d58/classVApplication.html" target="_top" xlink:title="The VApplication class reimplamentation QApplication class.">
<polygon fill="white" stroke="#666666" points="356,-19 279,-19 279,0 356,0 356,-19"/>
<text text-anchor="middle" x="317.5" y="-7" font-family="Helvetica,sans-Serif" font-size="10.00">VApplication</text>
</a>
</g>
</g>
<!-- Node1&#45;&gt;Node4 -->
<g id="edge10_Node000001_Node000004" class="edge">
<title>Node1&#45;&gt;Node4</title>
<g id="a_edge10_Node000001_Node000004"><a xlink:title=" ">
<path fill="none" stroke="#63b8ff" d="M221.35,-34.38C240.28,-29.43 261.87,-23.78 279.69,-19.12"/>
<polygon fill="#63b8ff" stroke="#63b8ff" points="220.23,-31.06 211.44,-36.97 222,-37.83 220.23,-31.06"/>
</a>
</g>
</g>
</g>
</svg>
