<?xml version="1.0" encoding="UTF-8" standalone="no"?>
<!DOCTYPE svg PUBLIC "-//W3C//DTD SVG 1.1//EN"
 "http://www.w3.org/Graphics/SVG/1.1/DTD/svg11.dtd">
<!-- Generated by graphviz version 2.43.0 (0)
 -->
<!-- Title: src/libs/vpropertyexplorer/vproperty_p.h Pages: 1 -->
<svg width="3029pt" height="173pt"
 viewBox="0.00 0.00 3028.50 173.00" xmlns="http://www.w3.org/2000/svg" xmlns:xlink="http://www.w3.org/1999/xlink">
<g id="graph0" class="graph" transform="scale(1 1) rotate(0) translate(4 169)">
<title>src/libs/vpropertyexplorer/vproperty_p.h</title>
<polygon fill="white" stroke="transparent" points="-4,4 -4,-169 3024.5,-169 3024.5,4 -4,4"/>
<!-- Node1 -->
<g id="node1" class="node">
<title>Node1</title>
<g id="a_node1"><a xlink:title=" ">
<polygon fill="#bfbfbf" stroke="black" points="1414,-134.5 1414,-164.5 1556,-164.5 1556,-134.5 1414,-134.5"/>
<text text-anchor="start" x="1422" y="-152.5" font-family="Helvetica,sans-Serif" font-size="10.00">src/libs/vpropertyexplorer</text>
<text text-anchor="middle" x="1485" y="-141.5" font-family="Helvetica,sans-Serif" font-size="10.00">/vproperty_p.h</text>
</a>
</g>
</g>
<!-- Node2 -->
<g id="node2" class="node">
<title>Node2</title>
<g id="a_node2"><a xlink:href="../../d9/d33/lineweight__property_8cpp.html" target="_top" xlink:title=" ">
<polygon fill="white" stroke="black" points="0,-67.5 0,-97.5 174,-97.5 174,-67.5 0,-67.5"/>
<text text-anchor="start" x="8" y="-85.5" font-family="Helvetica,sans-Serif" font-size="10.00">src/libs/vpropertyexplorer</text>
<text text-anchor="middle" x="87" y="-74.5" font-family="Helvetica,sans-Serif" font-size="10.00">/plugins/lineweight_property.cpp</text>
</a>
</g>
</g>
<!-- Node1&#45;&gt;Node2 -->
<g id="edge1" class="edge">
<title>Node1&#45;&gt;Node2</title>
<path fill="none" stroke="midnightblue" d="M1403.81,-148.48C1198.73,-147.75 643.37,-141.56 183,-98 180.06,-97.72 177.08,-97.41 174.07,-97.08"/>
<polygon fill="midnightblue" stroke="midnightblue" points="1403.88,-151.98 1413.9,-148.51 1403.91,-144.98 1403.88,-151.98"/>
</g>
<!-- Node3 -->
<g id="node3" class="node">
<title>Node3</title>
<g id="a_node3"><a xlink:href="../../da/d2f/plaintext__property_8cpp.html" target="_top" xlink:title=" ">
<polygon fill="white" stroke="black" points="192.5,-67.5 192.5,-97.5 359.5,-97.5 359.5,-67.5 192.5,-67.5"/>
<text text-anchor="start" x="200.5" y="-85.5" font-family="Helvetica,sans-Serif" font-size="10.00">src/libs/vpropertyexplorer</text>
<text text-anchor="middle" x="276" y="-74.5" font-family="Helvetica,sans-Serif" font-size="10.00">/plugins/plaintext_property.cpp</text>
</a>
</g>
</g>
<!-- Node1&#45;&gt;Node3 -->
<g id="edge2" class="edge">
<title>Node1&#45;&gt;Node3</title>
<path fill="none" stroke="midnightblue" d="M1403.74,-147.92C1219.19,-145.92 754.45,-137.07 368,-98 365.27,-97.72 362.49,-97.42 359.69,-97.09"/>
<polygon fill="midnightblue" stroke="midnightblue" points="1403.87,-151.42 1413.91,-148.02 1403.94,-144.42 1403.87,-151.42"/>
</g>
<!-- Node4 -->
<g id="node4" class="node">
<title>Node4</title>
<g id="a_node4"><a xlink:href="../../d8/d83/vboolproperty_8cpp.html" target="_top" xlink:title=" ">
<polygon fill="white" stroke="black" points="377.5,-67.5 377.5,-97.5 522.5,-97.5 522.5,-67.5 377.5,-67.5"/>
<text text-anchor="start" x="385.5" y="-85.5" font-family="Helvetica,sans-Serif" font-size="10.00">src/libs/vpropertyexplorer</text>
<text text-anchor="middle" x="450" y="-74.5" font-family="Helvetica,sans-Serif" font-size="10.00">/plugins/vboolproperty.cpp</text>
</a>
</g>
</g>
<!-- Node1&#45;&gt;Node4 -->
<g id="edge3" class="edge">
<title>Node1&#45;&gt;Node4</title>
<path fill="none" stroke="midnightblue" d="M1403.86,-147.54C1239.05,-144.84 853.46,-134.8 532,-98 528.98,-97.65 525.91,-97.27 522.81,-96.85"/>
<polygon fill="midnightblue" stroke="midnightblue" points="1403.86,-151.04 1413.92,-147.7 1403.98,-144.04 1403.86,-151.04"/>
</g>
<!-- Node5 -->
<g id="node5" class="node">
<title>Node5</title>
<g id="a_node5"><a xlink:href="../../d0/d6b/vcolorproperty_8cpp.html" target="_top" xlink:title=" ">
<polygon fill="white" stroke="black" points="541,-67.5 541,-97.5 689,-97.5 689,-67.5 541,-67.5"/>
<text text-anchor="start" x="549" y="-85.5" font-family="Helvetica,sans-Serif" font-size="10.00">src/libs/vpropertyexplorer</text>
<text text-anchor="middle" x="615" y="-74.5" font-family="Helvetica,sans-Serif" font-size="10.00">/plugins/vcolorproperty.cpp</text>
</a>
</g>
</g>
<!-- Node1&#45;&gt;Node5 -->
<g id="edge4" class="edge">
<title>Node1&#45;&gt;Node5</title>
<path fill="none" stroke="midnightblue" d="M1403.94,-146.21C1260.95,-141.52 954.74,-128.57 698,-98 695.09,-97.65 692.14,-97.27 689.15,-96.87"/>
<polygon fill="midnightblue" stroke="midnightblue" points="1403.84,-149.71 1413.95,-146.53 1404.07,-142.71 1403.84,-149.71"/>
</g>
<!-- Node6 -->
<g id="node6" class="node">
<title>Node6</title>
<g id="a_node6"><a xlink:href="../../d3/d60/venumproperty_8cpp.html" target="_top" xlink:title=" ">
<polygon fill="white" stroke="black" points="707,-67.5 707,-97.5 859,-97.5 859,-67.5 707,-67.5"/>
<text text-anchor="start" x="715" y="-85.5" font-family="Helvetica,sans-Serif" font-size="10.00">src/libs/vpropertyexplorer</text>
<text text-anchor="middle" x="783" y="-74.5" font-family="Helvetica,sans-Serif" font-size="10.00">/plugins/venumproperty.cpp</text>
</a>
</g>
</g>
<!-- Node1&#45;&gt;Node6 -->
<g id="edge5" class="edge">
<title>Node1&#45;&gt;Node6</title>
<path fill="none" stroke="midnightblue" d="M1403.68,-143.8C1286.25,-136.56 1062.47,-121.05 873,-98 868.44,-97.45 863.77,-96.83 859.05,-96.18"/>
<polygon fill="midnightblue" stroke="midnightblue" points="1403.48,-147.29 1413.68,-144.41 1403.91,-140.31 1403.48,-147.29"/>
</g>
<!-- Node7 -->
<g id="node7" class="node">
<title>Node7</title>
<g id="a_node7"><a xlink:href="../../d7/dd2/vfileproperty_8cpp.html" target="_top" xlink:title=" ">
<polygon fill="white" stroke="black" points="1599,-0.5 1599,-30.5 1741,-30.5 1741,-0.5 1599,-0.5"/>
<text text-anchor="start" x="1607" y="-18.5" font-family="Helvetica,sans-Serif" font-size="10.00">src/libs/vpropertyexplorer</text>
<text text-anchor="middle" x="1670" y="-7.5" font-family="Helvetica,sans-Serif" font-size="10.00">/plugins/vfileproperty.cpp</text>
</a>
</g>
</g>
<!-- Node1&#45;&gt;Node7 -->
<g id="edge6" class="edge">
<title>Node1&#45;&gt;Node7</title>
<path fill="none" stroke="midnightblue" d="M1403.76,-149.15C1228.62,-149.16 836.66,-141.07 906,-67 952.76,-17.05 1418.42,-14.78 1598.98,-15.81"/>
<polygon fill="midnightblue" stroke="midnightblue" points="1403.97,-152.65 1413.97,-149.14 1403.96,-145.65 1403.97,-152.65"/>
</g>
<!-- Node8 -->
<g id="node8" class="node">
<title>Node8</title>
<g id="a_node8"><a xlink:href="../../d2/d8f/vvector3dproperty_8cpp.html" target="_top" xlink:title=" ">
<polygon fill="white" stroke="black" points="915,-67.5 915,-97.5 1127,-97.5 1127,-67.5 915,-67.5"/>
<text text-anchor="start" x="923" y="-85.5" font-family="Helvetica,sans-Serif" font-size="10.00">src/libs/vpropertyexplorer</text>
<text text-anchor="middle" x="1021" y="-74.5" font-family="Helvetica,sans-Serif" font-size="10.00">/plugins/Vector3d/vvector3dproperty.cpp</text>
</a>
</g>
</g>
<!-- Node1&#45;&gt;Node8 -->
<g id="edge7" class="edge">
<title>Node1&#45;&gt;Node8</title>
<path fill="none" stroke="midnightblue" d="M1403.43,-137.07C1324.75,-126.05 1205.5,-109.35 1121.11,-97.52"/>
<polygon fill="midnightblue" stroke="midnightblue" points="1403.38,-140.6 1413.77,-138.52 1404.35,-133.67 1403.38,-140.6"/>
</g>
<!-- Node9 -->
<g id="node9" class="node">
<title>Node9</title>
<g id="a_node9"><a xlink:href="../../d6/ddf/vlabelproperty_8cpp.html" target="_top" xlink:title=" ">
<polygon fill="white" stroke="black" points="1145,-67.5 1145,-97.5 1293,-97.5 1293,-67.5 1145,-67.5"/>
<text text-anchor="start" x="1153" y="-85.5" font-family="Helvetica,sans-Serif" font-size="10.00">src/libs/vpropertyexplorer</text>
<text text-anchor="middle" x="1219" y="-74.5" font-family="Helvetica,sans-Serif" font-size="10.00">/plugins/vlabelproperty.cpp</text>
</a>
</g>
</g>
<!-- Node1&#45;&gt;Node9 -->
<g id="edge8" class="edge">
<title>Node1&#45;&gt;Node9</title>
<path fill="none" stroke="midnightblue" d="M1417.69,-132.05C1374.2,-121.43 1318.2,-107.74 1276.75,-97.61"/>
<polygon fill="midnightblue" stroke="midnightblue" points="1417.06,-135.5 1427.61,-134.48 1418.73,-128.7 1417.06,-135.5"/>
</g>
<!-- Node10 -->
<g id="node10" class="node">
<title>Node10</title>
<g id="a_node10"><a xlink:href="../../dd/d22/vlinecolorproperty_8cpp.html" target="_top" xlink:title=" ">
<polygon fill="white" stroke="black" points="1311,-67.5 1311,-97.5 1477,-97.5 1477,-67.5 1311,-67.5"/>
<text text-anchor="start" x="1319" y="-85.5" font-family="Helvetica,sans-Serif" font-size="10.00">src/libs/vpropertyexplorer</text>
<text text-anchor="middle" x="1394" y="-74.5" font-family="Helvetica,sans-Serif" font-size="10.00">/plugins/vlinecolorproperty.cpp</text>
</a>
</g>
</g>
<!-- Node1&#45;&gt;Node10 -->
<g id="edge9" class="edge">
<title>Node1&#45;&gt;Node10</title>
<path fill="none" stroke="midnightblue" d="M1456.93,-128.45C1442.93,-118.45 1426.34,-106.6 1413.71,-97.58"/>
<polygon fill="midnightblue" stroke="midnightblue" points="1455.08,-131.43 1465.25,-134.4 1459.15,-125.74 1455.08,-131.43"/>
</g>
<!-- Node11 -->
<g id="node11" class="node">
<title>Node11</title>
<g id="a_node11"><a xlink:href="../../d7/dda/vnumberproperty_8cpp.html" target="_top" xlink:title=" ">
<polygon fill="white" stroke="black" points="1495.5,-67.5 1495.5,-97.5 1656.5,-97.5 1656.5,-67.5 1495.5,-67.5"/>
<text text-anchor="start" x="1503.5" y="-85.5" font-family="Helvetica,sans-Serif" font-size="10.00">src/libs/vpropertyexplorer</text>
<text text-anchor="middle" x="1576" y="-74.5" font-family="Helvetica,sans-Serif" font-size="10.00">/plugins/vnumberproperty.cpp</text>
</a>
</g>
</g>
<!-- Node1&#45;&gt;Node11 -->
<g id="edge10" class="edge">
<title>Node1&#45;&gt;Node11</title>
<path fill="none" stroke="midnightblue" d="M1513.07,-128.45C1527.07,-118.45 1543.66,-106.6 1556.29,-97.58"/>
<polygon fill="midnightblue" stroke="midnightblue" points="1510.85,-125.74 1504.75,-134.4 1514.92,-131.43 1510.85,-125.74"/>
</g>
<!-- Node12 -->
<g id="node12" class="node">
<title>Node12</title>
<g id="a_node12"><a xlink:href="../../dc/d32/vlinetypeproperty_8cpp.html" target="_top" xlink:title=" ">
<polygon fill="white" stroke="black" points="1675,-67.5 1675,-97.5 1839,-97.5 1839,-67.5 1675,-67.5"/>
<text text-anchor="start" x="1683" y="-85.5" font-family="Helvetica,sans-Serif" font-size="10.00">src/libs/vpropertyexplorer</text>
<text text-anchor="middle" x="1757" y="-74.5" font-family="Helvetica,sans-Serif" font-size="10.00">/plugins/vlinetypeproperty.cpp</text>
</a>
</g>
</g>
<!-- Node1&#45;&gt;Node12 -->
<g id="edge11" class="edge">
<title>Node1&#45;&gt;Node12</title>
<path fill="none" stroke="midnightblue" d="M1553.55,-132.12C1598.06,-121.48 1655.47,-107.76 1697.95,-97.61"/>
<polygon fill="midnightblue" stroke="midnightblue" points="1552.6,-128.75 1543.69,-134.48 1554.22,-135.56 1552.6,-128.75"/>
</g>
<!-- Node13 -->
<g id="node13" class="node">
<title>Node13</title>
<g id="a_node13"><a xlink:href="../../d5/d66/vobjectproperty_8cpp.html" target="_top" xlink:title=" ">
<polygon fill="white" stroke="black" points="1857,-67.5 1857,-97.5 2011,-97.5 2011,-67.5 1857,-67.5"/>
<text text-anchor="start" x="1865" y="-85.5" font-family="Helvetica,sans-Serif" font-size="10.00">src/libs/vpropertyexplorer</text>
<text text-anchor="middle" x="1934" y="-74.5" font-family="Helvetica,sans-Serif" font-size="10.00">/plugins/vobjectproperty.cpp</text>
</a>
</g>
</g>
<!-- Node1&#45;&gt;Node13 -->
<g id="edge12" class="edge">
<title>Node1&#45;&gt;Node13</title>
<path fill="none" stroke="midnightblue" d="M1566.17,-137.89C1639.8,-128.1 1751.3,-112.88 1848,-98 1850.84,-97.56 1853.74,-97.11 1856.66,-96.65"/>
<polygon fill="midnightblue" stroke="midnightblue" points="1565.49,-134.45 1556.04,-139.23 1566.41,-141.39 1565.49,-134.45"/>
</g>
<!-- Node14 -->
<g id="node14" class="node">
<title>Node14</title>
<g id="a_node14"><a xlink:href="../../de/d34/vshortcutproperty_8cpp.html" target="_top" xlink:title=" ">
<polygon fill="white" stroke="black" points="2029,-67.5 2029,-97.5 2193,-97.5 2193,-67.5 2029,-67.5"/>
<text text-anchor="start" x="2037" y="-85.5" font-family="Helvetica,sans-Serif" font-size="10.00">src/libs/vpropertyexplorer</text>
<text text-anchor="middle" x="2111" y="-74.5" font-family="Helvetica,sans-Serif" font-size="10.00">/plugins/vshortcutproperty.cpp</text>
</a>
</g>
</g>
<!-- Node1&#45;&gt;Node14 -->
<g id="edge13" class="edge">
<title>Node1&#45;&gt;Node14</title>
<path fill="none" stroke="midnightblue" d="M1566.33,-142.45C1671.35,-134.26 1859.67,-118.32 2020,-98 2022.86,-97.64 2025.76,-97.26 2028.69,-96.86"/>
<polygon fill="midnightblue" stroke="midnightblue" points="1565.82,-138.98 1556.12,-143.24 1566.36,-145.96 1565.82,-138.98"/>
</g>
<!-- Node15 -->
<g id="node15" class="node">
<title>Node15</title>
<g id="a_node15"><a xlink:href="../../d2/dec/vpointfproperty_8cpp.html" target="_top" xlink:title=" ">
<polygon fill="white" stroke="black" points="2211,-67.5 2211,-97.5 2363,-97.5 2363,-67.5 2211,-67.5"/>
<text text-anchor="start" x="2219" y="-85.5" font-family="Helvetica,sans-Serif" font-size="10.00">src/libs/vpropertyexplorer</text>
<text text-anchor="middle" x="2287" y="-74.5" font-family="Helvetica,sans-Serif" font-size="10.00">/plugins/vpointfproperty.cpp</text>
</a>
</g>
</g>
<!-- Node1&#45;&gt;Node15 -->
<g id="edge14" class="edge">
<title>Node1&#45;&gt;Node15</title>
<path fill="none" stroke="midnightblue" d="M1566.33,-145.39C1699.55,-139.7 1972.42,-125.6 2202,-98 2204.82,-97.66 2207.7,-97.29 2210.6,-96.9"/>
<polygon fill="midnightblue" stroke="midnightblue" points="1566.05,-141.9 1556.2,-145.81 1566.34,-148.89 1566.05,-141.9"/>
</g>
<!-- Node16 -->
<g id="node16" class="node">
<title>Node16</title>
<g id="a_node16"><a xlink:href="../../dc/de7/vfileproperty__p_8h.html" target="_top" xlink:title=" ">
<polygon fill="white" stroke="black" points="2381,-67.5 2381,-97.5 2523,-97.5 2523,-67.5 2381,-67.5"/>
<text text-anchor="start" x="2389" y="-85.5" font-family="Helvetica,sans-Serif" font-size="10.00">src/libs/vpropertyexplorer</text>
<text text-anchor="middle" x="2452" y="-74.5" font-family="Helvetica,sans-Serif" font-size="10.00">/vfileproperty_p.h</text>
</a>
</g>
</g>
<!-- Node1&#45;&gt;Node16 -->
<g id="edge15" class="edge">
<title>Node1&#45;&gt;Node16</title>
<path fill="none" stroke="midnightblue" d="M1566.27,-147.2C1722.76,-143.95 2076.55,-133.05 2372,-98 2374.94,-97.65 2377.94,-97.26 2380.97,-96.84"/>
<polygon fill="midnightblue" stroke="midnightblue" points="1566.18,-143.7 1556.26,-147.4 1566.32,-150.7 1566.18,-143.7"/>
</g>
<!-- Node17 -->
<g id="node17" class="node">
<title>Node17</title>
<g id="a_node17"><a xlink:href="../../dc/d18/vstringproperty_8cpp.html" target="_top" xlink:title=" ">
<polygon fill="white" stroke="black" points="2541,-67.5 2541,-97.5 2693,-97.5 2693,-67.5 2541,-67.5"/>
<text text-anchor="start" x="2549" y="-85.5" font-family="Helvetica,sans-Serif" font-size="10.00">src/libs/vpropertyexplorer</text>
<text text-anchor="middle" x="2617" y="-74.5" font-family="Helvetica,sans-Serif" font-size="10.00">/plugins/vstringproperty.cpp</text>
</a>
</g>
</g>
<!-- Node1&#45;&gt;Node17 -->
<g id="edge17" class="edge">
<title>Node1&#45;&gt;Node17</title>
<path fill="none" stroke="midnightblue" d="M1566.24,-147.92C1742.6,-145.92 2173.48,-137.08 2532,-98 2534.83,-97.69 2537.7,-97.35 2540.61,-96.98"/>
<polygon fill="midnightblue" stroke="midnightblue" points="1565.97,-144.42 1556.01,-148.03 1566.05,-151.42 1565.97,-144.42"/>
</g>
<!-- Node18 -->
<g id="node18" class="node">
<title>Node18</title>
<g id="a_node18"><a xlink:href="../../d8/dd2/vproperty_8cpp.html" target="_top" xlink:title=" ">
<polygon fill="white" stroke="black" points="2711,-67.5 2711,-97.5 2853,-97.5 2853,-67.5 2711,-67.5"/>
<text text-anchor="start" x="2719" y="-85.5" font-family="Helvetica,sans-Serif" font-size="10.00">src/libs/vpropertyexplorer</text>
<text text-anchor="middle" x="2782" y="-74.5" font-family="Helvetica,sans-Serif" font-size="10.00">/vproperty.cpp</text>
</a>
</g>
</g>
<!-- Node1&#45;&gt;Node18 -->
<g id="edge18" class="edge">
<title>Node1&#45;&gt;Node18</title>
<path fill="none" stroke="midnightblue" d="M1566.47,-148.99C1762.61,-149.32 2276.38,-145.17 2702,-98 2704.95,-97.67 2707.95,-97.3 2710.97,-96.9"/>
<polygon fill="midnightblue" stroke="midnightblue" points="1566.26,-145.49 1556.25,-148.96 1566.24,-152.49 1566.26,-145.49"/>
</g>
<!-- Node19 -->
<g id="node19" class="node">
<title>Node19</title>
<g id="a_node19"><a xlink:href="../../d4/d5a/vwidgetproperty__p_8h.html" target="_top" xlink:title=" ">
<polygon fill="white" stroke="black" points="2871,-67.5 2871,-97.5 3013,-97.5 3013,-67.5 2871,-67.5"/>
<text text-anchor="start" x="2879" y="-85.5" font-family="Helvetica,sans-Serif" font-size="10.00">src/libs/vpropertyexplorer</text>
<text text-anchor="middle" x="2942" y="-74.5" font-family="Helvetica,sans-Serif" font-size="10.00">/vwidgetproperty_p.h</text>
</a>
</g>
</g>
<!-- Node1&#45;&gt;Node19 -->
<g id="edge19" class="edge">
<title>Node1&#45;&gt;Node19</title>
<path fill="none" stroke="midnightblue" d="M1566.45,-147.04C1822.39,-142.21 2608.51,-125.48 2862,-98 2864.95,-97.68 2867.95,-97.32 2870.98,-96.92"/>
<polygon fill="midnightblue" stroke="midnightblue" points="1566.04,-143.55 1556.11,-147.23 1566.18,-150.55 1566.04,-143.55"/>
</g>
<!-- Node16&#45;&gt;Node7 -->
<g id="edge16" class="edge">
<title>Node16&#45;&gt;Node7</title>
<path fill="none" stroke="midnightblue" d="M2370.81,-66.94C2134.69,-37.63 1866.55,-24.21 1741.25,-19.09"/>
<polygon fill="midnightblue" stroke="midnightblue" points="2370.6,-70.44 2380.96,-68.22 2371.47,-63.5 2370.6,-70.44"/>
</g>
<!-- Node20 -->
<g id="node20" class="node">
<title>Node20</title>
<g id="a_node20"><a xlink:href="../../dc/ddd/vwidgetproperty_8cpp.html" target="_top" xlink:title=" ">
<polygon fill="white" stroke="black" points="2863.5,-0.5 2863.5,-30.5 3020.5,-30.5 3020.5,-0.5 2863.5,-0.5"/>
<text text-anchor="start" x="2871.5" y="-18.5" font-family="Helvetica,sans-Serif" font-size="10.00">src/libs/vpropertyexplorer</text>
<text text-anchor="middle" x="2942" y="-7.5" font-family="Helvetica,sans-Serif" font-size="10.00">/plugins/vwidgetproperty.cpp</text>
</a>
</g>
</g>
<!-- Node19&#45;&gt;Node20 -->
<g id="edge20" class="edge">
<title>Node19&#45;&gt;Node20</title>
<path fill="none" stroke="midnightblue" d="M2942,-57.11C2942,-48.15 2942,-38.32 2942,-30.58"/>
<polygon fill="midnightblue" stroke="midnightblue" points="2938.5,-57.4 2942,-67.4 2945.5,-57.4 2938.5,-57.4"/>
</g>
</g>
</svg>
