<?xml version="1.0" encoding="UTF-8" standalone="no"?>
<!DOCTYPE svg PUBLIC "-//W3C//DTD SVG 1.1//EN"
 "http://www.w3.org/Graphics/SVG/1.1/DTD/svg11.dtd">
<!-- Generated by graphviz version 2.43.0 (0)
 -->
<!-- Title: src/libs/vgeometry/vabstractcurve.h Pages: 1 -->
<!--zoomable 258 -->

<svg id="main" version="1.1" xmlns="http://www.w3.org/2000/svg" xmlns:xlink="http://www.w3.org/1999/xlink" xml:space="preserve" onload="init(evt)">
<style type="text/css"><![CDATA[
.node, .edge {opacity: 0.7;}
.node.selected, .edge.selected {opacity: 1;}
.edge:hover path { stroke: red; }
.edge:hover polygon { stroke: red; fill: red; }
]]></style>

<defs>
  <circle id="rim" cx="0" cy="0" r="7"/>
  <circle id="rim2" cx="0" cy="0" r="3.5"/>
  <g id="zoomPlus">
    <use xlink:href="#rim" fill="#404040"><set attributeName="fill" to="#808080" begin="zoomplus.mouseover" end="zoomplus.mouseout"/></use>
    <path d="M-4,0h8M0,-4v8" fill="none" stroke="white" stroke-width="1.5" pointer-events="none"/>
  </g>
  <g id="zoomMin">
    <use xlink:href="#rim" fill="#404040"><set attributeName="fill" to="#808080" begin="zoomminus.mouseover" end="zoomminus.mouseout"/></use>
    <path d="M-4,0h8" fill="none" stroke="white" stroke-width="1.5" pointer-events="none"/>
  </g>
  <g id="arrowUp" transform="translate(30 24)">
    <use xlink:href="#rim"/>
    <path pointer-events="none" fill="none" stroke="white" stroke-width="1.5" d="M0,-3.0v7 M-2.5,-0.5L0,-3.0L2.5,-0.5"/>
  </g>
  <g id="arrowRight" transform="rotate(90) translate(36 -43)">
    <use xlink:href="#rim"/>
    <path pointer-events="none" fill="none" stroke="white" stroke-width="1.5" d="M0,-3.0v7 M-2.5,-0.5L0,-3.0L2.5,-0.5"/>
  </g>
  <g id="arrowDown" transform="rotate(180) translate(-30 -48)">
    <use xlink:href="#rim"/>
    <path pointer-events="none" fill="none" stroke="white" stroke-width="1.5" d="M0,-3.0v7 M-2.5,-0.5L0,-3.0L2.5,-0.5"/>
  </g>
  <g id="arrowLeft" transform="rotate(270) translate(-36 17)">
    <use xlink:href="#rim"/>
    <path pointer-events="none" fill="none" stroke="white" stroke-width="1.5" d="M0,-3.0v7 M-2.5,-0.5L0,-3.0L2.5,-0.5"/>
  </g>
  <g id="resetDef">
    <use xlink:href="#rim2" fill="#404040"><set attributeName="fill" to="#808080" begin="reset.mouseover" end="reset.mouseout"/></use>
  </g>
</defs>
<script type="application/ecmascript">
var viewWidth = 1377;
var viewHeight = 258;
var sectionId = 'dynsection-0';
</script>
<script type="application/ecmascript" xlink:href="../../svg.min.js"/>
<svg id="graph" class="graph">
<g id="viewport">
<title>src/libs/vgeometry/vabstractcurve.h</title>
<!-- Node1 -->
<g id="Node000001" class="node">
<title>Node1</title>
<g id="a_Node000001"><a xlink:title=" ">
<polygon fill="#999999" stroke="#666666" points="972.5,-250 865.5,-250 865.5,-220 972.5,-220 972.5,-250"/>
<text text-anchor="start" x="873.5" y="-238" font-family="Helvetica,sans-Serif" font-size="10.00">src/libs/vgeometry</text>
<text text-anchor="middle" x="919" y="-227" font-family="Helvetica,sans-Serif" font-size="10.00">/vabstractcurve.h</text>
</a>
</g>
</g>
<!-- Node2 -->
<g id="Node000002" class="node">
<title>Node2</title>
<g id="a_Node000002"><a xlink:title=" ">
<polygon fill="#e0e0e0" stroke="#999999" points="120,-74 0,-74 0,-55 120,-55 120,-74"/>
<text text-anchor="middle" x="60" y="-62" font-family="Helvetica,sans-Serif" font-size="10.00">qcompilerdetection.h</text>
</a>
</g>
</g>
<!-- Node1&#45;&gt;Node2 -->
<g id="edge1_Node000001_Node000002" class="edge">
<title>Node1&#45;&gt;Node2</title>
<g id="a_edge1_Node000001_Node000002"><a xlink:title=" ">
<path fill="none" stroke="#63b8ff" d="M865.4,-230.73C782.12,-225.01 616.85,-211.14 479,-184 333.72,-155.4 165.47,-101.2 94.45,-77.31"/>
<polygon fill="#63b8ff" stroke="#63b8ff" points="95.28,-73.9 84.69,-74.01 93.04,-80.53 95.28,-73.9"/>
</a>
</g>
</g>
<!-- Node3 -->
<g id="Node000003" class="node">
<title>Node3</title>
<g id="a_Node000003"><a xlink:title=" ">
<polygon fill="#e0e0e0" stroke="#999999" points="543.5,-184 488.5,-184 488.5,-165 543.5,-165 543.5,-184"/>
<text text-anchor="middle" x="516" y="-172" font-family="Helvetica,sans-Serif" font-size="10.00">QPointF</text>
</a>
</g>
</g>
<!-- Node1&#45;&gt;Node3 -->
<g id="edge2_Node000001_Node000003" class="edge">
<title>Node1&#45;&gt;Node3</title>
<g id="a_edge2_Node000001_Node000003"><a xlink:title=" ">
<path fill="none" stroke="#63b8ff" d="M865.26,-228.32C795.55,-220.59 670.01,-205.44 553.97,-184.23"/>
<polygon fill="#63b8ff" stroke="#63b8ff" points="554.32,-180.73 543.85,-182.36 553.05,-187.62 554.32,-180.73"/>
</a>
</g>
</g>
<!-- Node4 -->
<g id="Node000004" class="node">
<title>Node4</title>
<g id="a_Node000004"><a xlink:title=" ">
<polygon fill="#e0e0e0" stroke="#999999" points="869,-129 753,-129 753,-110 869,-110 869,-129"/>
<text text-anchor="middle" x="811" y="-117" font-family="Helvetica,sans-Serif" font-size="10.00">QSharedDataPointer</text>
</a>
</g>
</g>
<!-- Node1&#45;&gt;Node4 -->
<g id="edge3_Node000001_Node000004" class="edge">
<title>Node1&#45;&gt;Node4</title>
<g id="a_edge3_Node000001_Node000004"><a xlink:title=" ">
<path fill="none" stroke="#63b8ff" d="M905.32,-219.63C885.1,-198.37 847.35,-158.71 826.26,-136.54"/>
<polygon fill="#63b8ff" stroke="#63b8ff" points="828.74,-134.06 819.31,-129.23 823.66,-138.89 828.74,-134.06"/>
</a>
</g>
</g>
<!-- Node5 -->
<g id="Node000005" class="node">
<title>Node5</title>
<g id="a_Node000005"><a xlink:title=" ">
<polygon fill="#e0e0e0" stroke="#999999" points="731.5,-74 678.5,-74 678.5,-55 731.5,-55 731.5,-74"/>
<text text-anchor="middle" x="705" y="-62" font-family="Helvetica,sans-Serif" font-size="10.00">QString</text>
</a>
</g>
</g>
<!-- Node1&#45;&gt;Node5 -->
<g id="edge4_Node000001_Node000005" class="edge">
<title>Node1&#45;&gt;Node5</title>
<g id="a_edge4_Node000001_Node000005"><a xlink:title=" ">
<path fill="none" stroke="#63b8ff" d="M885.84,-220C848.08,-202.82 786.18,-170.75 744,-129 730.66,-115.8 719.92,-97.18 713.11,-83.51"/>
<polygon fill="#63b8ff" stroke="#63b8ff" points="716.14,-81.73 708.7,-74.2 709.82,-84.73 716.14,-81.73"/>
</a>
</g>
</g>
<!-- Node6 -->
<g id="Node000006" class="node">
<title>Node6</title>
<g id="a_Node000006"><a xlink:title=" ">
<polygon fill="#e0e0e0" stroke="#999999" points="952.5,-129 887.5,-129 887.5,-110 952.5,-110 952.5,-129"/>
<text text-anchor="middle" x="920" y="-117" font-family="Helvetica,sans-Serif" font-size="10.00">QTypeInfo</text>
</a>
</g>
</g>
<!-- Node1&#45;&gt;Node6 -->
<g id="edge5_Node000001_Node000006" class="edge">
<title>Node1&#45;&gt;Node6</title>
<g id="a_edge5_Node000001_Node000006"><a xlink:title=" ">
<path fill="none" stroke="#63b8ff" d="M919.13,-219.63C919.31,-199.21 919.64,-161.81 919.83,-139.24"/>
<polygon fill="#63b8ff" stroke="#63b8ff" points="923.33,-139.26 919.92,-129.23 916.34,-139.2 923.33,-139.26"/>
</a>
</g>
</g>
<!-- Node7 -->
<g id="Node000007" class="node">
<title>Node7</title>
<g id="a_Node000007"><a xlink:title=" ">
<polygon fill="#e0e0e0" stroke="#999999" points="1102.5,-129 1047.5,-129 1047.5,-110 1102.5,-110 1102.5,-129"/>
<text text-anchor="middle" x="1075" y="-117" font-family="Helvetica,sans-Serif" font-size="10.00">QVector</text>
</a>
</g>
</g>
<!-- Node1&#45;&gt;Node7 -->
<g id="edge6_Node000001_Node000007" class="edge">
<title>Node1&#45;&gt;Node7</title>
<g id="a_edge6_Node000001_Node000007"><a xlink:title=" ">
<path fill="none" stroke="#63b8ff" d="M959.06,-219.91C979.73,-211.45 1004.6,-199.35 1024,-184 1040.4,-171.03 1054.87,-151.85 1064.17,-137.97"/>
<polygon fill="#63b8ff" stroke="#63b8ff" points="1067.25,-139.65 1069.74,-129.35 1061.37,-135.85 1067.25,-139.65"/>
</a>
</g>
</g>
<!-- Node8 -->
<g id="Node000008" class="node">
<title>Node8</title>
<g id="a_Node000008"><a xlink:title=" ">
<polygon fill="#e0e0e0" stroke="#999999" points="808.5,-74 749.5,-74 749.5,-55 808.5,-55 808.5,-74"/>
<text text-anchor="middle" x="779" y="-62" font-family="Helvetica,sans-Serif" font-size="10.00">QtGlobal</text>
</a>
</g>
</g>
<!-- Node1&#45;&gt;Node8 -->
<g id="edge7_Node000001_Node000008" class="edge">
<title>Node1&#45;&gt;Node8</title>
<g id="a_edge7_Node000001_Node000008"><a xlink:title=" ">
<path fill="none" stroke="#63b8ff" d="M972.58,-230.55C1078.77,-221.84 1299.46,-193.39 1224,-110 1197.05,-80.22 923.01,-69.51 818.86,-66.5"/>
<polygon fill="#63b8ff" stroke="#63b8ff" points="818.85,-63 808.75,-66.21 818.65,-69.99 818.85,-63"/>
</a>
</g>
</g>
<!-- Node9 -->
<g id="Node000009" class="node">
<title>Node9</title>
<g id="a_Node000009"><a xlink:href="../../d3/da5/ifcdef_8h.html" target="_top" xlink:title=" ">
<polygon fill="white" stroke="#666666" points="638.5,-184 561.5,-184 561.5,-165 638.5,-165 638.5,-184"/>
<text text-anchor="middle" x="600" y="-172" font-family="Helvetica,sans-Serif" font-size="10.00">../ifc/ifcdef.h</text>
</a>
</g>
</g>
<!-- Node1&#45;&gt;Node9 -->
<g id="edge8_Node000001_Node000009" class="edge">
<title>Node1&#45;&gt;Node9</title>
<g id="a_edge8_Node000001_Node000009"><a xlink:title=" ">
<path fill="none" stroke="#63b8ff" d="M865.25,-224.14C804.78,-213.05 707.4,-195.2 648.97,-184.48"/>
<polygon fill="#63b8ff" stroke="#63b8ff" points="649.35,-180.99 638.88,-182.63 648.08,-187.88 649.35,-180.99"/>
</a>
</g>
</g>
<!-- Node20 -->
<g id="Node000020" class="node">
<title>Node20</title>
<g id="a_Node000020"><a xlink:href="../../db/db3/vmath_8h.html" target="_top" xlink:title=" ">
<polygon fill="white" stroke="#666666" points="1369,-184 1271,-184 1271,-165 1369,-165 1369,-184"/>
<text text-anchor="middle" x="1320" y="-172" font-family="Helvetica,sans-Serif" font-size="10.00">../vmisc/vmath.h</text>
</a>
</g>
</g>
<!-- Node1&#45;&gt;Node20 -->
<g id="edge26_Node000001_Node000020" class="edge">
<title>Node1&#45;&gt;Node20</title>
<g id="a_edge26_Node000001_Node000020"><a xlink:title=" ">
<path fill="none" stroke="#63b8ff" d="M972.66,-226.17C1047.52,-215.25 1182.82,-195.51 1260.62,-184.16"/>
<polygon fill="#63b8ff" stroke="#63b8ff" points="1261.35,-187.59 1270.74,-182.69 1260.34,-180.67 1261.35,-187.59"/>
</a>
</g>
</g>
<!-- Node22 -->
<g id="Node000022" class="node">
<title>Node22</title>
<g id="a_Node000022"><a xlink:href="../../d5/d9d/vgeometrydef_8h.html" target="_top" xlink:title=" ">
<polygon fill="white" stroke="#666666" points="1215,-129 1121,-129 1121,-110 1215,-110 1215,-129"/>
<text text-anchor="middle" x="1168" y="-117" font-family="Helvetica,sans-Serif" font-size="10.00">vgeometrydef.h</text>
</a>
</g>
</g>
<!-- Node1&#45;&gt;Node22 -->
<g id="edge28_Node000001_Node000022" class="edge">
<title>Node1&#45;&gt;Node22</title>
<g id="a_edge28_Node000001_Node000022"><a xlink:title=" ">
<path fill="none" stroke="#63b8ff" d="M958.4,-219.9C983.95,-210.44 1017.8,-197.31 1047,-184 1081.49,-168.27 1120.07,-147.44 1144.19,-134"/>
<polygon fill="#63b8ff" stroke="#63b8ff" points="1145.98,-137.01 1152.99,-129.07 1142.55,-130.91 1145.98,-137.01"/>
</a>
</g>
</g>
<!-- Node23 -->
<g id="Node000023" class="node">
<title>Node23</title>
<g id="a_Node000023"><a xlink:href="../../d2/d07/vgobject_8h.html" target="_top" xlink:title=" ">
<polygon fill="white" stroke="#666666" points="1015,-184 947,-184 947,-165 1015,-165 1015,-184"/>
<text text-anchor="middle" x="981" y="-172" font-family="Helvetica,sans-Serif" font-size="10.00">vgobject.h</text>
</a>
</g>
</g>
<!-- Node1&#45;&gt;Node23 -->
<g id="edge29_Node000001_Node000023" class="edge">
<title>Node1&#45;&gt;Node23</title>
<g id="a_edge29_Node000001_Node000023"><a xlink:title=" ">
<path fill="none" stroke="#63b8ff" d="M934.01,-219.84C943.19,-211.17 954.95,-200.08 964.41,-191.15"/>
<polygon fill="#63b8ff" stroke="#63b8ff" points="966.84,-193.67 971.71,-184.27 962.03,-188.58 966.84,-193.67"/>
</a>
</g>
</g>
<!-- Node9&#45;&gt;Node5 -->
<g id="edge9_Node000009_Node000005" class="edge">
<title>Node9&#45;&gt;Node5</title>
<g id="a_edge9_Node000009_Node000005"><a xlink:title=" ">
<path fill="none" stroke="#63b8ff" d="M578.24,-164.97C552.38,-153.56 514.78,-132.21 532,-110 534.13,-107.25 618.45,-86.45 668.56,-74.28"/>
<polygon fill="#63b8ff" stroke="#63b8ff" points="669.5,-77.66 678.4,-71.9 667.85,-70.86 669.5,-77.66"/>
</a>
</g>
</g>
<!-- Node9&#45;&gt;Node8 -->
<g id="edge11_Node000009_Node000008" class="edge">
<title>Node9&#45;&gt;Node8</title>
<g id="a_edge11_Node000009_Node000008"><a xlink:title=" ">
<path fill="none" stroke="#63b8ff" d="M614.35,-164.84C645.24,-146.2 718.31,-102.11 755.85,-79.46"/>
<polygon fill="#63b8ff" stroke="#63b8ff" points="757.83,-82.36 764.59,-74.2 754.22,-76.37 757.83,-82.36"/>
</a>
</g>
</g>
<!-- Node10 -->
<g id="Node000010" class="node">
<title>Node10</title>
<g id="a_Node000010"><a xlink:title=" ">
<polygon fill="#e0e0e0" stroke="#999999" points="208,-74 138,-74 138,-55 208,-55 208,-74"/>
<text text-anchor="middle" x="173" y="-62" font-family="Helvetica,sans-Serif" font-size="10.00">QStringList</text>
</a>
</g>
</g>
<!-- Node9&#45;&gt;Node10 -->
<g id="edge10_Node000009_Node000010" class="edge">
<title>Node9&#45;&gt;Node10</title>
<g id="a_edge10_Node000009_Node000010"><a xlink:title=" ">
<path fill="none" stroke="#63b8ff" d="M561.48,-165.98C519.95,-157.69 452.02,-143.58 394,-129 328.81,-112.61 253.76,-90.31 210.03,-76.96"/>
<polygon fill="#63b8ff" stroke="#63b8ff" points="210.99,-73.6 200.4,-74.02 208.94,-80.29 210.99,-73.6"/>
</a>
</g>
</g>
<!-- Node11 -->
<g id="Node000011" class="node">
<title>Node11</title>
<g id="a_Node000011"><a xlink:href="../../d4/da4/def_8h.html" target="_top" xlink:title=" ">
<polygon fill="white" stroke="#666666" points="485,-129 403,-129 403,-110 485,-110 485,-129"/>
<text text-anchor="middle" x="444" y="-117" font-family="Helvetica,sans-Serif" font-size="10.00">../vmisc/def.h</text>
</a>
</g>
</g>
<!-- Node9&#45;&gt;Node11 -->
<g id="edge12_Node000009_Node000011" class="edge">
<title>Node9&#45;&gt;Node11</title>
<g id="a_edge12_Node000009_Node000011"><a xlink:title=" ">
<path fill="none" stroke="#63b8ff" d="M574.94,-164.98C548.97,-156.16 508.19,-142.31 479.04,-132.41"/>
<polygon fill="#63b8ff" stroke="#63b8ff" points="479.85,-128.99 469.26,-129.08 477.6,-135.61 479.85,-128.99"/>
</a>
</g>
</g>
<!-- Node19 -->
<g id="Node000019" class="node">
<title>Node19</title>
<g id="a_Node000019"><a xlink:href="../../d6/dcd/diagnostic_8h.html" target="_top" xlink:title=" ">
<polygon fill="white" stroke="#666666" points="658.5,-129 541.5,-129 541.5,-110 658.5,-110 658.5,-129"/>
<text text-anchor="middle" x="600" y="-117" font-family="Helvetica,sans-Serif" font-size="10.00">../vmisc/diagnostic.h</text>
</a>
</g>
</g>
<!-- Node9&#45;&gt;Node19 -->
<g id="edge24_Node000009_Node000019" class="edge">
<title>Node9&#45;&gt;Node19</title>
<g id="a_edge24_Node000009_Node000019"><a xlink:title=" ">
<path fill="none" stroke="#63b8ff" d="M600,-164.75C600,-157.8 600,-147.85 600,-139.13"/>
<polygon fill="#63b8ff" stroke="#63b8ff" points="603.5,-139.09 600,-129.09 596.5,-139.09 603.5,-139.09"/>
</a>
</g>
</g>
<!-- Node11&#45;&gt;Node2 -->
<g id="edge13_Node000011_Node000002" class="edge">
<title>Node11&#45;&gt;Node2</title>
<g id="a_edge13_Node000011_Node000002"><a xlink:title=" ">
<path fill="none" stroke="#63b8ff" d="M402.91,-112.83C337.78,-103.84 210.08,-86.21 130.23,-75.19"/>
<polygon fill="#63b8ff" stroke="#63b8ff" points="130.64,-71.72 120.25,-73.82 129.68,-78.65 130.64,-71.72"/>
</a>
</g>
</g>
<!-- Node11&#45;&gt;Node5 -->
<g id="edge16_Node000011_Node000005" class="edge">
<title>Node11&#45;&gt;Node5</title>
<g id="a_edge16_Node000011_Node000005"><a xlink:title=" ">
<path fill="none" stroke="#63b8ff" d="M485.15,-110.83C528.31,-102.68 598.34,-89.17 668.4,-74.06"/>
<polygon fill="#63b8ff" stroke="#63b8ff" points="669.26,-77.46 678.29,-71.92 667.77,-70.62 669.26,-77.46"/>
</a>
</g>
</g>
<!-- Node11&#45;&gt;Node8 -->
<g id="edge19_Node000011_Node000008" class="edge">
<title>Node11&#45;&gt;Node8</title>
<g id="a_edge19_Node000011_Node000008"><a xlink:title=" ">
<path fill="none" stroke="#63b8ff" d="M485.32,-113.16C540.76,-105.8 642.49,-91.62 739.28,-74.02"/>
<polygon fill="#63b8ff" stroke="#63b8ff" points="740.03,-77.44 749.23,-72.2 738.76,-70.56 740.03,-77.44"/>
</a>
</g>
</g>
<!-- Node11&#45;&gt;Node10 -->
<g id="edge17_Node000011_Node000010" class="edge">
<title>Node11&#45;&gt;Node10</title>
<g id="a_edge17_Node000011_Node000010"><a xlink:title=" ">
<path fill="none" stroke="#63b8ff" d="M402.84,-110.45C353.01,-100.7 269.37,-84.35 217.91,-74.28"/>
<polygon fill="#63b8ff" stroke="#63b8ff" points="218.55,-70.84 208.07,-72.36 217.21,-77.71 218.55,-70.84"/>
</a>
</g>
</g>
<!-- Node12 -->
<g id="Node000012" class="node">
<title>Node12</title>
<g id="a_Node000012"><a xlink:title=" ">
<polygon fill="#e0e0e0" stroke="#999999" points="400.5,-74 327.5,-74 327.5,-55 400.5,-55 400.5,-74"/>
<text text-anchor="middle" x="364" y="-62" font-family="Helvetica,sans-Serif" font-size="10.00">QFileDialog</text>
</a>
</g>
</g>
<!-- Node11&#45;&gt;Node12 -->
<g id="edge14_Node000011_Node000012" class="edge">
<title>Node11&#45;&gt;Node12</title>
<g id="a_edge14_Node000011_Node000012"><a xlink:title=" ">
<path fill="none" stroke="#63b8ff" d="M431.15,-109.98C418.86,-101.84 400.09,-89.41 385.52,-79.76"/>
<polygon fill="#63b8ff" stroke="#63b8ff" points="387.36,-76.78 377.09,-74.17 383.49,-82.61 387.36,-76.78"/>
</a>
</g>
</g>
<!-- Node13 -->
<g id="Node000013" class="node">
<title>Node13</title>
<g id="a_Node000013"><a xlink:title=" ">
<polygon fill="#e0e0e0" stroke="#999999" points="469,-74 419,-74 419,-55 469,-55 469,-74"/>
<text text-anchor="middle" x="444" y="-62" font-family="Helvetica,sans-Serif" font-size="10.00">QLineF</text>
</a>
</g>
</g>
<!-- Node11&#45;&gt;Node13 -->
<g id="edge15_Node000011_Node000013" class="edge">
<title>Node11&#45;&gt;Node13</title>
<g id="a_edge15_Node000011_Node000013"><a xlink:title=" ">
<path fill="none" stroke="#63b8ff" d="M444,-109.75C444,-102.8 444,-92.85 444,-84.13"/>
<polygon fill="#63b8ff" stroke="#63b8ff" points="447.5,-84.09 444,-74.09 440.5,-84.09 447.5,-84.09"/>
</a>
</g>
</g>
<!-- Node14 -->
<g id="Node000014" class="node">
<title>Node14</title>
<g id="a_Node000014"><a xlink:title=" ">
<polygon fill="#e0e0e0" stroke="#999999" points="516.5,-74 487.5,-74 487.5,-55 516.5,-55 516.5,-74"/>
<text text-anchor="middle" x="502" y="-62" font-family="Helvetica,sans-Serif" font-size="10.00">Qt</text>
</a>
</g>
</g>
<!-- Node11&#45;&gt;Node14 -->
<g id="edge18_Node000011_Node000014" class="edge">
<title>Node11&#45;&gt;Node14</title>
<g id="a_edge18_Node000011_Node000014"><a xlink:title=" ">
<path fill="none" stroke="#63b8ff" d="M453.32,-109.98C461.81,-102.23 474.56,-90.58 484.88,-81.14"/>
<polygon fill="#63b8ff" stroke="#63b8ff" points="487.49,-83.5 492.51,-74.17 482.77,-78.33 487.49,-83.5"/>
</a>
</g>
</g>
<!-- Node15 -->
<g id="Node000015" class="node">
<title>Node15</title>
<g id="a_Node000015"><a xlink:title=" ">
<polygon fill="#e0e0e0" stroke="#999999" points="591,-74 535,-74 535,-55 591,-55 591,-74"/>
<text text-anchor="middle" x="563" y="-62" font-family="Helvetica,sans-Serif" font-size="10.00">QPrinter</text>
</a>
</g>
</g>
<!-- Node11&#45;&gt;Node15 -->
<g id="edge20_Node000011_Node000015" class="edge">
<title>Node11&#45;&gt;Node15</title>
<g id="a_edge20_Node000011_Node000015"><a xlink:title=" ">
<path fill="none" stroke="#63b8ff" d="M463.12,-109.98C482.35,-101.42 512.23,-88.11 534.31,-78.28"/>
<polygon fill="#63b8ff" stroke="#63b8ff" points="535.82,-81.44 543.53,-74.17 532.97,-75.04 535.82,-81.44"/>
</a>
</g>
</g>
<!-- Node16 -->
<g id="Node000016" class="node">
<title>Node16</title>
<g id="a_Node000016"><a xlink:title=" ">
<polygon fill="#e0e0e0" stroke="#999999" points="660.5,-74 609.5,-74 609.5,-55 660.5,-55 660.5,-74"/>
<text text-anchor="middle" x="635" y="-62" font-family="Helvetica,sans-Serif" font-size="10.00">csignal</text>
</a>
</g>
</g>
<!-- Node11&#45;&gt;Node16 -->
<g id="edge21_Node000011_Node000016" class="edge">
<title>Node11&#45;&gt;Node16</title>
<g id="a_edge21_Node000011_Node000016"><a xlink:title=" ">
<path fill="none" stroke="#63b8ff" d="M474.69,-109.98C508.66,-100.56 563.36,-85.38 599.25,-75.42"/>
<polygon fill="#63b8ff" stroke="#63b8ff" points="600.59,-78.68 609.29,-72.63 598.72,-71.94 600.59,-78.68"/>
</a>
</g>
</g>
<!-- Node17 -->
<g id="Node000017" class="node">
<title>Node17</title>
<g id="a_Node000017"><a xlink:href="../../d4/d82/debugbreak_8h.html" target="_top" xlink:title=" ">
<polygon fill="white" stroke="#666666" points="309.5,-74 226.5,-74 226.5,-55 309.5,-55 309.5,-74"/>
<text text-anchor="middle" x="268" y="-62" font-family="Helvetica,sans-Serif" font-size="10.00">debugbreak.h</text>
</a>
</g>
</g>
<!-- Node11&#45;&gt;Node17 -->
<g id="edge22_Node000011_Node000017" class="edge">
<title>Node11&#45;&gt;Node17</title>
<g id="a_edge22_Node000011_Node000017"><a xlink:title=" ">
<path fill="none" stroke="#63b8ff" d="M415.72,-109.98C386.05,-101.05 339.21,-86.94 306.25,-77.02"/>
<polygon fill="#63b8ff" stroke="#63b8ff" points="307.08,-73.61 296.5,-74.08 305.07,-80.32 307.08,-73.61"/>
</a>
</g>
</g>
<!-- Node18 -->
<g id="Node000018" class="node">
<title>Node18</title>
<g id="a_Node000018"><a xlink:title=" ">
<polygon fill="#e0e0e0" stroke="#999999" points="295.5,-19 240.5,-19 240.5,0 295.5,0 295.5,-19"/>
<text text-anchor="middle" x="268" y="-7" font-family="Helvetica,sans-Serif" font-size="10.00">signal.h</text>
</a>
</g>
</g>
<!-- Node17&#45;&gt;Node18 -->
<g id="edge23_Node000017_Node000018" class="edge">
<title>Node17&#45;&gt;Node18</title>
<g id="a_edge23_Node000017_Node000018"><a xlink:title=" ">
<path fill="none" stroke="#63b8ff" d="M268,-54.75C268,-47.8 268,-37.85 268,-29.13"/>
<polygon fill="#63b8ff" stroke="#63b8ff" points="271.5,-29.09 268,-19.09 264.5,-29.09 271.5,-29.09"/>
</a>
</g>
</g>
<!-- Node19&#45;&gt;Node8 -->
<g id="edge25_Node000019_Node000008" class="edge">
<title>Node19&#45;&gt;Node8</title>
<g id="a_edge25_Node000019_Node000008"><a xlink:title=" ">
<path fill="none" stroke="#63b8ff" d="M628.76,-109.98C658.94,-101.05 706.57,-86.94 740.1,-77.02"/>
<polygon fill="#63b8ff" stroke="#63b8ff" points="741.42,-80.28 750.02,-74.08 739.43,-73.57 741.42,-80.28"/>
</a>
</g>
</g>
<!-- Node21 -->
<g id="Node000021" class="node">
<title>Node21</title>
<g id="a_Node000021"><a xlink:title=" ">
<polygon fill="#e0e0e0" stroke="#999999" points="1346.5,-129 1293.5,-129 1293.5,-110 1346.5,-110 1346.5,-129"/>
<text text-anchor="middle" x="1320" y="-117" font-family="Helvetica,sans-Serif" font-size="10.00">QtMath</text>
</a>
</g>
</g>
<!-- Node20&#45;&gt;Node21 -->
<g id="edge27_Node000020_Node000021" class="edge">
<title>Node20&#45;&gt;Node21</title>
<g id="a_edge27_Node000020_Node000021"><a xlink:title=" ">
<path fill="none" stroke="#63b8ff" d="M1320,-164.75C1320,-157.8 1320,-147.85 1320,-139.13"/>
<polygon fill="#63b8ff" stroke="#63b8ff" points="1323.5,-139.09 1320,-129.09 1316.5,-139.09 1323.5,-139.09"/>
</a>
</g>
</g>
<!-- Node23&#45;&gt;Node4 -->
<g id="edge30_Node000023_Node000004" class="edge">
<title>Node23&#45;&gt;Node4</title>
<g id="a_edge30_Node000023_Node000004"><a xlink:title=" ">
<path fill="none" stroke="#63b8ff" d="M953.69,-164.98C925.15,-156.09 880.17,-142.07 848.36,-132.15"/>
<polygon fill="#63b8ff" stroke="#63b8ff" points="849.12,-128.72 838.53,-129.08 847.03,-135.4 849.12,-128.72"/>
</a>
</g>
</g>
<!-- Node23&#45;&gt;Node5 -->
<g id="edge31_Node000023_Node000005" class="edge">
<title>Node23&#45;&gt;Node5</title>
<g id="a_edge31_Node000023_Node000005"><a xlink:title=" ">
<path fill="none" stroke="#63b8ff" d="M980.96,-164.56C980.38,-150.63 977.08,-123.92 961,-110 888.19,-46.96 840.67,-90.72 741.76,-74.08"/>
<polygon fill="#63b8ff" stroke="#63b8ff" points="742.18,-70.6 731.71,-72.21 740.9,-77.48 742.18,-70.6"/>
</a>
</g>
</g>
<!-- Node23&#45;&gt;Node6 -->
<g id="edge32_Node000023_Node000006" class="edge">
<title>Node23&#45;&gt;Node6</title>
<g id="a_edge32_Node000023_Node000006"><a xlink:title=" ">
<path fill="none" stroke="#63b8ff" d="M971.2,-164.98C962.18,-157.15 948.59,-145.34 937.68,-135.86"/>
<polygon fill="#63b8ff" stroke="#63b8ff" points="939.82,-133.09 929.98,-129.17 935.23,-138.37 939.82,-133.09"/>
</a>
</g>
</g>
<!-- Node23&#45;&gt;Node7 -->
<g id="edge33_Node000023_Node000007" class="edge">
<title>Node23&#45;&gt;Node7</title>
<g id="a_edge33_Node000023_Node000007"><a xlink:title=" ">
<path fill="none" stroke="#63b8ff" d="M996.1,-164.98C1010.82,-156.69 1033.42,-143.94 1050.67,-134.22"/>
<polygon fill="#63b8ff" stroke="#63b8ff" points="1052.63,-137.13 1059.62,-129.17 1049.19,-131.03 1052.63,-137.13"/>
</a>
</g>
</g>
<!-- Node23&#45;&gt;Node8 -->
<g id="edge34_Node000023_Node000008" class="edge">
<title>Node23&#45;&gt;Node8</title>
<g id="a_edge34_Node000023_Node000008"><a xlink:title=" ">
<path fill="none" stroke="#63b8ff" d="M987.09,-164.64C995.43,-151.3 1007.98,-125.93 995,-110 973.2,-83.25 874.98,-72.11 818.79,-67.85"/>
<polygon fill="#63b8ff" stroke="#63b8ff" points="819.04,-64.36 808.82,-67.14 818.54,-71.35 819.04,-64.36"/>
</a>
</g>
</g>
<!-- Node23&#45;&gt;Node22 -->
<g id="edge35_Node000023_Node000022" class="edge">
<title>Node23&#45;&gt;Node22</title>
<g id="a_edge35_Node000023_Node000022"><a xlink:title=" ">
<path fill="none" stroke="#63b8ff" d="M1011.04,-164.98C1042.71,-156.01 1092.77,-141.82 1127.81,-131.89"/>
<polygon fill="#63b8ff" stroke="#63b8ff" points="1129.05,-135.18 1137.72,-129.08 1127.14,-128.44 1129.05,-135.18"/>
</a>
</g>
</g>
</g>
</svg>

<g id="navigator" transform="translate(0 0)" fill="#404254">
  <rect fill="#f2f5e9" fill-opacity="0.5" stroke="#606060" stroke-width=".5" x="0" y="0" width="60" height="60"/>
  <use id="zoomplus" xlink:href="#zoomPlus" x="17" y="9" onmousedown="handleZoom(evt,'in')"/>
  <use id="zoomminus" xlink:href="#zoomMin" x="42" y="9" onmousedown="handleZoom(evt,'out')"/>
  <use id="reset" xlink:href="#resetDef" x="30" y="36" onmousedown="handleReset()"/>
   <use id="arrowup" xlink:href="#arrowUp" x="0" y="0" onmousedown="handlePan(0,-1)"/>
  <use id="arrowright" xlink:href="#arrowRight" x="0" y="0" onmousedown="handlePan(1,0)"/>
  <use id="arrowdown" xlink:href="#arrowDown" x="0" y="0" onmousedown="handlePan(0,1)"/>
  <use id="arrowleft" xlink:href="#arrowLeft" x="0" y="0" onmousedown="handlePan(-1,0)"/>
</g>
<svg viewBox="0 0 15 15" width="100%" height="30px" preserveAspectRatio="xMaxYMin meet">
 <g id="arrow_out" transform="scale(0.3 0.3)">
  <a xlink:href="vabstractcurve_8h__incl_org.svg" target="_base">
   <rect id="button" ry="5" rx="5" y="6" x="6" height="38" width="38"
        fill="#f2f5e9" fill-opacity="0.5" stroke="#606060" stroke-width="1.0"/>
   <path id="arrow"
     d="M 11.500037,31.436501 C 11.940474,20.09759 22.043105,11.32322 32.158766,21.979434 L 37.068811,17.246167 C 37.068811,17.246167 37.088388,32 37.088388,32 L 22.160133,31.978069 C 22.160133,31.978069 26.997745,27.140456 26.997745,27.140456 C 18.528582,18.264221 13.291696,25.230495 11.500037,31.436501 z"
     style="fill:#404040;"/>
  </a>
 </g>
</svg>

<style type='text/css'>
<![CDATA[
[data-mouse-over-selected='false'] { opacity: 0.7; }
[data-mouse-over-selected='true']  { opacity: 1.0; }
]]>
</style>
<script type="application/ecmascript"><![CDATA[
document.addEventListener('DOMContentLoaded', (event) => {
  highlightEdges();
  highlightAdjacentNodes();
});
]]></script>
</svg>
