<?xml version="1.0" encoding="UTF-8" standalone="no"?>
<!DOCTYPE svg PUBLIC "-//W3C//DTD SVG 1.1//EN"
 "http://www.w3.org/Graphics/SVG/1.1/DTD/svg11.dtd">
<!-- Generated by graphviz version 2.43.0 (0)
 -->
<!-- Title: src/libs/vmisc/vsettings.cpp Pages: 1 -->
<!--zoomable 247 -->

<svg id="main" version="1.1" xmlns="http://www.w3.org/2000/svg" xmlns:xlink="http://www.w3.org/1999/xlink" xml:space="preserve" onload="init(evt)">
<style type="text/css"><![CDATA[
.node, .edge {opacity: 0.7;}
.node.selected, .edge.selected {opacity: 1;}
.edge:hover path { stroke: red; }
.edge:hover polygon { stroke: red; fill: red; }
]]></style>

<defs>
  <circle id="rim" cx="0" cy="0" r="7"/>
  <circle id="rim2" cx="0" cy="0" r="3.5"/>
  <g id="zoomPlus">
    <use xlink:href="#rim" fill="#404040"><set attributeName="fill" to="#808080" begin="zoomplus.mouseover" end="zoomplus.mouseout"/></use>
    <path d="M-4,0h8M0,-4v8" fill="none" stroke="white" stroke-width="1.5" pointer-events="none"/>
  </g>
  <g id="zoomMin">
    <use xlink:href="#rim" fill="#404040"><set attributeName="fill" to="#808080" begin="zoomminus.mouseover" end="zoomminus.mouseout"/></use>
    <path d="M-4,0h8" fill="none" stroke="white" stroke-width="1.5" pointer-events="none"/>
  </g>
  <g id="arrowUp" transform="translate(30 24)">
    <use xlink:href="#rim"/>
    <path pointer-events="none" fill="none" stroke="white" stroke-width="1.5" d="M0,-3.0v7 M-2.5,-0.5L0,-3.0L2.5,-0.5"/>
  </g>
  <g id="arrowRight" transform="rotate(90) translate(36 -43)">
    <use xlink:href="#rim"/>
    <path pointer-events="none" fill="none" stroke="white" stroke-width="1.5" d="M0,-3.0v7 M-2.5,-0.5L0,-3.0L2.5,-0.5"/>
  </g>
  <g id="arrowDown" transform="rotate(180) translate(-30 -48)">
    <use xlink:href="#rim"/>
    <path pointer-events="none" fill="none" stroke="white" stroke-width="1.5" d="M0,-3.0v7 M-2.5,-0.5L0,-3.0L2.5,-0.5"/>
  </g>
  <g id="arrowLeft" transform="rotate(270) translate(-36 17)">
    <use xlink:href="#rim"/>
    <path pointer-events="none" fill="none" stroke="white" stroke-width="1.5" d="M0,-3.0v7 M-2.5,-0.5L0,-3.0L2.5,-0.5"/>
  </g>
  <g id="resetDef">
    <use xlink:href="#rim2" fill="#404040"><set attributeName="fill" to="#808080" begin="reset.mouseover" end="reset.mouseout"/></use>
  </g>
</defs>
<script type="application/ecmascript">
var viewWidth = 1981;
var viewHeight = 247;
var sectionId = 'dynsection-0';
</script>
<script type="application/ecmascript" xlink:href="../../svg.min.js"/>
<svg id="graph" class="graph">
<g id="viewport">
<title>src/libs/vmisc/vsettings.cpp</title>
<!-- Node1 -->
<g id="Node000001" class="node">
<title>Node1</title>
<g id="a_Node000001"><a xlink:title=" ">
<polygon fill="#999999" stroke="#666666" points="1374,-239 1222,-239 1222,-220 1374,-220 1374,-239"/>
<text text-anchor="middle" x="1298" y="-227" font-family="Helvetica,sans-Serif" font-size="10.00">src/libs/vmisc/vsettings.cpp</text>
</a>
</g>
</g>
<!-- Node2 -->
<g id="Node000002" class="node">
<title>Node2</title>
<g id="a_Node000002"><a xlink:href="../../dd/db2/vsettings_8h.html" target="_top" xlink:title=" ">
<polygon fill="white" stroke="#666666" points="546.5,-184 475.5,-184 475.5,-165 546.5,-165 546.5,-184"/>
<text text-anchor="middle" x="511" y="-172" font-family="Helvetica,sans-Serif" font-size="10.00">vsettings.h</text>
</a>
</g>
</g>
<!-- Node1&#45;&gt;Node2 -->
<g id="edge1_Node000001_Node000002" class="edge">
<title>Node1&#45;&gt;Node2</title>
<g id="a_edge1_Node000001_Node000002"><a xlink:title=" ">
<path fill="none" stroke="#63b8ff" d="M1221.82,-223.37C1060.14,-212.48 686.79,-187.34 556.7,-178.58"/>
<polygon fill="#63b8ff" stroke="#63b8ff" points="556.89,-175.08 546.68,-177.9 556.42,-182.07 556.89,-175.08"/>
</a>
</g>
</g>
<!-- Node9 -->
<g id="Node000009" class="node">
<title>Node9</title>
<g id="a_Node000009"><a xlink:href="../../d4/da4/def_8h.html" target="_top" xlink:title=" ">
<polygon fill="white" stroke="#666666" points="918,-129 836,-129 836,-110 918,-110 918,-129"/>
<text text-anchor="middle" x="877" y="-117" font-family="Helvetica,sans-Serif" font-size="10.00">../vmisc/def.h</text>
</a>
</g>
</g>
<!-- Node1&#45;&gt;Node9 -->
<g id="edge46_Node000001_Node000009" class="edge">
<title>Node1&#45;&gt;Node9</title>
<g id="a_edge46_Node000001_Node000009"><a xlink:title=" ">
<path fill="none" stroke="#63b8ff" d="M1221.74,-225.64C1129.54,-221.09 980.67,-209.9 932,-184 912.36,-173.55 896.59,-153 887.06,-138.1"/>
<polygon fill="#63b8ff" stroke="#63b8ff" points="889.89,-136.03 881.72,-129.29 883.91,-139.65 889.89,-136.03"/>
</a>
</g>
</g>
<!-- Node15 -->
<g id="Node000015" class="node">
<title>Node15</title>
<g id="a_Node000015"><a xlink:title=" ">
<polygon fill="#e0e0e0" stroke="#999999" points="1377,-74 1321,-74 1321,-55 1377,-55 1377,-74"/>
<text text-anchor="middle" x="1349" y="-62" font-family="Helvetica,sans-Serif" font-size="10.00">QPrinter</text>
</a>
</g>
</g>
<!-- Node1&#45;&gt;Node15 -->
<g id="edge38_Node000001_Node000015" class="edge">
<title>Node1&#45;&gt;Node15</title>
<g id="a_edge38_Node000001_Node000015"><a xlink:title=" ">
<path fill="none" stroke="#63b8ff" d="M1221.73,-223.55C1128.69,-216.71 981.66,-203.04 965,-184 959.44,-177.65 959.83,-171.68 965,-165 975.82,-151.03 1216.18,-95.49 1311.01,-74.03"/>
<polygon fill="#63b8ff" stroke="#63b8ff" points="1311.8,-77.44 1320.78,-71.82 1310.26,-70.61 1311.8,-77.44"/>
</a>
</g>
</g>
<!-- Node26 -->
<g id="Node000026" class="node">
<title>Node26</title>
<g id="a_Node000026"><a xlink:title=" ">
<polygon fill="#e0e0e0" stroke="#999999" points="1012,-184 974,-184 974,-165 1012,-165 1012,-184"/>
<text text-anchor="middle" x="993" y="-172" font-family="Helvetica,sans-Serif" font-size="10.00">QDir</text>
</a>
</g>
</g>
<!-- Node1&#45;&gt;Node26 -->
<g id="edge35_Node000001_Node000026" class="edge">
<title>Node1&#45;&gt;Node26</title>
<g id="a_edge35_Node000001_Node000026"><a xlink:title=" ">
<path fill="none" stroke="#63b8ff" d="M1228.34,-219.97C1174.44,-212.76 1097.81,-201.19 1022.34,-184.04"/>
<polygon fill="#63b8ff" stroke="#63b8ff" points="1022.72,-180.54 1012.19,-181.7 1021.14,-187.36 1022.72,-180.54"/>
</a>
</g>
</g>
<!-- Node27 -->
<g id="Node000027" class="node">
<title>Node27</title>
<g id="a_Node000027"><a xlink:title=" ">
<polygon fill="#e0e0e0" stroke="#999999" points="1086,-184 1030,-184 1030,-165 1086,-165 1086,-184"/>
<text text-anchor="middle" x="1058" y="-172" font-family="Helvetica,sans-Serif" font-size="10.00">QLocale</text>
</a>
</g>
</g>
<!-- Node1&#45;&gt;Node27 -->
<g id="edge36_Node000001_Node000027" class="edge">
<title>Node1&#45;&gt;Node27</title>
<g id="a_edge36_Node000001_Node000027"><a xlink:title=" ">
<path fill="none" stroke="#63b8ff" d="M1258.3,-219.92C1219.44,-211.49 1158.29,-198.16 1096.24,-184.26"/>
<polygon fill="#63b8ff" stroke="#63b8ff" points="1096.8,-180.8 1086.28,-182.03 1095.27,-187.63 1096.8,-180.8"/>
</a>
</g>
</g>
<!-- Node28 -->
<g id="Node000028" class="node">
<title>Node28</title>
<g id="a_Node000028"><a xlink:title=" ">
<polygon fill="#e0e0e0" stroke="#999999" points="1175.5,-184 1104.5,-184 1104.5,-165 1175.5,-165 1175.5,-184"/>
<text text-anchor="middle" x="1140" y="-172" font-family="Helvetica,sans-Serif" font-size="10.00">QMetaType</text>
</a>
</g>
</g>
<!-- Node1&#45;&gt;Node28 -->
<g id="edge37_Node000001_Node000028" class="edge">
<title>Node1&#45;&gt;Node28</title>
<g id="a_edge37_Node000001_Node000028"><a xlink:title=" ">
<path fill="none" stroke="#63b8ff" d="M1272.61,-219.98C1246.2,-211.13 1204.65,-197.19 1175.11,-187.28"/>
<polygon fill="#63b8ff" stroke="#63b8ff" points="1176.18,-183.94 1165.58,-184.08 1173.95,-190.58 1176.18,-183.94"/>
</a>
</g>
</g>
<!-- Node29 -->
<g id="Node000029" class="node">
<title>Node29</title>
<g id="a_Node000029"><a xlink:title=" ">
<polygon fill="#e0e0e0" stroke="#999999" points="1286,-184 1194,-184 1194,-165 1286,-165 1286,-184"/>
<text text-anchor="middle" x="1240" y="-172" font-family="Helvetica,sans-Serif" font-size="10.00">QSharedPointer</text>
</a>
</g>
</g>
<!-- Node1&#45;&gt;Node29 -->
<g id="edge39_Node000001_Node000029" class="edge">
<title>Node1&#45;&gt;Node29</title>
<g id="a_edge39_Node000001_Node000029"><a xlink:title=" ">
<path fill="none" stroke="#63b8ff" d="M1288.68,-219.98C1280.19,-212.23 1267.44,-200.58 1257.12,-191.14"/>
<polygon fill="#63b8ff" stroke="#63b8ff" points="1259.23,-188.33 1249.49,-184.17 1254.51,-193.5 1259.23,-188.33"/>
</a>
</g>
</g>
<!-- Node30 -->
<g id="Node000030" class="node">
<title>Node30</title>
<g id="a_Node000030"><a xlink:title=" ">
<polygon fill="#e0e0e0" stroke="#999999" points="1408,-184 1304,-184 1304,-165 1408,-165 1408,-184"/>
<text text-anchor="middle" x="1356" y="-172" font-family="Helvetica,sans-Serif" font-size="10.00">QStaticStringData</text>
</a>
</g>
</g>
<!-- Node1&#45;&gt;Node30 -->
<g id="edge40_Node000001_Node000030" class="edge">
<title>Node1&#45;&gt;Node30</title>
<g id="a_edge40_Node000001_Node000030"><a xlink:title=" ">
<path fill="none" stroke="#63b8ff" d="M1307.32,-219.98C1315.81,-212.23 1328.56,-200.58 1338.88,-191.14"/>
<polygon fill="#63b8ff" stroke="#63b8ff" points="1341.49,-193.5 1346.51,-184.17 1336.77,-188.33 1341.49,-193.5"/>
</a>
</g>
</g>
<!-- Node31 -->
<g id="Node000031" class="node">
<title>Node31</title>
<g id="a_Node000031"><a xlink:title=" ">
<polygon fill="#e0e0e0" stroke="#999999" points="1502,-184 1426,-184 1426,-165 1502,-165 1502,-184"/>
<text text-anchor="middle" x="1464" y="-172" font-family="Helvetica,sans-Serif" font-size="10.00">QStringData</text>
</a>
</g>
</g>
<!-- Node1&#45;&gt;Node31 -->
<g id="edge41_Node000001_Node000031" class="edge">
<title>Node1&#45;&gt;Node31</title>
<g id="a_edge41_Node000001_Node000031"><a xlink:title=" ">
<path fill="none" stroke="#63b8ff" d="M1324.67,-219.98C1352.54,-211.09 1396.45,-197.07 1427.52,-187.15"/>
<polygon fill="#63b8ff" stroke="#63b8ff" points="1428.66,-190.46 1437.12,-184.08 1426.53,-183.79 1428.66,-190.46"/>
</a>
</g>
</g>
<!-- Node32 -->
<g id="Node000032" class="node">
<title>Node32</title>
<g id="a_Node000032"><a xlink:title=" ">
<polygon fill="#e0e0e0" stroke="#999999" points="1609.5,-184 1520.5,-184 1520.5,-165 1609.5,-165 1609.5,-184"/>
<text text-anchor="middle" x="1565" y="-172" font-family="Helvetica,sans-Serif" font-size="10.00">QStringDataPtr</text>
</a>
</g>
</g>
<!-- Node1&#45;&gt;Node32 -->
<g id="edge42_Node000001_Node000032" class="edge">
<title>Node1&#45;&gt;Node32</title>
<g id="a_edge42_Node000001_Node000032"><a xlink:title=" ">
<path fill="none" stroke="#63b8ff" d="M1340.9,-219.98C1387.37,-210.76 1461.59,-196.03 1511.76,-186.07"/>
<polygon fill="#63b8ff" stroke="#63b8ff" points="1512.64,-189.46 1521.77,-184.08 1511.28,-182.6 1512.64,-189.46"/>
</a>
</g>
</g>
<!-- Node33 -->
<g id="Node000033" class="node">
<title>Node33</title>
<g id="a_Node000033"><a xlink:title=" ">
<polygon fill="#e0e0e0" stroke="#999999" points="1686.5,-184 1627.5,-184 1627.5,-165 1686.5,-165 1686.5,-184"/>
<text text-anchor="middle" x="1657" y="-172" font-family="Helvetica,sans-Serif" font-size="10.00">QVariant</text>
</a>
</g>
</g>
<!-- Node1&#45;&gt;Node33 -->
<g id="edge43_Node000001_Node000033" class="edge">
<title>Node1&#45;&gt;Node33</title>
<g id="a_edge43_Node000001_Node000033"><a xlink:title=" ">
<path fill="none" stroke="#63b8ff" d="M1372.22,-219.97C1435.1,-212.34 1527.85,-200.14 1617.15,-184.22"/>
<polygon fill="#63b8ff" stroke="#63b8ff" points="1617.96,-187.63 1627.18,-182.41 1616.71,-180.74 1617.96,-187.63"/>
</a>
</g>
</g>
<!-- Node34 -->
<g id="Node000034" class="node">
<title>Node34</title>
<g id="a_Node000034"><a xlink:title=" ">
<polygon fill="#e0e0e0" stroke="#999999" points="1779.5,-184 1704.5,-184 1704.5,-165 1779.5,-165 1779.5,-184"/>
<text text-anchor="middle" x="1742" y="-172" font-family="Helvetica,sans-Serif" font-size="10.00">QPrinterInfo</text>
</a>
</g>
</g>
<!-- Node1&#45;&gt;Node34 -->
<g id="edge44_Node000001_Node000034" class="edge">
<title>Node1&#45;&gt;Node34</title>
<g id="a_edge44_Node000001_Node000034"><a xlink:title=" ">
<path fill="none" stroke="#63b8ff" d="M1374.14,-221.62C1452.12,-214.2 1577.08,-201.28 1694.17,-184.18"/>
<polygon fill="#63b8ff" stroke="#63b8ff" points="1695,-187.6 1704.38,-182.68 1693.98,-180.67 1695,-187.6"/>
</a>
</g>
</g>
<!-- Node35 -->
<g id="Node000035" class="node">
<title>Node35</title>
<g id="a_Node000035"><a xlink:title=" ">
<polygon fill="#e0e0e0" stroke="#999999" points="1856.5,-184 1797.5,-184 1797.5,-165 1856.5,-165 1856.5,-184"/>
<text text-anchor="middle" x="1827" y="-172" font-family="Helvetica,sans-Serif" font-size="10.00">QtDebug</text>
</a>
</g>
</g>
<!-- Node1&#45;&gt;Node35 -->
<g id="edge45_Node000001_Node000035" class="edge">
<title>Node1&#45;&gt;Node35</title>
<g id="a_edge45_Node000001_Node000035"><a xlink:title=" ">
<path fill="none" stroke="#63b8ff" d="M1374.08,-224.67C1468.83,-219.22 1635.76,-207.35 1787.24,-184.1"/>
<polygon fill="#63b8ff" stroke="#63b8ff" points="1787.86,-187.54 1797.2,-182.55 1786.78,-180.63 1787.86,-187.54"/>
</a>
</g>
</g>
<!-- Node36 -->
<g id="Node000036" class="node">
<title>Node36</title>
<g id="a_Node000036"><a xlink:href="../../db/db3/vmath_8h.html" target="_top" xlink:title=" ">
<polygon fill="white" stroke="#666666" points="1973,-184 1875,-184 1875,-165 1973,-165 1973,-184"/>
<text text-anchor="middle" x="1924" y="-172" font-family="Helvetica,sans-Serif" font-size="10.00">../vmisc/vmath.h</text>
</a>
</g>
</g>
<!-- Node1&#45;&gt;Node36 -->
<g id="edge47_Node000001_Node000036" class="edge">
<title>Node1&#45;&gt;Node36</title>
<g id="a_edge47_Node000001_Node000036"><a xlink:title=" ">
<path fill="none" stroke="#63b8ff" d="M1374.41,-224.15C1481.64,-217.69 1683.1,-204.21 1864.96,-184.04"/>
<polygon fill="#63b8ff" stroke="#63b8ff" points="1865.43,-187.51 1874.98,-182.92 1864.66,-180.55 1865.43,-187.51"/>
</a>
</g>
</g>
<!-- Node3 -->
<g id="Node000003" class="node">
<title>Node3</title>
<g id="a_Node000003"><a xlink:title=" ">
<polygon fill="#e0e0e0" stroke="#999999" points="80,-74 0,-74 0,-55 80,-55 80,-74"/>
<text text-anchor="middle" x="40" y="-62" font-family="Helvetica,sans-Serif" font-size="10.00">QMetaObject</text>
</a>
</g>
</g>
<!-- Node2&#45;&gt;Node3 -->
<g id="edge2_Node000002_Node000003" class="edge">
<title>Node2&#45;&gt;Node3</title>
<g id="a_edge2_Node000002_Node000003"><a xlink:title=" ">
<path fill="none" stroke="#63b8ff" d="M475.12,-168.87C424.37,-162 328.93,-147.85 249,-129 186.43,-114.24 115.08,-91.19 74.01,-77.29"/>
<polygon fill="#63b8ff" stroke="#63b8ff" points="75.09,-73.96 64.5,-74.05 72.84,-80.59 75.09,-73.96"/>
</a>
</g>
</g>
<!-- Node4 -->
<g id="Node000004" class="node">
<title>Node4</title>
<g id="a_Node000004"><a xlink:title=" ">
<polygon fill="#e0e0e0" stroke="#999999" points="276,-74 220,-74 220,-55 276,-55 276,-74"/>
<text text-anchor="middle" x="248" y="-62" font-family="Helvetica,sans-Serif" font-size="10.00">QObject</text>
</a>
</g>
</g>
<!-- Node2&#45;&gt;Node4 -->
<g id="edge3_Node000002_Node000004" class="edge">
<title>Node2&#45;&gt;Node4</title>
<g id="a_edge3_Node000002_Node000004"><a xlink:title=" ">
<path fill="none" stroke="#63b8ff" d="M475.29,-167.84C440.03,-161.41 385.14,-149.11 341,-129 312.87,-116.18 284.01,-94.97 266.05,-80.63"/>
<polygon fill="#63b8ff" stroke="#63b8ff" points="268.13,-77.8 258.16,-74.2 263.71,-83.23 268.13,-77.8"/>
</a>
</g>
</g>
<!-- Node5 -->
<g id="Node000005" class="node">
<title>Node5</title>
<g id="a_Node000005"><a xlink:title=" ">
<polygon fill="#e0e0e0" stroke="#999999" points="550,-74 486,-74 486,-55 550,-55 550,-74"/>
<text text-anchor="middle" x="518" y="-62" font-family="Helvetica,sans-Serif" font-size="10.00">QSettings</text>
</a>
</g>
</g>
<!-- Node2&#45;&gt;Node5 -->
<g id="edge4_Node000002_Node000005" class="edge">
<title>Node2&#45;&gt;Node5</title>
<g id="a_edge4_Node000002_Node000005"><a xlink:title=" ">
<path fill="none" stroke="#63b8ff" d="M511.57,-164.66C512.71,-147.17 515.26,-107.8 516.78,-84.27"/>
<polygon fill="#63b8ff" stroke="#63b8ff" points="520.28,-84.36 517.44,-74.16 513.3,-83.91 520.28,-84.36"/>
</a>
</g>
</g>
<!-- Node6 -->
<g id="Node000006" class="node">
<title>Node6</title>
<g id="a_Node000006"><a xlink:title=" ">
<polygon fill="#e0e0e0" stroke="#999999" points="621.5,-74 568.5,-74 568.5,-55 621.5,-55 621.5,-74"/>
<text text-anchor="middle" x="595" y="-62" font-family="Helvetica,sans-Serif" font-size="10.00">QString</text>
</a>
</g>
</g>
<!-- Node2&#45;&gt;Node6 -->
<g id="edge5_Node000002_Node000006" class="edge">
<title>Node2&#45;&gt;Node6</title>
<g id="a_edge5_Node000002_Node000006"><a xlink:title=" ">
<path fill="none" stroke="#63b8ff" d="M515.26,-164.82C521.68,-152.15 534.63,-128.12 549,-110 557.35,-99.47 568.08,-88.95 577.08,-80.79"/>
<polygon fill="#63b8ff" stroke="#63b8ff" points="579.56,-83.27 584.73,-74.02 574.92,-78.03 579.56,-83.27"/>
</a>
</g>
</g>
<!-- Node7 -->
<g id="Node000007" class="node">
<title>Node7</title>
<g id="a_Node000007"><a xlink:title=" ">
<polygon fill="#e0e0e0" stroke="#999999" points="583.5,-19 524.5,-19 524.5,0 583.5,0 583.5,-19"/>
<text text-anchor="middle" x="554" y="-7" font-family="Helvetica,sans-Serif" font-size="10.00">QtGlobal</text>
</a>
</g>
</g>
<!-- Node2&#45;&gt;Node7 -->
<g id="edge6_Node000002_Node000007" class="edge">
<title>Node2&#45;&gt;Node7</title>
<g id="a_edge6_Node000002_Node000007"><a xlink:title=" ">
<path fill="none" stroke="#63b8ff" d="M546.73,-170.74C574.53,-166.5 611.39,-155.82 630,-129 648.75,-101.98 646.36,-83.53 630,-55 621.64,-40.42 606.45,-30.16 591.83,-23.19"/>
<polygon fill="#63b8ff" stroke="#63b8ff" points="592.95,-19.86 582.39,-19.08 590.16,-26.28 592.95,-19.86"/>
</a>
</g>
</g>
<!-- Node8 -->
<g id="Node000008" class="node">
<title>Node8</title>
<g id="a_Node000008"><a xlink:title=" ">
<polygon fill="#e0e0e0" stroke="#999999" points="621.5,-129 558.5,-129 558.5,-110 621.5,-110 621.5,-129"/>
<text text-anchor="middle" x="590" y="-117" font-family="Helvetica,sans-Serif" font-size="10.00">QMargins</text>
</a>
</g>
</g>
<!-- Node2&#45;&gt;Node8 -->
<g id="edge7_Node000002_Node000008" class="edge">
<title>Node2&#45;&gt;Node8</title>
<g id="a_edge7_Node000002_Node000008"><a xlink:title=" ">
<path fill="none" stroke="#63b8ff" d="M523.69,-164.98C535.83,-156.84 554.36,-144.41 568.75,-134.76"/>
<polygon fill="#63b8ff" stroke="#63b8ff" points="570.72,-137.65 577.08,-129.17 566.82,-131.84 570.72,-137.65"/>
</a>
</g>
</g>
<!-- Node2&#45;&gt;Node9 -->
<g id="edge8_Node000002_Node000009" class="edge">
<title>Node2&#45;&gt;Node9</title>
<g id="a_edge8_Node000002_Node000009"><a xlink:title=" ">
<path fill="none" stroke="#63b8ff" d="M546.76,-168.32C611.96,-158.88 750.34,-138.84 825.62,-127.94"/>
<polygon fill="#63b8ff" stroke="#63b8ff" points="826.42,-131.36 835.81,-126.46 825.41,-124.43 826.42,-131.36"/>
</a>
</g>
</g>
<!-- Node19 -->
<g id="Node000019" class="node">
<title>Node19</title>
<g id="a_Node000019"><a xlink:href="../../de/dec/vbank_8h.html" target="_top" xlink:title=" ">
<polygon fill="white" stroke="#666666" points="202,-74 98,-74 98,-55 202,-55 202,-74"/>
<text text-anchor="middle" x="150" y="-62" font-family="Helvetica,sans-Serif" font-size="10.00">../vlayout/vbank.h</text>
</a>
</g>
</g>
<!-- Node2&#45;&gt;Node19 -->
<g id="edge20_Node000002_Node000019" class="edge">
<title>Node2&#45;&gt;Node19</title>
<g id="a_edge20_Node000002_Node000019"><a xlink:title=" ">
<path fill="none" stroke="#63b8ff" d="M475.15,-167.73C433.66,-160.6 363.53,-147.16 305,-129 259.14,-114.77 207.95,-92.48 177.39,-78.45"/>
<polygon fill="#63b8ff" stroke="#63b8ff" points="178.77,-75.23 168.22,-74.2 175.83,-81.58 178.77,-75.23"/>
</a>
</g>
</g>
<!-- Node23 -->
<g id="Node000023" class="node">
<title>Node23</title>
<g id="a_Node000023"><a xlink:href="../../d4/d5c/vcommonsettings_8h.html" target="_top" xlink:title=" ">
<polygon fill="white" stroke="#666666" points="463.5,-129 350.5,-129 350.5,-110 463.5,-110 463.5,-129"/>
<text text-anchor="middle" x="407" y="-117" font-family="Helvetica,sans-Serif" font-size="10.00">vcommonsettings.h</text>
</a>
</g>
</g>
<!-- Node2&#45;&gt;Node23 -->
<g id="edge25_Node000002_Node000023" class="edge">
<title>Node2&#45;&gt;Node23</title>
<g id="a_edge25_Node000002_Node000023"><a xlink:title=" ">
<path fill="none" stroke="#63b8ff" d="M494.29,-164.98C477.79,-156.57 452.3,-143.59 433.12,-133.81"/>
<polygon fill="#63b8ff" stroke="#63b8ff" points="434.51,-130.59 424.01,-129.17 431.33,-136.83 434.51,-130.59"/>
</a>
</g>
</g>
<!-- Node9&#45;&gt;Node6 -->
<g id="edge12_Node000009_Node000006" class="edge">
<title>Node9&#45;&gt;Node6</title>
<g id="a_edge12_Node000009_Node000006"><a xlink:title=" ">
<path fill="none" stroke="#63b8ff" d="M835.99,-110.79C781,-100.46 684.2,-82.26 631.57,-72.37"/>
<polygon fill="#63b8ff" stroke="#63b8ff" points="632.13,-68.92 621.66,-70.51 630.84,-75.8 632.13,-68.92"/>
</a>
</g>
</g>
<!-- Node9&#45;&gt;Node7 -->
<g id="edge15_Node000009_Node000007" class="edge">
<title>Node9&#45;&gt;Node7</title>
<g id="a_edge15_Node000009_Node000007"><a xlink:title=" ">
<path fill="none" stroke="#63b8ff" d="M861.18,-109.82C831.11,-93.37 767.73,-58.93 757,-55 702.03,-34.86 635.2,-22.37 593.62,-15.93"/>
<polygon fill="#63b8ff" stroke="#63b8ff" points="594.02,-12.45 583.61,-14.42 592.98,-19.37 594.02,-12.45"/>
</a>
</g>
</g>
<!-- Node10 -->
<g id="Node000010" class="node">
<title>Node10</title>
<g id="a_Node000010"><a xlink:title=" ">
<polygon fill="#e0e0e0" stroke="#999999" points="1041,-74 921,-74 921,-55 1041,-55 1041,-74"/>
<text text-anchor="middle" x="981" y="-62" font-family="Helvetica,sans-Serif" font-size="10.00">qcompilerdetection.h</text>
</a>
</g>
</g>
<!-- Node9&#45;&gt;Node10 -->
<g id="edge9_Node000009_Node000010" class="edge">
<title>Node9&#45;&gt;Node10</title>
<g id="a_edge9_Node000009_Node000010"><a xlink:title=" ">
<path fill="none" stroke="#63b8ff" d="M893.71,-109.98C910.21,-101.57 935.7,-88.59 954.88,-78.81"/>
<polygon fill="#63b8ff" stroke="#63b8ff" points="956.67,-81.83 963.99,-74.17 953.49,-75.59 956.67,-81.83"/>
</a>
</g>
</g>
<!-- Node11 -->
<g id="Node000011" class="node">
<title>Node11</title>
<g id="a_Node000011"><a xlink:title=" ">
<polygon fill="#e0e0e0" stroke="#999999" points="1132.5,-74 1059.5,-74 1059.5,-55 1132.5,-55 1132.5,-74"/>
<text text-anchor="middle" x="1096" y="-62" font-family="Helvetica,sans-Serif" font-size="10.00">QFileDialog</text>
</a>
</g>
</g>
<!-- Node9&#45;&gt;Node11 -->
<g id="edge10_Node000009_Node000011" class="edge">
<title>Node9&#45;&gt;Node11</title>
<g id="a_edge10_Node000009_Node000011"><a xlink:title=" ">
<path fill="none" stroke="#63b8ff" d="M912.19,-109.98C949.83,-100.87 1009.66,-86.4 1050.77,-76.45"/>
<polygon fill="#63b8ff" stroke="#63b8ff" points="1051.64,-79.84 1060.54,-74.08 1050,-73.03 1051.64,-79.84"/>
</a>
</g>
</g>
<!-- Node12 -->
<g id="Node000012" class="node">
<title>Node12</title>
<g id="a_Node000012"><a xlink:title=" ">
<polygon fill="#e0e0e0" stroke="#999999" points="1201,-74 1151,-74 1151,-55 1201,-55 1201,-74"/>
<text text-anchor="middle" x="1176" y="-62" font-family="Helvetica,sans-Serif" font-size="10.00">QLineF</text>
</a>
</g>
</g>
<!-- Node9&#45;&gt;Node12 -->
<g id="edge11_Node000009_Node000012" class="edge">
<title>Node9&#45;&gt;Node12</title>
<g id="a_edge11_Node000009_Node000012"><a xlink:title=" ">
<path fill="none" stroke="#63b8ff" d="M918.22,-111.92C981.38,-101.78 1099.17,-82.59 1141,-74 1141.1,-73.98 1141.2,-73.96 1141.3,-73.94"/>
<polygon fill="#63b8ff" stroke="#63b8ff" points="1141.8,-77.41 1150.81,-71.84 1140.29,-70.58 1141.8,-77.41"/>
</a>
</g>
</g>
<!-- Node13 -->
<g id="Node000013" class="node">
<title>Node13</title>
<g id="a_Node000013"><a xlink:title=" ">
<polygon fill="#e0e0e0" stroke="#999999" points="748,-74 678,-74 678,-55 748,-55 748,-74"/>
<text text-anchor="middle" x="713" y="-62" font-family="Helvetica,sans-Serif" font-size="10.00">QStringList</text>
</a>
</g>
</g>
<!-- Node9&#45;&gt;Node13 -->
<g id="edge13_Node000009_Node000013" class="edge">
<title>Node9&#45;&gt;Node13</title>
<g id="a_edge13_Node000009_Node000013"><a xlink:title=" ">
<path fill="none" stroke="#63b8ff" d="M850.65,-109.98C823.24,-101.13 780.11,-87.19 749.44,-77.28"/>
<polygon fill="#63b8ff" stroke="#63b8ff" points="750.15,-73.83 739.56,-74.08 748,-80.49 750.15,-73.83"/>
</a>
</g>
</g>
<!-- Node14 -->
<g id="Node000014" class="node">
<title>Node14</title>
<g id="a_Node000014"><a xlink:title=" ">
<polygon fill="#e0e0e0" stroke="#999999" points="833.5,-74 804.5,-74 804.5,-55 833.5,-55 833.5,-74"/>
<text text-anchor="middle" x="819" y="-62" font-family="Helvetica,sans-Serif" font-size="10.00">Qt</text>
</a>
</g>
</g>
<!-- Node9&#45;&gt;Node14 -->
<g id="edge14_Node000009_Node000014" class="edge">
<title>Node9&#45;&gt;Node14</title>
<g id="a_edge14_Node000009_Node000014"><a xlink:title=" ">
<path fill="none" stroke="#63b8ff" d="M867.68,-109.98C859.19,-102.23 846.44,-90.58 836.12,-81.14"/>
<polygon fill="#63b8ff" stroke="#63b8ff" points="838.23,-78.33 828.49,-74.17 833.51,-83.5 838.23,-78.33"/>
</a>
</g>
</g>
<!-- Node9&#45;&gt;Node15 -->
<g id="edge16_Node000009_Node000015" class="edge">
<title>Node9&#45;&gt;Node15</title>
<g id="a_edge16_Node000009_Node000015"><a xlink:title=" ">
<path fill="none" stroke="#63b8ff" d="M918.11,-111.88C922.79,-111.2 927.49,-110.56 932,-110 1099.9,-89.07 1143.89,-100.52 1311,-74 1311.1,-73.98 1311.2,-73.97 1311.3,-73.95"/>
<polygon fill="#63b8ff" stroke="#63b8ff" points="1311.64,-77.45 1320.85,-72.21 1310.39,-70.56 1311.64,-77.45"/>
</a>
</g>
</g>
<!-- Node16 -->
<g id="Node000016" class="node">
<title>Node16</title>
<g id="a_Node000016"><a xlink:title=" ">
<polygon fill="#e0e0e0" stroke="#999999" points="902.5,-74 851.5,-74 851.5,-55 902.5,-55 902.5,-74"/>
<text text-anchor="middle" x="877" y="-62" font-family="Helvetica,sans-Serif" font-size="10.00">csignal</text>
</a>
</g>
</g>
<!-- Node9&#45;&gt;Node16 -->
<g id="edge17_Node000009_Node000016" class="edge">
<title>Node9&#45;&gt;Node16</title>
<g id="a_edge17_Node000009_Node000016"><a xlink:title=" ">
<path fill="none" stroke="#63b8ff" d="M877,-109.75C877,-102.8 877,-92.85 877,-84.13"/>
<polygon fill="#63b8ff" stroke="#63b8ff" points="880.5,-84.09 877,-74.09 873.5,-84.09 880.5,-84.09"/>
</a>
</g>
</g>
<!-- Node17 -->
<g id="Node000017" class="node">
<title>Node17</title>
<g id="a_Node000017"><a xlink:href="../../d4/d82/debugbreak_8h.html" target="_top" xlink:title=" ">
<polygon fill="white" stroke="#666666" points="1302.5,-74 1219.5,-74 1219.5,-55 1302.5,-55 1302.5,-74"/>
<text text-anchor="middle" x="1261" y="-62" font-family="Helvetica,sans-Serif" font-size="10.00">debugbreak.h</text>
</a>
</g>
</g>
<!-- Node9&#45;&gt;Node17 -->
<g id="edge18_Node000009_Node000017" class="edge">
<title>Node9&#45;&gt;Node17</title>
<g id="a_edge18_Node000009_Node000017"><a xlink:title=" ">
<path fill="none" stroke="#63b8ff" d="M918.13,-112.03C922.8,-111.33 927.5,-110.64 932,-110 1052.22,-92.93 1085.1,-92.27 1209.37,-74.04"/>
<polygon fill="#63b8ff" stroke="#63b8ff" points="1209.89,-77.5 1219.27,-72.58 1208.87,-70.58 1209.89,-77.5"/>
</a>
</g>
</g>
<!-- Node18 -->
<g id="Node000018" class="node">
<title>Node18</title>
<g id="a_Node000018"><a xlink:title=" ">
<polygon fill="#e0e0e0" stroke="#999999" points="1288.5,-19 1233.5,-19 1233.5,0 1288.5,0 1288.5,-19"/>
<text text-anchor="middle" x="1261" y="-7" font-family="Helvetica,sans-Serif" font-size="10.00">signal.h</text>
</a>
</g>
</g>
<!-- Node17&#45;&gt;Node18 -->
<g id="edge19_Node000017_Node000018" class="edge">
<title>Node17&#45;&gt;Node18</title>
<g id="a_edge19_Node000017_Node000018"><a xlink:title=" ">
<path fill="none" stroke="#63b8ff" d="M1261,-54.75C1261,-47.8 1261,-37.85 1261,-29.13"/>
<polygon fill="#63b8ff" stroke="#63b8ff" points="1264.5,-29.09 1261,-19.09 1257.5,-29.09 1264.5,-29.09"/>
</a>
</g>
</g>
<!-- Node19&#45;&gt;Node7 -->
<g id="edge24_Node000019_Node000007" class="edge">
<title>Node19&#45;&gt;Node7</title>
<g id="a_edge24_Node000019_Node000007"><a xlink:title=" ">
<path fill="none" stroke="#63b8ff" d="M202.24,-56.19C205.2,-55.78 208.14,-55.38 211,-55 320.65,-40.25 450.13,-23.68 514.1,-15.55"/>
<polygon fill="#63b8ff" stroke="#63b8ff" points="514.69,-19.01 524.17,-14.27 513.8,-12.06 514.69,-19.01"/>
</a>
</g>
</g>
<!-- Node20 -->
<g id="Node000020" class="node">
<title>Node20</title>
<g id="a_Node000020"><a xlink:title=" ">
<polygon fill="#e0e0e0" stroke="#999999" points="174.5,-19 125.5,-19 125.5,0 174.5,0 174.5,-19"/>
<text text-anchor="middle" x="150" y="-7" font-family="Helvetica,sans-Serif" font-size="10.00">QHash</text>
</a>
</g>
</g>
<!-- Node19&#45;&gt;Node20 -->
<g id="edge21_Node000019_Node000020" class="edge">
<title>Node19&#45;&gt;Node20</title>
<g id="a_edge21_Node000019_Node000020"><a xlink:title=" ">
<path fill="none" stroke="#63b8ff" d="M150,-54.75C150,-47.8 150,-37.85 150,-29.13"/>
<polygon fill="#63b8ff" stroke="#63b8ff" points="153.5,-29.09 150,-19.09 146.5,-29.09 153.5,-29.09"/>
</a>
</g>
</g>
<!-- Node21 -->
<g id="Node000021" class="node">
<title>Node21</title>
<g id="a_Node000021"><a xlink:title=" ">
<polygon fill="#e0e0e0" stroke="#999999" points="245,-19 193,-19 193,0 245,0 245,-19"/>
<text text-anchor="middle" x="219" y="-7" font-family="Helvetica,sans-Serif" font-size="10.00">QRectF</text>
</a>
</g>
</g>
<!-- Node19&#45;&gt;Node21 -->
<g id="edge22_Node000019_Node000021" class="edge">
<title>Node19&#45;&gt;Node21</title>
<g id="a_edge22_Node000019_Node000021"><a xlink:title=" ">
<path fill="none" stroke="#63b8ff" d="M161.09,-54.98C171.49,-47 187.26,-34.88 199.72,-25.31"/>
<polygon fill="#63b8ff" stroke="#63b8ff" points="201.91,-28.04 207.71,-19.17 197.65,-22.49 201.91,-28.04"/>
</a>
</g>
</g>
<!-- Node22 -->
<g id="Node000022" class="node">
<title>Node22</title>
<g id="a_Node000022"><a xlink:title=" ">
<polygon fill="#e0e0e0" stroke="#999999" points="107.5,-19 52.5,-19 52.5,0 107.5,0 107.5,-19"/>
<text text-anchor="middle" x="80" y="-7" font-family="Helvetica,sans-Serif" font-size="10.00">QVector</text>
</a>
</g>
</g>
<!-- Node19&#45;&gt;Node22 -->
<g id="edge23_Node000019_Node000022" class="edge">
<title>Node19&#45;&gt;Node22</title>
<g id="a_edge23_Node000019_Node000022"><a xlink:title=" ">
<path fill="none" stroke="#63b8ff" d="M138.75,-54.98C128.2,-47 112.2,-34.88 99.56,-25.31"/>
<polygon fill="#63b8ff" stroke="#63b8ff" points="101.54,-22.42 91.45,-19.17 97.31,-28 101.54,-22.42"/>
</a>
</g>
</g>
<!-- Node23&#45;&gt;Node3 -->
<g id="edge27_Node000023_Node000003" class="edge">
<title>Node23&#45;&gt;Node3</title>
<g id="a_edge27_Node000023_Node000003"><a xlink:title=" ">
<path fill="none" stroke="#63b8ff" d="M350.34,-111.14C288.79,-103.02 187.3,-89.25 90.09,-74.13"/>
<polygon fill="#63b8ff" stroke="#63b8ff" points="90.51,-70.65 80.09,-72.57 89.43,-77.57 90.51,-70.65"/>
</a>
</g>
</g>
<!-- Node23&#45;&gt;Node4 -->
<g id="edge28_Node000023_Node000004" class="edge">
<title>Node23&#45;&gt;Node4</title>
<g id="a_edge28_Node000023_Node000004"><a xlink:title=" ">
<path fill="none" stroke="#63b8ff" d="M381.45,-109.98C354.88,-101.13 313.06,-87.19 283.33,-77.28"/>
<polygon fill="#63b8ff" stroke="#63b8ff" points="284.34,-73.92 273.75,-74.08 282.13,-80.56 284.34,-73.92"/>
</a>
</g>
</g>
<!-- Node23&#45;&gt;Node5 -->
<g id="edge29_Node000023_Node000005" class="edge">
<title>Node23&#45;&gt;Node5</title>
<g id="a_edge29_Node000023_Node000005"><a xlink:title=" ">
<path fill="none" stroke="#63b8ff" d="M424.83,-109.98C442.61,-101.5 470.15,-88.35 490.68,-78.54"/>
<polygon fill="#63b8ff" stroke="#63b8ff" points="492.33,-81.64 499.84,-74.17 489.31,-75.32 492.33,-81.64"/>
</a>
</g>
</g>
<!-- Node23&#45;&gt;Node6 -->
<g id="edge31_Node000023_Node000006" class="edge">
<title>Node23&#45;&gt;Node6</title>
<g id="a_edge31_Node000023_Node000006"><a xlink:title=" ">
<path fill="none" stroke="#63b8ff" d="M437.21,-109.98C470.18,-100.69 522.97,-85.81 558.3,-75.85"/>
<polygon fill="#63b8ff" stroke="#63b8ff" points="559.54,-79.13 568.22,-73.05 557.64,-72.39 559.54,-79.13"/>
</a>
</g>
</g>
<!-- Node23&#45;&gt;Node7 -->
<g id="edge33_Node000023_Node000007" class="edge">
<title>Node23&#45;&gt;Node7</title>
<g id="a_edge33_Node000023_Node000007"><a xlink:title=" ">
<path fill="none" stroke="#63b8ff" d="M415.54,-109.64C428.23,-96.73 453.14,-72.41 477,-55 493.11,-43.24 512.57,-32.02 527.9,-23.79"/>
<polygon fill="#63b8ff" stroke="#63b8ff" points="529.63,-26.83 536.84,-19.07 526.36,-20.64 529.63,-26.83"/>
</a>
</g>
</g>
<!-- Node23&#45;&gt;Node13 -->
<g id="edge32_Node000023_Node000013" class="edge">
<title>Node23&#45;&gt;Node13</title>
<g id="a_edge32_Node000023_Node000013"><a xlink:title=" ">
<path fill="none" stroke="#63b8ff" d="M456.16,-109.98C514.53,-99.87 611.08,-83.15 667.7,-73.35"/>
<polygon fill="#63b8ff" stroke="#63b8ff" points="668.53,-76.75 677.79,-71.6 667.34,-69.86 668.53,-76.75"/>
</a>
</g>
</g>
<!-- Node23&#45;&gt;Node19 -->
<g id="edge34_Node000023_Node000019" class="edge">
<title>Node23&#45;&gt;Node19</title>
<g id="a_edge34_Node000023_Node000019"><a xlink:title=" ">
<path fill="none" stroke="#63b8ff" d="M365.71,-109.98C321.07,-100.78 249.84,-86.09 201.55,-76.13"/>
<polygon fill="#63b8ff" stroke="#63b8ff" points="202.12,-72.67 191.62,-74.08 200.7,-79.53 202.12,-72.67"/>
</a>
</g>
</g>
<!-- Node24 -->
<g id="Node000024" class="node">
<title>Node24</title>
<g id="a_Node000024"><a xlink:title=" ">
<polygon fill="#e0e0e0" stroke="#999999" points="367.5,-74 294.5,-74 294.5,-55 367.5,-55 367.5,-74"/>
<text text-anchor="middle" x="331" y="-62" font-family="Helvetica,sans-Serif" font-size="10.00">QByteArray</text>
</a>
</g>
</g>
<!-- Node23&#45;&gt;Node24 -->
<g id="edge26_Node000023_Node000024" class="edge">
<title>Node23&#45;&gt;Node24</title>
<g id="a_edge26_Node000023_Node000024"><a xlink:title=" ">
<path fill="none" stroke="#63b8ff" d="M394.79,-109.98C383.22,-101.92 365.62,-89.65 351.84,-80.03"/>
<polygon fill="#63b8ff" stroke="#63b8ff" points="353.64,-77.02 343.43,-74.17 349.63,-82.76 353.64,-77.02"/>
</a>
</g>
</g>
<!-- Node25 -->
<g id="Node000025" class="node">
<title>Node25</title>
<g id="a_Node000025"><a xlink:title=" ">
<polygon fill="#e0e0e0" stroke="#999999" points="430,-74 386,-74 386,-55 430,-55 430,-74"/>
<text text-anchor="middle" x="408" y="-62" font-family="Helvetica,sans-Serif" font-size="10.00">QSize</text>
</a>
</g>
</g>
<!-- Node23&#45;&gt;Node25 -->
<g id="edge30_Node000023_Node000025" class="edge">
<title>Node23&#45;&gt;Node25</title>
<g id="a_edge30_Node000023_Node000025"><a xlink:title=" ">
<path fill="none" stroke="#63b8ff" d="M407.17,-109.75C407.3,-102.8 407.48,-92.85 407.65,-84.13"/>
<polygon fill="#63b8ff" stroke="#63b8ff" points="411.15,-84.15 407.84,-74.09 404.15,-84.02 411.15,-84.15"/>
</a>
</g>
</g>
<!-- Node37 -->
<g id="Node000037" class="node">
<title>Node37</title>
<g id="a_Node000037"><a xlink:title=" ">
<polygon fill="#e0e0e0" stroke="#999999" points="1950.5,-129 1897.5,-129 1897.5,-110 1950.5,-110 1950.5,-129"/>
<text text-anchor="middle" x="1924" y="-117" font-family="Helvetica,sans-Serif" font-size="10.00">QtMath</text>
</a>
</g>
</g>
<!-- Node36&#45;&gt;Node37 -->
<g id="edge48_Node000036_Node000037" class="edge">
<title>Node36&#45;&gt;Node37</title>
<g id="a_edge48_Node000036_Node000037"><a xlink:title=" ">
<path fill="none" stroke="#63b8ff" d="M1924,-164.75C1924,-157.8 1924,-147.85 1924,-139.13"/>
<polygon fill="#63b8ff" stroke="#63b8ff" points="1927.5,-139.09 1924,-129.09 1920.5,-139.09 1927.5,-139.09"/>
</a>
</g>
</g>
</g>
</svg>

<g id="navigator" transform="translate(0 0)" fill="#404254">
  <rect fill="#f2f5e9" fill-opacity="0.5" stroke="#606060" stroke-width=".5" x="0" y="0" width="60" height="60"/>
  <use id="zoomplus" xlink:href="#zoomPlus" x="17" y="9" onmousedown="handleZoom(evt,'in')"/>
  <use id="zoomminus" xlink:href="#zoomMin" x="42" y="9" onmousedown="handleZoom(evt,'out')"/>
  <use id="reset" xlink:href="#resetDef" x="30" y="36" onmousedown="handleReset()"/>
   <use id="arrowup" xlink:href="#arrowUp" x="0" y="0" onmousedown="handlePan(0,-1)"/>
  <use id="arrowright" xlink:href="#arrowRight" x="0" y="0" onmousedown="handlePan(1,0)"/>
  <use id="arrowdown" xlink:href="#arrowDown" x="0" y="0" onmousedown="handlePan(0,1)"/>
  <use id="arrowleft" xlink:href="#arrowLeft" x="0" y="0" onmousedown="handlePan(-1,0)"/>
</g>
<svg viewBox="0 0 15 15" width="100%" height="30px" preserveAspectRatio="xMaxYMin meet">
 <g id="arrow_out" transform="scale(0.3 0.3)">
  <a xlink:href="vsettings_8cpp__incl_org.svg" target="_base">
   <rect id="button" ry="5" rx="5" y="6" x="6" height="38" width="38"
        fill="#f2f5e9" fill-opacity="0.5" stroke="#606060" stroke-width="1.0"/>
   <path id="arrow"
     d="M 11.500037,31.436501 C 11.940474,20.09759 22.043105,11.32322 32.158766,21.979434 L 37.068811,17.246167 C 37.068811,17.246167 37.088388,32 37.088388,32 L 22.160133,31.978069 C 22.160133,31.978069 26.997745,27.140456 26.997745,27.140456 C 18.528582,18.264221 13.291696,25.230495 11.500037,31.436501 z"
     style="fill:#404040;"/>
  </a>
 </g>
</svg>

<style type='text/css'>
<![CDATA[
[data-mouse-over-selected='false'] { opacity: 0.7; }
[data-mouse-over-selected='true']  { opacity: 1.0; }
]]>
</style>
<script type="application/ecmascript"><![CDATA[
document.addEventListener('DOMContentLoaded', (event) => {
  highlightEdges();
  highlightAdjacentNodes();
});
]]></script>
</svg>
