<?xml version="1.0" encoding="UTF-8" standalone="no"?>
<!DOCTYPE svg PUBLIC "-//W3C//DTD SVG 1.1//EN"
 "http://www.w3.org/Graphics/SVG/1.1/DTD/svg11.dtd">
<!-- Generated by graphviz version 2.43.0 (0)
 -->
<!-- Title: src/libs/vgeometry/vabstractbezier.h Pages: 1 -->
<svg width="1310pt" height="313pt"
 viewBox="0.00 0.00 1310.20 313.00" xmlns="http://www.w3.org/2000/svg" xmlns:xlink="http://www.w3.org/1999/xlink">
<g id="graph0" class="graph" transform="scale(1 1) rotate(0) translate(4 309)">
<title>src/libs/vgeometry/vabstractbezier.h</title>
<!-- Node1 -->
<g id="Node000001" class="node">
<title>Node1</title>
<g id="a_Node000001"><a xlink:title=" ">
<polygon fill="#999999" stroke="#666666" points="1170.5,-305 1063.5,-305 1063.5,-275 1170.5,-275 1170.5,-305"/>
<text text-anchor="start" x="1071.5" y="-293" font-family="Helvetica,sans-Serif" font-size="10.00">src/libs/vgeometry</text>
<text text-anchor="middle" x="1117" y="-282" font-family="Helvetica,sans-Serif" font-size="10.00">/vabstractbezier.h</text>
</a>
</g>
</g>
<!-- Node2 -->
<g id="Node000002" class="node">
<title>Node2</title>
<g id="a_Node000002"><a xlink:title=" ">
<polygon fill="#e0e0e0" stroke="#999999" points="808.5,-74 749.5,-74 749.5,-55 808.5,-55 808.5,-74"/>
<text text-anchor="middle" x="779" y="-62" font-family="Helvetica,sans-Serif" font-size="10.00">QtGlobal</text>
</a>
</g>
</g>
<!-- Node1&#45;&gt;Node2 -->
<g id="edge1_Node000001_Node000002" class="edge">
<title>Node1&#45;&gt;Node2</title>
<g id="a_edge1_Node000001_Node000002"><a xlink:title=" ">
<path fill="none" stroke="#63b8ff" d="M1149.18,-274.81C1213.1,-244.77 1345.2,-172.42 1288,-110 1256.47,-75.6 932.86,-67.68 818.65,-65.96"/>
<polygon fill="#63b8ff" stroke="#63b8ff" points="818.63,-62.46 808.58,-65.81 818.53,-69.46 818.63,-62.46"/>
</a>
</g>
</g>
<!-- Node3 -->
<g id="Node000003" class="node">
<title>Node3</title>
<g id="a_Node000003"><a xlink:href="../../d5/d82/vabstractcurve_8h.html" target="_top" xlink:title=" ">
<polygon fill="white" stroke="#666666" points="1007,-239 909,-239 909,-220 1007,-220 1007,-239"/>
<text text-anchor="middle" x="958" y="-227" font-family="Helvetica,sans-Serif" font-size="10.00">vabstractcurve.h</text>
</a>
</g>
</g>
<!-- Node1&#45;&gt;Node3 -->
<g id="edge2_Node000001_Node000003" class="edge">
<title>Node1&#45;&gt;Node3</title>
<g id="a_edge2_Node000001_Node000003"><a xlink:title=" ">
<path fill="none" stroke="#63b8ff" d="M1078.92,-274.99C1052.15,-265.14 1016.7,-252.1 991.11,-242.68"/>
<polygon fill="#63b8ff" stroke="#63b8ff" points="992.07,-239.31 981.48,-239.14 989.66,-245.88 992.07,-239.31"/>
</a>
</g>
</g>
<!-- Node3&#45;&gt;Node2 -->
<g id="edge9_Node000003_Node000002" class="edge">
<title>Node3&#45;&gt;Node2</title>
<g id="a_edge9_Node000003_Node000002"><a xlink:title=" ">
<path fill="none" stroke="#63b8ff" d="M908.74,-221.98C855.89,-212.07 774.52,-187.67 737,-129 726.31,-112.28 742.62,-93.32 757.92,-80.51"/>
<polygon fill="#63b8ff" stroke="#63b8ff" points="760.43,-82.99 766.15,-74.07 756.12,-77.48 760.43,-82.99"/>
</a>
</g>
</g>
<!-- Node4 -->
<g id="Node000004" class="node">
<title>Node4</title>
<g id="a_Node000004"><a xlink:title=" ">
<polygon fill="#e0e0e0" stroke="#999999" points="120,-74 0,-74 0,-55 120,-55 120,-74"/>
<text text-anchor="middle" x="60" y="-62" font-family="Helvetica,sans-Serif" font-size="10.00">qcompilerdetection.h</text>
</a>
</g>
</g>
<!-- Node3&#45;&gt;Node4 -->
<g id="edge3_Node000003_Node000004" class="edge">
<title>Node3&#45;&gt;Node4</title>
<g id="a_edge3_Node000003_Node000004"><a xlink:title=" ">
<path fill="none" stroke="#63b8ff" d="M908.85,-227.83C816.12,-225.79 609.37,-217.52 439,-184 306.73,-157.97 155.4,-102.57 91.3,-77.85"/>
<polygon fill="#63b8ff" stroke="#63b8ff" points="92.37,-74.51 81.78,-74.16 89.84,-81.04 92.37,-74.51"/>
</a>
</g>
</g>
<!-- Node5 -->
<g id="Node000005" class="node">
<title>Node5</title>
<g id="a_Node000005"><a xlink:title=" ">
<polygon fill="#e0e0e0" stroke="#999999" points="1148.5,-184 1093.5,-184 1093.5,-165 1148.5,-165 1148.5,-184"/>
<text text-anchor="middle" x="1121" y="-172" font-family="Helvetica,sans-Serif" font-size="10.00">QPointF</text>
</a>
</g>
</g>
<!-- Node3&#45;&gt;Node5 -->
<g id="edge4_Node000003_Node000005" class="edge">
<title>Node3&#45;&gt;Node5</title>
<g id="a_edge4_Node000003_Node000005"><a xlink:title=" ">
<path fill="none" stroke="#63b8ff" d="M984.19,-219.98C1011.44,-211.13 1054.3,-197.19 1084.78,-187.28"/>
<polygon fill="#63b8ff" stroke="#63b8ff" points="1086.18,-190.5 1094.61,-184.08 1084.01,-183.85 1086.18,-190.5"/>
</a>
</g>
</g>
<!-- Node6 -->
<g id="Node000006" class="node">
<title>Node6</title>
<g id="a_Node000006"><a xlink:title=" ">
<polygon fill="#e0e0e0" stroke="#999999" points="862,-129 746,-129 746,-110 862,-110 862,-129"/>
<text text-anchor="middle" x="804" y="-117" font-family="Helvetica,sans-Serif" font-size="10.00">QSharedDataPointer</text>
</a>
</g>
</g>
<!-- Node3&#45;&gt;Node6 -->
<g id="edge5_Node000003_Node000006" class="edge">
<title>Node3&#45;&gt;Node6</title>
<g id="a_edge5_Node000003_Node000006"><a xlink:title=" ">
<path fill="none" stroke="#63b8ff" d="M942.33,-219.86C927.09,-211.28 903.47,-197.49 884,-184 861.87,-168.66 837.84,-149.17 821.95,-135.85"/>
<polygon fill="#63b8ff" stroke="#63b8ff" points="823.93,-132.94 814.03,-129.16 819.41,-138.29 823.93,-132.94"/>
</a>
</g>
</g>
<!-- Node7 -->
<g id="Node000007" class="node">
<title>Node7</title>
<g id="a_Node000007"><a xlink:title=" ">
<polygon fill="#e0e0e0" stroke="#999999" points="731.5,-74 678.5,-74 678.5,-55 731.5,-55 731.5,-74"/>
<text text-anchor="middle" x="705" y="-62" font-family="Helvetica,sans-Serif" font-size="10.00">QString</text>
</a>
</g>
</g>
<!-- Node3&#45;&gt;Node7 -->
<g id="edge6_Node000003_Node000007" class="edge">
<title>Node3&#45;&gt;Node7</title>
<g id="a_edge6_Node000003_Node000007"><a xlink:title=" ">
<path fill="none" stroke="#63b8ff" d="M908.85,-226.65C868.01,-222.98 810,-212.62 768,-184 733.29,-160.35 716.23,-111.26 709.17,-84.27"/>
<polygon fill="#63b8ff" stroke="#63b8ff" points="712.48,-83.1 706.73,-74.2 705.68,-84.74 712.48,-83.1"/>
</a>
</g>
</g>
<!-- Node8 -->
<g id="Node000008" class="node">
<title>Node8</title>
<g id="a_Node000008"><a xlink:title=" ">
<polygon fill="#e0e0e0" stroke="#999999" points="1021.5,-129 956.5,-129 956.5,-110 1021.5,-110 1021.5,-129"/>
<text text-anchor="middle" x="989" y="-117" font-family="Helvetica,sans-Serif" font-size="10.00">QTypeInfo</text>
</a>
</g>
</g>
<!-- Node3&#45;&gt;Node8 -->
<g id="edge7_Node000003_Node000008" class="edge">
<title>Node3&#45;&gt;Node8</title>
<g id="a_edge7_Node000003_Node000008"><a xlink:title=" ">
<path fill="none" stroke="#63b8ff" d="M960.54,-219.66C965.58,-202.09 976.96,-162.45 983.7,-138.95"/>
<polygon fill="#63b8ff" stroke="#63b8ff" points="987.12,-139.74 986.51,-129.16 980.39,-137.8 987.12,-139.74"/>
</a>
</g>
</g>
<!-- Node9 -->
<g id="Node000009" class="node">
<title>Node9</title>
<g id="a_Node000009"><a xlink:title=" ">
<polygon fill="#e0e0e0" stroke="#999999" points="1094.5,-129 1039.5,-129 1039.5,-110 1094.5,-110 1094.5,-129"/>
<text text-anchor="middle" x="1067" y="-117" font-family="Helvetica,sans-Serif" font-size="10.00">QVector</text>
</a>
</g>
</g>
<!-- Node3&#45;&gt;Node9 -->
<g id="edge8_Node000003_Node000009" class="edge">
<title>Node3&#45;&gt;Node9</title>
<g id="a_edge8_Node000003_Node000009"><a xlink:title=" ">
<path fill="none" stroke="#63b8ff" d="M966.92,-219.66C985.29,-201.46 1027.59,-159.55 1050.88,-136.47"/>
<polygon fill="#63b8ff" stroke="#63b8ff" points="1053.62,-138.68 1058.26,-129.16 1048.69,-133.71 1053.62,-138.68"/>
</a>
</g>
</g>
<!-- Node10 -->
<g id="Node000010" class="node">
<title>Node10</title>
<g id="a_Node000010"><a xlink:href="../../d3/da5/ifcdef_8h.html" target="_top" xlink:title=" ">
<polygon fill="white" stroke="#666666" points="525.5,-184 448.5,-184 448.5,-165 525.5,-165 525.5,-184"/>
<text text-anchor="middle" x="487" y="-172" font-family="Helvetica,sans-Serif" font-size="10.00">../ifc/ifcdef.h</text>
</a>
</g>
</g>
<!-- Node3&#45;&gt;Node10 -->
<g id="edge10_Node000003_Node000010" class="edge">
<title>Node3&#45;&gt;Node10</title>
<g id="a_edge10_Node000003_Node000010"><a xlink:title=" ">
<path fill="none" stroke="#63b8ff" d="M908.93,-222.98C818.29,-212.78 625.68,-191.11 535.49,-180.96"/>
<polygon fill="#63b8ff" stroke="#63b8ff" points="535.86,-177.48 525.53,-179.84 535.07,-184.43 535.86,-177.48"/>
</a>
</g>
</g>
<!-- Node21 -->
<g id="Node000021" class="node">
<title>Node21</title>
<g id="a_Node000021"><a xlink:href="../../db/db3/vmath_8h.html" target="_top" xlink:title=" ">
<polygon fill="white" stroke="#666666" points="1272,-184 1174,-184 1174,-165 1272,-165 1272,-184"/>
<text text-anchor="middle" x="1223" y="-172" font-family="Helvetica,sans-Serif" font-size="10.00">../vmisc/vmath.h</text>
</a>
</g>
</g>
<!-- Node3&#45;&gt;Node21 -->
<g id="edge28_Node000003_Node000021" class="edge">
<title>Node3&#45;&gt;Node21</title>
<g id="a_edge28_Node000003_Node000021"><a xlink:title=" ">
<path fill="none" stroke="#63b8ff" d="M1000.58,-219.98C1046.7,-210.76 1120.36,-196.03 1170.16,-186.07"/>
<polygon fill="#63b8ff" stroke="#63b8ff" points="1170.97,-189.48 1180.09,-184.08 1169.6,-182.61 1170.97,-189.48"/>
</a>
</g>
</g>
<!-- Node23 -->
<g id="Node000023" class="node">
<title>Node23</title>
<g id="a_Node000023"><a xlink:href="../../d5/d9d/vgeometrydef_8h.html" target="_top" xlink:title=" ">
<polygon fill="white" stroke="#666666" points="1207,-129 1113,-129 1113,-110 1207,-110 1207,-129"/>
<text text-anchor="middle" x="1160" y="-117" font-family="Helvetica,sans-Serif" font-size="10.00">vgeometrydef.h</text>
</a>
</g>
</g>
<!-- Node3&#45;&gt;Node23 -->
<g id="edge30_Node000003_Node000023" class="edge">
<title>Node3&#45;&gt;Node23</title>
<g id="a_edge30_Node000003_Node000023"><a xlink:title=" ">
<path fill="none" stroke="#63b8ff" d="M974.19,-219.84C1009.37,-201.04 1092.98,-156.33 1135,-133.87"/>
<polygon fill="#63b8ff" stroke="#63b8ff" points="1136.85,-136.85 1144.01,-129.05 1133.55,-130.68 1136.85,-136.85"/>
</a>
</g>
</g>
<!-- Node24 -->
<g id="Node000024" class="node">
<title>Node24</title>
<g id="a_Node000024"><a xlink:href="../../d2/d07/vgobject_8h.html" target="_top" xlink:title=" ">
<polygon fill="white" stroke="#666666" points="961,-184 893,-184 893,-165 961,-165 961,-184"/>
<text text-anchor="middle" x="927" y="-172" font-family="Helvetica,sans-Serif" font-size="10.00">vgobject.h</text>
</a>
</g>
</g>
<!-- Node3&#45;&gt;Node24 -->
<g id="edge31_Node000003_Node000024" class="edge">
<title>Node3&#45;&gt;Node24</title>
<g id="a_edge31_Node000003_Node000024"><a xlink:title=" ">
<path fill="none" stroke="#63b8ff" d="M952.88,-219.75C948.64,-212.49 942.47,-201.95 937.22,-192.98"/>
<polygon fill="#63b8ff" stroke="#63b8ff" points="940.09,-190.95 932.02,-184.09 934.05,-194.49 940.09,-190.95"/>
</a>
</g>
</g>
<!-- Node10&#45;&gt;Node2 -->
<g id="edge13_Node000010_Node000002" class="edge">
<title>Node10&#45;&gt;Node2</title>
<g id="a_edge13_Node000010_Node000002"><a xlink:title=" ">
<path fill="none" stroke="#63b8ff" d="M489.54,-164.87C494.14,-150.89 505.26,-123.47 525,-110 602.45,-57.16 642.25,-90.04 739.33,-73.92"/>
<polygon fill="#63b8ff" stroke="#63b8ff" points="740,-77.36 749.22,-72.15 738.76,-70.47 740,-77.36"/>
</a>
</g>
</g>
<!-- Node10&#45;&gt;Node7 -->
<g id="edge11_Node000010_Node000007" class="edge">
<title>Node10&#45;&gt;Node7</title>
<g id="a_edge11_Node000010_Node000007"><a xlink:title=" ">
<path fill="none" stroke="#63b8ff" d="M484.76,-164.87C481.83,-151.38 478.52,-125.24 492,-110 543.12,-52.23 587.03,-88.15 668.2,-73.9"/>
<polygon fill="#63b8ff" stroke="#63b8ff" points="669.15,-77.28 678.28,-71.91 667.8,-70.41 669.15,-77.28"/>
</a>
</g>
</g>
<!-- Node11 -->
<g id="Node000011" class="node">
<title>Node11</title>
<g id="a_Node000011"><a xlink:title=" ">
<polygon fill="#e0e0e0" stroke="#999999" points="208,-74 138,-74 138,-55 208,-55 208,-74"/>
<text text-anchor="middle" x="173" y="-62" font-family="Helvetica,sans-Serif" font-size="10.00">QStringList</text>
</a>
</g>
</g>
<!-- Node10&#45;&gt;Node11 -->
<g id="edge12_Node000010_Node000011" class="edge">
<title>Node10&#45;&gt;Node11</title>
<g id="a_edge12_Node000010_Node000011"><a xlink:title=" ">
<path fill="none" stroke="#63b8ff" d="M459.68,-164.99C431.77,-156.23 387.23,-142.06 349,-129 298.78,-111.85 240.98,-90.73 205.73,-77.69"/>
<polygon fill="#63b8ff" stroke="#63b8ff" points="206.57,-74.27 195.97,-74.07 204.14,-80.83 206.57,-74.27"/>
</a>
</g>
</g>
<!-- Node12 -->
<g id="Node000012" class="node">
<title>Node12</title>
<g id="a_Node000012"><a xlink:href="../../d4/da4/def_8h.html" target="_top" xlink:title=" ">
<polygon fill="white" stroke="#666666" points="440,-129 358,-129 358,-110 440,-110 440,-129"/>
<text text-anchor="middle" x="399" y="-117" font-family="Helvetica,sans-Serif" font-size="10.00">../vmisc/def.h</text>
</a>
</g>
</g>
<!-- Node10&#45;&gt;Node12 -->
<g id="edge14_Node000010_Node000012" class="edge">
<title>Node10&#45;&gt;Node12</title>
<g id="a_edge14_Node000010_Node000012"><a xlink:title=" ">
<path fill="none" stroke="#63b8ff" d="M472.86,-164.98C459.21,-156.77 438.31,-144.18 422.22,-134.49"/>
<polygon fill="#63b8ff" stroke="#63b8ff" points="423.77,-131.33 413.4,-129.17 420.16,-137.33 423.77,-131.33"/>
</a>
</g>
</g>
<!-- Node20 -->
<g id="Node000020" class="node">
<title>Node20</title>
<g id="a_Node000020"><a xlink:href="../../d6/dcd/diagnostic_8h.html" target="_top" xlink:title=" ">
<polygon fill="white" stroke="#666666" points="651.5,-129 534.5,-129 534.5,-110 651.5,-110 651.5,-129"/>
<text text-anchor="middle" x="593" y="-117" font-family="Helvetica,sans-Serif" font-size="10.00">../vmisc/diagnostic.h</text>
</a>
</g>
</g>
<!-- Node10&#45;&gt;Node20 -->
<g id="edge26_Node000010_Node000020" class="edge">
<title>Node10&#45;&gt;Node20</title>
<g id="a_edge26_Node000010_Node000020"><a xlink:title=" ">
<path fill="none" stroke="#63b8ff" d="M504.03,-164.98C520.93,-156.54 547.06,-143.47 566.64,-133.68"/>
<polygon fill="#63b8ff" stroke="#63b8ff" points="568.28,-136.77 575.66,-129.17 565.15,-130.51 568.28,-136.77"/>
</a>
</g>
</g>
<!-- Node12&#45;&gt;Node2 -->
<g id="edge21_Node000012_Node000002" class="edge">
<title>Node12&#45;&gt;Node2</title>
<g id="a_edge21_Node000012_Node000002"><a xlink:title=" ">
<path fill="none" stroke="#63b8ff" d="M440.11,-114.27C502.54,-107.61 625.16,-93.55 739.29,-73.98"/>
<polygon fill="#63b8ff" stroke="#63b8ff" points="739.98,-77.41 749.24,-72.26 738.79,-70.52 739.98,-77.41"/>
</a>
</g>
</g>
<!-- Node12&#45;&gt;Node4 -->
<g id="edge15_Node000012_Node000004" class="edge">
<title>Node12&#45;&gt;Node4</title>
<g id="a_edge15_Node000012_Node000004"><a xlink:title=" ">
<path fill="none" stroke="#63b8ff" d="M357.77,-112.05C299.78,-102.99 193.56,-86.38 124.91,-75.65"/>
<polygon fill="#63b8ff" stroke="#63b8ff" points="125.07,-72.13 114.65,-74.04 123.99,-79.05 125.07,-72.13"/>
</a>
</g>
</g>
<!-- Node12&#45;&gt;Node7 -->
<g id="edge18_Node000012_Node000007" class="edge">
<title>Node12&#45;&gt;Node7</title>
<g id="a_edge18_Node000012_Node000007"><a xlink:title=" ">
<path fill="none" stroke="#63b8ff" d="M440.1,-112.08C500.66,-102.56 611.92,-84.85 668.42,-73.97"/>
<polygon fill="#63b8ff" stroke="#63b8ff" points="669.17,-77.39 678.31,-72.02 667.82,-70.52 669.17,-77.39"/>
</a>
</g>
</g>
<!-- Node12&#45;&gt;Node11 -->
<g id="edge19_Node000012_Node000011" class="edge">
<title>Node12&#45;&gt;Node11</title>
<g id="a_edge19_Node000012_Node000011"><a xlink:title=" ">
<path fill="none" stroke="#63b8ff" d="M362.69,-109.98C323.3,-100.75 260.37,-85.99 217.9,-76.03"/>
<polygon fill="#63b8ff" stroke="#63b8ff" points="218.64,-72.61 208.11,-73.73 217.04,-79.42 218.64,-72.61"/>
</a>
</g>
</g>
<!-- Node13 -->
<g id="Node000013" class="node">
<title>Node13</title>
<g id="a_Node000013"><a xlink:title=" ">
<polygon fill="#e0e0e0" stroke="#999999" points="591.5,-74 518.5,-74 518.5,-55 591.5,-55 591.5,-74"/>
<text text-anchor="middle" x="555" y="-62" font-family="Helvetica,sans-Serif" font-size="10.00">QFileDialog</text>
</a>
</g>
</g>
<!-- Node12&#45;&gt;Node13 -->
<g id="edge16_Node000012_Node000013" class="edge">
<title>Node12&#45;&gt;Node13</title>
<g id="a_edge16_Node000012_Node000013"><a xlink:title=" ">
<path fill="none" stroke="#63b8ff" d="M424.06,-109.98C450.03,-101.16 490.81,-87.31 519.96,-77.41"/>
<polygon fill="#63b8ff" stroke="#63b8ff" points="521.4,-80.61 529.74,-74.08 519.15,-73.99 521.4,-80.61"/>
</a>
</g>
</g>
<!-- Node14 -->
<g id="Node000014" class="node">
<title>Node14</title>
<g id="a_Node000014"><a xlink:title=" ">
<polygon fill="#e0e0e0" stroke="#999999" points="660,-74 610,-74 610,-55 660,-55 660,-74"/>
<text text-anchor="middle" x="635" y="-62" font-family="Helvetica,sans-Serif" font-size="10.00">QLineF</text>
</a>
</g>
</g>
<!-- Node12&#45;&gt;Node14 -->
<g id="edge17_Node000012_Node000014" class="edge">
<title>Node12&#45;&gt;Node14</title>
<g id="a_edge17_Node000012_Node000014"><a xlink:title=" ">
<path fill="none" stroke="#63b8ff" d="M438.72,-109.96C479.3,-101.17 544.12,-86.97 600,-74 600.1,-73.98 600.2,-73.95 600.3,-73.93"/>
<polygon fill="#63b8ff" stroke="#63b8ff" points="600.85,-77.4 609.78,-71.69 599.24,-70.58 600.85,-77.4"/>
</a>
</g>
</g>
<!-- Node15 -->
<g id="Node000015" class="node">
<title>Node15</title>
<g id="a_Node000015"><a xlink:title=" ">
<polygon fill="#e0e0e0" stroke="#999999" points="255.5,-74 226.5,-74 226.5,-55 255.5,-55 255.5,-74"/>
<text text-anchor="middle" x="241" y="-62" font-family="Helvetica,sans-Serif" font-size="10.00">Qt</text>
</a>
</g>
</g>
<!-- Node12&#45;&gt;Node15 -->
<g id="edge20_Node000012_Node000015" class="edge">
<title>Node12&#45;&gt;Node15</title>
<g id="a_edge20_Node000012_Node000015"><a xlink:title=" ">
<path fill="none" stroke="#63b8ff" d="M372.76,-109.96C347.56,-101.71 308.18,-88.74 265.22,-74.03"/>
<polygon fill="#63b8ff" stroke="#63b8ff" points="266.3,-70.7 255.71,-70.76 264.03,-77.32 266.3,-70.7"/>
</a>
</g>
</g>
<!-- Node16 -->
<g id="Node000016" class="node">
<title>Node16</title>
<g id="a_Node000016"><a xlink:title=" ">
<polygon fill="#e0e0e0" stroke="#999999" points="330,-74 274,-74 274,-55 330,-55 330,-74"/>
<text text-anchor="middle" x="302" y="-62" font-family="Helvetica,sans-Serif" font-size="10.00">QPrinter</text>
</a>
</g>
</g>
<!-- Node12&#45;&gt;Node16 -->
<g id="edge22_Node000012_Node000016" class="edge">
<title>Node12&#45;&gt;Node16</title>
<g id="a_edge22_Node000012_Node000016"><a xlink:title=" ">
<path fill="none" stroke="#63b8ff" d="M383.42,-109.98C368.23,-101.69 344.9,-88.94 327.1,-79.22"/>
<polygon fill="#63b8ff" stroke="#63b8ff" points="328.32,-75.89 317.87,-74.17 324.97,-82.04 328.32,-75.89"/>
</a>
</g>
</g>
<!-- Node17 -->
<g id="Node000017" class="node">
<title>Node17</title>
<g id="a_Node000017"><a xlink:title=" ">
<polygon fill="#e0e0e0" stroke="#999999" points="399.5,-74 348.5,-74 348.5,-55 399.5,-55 399.5,-74"/>
<text text-anchor="middle" x="374" y="-62" font-family="Helvetica,sans-Serif" font-size="10.00">csignal</text>
</a>
</g>
</g>
<!-- Node12&#45;&gt;Node17 -->
<g id="edge23_Node000012_Node000017" class="edge">
<title>Node12&#45;&gt;Node17</title>
<g id="a_edge23_Node000012_Node000017"><a xlink:title=" ">
<path fill="none" stroke="#63b8ff" d="M394.87,-109.75C391.49,-102.57 386.58,-92.18 382.38,-83.27"/>
<polygon fill="#63b8ff" stroke="#63b8ff" points="385.48,-81.64 378.05,-74.09 379.15,-84.63 385.48,-81.64"/>
</a>
</g>
</g>
<!-- Node18 -->
<g id="Node000018" class="node">
<title>Node18</title>
<g id="a_Node000018"><a xlink:href="../../d4/d82/debugbreak_8h.html" target="_top" xlink:title=" ">
<polygon fill="white" stroke="#666666" points="500.5,-74 417.5,-74 417.5,-55 500.5,-55 500.5,-74"/>
<text text-anchor="middle" x="459" y="-62" font-family="Helvetica,sans-Serif" font-size="10.00">debugbreak.h</text>
</a>
</g>
</g>
<!-- Node12&#45;&gt;Node18 -->
<g id="edge24_Node000012_Node000018" class="edge">
<title>Node12&#45;&gt;Node18</title>
<g id="a_edge24_Node000012_Node000018"><a xlink:title=" ">
<path fill="none" stroke="#63b8ff" d="M408.64,-109.98C417.51,-102.15 430.87,-90.34 441.61,-80.86"/>
<polygon fill="#63b8ff" stroke="#63b8ff" points="444.01,-83.41 449.18,-74.17 439.37,-78.17 444.01,-83.41"/>
</a>
</g>
</g>
<!-- Node19 -->
<g id="Node000019" class="node">
<title>Node19</title>
<g id="a_Node000019"><a xlink:title=" ">
<polygon fill="#e0e0e0" stroke="#999999" points="486.5,-19 431.5,-19 431.5,0 486.5,0 486.5,-19"/>
<text text-anchor="middle" x="459" y="-7" font-family="Helvetica,sans-Serif" font-size="10.00">signal.h</text>
</a>
</g>
</g>
<!-- Node18&#45;&gt;Node19 -->
<g id="edge25_Node000018_Node000019" class="edge">
<title>Node18&#45;&gt;Node19</title>
<g id="a_edge25_Node000018_Node000019"><a xlink:title=" ">
<path fill="none" stroke="#63b8ff" d="M459,-54.75C459,-47.8 459,-37.85 459,-29.13"/>
<polygon fill="#63b8ff" stroke="#63b8ff" points="462.5,-29.09 459,-19.09 455.5,-29.09 462.5,-29.09"/>
</a>
</g>
</g>
<!-- Node20&#45;&gt;Node2 -->
<g id="edge27_Node000020_Node000002" class="edge">
<title>Node20&#45;&gt;Node2</title>
<g id="a_edge27_Node000020_Node000002"><a xlink:title=" ">
<path fill="none" stroke="#63b8ff" d="M622.88,-109.98C654.57,-100.96 704.76,-86.65 739.65,-76.71"/>
<polygon fill="#63b8ff" stroke="#63b8ff" points="740.84,-80.01 749.5,-73.91 738.92,-73.28 740.84,-80.01"/>
</a>
</g>
</g>
<!-- Node22 -->
<g id="Node000022" class="node">
<title>Node22</title>
<g id="a_Node000022"><a xlink:title=" ">
<polygon fill="#e0e0e0" stroke="#999999" points="1278.5,-129 1225.5,-129 1225.5,-110 1278.5,-110 1278.5,-129"/>
<text text-anchor="middle" x="1252" y="-117" font-family="Helvetica,sans-Serif" font-size="10.00">QtMath</text>
</a>
</g>
</g>
<!-- Node21&#45;&gt;Node22 -->
<g id="edge29_Node000021_Node000022" class="edge">
<title>Node21&#45;&gt;Node22</title>
<g id="a_edge29_Node000021_Node000022"><a xlink:title=" ">
<path fill="none" stroke="#63b8ff" d="M1227.79,-164.75C1231.76,-157.49 1237.53,-146.95 1242.43,-137.98"/>
<polygon fill="#63b8ff" stroke="#63b8ff" points="1245.57,-139.54 1247.3,-129.09 1239.43,-136.18 1245.57,-139.54"/>
</a>
</g>
</g>
<!-- Node24&#45;&gt;Node2 -->
<g id="edge36_Node000024_Node000002" class="edge">
<title>Node24&#45;&gt;Node2</title>
<g id="a_edge36_Node000024_Node000002"><a xlink:title=" ">
<path fill="none" stroke="#63b8ff" d="M926.2,-164.87C924.49,-151.36 919.3,-125.21 904,-110 881.12,-87.24 845.84,-76.07 818.59,-70.61"/>
<polygon fill="#63b8ff" stroke="#63b8ff" points="819.05,-67.14 808.58,-68.79 817.8,-74.02 819.05,-67.14"/>
</a>
</g>
</g>
<!-- Node24&#45;&gt;Node6 -->
<g id="edge32_Node000024_Node000006" class="edge">
<title>Node24&#45;&gt;Node6</title>
<g id="a_edge32_Node000024_Node000006"><a xlink:title=" ">
<path fill="none" stroke="#63b8ff" d="M907.24,-164.98C887.27,-156.38 856.2,-142.99 833.35,-133.15"/>
<polygon fill="#63b8ff" stroke="#63b8ff" points="834.69,-129.91 824.12,-129.17 831.92,-136.34 834.69,-129.91"/>
</a>
</g>
</g>
<!-- Node24&#45;&gt;Node7 -->
<g id="edge33_Node000024_Node000007" class="edge">
<title>Node24&#45;&gt;Node7</title>
<g id="a_edge33_Node000024_Node000007"><a xlink:title=" ">
<path fill="none" stroke="#63b8ff" d="M921.66,-164.64C912.86,-150.82 893.99,-124.25 871,-110 865.4,-106.53 788.58,-86.68 741.43,-74.7"/>
<polygon fill="#63b8ff" stroke="#63b8ff" points="742.12,-71.26 731.57,-72.19 740.4,-78.05 742.12,-71.26"/>
</a>
</g>
</g>
<!-- Node24&#45;&gt;Node8 -->
<g id="edge34_Node000024_Node000008" class="edge">
<title>Node24&#45;&gt;Node8</title>
<g id="a_edge34_Node000024_Node000008"><a xlink:title=" ">
<path fill="none" stroke="#63b8ff" d="M936.96,-164.98C946.13,-157.15 959.94,-145.34 971.03,-135.86"/>
<polygon fill="#63b8ff" stroke="#63b8ff" points="973.53,-138.33 978.86,-129.17 968.98,-133.01 973.53,-138.33"/>
</a>
</g>
</g>
<!-- Node24&#45;&gt;Node9 -->
<g id="edge35_Node000024_Node000009" class="edge">
<title>Node24&#45;&gt;Node9</title>
<g id="a_edge35_Node000024_Node000009"><a xlink:title=" ">
<path fill="none" stroke="#63b8ff" d="M949.49,-164.98C972.52,-156.27 1008.54,-142.63 1034.63,-132.75"/>
<polygon fill="#63b8ff" stroke="#63b8ff" points="1035.98,-135.98 1044.1,-129.17 1033.51,-129.44 1035.98,-135.98"/>
</a>
</g>
</g>
<!-- Node24&#45;&gt;Node23 -->
<g id="edge37_Node000024_Node000023" class="edge">
<title>Node24&#45;&gt;Node23</title>
<g id="a_edge37_Node000024_Node000023"><a xlink:title=" ">
<path fill="none" stroke="#63b8ff" d="M961.38,-165.68C1001.39,-156.58 1067.7,-141.49 1112.59,-131.28"/>
<polygon fill="#63b8ff" stroke="#63b8ff" points="1113.41,-134.69 1122.39,-129.06 1111.86,-127.86 1113.41,-134.69"/>
</a>
</g>
</g>
</g>
</svg>
