<?xml version="1.0" encoding="UTF-8" standalone="no"?>
<!DOCTYPE svg PUBLIC "-//W3C//DTD SVG 1.1//EN"
 "http://www.w3.org/Graphics/SVG/1.1/DTD/svg11.dtd">
<!-- Generated by graphviz version 2.43.0 (0)
 -->
<!-- Title: src/libs/vmisc/qxtcsvmodel.cpp Pages: 1 -->
<svg width="1143pt" height="247pt"
 viewBox="0.00 0.00 1142.50 247.00" xmlns="http://www.w3.org/2000/svg" xmlns:xlink="http://www.w3.org/1999/xlink">
<g id="graph0" class="graph" transform="scale(1 1) rotate(0) translate(4 243)">
<title>src/libs/vmisc/qxtcsvmodel.cpp</title>
<!-- Node1 -->
<g id="Node000001" class="node">
<title>Node1</title>
<g id="a_Node000001"><a xlink:title=" ">
<polygon fill="#999999" stroke="#666666" points="816.5,-239 646.5,-239 646.5,-220 816.5,-220 816.5,-239"/>
<text text-anchor="middle" x="731.5" y="-227" font-family="Helvetica,sans-Serif" font-size="10.00">src/libs/vmisc/qxtcsvmodel.cpp</text>
</a>
</g>
</g>
<!-- Node2 -->
<g id="Node000002" class="node">
<title>Node2</title>
<g id="a_Node000002"><a xlink:href="../../d4/d21/qxtcsvmodel_8h.html" target="_top" xlink:title=" ">
<polygon fill="white" stroke="#666666" points="679,-184 590,-184 590,-165 679,-165 679,-184"/>
<text text-anchor="middle" x="634.5" y="-172" font-family="Helvetica,sans-Serif" font-size="10.00">qxtcsvmodel.h</text>
</a>
</g>
</g>
<!-- Node1&#45;&gt;Node2 -->
<g id="edge1_Node000001_Node000002" class="edge">
<title>Node1&#45;&gt;Node2</title>
<g id="a_edge1_Node000001_Node000002"><a xlink:title=" ">
<path fill="none" stroke="#63b8ff" d="M715.92,-219.98C700.73,-211.69 677.4,-198.94 659.6,-189.22"/>
<polygon fill="#63b8ff" stroke="#63b8ff" points="660.82,-185.89 650.37,-184.17 657.47,-192.04 660.82,-185.89"/>
</a>
</g>
</g>
<!-- Node7 -->
<g id="Node000007" class="node">
<title>Node7</title>
<g id="a_Node000007"><a xlink:title=" ">
<polygon fill="#e0e0e0" stroke="#999999" points="1086.5,-129 1018.5,-129 1018.5,-110 1086.5,-110 1086.5,-129"/>
<text text-anchor="middle" x="1052.5" y="-117" font-family="Helvetica,sans-Serif" font-size="10.00">QIODevice</text>
</a>
</g>
</g>
<!-- Node1&#45;&gt;Node7 -->
<g id="edge29_Node000001_Node000007" class="edge">
<title>Node1&#45;&gt;Node7</title>
<g id="a_edge29_Node000001_Node000007"><a xlink:title=" ">
<path fill="none" stroke="#63b8ff" d="M727.35,-219.88C721.53,-206.4 713.07,-180.28 726.5,-165 767.62,-118.21 942.92,-138.43 1004.5,-129 1005.77,-128.81 1007.06,-128.6 1008.36,-128.4"/>
<polygon fill="#63b8ff" stroke="#63b8ff" points="1009.15,-131.81 1018.44,-126.73 1008.01,-124.91 1009.15,-131.81"/>
</a>
</g>
</g>
<!-- Node24 -->
<g id="Node000024" class="node">
<title>Node24</title>
<g id="a_Node000024"><a xlink:title=" ">
<polygon fill="#e0e0e0" stroke="#999999" points="777,-184 736,-184 736,-165 777,-165 777,-184"/>
<text text-anchor="middle" x="756.5" y="-172" font-family="Helvetica,sans-Serif" font-size="10.00">QFile</text>
</a>
</g>
</g>
<!-- Node1&#45;&gt;Node24 -->
<g id="edge28_Node000001_Node000024" class="edge">
<title>Node1&#45;&gt;Node24</title>
<g id="a_edge28_Node000001_Node000024"><a xlink:title=" ">
<path fill="none" stroke="#63b8ff" d="M735.63,-219.75C739.01,-212.57 743.92,-202.18 748.12,-193.27"/>
<polygon fill="#63b8ff" stroke="#63b8ff" points="751.35,-194.63 752.45,-184.09 745.02,-191.64 751.35,-194.63"/>
</a>
</g>
</g>
<!-- Node25 -->
<g id="Node000025" class="node">
<title>Node25</title>
<g id="a_Node000025"><a xlink:title=" ">
<polygon fill="#e0e0e0" stroke="#999999" points="836,-184 795,-184 795,-165 836,-165 836,-184"/>
<text text-anchor="middle" x="815.5" y="-172" font-family="Helvetica,sans-Serif" font-size="10.00">QList</text>
</a>
</g>
</g>
<!-- Node1&#45;&gt;Node25 -->
<g id="edge30_Node000001_Node000025" class="edge">
<title>Node1&#45;&gt;Node25</title>
<g id="a_edge30_Node000001_Node000025"><a xlink:title=" ">
<path fill="none" stroke="#63b8ff" d="M745,-219.98C757.9,-211.84 777.6,-199.41 792.9,-189.76"/>
<polygon fill="#63b8ff" stroke="#63b8ff" points="795.17,-192.47 801.76,-184.17 791.43,-186.55 795.17,-192.47"/>
</a>
</g>
</g>
<!-- Node26 -->
<g id="Node000026" class="node">
<title>Node26</title>
<g id="a_Node000026"><a xlink:title=" ">
<polygon fill="#e0e0e0" stroke="#999999" points="934.5,-184 854.5,-184 854.5,-165 934.5,-165 934.5,-184"/>
<text text-anchor="middle" x="894.5" y="-172" font-family="Helvetica,sans-Serif" font-size="10.00">QTextStream</text>
</a>
</g>
</g>
<!-- Node1&#45;&gt;Node26 -->
<g id="edge31_Node000001_Node000026" class="edge">
<title>Node1&#45;&gt;Node26</title>
<g id="a_edge31_Node000001_Node000026"><a xlink:title=" ">
<path fill="none" stroke="#63b8ff" d="M757.69,-219.98C784.94,-211.13 827.8,-197.19 858.28,-187.28"/>
<polygon fill="#63b8ff" stroke="#63b8ff" points="859.68,-190.5 868.11,-184.08 857.51,-183.85 859.68,-190.5"/>
</a>
</g>
</g>
<!-- Node27 -->
<g id="Node000027" class="node">
<title>Node27</title>
<g id="a_Node000027"><a xlink:href="../../d6/dcd/diagnostic_8h.html" target="_top" xlink:title=" ">
<polygon fill="white" stroke="#666666" points="311,-184 194,-184 194,-165 311,-165 311,-184"/>
<text text-anchor="middle" x="252.5" y="-172" font-family="Helvetica,sans-Serif" font-size="10.00">../vmisc/diagnostic.h</text>
</a>
</g>
</g>
<!-- Node1&#45;&gt;Node27 -->
<g id="edge32_Node000001_Node000027" class="edge">
<title>Node1&#45;&gt;Node27</title>
<g id="a_edge32_Node000001_Node000027"><a xlink:title=" ">
<path fill="none" stroke="#63b8ff" d="M654.54,-219.98C562.45,-209.8 409.66,-192.89 321.33,-183.12"/>
<polygon fill="#63b8ff" stroke="#63b8ff" points="321.48,-179.61 311.15,-181.99 320.71,-186.57 321.48,-179.61"/>
</a>
</g>
</g>
<!-- Node3 -->
<g id="Node000003" class="node">
<title>Node3</title>
<g id="a_Node000003"><a xlink:title=" ">
<polygon fill="#e0e0e0" stroke="#999999" points="974.5,-74 854.5,-74 854.5,-55 974.5,-55 974.5,-74"/>
<text text-anchor="middle" x="914.5" y="-62" font-family="Helvetica,sans-Serif" font-size="10.00">qcompilerdetection.h</text>
</a>
</g>
</g>
<!-- Node2&#45;&gt;Node3 -->
<g id="edge2_Node000002_Node000003" class="edge">
<title>Node2&#45;&gt;Node3</title>
<g id="a_edge2_Node000002_Node000003"><a xlink:title=" ">
<path fill="none" stroke="#63b8ff" d="M679.23,-167.08C751.42,-156.54 886.44,-136.04 894.5,-129 907.14,-117.97 911.88,-99.02 913.61,-84.69"/>
<polygon fill="#63b8ff" stroke="#63b8ff" points="917.12,-84.68 914.45,-74.42 910.14,-84.11 917.12,-84.68"/>
</a>
</g>
</g>
<!-- Node4 -->
<g id="Node000004" class="node">
<title>Node4</title>
<g id="a_Node000004"><a xlink:title=" ">
<polygon fill="#e0e0e0" stroke="#999999" points="215.5,-129 95.5,-129 95.5,-110 215.5,-110 215.5,-129"/>
<text text-anchor="middle" x="155.5" y="-117" font-family="Helvetica,sans-Serif" font-size="10.00">QAbstractTableModel</text>
</a>
</g>
</g>
<!-- Node2&#45;&gt;Node4 -->
<g id="edge3_Node000002_Node000004" class="edge">
<title>Node2&#45;&gt;Node4</title>
<g id="a_edge3_Node000002_Node000004"><a xlink:title=" ">
<path fill="none" stroke="#63b8ff" d="M589.88,-168.87C516.31,-161.19 364.65,-145.16 225.69,-129.12"/>
<polygon fill="#63b8ff" stroke="#63b8ff" points="226.04,-125.64 215.7,-127.97 225.24,-132.59 226.04,-125.64"/>
</a>
</g>
</g>
<!-- Node5 -->
<g id="Node000005" class="node">
<title>Node5</title>
<g id="a_Node000005"><a xlink:title=" ">
<polygon fill="#e0e0e0" stroke="#999999" points="281,-129 234,-129 234,-110 281,-110 281,-129"/>
<text text-anchor="middle" x="257.5" y="-117" font-family="Helvetica,sans-Serif" font-size="10.00">QChar</text>
</a>
</g>
</g>
<!-- Node2&#45;&gt;Node5 -->
<g id="edge4_Node000002_Node000005" class="edge">
<title>Node2&#45;&gt;Node5</title>
<g id="a_edge4_Node000002_Node000005"><a xlink:title=" ">
<path fill="none" stroke="#63b8ff" d="M589.96,-169.51C525.98,-163.39 404.23,-150.31 291.08,-128.88"/>
<polygon fill="#63b8ff" stroke="#63b8ff" points="291.69,-125.43 281.21,-126.98 290.37,-132.3 291.69,-125.43"/>
</a>
</g>
</g>
<!-- Node6 -->
<g id="Node000006" class="node">
<title>Node6</title>
<g id="a_Node000006"><a xlink:title=" ">
<polygon fill="#e0e0e0" stroke="#999999" points="349.5,-129 299.5,-129 299.5,-110 349.5,-110 349.5,-129"/>
<text text-anchor="middle" x="324.5" y="-117" font-family="Helvetica,sans-Serif" font-size="10.00">QFlags</text>
</a>
</g>
</g>
<!-- Node2&#45;&gt;Node6 -->
<g id="edge5_Node000002_Node000006" class="edge">
<title>Node2&#45;&gt;Node6</title>
<g id="a_edge5_Node000002_Node000006"><a xlink:title=" ">
<path fill="none" stroke="#63b8ff" d="M589.83,-167.49C537.11,-160.14 446.6,-146.68 359.72,-129.1"/>
<polygon fill="#63b8ff" stroke="#63b8ff" points="360.19,-125.63 349.7,-127.05 358.79,-132.49 360.19,-125.63"/>
</a>
</g>
</g>
<!-- Node2&#45;&gt;Node7 -->
<g id="edge6_Node000002_Node000007" class="edge">
<title>Node2&#45;&gt;Node7</title>
<g id="a_edge6_Node000002_Node000007"><a xlink:title=" ">
<path fill="none" stroke="#63b8ff" d="M679.26,-166.92C684.06,-166.25 688.88,-165.6 693.5,-165 831.49,-147.08 866.82,-149.14 1004.5,-129 1005.77,-128.81 1007.06,-128.62 1008.36,-128.42"/>
<polygon fill="#63b8ff" stroke="#63b8ff" points="1009.14,-131.84 1018.45,-126.79 1008.02,-124.93 1009.14,-131.84"/>
</a>
</g>
</g>
<!-- Node8 -->
<g id="Node000008" class="node">
<title>Node8</title>
<g id="a_Node000008"><a xlink:title=" ">
<polygon fill="#e0e0e0" stroke="#999999" points="477,-129 368,-129 368,-110 477,-110 477,-129"/>
<text text-anchor="middle" x="422.5" y="-117" font-family="Helvetica,sans-Serif" font-size="10.00">QIncompatibleFlag</text>
</a>
</g>
</g>
<!-- Node2&#45;&gt;Node8 -->
<g id="edge7_Node000002_Node000008" class="edge">
<title>Node2&#45;&gt;Node8</title>
<g id="a_edge7_Node000002_Node000008"><a xlink:title=" ">
<path fill="none" stroke="#63b8ff" d="M600.44,-164.98C564.08,-155.89 506.33,-141.46 466.53,-131.51"/>
<polygon fill="#63b8ff" stroke="#63b8ff" points="467.38,-128.11 456.83,-129.08 465.68,-134.9 467.38,-128.11"/>
</a>
</g>
</g>
<!-- Node9 -->
<g id="Node000009" class="node">
<title>Node9</title>
<g id="a_Node000009"><a xlink:title=" ">
<polygon fill="#e0e0e0" stroke="#999999" points="575.5,-129 495.5,-129 495.5,-110 575.5,-110 575.5,-129"/>
<text text-anchor="middle" x="535.5" y="-117" font-family="Helvetica,sans-Serif" font-size="10.00">QMetaObject</text>
</a>
</g>
</g>
<!-- Node2&#45;&gt;Node9 -->
<g id="edge8_Node000002_Node000009" class="edge">
<title>Node2&#45;&gt;Node9</title>
<g id="a_edge8_Node000002_Node000009"><a xlink:title=" ">
<path fill="none" stroke="#63b8ff" d="M618.59,-164.98C602.95,-156.61 578.84,-143.7 560.62,-133.95"/>
<polygon fill="#63b8ff" stroke="#63b8ff" points="562.16,-130.8 551.7,-129.17 558.86,-136.98 562.16,-130.8"/>
</a>
</g>
</g>
<!-- Node10 -->
<g id="Node000010" class="node">
<title>Node10</title>
<g id="a_Node000010"><a xlink:title=" ">
<polygon fill="#e0e0e0" stroke="#999999" points="675,-129 594,-129 594,-110 675,-110 675,-129"/>
<text text-anchor="middle" x="634.5" y="-117" font-family="Helvetica,sans-Serif" font-size="10.00">QModelIndex</text>
</a>
</g>
</g>
<!-- Node2&#45;&gt;Node10 -->
<g id="edge9_Node000002_Node000010" class="edge">
<title>Node2&#45;&gt;Node10</title>
<g id="a_edge9_Node000002_Node000010"><a xlink:title=" ">
<path fill="none" stroke="#63b8ff" d="M634.5,-164.75C634.5,-157.8 634.5,-147.85 634.5,-139.13"/>
<polygon fill="#63b8ff" stroke="#63b8ff" points="638,-139.09 634.5,-129.09 631,-139.09 638,-139.09"/>
</a>
</g>
</g>
<!-- Node11 -->
<g id="Node000011" class="node">
<title>Node11</title>
<g id="a_Node000011"><a xlink:title=" ">
<polygon fill="#e0e0e0" stroke="#999999" points="749.5,-129 693.5,-129 693.5,-110 749.5,-110 749.5,-129"/>
<text text-anchor="middle" x="721.5" y="-117" font-family="Helvetica,sans-Serif" font-size="10.00">QObject</text>
</a>
</g>
</g>
<!-- Node2&#45;&gt;Node11 -->
<g id="edge10_Node000002_Node000011" class="edge">
<title>Node2&#45;&gt;Node11</title>
<g id="a_edge10_Node000002_Node000011"><a xlink:title=" ">
<path fill="none" stroke="#63b8ff" d="M648.48,-164.98C661.97,-156.77 682.63,-144.18 698.54,-134.49"/>
<polygon fill="#63b8ff" stroke="#63b8ff" points="700.55,-137.36 707.27,-129.17 696.91,-131.38 700.55,-137.36"/>
</a>
</g>
</g>
<!-- Node12 -->
<g id="Node000012" class="node">
<title>Node12</title>
<g id="a_Node000012"><a xlink:title=" ">
<polygon fill="#e0e0e0" stroke="#999999" points="1046,-74 993,-74 993,-55 1046,-55 1046,-74"/>
<text text-anchor="middle" x="1019.5" y="-62" font-family="Helvetica,sans-Serif" font-size="10.00">QString</text>
</a>
</g>
</g>
<!-- Node2&#45;&gt;Node12 -->
<g id="edge11_Node000002_Node000012" class="edge">
<title>Node2&#45;&gt;Node12</title>
<g id="a_edge11_Node000002_Node000012"><a xlink:title=" ">
<path fill="none" stroke="#63b8ff" d="M679.11,-168.58C747.03,-160.73 872.97,-144.65 915.5,-129 947.52,-117.22 980.48,-95.07 1000.48,-80.3"/>
<polygon fill="#63b8ff" stroke="#63b8ff" points="1002.83,-82.91 1008.71,-74.1 998.62,-77.32 1002.83,-82.91"/>
</a>
</g>
</g>
<!-- Node13 -->
<g id="Node000013" class="node">
<title>Node13</title>
<g id="a_Node000013"><a xlink:title=" ">
<polygon fill="#e0e0e0" stroke="#999999" points="1134.5,-74 1064.5,-74 1064.5,-55 1134.5,-55 1134.5,-74"/>
<text text-anchor="middle" x="1099.5" y="-62" font-family="Helvetica,sans-Serif" font-size="10.00">QStringList</text>
</a>
</g>
</g>
<!-- Node2&#45;&gt;Node13 -->
<g id="edge12_Node000002_Node000013" class="edge">
<title>Node2&#45;&gt;Node13</title>
<g id="a_edge12_Node000002_Node000013"><a xlink:title=" ">
<path fill="none" stroke="#63b8ff" d="M679.08,-168.65C753.43,-160.32 899.54,-142.85 949.5,-129 994.79,-116.44 1044.5,-93.42 1073.8,-78.82"/>
<polygon fill="#63b8ff" stroke="#63b8ff" points="1075.57,-81.85 1082.92,-74.22 1072.42,-75.6 1075.57,-81.85"/>
</a>
</g>
</g>
<!-- Node14 -->
<g id="Node000014" class="node">
<title>Node14</title>
<g id="a_Node000014"><a xlink:title=" ">
<polygon fill="#e0e0e0" stroke="#999999" points="827,-129 768,-129 768,-110 827,-110 827,-129"/>
<text text-anchor="middle" x="797.5" y="-117" font-family="Helvetica,sans-Serif" font-size="10.00">QVariant</text>
</a>
</g>
</g>
<!-- Node2&#45;&gt;Node14 -->
<g id="edge13_Node000002_Node000014" class="edge">
<title>Node2&#45;&gt;Node14</title>
<g id="a_edge13_Node000002_Node000014"><a xlink:title=" ">
<path fill="none" stroke="#63b8ff" d="M660.69,-164.98C687.94,-156.13 730.8,-142.19 761.28,-132.28"/>
<polygon fill="#63b8ff" stroke="#63b8ff" points="762.68,-135.5 771.11,-129.08 760.51,-128.85 762.68,-135.5"/>
</a>
</g>
</g>
<!-- Node15 -->
<g id="Node000015" class="node">
<title>Node15</title>
<g id="a_Node000015"><a xlink:title=" ">
<polygon fill="#e0e0e0" stroke="#999999" points="269,-74 240,-74 240,-55 269,-55 269,-74"/>
<text text-anchor="middle" x="254.5" y="-62" font-family="Helvetica,sans-Serif" font-size="10.00">Qt</text>
</a>
</g>
</g>
<!-- Node2&#45;&gt;Node15 -->
<g id="edge14_Node000002_Node000015" class="edge">
<title>Node2&#45;&gt;Node15</title>
<g id="a_edge14_Node000002_Node000015"><a xlink:title=" ">
<path fill="none" stroke="#63b8ff" d="M589.88,-171.51C462.21,-165.61 103.51,-147.44 86.5,-129 43.8,-82.69 173.13,-69.93 229.56,-66.6"/>
<polygon fill="#63b8ff" stroke="#63b8ff" points="230,-70.08 239.8,-66.06 229.62,-63.09 230,-70.08"/>
</a>
</g>
</g>
<!-- Node16 -->
<g id="Node000016" class="node">
<title>Node16</title>
<g id="a_Node000016"><a xlink:title=" ">
<polygon fill="#e0e0e0" stroke="#999999" points="59,-74 0,-74 0,-55 59,-55 59,-74"/>
<text text-anchor="middle" x="29.5" y="-62" font-family="Helvetica,sans-Serif" font-size="10.00">QtGlobal</text>
</a>
</g>
</g>
<!-- Node2&#45;&gt;Node16 -->
<g id="edge15_Node000002_Node000016" class="edge">
<title>Node2&#45;&gt;Node16</title>
<g id="a_edge15_Node000002_Node000016"><a xlink:title=" ">
<path fill="none" stroke="#63b8ff" d="M589.73,-172.11C464.84,-167.94 118.86,-154.21 74.5,-129 56.75,-118.91 44.27,-98.6 37.03,-83.66"/>
<polygon fill="#63b8ff" stroke="#63b8ff" points="40.14,-82.05 32.85,-74.36 33.76,-84.92 40.14,-82.05"/>
</a>
</g>
</g>
<!-- Node17 -->
<g id="Node000017" class="node">
<title>Node17</title>
<g id="a_Node000017"><a xlink:href="../../d4/da4/def_8h.html" target="_top" xlink:title=" ">
<polygon fill="white" stroke="#666666" points="886,-129 845,-129 845,-110 886,-110 886,-129"/>
<text text-anchor="middle" x="865.5" y="-117" font-family="Helvetica,sans-Serif" font-size="10.00">def.h</text>
</a>
</g>
</g>
<!-- Node2&#45;&gt;Node17 -->
<g id="edge16_Node000002_Node000017" class="edge">
<title>Node2&#45;&gt;Node17</title>
<g id="a_edge16_Node000002_Node000017"><a xlink:title=" ">
<path fill="none" stroke="#63b8ff" d="M676.24,-165C714.94,-156.95 774.33,-144.19 835.12,-128.97"/>
<polygon fill="#63b8ff" stroke="#63b8ff" points="836.04,-132.35 844.89,-126.51 834.33,-125.56 836.04,-132.35"/>
</a>
</g>
</g>
<!-- Node17&#45;&gt;Node3 -->
<g id="edge17_Node000017_Node000003" class="edge">
<title>Node17&#45;&gt;Node3</title>
<g id="a_edge17_Node000017_Node000003"><a xlink:title=" ">
<path fill="none" stroke="#63b8ff" d="M873.59,-109.75C880.66,-102.11 891.09,-90.82 899.65,-81.56"/>
<polygon fill="#63b8ff" stroke="#63b8ff" points="902.34,-83.81 906.56,-74.09 897.2,-79.06 902.34,-83.81"/>
</a>
</g>
</g>
<!-- Node17&#45;&gt;Node12 -->
<g id="edge20_Node000017_Node000012" class="edge">
<title>Node17&#45;&gt;Node12</title>
<g id="a_edge20_Node000017_Node000012"><a xlink:title=" ">
<path fill="none" stroke="#63b8ff" d="M886.27,-111.35C911.57,-102.64 954.68,-87.81 984.99,-77.38"/>
<polygon fill="#63b8ff" stroke="#63b8ff" points="986.42,-80.59 994.74,-74.02 984.15,-73.97 986.42,-80.59"/>
</a>
</g>
</g>
<!-- Node17&#45;&gt;Node13 -->
<g id="edge21_Node000017_Node000013" class="edge">
<title>Node17&#45;&gt;Node13</title>
<g id="a_edge21_Node000017_Node000013"><a xlink:title=" ">
<path fill="none" stroke="#63b8ff" d="M886.27,-113.8C923.73,-105.31 1003.42,-87.26 1054.07,-75.79"/>
<polygon fill="#63b8ff" stroke="#63b8ff" points="1055.12,-79.14 1064.1,-73.52 1053.57,-72.31 1055.12,-79.14"/>
</a>
</g>
</g>
<!-- Node17&#45;&gt;Node15 -->
<g id="edge22_Node000017_Node000015" class="edge">
<title>Node17&#45;&gt;Node15</title>
<g id="a_edge22_Node000017_Node000015"><a xlink:title=" ">
<path fill="none" stroke="#63b8ff" d="M844.97,-112.1C841.82,-111.29 838.59,-110.55 835.5,-110 726.05,-90.5 376.25,-71.68 279.5,-66.75"/>
<polygon fill="#63b8ff" stroke="#63b8ff" points="279.4,-63.24 269.23,-66.23 279.04,-70.23 279.4,-63.24"/>
</a>
</g>
</g>
<!-- Node17&#45;&gt;Node16 -->
<g id="edge23_Node000017_Node000016" class="edge">
<title>Node17&#45;&gt;Node16</title>
<g id="a_edge23_Node000017_Node000016"><a xlink:title=" ">
<path fill="none" stroke="#63b8ff" d="M844.98,-112.04C841.83,-111.24 838.6,-110.52 835.5,-110 759.65,-97.32 221.41,-73.67 69.39,-67.18"/>
<polygon fill="#63b8ff" stroke="#63b8ff" points="69.27,-63.68 59.13,-66.75 68.97,-70.67 69.27,-63.68"/>
</a>
</g>
</g>
<!-- Node18 -->
<g id="Node000018" class="node">
<title>Node18</title>
<g id="a_Node000018"><a xlink:title=" ">
<polygon fill="#e0e0e0" stroke="#999999" points="523,-74 450,-74 450,-55 523,-55 523,-74"/>
<text text-anchor="middle" x="486.5" y="-62" font-family="Helvetica,sans-Serif" font-size="10.00">QFileDialog</text>
</a>
</g>
</g>
<!-- Node17&#45;&gt;Node18 -->
<g id="edge18_Node000017_Node000018" class="edge">
<title>Node17&#45;&gt;Node18</title>
<g id="a_edge18_Node000017_Node000018"><a xlink:title=" ">
<path fill="none" stroke="#63b8ff" d="M844.95,-112.22C841.8,-111.39 838.58,-110.62 835.5,-110 705.63,-84.06 668.32,-93.84 533.03,-73.97"/>
<polygon fill="#63b8ff" stroke="#63b8ff" points="533.53,-70.51 523.12,-72.49 532.49,-77.43 533.53,-70.51"/>
</a>
</g>
</g>
<!-- Node19 -->
<g id="Node000019" class="node">
<title>Node19</title>
<g id="a_Node000019"><a xlink:title=" ">
<polygon fill="#e0e0e0" stroke="#999999" points="591.5,-74 541.5,-74 541.5,-55 591.5,-55 591.5,-74"/>
<text text-anchor="middle" x="566.5" y="-62" font-family="Helvetica,sans-Serif" font-size="10.00">QLineF</text>
</a>
</g>
</g>
<!-- Node17&#45;&gt;Node19 -->
<g id="edge19_Node000017_Node000019" class="edge">
<title>Node17&#45;&gt;Node19</title>
<g id="a_edge19_Node000017_Node000019"><a xlink:title=" ">
<path fill="none" stroke="#63b8ff" d="M844.93,-112.31C841.79,-111.47 838.57,-110.67 835.5,-110 735.37,-88.23 705.86,-94.42 601.67,-74.06"/>
<polygon fill="#63b8ff" stroke="#63b8ff" points="602.18,-70.59 591.69,-72.08 600.82,-77.46 602.18,-70.59"/>
</a>
</g>
</g>
<!-- Node20 -->
<g id="Node000020" class="node">
<title>Node20</title>
<g id="a_Node000020"><a xlink:title=" ">
<polygon fill="#e0e0e0" stroke="#999999" points="665.5,-74 609.5,-74 609.5,-55 665.5,-55 665.5,-74"/>
<text text-anchor="middle" x="637.5" y="-62" font-family="Helvetica,sans-Serif" font-size="10.00">QPrinter</text>
</a>
</g>
</g>
<!-- Node17&#45;&gt;Node20 -->
<g id="edge24_Node000017_Node000020" class="edge">
<title>Node17&#45;&gt;Node20</title>
<g id="a_edge24_Node000017_Node000020"><a xlink:title=" ">
<path fill="none" stroke="#63b8ff" d="M844.88,-112.49C841.75,-111.63 838.54,-110.77 835.5,-110 767.48,-92.77 747.69,-90.39 675.79,-74.27"/>
<polygon fill="#63b8ff" stroke="#63b8ff" points="676.3,-70.8 665.78,-72.01 674.76,-77.63 676.3,-70.8"/>
</a>
</g>
</g>
<!-- Node21 -->
<g id="Node000021" class="node">
<title>Node21</title>
<g id="a_Node000021"><a xlink:title=" ">
<polygon fill="#e0e0e0" stroke="#999999" points="735,-74 684,-74 684,-55 735,-55 735,-74"/>
<text text-anchor="middle" x="709.5" y="-62" font-family="Helvetica,sans-Serif" font-size="10.00">csignal</text>
</a>
</g>
</g>
<!-- Node17&#45;&gt;Node21 -->
<g id="edge25_Node000017_Node000021" class="edge">
<title>Node17&#45;&gt;Node21</title>
<g id="a_edge25_Node000017_Node000021"><a xlink:title=" ">
<path fill="none" stroke="#63b8ff" d="M844.78,-111.46C819.13,-102.75 775.06,-87.77 744.21,-77.29"/>
<polygon fill="#63b8ff" stroke="#63b8ff" points="745.29,-73.96 734.7,-74.06 743.04,-80.59 745.29,-73.96"/>
</a>
</g>
</g>
<!-- Node22 -->
<g id="Node000022" class="node">
<title>Node22</title>
<g id="a_Node000022"><a xlink:href="../../d4/d82/debugbreak_8h.html" target="_top" xlink:title=" ">
<polygon fill="white" stroke="#666666" points="836,-74 753,-74 753,-55 836,-55 836,-74"/>
<text text-anchor="middle" x="794.5" y="-62" font-family="Helvetica,sans-Serif" font-size="10.00">debugbreak.h</text>
</a>
</g>
</g>
<!-- Node17&#45;&gt;Node22 -->
<g id="edge26_Node000017_Node000022" class="edge">
<title>Node17&#45;&gt;Node22</title>
<g id="a_edge26_Node000017_Node000022"><a xlink:title=" ">
<path fill="none" stroke="#63b8ff" d="M854.09,-109.98C843.39,-102 827.16,-89.88 814.34,-80.31"/>
<polygon fill="#63b8ff" stroke="#63b8ff" points="816.22,-77.35 806.11,-74.17 812.03,-82.96 816.22,-77.35"/>
</a>
</g>
</g>
<!-- Node23 -->
<g id="Node000023" class="node">
<title>Node23</title>
<g id="a_Node000023"><a xlink:title=" ">
<polygon fill="#e0e0e0" stroke="#999999" points="822,-19 767,-19 767,0 822,0 822,-19"/>
<text text-anchor="middle" x="794.5" y="-7" font-family="Helvetica,sans-Serif" font-size="10.00">signal.h</text>
</a>
</g>
</g>
<!-- Node22&#45;&gt;Node23 -->
<g id="edge27_Node000022_Node000023" class="edge">
<title>Node22&#45;&gt;Node23</title>
<g id="a_edge27_Node000022_Node000023"><a xlink:title=" ">
<path fill="none" stroke="#63b8ff" d="M794.5,-54.75C794.5,-47.8 794.5,-37.85 794.5,-29.13"/>
<polygon fill="#63b8ff" stroke="#63b8ff" points="798,-29.09 794.5,-19.09 791,-29.09 798,-29.09"/>
</a>
</g>
</g>
<!-- Node27&#45;&gt;Node16 -->
<g id="edge33_Node000027_Node000016" class="edge">
<title>Node27&#45;&gt;Node16</title>
<g id="a_edge33_Node000027_Node000016"><a xlink:title=" ">
<path fill="none" stroke="#63b8ff" d="M193.73,-170.8C131.03,-166.55 37.72,-155.78 15.5,-129 4.94,-116.28 11.05,-97.33 18.2,-83.44"/>
<polygon fill="#63b8ff" stroke="#63b8ff" points="21.46,-84.81 23.38,-74.39 15.38,-81.33 21.46,-84.81"/>
</a>
</g>
</g>
</g>
</svg>
