<?xml version="1.0" encoding="UTF-8" standalone="no"?>
<!DOCTYPE svg PUBLIC "-//W3C//DTD SVG 1.1//EN"
 "http://www.w3.org/Graphics/SVG/1.1/DTD/svg11.dtd">
<!-- Generated by graphviz version 2.43.0 (0)
 -->
<!-- Title: src/libs/vpatterndb/variables/vincrement.h Pages: 1 -->
<svg width="6635pt" height="385pt"
 viewBox="0.00 0.00 6634.50 385.00" xmlns="http://www.w3.org/2000/svg" xmlns:xlink="http://www.w3.org/1999/xlink">
<g id="graph0" class="graph" transform="scale(1 1) rotate(0) translate(4 381)">
<title>src/libs/vpatterndb/variables/vincrement.h</title>
<polygon fill="white" stroke="transparent" points="-4,4 -4,-381 6630.5,-381 6630.5,4 -4,4"/>
<!-- Node1 -->
<g id="node1" class="node">
<title>Node1</title>
<g id="a_node1"><a xlink:title=" ">
<polygon fill="#bfbfbf" stroke="black" points="5347,-346.5 5347,-376.5 5479,-376.5 5479,-346.5 5347,-346.5"/>
<text text-anchor="start" x="5355" y="-364.5" font-family="Helvetica,sans-Serif" font-size="10.00">src/libs/vpatterndb</text>
<text text-anchor="middle" x="5413" y="-353.5" font-family="Helvetica,sans-Serif" font-size="10.00">/variables/vincrement.h</text>
</a>
</g>
</g>
<!-- Node2 -->
<g id="node2" class="node">
<title>Node2</title>
<g id="a_node2"><a xlink:href="../../d6/de6/vincrement_8cpp.html" target="_top" xlink:title=" ">
<polygon fill="white" stroke="black" points="5522.5,-67.5 5522.5,-97.5 5665.5,-97.5 5665.5,-67.5 5522.5,-67.5"/>
<text text-anchor="start" x="5530.5" y="-85.5" font-family="Helvetica,sans-Serif" font-size="10.00">src/libs/vpatterndb</text>
<text text-anchor="middle" x="5594" y="-74.5" font-family="Helvetica,sans-Serif" font-size="10.00">/variables/vincrement.cpp</text>
</a>
</g>
</g>
<!-- Node1&#45;&gt;Node2 -->
<g id="edge1" class="edge">
<title>Node1&#45;&gt;Node2</title>
<path fill="none" stroke="midnightblue" d="M5412.33,-336.24C5412.4,-290.95 5418.9,-192.82 5470,-134 5485.09,-116.63 5507.06,-105.14 5528.32,-97.58"/>
<polygon fill="midnightblue" stroke="midnightblue" points="5408.83,-336.35 5412.43,-346.31 5415.83,-336.28 5408.83,-336.35"/>
</g>
<!-- Node3 -->
<g id="node3" class="node">
<title>Node3</title>
<g id="a_node3"><a xlink:href="../../de/dca/variables_8h.html" target="_top" xlink:title=" ">
<polygon fill="white" stroke="black" points="5469.5,-279.5 5469.5,-309.5 5576.5,-309.5 5576.5,-279.5 5469.5,-279.5"/>
<text text-anchor="start" x="5477.5" y="-297.5" font-family="Helvetica,sans-Serif" font-size="10.00">src/libs/vpatterndb</text>
<text text-anchor="middle" x="5523" y="-286.5" font-family="Helvetica,sans-Serif" font-size="10.00">/variables.h</text>
</a>
</g>
</g>
<!-- Node1&#45;&gt;Node3 -->
<g id="edge2" class="edge">
<title>Node1&#45;&gt;Node3</title>
<path fill="none" stroke="midnightblue" d="M5445.5,-341.3C5462.71,-331.12 5483.48,-318.85 5499.18,-309.58"/>
<polygon fill="midnightblue" stroke="midnightblue" points="5443.7,-338.3 5436.87,-346.4 5447.26,-344.32 5443.7,-338.3"/>
</g>
<!-- Node36 -->
<g id="node31" class="node">
<title>Node36</title>
<g id="a_node31"><a xlink:href="../../d6/d46/vcontainer_8cpp.html" target="_top" xlink:title=" ">
<polygon fill="white" stroke="black" points="1321.5,-67.5 1321.5,-97.5 1428.5,-97.5 1428.5,-67.5 1321.5,-67.5"/>
<text text-anchor="start" x="1329.5" y="-85.5" font-family="Helvetica,sans-Serif" font-size="10.00">src/libs/vpatterndb</text>
<text text-anchor="middle" x="1375" y="-74.5" font-family="Helvetica,sans-Serif" font-size="10.00">/vcontainer.cpp</text>
</a>
</g>
</g>
<!-- Node1&#45;&gt;Node36 -->
<g id="edge61" class="edge">
<title>Node1&#45;&gt;Node36</title>
<path fill="none" stroke="midnightblue" d="M5336.56,-359.23C4871.98,-351.13 2423,-302.97 1684,-176 1583,-158.65 1468.5,-118.84 1411.41,-97.54"/>
<polygon fill="midnightblue" stroke="midnightblue" points="5336.78,-362.73 5346.84,-359.41 5336.9,-355.74 5336.78,-362.73"/>
</g>
<!-- Node4 -->
<g id="node4" class="node">
<title>Node4</title>
<g id="a_node4"><a xlink:href="../../d3/df7/vcontainer_8h.html" target="_top" xlink:title=" ">
<polygon fill="white" stroke="black" points="5547.5,-212.5 5547.5,-242.5 5654.5,-242.5 5654.5,-212.5 5547.5,-212.5"/>
<text text-anchor="start" x="5555.5" y="-230.5" font-family="Helvetica,sans-Serif" font-size="10.00">src/libs/vpatterndb</text>
<text text-anchor="middle" x="5601" y="-219.5" font-family="Helvetica,sans-Serif" font-size="10.00">/vcontainer.h</text>
</a>
</g>
</g>
<!-- Node3&#45;&gt;Node4 -->
<g id="edge3" class="edge">
<title>Node3&#45;&gt;Node4</title>
<path fill="none" stroke="midnightblue" d="M5547.74,-272.88C5559.59,-263.01 5573.48,-251.43 5584.11,-242.58"/>
<polygon fill="midnightblue" stroke="midnightblue" points="5545.37,-270.31 5539.92,-279.4 5549.85,-275.68 5545.37,-270.31"/>
</g>
<!-- Node5 -->
<g id="node5" class="node">
<title>Node5</title>
<g id="a_node5"><a xlink:href="../../dc/db7/measurements_8h.html" target="_top" xlink:title=" ">
<polygon fill="white" stroke="black" points="6447.5,-145.5 6447.5,-164.5 6626.5,-164.5 6626.5,-145.5 6447.5,-145.5"/>
<text text-anchor="middle" x="6537" y="-152.5" font-family="Helvetica,sans-Serif" font-size="10.00">src/libs/vformat/measurements.h</text>
</a>
</g>
</g>
<!-- Node4&#45;&gt;Node5 -->
<g id="edge4" class="edge">
<title>Node4&#45;&gt;Node5</title>
<path fill="none" stroke="midnightblue" d="M5664.87,-225.44C5804.64,-222.49 6147.96,-211.91 6433,-176 6454.89,-173.24 6479.11,-168.68 6498.67,-164.6"/>
<polygon fill="midnightblue" stroke="midnightblue" points="5664.68,-221.94 5654.76,-225.64 5664.83,-228.94 5664.68,-221.94"/>
</g>
<!-- Node6 -->
<g id="node6" class="node">
<title>Node6</title>
<g id="a_node6"><a xlink:href="../../d9/de3/measurements_8cpp.html" target="_top" xlink:title=" ">
<polygon fill="white" stroke="black" points="6383,-73 6383,-92 6573,-92 6573,-73 6383,-73"/>
<text text-anchor="middle" x="6478" y="-80" font-family="Helvetica,sans-Serif" font-size="10.00">src/libs/vformat/measurements.cpp</text>
</a>
</g>
</g>
<!-- Node4&#45;&gt;Node6 -->
<g id="edge6" class="edge">
<title>Node4&#45;&gt;Node6</title>
<path fill="none" stroke="midnightblue" d="M5664.82,-225.33C5842.66,-221.68 6335.08,-208.71 6400,-176 6409.66,-171.13 6454.28,-114.2 6471.34,-92.15"/>
<polygon fill="midnightblue" stroke="midnightblue" points="5664.5,-221.84 5654.57,-225.54 5664.64,-228.84 5664.5,-221.84"/>
</g>
<!-- Node7 -->
<g id="node7" class="node">
<title>Node7</title>
<g id="a_node7"><a xlink:href="../../d6/de0/vlayoutpiece_8h.html" target="_top" xlink:title=" ">
<polygon fill="white" stroke="black" points="645,-145.5 645,-164.5 811,-164.5 811,-145.5 645,-145.5"/>
<text text-anchor="middle" x="728" y="-152.5" font-family="Helvetica,sans-Serif" font-size="10.00">src/libs/vlayout/vlayoutpiece.h</text>
</a>
</g>
</g>
<!-- Node4&#45;&gt;Node7 -->
<g id="edge7" class="edge">
<title>Node4&#45;&gt;Node7</title>
<path fill="none" stroke="midnightblue" d="M5537.2,-225.71C5177.97,-221.27 3371.09,-198.71 1895,-176 1488.51,-169.75 1002.41,-161.01 811.13,-157.52"/>
<polygon fill="midnightblue" stroke="midnightblue" points="5537.36,-229.22 5547.41,-225.84 5537.45,-222.22 5537.36,-229.22"/>
</g>
<!-- Node17 -->
<g id="node16" class="node">
<title>Node17</title>
<g id="a_node16"><a xlink:href="../../d8/d70/vtextmanager_8cpp.html" target="_top" xlink:title=" ">
<polygon fill="white" stroke="black" points="1447,-73 1447,-92 1629,-92 1629,-73 1447,-73"/>
<text text-anchor="middle" x="1538" y="-80" font-family="Helvetica,sans-Serif" font-size="10.00">src/libs/vlayout/vtextmanager.cpp</text>
</a>
</g>
</g>
<!-- Node4&#45;&gt;Node17 -->
<g id="edge18" class="edge">
<title>Node4&#45;&gt;Node17</title>
<path fill="none" stroke="midnightblue" d="M5537.24,-225.5C5091.89,-218.37 2440.64,-173.24 1638,-98 1622.28,-96.53 1605.25,-94.3 1589.78,-92.02"/>
<polygon fill="midnightblue" stroke="midnightblue" points="5537.3,-229 5547.35,-225.66 5537.41,-222 5537.3,-229"/>
</g>
<!-- Node18 -->
<g id="node17" class="node">
<title>Node18</title>
<g id="a_node17"><a xlink:href="../../d5/d74/vabstractapplication_8h.html" target="_top" xlink:title=" ">
<polygon fill="white" stroke="red" points="3462.5,-145.5 3462.5,-164.5 3657.5,-164.5 3657.5,-145.5 3462.5,-145.5"/>
<text text-anchor="middle" x="3560" y="-152.5" font-family="Helvetica,sans-Serif" font-size="10.00">src/libs/vmisc/vabstractapplication.h</text>
</a>
</g>
</g>
<!-- Node4&#45;&gt;Node18 -->
<g id="edge19" class="edge">
<title>Node4&#45;&gt;Node18</title>
<path fill="none" stroke="midnightblue" d="M5537.39,-224.3C5243.35,-214.15 4014.86,-171.71 3657.75,-159.38"/>
<polygon fill="midnightblue" stroke="midnightblue" points="5537.34,-227.8 5547.46,-224.65 5537.58,-220.81 5537.34,-227.8"/>
</g>
<!-- Node4&#45;&gt;Node36 -->
<g id="edge53" class="edge">
<title>Node4&#45;&gt;Node36</title>
<path fill="none" stroke="midnightblue" d="M5537.34,-226.31C5130.36,-224.97 2888.31,-215.85 2204,-176 1862.37,-156.1 1775.62,-153.82 1438,-98 1434.9,-97.49 1431.72,-96.91 1428.53,-96.3"/>
<polygon fill="midnightblue" stroke="midnightblue" points="5537.44,-229.81 5547.45,-226.34 5537.46,-222.81 5537.44,-229.81"/>
</g>
<!-- Node37 -->
<g id="node32" class="node">
<title>Node37</title>
<g id="a_node32"><a xlink:href="../../db/d11/vformula_8cpp.html" target="_top" xlink:title=" ">
<polygon fill="white" stroke="black" points="5272.5,-67.5 5272.5,-97.5 5379.5,-97.5 5379.5,-67.5 5272.5,-67.5"/>
<text text-anchor="start" x="5280.5" y="-85.5" font-family="Helvetica,sans-Serif" font-size="10.00">src/libs/vpatterndb</text>
<text text-anchor="middle" x="5326" y="-74.5" font-family="Helvetica,sans-Serif" font-size="10.00">/vformula.cpp</text>
</a>
</g>
</g>
<!-- Node4&#45;&gt;Node37 -->
<g id="edge54" class="edge">
<title>Node4&#45;&gt;Node37</title>
<path fill="none" stroke="midnightblue" d="M5537.54,-210.42C5509.54,-202.08 5476.76,-190.55 5449,-176 5406.64,-153.8 5363.38,-117.42 5341.19,-97.54"/>
<polygon fill="midnightblue" stroke="midnightblue" points="5536.65,-213.81 5547.23,-213.24 5538.6,-207.09 5536.65,-213.81"/>
</g>
<!-- Node39 -->
<g id="node34" class="node">
<title>Node39</title>
<g id="a_node34"><a xlink:href="../../d8/dba/vpiecenode_8cpp.html" target="_top" xlink:title=" ">
<polygon fill="white" stroke="black" points="5393.5,-0.5 5393.5,-30.5 5500.5,-30.5 5500.5,-0.5 5393.5,-0.5"/>
<text text-anchor="start" x="5401.5" y="-18.5" font-family="Helvetica,sans-Serif" font-size="10.00">src/libs/vpatterndb</text>
<text text-anchor="middle" x="5447" y="-7.5" font-family="Helvetica,sans-Serif" font-size="10.00">/vpiecenode.cpp</text>
</a>
</g>
</g>
<!-- Node4&#45;&gt;Node39 -->
<g id="edge58" class="edge">
<title>Node4&#45;&gt;Node39</title>
<path fill="none" stroke="midnightblue" d="M5617.14,-203.97C5643.71,-165.57 5691.99,-89.43 5674,-67 5652.69,-40.43 5560.84,-26.94 5500.7,-20.84"/>
<polygon fill="midnightblue" stroke="midnightblue" points="5614.09,-202.23 5611.22,-212.43 5619.82,-206.25 5614.09,-202.23"/>
</g>
<!-- Node40 -->
<g id="node35" class="node">
<title>Node40</title>
<g id="a_node35"><a xlink:href="../../df/d7a/vpiece_8cpp.html" target="_top" xlink:title=" ">
<polygon fill="white" stroke="black" points="5397.5,-67.5 5397.5,-97.5 5504.5,-97.5 5504.5,-67.5 5397.5,-67.5"/>
<text text-anchor="start" x="5405.5" y="-85.5" font-family="Helvetica,sans-Serif" font-size="10.00">src/libs/vpatterndb</text>
<text text-anchor="middle" x="5451" y="-74.5" font-family="Helvetica,sans-Serif" font-size="10.00">/vpiece.cpp</text>
</a>
</g>
</g>
<!-- Node4&#45;&gt;Node40 -->
<g id="edge56" class="edge">
<title>Node4&#45;&gt;Node40</title>
<path fill="none" stroke="midnightblue" d="M5537.4,-215.54C5513.04,-208.24 5487.03,-196.11 5470,-176 5451.14,-153.73 5449.32,-117.71 5449.96,-97.83"/>
<polygon fill="midnightblue" stroke="midnightblue" points="5536.78,-219 5547.35,-218.3 5538.65,-212.26 5536.78,-219"/>
</g>
<!-- Node57 -->
<g id="node45" class="node">
<title>Node57</title>
<g id="a_node45"><a xlink:href="../../d7/d8a/measurement__variable__p_8h.html" target="_top" xlink:title=" ">
<polygon fill="white" stroke="red" points="5679,-134.5 5679,-175.5 5815,-175.5 5815,-134.5 5679,-134.5"/>
<text text-anchor="start" x="5687" y="-163.5" font-family="Helvetica,sans-Serif" font-size="10.00">src/libs/vpatterndb</text>
<text text-anchor="start" x="5687" y="-152.5" font-family="Helvetica,sans-Serif" font-size="10.00">/variables/measurement</text>
<text text-anchor="middle" x="5747" y="-141.5" font-family="Helvetica,sans-Serif" font-size="10.00">_variable_p.h</text>
</a>
</g>
</g>
<!-- Node4&#45;&gt;Node57 -->
<g id="edge50" class="edge">
<title>Node4&#45;&gt;Node57</title>
<path fill="none" stroke="midnightblue" d="M5639.32,-208C5660,-198.01 5685.52,-185.69 5706.52,-175.55"/>
<polygon fill="midnightblue" stroke="midnightblue" points="5637.68,-204.9 5630.19,-212.4 5640.72,-211.21 5637.68,-204.9"/>
</g>
<!-- Node59 -->
<g id="node46" class="node">
<title>Node59</title>
<g id="a_node46"><a xlink:href="../../d1/de1/vincrement__p_8h.html" target="_top" xlink:title=" ">
<polygon fill="white" stroke="black" points="5479.5,-140 5479.5,-170 5622.5,-170 5622.5,-140 5479.5,-140"/>
<text text-anchor="start" x="5487.5" y="-158" font-family="Helvetica,sans-Serif" font-size="10.00">src/libs/vpatterndb</text>
<text text-anchor="middle" x="5551" y="-147" font-family="Helvetica,sans-Serif" font-size="10.00">/variables/vincrement_p.h</text>
</a>
</g>
</g>
<!-- Node4&#45;&gt;Node59 -->
<g id="edge51" class="edge">
<title>Node4&#45;&gt;Node59</title>
<path fill="none" stroke="midnightblue" d="M5584.96,-203.89C5577.13,-192.84 5567.94,-179.89 5561.1,-170.25"/>
<polygon fill="midnightblue" stroke="midnightblue" points="5582.24,-206.1 5590.88,-212.23 5587.95,-202.05 5582.24,-206.1"/>
</g>
<!-- Node60 -->
<g id="node47" class="node">
<title>Node60</title>
<g id="a_node47"><a xlink:href="../../d6/d91/vnodedetail_8cpp.html" target="_top" xlink:title=" ">
<polygon fill="white" stroke="black" points="5833.5,-140 5833.5,-170 5940.5,-170 5940.5,-140 5833.5,-140"/>
<text text-anchor="start" x="5841.5" y="-158" font-family="Helvetica,sans-Serif" font-size="10.00">src/libs/vpatterndb</text>
<text text-anchor="middle" x="5887" y="-147" font-family="Helvetica,sans-Serif" font-size="10.00">/vnodedetail.cpp</text>
</a>
</g>
</g>
<!-- Node4&#45;&gt;Node60 -->
<g id="edge55" class="edge">
<title>Node4&#45;&gt;Node60</title>
<path fill="none" stroke="midnightblue" d="M5664.81,-213.55C5709.59,-204.1 5770.75,-190.45 5824,-176 5830.64,-174.2 5837.64,-172.14 5844.45,-170.05"/>
<polygon fill="midnightblue" stroke="midnightblue" points="5664,-210.14 5654.94,-215.62 5665.44,-216.99 5664,-210.14"/>
</g>
<!-- Node61 -->
<g id="node48" class="node">
<title>Node61</title>
<g id="a_node48"><a xlink:href="../../da/de1/vpiecepath_8cpp.html" target="_top" xlink:title=" ">
<polygon fill="white" stroke="black" points="5958.5,-140 5958.5,-170 6065.5,-170 6065.5,-140 5958.5,-140"/>
<text text-anchor="start" x="5966.5" y="-158" font-family="Helvetica,sans-Serif" font-size="10.00">src/libs/vpatterndb</text>
<text text-anchor="middle" x="6012" y="-147" font-family="Helvetica,sans-Serif" font-size="10.00">/vpiecepath.cpp</text>
</a>
</g>
</g>
<!-- Node4&#45;&gt;Node61 -->
<g id="edge57" class="edge">
<title>Node4&#45;&gt;Node61</title>
<path fill="none" stroke="midnightblue" d="M5664.58,-220.43C5734.79,-212.99 5850.89,-198.53 5949,-176 5956.16,-174.36 5963.67,-172.28 5970.92,-170.1"/>
<polygon fill="midnightblue" stroke="midnightblue" points="5664.14,-216.95 5654.56,-221.47 5664.87,-223.91 5664.14,-216.95"/>
</g>
<!-- Node62 -->
<g id="node49" class="node">
<title>Node62</title>
<g id="a_node49"><a xlink:href="../../d1/d3a/abstracttest_8cpp.html" target="_top" xlink:title=" ">
<polygon fill="white" stroke="black" points="6083.5,-145.5 6083.5,-164.5 6244.5,-164.5 6244.5,-145.5 6083.5,-145.5"/>
<text text-anchor="middle" x="6164" y="-152.5" font-family="Helvetica,sans-Serif" font-size="10.00">src/libs/vtest/abstracttest.cpp</text>
</a>
</g>
</g>
<!-- Node4&#45;&gt;Node62 -->
<g id="edge59" class="edge">
<title>Node4&#45;&gt;Node62</title>
<path fill="none" stroke="midnightblue" d="M5664.77,-222.05C5756.08,-215.14 5929.16,-200.07 6075,-176 6093.44,-172.96 6113.79,-168.47 6130.37,-164.52"/>
<polygon fill="midnightblue" stroke="midnightblue" points="5664.29,-218.57 5654.58,-222.81 5664.82,-225.55 5664.29,-218.57"/>
</g>
<!-- Node63 -->
<g id="node50" class="node">
<title>Node63</title>
<g id="a_node50"><a xlink:href="../../da/db4/piece__tablewidgetitem_8cpp.html" target="_top" xlink:title=" ">
<polygon fill="white" stroke="black" points="6263,-140 6263,-170 6391,-170 6391,-140 6263,-140"/>
<text text-anchor="start" x="6271" y="-158" font-family="Helvetica,sans-Serif" font-size="10.00">src/libs/vwidgets/piece</text>
<text text-anchor="middle" x="6327" y="-147" font-family="Helvetica,sans-Serif" font-size="10.00">_tablewidgetitem.cpp</text>
</a>
</g>
</g>
<!-- Node4&#45;&gt;Node63 -->
<g id="edge60" class="edge">
<title>Node4&#45;&gt;Node63</title>
<path fill="none" stroke="midnightblue" d="M5665.01,-225.58C5782.54,-222.99 6040.32,-213.18 6254,-176 6262.8,-174.47 6272.08,-172.34 6280.96,-170.04"/>
<polygon fill="midnightblue" stroke="midnightblue" points="5664.68,-222.08 5654.75,-225.79 5664.83,-229.08 5664.68,-222.08"/>
</g>
<!-- Node5&#45;&gt;Node6 -->
<g id="edge5" class="edge">
<title>Node5&#45;&gt;Node6</title>
<path fill="none" stroke="midnightblue" d="M6523.11,-137.4C6511.26,-123.24 6494.7,-103.46 6485.29,-92.22"/>
<polygon fill="midnightblue" stroke="midnightblue" points="6520.66,-139.93 6529.77,-145.36 6526.03,-135.44 6520.66,-139.93"/>
</g>
<!-- Node8 -->
<g id="node8" class="node">
<title>Node8</title>
<g id="a_node8"><a xlink:href="../../dd/d66/vdxfengine_8cpp.html" target="_top" xlink:title=" ">
<polygon fill="white" stroke="black" points="954,-73 954,-92 1108,-92 1108,-73 954,-73"/>
<text text-anchor="middle" x="1031" y="-80" font-family="Helvetica,sans-Serif" font-size="10.00">src/libs/vdxf/vdxfengine.cpp</text>
</a>
</g>
</g>
<!-- Node7&#45;&gt;Node8 -->
<g id="edge8" class="edge">
<title>Node7&#45;&gt;Node8</title>
<path fill="none" stroke="midnightblue" d="M774.58,-143.16C835.01,-129.1 939.19,-104.86 994.32,-92.03"/>
<polygon fill="midnightblue" stroke="midnightblue" points="773.5,-139.82 764.55,-145.5 775.08,-146.64 773.5,-139.82"/>
</g>
<!-- Node9 -->
<g id="node9" class="node">
<title>Node9</title>
<g id="a_node9"><a xlink:href="../../de/da8/vbank_8cpp.html" target="_top" xlink:title=" ">
<polygon fill="white" stroke="black" points="0,-73 0,-92 144,-92 144,-73 0,-73"/>
<text text-anchor="middle" x="72" y="-80" font-family="Helvetica,sans-Serif" font-size="10.00">src/libs/vlayout/vbank.cpp</text>
</a>
</g>
</g>
<!-- Node7&#45;&gt;Node9 -->
<g id="edge9" class="edge">
<title>Node7&#45;&gt;Node9</title>
<path fill="none" stroke="midnightblue" d="M634.83,-147.23C520.88,-138.42 322.26,-121.35 153,-98 140.97,-96.34 128,-94.18 116.04,-92.04"/>
<polygon fill="midnightblue" stroke="midnightblue" points="634.68,-150.73 644.91,-148.01 635.21,-143.75 634.68,-150.73"/>
</g>
<!-- Node10 -->
<g id="node10" class="node">
<title>Node10</title>
<g id="a_node10"><a xlink:href="../../df/d5d/vcontour_8cpp.html" target="_top" xlink:title=" ">
<polygon fill="white" stroke="black" points="162,-73 162,-92 318,-92 318,-73 162,-73"/>
<text text-anchor="middle" x="240" y="-80" font-family="Helvetica,sans-Serif" font-size="10.00">src/libs/vlayout/vcontour.cpp</text>
</a>
</g>
</g>
<!-- Node7&#45;&gt;Node10 -->
<g id="edge10" class="edge">
<title>Node7&#45;&gt;Node10</title>
<path fill="none" stroke="midnightblue" d="M652.92,-144.12C572.29,-133.36 440.44,-115.37 327,-98 314.89,-96.15 301.85,-94.03 289.65,-92.01"/>
<polygon fill="midnightblue" stroke="midnightblue" points="652.61,-147.61 662.98,-145.46 653.53,-140.67 652.61,-147.61"/>
</g>
<!-- Node11 -->
<g id="node11" class="node">
<title>Node11</title>
<g id="a_node11"><a xlink:href="../../d3/d39/vlayoutgenerator_8cpp.html" target="_top" xlink:title=" ">
<polygon fill="white" stroke="black" points="336.5,-73 336.5,-92 533.5,-92 533.5,-73 336.5,-73"/>
<text text-anchor="middle" x="435" y="-80" font-family="Helvetica,sans-Serif" font-size="10.00">src/libs/vlayout/vlayoutgenerator.cpp</text>
</a>
</g>
</g>
<!-- Node7&#45;&gt;Node11 -->
<g id="edge11" class="edge">
<title>Node7&#45;&gt;Node11</title>
<path fill="none" stroke="midnightblue" d="M682.6,-143.08C624.11,-129 523.67,-104.83 470.47,-92.03"/>
<polygon fill="midnightblue" stroke="midnightblue" points="682.12,-146.56 692.66,-145.5 683.75,-139.75 682.12,-146.56"/>
</g>
<!-- Node12 -->
<g id="node12" class="node">
<title>Node12</title>
<g id="a_node12"><a xlink:href="../../d2/d2d/vlayoutpaper__p_8h.html" target="_top" xlink:title=" ">
<polygon fill="white" stroke="black" points="756.5,-73 756.5,-92 935.5,-92 935.5,-73 756.5,-73"/>
<text text-anchor="middle" x="846" y="-80" font-family="Helvetica,sans-Serif" font-size="10.00">src/libs/vlayout/vlayoutpaper_p.h</text>
</a>
</g>
</g>
<!-- Node7&#45;&gt;Node12 -->
<g id="edge12" class="edge">
<title>Node7&#45;&gt;Node12</title>
<path fill="none" stroke="midnightblue" d="M751.23,-140.12C775.04,-125.89 811.35,-104.2 831.41,-92.22"/>
<polygon fill="midnightblue" stroke="midnightblue" points="749.26,-137.22 742.47,-145.36 752.85,-143.23 749.26,-137.22"/>
</g>
<!-- Node13 -->
<g id="node13" class="node">
<title>Node13</title>
<g id="a_node13"><a xlink:href="../../d1/dd1/vlayoutpaper_8cpp.html" target="_top" xlink:title=" ">
<polygon fill="white" stroke="black" points="639,-6 639,-25 817,-25 817,-6 639,-6"/>
<text text-anchor="middle" x="728" y="-13" font-family="Helvetica,sans-Serif" font-size="10.00">src/libs/vlayout/vlayoutpaper.cpp</text>
</a>
</g>
</g>
<!-- Node7&#45;&gt;Node13 -->
<g id="edge17" class="edge">
<title>Node7&#45;&gt;Node13</title>
<path fill="none" stroke="midnightblue" d="M728,-135.36C728,-105.23 728,-46.99 728,-25.1"/>
<polygon fill="midnightblue" stroke="midnightblue" points="724.5,-135.4 728,-145.4 731.5,-135.4 724.5,-135.4"/>
</g>
<!-- Node14 -->
<g id="node14" class="node">
<title>Node14</title>
<g id="a_node14"><a xlink:href="../../db/d5c/vposition_8h.html" target="_top" xlink:title=" ">
<polygon fill="white" stroke="red" points="552,-73 552,-92 700,-92 700,-73 552,-73"/>
<text text-anchor="middle" x="626" y="-80" font-family="Helvetica,sans-Serif" font-size="10.00">src/libs/vlayout/vposition.h</text>
</a>
</g>
</g>
<!-- Node7&#45;&gt;Node14 -->
<g id="edge14" class="edge">
<title>Node7&#45;&gt;Node14</title>
<path fill="none" stroke="midnightblue" d="M707.1,-139.55C686.5,-125.32 655.72,-104.04 638.61,-92.22"/>
<polygon fill="midnightblue" stroke="midnightblue" points="705.28,-142.55 715.49,-145.36 709.26,-136.79 705.28,-142.55"/>
</g>
<!-- Node16 -->
<g id="node15" class="node">
<title>Node16</title>
<g id="a_node15"><a xlink:href="../../dd/d70/vlayoutpiece_8cpp.html" target="_top" xlink:title=" ">
<polygon fill="white" stroke="black" points="1126.5,-73 1126.5,-92 1303.5,-92 1303.5,-73 1126.5,-73"/>
<text text-anchor="middle" x="1215" y="-80" font-family="Helvetica,sans-Serif" font-size="10.00">src/libs/vlayout/vlayoutpiece.cpp</text>
</a>
</g>
</g>
<!-- Node7&#45;&gt;Node16 -->
<g id="edge16" class="edge">
<title>Node7&#45;&gt;Node16</title>
<path fill="none" stroke="midnightblue" d="M797.82,-144.03C875.69,-132.9 1005.38,-114.29 1117,-98 1130.19,-96.07 1144.37,-93.99 1157.74,-92.01"/>
<polygon fill="midnightblue" stroke="midnightblue" points="797.06,-140.61 787.65,-145.49 798.05,-147.54 797.06,-140.61"/>
</g>
<!-- Node12&#45;&gt;Node13 -->
<g id="edge13" class="edge">
<title>Node12&#45;&gt;Node13</title>
<path fill="none" stroke="midnightblue" d="M821.11,-67.79C797.72,-54.9 763.44,-36.02 743.66,-25.13"/>
<polygon fill="midnightblue" stroke="midnightblue" points="819.64,-70.97 830.09,-72.73 823.02,-64.84 819.64,-70.97"/>
</g>
<!-- Node14&#45;&gt;Node13 -->
<g id="edge15" class="edge">
<title>Node14&#45;&gt;Node13</title>
<path fill="none" stroke="midnightblue" d="M648.33,-67.27C668.52,-54.4 697.59,-35.88 714.46,-25.13"/>
<polygon fill="midnightblue" stroke="midnightblue" points="646.31,-64.41 639.76,-72.73 650.07,-70.31 646.31,-64.41"/>
</g>
<!-- Node18&#45;&gt;Node16 -->
<g id="edge30" class="edge">
<title>Node18&#45;&gt;Node16</title>
<path fill="none" stroke="midnightblue" d="M3452.17,-153.08C3063.53,-149.49 1735.22,-134.76 1312,-98 1296.39,-96.64 1279.48,-94.39 1264.21,-92.06"/>
<polygon fill="midnightblue" stroke="midnightblue" points="3452.26,-156.58 3462.29,-153.17 3452.32,-149.58 3452.26,-156.58"/>
</g>
<!-- Node18&#45;&gt;Node17 -->
<g id="edge31" class="edge">
<title>Node18&#45;&gt;Node17</title>
<path fill="none" stroke="midnightblue" d="M3452.46,-150.28C3331.14,-146.12 3127.91,-139.28 2953,-134 2368.6,-116.37 2220.52,-148.03 1638,-98 1621.92,-96.62 1604.48,-94.36 1588.74,-92.03"/>
<polygon fill="midnightblue" stroke="midnightblue" points="3452.38,-153.78 3462.5,-150.62 3452.62,-146.78 3452.38,-153.78"/>
</g>
<!-- Node19 -->
<g id="node18" class="node">
<title>Node19</title>
<g id="a_node18"><a xlink:href="../../d4/d90/fvupdater_8cpp.html" target="_top" xlink:title=" ">
<polygon fill="white" stroke="black" points="3483.5,-73 3483.5,-92 3636.5,-92 3636.5,-73 3483.5,-73"/>
<text text-anchor="middle" x="3560" y="-80" font-family="Helvetica,sans-Serif" font-size="10.00">src/libs/fervor/fvupdater.cpp</text>
</a>
</g>
</g>
<!-- Node18&#45;&gt;Node19 -->
<g id="edge20" class="edge">
<title>Node18&#45;&gt;Node19</title>
<path fill="none" stroke="midnightblue" d="M3560,-134.94C3560,-121.03 3560,-102.82 3560,-92.22"/>
<polygon fill="midnightblue" stroke="midnightblue" points="3556.5,-135.36 3560,-145.36 3563.5,-135.36 3556.5,-135.36"/>
</g>
<!-- Node20 -->
<g id="node19" class="node">
<title>Node20</title>
<g id="a_node19"><a xlink:href="../../d9/dc8/dxiface_8cpp.html" target="_top" xlink:title=" ">
<polygon fill="white" stroke="black" points="3654.5,-73 3654.5,-92 3789.5,-92 3789.5,-73 3654.5,-73"/>
<text text-anchor="middle" x="3722" y="-80" font-family="Helvetica,sans-Serif" font-size="10.00">src/libs/vdxf/dxiface.cpp</text>
</a>
</g>
</g>
<!-- Node18&#45;&gt;Node20 -->
<g id="edge21" class="edge">
<title>Node18&#45;&gt;Node20</title>
<path fill="none" stroke="midnightblue" d="M3589.02,-141.37C3621.77,-127.12 3674.13,-104.33 3702.39,-92.03"/>
<polygon fill="midnightblue" stroke="midnightblue" points="3587.31,-138.3 3579.54,-145.5 3590.11,-144.71 3587.31,-138.3"/>
</g>
<!-- Node21 -->
<g id="node20" class="node">
<title>Node21</title>
<g id="a_node20"><a xlink:href="../../da/d75/vabstractarc__p_8h.html" target="_top" xlink:title=" ">
<polygon fill="white" stroke="red" points="3807.5,-67.5 3807.5,-97.5 3914.5,-97.5 3914.5,-67.5 3807.5,-67.5"/>
<text text-anchor="start" x="3815.5" y="-85.5" font-family="Helvetica,sans-Serif" font-size="10.00">src/libs/vgeometry</text>
<text text-anchor="middle" x="3861" y="-74.5" font-family="Helvetica,sans-Serif" font-size="10.00">/vabstractarc_p.h</text>
</a>
</g>
</g>
<!-- Node18&#45;&gt;Node21 -->
<g id="edge22" class="edge">
<title>Node18&#45;&gt;Node21</title>
<path fill="none" stroke="midnightblue" d="M3606.33,-143.15C3660.53,-130.45 3750.11,-109.47 3807.3,-96.08"/>
<polygon fill="midnightblue" stroke="midnightblue" points="3605.25,-139.81 3596.31,-145.5 3606.84,-146.62 3605.25,-139.81"/>
</g>
<!-- Node23 -->
<g id="node21" class="node">
<title>Node23</title>
<g id="a_node21"><a xlink:href="../../dc/da3/varc__p_8h.html" target="_top" xlink:title=" ">
<polygon fill="white" stroke="red" points="3932.5,-67.5 3932.5,-97.5 4039.5,-97.5 4039.5,-67.5 3932.5,-67.5"/>
<text text-anchor="start" x="3940.5" y="-85.5" font-family="Helvetica,sans-Serif" font-size="10.00">src/libs/vgeometry</text>
<text text-anchor="middle" x="3986" y="-74.5" font-family="Helvetica,sans-Serif" font-size="10.00">/varc_p.h</text>
</a>
</g>
</g>
<!-- Node18&#45;&gt;Node23 -->
<g id="edge23" class="edge">
<title>Node18&#45;&gt;Node23</title>
<path fill="none" stroke="midnightblue" d="M3634.94,-144.07C3708.53,-133.94 3823.86,-117.03 3923,-98 3926.09,-97.41 3929.25,-96.77 3932.44,-96.11"/>
<polygon fill="midnightblue" stroke="midnightblue" points="3634.27,-140.63 3624.83,-145.46 3635.22,-147.57 3634.27,-140.63"/>
</g>
<!-- Node25 -->
<g id="node22" class="node">
<title>Node25</title>
<g id="a_node22"><a xlink:href="../../d5/d8e/vcubicbezier__p_8h.html" target="_top" xlink:title=" ">
<polygon fill="white" stroke="red" points="4057.5,-67.5 4057.5,-97.5 4164.5,-97.5 4164.5,-67.5 4057.5,-67.5"/>
<text text-anchor="start" x="4065.5" y="-85.5" font-family="Helvetica,sans-Serif" font-size="10.00">src/libs/vgeometry</text>
<text text-anchor="middle" x="4111" y="-74.5" font-family="Helvetica,sans-Serif" font-size="10.00">/vcubicbezier_p.h</text>
</a>
</g>
</g>
<!-- Node18&#45;&gt;Node25 -->
<g id="edge24" class="edge">
<title>Node18&#45;&gt;Node25</title>
<path fill="none" stroke="midnightblue" d="M3667.71,-145.13C3766.92,-136.14 3917.99,-120.35 4048,-98 4051.1,-97.47 4054.27,-96.88 4057.47,-96.25"/>
<polygon fill="midnightblue" stroke="midnightblue" points="3667.32,-141.65 3657.68,-146.03 3667.95,-148.62 3667.32,-141.65"/>
</g>
<!-- Node27 -->
<g id="node23" class="node">
<title>Node27</title>
<g id="a_node23"><a xlink:href="../../df/dde/vellipticalarc__p_8h.html" target="_top" xlink:title=" ">
<polygon fill="white" stroke="black" points="4182.5,-67.5 4182.5,-97.5 4289.5,-97.5 4289.5,-67.5 4182.5,-67.5"/>
<text text-anchor="start" x="4190.5" y="-85.5" font-family="Helvetica,sans-Serif" font-size="10.00">src/libs/vgeometry</text>
<text text-anchor="middle" x="4236" y="-74.5" font-family="Helvetica,sans-Serif" font-size="10.00">/vellipticalarc_p.h</text>
</a>
</g>
</g>
<!-- Node18&#45;&gt;Node27 -->
<g id="edge25" class="edge">
<title>Node18&#45;&gt;Node27</title>
<path fill="none" stroke="midnightblue" d="M3667.81,-148.57C3790.68,-141.36 3997.23,-126.12 4173,-98 4176.1,-97.5 4179.28,-96.94 4182.48,-96.34"/>
<polygon fill="midnightblue" stroke="midnightblue" points="3667.43,-145.09 3657.65,-149.16 3667.84,-152.07 3667.43,-145.09"/>
</g>
<!-- Node28 -->
<g id="node24" class="node">
<title>Node28</title>
<g id="a_node24"><a xlink:href="../../d6/dfb/vellipticalarc_8cpp.html" target="_top" xlink:title=" ">
<polygon fill="white" stroke="black" points="2955.5,-0.5 2955.5,-30.5 3062.5,-30.5 3062.5,-0.5 2955.5,-0.5"/>
<text text-anchor="start" x="2963.5" y="-18.5" font-family="Helvetica,sans-Serif" font-size="10.00">src/libs/vgeometry</text>
<text text-anchor="middle" x="3009" y="-7.5" font-family="Helvetica,sans-Serif" font-size="10.00">/vellipticalarc.cpp</text>
</a>
</g>
</g>
<!-- Node18&#45;&gt;Node28 -->
<g id="edge27" class="edge">
<title>Node18&#45;&gt;Node28</title>
<path fill="none" stroke="midnightblue" d="M3452.46,-150.4C3331.13,-146.36 3127.9,-139.62 2953,-134 2921.03,-132.97 1824.26,-120.97 1802,-98 1792.41,-88.11 1792.46,-76.94 1802,-67 1842.42,-24.85 2726.32,-17.82 2955.25,-16.7"/>
<polygon fill="midnightblue" stroke="midnightblue" points="3452.38,-153.9 3462.49,-150.74 3452.62,-146.91 3452.38,-153.9"/>
</g>
<!-- Node29 -->
<g id="node25" class="node">
<title>Node29</title>
<g id="a_node25"><a xlink:href="../../d1/d76/vspline__p_8h.html" target="_top" xlink:title=" ">
<polygon fill="white" stroke="red" points="4307.5,-67.5 4307.5,-97.5 4414.5,-97.5 4414.5,-67.5 4307.5,-67.5"/>
<text text-anchor="start" x="4315.5" y="-85.5" font-family="Helvetica,sans-Serif" font-size="10.00">src/libs/vgeometry</text>
<text text-anchor="middle" x="4361" y="-74.5" font-family="Helvetica,sans-Serif" font-size="10.00">/vspline_p.h</text>
</a>
</g>
</g>
<!-- Node18&#45;&gt;Node29 -->
<g id="edge28" class="edge">
<title>Node18&#45;&gt;Node29</title>
<path fill="none" stroke="midnightblue" d="M3667.71,-150.9C3811.94,-145.6 4075.48,-131.85 4298,-98 4301.11,-97.53 4304.29,-96.98 4307.49,-96.39"/>
<polygon fill="midnightblue" stroke="midnightblue" points="3667.4,-147.41 3657.53,-151.27 3667.65,-154.41 3667.4,-147.41"/>
</g>
<!-- Node31 -->
<g id="node26" class="node">
<title>Node31</title>
<g id="a_node26"><a xlink:href="../../d9/d15/vabstractpiece_8cpp.html" target="_top" xlink:title=" ">
<polygon fill="white" stroke="black" points="4433,-73 4433,-92 4619,-92 4619,-73 4433,-73"/>
<text text-anchor="middle" x="4526" y="-80" font-family="Helvetica,sans-Serif" font-size="10.00">src/libs/vlayout/vabstractpiece.cpp</text>
</a>
</g>
</g>
<!-- Node18&#45;&gt;Node31 -->
<g id="edge29" class="edge">
<title>Node18&#45;&gt;Node31</title>
<path fill="none" stroke="midnightblue" d="M3667.65,-149.61C3831.17,-142.36 4151.81,-125.85 4423,-98 4438.63,-96.4 4455.53,-94.21 4471.04,-92.02"/>
<polygon fill="midnightblue" stroke="midnightblue" points="3667.43,-146.12 3657.59,-150.06 3667.73,-153.11 3667.43,-146.12"/>
</g>
<!-- Node32 -->
<g id="node27" class="node">
<title>Node32</title>
<g id="a_node27"><a xlink:href="../../db/d65/dialogexporttocsv_8cpp.html" target="_top" xlink:title=" ">
<polygon fill="white" stroke="black" points="4637.5,-67.5 4637.5,-97.5 4764.5,-97.5 4764.5,-67.5 4637.5,-67.5"/>
<text text-anchor="start" x="4645.5" y="-85.5" font-family="Helvetica,sans-Serif" font-size="10.00">src/libs/vmisc/dialogs</text>
<text text-anchor="middle" x="4701" y="-74.5" font-family="Helvetica,sans-Serif" font-size="10.00">/dialogexporttocsv.cpp</text>
</a>
</g>
</g>
<!-- Node18&#45;&gt;Node32 -->
<g id="edge32" class="edge">
<title>Node18&#45;&gt;Node32</title>
<path fill="none" stroke="midnightblue" d="M3667.75,-153.46C3860.93,-151.35 4278.67,-141.62 4628,-98 4631.08,-97.62 4634.22,-97.18 4637.39,-96.69"/>
<polygon fill="midnightblue" stroke="midnightblue" points="3667.56,-149.96 3657.6,-153.56 3667.64,-156.96 3667.56,-149.96"/>
</g>
<!-- Node33 -->
<g id="node28" class="node">
<title>Node33</title>
<g id="a_node28"><a xlink:href="../../d6/d0b/def_8cpp.html" target="_top" xlink:title=" ">
<polygon fill="white" stroke="black" points="4783,-73 4783,-92 4905,-92 4905,-73 4783,-73"/>
<text text-anchor="middle" x="4844" y="-80" font-family="Helvetica,sans-Serif" font-size="10.00">src/libs/vmisc/def.cpp</text>
</a>
</g>
</g>
<!-- Node18&#45;&gt;Node33 -->
<g id="edge33" class="edge">
<title>Node18&#45;&gt;Node33</title>
<path fill="none" stroke="midnightblue" d="M3667.74,-154.62C3880.07,-154.62 4367.26,-148.49 4773,-98 4784.36,-96.59 4796.62,-94.35 4807.69,-92.04"/>
<polygon fill="midnightblue" stroke="midnightblue" points="3667.53,-151.12 3657.53,-154.62 3667.52,-158.12 3667.53,-151.12"/>
</g>
<!-- Node34 -->
<g id="node29" class="node">
<title>Node34</title>
<g id="a_node29"><a xlink:href="../../d0/df6/vabstractapplication_8cpp.html" target="_top" xlink:title=" ">
<polygon fill="white" stroke="black" points="4923,-73 4923,-92 5129,-92 5129,-73 4923,-73"/>
<text text-anchor="middle" x="5026" y="-80" font-family="Helvetica,sans-Serif" font-size="10.00">src/libs/vmisc/vabstractapplication.cpp</text>
</a>
</g>
</g>
<!-- Node18&#45;&gt;Node34 -->
<g id="edge34" class="edge">
<title>Node18&#45;&gt;Node34</title>
<path fill="none" stroke="midnightblue" d="M3667.91,-152.74C3897.55,-149.35 4451.45,-137.43 4914,-98 4931.48,-96.51 4950.43,-94.29 4967.68,-92.03"/>
<polygon fill="midnightblue" stroke="midnightblue" points="3667.83,-149.24 3657.89,-152.88 3667.94,-156.24 3667.83,-149.24"/>
</g>
<!-- Node35 -->
<g id="node30" class="node">
<title>Node35</title>
<g id="a_node30"><a xlink:href="../../d4/d4f/pmsystems_8cpp.html" target="_top" xlink:title=" ">
<polygon fill="white" stroke="black" points="1647.5,-67.5 1647.5,-97.5 1754.5,-97.5 1754.5,-67.5 1647.5,-67.5"/>
<text text-anchor="start" x="1655.5" y="-85.5" font-family="Helvetica,sans-Serif" font-size="10.00">src/libs/vpatterndb</text>
<text text-anchor="middle" x="1701" y="-74.5" font-family="Helvetica,sans-Serif" font-size="10.00">/pmsystems.cpp</text>
</a>
</g>
</g>
<!-- Node18&#45;&gt;Node35 -->
<g id="edge35" class="edge">
<title>Node18&#45;&gt;Node35</title>
<path fill="none" stroke="midnightblue" d="M3452.46,-150.37C3331.13,-146.3 3127.9,-139.54 2953,-134 2426.8,-117.33 2291.66,-161.15 1769,-98 1764.33,-97.44 1759.5,-96.71 1754.67,-95.88"/>
<polygon fill="midnightblue" stroke="midnightblue" points="3452.38,-153.87 3462.49,-150.71 3452.62,-146.88 3452.38,-153.87"/>
</g>
<!-- Node18&#45;&gt;Node36 -->
<g id="edge36" class="edge">
<title>Node18&#45;&gt;Node36</title>
<path fill="none" stroke="midnightblue" d="M3452.43,-154C3078.11,-153.56 1833.81,-148.26 1438,-98 1434.99,-97.62 1431.92,-97.16 1428.83,-96.63"/>
<polygon fill="midnightblue" stroke="midnightblue" points="3452.45,-157.5 3462.45,-154.01 3452.46,-150.5 3452.45,-157.5"/>
</g>
<!-- Node18&#45;&gt;Node37 -->
<g id="edge37" class="edge">
<title>Node18&#45;&gt;Node37</title>
<path fill="none" stroke="midnightblue" d="M3668.01,-153.18C3992.05,-150.28 4952.68,-138.43 5263,-98 5266,-97.61 5269.08,-97.14 5272.17,-96.61"/>
<polygon fill="midnightblue" stroke="midnightblue" points="3667.65,-149.68 3657.68,-153.27 3667.71,-156.68 3667.65,-149.68"/>
</g>
<!-- Node38 -->
<g id="node33" class="node">
<title>Node38</title>
<g id="a_node33"><a xlink:href="../../df/dba/vpiecenode__p_8h.html" target="_top" xlink:title=" ">
<polygon fill="white" stroke="black" points="5147.5,-67.5 5147.5,-97.5 5254.5,-97.5 5254.5,-67.5 5147.5,-67.5"/>
<text text-anchor="start" x="5155.5" y="-85.5" font-family="Helvetica,sans-Serif" font-size="10.00">src/libs/vpatterndb</text>
<text text-anchor="middle" x="5201" y="-74.5" font-family="Helvetica,sans-Serif" font-size="10.00">/vpiecenode_p.h</text>
</a>
</g>
</g>
<!-- Node18&#45;&gt;Node38 -->
<g id="edge38" class="edge">
<title>Node18&#45;&gt;Node38</title>
<path fill="none" stroke="midnightblue" d="M3667.75,-152.85C3975.22,-149.15 4852.89,-135.52 5138,-98 5141,-97.6 5144.08,-97.13 5147.17,-96.6"/>
<polygon fill="midnightblue" stroke="midnightblue" points="3667.46,-149.36 3657.5,-152.98 3667.54,-156.36 3667.46,-149.36"/>
</g>
<!-- Node18&#45;&gt;Node40 -->
<g id="edge40" class="edge">
<title>Node18&#45;&gt;Node40</title>
<path fill="none" stroke="midnightblue" d="M3667.67,-153.46C4007.11,-151.34 5052.19,-141.36 5388,-98 5391.01,-97.61 5394.08,-97.14 5397.17,-96.62"/>
<polygon fill="midnightblue" stroke="midnightblue" points="3667.57,-149.97 3657.59,-153.53 3667.61,-156.97 3667.57,-149.97"/>
</g>
<!-- Node41 -->
<g id="node36" class="node">
<title>Node41</title>
<g id="a_node36"><a xlink:href="../../de/d3e/vtranslatevars_8cpp.html" target="_top" xlink:title=" ">
<polygon fill="white" stroke="black" points="1811,-67.5 1811,-97.5 1921,-97.5 1921,-67.5 1811,-67.5"/>
<text text-anchor="start" x="1819" y="-85.5" font-family="Helvetica,sans-Serif" font-size="10.00">src/libs/vpatterndb</text>
<text text-anchor="middle" x="1866" y="-74.5" font-family="Helvetica,sans-Serif" font-size="10.00">/vtranslatevars.cpp</text>
</a>
</g>
</g>
<!-- Node18&#45;&gt;Node41 -->
<g id="edge41" class="edge">
<title>Node18&#45;&gt;Node41</title>
<path fill="none" stroke="midnightblue" d="M3452.21,-150.43C3091.6,-138.48 1948.92,-100.45 1930,-98 1927.06,-97.62 1924.06,-97.17 1921.04,-96.66"/>
<polygon fill="midnightblue" stroke="midnightblue" points="3452.28,-153.94 3462.39,-150.77 3452.51,-146.94 3452.28,-153.94"/>
</g>
<!-- Node42 -->
<g id="node37" class="node">
<title>Node42</title>
<g id="a_node37"><a xlink:href="../../df/d40/export__format__combobox_8cpp.html" target="_top" xlink:title=" ">
<polygon fill="white" stroke="black" points="1939.5,-67.5 1939.5,-97.5 2072.5,-97.5 2072.5,-67.5 1939.5,-67.5"/>
<text text-anchor="start" x="1947.5" y="-85.5" font-family="Helvetica,sans-Serif" font-size="10.00">src/libs/vwidgets/export</text>
<text text-anchor="middle" x="2006" y="-74.5" font-family="Helvetica,sans-Serif" font-size="10.00">_format_combobox.cpp</text>
</a>
</g>
</g>
<!-- Node18&#45;&gt;Node42 -->
<g id="edge42" class="edge">
<title>Node18&#45;&gt;Node42</title>
<path fill="none" stroke="midnightblue" d="M3452.28,-150.36C3123.29,-139.2 2149.77,-105.7 2082,-98 2078.93,-97.65 2075.8,-97.25 2072.64,-96.8"/>
<polygon fill="midnightblue" stroke="midnightblue" points="3452.19,-153.86 3462.3,-150.7 3452.42,-146.87 3452.19,-153.86"/>
</g>
<!-- Node43 -->
<g id="node38" class="node">
<title>Node43</title>
<g id="a_node38"><a xlink:href="../../d3/d4f/mouse__coordinates_8cpp.html" target="_top" xlink:title=" ">
<polygon fill="white" stroke="black" points="2091,-67.5 2091,-97.5 2225,-97.5 2225,-67.5 2091,-67.5"/>
<text text-anchor="start" x="2099" y="-85.5" font-family="Helvetica,sans-Serif" font-size="10.00">src/libs/vwidgets/mouse</text>
<text text-anchor="middle" x="2158" y="-74.5" font-family="Helvetica,sans-Serif" font-size="10.00">_coordinates.cpp</text>
</a>
</g>
</g>
<!-- Node18&#45;&gt;Node43 -->
<g id="edge43" class="edge">
<title>Node18&#45;&gt;Node43</title>
<path fill="none" stroke="midnightblue" d="M3452.16,-150.35C3157.59,-140.27 2353.29,-111.82 2234,-98 2231.06,-97.66 2228.07,-97.27 2225.05,-96.84"/>
<polygon fill="midnightblue" stroke="midnightblue" points="3452.31,-153.86 3462.43,-150.71 3452.55,-146.87 3452.31,-153.86"/>
</g>
<!-- Node44 -->
<g id="node39" class="node">
<title>Node44</title>
<g id="a_node39"><a xlink:href="../../d2/d28/page__format__combobox_8cpp.html" target="_top" xlink:title=" ">
<polygon fill="white" stroke="black" points="2243.5,-67.5 2243.5,-97.5 2374.5,-97.5 2374.5,-67.5 2243.5,-67.5"/>
<text text-anchor="start" x="2251.5" y="-85.5" font-family="Helvetica,sans-Serif" font-size="10.00">src/libs/vwidgets/page</text>
<text text-anchor="middle" x="2309" y="-74.5" font-family="Helvetica,sans-Serif" font-size="10.00">_format_combobox.cpp</text>
</a>
</g>
</g>
<!-- Node18&#45;&gt;Node44 -->
<g id="edge44" class="edge">
<title>Node18&#45;&gt;Node44</title>
<path fill="none" stroke="midnightblue" d="M3452.18,-150.89C3202.06,-143.34 2588.07,-122.83 2383,-98 2380.27,-97.67 2377.49,-97.3 2374.69,-96.89"/>
<polygon fill="midnightblue" stroke="midnightblue" points="3452.27,-154.39 3462.37,-151.19 3452.48,-147.39 3452.27,-154.39"/>
</g>
<!-- Node45 -->
<g id="node40" class="node">
<title>Node45</title>
<g id="a_node40"><a xlink:href="../../d7/d1b/pen__toolbar_8cpp.html" target="_top" xlink:title=" ">
<polygon fill="white" stroke="black" points="2392.5,-67.5 2392.5,-97.5 2511.5,-97.5 2511.5,-67.5 2392.5,-67.5"/>
<text text-anchor="start" x="2400.5" y="-85.5" font-family="Helvetica,sans-Serif" font-size="10.00">src/libs/vwidgets/pen</text>
<text text-anchor="middle" x="2452" y="-74.5" font-family="Helvetica,sans-Serif" font-size="10.00">_toolbar.cpp</text>
</a>
</g>
</g>
<!-- Node18&#45;&gt;Node45 -->
<g id="edge45" class="edge">
<title>Node18&#45;&gt;Node45</title>
<path fill="none" stroke="midnightblue" d="M3452.07,-150.33C3223.62,-142.21 2697.64,-121.57 2520,-98 2517.25,-97.63 2514.44,-97.22 2511.61,-96.76"/>
<polygon fill="midnightblue" stroke="midnightblue" points="3452.27,-153.84 3462.39,-150.7 3452.52,-146.84 3452.27,-153.84"/>
</g>
<!-- Node46 -->
<g id="node41" class="node">
<title>Node46</title>
<g id="a_node41"><a xlink:href="../../dd/df6/vabstractmainwindow_8cpp.html" target="_top" xlink:title=" ">
<polygon fill="white" stroke="black" points="2529.5,-73 2529.5,-92 2758.5,-92 2758.5,-73 2529.5,-73"/>
<text text-anchor="middle" x="2644" y="-80" font-family="Helvetica,sans-Serif" font-size="10.00">src/libs/vwidgets/vabstractmainwindow.cpp</text>
</a>
</g>
</g>
<!-- Node18&#45;&gt;Node46 -->
<g id="edge46" class="edge">
<title>Node18&#45;&gt;Node46</title>
<path fill="none" stroke="midnightblue" d="M3451.9,-147.98C3299.14,-139.1 3011.47,-121.03 2767,-98 2748.91,-96.3 2729.36,-94.14 2711.29,-92.01"/>
<polygon fill="midnightblue" stroke="midnightblue" points="3452.03,-151.49 3462.21,-148.57 3452.43,-144.5 3452.03,-151.49"/>
</g>
<!-- Node47 -->
<g id="node42" class="node">
<title>Node47</title>
<g id="a_node42"><a xlink:href="../../de/d45/vcontrolpointspline_8cpp.html" target="_top" xlink:title=" ">
<polygon fill="white" stroke="black" points="2776.5,-73 2776.5,-92 2991.5,-92 2991.5,-73 2776.5,-73"/>
<text text-anchor="middle" x="2884" y="-80" font-family="Helvetica,sans-Serif" font-size="10.00">src/libs/vwidgets/vcontrolpointspline.cpp</text>
</a>
</g>
</g>
<!-- Node18&#45;&gt;Node47 -->
<g id="edge47" class="edge">
<title>Node18&#45;&gt;Node47</title>
<path fill="none" stroke="midnightblue" d="M3457.8,-144.54C3345.48,-133.97 3159.75,-115.97 3000,-98 2983.76,-96.17 2966.27,-94.06 2949.91,-92.03"/>
<polygon fill="midnightblue" stroke="midnightblue" points="3457.49,-148.03 3467.77,-145.48 3458.14,-141.06 3457.49,-148.03"/>
</g>
<!-- Node48 -->
<g id="node43" class="node">
<title>Node48</title>
<g id="a_node43"><a xlink:href="../../d1/d90/vgrainlineitem_8cpp.html" target="_top" xlink:title=" ">
<polygon fill="white" stroke="black" points="3009.5,-73 3009.5,-92 3202.5,-92 3202.5,-73 3009.5,-73"/>
<text text-anchor="middle" x="3106" y="-80" font-family="Helvetica,sans-Serif" font-size="10.00">src/libs/vwidgets/vgrainlineitem.cpp</text>
</a>
</g>
</g>
<!-- Node18&#45;&gt;Node48 -->
<g id="edge48" class="edge">
<title>Node18&#45;&gt;Node48</title>
<path fill="none" stroke="midnightblue" d="M3495.19,-143.94C3405.5,-130.01 3245.1,-105.1 3160.96,-92.03"/>
<polygon fill="midnightblue" stroke="midnightblue" points="3494.82,-147.42 3505.24,-145.5 3495.89,-140.5 3494.82,-147.42"/>
</g>
<!-- Node49 -->
<g id="node44" class="node">
<title>Node49</title>
<g id="a_node44"><a xlink:href="../../de/dec/vgraphicssimpletextitem_8cpp.html" target="_top" xlink:title=" ">
<polygon fill="white" stroke="black" points="3221,-73 3221,-92 3465,-92 3465,-73 3221,-73"/>
<text text-anchor="middle" x="3343" y="-80" font-family="Helvetica,sans-Serif" font-size="10.00">src/libs/vwidgets/vgraphicssimpletextitem.cpp</text>
</a>
</g>
</g>
<!-- Node18&#45;&gt;Node49 -->
<g id="edge49" class="edge">
<title>Node18&#45;&gt;Node49</title>
<path fill="none" stroke="midnightblue" d="M3524.2,-142.37C3480.6,-128.21 3408.02,-104.62 3369.27,-92.03"/>
<polygon fill="midnightblue" stroke="midnightblue" points="3523.23,-145.73 3533.82,-145.5 3525.4,-139.08 3523.23,-145.73"/>
</g>
<!-- Node27&#45;&gt;Node28 -->
<g id="edge26" class="edge">
<title>Node27&#45;&gt;Node28</title>
<path fill="none" stroke="midnightblue" d="M4172.19,-67.11C3934.49,-36.86 3258.08,-21.45 3062.52,-17.52"/>
<polygon fill="midnightblue" stroke="midnightblue" points="4171.79,-70.59 4182.16,-68.43 4172.71,-63.65 4171.79,-70.59"/>
</g>
<!-- Node38&#45;&gt;Node39 -->
<g id="edge39" class="edge">
<title>Node38&#45;&gt;Node39</title>
<path fill="none" stroke="midnightblue" d="M5263.76,-64.92C5303.9,-54.31 5355.42,-40.7 5393.6,-30.61"/>
<polygon fill="midnightblue" stroke="midnightblue" points="5262.85,-61.54 5254.08,-67.48 5264.64,-68.31 5262.85,-61.54"/>
</g>
<!-- Node59&#45;&gt;Node2 -->
<g id="edge52" class="edge">
<title>Node59&#45;&gt;Node2</title>
<path fill="none" stroke="midnightblue" d="M5564.99,-131.06C5571.69,-120.09 5579.49,-107.3 5585.31,-97.75"/>
<polygon fill="midnightblue" stroke="midnightblue" points="5561.92,-129.37 5559.7,-139.73 5567.9,-133.02 5561.92,-129.37"/>
</g>
</g>
</svg>
