<?xml version="1.0" encoding="UTF-8" standalone="no"?>
<!DOCTYPE svg PUBLIC "-//W3C//DTD SVG 1.1//EN"
 "http://www.w3.org/Graphics/SVG/1.1/DTD/svg11.dtd">
<!-- Generated by graphviz version 2.43.0 (0)
 -->
<!-- Title: src/app/seamly2d/dialogs/abstractlayout_dialog.cpp Pages: 1 -->
<!--zoomable 324 -->

<svg id="main" version="1.1" xmlns="http://www.w3.org/2000/svg" xmlns:xlink="http://www.w3.org/1999/xlink" xml:space="preserve" onload="init(evt)">
<style type="text/css"><![CDATA[
.node, .edge {opacity: 0.7;}
.node.selected, .edge.selected {opacity: 1;}
.edge:hover path { stroke: red; }
.edge:hover polygon { stroke: red; fill: red; }
]]></style>

<defs>
  <circle id="rim" cx="0" cy="0" r="7"/>
  <circle id="rim2" cx="0" cy="0" r="3.5"/>
  <g id="zoomPlus">
    <use xlink:href="#rim" fill="#404040"><set attributeName="fill" to="#808080" begin="zoomplus.mouseover" end="zoomplus.mouseout"/></use>
    <path d="M-4,0h8M0,-4v8" fill="none" stroke="white" stroke-width="1.5" pointer-events="none"/>
  </g>
  <g id="zoomMin">
    <use xlink:href="#rim" fill="#404040"><set attributeName="fill" to="#808080" begin="zoomminus.mouseover" end="zoomminus.mouseout"/></use>
    <path d="M-4,0h8" fill="none" stroke="white" stroke-width="1.5" pointer-events="none"/>
  </g>
  <g id="arrowUp" transform="translate(30 24)">
    <use xlink:href="#rim"/>
    <path pointer-events="none" fill="none" stroke="white" stroke-width="1.5" d="M0,-3.0v7 M-2.5,-0.5L0,-3.0L2.5,-0.5"/>
  </g>
  <g id="arrowRight" transform="rotate(90) translate(36 -43)">
    <use xlink:href="#rim"/>
    <path pointer-events="none" fill="none" stroke="white" stroke-width="1.5" d="M0,-3.0v7 M-2.5,-0.5L0,-3.0L2.5,-0.5"/>
  </g>
  <g id="arrowDown" transform="rotate(180) translate(-30 -48)">
    <use xlink:href="#rim"/>
    <path pointer-events="none" fill="none" stroke="white" stroke-width="1.5" d="M0,-3.0v7 M-2.5,-0.5L0,-3.0L2.5,-0.5"/>
  </g>
  <g id="arrowLeft" transform="rotate(270) translate(-36 17)">
    <use xlink:href="#rim"/>
    <path pointer-events="none" fill="none" stroke="white" stroke-width="1.5" d="M0,-3.0v7 M-2.5,-0.5L0,-3.0L2.5,-0.5"/>
  </g>
  <g id="resetDef">
    <use xlink:href="#rim2" fill="#404040"><set attributeName="fill" to="#808080" begin="reset.mouseover" end="reset.mouseout"/></use>
  </g>
</defs>
<script type="application/ecmascript">
var viewWidth = 2163;
var viewHeight = 324;
var sectionId = 'dynsection-0';
</script>
<script type="application/ecmascript" xlink:href="../../svg.min.js"/>
<svg id="graph" class="graph">
<g id="viewport">
<title>src/app/seamly2d/dialogs/abstractlayout_dialog.cpp</title>
<!-- Node1 -->
<g id="Node000001" class="node">
<title>Node1</title>
<g id="a_Node000001"><a xlink:title=" ">
<polygon fill="#999999" stroke="#666666" points="146,-316 0,-316 0,-286 146,-286 146,-316"/>
<text text-anchor="start" x="8" y="-304" font-family="Helvetica,sans-Serif" font-size="10.00">src/app/seamly2d/dialogs</text>
<text text-anchor="middle" x="73" y="-293" font-family="Helvetica,sans-Serif" font-size="10.00">/abstractlayout_dialog.cpp</text>
</a>
</g>
</g>
<!-- Node2 -->
<g id="Node000002" class="node">
<title>Node2</title>
<g id="a_Node000002"><a xlink:href="../../d7/d9e/abstractlayout__dialog_8h.html" target="_top" xlink:title=" ">
<polygon fill="white" stroke="#666666" points="308.5,-74 177.5,-74 177.5,-55 308.5,-55 308.5,-74"/>
<text text-anchor="middle" x="243" y="-62" font-family="Helvetica,sans-Serif" font-size="10.00">abstractlayout_dialog.h</text>
</a>
</g>
</g>
<!-- Node1&#45;&gt;Node2 -->
<g id="edge1_Node000001_Node000002" class="edge">
<title>Node1&#45;&gt;Node2</title>
<g id="a_edge1_Node000001_Node000002"><a xlink:title=" ">
<path fill="none" stroke="#63b8ff" d="M73.22,-285.81C74.52,-251.22 82.56,-161.59 130,-110 144.72,-94 165.92,-83.66 185.98,-77.03"/>
<polygon fill="#63b8ff" stroke="#63b8ff" points="187.17,-80.33 195.71,-74.07 185.12,-73.63 187.17,-80.33"/>
</a>
</g>
</g>
<!-- Node4 -->
<g id="Node000004" class="node">
<title>Node4</title>
<g id="a_Node000004"><a xlink:title=" ">
<polygon fill="#e0e0e0" stroke="#999999" points="190,-19 108,-19 108,0 190,0 190,-19"/>
<text text-anchor="middle" x="149" y="-7" font-family="Helvetica,sans-Serif" font-size="10.00">../vmisc/def.h</text>
</a>
</g>
</g>
<!-- Node1&#45;&gt;Node4 -->
<g id="edge63_Node000001_Node000004" class="edge">
<title>Node1&#45;&gt;Node4</title>
<g id="a_edge63_Node000001_Node000004"><a xlink:title=" ">
<path fill="none" stroke="#63b8ff" d="M64.94,-285.82C53.79,-264.82 35,-223.9 35,-186.5 35,-186.5 35,-186.5 35,-124 35,-75.88 86.64,-41.12 120.41,-23.53"/>
<polygon fill="#63b8ff" stroke="#63b8ff" points="122.03,-26.64 129.4,-19.03 118.89,-20.38 122.03,-26.64"/>
</a>
</g>
</g>
<!-- Node6 -->
<g id="Node000006" class="node">
<title>Node6</title>
<g id="a_Node000006"><a xlink:href="../../d9/d02/vapplication_8h.html" target="_top" xlink:title=" ">
<polygon fill="white" stroke="#666666" points="884.5,-250 765.5,-250 765.5,-231 884.5,-231 884.5,-250"/>
<text text-anchor="middle" x="825" y="-238" font-family="Helvetica,sans-Serif" font-size="10.00">../core/vapplication.h</text>
</a>
</g>
</g>
<!-- Node1&#45;&gt;Node6 -->
<g id="edge5_Node000001_Node000006" class="edge">
<title>Node1&#45;&gt;Node6</title>
<g id="a_edge5_Node000001_Node000006"><a xlink:title=" ">
<path fill="none" stroke="#63b8ff" d="M146.13,-294.31C290.97,-283.04 612.6,-258.02 754.92,-246.95"/>
<polygon fill="#63b8ff" stroke="#63b8ff" points="755.56,-250.41 765.26,-246.15 755.02,-243.43 755.56,-250.41"/>
</a>
</g>
</g>
<!-- Node3 -->
<g id="Node000003" class="node">
<title>Node3</title>
<g id="a_Node000003"><a xlink:title=" ">
<polygon fill="#e0e0e0" stroke="#999999" points="545.5,-19 468.5,-19 468.5,0 545.5,0 545.5,-19"/>
<text text-anchor="middle" x="507" y="-7" font-family="Helvetica,sans-Serif" font-size="10.00">../ifc/ifcdef.h</text>
</a>
</g>
</g>
<!-- Node2&#45;&gt;Node3 -->
<g id="edge2_Node000002_Node000003" class="edge">
<title>Node2&#45;&gt;Node3</title>
<g id="a_edge2_Node000002_Node000003"><a xlink:title=" ">
<path fill="none" stroke="#63b8ff" d="M285.42,-54.98C332.6,-45.51 408.69,-30.24 458.28,-20.28"/>
<polygon fill="#63b8ff" stroke="#63b8ff" points="459.01,-23.7 468.13,-18.3 457.64,-16.84 459.01,-23.7"/>
</a>
</g>
</g>
<!-- Node2&#45;&gt;Node4 -->
<g id="edge3_Node000002_Node000004" class="edge">
<title>Node2&#45;&gt;Node4</title>
<g id="a_edge3_Node000002_Node000004"><a xlink:title=" ">
<path fill="none" stroke="#63b8ff" d="M227.9,-54.98C213.18,-46.69 190.58,-33.94 173.33,-24.22"/>
<polygon fill="#63b8ff" stroke="#63b8ff" points="174.81,-21.03 164.38,-19.17 171.37,-27.13 174.81,-21.03"/>
</a>
</g>
</g>
<!-- Node5 -->
<g id="Node000005" class="node">
<title>Node5</title>
<g id="a_Node000005"><a xlink:title=" ">
<polygon fill="#e0e0e0" stroke="#999999" points="271,-19 215,-19 215,0 271,0 271,-19"/>
<text text-anchor="middle" x="243" y="-7" font-family="Helvetica,sans-Serif" font-size="10.00">QDialog</text>
</a>
</g>
</g>
<!-- Node2&#45;&gt;Node5 -->
<g id="edge4_Node000002_Node000005" class="edge">
<title>Node2&#45;&gt;Node5</title>
<g id="a_edge4_Node000002_Node000005"><a xlink:title=" ">
<path fill="none" stroke="#63b8ff" d="M243,-54.75C243,-47.8 243,-37.85 243,-29.13"/>
<polygon fill="#63b8ff" stroke="#63b8ff" points="246.5,-29.09 243,-19.09 239.5,-29.09 246.5,-29.09"/>
</a>
</g>
</g>
<!-- Node7 -->
<g id="Node000007" class="node">
<title>Node7</title>
<g id="a_Node000007"><a xlink:title=" ">
<polygon fill="#e0e0e0" stroke="#999999" points="908.5,-195 741.5,-195 741.5,-176 908.5,-176 908.5,-195"/>
<text text-anchor="middle" x="825" y="-183" font-family="Helvetica,sans-Serif" font-size="10.00">../vmisc/vabstractapplication.h</text>
</a>
</g>
</g>
<!-- Node6&#45;&gt;Node7 -->
<g id="edge6_Node000006_Node000007" class="edge">
<title>Node6&#45;&gt;Node7</title>
<g id="a_edge6_Node000006_Node000007"><a xlink:title=" ">
<path fill="none" stroke="#63b8ff" d="M825,-230.75C825,-223.8 825,-213.85 825,-205.13"/>
<polygon fill="#63b8ff" stroke="#63b8ff" points="828.5,-205.09 825,-195.09 821.5,-205.09 828.5,-205.09"/>
</a>
</g>
</g>
<!-- Node8 -->
<g id="Node000008" class="node">
<title>Node8</title>
<g id="a_Node000008"><a xlink:href="../../d7/d5b/options_8h.html" target="_top" xlink:title=" ">
<polygon fill="white" stroke="#666666" points="662.5,-74 591.5,-74 591.5,-55 662.5,-55 662.5,-74"/>
<text text-anchor="middle" x="627" y="-62" font-family="Helvetica,sans-Serif" font-size="10.00">../options.h</text>
</a>
</g>
</g>
<!-- Node6&#45;&gt;Node8 -->
<g id="edge7_Node000006_Node000008" class="edge">
<title>Node6&#45;&gt;Node8</title>
<g id="a_edge7_Node000006_Node000008"><a xlink:title=" ">
<path fill="none" stroke="#63b8ff" d="M865.2,-230.87C884.69,-224.45 906.36,-213.48 918,-195 928.02,-179.1 950.34,-148.25 917,-110 882.28,-70.18 734.22,-82.03 682,-74 678.95,-73.53 675.8,-73.05 672.63,-72.56"/>
<polygon fill="#63b8ff" stroke="#63b8ff" points="672.92,-69.06 662.5,-70.99 671.85,-75.98 672.92,-69.06"/>
</a>
</g>
</g>
<!-- Node11 -->
<g id="Node000011" class="node">
<title>Node11</title>
<g id="a_Node000011"><a xlink:title=" ">
<polygon fill="#e0e0e0" stroke="#999999" points="1318,-195 1142,-195 1142,-176 1318,-176 1318,-195"/>
<text text-anchor="middle" x="1230" y="-183" font-family="Helvetica,sans-Serif" font-size="10.00">../vwidgets/vmaingraphicsview.h</text>
</a>
</g>
</g>
<!-- Node6&#45;&gt;Node11 -->
<g id="edge12_Node000006_Node000011" class="edge">
<title>Node6&#45;&gt;Node11</title>
<g id="a_edge12_Node000006_Node000011"><a xlink:title=" ">
<path fill="none" stroke="#63b8ff" d="M884.76,-231.68C956.46,-222.3 1076.74,-206.56 1154.72,-196.35"/>
<polygon fill="#63b8ff" stroke="#63b8ff" points="1155.5,-199.78 1164.96,-195.01 1154.59,-192.84 1155.5,-199.78"/>
</a>
</g>
</g>
<!-- Node12 -->
<g id="Node000012" class="node">
<title>Node12</title>
<g id="a_Node000012"><a xlink:title=" ">
<polygon fill="#e0e0e0" stroke="#999999" points="723.5,-195 562.5,-195 562.5,-176 723.5,-176 723.5,-195"/>
<text text-anchor="middle" x="643" y="-183" font-family="Helvetica,sans-Serif" font-size="10.00">../vpatterndb/vtranslatevars.h</text>
</a>
</g>
</g>
<!-- Node6&#45;&gt;Node12 -->
<g id="edge13_Node000006_Node000012" class="edge">
<title>Node6&#45;&gt;Node12</title>
<g id="a_edge13_Node000006_Node000012"><a xlink:title=" ">
<path fill="none" stroke="#63b8ff" d="M795.76,-230.98C764.94,-222.01 716.22,-207.82 682.11,-197.89"/>
<polygon fill="#63b8ff" stroke="#63b8ff" points="683.05,-194.52 672.47,-195.08 681.09,-201.24 683.05,-194.52"/>
</a>
</g>
</g>
<!-- Node13 -->
<g id="Node000013" class="node">
<title>Node13</title>
<g id="a_Node000013"><a xlink:href="../../dd/db2/vsettings_8h.html" target="_top" xlink:title=" ">
<polygon fill="white" stroke="#666666" points="1123.5,-195 1052.5,-195 1052.5,-176 1123.5,-176 1123.5,-195"/>
<text text-anchor="middle" x="1088" y="-183" font-family="Helvetica,sans-Serif" font-size="10.00">vsettings.h</text>
</a>
</g>
</g>
<!-- Node6&#45;&gt;Node13 -->
<g id="edge14_Node000006_Node000013" class="edge">
<title>Node6&#45;&gt;Node13</title>
<g id="a_edge14_Node000006_Node000013"><a xlink:title=" ">
<path fill="none" stroke="#63b8ff" d="M867.26,-230.98C915.11,-221.34 992.82,-205.68 1042.12,-195.75"/>
<polygon fill="#63b8ff" stroke="#63b8ff" points="1043.07,-199.12 1052.19,-193.72 1041.69,-192.26 1043.07,-199.12"/>
</a>
</g>
</g>
<!-- Node37 -->
<g id="Node000037" class="node">
<title>Node37</title>
<g id="a_Node000037"><a xlink:href="../../dd/d57/vcmdexport_8h.html" target="_top" xlink:title=" ">
<polygon fill="white" stroke="#666666" points="544,-195 460,-195 460,-176 544,-176 544,-195"/>
<text text-anchor="middle" x="502" y="-183" font-family="Helvetica,sans-Serif" font-size="10.00">vcmdexport.h</text>
</a>
</g>
</g>
<!-- Node6&#45;&gt;Node37 -->
<g id="edge48_Node000006_Node000037" class="edge">
<title>Node6&#45;&gt;Node37</title>
<g id="a_edge48_Node000006_Node000037"><a xlink:title=" ">
<path fill="none" stroke="#63b8ff" d="M772.59,-230.97C719.96,-222.4 636.22,-208.73 554.04,-195.17"/>
<polygon fill="#63b8ff" stroke="#63b8ff" points="554.46,-191.69 544.02,-193.51 553.32,-198.6 554.46,-191.69"/>
</a>
</g>
</g>
<!-- Node8&#45;&gt;Node3 -->
<g id="edge8_Node000008_Node000003" class="edge">
<title>Node8&#45;&gt;Node3</title>
<g id="a_edge8_Node000008_Node000003"><a xlink:title=" ">
<path fill="none" stroke="#63b8ff" d="M607.72,-54.98C588.33,-46.42 558.19,-33.11 535.93,-23.28"/>
<polygon fill="#63b8ff" stroke="#63b8ff" points="537.19,-20.01 526.63,-19.17 534.36,-26.41 537.19,-20.01"/>
</a>
</g>
</g>
<!-- Node8&#45;&gt;Node4 -->
<g id="edge11_Node000008_Node000004" class="edge">
<title>Node8&#45;&gt;Node4</title>
<g id="a_edge11_Node000008_Node000004"><a xlink:title=" ">
<path fill="none" stroke="#63b8ff" d="M591.47,-59.94C504.1,-51.16 280.46,-28.48 206,-19 204.06,-18.75 202.09,-18.5 200.1,-18.23"/>
<polygon fill="#63b8ff" stroke="#63b8ff" points="200.45,-14.74 190.07,-16.84 199.49,-21.68 200.45,-14.74"/>
</a>
</g>
</g>
<!-- Node9 -->
<g id="Node000009" class="node">
<title>Node9</title>
<g id="a_Node000009"><a xlink:title=" ">
<polygon fill="#e0e0e0" stroke="#999999" points="867.5,-19 708.5,-19 708.5,0 867.5,0 867.5,-19"/>
<text text-anchor="middle" x="788" y="-7" font-family="Helvetica,sans-Serif" font-size="10.00">../vgeometry/vgeometrydef.h</text>
</a>
</g>
</g>
<!-- Node8&#45;&gt;Node9 -->
<g id="edge9_Node000008_Node000009" class="edge">
<title>Node8&#45;&gt;Node9</title>
<g id="a_edge9_Node000008_Node000009"><a xlink:title=" ">
<path fill="none" stroke="#63b8ff" d="M652.87,-54.98C679.78,-46.13 722.12,-32.19 752.23,-22.28"/>
<polygon fill="#63b8ff" stroke="#63b8ff" points="753.53,-25.53 761.93,-19.08 751.34,-18.88 753.53,-25.53"/>
</a>
</g>
</g>
<!-- Node10 -->
<g id="Node000010" class="node">
<title>Node10</title>
<g id="a_Node000010"><a xlink:title=" ">
<polygon fill="#e0e0e0" stroke="#999999" points="690.5,-19 563.5,-19 563.5,0 690.5,0 690.5,-19"/>
<text text-anchor="middle" x="627" y="-7" font-family="Helvetica,sans-Serif" font-size="10.00">../qmuparser/qmudef.h</text>
</a>
</g>
</g>
<!-- Node8&#45;&gt;Node10 -->
<g id="edge10_Node000008_Node000010" class="edge">
<title>Node8&#45;&gt;Node10</title>
<g id="a_edge10_Node000008_Node000010"><a xlink:title=" ">
<path fill="none" stroke="#63b8ff" d="M627,-54.75C627,-47.8 627,-37.85 627,-29.13"/>
<polygon fill="#63b8ff" stroke="#63b8ff" points="630.5,-29.09 627,-19.09 623.5,-29.09 630.5,-29.09"/>
</a>
</g>
</g>
<!-- Node14 -->
<g id="Node000014" class="node">
<title>Node14</title>
<g id="a_Node000014"><a xlink:title=" ">
<polygon fill="#e0e0e0" stroke="#999999" points="1328,-74 1248,-74 1248,-55 1328,-55 1328,-74"/>
<text text-anchor="middle" x="1288" y="-62" font-family="Helvetica,sans-Serif" font-size="10.00">QMetaObject</text>
</a>
</g>
</g>
<!-- Node13&#45;&gt;Node14 -->
<g id="edge15_Node000013_Node000014" class="edge">
<title>Node13&#45;&gt;Node14</title>
<g id="a_edge15_Node000013_Node000014"><a xlink:title=" ">
<path fill="none" stroke="#63b8ff" d="M1123.76,-176.95C1162.34,-168.3 1220.72,-153.55 1239,-140 1258.57,-125.5 1272.59,-100.68 1280.5,-83.7"/>
<polygon fill="#63b8ff" stroke="#63b8ff" points="1283.81,-84.87 1284.62,-74.31 1277.4,-82.06 1283.81,-84.87"/>
</a>
</g>
</g>
<!-- Node15 -->
<g id="Node000015" class="node">
<title>Node15</title>
<g id="a_Node000015"><a xlink:title=" ">
<polygon fill="#e0e0e0" stroke="#999999" points="834,-74 778,-74 778,-55 834,-55 834,-74"/>
<text text-anchor="middle" x="806" y="-62" font-family="Helvetica,sans-Serif" font-size="10.00">QObject</text>
</a>
</g>
</g>
<!-- Node13&#45;&gt;Node15 -->
<g id="edge16_Node000013_Node000015" class="edge">
<title>Node13&#45;&gt;Node15</title>
<g id="a_edge16_Node000013_Node000015"><a xlink:title=" ">
<path fill="none" stroke="#63b8ff" d="M1075.53,-175.8C1062.92,-166.95 1042.93,-152.75 1026,-140 1008.81,-127.06 1007.34,-119.44 988,-110 981.47,-106.82 895.48,-86.42 844.07,-74.37"/>
<polygon fill="#63b8ff" stroke="#63b8ff" points="844.81,-70.95 834.28,-72.08 843.22,-77.77 844.81,-70.95"/>
</a>
</g>
</g>
<!-- Node16 -->
<g id="Node000016" class="node">
<title>Node16</title>
<g id="a_Node000016"><a xlink:title=" ">
<polygon fill="#e0e0e0" stroke="#999999" points="916,-74 852,-74 852,-55 916,-55 916,-74"/>
<text text-anchor="middle" x="884" y="-62" font-family="Helvetica,sans-Serif" font-size="10.00">QSettings</text>
</a>
</g>
</g>
<!-- Node13&#45;&gt;Node16 -->
<g id="edge17_Node000013_Node000016" class="edge">
<title>Node13&#45;&gt;Node16</title>
<g id="a_edge17_Node000013_Node000016"><a xlink:title=" ">
<path fill="none" stroke="#63b8ff" d="M1083.06,-175.75C1073.85,-160.21 1052.56,-127.79 1026,-110 1009.47,-98.93 961.43,-85.07 925.78,-75.79"/>
<polygon fill="#63b8ff" stroke="#63b8ff" points="926.65,-72.4 916.09,-73.3 924.9,-79.18 926.65,-72.4"/>
</a>
</g>
</g>
<!-- Node17 -->
<g id="Node000017" class="node">
<title>Node17</title>
<g id="a_Node000017"><a xlink:title=" ">
<polygon fill="#e0e0e0" stroke="#999999" points="1399.5,-74 1346.5,-74 1346.5,-55 1399.5,-55 1399.5,-74"/>
<text text-anchor="middle" x="1373" y="-62" font-family="Helvetica,sans-Serif" font-size="10.00">QString</text>
</a>
</g>
</g>
<!-- Node13&#45;&gt;Node17 -->
<g id="edge18_Node000013_Node000017" class="edge">
<title>Node13&#45;&gt;Node17</title>
<g id="a_edge18_Node000013_Node000017"><a xlink:title=" ">
<path fill="none" stroke="#63b8ff" d="M1123.88,-177.06C1167.98,-167.65 1240.03,-151.3 1265,-140 1299.5,-124.38 1334.74,-97.63 1355.21,-80.79"/>
<polygon fill="#63b8ff" stroke="#63b8ff" points="1357.61,-83.35 1363.03,-74.24 1353.11,-77.98 1357.61,-83.35"/>
</a>
</g>
</g>
<!-- Node18 -->
<g id="Node000018" class="node">
<title>Node18</title>
<g id="a_Node000018"><a xlink:title=" ">
<polygon fill="#e0e0e0" stroke="#999999" points="1353.5,-19 1294.5,-19 1294.5,0 1353.5,0 1353.5,-19"/>
<text text-anchor="middle" x="1324" y="-7" font-family="Helvetica,sans-Serif" font-size="10.00">QtGlobal</text>
</a>
</g>
</g>
<!-- Node13&#45;&gt;Node18 -->
<g id="edge19_Node000013_Node000018" class="edge">
<title>Node13&#45;&gt;Node18</title>
<g id="a_edge19_Node000013_Node000018"><a xlink:title=" ">
<path fill="none" stroke="#63b8ff" d="M1123.69,-177.45C1182.63,-165.77 1294.68,-143.33 1303,-140 1354.53,-119.39 1382.06,-122.52 1409,-74 1422.28,-50.09 1391.56,-32.55 1363.41,-22.04"/>
<polygon fill="#63b8ff" stroke="#63b8ff" points="1364.23,-18.62 1353.63,-18.61 1361.91,-25.22 1364.23,-18.62"/>
</a>
</g>
</g>
<!-- Node19 -->
<g id="Node000019" class="node">
<title>Node19</title>
<g id="a_Node000019"><a xlink:title=" ">
<polygon fill="#e0e0e0" stroke="#999999" points="753.5,-74 690.5,-74 690.5,-55 753.5,-55 753.5,-74"/>
<text text-anchor="middle" x="722" y="-62" font-family="Helvetica,sans-Serif" font-size="10.00">QMargins</text>
</a>
</g>
</g>
<!-- Node13&#45;&gt;Node19 -->
<g id="edge20_Node000013_Node000019" class="edge">
<title>Node13&#45;&gt;Node19</title>
<g id="a_edge20_Node000013_Node000019"><a xlink:title=" ">
<path fill="none" stroke="#63b8ff" d="M1064.55,-175.99C1043.74,-167.99 1012.88,-155.03 988,-140 969.58,-128.87 969.55,-118.98 950,-110 941.56,-106.12 827.17,-84.78 763.71,-73.12"/>
<polygon fill="#63b8ff" stroke="#63b8ff" points="764.08,-69.62 753.61,-71.26 762.81,-76.51 764.08,-69.62"/>
</a>
</g>
</g>
<!-- Node20 -->
<g id="Node000020" class="node">
<title>Node20</title>
<g id="a_Node000020"><a xlink:href="../../d4/da4/def_8h.html" target="_top" xlink:title=" ">
<polygon fill="white" stroke="#666666" points="1729,-134.5 1647,-134.5 1647,-115.5 1729,-115.5 1729,-134.5"/>
<text text-anchor="middle" x="1688" y="-122.5" font-family="Helvetica,sans-Serif" font-size="10.00">../vmisc/def.h</text>
</a>
</g>
</g>
<!-- Node13&#45;&gt;Node20 -->
<g id="edge21_Node000013_Node000020" class="edge">
<title>Node13&#45;&gt;Node20</title>
<g id="a_edge21_Node000013_Node000020"><a xlink:title=" ">
<path fill="none" stroke="#63b8ff" d="M1123.81,-177.41C1126.91,-176.9 1130.01,-176.42 1133,-176 1317.44,-150.33 1538.29,-135 1636.52,-128.97"/>
<polygon fill="#63b8ff" stroke="#63b8ff" points="1637,-132.44 1646.77,-128.34 1636.57,-125.46 1637,-132.44"/>
</a>
</g>
</g>
<!-- Node30 -->
<g id="Node000030" class="node">
<title>Node30</title>
<g id="a_Node000030"><a xlink:href="../../de/dec/vbank_8h.html" target="_top" xlink:title=" ">
<polygon fill="white" stroke="#666666" points="1038,-74 934,-74 934,-55 1038,-55 1038,-74"/>
<text text-anchor="middle" x="986" y="-62" font-family="Helvetica,sans-Serif" font-size="10.00">../vlayout/vbank.h</text>
</a>
</g>
</g>
<!-- Node13&#45;&gt;Node30 -->
<g id="edge33_Node000013_Node000030" class="edge">
<title>Node13&#45;&gt;Node30</title>
<g id="a_edge33_Node000013_Node000030"><a xlink:title=" ">
<path fill="none" stroke="#63b8ff" d="M1087.23,-175.72C1085.5,-160.71 1080.1,-129.83 1064,-110 1052.53,-95.87 1035.29,-85.37 1019.94,-78.13"/>
<polygon fill="#63b8ff" stroke="#63b8ff" points="1021.25,-74.88 1010.69,-74.04 1018.42,-81.29 1021.25,-74.88"/>
</a>
</g>
</g>
<!-- Node34 -->
<g id="Node000034" class="node">
<title>Node34</title>
<g id="a_Node000034"><a xlink:href="../../d4/d5c/vcommonsettings_8h.html" target="_top" xlink:title=" ">
<polygon fill="white" stroke="#666666" points="1229.5,-134.5 1116.5,-134.5 1116.5,-115.5 1229.5,-115.5 1229.5,-134.5"/>
<text text-anchor="middle" x="1173" y="-122.5" font-family="Helvetica,sans-Serif" font-size="10.00">vcommonsettings.h</text>
</a>
</g>
</g>
<!-- Node13&#45;&gt;Node34 -->
<g id="edge38_Node000013_Node000034" class="edge">
<title>Node13&#45;&gt;Node34</title>
<g id="a_edge38_Node000013_Node000034"><a xlink:title=" ">
<path fill="none" stroke="#63b8ff" d="M1100.54,-175.87C1114.1,-166.54 1135.94,-151.51 1152.1,-140.38"/>
<polygon fill="#63b8ff" stroke="#63b8ff" points="1154.15,-143.22 1160.41,-134.67 1150.18,-137.45 1154.15,-143.22"/>
</a>
</g>
</g>
<!-- Node20&#45;&gt;Node17 -->
<g id="edge25_Node000020_Node000017" class="edge">
<title>Node20&#45;&gt;Node17</title>
<g id="a_edge25_Node000020_Node000017"><a xlink:title=" ">
<path fill="none" stroke="#63b8ff" d="M1646.82,-116.35C1584.99,-104.87 1469.13,-83.35 1409.91,-72.35"/>
<polygon fill="#63b8ff" stroke="#63b8ff" points="1410.35,-68.88 1399.88,-70.49 1409.07,-75.76 1410.35,-68.88"/>
</a>
</g>
</g>
<!-- Node20&#45;&gt;Node18 -->
<g id="edge28_Node000020_Node000018" class="edge">
<title>Node20&#45;&gt;Node18</title>
<g id="a_edge28_Node000020_Node000018"><a xlink:title=" ">
<path fill="none" stroke="#63b8ff" d="M1729.2,-124.85C1813.43,-125.31 1992.57,-119.08 1933,-55 1894.3,-13.37 1493.01,-10.26 1363.83,-10.35"/>
<polygon fill="#63b8ff" stroke="#63b8ff" points="1363.58,-6.85 1353.59,-10.36 1363.59,-13.85 1363.58,-6.85"/>
</a>
</g>
</g>
<!-- Node21 -->
<g id="Node000021" class="node">
<title>Node21</title>
<g id="a_Node000021"><a xlink:title=" ">
<polygon fill="#e0e0e0" stroke="#999999" points="1924,-74 1804,-74 1804,-55 1924,-55 1924,-74"/>
<text text-anchor="middle" x="1864" y="-62" font-family="Helvetica,sans-Serif" font-size="10.00">qcompilerdetection.h</text>
</a>
</g>
</g>
<!-- Node20&#45;&gt;Node21 -->
<g id="edge22_Node000020_Node000021" class="edge">
<title>Node20&#45;&gt;Node21</title>
<g id="a_edge22_Node000020_Node000021"><a xlink:title=" ">
<path fill="none" stroke="#63b8ff" d="M1713.59,-115.49C1743.96,-105.4 1794.76,-88.51 1828.82,-77.19"/>
<polygon fill="#63b8ff" stroke="#63b8ff" points="1829.99,-80.49 1838.38,-74.02 1827.78,-73.85 1829.99,-80.49"/>
</a>
</g>
</g>
<!-- Node22 -->
<g id="Node000022" class="node">
<title>Node22</title>
<g id="a_Node000022"><a xlink:title=" ">
<polygon fill="#e0e0e0" stroke="#999999" points="2154.5,-74 2081.5,-74 2081.5,-55 2154.5,-55 2154.5,-74"/>
<text text-anchor="middle" x="2118" y="-62" font-family="Helvetica,sans-Serif" font-size="10.00">QFileDialog</text>
</a>
</g>
</g>
<!-- Node20&#45;&gt;Node22 -->
<g id="edge23_Node000020_Node000022" class="edge">
<title>Node20&#45;&gt;Node22</title>
<g id="a_edge23_Node000020_Node000022"><a xlink:title=" ">
<path fill="none" stroke="#63b8ff" d="M1729.14,-119.45C1797.89,-111.66 1940.7,-94.76 2071.03,-74.24"/>
<polygon fill="#63b8ff" stroke="#63b8ff" points="2071.86,-77.65 2081.19,-72.63 2070.77,-70.74 2071.86,-77.65"/>
</a>
</g>
</g>
<!-- Node23 -->
<g id="Node000023" class="node">
<title>Node23</title>
<g id="a_Node000023"><a xlink:title=" ">
<polygon fill="#e0e0e0" stroke="#999999" points="1594,-74 1544,-74 1544,-55 1594,-55 1594,-74"/>
<text text-anchor="middle" x="1569" y="-62" font-family="Helvetica,sans-Serif" font-size="10.00">QLineF</text>
</a>
</g>
</g>
<!-- Node20&#45;&gt;Node23 -->
<g id="edge24_Node000020_Node000023" class="edge">
<title>Node20&#45;&gt;Node23</title>
<g id="a_edge24_Node000020_Node000023"><a xlink:title=" ">
<path fill="none" stroke="#63b8ff" d="M1670.7,-115.49C1650.95,-105.79 1618.45,-89.81 1595.51,-78.53"/>
<polygon fill="#63b8ff" stroke="#63b8ff" points="1596.84,-75.29 1586.32,-74.02 1593.75,-81.57 1596.84,-75.29"/>
</a>
</g>
</g>
<!-- Node24 -->
<g id="Node000024" class="node">
<title>Node24</title>
<g id="a_Node000024"><a xlink:title=" ">
<polygon fill="#e0e0e0" stroke="#999999" points="1526,-74 1456,-74 1456,-55 1526,-55 1526,-74"/>
<text text-anchor="middle" x="1491" y="-62" font-family="Helvetica,sans-Serif" font-size="10.00">QStringList</text>
</a>
</g>
</g>
<!-- Node20&#45;&gt;Node24 -->
<g id="edge26_Node000020_Node000024" class="edge">
<title>Node20&#45;&gt;Node24</title>
<g id="a_edge26_Node000020_Node000024"><a xlink:title=" ">
<path fill="none" stroke="#63b8ff" d="M1659.35,-115.49C1625.07,-105.31 1567.52,-88.22 1529.4,-76.9"/>
<polygon fill="#63b8ff" stroke="#63b8ff" points="1530.26,-73.51 1519.68,-74.02 1528.27,-80.22 1530.26,-73.51"/>
</a>
</g>
</g>
<!-- Node25 -->
<g id="Node000025" class="node">
<title>Node25</title>
<g id="a_Node000025"><a xlink:title=" ">
<polygon fill="#e0e0e0" stroke="#999999" points="1641.5,-74 1612.5,-74 1612.5,-55 1641.5,-55 1641.5,-74"/>
<text text-anchor="middle" x="1627" y="-62" font-family="Helvetica,sans-Serif" font-size="10.00">Qt</text>
</a>
</g>
</g>
<!-- Node20&#45;&gt;Node25 -->
<g id="edge27_Node000020_Node000025" class="edge">
<title>Node20&#45;&gt;Node25</title>
<g id="a_edge27_Node000020_Node000025"><a xlink:title=" ">
<path fill="none" stroke="#63b8ff" d="M1679,-115.37C1669.63,-106.38 1654.75,-92.11 1643.3,-81.14"/>
<polygon fill="#63b8ff" stroke="#63b8ff" points="1645.68,-78.56 1636.04,-74.17 1640.83,-83.62 1645.68,-78.56"/>
</a>
</g>
</g>
<!-- Node26 -->
<g id="Node000026" class="node">
<title>Node26</title>
<g id="a_Node000026"><a xlink:title=" ">
<polygon fill="#e0e0e0" stroke="#999999" points="1716,-74 1660,-74 1660,-55 1716,-55 1716,-74"/>
<text text-anchor="middle" x="1688" y="-62" font-family="Helvetica,sans-Serif" font-size="10.00">QPrinter</text>
</a>
</g>
</g>
<!-- Node20&#45;&gt;Node26 -->
<g id="edge29_Node000020_Node000026" class="edge">
<title>Node20&#45;&gt;Node26</title>
<g id="a_edge29_Node000020_Node000026"><a xlink:title=" ">
<path fill="none" stroke="#63b8ff" d="M1688,-115.37C1688,-107.25 1688,-94.81 1688,-84.39"/>
<polygon fill="#63b8ff" stroke="#63b8ff" points="1691.5,-84.17 1688,-74.17 1684.5,-84.17 1691.5,-84.17"/>
</a>
</g>
</g>
<!-- Node27 -->
<g id="Node000027" class="node">
<title>Node27</title>
<g id="a_Node000027"><a xlink:title=" ">
<polygon fill="#e0e0e0" stroke="#999999" points="1785.5,-74 1734.5,-74 1734.5,-55 1785.5,-55 1785.5,-74"/>
<text text-anchor="middle" x="1760" y="-62" font-family="Helvetica,sans-Serif" font-size="10.00">csignal</text>
</a>
</g>
</g>
<!-- Node20&#45;&gt;Node27 -->
<g id="edge30_Node000020_Node000027" class="edge">
<title>Node20&#45;&gt;Node27</title>
<g id="a_edge30_Node000020_Node000027"><a xlink:title=" ">
<path fill="none" stroke="#63b8ff" d="M1698.62,-115.37C1709.9,-106.21 1727.92,-91.56 1741.53,-80.51"/>
<polygon fill="#63b8ff" stroke="#63b8ff" points="1743.78,-83.19 1749.33,-74.17 1739.36,-77.76 1743.78,-83.19"/>
</a>
</g>
</g>
<!-- Node28 -->
<g id="Node000028" class="node">
<title>Node28</title>
<g id="a_Node000028"><a xlink:href="../../d4/d82/debugbreak_8h.html" target="_top" xlink:title=" ">
<polygon fill="white" stroke="#666666" points="2063.5,-74 1980.5,-74 1980.5,-55 2063.5,-55 2063.5,-74"/>
<text text-anchor="middle" x="2022" y="-62" font-family="Helvetica,sans-Serif" font-size="10.00">debugbreak.h</text>
</a>
</g>
</g>
<!-- Node20&#45;&gt;Node28 -->
<g id="edge31_Node000020_Node000028" class="edge">
<title>Node20&#45;&gt;Node28</title>
<g id="a_edge31_Node000020_Node000028"><a xlink:title=" ">
<path fill="none" stroke="#63b8ff" d="M1729.29,-116.77C1790.09,-106.12 1903.66,-86.23 1970.05,-74.6"/>
<polygon fill="#63b8ff" stroke="#63b8ff" points="1971.03,-77.98 1980.28,-72.81 1969.83,-71.09 1971.03,-77.98"/>
</a>
</g>
</g>
<!-- Node29 -->
<g id="Node000029" class="node">
<title>Node29</title>
<g id="a_Node000029"><a xlink:title=" ">
<polygon fill="#e0e0e0" stroke="#999999" points="2049.5,-19 1994.5,-19 1994.5,0 2049.5,0 2049.5,-19"/>
<text text-anchor="middle" x="2022" y="-7" font-family="Helvetica,sans-Serif" font-size="10.00">signal.h</text>
</a>
</g>
</g>
<!-- Node28&#45;&gt;Node29 -->
<g id="edge32_Node000028_Node000029" class="edge">
<title>Node28&#45;&gt;Node29</title>
<g id="a_edge32_Node000028_Node000029"><a xlink:title=" ">
<path fill="none" stroke="#63b8ff" d="M2022,-54.75C2022,-47.8 2022,-37.85 2022,-29.13"/>
<polygon fill="#63b8ff" stroke="#63b8ff" points="2025.5,-29.09 2022,-19.09 2018.5,-29.09 2025.5,-29.09"/>
</a>
</g>
</g>
<!-- Node30&#45;&gt;Node18 -->
<g id="edge37_Node000030_Node000018" class="edge">
<title>Node30&#45;&gt;Node18</title>
<g id="a_edge37_Node000030_Node000018"><a xlink:title=" ">
<path fill="none" stroke="#63b8ff" d="M1038.07,-55.33C1105.99,-44.68 1223.33,-26.28 1284.43,-16.7"/>
<polygon fill="#63b8ff" stroke="#63b8ff" points="1285.12,-20.14 1294.45,-15.13 1284.03,-13.22 1285.12,-20.14"/>
</a>
</g>
</g>
<!-- Node31 -->
<g id="Node000031" class="node">
<title>Node31</title>
<g id="a_Node000031"><a xlink:title=" ">
<polygon fill="#e0e0e0" stroke="#999999" points="1010.5,-19 961.5,-19 961.5,0 1010.5,0 1010.5,-19"/>
<text text-anchor="middle" x="986" y="-7" font-family="Helvetica,sans-Serif" font-size="10.00">QHash</text>
</a>
</g>
</g>
<!-- Node30&#45;&gt;Node31 -->
<g id="edge34_Node000030_Node000031" class="edge">
<title>Node30&#45;&gt;Node31</title>
<g id="a_edge34_Node000030_Node000031"><a xlink:title=" ">
<path fill="none" stroke="#63b8ff" d="M986,-54.75C986,-47.8 986,-37.85 986,-29.13"/>
<polygon fill="#63b8ff" stroke="#63b8ff" points="989.5,-29.09 986,-19.09 982.5,-29.09 989.5,-29.09"/>
</a>
</g>
</g>
<!-- Node32 -->
<g id="Node000032" class="node">
<title>Node32</title>
<g id="a_Node000032"><a xlink:title=" ">
<polygon fill="#e0e0e0" stroke="#999999" points="1081,-19 1029,-19 1029,0 1081,0 1081,-19"/>
<text text-anchor="middle" x="1055" y="-7" font-family="Helvetica,sans-Serif" font-size="10.00">QRectF</text>
</a>
</g>
</g>
<!-- Node30&#45;&gt;Node32 -->
<g id="edge35_Node000030_Node000032" class="edge">
<title>Node30&#45;&gt;Node32</title>
<g id="a_edge35_Node000030_Node000032"><a xlink:title=" ">
<path fill="none" stroke="#63b8ff" d="M997.09,-54.98C1007.49,-47 1023.26,-34.88 1035.72,-25.31"/>
<polygon fill="#63b8ff" stroke="#63b8ff" points="1037.91,-28.04 1043.71,-19.17 1033.65,-22.49 1037.91,-28.04"/>
</a>
</g>
</g>
<!-- Node33 -->
<g id="Node000033" class="node">
<title>Node33</title>
<g id="a_Node000033"><a xlink:title=" ">
<polygon fill="#e0e0e0" stroke="#999999" points="943.5,-19 888.5,-19 888.5,0 943.5,0 943.5,-19"/>
<text text-anchor="middle" x="916" y="-7" font-family="Helvetica,sans-Serif" font-size="10.00">QVector</text>
</a>
</g>
</g>
<!-- Node30&#45;&gt;Node33 -->
<g id="edge36_Node000030_Node000033" class="edge">
<title>Node30&#45;&gt;Node33</title>
<g id="a_edge36_Node000030_Node000033"><a xlink:title=" ">
<path fill="none" stroke="#63b8ff" d="M974.75,-54.98C964.2,-47 948.2,-34.88 935.56,-25.31"/>
<polygon fill="#63b8ff" stroke="#63b8ff" points="937.54,-22.42 927.45,-19.17 933.31,-28 937.54,-22.42"/>
</a>
</g>
</g>
<!-- Node34&#45;&gt;Node14 -->
<g id="edge40_Node000034_Node000014" class="edge">
<title>Node34&#45;&gt;Node14</title>
<g id="a_edge40_Node000034_Node000014"><a xlink:title=" ">
<path fill="none" stroke="#63b8ff" d="M1189.97,-115.37C1208.91,-105.73 1239.79,-90.03 1261.83,-78.81"/>
<polygon fill="#63b8ff" stroke="#63b8ff" points="1263.64,-81.82 1270.96,-74.17 1260.46,-75.58 1263.64,-81.82"/>
</a>
</g>
</g>
<!-- Node34&#45;&gt;Node15 -->
<g id="edge41_Node000034_Node000015" class="edge">
<title>Node34&#45;&gt;Node15</title>
<g id="a_edge41_Node000034_Node000015"><a xlink:title=" ">
<path fill="none" stroke="#63b8ff" d="M1116.43,-116.75C1052.66,-108.28 945.66,-93.19 844.34,-74.13"/>
<polygon fill="#63b8ff" stroke="#63b8ff" points="844.71,-70.64 834.24,-72.22 843.41,-77.52 844.71,-70.64"/>
</a>
</g>
</g>
<!-- Node34&#45;&gt;Node16 -->
<g id="edge42_Node000034_Node000016" class="edge">
<title>Node34&#45;&gt;Node16</title>
<g id="a_edge42_Node000034_Node000016"><a xlink:title=" ">
<path fill="none" stroke="#63b8ff" d="M1130.42,-115.49C1083.03,-106 1003.9,-90.11 926.19,-74.23"/>
<polygon fill="#63b8ff" stroke="#63b8ff" points="926.72,-70.77 916.23,-72.2 925.32,-77.63 926.72,-70.77"/>
</a>
</g>
</g>
<!-- Node34&#45;&gt;Node17 -->
<g id="edge44_Node000034_Node000017" class="edge">
<title>Node34&#45;&gt;Node17</title>
<g id="a_edge44_Node000034_Node000017"><a xlink:title=" ">
<path fill="none" stroke="#63b8ff" d="M1202.08,-115.49C1237.69,-105.08 1298,-87.44 1336.63,-76.14"/>
<polygon fill="#63b8ff" stroke="#63b8ff" points="1337.82,-79.44 1346.44,-73.27 1335.86,-72.72 1337.82,-79.44"/>
</a>
</g>
</g>
<!-- Node34&#45;&gt;Node18 -->
<g id="edge46_Node000034_Node000018" class="edge">
<title>Node34&#45;&gt;Node18</title>
<g id="a_edge46_Node000034_Node000018"><a xlink:title=" ">
<path fill="none" stroke="#63b8ff" d="M1179.94,-115.05C1191.19,-100.96 1214.63,-73.34 1239,-55 1255.91,-42.28 1276.98,-31.22 1293.9,-23.31"/>
<polygon fill="#63b8ff" stroke="#63b8ff" points="1295.67,-26.35 1303.33,-19.03 1292.78,-19.98 1295.67,-26.35"/>
</a>
</g>
</g>
<!-- Node34&#45;&gt;Node24 -->
<g id="edge45_Node000034_Node000024" class="edge">
<title>Node34&#45;&gt;Node24</title>
<g id="a_edge45_Node000034_Node000024"><a xlink:title=" ">
<path fill="none" stroke="#63b8ff" d="M1219.24,-115.49C1279.98,-104.32 1385.95,-84.83 1446.04,-73.77"/>
<polygon fill="#63b8ff" stroke="#63b8ff" points="1446.79,-77.19 1455.99,-71.94 1445.53,-70.31 1446.79,-77.19"/>
</a>
</g>
</g>
<!-- Node34&#45;&gt;Node30 -->
<g id="edge47_Node000034_Node000030" class="edge">
<title>Node34&#45;&gt;Node30</title>
<g id="a_edge47_Node000034_Node000030"><a xlink:title=" ">
<path fill="none" stroke="#63b8ff" d="M1145.81,-115.49C1113.4,-105.36 1059.1,-88.37 1022.92,-77.05"/>
<polygon fill="#63b8ff" stroke="#63b8ff" points="1023.81,-73.66 1013.22,-74.02 1021.72,-80.34 1023.81,-73.66"/>
</a>
</g>
</g>
<!-- Node35 -->
<g id="Node000035" class="node">
<title>Node35</title>
<g id="a_Node000035"><a xlink:title=" ">
<polygon fill="#e0e0e0" stroke="#999999" points="1129.5,-74 1056.5,-74 1056.5,-55 1129.5,-55 1129.5,-74"/>
<text text-anchor="middle" x="1093" y="-62" font-family="Helvetica,sans-Serif" font-size="10.00">QByteArray</text>
</a>
</g>
</g>
<!-- Node34&#45;&gt;Node35 -->
<g id="edge39_Node000034_Node000035" class="edge">
<title>Node34&#45;&gt;Node35</title>
<g id="a_edge39_Node000034_Node000035"><a xlink:title=" ">
<path fill="none" stroke="#63b8ff" d="M1161.2,-115.37C1148.55,-106.12 1128.26,-91.28 1113.09,-80.19"/>
<polygon fill="#63b8ff" stroke="#63b8ff" points="1114.99,-77.24 1104.85,-74.17 1110.86,-82.9 1114.99,-77.24"/>
</a>
</g>
</g>
<!-- Node36 -->
<g id="Node000036" class="node">
<title>Node36</title>
<g id="a_Node000036"><a xlink:title=" ">
<polygon fill="#e0e0e0" stroke="#999999" points="1192,-74 1148,-74 1148,-55 1192,-55 1192,-74"/>
<text text-anchor="middle" x="1170" y="-62" font-family="Helvetica,sans-Serif" font-size="10.00">QSize</text>
</a>
</g>
</g>
<!-- Node34&#45;&gt;Node36 -->
<g id="edge43_Node000034_Node000036" class="edge">
<title>Node34&#45;&gt;Node36</title>
<g id="a_edge43_Node000034_Node000036"><a xlink:title=" ">
<path fill="none" stroke="#63b8ff" d="M1172.56,-115.37C1172.14,-107.25 1171.5,-94.81 1170.97,-84.39"/>
<polygon fill="#63b8ff" stroke="#63b8ff" points="1174.45,-83.97 1170.44,-74.17 1167.46,-84.33 1174.45,-83.97"/>
</a>
</g>
</g>
<!-- Node37&#45;&gt;Node4 -->
<g id="edge61_Node000037_Node000004" class="edge">
<title>Node37&#45;&gt;Node4</title>
<g id="a_edge61_Node000037_Node000004"><a xlink:title=" ">
<path fill="none" stroke="#63b8ff" d="M459.83,-182.55C367.03,-177.84 151.61,-164.35 130,-140 102.19,-108.67 124.29,-55.3 138.84,-27.89"/>
<polygon fill="#63b8ff" stroke="#63b8ff" points="141.95,-29.49 143.75,-19.05 135.83,-26.09 141.95,-29.49"/>
</a>
</g>
</g>
<!-- Node38 -->
<g id="Node000038" class="node">
<title>Node38</title>
<g id="a_Node000038"><a xlink:title=" ">
<polygon fill="#e0e0e0" stroke="#999999" points="624,-134.5 566,-134.5 566,-115.5 624,-115.5 624,-134.5"/>
<text text-anchor="middle" x="595" y="-122.5" font-family="Helvetica,sans-Serif" font-size="10.00">memory</text>
</a>
</g>
</g>
<!-- Node37&#45;&gt;Node38 -->
<g id="edge49_Node000037_Node000038" class="edge">
<title>Node37&#45;&gt;Node38</title>
<g id="a_edge49_Node000037_Node000038"><a xlink:title=" ">
<path fill="none" stroke="#63b8ff" d="M515.72,-175.87C530.7,-166.45 554.89,-151.23 572.62,-140.08"/>
<polygon fill="#63b8ff" stroke="#63b8ff" points="574.62,-142.95 581.22,-134.67 570.89,-137.03 574.62,-142.95"/>
</a>
</g>
</g>
<!-- Node39 -->
<g id="Node000039" class="node">
<title>Node39</title>
<g id="a_Node000039"><a xlink:title=" ">
<polygon fill="#e0e0e0" stroke="#999999" points="689.5,-134.5 642.5,-134.5 642.5,-115.5 689.5,-115.5 689.5,-134.5"/>
<text text-anchor="middle" x="666" y="-122.5" font-family="Helvetica,sans-Serif" font-size="10.00">vector</text>
</a>
</g>
</g>
<!-- Node37&#45;&gt;Node39 -->
<g id="edge50_Node000037_Node000039" class="edge">
<title>Node37&#45;&gt;Node39</title>
<g id="a_edge50_Node000037_Node000039"><a xlink:title=" ">
<path fill="none" stroke="#63b8ff" d="M529.05,-175.96C555.69,-167.39 597.43,-153.57 633,-140 634.38,-139.47 635.79,-138.92 637.21,-138.36"/>
<polygon fill="#63b8ff" stroke="#63b8ff" points="638.63,-141.56 646.55,-134.53 635.97,-135.08 638.63,-141.56"/>
</a>
</g>
</g>
<!-- Node40 -->
<g id="Node000040" class="node">
<title>Node40</title>
<g id="a_Node000040"><a xlink:title=" ">
<polygon fill="#e0e0e0" stroke="#999999" points="788,-134.5 708,-134.5 708,-115.5 788,-115.5 788,-134.5"/>
<text text-anchor="middle" x="748" y="-122.5" font-family="Helvetica,sans-Serif" font-size="10.00">QTextStream</text>
</a>
</g>
</g>
<!-- Node37&#45;&gt;Node40 -->
<g id="edge51_Node000037_Node000040" class="edge">
<title>Node37&#45;&gt;Node40</title>
<g id="a_edge51_Node000037_Node000040"><a xlink:title=" ">
<path fill="none" stroke="#63b8ff" d="M542.91,-175.96C582.86,-167.45 645.33,-153.72 699,-140 702.36,-139.14 705.84,-138.22 709.32,-137.27"/>
<polygon fill="#63b8ff" stroke="#63b8ff" points="710.36,-140.61 719.05,-134.56 708.48,-133.87 710.36,-140.61"/>
</a>
</g>
</g>
<!-- Node41 -->
<g id="Node000041" class="node">
<title>Node41</title>
<g id="a_Node000041"><a xlink:title=" ">
<polygon fill="#e0e0e0" stroke="#999999" points="907.5,-134.5 806.5,-134.5 806.5,-115.5 907.5,-115.5 907.5,-134.5"/>
<text text-anchor="middle" x="857" y="-122.5" font-family="Helvetica,sans-Serif" font-size="10.00">QCoreApplication</text>
</a>
</g>
</g>
<!-- Node37&#45;&gt;Node41 -->
<g id="edge52_Node000037_Node000041" class="edge">
<title>Node37&#45;&gt;Node41</title>
<g id="a_edge52_Node000037_Node000041"><a xlink:title=" ">
<path fill="none" stroke="#63b8ff" d="M544.01,-177.43C547.05,-176.94 550.07,-176.46 553,-176 661.29,-158.99 689.31,-160.47 797,-140 802.06,-139.04 807.34,-137.94 812.57,-136.8"/>
<polygon fill="#63b8ff" stroke="#63b8ff" points="813.53,-140.17 822.52,-134.56 812,-133.34 813.53,-140.17"/>
</a>
</g>
</g>
<!-- Node42 -->
<g id="Node000042" class="node">
<title>Node42</title>
<g id="a_Node000042"><a xlink:title=" ">
<polygon fill="#e0e0e0" stroke="#999999" points="264.5,-134.5 139.5,-134.5 139.5,-115.5 264.5,-115.5 264.5,-134.5"/>
<text text-anchor="middle" x="202" y="-122.5" font-family="Helvetica,sans-Serif" font-size="10.00">QCommandLineParser</text>
</a>
</g>
</g>
<!-- Node37&#45;&gt;Node42 -->
<g id="edge53_Node000037_Node000042" class="edge">
<title>Node37&#45;&gt;Node42</title>
<g id="a_edge53_Node000037_Node000042"><a xlink:title=" ">
<path fill="none" stroke="#63b8ff" d="M459.79,-176.33C413.83,-167.43 338.18,-152.76 273,-140 267.23,-138.87 261.21,-137.69 255.2,-136.51"/>
<polygon fill="#63b8ff" stroke="#63b8ff" points="255.66,-133.03 245.17,-134.53 254.31,-139.9 255.66,-133.03"/>
</a>
</g>
</g>
<!-- Node43 -->
<g id="Node000043" class="node">
<title>Node43</title>
<g id="a_Node000043"><a xlink:href="../../d3/dd8/layoutsettings__dialog_8h.html" target="_top" xlink:title=" ">
<polygon fill="white" stroke="#666666" points="548,-140 414,-140 414,-110 548,-110 548,-140"/>
<text text-anchor="start" x="422" y="-128" font-family="Helvetica,sans-Serif" font-size="10.00">../dialogs/layoutsettings</text>
<text text-anchor="middle" x="481" y="-117" font-family="Helvetica,sans-Serif" font-size="10.00">_dialog.h</text>
</a>
</g>
</g>
<!-- Node37&#45;&gt;Node43 -->
<g id="edge54_Node000037_Node000043" class="edge">
<title>Node37&#45;&gt;Node43</title>
<g id="a_edge54_Node000037_Node000043"><a xlink:title=" ">
<path fill="none" stroke="#63b8ff" d="M498.9,-175.87C496.42,-168.96 492.82,-158.93 489.5,-149.67"/>
<polygon fill="#63b8ff" stroke="#63b8ff" points="492.74,-148.34 486.07,-140.11 486.15,-150.71 492.74,-148.34"/>
</a>
</g>
</g>
<!-- Node46 -->
<g id="Node000046" class="node">
<title>Node46</title>
<g id="a_Node000046"><a xlink:title=" ">
<polygon fill="#e0e0e0" stroke="#999999" points="395.5,-134.5 282.5,-134.5 282.5,-115.5 395.5,-115.5 395.5,-134.5"/>
<text text-anchor="middle" x="339" y="-122.5" font-family="Helvetica,sans-Serif" font-size="10.00">../vmisc/vsysexits.h</text>
</a>
</g>
</g>
<!-- Node37&#45;&gt;Node46 -->
<g id="edge62_Node000037_Node000046" class="edge">
<title>Node37&#45;&gt;Node46</title>
<g id="a_edge62_Node000037_Node000046"><a xlink:title=" ">
<path fill="none" stroke="#63b8ff" d="M478.3,-175.99C450.41,-165.99 403.93,-149.3 372.4,-137.99"/>
<polygon fill="#63b8ff" stroke="#63b8ff" points="373.32,-134.6 362.73,-134.52 370.96,-141.19 373.32,-134.6"/>
</a>
</g>
</g>
<!-- Node43&#45;&gt;Node2 -->
<g id="edge55_Node000043_Node000002" class="edge">
<title>Node43&#45;&gt;Node2</title>
<g id="a_edge55_Node000043_Node000002"><a xlink:title=" ">
<path fill="none" stroke="#63b8ff" d="M423.99,-109.99C382.21,-99.72 326.27,-85.97 287.7,-76.49"/>
<polygon fill="#63b8ff" stroke="#63b8ff" points="288.35,-73.04 277.8,-74.05 286.67,-79.84 288.35,-73.04"/>
</a>
</g>
</g>
<!-- Node43&#45;&gt;Node3 -->
<g id="edge58_Node000043_Node000003" class="edge">
<title>Node43&#45;&gt;Node3</title>
<g id="a_edge58_Node000043_Node000003"><a xlink:title=" ">
<path fill="none" stroke="#63b8ff" d="M504.75,-109.8C516.83,-101.14 530.34,-88.87 537,-74 544.28,-57.75 533.49,-39.38 522.88,-26.59"/>
<polygon fill="#63b8ff" stroke="#63b8ff" points="525.42,-24.18 516.13,-19.08 520.21,-28.85 525.42,-24.18"/>
</a>
</g>
</g>
<!-- Node43&#45;&gt;Node4 -->
<g id="edge57_Node000043_Node000004" class="edge">
<title>Node43&#45;&gt;Node4</title>
<g id="a_edge57_Node000043_Node000004"><a xlink:title=" ">
<path fill="none" stroke="#63b8ff" d="M413.83,-111.67C410.51,-111.1 407.22,-110.54 404,-110 351.67,-101.25 208.03,-108.81 168,-74 155.39,-63.04 150.97,-44.08 149.51,-29.73"/>
<polygon fill="#63b8ff" stroke="#63b8ff" points="152.99,-29.21 148.87,-19.45 146,-29.64 152.99,-29.21"/>
</a>
</g>
</g>
<!-- Node43&#45;&gt;Node19 -->
<g id="edge60_Node000043_Node000019" class="edge">
<title>Node43&#45;&gt;Node19</title>
<g id="a_edge60_Node000043_Node000019"><a xlink:title=" ">
<path fill="none" stroke="#63b8ff" d="M538.73,-109.99C582.41,-99.38 641.36,-85.07 680.48,-75.58"/>
<polygon fill="#63b8ff" stroke="#63b8ff" points="681.32,-78.98 690.22,-73.22 679.67,-72.17 681.32,-78.98"/>
</a>
</g>
</g>
<!-- Node44 -->
<g id="Node000044" class="node">
<title>Node44</title>
<g id="a_Node000044"><a xlink:title=" ">
<polygon fill="#e0e0e0" stroke="#999999" points="431,-74 327,-74 327,-55 431,-55 431,-74"/>
<text text-anchor="middle" x="379" y="-62" font-family="Helvetica,sans-Serif" font-size="10.00">../vlayout/vbank.h</text>
</a>
</g>
</g>
<!-- Node43&#45;&gt;Node44 -->
<g id="edge56_Node000043_Node000044" class="edge">
<title>Node43&#45;&gt;Node44</title>
<g id="a_edge56_Node000043_Node000044"><a xlink:title=" ">
<path fill="none" stroke="#63b8ff" d="M456.57,-109.99C440.31,-100.66 419.05,-88.47 402.9,-79.21"/>
<polygon fill="#63b8ff" stroke="#63b8ff" points="404.48,-76.08 394.06,-74.14 401,-82.15 404.48,-76.08"/>
</a>
</g>
</g>
<!-- Node45 -->
<g id="Node000045" class="node">
<title>Node45</title>
<g id="a_Node000045"><a xlink:title=" ">
<polygon fill="#e0e0e0" stroke="#999999" points="528.5,-74 449.5,-74 449.5,-55 528.5,-55 528.5,-74"/>
<text text-anchor="middle" x="489" y="-62" font-family="Helvetica,sans-Serif" font-size="10.00">QCloseEvent</text>
</a>
</g>
</g>
<!-- Node43&#45;&gt;Node45 -->
<g id="edge59_Node000043_Node000045" class="edge">
<title>Node43&#45;&gt;Node45</title>
<g id="a_edge59_Node000043_Node000045"><a xlink:title=" ">
<path fill="none" stroke="#63b8ff" d="M482.94,-109.84C483.98,-102.21 485.28,-92.7 486.41,-84.45"/>
<polygon fill="#63b8ff" stroke="#63b8ff" points="489.91,-84.65 487.8,-74.27 482.98,-83.7 489.91,-84.65"/>
</a>
</g>
</g>
</g>
</svg>

<g id="navigator" transform="translate(0 0)" fill="#404254">
  <rect fill="#f2f5e9" fill-opacity="0.5" stroke="#606060" stroke-width=".5" x="0" y="0" width="60" height="60"/>
  <use id="zoomplus" xlink:href="#zoomPlus" x="17" y="9" onmousedown="handleZoom(evt,'in')"/>
  <use id="zoomminus" xlink:href="#zoomMin" x="42" y="9" onmousedown="handleZoom(evt,'out')"/>
  <use id="reset" xlink:href="#resetDef" x="30" y="36" onmousedown="handleReset()"/>
   <use id="arrowup" xlink:href="#arrowUp" x="0" y="0" onmousedown="handlePan(0,-1)"/>
  <use id="arrowright" xlink:href="#arrowRight" x="0" y="0" onmousedown="handlePan(1,0)"/>
  <use id="arrowdown" xlink:href="#arrowDown" x="0" y="0" onmousedown="handlePan(0,1)"/>
  <use id="arrowleft" xlink:href="#arrowLeft" x="0" y="0" onmousedown="handlePan(-1,0)"/>
</g>
<svg viewBox="0 0 15 15" width="100%" height="30px" preserveAspectRatio="xMaxYMin meet">
 <g id="arrow_out" transform="scale(0.3 0.3)">
  <a xlink:href="abstractlayout__dialog_8cpp__incl_org.svg" target="_base">
   <rect id="button" ry="5" rx="5" y="6" x="6" height="38" width="38"
        fill="#f2f5e9" fill-opacity="0.5" stroke="#606060" stroke-width="1.0"/>
   <path id="arrow"
     d="M 11.500037,31.436501 C 11.940474,20.09759 22.043105,11.32322 32.158766,21.979434 L 37.068811,17.246167 C 37.068811,17.246167 37.088388,32 37.088388,32 L 22.160133,31.978069 C 22.160133,31.978069 26.997745,27.140456 26.997745,27.140456 C 18.528582,18.264221 13.291696,25.230495 11.500037,31.436501 z"
     style="fill:#404040;"/>
  </a>
 </g>
</svg>

<style type='text/css'>
<![CDATA[
[data-mouse-over-selected='false'] { opacity: 0.7; }
[data-mouse-over-selected='true']  { opacity: 1.0; }
]]>
</style>
<script type="application/ecmascript"><![CDATA[
document.addEventListener('DOMContentLoaded', (event) => {
  highlightEdges();
  highlightAdjacentNodes();
});
]]></script>
</svg>
