<?xml version="1.0" encoding="UTF-8" standalone="no"?>
<!DOCTYPE svg PUBLIC "-//W3C//DTD SVG 1.1//EN"
 "http://www.w3.org/Graphics/SVG/1.1/DTD/svg11.dtd">
<!-- Generated by graphviz version 2.43.0 (0)
 -->
<!-- Title: src/libs/vlayout/vbank.h Pages: 1 -->
<svg width="6156pt" height="341pt"
 viewBox="0.00 0.00 6156.00 341.00" xmlns="http://www.w3.org/2000/svg" xmlns:xlink="http://www.w3.org/1999/xlink">
<g id="graph0" class="graph" transform="scale(1 1) rotate(0) translate(4 337)">
<title>src/libs/vlayout/vbank.h</title>
<polygon fill="white" stroke="transparent" points="-4,4 -4,-337 6152,-337 6152,4 -4,4"/>
<!-- Node1 -->
<g id="node1" class="node">
<title>Node1</title>
<g id="a_node1"><a xlink:title=" ">
<polygon fill="#bfbfbf" stroke="black" points="2877,-313.5 2877,-332.5 3010,-332.5 3010,-313.5 2877,-313.5"/>
<text text-anchor="middle" x="2943.5" y="-320.5" font-family="Helvetica,sans-Serif" font-size="10.00">src/libs/vlayout/vbank.h</text>
</a>
</g>
</g>
<!-- Node2 -->
<g id="node2" class="node">
<title>Node2</title>
<g id="a_node2"><a xlink:href="../../de/da8/vbank_8cpp.html" target="_top" xlink:title=" ">
<polygon fill="white" stroke="black" points="2587.5,-257.5 2587.5,-276.5 2731.5,-276.5 2731.5,-257.5 2587.5,-257.5"/>
<text text-anchor="middle" x="2659.5" y="-264.5" font-family="Helvetica,sans-Serif" font-size="10.00">src/libs/vlayout/vbank.cpp</text>
</a>
</g>
</g>
<!-- Node1&#45;&gt;Node2 -->
<g id="edge1" class="edge">
<title>Node1&#45;&gt;Node2</title>
<path fill="none" stroke="midnightblue" d="M2888.47,-311.54C2834.8,-301.33 2754.16,-286 2704.29,-276.52"/>
<polygon fill="midnightblue" stroke="midnightblue" points="2888.02,-315.01 2898.5,-313.44 2889.33,-308.14 2888.02,-315.01"/>
</g>
<!-- Node3 -->
<g id="node3" class="node">
<title>Node3</title>
<g id="a_node3"><a xlink:href="../../dc/d3c/vlayoutgenerator_8h.html" target="_top" xlink:title=" ">
<polygon fill="white" stroke="black" points="2749.5,-257.5 2749.5,-276.5 2935.5,-276.5 2935.5,-257.5 2749.5,-257.5"/>
<text text-anchor="middle" x="2842.5" y="-264.5" font-family="Helvetica,sans-Serif" font-size="10.00">src/libs/vlayout/vlayoutgenerator.h</text>
</a>
</g>
</g>
<!-- Node1&#45;&gt;Node3 -->
<g id="edge2" class="edge">
<title>Node1&#45;&gt;Node3</title>
<path fill="none" stroke="midnightblue" d="M2918.42,-308.59C2899.74,-298.61 2874.8,-285.27 2858.69,-276.65"/>
<polygon fill="midnightblue" stroke="midnightblue" points="2916.8,-311.7 2927.27,-313.32 2920.1,-305.52 2916.8,-311.7"/>
</g>
<!-- Node5 -->
<g id="node5" class="node">
<title>Node5</title>
<g id="a_node5"><a xlink:href="../../d4/d5c/vcommonsettings_8h.html" target="_top" xlink:title=" ">
<polygon fill="white" stroke="black" points="2954,-257.5 2954,-276.5 3137,-276.5 3137,-257.5 2954,-257.5"/>
<text text-anchor="middle" x="3045.5" y="-264.5" font-family="Helvetica,sans-Serif" font-size="10.00">src/libs/vmisc/vcommonsettings.h</text>
</a>
</g>
</g>
<!-- Node1&#45;&gt;Node5 -->
<g id="edge4" class="edge">
<title>Node1&#45;&gt;Node5</title>
<path fill="none" stroke="midnightblue" d="M2968.83,-308.59C2987.69,-298.61 3012.88,-285.27 3029.15,-276.65"/>
<polygon fill="midnightblue" stroke="midnightblue" points="2967.09,-305.55 2959.89,-313.32 2970.36,-311.74 2967.09,-305.55"/>
</g>
<!-- Node50 -->
<g id="node46" class="node">
<title>Node50</title>
<g id="a_node46"><a xlink:href="../../dd/db2/vsettings_8h.html" target="_top" xlink:title=" ">
<polygon fill="white" stroke="black" points="4995.5,-201.5 4995.5,-220.5 5135.5,-220.5 5135.5,-201.5 4995.5,-201.5"/>
<text text-anchor="middle" x="5065.5" y="-208.5" font-family="Helvetica,sans-Serif" font-size="10.00">src/libs/vmisc/vsettings.h</text>
</a>
</g>
</g>
<!-- Node1&#45;&gt;Node50 -->
<g id="edge63" class="edge">
<title>Node1&#45;&gt;Node50</title>
<path fill="none" stroke="midnightblue" d="M3020.27,-318.02C3353.91,-300.73 4675.59,-232.21 4995.5,-215.63"/>
<polygon fill="midnightblue" stroke="midnightblue" points="3020.02,-314.53 3010.22,-318.54 3020.38,-321.52 3020.02,-314.53"/>
</g>
<!-- Node4 -->
<g id="node4" class="node">
<title>Node4</title>
<g id="a_node4"><a xlink:href="../../d3/d39/vlayoutgenerator_8cpp.html" target="_top" xlink:title=" ">
<polygon fill="white" stroke="black" points="2412,-201.5 2412,-220.5 2609,-220.5 2609,-201.5 2412,-201.5"/>
<text text-anchor="middle" x="2510.5" y="-208.5" font-family="Helvetica,sans-Serif" font-size="10.00">src/libs/vlayout/vlayoutgenerator.cpp</text>
</a>
</g>
</g>
<!-- Node3&#45;&gt;Node4 -->
<g id="edge3" class="edge">
<title>Node3&#45;&gt;Node4</title>
<path fill="none" stroke="midnightblue" d="M2779.73,-255.79C2717,-245.59 2621.65,-230.08 2562.86,-220.52"/>
<polygon fill="midnightblue" stroke="midnightblue" points="2779.46,-259.29 2789.89,-257.44 2780.59,-252.38 2779.46,-259.29"/>
</g>
<!-- Node6 -->
<g id="node6" class="node">
<title>Node6</title>
<g id="a_node6"><a xlink:href="../../d4/d90/fvupdater_8cpp.html" target="_top" xlink:title=" ">
<polygon fill="white" stroke="black" points="5027,-73 5027,-92 5180,-92 5180,-73 5027,-73"/>
<text text-anchor="middle" x="5103.5" y="-80" font-family="Helvetica,sans-Serif" font-size="10.00">src/libs/fervor/fvupdater.cpp</text>
</a>
</g>
</g>
<!-- Node5&#45;&gt;Node6 -->
<g id="edge5" class="edge">
<title>Node5&#45;&gt;Node6</title>
<path fill="none" stroke="midnightblue" d="M3047.21,-247.28C3051.05,-217.44 3063.27,-159.83 3101.5,-134 3145.61,-104.2 4964.5,-102.94 5017.5,-98 5031.52,-96.69 5046.7,-94.42 5060.36,-92.06"/>
<polygon fill="midnightblue" stroke="midnightblue" points="3043.73,-246.91 3046.11,-257.23 3050.68,-247.67 3043.73,-246.91"/>
</g>
<!-- Node7 -->
<g id="node7" class="node">
<title>Node7</title>
<g id="a_node7"><a xlink:href="../../dd/d70/vlayoutpiece_8cpp.html" target="_top" xlink:title=" ">
<polygon fill="white" stroke="black" points="5427,-73 5427,-92 5604,-92 5604,-73 5427,-73"/>
<text text-anchor="middle" x="5515.5" y="-80" font-family="Helvetica,sans-Serif" font-size="10.00">src/libs/vlayout/vlayoutpiece.cpp</text>
</a>
</g>
</g>
<!-- Node5&#45;&gt;Node7 -->
<g id="edge6" class="edge">
<title>Node5&#45;&gt;Node7</title>
<path fill="none" stroke="midnightblue" d="M3069.18,-252.43C3094.29,-238.39 3135.37,-216.39 3172.5,-201 3261.83,-163.96 3284.12,-149.92 3379.5,-134 3826.5,-59.41 4966.88,-135.58 5418.5,-98 5434.28,-96.69 5451.4,-94.41 5466.8,-92.05"/>
<polygon fill="midnightblue" stroke="midnightblue" points="3067.37,-249.43 3060.38,-257.39 3070.81,-255.53 3067.37,-249.43"/>
</g>
<!-- Node8 -->
<g id="node8" class="node">
<title>Node8</title>
<g id="a_node8"><a xlink:href="../../d4/d11/vcommonsettings_8cpp.html" target="_top" xlink:title=" ">
<polygon fill="white" stroke="black" points="3181.5,-201.5 3181.5,-220.5 3375.5,-220.5 3375.5,-201.5 3181.5,-201.5"/>
<text text-anchor="middle" x="3278.5" y="-208.5" font-family="Helvetica,sans-Serif" font-size="10.00">src/libs/vmisc/vcommonsettings.cpp</text>
</a>
</g>
</g>
<!-- Node5&#45;&gt;Node8 -->
<g id="edge7" class="edge">
<title>Node5&#45;&gt;Node8</title>
<path fill="none" stroke="midnightblue" d="M3092.3,-255.15C3136.33,-244.95 3201.35,-229.88 3241.75,-220.52"/>
<polygon fill="midnightblue" stroke="midnightblue" points="3091.37,-251.78 3082.42,-257.44 3092.95,-258.6 3091.37,-251.78"/>
</g>
<!-- Node9 -->
<g id="node9" class="node">
<title>Node9</title>
<g id="a_node9"><a xlink:href="../../d5/d74/vabstractapplication_8h.html" target="_top" xlink:title=" ">
<polygon fill="white" stroke="black" points="2855,-140 2855,-159 3050,-159 3050,-140 2855,-140"/>
<text text-anchor="middle" x="2952.5" y="-147" font-family="Helvetica,sans-Serif" font-size="10.00">src/libs/vmisc/vabstractapplication.h</text>
</a>
</g>
</g>
<!-- Node5&#45;&gt;Node9 -->
<g id="edge8" class="edge">
<title>Node5&#45;&gt;Node9</title>
<path fill="none" stroke="midnightblue" d="M3032.21,-249.5C3012.21,-224.66 2975.06,-178.52 2959.57,-159.28"/>
<polygon fill="midnightblue" stroke="midnightblue" points="3029.51,-251.72 3038.51,-257.32 3034.96,-247.33 3029.51,-251.72"/>
</g>
<!-- Node27 -->
<g id="node23" class="node">
<title>Node27</title>
<g id="a_node23"><a xlink:href="../../db/d11/vformula_8cpp.html" target="_top" xlink:title=" ">
<polygon fill="white" stroke="black" points="0,-67.5 0,-97.5 107,-97.5 107,-67.5 0,-67.5"/>
<text text-anchor="start" x="8" y="-85.5" font-family="Helvetica,sans-Serif" font-size="10.00">src/libs/vpatterndb</text>
<text text-anchor="middle" x="53.5" y="-74.5" font-family="Helvetica,sans-Serif" font-size="10.00">/vformula.cpp</text>
</a>
</g>
</g>
<!-- Node5&#45;&gt;Node27 -->
<g id="edge55" class="edge">
<title>Node5&#45;&gt;Node27</title>
<path fill="none" stroke="midnightblue" d="M2972.01,-256.13C2908.31,-247.42 2813.71,-234.1 2731.5,-221 2680.7,-212.91 2668.64,-206.51 2617.5,-201 1510.97,-81.69 1218.25,-248.28 115.5,-98 112.76,-97.63 109.97,-97.19 107.15,-96.7"/>
<polygon fill="midnightblue" stroke="midnightblue" points="2971.58,-259.6 2981.96,-257.49 2972.53,-252.67 2971.58,-259.6"/>
</g>
<!-- Node29 -->
<g id="node25" class="node">
<title>Node29</title>
<g id="a_node25"><a xlink:href="../../df/dba/vpiecenode__p_8h.html" target="_top" xlink:title=" ">
<polygon fill="white" stroke="black" points="125,-67.5 125,-97.5 232,-97.5 232,-67.5 125,-67.5"/>
<text text-anchor="start" x="133" y="-85.5" font-family="Helvetica,sans-Serif" font-size="10.00">src/libs/vpatterndb</text>
<text text-anchor="middle" x="178.5" y="-74.5" font-family="Helvetica,sans-Serif" font-size="10.00">/vpiecenode_p.h</text>
</a>
</g>
</g>
<!-- Node5&#45;&gt;Node29 -->
<g id="edge56" class="edge">
<title>Node5&#45;&gt;Node29</title>
<path fill="none" stroke="midnightblue" d="M2962.72,-256.2C2895.7,-247.54 2807.11,-234.27 2773.5,-221 2731.77,-204.52 2725.59,-191.66 2689.5,-165 2671.97,-152.05 2671.98,-141.47 2651.5,-134 2525.64,-88.11 373.46,-114.35 240.5,-98 237.76,-97.66 234.96,-97.25 232.14,-96.79"/>
<polygon fill="midnightblue" stroke="midnightblue" points="2962.5,-259.7 2972.86,-257.49 2963.39,-252.75 2962.5,-259.7"/>
</g>
<!-- Node33 -->
<g id="node29" class="node">
<title>Node33</title>
<g id="a_node29"><a xlink:href="../../df/d40/export__format__combobox_8cpp.html" target="_top" xlink:title=" ">
<polygon fill="white" stroke="black" points="250,-67.5 250,-97.5 383,-97.5 383,-67.5 250,-67.5"/>
<text text-anchor="start" x="258" y="-85.5" font-family="Helvetica,sans-Serif" font-size="10.00">src/libs/vwidgets/export</text>
<text text-anchor="middle" x="316.5" y="-74.5" font-family="Helvetica,sans-Serif" font-size="10.00">_format_combobox.cpp</text>
</a>
</g>
</g>
<!-- Node5&#45;&gt;Node33 -->
<g id="edge57" class="edge">
<title>Node5&#45;&gt;Node33</title>
<path fill="none" stroke="midnightblue" d="M2953.13,-255.96C2910.21,-249.29 2859.14,-238.43 2815.5,-221 2772.45,-203.81 2765.08,-192.14 2727.5,-165 2709.83,-152.24 2709.97,-141.47 2689.5,-134 2569.56,-90.22 518.5,-111.17 391.5,-98 388.73,-97.71 385.91,-97.38 383.07,-97"/>
<polygon fill="midnightblue" stroke="midnightblue" points="2952.88,-259.46 2963.29,-257.49 2953.92,-252.54 2952.88,-259.46"/>
</g>
<!-- Node35 -->
<g id="node31" class="node">
<title>Node35</title>
<g id="a_node31"><a xlink:href="../../d2/d28/page__format__combobox_8cpp.html" target="_top" xlink:title=" ">
<polygon fill="white" stroke="black" points="401,-67.5 401,-97.5 532,-97.5 532,-67.5 401,-67.5"/>
<text text-anchor="start" x="409" y="-85.5" font-family="Helvetica,sans-Serif" font-size="10.00">src/libs/vwidgets/page</text>
<text text-anchor="middle" x="466.5" y="-74.5" font-family="Helvetica,sans-Serif" font-size="10.00">_format_combobox.cpp</text>
</a>
</g>
</g>
<!-- Node5&#45;&gt;Node35 -->
<g id="edge58" class="edge">
<title>Node5&#45;&gt;Node35</title>
<path fill="none" stroke="midnightblue" d="M2982.77,-255.51C2946.26,-248.24 2899.83,-236.97 2860.5,-221 2815.09,-202.56 2805.72,-193.02 2765.5,-165 2747.62,-152.54 2747.97,-141.48 2727.5,-134 2613.37,-92.29 661.35,-110.73 540.5,-98 537.77,-97.71 534.98,-97.37 532.18,-97"/>
<polygon fill="midnightblue" stroke="midnightblue" points="2982.3,-258.98 2992.78,-257.45 2983.63,-252.11 2982.3,-258.98"/>
</g>
<!-- Node41 -->
<g id="node37" class="node">
<title>Node41</title>
<g id="a_node37"><a xlink:href="../../d1/d90/vgrainlineitem_8cpp.html" target="_top" xlink:title=" ">
<polygon fill="white" stroke="black" points="550,-73 550,-92 743,-92 743,-73 550,-73"/>
<text text-anchor="middle" x="646.5" y="-80" font-family="Helvetica,sans-Serif" font-size="10.00">src/libs/vwidgets/vgrainlineitem.cpp</text>
</a>
</g>
</g>
<!-- Node5&#45;&gt;Node41 -->
<g id="edge59" class="edge">
<title>Node5&#45;&gt;Node41</title>
<path fill="none" stroke="midnightblue" d="M3004.16,-254.63C2976.37,-246.47 2939.17,-234.56 2907.5,-221 2859.24,-200.34 2847.15,-194.17 2803.5,-165 2785.38,-152.89 2785.97,-141.5 2765.5,-134 2660.47,-95.53 864.02,-106.59 752.5,-98 735.28,-96.67 716.58,-94.4 699.75,-92.04"/>
<polygon fill="midnightblue" stroke="midnightblue" points="3003.37,-258.04 3013.95,-257.46 3005.31,-251.32 3003.37,-258.04"/>
</g>
<!-- Node42 -->
<g id="node38" class="node">
<title>Node42</title>
<g id="a_node38"><a xlink:href="../../d1/d88/vmaingraphicsscene_8cpp.html" target="_top" xlink:title=" ">
<polygon fill="white" stroke="black" points="761.5,-73 761.5,-92 983.5,-92 983.5,-73 761.5,-73"/>
<text text-anchor="middle" x="872.5" y="-80" font-family="Helvetica,sans-Serif" font-size="10.00">src/libs/vwidgets/vmaingraphicsscene.cpp</text>
</a>
</g>
</g>
<!-- Node5&#45;&gt;Node42 -->
<g id="edge60" class="edge">
<title>Node5&#45;&gt;Node42</title>
<path fill="none" stroke="midnightblue" d="M3016.56,-253.25C2976.92,-235.38 2903.98,-201 2845.5,-165 2825.74,-152.84 2825.46,-141.47 2803.5,-134 2708.23,-101.6 1092.88,-105.04 992.5,-98 973.14,-96.64 952.1,-94.37 933.13,-92.03"/>
<polygon fill="midnightblue" stroke="midnightblue" points="3015.33,-256.54 3025.89,-257.43 3018.19,-250.15 3015.33,-256.54"/>
</g>
<!-- Node45 -->
<g id="node41" class="node">
<title>Node45</title>
<g id="a_node41"><a xlink:href="../../d2/d31/vmaingraphicsview_8cpp.html" target="_top" xlink:title=" ">
<polygon fill="white" stroke="black" points="5622.5,-73 5622.5,-92 5838.5,-92 5838.5,-73 5622.5,-73"/>
<text text-anchor="middle" x="5730.5" y="-80" font-family="Helvetica,sans-Serif" font-size="10.00">src/libs/vwidgets/vmaingraphicsview.cpp</text>
</a>
</g>
</g>
<!-- Node5&#45;&gt;Node45 -->
<g id="edge61" class="edge">
<title>Node5&#45;&gt;Node45</title>
<path fill="none" stroke="midnightblue" d="M3147.2,-261.47C3493.15,-245.61 4656.06,-188.57 5613.5,-98 5630.92,-96.35 5649.76,-94.19 5667.12,-92.04"/>
<polygon fill="midnightblue" stroke="midnightblue" points="3147.03,-257.97 3137.2,-261.93 3147.35,-264.97 3147.03,-257.97"/>
</g>
<!-- Node47 -->
<g id="node43" class="node">
<title>Node47</title>
<g id="a_node43"><a xlink:href="../../df/df5/vtextgraphicsitem_8cpp.html" target="_top" xlink:title=" ">
<polygon fill="white" stroke="black" points="5198,-73 5198,-92 5409,-92 5409,-73 5198,-73"/>
<text text-anchor="middle" x="5303.5" y="-80" font-family="Helvetica,sans-Serif" font-size="10.00">src/libs/vwidgets/vtextgraphicsitem.cpp</text>
</a>
</g>
</g>
<!-- Node5&#45;&gt;Node47 -->
<g id="edge62" class="edge">
<title>Node5&#45;&gt;Node47</title>
<path fill="none" stroke="midnightblue" d="M3055.4,-248.27C3074.24,-215.27 3115.48,-146.65 3139.5,-134 3240.28,-80.92 5075.89,-106.2 5189.5,-98 5208.01,-96.66 5228.11,-94.39 5246.21,-92.03"/>
<polygon fill="midnightblue" stroke="midnightblue" points="3052.19,-246.83 3050.32,-257.26 3058.29,-250.28 3052.19,-246.83"/>
</g>
<!-- Node48 -->
<g id="node44" class="node">
<title>Node48</title>
<g id="a_node44"><a xlink:href="../../df/da4/vseamlymesettings_8h.html" target="_top" xlink:title=" ">
<polygon fill="white" stroke="black" points="3393.5,-201.5 3393.5,-220.5 3585.5,-220.5 3585.5,-201.5 3393.5,-201.5"/>
<text text-anchor="middle" x="3489.5" y="-208.5" font-family="Helvetica,sans-Serif" font-size="10.00">src/libs/vmisc/vseamlymesettings.h</text>
</a>
</g>
</g>
<!-- Node5&#45;&gt;Node48 -->
<g id="edge46" class="edge">
<title>Node5&#45;&gt;Node48</title>
<path fill="none" stroke="midnightblue" d="M3125.84,-256.23C3209.65,-246.04 3339.72,-230.22 3419.48,-220.52"/>
<polygon fill="midnightblue" stroke="midnightblue" points="3125.36,-252.76 3115.85,-257.44 3126.2,-259.71 3125.36,-252.76"/>
</g>
<!-- Node5&#45;&gt;Node50 -->
<g id="edge48" class="edge">
<title>Node5&#45;&gt;Node50</title>
<path fill="none" stroke="midnightblue" d="M3147.27,-263.28C3504.12,-253.74 4693.29,-221.95 4995.29,-213.88"/>
<polygon fill="midnightblue" stroke="midnightblue" points="3147.12,-259.78 3137.21,-263.55 3147.3,-266.78 3147.12,-259.78"/>
</g>
<!-- Node9&#45;&gt;Node6 -->
<g id="edge9" class="edge">
<title>Node9&#45;&gt;Node6</title>
<path fill="none" stroke="midnightblue" d="M3018.37,-138.67C3033.18,-136.8 3048.86,-135.09 3063.5,-134 3929.7,-69.65 4152.64,-178.43 5017.5,-98 5031.52,-96.7 5046.7,-94.43 5060.36,-92.06"/>
<polygon fill="midnightblue" stroke="midnightblue" points="3017.74,-135.22 3008.27,-139.98 3018.64,-142.16 3017.74,-135.22"/>
</g>
<!-- Node9&#45;&gt;Node7 -->
<g id="edge19" class="edge">
<title>Node9&#45;&gt;Node7</title>
<path fill="none" stroke="midnightblue" d="M3057.68,-139.2C3084.35,-137.16 3112.96,-135.24 3139.5,-134 4151.42,-86.82 4408.9,-181.07 5418.5,-98 5434.28,-96.7 5451.4,-94.43 5466.8,-92.07"/>
<polygon fill="midnightblue" stroke="midnightblue" points="3057.26,-135.72 3047.56,-139.99 3057.8,-142.7 3057.26,-135.72"/>
</g>
<!-- Node10 -->
<g id="node10" class="node">
<title>Node10</title>
<g id="a_node10"><a xlink:href="../../d9/dc8/dxiface_8cpp.html" target="_top" xlink:title=" ">
<polygon fill="white" stroke="black" points="3805,-73 3805,-92 3940,-92 3940,-73 3805,-73"/>
<text text-anchor="middle" x="3872.5" y="-80" font-family="Helvetica,sans-Serif" font-size="10.00">src/libs/vdxf/dxiface.cpp</text>
</a>
</g>
</g>
<!-- Node9&#45;&gt;Node10 -->
<g id="edge10" class="edge">
<title>Node9&#45;&gt;Node10</title>
<path fill="none" stroke="midnightblue" d="M3020.96,-138.68C3035.01,-136.91 3049.72,-135.24 3063.5,-134 3388.37,-104.85 3472.63,-136.66 3796.5,-98 3808.64,-96.55 3821.75,-94.3 3833.61,-92"/>
<polygon fill="midnightblue" stroke="midnightblue" points="3020.34,-135.23 3010.87,-139.97 3021.24,-142.17 3020.34,-135.23"/>
</g>
<!-- Node11 -->
<g id="node11" class="node">
<title>Node11</title>
<g id="a_node11"><a xlink:href="../../da/d75/vabstractarc__p_8h.html" target="_top" xlink:title=" ">
<polygon fill="white" stroke="red" points="3958,-67.5 3958,-97.5 4065,-97.5 4065,-67.5 3958,-67.5"/>
<text text-anchor="start" x="3966" y="-85.5" font-family="Helvetica,sans-Serif" font-size="10.00">src/libs/vgeometry</text>
<text text-anchor="middle" x="4011.5" y="-74.5" font-family="Helvetica,sans-Serif" font-size="10.00">/vabstractarc_p.h</text>
</a>
</g>
</g>
<!-- Node9&#45;&gt;Node11 -->
<g id="edge11" class="edge">
<title>Node9&#45;&gt;Node11</title>
<path fill="none" stroke="midnightblue" d="M3020.24,-138.67C3034.5,-136.88 3049.48,-135.2 3063.5,-134 3456.17,-100.44 3558.99,-151.11 3949.5,-98 3952.24,-97.63 3955.03,-97.19 3957.85,-96.7"/>
<polygon fill="midnightblue" stroke="midnightblue" points="3019.47,-135.24 3010.01,-140 3020.37,-142.19 3019.47,-135.24"/>
</g>
<!-- Node13 -->
<g id="node12" class="node">
<title>Node13</title>
<g id="a_node12"><a xlink:href="../../dc/da3/varc__p_8h.html" target="_top" xlink:title=" ">
<polygon fill="white" stroke="red" points="4083,-67.5 4083,-97.5 4190,-97.5 4190,-67.5 4083,-67.5"/>
<text text-anchor="start" x="4091" y="-85.5" font-family="Helvetica,sans-Serif" font-size="10.00">src/libs/vgeometry</text>
<text text-anchor="middle" x="4136.5" y="-74.5" font-family="Helvetica,sans-Serif" font-size="10.00">/varc_p.h</text>
</a>
</g>
</g>
<!-- Node9&#45;&gt;Node13 -->
<g id="edge12" class="edge">
<title>Node9&#45;&gt;Node13</title>
<path fill="none" stroke="midnightblue" d="M3020,-138.65C3034.33,-136.85 3049.4,-135.17 3063.5,-134 3511.58,-96.84 3628.83,-157.47 4074.5,-98 4077.24,-97.63 4080.03,-97.2 4082.85,-96.72"/>
<polygon fill="midnightblue" stroke="midnightblue" points="3019.18,-135.23 3009.71,-139.98 3020.08,-142.17 3019.18,-135.23"/>
</g>
<!-- Node15 -->
<g id="node13" class="node">
<title>Node15</title>
<g id="a_node13"><a xlink:href="../../d5/d8e/vcubicbezier__p_8h.html" target="_top" xlink:title=" ">
<polygon fill="white" stroke="red" points="4208,-67.5 4208,-97.5 4315,-97.5 4315,-67.5 4208,-67.5"/>
<text text-anchor="start" x="4216" y="-85.5" font-family="Helvetica,sans-Serif" font-size="10.00">src/libs/vgeometry</text>
<text text-anchor="middle" x="4261.5" y="-74.5" font-family="Helvetica,sans-Serif" font-size="10.00">/vcubicbezier_p.h</text>
</a>
</g>
</g>
<!-- Node9&#45;&gt;Node15 -->
<g id="edge13" class="edge">
<title>Node9&#45;&gt;Node15</title>
<path fill="none" stroke="midnightblue" d="M3019.76,-138.64C3034.16,-136.83 3049.32,-135.15 3063.5,-134 3566.99,-93.24 3698.67,-163.84 4199.5,-98 4202.24,-97.64 4205.04,-97.21 4207.85,-96.73"/>
<polygon fill="midnightblue" stroke="midnightblue" points="3018.89,-135.22 3009.43,-139.97 3019.79,-142.16 3018.89,-135.22"/>
</g>
<!-- Node17 -->
<g id="node14" class="node">
<title>Node17</title>
<g id="a_node14"><a xlink:href="../../df/dde/vellipticalarc__p_8h.html" target="_top" xlink:title=" ">
<polygon fill="white" stroke="black" points="4333,-67.5 4333,-97.5 4440,-97.5 4440,-67.5 4333,-67.5"/>
<text text-anchor="start" x="4341" y="-85.5" font-family="Helvetica,sans-Serif" font-size="10.00">src/libs/vgeometry</text>
<text text-anchor="middle" x="4386.5" y="-74.5" font-family="Helvetica,sans-Serif" font-size="10.00">/vellipticalarc_p.h</text>
</a>
</g>
</g>
<!-- Node9&#45;&gt;Node17 -->
<g id="edge14" class="edge">
<title>Node9&#45;&gt;Node17</title>
<path fill="none" stroke="midnightblue" d="M3019.1,-138.69C3033.7,-136.85 3049.1,-135.14 3063.5,-134 3622.41,-89.63 3768.5,-170.2 4324.5,-98 4327.24,-97.64 4330.04,-97.22 4332.85,-96.74"/>
<polygon fill="midnightblue" stroke="midnightblue" points="3018.6,-135.22 3009.14,-139.98 3019.5,-142.16 3018.6,-135.22"/>
</g>
<!-- Node18 -->
<g id="node15" class="node">
<title>Node18</title>
<g id="a_node15"><a xlink:href="../../d6/dfb/vellipticalarc_8cpp.html" target="_top" xlink:title=" ">
<polygon fill="white" stroke="black" points="4374,-0.5 4374,-30.5 4481,-30.5 4481,-0.5 4374,-0.5"/>
<text text-anchor="start" x="4382" y="-18.5" font-family="Helvetica,sans-Serif" font-size="10.00">src/libs/vgeometry</text>
<text text-anchor="middle" x="4427.5" y="-7.5" font-family="Helvetica,sans-Serif" font-size="10.00">/vellipticalarc.cpp</text>
</a>
</g>
</g>
<!-- Node9&#45;&gt;Node18 -->
<g id="edge16" class="edge">
<title>Node9&#45;&gt;Node18</title>
<path fill="none" stroke="midnightblue" d="M3018.86,-138.69C3033.53,-136.84 3049.02,-135.13 3063.5,-134 3101.9,-131 4422.62,-125.58 4449.5,-98 4467.3,-79.74 4450.74,-48.65 4438.3,-30.61"/>
<polygon fill="midnightblue" stroke="midnightblue" points="3018.32,-135.23 3008.85,-139.99 3019.22,-142.17 3018.32,-135.23"/>
</g>
<!-- Node19 -->
<g id="node16" class="node">
<title>Node19</title>
<g id="a_node16"><a xlink:href="../../d1/d76/vspline__p_8h.html" target="_top" xlink:title=" ">
<polygon fill="white" stroke="red" points="4497,-67.5 4497,-97.5 4604,-97.5 4604,-67.5 4497,-67.5"/>
<text text-anchor="start" x="4505" y="-85.5" font-family="Helvetica,sans-Serif" font-size="10.00">src/libs/vgeometry</text>
<text text-anchor="middle" x="4550.5" y="-74.5" font-family="Helvetica,sans-Serif" font-size="10.00">/vspline_p.h</text>
</a>
</g>
</g>
<!-- Node9&#45;&gt;Node19 -->
<g id="edge17" class="edge">
<title>Node9&#45;&gt;Node19</title>
<path fill="none" stroke="midnightblue" d="M3018.85,-138.68C3033.53,-136.83 3049.02,-135.13 3063.5,-134 3692.47,-85.07 3856,-172.1 4482.5,-98 4487.18,-97.45 4492,-96.73 4496.83,-95.9"/>
<polygon fill="midnightblue" stroke="midnightblue" points="3018.32,-135.22 3008.85,-139.98 3019.22,-142.16 3018.32,-135.22"/>
</g>
<!-- Node21 -->
<g id="node17" class="node">
<title>Node21</title>
<g id="a_node17"><a xlink:href="../../d9/d15/vabstractpiece_8cpp.html" target="_top" xlink:title=" ">
<polygon fill="white" stroke="black" points="4622.5,-73 4622.5,-92 4808.5,-92 4808.5,-73 4622.5,-73"/>
<text text-anchor="middle" x="4715.5" y="-80" font-family="Helvetica,sans-Serif" font-size="10.00">src/libs/vlayout/vabstractpiece.cpp</text>
</a>
</g>
</g>
<!-- Node9&#45;&gt;Node21 -->
<g id="edge18" class="edge">
<title>Node9&#45;&gt;Node21</title>
<path fill="none" stroke="midnightblue" d="M3018.61,-138.69C3033.36,-136.83 3048.94,-135.12 3063.5,-134 3750.56,-81.3 3926.75,-154.59 4613.5,-98 4629.99,-96.64 4647.88,-94.37 4664,-92.03"/>
<polygon fill="midnightblue" stroke="midnightblue" points="3018.03,-135.23 3008.56,-139.99 3018.93,-142.18 3018.03,-135.23"/>
</g>
<!-- Node22 -->
<g id="node18" class="node">
<title>Node22</title>
<g id="a_node18"><a xlink:href="../../d8/d70/vtextmanager_8cpp.html" target="_top" xlink:title=" ">
<polygon fill="white" stroke="black" points="4826.5,-73 4826.5,-92 5008.5,-92 5008.5,-73 4826.5,-73"/>
<text text-anchor="middle" x="4917.5" y="-80" font-family="Helvetica,sans-Serif" font-size="10.00">src/libs/vlayout/vtextmanager.cpp</text>
</a>
</g>
</g>
<!-- Node9&#45;&gt;Node22 -->
<g id="edge20" class="edge">
<title>Node9&#45;&gt;Node22</title>
<path fill="none" stroke="midnightblue" d="M3018.61,-138.66C3033.36,-136.8 3048.94,-135.1 3063.5,-134 3841.02,-75.41 4040.42,-162.07 4817.5,-98 4833.76,-96.66 4851.4,-94.38 4867.28,-92.02"/>
<polygon fill="midnightblue" stroke="midnightblue" points="3018.03,-135.2 3008.56,-139.96 3018.93,-142.15 3018.03,-135.2"/>
</g>
<!-- Node23 -->
<g id="node19" class="node">
<title>Node23</title>
<g id="a_node19"><a xlink:href="../../db/d65/dialogexporttocsv_8cpp.html" target="_top" xlink:title=" ">
<polygon fill="white" stroke="black" points="1002,-67.5 1002,-97.5 1129,-97.5 1129,-67.5 1002,-67.5"/>
<text text-anchor="start" x="1010" y="-85.5" font-family="Helvetica,sans-Serif" font-size="10.00">src/libs/vmisc/dialogs</text>
<text text-anchor="middle" x="1065.5" y="-74.5" font-family="Helvetica,sans-Serif" font-size="10.00">/dialogexporttocsv.cpp</text>
</a>
</g>
</g>
<!-- Node9&#45;&gt;Node23 -->
<g id="edge21" class="edge">
<title>Node9&#45;&gt;Node23</title>
<path fill="none" stroke="midnightblue" d="M2886.39,-138.67C2871.64,-136.81 2856.06,-135.1 2841.5,-134 2086.6,-76.88 1891.1,-180.06 1138.5,-98 1135.42,-97.66 1132.27,-97.26 1129.1,-96.81"/>
<polygon fill="midnightblue" stroke="midnightblue" points="2886.07,-142.15 2896.44,-139.97 2886.97,-135.21 2886.07,-142.15"/>
</g>
<!-- Node24 -->
<g id="node20" class="node">
<title>Node24</title>
<g id="a_node20"><a xlink:href="../../d6/d0b/def_8cpp.html" target="_top" xlink:title=" ">
<polygon fill="white" stroke="black" points="1147.5,-73 1147.5,-92 1269.5,-92 1269.5,-73 1147.5,-73"/>
<text text-anchor="middle" x="1208.5" y="-80" font-family="Helvetica,sans-Serif" font-size="10.00">src/libs/vmisc/def.cpp</text>
</a>
</g>
</g>
<!-- Node9&#45;&gt;Node24 -->
<g id="edge22" class="edge">
<title>Node9&#45;&gt;Node24</title>
<path fill="none" stroke="midnightblue" d="M2886.39,-138.69C2871.64,-136.83 2856.06,-135.12 2841.5,-134 2148.68,-80.92 1968.87,-176.79 1278.5,-98 1267.03,-96.69 1254.66,-94.42 1243.55,-92.06"/>
<polygon fill="midnightblue" stroke="midnightblue" points="2886.07,-142.17 2896.44,-139.99 2886.97,-135.23 2886.07,-142.17"/>
</g>
<!-- Node25 -->
<g id="node21" class="node">
<title>Node25</title>
<g id="a_node21"><a xlink:href="../../d0/df6/vabstractapplication_8cpp.html" target="_top" xlink:title=" ">
<polygon fill="white" stroke="black" points="1287.5,-73 1287.5,-92 1493.5,-92 1493.5,-73 1287.5,-73"/>
<text text-anchor="middle" x="1390.5" y="-80" font-family="Helvetica,sans-Serif" font-size="10.00">src/libs/vmisc/vabstractapplication.cpp</text>
</a>
</g>
</g>
<!-- Node9&#45;&gt;Node25 -->
<g id="edge23" class="edge">
<title>Node9&#45;&gt;Node25</title>
<path fill="none" stroke="midnightblue" d="M2886.14,-138.7C2871.47,-136.85 2855.98,-135.14 2841.5,-134 2248,-87.38 2096.02,-144.28 1502.5,-98 1484.52,-96.6 1464.99,-94.33 1447.36,-92"/>
<polygon fill="midnightblue" stroke="midnightblue" points="2885.78,-142.18 2896.15,-140 2886.68,-135.24 2885.78,-142.18"/>
</g>
<!-- Node26 -->
<g id="node22" class="node">
<title>Node26</title>
<g id="a_node22"><a xlink:href="../../d4/d4f/pmsystems_8cpp.html" target="_top" xlink:title=" ">
<polygon fill="white" stroke="black" points="1512,-67.5 1512,-97.5 1619,-97.5 1619,-67.5 1512,-67.5"/>
<text text-anchor="start" x="1520" y="-85.5" font-family="Helvetica,sans-Serif" font-size="10.00">src/libs/vpatterndb</text>
<text text-anchor="middle" x="1565.5" y="-74.5" font-family="Helvetica,sans-Serif" font-size="10.00">/pmsystems.cpp</text>
</a>
</g>
</g>
<!-- Node9&#45;&gt;Node26 -->
<g id="edge24" class="edge">
<title>Node9&#45;&gt;Node26</title>
<path fill="none" stroke="midnightblue" d="M2885.9,-138.7C2871.3,-136.86 2855.9,-135.15 2841.5,-134 2303.42,-90.99 2162.76,-167.81 1627.5,-98 1624.76,-97.64 1621.96,-97.22 1619.15,-96.74"/>
<polygon fill="midnightblue" stroke="midnightblue" points="2885.49,-142.17 2895.86,-139.99 2886.39,-135.23 2885.49,-142.17"/>
</g>
<!-- Node9&#45;&gt;Node27 -->
<g id="edge25" class="edge">
<title>Node9&#45;&gt;Node27</title>
<path fill="none" stroke="midnightblue" d="M2844.76,-142.42C2787.39,-139.41 2715.63,-136 2651.5,-134 2369.83,-125.22 395.21,-132.29 115.5,-98 112.76,-97.66 109.96,-97.25 107.14,-96.79"/>
<polygon fill="midnightblue" stroke="midnightblue" points="2844.76,-145.93 2854.93,-142.96 2845.13,-138.94 2844.76,-145.93"/>
</g>
<!-- Node28 -->
<g id="node24" class="node">
<title>Node28</title>
<g id="a_node24"><a xlink:href="../../d6/d46/vcontainer_8cpp.html" target="_top" xlink:title=" ">
<polygon fill="white" stroke="black" points="1637,-67.5 1637,-97.5 1744,-97.5 1744,-67.5 1637,-67.5"/>
<text text-anchor="start" x="1645" y="-85.5" font-family="Helvetica,sans-Serif" font-size="10.00">src/libs/vpatterndb</text>
<text text-anchor="middle" x="1690.5" y="-74.5" font-family="Helvetica,sans-Serif" font-size="10.00">/vcontainer.cpp</text>
</a>
</g>
</g>
<!-- Node9&#45;&gt;Node28 -->
<g id="edge26" class="edge">
<title>Node9&#45;&gt;Node28</title>
<path fill="none" stroke="midnightblue" d="M2885.24,-138.65C2870.84,-136.84 2855.68,-135.16 2841.5,-134 2358.84,-94.59 2232.59,-161.45 1752.5,-98 1749.76,-97.64 1746.96,-97.21 1744.15,-96.73"/>
<polygon fill="midnightblue" stroke="midnightblue" points="2885.21,-142.18 2895.57,-139.99 2886.1,-135.23 2885.21,-142.18"/>
</g>
<!-- Node9&#45;&gt;Node29 -->
<g id="edge27" class="edge">
<title>Node9&#45;&gt;Node29</title>
<path fill="none" stroke="midnightblue" d="M2844.8,-141.58C2797.22,-138.77 2740.59,-135.78 2689.5,-134 2417.53,-124.51 510.61,-131.18 240.5,-98 237.76,-97.66 234.96,-97.25 232.14,-96.79"/>
<polygon fill="midnightblue" stroke="midnightblue" points="2844.62,-145.07 2854.81,-142.17 2845.04,-138.09 2844.62,-145.07"/>
</g>
<!-- Node31 -->
<g id="node27" class="node">
<title>Node31</title>
<g id="a_node27"><a xlink:href="../../df/d7a/vpiece_8cpp.html" target="_top" xlink:title=" ">
<polygon fill="white" stroke="black" points="1762,-67.5 1762,-97.5 1869,-97.5 1869,-67.5 1762,-67.5"/>
<text text-anchor="start" x="1770" y="-85.5" font-family="Helvetica,sans-Serif" font-size="10.00">src/libs/vpatterndb</text>
<text text-anchor="middle" x="1815.5" y="-74.5" font-family="Helvetica,sans-Serif" font-size="10.00">/vpiece.cpp</text>
</a>
</g>
</g>
<!-- Node9&#45;&gt;Node31 -->
<g id="edge29" class="edge">
<title>Node9&#45;&gt;Node31</title>
<path fill="none" stroke="midnightblue" d="M2885,-138.67C2870.67,-136.87 2855.6,-135.18 2841.5,-134 2414.7,-98.22 2303.08,-154.28 1878.5,-98 1875.5,-97.6 1872.42,-97.13 1869.33,-96.59"/>
<polygon fill="midnightblue" stroke="midnightblue" points="2884.92,-142.19 2895.28,-140 2885.81,-135.24 2884.92,-142.19"/>
</g>
<!-- Node32 -->
<g id="node28" class="node">
<title>Node32</title>
<g id="a_node28"><a xlink:href="../../de/d3e/vtranslatevars_8cpp.html" target="_top" xlink:title=" ">
<polygon fill="white" stroke="black" points="1887.5,-67.5 1887.5,-97.5 1997.5,-97.5 1997.5,-67.5 1887.5,-67.5"/>
<text text-anchor="start" x="1895.5" y="-85.5" font-family="Helvetica,sans-Serif" font-size="10.00">src/libs/vpatterndb</text>
<text text-anchor="middle" x="1942.5" y="-74.5" font-family="Helvetica,sans-Serif" font-size="10.00">/vtranslatevars.cpp</text>
</a>
</g>
</g>
<!-- Node9&#45;&gt;Node32 -->
<g id="edge30" class="edge">
<title>Node9&#45;&gt;Node32</title>
<path fill="none" stroke="midnightblue" d="M2884.52,-138.67C2870.33,-136.89 2855.44,-135.21 2841.5,-134 2471.43,-101.91 2374.68,-147.24 2006.5,-98 2003.56,-97.61 2000.56,-97.14 1997.54,-96.63"/>
<polygon fill="midnightblue" stroke="midnightblue" points="2884.34,-142.18 2894.71,-139.98 2885.24,-135.23 2884.34,-142.18"/>
</g>
<!-- Node9&#45;&gt;Node33 -->
<g id="edge31" class="edge">
<title>Node9&#45;&gt;Node33</title>
<path fill="none" stroke="midnightblue" d="M2844.49,-140.46C2807.42,-137.99 2765.66,-135.52 2727.5,-134 2208.74,-113.3 907.91,-151.48 391.5,-98 388.73,-97.71 385.91,-97.38 383.07,-97"/>
<polygon fill="midnightblue" stroke="midnightblue" points="2844.6,-143.98 2854.82,-141.16 2845.08,-136.99 2844.6,-143.98"/>
</g>
<!-- Node34 -->
<g id="node30" class="node">
<title>Node34</title>
<g id="a_node30"><a xlink:href="../../d3/d4f/mouse__coordinates_8cpp.html" target="_top" xlink:title=" ">
<polygon fill="white" stroke="black" points="2015.5,-67.5 2015.5,-97.5 2149.5,-97.5 2149.5,-67.5 2015.5,-67.5"/>
<text text-anchor="start" x="2023.5" y="-85.5" font-family="Helvetica,sans-Serif" font-size="10.00">src/libs/vwidgets/mouse</text>
<text text-anchor="middle" x="2082.5" y="-74.5" font-family="Helvetica,sans-Serif" font-size="10.00">_coordinates.cpp</text>
</a>
</g>
</g>
<!-- Node9&#45;&gt;Node34 -->
<g id="edge32" class="edge">
<title>Node9&#45;&gt;Node34</title>
<path fill="none" stroke="midnightblue" d="M2883.8,-138.68C2869.82,-136.92 2855.2,-135.25 2841.5,-134 2538.79,-106.29 2460.27,-134.57 2158.5,-98 2155.57,-97.64 2152.58,-97.24 2149.56,-96.81"/>
<polygon fill="midnightblue" stroke="midnightblue" points="2883.47,-142.17 2893.84,-139.98 2884.36,-135.23 2883.47,-142.17"/>
</g>
<!-- Node9&#45;&gt;Node35 -->
<g id="edge33" class="edge">
<title>Node9&#45;&gt;Node35</title>
<path fill="none" stroke="midnightblue" d="M2847.32,-139.21C2820.65,-137.17 2792.04,-135.24 2765.5,-134 2271.53,-110.87 1032.29,-149.75 540.5,-98 537.77,-97.71 534.98,-97.37 532.18,-97"/>
<polygon fill="midnightblue" stroke="midnightblue" points="2847.2,-142.71 2857.44,-140 2847.74,-135.73 2847.2,-142.71"/>
</g>
<!-- Node36 -->
<g id="node32" class="node">
<title>Node36</title>
<g id="a_node32"><a xlink:href="../../d7/d1b/pen__toolbar_8cpp.html" target="_top" xlink:title=" ">
<polygon fill="white" stroke="black" points="2168,-67.5 2168,-97.5 2287,-97.5 2287,-67.5 2168,-67.5"/>
<text text-anchor="start" x="2176" y="-85.5" font-family="Helvetica,sans-Serif" font-size="10.00">src/libs/vwidgets/pen</text>
<text text-anchor="middle" x="2227.5" y="-74.5" font-family="Helvetica,sans-Serif" font-size="10.00">_toolbar.cpp</text>
</a>
</g>
</g>
<!-- Node9&#45;&gt;Node36 -->
<g id="edge34" class="edge">
<title>Node9&#45;&gt;Node36</title>
<path fill="none" stroke="midnightblue" d="M2882.43,-138.65C2868.87,-136.95 2854.76,-135.3 2841.5,-134 2599.47,-110.24 2536.38,-131.45 2295.5,-98 2292.75,-97.62 2289.95,-97.19 2287.12,-96.72"/>
<polygon fill="midnightblue" stroke="midnightblue" points="2882.3,-142.17 2892.67,-139.97 2883.2,-135.22 2882.3,-142.17"/>
</g>
<!-- Node37 -->
<g id="node33" class="node">
<title>Node37</title>
<g id="a_node33"><a xlink:href="../../dd/df6/vabstractmainwindow_8cpp.html" target="_top" xlink:title=" ">
<polygon fill="white" stroke="black" points="2305,-73 2305,-92 2534,-92 2534,-73 2305,-73"/>
<text text-anchor="middle" x="2419.5" y="-80" font-family="Helvetica,sans-Serif" font-size="10.00">src/libs/vwidgets/vabstractmainwindow.cpp</text>
</a>
</g>
</g>
<!-- Node9&#45;&gt;Node37 -->
<g id="edge35" class="edge">
<title>Node9&#45;&gt;Node37</title>
<path fill="none" stroke="midnightblue" d="M2878.08,-138.67C2865.86,-137.08 2853.33,-135.48 2841.5,-134 2775.61,-125.75 2593.75,-104.14 2491.57,-92.03"/>
<polygon fill="midnightblue" stroke="midnightblue" points="2877.88,-142.17 2888.24,-139.99 2878.78,-135.23 2877.88,-142.17"/>
</g>
<!-- Node38 -->
<g id="node34" class="node">
<title>Node38</title>
<g id="a_node34"><a xlink:href="../../de/d45/vcontrolpointspline_8cpp.html" target="_top" xlink:title=" ">
<polygon fill="white" stroke="black" points="2552,-73 2552,-92 2767,-92 2767,-73 2552,-73"/>
<text text-anchor="middle" x="2659.5" y="-80" font-family="Helvetica,sans-Serif" font-size="10.00">src/libs/vwidgets/vcontrolpointspline.cpp</text>
</a>
</g>
</g>
<!-- Node9&#45;&gt;Node38 -->
<g id="edge36" class="edge">
<title>Node9&#45;&gt;Node38</title>
<path fill="none" stroke="midnightblue" d="M2903.92,-137.72C2846.23,-124.92 2751.16,-103.83 2698.19,-92.08"/>
<polygon fill="midnightblue" stroke="midnightblue" points="2903.37,-141.19 2913.89,-139.94 2904.89,-134.35 2903.37,-141.19"/>
</g>
<!-- Node39 -->
<g id="node35" class="node">
<title>Node39</title>
<g id="a_node35"><a xlink:href="../../d8/d76/scene__rect_8cpp.html" target="_top" xlink:title=" ">
<polygon fill="white" stroke="black" points="2785.5,-67.5 2785.5,-97.5 2915.5,-97.5 2915.5,-67.5 2785.5,-67.5"/>
<text text-anchor="start" x="2793.5" y="-85.5" font-family="Helvetica,sans-Serif" font-size="10.00">src/libs/vwidgets/scene</text>
<text text-anchor="middle" x="2850.5" y="-74.5" font-family="Helvetica,sans-Serif" font-size="10.00">_rect.cpp</text>
</a>
</g>
</g>
<!-- Node9&#45;&gt;Node39 -->
<g id="edge37" class="edge">
<title>Node9&#45;&gt;Node39</title>
<path fill="none" stroke="midnightblue" d="M2929.99,-134.15C2912.92,-123.27 2889.58,-108.4 2872.61,-97.59"/>
<polygon fill="midnightblue" stroke="midnightblue" points="2928.43,-137.31 2938.74,-139.73 2932.19,-131.41 2928.43,-137.31"/>
</g>
<!-- Node40 -->
<g id="node36" class="node">
<title>Node40</title>
<g id="a_node36"><a xlink:href="../../de/dec/vgraphicssimpletextitem_8cpp.html" target="_top" xlink:title=" ">
<polygon fill="white" stroke="black" points="2933.5,-73 2933.5,-92 3177.5,-92 3177.5,-73 2933.5,-73"/>
<text text-anchor="middle" x="3055.5" y="-80" font-family="Helvetica,sans-Serif" font-size="10.00">src/libs/vwidgets/vgraphicssimpletextitem.cpp</text>
</a>
</g>
</g>
<!-- Node9&#45;&gt;Node40 -->
<g id="edge38" class="edge">
<title>Node9&#45;&gt;Node40</title>
<path fill="none" stroke="midnightblue" d="M2975.05,-134.27C2995.44,-121.4 3024.79,-102.88 3041.83,-92.13"/>
<polygon fill="midnightblue" stroke="midnightblue" points="2972.98,-131.44 2966.39,-139.73 2976.72,-137.36 2972.98,-131.44"/>
</g>
<!-- Node9&#45;&gt;Node41 -->
<g id="edge39" class="edge">
<title>Node9&#45;&gt;Node41</title>
<path fill="none" stroke="midnightblue" d="M2867.09,-139.01C2846.31,-137.03 2824.13,-135.18 2803.5,-134 1893.3,-81.81 1661.51,-167.9 752.5,-98 735.18,-96.67 716.38,-94.38 699.48,-92"/>
<polygon fill="midnightblue" stroke="midnightblue" points="2866.88,-142.51 2877.17,-140 2867.56,-135.54 2866.88,-142.51"/>
</g>
<!-- Node9&#45;&gt;Node42 -->
<g id="edge40" class="edge">
<title>Node9&#45;&gt;Node42</title>
<path fill="none" stroke="midnightblue" d="M2886.63,-138.68C2871.81,-136.81 2856.14,-135.1 2841.5,-134 2021.86,-72.67 1812.43,-155.37 992.5,-98 973.14,-96.65 952.1,-94.38 933.13,-92.03"/>
<polygon fill="midnightblue" stroke="midnightblue" points="2886.36,-142.17 2896.72,-139.99 2887.26,-135.23 2886.36,-142.17"/>
</g>
<!-- Node43 -->
<g id="node39" class="node">
<title>Node43</title>
<g id="a_node39"><a xlink:href="../../d0/d5d/vscenepoint_8cpp.html" target="_top" xlink:title=" ">
<polygon fill="white" stroke="black" points="3196,-73 3196,-92 3377,-92 3377,-73 3196,-73"/>
<text text-anchor="middle" x="3286.5" y="-80" font-family="Helvetica,sans-Serif" font-size="10.00">src/libs/vwidgets/vscenepoint.cpp</text>
</a>
</g>
</g>
<!-- Node9&#45;&gt;Node43 -->
<g id="edge41" class="edge">
<title>Node9&#45;&gt;Node43</title>
<path fill="none" stroke="midnightblue" d="M3006.67,-137.96C3072.41,-125.16 3181.97,-103.84 3242.66,-92.03"/>
<polygon fill="midnightblue" stroke="midnightblue" points="3005.66,-134.59 2996.51,-139.94 3006.99,-141.46 3005.66,-134.59"/>
</g>
<!-- Node44 -->
<g id="node40" class="node">
<title>Node44</title>
<g id="a_node40"><a xlink:href="../../de/d22/vsimplecurve_8cpp.html" target="_top" xlink:title=" ">
<polygon fill="white" stroke="black" points="3395.5,-73 3395.5,-92 3583.5,-92 3583.5,-73 3395.5,-73"/>
<text text-anchor="middle" x="3489.5" y="-80" font-family="Helvetica,sans-Serif" font-size="10.00">src/libs/vwidgets/vsimplecurve.cpp</text>
</a>
</g>
</g>
<!-- Node9&#45;&gt;Node44 -->
<g id="edge42" class="edge">
<title>Node9&#45;&gt;Node44</title>
<path fill="none" stroke="midnightblue" d="M3026.45,-138.64C3038.81,-137.05 3051.52,-135.45 3063.5,-134 3206.9,-116.64 3243.19,-116.07 3386.5,-98 3400.92,-96.18 3416.46,-94.07 3430.98,-92.04"/>
<polygon fill="midnightblue" stroke="midnightblue" points="3025.63,-135.22 3016.16,-139.97 3026.53,-142.16 3025.63,-135.22"/>
</g>
<!-- Node9&#45;&gt;Node45 -->
<g id="edge43" class="edge">
<title>Node9&#45;&gt;Node45</title>
<path fill="none" stroke="midnightblue" d="M3060.5,-144.3C3146.81,-141.07 3270.9,-136.72 3379.5,-134 4372.21,-109.15 4622.89,-167.17 5613.5,-98 5632.49,-96.67 5653.12,-94.4 5671.7,-92.04"/>
<polygon fill="midnightblue" stroke="midnightblue" points="3060.29,-140.81 3050.43,-144.68 3060.55,-147.8 3060.29,-140.81"/>
</g>
<!-- Node46 -->
<g id="node42" class="node">
<title>Node46</title>
<g id="a_node42"><a xlink:href="../../df/d38/vsimplepoint_8cpp.html" target="_top" xlink:title=" ">
<polygon fill="white" stroke="black" points="3602,-73 3602,-92 3787,-92 3787,-73 3602,-73"/>
<text text-anchor="middle" x="3694.5" y="-80" font-family="Helvetica,sans-Serif" font-size="10.00">src/libs/vwidgets/vsimplepoint.cpp</text>
</a>
</g>
</g>
<!-- Node9&#45;&gt;Node46 -->
<g id="edge44" class="edge">
<title>Node9&#45;&gt;Node46</title>
<path fill="none" stroke="midnightblue" d="M3022.57,-138.68C3036.13,-136.97 3050.25,-135.32 3063.5,-134 3298,-110.73 3358.13,-122.6 3592.5,-98 3607.89,-96.38 3624.52,-94.21 3639.8,-92.03"/>
<polygon fill="midnightblue" stroke="midnightblue" points="3021.81,-135.25 3012.33,-139.99 3022.7,-142.19 3021.81,-135.25"/>
</g>
<!-- Node9&#45;&gt;Node47 -->
<g id="edge45" class="edge">
<title>Node9&#45;&gt;Node47</title>
<path fill="none" stroke="midnightblue" d="M3037.91,-139.01C3058.69,-137.02 3080.87,-135.18 3101.5,-134 4028.12,-81.01 4263.76,-164.65 5189.5,-98 5208.01,-96.67 5228.11,-94.39 5246.21,-92.03"/>
<polygon fill="midnightblue" stroke="midnightblue" points="3037.44,-135.54 3027.83,-139.99 3038.12,-142.5 3037.44,-135.54"/>
</g>
<!-- Node17&#45;&gt;Node18 -->
<g id="edge15" class="edge">
<title>Node17&#45;&gt;Node18</title>
<path fill="none" stroke="midnightblue" d="M4400.78,-58.87C4406.71,-49.46 4413.41,-38.83 4418.62,-30.58"/>
<polygon fill="midnightblue" stroke="midnightblue" points="4397.77,-57.07 4395.4,-67.4 4403.69,-60.81 4397.77,-57.07"/>
</g>
<!-- Node30 -->
<g id="node26" class="node">
<title>Node30</title>
<g id="a_node26"><a xlink:href="../../d8/dba/vpiecenode_8cpp.html" target="_top" xlink:title=" ">
<polygon fill="white" stroke="black" points="125,-0.5 125,-30.5 232,-30.5 232,-0.5 125,-0.5"/>
<text text-anchor="start" x="133" y="-18.5" font-family="Helvetica,sans-Serif" font-size="10.00">src/libs/vpatterndb</text>
<text text-anchor="middle" x="178.5" y="-7.5" font-family="Helvetica,sans-Serif" font-size="10.00">/vpiecenode.cpp</text>
</a>
</g>
</g>
<!-- Node29&#45;&gt;Node30 -->
<g id="edge28" class="edge">
<title>Node29&#45;&gt;Node30</title>
<path fill="none" stroke="midnightblue" d="M178.5,-57.11C178.5,-48.15 178.5,-38.32 178.5,-30.58"/>
<polygon fill="midnightblue" stroke="midnightblue" points="175,-57.4 178.5,-67.4 182,-57.4 175,-57.4"/>
</g>
<!-- Node49 -->
<g id="node45" class="node">
<title>Node49</title>
<g id="a_node45"><a xlink:href="../../df/dba/vseamlymesettings_8cpp.html" target="_top" xlink:title=" ">
<polygon fill="white" stroke="black" points="3388,-140 3388,-159 3591,-159 3591,-140 3388,-140"/>
<text text-anchor="middle" x="3489.5" y="-147" font-family="Helvetica,sans-Serif" font-size="10.00">src/libs/vmisc/vseamlymesettings.cpp</text>
</a>
</g>
</g>
<!-- Node48&#45;&gt;Node49 -->
<g id="edge47" class="edge">
<title>Node48&#45;&gt;Node49</title>
<path fill="none" stroke="midnightblue" d="M3489.5,-191.32C3489.5,-180.5 3489.5,-167.4 3489.5,-159.01"/>
<polygon fill="midnightblue" stroke="midnightblue" points="3486,-191.48 3489.5,-201.48 3493,-191.48 3486,-191.48"/>
</g>
<!-- Node50&#45;&gt;Node9 -->
<g id="edge52" class="edge">
<title>Node50&#45;&gt;Node9</title>
<path fill="none" stroke="midnightblue" d="M4985.09,-208.06C4742.63,-202.17 3997.32,-183.73 3379.5,-165 3266.44,-161.57 3136.55,-157.08 3050.01,-154.01"/>
<polygon fill="midnightblue" stroke="midnightblue" points="4985.15,-211.56 4995.23,-208.31 4985.32,-204.57 4985.15,-211.56"/>
</g>
<!-- Node50&#45;&gt;Node45 -->
<g id="edge54" class="edge">
<title>Node50&#45;&gt;Node45</title>
<path fill="none" stroke="midnightblue" d="M5120.45,-199.55C5249.06,-175.08 5567.68,-114.47 5685.64,-92.03"/>
<polygon fill="midnightblue" stroke="midnightblue" points="5119.59,-196.15 5110.42,-201.45 5120.9,-203.02 5119.59,-196.15"/>
</g>
<!-- Node51 -->
<g id="node47" class="node">
<title>Node51</title>
<g id="a_node47"><a xlink:href="../../d9/d02/vapplication_8h.html" target="_top" xlink:title=" ">
<polygon fill="white" stroke="red" points="5771,-134.5 5771,-164.5 5898,-164.5 5898,-134.5 5771,-134.5"/>
<text text-anchor="start" x="5779" y="-152.5" font-family="Helvetica,sans-Serif" font-size="10.00">src/app/seamly2d/core</text>
<text text-anchor="middle" x="5834.5" y="-141.5" font-family="Helvetica,sans-Serif" font-size="10.00">/vapplication.h</text>
</a>
</g>
</g>
<!-- Node50&#45;&gt;Node51 -->
<g id="edge49" class="edge">
<title>Node50&#45;&gt;Node51</title>
<path fill="none" stroke="midnightblue" d="M5146.09,-203.76C5299.72,-191.88 5631.62,-166.2 5770.92,-155.42"/>
<polygon fill="midnightblue" stroke="midnightblue" points="5145.48,-200.3 5135.78,-204.56 5146.02,-207.28 5145.48,-200.3"/>
</g>
<!-- Node74 -->
<g id="node50" class="node">
<title>Node74</title>
<g id="a_node50"><a xlink:href="../../db/d28/vsettings_8cpp.html" target="_top" xlink:title=" ">
<polygon fill="white" stroke="black" points="5916.5,-140 5916.5,-159 6068.5,-159 6068.5,-140 5916.5,-140"/>
<text text-anchor="middle" x="5992.5" y="-147" font-family="Helvetica,sans-Serif" font-size="10.00">src/libs/vmisc/vsettings.cpp</text>
</a>
</g>
</g>
<!-- Node50&#45;&gt;Node74 -->
<g id="edge53" class="edge">
<title>Node50&#45;&gt;Node74</title>
<path fill="none" stroke="midnightblue" d="M5145.63,-208.8C5295.61,-205.86 5628.75,-196.12 5907.5,-165 5920.74,-163.52 5935.05,-161.32 5948.08,-159.07"/>
<polygon fill="midnightblue" stroke="midnightblue" points="5145.52,-205.3 5135.58,-208.99 5145.65,-212.3 5145.52,-205.3"/>
</g>
<!-- Node52 -->
<g id="node48" class="node">
<title>Node52</title>
<g id="a_node48"><a xlink:href="../../d3/dd8/vapplication_8cpp.html" target="_top" xlink:title=" ">
<polygon fill="white" stroke="black" points="6021,-67.5 6021,-97.5 6148,-97.5 6148,-67.5 6021,-67.5"/>
<text text-anchor="start" x="6029" y="-85.5" font-family="Helvetica,sans-Serif" font-size="10.00">src/app/seamly2d/core</text>
<text text-anchor="middle" x="6084.5" y="-74.5" font-family="Helvetica,sans-Serif" font-size="10.00">/vapplication.cpp</text>
</a>
</g>
</g>
<!-- Node51&#45;&gt;Node52 -->
<g id="edge50" class="edge">
<title>Node51&#45;&gt;Node52</title>
<path fill="none" stroke="midnightblue" d="M5898.28,-131.92C5939.08,-121.31 5991.43,-107.7 6030.23,-97.61"/>
<polygon fill="midnightblue" stroke="midnightblue" points="5897.24,-128.57 5888.44,-134.48 5899,-135.35 5897.24,-128.57"/>
</g>
<!-- Node53 -->
<g id="node49" class="node">
<title>Node53</title>
<g id="a_node49"><a xlink:href="../../dd/db4/abstractlayout__dialog_8cpp.html" target="_top" xlink:title=" ">
<polygon fill="white" stroke="black" points="5856.5,-67.5 5856.5,-97.5 6002.5,-97.5 6002.5,-67.5 5856.5,-67.5"/>
<text text-anchor="start" x="5864.5" y="-85.5" font-family="Helvetica,sans-Serif" font-size="10.00">src/app/seamly2d/dialogs</text>
<text text-anchor="middle" x="5929.5" y="-74.5" font-family="Helvetica,sans-Serif" font-size="10.00">/abstractlayout_dialog.cpp</text>
</a>
</g>
</g>
<!-- Node51&#45;&gt;Node53 -->
<g id="edge51" class="edge">
<title>Node51&#45;&gt;Node53</title>
<path fill="none" stroke="midnightblue" d="M5863.39,-128.73C5878.09,-118.68 5895.61,-106.68 5908.93,-97.58"/>
<polygon fill="midnightblue" stroke="midnightblue" points="5861.39,-125.86 5855.11,-134.4 5865.34,-131.64 5861.39,-125.86"/>
</g>
</g>
</svg>
