<?xml version="1.0" encoding="UTF-8" standalone="no"?>
<!DOCTYPE svg PUBLIC "-//W3C//DTD SVG 1.1//EN"
 "http://www.w3.org/Graphics/SVG/1.1/DTD/svg11.dtd">
<!-- Generated by graphviz version 2.43.0 (0)
 -->
<!-- Title: VPieceItem Pages: 1 -->
<svg width="115pt" height="352pt"
 viewBox="0.00 0.00 115.00 352.00" xmlns="http://www.w3.org/2000/svg" xmlns:xlink="http://www.w3.org/1999/xlink">

<svg id="main" version="1.1" xmlns="http://www.w3.org/2000/svg" xmlns:xlink="http://www.w3.org/1999/xlink" xml:space="preserve" onload="init(evt)">
<style type="text/css"><![CDATA[
.node, .edge {opacity: 0.7;}
.node.selected, .edge.selected {opacity: 1;}
.edge:hover path { stroke: red; }
.edge:hover polygon { stroke: red; fill: red; }
]]></style>
<script type="application/ecmascript" xlink:href="../../svg.min.js"/>
<svg id="graph" class="graph">
<g id="graph0" class="graph" transform="scale(1 1) rotate(0) translate(4 348)">
<title>VPieceItem</title>
<!-- Node1 -->
<g id="Node000001" class="node">
<title>Node1</title>
<g id="a_Node000001"><a xlink:title=" ">
<polygon fill="#999999" stroke="transparent" points="107,-259 0,-259 0,0 107,0 107,-259"/>
<text text-anchor="start" x="26" y="-246.5" font-family="Helvetica,sans-Serif" font-size="10.00">VPieceItem</text>
<text text-anchor="start" x="4.5" y="-231.5" font-family="Helvetica,sans-Serif" font-size="10.00">#</text>
<text text-anchor="start" x="17.5" y="-231.5" font-family="Helvetica,sans-Serif" font-size="10.00">m_boundingRect</text>
<text text-anchor="start" x="4.5" y="-216.5" font-family="Helvetica,sans-Serif" font-size="10.00">#</text>
<text text-anchor="start" x="17.5" y="-216.5" font-family="Helvetica,sans-Serif" font-size="10.00">m_mode</text>
<text text-anchor="start" x="4.5" y="-201.5" font-family="Helvetica,sans-Serif" font-size="10.00">#</text>
<text text-anchor="start" x="17.5" y="-201.5" font-family="Helvetica,sans-Serif" font-size="10.00">m_isReleased</text>
<text text-anchor="start" x="4.5" y="-186.5" font-family="Helvetica,sans-Serif" font-size="10.00">#</text>
<text text-anchor="start" x="17.5" y="-186.5" font-family="Helvetica,sans-Serif" font-size="10.00">m_rotationCenter</text>
<text text-anchor="start" x="4.5" y="-171.5" font-family="Helvetica,sans-Serif" font-size="10.00">#</text>
<text text-anchor="start" x="17.5" y="-171.5" font-family="Helvetica,sans-Serif" font-size="10.00">m_moveType</text>
<text text-anchor="start" x="4.5" y="-156.5" font-family="Helvetica,sans-Serif" font-size="10.00">#</text>
<text text-anchor="start" x="17.5" y="-156.5" font-family="Helvetica,sans-Serif" font-size="10.00">m_inactiveZ</text>
<text text-anchor="start" x="4.5" y="-141.5" font-family="Helvetica,sans-Serif" font-size="10.00">+</text>
<text text-anchor="start" x="17.5" y="-141.5" font-family="Helvetica,sans-Serif" font-size="10.00">VPieceItem()</text>
<text text-anchor="start" x="4.5" y="-126.5" font-family="Helvetica,sans-Serif" font-size="10.00">+</text>
<text text-anchor="start" x="17.5" y="-126.5" font-family="Helvetica,sans-Serif" font-size="10.00">~VPieceItem()</text>
<text text-anchor="start" x="4.5" y="-111.5" font-family="Helvetica,sans-Serif" font-size="10.00">+</text>
<text text-anchor="start" x="17.5" y="-111.5" font-family="Helvetica,sans-Serif" font-size="10.00">boundingRect()</text>
<text text-anchor="start" x="4.5" y="-96.5" font-family="Helvetica,sans-Serif" font-size="10.00">+</text>
<text text-anchor="start" x="17.5" y="-96.5" font-family="Helvetica,sans-Serif" font-size="10.00">updateItem()</text>
<text text-anchor="start" x="4.5" y="-81.5" font-family="Helvetica,sans-Serif" font-size="10.00">+</text>
<text text-anchor="start" x="17.5" y="-81.5" font-family="Helvetica,sans-Serif" font-size="10.00">reset()</text>
<text text-anchor="start" x="4.5" y="-66.5" font-family="Helvetica,sans-Serif" font-size="10.00">+</text>
<text text-anchor="start" x="17.5" y="-66.5" font-family="Helvetica,sans-Serif" font-size="10.00">isIdle()</text>
<text text-anchor="start" x="4.5" y="-51.5" font-family="Helvetica,sans-Serif" font-size="10.00">+</text>
<text text-anchor="start" x="17.5" y="-51.5" font-family="Helvetica,sans-Serif" font-size="10.00">getMoveType()</text>
<text text-anchor="start" x="4.5" y="-36.5" font-family="Helvetica,sans-Serif" font-size="10.00">+</text>
<text text-anchor="start" x="17.5" y="-36.5" font-family="Helvetica,sans-Serif" font-size="10.00">setMoveType()</text>
<text text-anchor="start" x="4.5" y="-21.5" font-family="Helvetica,sans-Serif" font-size="10.00">+</text>
<text text-anchor="start" x="17.5" y="-21.5" font-family="Helvetica,sans-Serif" font-size="10.00">type()</text>
<text text-anchor="start" x="4.5" y="-6.5" font-family="Helvetica,sans-Serif" font-size="10.00">#</text>
<text text-anchor="start" x="17.5" y="-6.5" font-family="Helvetica,sans-Serif" font-size="10.00">GetAngle()</text>
<polygon fill="#666666" stroke="#666666" points="0.5,-241.5 0.5,-241.5 107.5,-241.5 107.5,-241.5 0.5,-241.5"/>
<polygon fill="#666666" stroke="#666666" points="0.5,-151.5 0.5,-151.5 15.5,-151.5 15.5,-151.5 0.5,-151.5"/>
<polygon fill="#666666" stroke="#666666" points="15.5,-151.5 15.5,-151.5 107.5,-151.5 107.5,-151.5 15.5,-151.5"/>
<polygon fill="none" stroke="#666666" points="0,0 0,-259 107,-259 107,0 0,0"/>
</a>
</g>
</g>
<!-- Node2 -->
<g id="Node000002" class="node">
<title>Node2</title>
<g id="a_Node000002"><a xlink:title=" ">
<polygon fill="white" stroke="transparent" points="99.5,-344 7.5,-344 7.5,-295 99.5,-295 99.5,-344"/>
<text text-anchor="start" x="12.5" y="-331.5" font-family="Helvetica,sans-Serif" font-size="10.00">QGraphicsObject</text>
<text text-anchor="start" x="51.5" y="-316.5" font-family="Helvetica,sans-Serif" font-size="10.00"> </text>
<text text-anchor="start" x="51.5" y="-301.5" font-family="Helvetica,sans-Serif" font-size="10.00"> </text>
<polygon fill="#666666" stroke="#666666" points="7.5,-326.5 7.5,-326.5 99.5,-326.5 99.5,-326.5 7.5,-326.5"/>
<polygon fill="#666666" stroke="#666666" points="7.5,-311.5 7.5,-311.5 99.5,-311.5 99.5,-311.5 7.5,-311.5"/>
<polygon fill="none" stroke="#666666" points="7.5,-295 7.5,-344 99.5,-344 99.5,-295 7.5,-295"/>
</a>
</g>
</g>
<!-- Node2&#45;&gt;Node1 -->
<g id="edge1_Node000001_Node000002" class="edge">
<title>Node2&#45;&gt;Node1</title>
<g id="a_edge1_Node000001_Node000002"><a xlink:title=" ">
<path fill="none" stroke="#63b8ff" d="M53.5,-284.5C53.5,-276.83 53.5,-268.24 53.5,-259.15"/>
<polygon fill="none" stroke="#63b8ff" points="50,-284.69 53.5,-294.69 57,-284.69 50,-284.69"/>
</a>
</g>
</g>
</g>
</svg>
</svg>

<style type='text/css'>
<![CDATA[
[data-mouse-over-selected='false'] { opacity: 0.7; }
[data-mouse-over-selected='true']  { opacity: 1.0; }
]]>
</style>
<script type="application/ecmascript"><![CDATA[
document.addEventListener('DOMContentLoaded', (event) => {
  highlightEdges();
  highlightAdjacentNodes();
});
]]></script>
</svg>
