<?xml version="1.0" encoding="UTF-8" standalone="no"?>
<!DOCTYPE svg PUBLIC "-//W3C//DTD SVG 1.1//EN"
 "http://www.w3.org/Graphics/SVG/1.1/DTD/svg11.dtd">
<!-- Generated by graphviz version 2.43.0 (0)
 -->
<!-- Title: src/libs/vwidgets/vabstractsimple.h Pages: 1 -->
<!--zoomable 247 -->

<svg id="main" version="1.1" xmlns="http://www.w3.org/2000/svg" xmlns:xlink="http://www.w3.org/1999/xlink" xml:space="preserve" onload="init(evt)">
<style type="text/css"><![CDATA[
.node, .edge {opacity: 0.7;}
.node.selected, .edge.selected {opacity: 1;}
.edge:hover path { stroke: red; }
.edge:hover polygon { stroke: red; fill: red; }
]]></style>

<defs>
  <circle id="rim" cx="0" cy="0" r="7"/>
  <circle id="rim2" cx="0" cy="0" r="3.5"/>
  <g id="zoomPlus">
    <use xlink:href="#rim" fill="#404040"><set attributeName="fill" to="#808080" begin="zoomplus.mouseover" end="zoomplus.mouseout"/></use>
    <path d="M-4,0h8M0,-4v8" fill="none" stroke="white" stroke-width="1.5" pointer-events="none"/>
  </g>
  <g id="zoomMin">
    <use xlink:href="#rim" fill="#404040"><set attributeName="fill" to="#808080" begin="zoomminus.mouseover" end="zoomminus.mouseout"/></use>
    <path d="M-4,0h8" fill="none" stroke="white" stroke-width="1.5" pointer-events="none"/>
  </g>
  <g id="arrowUp" transform="translate(30 24)">
    <use xlink:href="#rim"/>
    <path pointer-events="none" fill="none" stroke="white" stroke-width="1.5" d="M0,-3.0v7 M-2.5,-0.5L0,-3.0L2.5,-0.5"/>
  </g>
  <g id="arrowRight" transform="rotate(90) translate(36 -43)">
    <use xlink:href="#rim"/>
    <path pointer-events="none" fill="none" stroke="white" stroke-width="1.5" d="M0,-3.0v7 M-2.5,-0.5L0,-3.0L2.5,-0.5"/>
  </g>
  <g id="arrowDown" transform="rotate(180) translate(-30 -48)">
    <use xlink:href="#rim"/>
    <path pointer-events="none" fill="none" stroke="white" stroke-width="1.5" d="M0,-3.0v7 M-2.5,-0.5L0,-3.0L2.5,-0.5"/>
  </g>
  <g id="arrowLeft" transform="rotate(270) translate(-36 17)">
    <use xlink:href="#rim"/>
    <path pointer-events="none" fill="none" stroke="white" stroke-width="1.5" d="M0,-3.0v7 M-2.5,-0.5L0,-3.0L2.5,-0.5"/>
  </g>
  <g id="resetDef">
    <use xlink:href="#rim2" fill="#404040"><set attributeName="fill" to="#808080" begin="reset.mouseover" end="reset.mouseout"/></use>
  </g>
</defs>
<script type="application/ecmascript">
var viewWidth = 1140;
var viewHeight = 247;
var sectionId = 'dynsection-0';
</script>
<script type="application/ecmascript" xlink:href="../../svg.min.js"/>
<svg id="graph" class="graph">
<g id="viewport">
<title>src/libs/vwidgets/vabstractsimple.h</title>
<!-- Node1 -->
<g id="Node000001" class="node">
<title>Node1</title>
<g id="a_Node000001"><a xlink:title=" ">
<polygon fill="#999999" stroke="#666666" points="423.5,-239 234.5,-239 234.5,-220 423.5,-220 423.5,-239"/>
<text text-anchor="middle" x="329" y="-227" font-family="Helvetica,sans-Serif" font-size="10.00">src/libs/vwidgets/vabstractsimple.h</text>
</a>
</g>
</g>
<!-- Node2 -->
<g id="Node000002" class="node">
<title>Node2</title>
<g id="a_Node000002"><a xlink:title=" ">
<polygon fill="#e0e0e0" stroke="#999999" points="50,-184 0,-184 0,-165 50,-165 50,-184"/>
<text text-anchor="middle" x="25" y="-172" font-family="Helvetica,sans-Serif" font-size="10.00">QColor</text>
</a>
</g>
</g>
<!-- Node1&#45;&gt;Node2 -->
<g id="edge1_Node000001_Node000002" class="edge">
<title>Node1&#45;&gt;Node2</title>
<g id="a_edge1_Node000001_Node000002"><a xlink:title=" ">
<path fill="none" stroke="#63b8ff" d="M268.42,-219.96C215.78,-212.21 137.29,-199.87 60.09,-184.09"/>
<polygon fill="#63b8ff" stroke="#63b8ff" points="60.7,-180.64 50.2,-182.04 59.28,-187.49 60.7,-180.64"/>
</a>
</g>
</g>
<!-- Node3 -->
<g id="Node000003" class="node">
<title>Node3</title>
<g id="a_Node000003"><a xlink:title=" ">
<polygon fill="#e0e0e0" stroke="#999999" points="148,-184 68,-184 68,-165 148,-165 148,-184"/>
<text text-anchor="middle" x="108" y="-172" font-family="Helvetica,sans-Serif" font-size="10.00">QMetaObject</text>
</a>
</g>
</g>
<!-- Node1&#45;&gt;Node3 -->
<g id="edge2_Node000001_Node000003" class="edge">
<title>Node1&#45;&gt;Node3</title>
<g id="a_edge2_Node000001_Node000003"><a xlink:title=" ">
<path fill="none" stroke="#63b8ff" d="M293.49,-219.98C255.51,-210.87 195.13,-196.4 153.64,-186.45"/>
<polygon fill="#63b8ff" stroke="#63b8ff" points="154.33,-183.01 143.79,-184.08 152.69,-189.82 154.33,-183.01"/>
</a>
</g>
</g>
<!-- Node4 -->
<g id="Node000004" class="node">
<title>Node4</title>
<g id="a_Node000004"><a xlink:title=" ">
<polygon fill="#e0e0e0" stroke="#999999" points="222,-184 166,-184 166,-165 222,-165 222,-184"/>
<text text-anchor="middle" x="194" y="-172" font-family="Helvetica,sans-Serif" font-size="10.00">QObject</text>
</a>
</g>
</g>
<!-- Node1&#45;&gt;Node4 -->
<g id="edge3_Node000001_Node000004" class="edge">
<title>Node1&#45;&gt;Node4</title>
<g id="a_edge3_Node000001_Node000004"><a xlink:title=" ">
<path fill="none" stroke="#63b8ff" d="M307.31,-219.98C285.2,-211.3 250.68,-197.75 225.55,-187.88"/>
<polygon fill="#63b8ff" stroke="#63b8ff" points="226.67,-184.57 216.08,-184.17 224.11,-191.08 226.67,-184.57"/>
</a>
</g>
</g>
<!-- Node5 -->
<g id="Node000005" class="node">
<title>Node5</title>
<g id="a_Node000005"><a xlink:title=" ">
<polygon fill="#e0e0e0" stroke="#999999" points="282,-184 240,-184 240,-165 282,-165 282,-184"/>
<text text-anchor="middle" x="261" y="-172" font-family="Helvetica,sans-Serif" font-size="10.00">QPen</text>
</a>
</g>
</g>
<!-- Node1&#45;&gt;Node5 -->
<g id="edge4_Node000001_Node000005" class="edge">
<title>Node1&#45;&gt;Node5</title>
<g id="a_edge4_Node000001_Node000005"><a xlink:title=" ">
<path fill="none" stroke="#63b8ff" d="M318.07,-219.98C307.92,-212.07 292.58,-200.11 280.35,-190.58"/>
<polygon fill="#63b8ff" stroke="#63b8ff" points="282.16,-187.56 272.12,-184.17 277.86,-193.08 282.16,-187.56"/>
</a>
</g>
</g>
<!-- Node6 -->
<g id="Node000006" class="node">
<title>Node6</title>
<g id="a_Node000006"><a xlink:title=" ">
<polygon fill="#e0e0e0" stroke="#999999" points="452.5,-74 399.5,-74 399.5,-55 452.5,-55 452.5,-74"/>
<text text-anchor="middle" x="426" y="-62" font-family="Helvetica,sans-Serif" font-size="10.00">QString</text>
</a>
</g>
</g>
<!-- Node1&#45;&gt;Node6 -->
<g id="edge5_Node000001_Node000006" class="edge">
<title>Node1&#45;&gt;Node6</title>
<g id="a_edge5_Node000001_Node000006"><a xlink:title=" ">
<path fill="none" stroke="#63b8ff" d="M329.95,-219.96C332.59,-199.32 341.61,-145.76 367,-110 375.82,-97.58 389.15,-87.11 400.91,-79.45"/>
<polygon fill="#63b8ff" stroke="#63b8ff" points="402.82,-82.38 409.5,-74.15 399.15,-76.42 402.82,-82.38"/>
</a>
</g>
</g>
<!-- Node7 -->
<g id="Node000007" class="node">
<title>Node7</title>
<g id="a_Node000007"><a xlink:title=" ">
<polygon fill="#e0e0e0" stroke="#999999" points="588.5,-74 559.5,-74 559.5,-55 588.5,-55 588.5,-74"/>
<text text-anchor="middle" x="574" y="-62" font-family="Helvetica,sans-Serif" font-size="10.00">Qt</text>
</a>
</g>
</g>
<!-- Node1&#45;&gt;Node7 -->
<g id="edge6_Node000001_Node000007" class="edge">
<title>Node1&#45;&gt;Node7</title>
<g id="a_edge6_Node000001_Node000007"><a xlink:title=" ">
<path fill="none" stroke="#63b8ff" d="M423.63,-223.95C458.48,-218.18 496.39,-206.61 525,-184 556.34,-159.23 567.82,-110.96 571.88,-84.31"/>
<polygon fill="#63b8ff" stroke="#63b8ff" points="575.4,-84.41 573.24,-74.04 568.46,-83.5 575.4,-84.41"/>
</a>
</g>
</g>
<!-- Node8 -->
<g id="Node000008" class="node">
<title>Node8</title>
<g id="a_Node000008"><a xlink:title=" ">
<polygon fill="#e0e0e0" stroke="#999999" points="360.5,-74 301.5,-74 301.5,-55 360.5,-55 360.5,-74"/>
<text text-anchor="middle" x="331" y="-62" font-family="Helvetica,sans-Serif" font-size="10.00">QtGlobal</text>
</a>
</g>
</g>
<!-- Node1&#45;&gt;Node8 -->
<g id="edge7_Node000001_Node000008" class="edge">
<title>Node1&#45;&gt;Node8</title>
<g id="a_edge7_Node000001_Node000008"><a xlink:title=" ">
<path fill="none" stroke="#63b8ff" d="M329.11,-219.74C329.42,-194.31 330.33,-120.08 330.76,-84.69"/>
<polygon fill="#63b8ff" stroke="#63b8ff" points="334.27,-84.35 330.89,-74.31 327.27,-84.26 334.27,-84.35"/>
</a>
</g>
</g>
<!-- Node9 -->
<g id="Node000009" class="node">
<title>Node9</title>
<g id="a_Node000009"><a xlink:href="../../d3/da5/ifcdef_8h.html" target="_top" xlink:title=" ">
<polygon fill="white" stroke="#666666" points="516.5,-184 439.5,-184 439.5,-165 516.5,-165 516.5,-184"/>
<text text-anchor="middle" x="478" y="-172" font-family="Helvetica,sans-Serif" font-size="10.00">../ifc/ifcdef.h</text>
</a>
</g>
</g>
<!-- Node1&#45;&gt;Node9 -->
<g id="edge8_Node000001_Node000009" class="edge">
<title>Node1&#45;&gt;Node9</title>
<g id="a_edge8_Node000001_Node000009"><a xlink:title=" ">
<path fill="none" stroke="#63b8ff" d="M352.94,-219.98C377.56,-211.23 416.12,-197.51 443.92,-187.62"/>
<polygon fill="#63b8ff" stroke="#63b8ff" points="445.38,-190.82 453.62,-184.17 443.03,-184.22 445.38,-190.82"/>
</a>
</g>
</g>
<!-- Node11 -->
<g id="Node000011" class="node">
<title>Node11</title>
<g id="a_Node000011"><a xlink:href="../../d4/da4/def_8h.html" target="_top" xlink:title=" ">
<polygon fill="white" stroke="#666666" points="708,-129 626,-129 626,-110 708,-110 708,-129"/>
<text text-anchor="middle" x="667" y="-117" font-family="Helvetica,sans-Serif" font-size="10.00">../vmisc/def.h</text>
</a>
</g>
</g>
<!-- Node1&#45;&gt;Node11 -->
<g id="edge27_Node000001_Node000011" class="edge">
<title>Node1&#45;&gt;Node11</title>
<g id="a_edge27_Node000001_Node000011"><a xlink:title=" ">
<path fill="none" stroke="#63b8ff" d="M423.62,-220.63C492.97,-213.57 580.31,-201.58 612,-184 631.46,-173.2 647.26,-152.72 656.85,-137.93"/>
<polygon fill="#63b8ff" stroke="#63b8ff" points="659.97,-139.55 662.23,-129.2 654.01,-135.87 659.97,-139.55"/>
</a>
</g>
</g>
<!-- Node20 -->
<g id="Node000020" class="node">
<title>Node20</title>
<g id="a_Node000020"><a xlink:href="../../d5/d9d/vgeometrydef_8h.html" target="_top" xlink:title=" ">
<polygon fill="white" stroke="#666666" points="822.5,-184 663.5,-184 663.5,-165 822.5,-165 822.5,-184"/>
<text text-anchor="middle" x="743" y="-172" font-family="Helvetica,sans-Serif" font-size="10.00">../vgeometry/vgeometrydef.h</text>
</a>
</g>
</g>
<!-- Node1&#45;&gt;Node20 -->
<g id="edge26_Node000001_Node000020" class="edge">
<title>Node1&#45;&gt;Node20</title>
<g id="a_edge26_Node000001_Node000020"><a xlink:title=" ">
<path fill="none" stroke="#63b8ff" d="M395.52,-219.98C469.34,-210.53 588.31,-195.3 666.09,-185.35"/>
<polygon fill="#63b8ff" stroke="#63b8ff" points="666.83,-188.78 676.31,-184.04 665.94,-181.84 666.83,-188.78"/>
</a>
</g>
</g>
<!-- Node9&#45;&gt;Node6 -->
<g id="edge9_Node000009_Node000006" class="edge">
<title>Node9&#45;&gt;Node6</title>
<g id="a_edge9_Node000009_Node000006"><a xlink:title=" ">
<path fill="none" stroke="#63b8ff" d="M485.88,-164.9C496.4,-152.32 512.55,-128.4 502,-110 493.31,-94.84 477.23,-84.35 462.1,-77.38"/>
<polygon fill="#63b8ff" stroke="#63b8ff" points="463.44,-74.15 452.87,-73.48 460.72,-80.59 463.44,-74.15"/>
</a>
</g>
</g>
<!-- Node9&#45;&gt;Node8 -->
<g id="edge11_Node000009_Node000008" class="edge">
<title>Node9&#45;&gt;Node8</title>
<g id="a_edge11_Node000009_Node000008"><a xlink:title=" ">
<path fill="none" stroke="#63b8ff" d="M439.63,-164.99C416.5,-158.3 387.64,-147.03 367,-129 353.01,-116.77 343.23,-97.72 337.44,-83.67"/>
<polygon fill="#63b8ff" stroke="#63b8ff" points="340.62,-82.19 333.77,-74.1 334.08,-84.69 340.62,-82.19"/>
</a>
</g>
</g>
<!-- Node10 -->
<g id="Node000010" class="node">
<title>Node10</title>
<g id="a_Node000010"><a xlink:title=" ">
<polygon fill="#e0e0e0" stroke="#999999" points="541,-74 471,-74 471,-55 541,-55 541,-74"/>
<text text-anchor="middle" x="506" y="-62" font-family="Helvetica,sans-Serif" font-size="10.00">QStringList</text>
</a>
</g>
</g>
<!-- Node9&#45;&gt;Node10 -->
<g id="edge10_Node000009_Node000010" class="edge">
<title>Node9&#45;&gt;Node10</title>
<g id="a_edge10_Node000009_Node000010"><a xlink:title=" ">
<path fill="none" stroke="#63b8ff" d="M496.67,-164.97C510.33,-157.59 527.86,-145.5 536,-129 543.87,-113.03 533.01,-94.62 522.21,-81.75"/>
<polygon fill="#63b8ff" stroke="#63b8ff" points="524.65,-79.22 515.33,-74.17 519.46,-83.93 524.65,-79.22"/>
</a>
</g>
</g>
<!-- Node9&#45;&gt;Node11 -->
<g id="edge12_Node000009_Node000011" class="edge">
<title>Node9&#45;&gt;Node11</title>
<g id="a_edge12_Node000009_Node000011"><a xlink:title=" ">
<path fill="none" stroke="#63b8ff" d="M508.37,-164.98C540.37,-156.01 590.96,-141.82 626.38,-131.89"/>
<polygon fill="#63b8ff" stroke="#63b8ff" points="627.71,-135.15 636.4,-129.08 625.82,-128.41 627.71,-135.15"/>
</a>
</g>
</g>
<!-- Node19 -->
<g id="Node000019" class="node">
<title>Node19</title>
<g id="a_Node000019"><a xlink:href="../../d6/dcd/diagnostic_8h.html" target="_top" xlink:title=" ">
<polygon fill="white" stroke="#666666" points="493.5,-129 376.5,-129 376.5,-110 493.5,-110 493.5,-129"/>
<text text-anchor="middle" x="435" y="-117" font-family="Helvetica,sans-Serif" font-size="10.00">../vmisc/diagnostic.h</text>
</a>
</g>
</g>
<!-- Node9&#45;&gt;Node19 -->
<g id="edge24_Node000009_Node000019" class="edge">
<title>Node9&#45;&gt;Node19</title>
<g id="a_edge24_Node000009_Node000019"><a xlink:title=" ">
<path fill="none" stroke="#63b8ff" d="M470.9,-164.75C464.83,-157.26 455.91,-146.28 448.49,-137.13"/>
<polygon fill="#63b8ff" stroke="#63b8ff" points="450.99,-134.65 441.97,-129.09 445.55,-139.06 450.99,-134.65"/>
</a>
</g>
</g>
<!-- Node11&#45;&gt;Node6 -->
<g id="edge16_Node000011_Node000006" class="edge">
<title>Node11&#45;&gt;Node6</title>
<g id="a_edge16_Node000011_Node000006"><a xlink:title=" ">
<path fill="none" stroke="#63b8ff" d="M626.5,-109.93C587.21,-101.58 525.66,-88.35 462.82,-74.15"/>
<polygon fill="#63b8ff" stroke="#63b8ff" points="463.25,-70.66 452.72,-71.87 461.7,-77.49 463.25,-70.66"/>
</a>
</g>
</g>
<!-- Node11&#45;&gt;Node7 -->
<g id="edge18_Node000011_Node000007" class="edge">
<title>Node11&#45;&gt;Node7</title>
<g id="a_edge18_Node000011_Node000007"><a xlink:title=" ">
<path fill="none" stroke="#63b8ff" d="M652.06,-109.98C637.33,-101.59 614.6,-88.64 597.46,-78.87"/>
<polygon fill="#63b8ff" stroke="#63b8ff" points="599.02,-75.73 588.6,-73.82 595.55,-81.81 599.02,-75.73"/>
</a>
</g>
</g>
<!-- Node11&#45;&gt;Node8 -->
<g id="edge19_Node000011_Node000008" class="edge">
<title>Node11&#45;&gt;Node8</title>
<g id="a_edge19_Node000011_Node000008"><a xlink:title=" ">
<path fill="none" stroke="#63b8ff" d="M625.8,-112C560.73,-101.74 434.98,-81.9 370.8,-71.78"/>
<polygon fill="#63b8ff" stroke="#63b8ff" points="371.09,-68.28 360.67,-70.18 370,-75.2 371.09,-68.28"/>
</a>
</g>
</g>
<!-- Node11&#45;&gt;Node10 -->
<g id="edge17_Node000011_Node000010" class="edge">
<title>Node11&#45;&gt;Node10</title>
<g id="a_edge17_Node000011_Node000010"><a xlink:title=" ">
<path fill="none" stroke="#63b8ff" d="M641.13,-109.98C614.22,-101.13 571.88,-87.19 541.77,-77.28"/>
<polygon fill="#63b8ff" stroke="#63b8ff" points="542.66,-73.88 532.07,-74.08 540.47,-80.53 542.66,-73.88"/>
</a>
</g>
</g>
<!-- Node12 -->
<g id="Node000012" class="node">
<title>Node12</title>
<g id="a_Node000012"><a xlink:title=" ">
<polygon fill="#e0e0e0" stroke="#999999" points="727,-74 607,-74 607,-55 727,-55 727,-74"/>
<text text-anchor="middle" x="667" y="-62" font-family="Helvetica,sans-Serif" font-size="10.00">qcompilerdetection.h</text>
</a>
</g>
</g>
<!-- Node11&#45;&gt;Node12 -->
<g id="edge13_Node000011_Node000012" class="edge">
<title>Node11&#45;&gt;Node12</title>
<g id="a_edge13_Node000011_Node000012"><a xlink:title=" ">
<path fill="none" stroke="#63b8ff" d="M667,-109.75C667,-102.8 667,-92.85 667,-84.13"/>
<polygon fill="#63b8ff" stroke="#63b8ff" points="670.5,-84.09 667,-74.09 663.5,-84.09 670.5,-84.09"/>
</a>
</g>
</g>
<!-- Node13 -->
<g id="Node000013" class="node">
<title>Node13</title>
<g id="a_Node000013"><a xlink:title=" ">
<polygon fill="#e0e0e0" stroke="#999999" points="818.5,-74 745.5,-74 745.5,-55 818.5,-55 818.5,-74"/>
<text text-anchor="middle" x="782" y="-62" font-family="Helvetica,sans-Serif" font-size="10.00">QFileDialog</text>
</a>
</g>
</g>
<!-- Node11&#45;&gt;Node13 -->
<g id="edge14_Node000011_Node000013" class="edge">
<title>Node11&#45;&gt;Node13</title>
<g id="a_edge14_Node000011_Node000013"><a xlink:title=" ">
<path fill="none" stroke="#63b8ff" d="M685.48,-109.98C703.98,-101.46 732.68,-88.23 753.98,-78.41"/>
<polygon fill="#63b8ff" stroke="#63b8ff" points="755.57,-81.53 763.19,-74.17 752.64,-75.18 755.57,-81.53"/>
</a>
</g>
</g>
<!-- Node14 -->
<g id="Node000014" class="node">
<title>Node14</title>
<g id="a_Node000014"><a xlink:title=" ">
<polygon fill="#e0e0e0" stroke="#999999" points="887,-74 837,-74 837,-55 887,-55 887,-74"/>
<text text-anchor="middle" x="862" y="-62" font-family="Helvetica,sans-Serif" font-size="10.00">QLineF</text>
</a>
</g>
</g>
<!-- Node11&#45;&gt;Node14 -->
<g id="edge15_Node000011_Node000014" class="edge">
<title>Node11&#45;&gt;Node14</title>
<g id="a_edge15_Node000011_Node000014"><a xlink:title=" ">
<path fill="none" stroke="#63b8ff" d="M698.33,-109.98C733.56,-100.41 790.61,-84.9 827.2,-74.96"/>
<polygon fill="#63b8ff" stroke="#63b8ff" points="828.21,-78.31 836.95,-72.31 826.38,-71.55 828.21,-78.31"/>
</a>
</g>
</g>
<!-- Node15 -->
<g id="Node000015" class="node">
<title>Node15</title>
<g id="a_Node000015"><a xlink:title=" ">
<polygon fill="#e0e0e0" stroke="#999999" points="961,-74 905,-74 905,-55 961,-55 961,-74"/>
<text text-anchor="middle" x="933" y="-62" font-family="Helvetica,sans-Serif" font-size="10.00">QPrinter</text>
</a>
</g>
</g>
<!-- Node11&#45;&gt;Node15 -->
<g id="edge20_Node000011_Node000015" class="edge">
<title>Node11&#45;&gt;Node15</title>
<g id="a_edge20_Node000011_Node000015"><a xlink:title=" ">
<path fill="none" stroke="#63b8ff" d="M708.04,-110.96C751.87,-102.81 823.62,-89.19 894.72,-74.22"/>
<polygon fill="#63b8ff" stroke="#63b8ff" points="895.68,-77.59 904.74,-72.1 894.23,-70.74 895.68,-77.59"/>
</a>
</g>
</g>
<!-- Node16 -->
<g id="Node000016" class="node">
<title>Node16</title>
<g id="a_Node000016"><a xlink:title=" ">
<polygon fill="#e0e0e0" stroke="#999999" points="1030.5,-74 979.5,-74 979.5,-55 1030.5,-55 1030.5,-74"/>
<text text-anchor="middle" x="1005" y="-62" font-family="Helvetica,sans-Serif" font-size="10.00">csignal</text>
</a>
</g>
</g>
<!-- Node11&#45;&gt;Node16 -->
<g id="edge21_Node000011_Node000016" class="edge">
<title>Node11&#45;&gt;Node16</title>
<g id="a_edge21_Node000011_Node000016"><a xlink:title=" ">
<path fill="none" stroke="#63b8ff" d="M708.37,-113.65C765.01,-106.75 870.05,-92.99 969.53,-73.92"/>
<polygon fill="#63b8ff" stroke="#63b8ff" points="970.29,-77.33 979.45,-71.99 968.96,-70.46 970.29,-77.33"/>
</a>
</g>
</g>
<!-- Node17 -->
<g id="Node000017" class="node">
<title>Node17</title>
<g id="a_Node000017"><a xlink:href="../../d4/d82/debugbreak_8h.html" target="_top" xlink:title=" ">
<polygon fill="white" stroke="#666666" points="1131.5,-74 1048.5,-74 1048.5,-55 1131.5,-55 1131.5,-74"/>
<text text-anchor="middle" x="1090" y="-62" font-family="Helvetica,sans-Serif" font-size="10.00">debugbreak.h</text>
</a>
</g>
</g>
<!-- Node11&#45;&gt;Node17 -->
<g id="edge22_Node000011_Node000017" class="edge">
<title>Node11&#45;&gt;Node17</title>
<g id="a_edge22_Node000011_Node000017"><a xlink:title=" ">
<path fill="none" stroke="#63b8ff" d="M708.21,-114.26C775.24,-107.22 912.31,-92.2 1038.09,-74.22"/>
<polygon fill="#63b8ff" stroke="#63b8ff" points="1038.88,-77.64 1048.28,-72.75 1037.89,-70.71 1038.88,-77.64"/>
</a>
</g>
</g>
<!-- Node18 -->
<g id="Node000018" class="node">
<title>Node18</title>
<g id="a_Node000018"><a xlink:title=" ">
<polygon fill="#e0e0e0" stroke="#999999" points="1117.5,-19 1062.5,-19 1062.5,0 1117.5,0 1117.5,-19"/>
<text text-anchor="middle" x="1090" y="-7" font-family="Helvetica,sans-Serif" font-size="10.00">signal.h</text>
</a>
</g>
</g>
<!-- Node17&#45;&gt;Node18 -->
<g id="edge23_Node000017_Node000018" class="edge">
<title>Node17&#45;&gt;Node18</title>
<g id="a_edge23_Node000017_Node000018"><a xlink:title=" ">
<path fill="none" stroke="#63b8ff" d="M1090,-54.75C1090,-47.8 1090,-37.85 1090,-29.13"/>
<polygon fill="#63b8ff" stroke="#63b8ff" points="1093.5,-29.09 1090,-19.09 1086.5,-29.09 1093.5,-29.09"/>
</a>
</g>
</g>
<!-- Node19&#45;&gt;Node8 -->
<g id="edge25_Node000019_Node000008" class="edge">
<title>Node19&#45;&gt;Node8</title>
<g id="a_edge25_Node000019_Node000008"><a xlink:title=" ">
<path fill="none" stroke="#63b8ff" d="M418.29,-109.98C401.79,-101.57 376.3,-88.59 357.12,-78.81"/>
<polygon fill="#63b8ff" stroke="#63b8ff" points="358.51,-75.59 348.01,-74.17 355.33,-81.83 358.51,-75.59"/>
</a>
</g>
</g>
</g>
</svg>

<g id="navigator" transform="translate(0 0)" fill="#404254">
  <rect fill="#f2f5e9" fill-opacity="0.5" stroke="#606060" stroke-width=".5" x="0" y="0" width="60" height="60"/>
  <use id="zoomplus" xlink:href="#zoomPlus" x="17" y="9" onmousedown="handleZoom(evt,'in')"/>
  <use id="zoomminus" xlink:href="#zoomMin" x="42" y="9" onmousedown="handleZoom(evt,'out')"/>
  <use id="reset" xlink:href="#resetDef" x="30" y="36" onmousedown="handleReset()"/>
   <use id="arrowup" xlink:href="#arrowUp" x="0" y="0" onmousedown="handlePan(0,-1)"/>
  <use id="arrowright" xlink:href="#arrowRight" x="0" y="0" onmousedown="handlePan(1,0)"/>
  <use id="arrowdown" xlink:href="#arrowDown" x="0" y="0" onmousedown="handlePan(0,1)"/>
  <use id="arrowleft" xlink:href="#arrowLeft" x="0" y="0" onmousedown="handlePan(-1,0)"/>
</g>
<svg viewBox="0 0 15 15" width="100%" height="30px" preserveAspectRatio="xMaxYMin meet">
 <g id="arrow_out" transform="scale(0.3 0.3)">
  <a xlink:href="vabstractsimple_8h__incl_org.svg" target="_base">
   <rect id="button" ry="5" rx="5" y="6" x="6" height="38" width="38"
        fill="#f2f5e9" fill-opacity="0.5" stroke="#606060" stroke-width="1.0"/>
   <path id="arrow"
     d="M 11.500037,31.436501 C 11.940474,20.09759 22.043105,11.32322 32.158766,21.979434 L 37.068811,17.246167 C 37.068811,17.246167 37.088388,32 37.088388,32 L 22.160133,31.978069 C 22.160133,31.978069 26.997745,27.140456 26.997745,27.140456 C 18.528582,18.264221 13.291696,25.230495 11.500037,31.436501 z"
     style="fill:#404040;"/>
  </a>
 </g>
</svg>

<style type='text/css'>
<![CDATA[
[data-mouse-over-selected='false'] { opacity: 0.7; }
[data-mouse-over-selected='true']  { opacity: 1.0; }
]]>
</style>
<script type="application/ecmascript"><![CDATA[
document.addEventListener('DOMContentLoaded', (event) => {
  highlightEdges();
  highlightAdjacentNodes();
});
]]></script>
</svg>
