<?xml version="1.0" encoding="UTF-8" standalone="no"?>
<!DOCTYPE svg PUBLIC "-//W3C//DTD SVG 1.1//EN"
 "http://www.w3.org/Graphics/SVG/1.1/DTD/svg11.dtd">
<!-- Generated by graphviz version 2.43.0 (0)
 -->
<!-- Title: src/libs/vlayout/vposter.cpp Pages: 1 -->
<svg width="1629pt" height="247pt"
 viewBox="0.00 0.00 1628.50 247.00" xmlns="http://www.w3.org/2000/svg" xmlns:xlink="http://www.w3.org/1999/xlink">
<g id="graph0" class="graph" transform="scale(1 1) rotate(0) translate(4 243)">
<title>src/libs/vlayout/vposter.cpp</title>
<!-- Node1 -->
<g id="Node000001" class="node">
<title>Node1</title>
<g id="a_Node000001"><a xlink:title=" ">
<polygon fill="#999999" stroke="#666666" points="1098.5,-239 948.5,-239 948.5,-220 1098.5,-220 1098.5,-239"/>
<text text-anchor="middle" x="1023.5" y="-227" font-family="Helvetica,sans-Serif" font-size="10.00">src/libs/vlayout/vposter.cpp</text>
</a>
</g>
</g>
<!-- Node2 -->
<g id="Node000002" class="node">
<title>Node2</title>
<g id="a_Node000002"><a xlink:href="../../d1/db7/vposter_8h.html" target="_top" xlink:title=" ">
<polygon fill="white" stroke="#666666" points="451.5,-184 389.5,-184 389.5,-165 451.5,-165 451.5,-184"/>
<text text-anchor="middle" x="420.5" y="-172" font-family="Helvetica,sans-Serif" font-size="10.00">vposter.h</text>
</a>
</g>
</g>
<!-- Node1&#45;&gt;Node2 -->
<g id="edge1_Node000001_Node000002" class="edge">
<title>Node1&#45;&gt;Node2</title>
<g id="a_edge1_Node000001_Node000002"><a xlink:title=" ">
<path fill="none" stroke="#63b8ff" d="M948.35,-221.89C819.82,-210.6 561.98,-187.94 461.71,-179.12"/>
<polygon fill="#63b8ff" stroke="#63b8ff" points="461.94,-175.63 451.67,-178.24 461.33,-182.6 461.94,-175.63"/>
</a>
</g>
</g>
<!-- Node6 -->
<g id="Node000006" class="node">
<title>Node6</title>
<g id="a_Node000006"><a xlink:href="../../d4/da4/def_8h.html" target="_top" xlink:title=" ">
<polygon fill="white" stroke="#666666" points="530.5,-129 448.5,-129 448.5,-110 530.5,-110 530.5,-129"/>
<text text-anchor="middle" x="489.5" y="-117" font-family="Helvetica,sans-Serif" font-size="10.00">../vmisc/def.h</text>
</a>
</g>
</g>
<!-- Node1&#45;&gt;Node6 -->
<g id="edge30_Node000001_Node000006" class="edge">
<title>Node1&#45;&gt;Node6</title>
<g id="a_edge30_Node000001_Node000006"><a xlink:title=" ">
<path fill="none" stroke="#63b8ff" d="M948.39,-225.53C871.52,-221.12 749.13,-210.31 646.5,-184 598.7,-171.75 546.09,-148.27 515.53,-133.55"/>
<polygon fill="#63b8ff" stroke="#63b8ff" points="516.94,-130.34 506.41,-129.1 513.87,-136.63 516.94,-130.34"/>
</a>
</g>
</g>
<!-- Node10 -->
<g id="Node000010" class="node">
<title>Node10</title>
<g id="a_Node000010"><a xlink:title=" ">
<polygon fill="#e0e0e0" stroke="#999999" points="687,-74 634,-74 634,-55 687,-55 687,-74"/>
<text text-anchor="middle" x="660.5" y="-62" font-family="Helvetica,sans-Serif" font-size="10.00">QString</text>
</a>
</g>
</g>
<!-- Node1&#45;&gt;Node10 -->
<g id="edge24_Node000001_Node000010" class="edge">
<title>Node1&#45;&gt;Node10</title>
<g id="a_edge24_Node000001_Node000010"><a xlink:title=" ">
<path fill="none" stroke="#63b8ff" d="M948.29,-224.82C872.07,-219.79 760.53,-208.41 725.5,-184 690.8,-159.82 672.74,-110.94 665.09,-84.13"/>
<polygon fill="#63b8ff" stroke="#63b8ff" points="668.38,-82.9 662.43,-74.13 661.62,-84.7 668.38,-82.9"/>
</a>
</g>
</g>
<!-- Node12 -->
<g id="Node000012" class="node">
<title>Node12</title>
<g id="a_Node000012"><a xlink:title=" ">
<polygon fill="#e0e0e0" stroke="#999999" points="734,-74 705,-74 705,-55 734,-55 734,-74"/>
<text text-anchor="middle" x="719.5" y="-62" font-family="Helvetica,sans-Serif" font-size="10.00">Qt</text>
</a>
</g>
</g>
<!-- Node1&#45;&gt;Node12 -->
<g id="edge26_Node000001_Node000012" class="edge">
<title>Node1&#45;&gt;Node12</title>
<g id="a_edge26_Node000001_Node000012"><a xlink:title=" ">
<path fill="none" stroke="#63b8ff" d="M948.29,-226.09C875.19,-222.14 771.14,-211.67 742.5,-184 715.58,-158 715.03,-110.61 717.15,-84.33"/>
<polygon fill="#63b8ff" stroke="#63b8ff" points="720.65,-84.49 718.2,-74.18 713.69,-83.77 720.65,-84.49"/>
</a>
</g>
</g>
<!-- Node13 -->
<g id="Node000013" class="node">
<title>Node13</title>
<g id="a_Node000013"><a xlink:title=" ">
<polygon fill="#e0e0e0" stroke="#999999" points="808.5,-74 752.5,-74 752.5,-55 808.5,-55 808.5,-74"/>
<text text-anchor="middle" x="780.5" y="-62" font-family="Helvetica,sans-Serif" font-size="10.00">QPrinter</text>
</a>
</g>
</g>
<!-- Node1&#45;&gt;Node13 -->
<g id="edge22_Node000001_Node000013" class="edge">
<title>Node1&#45;&gt;Node13</title>
<g id="a_edge22_Node000001_Node000013"><a xlink:title=" ">
<path fill="none" stroke="#63b8ff" d="M948.33,-226.53C877.87,-222.91 779.82,-212.69 755.5,-184 730.91,-154.99 753.55,-107.81 768.96,-82.62"/>
<polygon fill="#63b8ff" stroke="#63b8ff" points="771.95,-84.44 774.39,-74.13 766.05,-80.67 771.95,-84.44"/>
</a>
</g>
</g>
<!-- Node17 -->
<g id="Node000017" class="node">
<title>Node17</title>
<g id="a_Node000017"><a xlink:title=" ">
<polygon fill="#e0e0e0" stroke="#999999" points="874.5,-184 764.5,-184 764.5,-165 874.5,-165 874.5,-184"/>
<text text-anchor="middle" x="819.5" y="-172" font-family="Helvetica,sans-Serif" font-size="10.00">QGraphicsLineItem</text>
</a>
</g>
</g>
<!-- Node1&#45;&gt;Node17 -->
<g id="edge17_Node000001_Node000017" class="edge">
<title>Node1&#45;&gt;Node17</title>
<g id="a_edge17_Node000001_Node000017"><a xlink:title=" ">
<path fill="none" stroke="#63b8ff" d="M990.72,-219.98C955.88,-210.93 900.63,-196.58 862.36,-186.64"/>
<polygon fill="#63b8ff" stroke="#63b8ff" points="863.09,-183.21 852.53,-184.08 861.33,-189.98 863.09,-183.21"/>
</a>
</g>
</g>
<!-- Node18 -->
<g id="Node000018" class="node">
<title>Node18</title>
<g id="a_Node000018"><a xlink:title=" ">
<polygon fill="#e0e0e0" stroke="#999999" points="1018.5,-184 892.5,-184 892.5,-165 1018.5,-165 1018.5,-184"/>
<text text-anchor="middle" x="955.5" y="-172" font-family="Helvetica,sans-Serif" font-size="10.00">QGraphicsPixmapItem</text>
</a>
</g>
</g>
<!-- Node1&#45;&gt;Node18 -->
<g id="edge18_Node000001_Node000018" class="edge">
<title>Node1&#45;&gt;Node18</title>
<g id="a_edge18_Node000001_Node000018"><a xlink:title=" ">
<path fill="none" stroke="#63b8ff" d="M1012.57,-219.98C1002.42,-212.07 987.08,-200.11 974.85,-190.58"/>
<polygon fill="#63b8ff" stroke="#63b8ff" points="976.66,-187.56 966.62,-184.17 972.36,-193.08 976.66,-187.56"/>
</a>
</g>
</g>
<!-- Node19 -->
<g id="Node000019" class="node">
<title>Node19</title>
<g id="a_Node000019"><a xlink:title=" ">
<polygon fill="#e0e0e0" stroke="#999999" points="1146.5,-184 1036.5,-184 1036.5,-165 1146.5,-165 1146.5,-184"/>
<text text-anchor="middle" x="1091.5" y="-172" font-family="Helvetica,sans-Serif" font-size="10.00">QGraphicsTextItem</text>
</a>
</g>
</g>
<!-- Node1&#45;&gt;Node19 -->
<g id="edge19_Node000001_Node000019" class="edge">
<title>Node1&#45;&gt;Node19</title>
<g id="a_edge19_Node000001_Node000019"><a xlink:title=" ">
<path fill="none" stroke="#63b8ff" d="M1034.43,-219.98C1044.58,-212.07 1059.92,-200.11 1072.15,-190.58"/>
<polygon fill="#63b8ff" stroke="#63b8ff" points="1074.64,-193.08 1080.38,-184.17 1070.34,-187.56 1074.64,-193.08"/>
</a>
</g>
</g>
<!-- Node20 -->
<g id="Node000020" class="node">
<title>Node20</title>
<g id="a_Node000020"><a xlink:title=" ">
<polygon fill="#e0e0e0" stroke="#999999" points="1206.5,-184 1164.5,-184 1164.5,-165 1206.5,-165 1206.5,-184"/>
<text text-anchor="middle" x="1185.5" y="-172" font-family="Helvetica,sans-Serif" font-size="10.00">QPen</text>
</a>
</g>
</g>
<!-- Node1&#45;&gt;Node20 -->
<g id="edge20_Node000001_Node000020" class="edge">
<title>Node1&#45;&gt;Node20</title>
<g id="a_edge20_Node000001_Node000020"><a xlink:title=" ">
<path fill="none" stroke="#63b8ff" d="M1049.53,-219.98C1078.14,-210.63 1124.06,-195.6 1154.51,-185.64"/>
<polygon fill="#63b8ff" stroke="#63b8ff" points="1155.78,-188.91 1164.19,-182.47 1153.6,-182.25 1155.78,-188.91"/>
</a>
</g>
</g>
<!-- Node21 -->
<g id="Node000021" class="node">
<title>Node21</title>
<g id="a_Node000021"><a xlink:title=" ">
<polygon fill="#e0e0e0" stroke="#999999" points="1286,-184 1225,-184 1225,-165 1286,-165 1286,-184"/>
<text text-anchor="middle" x="1255.5" y="-172" font-family="Helvetica,sans-Serif" font-size="10.00">QPixmap</text>
</a>
</g>
</g>
<!-- Node1&#45;&gt;Node21 -->
<g id="edge21_Node000001_Node000021" class="edge">
<title>Node1&#45;&gt;Node21</title>
<g id="a_edge21_Node000001_Node000021"><a xlink:title=" ">
<path fill="none" stroke="#63b8ff" d="M1060.77,-219.98C1102.99,-210.34 1171.54,-194.68 1215.03,-184.74"/>
<polygon fill="#63b8ff" stroke="#63b8ff" points="1216.01,-188.11 1224.98,-182.47 1214.46,-181.29 1216.01,-188.11"/>
</a>
</g>
</g>
<!-- Node22 -->
<g id="Node000022" class="node">
<title>Node22</title>
<g id="a_Node000022"><a xlink:title=" ">
<polygon fill="#e0e0e0" stroke="#999999" points="1356.5,-184 1304.5,-184 1304.5,-165 1356.5,-165 1356.5,-184"/>
<text text-anchor="middle" x="1330.5" y="-172" font-family="Helvetica,sans-Serif" font-size="10.00">QRectF</text>
</a>
</g>
</g>
<!-- Node1&#45;&gt;Node22 -->
<g id="edge23_Node000001_Node000022" class="edge">
<title>Node1&#45;&gt;Node22</title>
<g id="a_edge23_Node000001_Node000022"><a xlink:title=" ">
<path fill="none" stroke="#63b8ff" d="M1083.7,-219.99C1136.71,-212.2 1216.2,-199.77 1294.18,-184.14"/>
<polygon fill="#63b8ff" stroke="#63b8ff" points="1295.07,-187.53 1304.17,-182.12 1293.68,-180.67 1295.07,-187.53"/>
</a>
</g>
</g>
<!-- Node23 -->
<g id="Node000023" class="node">
<title>Node23</title>
<g id="a_Node000023"><a xlink:title=" ">
<polygon fill="#e0e0e0" stroke="#999999" points="1430,-184 1375,-184 1375,-165 1430,-165 1430,-184"/>
<text text-anchor="middle" x="1402.5" y="-172" font-family="Helvetica,sans-Serif" font-size="10.00">QVector</text>
</a>
</g>
</g>
<!-- Node1&#45;&gt;Node23 -->
<g id="edge25_Node000001_Node000023" class="edge">
<title>Node1&#45;&gt;Node23</title>
<g id="a_edge25_Node000001_Node000023"><a xlink:title=" ">
<path fill="none" stroke="#63b8ff" d="M1098.54,-220.84C1165.74,-213.5 1267.15,-201.24 1364.65,-183.99"/>
<polygon fill="#63b8ff" stroke="#63b8ff" points="1365.45,-187.4 1374.68,-182.19 1364.22,-180.51 1365.45,-187.4"/>
</a>
</g>
</g>
<!-- Node24 -->
<g id="Node000024" class="node">
<title>Node24</title>
<g id="a_Node000024"><a xlink:title=" ">
<polygon fill="#e0e0e0" stroke="#999999" points="1504.5,-184 1448.5,-184 1448.5,-165 1504.5,-165 1504.5,-184"/>
<text text-anchor="middle" x="1476.5" y="-172" font-family="Helvetica,sans-Serif" font-size="10.00">QDebug</text>
</a>
</g>
</g>
<!-- Node1&#45;&gt;Node24 -->
<g id="edge27_Node000001_Node000024" class="edge">
<title>Node1&#45;&gt;Node24</title>
<g id="a_edge27_Node000001_Node000024"><a xlink:title=" ">
<path fill="none" stroke="#63b8ff" d="M1098.64,-223.17C1180.03,-216.79 1313.84,-204.52 1438.21,-184.03"/>
<polygon fill="#63b8ff" stroke="#63b8ff" points="1439,-187.45 1448.29,-182.35 1437.85,-180.54 1439,-187.45"/>
</a>
</g>
</g>
<!-- Node25 -->
<g id="Node000025" class="node">
<title>Node25</title>
<g id="a_Node000025"><a xlink:href="../../db/db3/vmath_8h.html" target="_top" xlink:title=" ">
<polygon fill="white" stroke="#666666" points="1620.5,-184 1522.5,-184 1522.5,-165 1620.5,-165 1620.5,-184"/>
<text text-anchor="middle" x="1571.5" y="-172" font-family="Helvetica,sans-Serif" font-size="10.00">../vmisc/vmath.h</text>
</a>
</g>
</g>
<!-- Node1&#45;&gt;Node25 -->
<g id="edge28_Node000001_Node000025" class="edge">
<title>Node1&#45;&gt;Node25</title>
<g id="a_edge28_Node000001_Node000025"><a xlink:title=" ">
<path fill="none" stroke="#63b8ff" d="M1098.76,-222.96C1193,-215.72 1359.61,-201.98 1512.43,-184.06"/>
<polygon fill="#63b8ff" stroke="#63b8ff" points="1512.96,-187.53 1522.48,-182.88 1512.14,-180.57 1512.96,-187.53"/>
</a>
</g>
</g>
<!-- Node3 -->
<g id="Node000003" class="node">
<title>Node3</title>
<g id="a_Node000003"><a xlink:title=" ">
<polygon fill="#e0e0e0" stroke="#999999" points="328,-129 227,-129 227,-110 328,-110 328,-129"/>
<text text-anchor="middle" x="277.5" y="-117" font-family="Helvetica,sans-Serif" font-size="10.00">QCoreApplication</text>
</a>
</g>
</g>
<!-- Node2&#45;&gt;Node3 -->
<g id="edge2_Node000002_Node000003" class="edge">
<title>Node2&#45;&gt;Node3</title>
<g id="a_edge2_Node000002_Node000003"><a xlink:title=" ">
<path fill="none" stroke="#63b8ff" d="M397.52,-164.98C374,-156.27 337.21,-142.63 310.56,-132.75"/>
<polygon fill="#63b8ff" stroke="#63b8ff" points="311.49,-129.36 300.89,-129.17 309.05,-135.93 311.49,-129.36"/>
</a>
</g>
</g>
<!-- Node4 -->
<g id="Node000004" class="node">
<title>Node4</title>
<g id="a_Node000004"><a xlink:title=" ">
<polygon fill="#e0e0e0" stroke="#999999" points="392.5,-129 346.5,-129 346.5,-110 392.5,-110 392.5,-129"/>
<text text-anchor="middle" x="369.5" y="-117" font-family="Helvetica,sans-Serif" font-size="10.00">QRect</text>
</a>
</g>
</g>
<!-- Node2&#45;&gt;Node4 -->
<g id="edge3_Node000002_Node000004" class="edge">
<title>Node2&#45;&gt;Node4</title>
<g id="a_edge3_Node000002_Node000004"><a xlink:title=" ">
<path fill="none" stroke="#63b8ff" d="M412.08,-164.75C404.73,-157.11 393.87,-145.82 384.96,-136.56"/>
<polygon fill="#63b8ff" stroke="#63b8ff" points="387.22,-133.87 377.76,-129.09 382.18,-138.72 387.22,-133.87"/>
</a>
</g>
</g>
<!-- Node5 -->
<g id="Node000005" class="node">
<title>Node5</title>
<g id="a_Node000005"><a xlink:title=" ">
<polygon fill="#e0e0e0" stroke="#999999" points="59,-74 0,-74 0,-55 59,-55 59,-74"/>
<text text-anchor="middle" x="29.5" y="-62" font-family="Helvetica,sans-Serif" font-size="10.00">QtGlobal</text>
</a>
</g>
</g>
<!-- Node2&#45;&gt;Node5 -->
<g id="edge4_Node000002_Node000005" class="edge">
<title>Node2&#45;&gt;Node5</title>
<g id="a_edge4_Node000002_Node000005"><a xlink:title=" ">
<path fill="none" stroke="#63b8ff" d="M420.71,-164.92C420.53,-151.01 417.95,-123.69 401.5,-110 346.46,-64.21 157.17,-84.25 69.2,-73.73"/>
<polygon fill="#63b8ff" stroke="#63b8ff" points="69.64,-70.25 59.25,-72.33 68.66,-77.18 69.64,-70.25"/>
</a>
</g>
</g>
<!-- Node2&#45;&gt;Node6 -->
<g id="edge5_Node000002_Node000006" class="edge">
<title>Node2&#45;&gt;Node6</title>
<g id="a_edge5_Node000002_Node000006"><a xlink:title=" ">
<path fill="none" stroke="#63b8ff" d="M431.59,-164.98C441.99,-157 457.76,-144.88 470.22,-135.31"/>
<polygon fill="#63b8ff" stroke="#63b8ff" points="472.41,-138.04 478.21,-129.17 468.15,-132.49 472.41,-138.04"/>
</a>
</g>
</g>
<!-- Node6&#45;&gt;Node5 -->
<g id="edge12_Node000006_Node000005" class="edge">
<title>Node6&#45;&gt;Node5</title>
<g id="a_edge12_Node000006_Node000005"><a xlink:title=" ">
<path fill="none" stroke="#63b8ff" d="M448.39,-111.89C443.71,-111.22 439.01,-110.57 434.5,-110 275.66,-89.93 231.75,-99.05 69.59,-73.98"/>
<polygon fill="#63b8ff" stroke="#63b8ff" points="69.66,-70.45 59.24,-72.36 68.58,-77.36 69.66,-70.45"/>
</a>
</g>
</g>
<!-- Node7 -->
<g id="Node000007" class="node">
<title>Node7</title>
<g id="a_Node000007"><a xlink:title=" ">
<polygon fill="#e0e0e0" stroke="#999999" points="197.5,-74 77.5,-74 77.5,-55 197.5,-55 197.5,-74"/>
<text text-anchor="middle" x="137.5" y="-62" font-family="Helvetica,sans-Serif" font-size="10.00">qcompilerdetection.h</text>
</a>
</g>
</g>
<!-- Node6&#45;&gt;Node7 -->
<g id="edge6_Node000006_Node000007" class="edge">
<title>Node6&#45;&gt;Node7</title>
<g id="a_edge6_Node000006_Node000007"><a xlink:title=" ">
<path fill="none" stroke="#63b8ff" d="M448.36,-112.12C443.68,-111.4 438.99,-110.68 434.5,-110 355.81,-98.02 265.35,-84.51 205.14,-75.54"/>
<polygon fill="#63b8ff" stroke="#63b8ff" points="205.41,-72.05 195,-74.04 204.38,-78.97 205.41,-72.05"/>
</a>
</g>
</g>
<!-- Node8 -->
<g id="Node000008" class="node">
<title>Node8</title>
<g id="a_Node000008"><a xlink:title=" ">
<polygon fill="#e0e0e0" stroke="#999999" points="289,-74 216,-74 216,-55 289,-55 289,-74"/>
<text text-anchor="middle" x="252.5" y="-62" font-family="Helvetica,sans-Serif" font-size="10.00">QFileDialog</text>
</a>
</g>
</g>
<!-- Node6&#45;&gt;Node8 -->
<g id="edge7_Node000006_Node000008" class="edge">
<title>Node6&#45;&gt;Node8</title>
<g id="a_edge7_Node000006_Node000008"><a xlink:title=" ">
<path fill="none" stroke="#63b8ff" d="M451.42,-109.98C410.03,-100.73 343.84,-85.93 299.31,-75.97"/>
<polygon fill="#63b8ff" stroke="#63b8ff" points="299.84,-72.5 289.31,-73.73 298.31,-79.33 299.84,-72.5"/>
</a>
</g>
</g>
<!-- Node9 -->
<g id="Node000009" class="node">
<title>Node9</title>
<g id="a_Node000009"><a xlink:title=" ">
<polygon fill="#e0e0e0" stroke="#999999" points="357.5,-74 307.5,-74 307.5,-55 357.5,-55 357.5,-74"/>
<text text-anchor="middle" x="332.5" y="-62" font-family="Helvetica,sans-Serif" font-size="10.00">QLineF</text>
</a>
</g>
</g>
<!-- Node6&#45;&gt;Node9 -->
<g id="edge8_Node000006_Node000009" class="edge">
<title>Node6&#45;&gt;Node9</title>
<g id="a_edge8_Node000006_Node000009"><a xlink:title=" ">
<path fill="none" stroke="#63b8ff" d="M464.28,-109.98C438.07,-101.14 396.86,-87.23 367.51,-77.32"/>
<polygon fill="#63b8ff" stroke="#63b8ff" points="368.26,-73.88 357.66,-73.99 366.02,-80.51 368.26,-73.88"/>
</a>
</g>
</g>
<!-- Node6&#45;&gt;Node10 -->
<g id="edge9_Node000006_Node000010" class="edge">
<title>Node6&#45;&gt;Node10</title>
<g id="a_edge9_Node000006_Node000010"><a xlink:title=" ">
<path fill="none" stroke="#63b8ff" d="M516.97,-109.98C546.02,-100.98 591.99,-86.73 624.06,-76.8"/>
<polygon fill="#63b8ff" stroke="#63b8ff" points="625.42,-80.04 633.94,-73.73 623.35,-73.35 625.42,-80.04"/>
</a>
</g>
</g>
<!-- Node11 -->
<g id="Node000011" class="node">
<title>Node11</title>
<g id="a_Node000011"><a xlink:title=" ">
<polygon fill="#e0e0e0" stroke="#999999" points="445.5,-74 375.5,-74 375.5,-55 445.5,-55 445.5,-74"/>
<text text-anchor="middle" x="410.5" y="-62" font-family="Helvetica,sans-Serif" font-size="10.00">QStringList</text>
</a>
</g>
</g>
<!-- Node6&#45;&gt;Node11 -->
<g id="edge10_Node000006_Node000011" class="edge">
<title>Node6&#45;&gt;Node11</title>
<g id="a_edge10_Node000006_Node000011"><a xlink:title=" ">
<path fill="none" stroke="#63b8ff" d="M476.81,-109.98C464.67,-101.84 446.14,-89.41 431.75,-79.76"/>
<polygon fill="#63b8ff" stroke="#63b8ff" points="433.68,-76.84 423.42,-74.17 429.78,-82.65 433.68,-76.84"/>
</a>
</g>
</g>
<!-- Node6&#45;&gt;Node12 -->
<g id="edge11_Node000006_Node000012" class="edge">
<title>Node6&#45;&gt;Node12</title>
<g id="a_edge11_Node000006_Node000012"><a xlink:title=" ">
<path fill="none" stroke="#63b8ff" d="M530.53,-111.24C570.33,-103.84 632.56,-91.33 695.22,-73.76"/>
<polygon fill="#63b8ff" stroke="#63b8ff" points="696.21,-77.12 704.87,-71.01 694.3,-70.38 696.21,-77.12"/>
</a>
</g>
</g>
<!-- Node6&#45;&gt;Node13 -->
<g id="edge13_Node000006_Node000013" class="edge">
<title>Node6&#45;&gt;Node13</title>
<g id="a_edge13_Node000006_Node000013"><a xlink:title=" ">
<path fill="none" stroke="#63b8ff" d="M530.8,-111.83C580.98,-103.6 668.15,-88.85 742.5,-74 742.6,-73.98 742.7,-73.96 742.8,-73.94"/>
<polygon fill="#63b8ff" stroke="#63b8ff" points="743.23,-77.42 752.31,-71.96 741.8,-70.57 743.23,-77.42"/>
</a>
</g>
</g>
<!-- Node14 -->
<g id="Node000014" class="node">
<title>Node14</title>
<g id="a_Node000014"><a xlink:title=" ">
<polygon fill="#e0e0e0" stroke="#999999" points="515,-74 464,-74 464,-55 515,-55 515,-74"/>
<text text-anchor="middle" x="489.5" y="-62" font-family="Helvetica,sans-Serif" font-size="10.00">csignal</text>
</a>
</g>
</g>
<!-- Node6&#45;&gt;Node14 -->
<g id="edge14_Node000006_Node000014" class="edge">
<title>Node6&#45;&gt;Node14</title>
<g id="a_edge14_Node000006_Node000014"><a xlink:title=" ">
<path fill="none" stroke="#63b8ff" d="M489.5,-109.75C489.5,-102.8 489.5,-92.85 489.5,-84.13"/>
<polygon fill="#63b8ff" stroke="#63b8ff" points="493,-84.09 489.5,-74.09 486,-84.09 493,-84.09"/>
</a>
</g>
</g>
<!-- Node15 -->
<g id="Node000015" class="node">
<title>Node15</title>
<g id="a_Node000015"><a xlink:href="../../d4/d82/debugbreak_8h.html" target="_top" xlink:title=" ">
<polygon fill="white" stroke="#666666" points="616,-74 533,-74 533,-55 616,-55 616,-74"/>
<text text-anchor="middle" x="574.5" y="-62" font-family="Helvetica,sans-Serif" font-size="10.00">debugbreak.h</text>
</a>
</g>
</g>
<!-- Node6&#45;&gt;Node15 -->
<g id="edge15_Node000006_Node000015" class="edge">
<title>Node6&#45;&gt;Node15</title>
<g id="a_edge15_Node000006_Node000015"><a xlink:title=" ">
<path fill="none" stroke="#63b8ff" d="M503.16,-109.98C516.34,-101.77 536.53,-89.18 552.07,-79.49"/>
<polygon fill="#63b8ff" stroke="#63b8ff" points="553.96,-82.43 560.59,-74.17 550.26,-76.49 553.96,-82.43"/>
</a>
</g>
</g>
<!-- Node16 -->
<g id="Node000016" class="node">
<title>Node16</title>
<g id="a_Node000016"><a xlink:title=" ">
<polygon fill="#e0e0e0" stroke="#999999" points="602,-19 547,-19 547,0 602,0 602,-19"/>
<text text-anchor="middle" x="574.5" y="-7" font-family="Helvetica,sans-Serif" font-size="10.00">signal.h</text>
</a>
</g>
</g>
<!-- Node15&#45;&gt;Node16 -->
<g id="edge16_Node000015_Node000016" class="edge">
<title>Node15&#45;&gt;Node16</title>
<g id="a_edge16_Node000015_Node000016"><a xlink:title=" ">
<path fill="none" stroke="#63b8ff" d="M574.5,-54.75C574.5,-47.8 574.5,-37.85 574.5,-29.13"/>
<polygon fill="#63b8ff" stroke="#63b8ff" points="578,-29.09 574.5,-19.09 571,-29.09 578,-29.09"/>
</a>
</g>
</g>
<!-- Node26 -->
<g id="Node000026" class="node">
<title>Node26</title>
<g id="a_Node000026"><a xlink:title=" ">
<polygon fill="#e0e0e0" stroke="#999999" points="1598,-129 1545,-129 1545,-110 1598,-110 1598,-129"/>
<text text-anchor="middle" x="1571.5" y="-117" font-family="Helvetica,sans-Serif" font-size="10.00">QtMath</text>
</a>
</g>
</g>
<!-- Node25&#45;&gt;Node26 -->
<g id="edge29_Node000025_Node000026" class="edge">
<title>Node25&#45;&gt;Node26</title>
<g id="a_edge29_Node000025_Node000026"><a xlink:title=" ">
<path fill="none" stroke="#63b8ff" d="M1571.5,-164.75C1571.5,-157.8 1571.5,-147.85 1571.5,-139.13"/>
<polygon fill="#63b8ff" stroke="#63b8ff" points="1575,-139.09 1571.5,-129.09 1568,-139.09 1575,-139.09"/>
</a>
</g>
</g>
</g>
</svg>
