<?xml version="1.0" encoding="UTF-8" standalone="no"?>
<!DOCTYPE svg PUBLIC "-//W3C//DTD SVG 1.1//EN"
 "http://www.w3.org/Graphics/SVG/1.1/DTD/svg11.dtd">
<!-- Generated by graphviz version 2.43.0 (0)
 -->
<!-- Title: src/app/seamlyme/mapplication.cpp Pages: 1 -->
<!--zoomable 203 -->

<svg id="main" version="1.1" xmlns="http://www.w3.org/2000/svg" xmlns:xlink="http://www.w3.org/1999/xlink" xml:space="preserve" onload="init(evt)">
<style type="text/css"><![CDATA[
.node, .edge {opacity: 0.7;}
.node.selected, .edge.selected {opacity: 1;}
.edge:hover path { stroke: red; }
.edge:hover polygon { stroke: red; fill: red; }
]]></style>

<defs>
  <circle id="rim" cx="0" cy="0" r="7"/>
  <circle id="rim2" cx="0" cy="0" r="3.5"/>
  <g id="zoomPlus">
    <use xlink:href="#rim" fill="#404040"><set attributeName="fill" to="#808080" begin="zoomplus.mouseover" end="zoomplus.mouseout"/></use>
    <path d="M-4,0h8M0,-4v8" fill="none" stroke="white" stroke-width="1.5" pointer-events="none"/>
  </g>
  <g id="zoomMin">
    <use xlink:href="#rim" fill="#404040"><set attributeName="fill" to="#808080" begin="zoomminus.mouseover" end="zoomminus.mouseout"/></use>
    <path d="M-4,0h8" fill="none" stroke="white" stroke-width="1.5" pointer-events="none"/>
  </g>
  <g id="arrowUp" transform="translate(30 24)">
    <use xlink:href="#rim"/>
    <path pointer-events="none" fill="none" stroke="white" stroke-width="1.5" d="M0,-3.0v7 M-2.5,-0.5L0,-3.0L2.5,-0.5"/>
  </g>
  <g id="arrowRight" transform="rotate(90) translate(36 -43)">
    <use xlink:href="#rim"/>
    <path pointer-events="none" fill="none" stroke="white" stroke-width="1.5" d="M0,-3.0v7 M-2.5,-0.5L0,-3.0L2.5,-0.5"/>
  </g>
  <g id="arrowDown" transform="rotate(180) translate(-30 -48)">
    <use xlink:href="#rim"/>
    <path pointer-events="none" fill="none" stroke="white" stroke-width="1.5" d="M0,-3.0v7 M-2.5,-0.5L0,-3.0L2.5,-0.5"/>
  </g>
  <g id="arrowLeft" transform="rotate(270) translate(-36 17)">
    <use xlink:href="#rim"/>
    <path pointer-events="none" fill="none" stroke="white" stroke-width="1.5" d="M0,-3.0v7 M-2.5,-0.5L0,-3.0L2.5,-0.5"/>
  </g>
  <g id="resetDef">
    <use xlink:href="#rim2" fill="#404040"><set attributeName="fill" to="#808080" begin="reset.mouseover" end="reset.mouseout"/></use>
  </g>
</defs>
<script type="application/ecmascript">
var viewWidth = 4313;
var viewHeight = 203;
var sectionId = 'dynsection-0';
</script>
<script type="application/ecmascript" xlink:href="../../svg.min.js"/>
<svg id="graph" class="graph">
<g id="viewport">
<title>src/app/seamlyme/mapplication.cpp</title>
<!-- Node1 -->
<g id="Node000001" class="node">
<title>Node1</title>
<g id="a_Node000001"><a xlink:title=" ">
<polygon fill="#999999" stroke="#666666" points="3106,-195 2912,-195 2912,-176 3106,-176 3106,-195"/>
<text text-anchor="middle" x="3009" y="-183" font-family="Helvetica,sans-Serif" font-size="10.00">src/app/seamlyme/mapplication.cpp</text>
</a>
</g>
</g>
<!-- Node2 -->
<g id="Node000002" class="node">
<title>Node2</title>
<g id="a_Node000002"><a xlink:href="../../df/da4/mapplication_8h.html" target="_top" xlink:title=" ">
<polygon fill="white" stroke="#666666" points="1134.5,-140 1045.5,-140 1045.5,-121 1134.5,-121 1134.5,-140"/>
<text text-anchor="middle" x="1090" y="-128" font-family="Helvetica,sans-Serif" font-size="10.00">mapplication.h</text>
</a>
</g>
</g>
<!-- Node1&#45;&gt;Node2 -->
<g id="edge1_Node000001_Node000002" class="edge">
<title>Node1&#45;&gt;Node2</title>
<g id="a_edge1_Node000001_Node000002"><a xlink:title=" ">
<path fill="none" stroke="#63b8ff" d="M2911.8,-183.92C2582.79,-181.68 1511.54,-172.13 1144.88,-140.02"/>
<polygon fill="#63b8ff" stroke="#63b8ff" points="1145.04,-136.52 1134.77,-139.12 1144.41,-143.5 1145.04,-136.52"/>
</a>
</g>
</g>
<!-- Node9 -->
<g id="Node000009" class="node">
<title>Node9</title>
<g id="a_Node000009"><a xlink:href="../../d0/d0c/seamlyme_2version_8h.html" target="_top" xlink:title=" ">
<polygon fill="white" stroke="#666666" points="1214,-140 1152,-140 1152,-121 1214,-121 1214,-140"/>
<text text-anchor="middle" x="1183" y="-128" font-family="Helvetica,sans-Serif" font-size="10.00">version.h</text>
</a>
</g>
</g>
<!-- Node1&#45;&gt;Node9 -->
<g id="edge8_Node000001_Node000009" class="edge">
<title>Node1&#45;&gt;Node9</title>
<g id="a_edge8_Node000001_Node000009"><a xlink:title=" ">
<path fill="none" stroke="#63b8ff" d="M2911.72,-184.44C2591.96,-183.88 1574.28,-179.07 1224.5,-139.9"/>
<polygon fill="#63b8ff" stroke="#63b8ff" points="1224.69,-136.4 1214.35,-138.73 1223.89,-143.35 1224.69,-136.4"/>
</a>
</g>
</g>
<!-- Node11 -->
<g id="Node000011" class="node">
<title>Node11</title>
<g id="a_Node000011"><a xlink:href="../../dc/dc0/tmainwindow_8h.html" target="_top" xlink:title=" ">
<polygon fill="white" stroke="#666666" points="529.5,-140 438.5,-140 438.5,-121 529.5,-121 529.5,-140"/>
<text text-anchor="middle" x="484" y="-128" font-family="Helvetica,sans-Serif" font-size="10.00">tmainwindow.h</text>
</a>
</g>
</g>
<!-- Node1&#45;&gt;Node11 -->
<g id="edge10_Node000001_Node000011" class="edge">
<title>Node1&#45;&gt;Node11</title>
<g id="a_edge10_Node000001_Node000011"><a xlink:title=" ">
<path fill="none" stroke="#63b8ff" d="M2911.95,-182.46C2495,-173.71 862.29,-139.44 539.58,-132.67"/>
<polygon fill="#63b8ff" stroke="#63b8ff" points="539.61,-129.17 529.54,-132.46 539.46,-136.17 539.61,-129.17"/>
</a>
</g>
</g>
<!-- Node17 -->
<g id="Node000017" class="node">
<title>Node17</title>
<g id="a_Node000017"><a xlink:title=" ">
<polygon fill="#e0e0e0" stroke="#999999" points="1439.5,-140 1232.5,-140 1232.5,-121 1439.5,-121 1439.5,-140"/>
<text text-anchor="middle" x="1336" y="-128" font-family="Helvetica,sans-Serif" font-size="10.00">../ifc/exception/vexceptionobjecterror.h</text>
</a>
</g>
</g>
<!-- Node1&#45;&gt;Node17 -->
<g id="edge18_Node000001_Node000017" class="edge">
<title>Node1&#45;&gt;Node17</title>
<g id="a_edge18_Node000001_Node000017"><a xlink:title=" ">
<path fill="none" stroke="#63b8ff" d="M2911.73,-183.3C2667.79,-179.95 2010.09,-168.81 1450.05,-140.02"/>
<polygon fill="#63b8ff" stroke="#63b8ff" points="1449.91,-136.51 1439.74,-139.49 1449.55,-143.5 1449.91,-136.51"/>
</a>
</g>
</g>
<!-- Node18 -->
<g id="Node000018" class="node">
<title>Node18</title>
<g id="a_Node000018"><a xlink:title=" ">
<polygon fill="#e0e0e0" stroke="#999999" points="1640,-140 1458,-140 1458,-121 1640,-121 1640,-140"/>
<text text-anchor="middle" x="1549" y="-128" font-family="Helvetica,sans-Serif" font-size="10.00">../ifc/exception/vexceptionbadid.h</text>
</a>
</g>
</g>
<!-- Node1&#45;&gt;Node18 -->
<g id="edge19_Node000001_Node000018" class="edge">
<title>Node1&#45;&gt;Node18</title>
<g id="a_edge19_Node000001_Node000018"><a xlink:title=" ">
<path fill="none" stroke="#63b8ff" d="M2911.62,-183.05C2689.84,-179.38 2129.84,-167.98 1650.25,-140.04"/>
<polygon fill="#63b8ff" stroke="#63b8ff" points="1650.19,-136.53 1640,-139.44 1649.78,-143.52 1650.19,-136.53"/>
</a>
</g>
</g>
<!-- Node19 -->
<g id="Node000019" class="node">
<title>Node19</title>
<g id="a_Node000019"><a xlink:title=" ">
<polygon fill="#e0e0e0" stroke="#999999" points="1888,-140 1658,-140 1658,-121 1888,-121 1888,-140"/>
<text text-anchor="middle" x="1773" y="-128" font-family="Helvetica,sans-Serif" font-size="10.00">../ifc/exception/vexceptionconversionerror.h</text>
</a>
</g>
</g>
<!-- Node1&#45;&gt;Node19 -->
<g id="edge20_Node000001_Node000019" class="edge">
<title>Node1&#45;&gt;Node19</title>
<g id="a_edge20_Node000001_Node000019"><a xlink:title=" ">
<path fill="none" stroke="#63b8ff" d="M2911.9,-181.54C2720.31,-175.51 2279.83,-160.62 1898.31,-140.05"/>
<polygon fill="#63b8ff" stroke="#63b8ff" points="1898.35,-136.55 1888.17,-139.51 1897.97,-143.54 1898.35,-136.55"/>
</a>
</g>
</g>
<!-- Node20 -->
<g id="Node000020" class="node">
<title>Node20</title>
<g id="a_Node000020"><a xlink:title=" ">
<polygon fill="#e0e0e0" stroke="#999999" points="2142,-140 1906,-140 1906,-121 2142,-121 2142,-140"/>
<text text-anchor="middle" x="2024" y="-128" font-family="Helvetica,sans-Serif" font-size="10.00">../ifc/exception/vexceptionemptyparameter.h</text>
</a>
</g>
</g>
<!-- Node1&#45;&gt;Node20 -->
<g id="edge21_Node000001_Node000020" class="edge">
<title>Node1&#45;&gt;Node20</title>
<g id="a_edge21_Node000001_Node000020"><a xlink:title=" ">
<path fill="none" stroke="#63b8ff" d="M2911.83,-179.94C2754.61,-172.45 2434.45,-156.76 2152.32,-140.07"/>
<polygon fill="#63b8ff" stroke="#63b8ff" points="2152.49,-136.57 2142.3,-139.48 2152.07,-143.56 2152.49,-136.57"/>
</a>
</g>
</g>
<!-- Node21 -->
<g id="Node000021" class="node">
<title>Node21</title>
<g id="a_Node000021"><a xlink:title=" ">
<polygon fill="#e0e0e0" stroke="#999999" points="2354,-140 2160,-140 2160,-121 2354,-121 2354,-140"/>
<text text-anchor="middle" x="2257" y="-128" font-family="Helvetica,sans-Serif" font-size="10.00">../ifc/exception/vexceptionwrongid.h</text>
</a>
</g>
</g>
<!-- Node1&#45;&gt;Node21 -->
<g id="edge22_Node000001_Node000021" class="edge">
<title>Node1&#45;&gt;Node21</title>
<g id="a_edge22_Node000001_Node000021"><a xlink:title=" ">
<path fill="none" stroke="#63b8ff" d="M2912,-178.12C2787.86,-169.89 2565.87,-154.93 2364.29,-140.01"/>
<polygon fill="#63b8ff" stroke="#63b8ff" points="2364.33,-136.51 2354.1,-139.26 2363.81,-143.49 2364.33,-136.51"/>
</a>
</g>
</g>
<!-- Node22 -->
<g id="Node000022" class="node">
<title>Node22</title>
<g id="a_Node000022"><a xlink:title=" ">
<polygon fill="#e0e0e0" stroke="#999999" points="2475.5,-140 2372.5,-140 2372.5,-121 2475.5,-121 2475.5,-140"/>
<text text-anchor="middle" x="2424" y="-128" font-family="Helvetica,sans-Serif" font-size="10.00">../vmisc/logging.h</text>
</a>
</g>
</g>
<!-- Node1&#45;&gt;Node22 -->
<g id="edge23_Node000001_Node000022" class="edge">
<title>Node1&#45;&gt;Node22</title>
<g id="a_edge23_Node000001_Node000022"><a xlink:title=" ">
<path fill="none" stroke="#63b8ff" d="M2911.79,-177.81C2808.73,-170.37 2640.97,-157.23 2485.76,-140.02"/>
<polygon fill="#63b8ff" stroke="#63b8ff" points="2485.89,-136.51 2475.56,-138.88 2485.11,-143.47 2485.89,-136.51"/>
</a>
</g>
</g>
<!-- Node23 -->
<g id="Node000023" class="node">
<title>Node23</title>
<g id="a_Node000023"><a xlink:title=" ">
<polygon fill="#e0e0e0" stroke="#999999" points="2606.5,-140 2493.5,-140 2493.5,-121 2606.5,-121 2606.5,-140"/>
<text text-anchor="middle" x="2550" y="-128" font-family="Helvetica,sans-Serif" font-size="10.00">../vmisc/vsysexits.h</text>
</a>
</g>
</g>
<!-- Node1&#45;&gt;Node23 -->
<g id="edge24_Node000001_Node000023" class="edge">
<title>Node1&#45;&gt;Node23</title>
<g id="a_edge24_Node000001_Node000023"><a xlink:title=" ">
<path fill="none" stroke="#63b8ff" d="M2930.67,-175.99C2853.56,-167.53 2732.18,-153.99 2616.61,-140.06"/>
<polygon fill="#63b8ff" stroke="#63b8ff" points="2616.87,-136.56 2606.52,-138.84 2616.03,-143.51 2616.87,-136.56"/>
</a>
</g>
</g>
<!-- Node24 -->
<g id="Node000024" class="node">
<title>Node24</title>
<g id="a_Node000024"><a xlink:title=" ">
<polygon fill="#e0e0e0" stroke="#999999" points="2741.5,-140 2624.5,-140 2624.5,-121 2741.5,-121 2741.5,-140"/>
<text text-anchor="middle" x="2683" y="-128" font-family="Helvetica,sans-Serif" font-size="10.00">../vmisc/diagnostic.h</text>
</a>
</g>
</g>
<!-- Node1&#45;&gt;Node24 -->
<g id="edge25_Node000001_Node000024" class="edge">
<title>Node1&#45;&gt;Node24</title>
<g id="a_edge25_Node000001_Node000024"><a xlink:title=" ">
<path fill="none" stroke="#63b8ff" d="M2956.62,-175.98C2899.08,-166.63 2806.71,-151.61 2745.45,-141.65"/>
<polygon fill="#63b8ff" stroke="#63b8ff" points="2745.95,-138.19 2735.52,-140.04 2744.83,-145.1 2745.95,-138.19"/>
</a>
</g>
</g>
<!-- Node25 -->
<g id="Node000025" class="node">
<title>Node25</title>
<g id="a_Node000025"><a xlink:title=" ">
<polygon fill="#e0e0e0" stroke="#999999" points="2924.5,-140 2759.5,-140 2759.5,-121 2924.5,-121 2924.5,-140"/>
<text text-anchor="middle" x="2842" y="-128" font-family="Helvetica,sans-Serif" font-size="10.00">../qmuparser/qmuparsererror.h</text>
</a>
</g>
</g>
<!-- Node1&#45;&gt;Node25 -->
<g id="edge26_Node000001_Node000025" class="edge">
<title>Node1&#45;&gt;Node25</title>
<g id="a_edge26_Node000001_Node000025"><a xlink:title=" ">
<path fill="none" stroke="#63b8ff" d="M2982.17,-175.98C2954.13,-167.09 2909.95,-153.07 2878.7,-143.15"/>
<polygon fill="#63b8ff" stroke="#63b8ff" points="2879.63,-139.77 2869.04,-140.08 2877.51,-146.44 2879.63,-139.77"/>
</a>
</g>
</g>
<!-- Node26 -->
<g id="Node000026" class="node">
<title>Node26</title>
<g id="a_Node000026"><a xlink:title=" ">
<polygon fill="#e0e0e0" stroke="#999999" points="2971.5,-140 2942.5,-140 2942.5,-121 2971.5,-121 2971.5,-140"/>
<text text-anchor="middle" x="2957" y="-128" font-family="Helvetica,sans-Serif" font-size="10.00">Qt</text>
</a>
</g>
</g>
<!-- Node1&#45;&gt;Node26 -->
<g id="edge27_Node000001_Node000026" class="edge">
<title>Node1&#45;&gt;Node26</title>
<g id="a_edge27_Node000001_Node000026"><a xlink:title=" ">
<path fill="none" stroke="#63b8ff" d="M3000.41,-175.75C2992.84,-168.03 2981.62,-156.6 2972.49,-147.28"/>
<polygon fill="#63b8ff" stroke="#63b8ff" points="2974.93,-144.78 2965.43,-140.09 2969.93,-149.68 2974.93,-144.78"/>
</a>
</g>
</g>
<!-- Node27 -->
<g id="Node000027" class="node">
<title>Node27</title>
<g id="a_Node000027"><a xlink:title=" ">
<polygon fill="#e0e0e0" stroke="#999999" points="3028,-140 2990,-140 2990,-121 3028,-121 3028,-140"/>
<text text-anchor="middle" x="3009" y="-128" font-family="Helvetica,sans-Serif" font-size="10.00">QDir</text>
</a>
</g>
</g>
<!-- Node1&#45;&gt;Node27 -->
<g id="edge28_Node000001_Node000027" class="edge">
<title>Node1&#45;&gt;Node27</title>
<g id="a_edge28_Node000001_Node000027"><a xlink:title=" ">
<path fill="none" stroke="#63b8ff" d="M3009,-175.75C3009,-168.8 3009,-158.85 3009,-150.13"/>
<polygon fill="#63b8ff" stroke="#63b8ff" points="3012.5,-150.09 3009,-140.09 3005.5,-150.09 3012.5,-150.09"/>
</a>
</g>
</g>
<!-- Node28 -->
<g id="Node000028" class="node">
<title>Node28</title>
<g id="a_Node000028"><a xlink:title=" ">
<polygon fill="#e0e0e0" stroke="#999999" points="3141.5,-140 3046.5,-140 3046.5,-121 3141.5,-121 3141.5,-140"/>
<text text-anchor="middle" x="3094" y="-128" font-family="Helvetica,sans-Serif" font-size="10.00">QFileOpenEvent</text>
</a>
</g>
</g>
<!-- Node1&#45;&gt;Node28 -->
<g id="edge29_Node000001_Node000028" class="edge">
<title>Node1&#45;&gt;Node28</title>
<g id="a_edge29_Node000001_Node000028"><a xlink:title=" ">
<path fill="none" stroke="#63b8ff" d="M3022.66,-175.98C3035.84,-167.77 3056.03,-155.18 3071.57,-145.49"/>
<polygon fill="#63b8ff" stroke="#63b8ff" points="3073.46,-148.43 3080.09,-140.17 3069.76,-142.49 3073.46,-148.43"/>
</a>
</g>
</g>
<!-- Node29 -->
<g id="Node000029" class="node">
<title>Node29</title>
<g id="a_Node000029"><a xlink:title=" ">
<polygon fill="#e0e0e0" stroke="#999999" points="3242,-140 3160,-140 3160,-121 3242,-121 3242,-140"/>
<text text-anchor="middle" x="3201" y="-128" font-family="Helvetica,sans-Serif" font-size="10.00">QLocalSocket</text>
</a>
</g>
</g>
<!-- Node1&#45;&gt;Node29 -->
<g id="edge30_Node000001_Node000029" class="edge">
<title>Node1&#45;&gt;Node29</title>
<g id="a_edge30_Node000001_Node000029"><a xlink:title=" ">
<path fill="none" stroke="#63b8ff" d="M3039.85,-175.98C3072.5,-166.97 3124.2,-152.7 3160.2,-142.76"/>
<polygon fill="#63b8ff" stroke="#63b8ff" points="3161.2,-146.12 3169.91,-140.08 3159.34,-139.37 3161.2,-146.12"/>
</a>
</g>
</g>
<!-- Node30 -->
<g id="Node000030" class="node">
<title>Node30</title>
<g id="a_Node000030"><a xlink:title=" ">
<polygon fill="#e0e0e0" stroke="#999999" points="3329.5,-140 3260.5,-140 3260.5,-121 3329.5,-121 3329.5,-140"/>
<text text-anchor="middle" x="3295" y="-128" font-family="Helvetica,sans-Serif" font-size="10.00">QResource</text>
</a>
</g>
</g>
<!-- Node1&#45;&gt;Node30 -->
<g id="edge31_Node000001_Node000030" class="edge">
<title>Node1&#45;&gt;Node30</title>
<g id="a_edge31_Node000001_Node000030"><a xlink:title=" ">
<path fill="none" stroke="#63b8ff" d="M3056.32,-175.93C3103.03,-167.44 3176.74,-153.96 3250.49,-140.08"/>
<polygon fill="#63b8ff" stroke="#63b8ff" points="3251.24,-143.5 3260.42,-138.21 3249.94,-136.62 3251.24,-143.5"/>
</a>
</g>
</g>
<!-- Node31 -->
<g id="Node000031" class="node">
<title>Node31</title>
<g id="a_Node000031"><a xlink:title=" ">
<polygon fill="#e0e0e0" stroke="#999999" points="3420,-140 3348,-140 3348,-121 3420,-121 3420,-140"/>
<text text-anchor="middle" x="3384" y="-128" font-family="Helvetica,sans-Serif" font-size="10.00">QTranslator</text>
</a>
</g>
</g>
<!-- Node1&#45;&gt;Node31 -->
<g id="edge32_Node000001_Node000031" class="edge">
<title>Node1&#45;&gt;Node31</title>
<g id="a_edge32_Node000001_Node000031"><a xlink:title=" ">
<path fill="none" stroke="#63b8ff" d="M3080.29,-175.99C3144.95,-168.01 3243.13,-155.28 3337.66,-140.15"/>
<polygon fill="#63b8ff" stroke="#63b8ff" points="3338.36,-143.58 3347.68,-138.53 3337.25,-136.67 3338.36,-143.58"/>
</a>
</g>
</g>
<!-- Node32 -->
<g id="Node000032" class="node">
<title>Node32</title>
<g id="a_Node000032"><a xlink:title=" ">
<polygon fill="#e0e0e0" stroke="#999999" points="3497.5,-140 3438.5,-140 3438.5,-121 3497.5,-121 3497.5,-140"/>
<text text-anchor="middle" x="3468" y="-128" font-family="Helvetica,sans-Serif" font-size="10.00">QPointer</text>
</a>
</g>
</g>
<!-- Node1&#45;&gt;Node32 -->
<g id="edge33_Node000001_Node000032" class="edge">
<title>Node1&#45;&gt;Node32</title>
<g id="a_edge33_Node000001_Node000032"><a xlink:title=" ">
<path fill="none" stroke="#63b8ff" d="M3106.15,-177.23C3189.12,-170.32 3311.79,-158.46 3428.1,-139.97"/>
<polygon fill="#63b8ff" stroke="#63b8ff" points="3428.94,-143.38 3438.25,-138.33 3427.82,-136.47 3428.94,-143.38"/>
</a>
</g>
</g>
<!-- Node33 -->
<g id="Node000033" class="node">
<title>Node33</title>
<g id="a_Node000033"><a xlink:title=" ">
<polygon fill="#e0e0e0" stroke="#999999" points="3596.5,-140 3515.5,-140 3515.5,-121 3596.5,-121 3596.5,-140"/>
<text text-anchor="middle" x="3556" y="-128" font-family="Helvetica,sans-Serif" font-size="10.00">QLocalServer</text>
</a>
</g>
</g>
<!-- Node1&#45;&gt;Node33 -->
<g id="edge34_Node000001_Node000033" class="edge">
<title>Node1&#45;&gt;Node33</title>
<g id="a_edge34_Node000001_Node000033"><a xlink:title=" ">
<path fill="none" stroke="#63b8ff" d="M3106.13,-178.21C3204.43,-171.29 3360.99,-158.78 3505.46,-140.11"/>
<polygon fill="#63b8ff" stroke="#63b8ff" points="3505.93,-143.57 3515.4,-138.81 3505.03,-136.63 3505.93,-143.57"/>
</a>
</g>
</g>
<!-- Node34 -->
<g id="Node000034" class="node">
<title>Node34</title>
<g id="a_Node000034"><a xlink:title=" ">
<polygon fill="#e0e0e0" stroke="#999999" points="3701,-140 3615,-140 3615,-121 3701,-121 3701,-140"/>
<text text-anchor="middle" x="3658" y="-128" font-family="Helvetica,sans-Serif" font-size="10.00">QMessageBox</text>
</a>
</g>
</g>
<!-- Node1&#45;&gt;Node34 -->
<g id="edge35_Node000001_Node000034" class="edge">
<title>Node1&#45;&gt;Node34</title>
<g id="a_edge35_Node000001_Node000034"><a xlink:title=" ">
<path fill="none" stroke="#63b8ff" d="M3106.19,-179.88C3222.41,-173.76 3423.01,-161.31 3604.89,-140.03"/>
<polygon fill="#63b8ff" stroke="#63b8ff" points="3605.39,-143.49 3614.91,-138.84 3604.57,-136.54 3605.39,-143.49"/>
</a>
</g>
</g>
<!-- Node35 -->
<g id="Node000035" class="node">
<title>Node35</title>
<g id="a_Node000035"><a xlink:title=" ">
<polygon fill="#e0e0e0" stroke="#999999" points="3779,-140 3719,-140 3719,-121 3779,-121 3779,-140"/>
<text text-anchor="middle" x="3749" y="-128" font-family="Helvetica,sans-Serif" font-size="10.00">iostream</text>
</a>
</g>
</g>
<!-- Node1&#45;&gt;Node35 -->
<g id="edge36_Node000001_Node000035" class="edge">
<title>Node1&#45;&gt;Node35</title>
<g id="a_edge36_Node000001_Node000035"><a xlink:title=" ">
<path fill="none" stroke="#63b8ff" d="M3106.14,-182.97C3239.83,-179.82 3488.12,-170.26 3708.7,-139.96"/>
<polygon fill="#63b8ff" stroke="#63b8ff" points="3709.43,-143.39 3718.85,-138.54 3708.46,-136.45 3709.43,-143.39"/>
</a>
</g>
</g>
<!-- Node36 -->
<g id="Node000036" class="node">
<title>Node36</title>
<g id="a_Node000036"><a xlink:title=" ">
<polygon fill="#e0e0e0" stroke="#999999" points="3874.5,-140 3797.5,-140 3797.5,-121 3874.5,-121 3874.5,-140"/>
<text text-anchor="middle" x="3836" y="-128" font-family="Helvetica,sans-Serif" font-size="10.00">QGridLayout</text>
</a>
</g>
</g>
<!-- Node1&#45;&gt;Node36 -->
<g id="edge37_Node000001_Node000036" class="edge">
<title>Node1&#45;&gt;Node36</title>
<g id="a_edge37_Node000001_Node000036"><a xlink:title=" ">
<path fill="none" stroke="#63b8ff" d="M3106.17,-182.64C3251.95,-179.02 3536.01,-168.79 3787.23,-139.93"/>
<polygon fill="#63b8ff" stroke="#63b8ff" points="3787.76,-143.39 3797.29,-138.76 3786.95,-136.44 3787.76,-143.39"/>
</a>
</g>
</g>
<!-- Node37 -->
<g id="Node000037" class="node">
<title>Node37</title>
<g id="a_Node000037"><a xlink:title=" ">
<polygon fill="#e0e0e0" stroke="#999999" points="3973,-140 3893,-140 3893,-121 3973,-121 3973,-140"/>
<text text-anchor="middle" x="3933" y="-128" font-family="Helvetica,sans-Serif" font-size="10.00">QSpacerItem</text>
</a>
</g>
</g>
<!-- Node1&#45;&gt;Node37 -->
<g id="edge38_Node000001_Node000037" class="edge">
<title>Node1&#45;&gt;Node37</title>
<g id="a_edge38_Node000001_Node000037"><a xlink:title=" ">
<path fill="none" stroke="#63b8ff" d="M3106.1,-183.39C3265.98,-180.72 3594.82,-171.66 3882.72,-139.99"/>
<polygon fill="#63b8ff" stroke="#63b8ff" points="3883.39,-143.44 3892.95,-138.85 3882.62,-136.48 3883.39,-143.44"/>
</a>
</g>
</g>
<!-- Node38 -->
<g id="Node000038" class="node">
<title>Node38</title>
<g id="a_Node000038"><a xlink:title=" ">
<polygon fill="#e0e0e0" stroke="#999999" points="4049,-140 3991,-140 3991,-121 4049,-121 4049,-140"/>
<text text-anchor="middle" x="4020" y="-128" font-family="Helvetica,sans-Serif" font-size="10.00">QThread</text>
</a>
</g>
</g>
<!-- Node1&#45;&gt;Node38 -->
<g id="edge39_Node000001_Node000038" class="edge">
<title>Node1&#45;&gt;Node38</title>
<g id="a_edge39_Node000001_Node000038"><a xlink:title=" ">
<path fill="none" stroke="#63b8ff" d="M3106.23,-182.21C3313.99,-176.97 3796.57,-162.87 3980.52,-139.91"/>
<polygon fill="#63b8ff" stroke="#63b8ff" points="3981.17,-143.36 3990.63,-138.6 3980.27,-136.42 3981.17,-143.36"/>
</a>
</g>
</g>
<!-- Node39 -->
<g id="Node000039" class="node">
<title>Node39</title>
<g id="a_Node000039"><a xlink:title=" ">
<polygon fill="#e0e0e0" stroke="#999999" points="4161,-140 4067,-140 4067,-121 4161,-121 4161,-140"/>
<text text-anchor="middle" x="4114" y="-128" font-family="Helvetica,sans-Serif" font-size="10.00">QStandardPaths</text>
</a>
</g>
</g>
<!-- Node1&#45;&gt;Node39 -->
<g id="edge40_Node000001_Node000039" class="edge">
<title>Node1&#45;&gt;Node39</title>
<g id="a_edge40_Node000001_Node000039"><a xlink:title=" ">
<path fill="none" stroke="#63b8ff" d="M3106.14,-183.89C3289.87,-181.95 3701.02,-173.96 4057.01,-139.97"/>
<polygon fill="#63b8ff" stroke="#63b8ff" points="4057.37,-143.46 4066.99,-139.01 4056.7,-136.49 4057.37,-143.46"/>
</a>
</g>
</g>
<!-- Node40 -->
<g id="Node000040" class="node">
<title>Node40</title>
<g id="a_Node000040"><a xlink:title=" ">
<polygon fill="#e0e0e0" stroke="#999999" points="4304.5,-140 4179.5,-140 4179.5,-121 4304.5,-121 4304.5,-140"/>
<text text-anchor="middle" x="4242" y="-128" font-family="Helvetica,sans-Serif" font-size="10.00">QCommandLineParser</text>
</a>
</g>
</g>
<!-- Node1&#45;&gt;Node40 -->
<g id="edge41_Node000001_Node000040" class="edge">
<title>Node1&#45;&gt;Node40</title>
<g id="a_edge41_Node000001_Node000040"><a xlink:title=" ">
<path fill="none" stroke="#63b8ff" d="M3106.24,-183.37C3304.23,-180.51 3768.56,-170.89 4169.15,-139.99"/>
<polygon fill="#63b8ff" stroke="#63b8ff" points="4169.5,-143.47 4179.2,-139.21 4168.96,-136.5 4169.5,-143.47"/>
</a>
</g>
</g>
<!-- Node3 -->
<g id="Node000003" class="node">
<title>Node3</title>
<g id="a_Node000003"><a xlink:title=" ">
<polygon fill="#e0e0e0" stroke="#999999" points="997.5,-79.5 836.5,-79.5 836.5,-60.5 997.5,-60.5 997.5,-79.5"/>
<text text-anchor="middle" x="917" y="-67.5" font-family="Helvetica,sans-Serif" font-size="10.00">../vpatterndb/vtranslatevars.h</text>
</a>
</g>
</g>
<!-- Node2&#45;&gt;Node3 -->
<g id="edge2_Node000002_Node000003" class="edge">
<title>Node2&#45;&gt;Node3</title>
<g id="a_edge2_Node000002_Node000003"><a xlink:title=" ">
<path fill="none" stroke="#63b8ff" d="M1064.84,-120.99C1035.12,-110.94 985.48,-94.16 952.01,-82.84"/>
<polygon fill="#63b8ff" stroke="#63b8ff" points="952.78,-79.4 942.19,-79.52 950.54,-86.04 952.78,-79.4"/>
</a>
</g>
</g>
<!-- Node4 -->
<g id="Node000004" class="node">
<title>Node4</title>
<g id="a_Node000004"><a xlink:title=" ">
<polygon fill="#e0e0e0" stroke="#999999" points="818,-79.5 736,-79.5 736,-60.5 818,-60.5 818,-79.5"/>
<text text-anchor="middle" x="777" y="-67.5" font-family="Helvetica,sans-Serif" font-size="10.00">../vmisc/def.h</text>
</a>
</g>
</g>
<!-- Node2&#45;&gt;Node4 -->
<g id="edge3_Node000002_Node000004" class="edge">
<title>Node2&#45;&gt;Node4</title>
<g id="a_edge3_Node000002_Node000004"><a xlink:title=" ">
<path fill="none" stroke="#63b8ff" d="M1045.05,-123.37C992.46,-115.85 902.92,-102 827,-85 823.15,-84.14 819.16,-83.16 815.18,-82.14"/>
<polygon fill="#63b8ff" stroke="#63b8ff" points="815.99,-78.73 805.42,-79.52 814.18,-85.49 815.99,-78.73"/>
</a>
</g>
</g>
<!-- Node5 -->
<g id="Node000005" class="node">
<title>Node5</title>
<g id="a_Node000005"><a xlink:title=" ">
<polygon fill="#e0e0e0" stroke="#999999" points="1347,-79.5 1183,-79.5 1183,-60.5 1347,-60.5 1347,-79.5"/>
<text text-anchor="middle" x="1265" y="-67.5" font-family="Helvetica,sans-Serif" font-size="10.00">../vmisc/vseamlymesettings.h</text>
</a>
</g>
</g>
<!-- Node2&#45;&gt;Node5 -->
<g id="edge4_Node000002_Node000005" class="edge">
<title>Node2&#45;&gt;Node5</title>
<g id="a_edge4_Node000002_Node000005"><a xlink:title=" ">
<path fill="none" stroke="#63b8ff" d="M1115.45,-120.99C1145.64,-110.9 1196.16,-94.01 1230.02,-82.69"/>
<polygon fill="#63b8ff" stroke="#63b8ff" points="1231.15,-86.01 1239.52,-79.52 1228.93,-79.37 1231.15,-86.01"/>
</a>
</g>
</g>
<!-- Node6 -->
<g id="Node000006" class="node">
<title>Node6</title>
<g id="a_Node000006"><a xlink:title=" ">
<polygon fill="#e0e0e0" stroke="#999999" points="1532.5,-79.5 1365.5,-79.5 1365.5,-60.5 1532.5,-60.5 1532.5,-79.5"/>
<text text-anchor="middle" x="1449" y="-67.5" font-family="Helvetica,sans-Serif" font-size="10.00">../vmisc/vabstractapplication.h</text>
</a>
</g>
</g>
<!-- Node2&#45;&gt;Node6 -->
<g id="edge5_Node000002_Node000006" class="edge">
<title>Node2&#45;&gt;Node6</title>
<g id="a_edge5_Node000002_Node000006"><a xlink:title=" ">
<path fill="none" stroke="#63b8ff" d="M1134.74,-122.21C1198.16,-111.87 1314.47,-92.92 1386.42,-81.2"/>
<polygon fill="#63b8ff" stroke="#63b8ff" points="1387.39,-84.59 1396.7,-79.52 1386.27,-77.68 1387.39,-84.59"/>
</a>
</g>
</g>
<!-- Node7 -->
<g id="Node000007" class="node">
<title>Node7</title>
<g id="a_Node000007"><a xlink:href="../../d0/d0b/dialogmdatabase_8h.html" target="_top" xlink:title=" ">
<polygon fill="white" stroke="#666666" points="1164.5,-79.5 1015.5,-79.5 1015.5,-60.5 1164.5,-60.5 1164.5,-79.5"/>
<text text-anchor="middle" x="1090" y="-67.5" font-family="Helvetica,sans-Serif" font-size="10.00">dialogs/dialogmdatabase.h</text>
</a>
</g>
</g>
<!-- Node2&#45;&gt;Node7 -->
<g id="edge6_Node000002_Node000007" class="edge">
<title>Node2&#45;&gt;Node7</title>
<g id="a_edge6_Node000002_Node000007"><a xlink:title=" ">
<path fill="none" stroke="#63b8ff" d="M1090,-120.87C1090,-112.75 1090,-100.31 1090,-89.89"/>
<polygon fill="#63b8ff" stroke="#63b8ff" points="1093.5,-89.67 1090,-79.67 1086.5,-89.67 1093.5,-89.67"/>
</a>
</g>
</g>
<!-- Node8 -->
<g id="Node000008" class="node">
<title>Node8</title>
<g id="a_Node000008"><a xlink:title=" ">
<polygon fill="#e0e0e0" stroke="#999999" points="901,-19 845,-19 845,0 901,0 901,-19"/>
<text text-anchor="middle" x="873" y="-7" font-family="Helvetica,sans-Serif" font-size="10.00">QDialog</text>
</a>
</g>
</g>
<!-- Node7&#45;&gt;Node8 -->
<g id="edge7_Node000007_Node000008" class="edge">
<title>Node7&#45;&gt;Node8</title>
<g id="a_edge7_Node000007_Node000008"><a xlink:title=" ">
<path fill="none" stroke="#63b8ff" d="M1058.45,-60.49C1019.35,-49.95 952.8,-32.01 910.96,-20.73"/>
<polygon fill="#63b8ff" stroke="#63b8ff" points="911.71,-17.31 901.14,-18.09 909.88,-24.07 911.71,-17.31"/>
</a>
</g>
</g>
<!-- Node10 -->
<g id="Node000010" class="node">
<title>Node10</title>
<g id="a_Node000010"><a xlink:href="../../dc/d73/projectversion_8h.html" target="_top" xlink:title=" ">
<polygon fill="white" stroke="#666666" points="1717,-79.5 1551,-79.5 1551,-60.5 1717,-60.5 1717,-79.5"/>
<text text-anchor="middle" x="1634" y="-67.5" font-family="Helvetica,sans-Serif" font-size="10.00">../../libs/vmisc/projectversion.h</text>
</a>
</g>
</g>
<!-- Node9&#45;&gt;Node10 -->
<g id="edge9_Node000009_Node000010" class="edge">
<title>Node9&#45;&gt;Node10</title>
<g id="a_edge9_Node000009_Node000010"><a xlink:title=" ">
<path fill="none" stroke="#63b8ff" d="M1214.39,-122.53C1217.29,-121.98 1220.2,-121.46 1223,-121 1363.4,-98.19 1399.98,-103.59 1541,-85 1550.15,-83.79 1559.8,-82.44 1569.28,-81.06"/>
<polygon fill="#63b8ff" stroke="#63b8ff" points="1570.08,-84.47 1579.46,-79.55 1569.06,-77.55 1570.08,-84.47"/>
</a>
</g>
</g>
<!-- Node11&#45;&gt;Node4 -->
<g id="edge12_Node000011_Node000004" class="edge">
<title>Node11&#45;&gt;Node4</title>
<g id="a_edge12_Node000011_Node000004"><a xlink:title=" ">
<path fill="none" stroke="#63b8ff" d="M529.73,-122.3C578.57,-114.32 658.12,-100.53 726,-85 729.87,-84.12 733.88,-83.13 737.88,-82.1"/>
<polygon fill="#63b8ff" stroke="#63b8ff" points="738.94,-85.45 747.71,-79.5 737.15,-78.68 738.94,-85.45"/>
</a>
</g>
</g>
<!-- Node12 -->
<g id="Node000012" class="node">
<title>Node12</title>
<g id="a_Node000012"><a xlink:title=" ">
<polygon fill="#e0e0e0" stroke="#999999" points="84,-79.5 0,-79.5 0,-60.5 84,-60.5 84,-79.5"/>
<text text-anchor="middle" x="42" y="-67.5" font-family="Helvetica,sans-Serif" font-size="10.00">QTableWidget</text>
</a>
</g>
</g>
<!-- Node11&#45;&gt;Node12 -->
<g id="edge11_Node000011_Node000012" class="edge">
<title>Node11&#45;&gt;Node12</title>
<g id="a_edge11_Node000011_Node000012"><a xlink:title=" ">
<path fill="none" stroke="#63b8ff" d="M438.37,-126.7C364.89,-121.65 216.02,-109.24 92,-85 87.82,-84.18 83.48,-83.19 79.18,-82.12"/>
<polygon fill="#63b8ff" stroke="#63b8ff" points="79.88,-78.68 69.32,-79.5 78.09,-85.45 79.88,-78.68"/>
</a>
</g>
</g>
<!-- Node13 -->
<g id="Node000013" class="node">
<title>Node13</title>
<g id="a_Node000013"><a xlink:title=" ">
<polygon fill="#e0e0e0" stroke="#999999" points="222.5,-79.5 101.5,-79.5 101.5,-60.5 222.5,-60.5 222.5,-79.5"/>
<text text-anchor="middle" x="162" y="-67.5" font-family="Helvetica,sans-Serif" font-size="10.00">../vmisc/vlockguard.h</text>
</a>
</g>
</g>
<!-- Node11&#45;&gt;Node13 -->
<g id="edge13_Node000011_Node000013" class="edge">
<title>Node11&#45;&gt;Node13</title>
<g id="a_edge13_Node000011_Node000013"><a xlink:title=" ">
<path fill="none" stroke="#63b8ff" d="M438.42,-121.77C387.9,-113.13 304.04,-98.56 232,-85 226.15,-83.9 220.03,-82.72 213.94,-81.52"/>
<polygon fill="#63b8ff" stroke="#63b8ff" points="214.29,-78.02 203.8,-79.52 212.93,-84.89 214.29,-78.02"/>
</a>
</g>
</g>
<!-- Node14 -->
<g id="Node000014" class="node">
<title>Node14</title>
<g id="a_Node000014"><a xlink:title=" ">
<polygon fill="#e0e0e0" stroke="#999999" points="371,-79.5 241,-79.5 241,-60.5 371,-60.5 371,-79.5"/>
<text text-anchor="middle" x="306" y="-67.5" font-family="Helvetica,sans-Serif" font-size="10.00">../vmisc/vtablesearch.h</text>
</a>
</g>
</g>
<!-- Node11&#45;&gt;Node14 -->
<g id="edge14_Node000011_Node000014" class="edge">
<title>Node11&#45;&gt;Node14</title>
<g id="a_edge14_Node000011_Node000014"><a xlink:title=" ">
<path fill="none" stroke="#63b8ff" d="M458.12,-120.99C427.4,-110.9 376.02,-94.01 341.58,-82.69"/>
<polygon fill="#63b8ff" stroke="#63b8ff" points="342.51,-79.31 331.91,-79.52 340.32,-85.96 342.51,-79.31"/>
</a>
</g>
</g>
<!-- Node15 -->
<g id="Node000015" class="node">
<title>Node15</title>
<g id="a_Node000015"><a xlink:title=" ">
<polygon fill="#e0e0e0" stroke="#999999" points="578.5,-79.5 389.5,-79.5 389.5,-60.5 578.5,-60.5 578.5,-79.5"/>
<text text-anchor="middle" x="484" y="-67.5" font-family="Helvetica,sans-Serif" font-size="10.00">../vwidgets/vabstractmainwindow.h</text>
</a>
</g>
</g>
<!-- Node11&#45;&gt;Node15 -->
<g id="edge15_Node000011_Node000015" class="edge">
<title>Node11&#45;&gt;Node15</title>
<g id="a_edge15_Node000011_Node000015"><a xlink:title=" ">
<path fill="none" stroke="#63b8ff" d="M484,-120.87C484,-112.75 484,-100.31 484,-89.89"/>
<polygon fill="#63b8ff" stroke="#63b8ff" points="487.5,-89.67 484,-79.67 480.5,-89.67 487.5,-89.67"/>
</a>
</g>
</g>
<!-- Node16 -->
<g id="Node000016" class="node">
<title>Node16</title>
<g id="a_Node000016"><a xlink:href="../../d3/d41/me__shortcuts__dialog_8h.html" target="_top" xlink:title=" ">
<polygon fill="white" stroke="#666666" points="717.5,-85 596.5,-85 596.5,-55 717.5,-55 717.5,-85"/>
<text text-anchor="start" x="604.5" y="-73" font-family="Helvetica,sans-Serif" font-size="10.00">dialogs/me_shortcuts</text>
<text text-anchor="middle" x="657" y="-62" font-family="Helvetica,sans-Serif" font-size="10.00">_dialog.h</text>
</a>
</g>
</g>
<!-- Node11&#45;&gt;Node16 -->
<g id="edge16_Node000011_Node000016" class="edge">
<title>Node11&#45;&gt;Node16</title>
<g id="a_edge16_Node000011_Node000016"><a xlink:title=" ">
<path fill="none" stroke="#63b8ff" d="M509.16,-120.99C534.38,-112.46 573.94,-99.09 605.79,-88.32"/>
<polygon fill="#63b8ff" stroke="#63b8ff" points="607.06,-91.58 615.41,-85.06 604.81,-84.95 607.06,-91.58"/>
</a>
</g>
</g>
<!-- Node16&#45;&gt;Node8 -->
<g id="edge17_Node000016_Node000008" class="edge">
<title>Node16&#45;&gt;Node8</title>
<g id="a_edge17_Node000016_Node000008"><a xlink:title=" ">
<path fill="none" stroke="#63b8ff" d="M708.74,-54.99C747.59,-44.47 799.91,-30.29 834.97,-20.8"/>
<polygon fill="#63b8ff" stroke="#63b8ff" points="836.08,-24.13 844.82,-18.13 834.25,-17.37 836.08,-24.13"/>
</a>
</g>
</g>
</g>
</svg>

<g id="navigator" transform="translate(0 0)" fill="#404254">
  <rect fill="#f2f5e9" fill-opacity="0.5" stroke="#606060" stroke-width=".5" x="0" y="0" width="60" height="60"/>
  <use id="zoomplus" xlink:href="#zoomPlus" x="17" y="9" onmousedown="handleZoom(evt,'in')"/>
  <use id="zoomminus" xlink:href="#zoomMin" x="42" y="9" onmousedown="handleZoom(evt,'out')"/>
  <use id="reset" xlink:href="#resetDef" x="30" y="36" onmousedown="handleReset()"/>
   <use id="arrowup" xlink:href="#arrowUp" x="0" y="0" onmousedown="handlePan(0,-1)"/>
  <use id="arrowright" xlink:href="#arrowRight" x="0" y="0" onmousedown="handlePan(1,0)"/>
  <use id="arrowdown" xlink:href="#arrowDown" x="0" y="0" onmousedown="handlePan(0,1)"/>
  <use id="arrowleft" xlink:href="#arrowLeft" x="0" y="0" onmousedown="handlePan(-1,0)"/>
</g>
<svg viewBox="0 0 15 15" width="100%" height="30px" preserveAspectRatio="xMaxYMin meet">
 <g id="arrow_out" transform="scale(0.3 0.3)">
  <a xlink:href="mapplication_8cpp__incl_org.svg" target="_base">
   <rect id="button" ry="5" rx="5" y="6" x="6" height="38" width="38"
        fill="#f2f5e9" fill-opacity="0.5" stroke="#606060" stroke-width="1.0"/>
   <path id="arrow"
     d="M 11.500037,31.436501 C 11.940474,20.09759 22.043105,11.32322 32.158766,21.979434 L 37.068811,17.246167 C 37.068811,17.246167 37.088388,32 37.088388,32 L 22.160133,31.978069 C 22.160133,31.978069 26.997745,27.140456 26.997745,27.140456 C 18.528582,18.264221 13.291696,25.230495 11.500037,31.436501 z"
     style="fill:#404040;"/>
  </a>
 </g>
</svg>

<style type='text/css'>
<![CDATA[
[data-mouse-over-selected='false'] { opacity: 0.7; }
[data-mouse-over-selected='true']  { opacity: 1.0; }
]]>
</style>
<script type="application/ecmascript"><![CDATA[
document.addEventListener('DOMContentLoaded', (event) => {
  highlightEdges();
  highlightAdjacentNodes();
});
]]></script>
</svg>
